<svg width="328" height="387" viewBox="0 0 328 387" fill="none" xmlns="http://www.w3.org/2000/svg">
<path d="M300.358 244.153C299.962 241.507 299.475 238.885 298.923 236.297L274.111 248.324L300.358 244.153Z" fill="#92E3A9"/>
<path d="M177.708 152.101C177.708 152.101 104.344 181.315 64.6863 195.485C58.0768 206.076 53.0582 217.579 49.7909 229.628L112.785 202.104L62.9388 234.714L99.2086 228.375L98.3018 232.901L196.148 206.638L54.7863 270.984L76.5317 251.044L45.2984 262.996V263.244C45.279 279.057 48.1913 294.736 53.8878 309.488L192.513 256.484L116.379 296.365L252.325 247.417L216.055 255.578L266.816 230.197H238.765L290.944 211.633C289.224 207.732 287.323 203.937 285.24 200.25L180.758 235.637L278.126 189.039C266.821 173.102 252.024 159.959 234.863 150.615C217.703 141.271 198.634 135.973 179.113 135.125C159.592 134.277 140.135 137.902 122.229 145.724C104.323 153.545 88.4419 165.355 75.7981 180.252L177.708 152.101Z" fill="#92E3A9"/>
<path d="M266.866 298.187C264.558 298.187 285.339 287.19 300.778 279.186C302.081 268.664 302.081 258.022 300.778 247.5L170.792 301.797L205.215 275.518L86.1021 319.017H289.032C293.111 310.575 296.241 301.706 298.363 292.573C287.457 294.708 269.372 298.187 266.866 298.187Z" fill="#92E3A9"/>
<g opacity="0.3">
<path d="M300.358 244.153C299.962 241.507 299.476 238.885 298.924 236.297L274.112 248.324L300.358 244.153Z" fill="white"/>
<path d="M177.708 152.101C177.708 152.101 104.344 181.315 64.6863 195.485C58.0768 206.076 53.0582 217.579 49.7909 229.628L112.785 202.104L62.9388 234.714L99.2086 228.375L98.3018 232.901L196.148 206.638L54.7863 270.984L76.5317 251.044L45.2984 262.996V263.244C45.279 279.057 48.1913 294.736 53.8878 309.488L192.513 256.484L116.379 296.365L252.325 247.417L216.055 255.578L266.816 230.197H238.765L290.944 211.633C289.224 207.732 287.323 203.937 285.24 200.25L180.758 235.637L278.126 189.039C266.821 173.102 252.024 159.959 234.863 150.615C217.703 141.271 198.634 135.973 179.113 135.125C159.592 134.277 140.135 137.902 122.229 145.724C104.323 153.545 88.4419 165.355 75.7981 180.252L177.708 152.101Z" fill="white"/>
<path d="M266.866 298.187C264.558 298.187 285.339 287.19 300.778 279.186C302.081 268.664 302.081 258.022 300.778 247.5L170.792 301.797L205.215 275.518L86.1021 319.017H289.032C293.111 310.575 296.241 301.706 298.363 292.573C287.457 294.708 269.372 298.187 266.866 298.187Z" fill="white"/>
</g>
<path d="M139.369 115.411C151.434 115.411 161.214 105.631 161.214 93.567C161.214 81.5027 151.434 71.7227 139.369 71.7227C127.305 71.7227 117.525 81.5027 117.525 93.567C117.525 105.631 127.305 115.411 139.369 115.411Z" fill="white"/>
<path d="M316.185 319.017H324.428" stroke="#2E353A" stroke-miterlimit="10"/>
<path d="M44.9854 319.017H309.59" stroke="#2E353A" stroke-miterlimit="10"/>
<path d="M49.313 319.017L93.2407 282.953C93.4977 282.772 93.789 282.644 94.0969 282.579C94.4047 282.514 94.7226 282.512 95.0311 282.574C95.3397 282.636 95.6324 282.759 95.8915 282.938C96.1505 283.117 96.3705 283.346 96.538 283.612C97.8486 285.574 95.2273 299.349 95.2273 299.349L102.44 300.008L103.751 304.591L108.342 309.183L108.993 319.017H49.313Z" fill="#2E353A" stroke="#2E353A" stroke-miterlimit="10"/>
<path d="M13.2408 317.492L41.4406 297.164C41.4406 297.164 46.032 296.513 45.3726 301.096C44.7131 305.679 38.1598 310.939 38.1598 310.939L38.8193 316.181L39.8414 319.017H6.6875L13.2408 317.492Z" fill="#2E353A" stroke="#2E353A" stroke-miterlimit="10"/>
<path d="M246.873 114.191L185.715 110.471C181.775 110.232 178.387 113.231 178.147 117.171L174.045 184.632C173.805 188.572 176.805 191.96 180.745 192.2L241.903 195.919C245.843 196.158 249.231 193.159 249.47 189.219L253.573 121.758C253.812 117.818 250.813 114.43 246.873 114.191Z" fill="#92E3A9" stroke="#2E353A" stroke-miterlimit="10"/>
<path d="M171.352 146.051C171.352 146.051 166.679 151.821 152.945 155.943C139.212 160.064 135.907 162.265 135.907 162.265C135.907 162.265 127.936 165.01 125.191 171.877C122.446 178.743 124.094 182.321 140.028 181.224C155.962 180.128 188.935 167.211 188.935 167.211C188.935 167.211 194.985 156.215 193.609 146.875C192.232 137.536 174.097 142.201 171.352 146.051Z" fill="white"/>
<mask id="mask0_16563_264581" style="mask-type:luminance" maskUnits="userSpaceOnUse" x="124" y="141" width="70" height="41">
<path d="M171.352 146.051C171.352 146.051 166.679 151.821 152.945 155.943C139.212 160.064 135.907 162.265 135.907 162.265C135.907 162.265 127.936 165.01 125.191 171.877C122.446 178.743 124.094 182.321 140.028 181.224C155.962 180.128 188.935 167.211 188.935 167.211C188.935 167.211 194.985 156.215 193.609 146.875C192.232 137.536 174.097 142.201 171.352 146.051Z" fill="white"/>
</mask>
<g mask="url(#mask0_16563_264581)">
<g style="mix-blend-mode:multiply" opacity="0.49">
<path d="M134.596 175.092C134.596 175.092 134.918 178.232 135.206 181.414C136.649 181.414 138.24 181.348 140.028 181.224C155.962 180.12 188.935 167.211 188.935 167.211C191.28 162.735 192.859 157.898 193.609 152.901L191.754 147.609C191.754 147.609 182.406 158.053 173.619 164.095C164.832 170.137 134.596 175.092 134.596 175.092Z" fill="#92E3A9"/>
</g>
</g>
<path d="M171.352 146.051C171.352 146.051 166.679 151.821 152.945 155.943C139.212 160.064 135.907 162.265 135.907 162.265C135.907 162.265 127.936 165.01 125.191 171.877C122.446 178.743 124.094 182.321 140.028 181.224C155.962 180.128 188.935 167.211 188.935 167.211C188.935 167.211 194.985 156.215 193.609 146.875C192.232 137.536 174.097 142.201 171.352 146.051Z" stroke="#2E353A" stroke-miterlimit="10"/>
<path d="M136.476 176.806C136.476 176.806 169.292 171.712 185.539 162.471" stroke="#2E353A" stroke-width="0.5" stroke-miterlimit="10"/>
<path d="M164.09 175.825C165.063 172.643 166.101 167.046 163.933 161.441C162.794 158.406 160.615 155.873 157.784 154.294C156.308 154.863 154.701 155.415 152.945 155.943L151.667 156.33C154.553 158.102 159.16 161.919 159.54 168.307C159.776 171.276 159.723 174.26 159.383 177.218C160.958 176.765 162.532 176.303 164.09 175.825Z" fill="#2E353A" stroke="#2E353A" stroke-miterlimit="10"/>
<path d="M193.675 132.565C192.328 131.239 190.73 130.194 188.976 129.49C177.18 125.006 170.841 138.484 168.648 147.699C168.648 147.699 171.393 149.9 178.26 148.796C185.126 147.691 195.018 143.026 196.123 139.176C196.766 136.777 195.496 134.412 193.675 132.565Z" fill="#2E353A" stroke="#2E353A" stroke-miterlimit="10"/>
<path d="M138.107 165.282C138.107 165.282 138.107 171.605 133.706 173.253C129.304 174.902 125.19 171.877 125.19 171.877C125.19 171.877 124.366 159.792 125.462 157.591C126.559 155.391 136.179 160.064 138.107 165.282Z" fill="white" stroke="#2E353A" stroke-miterlimit="10"/>
<path d="M200.945 130.216C200.945 130.216 193.526 131.238 191.713 133.513C189.9 135.788 179.917 189.929 179.406 191.471C178.895 193.012 180.939 197.884 187.352 204.808C193.766 211.732 201.712 213.785 209.403 214.296C217.094 214.807 235.303 210.999 239.663 206.877C244.024 202.755 243.513 191.998 243.513 186.104C243.513 180.21 245.821 139.687 244.28 136.101C242.738 132.516 232.739 129.433 231.206 129.433C229.673 129.433 202.742 129.96 200.945 130.216Z" fill="white"/>
<mask id="mask1_16563_264581" style="mask-type:luminance" maskUnits="userSpaceOnUse" x="179" y="129" width="66" height="86">
<path d="M200.945 130.216C200.945 130.216 193.526 131.238 191.713 133.513C189.9 135.788 179.917 189.929 179.406 191.471C178.895 193.012 180.939 197.884 187.352 204.808C193.766 211.732 201.712 213.785 209.403 214.296C217.094 214.807 235.303 210.999 239.663 206.877C244.024 202.755 243.513 191.998 243.513 186.104C243.513 180.21 245.821 139.687 244.28 136.101C242.738 132.516 232.739 129.433 231.206 129.433C229.673 129.433 202.742 129.96 200.945 130.216Z" fill="white"/>
</mask>
<g mask="url(#mask1_16563_264581)">
<g style="mix-blend-mode:multiply" opacity="0.49">
<path d="M243.513 186.121C243.513 180.219 245.821 139.704 244.28 136.11C242.738 132.516 232.739 129.449 231.206 129.449C229.673 129.449 202.734 129.96 200.946 130.216C199.594 130.42 198.254 130.695 196.931 131.04C200.228 136.81 207.449 145.251 221.43 145.968C226.888 146.313 232.365 145.727 237.628 144.237L234.619 177.836L211.307 175.644L228.568 184.983L229.673 199.269L242.12 202.69C243.793 197.62 243.513 190.523 243.513 186.121Z" fill="#92E3A9"/>
</g>
</g>
<path d="M200.945 130.216C200.945 130.216 193.526 131.238 191.713 133.513C189.9 135.788 179.917 189.929 179.406 191.471C178.895 193.012 180.939 197.884 187.352 204.808C193.766 211.732 201.712 213.785 209.403 214.296C217.094 214.807 235.303 210.999 239.663 206.877C244.024 202.755 243.513 191.998 243.513 186.104C243.513 180.21 245.821 139.687 244.28 136.101C242.738 132.516 232.739 129.433 231.206 129.433C229.673 129.433 202.742 129.96 200.945 130.216Z" stroke="#2E353A" stroke-miterlimit="10"/>
<path d="M212.84 187.126C201.11 187.126 186.651 168.991 186.042 168.25L187.979 166.716C188.127 166.898 202.305 184.653 212.84 184.653C215.898 184.653 217.942 183.92 218.915 182.469C220.399 180.26 219.072 176.855 219.055 176.822L221.347 175.883C221.421 176.072 223.202 180.524 220.968 183.854C219.509 186.022 216.755 187.126 212.84 187.126Z" fill="#2E353A" stroke="#2E353A" stroke-miterlimit="10"/>
<path d="M175.383 193.053C176.1 192.418 177.032 191.602 177.856 190.968C177.196 190.885 173.652 190.358 172.663 187.876C171.673 185.395 173.223 181.752 177.023 177.012C188.621 162.57 207.102 159.528 207.292 159.504L206.921 156.94C206.097 157.064 187.344 160.138 175.127 175.355C170.618 180.969 169.027 185.519 170.388 188.882C170.861 189.903 171.554 190.806 172.418 191.527C173.282 192.248 174.294 192.77 175.383 193.053Z" fill="#2E353A" stroke="#2E353A" stroke-miterlimit="10"/>
<path d="M210.064 155.474L206.22 155.267L205.903 161.161L209.747 161.367L210.064 155.474Z" fill="white" stroke="#2E353A" stroke-miterlimit="10"/>
<path d="M217.359 174.243L217.127 178.085L223.018 178.442L223.251 174.599L217.359 174.243Z" fill="white" stroke="#2E353A" stroke-miterlimit="10"/>
<path d="M209.411 149.719L207.869 171.654C207.803 172.637 208.127 173.607 208.77 174.354C209.413 175.1 210.324 175.564 211.307 175.644L232.912 177.35C233.418 177.389 233.927 177.325 234.408 177.162C234.889 176.998 235.331 176.738 235.708 176.398C236.085 176.058 236.389 175.645 236.601 175.183C236.814 174.722 236.93 174.222 236.943 173.715L237.52 150.832C237.544 149.848 237.18 148.895 236.505 148.179C235.831 147.463 234.901 147.042 233.918 147.007L213.31 146.249C212.335 146.203 211.382 146.541 210.653 147.189C209.925 147.838 209.479 148.746 209.411 149.719Z" fill="white" stroke="#2E353A" stroke-miterlimit="10"/>
<path d="M219.278 146.463L218.635 160.476L225.559 160.987L226.449 146.727L219.278 146.463Z" fill="#92E3A9" stroke="#2E353A" stroke-miterlimit="10"/>
<path d="M235.558 167.401C235.558 168.263 235.302 169.107 234.823 169.824C234.343 170.541 233.662 171.1 232.864 171.43C232.067 171.76 231.19 171.846 230.344 171.677C229.498 171.508 228.721 171.092 228.111 170.481C227.502 169.87 227.087 169.093 226.92 168.246C226.752 167.4 226.84 166.523 227.171 165.726C227.503 164.93 228.063 164.249 228.781 163.771C229.499 163.293 230.343 163.038 231.206 163.04C231.778 163.04 232.345 163.153 232.873 163.372C233.402 163.591 233.882 163.913 234.286 164.318C234.691 164.723 235.011 165.204 235.229 165.733C235.447 166.262 235.559 166.828 235.558 167.401Z" fill="#92E3A9" stroke="#2E353A" stroke-miterlimit="10"/>
<path d="M123.954 184.381C123.954 184.381 130.136 185.478 134.398 182.321C138.66 179.163 136.319 173.525 132.469 170.368C128.62 167.211 120.797 166.246 117.632 167.755C114.466 169.263 116.123 175.174 117.087 178.339C118.052 181.505 119.692 183.829 123.954 184.381Z" fill="white" stroke="#2E353A" stroke-miterlimit="10"/>
<path d="M92.7291 82.7271C92.7291 82.7271 96.6116 94.9434 82.8786 102.09C69.1455 109.237 62.5427 108.685 46.6087 119.121C30.6747 129.556 26.8252 152.645 26.8252 152.645C26.8252 152.645 30.6665 142.754 48.8014 141.657C66.9363 140.561 85.0712 139.836 92.218 139.456C102.662 138.904 108.152 132.862 108.152 132.862L92.7291 82.7271Z" fill="#92E3A9" stroke="#2E353A" stroke-miterlimit="10"/>
<path d="M155.088 285.682L92.7289 82.7271C92.6489 82.4684 92.6208 82.1964 92.6464 81.9268C92.6719 81.6572 92.7505 81.3954 92.8777 81.1563C93.0049 80.9172 93.1782 80.7057 93.3875 80.5339C93.5968 80.3621 93.838 80.2334 94.0973 80.1552C94.6187 79.9978 95.1812 80.0523 95.6626 80.3069C96.1441 80.5615 96.5058 80.9958 96.6692 81.5153L159.053 284.486L155.088 285.682Z" fill="#2E353A" stroke="#2E353A" stroke-miterlimit="10"/>
<path d="M117.088 184.382C117.088 184.382 116.395 186.855 119.421 187.539C122.446 188.223 127.664 186.714 127.392 184.11C127.12 181.505 125.051 180.944 122.858 181.224C120.665 181.505 117.088 183.145 117.088 184.382Z" fill="white" stroke="#2E353A" stroke-miterlimit="10"/>
<path d="M119.693 175.867C119.693 175.867 112.035 177.07 111.713 178.719C111.392 180.367 111.993 184.209 114.038 184.786C116.082 185.363 122.85 184.687 124.07 182.502C125.29 180.318 123.608 176.147 122.034 175.693C121.657 175.54 121.249 175.475 120.843 175.505C120.437 175.535 120.043 175.659 119.693 175.867Z" fill="white" stroke="#2E353A" stroke-miterlimit="10"/>
<path d="M117.541 170.591C117.541 170.591 109.875 171.794 109.554 173.451C109.232 175.108 109.834 178.933 111.886 179.51C113.939 180.087 120.69 179.419 121.918 177.235C123.146 175.05 121.448 170.879 119.882 170.426C119.506 170.271 119.098 170.206 118.692 170.235C118.286 170.263 117.892 170.385 117.541 170.591Z" fill="white" stroke="#2E353A" stroke-miterlimit="10"/>
<path d="M115.933 162.661C115.933 162.661 107.55 162.183 106.866 163.864C106.182 165.546 105.902 169.725 107.938 170.805C109.974 171.885 117.277 172.726 119.074 170.69C120.871 168.654 120.039 163.864 118.481 163.024C118.114 162.769 117.692 162.603 117.25 162.54C116.808 162.477 116.357 162.518 115.933 162.661Z" fill="white" stroke="#2E353A" stroke-miterlimit="10"/>
<path d="M127.556 166.09C127.556 166.09 129.617 161.878 128.142 158.737C126.666 155.596 123.435 156.264 122.066 157.261C121.183 157.933 120.467 158.799 119.973 159.792C119.973 159.792 123.435 159.718 124.919 161.185C126.402 162.652 127.556 166.09 127.556 166.09Z" fill="#2E353A" stroke="#2E353A" stroke-miterlimit="10"/>
<path d="M126.905 160.773C126.804 160.363 126.599 159.985 126.311 159.676C126.022 159.368 125.659 159.138 125.256 159.009C123.608 158.473 120.888 157.913 119.956 159.834C118.579 162.579 118.579 169.725 122.701 171.094C126.823 172.462 127.919 169.173 127.647 165.604C127.528 163.977 127.28 162.361 126.905 160.773Z" fill="white" stroke="#2E353A" stroke-miterlimit="10"/>
<path d="M243.439 194.273C238.493 190.762 229.302 187.399 220.811 192.765C212.321 198.131 212.189 210.117 212.436 214.337C221.1 213.95 235.806 210.521 239.639 206.918C242.375 204.338 243.2 199.203 243.439 194.273Z" fill="#2E353A" stroke="#2E353A" stroke-miterlimit="10"/>
<path d="M219.665 250.739C218.978 251.49 218.48 252.394 218.212 253.376C217.944 254.358 217.914 255.39 218.124 256.386C218.891 259.683 218.124 288.69 218.124 288.69C218.124 288.69 218.379 295.615 230.431 297.412C242.482 299.209 246.588 295.87 246.588 295.87C246.588 295.87 246.332 259.46 246.076 255.355C245.953 252.959 245.153 250.647 243.768 248.687L219.665 250.739Z" fill="white"/>
<mask id="mask2_16563_264581" style="mask-type:luminance" maskUnits="userSpaceOnUse" x="217" y="248" width="30" height="50">
<path d="M219.665 250.739C218.978 251.49 218.48 252.394 218.212 253.376C217.944 254.358 217.914 255.39 218.124 256.386C218.891 259.683 218.124 288.69 218.124 288.69C218.124 288.69 218.379 295.615 230.431 297.412C242.482 299.209 246.588 295.87 246.588 295.87C246.588 295.87 246.332 259.46 246.076 255.355C245.953 252.959 245.153 250.647 243.768 248.687L219.665 250.739Z" fill="white"/>
</mask>
<g mask="url(#mask2_16563_264581)">
<g style="mix-blend-mode:multiply" opacity="0.49">
<path d="M243.768 248.728L219.665 250.78C218.978 251.531 218.48 252.435 218.212 253.417C217.944 254.399 217.914 255.431 218.124 256.427C218.404 257.622 218.478 262.131 218.462 267.415L241.617 297.634C245.178 297.049 246.563 295.911 246.563 295.911C246.563 295.911 246.307 259.501 246.052 255.396C245.935 253.002 245.144 250.69 243.768 248.728Z" fill="#92E3A9"/>
</g>
</g>
<path d="M219.665 250.739C218.978 251.49 218.48 252.394 218.212 253.376C217.944 254.358 217.914 255.39 218.124 256.386C218.891 259.683 218.124 288.69 218.124 288.69C218.124 288.69 218.379 295.615 230.431 297.412C242.482 299.209 246.588 295.87 246.588 295.87C246.588 295.87 246.332 259.46 246.076 255.355C245.953 252.959 245.153 250.647 243.768 248.687L219.665 250.739Z" stroke="#2E353A" stroke-miterlimit="10"/>
<path d="M243.257 197.917C243.257 197.917 240.438 194.323 229.945 194.834C219.451 195.345 214.818 207.916 215.107 210.496C215.395 213.076 216.896 247.425 217.926 250.244C218.956 253.064 230.744 255.627 239.465 254.094C248.187 252.561 248.953 244.862 247.931 239.471C246.909 234.08 245.367 202.55 245.367 201.552C245.367 200.555 244.535 199.45 243.257 197.917Z" fill="white"/>
<mask id="mask3_16563_264581" style="mask-type:luminance" maskUnits="userSpaceOnUse" x="215" y="194" width="34" height="61">
<path d="M243.257 197.917C243.257 197.917 240.438 194.323 229.945 194.834C219.451 195.345 214.818 207.916 215.107 210.496C215.395 213.076 216.896 247.425 217.926 250.244C218.956 253.064 230.744 255.627 239.465 254.094C248.187 252.561 248.953 244.862 247.931 239.471C246.909 234.08 245.367 202.55 245.367 201.552C245.367 200.555 244.535 199.45 243.257 197.917Z" fill="white"/>
</mask>
<g mask="url(#mask3_16563_264581)">
<g style="mix-blend-mode:multiply" opacity="0.49">
<path d="M247.874 239.454C246.843 234.071 245.31 202.533 245.31 201.536C245.31 200.538 244.535 199.483 243.257 197.95C242.714 197.377 242.064 196.915 241.345 196.59L240.109 197.101C240.109 197.101 240.661 202.599 240.661 209.746C240.661 216.893 239.012 241.07 239.012 241.07L215.931 215.236L215.692 221.905C216.302 233.025 217.193 248.414 217.869 250.261C218.891 253.08 230.687 255.644 239.408 254.111C248.129 252.577 248.904 244.845 247.874 239.454Z" fill="#92E3A9"/>
</g>
</g>
<path d="M243.257 197.917C243.257 197.917 240.438 194.323 229.945 194.834C219.451 195.345 214.818 207.916 215.107 210.496C215.395 213.076 216.896 247.425 217.926 250.244C218.956 253.064 230.744 255.627 239.465 254.094C248.187 252.561 248.953 244.862 247.931 239.471C246.909 234.08 245.367 202.55 245.367 201.552C245.367 200.555 244.535 199.45 243.257 197.917Z" stroke="#2E353A" stroke-miterlimit="10"/>
<path d="M218.635 251.25C218.635 251.25 226.054 257.919 234.791 257.408C243.529 256.896 245.821 251.25 245.821 251.25C245.821 251.25 246.587 248.686 236.588 246.378C226.589 244.07 218.635 251.25 218.635 251.25Z" fill="#2E353A" stroke="#2E353A" stroke-miterlimit="10"/>
<path d="M214.917 139.671C228.406 139.671 239.342 127.861 239.342 113.293C239.342 98.7244 228.406 86.9146 214.917 86.9146C201.428 86.9146 190.493 98.7244 190.493 113.293C190.493 127.861 201.428 139.671 214.917 139.671Z" fill="#2E353A" stroke="#2E353A" stroke-miterlimit="10"/>
<path d="M214.917 136.736C230.159 136.736 242.515 124.926 242.515 110.358C242.515 95.7898 230.159 83.98 214.917 83.98C199.675 83.98 187.319 95.7898 187.319 110.358C187.319 124.926 199.675 136.736 214.917 136.736Z" fill="white"/>
<mask id="mask4_16563_264581" style="mask-type:luminance" maskUnits="userSpaceOnUse" x="187" y="83" width="56" height="54">
<path d="M214.917 136.736C230.159 136.736 242.515 124.926 242.515 110.358C242.515 95.7898 230.159 83.98 214.917 83.98C199.675 83.98 187.319 95.7898 187.319 110.358C187.319 124.926 199.675 136.736 214.917 136.736Z" fill="white"/>
</mask>
<g mask="url(#mask4_16563_264581)">
<g style="mix-blend-mode:multiply" opacity="0.49">
<path d="M225.477 85.9912C226.417 98.0921 223.4 118.436 196.222 129.762C201.397 134.286 208.044 136.766 214.918 136.736C230.159 136.736 242.516 124.932 242.516 110.358C242.516 99.3698 235.476 89.9479 225.477 85.9912Z" fill="#92E3A9"/>
</g>
</g>
<path d="M214.917 136.736C230.159 136.736 242.515 124.926 242.515 110.358C242.515 95.7898 230.159 83.98 214.917 83.98C199.675 83.98 187.319 95.7898 187.319 110.358C187.319 124.926 199.675 136.736 214.917 136.736Z" stroke="#2E353A" stroke-miterlimit="10"/>
<path d="M186.948 108.891C188.633 108.891 189.998 107.525 189.998 105.841C189.998 104.157 188.633 102.791 186.948 102.791C185.264 102.791 183.898 104.157 183.898 105.841C183.898 107.525 185.264 108.891 186.948 108.891Z" fill="white" stroke="#2E353A" stroke-miterlimit="10"/>
<path d="M186.948 107.671C187.959 107.671 188.778 106.851 188.778 105.841C188.778 104.83 187.959 104.011 186.948 104.011C185.937 104.011 185.118 104.83 185.118 105.841C185.118 106.851 185.937 107.671 186.948 107.671Z" fill="white" stroke="#2E353A" stroke-miterlimit="10"/>
<path d="M214.546 132.582C227.025 132.582 237.141 124.108 237.141 113.655C237.141 103.203 227.025 94.729 214.546 94.729C202.068 94.729 191.952 103.203 191.952 113.655C191.952 124.108 202.068 132.582 214.546 132.582Z" fill="#2E353A" stroke="#2E353A" stroke-miterlimit="10"/>
<path d="M196.337 104.563V113.359L197.747 106.673L201.613 114.768V105.618L216.756 127.43L206.204 103.154H211.15L207.63 99.9882L213.961 98.2324L205.875 97.5317C205.875 97.5317 199.503 99.2875 196.337 104.563Z" fill="#92E3A9"/>
<path d="M260.79 146.397L261.458 146.776C264.97 148.754 281.242 158.061 285.149 162.29C289.485 167.038 279.379 174.061 270.699 176.122C262.019 178.183 245.31 163.534 242.829 160.641C240.347 157.748 238.081 142.267 243.859 139.382C249.637 136.497 260.79 146.397 260.79 146.397Z" fill="white"/>
<mask id="mask5_16563_264581" style="mask-type:luminance" maskUnits="userSpaceOnUse" x="240" y="138" width="47" height="39">
<path d="M260.79 146.397L261.458 146.776C264.97 148.754 281.242 158.061 285.149 162.29C289.485 167.038 279.379 174.061 270.699 176.122C262.019 178.183 245.31 163.534 242.829 160.641C240.347 157.748 238.081 142.267 243.859 139.382C249.637 136.497 260.79 146.397 260.79 146.397Z" fill="white"/>
</mask>
<g mask="url(#mask5_16563_264581)">
<g style="mix-blend-mode:multiply" opacity="0.49">
<path d="M285.173 162.29C281.307 158.061 264.994 148.755 261.483 146.776L260.815 146.397C260.815 146.397 249.662 136.505 243.884 139.382C238.105 142.259 240.38 157.756 242.853 160.641C245.46 163.324 248.289 165.781 251.311 167.986L267.038 154.203L285.767 166.568C286.126 165.882 286.262 165.101 286.155 164.334C286.049 163.567 285.706 162.852 285.173 162.29Z" fill="#92E3A9"/>
</g>
</g>
<path d="M260.79 146.397L261.458 146.776C264.97 148.754 281.242 158.061 285.149 162.29C289.485 167.038 279.379 174.061 270.699 176.122C262.019 178.183 245.31 163.534 242.829 160.641C240.347 157.748 238.081 142.267 243.859 139.382C249.637 136.497 260.79 146.397 260.79 146.397Z" stroke="#2E353A" stroke-miterlimit="10"/>
<path d="M237.71 132.565C239.058 131.241 240.655 130.196 242.408 129.49C254.212 125.006 260.543 138.484 262.744 147.699C262.744 147.699 259.991 149.9 253.124 148.796C246.258 147.691 236.366 143.026 235.262 139.176C234.577 136.777 235.847 134.412 237.71 132.565Z" fill="#2E353A" stroke="#2E353A" stroke-miterlimit="10"/>
<path d="M260.584 171.992C260.584 171.992 271.935 158.581 279.989 158.375C288.042 158.169 291.768 164.359 290.944 169.313C290.12 174.267 283.929 179.84 283.929 179.84C283.929 179.84 288.265 165.002 281.86 165.002C275.455 165.002 260.584 171.992 260.584 171.992Z" fill="#2E353A" stroke="#2E353A" stroke-miterlimit="10"/>
<path d="M256.455 175.091C256.455 175.091 270.081 163.947 279.783 162.504C289.485 161.062 292.972 172.825 283.904 179.815C274.837 186.805 268.828 189.706 262.431 188.882C256.034 188.058 250.882 181.702 256.455 175.091Z" fill="white"/>
<mask id="mask6_16563_264581" style="mask-type:luminance" maskUnits="userSpaceOnUse" x="254" y="162" width="36" height="28">
<path d="M256.455 175.091C256.455 175.091 270.081 163.947 279.783 162.504C289.485 161.062 292.972 172.825 283.904 179.815C274.837 186.805 268.828 189.706 262.431 188.882C256.034 188.058 250.882 181.702 256.455 175.091Z" fill="white"/>
</mask>
<g mask="url(#mask6_16563_264581)">
<g style="mix-blend-mode:multiply" opacity="0.49">
<path d="M285.281 163.312C285.421 165.711 284.704 171.852 274.73 176.188C262.093 181.686 259.554 181.702 259.554 181.702C259.929 183.744 259.579 185.852 258.565 187.662C259.767 188.319 261.081 188.747 262.439 188.923C268.836 189.748 274.804 186.863 283.913 179.856C290.944 174.391 290.416 166.082 285.281 163.312Z" fill="#92E3A9"/>
</g>
</g>
<path d="M256.455 175.091C256.455 175.091 270.081 163.947 279.783 162.504C289.485 161.062 292.972 172.825 283.904 179.815C274.837 186.805 268.828 189.706 262.431 188.882C256.034 188.058 250.882 181.702 256.455 175.091Z" stroke="#2E353A" stroke-miterlimit="10"/>
<path d="M266.14 186.681C266.14 186.681 285.924 178.438 289.394 166.609" stroke="#2E353A" stroke-width="0.5" stroke-miterlimit="10"/>
<path d="M251.5 179.427C251.5 179.427 253.973 176.13 257.485 175.71C260.997 175.289 264.714 180.252 265.951 184.381C267.187 188.511 265.539 190.572 263.676 191.19C261.813 191.808 251.5 179.427 251.5 179.427Z" fill="#2E353A" stroke="#2E353A" stroke-miterlimit="10"/>
<path d="M263.676 191.191C263.676 191.191 264.92 187.275 259.554 181.703C254.188 176.13 252.325 179.23 247.577 181.909C242.829 184.588 241.18 189.328 243.241 192.625C245.302 195.922 246.134 197.991 252.308 199.022C258.482 200.052 262.01 193.655 262.01 193.655C262.84 193.057 263.431 192.184 263.676 191.191Z" fill="white"/>
<mask id="mask7_16563_264581" style="mask-type:luminance" maskUnits="userSpaceOnUse" x="242" y="178" width="22" height="22">
<path d="M263.676 191.191C263.676 191.191 264.92 187.275 259.554 181.703C254.188 176.13 252.325 179.23 247.577 181.909C242.829 184.588 241.18 189.328 243.241 192.625C245.302 195.922 246.134 197.991 252.308 199.022C258.482 200.052 262.01 193.655 262.01 193.655C262.84 193.057 263.431 192.184 263.676 191.191Z" fill="white"/>
</mask>
<g mask="url(#mask7_16563_264581)">
<g style="mix-blend-mode:multiply" opacity="0.49">
<path d="M254.946 190.473C251.241 191.7 247.438 192.607 243.579 193.185C245.417 196.169 246.48 198.065 252.325 199.038C258.515 200.068 262.027 193.672 262.027 193.672C262.852 193.069 263.436 192.192 263.675 191.199C263.675 191.199 264.92 187.283 259.554 181.711C259.554 181.703 260.996 188.281 254.946 190.473Z" fill="#92E3A9"/>
</g>
</g>
<path d="M263.676 191.191C263.676 191.191 264.92 187.275 259.554 181.703C254.188 176.13 252.325 179.23 247.577 181.909C242.829 184.588 241.18 189.328 243.241 192.625C245.302 195.922 246.134 197.991 252.308 199.022C258.482 200.052 262.01 193.655 262.01 193.655C262.84 193.057 263.431 192.184 263.676 191.191Z" stroke="#2E353A" stroke-miterlimit="10"/>
<path d="M262.027 193.671C262.027 193.671 257.279 196.565 254.385 196.771L262.027 193.671Z" fill="white"/>
<path d="M262.027 193.671C262.027 193.671 257.279 196.565 254.385 196.771" stroke="#2E353A" stroke-miterlimit="10"/>
<path d="M124.638 328.496C124.638 328.496 116.948 323.006 124.094 315.86C131.241 308.713 136.179 310.361 138.932 303.767C141.685 297.172 144.422 285.088 164.758 277.941C185.094 270.794 205.421 276.845 215.313 283.983C225.205 291.122 243.34 296.076 253.232 294.98C263.123 293.883 275.216 303.767 276.865 312.562C278.513 321.358 281.811 322.454 283.459 324.103C285.108 325.751 286.756 330.145 286.756 330.145H137.283C137.283 330.145 128.488 331.25 124.638 328.496Z" fill="#2E353A" stroke="#2E353A" stroke-miterlimit="10"/>
<path d="M265.671 303.866C265.671 303.866 270.369 310.905 267.435 316.783C264.5 322.66 259.191 322.652 259.191 322.652" stroke="white" stroke-miterlimit="10"/>
<path d="M256.867 319.132C256.867 319.132 256.867 321.473 248.624 324.416" stroke="white" stroke-miterlimit="10"/>
<path d="M179.661 326.749C177.064 327.483 175.251 327.936 175.251 327.936" stroke="white" stroke-miterlimit="10"/>
<path d="M206.444 300.561C203.723 302.836 200.789 305.919 199.907 309.15C198.151 315.604 201.085 316.783 196.387 320.303C193.774 322.265 187.534 324.424 182.514 325.916" stroke="white" stroke-miterlimit="10"/>
<path d="M211.653 296.818C211.653 296.818 210.532 297.477 208.974 298.59" stroke="white" stroke-miterlimit="10"/>
<path d="M186.404 317.368C186.404 317.368 178.161 322.652 171.138 325.001C164.115 327.351 148.238 323.237 148.238 323.237" stroke="white" stroke-miterlimit="10"/>
<path d="M145.98 319.206C143.126 317.873 140.667 315.822 138.841 313.255" stroke="white" stroke-miterlimit="10"/>
<path d="M154.108 321.473C152.53 321.332 150.972 321.026 149.458 320.558" stroke="white" stroke-miterlimit="10"/>
<path d="M196.082 190.564C189.43 184.967 183.676 185.618 180.37 186.813C179.843 189.517 179.488 191.248 179.406 191.504C178.887 193.045 180.939 197.917 187.352 204.841C191.451 209.249 196.837 212.249 202.742 213.414C204.333 207.223 204.655 197.785 196.082 190.564Z" fill="#2E353A" stroke="#2E353A" stroke-miterlimit="10"/>
<path d="M172.243 276.127C172.243 276.127 160.167 282.524 159.878 289.465C159.589 296.406 166.802 296.389 174.716 294.337C182.629 292.284 192.917 283.818 194.714 283.052C196.511 282.285 202.66 278.691 201.382 273.564C200.105 268.437 193.139 263.565 193.139 263.565L172.243 276.127Z" fill="white" stroke="#2E353A" stroke-miterlimit="10"/>
<path d="M201.539 274.083C194.631 279.087 179.282 289.82 172.482 291.773C170.379 292.448 168.148 292.619 165.968 292.274C163.787 291.929 161.718 291.077 159.927 289.787C159.927 296.381 166.967 296.381 174.765 294.337C182.711 292.284 192.966 283.819 194.763 283.052C196.56 282.285 202.297 278.93 201.539 274.083Z" fill="#92E3A9" stroke="#2E353A" stroke-miterlimit="10"/>
<path d="M158.377 247.664C158.377 247.664 166.579 274.042 169.654 276.639C172.729 279.236 185.811 277.15 185.811 277.15C185.811 277.15 188.63 282.286 190.682 284.569C192.735 286.852 198.925 285.08 199.148 278.667C199.371 272.254 195.554 263.285 195.554 263.285L186.841 239.174C186.841 239.174 176.578 237.121 167.057 239.174C157.537 241.227 158.377 247.664 158.377 247.664Z" fill="white"/>
<mask id="mask8_16563_264581" style="mask-type:luminance" maskUnits="userSpaceOnUse" x="158" y="238" width="42" height="48">
<path d="M158.377 247.664C158.377 247.664 166.579 274.042 169.654 276.639C172.729 279.236 185.811 277.15 185.811 277.15C185.811 277.15 188.63 282.286 190.682 284.569C192.735 286.852 198.925 285.08 199.148 278.667C199.371 272.254 195.554 263.285 195.554 263.285L186.841 239.174C186.841 239.174 176.578 237.121 167.057 239.174C157.537 241.227 158.377 247.664 158.377 247.664Z" fill="white"/>
</mask>
<g mask="url(#mask8_16563_264581)">
<g style="mix-blend-mode:multiply" opacity="0.49">
<path d="M199.148 278.692C199.404 272.278 195.554 263.31 195.554 263.31L186.841 239.199C181.399 238.237 175.848 238.054 170.355 238.655C168.281 239.339 166.152 239.843 163.991 240.163C162.327 240.802 160.87 241.886 159.779 243.296C161.963 243.996 164.453 244.738 167.049 245.431C175.292 247.631 178.037 244.334 179.686 250.929C181.335 257.523 183.198 270.96 185.835 277.15C185.835 277.15 188.655 282.286 190.707 284.569C192.76 286.852 198.893 285.105 199.148 278.692Z" fill="#92E3A9"/>
</g>
</g>
<path d="M158.377 247.664C158.377 247.664 166.579 274.042 169.654 276.639C172.729 279.236 185.811 277.15 185.811 277.15C185.811 277.15 188.63 282.286 190.682 284.569C192.735 286.852 198.925 285.08 199.148 278.667C199.371 272.254 195.554 263.285 195.554 263.285L186.841 239.174C186.841 239.174 176.578 237.121 167.057 239.174C157.537 241.227 158.377 247.664 158.377 247.664Z" stroke="#2E353A" stroke-miterlimit="10"/>
<path d="M195.81 276.004C196.072 277.436 196.152 278.896 196.049 280.348" stroke="#2E353A" stroke-width="0.5" stroke-miterlimit="10"/>
<path d="M183.948 245.307C183.948 245.307 192.496 261.793 195.257 273.333" stroke="#2E353A" stroke-width="0.5" stroke-miterlimit="10"/>
<path d="M157.347 235.357C157.347 235.357 153.506 240.229 155.814 246.123C158.122 252.016 167.354 253.541 175.301 250.739C183.247 247.936 187.608 240.995 186.586 237.41C185.563 233.824 157.347 235.357 157.347 235.357Z" fill="#2E353A" stroke="#2E353A" stroke-miterlimit="10"/>
<path d="M201.967 211.51C201.967 211.51 191.713 235.102 185.044 239.973C178.375 244.845 163.505 245.101 158.122 239.199C152.739 233.296 159.144 219.456 165.813 208.699C172.482 197.942 175.812 188.701 183.247 189.212C190.682 189.723 202.998 198.939 201.967 211.51Z" fill="white"/>
<mask id="mask9_16563_264581" style="mask-type:luminance" maskUnits="userSpaceOnUse" x="156" y="189" width="47" height="55">
<path d="M201.967 211.51C201.967 211.51 191.713 235.102 185.044 239.973C178.375 244.845 163.505 245.101 158.122 239.199C152.739 233.296 159.144 219.456 165.813 208.699C172.482 197.942 175.812 188.701 183.247 189.212C190.682 189.723 202.998 198.939 201.967 211.51Z" fill="white"/>
</mask>
<g mask="url(#mask9_16563_264581)">
<g style="mix-blend-mode:multiply" opacity="0.49">
<path d="M179.109 233.89C173.339 238.745 165.574 240.245 159.762 240.616C166.076 245.018 178.969 244.408 185.044 239.973C191.713 235.102 201.967 211.51 201.967 211.51C202.185 208.803 201.793 206.082 200.821 203.547C197.928 208.839 187.904 226.471 179.109 233.89Z" fill="#92E3A9"/>
</g>
</g>
<path d="M201.967 211.51C201.967 211.51 191.713 235.102 185.044 239.973C178.375 244.845 163.505 245.101 158.122 239.199C152.739 233.296 159.144 219.456 165.813 208.699C172.482 197.942 175.812 188.701 183.247 189.212C190.682 189.723 202.998 198.939 201.967 211.51Z" stroke="#2E353A" stroke-miterlimit="10"/>
<path d="M178.936 240.979C178.005 241.572 177.013 242.061 175.977 242.438" stroke="#2E353A" stroke-width="0.5" stroke-miterlimit="10"/>
<path d="M198.678 213.628C195.496 220.413 189.528 231.763 182.538 238.185" stroke="#2E353A" stroke-width="0.5" stroke-miterlimit="10"/>
<path d="M201.151 208.031C201.151 208.031 200.591 209.433 199.577 211.683" stroke="#2E353A" stroke-width="0.5" stroke-miterlimit="10"/>
</svg>
