<svg width="80" height="80" viewBox="0 0 80 80" fill="none" xmlns="http://www.w3.org/2000/svg">
<g clip-path="url(#clip0_16474_30898)">
<rect width="80" height="80" rx="40" fill="#729AFA"/>
<path d="M22.1896 49.852C20.9282 48.8385 20.0657 47.4667 18.9822 46.2915C17.8313 45.0436 16.7344 43.7391 15.7021 42.3942C13.7454 39.8499 13.6888 36.0793 15.508 33.2762C15.9608 32.5781 16.4163 31.8693 16.9608 31.244C17.2546 30.9044 17.2141 30.5998 17.1899 30.2468C18.0712 29.5649 18.7127 28.6485 19.497 27.8669C24.5668 22.8106 30.658 19.8216 37.7735 19.1936C43.8 18.6626 49.4412 20.1046 54.5945 23.3361C54.7265 23.4547 54.829 23.5949 54.9017 23.7566C55.3303 24.8697 55.3815 26.0476 55.4785 27.2092C55.6941 29.7805 55.6241 32.3571 55.5162 34.9311C55.4974 35.3596 55.4192 35.7963 55.2171 36.1925C54.6026 36.6749 54.4678 36.0146 54.2791 35.7316C53.3439 34.3462 52.352 33.0229 50.9559 32.058C50.4546 31.5944 49.8751 31.2521 49.2444 30.9906C47.3524 30.1201 45.3713 29.5999 43.296 29.449C42.2988 29.2441 41.2907 29.3951 40.2908 29.3519C38.237 29.2765 36.1887 29.3519 34.1834 29.8074C31.2941 30.4624 28.7686 31.7723 26.8712 34.1252C26.5909 34.4298 26.3106 34.7316 26.1165 35.1036C24.1759 37.912 23.362 41.1059 22.8849 44.421C22.7529 45.3509 22.6963 46.2861 22.6019 47.2187C22.4564 47.6446 22.4833 48.0839 22.5022 48.5259C22.4726 48.9841 22.5858 49.4773 22.1949 49.8493L22.1896 49.852Z" fill="#F3F2F2"/>
<path d="M54.4672 23.4522C51.6452 21.9132 48.7344 20.6275 45.5594 19.9807C37.2526 18.2854 29.7976 20.2529 23.0244 25.1636C21.1162 26.5463 19.4263 28.1688 17.917 29.9827C17.7606 30.1714 17.6286 30.7185 17.1892 30.2469C16.8847 28.9424 16.5828 27.6406 16.2783 26.3361C16.2082 26.0423 16.1219 25.7539 16.0572 25.4601C15.6772 23.7621 17.9843 18.9161 19.5395 18.1317C20.03 17.8838 20.5421 17.776 21.092 17.7814C22.1997 17.7921 23.3074 17.7814 24.4179 17.7841C26.1482 17.7895 27.539 17.1076 28.5847 15.7303C29.1534 14.981 29.7167 14.229 30.272 13.4717C31.3096 12.0567 32.6842 11.1618 34.4038 10.8169C35.5843 10.5797 36.7729 10.3694 37.9561 10.1484C39.6837 10.5446 41.1688 11.4772 42.6809 12.3343C45.5297 13.946 48.1252 15.9109 50.4647 18.1883C51.8339 19.5198 53.0548 20.9995 54.1761 22.5546C54.362 22.8134 54.6397 23.0667 54.4725 23.4549L54.4672 23.4522Z" fill="#676767"/>
<path d="M39.9523 66.2112C39.2138 66.1438 38.4753 66.0791 37.7341 66.0117C36.5563 65.7961 35.4297 65.4161 34.3408 64.9201C34.5834 64.3245 35.1736 64.4889 35.613 64.3784C38.9631 63.5456 42.246 62.6049 45.0571 60.4406C47.4073 58.6294 48.5663 56.1983 49.0083 53.3737C49.2455 51.8644 49.3048 50.3254 49.4234 48.7999C49.4476 48.4765 49.515 48.1261 49.2994 47.8242C49.2778 47.7999 49.232 47.7757 49.2347 47.7541C49.3398 45.6518 49.1593 45.4686 47.0462 45.5279C45.8899 45.3742 44.6528 45.7677 43.5855 45.0158C41.5371 44.5953 39.6073 43.9431 38.0279 42.4634C37.5805 42.0456 37.2436 41.5685 36.8851 41.0942C36.0038 39.9218 34.896 39.8409 33.9796 40.9891C32.1819 43.2396 29.6915 44.3177 27.0771 45.2125C26.3359 43.6762 26.7213 41.8408 28.0124 40.892C30.0176 39.4204 31.8315 37.7548 33.3058 35.7414C33.3894 35.6148 33.4783 35.4935 33.5673 35.3722C33.9904 34.8062 34.2761 34.1674 34.578 33.5286C34.8879 32.8683 35.2221 32.8279 35.7046 33.375C36.1924 33.9248 36.6264 34.5205 37.098 35.0865C39.4914 37.965 42.4885 39.9784 46.0031 41.1912C47.0354 41.547 48.1485 41.6898 49.2401 41.865C50.3802 41.9594 51.5203 41.8947 52.6604 41.865C53.2425 42.1319 53.159 42.679 53.1698 43.156C53.2048 44.9106 53.1698 46.6653 53.1671 48.4199C53.1967 50.0505 53.1401 51.6811 53.1913 53.309C53.2156 54.0448 52.7844 54.6243 52.6819 55.3062C52.0944 60.535 47.5232 65.125 42.0007 66.0306C41.3592 66.575 40.6746 66.5993 39.9523 66.2085V66.2112Z" fill="#F6AC95"/>
<path d="M54.8959 36.3313C55.2355 35.8058 55.2247 35.1778 55.2408 34.6145C55.3379 30.9516 55.4645 27.278 54.6641 23.661C55.0926 23.4696 55.346 23.82 55.637 24.0006C58.0439 25.4857 60.0384 27.4451 61.9439 29.507C62.1919 29.7765 62.3994 30.0838 62.7255 30.2724C62.6069 30.6929 62.7741 31.0001 63.0355 31.3397C64.1567 32.8033 65.2186 34.3018 65.569 36.175C66.0946 38.9888 65.2213 41.3607 63.3778 43.4683C61.5288 45.5814 59.715 47.7268 57.8876 49.8561C57.1491 49.4626 57.4563 48.689 57.2461 48.1015C57.2353 47.8319 57.2515 47.5624 57.3108 47.2983C57.4617 46.8509 57.4806 46.4035 57.2892 45.9587C56.9388 44.8375 56.9523 43.6543 56.7044 42.5142C56.3189 40.7488 55.7799 39.0374 55.0872 37.3717C54.9498 37.0456 54.7099 36.7248 54.8986 36.334L54.8959 36.3313Z" fill="#C1AEAE"/>
<path d="M62.72 30.2689C62.1836 30.6543 62.1163 30.0694 61.9222 29.8511C59.801 27.4335 57.4616 25.2773 54.6612 23.6602C54.5938 23.5928 54.5291 23.5227 54.4618 23.4553C51.5806 19.1348 47.8072 15.7739 43.4167 13.0517C41.654 11.9601 39.7565 11.1407 37.9453 10.1489C38.9776 9.77696 40.0314 9.70418 41.1068 9.92519C42.7402 10.2594 44.3816 10.5613 46.0095 10.9332C47.4299 11.2566 48.5754 12.0517 49.4648 13.2053C50.0577 13.9761 50.6642 14.7389 51.2194 15.5367C52.311 17.1026 53.8338 17.771 55.6935 17.7818C56.7339 17.7872 57.7769 17.8061 58.8173 17.7764C60.1622 17.7387 61.1514 18.329 61.7794 19.4771C62.4532 20.7116 63.0812 21.9729 63.6876 23.2397C64.0622 24.024 64.0272 24.8568 63.8197 25.6951C63.4423 27.2179 63.0838 28.7434 62.7173 30.2689H62.72Z" fill="#4E4E4E"/>
<path d="M57.5015 48.0907C57.6605 48.6702 57.5931 49.3009 57.8815 49.8534C57.4853 51.1283 57.7764 52.4382 57.709 53.7292C57.674 54.3733 57.6228 54.9879 57.1888 55.5107C56.011 56.9311 54.1702 56.8611 53.1891 55.2277C52.7228 54.4542 52.8495 55.3679 52.6797 55.3113C53.0085 53.0203 52.801 50.7132 52.8657 48.4142C53.0516 47.452 53.685 46.9237 54.5798 46.6434C56.2132 46.452 56.8897 46.7889 57.5042 48.0934L57.5015 48.0907Z" fill="#FBD4C3"/>
<path d="M40.168 29.1104C41.2685 29.105 42.3745 28.9307 43.459 29.252C43.4619 29.2519 43.4649 29.2531 43.4678 29.2529C45.5914 29.3123 47.5885 29.8272 49.4346 30.8916C50.0877 31.0314 50.583 31.4366 51.0615 31.8691L51.0625 31.8701C52.7281 33.021 53.9091 34.5897 54.8955 36.3281C56.4451 39.379 57.0949 42.6756 57.5342 46.0283C57.6365 46.4217 57.6307 46.8156 57.5391 47.209C57.5283 47.5024 57.5176 47.7935 57.5068 48.0869C56.763 47.0737 55.7952 46.61 54.5312 46.8633L54.5283 46.8662C54.0083 46.0631 54.2343 45.1219 54.1104 44.2568C53.5875 40.6023 52.5907 37.1548 50.2783 34.1982C49.8289 33.6223 49.3226 33.0897 48.8408 32.5381C47.9444 32.9387 47.7368 32.5133 47.8418 31.708C46.2168 30.7486 44.5294 29.9323 42.6699 29.5361C42.5083 29.5012 42.3403 29.4954 42.1787 29.4766C42.1794 29.4754 42.18 29.4738 42.1807 29.4727C42.1791 29.4742 42.1773 29.476 42.1758 29.4775C41.5451 29.1489 40.7959 29.458 40.168 29.1104Z" fill="#9C6349"/>
<path d="M22.379 47.2031C22.3898 47.4726 22.4032 47.7449 22.414 48.0144C22.414 48.1788 22.4005 48.3378 22.2254 48.4214C22.2227 48.009 22.1202 47.5832 22.379 47.2031Z" fill="#C6AB9F"/>
<path d="M47.2164 45.3903C45.9578 46.2851 44.7611 45.9347 43.5859 45.2043C43.5859 45.1423 43.5859 45.0776 43.5859 45.0156C44.7745 45.3417 46.0305 45.0237 47.2164 45.3903Z" fill="#F9D0BF"/>
<path d="M33.5225 29.6895C35.6948 29.11 37.9236 28.9832 40.166 29.1045C40.829 29.2581 41.5194 29.1046 42.1797 29.2744C44.2656 29.5467 46.1736 30.2556 47.8311 31.5762C48.017 32.1125 48.3384 32.4812 48.9609 32.4678C50.4567 33.5863 51.4191 35.1338 52.2061 36.7617C53.7449 39.942 54.5207 43.3192 54.5234 46.8633L54.5264 46.8662C53.7557 47.1465 53.2974 47.7634 52.8662 48.4102C52.8662 46.5452 52.8739 44.6803 52.8496 42.8154C52.8469 42.5163 53.0923 42.0174 52.4482 42.0039C51.311 42.1279 50.1764 42.1166 49.0391 42.0088C46.6215 41.8282 44.4139 41.009 42.3359 39.7988C39.6354 38.2276 37.398 36.1393 35.5977 33.6006C35.1152 32.9214 34.9505 33.1393 34.7402 33.7188C34.5004 34.3816 34.1639 34.9908 33.7139 35.5352C33.7095 35.536 33.7046 35.5362 33.7002 35.5371C33.7046 35.5372 33.7094 35.538 33.7139 35.5381C33.6438 35.6082 33.573 35.678 33.5029 35.748V35.751C33.5016 35.7509 33.5003 35.7501 33.499 35.75C32.631 37.3373 31.2517 38.469 29.9648 39.6777C29.6252 39.9985 29.2769 40.3462 28.8672 40.5537C27.3445 41.3299 26.7137 42.5135 27.0371 44.2061C27.0681 44.369 27.0748 44.5358 27.0752 44.7041V48.4697C26.4392 47.4888 25.8275 46.8578 24.79 46.8037C23.7362 46.7498 23.0293 47.2681 22.4121 48.0146C22.2451 47.7506 22.2934 47.478 22.377 47.2031C22.5629 43.0039 23.361 38.9713 25.625 35.3408C25.7301 35.1738 25.8702 35.0283 25.9941 34.8721V34.8711C26.0859 34.5276 26.3062 34.2874 26.6094 34.1152L26.9375 33.6768C28.6242 31.5522 30.9351 30.3818 33.5225 29.6895Z" fill="#9E7159"/>
<path d="M49.0391 42.0132C50.1765 42.0132 51.3112 42.0078 52.4485 42.0078C51.3139 42.3043 50.1765 42.2935 49.0391 42.0132Z" fill="#EFB6A2"/>
<path d="M57.5366 47.2118C57.5366 46.8183 57.5339 46.4248 57.5312 46.0312C57.7954 46.4248 57.79 46.8183 57.5366 47.2118Z" fill="#CAB9B6"/>
<path d="M33.7168 40.8896C34.8298 39.5881 36.0827 39.623 37.0771 40.9785C38.5029 42.9217 40.4245 44.0163 42.7207 44.5527C43.0495 44.6282 43.3815 44.6875 43.6133 44.9678C43.6443 45.0445 43.6457 45.1191 43.6182 45.1914C43.7729 45.1366 43.9372 45.1671 44.0576 45.2373C45.0871 45.8437 46.152 45.5497 47.2139 45.3906C47.9685 45.0995 48.6755 45.1268 49.2334 45.7764C49.7781 46.4135 49.7222 47.0963 49.3223 47.7783C49.7601 48.0173 49.7149 48.4569 49.6855 48.833C49.54 50.6333 49.4859 52.442 49.1221 54.2207C48.2919 58.2795 45.7609 60.894 42.0928 62.5488C39.6106 63.67 37.0068 64.4061 34.3359 64.9209C30.277 62.7486 27.8137 59.4196 27.0859 54.668C26.4984 55.6489 25.9026 56.3763 24.8516 56.4922C23.4825 56.643 22.2405 55.4764 22.208 53.9727C22.1784 52.6008 22.1917 51.2261 22.1836 49.8516H22.1885C22.1993 49.3745 22.2129 48.8999 22.2236 48.4229C22.3475 48.2505 22.3127 48.027 22.4014 47.8438C23.0321 46.1808 26.1426 46.1296 26.8271 47.833C26.7921 46.9544 26.6762 46.1102 26.8945 45.2773C27.1371 44.8031 27.625 44.7168 28.0615 44.5713C30.2689 43.8355 32.1832 42.682 33.7168 40.8896Z" fill="#FBD4C3"/>
<path d="M34.1955 45.2002C34.9128 45.2572 35.4064 45.5306 35.8481 46.1245C36.241 46.6505 36.3537 47.495 36.1436 48.2858C35.9321 49.0819 35.5221 49.3886 35.1053 48.9297C34.5456 48.3134 34.0188 48.3038 33.4517 48.9434C33.0679 49.377 32.6566 49.0395 32.4615 48.2859C32.2676 47.5351 32.368 46.6761 32.7316 46.1642C33.2317 45.4566 33.792 45.1889 34.1955 45.2002Z" fill="#7D4F4E"/>
<path d="M45.1864 45.1948C45.9107 45.2778 46.4008 45.5692 46.8268 46.1787C47.2059 46.7188 47.2898 47.5669 47.0487 48.3494C46.8061 49.1373 46.3799 49.4289 45.9742 48.9551C45.4296 48.3188 44.8964 48.2899 44.2992 48.9085C43.8951 49.3277 43.4906 48.9754 43.32 48.2152C43.1506 47.4578 43.2829 46.603 43.6695 46.1047C44.2013 45.4158 44.7782 45.1687 45.1864 45.1948Z" fill="#7D4F4E"/>
<path d="M39.9349 59.2016C39.2213 59.1502 38.5031 59.0988 37.8321 58.8457C37.5185 58.7275 37.2242 58.5292 37.4007 58.1114C37.594 57.6555 37.8975 57.5 38.4834 57.6779C39.445 57.9704 40.3915 58.0245 41.3577 57.6779C41.8994 57.4828 42.3589 57.6739 42.5644 58.1114C42.7007 58.6016 42.1328 58.7707 42.0317 58.8141C41.3729 59.0975 40.6562 59.1581 39.9349 59.2016Z" fill="#C95F5F"/>
<path d="M39.9638 109.709C35.1177 109.709 30.2744 109.709 25.4283 109.709C25.0268 109.256 25.1292 108.698 25.1292 108.173C25.1184 103.68 25.1265 99.1868 25.1238 94.6965C25.1238 94.2275 25.1534 93.7532 25.0079 93.3004C24.8246 92.7344 24.4392 92.3894 23.8247 92.3894C23.2129 92.3894 22.8274 92.7344 22.6415 93.3004C22.4932 93.7532 22.5256 94.2302 22.5256 94.6965C22.5256 99.1895 22.5283 103.682 22.5202 108.173C22.5202 108.698 22.6199 109.256 22.221 109.709C19.2374 109.72 16.251 109.709 13.2674 109.758C12.5855 109.768 12.5208 109.485 12.5235 108.927C12.5424 105.607 12.5316 102.286 12.5343 98.9658C12.5343 93.8664 12.51 88.7669 12.5478 83.6702C12.5747 79.7271 15.3266 75.9888 18.9166 74.8945C19.9732 75.9133 20.5203 77.269 21.2534 78.4954C23.0646 81.5221 24.8273 84.5785 26.6304 87.6107C27.121 88.4354 27.1398 88.4408 27.846 87.7374C31.5088 84.0826 35.1609 80.4144 38.8345 76.7704C39.1579 76.4497 39.3951 75.8729 40.0473 76.0858C40.1201 76.1829 40.1686 76.288 40.201 76.4039C40.3115 76.8701 40.2872 77.3391 40.2872 77.8081C40.2872 87.864 40.2899 97.92 40.2818 107.979C40.2818 108.569 40.4139 109.197 39.9692 109.714L39.9638 109.709Z" fill="#818181"/>
<path d="M39.9648 109.709C39.9648 98.4993 39.9648 87.2898 39.9648 76.0803C40.5524 75.9617 40.7842 76.463 41.0941 76.7703C44.6438 80.2984 48.1772 83.8399 51.7161 87.3761C52.4348 88.0948 53.0646 88.0077 53.6055 87.1146C54.7968 85.1282 55.953 83.1203 57.1335 81.1258C57.3195 80.8105 57.4543 80.4466 57.8828 80.3684C57.9987 80.363 58.1065 80.3819 58.2143 80.4196C61.1171 82.2686 62.745 84.9557 62.8097 88.3491C62.9391 95.0872 62.8528 101.831 62.8448 108.571C62.8448 108.97 62.8663 109.385 62.5537 109.709C60.9365 109.709 59.3194 109.709 57.7022 109.709C57.298 109.256 57.4004 108.695 57.4004 108.17C57.3896 103.769 57.395 99.3672 57.395 94.9632C57.395 94.4592 57.4165 93.9525 57.2953 93.4592C57.1335 92.8043 56.7589 92.3569 56.0366 92.3919C55.325 92.427 54.972 92.8905 54.8534 93.5563C54.7752 93.9875 54.7968 94.4268 54.7968 94.8635C54.7968 99.2998 54.7995 103.734 54.7914 108.17C54.7914 108.695 54.8938 109.256 54.4895 109.709C49.6489 109.709 44.8109 109.709 39.9702 109.709H39.9648Z" fill="#676767"/>
<path d="M39.7552 76.0681C35.6611 80.1838 31.567 84.2967 27.481 88.4177C27.1684 88.7331 26.9905 88.7708 26.7425 88.3477C24.1389 83.8601 21.5218 79.3779 18.9102 74.8957C19.867 74.4564 20.875 74.2488 21.9261 74.2488C24.1093 74.2488 26.2924 74.2542 28.4756 74.2488C30.5644 74.2434 31.877 72.9389 31.8878 70.8636C31.8931 69.5861 31.9174 68.3085 31.877 67.0337C31.8554 66.3706 32.0872 66.1523 32.7448 66.1712C34.0871 66.2116 35.432 66.1901 36.7742 66.1793C37.0977 66.1793 37.4534 66.2844 37.7337 66.0122C38.5504 65.651 39.3185 65.7858 40.0624 66.2278C40.2807 66.5916 40.27 66.9986 40.27 67.4002C40.278 69.8125 40.2807 72.2247 40.2673 74.6369C40.2646 75.1652 40.3131 75.7339 39.7525 76.0708L39.7552 76.0681Z" fill="#F3F2F2"/>
<path d="M62.5492 109.71C62.5492 102.832 62.5384 95.956 62.5465 89.0777C62.5492 85.361 60.959 82.5256 57.8756 80.4934C57.6627 80.1376 57.8703 79.8492 58.0401 79.5689C58.8405 78.2617 59.5979 76.9303 60.3687 75.6069C60.5601 75.2781 60.7892 75.0112 61.1477 74.8711C64.9507 76.3265 67.3791 79.8115 67.3818 83.8409C67.3872 92.1665 67.3737 100.495 67.4006 108.82C67.4006 109.562 67.2416 109.807 66.4735 109.758C65.169 109.68 63.8564 109.718 62.5492 109.707V109.71Z" fill="#4E4E4E"/>
<path d="M39.9519 66.213C40.6338 66.1537 41.3184 66.0945 42.0003 66.0352C42.922 66.3801 43.8815 66.0783 44.8168 66.2023C45.1537 66.6012 45.089 67.0863 45.0917 67.5472C45.0998 70.1265 45.0836 72.7086 45.0998 75.2879C45.1133 77.6705 46.2372 78.7756 48.6359 78.7891C50.1102 78.7971 51.5845 78.7891 53.0588 78.7944C54.3876 78.7998 55.6517 79.1152 56.851 79.6677C57.2257 79.8402 57.7027 79.9588 57.7216 80.5167C56.2258 83.0907 54.7083 85.6511 53.2448 88.2413C52.827 88.9798 52.5791 88.5566 52.2503 88.2251C48.4095 84.3817 44.5688 80.5383 40.72 76.7029C40.4909 76.4738 40.3211 76.1585 39.9627 76.083C39.8953 76.0776 39.8252 76.0749 39.7578 76.0696C39.9734 75.7084 39.96 75.3095 39.96 74.9079C39.9546 72.0105 39.9573 69.1104 39.9546 66.213H39.9519Z" fill="#E5E6E6"/>
<path d="M57.719 80.5159C56.4091 79.5376 54.8916 79.1683 53.3041 79.109C51.6304 79.047 49.9513 79.0982 48.2748 79.0902C46.1375 79.0821 44.8006 77.7695 44.798 75.6564C44.7926 72.503 44.8087 69.3522 44.8168 66.1988C45.62 66.1934 46.4259 66.2204 47.2291 66.1719C47.8355 66.1368 48.0565 66.3336 48.0349 66.9616C47.9918 68.2661 48.0107 69.5733 48.0269 70.8804C48.0484 72.8399 49.423 74.2252 51.3824 74.2441C53.4605 74.263 55.5358 74.2657 57.6138 74.2441C58.8375 74.2306 60.0045 74.4813 61.1473 74.8748C60.0018 76.7183 58.8617 78.5619 57.8753 80.4944C57.8241 80.4944 57.7729 80.5025 57.7216 80.5132L57.719 80.5159Z" fill="#B8A9A9"/>
</g>
<defs>
<clipPath id="clip0_16474_30898">
<rect width="80" height="80" rx="40" fill="white"/>
</clipPath>
</defs>
</svg>
