<svg width="80" height="80" viewBox="0 0 80 80" fill="none" xmlns="http://www.w3.org/2000/svg">
<g clip-path="url(#clip0_16474_30895)">
<rect width="80" height="80" rx="40" fill="#FFE68A"/>
<path d="M68.1846 79.9978H15.2933C14.9354 79.2614 15.0878 78.4702 15.1374 77.7185C15.259 75.881 15.4371 74.0486 15.8121 72.2351C16.8824 67.0515 19.1583 62.534 23.049 58.8916C23.2477 58.7066 23.4206 58.4857 23.7066 58.4258C24.1793 58.4977 24.33 58.9258 24.568 59.2409C26.7463 62.1333 29.5239 64.243 32.8683 65.5959C34.5654 66.2826 36.3292 66.7176 38.165 66.8169C38.4185 66.8306 38.6616 66.8717 38.8808 67.0138C40.1772 67.9814 41.3502 69.0979 42.6448 70.0706C48.0734 74.1531 54.0704 77.0232 60.6823 78.5747C62.7886 79.0696 64.9189 79.4292 67.0835 79.5662C67.4705 79.5902 67.962 79.4943 68.1863 79.9961L68.1846 79.9978Z" fill="#5AC0EE"/>
<path d="M68.1811 80.0004C67.366 79.574 66.4583 79.7299 65.6004 79.6254C56.985 78.5808 49.2908 75.3031 42.381 70.1007C41.1463 69.1708 39.9784 68.157 38.8242 67.1312C38.9938 66.9429 39.2249 66.9257 39.4493 66.9326C40.3552 66.96 41.2542 66.8607 42.1533 66.799C46.1039 66.2647 49.6008 64.7577 52.5908 62.064C54.5122 60.3344 56.0123 58.3189 57.1511 56.0104C57.3018 55.7039 57.348 55.2895 57.7847 55.1953C59.6992 55.9711 61.3997 57.1081 62.9649 58.4302C67.5475 62.3072 69.9672 67.3984 71.0169 73.2071C71.4211 75.447 71.5684 77.7177 71.4639 79.9987H69.9603C69.6863 79.8874 69.4141 79.8874 69.1401 79.9987H68.1828L68.1811 80.0004Z" fill="#F9C198"/>
<path d="M42.3397 66.965C41.1735 67.126 40.0005 67.1329 38.8258 67.1294C37.5602 66.8914 36.2742 66.8178 35.0189 66.4804C30.623 65.2971 27.0902 62.8705 24.3554 59.2435C24.1653 58.9901 23.9666 58.7435 23.7731 58.4935C23.2765 58.1886 23.1173 57.6372 22.8347 57.1817C22.4528 56.5652 22.136 55.9093 21.9887 55.1884C21.4322 53.4913 20.8739 51.7943 20.7095 50.0013C20.6462 49.3026 20.6171 48.5988 20.5725 47.8984C20.6787 41.6376 20.0982 35.3751 20.5708 29.1143C20.6119 26.7083 20.9972 24.3622 21.9237 22.1377C24.4598 16.0516 28.9174 12.1472 35.2844 10.4313C36.1303 10.2035 37.0225 10.2172 37.8428 9.88672H38.2521C38.5261 9.99803 38.7984 9.99803 39.0723 9.88672H40.7129C40.9869 9.99803 41.2592 9.99803 41.5332 9.88672H41.8072C41.9356 10.1042 42.1668 9.97748 42.3414 10.0443C42.2593 10.4279 41.9168 10.3987 41.6513 10.4587C38.8377 11.0803 36.2622 12.2071 33.9623 13.9675C31.7995 15.6235 30.0733 17.6442 28.7444 20.016C28.6229 20.2335 28.5201 20.4646 28.3489 20.653C28.2752 20.7352 28.193 20.8054 28.1006 20.8671C26.5559 22.184 25.5815 23.8211 25.1774 25.8247C24.4033 29.6555 24.4427 33.5291 24.5318 37.401C24.5626 38.7829 24.7441 40.17 25.0558 41.5314C25.2972 42.5863 25.686 43.5761 26.2648 44.4889C26.3007 44.554 26.3281 44.6242 26.3487 44.6961C26.4703 45.7407 26.3847 46.7904 26.4052 47.8385C26.4977 52.7567 28.1245 57.0601 31.469 60.7025C34.2552 63.7405 37.6476 65.6773 41.6702 66.5232C41.9424 66.5797 42.2798 66.5695 42.3414 66.965H42.3397Z" fill="#838383"/>
<path d="M21.9868 55.1875C22.581 56.2886 23.1769 57.3915 23.7712 58.4926C21.795 60.2307 20.1459 62.2275 18.8324 64.5222C17.2175 67.3409 16.2808 70.3857 15.7448 73.5555C15.3869 75.6789 15.2259 77.8349 15.291 79.9978H8.32125C8.18083 75.1463 8.92061 70.473 11.027 66.0531C13.284 61.3147 16.7261 57.7562 21.4234 55.4204C21.6049 55.3296 21.8001 55.2646 21.9885 55.1875H21.9868Z" fill="#48AFDE"/>
<path d="M39.0742 9.88672C38.8002 10.0837 38.5279 10.1076 38.2539 9.88672H39.0742Z" fill="#A0A0A0"/>
<path d="M41.5312 9.88672C41.2572 10.1008 40.9849 10.0871 40.7109 9.88672H41.5312Z" fill="#9A9999"/>
<path d="M69.1406 79.9999C69.4146 79.7738 69.6869 79.7995 69.9609 79.9999H69.1406Z" fill="#BFD0D3"/>
<path d="M20.5705 29.115C20.5791 29.7281 20.5945 30.3428 20.5945 30.9559C20.5996 36.3553 20.6014 41.753 20.6014 47.1524C20.6014 47.4025 20.5825 47.6525 20.5722 47.9008C20.4181 46.7449 20.5329 45.5838 20.5089 44.4245C20.4883 43.421 20.5089 42.4175 20.5037 41.4122C20.4969 40.1227 20.6305 40.3094 19.43 40.3077C17.4847 40.3077 15.9845 39.4771 15.0358 37.8024C13.1555 34.4802 15.541 30.5569 19.0036 30.4148C19.0721 30.4113 19.1406 30.4062 19.2074 30.3976C19.9997 30.2937 20.4535 29.8656 20.5688 29.1133L20.5705 29.115Z" fill="#F9C198"/>
<path d="M42.3382 66.966C41.5813 66.5241 40.6977 66.5121 39.8825 66.2587C37.9115 65.6473 36.0963 64.7586 34.4181 63.565C31.6832 61.6196 29.5683 59.1485 28.1179 56.1175C27.1692 54.1378 26.6023 52.0538 26.3438 49.8652C26.14 48.1356 26.2941 46.4095 26.2188 44.685C26.3763 44.6165 26.4808 44.7193 26.5784 44.8083C27.9244 46.019 29.4502 46.031 31.0582 45.4796C31.7072 45.257 32.3032 44.9162 32.9077 44.5994C35.5962 43.1883 38.4629 42.8253 41.4512 43.0667C43.6483 43.2431 45.6861 43.8767 47.5989 44.9659C48.3147 45.3734 49.0819 45.644 49.9073 45.769C51.7568 46.0498 53.2758 45.221 54.0498 43.488C54.7485 41.9211 54.9763 40.2497 55.1424 38.5681C55.3513 36.4549 55.341 34.3297 55.2708 32.2114C55.1903 29.7728 54.9728 27.3411 54.3598 24.9642C53.9967 23.5583 53.2398 22.3749 52.2243 21.3595C51.5256 20.6591 51.2003 20.6368 50.3663 21.1471C49.421 21.7259 48.4637 21.7807 47.5458 21.142C46.955 20.731 46.4413 20.743 45.8505 21.1266C44.9018 21.743 43.9223 21.7722 42.9701 21.1163C42.4119 20.7327 41.8844 20.7395 41.3244 21.1163C40.3723 21.7585 39.4013 21.7602 38.4526 21.1111C37.8909 20.7258 37.3669 20.7447 36.8087 21.118C35.8052 21.7876 34.7931 21.7499 33.8118 21.0666C33.3152 20.7207 32.8529 20.7327 32.3614 21.0735C31.3476 21.779 30.3167 21.7722 29.3115 21.0666C28.9878 20.8389 28.5734 20.8303 28.2754 20.5666C30.3698 16.419 33.5635 13.4187 37.7745 11.5179C39.0297 10.9511 40.3466 10.5229 41.7166 10.2883C41.9341 10.2507 42.1636 10.2096 42.3382 10.0469C45.8556 10.5247 49.0443 11.8176 51.8167 14.0386C55.6749 17.1314 58.0604 21.118 58.9115 26.0191C59.1598 27.4421 59.1495 28.8721 59.2026 30.302C59.4098 30.5794 59.3773 30.9065 59.3773 31.2216C59.3824 33.9495 59.379 36.6775 59.3807 39.4072C59.3807 39.7514 59.367 40.0887 59.2009 40.4021C59.1941 42.7054 59.1684 45.0104 59.1855 47.3136C59.2043 49.8224 58.8447 52.2593 57.9354 54.6071C57.8618 54.7954 57.8327 55.0009 57.783 55.1979C56.9764 56.6723 56.2486 58.1895 55.204 59.5236C52.3836 63.1249 48.784 65.5104 44.3298 66.5721C43.6705 66.7296 43.001 66.8375 42.3348 66.9694L42.3382 66.966Z" fill="#9F9E9E"/>
<path d="M59.2009 40.397C59.2009 37.0303 59.2009 33.6636 59.2009 30.2969C60.5606 30.3534 61.9238 30.3619 63.1242 31.1651C64.6209 32.1669 65.4138 33.6019 65.4018 35.3538C65.3898 37.1844 64.5747 38.6743 62.9358 39.6333C62.131 40.1042 61.273 40.3217 60.3432 40.308C59.963 40.3028 59.5691 40.2275 59.1992 40.397H59.2009Z" fill="#F9C198"/>
<path d="M28.2768 20.5647C28.7049 20.527 29.0628 20.6657 29.419 20.9141C30.4156 21.6093 31.2565 21.6145 32.2497 20.9089C32.8319 20.4962 33.3388 20.4705 33.9228 20.9038C34.8458 21.5888 35.8134 21.6282 36.7569 20.9226C37.3477 20.4808 37.9094 20.474 38.5036 20.9192C39.4181 21.6025 40.3565 21.6059 41.2727 20.9243C41.8652 20.4825 42.4303 20.4705 43.0194 20.9209C43.9664 21.647 44.9374 21.5614 45.8587 20.9038C46.4495 20.4825 46.9495 20.4945 47.5335 20.9072C48.5336 21.6162 49.3556 21.5973 50.3693 20.9226C51.1554 20.3986 51.5236 20.4363 52.2274 21.099C53.8457 22.618 54.5906 24.5428 54.9365 26.6954C55.4639 29.9936 55.5821 33.3123 55.4451 36.6345C55.3526 38.8984 55.231 41.1794 54.3217 43.32C53.3439 45.6233 51.4756 46.5052 49.0747 45.7962C48.2133 45.5428 47.4479 45.0958 46.6584 44.6934C44.0486 43.368 41.2796 43.0118 38.3923 43.2566C36.7912 43.3919 35.2482 43.7139 33.7841 44.3698C33.0802 44.6848 32.4227 45.1078 31.7154 45.4126C30.0629 46.125 28.4035 46.4247 26.8143 45.2346C26.5986 45.0736 26.417 44.8698 26.2184 44.6866L26.2321 44.654C26.0506 44.3013 26.0129 43.9211 26.0129 43.5306C26.0146 38.5456 25.9718 33.5606 26.0334 28.5774C26.0643 26.0754 26.6414 23.6609 27.674 21.3696C27.7887 21.1161 27.9463 20.8986 28.1346 20.6983C28.1809 20.6538 28.2288 20.6092 28.2751 20.5664L28.2768 20.5647Z" fill="#F9C198"/>
<path d="M28.135 20.6953C27.6452 22.0841 27.015 23.4216 26.7222 24.8823C26.455 26.218 26.2273 27.5555 26.2256 28.9203C26.2256 34.1639 26.229 39.4092 26.2307 44.6528C25.2991 43.5516 24.9772 42.2056 24.722 40.8374C24.1295 37.6556 24.2391 34.4345 24.347 31.2304C24.4258 28.9032 24.6124 26.5485 25.4087 24.3223C25.9362 22.8462 26.7701 21.5618 28.1333 20.697L28.135 20.6953Z" fill="#E7B089"/>
<path d="M39.8737 56.042C38.0157 56.042 36.221 55.7457 34.5034 54.9956C32.6283 54.1771 31.7909 52.2403 32.5187 50.3086C33.1763 48.567 35.2038 47.6269 37.0208 48.3033C38.961 49.026 40.8533 49.014 42.7918 48.293C44.595 47.62 46.6294 48.5893 47.2716 50.3412C47.9737 52.2557 47.1517 54.1976 45.3091 54.9768C43.4751 55.7508 41.9972 56.0402 39.8737 56.042Z" fill="#F9C198"/>
<path d="M35.7597 33.1755C35.3846 33.2354 35.1449 32.9939 34.8949 32.7508C33.3793 31.2763 31.6686 31.2695 30.1428 32.7217C29.5383 33.2971 28.9132 33.3604 28.4628 32.8929C27.9799 32.3912 28.0398 31.8466 28.6426 31.2284C30.8534 28.9628 34.4222 28.9953 36.4412 31.3055C36.7632 31.6736 37.044 32.0641 36.758 32.5932C36.5457 32.9871 36.2511 33.2337 35.7614 33.1755H35.7597Z" fill="#9F9F9E"/>
<path d="M43.9835 33.1739C43.5228 33.2253 43.242 32.9856 43.0382 32.6242C42.8412 32.2715 42.8635 31.9375 43.1135 31.6053C44.177 30.1891 45.6394 29.5401 47.357 29.5469C48.8691 29.5538 50.1775 30.1531 51.2135 31.2971C51.7427 31.881 51.7821 32.4376 51.2974 32.9154C50.8727 33.3315 50.1963 33.3332 49.7237 32.7852C48.4153 31.2662 46.0556 31.2954 44.8123 32.8177C44.5982 33.0798 44.3225 33.2236 43.9852 33.1757L43.9835 33.1739Z" fill="#9F9F9E"/>
<path d="M32.4941 37.5511C31.3912 37.5511 30.4922 36.6589 30.4922 35.568C30.4922 34.4909 31.4118 33.5781 32.4958 33.5781C33.5935 33.5781 34.4754 34.4652 34.4754 35.5697C34.4754 36.6845 33.6089 37.5511 32.4941 37.5511Z" fill="#273339"/>
<path d="M47.2543 37.5514C46.1446 37.5377 45.2901 36.654 45.3089 35.5358C45.3277 34.4295 46.2199 33.5596 47.3211 33.5784C48.3999 33.5955 49.3144 34.5374 49.2887 35.6043C49.2613 36.7071 48.3639 37.5651 47.2543 37.5514Z" fill="#273339"/>
<path d="M39.9138 53.3725C38.7682 53.3263 37.6619 53.2389 36.5814 52.9529C35.8125 52.7492 35.4837 52.2919 35.6326 51.6361C35.7714 51.023 36.3296 50.7182 37.0831 50.8997C38.9514 51.3501 40.8112 51.3518 42.6795 50.9065C43.4792 50.7147 44.0237 51.0144 44.1676 51.672C44.3046 52.3005 43.9467 52.7611 43.1778 52.9632C42.0955 53.2475 40.9875 53.3211 39.9121 53.3708L39.9138 53.3725Z" fill="#273339"/>
</g>
<defs>
<clipPath id="clip0_16474_30895">
<rect width="80" height="80" rx="40" fill="white"/>
</clipPath>
</defs>
</svg>
