<svg width="400" height="400" viewBox="0 0 400 400" fill="none" xmlns="http://www.w3.org/2000/svg">
<rect width="400" height="400" rx="200" fill="#F27430"/>
<path d="M234 55.8184C239.198 54.6606 244.491 54.2826 249.752 54.7394C255.486 55.2356 261.18 56.1571 266.803 57.5117C269.859 58.2521 272.049 59.7721 272.829 62.828C273.577 65.7657 272.553 68.1758 270.206 70.1212C267.449 72.4131 264.787 74.8231 261.81 77.4222C267.032 79.1155 271.962 80.6434 276.727 82.6676C286.99 87.023 296.567 92.5204 305.23 99.53C313.516 106.24 320.486 114.132 326.109 123.213C327.74 125.844 328.417 128.395 326.724 131.16C325.156 133.727 322.794 134.814 319.785 134.783C314.477 134.728 309.168 134.767 303.245 134.767C306.27 137.681 309.365 139.792 312.169 142.186C319.265 148.266 324.763 155.544 329.567 163.436C337.12 175.848 341.168 189.442 343.192 203.721C343.326 204.682 343.24 205.682 343.248 206.659C343.948 207.541 343.098 208.73 343.83 209.612V216.685C342.082 219.725 339.979 222.049 335.939 221.442C334.379 221.206 333.229 220.395 332.001 219.631C327.283 216.685 322.573 213.724 317.863 210.77C316.997 183.787 305.065 154.874 278.058 135.208C279.035 134.452 280.114 134.83 281.083 134.775C286.265 134.484 291.502 135.389 296.645 134.247C301.206 133.231 303.364 128.695 301.174 124.52C298.992 120.354 296.204 116.526 293.227 112.903C283.288 100.814 270.828 91.9376 256.801 85.1957C251.24 82.5258 245.523 80.1788 239.545 78.5327C238.592 78.2728 237.016 78.32 236.93 77.1386C236.867 76.162 238.19 75.5162 239.009 74.831C241.112 73.0825 243.223 71.3419 245.302 69.562C247.468 67.7032 248.161 65.2144 247.326 62.6469C246.476 60.0163 244.396 58.3151 241.6 57.6535C239.064 57.047 236.536 56.4248 234 55.8105V55.8184Z" fill="#DBEBF8"/>
<path d="M321.366 213.668C325.001 218.474 327.302 223.979 329.351 229.557C332.888 239.177 335.092 249.04 335.579 259.375C335.775 263.538 335.612 267.612 335.352 271.71C335.027 276.947 328.944 280.004 324.488 277.199C321.748 275.475 319.122 273.573 316.487 271.694C315.259 270.816 314.787 270.97 314.641 272.54C313.869 281.265 312.933 289.982 312.242 298.723C311.779 304.578 308.982 307.115 303.127 308.098C296.606 309.188 290.035 309.131 283.498 309.619C279.749 309.896 275.846 309.164 272 309.196C274.391 307.578 277.285 308.196 279.879 307.44C282.961 306.545 284.905 304.659 285.295 301.593C286.14 295.007 286.905 288.404 287.255 281.761C287.401 279.053 287.848 276.362 287.938 273.629C288.003 271.556 288.881 270.442 291.076 272.166C293.142 273.784 297.077 270.751 299.289 272.166C304.843 275.735 302.794 270.556 303.127 264.002C304.054 245.649 306.55 234.94 298.159 218.564C295.768 213.904 293.085 209.391 290.003 205.041C293.475 206.188 296.272 208.407 299.289 210.213C303.192 212.563 306.957 215.132 310.884 217.441C315.235 219.995 319.821 218.271 321.358 213.677L321.366 213.668Z" fill="#DBEBF8"/>
<path d="M119.708 201.933C120.748 200.94 121.929 201.429 123.056 201.657C126.915 202.437 130.703 203.532 134.562 204.296C137.13 204.8 138.146 206.013 138.264 208.644C138.61 216.173 141.186 222.835 146.777 228.12C150.186 231.345 154.096 233.647 158.576 234.899C162.026 230.114 167.649 226.998 173.999 226.998H179.104C180.105 217.446 188.183 210 198 210H203.999C213.816 210 221.894 217.446 222.895 226.998H227.999C234.438 226.998 240.128 230.201 243.564 235.101C250.764 232.547 256.179 227.383 260.097 220.016C260.278 224.907 259.357 229.727 258.853 234.555C258.183 240.934 257.766 247.345 256.679 253.686C254.466 266.563 249.354 278.109 241.227 288.332C236.035 294.865 229.919 300.396 222.904 304.901C221.95 314.502 213.851 322 203.999 322H198C192.381 322 187.333 319.56 183.854 315.684C183.373 315.806 182.821 315.724 182.307 315.606C172.792 313.433 164.034 309.565 156.087 303.887C155.693 303.603 155.464 303.131 155.134 302.769L155.142 302.776C154.937 302.556 154.74 302.336 154.535 302.115C150.14 298.083 145.454 294.388 141.643 289.71C132.696 278.739 126.694 266.444 124.985 252.37C123.127 237.044 121.764 221.654 120.181 206.296C120.031 204.839 119.472 203.429 119.708 201.933Z" fill="#FAD1A8"/>
<path d="M71 400C71 366.863 97.8629 340 131 340H266C299.137 340 326 366.863 326 400H71Z" fill="#862F04"/>
<path d="M48.7853 216.694V209.031C49.3366 205.951 49.0137 202.801 49.4862 199.721C52.4712 180.11 60.1424 162.696 73.6103 147.905C77.6507 143.463 82.203 139.659 87.1176 135.603C82.9433 135.603 79.1393 135.603 75.3273 135.603C74.2483 135.603 73.1614 135.634 72.0824 135.524C65.4351 134.823 62.3792 129.105 65.6871 123.301C70.3497 115.118 76.4299 108.069 83.5025 101.87C96.2695 90.6784 110.887 82.8418 127.096 77.8799C127.647 77.7067 128.254 77.6121 128.805 76.9506C127.821 75.4226 126.214 74.4775 124.851 73.3119C123.505 72.162 122.134 71.0436 120.953 69.7204C117.101 65.4123 118.614 59.332 124.135 57.3473C128.695 55.7091 133.499 55.0081 138.28 54.4883C158.041 52.3303 176.077 57.4182 192.789 67.7672C194.317 68.7123 196.223 69.4133 196.688 71.5319C195.648 78.069 196.152 84.6454 196.294 91.1982C196.349 93.9154 197.893 95.3803 199.933 95.3882C201.989 95.3961 203.548 93.939 203.611 91.2376C203.761 84.6848 204.257 78.1083 203.209 71.5713C203.28 70.4686 204.044 69.8228 204.855 69.2794C215.456 62.0886 227.042 57.3237 239.691 55.1735C240.171 55.0948 240.667 55.142 241.156 55.2287C243.786 55.5831 246.33 56.347 248.914 56.922C252.158 57.6387 254.474 59.5526 255.372 62.7108C256.262 65.8297 255.025 68.4839 252.663 70.6262C250.843 72.2801 248.906 73.7844 247.031 75.3675C246.527 75.7928 245.692 76.1078 245.818 76.8876C245.952 77.7067 246.866 77.6515 247.488 77.8484C257.483 80.9673 266.965 85.1888 275.865 90.7099C288.821 98.7434 299.808 108.801 307.842 121.867C308.771 123.379 309.7 124.868 309.913 126.687C310.393 130.869 308.117 134.201 303.919 135.122C299.556 136.083 295.098 135.398 290.688 135.587C289.624 135.634 288.553 135.477 287.096 135.729C291.948 138.785 295.665 142.699 299.406 146.574C311.22 158.79 318.852 173.289 322.995 189.703C324.318 194.948 325.145 200.265 325.783 205.62C325.98 207.266 326.193 208.944 325.492 210.551C323.814 211.748 322.987 209.747 321.782 209.542C323.168 212 325.673 213.937 325.728 217.166C324.058 221.742 319.585 223.467 314.961 221.191C311.165 219.324 307.786 216.741 304.179 214.552C301.69 213.039 299.202 211.527 296.532 209.716C305.896 223.16 311.315 237.707 313.559 253.522C314.418 259.594 314.268 265.667 314.079 271.731C313.843 279.127 307.345 282.23 301.115 278.103C299.399 276.969 297.76 275.701 296.035 274.574C294.413 273.519 293.688 274.118 293.562 275.858C293.082 282.6 292.46 289.334 291.759 296.06C291.609 297.525 291.483 298.982 291.231 300.439C290.302 305.873 288.002 308.181 282.583 308.756C280.709 308.953 278.921 309.418 277.094 309.796C266.847 309.244 256.986 306.826 247.307 303.582C246.559 303.329 245.858 302.983 245.362 302.329C245.015 300.707 246.362 300.085 247.291 299.336C261.106 288.121 269.698 273.716 273.487 256.436C275.211 248.56 275.511 240.487 276.385 232.493C277.48 222.451 278.228 212.378 279.583 202.367C279.803 201.438 280.543 201.005 281.284 200.509C284.592 198.288 284.647 195.964 281.481 193.405C281.103 193.097 280.709 192.822 280.449 192.396C279.472 188.679 279.567 184.82 278.952 181.047C273.172 145.416 244.472 118.252 208.541 114.291C204.509 113.849 200.5 113.912 196.483 113.802C183.756 114.692 171.587 117.764 160.561 124.238C139.422 136.65 126.214 154.883 121.378 178.999C120.488 183.426 120.583 187.986 119.456 192.373C119.118 192.987 118.48 193.279 117.968 193.704C115.361 195.901 115.463 198.437 118.259 200.32C119.055 200.855 119.984 201.218 120.283 202.265C121.654 209.81 121.929 217.466 122.851 225.058C123.946 234.108 124.473 243.228 125.773 252.262C127.75 266.005 133.287 278.174 142.131 288.901C145.274 292.713 148.779 296.115 152.598 299.226C153.559 300.006 154.796 300.667 154.599 302.243C153.78 303.361 152.488 303.637 151.291 304.038C139.532 307.921 127.521 310.221 115.085 310.134C107.705 310.079 100.357 310.04 93.0088 308.984C85.8575 307.961 83.2426 305.393 82.7622 298.139C82.2896 290.996 81.3839 283.884 80.8011 276.748C80.7223 275.803 80.7538 274.771 79.9505 273.834C77.5641 274.96 75.5084 276.638 73.2953 278.056C70.4757 279.867 67.601 280.757 64.4191 279.04C61.2608 277.339 60.4575 274.488 60.2763 271.14C59.0477 248.741 65.1358 228.437 77.5719 209.984C71.917 213.567 66.2305 217.229 60.4417 220.742C58.6224 221.845 56.6691 222.443 54.5269 222.128C51.3686 221.656 49.4154 219.868 48.7695 216.71L48.7853 216.694Z" fill="#EAF4FC"/>
<path d="M351.121 209.62C350.168 208.786 350.656 207.667 350.538 206.667C350.735 206.667 350.924 206.667 351.121 206.667V209.613V209.62Z" fill="#F1F8FD"/>
<path d="M119.158 192.395C119.741 173.571 125.735 156.74 137.872 142.209C149.512 128.269 164.185 119.196 181.922 115.171C186.679 114.092 191.46 112.974 196.406 113.068C195.959 113.478 195.293 113.738 194.405 113.848C200.068 113.541 204.872 115.218 209.496 117.045C238.912 128.694 256.72 150.03 262.454 181.179C263.359 186.094 263.911 191.087 263.068 196.104C261.004 197.758 259.917 197.719 258.586 195.663C257.043 193.261 255.397 190.977 253.373 188.953C239.684 175.249 216.592 179.51 208.661 197.215C208.023 198.633 207.597 200.208 205.904 200.83C201.942 201.334 197.981 201.342 194.027 200.846C192.231 200.176 191.83 198.467 191.145 196.971C183.875 181.124 163.783 175.808 149.827 186.086C146.48 188.551 143.723 191.615 141.668 195.254C140.723 196.924 139.415 197.656 137.533 197.223C131.697 195.884 125.869 194.529 120.048 193.119C119.654 193.025 119.363 192.757 119.166 192.395H119.158Z" fill="#FAD1A8"/>
<path d="M245.402 302.122C245.173 302.343 244.945 302.563 244.716 302.784C244.323 303.737 243.567 304.335 242.74 304.887C234.895 310.053 226.484 313.897 217.269 315.889C216.418 316.071 215.544 316.346 214.701 315.826C214.906 312.448 216.505 309.557 217.915 306.588C227.72 301.902 235.36 294.632 241.865 286.134C251.332 273.753 255.861 259.561 257.058 244.139C257.594 237.209 258.303 230.293 259.232 223.402C259.389 222.228 259.319 221.055 259.374 219.881C260.335 215.707 261.65 211.612 261.768 207.272C261.799 205.988 262.477 205.059 263.784 204.712C268.502 203.452 273.275 202.42 278.055 201.396C278.827 201.231 279.623 201.286 280.229 201.94C279.599 208.855 279.016 215.77 278.331 222.677C277.654 229.49 276.638 236.271 276.189 243.092C274.614 266.964 265.107 286.67 245.992 301.469C245.764 301.642 245.606 301.91 245.425 302.13L245.402 302.122Z" fill="#F9BB8B"/>
<path d="M280.771 192.404C275.447 192.971 270.375 194.735 265.137 195.712C264.287 195.869 263.42 195.988 262.562 196.121C263.05 182.843 260.246 170.202 254.458 158.333C248.385 145.881 239.525 135.618 228.128 127.648C217.858 120.465 206.532 115.818 194.041 113.975C194.663 113.187 195.845 113.912 196.404 113.077C236.934 111.51 271.753 139.092 279.472 178.991C280.322 183.402 280.858 187.891 280.771 192.42V192.404Z" fill="#F9BB8B"/>
<path d="M196.396 71.1205C199.043 68.6395 200.862 68.6395 203.5 71.1205C204.233 72.1758 204.729 73.247 204.705 74.6331C204.619 80.0203 204.698 85.4153 204.658 90.8025C204.642 92.6927 204.351 94.5436 202.587 95.7171C199.413 97.8279 195.451 95.788 195.294 91.6846C195.065 85.7146 195.246 79.7289 195.207 73.751C195.207 72.6484 195.987 71.9947 196.388 71.1205H196.396Z" fill="#DBEBF8"/>
<path d="M244.692 318.647C244.716 326.2 244.779 333.761 244.756 341.314C244.748 344.551 243.582 345.654 240.219 345.661C229.106 345.693 217.993 345.669 206.88 345.669C191.443 345.669 175.998 345.669 160.561 345.669C155.978 345.669 155.119 344.803 155.127 340.14C155.143 332.973 155.174 325.814 155.206 318.647C156.261 318.277 157.135 318.804 157.978 319.285C163.665 322.506 169.761 324.696 175.998 326.531C177.534 326.988 178.912 327.641 180.165 328.657C191.475 337.864 208.424 338.053 219.718 328.673C220.789 327.783 221.955 327.098 223.309 326.704C229.949 324.798 236.383 322.396 242.456 319.08C243.149 318.702 243.858 318.332 244.692 318.647Z" fill="#F9BB8B"/>
<path d="M244.692 318.646C238.053 322.773 230.799 325.435 223.309 327.53C220.293 328.373 218.316 330.878 215.701 332.414C205.084 338.675 190.238 337.58 180.275 329.83C178.676 328.586 177.101 327.719 175.171 327.16C168.185 325.12 161.435 322.482 155.206 318.654C155.182 313.362 155.166 308.069 155.143 302.784C159.939 305.312 164.397 308.471 169.453 310.518C174.415 312.535 179.361 314.551 184.74 315.142C186.268 314.945 186.993 316.15 187.891 316.992C194.932 323.616 204.619 323.726 211.731 317.26C212.566 316.504 213.259 315.386 214.685 315.685C225.648 313.598 235.485 308.888 244.716 302.792C244.716 308.077 244.7 313.362 244.692 318.654V318.646Z" fill="#F4A771"/>
<path d="M214.071 263.341C211.33 265.648 209.022 268.507 205.32 269.531C198.043 271.548 191.601 270.453 186.261 264.798C185.591 264.089 184.843 263.459 184.134 262.79C181.322 257.765 180.842 252.314 181.039 246.691C181.212 241.635 181.141 236.563 181.173 231.498C182.173 230.474 183.488 230.537 184.748 230.53C194.53 230.49 204.32 230.49 214.102 230.53C215.37 230.53 216.662 230.522 217.757 231.341C218.568 232.302 218.631 233.483 218.647 234.649C218.702 240.185 218.71 245.722 218.647 251.259C218.631 252.425 218.544 253.606 217.568 254.465C216.867 257.599 215.74 260.568 214.079 263.333L214.071 263.341Z" fill="#F0818A"/>
<path d="M217.505 231.507C205.392 231.507 193.278 231.507 181.173 231.507C181.126 227.404 181.086 223.292 181.039 219.189C193.239 218.937 205.439 218.937 217.639 219.189C219.151 223.316 219.427 227.427 217.513 231.515L217.505 231.507Z" fill="#EC6674"/>
<path d="M181.653 271.516C175.281 271.493 168.91 271.477 162.538 271.445C158.269 271.422 156.93 270.075 156.899 265.83C156.844 258.867 157.293 251.984 160.293 245.533C161.609 244.454 163.16 245.305 164.515 245.037C169.65 244.013 171.635 247.124 174.163 250.85C187.458 270.414 216 268.933 227.444 248.227C228.822 245.73 230.326 244.517 233.264 245.171C235.517 245.667 237.911 244.021 240.179 245.431C241.597 246.927 242.014 248.881 242.463 250.763C243.668 255.725 244.227 260.773 243.983 265.877C243.779 270.272 241.786 272.335 237.375 272.414C230.917 272.532 224.451 272.548 217.985 272.398C206.88 272.666 195.767 272.493 184.662 272.485C183.567 272.485 182.496 272.32 181.645 271.524L181.653 271.516Z" fill="#EAF4FC"/>
<path d="M239.604 245.549C236.698 245.289 233.878 246.786 230.87 245.707C229.397 245.179 229.097 246.959 228.609 247.936C224.159 256.875 216.811 262.183 207.313 264.585C193.191 268.161 178.038 261.175 171.469 248.164C170.516 246.282 169.721 245.163 167.263 246.014C165.011 246.794 162.656 245.242 160.285 245.533C160.797 242.202 163.215 239.776 164.483 236.807C170.658 236.996 176.352 235.421 181.613 232.199C181.038 241.083 186.638 247.904 193.222 250.487C200.035 253.157 208.1 251.488 213.235 246.1C216.929 242.218 218.599 237.539 218.292 232.184C223.553 235.397 229.255 236.964 235.422 236.807C237.824 239.24 240.21 241.69 239.612 245.557L239.604 245.549Z" fill="#DBEBF8"/>
<rect x="200" y="343.621" width="60.744" height="33.7493" rx="6" transform="rotate(-19.8443 200 343.621)" fill="#B95B28"/>
<rect width="60.744" height="33.7493" rx="6" transform="matrix(-0.940618 -0.339466 -0.339466 0.940618 199.594 343.621)" fill="#B95B28"/>
<path d="M206.407 200.232C205.501 205.052 204.887 209.848 206.123 214.747C207.99 222.111 212.078 227.861 218.284 232.185C219.245 233.484 219.174 234.957 218.953 236.422C217.63 245.511 209.36 252.528 199.957 252.552C190.608 252.576 182.275 245.519 180.944 236.438C180.731 234.973 180.645 233.492 181.613 232.2C188.922 227.081 193.167 220.158 194.372 211.282C194.884 207.486 193.908 203.902 193.49 200.232C197.799 200.232 202.099 200.232 206.407 200.232Z" fill="#F0818A"/>
<path d="M164.492 236.799C149 235.594 137.706 223.686 137.477 208.162C137.454 206.343 137.005 205.658 135.146 205.295C129.98 204.287 124.939 202.673 119.709 201.932C118.457 201.066 116.787 200.94 115.905 199.388C114.275 196.522 115.448 193.875 119.158 192.395C125.396 193.182 131.397 195.072 137.509 196.419C139.013 196.75 139.958 196.766 140.856 195.183C147.173 184.078 156.852 178.824 169.517 180.281C180.937 181.597 188.624 188.275 192.838 198.924C193.019 199.373 193.271 199.798 193.483 200.231C195.5 203.035 195.626 206.343 195.374 209.509C194.578 219.299 190.475 227.325 182 232.79C178.314 235.311 174.235 236.831 169.816 237.398C168.02 237.626 166.138 238.059 164.476 236.807L164.492 236.799Z" fill="#51A0D9"/>
<path d="M280.214 201.933C274.709 203.138 269.204 204.351 263.69 205.525C262.729 205.729 262.414 206.296 262.454 207.186C262.659 211.644 261.406 215.834 260.099 220.016C258.626 226.301 254.082 230.129 249.017 233.358C244.851 236.02 240.157 237.383 235.164 237.58C228.894 237.777 223.106 236.257 217.868 232.768C207.716 225.53 203.171 215.85 205.046 203.39C205.219 202.217 205.487 201.083 206.408 200.224C208.74 194.278 212.016 189.04 217.364 185.283C231.383 175.423 250.411 179.676 258.799 194.632C259.737 196.302 260.556 197.507 262.564 196.113C263.328 195.262 264.36 194.963 265.415 194.735C269.33 193.884 273.205 192.884 277.127 192.088C278.355 191.836 279.631 191.482 280.773 192.403C283.191 192.931 284.585 194.53 284.688 196.893C284.814 199.838 282.545 200.988 280.214 201.933Z" fill="#51A0D9"/>
<path d="M165.322 222.994C158.09 223.055 151.687 216.933 151.12 209.726C150.431 201.036 157.291 194.317 163.486 193.78C164.688 193.28 165.688 193.688 166.627 194.445C174.859 201.036 174.81 215.86 166.541 222.421C166.176 222.708 165.791 222.939 165.328 222.994H165.322Z" fill="#93C7ED"/>
<path d="M165.322 222.993C168.352 219.767 170.987 216.401 171.913 211.84C173.145 205.779 170.511 197.986 165.633 194.315C164.944 193.797 164.236 193.821 163.486 193.778C167.993 192.559 172.005 194.004 175.31 196.791C184.298 204.382 182.322 217.352 171.609 222.127C169.608 223.017 167.511 223.371 165.322 222.986V222.993Z" fill="#71B4E4"/>
<path d="M233.243 222.475C227.332 222.458 223.245 219.426 220.894 214.307C218.401 208.894 219.205 203.664 223.098 199.043C225.286 196.445 228.065 194.821 231.478 194.376C232.633 193.895 233.595 194.288 234.498 195.015C242.414 201.353 242.367 215.626 234.41 221.918C234.058 222.194 233.688 222.416 233.237 222.475H233.243Z" fill="#93C7ED"/>
<path d="M233.244 222.477C236.234 219.422 238.673 216.127 239.576 211.764C240.779 205.929 238.234 198.435 233.543 194.899C232.88 194.401 232.2 194.424 231.479 194.383C235.976 193.252 239.852 194.718 243.177 197.573C247.598 201.367 249.287 206.31 247.762 211.963C246.068 218.237 241.787 221.785 235.261 222.512C234.592 222.588 233.9 223.298 233.249 222.477H233.244Z" fill="#71B4E4"/>
</svg>
