<svg width="253" height="495" viewBox="0 0 253 495" fill="none" xmlns="http://www.w3.org/2000/svg">
<path d="M99.0973 439.721C99.0973 439.721 91.3683 454.044 93.1901 455.926C95.012 457.808 103.525 460.819 107.544 462.324C111.563 463.829 118.586 468.357 125.63 468.733C132.675 469.109 139.653 467.228 137.069 463.464C134.485 459.701 121.202 450.27 119.723 447.967C118.243 445.665 119.347 440.817 119.347 440.817L99.0973 439.721Z" fill="white" stroke="#263238" stroke-width="1.62002" stroke-linecap="round" stroke-linejoin="round"/>
<path d="M107.953 459.314C100.665 454.731 95.2993 453.635 93.1351 453.37C92.848 454.598 92.8149 455.528 93.1351 455.927C94.9901 457.808 103.47 460.819 107.489 462.325C111.508 463.83 118.531 468.357 125.575 468.734C132.62 469.11 139.598 467.228 137.014 463.465C128.247 465.347 117.548 465.347 107.953 459.314Z" fill="white" stroke="#263238" stroke-width="1.62002" stroke-linecap="round" stroke-linejoin="round"/>
<path d="M64.5266 443.44C64.5266 443.44 62.1637 466.42 63.5108 475.198C64.8578 483.976 71.9355 492.72 76.6612 493.44C81.387 494.159 87.78 491.082 87.78 481.618C87.78 472.154 82.3918 459.657 82.3918 455.605C82.3918 451.554 81.7072 444.791 81.7072 443.784C81.7072 442.776 64.5266 443.44 64.5266 443.44Z" fill="white" stroke="#263238" stroke-width="1.62002" stroke-linecap="round" stroke-linejoin="round"/>
<path d="M87.4932 477.6C86.5547 482.836 84.2691 488.991 76.3192 487.707C67.6295 486.301 64.0741 473.926 63.0693 469.786C63.0869 471.596 63.216 473.404 63.4558 475.199C64.8029 483.987 71.8805 492.765 76.6063 493.441C81.332 494.116 87.7251 491.083 87.7251 481.619C87.7329 480.276 87.6555 478.934 87.4932 477.6Z" fill="white" stroke="#263238" stroke-width="1.62002" stroke-linecap="round" stroke-linejoin="round"/>
<path d="M63.5107 270.794L74.6295 367.428C74.6295 367.428 69.9148 387.696 68.5677 398.167C67.2206 408.639 62.793 446.485 62.793 446.485C62.793 446.485 64.14 449.185 69.1971 450.912C74.2541 452.639 80.3159 450.912 82.0052 448.543C83.7354 445.973 84.9919 443.112 85.7152 440.098C86.0464 438.072 106.948 377.258 107.953 372.188C108.958 367.118 109.3 356.979 109.3 355.296C109.3 353.614 109.973 304.954 109.973 304.954L135.932 362.049C135.932 362.049 125.575 373.35 122.881 381.121C120.187 388.891 101.251 434.076 100.908 435.094C100.566 436.113 98.2142 440.164 98.2142 440.164C101.734 441.378 105.326 442.373 108.969 443.142C112.46 443.672 116.011 443.672 119.502 443.142C119.502 443.142 123.212 437.607 124.073 435.692C124.581 434.585 167.323 370.937 168.328 367.561C169.333 364.185 169.675 361.816 169.344 356.071C169.012 350.326 146.709 270.119 146.709 267.75C146.709 265.381 141.663 254.235 141.663 254.235C141.663 254.235 104.243 257.622 95.4869 256.603C86.731 255.585 68.8658 251.534 68.8658 251.534L63.5107 270.794Z" fill="#263238" stroke="#263238" stroke-width="1.62002" stroke-linecap="round" stroke-linejoin="round"/>
<path d="M100.334 133.913L91.8545 141.373L94.2615 261.375C94.2615 261.375 104.652 268.016 119.525 264.507C134.398 260.998 137.346 258.087 137.346 258.087L135.446 141.03C135.446 141.03 123.157 136.691 116.069 135.13C110.883 134.157 105.608 133.749 100.334 133.913Z" fill="#A6A6A6" stroke="#263238" stroke-width="1.62002" stroke-linecap="round" stroke-linejoin="round"/>
<path d="M130.975 176.341V280.945C135.57 280.682 140.146 280.142 144.677 279.328C152.936 277.912 155.156 274.679 155.156 274.679C155.156 274.679 149.304 247.416 149.304 240.553C149.304 233.69 149.458 226.362 149.458 226.362C149.458 226.362 157.187 235.107 161.394 237.531C165.601 239.955 174.081 238.738 177.713 228.443C181.346 218.149 177.515 208.242 174.688 202.586C171.861 196.929 165.855 175.123 164.419 168.271C162.984 161.419 162.399 152.918 159.384 149.454C156.37 145.989 141.044 140.775 139.234 139.967C137.325 139.244 135.375 138.638 133.393 138.152L130.975 176.341Z" fill="#92E3A9" stroke="#263238" stroke-width="1.62002" stroke-linecap="round" stroke-linejoin="round"/>
<path d="M132.586 130.248C132.586 130.248 140.845 134.133 141.85 138.982C142.855 143.83 146.708 177.348 146.708 177.348L130.996 176.34L132.586 130.248Z" fill="#92E3A9" stroke="#263238" stroke-width="1.62002" stroke-linecap="round" stroke-linejoin="round"/>
<path d="M149.458 226.362C149.458 226.362 150.264 201.755 153.764 183.092" stroke="#263238" stroke-width="1.62002" stroke-linecap="round" stroke-linejoin="round"/>
<path d="M156.713 221.79C156.713 221.79 155.233 225.786 158.623 231.553" stroke="#263238" stroke-width="1.62002" stroke-linecap="round" stroke-linejoin="round"/>
<path d="M100.334 133.912C100.334 133.912 103.448 147.096 107.423 155.076C111.398 163.057 116.598 175.72 120.573 169.134C124.548 162.548 131.615 139.469 131.615 139.469C131.615 139.469 119.16 144.494 114.666 142.413C110.172 140.332 100.334 133.912 100.334 133.912Z" fill="white" stroke="#263238" stroke-width="1.62002" stroke-linecap="round" stroke-linejoin="round"/>
<path d="M138.594 103.516C138.594 104.18 137.699 123.717 136.385 132.152C135.071 140.587 128.656 147.073 127.331 148.18C126.006 149.287 120.706 149.907 115.583 148.789C112.823 148.18 109.223 145.169 106.22 142.147C104.296 140.228 102.471 138.211 100.754 136.104C100.11 135.077 99.685 133.927 99.5066 132.728C99.085 130.324 98.8341 127.894 98.7557 125.455L97.2099 124.791C95.6531 124.127 90.7948 118.803 91.8989 112.36C93.0031 105.918 95.8739 110.379 95.8739 110.379C95.8739 110.379 95.8739 104.601 97.8724 100.826C99.8709 97.0516 111.818 92.17 119.127 93.288C126.437 94.406 138.594 102.852 138.594 103.516Z" fill="white" stroke="#263238" stroke-width="1.62002" stroke-linecap="round" stroke-linejoin="round"/>
<path d="M147.449 93.7642C144.743 88.6944 140.776 84.4122 135.932 81.3334C135.932 81.3334 142.127 80.4479 136.153 74.2381C130.18 68.0283 105.392 70.2421 100.081 75.345C94.7696 80.4479 89.9003 84.4439 91.6669 90.4323C91.6669 90.4323 87.6809 94.86 89.4586 99.2877C91.2363 103.715 95.8848 110.357 95.8848 110.357C96.2208 111.295 96.6655 112.19 97.2098 113.025C97.6072 113.611 98.3139 115.238 98.9212 116.611L98.8549 116.666C98.8549 116.666 99.0316 128.842 99.3629 130.204C99.485 131.036 99.533 131.877 99.5064 132.717C99.6848 133.916 100.11 135.066 100.754 136.093C102.397 138.109 104.14 140.041 105.977 141.882C109.035 144.948 112.756 148.114 115.594 148.734C120.684 149.841 126.017 149.232 127.342 148.125C131.013 144.701 133.808 140.441 135.491 135.705C135.475 133.961 135.196 132.23 134.663 130.569C133.558 127.691 127.221 131.056 127.221 131.056C127.221 131.056 126.216 132.761 123.146 132.982C120.077 133.204 112.348 129.13 108.792 130.691C106.915 131.51 106.253 134.488 106.043 137.155C105.436 136.857 104.486 136.049 103.073 133.835C101.152 130.89 100.688 123.264 100.588 118.659C100.765 118.659 100.92 118.371 101.03 117.873C101.693 114.762 102.797 108.774 103.018 107.435C103.682 105.452 104.497 103.524 105.458 101.668C105.458 101.668 115.859 111.873 122.02 109.881C128.181 107.888 124.228 100.782 124.228 100.782C124.228 100.782 133.746 108.995 140.791 108.331C147.835 107.667 151.424 101.745 147.449 93.7642Z" fill="#263238" stroke="#263238" stroke-width="1.62002" stroke-linecap="round" stroke-linejoin="round"/>
<path d="M127.298 120.165C127.298 120.165 128.402 130.592 126.194 132.817C123.985 135.042 116.455 129.042 116.455 129.042" stroke="#263238" stroke-width="1.62002" stroke-linecap="round" stroke-linejoin="round"/>
<path d="M118.089 118.847C118.089 118.847 112.689 115.36 108.372 117.884" stroke="#263238" stroke-width="1.62002" stroke-linecap="round" stroke-linejoin="round"/>
<path d="M128.038 118.726C128.038 118.726 131.041 114.298 134.994 116.324" stroke="#263238" stroke-width="1.62002" stroke-linecap="round" stroke-linejoin="round"/>
<path d="M109.576 123.651C110.601 123.215 111.719 123.042 112.828 123.148C113.936 123.254 115.001 123.637 115.925 124.26" stroke="#263238" stroke-width="1.62002" stroke-linecap="round" stroke-linejoin="round"/>
<path d="M129.716 123.529C129.716 123.529 132.355 120.773 134.64 122.422" stroke="#263238" stroke-width="1.62002" stroke-linecap="round" stroke-linejoin="round"/>
<path d="M112.094 135.794C112.094 135.794 117.725 141.926 128.038 136.757" stroke="white" stroke-width="1.62002" stroke-linecap="round" stroke-linejoin="round"/>
<path d="M100.334 133.912L102.388 283.977C102.388 283.977 96.1382 285.184 83.849 281.343C75.8815 278.725 68.2959 275.059 61.2911 270.44C61.2911 270.44 61.2911 257.057 58.7405 246.253C55.671 233.413 49.9073 222.023 49.7748 210.29C49.5761 188.683 55.0416 161.585 55.0416 161.585C55.0416 161.585 94.0403 135.517 100.334 133.912Z" fill="#92E3A9" stroke="#263238" stroke-width="1.62002" stroke-linecap="round" stroke-linejoin="round"/>
<path d="M99.352 130.248C99.352 130.248 91.0929 134.133 90.0881 138.982C89.0834 143.83 85.252 177.348 85.252 177.348L100.964 176.34L99.352 130.248Z" fill="#92E3A9" stroke="#263238" stroke-width="1.62002" stroke-linecap="round" stroke-linejoin="round"/>
<path d="M73.3604 243.321L75.7012 187.41" stroke="#263238" stroke-width="1.62002" stroke-linecap="round" stroke-linejoin="round"/>
<path d="M75.1152 205.198L79.3993 191.715" stroke="#263238" stroke-width="1.62002" stroke-linecap="round" stroke-linejoin="round"/>
<path d="M37.2871 216.931L42.1564 211.064L44.8837 217.13L37.2871 216.931Z" fill="#263238" stroke="#263238" stroke-width="1.62002" stroke-linecap="round" stroke-linejoin="round"/>
<path d="M32.473 173.927C32.473 173.927 28.4429 186.833 29.6685 188.449C30.8941 190.066 40.5444 209.658 40.5444 209.658L42.9183 220.561L57.0184 217.329L53.993 207.433C53.993 207.433 56.8196 204.002 56.8196 201.578C56.7065 199.593 56.3657 197.628 55.8038 195.722C55.8038 195.722 58.8292 194.715 59.2267 192.29C59.6242 189.866 56.8196 181.587 55.8038 180.579C54.788 179.572 55.8038 180.679 54.799 179.572C53.9214 178.489 52.7226 177.713 51.3761 177.358C50.3714 177.159 49.1678 176.949 49.1678 176.949C48.9138 176.414 48.5489 175.94 48.0977 175.559C47.6464 175.177 47.1191 174.896 46.551 174.735C45.2897 174.488 44.0003 174.417 42.7196 174.524C42.7196 174.524 34.4826 172.499 32.473 173.927Z" fill="white" stroke="#263238" stroke-width="1.62002" stroke-linecap="round" stroke-linejoin="round"/>
<path d="M42.7411 174.514C42.7411 174.514 33.2344 183.646 33.2344 184.93L42.7411 174.514Z" fill="white"/>
<path d="M42.7411 174.514C42.7411 174.514 33.2344 183.646 33.2344 184.93" stroke="#263238" stroke-width="1.62002" stroke-linecap="round" stroke-linejoin="round"/>
<path d="M49.1902 176.938C49.1902 176.938 40.0146 186.004 40.0146 187.189L49.1902 176.938Z" fill="white"/>
<path d="M49.1902 176.938C49.1902 176.938 40.0146 186.004 40.0146 187.189" stroke="#263238" stroke-width="1.62002" stroke-linecap="round" stroke-linejoin="round"/>
<path d="M54.8327 179.572C54.8327 179.572 47.1036 187.586 46.8828 188.66" stroke="#263238" stroke-width="1.62002" stroke-linecap="round" stroke-linejoin="round"/>
<path d="M55.8365 195.723L54.4453 191.517C55.2385 190.993 55.8273 190.211 56.1126 189.303" stroke="#263238" stroke-width="1.62002" stroke-linecap="round" stroke-linejoin="round"/>
<path d="M37.2871 216.931L57.1619 213.024L73.3487 243.32C74.0287 244.493 74.4505 245.798 74.5857 247.148C74.7209 248.498 74.5665 249.861 74.1327 251.146C72.5648 255.253 66.7128 260.92 62.8151 261.507C58.9175 262.094 52.4803 258.574 49.753 256.614C47.9995 255.401 46.4806 253.878 45.2701 252.12C44.8837 251.534 37.2871 216.931 37.2871 216.931Z" fill="#92E3A9" stroke="#263238" stroke-width="1.62002" stroke-linecap="round" stroke-linejoin="round"/>
<path d="M179.403 174.625L159.925 177.281L155.255 221.79L174.887 218.979L179.403 174.625Z" fill="#263238" stroke="#263238" stroke-width="1.62002" stroke-linecap="round" stroke-linejoin="round"/>
<path d="M180.341 193.365C180.341 193.365 167.092 196.022 166.782 196.963C166.473 197.904 167.566 199.619 170.216 199.619C172.866 199.619 178.785 199.154 180.651 198.059C182.517 196.963 182.362 193.996 180.341 193.365Z" fill="white" stroke="#263238" stroke-width="1.62002" stroke-linecap="round" stroke-linejoin="round"/>
<path d="M183.654 186.502C183.654 186.502 172.403 188.993 172.138 189.823C171.873 190.653 172.8 192.313 175.053 192.313C177.305 192.313 182.329 191.871 183.886 190.852C185.443 189.834 185.354 187.089 183.654 186.502Z" fill="white" stroke="#263238" stroke-width="1.62002" stroke-linecap="round" stroke-linejoin="round"/>
<path d="M179.093 198.988C179.093 198.988 165.843 201.645 165.534 202.586C165.225 203.527 166.318 205.242 168.968 205.242C171.618 205.242 177.536 204.766 179.402 203.682C181.268 202.597 181.114 199.619 179.093 198.988Z" fill="white" stroke="#263238" stroke-width="1.62002" stroke-linecap="round" stroke-linejoin="round"/>
<path d="M179.833 204.92C179.833 204.92 168.792 207.134 168.538 207.909C168.284 208.684 169.189 210.123 171.397 210.123C173.606 210.123 178.53 209.724 180.087 208.817C180.427 208.605 180.703 208.305 180.885 207.948C181.068 207.592 181.151 207.192 181.125 206.792C181.099 206.392 180.965 206.007 180.737 205.677C180.51 205.348 180.197 205.086 179.833 204.92Z" fill="white" stroke="#263238" stroke-width="1.62002" stroke-linecap="round" stroke-linejoin="round"/>
<rect x="184.949" y="149.055" width="25.4894" height="14.9612" rx="7.48059" fill="white"/>
<path d="M213.655 142.088C213.191 142.055 212.707 142.054 212.211 142.094L212.197 140.213C212.197 140.199 212.184 140.179 212.171 140.179C212.164 140.179 212.158 140.179 212.158 140.186L208.672 142.24C208.626 142.267 208.6 142.32 208.6 142.373V147.415C208.6 147.448 208.613 147.474 208.639 147.487C210.707 148.673 212.184 150.35 213.085 152.503C213.403 153.272 213.668 154.219 213.827 155.067C213.834 155.107 213.887 155.478 213.986 156.187C214.059 156.717 214.039 157.499 214.026 157.85C214.019 157.976 214.006 158.095 213.986 158.214C213.9 158.658 213.874 158.983 213.787 159.347C213.728 159.599 213.675 159.791 213.642 159.924C213.039 162.21 211.773 164.045 209.852 165.423C208.971 166.059 208.01 166.549 206.97 166.914C206.837 166.96 206.539 167.053 206.062 167.185C205.79 167.265 205.539 167.291 205.221 167.378C205.161 167.397 205.101 167.404 205.035 167.404C204.903 167.411 204.816 167.411 204.783 167.417C204.141 167.523 203.524 167.57 202.835 167.57C202.113 167.57 194.865 167.57 181.083 167.57C181.057 167.57 181.03 167.543 181.03 167.517C181.037 164.442 181.037 161.401 181.024 158.393C181.024 157.784 180.971 157.048 181.03 156.359C181.07 155.902 181.083 155.637 181.083 155.571C181.083 155.213 181.216 154.829 181.242 154.537C181.249 154.451 181.282 154.305 181.342 154.087C181.355 154.034 181.395 153.881 181.461 153.643C181.7 152.742 182.216 151.953 182.627 151.171C182.839 150.767 183.031 150.443 183.204 150.197C183.979 149.104 184.966 148.23 186.165 147.587C186.404 147.461 186.583 147.355 186.702 147.282C186.722 147.269 186.728 147.249 186.728 147.229V141.955C186.728 141.895 186.695 141.842 186.642 141.816C185.41 141.187 184.224 140.57 183.078 139.974C182.488 139.669 181.885 139.384 181.276 139.126C180.534 138.815 180.07 138.609 179.871 138.516C179.381 138.271 178.539 137.728 178.977 137.072C179.208 136.728 179.646 136.423 179.984 136.264C180.249 136.138 185.463 133.627 195.633 128.724C195.792 128.644 196.024 128.532 196.329 128.373C196.939 128.055 197.396 127.922 198.045 128.041C198.25 128.081 198.555 128.207 198.966 128.432C199.39 128.664 199.927 128.936 200.569 129.234C205.664 131.626 210.673 133.985 215.596 136.31C215.702 136.363 215.755 136.39 215.762 136.39C216.212 136.582 216.756 137.079 216.312 137.589C216.146 137.781 215.974 137.913 215.768 138.039C215.477 138.212 214.814 138.603 213.787 139.205C213.734 139.239 213.695 139.298 213.695 139.364L213.655 142.088ZM197.581 162.793C201.093 162.793 203.074 162.806 204.425 162.779C204.485 162.779 204.551 162.773 204.611 162.753C204.869 162.693 205.048 162.647 205.148 162.627C207.208 162.163 208.898 160.533 209.494 158.519C209.627 158.075 209.693 157.777 209.706 157.618C209.733 157.254 209.739 156.77 209.739 156.174C209.739 155.783 209.699 155.425 209.62 155.107C209.262 153.596 208.46 152.39 207.215 151.489C206.566 151.019 205.883 150.747 205.128 150.529C205.095 150.515 205.055 150.509 205.015 150.509C204.856 150.496 204.684 150.469 204.505 150.429C204.326 150.39 204.107 150.383 203.975 150.37C203.955 150.37 201.822 150.37 197.588 150.37C193.347 150.37 191.221 150.37 191.201 150.376C191.068 150.389 190.85 150.396 190.671 150.436C190.492 150.476 190.32 150.502 190.161 150.515C190.121 150.515 190.088 150.529 190.048 150.535C189.293 150.754 188.61 151.026 187.961 151.496C186.715 152.397 185.914 153.61 185.556 155.114C185.483 155.432 185.443 155.783 185.436 156.18C185.43 156.777 185.443 157.26 185.463 157.625C185.476 157.784 185.542 158.082 185.675 158.526C186.271 160.547 187.961 162.17 190.021 162.634C190.121 162.653 190.293 162.7 190.558 162.76C190.618 162.773 190.677 162.779 190.744 162.779C192.089 162.806 194.07 162.793 197.581 162.793Z" fill="#111928"/>
<path d="M213.654 142.088C213.688 142.128 213.741 142.148 213.813 142.168C213.893 142.188 213.946 142.207 213.979 142.221C214.463 142.486 214.701 142.903 214.701 143.48C214.701 144.136 214.701 144.871 214.701 145.686C214.701 145.712 214.681 145.726 214.655 145.726H211.263C211.243 145.726 211.229 145.712 211.229 145.693C211.229 145.394 211.229 144.666 211.229 143.513C211.229 143.142 211.322 142.83 211.508 142.585C211.673 142.367 211.912 142.201 212.21 142.095C212.707 142.055 213.184 142.048 213.654 142.088Z" fill="#95C16B"/>
<path d="M191.768 159.099C192.91 159.085 193.823 158.113 193.809 156.927C193.794 155.742 192.857 154.792 191.715 154.806C190.574 154.82 189.66 155.792 189.675 156.978C189.689 158.163 190.626 159.113 191.768 159.099Z" fill="#95C16B"/>
<path d="M203.339 159.096C204.477 159.084 205.389 158.114 205.377 156.928C205.364 155.743 204.432 154.791 203.294 154.803C202.156 154.815 201.243 155.786 201.256 156.971C201.268 158.157 202.201 159.108 203.339 159.096Z" fill="#95C16B"/>
<rect x="170.892" y="79.5" width="81.8724" height="39.0969" rx="4.54846" fill="#111928"/>
<path d="M182.858 91.7247V91.779C182.855 92.3519 182.795 92.8101 182.677 93.1539C182.562 93.4946 182.4 93.7704 182.189 93.9815C181.978 94.1895 181.724 94.384 181.429 94.5649C181.254 94.6704 181.094 94.7986 180.949 94.9493C180.808 95.1001 180.695 95.2735 180.61 95.4694C180.529 95.6624 180.488 95.8795 180.488 96.1207C180.488 96.4162 180.557 96.6725 180.696 96.8895C180.835 97.1066 181.02 97.274 181.252 97.3916C181.485 97.5091 181.742 97.5679 182.026 97.5679C182.273 97.5679 182.511 97.5167 182.74 97.4142C182.969 97.3117 183.161 97.1504 183.315 96.9303C183.472 96.7102 183.56 96.4222 183.582 96.0664H184.721C184.7 96.579 184.567 97.0177 184.323 97.3825C184.079 97.7473 183.756 98.0262 183.355 98.2192C182.957 98.4122 182.514 98.5086 182.026 98.5086C181.495 98.5086 181.032 98.4031 180.637 98.1921C180.245 97.981 179.941 97.6916 179.724 97.3237C179.51 96.9559 179.403 96.5368 179.403 96.0664C179.403 95.7318 179.452 95.4302 179.552 95.1619C179.654 94.8936 179.799 94.6539 179.986 94.4428C180.176 94.2318 180.404 94.0463 180.669 93.8865C180.934 93.7207 181.147 93.5473 181.307 93.3664C181.466 93.1825 181.583 92.9654 181.655 92.7152C181.727 92.4649 181.766 92.1529 181.773 91.779V91.7247H182.858ZM182.279 89.0473C182.502 89.0473 182.694 89.1272 182.853 89.287C183.013 89.4468 183.093 89.6383 183.093 89.8614C183.093 90.0845 183.013 90.276 182.853 90.4358C182.694 90.5956 182.502 90.6755 182.279 90.6755C182.056 90.6755 181.864 90.5956 181.705 90.4358C181.545 90.276 181.465 90.0845 181.465 89.8614C181.465 89.7106 181.501 89.575 181.574 89.4544C181.649 89.3307 181.748 89.2327 181.872 89.1604C181.996 89.085 182.131 89.0473 182.279 89.0473ZM193.691 86.786V96.0483H192.605L187.558 88.776H187.468V96.0483H186.346V86.786H187.431L192.497 94.0765H192.587V86.786H193.691ZM198.703 96.1931C198.034 96.1931 197.456 96.0453 196.971 95.7498C196.488 95.4514 196.116 95.0353 195.854 94.5016C195.594 93.9649 195.465 93.3408 195.465 92.6292C195.465 91.9177 195.594 91.2905 195.854 90.7478C196.116 90.2021 196.481 89.777 196.948 89.4724C197.419 89.1649 197.967 89.0111 198.594 89.0111C198.956 89.0111 199.313 89.0714 199.666 89.192C200.019 89.3126 200.34 89.5086 200.63 89.78C200.919 90.0483 201.15 90.4041 201.322 90.8473C201.493 91.2905 201.579 91.8363 201.579 92.4845V92.9368H196.225V92.0142H200.494C200.494 91.6222 200.416 91.2725 200.259 90.9649C200.105 90.6574 199.885 90.4147 199.598 90.2368C199.315 90.0589 198.98 89.9699 198.594 89.9699C198.169 89.9699 197.801 90.0755 197.491 90.2865C197.183 90.4946 196.947 90.7659 196.781 91.1006C196.615 91.4353 196.532 91.7941 196.532 92.177V92.7921C196.532 93.3167 196.623 93.7614 196.803 94.1262C196.987 94.488 197.242 94.7639 197.568 94.9539C197.893 95.1408 198.272 95.2343 198.703 95.2343C198.983 95.2343 199.237 95.1951 199.463 95.1167C199.692 95.0353 199.889 94.9147 200.055 94.7549C200.221 94.5921 200.349 94.39 200.44 94.1488L201.471 94.4383C201.362 94.788 201.18 95.0956 200.924 95.3609C200.667 95.6232 200.351 95.8282 199.974 95.976C199.597 96.1207 199.173 96.1931 198.703 96.1931ZM206.025 96.1931C205.374 96.1931 204.813 96.0393 204.343 95.7318C203.872 95.4242 203.51 95.0006 203.257 94.4609C203.004 93.9212 202.877 93.3046 202.877 92.6111C202.877 91.9056 203.007 91.283 203.266 90.7433C203.529 90.2006 203.893 89.777 204.361 89.4724C204.831 89.1649 205.38 89.0111 206.007 89.0111C206.495 89.0111 206.936 89.1016 207.328 89.2825C207.72 89.4634 208.041 89.7167 208.291 90.0423C208.541 90.3679 208.696 90.7478 208.757 91.182H207.689C207.608 90.8654 207.427 90.585 207.147 90.3408C206.869 90.0936 206.495 89.9699 206.025 89.9699C205.609 89.9699 205.244 90.0785 204.931 90.2956C204.62 90.5096 204.377 90.8127 204.202 91.2046C204.031 91.5936 203.945 92.0503 203.945 92.575C203.945 93.1117 204.029 93.579 204.198 93.977C204.37 94.375 204.611 94.684 204.922 94.9041C205.235 95.1242 205.603 95.2343 206.025 95.2343C206.302 95.2343 206.554 95.186 206.78 95.0895C207.006 94.9931 207.198 94.8544 207.355 94.6735C207.511 94.4926 207.623 94.2755 207.689 94.0222H208.757C208.696 94.4323 208.547 94.8016 208.309 95.1302C208.074 95.4559 207.762 95.7152 207.373 95.9081C206.987 96.0981 206.538 96.1931 206.025 96.1931ZM213.23 96.1931C212.56 96.1931 211.983 96.0453 211.497 95.7498C211.015 95.4514 210.643 95.0353 210.38 94.5016C210.121 93.9649 209.991 93.3408 209.991 92.6292C209.991 91.9177 210.121 91.2905 210.38 90.7478C210.643 90.2021 211.007 89.777 211.475 89.4724C211.945 89.1649 212.494 89.0111 213.121 89.0111C213.483 89.0111 213.84 89.0714 214.193 89.192C214.546 89.3126 214.867 89.5086 215.156 89.78C215.446 90.0483 215.676 90.4041 215.848 90.8473C216.02 91.2905 216.106 91.8363 216.106 92.4845V92.9368H210.751V92.0142H215.021C215.021 91.6222 214.942 91.2725 214.785 90.9649C214.632 90.6574 214.412 90.4147 214.125 90.2368C213.842 90.0589 213.507 89.9699 213.121 89.9699C212.696 89.9699 212.328 90.0755 212.018 90.2865C211.71 90.4946 211.473 90.7659 211.307 91.1006C211.142 91.4353 211.059 91.7941 211.059 92.177V92.7921C211.059 93.3167 211.149 93.7614 211.33 94.1262C211.514 94.488 211.769 94.7639 212.094 94.9539C212.42 95.1408 212.798 95.2343 213.23 95.2343C213.51 95.2343 213.763 95.1951 213.989 95.1167C214.219 95.0353 214.416 94.9147 214.582 94.7549C214.748 94.5921 214.876 94.39 214.966 94.1488L215.997 94.4383C215.889 94.788 215.706 95.0956 215.45 95.3609C215.194 95.6232 214.877 95.8282 214.5 95.976C214.124 96.1207 213.7 96.1931 213.23 96.1931ZM222.65 90.6574L221.691 90.9287C221.631 90.7689 221.542 90.6137 221.425 90.4629C221.31 90.3091 221.153 90.1825 220.954 90.083C220.755 89.9835 220.5 89.9338 220.19 89.9338C219.765 89.9338 219.411 90.0317 219.127 90.2277C218.847 90.4207 218.706 90.6664 218.706 90.9649C218.706 91.2302 218.803 91.4398 218.996 91.5936C219.189 91.7473 219.49 91.8755 219.9 91.978L220.932 92.2312C221.553 92.382 222.016 92.6127 222.32 92.9232C222.625 93.2307 222.777 93.6272 222.777 94.1127C222.777 94.5106 222.662 94.8664 222.433 95.18C222.207 95.4936 221.89 95.7408 221.483 95.9217C221.076 96.1026 220.603 96.1931 220.063 96.1931C219.355 96.1931 218.768 96.0393 218.304 95.7318C217.84 95.4242 217.546 94.975 217.422 94.384L218.435 94.1307C218.532 94.5046 218.714 94.785 218.982 94.972C219.254 95.1589 219.608 95.2524 220.045 95.2524C220.543 95.2524 220.938 95.1468 221.23 94.9358C221.526 94.7217 221.673 94.4654 221.673 94.1669C221.673 93.9257 221.589 93.7237 221.42 93.5609C221.251 93.3951 220.992 93.2715 220.642 93.19L219.484 92.9187C218.848 92.7679 218.381 92.5343 218.082 92.2177C217.787 91.8981 217.639 91.4986 217.639 91.0192C217.639 90.6272 217.749 90.2805 217.969 89.979C218.192 89.6775 218.495 89.4408 218.878 89.2689C219.264 89.0971 219.701 89.0111 220.19 89.0111C220.877 89.0111 221.417 89.1619 221.809 89.4634C222.204 89.7649 222.484 90.1629 222.65 90.6574ZM224.384 96.0483V89.1016H225.451V96.0483H224.384ZM224.926 87.9438C224.718 87.9438 224.539 87.8729 224.388 87.7312C224.24 87.5895 224.166 87.4192 224.166 87.2202C224.166 87.0212 224.24 86.8508 224.388 86.7091C224.539 86.5674 224.718 86.4966 224.926 86.4966C225.134 86.4966 225.312 86.5674 225.46 86.7091C225.611 86.8508 225.686 87.0212 225.686 87.2202C225.686 87.4192 225.611 87.5895 225.46 87.7312C225.312 87.8729 225.134 87.9438 224.926 87.9438ZM230.427 89.1016V90.0061H226.827V89.1016H230.427ZM227.876 87.4373H228.943V94.0584C228.943 94.3599 228.987 94.586 229.075 94.7368C229.165 94.8845 229.28 94.984 229.418 95.0353C229.56 95.0835 229.709 95.1076 229.866 95.1076C229.984 95.1076 230.08 95.1016 230.156 95.0895C230.231 95.0745 230.291 95.0624 230.336 95.0534L230.553 96.0122C230.481 96.0393 230.38 96.0664 230.25 96.0936C230.121 96.1237 229.957 96.1388 229.758 96.1388C229.456 96.1388 229.161 96.074 228.871 95.9443C228.585 95.8147 228.346 95.6172 228.157 95.3519C227.97 95.0865 227.876 94.7519 227.876 94.3478V87.4373ZM234.077 96.2112C233.636 96.2112 233.237 96.1282 232.878 95.9624C232.519 95.7936 232.234 95.5509 232.023 95.2343C231.812 94.9147 231.707 94.5287 231.707 94.0765C231.707 93.6785 231.785 93.3559 231.942 93.1086C232.099 92.8584 232.308 92.6624 232.571 92.5207C232.833 92.379 233.122 92.2735 233.439 92.2041C233.759 92.1317 234.08 92.0745 234.402 92.0323C234.824 91.978 235.167 91.9373 235.429 91.9101C235.694 91.88 235.887 91.8302 236.008 91.7609C236.131 91.6915 236.193 91.5709 236.193 91.3991V91.3629C236.193 90.9167 236.071 90.5699 235.827 90.3227C235.586 90.0755 235.219 89.9518 234.728 89.9518C234.218 89.9518 233.819 90.0634 233.529 90.2865C233.24 90.5096 233.036 90.7478 232.919 91.0011L231.906 90.6393C232.087 90.2172 232.328 89.8885 232.629 89.6534C232.934 89.4152 233.266 89.2493 233.624 89.1559C233.986 89.0594 234.342 89.0111 234.692 89.0111C234.915 89.0111 235.171 89.0383 235.461 89.0925C235.753 89.1438 236.035 89.2508 236.306 89.4137C236.581 89.5765 236.808 89.8222 236.989 90.1508C237.17 90.4795 237.261 90.9197 237.261 91.4714V96.0483H236.193V95.1076H236.139C236.067 95.2584 235.946 95.4197 235.777 95.5916C235.608 95.7634 235.384 95.9096 235.103 96.0302C234.823 96.1509 234.481 96.2112 234.077 96.2112ZM234.239 95.2524C234.662 95.2524 235.017 95.1694 235.307 95.0036C235.599 94.8378 235.819 94.6237 235.967 94.3614C236.118 94.0991 236.193 93.8232 236.193 93.5338V92.5569C236.148 92.6111 236.048 92.6609 235.895 92.7061C235.744 92.7483 235.569 92.786 235.37 92.8192C235.174 92.8493 234.983 92.8765 234.796 92.9006C234.612 92.9217 234.463 92.9398 234.348 92.9549C234.071 92.991 233.811 93.0498 233.57 93.1312C233.332 93.2096 233.139 93.3287 232.991 93.4885C232.846 93.6453 232.774 93.8594 232.774 94.1307C232.774 94.5016 232.911 94.782 233.186 94.972C233.463 95.1589 233.814 95.2524 234.239 95.2524ZM244.129 90.6574L243.17 90.9287C243.11 90.7689 243.021 90.6137 242.904 90.4629C242.789 90.3091 242.632 90.1825 242.433 90.083C242.234 89.9835 241.98 89.9338 241.669 89.9338C241.244 89.9338 240.89 90.0317 240.606 90.2277C240.326 90.4207 240.186 90.6664 240.186 90.9649C240.186 91.2302 240.282 91.4398 240.475 91.5936C240.668 91.7473 240.969 91.8755 241.38 91.978L242.411 92.2312C243.032 92.382 243.495 92.6127 243.799 92.9232C244.104 93.2307 244.256 93.6272 244.256 94.1127C244.256 94.5106 244.141 94.8664 243.912 95.18C243.686 95.4936 243.369 95.7408 242.962 95.9217C242.555 96.1026 242.082 96.1931 241.542 96.1931C240.834 96.1931 240.247 96.0393 239.783 95.7318C239.319 95.4242 239.025 94.975 238.901 94.384L239.914 94.1307C240.011 94.5046 240.193 94.785 240.461 94.972C240.733 95.1589 241.087 95.2524 241.524 95.2524C242.022 95.2524 242.417 95.1468 242.709 94.9358C243.005 94.7217 243.152 94.4654 243.152 94.1669C243.152 93.9257 243.068 93.7237 242.899 93.5609C242.73 93.3951 242.471 93.2715 242.121 93.19L240.963 92.9187C240.327 92.7679 239.86 92.5343 239.561 92.2177C239.266 91.8981 239.118 91.4986 239.118 91.0192C239.118 90.6272 239.228 90.2805 239.448 89.979C239.671 89.6775 239.974 89.4408 240.357 89.2689C240.743 89.0971 241.181 89.0111 241.669 89.0111C242.356 89.0111 242.896 89.1619 243.288 89.4634C243.683 89.7649 243.963 90.1629 244.129 90.6574ZM193.37 111.211C192.929 111.211 192.53 111.128 192.171 110.962C191.812 110.794 191.527 110.551 191.316 110.234C191.105 109.915 191 109.529 191 109.076C191 108.678 191.078 108.356 191.235 108.109C191.392 107.858 191.601 107.662 191.864 107.521C192.126 107.379 192.415 107.273 192.732 107.204C193.052 107.132 193.373 107.074 193.695 107.032C194.117 106.978 194.46 106.937 194.722 106.91C194.987 106.88 195.18 106.83 195.301 106.761C195.424 106.692 195.486 106.571 195.486 106.399V106.363C195.486 105.917 195.364 105.57 195.12 105.323C194.879 105.075 194.512 104.952 194.021 104.952C193.511 104.952 193.112 105.063 192.822 105.287C192.533 105.51 192.329 105.748 192.212 106.001L191.199 105.639C191.38 105.217 191.621 104.889 191.922 104.653C192.227 104.415 192.559 104.249 192.917 104.156C193.279 104.059 193.635 104.011 193.985 104.011C194.208 104.011 194.464 104.038 194.754 104.093C195.046 104.144 195.328 104.251 195.599 104.414C195.874 104.576 196.101 104.822 196.282 105.151C196.463 105.479 196.554 105.92 196.554 106.471V111.048H195.486V110.108H195.432C195.36 110.258 195.239 110.42 195.07 110.592C194.901 110.763 194.677 110.91 194.396 111.03C194.116 111.151 193.774 111.211 193.37 111.211ZM193.532 110.252C193.955 110.252 194.31 110.169 194.6 110.004C194.892 109.838 195.112 109.624 195.26 109.361C195.411 109.099 195.486 108.823 195.486 108.534V107.557C195.441 107.611 195.341 107.661 195.188 107.706C195.037 107.748 194.862 107.786 194.663 107.819C194.467 107.849 194.276 107.876 194.089 107.901C193.905 107.922 193.756 107.94 193.641 107.955C193.364 107.991 193.104 108.05 192.863 108.131C192.625 108.21 192.432 108.329 192.284 108.489C192.139 108.645 192.067 108.859 192.067 109.131C192.067 109.502 192.204 109.782 192.479 109.972C192.756 110.159 193.107 110.252 193.532 110.252ZM198.94 113.653C198.759 113.653 198.598 113.638 198.456 113.608C198.315 113.581 198.217 113.554 198.162 113.527L198.434 112.586C198.693 112.652 198.922 112.676 199.121 112.658C199.32 112.64 199.497 112.551 199.65 112.392C199.807 112.235 199.95 111.98 200.08 111.627L200.279 111.085L197.71 104.102H198.868L200.786 109.637H200.858L202.776 104.102H203.933L200.985 112.061C200.852 112.42 200.688 112.717 200.492 112.952C200.296 113.191 200.068 113.367 199.809 113.482C199.552 113.596 199.263 113.653 198.94 113.653ZM209.72 108.208V104.102H210.787V111.048H209.72V109.872H209.648C209.485 110.225 209.232 110.525 208.888 110.772C208.544 111.017 208.11 111.139 207.585 111.139C207.151 111.139 206.765 111.044 206.428 110.854C206.09 110.661 205.825 110.371 205.632 109.986C205.439 109.597 205.342 109.107 205.342 108.516V104.102H206.409V108.443C206.409 108.95 206.551 109.354 206.835 109.655C207.121 109.957 207.486 110.108 207.929 110.108C208.194 110.108 208.464 110.04 208.739 109.904C209.016 109.768 209.248 109.56 209.435 109.28C209.625 109 209.72 108.642 209.72 108.208ZM215.365 111.193C214.787 111.193 214.275 111.047 213.832 110.754C213.389 110.459 213.042 110.043 212.792 109.506C212.542 108.966 212.417 108.329 212.417 107.593C212.417 106.863 212.542 106.23 212.792 105.694C213.042 105.157 213.391 104.742 213.837 104.45C214.283 104.157 214.799 104.011 215.383 104.011C215.836 104.011 216.193 104.087 216.455 104.237C216.721 104.385 216.923 104.554 217.061 104.744C217.203 104.931 217.313 105.085 217.392 105.205H217.482V101.786H218.549V111.048H217.518V109.981H217.392C217.313 110.108 217.202 110.267 217.057 110.46C216.912 110.65 216.706 110.821 216.437 110.971C216.169 111.119 215.812 111.193 215.365 111.193ZM215.51 110.234C215.938 110.234 216.3 110.123 216.596 109.9C216.891 109.673 217.116 109.361 217.269 108.963C217.423 108.562 217.5 108.1 217.5 107.575C217.5 107.056 217.425 106.603 217.274 106.214C217.123 105.822 216.9 105.517 216.605 105.3C216.309 105.08 215.944 104.97 215.51 104.97C215.058 104.97 214.681 105.086 214.379 105.318C214.081 105.547 213.856 105.859 213.706 106.254C213.558 106.646 213.484 107.087 213.484 107.575C213.484 108.069 213.559 108.519 213.71 108.923C213.864 109.324 214.09 109.643 214.389 109.882C214.69 110.117 215.064 110.234 215.51 110.234ZM222.697 111.211C222.256 111.211 221.857 111.128 221.498 110.962C221.139 110.794 220.854 110.551 220.643 110.234C220.432 109.915 220.327 109.529 220.327 109.076C220.327 108.678 220.405 108.356 220.562 108.109C220.719 107.858 220.928 107.662 221.191 107.521C221.453 107.379 221.742 107.273 222.059 107.204C222.378 107.132 222.7 107.074 223.022 107.032C223.444 106.978 223.787 106.937 224.049 106.91C224.314 106.88 224.507 106.83 224.628 106.761C224.751 106.692 224.813 106.571 224.813 106.399V106.363C224.813 105.917 224.691 105.57 224.447 105.323C224.206 105.075 223.839 104.952 223.348 104.952C222.838 104.952 222.439 105.063 222.149 105.287C221.86 105.51 221.656 105.748 221.539 106.001L220.526 105.639C220.707 105.217 220.948 104.889 221.249 104.653C221.554 104.415 221.886 104.249 222.244 104.156C222.606 104.059 222.962 104.011 223.312 104.011C223.535 104.011 223.791 104.038 224.08 104.093C224.373 104.144 224.655 104.251 224.926 104.414C225.201 104.576 225.428 104.822 225.609 105.151C225.79 105.479 225.88 105.92 225.88 106.471V111.048H224.813V110.108H224.759C224.687 110.258 224.566 110.42 224.397 110.592C224.228 110.763 224.004 110.91 223.723 111.03C223.443 111.151 223.101 111.211 222.697 111.211ZM222.859 110.252C223.281 110.252 223.637 110.169 223.927 110.004C224.219 109.838 224.439 109.624 224.587 109.361C224.738 109.099 224.813 108.823 224.813 108.534V107.557C224.768 107.611 224.668 107.661 224.515 107.706C224.364 107.748 224.189 107.786 223.99 107.819C223.794 107.849 223.603 107.876 223.416 107.901C223.232 107.922 223.083 107.94 222.968 107.955C222.691 107.991 222.431 108.05 222.19 108.131C221.952 108.21 221.759 108.329 221.611 108.489C221.466 108.645 221.394 108.859 221.394 109.131C221.394 109.502 221.531 109.782 221.806 109.972C222.083 110.159 222.434 110.252 222.859 110.252ZM229.222 108.443V108.389C229.228 107.813 229.288 107.355 229.402 107.014C229.517 106.673 229.68 106.398 229.891 106.187C230.102 105.975 230.355 105.781 230.651 105.603C230.829 105.495 230.988 105.366 231.13 105.219C231.272 105.068 231.383 104.895 231.465 104.699C231.549 104.503 231.591 104.286 231.591 104.047C231.591 103.752 231.522 103.496 231.383 103.278C231.245 103.061 231.059 102.894 230.827 102.776C230.595 102.659 230.337 102.6 230.054 102.6C229.807 102.6 229.568 102.651 229.339 102.754C229.11 102.856 228.919 103.018 228.765 103.238C228.611 103.458 228.522 103.746 228.498 104.102H227.358C227.382 103.589 227.515 103.15 227.756 102.786C228 102.421 228.322 102.142 228.72 101.949C229.121 101.756 229.565 101.659 230.054 101.659C230.584 101.659 231.046 101.765 231.438 101.976C231.833 102.187 232.137 102.476 232.351 102.844C232.568 103.212 232.677 103.631 232.677 104.102C232.677 104.433 232.626 104.733 232.523 105.002C232.424 105.27 232.279 105.51 232.089 105.721C231.902 105.932 231.676 106.119 231.411 106.281C231.145 106.447 230.933 106.622 230.773 106.806C230.613 106.987 230.497 107.203 230.425 107.453C230.352 107.703 230.313 108.015 230.307 108.389V108.443H229.222ZM229.8 111.121C229.577 111.121 229.386 111.041 229.226 110.881C229.066 110.721 228.986 110.53 228.986 110.307C228.986 110.084 229.066 109.892 229.226 109.732C229.386 109.572 229.577 109.493 229.8 109.493C230.024 109.493 230.215 109.572 230.375 109.732C230.535 109.892 230.615 110.084 230.615 110.307C230.615 110.454 230.577 110.59 230.501 110.714C230.429 110.837 230.331 110.937 230.208 111.012C230.087 111.085 229.951 111.121 229.8 111.121Z" fill="white"/>
<path d="M210.982 124.868L205.523 118.5L216.44 118.5L210.982 124.868Z" fill="#111928"/>
<path d="M6.70831 93.2021H43.7306C45.1863 93.2021 46.5823 93.7804 47.6116 94.8097C48.6409 95.839 49.2192 97.235 49.2192 98.6907V118.494C49.2192 119.949 48.6409 121.345 47.6116 122.375C46.5823 123.404 45.1863 123.982 43.7306 123.982H42.5956C43.7476 126.523 45.9836 130.419 49.5156 132.732C49.5156 132.732 42.0027 132.206 34.1765 123.982H6.72523C5.26958 123.982 3.87356 123.404 2.84426 122.375C1.81496 121.345 1.2367 119.949 1.2367 118.494V98.6907C1.23669 97.238 1.81262 95.8445 2.83826 94.8157C3.86391 93.7869 5.25559 93.2066 6.70831 93.2021Z" fill="#263238" stroke="#263238" stroke-width="0.893254" stroke-linecap="round" stroke-linejoin="round"/>
<path d="M31.5842 107.889C31.5826 107.328 31.7473 106.78 32.0575 106.314C32.3677 105.847 32.8094 105.483 33.3267 105.268C33.844 105.053 34.4135 104.996 34.963 105.105C35.5126 105.214 36.0174 105.484 36.4136 105.88C36.8097 106.276 37.0794 106.781 37.1882 107.33C37.2971 107.88 37.2404 108.449 37.0252 108.967C36.81 109.484 36.4461 109.926 35.9796 110.236C35.5131 110.546 34.965 110.711 34.4047 110.709C33.6574 110.707 32.9413 110.409 32.4128 109.881C31.8843 109.352 31.5865 108.636 31.5842 107.889Z" fill="#92E3A9" stroke="#263238" stroke-width="0.893254" stroke-linecap="round" stroke-linejoin="round"/>
<path d="M21.9879 107.889C21.9879 107.331 22.1533 106.786 22.4632 106.322C22.7732 105.858 23.2137 105.497 23.729 105.283C24.2444 105.07 24.8115 105.014 25.3587 105.123C25.9058 105.231 26.4083 105.5 26.8028 105.894C27.1973 106.289 27.4659 106.791 27.5747 107.339C27.6835 107.886 27.6277 108.453 27.4142 108.968C27.2007 109.484 26.8392 109.924 26.3754 110.234C25.9115 110.544 25.3662 110.709 24.8084 110.709C24.061 110.707 23.3449 110.409 22.8165 109.881C22.288 109.352 21.9901 108.636 21.9879 107.889Z" fill="#92E3A9" stroke="#263238" stroke-width="0.893254" stroke-linecap="round" stroke-linejoin="round"/>
<path d="M12.3831 107.889C12.3814 107.329 12.5459 106.781 12.8557 106.315C13.1656 105.848 13.6068 105.484 14.1236 105.269C14.6403 105.054 15.2094 104.996 15.7588 105.105C16.3081 105.213 16.8129 105.482 17.2094 105.877C17.6059 106.272 17.8762 106.776 17.986 107.325C18.0959 107.874 18.0404 108.443 17.8265 108.961C17.6126 109.478 17.25 109.921 16.7846 110.232C16.3192 110.543 15.7719 110.709 15.2121 110.709C14.4639 110.707 13.7469 110.409 13.2171 109.881C12.6873 109.353 12.3875 108.637 12.3831 107.889Z" fill="#92E3A9" stroke="#263238" stroke-width="0.893254" stroke-linecap="round" stroke-linejoin="round"/>
</svg>
