<svg width="260" height="89" viewBox="0 0 260 89" fill="none" xmlns="http://www.w3.org/2000/svg">
<path d="M76.8664 31.8563C75.8487 31.7836 74.7873 31.7836 73.6969 31.8708L73.6678 27.7417C73.6678 27.7126 73.6387 27.669 73.6096 27.669C73.5951 27.669 73.5806 27.669 73.5806 27.6835L65.9329 32.1907C65.8311 32.2488 65.773 32.3652 65.773 32.4815V43.5459C65.773 43.6186 65.802 43.6768 65.8602 43.7058C70.3965 46.3084 73.6387 49.9868 75.6161 54.7121C76.3139 56.3986 76.8955 58.4777 77.2445 60.3388C77.259 60.426 77.3753 61.2402 77.5934 62.7959C77.7533 63.959 77.7097 65.6747 77.6806 66.4453C77.6661 66.7215 77.637 66.9832 77.5934 67.2449C77.4044 68.2191 77.3462 68.9315 77.1572 69.7312C77.0264 70.2837 76.9101 70.7053 76.8374 70.9961C75.5143 76.0121 72.7373 80.0395 68.5209 83.0637C66.5872 84.4595 64.479 85.5354 62.1963 86.335C61.9055 86.4368 61.2512 86.6403 60.2044 86.9311C59.6083 87.1056 59.0558 87.1638 58.3579 87.3528C58.2271 87.3964 58.0962 87.4109 57.9508 87.4109C57.66 87.4255 57.471 87.4255 57.3983 87.44C55.988 87.6726 54.6359 87.7744 53.1238 87.7744C51.539 87.7744 35.633 87.7744 5.39128 87.7744C5.33312 87.7744 5.27496 87.7163 5.27496 87.6581C5.2895 80.9119 5.2895 74.2383 5.26042 67.6375C5.26042 66.2999 5.14411 64.686 5.27496 63.1739C5.3622 62.1707 5.39128 61.5892 5.39128 61.4438C5.39128 60.6587 5.68206 59.8154 5.74022 59.1756C5.75476 58.9866 5.82745 58.6667 5.95831 58.187C5.98739 58.0706 6.07462 57.7362 6.22001 57.2128C6.74343 55.2355 7.87749 53.5053 8.77893 51.7897C9.24419 50.9028 9.66583 50.1903 10.0438 49.6524C11.7449 47.2534 13.9113 45.3342 16.5429 43.9239C17.0663 43.6477 17.4589 43.415 17.7206 43.2551C17.7642 43.226 17.7787 43.1824 17.7787 43.1388V31.5655C17.7787 31.4347 17.7061 31.3183 17.5897 31.2602C14.8854 29.879 12.2829 28.5268 9.7676 27.2183C8.47361 26.5494 7.15053 25.9243 5.81291 25.3572C4.18451 24.6739 3.16676 24.2232 2.73058 24.0196C1.65468 23.4817 -0.191814 22.2894 0.767779 20.85C1.27665 20.094 2.23625 19.4252 2.97775 19.0763C3.55932 18.8 15.0017 13.2896 37.3196 2.53055C37.6685 2.35607 38.1774 2.1089 38.8462 1.75996C40.1838 1.06207 41.187 0.771284 42.6119 1.03299C43.0626 1.12023 43.7314 1.39648 44.6328 1.89081C45.5633 2.39969 46.741 2.9958 48.1513 3.65006C59.3321 8.89875 70.3238 14.0747 81.1265 19.178C81.3591 19.2943 81.4754 19.3525 81.4899 19.3525C82.4786 19.7742 83.6708 20.8646 82.6967 21.9841C82.3332 22.4058 81.9552 22.6965 81.5045 22.9728C80.8647 23.3508 79.4108 24.2086 77.1572 25.5317C77.0409 25.6044 76.9537 25.7353 76.9537 25.8806L76.8664 31.8563ZM41.5941 77.2916C49.2999 77.2916 53.6472 77.3207 56.6132 77.2625C56.7441 77.2625 56.8895 77.248 57.0203 77.2044C57.5873 77.0735 57.9799 76.9717 58.198 76.9281C62.7197 75.9104 66.4272 72.3337 67.7358 67.9138C68.0266 66.9396 68.1719 66.2853 68.201 65.9364C68.2592 65.1367 68.2737 64.0754 68.2737 62.7668C68.2737 61.909 68.1865 61.1239 68.012 60.426C67.2269 57.1111 65.4676 54.4649 62.7342 52.4876C61.3094 51.4553 59.8119 50.8592 58.1544 50.3794C58.0817 50.3503 57.9944 50.3357 57.9072 50.3357C57.5583 50.3067 57.1802 50.2485 56.7877 50.1613C56.3951 50.074 55.9153 50.0595 55.6245 50.0304C55.5809 50.0304 50.8993 50.0304 41.6087 50.0304C32.3035 50.0304 27.6364 50.0304 27.5928 50.0449C27.302 50.074 26.8222 50.0886 26.4296 50.1758C26.0371 50.2631 25.6591 50.3212 25.3101 50.3503C25.2229 50.3503 25.1502 50.3794 25.0629 50.3939C23.4055 50.8737 21.9079 51.4698 20.4831 52.5021C17.7497 54.4795 15.9904 57.1401 15.2053 60.4405C15.0454 61.1384 14.9581 61.909 14.9436 62.7814C14.929 64.0899 14.9581 65.1513 15.0017 65.951C15.0308 66.2999 15.1762 66.9541 15.467 67.9283C16.7755 72.3628 20.4831 75.9249 25.0048 76.9426C25.2229 76.9863 25.6009 77.0881 26.1825 77.2189C26.3133 77.248 26.4442 77.2625 26.5896 77.2625C29.541 77.3207 33.8883 77.2916 41.5941 77.2916Z" fill="white"/>
<path d="M112.181 46.8464C112.181 46.861 112.196 46.8755 112.211 46.8755C112.225 46.8755 112.225 46.8755 112.225 46.861C124.554 30.1117 131.344 20.8793 132.595 19.1491C133.322 18.1459 133.889 17.4625 134.296 17.1136C134.979 16.532 135.735 16.0668 136.564 15.7323C136.942 15.5724 137.291 15.4852 137.596 15.427C138.061 15.3543 138.483 15.2235 139.006 15.1944C142.409 15.049 145.346 16.9246 146.581 20.1087C146.785 20.6321 146.887 21.1846 146.916 21.7952C146.945 22.5658 146.916 23.1328 146.843 23.5109C146.727 24.1797 146.509 24.8194 146.218 25.4446C146 25.8953 145.636 26.4624 145.113 27.1602C141.9 31.4493 138.759 35.6367 135.692 39.7077C132.755 43.6187 130.137 47.2245 127.317 50.8738C127.186 51.0483 127.171 51.2082 127.273 51.3682C130.646 56.0062 136.738 64.3372 145.564 76.3612C146.611 77.7861 147.018 79.5453 146.843 81.2755C146.814 81.5954 146.727 82.0025 146.581 82.5259C145.884 85.1866 143.906 87.0621 141.275 87.8182C140.984 87.9054 140.388 87.9781 139.501 88.0508C139.166 88.0799 138.832 88.0508 138.469 87.9636C138.003 87.8473 137.567 87.8473 137.116 87.6728C135.793 87.1639 134.746 86.4806 133.976 85.6082C133.016 84.5032 132.013 82.933 131.17 81.7698C125.005 73.3225 118.695 64.628 112.254 55.73C112.24 55.7009 112.196 55.7009 112.167 55.7154C112.152 55.7299 112.138 55.7445 112.138 55.759C112.138 62.5925 112.138 70.6327 112.138 79.8797C112.138 80.0833 112.08 80.5194 111.963 81.1592C111.425 84.1979 109.303 86.5097 106.453 87.571C105.755 87.8327 104.839 87.949 104.258 88.0217C103.487 88.1089 102.702 87.949 102.033 87.8473C101.321 87.7455 100.346 87.3384 99.9103 87.1058C97.5986 85.8554 96.1301 83.9798 95.4758 81.4645C95.3159 80.8248 95.3304 80.1851 95.3304 79.5017C95.3304 78.4549 95.3304 60.0917 95.3304 24.3978C95.3304 23.7435 95.3304 23.2492 95.345 22.9293C95.3595 22.3913 95.4322 21.9116 95.5485 21.4899C96.4354 18.4367 98.8925 15.965 102.062 15.3834C102.934 15.2235 103.269 15.1799 104.025 15.1944C104.606 15.1944 105.144 15.3689 105.755 15.4561C105.93 15.4852 106.162 15.5434 106.438 15.6451C109.521 16.7792 111.614 19.2799 112.051 22.5949C112.109 23.0165 112.138 23.4963 112.138 24.0488C112.138 26.2443 112.138 33.5866 112.138 46.0904C112.167 46.2649 112.167 46.512 112.181 46.8464Z" fill="white"/>
<path d="M195.566 42.2955C195.595 42.3391 195.638 42.3391 195.682 42.3246C195.697 42.3246 195.697 42.3101 195.697 42.3101C197.616 39.9983 199.869 38.1373 202.486 36.7415C203.606 36.1454 204.944 35.6075 206.499 35.1277C206.994 34.9823 207.343 34.895 207.546 34.8659C208.36 34.7496 208.869 34.5461 209.771 34.5025C209.887 34.5025 210.279 34.4588 210.948 34.3861C212.111 34.2553 213.391 34.2843 214.772 34.4443C215.092 34.4879 215.31 34.5025 215.426 34.5025C216.066 34.5025 216.604 34.706 217.142 34.7932C217.506 34.8514 217.796 34.9241 218 34.9677C219.963 35.5057 221.577 36.1163 222.856 36.8142C226.549 38.8206 229.471 41.5249 231.638 44.9562C233.31 47.6023 234.458 50.3939 235.098 53.3308C235.229 53.956 235.389 54.4794 235.462 54.9883C235.534 55.5844 235.607 56.1079 235.694 56.5731C235.898 57.7217 235.81 58.7831 235.898 59.888C236 61.0221 235.84 62.4034 235.84 63.5084C235.84 64.5843 235.52 65.7183 235.462 66.6634C235.432 67.1722 235.243 67.7102 235.098 68.4372C234.836 69.6585 234.444 70.9816 233.906 72.4209C231.245 79.5161 225.735 85.1137 218.378 87.2219C217.782 87.3964 217.084 87.4982 216.415 87.6872C216.212 87.7454 216.008 87.7744 215.79 87.789C215.441 87.8035 214.714 87.8762 213.638 87.9925C213.318 88.0216 213.013 88.0361 212.722 88.0361C212.431 88.0216 211.893 88.0507 211.501 88.0071C210.512 87.8907 209.8 87.8326 209.349 87.789C208.709 87.7454 208.229 87.5709 207.633 87.4691C207.372 87.4255 207.139 87.3819 206.95 87.3237C202.472 86.1606 198.721 83.8343 195.697 80.3449C195.667 80.3158 195.609 80.3012 195.58 80.3303C195.566 80.3448 195.551 80.3739 195.551 80.3885V82.1041C195.551 82.1622 195.537 82.2059 195.522 82.264C194.533 84.9393 192.731 86.7276 190.099 87.629C189.488 87.8326 188.907 87.8617 188.18 87.9925C187.38 88.1379 186.522 87.8617 185.723 87.7744C185.65 87.7599 185.563 87.7454 185.49 87.7163C182.539 86.7276 180.663 84.7648 179.892 81.8424C179.776 81.4207 179.718 80.8973 179.718 80.2867C179.703 78.8764 179.703 77.9895 179.703 77.6551C179.674 42.5718 179.689 24.1795 179.718 22.5221C179.718 22.4203 179.718 22.304 179.718 22.1877C179.718 22.0278 179.747 21.8533 179.776 21.6933C179.951 20.9954 180.096 20.5302 180.183 20.283C181.463 17.2298 184.022 15.3687 187.293 15.1652C187.947 15.1216 188.645 15.1943 189.372 15.3687C191.393 15.8485 193.007 16.9535 194.199 18.6983C194.737 19.4834 195.217 20.632 195.406 21.5479C195.478 21.926 195.522 22.4203 195.522 23.0309C195.522 24.1359 195.522 30.4896 195.522 42.0774C195.551 42.2228 195.566 42.281 195.566 42.2955ZM195.638 66.9396C197.049 70.1382 199.448 72.4791 202.792 73.7876C203.417 74.0348 204.086 74.1511 204.914 74.3692C205.016 74.3983 205.118 74.4128 205.22 74.4273C206.514 74.5291 207.779 74.5291 209.029 74.4419C209.669 74.3983 210.178 74.1947 210.687 74.093C211.05 74.0203 211.457 73.9039 211.922 73.744C215.47 72.45 218.131 69.4549 219.134 65.8201C219.279 65.2967 219.454 64.8605 219.497 64.4098C219.497 64.3807 219.614 63.6392 219.861 62.1707C219.89 61.9527 219.905 61.2984 219.875 60.2079C219.861 59.6991 219.817 59.1466 219.715 58.5941C219.526 57.5327 219.439 56.9947 219.439 56.9947C218.814 54.2032 217.258 51.2953 214.932 49.5943C213.856 48.8091 212.693 48.213 211.457 47.7914C211.036 47.646 210.599 47.5733 210.149 47.4424C209.858 47.3552 209.523 47.297 209.145 47.268C207.851 47.1517 206.601 47.1662 205.365 47.2825C205.031 47.3116 204.769 47.3552 204.58 47.4279C203.897 47.646 203.33 47.7477 202.661 48.0094C199.477 49.2598 197.136 51.4407 195.653 54.5667C195.58 54.7121 195.551 54.8574 195.551 55.0174V66.5325C195.551 66.6634 195.58 66.8088 195.638 66.9396Z" fill="white"/>
<path d="M170.354 61.2691C170.354 71.97 170.354 77.7712 170.354 78.7017C170.354 79.8649 170.31 80.8681 170.107 81.9585C170.078 82.1475 169.947 82.511 169.714 83.0635C168.682 85.6224 166.414 87.3671 163.753 87.8905C162.954 88.0505 162.198 88.0941 161.5 87.9923C158.388 87.5998 155.931 85.7387 154.783 82.8309C154.535 82.1911 154.375 81.5224 154.317 80.8535C154.317 80.7808 154.303 80.0975 154.303 78.818C154.303 77.2914 154.303 71.4466 154.303 61.2691C154.303 51.0916 154.303 45.2468 154.303 43.7202C154.303 42.4407 154.303 41.7574 154.317 41.6847C154.375 41.0159 154.535 40.3616 154.783 39.7073C155.931 36.7995 158.388 34.9385 161.5 34.5459C162.198 34.4587 162.954 34.4877 163.753 34.6477C166.414 35.1856 168.682 36.9158 169.714 39.4747C169.932 40.0272 170.063 40.3907 170.107 40.5797C170.31 41.6701 170.354 42.6733 170.354 43.8365C170.354 44.767 170.354 50.5682 170.354 61.2691Z" fill="white"/>
<path d="M250.712 34.5024C251.032 34.5024 251.279 34.517 251.454 34.5315C254.565 34.9386 256.76 36.5379 258.069 39.3295C258.331 39.882 258.52 40.5362 258.636 41.2632C258.709 41.743 258.752 42.4118 258.752 43.2842C258.752 44.6218 258.752 50.612 258.752 61.2838C258.752 71.9411 258.752 77.9459 258.752 79.2835C258.752 80.1558 258.709 80.8246 258.636 81.3044C258.52 82.0459 258.331 82.6857 258.069 83.2381C256.76 86.0152 254.565 87.6145 251.454 88.0216C251.279 88.0506 251.032 88.0507 250.712 88.0507C250.392 88.0507 250.145 88.0361 249.971 88.0216C246.859 87.6145 244.664 86.0152 243.355 83.2381C243.094 82.6857 242.905 82.0314 242.788 81.3044C242.715 80.8246 242.672 80.1558 242.672 79.2835C242.672 77.9459 242.672 71.9557 242.672 61.2984C242.672 50.6411 242.672 44.6363 242.672 43.2987C242.672 42.4264 242.715 41.7575 242.788 41.2777C242.905 40.5362 243.094 39.8965 243.355 39.344C244.664 36.567 246.859 34.9677 249.971 34.5606C250.16 34.517 250.407 34.5024 250.712 34.5024Z" fill="white"/>
<path d="M162.298 15.2378C163.36 15.2378 164.334 15.4268 165.337 15.703C168.739 16.6481 171.153 19.5414 171.138 23.1617C171.109 26.782 168.666 29.6462 165.25 30.5477C164.247 30.8094 163.272 30.9838 162.211 30.9693C161.15 30.9693 160.176 30.7803 159.172 30.5041C155.77 29.559 153.357 26.6657 153.371 23.0454C153.386 19.4251 155.843 16.5609 159.26 15.6594C160.263 15.3977 161.251 15.2378 162.298 15.2378Z" fill="#95C16B"/>
<path d="M250.728 15.2381C254.901 15.2672 258.623 17.5498 259.452 21.8244C259.495 22.057 259.51 22.6531 259.495 23.5691C259.481 24.2379 259.408 24.8049 259.263 25.2847C258.667 27.233 257.46 28.7305 255.628 29.7628C254.072 30.6352 252.109 30.9841 250.612 30.9696C249.114 30.955 247.151 30.5916 245.61 29.6901C243.807 28.6288 242.615 27.1167 242.048 25.1539C241.903 24.6741 241.83 24.0925 241.83 23.4237C241.83 22.4932 241.859 21.9116 241.903 21.679C242.804 17.419 246.555 15.209 250.728 15.2381Z" fill="#95C16B"/>
<path d="M76.8663 31.8565C76.939 31.9437 77.0553 31.9873 77.2152 32.0309C77.3897 32.0746 77.506 32.1182 77.5787 32.1473C78.6401 32.7288 79.1635 33.6448 79.1635 34.9097C79.1635 36.3491 79.1635 37.9629 79.1635 39.7513C79.1635 39.8094 79.1199 39.8385 79.0617 39.8385H71.6176C71.574 39.8385 71.5449 39.8095 71.5449 39.7658C71.5449 39.1116 71.5449 37.5123 71.5449 34.9824C71.5449 34.1682 71.7485 33.4849 72.1556 32.9469C72.5191 32.4671 73.0425 32.1036 73.6967 31.871C74.7872 31.7838 75.834 31.7692 76.8663 31.8565Z" fill="#95C16B"/>
<path d="M28.8404 69.1839C31.3454 69.1533 33.3504 67.0197 33.3186 64.4183C33.2868 61.8168 31.2303 59.7328 28.7253 59.7634C26.2202 59.794 24.2152 61.9277 24.247 64.5291C24.2788 67.1305 26.3353 69.2145 28.8404 69.1839Z" fill="#95C16B"/>
<path d="M54.2293 69.1769C56.7263 69.1507 58.7285 67.0207 58.7012 64.4193C58.674 61.8179 56.6277 59.7302 54.1306 59.7564C51.6336 59.7825 49.6315 61.9126 49.6587 64.514C49.6859 67.1154 51.7323 69.203 54.2293 69.1769Z" fill="#95C16B"/>
</svg>
