<svg width="80" height="80" viewBox="0 0 80 80" fill="none" xmlns="http://www.w3.org/2000/svg">
<rect x="19.2422" y="41.9277" width="38.648" height="22.6847" rx="6.47939" fill="#111928"/>
<path d="M62.7657 31.3641C62.0625 31.3139 61.3291 31.3139 60.5757 31.3742L60.5556 28.5211C60.5556 28.501 60.5355 28.4709 60.5154 28.4709C60.5054 28.4709 60.4953 28.4709 60.4953 28.4809L55.2111 31.5952C55.1408 31.6353 55.1006 31.7157 55.1006 31.7961V39.4411C55.1006 39.4913 55.1207 39.5315 55.1609 39.5516C58.2952 41.3498 60.5355 43.8915 61.9018 47.1564C62.384 48.3217 62.7858 49.7583 63.0269 51.0442C63.037 51.1045 63.1173 51.667 63.268 52.742C63.3785 53.5456 63.3484 54.7311 63.3283 55.2635C63.3182 55.4544 63.2982 55.6352 63.268 55.816C63.1374 56.4891 63.0972 56.9814 62.9666 57.5339C62.8762 57.9157 62.7959 58.207 62.7456 58.4079C61.8314 61.8738 59.9127 64.6565 56.9993 66.7461C55.6632 67.7105 54.2065 68.4539 52.6293 69.0064C52.4284 69.0768 51.9763 69.2174 51.253 69.4183C50.8411 69.5389 50.4594 69.5791 49.9772 69.7097C49.8868 69.7398 49.7963 69.7498 49.6959 69.7498C49.495 69.7599 49.3644 69.7599 49.3141 69.7699C48.3397 69.9306 47.4054 70.001 46.3606 70.001C45.2656 70.001 34.2753 70.001 13.3796 70.001C13.3395 70.001 13.2993 69.9608 13.2993 69.9206C13.3093 65.2593 13.3093 60.6482 13.2892 56.0873C13.2892 55.1631 13.2089 54.048 13.2993 53.0032C13.3596 52.31 13.3796 51.9082 13.3796 51.8077C13.3796 51.2652 13.5806 50.6825 13.6208 50.2405C13.6308 50.1099 13.681 49.8889 13.7714 49.5574C13.7915 49.477 13.8518 49.246 13.9523 48.8843C14.3139 47.5181 15.0975 46.3226 15.7204 45.1372C16.0418 44.5243 16.3332 44.0321 16.5944 43.6604C17.7697 42.0028 19.2666 40.6768 21.0849 39.7023C21.4466 39.5114 21.7178 39.3507 21.8986 39.2402C21.9288 39.2201 21.9388 39.1899 21.9388 39.1598V31.1632C21.9388 31.0728 21.8886 30.9924 21.8082 30.9522C19.9397 29.9979 18.1414 29.0636 16.4035 28.1594C15.5094 27.6973 14.5952 27.2653 13.671 26.8735C12.5458 26.4014 11.8426 26.09 11.5412 25.9493C10.7978 25.5776 9.52199 24.7538 10.185 23.7593C10.5366 23.2369 11.1997 22.7748 11.712 22.5337C12.1139 22.3428 20.02 18.5354 35.4406 11.1014C35.6817 10.9808 36.0333 10.81 36.4955 10.5689C37.4197 10.0867 38.1129 9.88579 39.0974 10.0666C39.4088 10.1269 39.8709 10.3178 40.4938 10.6593C41.1367 11.0109 41.9504 11.4228 42.9249 11.8749C50.6503 15.5015 58.245 19.0779 65.7092 22.604C65.8699 22.6844 65.9503 22.7246 65.9603 22.7246C66.6435 23.0159 67.4672 23.7693 66.7942 24.5429C66.543 24.8342 66.2818 25.0351 65.9704 25.226C65.5284 25.4872 64.5238 26.0799 62.9666 26.9941C62.8863 27.0443 62.826 27.1348 62.826 27.2352L62.7657 31.3641ZM38.3942 62.7578C43.7185 62.7578 46.7223 62.7779 48.7717 62.7377C48.8621 62.7377 48.9625 62.7277 49.0529 62.6975C49.4447 62.6071 49.716 62.5368 49.8667 62.5067C52.991 61.8035 55.5527 59.3321 56.4568 56.2782C56.6578 55.6051 56.7582 55.153 56.7783 54.9119C56.8185 54.3594 56.8285 53.626 56.8285 52.7219C56.8285 52.1292 56.7683 51.5867 56.6477 51.1045C56.1052 48.814 54.8897 46.9856 53.001 45.6194C52.0165 44.9061 50.9818 44.4942 49.8365 44.1627C49.7863 44.1426 49.726 44.1326 49.6657 44.1326C49.4246 44.1125 49.1634 44.0723 48.8922 44.012C48.621 43.9517 48.2894 43.9417 48.0885 43.9216C48.0584 43.9216 44.8236 43.9216 38.4042 43.9216C31.9748 43.9216 28.75 43.9216 28.7199 43.9316C28.5189 43.9517 28.1874 43.9618 27.9162 44.0221C27.6449 44.0823 27.3838 44.1225 27.1426 44.1426C27.0824 44.1426 27.0321 44.1627 26.9719 44.1728C25.8266 44.5043 24.7919 44.9162 23.8074 45.6294C21.9187 46.9957 20.7032 48.8341 20.1607 51.1145C20.0502 51.5967 19.9899 52.1292 19.9799 52.7319C19.9698 53.6361 19.9899 54.3694 20.02 54.922C20.0401 55.1631 20.1406 55.6151 20.3415 56.2882C21.2457 59.3522 23.8074 61.8135 26.9317 62.5167C27.0824 62.5469 27.3436 62.6172 27.7454 62.7076C27.8358 62.7277 27.9262 62.7377 28.0267 62.7377C30.066 62.7779 33.0698 62.7578 38.3942 62.7578Z" fill="white"/>
<path d="M62.7667 31.3647C62.8169 31.425 62.8973 31.4551 63.0078 31.4853C63.1283 31.5154 63.2087 31.5455 63.2589 31.5656C63.9923 31.9675 64.3539 32.6004 64.3539 33.4744C64.3539 34.4689 64.3539 35.584 64.3539 36.8197C64.3539 36.8599 64.3238 36.88 64.2836 36.88H59.1401C59.1099 36.88 59.0898 36.8599 59.0898 36.8297C59.0898 36.3777 59.0898 35.2726 59.0898 33.5246C59.0898 32.962 59.2305 32.4899 59.5118 32.1182C59.7629 31.7867 60.1246 31.5355 60.5767 31.3748C61.3301 31.3145 62.0534 31.3044 62.7667 31.3647Z" fill="#95C16B"/>
<path d="M29.5827 57.1574C31.3136 57.1362 32.6989 55.662 32.677 53.8645C32.655 52.0671 31.2341 50.6271 29.5032 50.6482C27.7723 50.6694 26.3869 52.1436 26.4089 53.9411C26.4309 55.7385 27.8518 57.1785 29.5827 57.1574Z" fill="#95C16B"/>
<path d="M47.1258 57.1522C48.8511 57.1341 50.2345 55.6624 50.2157 53.8649C50.1968 52.0675 48.7829 50.625 47.0576 50.6431C45.3323 50.6611 43.9489 52.1329 43.9677 53.9303C43.9865 55.7278 45.4004 57.1703 47.1258 57.1522Z" fill="#95C16B"/>
</svg>
