<svg width="260" height="89" viewBox="0 0 260 89" fill="none" xmlns="http://www.w3.org/2000/svg">
<path d="M76.8664 31.8563C75.8487 31.7836 74.7873 31.7836 73.6969 31.8708L73.6678 27.7417C73.6678 27.7126 73.6387 27.669 73.6096 27.669C73.5951 27.669 73.5806 27.669 73.5806 27.6835L65.9329 32.1907C65.8311 32.2488 65.773 32.3652 65.773 32.4815V43.5459C65.773 43.6186 65.802 43.6768 65.8602 43.7058C70.3965 46.3084 73.6387 49.9868 75.6161 54.7121C76.3139 56.3986 76.8955 58.4777 77.2445 60.3388C77.259 60.426 77.3753 61.2402 77.5934 62.7959C77.7533 63.959 77.7097 65.6747 77.6806 66.4453C77.6661 66.7215 77.637 66.9832 77.5934 67.2449C77.4044 68.2191 77.3462 68.9315 77.1572 69.7312C77.0264 70.2837 76.9101 70.7053 76.8374 70.9961C75.5143 76.0121 72.7373 80.0395 68.5209 83.0637C66.5872 84.4595 64.479 85.5354 62.1963 86.335C61.9055 86.4368 61.2512 86.6403 60.2044 86.9311C59.6083 87.1056 59.0558 87.1638 58.3579 87.3528C58.2271 87.3964 58.0962 87.4109 57.9508 87.4109C57.66 87.4255 57.471 87.4255 57.3983 87.44C55.988 87.6726 54.6359 87.7744 53.1238 87.7744C51.539 87.7744 35.633 87.7744 5.39128 87.7744C5.33312 87.7744 5.27496 87.7163 5.27496 87.6581C5.2895 80.9119 5.2895 74.2383 5.26042 67.6375C5.26042 66.2999 5.14411 64.686 5.27496 63.1739C5.3622 62.1707 5.39128 61.5892 5.39128 61.4438C5.39128 60.6587 5.68206 59.8154 5.74022 59.1756C5.75476 58.9866 5.82745 58.6667 5.95831 58.187C5.98739 58.0706 6.07462 57.7362 6.22001 57.2128C6.74343 55.2355 7.87749 53.5053 8.77893 51.7897C9.24419 50.9028 9.66583 50.1903 10.0438 49.6524C11.7449 47.2534 13.9113 45.3342 16.5429 43.9239C17.0663 43.6477 17.4589 43.415 17.7206 43.2551C17.7642 43.226 17.7788 43.1824 17.7788 43.1388V31.5655C17.7788 31.4347 17.7061 31.3183 17.5897 31.2602C14.8854 29.879 12.2829 28.5268 9.7676 27.2183C8.47361 26.5494 7.15053 25.9243 5.81291 25.3572C4.18451 24.6739 3.16676 24.2232 2.73058 24.0196C1.65468 23.4817 -0.191814 22.2894 0.767779 20.85C1.27665 20.094 2.23625 19.4252 2.97775 19.0763C3.55932 18.8 15.0017 13.2896 37.3196 2.53055C37.6685 2.35607 38.1774 2.1089 38.8462 1.75996C40.1838 1.06207 41.187 0.771284 42.6119 1.03299C43.0626 1.12023 43.7314 1.39648 44.6328 1.89081C45.5633 2.39969 46.741 2.9958 48.1513 3.65006C59.3321 8.89875 70.3238 14.0747 81.1265 19.178C81.3591 19.2943 81.4754 19.3525 81.4899 19.3525C82.4786 19.7742 83.6708 20.8646 82.6967 21.9841C82.3332 22.4058 81.9552 22.6965 81.5045 22.9728C80.8647 23.3508 79.4108 24.2086 77.1572 25.5317C77.0409 25.6044 76.9537 25.7353 76.9537 25.8806L76.8664 31.8563ZM41.5941 77.2916C49.2999 77.2916 53.6472 77.3207 56.6132 77.2625C56.7441 77.2625 56.8895 77.248 57.0203 77.2044C57.5873 77.0735 57.9799 76.9717 58.198 76.9281C62.7197 75.9104 66.4272 72.3337 67.7358 67.9138C68.0266 66.9396 68.1719 66.2853 68.201 65.9364C68.2592 65.1367 68.2737 64.0754 68.2737 62.7668C68.2737 61.909 68.1865 61.1239 68.012 60.426C67.2269 57.1111 65.4676 54.4649 62.7342 52.4876C61.3094 51.4553 59.8118 50.8592 58.1544 50.3794C58.0817 50.3503 57.9944 50.3357 57.9072 50.3357C57.5583 50.3067 57.1802 50.2485 56.7877 50.1613C56.3951 50.074 55.9153 50.0595 55.6245 50.0304C55.5809 50.0304 50.8993 50.0304 41.6087 50.0304C32.3035 50.0304 27.6364 50.0304 27.5928 50.0449C27.302 50.074 26.8222 50.0886 26.4296 50.1758C26.0371 50.2631 25.6591 50.3212 25.3101 50.3503C25.2229 50.3503 25.1502 50.3794 25.0629 50.3939C23.4055 50.8737 21.9079 51.4698 20.4831 52.5021C17.7497 54.4795 15.9904 57.1401 15.2053 60.4405C15.0454 61.1384 14.9581 61.909 14.9436 62.7814C14.929 64.0899 14.9581 65.1513 15.0017 65.951C15.0308 66.2999 15.1762 66.9541 15.467 67.9283C16.7755 72.3628 20.4831 75.9249 25.0048 76.9426C25.2229 76.9863 25.6009 77.0881 26.1825 77.2189C26.3133 77.248 26.4442 77.2625 26.5896 77.2625C29.541 77.3207 33.8883 77.2916 41.5941 77.2916Z" fill="#111928"/>
<path d="M112.182 46.8464C112.182 46.861 112.197 46.8755 112.212 46.8755C112.226 46.8755 112.226 46.8755 112.226 46.861C124.555 30.1117 131.345 20.8793 132.596 19.1491C133.323 18.1459 133.89 17.4625 134.297 17.1136C134.98 16.532 135.736 16.0668 136.565 15.7323C136.943 15.5724 137.292 15.4852 137.597 15.427C138.062 15.3543 138.484 15.2235 139.007 15.1944C142.41 15.049 145.347 16.9246 146.582 20.1087C146.786 20.6321 146.888 21.1846 146.917 21.7952C146.946 22.5658 146.917 23.1328 146.844 23.5109C146.728 24.1797 146.51 24.8194 146.219 25.4446C146.001 25.8953 145.637 26.4624 145.114 27.1602C141.901 31.4493 138.76 35.6367 135.692 39.7077C132.756 43.6187 130.138 47.2245 127.318 50.8738C127.187 51.0483 127.172 51.2082 127.274 51.3682C130.647 56.0062 136.739 64.3372 145.565 76.3612C146.611 77.7861 147.019 79.5453 146.844 81.2755C146.815 81.5954 146.728 82.0025 146.582 82.5259C145.885 85.1866 143.907 87.0621 141.276 87.8182C140.985 87.9054 140.389 87.9781 139.502 88.0508C139.167 88.0799 138.833 88.0508 138.469 87.9636C138.004 87.8473 137.568 87.8473 137.117 87.6728C135.794 87.1639 134.747 86.4806 133.977 85.6082C133.017 84.5032 132.014 82.933 131.171 81.7698C125.006 73.3225 118.696 64.628 112.255 55.73C112.241 55.7009 112.197 55.7009 112.168 55.7154C112.153 55.7299 112.139 55.7445 112.139 55.759C112.139 62.5925 112.139 70.6327 112.139 79.8797C112.139 80.0833 112.081 80.5194 111.964 81.1592C111.426 84.1979 109.304 86.5096 106.454 87.571C105.756 87.8327 104.84 87.949 104.259 88.0217C103.488 88.1089 102.703 87.949 102.034 87.8472C101.322 87.7455 100.347 87.3384 99.9113 87.1058C97.5995 85.8554 96.1311 83.9798 95.4768 81.4645C95.3169 80.8248 95.3314 80.1851 95.3314 79.5017C95.3314 78.4549 95.3314 60.0917 95.3314 24.3978C95.3314 23.7435 95.3314 23.2492 95.3459 22.9293C95.3605 22.3913 95.4332 21.9116 95.5495 21.4899C96.4364 18.4367 98.8935 15.965 102.063 15.3834C102.935 15.2235 103.27 15.1799 104.026 15.1944C104.607 15.1944 105.145 15.3689 105.756 15.4561C105.931 15.4852 106.163 15.5434 106.439 15.6451C109.522 16.7792 111.615 19.2799 112.052 22.5949C112.11 23.0165 112.139 23.4963 112.139 24.0488C112.139 26.2443 112.139 33.5866 112.139 46.0904C112.168 46.2649 112.168 46.512 112.182 46.8464Z" fill="#111928"/>
<path d="M195.565 42.2955C195.594 42.3391 195.638 42.3391 195.682 42.3246C195.696 42.3246 195.696 42.3101 195.696 42.3101C197.615 39.9983 199.869 38.1373 202.486 36.7415C203.605 36.1454 204.943 35.6075 206.499 35.1277C206.993 34.9823 207.342 34.895 207.546 34.8659C208.36 34.7496 208.869 34.5461 209.77 34.5025C209.886 34.5025 210.279 34.4588 210.948 34.3861C212.111 34.2553 213.39 34.2843 214.772 34.4443C215.091 34.4879 215.31 34.5025 215.426 34.5025C216.066 34.5025 216.604 34.706 217.142 34.7932C217.505 34.8514 217.796 34.9241 217.999 34.9677C219.962 35.5057 221.576 36.1163 222.855 36.8142C226.548 38.8206 229.471 41.5249 231.637 44.9562C233.309 47.6023 234.458 50.3939 235.098 53.3308C235.228 53.956 235.388 54.4794 235.461 54.9883C235.534 55.5844 235.606 56.1079 235.694 56.5731C235.897 57.7217 235.81 58.7831 235.897 59.888C235.999 61.0221 235.839 62.4034 235.839 63.5084C235.839 64.5843 235.519 65.7183 235.461 66.6634C235.432 67.1722 235.243 67.7102 235.098 68.4372C234.836 69.6585 234.443 70.9816 233.905 72.4209C231.245 79.5161 225.734 85.1137 218.377 87.2219C217.781 87.3964 217.083 87.4982 216.415 87.6872C216.211 87.7454 216.007 87.7744 215.789 87.789C215.44 87.8035 214.713 87.8762 213.638 87.9925C213.318 88.0216 213.012 88.0361 212.722 88.0361C212.431 88.0216 211.893 88.0507 211.5 88.0071C210.512 87.8907 209.799 87.8326 209.348 87.789C208.709 87.7454 208.229 87.5709 207.633 87.4691C207.371 87.4255 207.139 87.3819 206.95 87.3237C202.471 86.1606 198.72 83.8343 195.696 80.3449C195.667 80.3158 195.609 80.3012 195.58 80.3303C195.565 80.3448 195.551 80.3739 195.551 80.3884V82.1041C195.551 82.1623 195.536 82.2059 195.522 82.264C194.533 84.9393 192.73 86.7276 190.098 87.629C189.488 87.8326 188.906 87.8617 188.179 87.9925C187.38 88.1379 186.522 87.8617 185.722 87.7744C185.649 87.7599 185.562 87.7454 185.49 87.7163C182.538 86.7276 180.662 84.7648 179.892 81.8424C179.776 81.4207 179.717 80.8973 179.717 80.2867C179.703 78.8764 179.703 77.9895 179.703 77.6551C179.674 42.5718 179.688 24.1795 179.717 22.5221C179.717 22.4203 179.717 22.304 179.717 22.1877C179.717 22.0278 179.746 21.8533 179.776 21.6933C179.95 20.9954 180.095 20.5302 180.183 20.283C181.462 17.2298 184.021 15.3687 187.292 15.1652C187.947 15.1216 188.645 15.1943 189.371 15.3687C191.392 15.8485 193.006 16.9535 194.199 18.6983C194.736 19.4834 195.216 20.632 195.405 21.5479C195.478 21.926 195.522 22.4203 195.522 23.0309C195.522 24.1359 195.522 30.4896 195.522 42.0774C195.551 42.2228 195.565 42.281 195.565 42.2955ZM195.638 66.9396C197.048 70.1382 199.447 72.4791 202.791 73.7876C203.416 74.0348 204.085 74.1511 204.914 74.3692C205.016 74.3983 205.118 74.4128 205.219 74.4273C206.513 74.5291 207.778 74.5291 209.029 74.4419C209.668 74.3983 210.177 74.1947 210.686 74.093C211.05 74.0203 211.457 73.9039 211.922 73.744C215.47 72.45 218.13 69.4549 219.133 65.8201C219.279 65.2967 219.453 64.8605 219.497 64.4098C219.497 64.3807 219.613 63.6392 219.86 62.1707C219.889 61.9527 219.904 61.2984 219.875 60.2079C219.86 59.6991 219.817 59.1466 219.715 58.5941C219.526 57.5327 219.439 56.9947 219.439 56.9947C218.814 54.2032 217.258 51.2954 214.932 49.5943C213.856 48.8091 212.693 48.213 211.457 47.7914C211.035 47.646 210.599 47.5733 210.148 47.4424C209.857 47.3552 209.523 47.297 209.145 47.268C207.851 47.1517 206.601 47.1662 205.365 47.2825C205.03 47.3116 204.769 47.3552 204.58 47.4279C203.896 47.646 203.329 47.7477 202.66 48.0094C199.476 49.2598 197.135 51.4407 195.652 54.5667C195.58 54.7121 195.551 54.8574 195.551 55.0174V66.5325C195.551 66.6634 195.58 66.8087 195.638 66.9396Z" fill="#111928"/>
<path d="M170.354 61.2691C170.354 71.97 170.354 77.7712 170.354 78.7017C170.354 79.8649 170.31 80.8681 170.107 81.9585C170.078 82.1475 169.947 82.511 169.714 83.0635C168.682 85.6224 166.414 87.3671 163.753 87.8905C162.954 88.0505 162.198 88.0941 161.5 87.9923C158.388 87.5998 155.931 85.7387 154.783 82.8309C154.535 82.1911 154.375 81.5223 154.317 80.8535C154.317 80.7808 154.303 80.0975 154.303 78.818C154.303 77.2914 154.303 71.4466 154.303 61.2691C154.303 51.0916 154.303 45.2468 154.303 43.7202C154.303 42.4407 154.303 41.7574 154.317 41.6847C154.375 41.0159 154.535 40.3616 154.783 39.7073C155.931 36.7995 158.388 34.9385 161.5 34.5459C162.198 34.4587 162.954 34.4877 163.753 34.6477C166.414 35.1856 168.682 36.9158 169.714 39.4747C169.932 40.0272 170.063 40.3907 170.107 40.5797C170.31 41.6701 170.354 42.6733 170.354 43.8365C170.354 44.767 170.354 50.5682 170.354 61.2691Z" fill="#111928"/>
<path d="M250.713 34.5024C251.032 34.5024 251.28 34.517 251.454 34.5315C254.566 34.9386 256.761 36.5379 258.069 39.3295C258.331 39.882 258.52 40.5362 258.637 41.2632C258.709 41.743 258.753 42.4118 258.753 43.2842C258.753 44.6218 258.753 50.612 258.753 61.2838C258.753 71.9411 258.753 77.9459 258.753 79.2835C258.753 80.1558 258.709 80.8246 258.637 81.3044C258.52 82.0459 258.331 82.6857 258.069 83.2381C256.761 86.0152 254.566 87.6145 251.454 88.0216C251.28 88.0506 251.032 88.0507 250.713 88.0507C250.393 88.0507 250.146 88.0361 249.971 88.0216C246.86 87.6145 244.664 86.0152 243.356 83.2381C243.094 82.6857 242.905 82.0314 242.789 81.3044C242.716 80.8246 242.672 80.1558 242.672 79.2835C242.672 77.9459 242.672 71.9557 242.672 61.2984C242.672 50.6411 242.672 44.6363 242.672 43.2987C242.672 42.4264 242.716 41.7575 242.789 41.2777C242.905 40.5362 243.094 39.8965 243.356 39.344C244.664 36.567 246.86 34.9677 249.971 34.5606C250.16 34.517 250.407 34.5024 250.713 34.5024Z" fill="#111928"/>
<path d="M162.299 15.2378C163.361 15.2378 164.335 15.4268 165.338 15.703C168.74 16.6481 171.154 19.5414 171.139 23.1617C171.11 26.782 168.667 29.6462 165.251 30.5477C164.248 30.8094 163.273 30.9838 162.212 30.9693C161.151 30.9693 160.177 30.7803 159.173 30.5041C155.771 29.559 153.358 26.6657 153.372 23.0454C153.387 19.4251 155.844 16.5609 159.261 15.6594C160.264 15.3977 161.252 15.2378 162.299 15.2378Z" fill="#95C16B"/>
<path d="M250.727 15.2381C254.9 15.2672 258.622 17.5498 259.451 21.8244C259.494 22.057 259.509 22.6531 259.494 23.5691C259.48 24.2379 259.407 24.8049 259.262 25.2847C258.666 27.233 257.459 28.7305 255.627 29.7628C254.071 30.6352 252.108 30.9841 250.611 30.9696C249.113 30.955 247.15 30.5916 245.609 29.6901C243.806 28.6288 242.614 27.1167 242.047 25.1539C241.902 24.6741 241.829 24.0925 241.829 23.4237C241.829 22.4932 241.858 21.9116 241.902 21.679C242.803 17.419 246.554 15.209 250.727 15.2381Z" fill="#95C16B"/>
<path d="M76.8663 31.8565C76.939 31.9437 77.0553 31.9873 77.2152 32.0309C77.3897 32.0746 77.506 32.1182 77.5787 32.1473C78.6401 32.7288 79.1635 33.6448 79.1635 34.9097C79.1635 36.3491 79.1635 37.9629 79.1635 39.7513C79.1635 39.8094 79.1199 39.8385 79.0617 39.8385H71.6176C71.574 39.8385 71.5449 39.8095 71.5449 39.7658C71.5449 39.1116 71.5449 37.5123 71.5449 34.9824C71.5449 34.1682 71.7485 33.4849 72.1556 32.9469C72.5191 32.4671 73.0425 32.1036 73.6967 31.871C74.7872 31.7838 75.834 31.7692 76.8663 31.8565Z" fill="#95C16B"/>
<path d="M28.8409 69.1839C31.3459 69.1533 33.3509 67.0197 33.3191 64.4183C33.2873 61.8168 31.2308 59.7328 28.7257 59.7634C26.2207 59.794 24.2157 61.9277 24.2475 64.5291C24.2793 67.1305 26.3358 69.2145 28.8409 69.1839Z" fill="#95C16B"/>
<path d="M54.2308 69.1769C56.7278 69.1507 58.73 67.0207 58.7027 64.4193C58.6755 61.8179 56.6291 59.7302 54.1321 59.7564C51.6351 59.7825 49.6329 61.9126 49.6602 64.514C49.6874 67.1154 51.7337 69.203 54.2308 69.1769Z" fill="#95C16B"/>
</svg>
