<svg width="807" height="272" viewBox="0 0 807 272" fill="none" xmlns="http://www.w3.org/2000/svg">
<path d="M237.697 96.2357C234.529 96.0094 231.225 96.0094 227.831 96.2809L227.741 83.4286C227.741 83.3381 227.65 83.2023 227.56 83.2023C227.514 83.2023 227.469 83.2023 227.469 83.2475L203.665 97.2765C203.348 97.4575 203.167 97.8195 203.167 98.1816V132.62C203.167 132.847 203.258 133.028 203.439 133.118C217.558 141.219 227.65 152.668 233.805 167.376C235.977 172.626 237.787 179.097 238.873 184.89C238.918 185.161 239.28 187.695 239.959 192.538C240.457 196.158 240.321 201.498 240.231 203.897C240.186 204.756 240.095 205.571 239.959 206.386C239.371 209.418 239.19 211.635 238.602 214.124C238.194 215.844 237.832 217.156 237.606 218.061C233.488 233.674 224.844 246.21 211.72 255.623C205.701 259.967 199.14 263.316 192.035 265.805C191.129 266.122 189.093 266.755 185.835 267.66C183.979 268.203 182.26 268.385 180.087 268.973C179.68 269.109 179.273 269.154 178.82 269.154C177.915 269.199 177.327 269.199 177.101 269.244C172.711 269.968 168.502 270.285 163.796 270.285C158.863 270.285 109.354 270.285 15.2245 270.285C15.0435 270.285 14.8624 270.104 14.8624 269.923C14.9077 248.925 14.9077 228.153 14.8172 207.607C14.8172 203.444 14.4551 198.421 14.8624 193.714C15.134 190.592 15.2245 188.782 15.2245 188.329C15.2245 185.885 16.1296 183.26 16.3106 181.269C16.3558 180.681 16.5821 179.685 16.9894 178.192C17.0799 177.83 17.3514 176.789 17.804 175.16C19.4332 169.005 22.963 163.62 25.7688 158.28C27.217 155.519 28.5294 153.302 29.706 151.627C35.0008 144.16 41.7437 138.187 49.9348 133.797C51.564 132.937 52.7859 132.213 53.6005 131.715C53.7362 131.625 53.7815 131.489 53.7815 131.353V95.3306C53.7815 94.9233 53.5552 94.5612 53.1932 94.3802C44.7758 90.081 36.6752 85.8723 28.8461 81.7994C24.8185 79.7177 20.7003 77.7717 16.5369 76.0068C11.4683 73.8798 8.30051 72.4769 6.94287 71.8434C3.59402 70.1689 -2.15333 66.458 0.833484 61.9778C2.4174 59.6246 5.40421 57.5429 7.7122 56.4568C9.52238 55.5969 45.1378 38.4454 114.604 4.95696C115.69 4.4139 117.274 3.64455 119.356 2.55844C123.519 0.386213 126.642 -0.51888 131.077 0.295704C132.479 0.567232 134.561 1.42708 137.367 2.96574C140.263 4.54966 143.929 6.40509 148.319 8.44155C183.119 24.7785 217.332 40.8891 250.956 56.7735C251.68 57.1356 252.042 57.3167 252.088 57.3167C255.165 58.6291 258.876 62.0231 255.844 65.5077C254.712 66.8201 253.536 67.7252 252.133 68.5851C250.142 69.7617 245.616 72.4317 238.602 76.5499C238.24 76.7762 237.968 77.1834 237.968 77.636L237.697 96.2357ZM127.909 237.657C151.894 237.657 165.425 237.747 174.657 237.566C175.064 237.566 175.517 237.521 175.924 237.385C177.689 236.978 178.911 236.661 179.59 236.525C193.664 233.357 205.204 222.225 209.277 208.467C210.182 205.435 210.634 203.399 210.725 202.313C210.906 199.824 210.951 196.52 210.951 192.447C210.951 189.777 210.68 187.333 210.136 185.161C207.693 174.843 202.217 166.607 193.709 160.452C189.274 157.239 184.613 155.384 179.454 153.89C179.227 153.8 178.956 153.754 178.684 153.754C177.598 153.664 176.422 153.483 175.2 153.211C173.978 152.94 172.485 152.895 171.579 152.804C171.444 152.804 156.872 152.804 127.954 152.804C98.9909 152.804 84.4642 152.804 84.3284 152.849C83.4233 152.94 81.9299 152.985 80.708 153.257C79.4861 153.528 78.3095 153.709 77.2234 153.8C76.9519 153.8 76.7256 153.89 76.4541 153.935C71.295 155.429 66.6338 157.284 62.1989 160.497C53.691 166.652 48.2152 174.934 45.7714 185.206C45.2736 187.379 45.0021 189.777 44.9568 192.492C44.9116 196.565 45.0021 199.869 45.1378 202.358C45.2283 203.444 45.6809 205.48 46.586 208.513C50.6589 222.315 62.1989 233.403 76.2731 236.57C76.9519 236.706 78.1285 237.023 79.9387 237.43C80.346 237.521 80.7533 237.566 81.2058 237.566C90.3925 237.747 103.924 237.657 127.909 237.657Z" fill="white"/>
<path d="M347.62 142.893C347.62 142.938 347.665 142.984 347.711 142.984C347.756 142.984 347.756 142.984 347.756 142.938C386.132 90.805 407.266 62.0682 411.158 56.6829C413.421 53.5603 415.185 51.4334 416.453 50.3472C418.58 48.5371 420.933 47.0889 423.512 46.048C424.689 45.5502 425.775 45.2788 426.725 45.0978C428.174 44.8715 429.486 44.4642 431.115 44.3736C441.705 43.9211 450.846 49.759 454.693 59.6698C455.326 61.2989 455.643 63.0185 455.734 64.9192C455.824 67.3177 455.734 69.0827 455.507 70.2593C455.145 72.341 454.467 74.3323 453.561 76.2782C452.883 77.6811 451.751 79.4461 450.122 81.6183C440.121 94.9684 430.346 108.002 420.797 120.673C411.656 132.847 403.51 144.07 394.73 155.429C394.323 155.972 394.278 156.47 394.595 156.967C405.094 171.404 424.055 197.335 451.525 234.76C454.783 239.195 456.05 244.671 455.507 250.056C455.417 251.052 455.145 252.319 454.693 253.948C452.521 262.23 446.366 268.068 438.175 270.421C437.27 270.692 435.414 270.919 432.654 271.145C431.613 271.235 430.572 271.145 429.441 270.873C427.993 270.511 426.635 270.511 425.232 269.968C421.114 268.384 417.855 266.257 415.457 263.542C412.47 260.103 409.348 255.215 406.723 251.595C387.535 225.302 367.894 198.24 347.846 170.544C347.801 170.453 347.665 170.453 347.575 170.498C347.53 170.544 347.484 170.589 347.484 170.634C347.484 191.904 347.484 216.93 347.484 245.712C347.484 246.345 347.303 247.703 346.941 249.694C345.267 259.152 338.66 266.348 329.79 269.652C327.618 270.466 324.767 270.828 322.956 271.054C320.558 271.326 318.114 270.828 316.032 270.511C313.815 270.195 310.783 268.927 309.425 268.203C302.23 264.312 297.659 258.474 295.623 250.645C295.125 248.653 295.17 246.662 295.17 244.535C295.17 241.277 295.17 184.12 295.17 73.0199C295.17 70.9834 295.17 69.4447 295.215 68.4491C295.261 66.7747 295.487 65.2813 295.849 63.9689C298.609 54.4655 306.257 46.7722 316.123 44.962C318.838 44.4642 319.879 44.3284 322.232 44.3736C324.043 44.3736 325.717 44.9167 327.618 45.1882C328.161 45.2788 328.885 45.4598 329.745 45.7766C339.339 49.3064 345.855 57.0902 347.213 67.4082C347.394 68.7206 347.484 70.214 347.484 71.9337C347.484 78.7672 347.484 101.621 347.484 140.54C347.575 141.083 347.575 141.852 347.62 142.893Z" fill="white"/>
<path d="M607.156 128.728C607.246 128.864 607.382 128.864 607.518 128.819C607.563 128.819 607.563 128.774 607.563 128.774C613.537 121.578 620.551 115.785 628.697 111.441C632.182 109.586 636.345 107.911 641.187 106.418C642.726 105.965 643.812 105.694 644.446 105.603C646.98 105.241 648.564 104.608 651.37 104.472C651.732 104.472 652.954 104.336 655.035 104.11C658.656 103.703 662.638 103.793 666.937 104.291C667.933 104.427 668.612 104.472 668.974 104.472C670.965 104.472 672.639 105.105 674.314 105.377C675.445 105.558 676.35 105.784 676.984 105.92C683.093 107.594 688.117 109.495 692.099 111.667C703.594 117.912 712.69 126.33 719.433 137.01C724.637 145.246 728.212 153.935 730.203 163.077C730.611 165.023 731.109 166.652 731.335 168.236C731.561 170.091 731.787 171.72 732.059 173.169C732.692 176.744 732.421 180.047 732.692 183.487C733.009 187.016 732.511 191.316 732.511 194.755C732.511 198.104 731.516 201.634 731.335 204.575C731.244 206.159 730.656 207.834 730.203 210.096C729.389 213.898 728.167 218.016 726.493 222.496C718.211 244.58 701.059 262.003 678.161 268.565C676.305 269.108 674.133 269.425 672.051 270.014C671.418 270.195 670.784 270.285 670.105 270.33C669.019 270.376 666.756 270.602 663.408 270.964C662.412 271.054 661.462 271.1 660.556 271.1C659.651 271.054 657.977 271.145 656.755 271.009C653.678 270.647 651.46 270.466 650.057 270.33C648.066 270.195 646.573 269.652 644.717 269.335C643.903 269.199 643.179 269.063 642.59 268.882C628.652 265.262 616.976 258.021 607.563 247.16C607.473 247.069 607.292 247.024 607.201 247.115C607.156 247.16 607.111 247.25 607.111 247.296V252.636C607.111 252.817 607.065 252.953 607.02 253.134C603.943 261.46 598.331 267.027 590.14 269.832C588.239 270.466 586.429 270.557 584.167 270.964C581.678 271.416 579.008 270.557 576.518 270.285C576.292 270.24 576.021 270.195 575.794 270.104C566.608 267.027 560.77 260.917 558.371 251.821C558.009 250.509 557.828 248.88 557.828 246.979C557.783 242.589 557.783 239.829 557.783 238.788C557.693 129.588 557.738 72.341 557.828 67.1819C557.828 66.8651 557.828 66.5032 557.828 66.1412C557.828 65.6434 557.919 65.1002 558.009 64.6024C558.552 62.4302 559.005 60.9821 559.276 60.2128C563.259 50.7093 571.224 44.9167 581.406 44.2831C583.442 44.1474 585.615 44.3736 587.877 44.9166C594.168 46.41 599.191 49.8495 602.902 55.28C604.576 57.7238 606.07 61.2988 606.658 64.1499C606.884 65.3265 607.02 66.8651 607.02 68.7658C607.02 72.2052 607.02 91.9815 607.02 128.049C607.111 128.502 607.156 128.683 607.156 128.728ZM607.382 205.435C611.772 215.391 619.239 222.677 629.648 226.75C631.593 227.519 633.675 227.881 636.255 228.56C636.571 228.651 636.888 228.696 637.205 228.741C641.233 229.058 645.17 229.058 649.062 228.786C651.053 228.651 652.637 228.017 654.221 227.7C655.352 227.474 656.619 227.112 658.067 226.614C669.11 222.587 677.391 213.264 680.514 201.95C680.966 200.321 681.509 198.964 681.645 197.561C681.645 197.47 682.007 195.162 682.777 190.592C682.867 189.913 682.912 187.876 682.822 184.482C682.777 182.898 682.641 181.179 682.324 179.459C681.736 176.155 681.464 174.481 681.464 174.481C679.518 165.792 674.676 156.741 667.435 151.446C664.086 149.003 660.466 147.147 656.619 145.835C655.307 145.382 653.949 145.156 652.546 144.749C651.641 144.477 650.6 144.296 649.424 144.206C645.396 143.843 641.504 143.889 637.658 144.251C636.617 144.341 635.802 144.477 635.214 144.703C633.087 145.382 631.322 145.699 629.24 146.513C619.329 150.405 612.043 157.194 607.427 166.923C607.201 167.376 607.111 167.828 607.111 168.326V204.168C607.111 204.575 607.201 205.028 607.382 205.435Z" fill="white"/>
<path d="M528.684 187.786C528.684 221.093 528.684 239.15 528.684 242.046C528.684 245.667 528.548 248.789 527.915 252.183C527.824 252.772 527.417 253.903 526.693 255.623C523.48 263.588 516.42 269.018 508.139 270.647C505.65 271.145 503.296 271.281 501.124 270.964C491.44 269.742 483.792 263.95 480.216 254.899C479.447 252.908 478.949 250.826 478.768 248.744C478.768 248.518 478.723 246.391 478.723 242.409C478.723 237.657 478.723 219.464 478.723 187.786C478.723 156.108 478.723 137.915 478.723 133.164C478.723 129.181 478.723 127.054 478.768 126.828C478.949 124.746 479.447 122.71 480.216 120.673C483.792 111.622 491.44 105.83 501.124 104.608C503.296 104.336 505.65 104.427 508.139 104.925C516.42 106.599 523.48 111.984 526.693 119.949C527.372 121.669 527.779 122.8 527.915 123.389C528.548 126.783 528.684 129.905 528.684 133.526C528.684 136.422 528.684 154.479 528.684 187.786Z" fill="white"/>
<path d="M778.807 104.472C779.803 104.472 780.572 104.517 781.115 104.563C790.799 105.83 797.633 110.808 801.706 119.497C802.52 121.216 803.109 123.253 803.471 125.516C803.697 127.009 803.833 129.091 803.833 131.806C803.833 135.969 803.833 154.614 803.833 187.831C803.833 221.003 803.833 239.693 803.833 243.857C803.833 246.572 803.697 248.654 803.471 250.147C803.109 252.455 802.52 254.446 801.706 256.166C797.633 264.81 790.799 269.788 781.115 271.055C780.572 271.145 779.803 271.145 778.807 271.145C777.811 271.145 777.042 271.1 776.499 271.055C766.814 269.788 759.981 264.81 755.908 256.166C755.093 254.446 754.505 252.41 754.143 250.147C753.917 248.654 753.781 246.572 753.781 243.857C753.781 239.693 753.781 221.048 753.781 187.877C753.781 154.705 753.781 136.015 753.781 131.851C753.781 129.136 753.917 127.054 754.143 125.561C754.505 123.253 755.093 121.262 755.908 119.542C759.981 110.898 766.814 105.92 776.499 104.653C777.087 104.517 777.857 104.472 778.807 104.472Z" fill="white"/>
<path d="M503.613 44.5098C506.917 44.5098 509.949 45.0981 513.071 45.9579C523.661 48.8994 531.173 57.9052 531.128 69.1736C531.037 80.442 523.435 89.3572 512.8 92.163C509.677 92.9776 506.645 93.5206 503.342 93.4753C500.038 93.4753 497.006 92.887 493.883 92.0272C483.294 89.0856 475.781 80.0799 475.827 68.8115C475.872 57.5431 483.52 48.6279 494.155 45.8221C497.277 45.0075 500.355 44.5098 503.613 44.5098Z" fill="#95C16B"/>
<path d="M778.852 44.5097C791.84 44.6002 803.426 51.7052 806.005 65.0101C806.141 65.7341 806.186 67.5896 806.141 70.4406C806.096 72.5224 805.869 74.2872 805.417 75.7806C803.561 81.8447 799.805 86.506 794.103 89.7191C789.261 92.4343 783.151 93.5205 778.49 93.4752C773.829 93.43 767.72 92.2986 762.923 89.4928C757.311 86.1892 753.6 81.4827 751.835 75.3734C751.383 73.8799 751.156 72.0698 751.156 69.9881C751.156 67.0918 751.247 65.2816 751.383 64.5575C754.188 51.2979 765.864 44.4192 778.852 44.5097Z" fill="#95C16B"/>
<path d="M237.697 96.2357C237.923 96.5072 238.285 96.6429 238.783 96.7787C239.326 96.9145 239.688 97.0503 239.914 97.1408C243.218 98.951 244.847 101.802 244.847 105.739C244.847 110.219 244.847 115.243 244.847 120.809C244.847 120.99 244.711 121.08 244.53 121.08H221.36C221.224 121.08 221.133 120.99 221.133 120.854C221.133 118.818 221.133 113.84 221.133 105.965C221.133 103.431 221.767 101.304 223.034 99.6298C224.165 98.1364 225.795 97.0049 227.831 96.2809C231.225 96.0093 234.484 95.9642 237.697 96.2357Z" fill="#95C16B"/>
<path d="M88.2136 212.421C96.0108 212.325 102.251 205.684 102.153 197.587C102.054 189.49 95.6525 183.003 87.8553 183.098C80.0581 183.194 73.8175 189.835 73.9164 197.932C74.0153 206.029 80.4164 212.516 88.2136 212.421Z" fill="#95C16B"/>
<path d="M167.241 212.399C175.013 212.318 181.245 205.688 181.16 197.591C181.075 189.494 174.706 182.996 166.934 183.077C159.161 183.159 152.93 189.789 153.014 197.886C153.099 205.983 159.469 212.481 167.241 212.399Z" fill="#95C16B"/>
</svg>
