<svg width="286" height="387" viewBox="0 0 286 387" fill="none" xmlns="http://www.w3.org/2000/svg">
<path d="M20.0905 263.691C21.6022 264.348 25.2889 264.288 25.2889 264.288C25.2889 264.288 24.5002 261.898 24.4285 261.731C23.6159 260.034 21.0585 257.244 18.9791 257.548C18.6375 257.605 18.3116 257.733 18.0221 257.923C17.7327 258.113 17.4861 258.361 17.2982 258.652C17.1103 258.943 16.9852 259.269 16.931 259.611C16.8768 259.953 16.8947 260.303 16.9834 260.638C17.33 262.06 18.8118 263.129 20.0905 263.691Z" fill="#92E3A9"/>
<path d="M21.3631 274.381C22.9286 274.608 26.2209 273.652 26.4779 273.574C27.0206 275.456 27.6873 277.301 28.4736 279.095C28.9277 280.147 29.4177 281.186 29.9196 282.226C29.6208 281.784 29.3221 281.395 29.3221 281.342C28.127 279.926 24.8885 277.906 22.9585 278.725C22.6409 278.869 22.3574 279.08 22.1264 279.341C21.8954 279.603 21.7221 279.91 21.6178 280.244C21.5135 280.577 21.4806 280.928 21.5211 281.275C21.5617 281.621 21.6748 281.956 21.8531 282.256C22.5701 283.558 24.279 284.198 25.6652 284.401C27.0515 284.604 29.8957 283.851 30.6366 283.636C30.8338 284.036 31.025 284.431 31.2341 284.831C32.1842 286.731 33.1402 288.619 34.0245 290.502C34.3412 291.165 34.622 291.828 34.9088 292.491C34.64 292.103 34.4129 291.774 34.3711 291.727C33.176 290.31 29.9375 288.291 28.0075 289.115C27.6899 289.26 27.4064 289.47 27.1754 289.732C26.9444 289.994 26.7711 290.301 26.6668 290.634C26.5625 290.967 26.5296 291.319 26.5701 291.666C26.6107 292.012 26.7238 292.347 26.9021 292.647C27.6191 293.943 29.328 294.589 30.7143 294.786C32.1005 294.983 34.6698 294.308 35.5542 294.063C35.823 294.75 36.0979 295.437 36.3309 296.118C36.4803 296.584 36.6536 297.026 36.7731 297.505L37.1675 298.903C37.3826 299.799 37.6096 300.725 37.765 301.603C37.9024 302.201 38.0219 302.799 38.1414 303.396C37.8367 302.733 37.2153 301.448 37.1555 301.347C36.1577 299.757 33.2955 297.277 31.258 297.791C30.9222 297.887 30.6104 298.053 30.3428 298.277C30.0751 298.502 29.8576 298.78 29.7043 299.094C29.5511 299.407 29.4655 299.75 29.4532 300.099C29.4409 300.448 29.502 300.796 29.6328 301.119C30.1466 302.512 31.736 303.402 33.0745 303.814C34.5503 304.262 37.8188 303.85 38.2251 303.814C38.4222 304.794 38.6015 305.744 38.7569 306.641C39.1094 308.63 39.3544 310.411 39.5695 311.917H40.9497C40.7107 310.357 40.3941 308.499 39.9818 306.413C39.7846 305.422 39.5575 304.364 39.3125 303.282C40.3006 302.87 41.2624 302.397 42.1926 301.866C43.2681 303.032 46.0227 304.394 46.3752 304.567C46.0047 305.493 45.6283 306.36 45.2638 307.22C44.499 308.971 43.776 310.53 43.1367 311.851H44.6305C45.1742 310.656 45.7777 309.246 46.423 307.704C46.8054 306.772 47.1998 305.762 47.618 304.717C48.0124 304.8 51.245 305.451 52.7507 305.117C54.113 304.806 55.7383 304.029 56.3836 302.679C56.5382 302.366 56.6252 302.025 56.6389 301.676C56.6525 301.328 56.5926 300.981 56.4629 300.657C56.3332 300.333 56.1367 300.041 55.8862 299.798C55.6358 299.556 55.337 299.369 55.0093 299.249C53.0196 298.58 49.9782 300.839 48.8668 302.35C48.8011 302.434 48.1976 303.48 47.8272 304.143C47.9825 303.719 48.1439 303.306 48.2992 302.87C48.6159 302.004 48.8967 301.131 49.2254 300.187C49.3628 299.733 49.5002 299.267 49.6436 298.801C49.787 298.335 49.8886 297.833 50.0141 297.343C50.2889 296.208 50.504 295.043 50.7012 293.866C51.4601 294.14 54.1728 295.061 55.571 294.983C56.9692 294.905 58.7259 294.385 59.5325 293.131C59.7296 292.845 59.8648 292.522 59.9295 292.181C59.9942 291.841 59.987 291.491 59.9082 291.153C59.8294 290.815 59.6809 290.498 59.4721 290.221C59.2633 289.944 58.999 289.714 58.696 289.546C56.8318 288.584 53.4857 290.358 52.1532 291.679C52.0695 291.762 51.227 292.82 50.7729 293.406C50.8805 292.7 51 291.989 51.0896 291.272C51.3465 289.187 51.5437 287.09 51.7469 284.963C51.8126 284.317 51.8783 283.672 51.95 283.027C52.2189 283.128 55.4156 284.317 56.9871 284.222C58.3853 284.12 60.136 283.624 60.9427 282.369C61.1409 282.085 61.2773 281.762 61.3429 281.421C61.4085 281.081 61.402 280.73 61.3237 280.392C61.2454 280.054 61.0972 279.737 60.8885 279.46C60.6798 279.183 60.4153 278.953 60.1121 278.784C58.2419 277.816 54.8958 279.591 53.5394 280.917C53.4379 281.019 52.2189 282.537 51.9321 282.943C52.0815 281.521 52.2428 280.111 52.4579 278.725C52.7354 276.852 53.1346 275 53.653 273.18C53.7784 273.227 57.1066 274.482 58.7199 274.375C60.1181 274.279 61.8688 273.777 62.6755 272.522C62.8737 272.238 63.0101 271.915 63.0757 271.574C63.1413 271.234 63.1348 270.883 63.0565 270.545C62.9782 270.207 62.83 269.89 62.6213 269.613C62.4126 269.336 62.1481 269.106 61.8449 268.937C59.9747 267.975 56.6286 269.75 55.2722 271.07C55.1647 271.172 53.8561 272.809 53.641 273.126C53.641 273.018 53.6948 272.911 53.7247 272.803C54.3017 270.993 55.0376 269.238 55.9235 267.557C56.4015 266.619 56.9094 265.764 57.4233 264.922C58.0208 265.221 60.7574 266.547 62.2034 266.607C63.6494 266.667 65.4002 266.344 66.3442 265.203C66.5748 264.941 66.7476 264.633 66.8513 264.299C66.955 263.966 66.9874 263.615 66.9462 263.268C66.9051 262.921 66.7913 262.587 66.6125 262.287C66.4336 261.988 66.1936 261.729 65.908 261.528C64.1573 260.363 60.6379 261.761 59.168 262.932C59.0904 262.992 58.3494 263.733 57.8236 264.277C58.0567 263.9 58.2957 263.512 58.5287 263.159C59.4071 261.839 60.3213 260.679 61.0921 259.664C61.5462 259.066 61.9704 258.576 62.3707 258.098C63.1057 258.098 66.0813 257.997 67.3779 257.387C68.6745 256.778 70.0966 255.684 70.4014 254.232C70.4851 253.894 70.4965 253.541 70.4349 253.198C70.3733 252.854 70.2402 252.527 70.044 252.239C69.8479 251.95 69.5932 251.706 69.2965 251.523C68.9998 251.339 68.6678 251.22 68.322 251.173C66.2367 250.946 63.757 253.808 62.9922 255.523C62.9264 255.672 62.1616 258.104 62.1975 258.104H62.3349C61.9405 258.552 61.5223 259.036 61.0741 259.574C60.2555 260.578 59.3413 261.719 58.4331 263.028C57.4359 264.43 56.5202 265.888 55.6905 267.396C54.7566 269.077 53.9747 270.839 53.3542 272.66V272.725C53.3542 272.128 53.3542 270.389 53.3184 270.258C53.0793 268.399 51.5258 264.946 49.4524 264.563C49.1077 264.509 48.7554 264.528 48.4186 264.619C48.0817 264.71 47.7678 264.871 47.4973 265.092C47.2267 265.312 47.0056 265.587 46.8483 265.899C46.691 266.21 46.6011 266.551 46.5843 266.9C46.4648 268.382 47.5404 269.857 48.58 270.789C49.7751 271.847 53.0315 272.863 53.2885 272.947C52.7052 274.815 52.2442 276.719 51.9082 278.647C51.711 279.77 51.5437 280.911 51.3884 282.053C51.3884 281.521 51.3884 281.043 51.3884 280.977C51.1434 279.119 49.5958 275.665 47.5224 275.283C47.1774 275.23 46.825 275.25 46.4881 275.341C46.1513 275.433 45.8375 275.595 45.567 275.816C45.2966 276.036 45.0756 276.312 44.9184 276.623C44.7612 276.935 44.6712 277.276 44.6544 277.625C44.5348 279.101 45.6044 280.583 46.6501 281.515C47.6957 282.447 50.3845 283.343 51.1434 283.588C51.0896 284.03 51.0299 284.467 50.9761 284.909C50.7251 287.012 50.4861 289.121 50.1814 291.177C50.0798 291.9 49.9484 292.611 49.8169 293.322C49.8169 292.85 49.8169 292.45 49.8169 292.39C49.5779 290.531 48.0243 287.078 45.951 286.695C45.6066 286.641 45.2546 286.66 44.9181 286.751C44.5815 286.843 44.268 287.004 43.9979 287.224C43.7278 287.445 43.5073 287.719 43.3506 288.031C43.194 288.342 43.1048 288.683 43.0889 289.032C42.9634 290.514 44.0389 292.019 45.0786 292.922C46.1183 293.824 48.6637 294.714 49.5181 294.989C49.3628 295.712 49.2134 296.435 49.0282 297.134C48.8967 297.6 48.8011 298.066 48.6398 298.532C48.4785 298.998 48.341 299.458 48.1917 299.912C47.875 300.779 47.5583 301.675 47.2297 302.518C47.0026 303.115 46.7755 303.653 46.5545 304.209C46.668 303.492 46.8592 302.076 46.8652 301.956C46.8384 300.306 46.3922 298.69 45.5686 297.26C45.5745 297.076 45.5625 296.891 45.5327 296.71C45.4892 296.364 45.3734 296.031 45.1929 295.733C45.0124 295.435 44.7712 295.178 44.4849 294.979C44.1987 294.78 43.8738 294.644 43.5313 294.578C43.1889 294.513 42.8366 294.521 42.4973 294.601C40.4658 295.144 39.1751 298.706 39.0795 300.576C39.0795 300.689 39.1512 301.896 39.205 302.655C39.1034 302.213 39.0078 301.783 38.9003 301.329C38.6852 300.432 38.4461 299.536 38.1952 298.586C38.0578 298.126 37.9144 297.666 37.7769 297.194C37.6395 296.722 37.4483 296.256 37.287 295.778C36.8807 294.678 36.4206 293.585 35.9366 292.497C36.7193 292.306 39.5217 291.601 40.6151 290.741C41.7086 289.88 42.9036 288.494 42.8976 287.012C42.9062 286.664 42.8416 286.317 42.7079 285.995C42.5743 285.674 42.3746 285.383 42.1217 285.143C41.8689 284.903 41.5685 284.719 41.24 284.603C40.9116 284.486 40.5623 284.44 40.2148 284.467C38.1235 284.694 36.313 288.022 35.9306 289.844C35.9306 289.958 35.7872 291.308 35.7334 292.049C35.4347 291.398 35.1359 290.741 34.8132 290.089C33.8811 288.213 32.8773 286.337 31.8854 284.467C31.5807 283.869 31.2879 283.319 30.9891 282.74C31.27 282.68 34.5742 281.909 35.841 280.947C36.9524 280.093 38.1295 278.701 38.1175 277.219C38.127 276.87 38.063 276.523 37.9297 276.201C37.7963 275.879 37.5967 275.588 37.3436 275.348C37.0906 275.108 36.7898 274.924 36.4609 274.807C36.132 274.691 35.7824 274.646 35.4347 274.673C33.3493 274.9 31.5329 278.229 31.1564 280.051C31.1266 280.188 30.9533 282.13 30.9354 282.626C30.2721 281.36 29.6328 280.093 29.0472 278.814C28.2484 277.096 27.5638 275.328 26.9977 273.52C27.1292 273.49 30.5828 272.702 31.8794 271.728C32.9908 270.873 34.1679 269.481 34.1619 267.999C34.1715 267.65 34.1074 267.303 33.9737 266.98C33.84 266.657 33.6398 266.366 33.386 266.126C33.1323 265.886 32.8308 265.702 32.5012 265.586C32.1716 265.47 31.8213 265.425 31.4731 265.454C29.3878 265.681 27.5773 269.003 27.1949 270.831C27.1949 270.975 26.9798 273.06 26.9738 273.442C26.938 273.341 26.8961 273.233 26.8663 273.126C26.3453 271.299 25.9893 269.429 25.8027 267.539C25.6832 266.493 25.6294 265.49 25.5995 264.516C26.2628 264.432 29.2802 264.032 30.529 263.273C31.7779 262.514 33.0565 261.295 33.2059 259.819C33.2539 259.473 33.2285 259.121 33.1313 258.786C33.0341 258.45 32.8673 258.139 32.6418 257.872C32.4163 257.606 32.1372 257.39 31.8226 257.238C31.5079 257.086 31.1649 257.003 30.8158 256.993C28.7186 256.993 26.5496 260.094 25.976 261.881C25.9401 261.976 25.731 262.998 25.5876 263.745C25.5876 263.303 25.5876 262.848 25.5876 262.424C25.5876 260.835 25.6891 259.383 25.7907 258.098C25.8505 257.363 25.9222 256.706 25.9939 256.085C26.5914 255.666 29.0293 253.957 29.7821 252.727C30.535 251.496 31.1027 249.805 30.5589 248.43C30.4404 248.096 30.2519 247.792 30.0061 247.537C29.7602 247.282 29.4626 247.082 29.1333 246.951C28.804 246.82 28.4505 246.762 28.0966 246.779C27.7427 246.796 27.3966 246.888 27.0814 247.05C25.2111 248.018 24.6913 251.771 25.0319 253.623C25.0319 253.784 25.7609 256.234 25.7967 256.216L25.8326 256.186C25.7489 256.784 25.6712 257.417 25.5935 258.11C25.4681 259.401 25.3306 260.859 25.2948 262.448C25.2347 264.166 25.2766 265.886 25.4203 267.599C25.5677 269.517 25.8856 271.419 26.3703 273.281C26.3703 273.281 26.3703 273.329 26.3703 273.347C26.0417 272.833 25.0677 271.411 24.9781 271.309C23.7831 269.893 20.5505 267.874 18.6145 268.692C18.2974 268.838 18.0145 269.048 17.7841 269.31C17.5538 269.572 17.3811 269.88 17.2774 270.213C17.1737 270.546 17.1413 270.897 17.1822 271.243C17.2232 271.59 17.3366 271.924 17.5151 272.224C18.268 273.52 19.9769 274.165 21.3631 274.381Z" fill="#92E3A9"/>
<path d="M57.3815 264.498C57.4113 264.498 58.0507 262.048 58.0746 261.892C58.3315 260.034 57.74 256.294 55.8458 255.38C55.5284 255.236 55.1841 255.16 54.8355 255.159C54.487 255.157 54.142 255.229 53.8233 255.37C53.5045 255.511 53.2192 255.718 52.9859 255.977C52.7527 256.236 52.5768 256.542 52.4699 256.873C51.962 258.266 52.6013 259.98 53.3661 261.152C54.2564 262.532 57.3755 264.498 57.3815 264.498Z" fill="#92E3A9"/>
<path d="M66.0873 281.294C67.0433 281.712 69.3856 281.658 69.3856 281.658C69.3856 281.658 68.8837 280.123 68.8419 280.033C68.328 278.958 66.7028 277.183 65.3822 277.362C65.165 277.4 64.9581 277.483 64.7748 277.606C64.5915 277.728 64.4358 277.888 64.3177 278.074C64.1995 278.26 64.1216 278.469 64.0889 278.687C64.0561 278.905 64.0692 279.127 64.1275 279.34C64.3366 280.254 65.2747 280.953 66.0873 281.294Z" fill="#92E3A9"/>
<path d="M66.8943 288.069C67.8862 288.213 69.9775 287.609 70.1448 287.562C70.4873 288.756 70.9106 289.926 71.4116 291.063C71.6984 291.726 72.0091 292.39 72.3258 293.047C72.1346 292.766 71.9613 292.521 71.9374 292.491C71.1547 291.589 69.1231 290.304 67.8982 290.83C67.6962 290.921 67.5159 291.055 67.369 291.221C67.2222 291.387 67.1121 291.582 67.0461 291.794C66.9801 292.005 66.9596 292.228 66.9859 292.449C67.0123 292.669 67.0849 292.881 67.1991 293.071C67.6472 293.895 68.7347 294.302 69.5892 294.427C70.4436 294.553 72.272 294.08 72.744 293.943L73.1205 294.702C73.718 295.897 74.3155 297.092 74.913 298.287C75.1102 298.705 75.2895 299.13 75.4687 299.548C75.3014 299.303 75.158 299.094 75.1281 299.064C74.3514 298.168 72.3198 296.883 71.0889 297.403C70.8876 297.495 70.708 297.628 70.5617 297.795C70.4153 297.961 70.3057 298.156 70.2397 298.367C70.1738 298.579 70.1531 298.801 70.1789 299.021C70.2048 299.241 70.2766 299.453 70.3898 299.643C70.8439 300.468 71.9314 300.88 72.7799 301.006C73.8213 301.013 74.8574 300.857 75.8511 300.546C76.0244 300.982 76.1977 301.418 76.3411 301.848C76.4367 302.147 76.5502 302.446 76.6279 302.733C76.7056 303.019 76.7892 303.33 76.8729 303.617C77.0103 304.185 77.1537 304.776 77.2732 305.332C77.3629 305.72 77.4346 306.091 77.5122 306.467C77.321 306.043 76.9147 305.23 76.8848 305.164C76.2515 304.155 74.435 302.583 73.1444 302.912C72.9311 302.972 72.7329 303.077 72.5627 303.219C72.3926 303.36 72.2542 303.537 72.1567 303.736C72.0591 303.935 72.0046 304.152 71.9967 304.373C71.9888 304.595 72.0276 304.816 72.1107 305.021C72.4393 305.905 73.4491 306.473 74.2976 306.73C75.1461 306.987 77.2852 306.73 77.566 306.73C77.6915 307.327 77.805 307.955 77.9006 308.523C78.1277 309.783 78.295 310.913 78.4205 311.869H79.2928C79.1435 310.877 78.9403 309.7 78.6953 308.373C78.5758 307.776 78.4264 307.077 78.2711 306.389C78.8977 306.143 79.5084 305.858 80.0995 305.535C80.9066 306.225 81.8055 306.8 82.7704 307.244C82.5314 307.841 82.2983 308.397 82.0653 308.929C81.5813 310.04 81.1212 311.026 80.7149 311.869H81.659C82.0115 311.092 82.394 310.213 82.7943 309.234C83.0333 308.636 83.2842 308.003 83.5352 307.345C83.7862 307.399 85.8356 307.817 86.7917 307.602C87.6581 307.405 88.7097 306.915 89.0981 306.055C89.1963 305.856 89.2516 305.639 89.2604 305.418C89.2691 305.196 89.2311 304.975 89.1488 304.77C89.0665 304.564 88.9417 304.378 88.7827 304.223C88.6236 304.069 88.4339 303.95 88.2257 303.874C86.965 303.45 85.035 304.884 84.3299 305.846C84.2881 305.899 83.9057 306.563 83.6667 306.987L83.9714 306.18C84.1746 305.631 84.3538 305.075 84.5689 304.477C84.6585 304.185 84.7422 303.88 84.8318 303.599C84.9214 303.318 84.9932 303.001 85.0708 302.673C85.2441 301.95 85.3815 301.209 85.507 300.462C86.4929 300.86 87.5355 301.1 88.5962 301.173C89.4865 301.113 90.5979 300.785 91.1117 299.978C91.239 299.797 91.3265 299.591 91.3687 299.374C91.4109 299.157 91.4068 298.933 91.3566 298.718C91.3064 298.502 91.2112 298.3 91.0774 298.124C90.9436 297.948 90.7741 297.802 90.5799 297.695C89.3849 297.098 87.2697 298.209 86.4272 299.046C86.3734 299.1 85.8297 299.769 85.5488 300.145C85.6205 299.697 85.6922 299.243 85.752 298.789C85.9133 297.468 86.0388 296.124 86.1703 294.786L86.2957 293.555C86.469 293.62 88.4946 294.373 89.4925 294.308C90.3828 294.242 91.4941 293.919 92.008 293.113C92.1353 292.931 92.223 292.725 92.2652 292.507C92.3074 292.29 92.3033 292.065 92.2532 291.85C92.203 291.634 92.1079 291.431 91.974 291.254C91.8401 291.077 91.6705 290.931 91.4762 290.824C90.2812 290.227 88.166 291.338 87.3235 292.18C87.2637 292.24 86.4869 293.208 86.3017 293.465C86.3973 292.563 86.5049 291.673 86.6423 290.788C86.8192 289.599 87.0747 288.424 87.4071 287.269C87.4908 287.299 89.6 288.093 90.6218 288.022C91.5121 287.962 92.6234 287.633 93.1373 286.827C93.2645 286.646 93.3521 286.44 93.3943 286.223C93.4365 286.005 93.4323 285.782 93.3821 285.566C93.3319 285.351 93.2368 285.149 93.103 284.972C92.9692 284.796 92.7996 284.65 92.6055 284.544C91.4105 283.947 89.3013 285.058 88.4528 285.895C88.3871 285.96 87.5565 287 87.4191 287.203C87.4191 287.137 87.4549 287.066 87.4729 287C87.8374 285.849 88.3053 284.733 88.871 283.666C89.1698 283.068 89.4686 282.525 89.8211 281.993C90.1975 282.184 91.9363 283.026 92.8684 283.062C93.8006 283.098 94.894 282.901 95.4915 282.172C95.6377 282.006 95.7472 281.811 95.813 281.599C95.8788 281.388 95.8994 281.165 95.8735 280.946C95.8476 280.726 95.7757 280.514 95.6625 280.324C95.5494 280.134 95.3975 279.969 95.2167 279.842C94.1053 279.101 91.8706 279.991 90.9384 280.732C90.8906 280.774 90.4186 281.24 90.084 281.586C90.2334 281.347 90.3887 281.102 90.5381 280.875C91.0938 280.039 91.6555 279.304 92.1574 278.659C92.4502 278.294 92.7191 277.965 92.97 277.667C93.442 277.667 95.3242 277.601 96.1488 277.213C96.9734 276.824 97.8756 276.131 98.0728 275.211C98.126 274.996 98.1333 274.772 98.0942 274.554C98.0551 274.336 97.9705 274.128 97.8459 273.945C97.7213 273.762 97.5596 273.607 97.3711 273.491C97.1827 273.374 96.9719 273.299 96.7523 273.269C95.4258 273.126 93.8484 274.942 93.3644 276.03C93.3225 276.125 92.8386 277.667 92.8625 277.667H92.8923C92.6414 277.954 92.3725 278.264 92.0917 278.605C91.5718 279.238 90.9922 279.961 90.4186 280.792C89.7836 281.68 89.2029 282.606 88.6798 283.564C88.0856 284.631 87.5877 285.749 87.192 286.904C87.1928 286.918 87.1928 286.932 87.192 286.946C87.192 286.558 87.192 285.464 87.192 285.381C87.0426 284.186 86.0508 282.011 84.7422 281.766C84.5252 281.736 84.3046 281.753 84.0942 281.813C83.8837 281.873 83.6881 281.977 83.5197 282.117C83.3512 282.256 83.2136 282.43 83.1155 282.625C83.0174 282.821 82.9609 283.035 82.9496 283.253C82.8779 284.192 83.5472 285.13 84.2164 285.721C84.8856 286.313 87.0426 287.036 87.204 287.084C86.8313 288.27 86.5379 289.479 86.3256 290.705C86.1942 291.422 86.0926 292.145 85.997 292.868C85.997 292.533 85.997 292.228 85.997 292.186C85.8416 290.991 84.8497 288.816 83.5412 288.601C83.3241 288.571 83.1031 288.587 82.8923 288.647C82.6815 288.707 82.4855 288.81 82.3168 288.95C82.1482 289.09 82.0106 289.264 81.9127 289.46C81.8149 289.656 81.759 289.87 81.7486 290.089C81.671 291.021 82.3462 291.965 83.0094 292.557C83.9026 293.149 84.8822 293.598 85.9133 293.889L85.8058 294.726C85.6444 296.064 85.4951 297.403 85.3039 298.705C85.2322 299.165 85.1485 299.619 85.0708 300.068C85.0708 299.769 85.0708 299.518 85.0708 299.47C84.9214 298.275 83.9296 296.1 82.621 295.855C82.404 295.826 82.1834 295.842 81.973 295.902C81.7626 295.963 81.5669 296.066 81.3985 296.206C81.23 296.346 81.0924 296.519 80.9943 296.715C80.8962 296.91 80.8397 297.124 80.8285 297.343C80.7508 298.281 81.426 299.219 82.0952 299.811C82.9594 300.391 83.909 300.832 84.9095 301.119C84.8139 301.579 84.7183 302.039 84.5988 302.482C84.5151 302.78 84.4554 303.079 84.3538 303.372L83.9057 304.256C83.7085 304.806 83.5053 305.38 83.3082 305.911C83.1648 306.282 83.0213 306.634 82.8779 306.987C82.9496 306.527 83.0751 305.631 83.0751 305.553C83.062 304.503 82.7801 303.475 82.2565 302.565C82.2654 302.448 82.2654 302.33 82.2565 302.213C82.229 301.993 82.1554 301.781 82.0406 301.592C81.9258 301.402 81.7724 301.239 81.5903 301.113C81.4082 300.986 81.2015 300.9 80.9838 300.859C80.7661 300.818 80.5421 300.823 80.3265 300.874C79.0419 301.221 78.2233 303.479 78.1635 304.669C78.1635 304.74 78.2053 305.505 78.2412 305.989C78.1755 305.708 78.1157 305.433 78.044 305.147C77.9126 304.549 77.7572 304.011 77.6019 303.402L77.333 302.523C77.2493 302.225 77.1238 301.926 77.0223 301.621C76.7653 300.922 76.4726 300.229 76.1618 299.536C76.6638 299.416 78.4264 298.938 79.1494 298.424C79.8724 297.911 80.6014 296.996 80.5954 296.034C80.6021 295.813 80.5619 295.593 80.4775 295.388C80.393 295.183 80.2662 294.999 80.1054 294.846C79.9446 294.694 79.7534 294.577 79.5444 294.504C79.3354 294.431 79.1132 294.402 78.8925 294.421C77.566 294.564 76.4128 296.674 76.1738 297.839C76.1738 297.911 76.0842 298.771 76.0483 299.237C75.8571 298.825 75.6719 298.412 75.4508 297.994C74.8533 296.799 74.2199 295.604 73.5865 294.409L73.0189 293.316C73.1982 293.274 75.3074 292.784 76.0961 292.174C76.8848 291.565 77.5541 290.746 77.5481 289.784C77.553 289.563 77.5113 289.343 77.4259 289.139C77.3404 288.934 77.2131 288.75 77.052 288.598C76.891 288.446 76.6998 288.329 76.4909 288.256C76.282 288.182 76.06 288.153 75.8392 288.171C74.5187 288.314 73.3655 290.424 73.1265 291.589C73.1265 291.678 72.995 292.909 72.9831 293.226C72.5648 292.419 72.1585 291.613 71.788 290.836C71.2816 289.746 70.8464 288.624 70.4854 287.478C70.5691 287.478 72.7739 286.958 73.5865 286.331C74.2916 285.793 75.0385 284.909 75.0325 283.941C75.0392 283.719 74.999 283.499 74.9146 283.294C74.8301 283.089 74.7033 282.905 74.5425 282.752C74.3817 282.6 74.1906 282.483 73.9815 282.41C73.7725 282.337 73.5503 282.309 73.3296 282.327C72.0031 282.471 70.8499 284.58 70.6109 285.745C70.6109 285.841 70.4735 287.161 70.4675 287.406C70.4675 287.34 70.4197 287.275 70.4018 287.203C70.0707 286.045 69.8447 284.859 69.7266 283.66C69.6549 282.997 69.619 282.357 69.6011 281.736C70.0194 281.688 71.9374 281.431 72.7321 280.953C73.5268 280.475 74.3334 279.692 74.429 278.754C74.4584 278.535 74.4414 278.312 74.3793 278.099C74.3171 277.887 74.2111 277.69 74.0681 277.521C73.9251 277.352 73.7482 277.215 73.549 277.119C73.3498 277.022 73.1325 276.969 72.9113 276.962C71.5789 276.962 70.2046 278.933 69.8341 280.069C69.8341 280.128 69.6848 280.774 69.5892 281.264C69.5892 280.983 69.5892 280.666 69.5892 280.427C69.5892 279.417 69.6549 278.491 69.7206 277.679C69.7565 277.213 69.8043 276.794 69.8521 276.4C70.2345 276.137 71.7761 275.05 72.2421 274.273C72.7082 273.496 73.0787 272.415 72.7381 271.542C72.6636 271.333 72.546 271.142 72.393 270.982C72.24 270.821 72.055 270.695 71.85 270.61C71.6449 270.526 71.4244 270.485 71.2027 270.491C70.9811 270.497 70.7631 270.55 70.5631 270.646C69.3681 271.243 69.0693 273.633 69.2665 274.828C69.2665 274.93 69.7266 276.49 69.7505 276.472C69.6967 276.848 69.6429 277.248 69.5951 277.667C69.5174 278.485 69.4338 279.411 69.4099 280.421C69.3688 281.511 69.3947 282.603 69.4876 283.69C69.5802 284.9 69.7802 286.1 70.0851 287.275C70.0886 287.288 70.0886 287.303 70.0851 287.317C69.876 286.988 69.2605 286.086 69.2067 286.02C68.424 285.118 66.3924 283.839 65.1675 284.359C64.9656 284.45 64.7852 284.583 64.6384 284.75C64.4915 284.916 64.3815 285.111 64.3155 285.322C64.2494 285.534 64.2289 285.757 64.2553 285.977C64.2817 286.197 64.3543 286.41 64.4684 286.6C64.9345 287.526 66.016 287.938 66.8943 288.069Z" fill="#92E3A9"/>
<path d="M89.7556 281.808C89.7556 281.808 90.1798 280.248 90.1977 280.147C90.3591 278.952 89.9826 276.598 88.7816 276.018C88.5797 275.927 88.3611 275.88 88.1398 275.88C87.9186 275.879 87.6997 275.925 87.4974 276.015C87.2951 276.105 87.1139 276.236 86.9656 276.4C86.8173 276.564 86.7051 276.758 86.6365 276.968C86.3139 277.852 86.7202 278.934 87.234 279.681C87.7718 280.559 89.7556 281.808 89.7556 281.808Z" fill="#92E3A9"/>
<path d="M153.157 86.617C152.315 85.7446 150.851 84.938 148.312 84.8782C142.605 84.7348 144.129 88.7741 142.605 89.748C141.082 90.722 140.651 89.1923 139.122 90.1663C137.592 91.1402 138.285 93.0881 137.036 93.369C135.788 93.6498 134.109 92.1142 132.579 93.0881C131.049 94.0621 131.049 94.8807 130.35 94.8807C129.651 94.8807 128.265 94.325 127.428 94.8807C126.592 95.4364 125.636 96.1355 125.636 96.1355H140.574" stroke="#263238" stroke-linecap="round" stroke-linejoin="round"/>
<path d="M154.699 89.1084L154.269 88.9112C154.202 88.3925 154.027 87.8937 153.755 87.4473" stroke="#263238" stroke-linecap="round" stroke-linejoin="round"/>
<path d="M142.45 96.1532H160.812C160.812 96.1532 161.23 94.8984 159.695 94.0619C158.159 93.2253 157.472 93.9244 156.91 93.2313C156.348 92.5382 158.016 91.1042 155.428 89.5088" stroke="#263238" stroke-linecap="round" stroke-linejoin="round"/>
<path d="M81.1867 124.691C80.3442 123.812 78.8803 123.012 76.3408 122.946C70.6345 122.808 72.1582 126.848 70.6345 127.822C69.1109 128.796 68.6866 127.26 67.151 128.24C65.6154 129.22 66.3205 131.162 65.0657 131.437C63.8109 131.711 62.1438 130.188 60.6082 131.162C59.0726 132.136 59.0785 132.954 58.3854 132.954C57.6923 132.954 56.2941 132.393 55.4576 132.954C54.6211 133.516 53.665 134.203 53.665 134.203H68.603" stroke="#263238" stroke-linecap="round" stroke-linejoin="round"/>
<path d="M82.7585 127.182L82.3283 126.985C82.2622 126.464 82.0871 125.964 81.8145 125.515" stroke="#263238" stroke-linecap="round" stroke-linejoin="round"/>
<path d="M70.5146 134.221H88.8704C88.8704 134.221 89.2886 132.972 87.759 132.136C86.2294 131.299 85.5303 131.998 84.9746 131.299C84.4189 130.6 86.08 129.178 83.4867 127.577" stroke="#263238" stroke-linecap="round" stroke-linejoin="round"/>
<path d="M232.287 96.1532H268.688C268.688 96.1532 269.931 92.4307 265.384 89.951C260.836 87.4713 258.769 89.5387 257.114 87.4713C255.459 85.4039 261.661 80.0262 249.257 74.6546C249.257 74.6546 248.432 63.0747 231.48 62.6624C224.161 62.4831 220.851 64.6163 219.088 67.329" stroke="#263238" stroke-linecap="round" stroke-linejoin="round"/>
<path d="M221.179 96.1533H227.238" stroke="#263238" stroke-linecap="round" stroke-linejoin="round"/>
<path d="M216.877 73.0176C216.357 74.8101 215.802 76.2979 214.529 77.1106C209.982 80.0026 208.739 75.4554 204.192 78.3474C199.645 81.2394 201.712 87.0533 197.972 87.8838C194.231 88.7144 189.29 84.1613 184.743 87.0533C180.195 89.9452 180.189 92.4309 178.122 92.4309C176.055 92.4309 171.92 90.7758 169.44 92.4309C166.96 94.086 164.062 96.1534 164.062 96.1534H210.579" stroke="#263238" stroke-linecap="round" stroke-linejoin="round"/>
<path d="M257.173 231.425L243.042 282.214L250.678 312.765" stroke="#263238" stroke-width="5" stroke-linecap="round" stroke-linejoin="round"/>
<path d="M243.042 282.214H204.09L197.219 312.765" stroke="#263238" stroke-width="5" stroke-linecap="round" stroke-linejoin="round"/>
<path d="M127.332 231.425L113.207 282.214L120.843 312.765" stroke="#263238" stroke-width="5" stroke-linecap="round" stroke-linejoin="round"/>
<path d="M113.208 282.214H74.2554L67.3779 312.765" stroke="#263238" stroke-width="5" stroke-linecap="round" stroke-linejoin="round"/>
<path d="M121.363 235.417H262.754L264.66 228.76H123.263L121.363 235.417Z" fill="white" stroke="#263238" stroke-linecap="round" stroke-linejoin="round"/>
<path d="M118.412 245.724H259.803L261.709 239.073H120.312L118.412 245.724Z" fill="white" stroke="#263238" stroke-linecap="round" stroke-linejoin="round"/>
<path d="M115.46 256.037H256.851L258.757 249.38H117.36L115.46 256.037Z" fill="white" stroke="#263238" stroke-linecap="round" stroke-linejoin="round"/>
<path d="M112.509 266.344H253.899L255.805 259.694H114.409L112.509 266.344Z" fill="white" stroke="#263238" stroke-linecap="round" stroke-linejoin="round"/>
<path d="M109.551 276.657H250.947L252.853 270.007H111.457L109.551 276.657Z" fill="white" stroke="#263238" stroke-linecap="round" stroke-linejoin="round"/>
<path d="M119.129 235.417H260.519L262.426 228.76H121.035L119.129 235.417Z" fill="white" stroke="#263238" stroke-linecap="round" stroke-linejoin="round"/>
<path d="M116.177 245.724H257.567L259.473 239.073H118.083L116.177 245.724Z" fill="white" stroke="#263238" stroke-linecap="round" stroke-linejoin="round"/>
<path d="M113.226 256.037H254.616L256.522 249.38H115.132L113.226 256.037Z" fill="white" stroke="#263238" stroke-linecap="round" stroke-linejoin="round"/>
<path d="M110.273 266.344H251.664L253.57 259.694H112.18L110.273 266.344Z" fill="white" stroke="#263238" stroke-linecap="round" stroke-linejoin="round"/>
<path d="M107.322 276.657H248.713L250.619 270.007H109.228L107.322 276.657Z" fill="white" stroke="#263238" stroke-linecap="round" stroke-linejoin="round"/>
<path d="M248.802 279.926H71.1963V283.744H248.802V279.926Z" fill="white" stroke="#263238" stroke-linecap="round" stroke-linejoin="round"/>
<path d="M248.808 279.926H203.791V283.744H248.808V279.926Z" fill="white" stroke="#263238" stroke-linecap="round" stroke-linejoin="round"/>
<path d="M58.9468 306.449H48.9922L50.486 92.7593H57.453L58.9468 306.449Z" fill="#263238" stroke="#263238" stroke-linecap="round" stroke-linejoin="round"/>
<path d="M61.7374 91.5341H45.5626L43.543 67.7769H63.763L61.7374 91.5341Z" fill="#263238" stroke="#263238" stroke-linecap="round" stroke-linejoin="round"/>
<path d="M59.9321 91.5341H47.3723L45.8008 67.7769H61.5035L59.9321 91.5341Z" fill="white" stroke="#263238" stroke-linecap="round" stroke-linejoin="round"/>
<path d="M65.4653 65.584H41.959V69.5455H65.4653V65.584Z" fill="#263238" stroke="#263238" stroke-linecap="round" stroke-linejoin="round"/>
<path d="M63.6134 88.959H43.8057V93.8467H63.6134V88.959Z" fill="#263238" stroke="#263238" stroke-linecap="round" stroke-linejoin="round"/>
<path d="M62.0297 62.9429H45.126V65.5839H62.0297V62.9429Z" fill="#263238" stroke="#263238" stroke-linecap="round" stroke-linejoin="round"/>
<path d="M54.6559 59.0054H51.752V62.9669H54.6559V59.0054Z" fill="#263238" stroke="#263238" stroke-linecap="round" stroke-linejoin="round"/>
<path d="M62.9314 291.338H45.4062V312.615H62.9314V291.338Z" fill="#263238" stroke="#263238" stroke-linecap="round" stroke-linejoin="round"/>
<path d="M277.082 312.944H283.685" stroke="#263238" stroke-linecap="round" stroke-linejoin="round"/>
<path d="M12.0117 312.944H271.024" stroke="#263238" stroke-linecap="round" stroke-linejoin="round"/>
<path d="M174.328 178.401L176.837 189.222C176.837 189.222 173.545 192.981 170.569 191.571C167.594 190.161 166.488 182.321 166.488 182.321L174.328 178.401Z" fill="white" stroke="#263238" stroke-linecap="round" stroke-linejoin="round"/>
<path d="M166.691 151.603C168.465 153.151 169.656 155.26 170.067 157.578C170.628 161.325 179.101 186.325 179.101 186.325C176.013 185.82 172.849 186.085 169.888 187.096C165.394 188.787 160.757 184.317 160.757 184.317L160.524 154.788" fill="#92E3A9"/>
<path d="M166.691 151.603C168.465 153.151 169.656 155.26 170.067 157.578C170.628 161.325 179.101 186.325 179.101 186.325C176.013 185.82 172.849 186.085 169.888 187.096C165.394 188.787 160.757 184.317 160.757 184.317L160.524 154.788" stroke="#263238" stroke-linecap="round" stroke-linejoin="round"/>
<path d="M166.68 174.864L168.938 163.571" stroke="#263238" stroke-linecap="round" stroke-linejoin="round"/>
<path d="M113.124 183.438H113.166C115.616 174.691 120.593 159.98 121.531 156.825C122.84 152.517 125.086 151.394 125.086 151.394L128.456 172.366L127.148 175.175C127.148 175.175 123.509 185.297 120.748 190.298L128.301 206.264L130.924 211.88L127.554 216.75C127.554 216.75 112.198 192.969 111.421 191.284C110.644 189.599 113.124 183.438 113.124 183.438Z" fill="white" stroke="#263238" stroke-linecap="round" stroke-linejoin="round"/>
<path d="M126.054 151.041C124.158 151.61 122.551 152.882 121.561 154.596C119.685 157.584 110.513 187.747 110.513 187.747C112.451 189.189 114.703 190.151 117.085 190.555C118.999 190.904 120.954 190.969 122.887 190.746L128.319 176.513" fill="#92E3A9"/>
<path d="M126.054 151.041C124.158 151.61 122.551 152.882 121.561 154.596C119.685 157.584 110.513 187.747 110.513 187.747C112.451 189.189 114.703 190.151 117.085 190.555C118.999 190.904 120.954 190.969 122.887 190.746L128.319 176.513" stroke="#263238" stroke-linecap="round" stroke-linejoin="round"/>
<path d="M122.631 165.83L127.148 178.628L120.934 170.908" stroke="#263238" stroke-linecap="round" stroke-linejoin="round"/>
<path d="M169.529 308.786C169.529 308.786 169.529 309.551 174.309 313.566C179.089 317.581 180.016 318.705 178.683 320.031C177.351 321.358 170.886 318.89 168.788 317.558C166.691 316.225 167.647 316.225 165.173 315.084C162.7 313.943 163.841 309.951 164.223 308.995C164.606 308.039 169.529 308.786 169.529 308.786Z" fill="white" stroke="#263238" stroke-linecap="round" stroke-linejoin="round"/>
<path d="M123.509 307.925C123.509 307.925 123.509 308.684 118.729 312.706C113.948 316.727 113.016 317.844 114.349 319.177C115.681 320.509 122.152 318.035 124.244 316.703C126.335 315.371 125.391 315.371 127.865 314.229C130.338 313.088 129.191 309.091 128.815 308.141C128.438 307.191 123.509 307.925 123.509 307.925Z" fill="white" stroke="#263238" stroke-linecap="round" stroke-linejoin="round"/>
<path d="M126.43 236.701C125.833 230.296 127.177 217.73 127.177 216.213C127.177 214.695 130.051 208.499 130.882 206.766L130.965 204.758C130.965 204.758 160.567 203.641 164.474 202.249C164.474 202.249 169.045 218.31 169.601 233.391C170.157 248.472 172.678 266.906 172.117 277.518C171.668 286.014 171.274 302.954 170.921 308.642C170.884 309.293 170.636 309.914 170.213 310.411C169.79 310.907 169.216 311.251 168.579 311.391L167.892 311.552C167.48 311.646 167.053 311.652 166.639 311.57C166.225 311.489 165.832 311.321 165.487 311.078C165.141 310.836 164.85 310.523 164.632 310.162C164.415 309.8 164.275 309.396 164.223 308.977C162.849 297.935 157.776 260.865 155.661 254.059C153.151 245.957 147.983 224.034 147.983 224.034C147.983 224.034 136.11 278.073 134.718 285.339C133.326 292.605 128.85 309.079 128.85 309.079C127.683 309.521 126.461 309.803 125.217 309.915C124.179 309.868 123.152 309.682 122.164 309.36L126.43 236.701Z" fill="#263238" stroke="#263238" stroke-linecap="round" stroke-linejoin="round"/>
<path d="M147.284 145.915C147.284 145.915 154.508 147.355 159.384 148.801C164.26 150.247 167.498 151.149 167.498 152.774C167.498 154.399 165.335 202.965 165.335 202.965C165.335 202.965 165.156 204.955 160.818 205.493C156.48 206.031 133.559 206.76 132.137 206.401C130.715 206.043 130.153 204.609 129.974 202.428C129.795 200.247 124.196 154.22 124.555 152.057C124.913 149.894 142.612 146.638 143.149 146.458C144.452 145.903 145.882 145.715 147.284 145.915Z" fill="#92E3A9" stroke="#263238" stroke-linecap="round" stroke-linejoin="round"/>
<path d="M145.408 159.43C149.774 159.43 153.313 156.48 153.313 152.84C153.313 149.2 149.774 146.249 145.408 146.249C141.042 146.249 137.503 149.2 137.503 152.84C137.503 156.48 141.042 159.43 145.408 159.43Z" fill="#92E3A9" stroke="#263238" stroke-linecap="round" stroke-linejoin="round"/>
<path d="M166.01 173.831C166.01 173.831 158.535 190.525 148.604 199.052" stroke="#263238" stroke-linecap="round" stroke-linejoin="round"/>
<path d="M137.491 203.276C136.752 203.853 135.95 204.344 135.101 204.74" stroke="#263238" stroke-linecap="round" stroke-linejoin="round"/>
<path d="M151.09 188.392C151.09 188.392 144.649 197.056 139.14 201.914" stroke="#263238" stroke-linecap="round" stroke-linejoin="round"/>
<path d="M152.411 133.492C152.411 133.492 154.084 129.31 154.915 132.662C155.745 136.014 152.829 140.172 151.162 138.918" fill="white"/>
<path d="M152.411 133.492C152.411 133.492 154.084 129.31 154.915 132.662C155.745 136.014 152.829 140.172 151.162 138.918" stroke="#263238" stroke-linecap="round" stroke-linejoin="round"/>
<path d="M135.304 134.562C135.304 134.562 131.761 132.267 131.97 135.398C132.179 138.529 135.304 142.073 136.35 140.178" fill="white"/>
<path d="M135.304 134.562C135.304 134.562 131.761 132.267 131.97 135.398C132.179 138.529 135.304 142.073 136.35 140.178" stroke="#263238" stroke-linecap="round" stroke-linejoin="round"/>
<path d="M151.162 138.917L150.953 151.854C150.916 152.582 150.735 153.295 150.421 153.952C150.106 154.61 149.665 155.198 149.121 155.683C148.577 156.169 147.943 156.541 147.254 156.779C146.565 157.017 145.836 157.116 145.109 157.07C139.48 157.07 139.689 150.599 139.689 150.599L138.435 140.172C138.435 140.172 147.403 141.212 151.162 138.917Z" fill="white" stroke="#263238" stroke-linecap="round" stroke-linejoin="round"/>
<path d="M145.42 149.733C147.153 149.416 149.334 147.378 151.031 145.496L151.108 140.573L147.643 138.481C145.675 138.775 143.685 138.881 141.697 138.798L138.817 141.559L139.367 146.136C140.873 147.862 143.323 150.097 145.42 149.733Z" fill="#263238"/>
<path d="M133.804 131.574C133.804 131.574 131.3 123.854 137.986 119.265C144.673 114.676 151.729 120.514 152.59 126.358C153.45 132.202 152.799 139.916 149.668 144.283C146.537 148.651 144.595 148.98 141.117 146.369C137.64 143.758 134.037 136.563 133.804 131.574Z" fill="white" stroke="#263238" stroke-linecap="round" stroke-linejoin="round"/>
<path d="M137.819 135.798C137.819 135.798 139.235 136.993 141.56 135.798" stroke="#263238" stroke-linecap="round" stroke-linejoin="round"/>
<path d="M145.694 135.416C145.694 135.416 148.795 136.45 150.086 134.771" stroke="#263238" stroke-linecap="round" stroke-linejoin="round"/>
<path d="M142.725 140.453C142.725 140.453 143.884 141.355 144.661 141.098C144.917 140.971 145.142 140.788 145.321 140.564C145.499 140.34 145.627 140.08 145.694 139.802" stroke="#263238" stroke-linecap="round" stroke-linejoin="round"/>
<path d="M143 143.035C143.6 143.314 144.276 143.389 144.923 143.249C145.57 143.109 146.154 142.761 146.585 142.258" stroke="#263238" stroke-linecap="round" stroke-linejoin="round"/>
<path d="M137.299 133.737C137.299 133.737 139.755 132.447 141.691 133.092" stroke="#263238" stroke-linecap="round" stroke-linejoin="round"/>
<path d="M144.918 132.96C144.918 132.96 146.985 131.281 149.184 132.315" stroke="#263238" stroke-linecap="round" stroke-linejoin="round"/>
<path d="M135.429 128.473C135.429 128.473 136.23 131.072 136.027 132.058C135.824 133.044 137.025 135.852 135.226 135.643C133.428 135.434 132.627 128.473 132.627 128.473H135.429Z" fill="#263238" stroke="#263238" stroke-linecap="round" stroke-linejoin="round"/>
<path d="M152.608 132.47C152.608 132.47 151.013 133.869 151.013 132.267C151.013 130.666 152.208 129.877 151.21 128.682C150.212 127.487 148.222 126.68 148.222 124.685V121.291C148.222 121.291 144.04 125.473 140.454 127.481C136.869 129.489 133.284 130.678 130.47 129.68C127.656 128.682 131.468 125.085 131.468 125.085C131.468 125.085 127.285 127.284 127.285 123.484C127.285 119.683 134.276 114.7 140.67 114.7C147.063 114.7 149.256 118.883 149.256 118.883C149.256 118.883 153.05 118.883 153.654 122.277C154.257 125.671 152.608 132.47 152.608 132.47Z" fill="#263238" stroke="#263238" stroke-linecap="round" stroke-linejoin="round"/>
<path d="M143.699 160.661L146.179 177.864L154.353 177.021L152.62 159.251L143.699 160.661Z" fill="#263238" stroke="#263238" stroke-linecap="round" stroke-linejoin="round"/>
<path d="M157.394 170.562L156.139 167.736L153.318 165.86L153.629 167.736L154.729 170.246L149.871 169.463L145.634 169.308C145.634 169.308 145.162 170.246 145.634 170.407C146.106 170.568 149.22 171.817 149.22 171.817L144.672 172.283C144.672 172.283 144.045 173.538 144.672 173.855C145.3 174.171 146.393 176.992 148.12 177.44C149.847 177.888 156.145 176.52 156.145 176.52C156.145 176.52 166.183 194.553 168.221 195.963C170.258 197.373 174.022 196.59 174.961 196.118C175.899 195.646 177.643 193.166 177.47 190.316C177.392 189.067 158.499 173.072 158.499 173.072L157.394 170.562Z" fill="white" stroke="#263238" stroke-linecap="round" stroke-linejoin="round"/>
<path d="M166.535 162.394L183.762 155.738V142.664C183.763 141.831 184.095 141.032 184.684 140.443C185.273 139.854 186.071 139.523 186.905 139.521H225.104C225.937 139.523 226.735 139.854 227.324 140.443C227.914 141.032 228.245 141.831 228.247 142.664V163.84C228.245 164.673 227.914 165.472 227.324 166.061C226.735 166.65 225.937 166.981 225.104 166.983H186.905C186.071 166.981 185.273 166.65 184.684 166.061C184.095 165.472 183.763 164.673 183.762 163.84V160.607L166.535 162.394Z" fill="#263238"/>
<path d="M165.203 162.388L181.772 153.748V140.674C181.772 139.841 182.103 139.041 182.693 138.452C183.282 137.862 184.082 137.531 184.915 137.531H223.109C223.942 137.531 224.741 137.862 225.331 138.452C225.92 139.041 226.251 139.841 226.251 140.674V161.814C226.252 162.227 226.171 162.636 226.014 163.018C225.856 163.4 225.625 163.747 225.333 164.039C225.041 164.331 224.694 164.562 224.312 164.72C223.931 164.877 223.521 164.958 223.109 164.957H184.915C184.502 164.958 184.093 164.877 183.712 164.72C183.33 164.562 182.983 164.331 182.691 164.039C182.399 163.747 182.168 163.4 182.01 163.018C181.852 162.636 181.771 162.227 181.772 161.814V158.588L165.203 162.388Z" fill="white" stroke="#263238" stroke-linecap="round" stroke-linejoin="round"/>
<path d="M199.423 154.734C198.455 154.734 197.995 154.393 197.791 153.969V148.119C197.792 147.173 197.507 146.25 196.974 145.468C196.441 144.687 195.685 144.084 194.804 143.739C194.828 143.636 194.84 143.529 194.84 143.423C194.838 143.029 194.681 142.652 194.402 142.375C194.123 142.097 193.745 141.941 193.352 141.941H192.969C192.774 141.94 192.581 141.978 192.401 142.052C192.22 142.126 192.056 142.235 191.918 142.373C191.78 142.511 191.67 142.674 191.595 142.854C191.52 143.034 191.482 143.228 191.482 143.423C191.482 143.517 191.492 143.611 191.512 143.704C190.605 144.033 189.822 144.634 189.268 145.424C188.714 146.214 188.417 147.155 188.416 148.119V153.969C188.213 154.393 187.753 154.734 186.785 154.734V156.365H191.565C191.565 156.365 191.565 156.431 191.565 156.461C191.565 156.868 191.727 157.258 192.015 157.546C192.303 157.834 192.694 157.996 193.101 157.996C193.508 157.996 193.899 157.834 194.187 157.546C194.475 157.258 194.637 156.868 194.637 156.461C194.637 156.431 194.637 156.395 194.637 156.365H199.417L199.423 154.734Z" fill="#263238"/>
<path d="M202.351 146.709H219.481" stroke="#263238" stroke-linecap="round" stroke-linejoin="round"/>
<path d="M202.351 151.489H219.481" stroke="#263238" stroke-linecap="round" stroke-linejoin="round"/>
<path d="M202.351 156.27H219.481" stroke="#263238" stroke-linecap="round" stroke-linejoin="round"/>
<path d="M137.539 165.185L122.888 158.749V145.676C122.886 144.843 122.555 144.044 121.966 143.455C121.376 142.866 120.578 142.534 119.745 142.533H87.1742C86.3406 142.533 85.5412 142.864 84.9518 143.453C84.3624 144.043 84.0312 144.842 84.0312 145.676V166.828C84.0312 167.661 84.3624 168.461 84.9518 169.05C85.5412 169.64 86.3406 169.971 87.1742 169.971H119.745C120.578 169.969 121.376 169.637 121.966 169.048C122.555 168.459 122.886 167.661 122.888 166.828V163.595L137.539 165.185Z" fill="#263238"/>
<path d="M138.22 165.531L121.651 156.891V143.817C121.649 142.984 121.317 142.186 120.728 141.597C120.139 141.008 119.341 140.676 118.508 140.674H85.931C85.098 140.676 84.2995 141.008 83.7104 141.597C83.1213 142.186 82.7897 142.984 82.7881 143.817V164.957C82.7881 165.791 83.1192 166.59 83.7086 167.18C84.298 167.769 85.0975 168.1 85.931 168.1H118.502C119.335 168.1 120.135 167.769 120.724 167.18C121.314 166.59 121.645 165.791 121.645 164.957V161.725L138.22 165.531Z" fill="white" stroke="#263238" stroke-linecap="round" stroke-linejoin="round"/>
<path d="M101.646 164.103C107.17 164.103 111.648 159.625 111.648 154.101C111.648 148.576 107.17 144.098 101.646 144.098C96.1218 144.098 91.6436 148.576 91.6436 154.101C91.6436 159.625 96.1218 164.103 101.646 164.103Z" fill="#92E3A9"/>
<path d="M99.8536 159.191C99.8383 158.904 99.8818 158.616 99.9813 158.346C100.081 158.075 100.234 157.828 100.433 157.619C100.631 157.41 100.869 157.244 101.134 157.13C101.399 157.016 101.684 156.957 101.972 156.957C102.26 156.957 102.545 157.016 102.809 157.13C103.074 157.244 103.313 157.41 103.511 157.619C103.709 157.828 103.863 158.075 103.962 158.346C104.062 158.616 104.105 158.904 104.09 159.191C104.105 159.471 104.061 159.751 103.959 160.012C103.858 160.274 103.702 160.51 103.501 160.706C103.301 160.903 103.062 161.054 102.798 161.15C102.535 161.246 102.254 161.285 101.975 161.265C101.688 161.279 101.401 161.233 101.132 161.13C100.864 161.027 100.62 160.869 100.415 160.667C100.229 160.47 100.083 160.239 99.9866 159.985C99.8901 159.732 99.8449 159.462 99.8536 159.191ZM103.917 148.065C103.917 148.4 103.917 148.89 103.917 149.529C103.917 150.169 103.875 150.862 103.827 151.609C103.779 152.356 103.725 153.091 103.654 153.837C103.582 154.584 103.492 155.224 103.385 155.767C103.305 155.824 103.216 155.869 103.122 155.899C103 155.947 102.874 155.984 102.746 156.012C102.614 156.012 102.483 156.06 102.351 156.078C102.22 156.096 102.1 156.078 101.999 156.078C101.63 156.088 101.263 156.019 100.923 155.875C100.776 155.802 100.649 155.694 100.555 155.559C100.461 155.424 100.403 155.268 100.385 155.104C100.29 154.593 100.228 154.076 100.2 153.557C100.146 152.869 100.099 152.117 100.051 151.304C100.003 150.491 99.9791 149.697 99.9552 148.914C99.9313 148.131 99.9193 147.438 99.9193 146.882C100.237 146.713 100.574 146.582 100.923 146.494C101.288 146.4 101.664 146.351 102.04 146.351C102.543 146.318 103.041 146.467 103.445 146.769C103.615 146.936 103.746 147.139 103.828 147.363C103.91 147.588 103.94 147.828 103.917 148.065Z" fill="black"/>
</svg>
