<svg width="214" height="387" viewBox="0 0 214 387" fill="none" xmlns="http://www.w3.org/2000/svg">
<path d="M82.6321 326.5C127.914 326.5 164.622 323.448 164.622 319.684C164.622 315.92 127.914 312.868 82.6321 312.868C37.3506 312.868 0.642578 315.92 0.642578 319.684C0.642578 323.448 37.3506 326.5 82.6321 326.5Z" fill="#92E3A9"/>
<path opacity="0.8" d="M82.6321 326.5C127.914 326.5 164.622 323.448 164.622 319.684C164.622 315.92 127.914 312.868 82.6321 312.868C37.3506 312.868 0.642578 315.92 0.642578 319.684C0.642578 323.448 37.3506 326.5 82.6321 326.5Z" fill="white"/>
<path d="M137.429 60.5H27.4183C19.8231 60.5 13.666 66.6571 13.666 74.2523V306.505C13.666 314.1 19.8231 320.257 27.4183 320.257H137.429C145.024 320.257 151.182 314.1 151.182 306.505V74.2523C151.182 66.6571 145.024 60.5 137.429 60.5Z" fill="#263238"/>
<path d="M145.066 89.0239H19.7734V291.734H145.066V89.0239Z" fill="white" stroke="#263238" stroke-width="1.52093" stroke-miterlimit="10"/>
<path d="M101.626 171.107C112.232 160.501 112.232 143.306 101.626 132.7C91.0201 122.094 73.8248 122.094 63.219 132.7C52.6133 143.306 52.6133 160.501 63.219 171.107C73.8248 181.712 91.0201 181.712 101.626 171.107Z" fill="#92E3A9"/>
<path d="M118.078 278.986H46.7753C46.6148 278.987 46.4557 278.956 46.3072 278.896C46.1587 278.835 46.0237 278.745 45.9099 278.632C45.7961 278.519 45.7058 278.385 45.6441 278.236C45.5825 278.088 45.5508 277.929 45.5508 277.769C45.5499 277.608 45.5809 277.448 45.6421 277.299C45.7033 277.15 45.7935 277.015 45.9073 276.901C46.0212 276.787 46.1566 276.697 46.3056 276.636C46.4546 276.575 46.6142 276.544 46.7753 276.544H118.078C118.238 276.544 118.397 276.576 118.545 276.638C118.693 276.699 118.828 276.79 118.941 276.904C119.054 277.017 119.144 277.152 119.204 277.301C119.265 277.449 119.296 277.608 119.295 277.769C119.295 278.092 119.167 278.401 118.938 278.63C118.71 278.858 118.4 278.986 118.078 278.986Z" fill="#92E3A9"/>
<path d="M120.4 194.328H44.4476C42.8801 194.328 41.6094 195.599 41.6094 197.166V206.12C41.6094 207.687 42.8801 208.958 44.4476 208.958H120.4C121.967 208.958 123.238 207.687 123.238 206.12V197.166C123.238 195.599 121.967 194.328 120.4 194.328Z" fill="#92E3A9"/>
<path d="M120.4 221.691H44.4476C42.8801 221.691 41.6094 222.962 41.6094 224.529V233.483C41.6094 235.05 42.8801 236.321 44.4476 236.321H120.4C121.967 236.321 123.238 235.05 123.238 233.483V224.529C123.238 222.962 121.967 221.691 120.4 221.691Z" fill="#92E3A9"/>
<path d="M95.9463 165.45L87.9554 160.85V157.049C89.1125 155.649 89.9506 154.014 90.4115 152.257C90.6865 152.355 90.976 152.405 91.2679 152.406C92.2588 152.406 92.8887 149.334 92.9949 147.14C94.1486 144.698 92.5773 143.268 92.5773 143.268C92.5773 143.268 93.2284 142.617 93.6602 140.006C94.0919 137.394 92.1384 138.484 90.6167 136.091C89.095 133.699 88.005 131.095 83.008 131.095C81.6311 131.049 80.2725 131.419 79.1086 132.156C77.9448 132.894 77.0297 133.964 76.4822 135.228C75.2384 135.232 73.999 135.377 72.7876 135.66C71.2588 136.091 70.827 141.096 72.1294 143.056C72.7124 144.128 73.0234 145.326 73.0353 146.545C72.6885 146.121 72.3276 146.008 72.1294 146.97C71.6976 149.143 73.4388 152.187 73.4388 152.187L74.3377 151.932C74.7905 153.809 75.6642 155.559 76.8928 157.049V160.85L68.9019 165.45C67.9687 165.989 67.1936 166.764 66.6544 167.697C66.1152 168.63 65.831 169.688 65.8301 170.766V173.399C70.5826 177.07 76.4186 179.062 82.4241 179.062C88.4296 179.062 94.2656 177.07 99.0181 173.399V170.766C99.0187 169.688 98.735 168.629 98.1957 167.696C97.6564 166.763 96.8805 165.988 95.9463 165.45Z" fill="#263238"/>
<path d="M51.9499 232.683C51.7667 232.681 51.5916 232.607 51.4616 232.478C51.3919 232.416 51.3363 232.339 51.2985 232.254C51.2607 232.168 51.2415 232.076 51.2421 231.983C51.2443 231.855 51.281 231.73 51.3483 231.622L52.6223 229.583L50.138 229.661C50.0444 229.667 49.9506 229.653 49.8628 229.62C49.7749 229.587 49.6951 229.536 49.6284 229.47C49.513 229.34 49.4492 229.173 49.4492 228.999C49.4492 228.826 49.513 228.658 49.6284 228.529C49.6936 228.46 49.7731 228.407 49.8611 228.373C49.9492 228.338 50.0437 228.324 50.138 228.33L52.5869 228.422L51.3271 226.391C51.2585 226.28 51.2218 226.153 51.2209 226.023C51.2202 225.93 51.2395 225.837 51.2773 225.752C51.3151 225.666 51.3707 225.59 51.4403 225.528C51.5704 225.398 51.7455 225.325 51.9287 225.322C52.0493 225.323 52.1672 225.358 52.2687 225.423C52.3702 225.488 52.4511 225.581 52.502 225.69L53.7123 227.877L54.9085 225.704C54.9652 225.589 55.0526 225.49 55.1611 225.42C55.2697 225.351 55.3952 225.312 55.5243 225.308C55.6137 225.309 55.7021 225.328 55.7837 225.364C55.8654 225.401 55.9385 225.454 55.9985 225.52C56.1284 225.655 56.1996 225.836 56.1966 226.023C56.1963 226.145 56.1646 226.264 56.1046 226.37L54.8235 228.422L57.3079 228.33C57.4022 228.324 57.4967 228.338 57.5848 228.373C57.6728 228.407 57.7523 228.46 57.8175 228.529C57.9381 228.654 58.0043 228.822 58.0015 228.996C58.001 229.171 57.9355 229.34 57.8175 229.47C57.7508 229.536 57.6709 229.587 57.5831 229.62C57.4953 229.653 57.4015 229.667 57.3079 229.661L54.8094 229.583L56.0551 231.6C56.1249 231.713 56.1617 231.843 56.1613 231.975C56.1613 232.163 56.0867 232.343 55.9539 232.476C55.8212 232.609 55.6412 232.683 55.4535 232.683C55.3321 232.682 55.2139 232.645 55.1133 232.577C55.0127 232.509 54.9341 232.413 54.8872 232.301L53.7052 230.178L52.5303 232.301C52.4782 232.412 52.3964 232.506 52.294 232.574C52.1916 232.641 52.0725 232.679 51.9499 232.683Z" fill="#263238"/>
<path d="M63.4311 232.683C63.2478 232.681 63.0728 232.607 62.9427 232.478C62.873 232.416 62.8175 232.339 62.7796 232.254C62.7418 232.168 62.7226 232.076 62.7233 231.983C62.7254 231.855 62.7621 231.73 62.8294 231.622L64.1034 229.583L61.6262 229.661C61.5317 229.665 61.4372 229.651 61.3485 229.618C61.2598 229.585 61.1785 229.535 61.1095 229.47C61.0156 229.373 60.953 229.25 60.9298 229.117C60.9067 228.984 60.9242 228.847 60.9799 228.724C61.0357 228.601 61.1271 228.498 61.2424 228.428C61.3577 228.357 61.4914 228.324 61.6262 228.33L64.0681 228.422L62.8082 226.391C62.7397 226.28 62.7029 226.153 62.702 226.023C62.7014 225.93 62.7206 225.837 62.7584 225.752C62.7962 225.666 62.8518 225.59 62.9214 225.528C63.0515 225.398 63.2266 225.325 63.4098 225.322C63.5304 225.323 63.6483 225.358 63.7498 225.423C63.8513 225.488 63.9322 225.581 63.9831 225.69L65.1934 227.877L66.3896 225.704C66.4463 225.589 66.5337 225.49 66.6422 225.42C66.7508 225.351 66.8763 225.312 67.0054 225.308C67.095 225.308 67.1836 225.326 67.2654 225.363C67.3472 225.4 67.4202 225.453 67.4796 225.52C67.5452 225.587 67.5971 225.665 67.6323 225.751C67.6675 225.837 67.6854 225.93 67.6848 226.023C67.6823 226.145 67.6482 226.265 67.5857 226.37L66.3047 228.422L68.7961 228.345C68.8893 228.338 68.9827 228.353 69.0696 228.387C69.1566 228.421 69.2348 228.474 69.2986 228.543C69.4192 228.668 69.4854 228.836 69.4826 229.01C69.4822 229.185 69.4166 229.354 69.2986 229.484C69.2333 229.55 69.1546 229.601 69.068 229.634C68.9813 229.667 68.8886 229.681 68.7961 229.675L66.2905 229.597L67.5362 231.614C67.606 231.727 67.6428 231.857 67.6424 231.99C67.6424 232.177 67.5678 232.357 67.4351 232.49C67.3023 232.623 67.1223 232.697 66.9346 232.697C66.8132 232.696 66.695 232.659 66.5944 232.591C66.4938 232.523 66.4152 232.427 66.3684 232.315L65.1864 230.192L64.0114 232.315C63.9574 232.424 63.8747 232.515 63.7724 232.58C63.6702 232.645 63.5521 232.681 63.4311 232.683Z" fill="#263238"/>
<path d="M74.9174 232.683C74.7317 232.682 74.5538 232.609 74.4219 232.478C74.3523 232.416 74.2967 232.339 74.2589 232.254C74.2211 232.168 74.2018 232.076 74.2025 231.983C74.2047 231.855 74.2414 231.73 74.3087 231.622L75.5827 229.583L73.1055 229.661C72.9721 229.666 72.8401 229.632 72.7264 229.562C72.6127 229.492 72.5223 229.39 72.4669 229.268C72.4115 229.147 72.3935 229.012 72.4152 228.88C72.4369 228.748 72.4973 228.626 72.5888 228.529C72.6556 228.46 72.7364 228.407 72.8255 228.373C72.9147 228.339 73.0102 228.324 73.1055 228.33L75.5473 228.422L74.2875 226.391C74.2189 226.28 74.1822 226.153 74.1813 226.023C74.1835 225.93 74.2041 225.838 74.2417 225.753C74.2794 225.668 74.3334 225.592 74.4007 225.528C74.5325 225.397 74.7105 225.323 74.8962 225.322C75.0155 225.324 75.1319 225.36 75.2321 225.425C75.3322 225.49 75.412 225.582 75.4624 225.69L76.6727 227.877L77.8689 225.704C77.9256 225.589 78.013 225.49 78.1215 225.42C78.23 225.351 78.3556 225.312 78.4846 225.308C78.5742 225.308 78.6629 225.326 78.7446 225.363C78.8264 225.4 78.8994 225.453 78.9588 225.52C79.0244 225.587 79.0763 225.665 79.1116 225.751C79.1468 225.837 79.1646 225.93 79.1641 226.023C79.1616 226.145 79.1274 226.265 79.065 226.37L77.7839 228.422L80.2753 228.33C80.3669 228.321 80.4594 228.332 80.5466 228.361C80.6338 228.391 80.7136 228.439 80.7806 228.502C80.8477 228.565 80.9005 228.642 80.9354 228.727C80.9703 228.812 80.9866 228.904 80.9831 228.996C80.9846 229.17 80.9216 229.339 80.8062 229.47C80.7395 229.536 80.6596 229.587 80.5718 229.62C80.484 229.653 80.3902 229.667 80.2966 229.661L77.7981 229.583L79.0367 231.6C79.1065 231.713 79.1433 231.843 79.1429 231.975C79.1406 232.068 79.1201 232.16 79.0825 232.245C79.0448 232.33 78.9908 232.407 78.9235 232.471C78.8619 232.537 78.7874 232.59 78.7047 232.627C78.6219 232.663 78.5326 232.682 78.4422 232.683C78.3218 232.681 78.2047 232.644 78.1053 232.576C78.0059 232.508 77.9287 232.412 77.883 232.301L76.6939 230.178L75.519 232.301C75.466 232.416 75.3811 232.513 75.2744 232.581C75.1677 232.648 75.0438 232.684 74.9174 232.683Z" fill="#263238"/>
<path d="M86.3984 232.683C86.2127 232.682 86.0348 232.609 85.903 232.478C85.7696 232.347 85.6933 232.169 85.6906 231.983C85.6884 231.855 85.7228 231.73 85.7897 231.622L87.0637 229.583L84.5865 229.661C84.492 229.665 84.3975 229.651 84.3088 229.618C84.2201 229.585 84.1388 229.535 84.0698 229.47C83.9544 229.34 83.8906 229.173 83.8906 228.999C83.8906 228.826 83.9544 228.658 84.0698 228.529C84.1382 228.463 84.2192 228.411 84.308 228.377C84.3967 228.343 84.4915 228.327 84.5865 228.33L87.0354 228.422L85.7826 226.391C85.7141 226.28 85.6774 226.153 85.6765 226.023C85.6787 225.93 85.6992 225.838 85.7369 225.753C85.7745 225.668 85.8286 225.592 85.8959 225.528C86.0277 225.397 86.2056 225.323 86.3913 225.322C86.5119 225.323 86.6298 225.358 86.7313 225.423C86.8328 225.488 86.9137 225.581 86.9647 225.69L88.1679 227.877L89.364 225.704C89.4208 225.589 89.5082 225.49 89.6167 225.42C89.7252 225.351 89.8508 225.312 89.9798 225.308C90.0694 225.308 90.158 225.326 90.2398 225.363C90.3216 225.4 90.3946 225.453 90.454 225.52C90.5196 225.587 90.5715 225.665 90.6067 225.751C90.642 225.837 90.6598 225.93 90.6593 226.023C90.6568 226.145 90.6226 226.265 90.5602 226.37L89.2791 228.422L91.7705 228.33C91.8621 228.321 91.9546 228.332 92.0418 228.361C92.1289 228.391 92.2087 228.439 92.2758 228.502C92.3429 228.565 92.3957 228.642 92.4306 228.727C92.4655 228.812 92.4818 228.904 92.4783 228.996C92.4798 229.17 92.4168 229.339 92.3013 229.47C92.2347 229.536 92.1548 229.587 92.067 229.62C91.9792 229.653 91.8853 229.667 91.7917 229.661L89.2933 229.583L90.5319 231.6C90.6017 231.713 90.6385 231.843 90.638 231.975C90.6387 232.069 90.6195 232.161 90.5817 232.247C90.5439 232.332 90.4883 232.409 90.4186 232.471C90.357 232.537 90.2826 232.59 90.1999 232.627C90.1171 232.663 90.0278 232.682 89.9373 232.683C89.817 232.681 89.6999 232.644 89.6005 232.576C89.5011 232.508 89.4238 232.412 89.3782 232.301L88.1891 230.178L87.0142 232.301C86.9602 232.418 86.8731 232.517 86.7636 232.585C86.6542 232.652 86.5272 232.687 86.3984 232.683Z" fill="#263238"/>
<path d="M97.8789 232.683C97.6932 232.682 97.5153 232.609 97.3834 232.478C97.2738 232.367 97.2039 232.223 97.1847 232.068C97.1655 231.913 97.1981 231.756 97.2773 231.622L98.5442 229.583L96.067 229.661C95.9724 229.665 95.878 229.651 95.7893 229.618C95.7005 229.585 95.6192 229.535 95.5503 229.47C95.4349 229.34 95.3711 229.173 95.3711 228.999C95.3711 228.826 95.4349 228.658 95.5503 228.529C95.6187 228.463 95.6997 228.411 95.7884 228.377C95.8772 228.343 95.9719 228.327 96.067 228.33L98.5159 228.422L97.256 226.391C97.1875 226.28 97.1508 226.153 97.1499 226.023C97.1525 225.836 97.2288 225.658 97.3622 225.528C97.494 225.397 97.672 225.323 97.8577 225.322C97.9783 225.323 98.0961 225.358 98.1976 225.423C98.2991 225.488 98.38 225.581 98.431 225.69L99.6342 227.877L100.83 225.704C100.887 225.589 100.974 225.49 101.083 225.42C101.192 225.351 101.317 225.312 101.446 225.308C101.537 225.308 101.626 225.326 101.709 225.363C101.792 225.4 101.867 225.453 101.927 225.52C102.057 225.655 102.129 225.836 102.126 226.023C102.123 226.145 102.089 226.265 102.027 226.37L100.745 228.422L103.237 228.33C103.328 228.321 103.421 228.332 103.508 228.361C103.595 228.391 103.675 228.439 103.742 228.502C103.809 228.565 103.862 228.642 103.897 228.727C103.932 228.812 103.948 228.904 103.945 228.996C103.946 229.17 103.883 229.339 103.768 229.47C103.701 229.536 103.621 229.587 103.533 229.62C103.445 229.653 103.352 229.667 103.258 229.661L100.76 229.583L101.998 231.6C102.068 231.713 102.105 231.843 102.104 231.975C102.105 232.069 102.086 232.161 102.048 232.247C102.01 232.332 101.955 232.409 101.885 232.471C101.823 232.537 101.749 232.59 101.666 232.627C101.583 232.663 101.494 232.682 101.404 232.683C101.283 232.681 101.166 232.644 101.067 232.576C100.967 232.508 100.89 232.412 100.845 232.301L99.6554 230.178L98.4805 232.301C98.4275 232.416 98.3426 232.513 98.2359 232.581C98.1292 232.648 98.0053 232.684 97.8789 232.683Z" fill="#263238"/>
<path d="M109.358 232.683C109.174 232.681 108.999 232.607 108.869 232.478C108.8 232.416 108.744 232.339 108.706 232.254C108.668 232.168 108.649 232.076 108.65 231.983C108.652 231.855 108.689 231.73 108.756 231.622L110.023 229.583L107.546 229.661C107.455 229.668 107.363 229.656 107.277 229.625C107.191 229.595 107.112 229.547 107.045 229.484C106.979 229.422 106.926 229.346 106.89 229.262C106.855 229.178 106.837 229.087 106.838 228.996C106.838 228.909 106.854 228.823 106.887 228.743C106.92 228.663 106.968 228.59 107.029 228.529C107.094 228.46 107.174 228.407 107.262 228.373C107.35 228.338 107.444 228.324 107.539 228.33L109.988 228.422L108.728 226.391C108.659 226.28 108.622 226.153 108.622 226.023C108.624 225.836 108.701 225.658 108.834 225.528C108.966 225.397 109.144 225.323 109.329 225.322C109.45 225.323 109.568 225.358 109.669 225.423C109.771 225.488 109.852 225.581 109.903 225.69L111.106 227.877L112.309 225.704C112.365 225.59 112.452 225.492 112.559 225.422C112.666 225.352 112.79 225.313 112.918 225.308C113.008 225.308 113.098 225.326 113.181 225.363C113.264 225.4 113.338 225.453 113.399 225.52C113.529 225.655 113.6 225.836 113.597 226.023C113.597 226.145 113.565 226.264 113.505 226.37L112.224 228.422L114.709 228.33C114.803 228.324 114.897 228.338 114.985 228.373C115.073 228.407 115.153 228.46 115.218 228.529C115.339 228.654 115.405 228.822 115.402 228.996C115.402 229.171 115.336 229.34 115.218 229.47C115.151 229.536 115.072 229.587 114.984 229.62C114.896 229.653 114.802 229.667 114.709 229.661L112.21 229.583L113.449 231.6C113.518 231.713 113.555 231.843 113.555 231.975C113.552 232.162 113.476 232.34 113.342 232.471C113.214 232.603 113.038 232.679 112.854 232.683C112.734 232.681 112.617 232.644 112.517 232.576C112.418 232.508 112.341 232.412 112.295 232.301L111.106 230.178L109.931 232.301C109.88 232.411 109.8 232.506 109.698 232.573C109.597 232.641 109.479 232.679 109.358 232.683Z" fill="#263238"/>
<g style="mix-blend-mode:multiply">
<path d="M145.066 89.293H19.7734V97.1423H145.066V89.293Z" fill="#92E3A9"/>
</g>
<path d="M96.0455 74.8328H68.7958C68.304 74.8328 67.8323 74.6374 67.4845 74.2897C67.1368 73.9419 66.9414 73.4702 66.9414 72.9784C66.9414 72.4866 67.1368 72.0149 67.4845 71.6672C67.8323 71.3194 68.304 71.124 68.7958 71.124H96.0455C96.5373 71.124 97.009 71.3194 97.3568 71.6672C97.7046 72.0149 97.8999 72.4866 97.8999 72.9784C97.8999 73.4702 97.7046 73.9419 97.3568 74.2897C97.009 74.6374 96.5373 74.8328 96.0455 74.8328Z" fill="#92E3A9" stroke="#263238" stroke-width="1.52093" stroke-linecap="round" stroke-linejoin="round"/>
<path d="M89.8518 303.185C89.8532 301.715 89.4183 300.277 88.6022 299.054C87.7862 297.831 86.6256 296.877 85.2673 296.314C83.909 295.75 82.4142 295.603 80.9719 295.889C79.5296 296.176 78.2048 296.884 77.165 297.923C76.1252 298.963 75.4173 300.288 75.1307 301.73C74.8442 303.172 74.992 304.667 75.5553 306.026C76.1187 307.384 77.0723 308.544 78.2956 309.361C79.5188 310.177 80.9566 310.611 82.4271 310.61C84.3957 310.608 86.2831 309.825 87.6751 308.433C89.067 307.041 89.8499 305.154 89.8518 303.185Z" fill="#92E3A9"/>
<path d="M86.1929 299.42H78.6621V306.951H86.1929V299.42Z" fill="#92E3A9" stroke="#263238" stroke-width="1.52093" stroke-linecap="round" stroke-linejoin="round"/>
<path d="M172.133 217.727C172.133 217.727 162.266 192.658 171.05 189.678C180.194 186.571 179.791 203.126 179.437 211.195C178.694 228.436 176.79 231.643 175.367 227.431L172.133 217.727ZM169.167 237.284C171.878 240.823 172.642 237.156 167.751 220.601C165.458 212.815 160.475 197.067 152.831 202.977C145.492 208.64 162.96 229.165 162.96 229.165L169.167 237.284ZM163.929 251.652C166.513 253.945 166.562 251.05 160.426 239.096C157.545 233.497 151.451 222.165 146.461 227.771C141.669 233.178 157.998 246.322 157.998 246.322L163.929 251.652ZM158.267 268.738C160.85 271.038 160.9 268.136 154.764 256.189C151.883 250.59 145.789 239.251 140.799 244.864C136.036 250.286 152.315 263.429 152.315 263.429L158.267 268.738ZM174.617 233.957C170.483 235.571 173.768 237.326 191.03 237.276C199.127 237.276 215.661 236.908 212.137 227.913C208.76 219.27 184.172 230.277 184.172 230.277L174.617 233.957ZM169.91 245.451C165.536 246.209 168.41 248.587 185.34 251.97C193.274 253.563 209.546 256.5 207.883 247.016C206.29 237.871 180.003 243.774 180.003 243.774L169.91 245.451ZM164.644 259.487C160.921 260.025 163.299 262.099 177.533 265.354C184.207 266.883 197.903 269.75 196.714 261.66C195.581 253.874 173.215 258.276 173.215 258.276L164.644 259.487ZM160.645 272.489C157 273.416 159.584 275.228 174.093 276.955C180.888 277.762 194.81 279.163 192.779 271.243C190.818 263.641 169.047 270.373 169.047 270.373L160.645 272.489ZM181.978 219.851C179.854 224.607 184.264 223.885 199.255 210.805C206.276 204.669 220.361 191.83 209.206 185.438C198.498 179.295 186.982 208.937 186.982 208.937L181.978 219.851ZM161.197 289.426C158.954 290.735 161.155 291.245 171.446 289.193C176.273 288.237 186.09 286.114 182.771 281.924C179.557 277.889 166.392 286.383 166.392 286.383L161.197 289.426Z" fill="#92E3A9"/>
<path opacity="0.3" d="M172.133 217.727C172.133 217.727 162.266 192.658 171.05 189.678C180.194 186.571 179.791 203.126 179.437 211.195C178.694 228.436 176.79 231.643 175.367 227.431L172.133 217.727ZM169.167 237.284C171.878 240.823 172.642 237.156 167.751 220.601C165.458 212.815 160.475 197.067 152.831 202.977C145.492 208.64 162.96 229.165 162.96 229.165L169.167 237.284ZM163.929 251.652C166.513 253.945 166.562 251.05 160.426 239.096C157.545 233.497 151.451 222.165 146.461 227.771C141.669 233.178 157.998 246.322 157.998 246.322L163.929 251.652ZM158.267 268.738C160.85 271.038 160.9 268.136 154.764 256.189C151.883 250.59 145.789 239.251 140.799 244.864C136.036 250.286 152.315 263.429 152.315 263.429L158.267 268.738ZM174.617 233.957C170.483 235.571 173.768 237.326 191.03 237.276C199.127 237.276 215.661 236.908 212.137 227.913C208.76 219.27 184.172 230.277 184.172 230.277L174.617 233.957ZM169.91 245.451C165.536 246.209 168.41 248.587 185.34 251.97C193.274 253.563 209.546 256.5 207.883 247.016C206.29 237.871 180.003 243.774 180.003 243.774L169.91 245.451ZM164.644 259.487C160.921 260.025 163.299 262.099 177.533 265.354C184.207 266.883 197.903 269.75 196.714 261.66C195.581 253.874 173.215 258.276 173.215 258.276L164.644 259.487ZM160.645 272.489C157 273.416 159.584 275.228 174.093 276.955C180.888 277.762 194.81 279.163 192.779 271.243C190.818 263.641 169.047 270.373 169.047 270.373L160.645 272.489ZM181.978 219.851C179.854 224.607 184.264 223.885 199.255 210.805C206.276 204.669 220.361 191.83 209.206 185.438C198.498 179.295 186.982 208.937 186.982 208.937L181.978 219.851ZM161.197 289.426C158.954 290.735 161.155 291.245 171.446 289.193C176.273 288.237 186.09 286.114 182.771 281.924C179.557 277.889 166.392 286.383 166.392 286.383L161.197 289.426Z" fill="white"/>
<path d="M176.485 229.399L174.765 200.783L176.485 229.399ZM171.042 238.84L160.171 214.231L171.042 238.84ZM199.099 231.685L173.046 235.422L199.099 231.685ZM165.409 252.104L151.302 234.006L165.409 252.104ZM167.886 246.555L187.322 247.532L167.886 246.555ZM163.285 260.435L178.149 261.907L163.285 260.435ZM159.697 269.254L152.314 258.149L159.697 269.254ZM158.847 273.175L176.323 273.338L158.847 273.175ZM155.308 305.96C155.426 305.951 155.534 305.896 155.611 305.807C155.688 305.718 155.727 305.603 155.719 305.485C154.608 288.796 161.063 261.461 171.418 239.024C178.035 224.685 203.976 196.501 204.252 196.218C204.335 196.134 204.382 196.021 204.382 195.903C204.382 195.785 204.335 195.671 204.252 195.588C204.211 195.547 204.162 195.514 204.109 195.492C204.056 195.469 203.998 195.458 203.94 195.458C203.882 195.458 203.825 195.469 203.772 195.492C203.718 195.514 203.67 195.547 203.629 195.588C203.367 195.871 177.321 224.161 170.646 238.628C160.1 261.61 153.73 288.449 154.863 305.542C154.871 305.655 154.922 305.76 155.004 305.837C155.087 305.915 155.195 305.958 155.308 305.96ZM176.478 229.837C176.595 229.83 176.705 229.777 176.783 229.69C176.861 229.602 176.902 229.487 176.896 229.37L175.204 200.74C175.202 200.682 175.187 200.625 175.162 200.572C175.137 200.52 175.102 200.472 175.058 200.433C175.015 200.395 174.964 200.365 174.909 200.346C174.854 200.327 174.795 200.319 174.737 200.323C174.62 200.33 174.511 200.383 174.432 200.471C174.354 200.558 174.314 200.673 174.32 200.79L176.039 229.406C176.045 229.518 176.094 229.625 176.175 229.702C176.257 229.78 176.365 229.823 176.478 229.823V229.837ZM171.198 239.244C171.304 239.196 171.387 239.108 171.43 239C171.472 238.891 171.47 238.771 171.425 238.663L160.546 214.054C160.499 213.947 160.412 213.863 160.303 213.82C160.194 213.778 160.073 213.78 159.966 213.827C159.859 213.874 159.775 213.962 159.732 214.071C159.69 214.179 159.692 214.301 159.739 214.408L170.611 239.017C170.645 239.096 170.701 239.164 170.773 239.211C170.844 239.259 170.928 239.285 171.014 239.286C171.087 239.29 171.16 239.276 171.227 239.244H171.198ZM173.081 235.846L199.12 232.124C199.183 232.122 199.245 232.108 199.302 232.081C199.359 232.054 199.409 232.015 199.45 231.967C199.491 231.92 199.521 231.864 199.539 231.803C199.557 231.743 199.561 231.679 199.553 231.617C199.544 231.555 199.523 231.495 199.489 231.442C199.456 231.388 199.412 231.343 199.36 231.308C199.307 231.272 199.248 231.249 199.186 231.238C199.124 231.228 199.061 231.23 199 231.246L172.961 234.969C172.844 234.976 172.736 235.03 172.659 235.117C172.582 235.205 172.543 235.32 172.55 235.436C172.558 235.552 172.611 235.661 172.699 235.738C172.786 235.815 172.901 235.854 173.017 235.846H173.081ZM165.656 252.458C165.749 252.386 165.809 252.279 165.823 252.163C165.838 252.046 165.806 251.928 165.734 251.835L151.621 233.702C151.549 233.608 151.442 233.547 151.325 233.531C151.207 233.516 151.088 233.548 150.994 233.62C150.901 233.693 150.839 233.799 150.824 233.917C150.809 234.034 150.841 234.153 150.913 234.247L165.055 252.409C165.096 252.462 165.148 252.504 165.208 252.534C165.268 252.563 165.334 252.579 165.401 252.579C165.507 252.573 165.607 252.531 165.685 252.458H165.656ZM187.711 247.553C187.715 247.436 187.672 247.322 187.593 247.236C187.513 247.15 187.403 247.099 187.286 247.093L167.886 246.109C167.777 246.117 167.674 246.164 167.598 246.242C167.521 246.32 167.476 246.424 167.471 246.533C167.466 246.642 167.501 246.749 167.569 246.834C167.638 246.919 167.736 246.976 167.843 246.994L187.279 247.978C187.396 247.982 187.51 247.939 187.596 247.86C187.682 247.78 187.734 247.67 187.739 247.553H187.711ZM178.559 261.95C178.566 261.891 178.561 261.832 178.545 261.776C178.528 261.72 178.501 261.667 178.464 261.622C178.427 261.576 178.381 261.539 178.33 261.511C178.278 261.483 178.221 261.466 178.163 261.461L163.299 259.996C163.242 259.99 163.183 259.996 163.128 260.013C163.072 260.029 163.021 260.057 162.976 260.094C162.931 260.131 162.894 260.176 162.867 260.227C162.84 260.279 162.823 260.335 162.818 260.392C162.808 260.509 162.844 260.624 162.918 260.714C162.992 260.804 163.099 260.861 163.214 260.874L178.078 262.346H178.12C178.235 262.354 178.347 262.317 178.435 262.243C178.522 262.169 178.577 262.064 178.587 261.95H178.559ZM159.909 269.622C160.007 269.557 160.076 269.456 160.1 269.34C160.124 269.225 160.101 269.105 160.036 269.006L152.69 257.901C152.622 257.805 152.521 257.739 152.406 257.717C152.291 257.695 152.172 257.717 152.074 257.781C151.976 257.846 151.907 257.947 151.883 258.062C151.859 258.178 151.882 258.298 151.946 258.396L159.293 269.502C159.335 269.562 159.391 269.612 159.457 269.647C159.522 269.681 159.595 269.699 159.668 269.7C159.764 269.705 159.859 269.678 159.937 269.622H159.909ZM176.768 273.338C176.767 273.221 176.72 273.11 176.638 273.027C176.557 272.944 176.446 272.896 176.33 272.892L158.854 272.729C158.738 272.729 158.626 272.775 158.544 272.858C158.462 272.94 158.416 273.052 158.416 273.168C158.414 273.226 158.424 273.285 158.445 273.339C158.466 273.394 158.498 273.443 158.539 273.485C158.58 273.527 158.63 273.56 158.684 273.582C158.738 273.604 158.796 273.615 158.854 273.614L176.33 273.777C176.389 273.78 176.449 273.77 176.505 273.75C176.561 273.729 176.613 273.697 176.656 273.656C176.7 273.615 176.735 273.566 176.759 273.511C176.783 273.457 176.796 273.398 176.797 273.338H176.768ZM153.32 299.469C153.355 299.391 156.335 291.181 165.295 289.221C165.411 289.195 165.511 289.125 165.575 289.025C165.639 288.926 165.66 288.805 165.635 288.69C165.606 288.577 165.535 288.479 165.436 288.417C165.337 288.355 165.218 288.333 165.104 288.357C155.655 290.424 152.52 299.094 152.484 299.179C152.448 299.291 152.456 299.412 152.508 299.518C152.559 299.624 152.65 299.705 152.76 299.745H152.902C152.996 299.753 153.09 299.731 153.171 299.681C153.251 299.631 153.313 299.557 153.348 299.469H153.32ZM155.308 305.96C155.426 305.951 155.534 305.896 155.611 305.807C155.688 305.718 155.727 305.603 155.719 305.485C154.608 288.796 161.063 261.461 171.418 239.024C178.035 224.685 203.976 196.501 204.252 196.218C204.335 196.134 204.382 196.021 204.382 195.903C204.382 195.785 204.335 195.671 204.252 195.588C204.211 195.547 204.162 195.514 204.109 195.492C204.056 195.469 203.998 195.458 203.94 195.458C203.882 195.458 203.825 195.469 203.772 195.492C203.718 195.514 203.67 195.547 203.629 195.588C203.367 195.871 177.321 224.161 170.646 238.628C160.1 261.61 153.73 288.449 154.863 305.542C154.871 305.655 154.922 305.76 155.004 305.837C155.087 305.915 155.195 305.958 155.308 305.96ZM176.478 229.837C176.595 229.83 176.705 229.777 176.783 229.69C176.861 229.602 176.902 229.487 176.896 229.37L175.204 200.74C175.202 200.682 175.187 200.625 175.162 200.572C175.137 200.52 175.102 200.472 175.058 200.433C175.015 200.395 174.964 200.365 174.909 200.346C174.854 200.327 174.795 200.319 174.737 200.323C174.62 200.33 174.511 200.383 174.432 200.471C174.354 200.558 174.314 200.673 174.32 200.79L176.039 229.406C176.045 229.518 176.094 229.625 176.175 229.702C176.257 229.78 176.365 229.823 176.478 229.823V229.837ZM171.198 239.244C171.304 239.196 171.387 239.108 171.43 239C171.472 238.891 171.47 238.771 171.425 238.663L160.546 214.054C160.499 213.947 160.412 213.863 160.303 213.82C160.194 213.778 160.073 213.78 159.966 213.827C159.859 213.874 159.775 213.962 159.732 214.071C159.69 214.179 159.692 214.301 159.739 214.408L170.611 239.017C170.645 239.096 170.701 239.164 170.773 239.211C170.844 239.259 170.928 239.285 171.014 239.286C171.087 239.29 171.16 239.276 171.227 239.244H171.198ZM173.081 235.846L199.12 232.124C199.183 232.122 199.245 232.108 199.302 232.081C199.359 232.054 199.409 232.015 199.45 231.967C199.491 231.92 199.521 231.864 199.539 231.803C199.557 231.743 199.561 231.679 199.553 231.617C199.544 231.555 199.523 231.495 199.489 231.442C199.456 231.388 199.412 231.343 199.36 231.308C199.307 231.272 199.248 231.249 199.186 231.238C199.124 231.228 199.061 231.23 199 231.246L172.961 234.969C172.844 234.976 172.736 235.03 172.659 235.117C172.582 235.205 172.543 235.32 172.55 235.436C172.558 235.552 172.611 235.661 172.699 235.738C172.786 235.815 172.901 235.854 173.017 235.846H173.081ZM165.656 252.458C165.749 252.386 165.809 252.279 165.823 252.163C165.838 252.046 165.806 251.928 165.734 251.835L151.621 233.702C151.585 233.655 151.54 233.616 151.49 233.587C151.439 233.558 151.383 233.539 151.325 233.531C151.266 233.524 151.207 233.528 151.151 233.543C151.094 233.558 151.041 233.585 150.994 233.62C150.948 233.656 150.909 233.701 150.88 233.752C150.851 233.803 150.832 233.859 150.824 233.917C150.816 233.975 150.82 234.034 150.836 234.091C150.851 234.147 150.877 234.2 150.913 234.247L165.055 252.409C165.096 252.462 165.148 252.504 165.208 252.534C165.268 252.563 165.334 252.579 165.401 252.579C165.507 252.573 165.607 252.531 165.685 252.458H165.656ZM187.711 247.553C187.715 247.436 187.672 247.322 187.593 247.236C187.513 247.15 187.403 247.099 187.286 247.093L167.886 246.109C167.777 246.117 167.674 246.164 167.598 246.242C167.521 246.32 167.476 246.424 167.471 246.533C167.466 246.642 167.501 246.749 167.569 246.834C167.638 246.919 167.736 246.976 167.843 246.994L187.279 247.978C187.396 247.982 187.51 247.939 187.596 247.86C187.682 247.78 187.734 247.67 187.739 247.553H187.711ZM178.559 261.95C178.566 261.891 178.561 261.832 178.545 261.776C178.528 261.72 178.501 261.667 178.464 261.622C178.427 261.576 178.381 261.539 178.33 261.511C178.278 261.483 178.221 261.466 178.163 261.461L163.299 259.996C163.242 259.99 163.183 259.996 163.128 260.013C163.072 260.029 163.021 260.057 162.976 260.094C162.931 260.131 162.894 260.176 162.867 260.227C162.84 260.279 162.823 260.335 162.818 260.392C162.808 260.509 162.844 260.624 162.918 260.714C162.992 260.804 163.099 260.861 163.214 260.874L178.078 262.346H178.12C178.235 262.354 178.347 262.317 178.435 262.243C178.522 262.169 178.577 262.064 178.587 261.95H178.559ZM159.909 269.622C160.007 269.557 160.076 269.456 160.1 269.34C160.124 269.225 160.101 269.105 160.036 269.006L152.69 257.901C152.622 257.805 152.521 257.739 152.406 257.717C152.291 257.695 152.172 257.717 152.074 257.781C151.976 257.846 151.907 257.947 151.883 258.062C151.859 258.178 151.882 258.298 151.946 258.396L159.293 269.502C159.335 269.562 159.391 269.612 159.457 269.647C159.522 269.681 159.595 269.699 159.668 269.7C159.764 269.705 159.859 269.678 159.937 269.622H159.909ZM176.768 273.338C176.767 273.221 176.72 273.11 176.638 273.027C176.557 272.944 176.446 272.896 176.33 272.892L158.854 272.729C158.738 272.729 158.626 272.775 158.544 272.858C158.462 272.94 158.416 273.052 158.416 273.168C158.414 273.226 158.424 273.285 158.445 273.339C158.466 273.394 158.498 273.443 158.539 273.485C158.58 273.527 158.63 273.56 158.684 273.582C158.738 273.604 158.796 273.615 158.854 273.614L176.33 273.777C176.389 273.78 176.449 273.77 176.505 273.75C176.561 273.729 176.613 273.697 176.656 273.656C176.7 273.615 176.735 273.566 176.759 273.511C176.783 273.457 176.796 273.398 176.797 273.338H176.768ZM153.32 299.469C153.355 299.391 156.335 291.181 165.295 289.221C165.411 289.195 165.511 289.125 165.575 289.025C165.639 288.926 165.66 288.805 165.635 288.69C165.606 288.577 165.535 288.479 165.436 288.417C165.337 288.355 165.218 288.333 165.104 288.357C155.655 290.424 152.52 299.094 152.484 299.179C152.448 299.291 152.456 299.412 152.508 299.518C152.559 299.624 152.65 299.705 152.76 299.745H152.902C152.996 299.753 153.09 299.731 153.171 299.681C153.251 299.631 153.313 299.557 153.348 299.469H153.32Z" fill="#92E3A9"/>
<path opacity="0.2" d="M176.485 229.399L174.765 200.783L176.485 229.399ZM171.042 238.84L160.171 214.231L171.042 238.84ZM199.099 231.685L173.046 235.422L199.099 231.685ZM165.409 252.104L151.302 234.006L165.409 252.104ZM167.886 246.555L187.322 247.532L167.886 246.555ZM163.285 260.435L178.149 261.907L163.285 260.435ZM159.697 269.254L152.314 258.149L159.697 269.254ZM158.847 273.175L176.323 273.338L158.847 273.175ZM155.308 305.96C155.426 305.951 155.534 305.896 155.611 305.807C155.688 305.718 155.727 305.603 155.719 305.485C154.608 288.796 161.063 261.461 171.418 239.024C178.035 224.685 203.976 196.501 204.252 196.218C204.335 196.134 204.382 196.021 204.382 195.903C204.382 195.785 204.335 195.671 204.252 195.588C204.211 195.547 204.162 195.514 204.109 195.492C204.056 195.469 203.998 195.458 203.94 195.458C203.882 195.458 203.825 195.469 203.772 195.492C203.718 195.514 203.67 195.547 203.629 195.588C203.367 195.871 177.321 224.161 170.646 238.628C160.1 261.61 153.73 288.449 154.863 305.542C154.871 305.655 154.922 305.76 155.004 305.837C155.087 305.915 155.195 305.958 155.308 305.96ZM176.478 229.837C176.595 229.83 176.705 229.777 176.783 229.69C176.861 229.602 176.902 229.487 176.896 229.37L175.204 200.74C175.202 200.682 175.187 200.625 175.162 200.572C175.137 200.52 175.102 200.472 175.058 200.433C175.015 200.395 174.964 200.365 174.909 200.346C174.854 200.327 174.795 200.319 174.737 200.323C174.62 200.33 174.511 200.383 174.432 200.471C174.354 200.558 174.314 200.673 174.32 200.79L176.039 229.406C176.045 229.518 176.094 229.625 176.175 229.702C176.257 229.78 176.365 229.823 176.478 229.823V229.837ZM171.198 239.244C171.304 239.196 171.387 239.108 171.43 239C171.472 238.891 171.47 238.771 171.425 238.663L160.546 214.054C160.499 213.947 160.412 213.863 160.303 213.82C160.194 213.778 160.073 213.78 159.966 213.827C159.859 213.874 159.775 213.962 159.732 214.071C159.69 214.179 159.692 214.301 159.739 214.408L170.611 239.017C170.645 239.096 170.701 239.164 170.773 239.211C170.844 239.259 170.928 239.285 171.014 239.286C171.087 239.29 171.16 239.276 171.227 239.244H171.198ZM173.081 235.846L199.12 232.124C199.183 232.122 199.245 232.108 199.302 232.081C199.359 232.054 199.409 232.015 199.45 231.967C199.491 231.92 199.521 231.864 199.539 231.803C199.557 231.743 199.561 231.679 199.553 231.617C199.544 231.555 199.523 231.495 199.489 231.442C199.456 231.388 199.412 231.343 199.36 231.308C199.307 231.272 199.248 231.249 199.186 231.238C199.124 231.228 199.061 231.23 199 231.246L172.961 234.969C172.844 234.976 172.736 235.03 172.659 235.117C172.582 235.205 172.543 235.32 172.55 235.436C172.558 235.552 172.611 235.661 172.699 235.738C172.786 235.815 172.901 235.854 173.017 235.846H173.081ZM165.656 252.458C165.749 252.386 165.809 252.279 165.823 252.163C165.838 252.046 165.806 251.928 165.734 251.835L151.621 233.702C151.549 233.608 151.442 233.547 151.325 233.531C151.207 233.516 151.088 233.548 150.994 233.62C150.901 233.693 150.839 233.799 150.824 233.917C150.809 234.034 150.841 234.153 150.913 234.247L165.055 252.409C165.096 252.462 165.148 252.504 165.208 252.534C165.268 252.563 165.334 252.579 165.401 252.579C165.507 252.573 165.607 252.531 165.685 252.458H165.656ZM187.711 247.553C187.715 247.436 187.672 247.322 187.593 247.236C187.513 247.15 187.403 247.099 187.286 247.093L167.886 246.109C167.777 246.117 167.674 246.164 167.598 246.242C167.521 246.32 167.476 246.424 167.471 246.533C167.466 246.642 167.501 246.749 167.569 246.834C167.638 246.919 167.736 246.976 167.843 246.994L187.279 247.978C187.396 247.982 187.51 247.939 187.596 247.86C187.682 247.78 187.734 247.67 187.739 247.553H187.711ZM178.559 261.95C178.566 261.891 178.561 261.832 178.545 261.776C178.528 261.72 178.501 261.667 178.464 261.622C178.427 261.576 178.381 261.539 178.33 261.511C178.278 261.483 178.221 261.466 178.163 261.461L163.299 259.996C163.242 259.99 163.183 259.996 163.128 260.013C163.072 260.029 163.021 260.057 162.976 260.094C162.931 260.131 162.894 260.176 162.867 260.227C162.84 260.279 162.823 260.335 162.818 260.392C162.808 260.509 162.844 260.624 162.918 260.714C162.992 260.804 163.099 260.861 163.214 260.874L178.078 262.346H178.12C178.235 262.354 178.347 262.317 178.435 262.243C178.522 262.169 178.577 262.064 178.587 261.95H178.559ZM159.909 269.622C160.007 269.557 160.076 269.456 160.1 269.34C160.124 269.225 160.101 269.105 160.036 269.006L152.69 257.901C152.622 257.805 152.521 257.739 152.406 257.717C152.291 257.695 152.172 257.717 152.074 257.781C151.976 257.846 151.907 257.947 151.883 258.062C151.859 258.178 151.882 258.298 151.946 258.396L159.293 269.502C159.335 269.562 159.391 269.612 159.457 269.647C159.522 269.681 159.595 269.699 159.668 269.7C159.764 269.705 159.859 269.678 159.937 269.622H159.909ZM176.768 273.338C176.767 273.221 176.72 273.11 176.638 273.027C176.557 272.944 176.446 272.896 176.33 272.892L158.854 272.729C158.738 272.729 158.626 272.775 158.544 272.858C158.462 272.94 158.416 273.052 158.416 273.168C158.414 273.226 158.424 273.285 158.445 273.339C158.466 273.394 158.498 273.443 158.539 273.485C158.58 273.527 158.63 273.56 158.684 273.582C158.738 273.604 158.796 273.615 158.854 273.614L176.33 273.777C176.389 273.78 176.449 273.77 176.505 273.75C176.561 273.729 176.613 273.697 176.656 273.656C176.7 273.615 176.735 273.566 176.759 273.511C176.783 273.457 176.796 273.398 176.797 273.338H176.768ZM153.32 299.469C153.355 299.391 156.335 291.181 165.295 289.221C165.411 289.195 165.511 289.125 165.575 289.025C165.639 288.926 165.66 288.805 165.635 288.69C165.606 288.577 165.535 288.479 165.436 288.417C165.337 288.355 165.218 288.333 165.104 288.357C155.655 290.424 152.52 299.094 152.484 299.179C152.448 299.291 152.456 299.412 152.508 299.518C152.559 299.624 152.65 299.705 152.76 299.745H152.902C152.996 299.753 153.09 299.731 153.171 299.681C153.251 299.631 153.313 299.557 153.348 299.469H153.32ZM155.308 305.96C155.426 305.951 155.534 305.896 155.611 305.807C155.688 305.718 155.727 305.603 155.719 305.485C154.608 288.796 161.063 261.461 171.418 239.024C178.035 224.685 203.976 196.501 204.252 196.218C204.335 196.134 204.382 196.021 204.382 195.903C204.382 195.785 204.335 195.671 204.252 195.588C204.211 195.547 204.162 195.514 204.109 195.492C204.056 195.469 203.998 195.458 203.94 195.458C203.882 195.458 203.825 195.469 203.772 195.492C203.718 195.514 203.67 195.547 203.629 195.588C203.367 195.871 177.321 224.161 170.646 238.628C160.1 261.61 153.73 288.449 154.863 305.542C154.871 305.655 154.922 305.76 155.004 305.837C155.087 305.915 155.195 305.958 155.308 305.96ZM176.478 229.837C176.595 229.83 176.705 229.777 176.783 229.69C176.861 229.602 176.902 229.487 176.896 229.37L175.204 200.74C175.202 200.682 175.187 200.625 175.162 200.572C175.137 200.52 175.102 200.472 175.058 200.433C175.015 200.395 174.964 200.365 174.909 200.346C174.854 200.327 174.795 200.319 174.737 200.323C174.62 200.33 174.511 200.383 174.432 200.471C174.354 200.558 174.314 200.673 174.32 200.79L176.039 229.406C176.045 229.518 176.094 229.625 176.175 229.702C176.257 229.78 176.365 229.823 176.478 229.823V229.837ZM171.198 239.244C171.304 239.196 171.387 239.108 171.43 239C171.472 238.891 171.47 238.771 171.425 238.663L160.546 214.054C160.499 213.947 160.412 213.863 160.303 213.82C160.194 213.778 160.073 213.78 159.966 213.827C159.859 213.874 159.775 213.962 159.732 214.071C159.69 214.179 159.692 214.301 159.739 214.408L170.611 239.017C170.645 239.096 170.701 239.164 170.773 239.211C170.844 239.259 170.928 239.285 171.014 239.286C171.087 239.29 171.16 239.276 171.227 239.244H171.198ZM173.081 235.846L199.12 232.124C199.183 232.122 199.245 232.108 199.302 232.081C199.359 232.054 199.409 232.015 199.45 231.967C199.491 231.92 199.521 231.864 199.539 231.803C199.557 231.743 199.561 231.679 199.553 231.617C199.544 231.555 199.523 231.495 199.489 231.442C199.456 231.388 199.412 231.343 199.36 231.308C199.307 231.272 199.248 231.249 199.186 231.238C199.124 231.228 199.061 231.23 199 231.246L172.961 234.969C172.844 234.976 172.736 235.03 172.659 235.117C172.582 235.205 172.543 235.32 172.55 235.436C172.558 235.552 172.611 235.661 172.699 235.738C172.786 235.815 172.901 235.854 173.017 235.846H173.081ZM165.656 252.458C165.749 252.386 165.809 252.279 165.823 252.163C165.838 252.046 165.806 251.928 165.734 251.835L151.621 233.702C151.585 233.655 151.54 233.616 151.49 233.587C151.439 233.558 151.383 233.539 151.325 233.531C151.266 233.524 151.207 233.528 151.151 233.543C151.094 233.558 151.041 233.585 150.994 233.62C150.948 233.656 150.909 233.701 150.88 233.752C150.851 233.803 150.832 233.859 150.824 233.917C150.816 233.975 150.82 234.034 150.836 234.091C150.851 234.147 150.877 234.2 150.913 234.247L165.055 252.409C165.096 252.462 165.148 252.504 165.208 252.534C165.268 252.563 165.334 252.579 165.401 252.579C165.507 252.573 165.607 252.531 165.685 252.458H165.656ZM187.711 247.553C187.715 247.436 187.672 247.322 187.593 247.236C187.513 247.15 187.403 247.099 187.286 247.093L167.886 246.109C167.777 246.117 167.674 246.164 167.598 246.242C167.521 246.32 167.476 246.424 167.471 246.533C167.466 246.642 167.501 246.749 167.569 246.834C167.638 246.919 167.736 246.976 167.843 246.994L187.279 247.978C187.396 247.982 187.51 247.939 187.596 247.86C187.682 247.78 187.734 247.67 187.739 247.553H187.711ZM178.559 261.95C178.566 261.891 178.561 261.832 178.545 261.776C178.528 261.72 178.501 261.667 178.464 261.622C178.427 261.576 178.381 261.539 178.33 261.511C178.278 261.483 178.221 261.466 178.163 261.461L163.299 259.996C163.242 259.99 163.183 259.996 163.128 260.013C163.072 260.029 163.021 260.057 162.976 260.094C162.931 260.131 162.894 260.176 162.867 260.227C162.84 260.279 162.823 260.335 162.818 260.392C162.808 260.509 162.844 260.624 162.918 260.714C162.992 260.804 163.099 260.861 163.214 260.874L178.078 262.346H178.12C178.235 262.354 178.347 262.317 178.435 262.243C178.522 262.169 178.577 262.064 178.587 261.95H178.559ZM159.909 269.622C160.007 269.557 160.076 269.456 160.1 269.34C160.124 269.225 160.101 269.105 160.036 269.006L152.69 257.901C152.622 257.805 152.521 257.739 152.406 257.717C152.291 257.695 152.172 257.717 152.074 257.781C151.976 257.846 151.907 257.947 151.883 258.062C151.859 258.178 151.882 258.298 151.946 258.396L159.293 269.502C159.335 269.562 159.391 269.612 159.457 269.647C159.522 269.681 159.595 269.699 159.668 269.7C159.764 269.705 159.859 269.678 159.937 269.622H159.909ZM176.768 273.338C176.767 273.221 176.72 273.11 176.638 273.027C176.557 272.944 176.446 272.896 176.33 272.892L158.854 272.729C158.738 272.729 158.626 272.775 158.544 272.858C158.462 272.94 158.416 273.052 158.416 273.168C158.414 273.226 158.424 273.285 158.445 273.339C158.466 273.394 158.498 273.443 158.539 273.485C158.58 273.527 158.63 273.56 158.684 273.582C158.738 273.604 158.796 273.615 158.854 273.614L176.33 273.777C176.389 273.78 176.449 273.77 176.505 273.75C176.561 273.729 176.613 273.697 176.656 273.656C176.7 273.615 176.735 273.566 176.759 273.511C176.783 273.457 176.796 273.398 176.797 273.338H176.768ZM153.32 299.469C153.355 299.391 156.335 291.181 165.295 289.221C165.411 289.195 165.511 289.125 165.575 289.025C165.639 288.926 165.66 288.805 165.635 288.69C165.606 288.577 165.535 288.479 165.436 288.417C165.337 288.355 165.218 288.333 165.104 288.357C155.655 290.424 152.52 299.094 152.484 299.179C152.448 299.291 152.456 299.412 152.508 299.518C152.559 299.624 152.65 299.705 152.76 299.745H152.902C152.996 299.753 153.09 299.731 153.171 299.681C153.251 299.631 153.313 299.557 153.348 299.469H153.32Z" fill="black"/>
<path d="M166.866 293.482H146.828V297.63H148.576L152.193 320.257H161.501L165.117 297.63H166.866V293.482Z" fill="#92E3A9"/>
<path opacity="0.3" d="M166.866 293.482H146.828V297.63H148.576L152.193 320.257H161.501L165.117 297.63H166.866V293.482Z" fill="white"/>
</svg>
