<svg width="284" height="387" viewBox="0 0 284 387" fill="none" xmlns="http://www.w3.org/2000/svg">
<path d="M165.796 324.5C209.345 324.5 244.648 321.265 244.648 317.275C244.648 313.285 209.345 310.051 165.796 310.051C122.247 310.051 86.9443 313.285 86.9443 317.275C86.9443 321.265 122.247 324.5 165.796 324.5Z" fill="#92E3A9"/>
<path opacity="0.8" d="M165.796 324.5C209.345 324.5 244.648 321.265 244.648 317.275C244.648 313.285 209.345 310.051 165.796 310.051C122.247 310.051 86.9443 313.285 86.9443 317.275C86.9443 321.265 122.247 324.5 165.796 324.5Z" fill="white"/>
<path d="M240.144 208.304C240.144 208.304 229.686 181.731 238.996 178.572C248.689 175.279 248.261 192.827 247.886 201.379C247.098 219.655 245.08 223.053 243.572 218.589L240.144 208.304ZM237 229.032C239.874 232.783 240.684 228.897 235.5 211.35C233.069 203.097 227.788 186.405 219.685 192.669C211.905 198.671 230.421 220.427 230.421 220.427L237 229.032ZM231.449 244.262C234.187 246.693 234.239 243.624 227.735 230.953C224.682 225.019 218.222 213.008 212.933 218.949C207.854 224.681 225.162 238.613 225.162 238.613L231.449 244.262ZM225.447 262.372C228.185 264.811 228.238 261.735 221.733 249.071C218.68 243.137 212.22 231.118 206.931 237.067C201.882 242.814 219.137 256.746 219.137 256.746L225.447 262.372ZM242.777 225.506C238.396 227.217 241.877 229.077 260.175 229.025C268.757 229.025 286.283 228.635 282.546 219.099C278.968 209.939 252.905 221.605 252.905 221.605L242.777 225.506ZM237.788 237.69C233.152 238.493 236.198 241.013 254.143 244.599C262.553 246.287 279.801 249.401 278.038 239.348C276.35 229.655 248.486 235.912 248.486 235.912L237.788 237.69ZM232.206 252.567C228.26 253.137 230.781 255.335 245.868 258.786C252.943 260.407 267.459 263.445 266.199 254.87C264.999 246.618 241.292 251.284 241.292 251.284L232.206 252.567ZM227.968 266.348C224.104 267.331 226.842 269.252 242.222 271.082C249.424 271.938 264.181 273.423 262.028 265.028C259.95 256.971 236.873 264.105 236.873 264.105L227.968 266.348ZM250.579 210.554C248.329 215.596 253.003 214.831 268.892 200.966C276.335 194.462 291.264 180.853 279.44 174.078C268.09 167.566 255.883 198.986 255.883 198.986L250.579 210.554ZM228.553 284.301C226.175 285.689 228.508 286.229 239.416 284.054C244.533 283.041 254.938 280.79 251.42 276.349C248.014 272.073 234.059 281.075 234.059 281.075L228.553 284.301Z" fill="#92E3A9"/>
<path opacity="0.3" d="M240.144 208.304C240.144 208.304 229.686 181.731 238.996 178.572C248.689 175.279 248.261 192.827 247.886 201.379C247.098 219.655 245.08 223.053 243.572 218.589L240.144 208.304ZM237 229.032C239.874 232.783 240.684 228.897 235.5 211.35C233.069 203.097 227.788 186.405 219.685 192.669C211.905 198.671 230.421 220.427 230.421 220.427L237 229.032ZM231.449 244.262C234.187 246.693 234.239 243.624 227.735 230.953C224.682 225.019 218.222 213.008 212.933 218.949C207.854 224.681 225.162 238.613 225.162 238.613L231.449 244.262ZM225.447 262.372C228.185 264.811 228.238 261.735 221.733 249.071C218.68 243.137 212.22 231.118 206.931 237.067C201.882 242.814 219.137 256.746 219.137 256.746L225.447 262.372ZM242.777 225.506C238.396 227.217 241.877 229.077 260.175 229.025C268.757 229.025 286.283 228.635 282.546 219.099C278.968 209.939 252.905 221.605 252.905 221.605L242.777 225.506ZM237.788 237.69C233.152 238.493 236.198 241.013 254.143 244.599C262.553 246.287 279.801 249.401 278.038 239.348C276.35 229.655 248.486 235.912 248.486 235.912L237.788 237.69ZM232.206 252.567C228.26 253.137 230.781 255.335 245.868 258.786C252.943 260.407 267.459 263.445 266.199 254.87C264.999 246.618 241.292 251.284 241.292 251.284L232.206 252.567ZM227.968 266.348C224.104 267.331 226.842 269.252 242.222 271.082C249.424 271.938 264.181 273.423 262.028 265.028C259.95 256.971 236.873 264.105 236.873 264.105L227.968 266.348ZM250.579 210.554C248.329 215.596 253.003 214.831 268.892 200.966C276.335 194.462 291.264 180.853 279.44 174.078C268.09 167.566 255.883 198.986 255.883 198.986L250.579 210.554ZM228.553 284.301C226.175 285.689 228.508 286.229 239.416 284.054C244.533 283.041 254.938 280.79 251.42 276.349C248.014 272.073 234.059 281.075 234.059 281.075L228.553 284.301Z" fill="white"/>
<path d="M244.758 220.675L242.935 190.343L244.758 220.675ZM238.988 230.683L227.465 204.598L238.988 230.683ZM268.727 223.098L241.112 227.059L268.727 223.098ZM233.017 244.742L218.065 225.559L233.017 244.742ZM235.642 238.86L256.244 239.896L235.642 238.86ZM230.766 253.572L246.521 255.133L230.766 253.572ZM226.962 262.92L219.137 251.149L226.962 262.92ZM226.062 267.076L244.585 267.249L226.062 267.076ZM222.311 301.827C222.435 301.817 222.55 301.759 222.632 301.665C222.713 301.571 222.754 301.448 222.746 301.324C221.568 283.634 228.41 254.66 239.386 230.878C246.401 215.678 273.896 185.804 274.189 185.504C274.277 185.416 274.327 185.296 274.327 185.171C274.327 185.045 274.277 184.925 274.189 184.837C274.146 184.793 274.094 184.759 274.038 184.735C273.981 184.711 273.92 184.699 273.859 184.699C273.797 184.699 273.737 184.711 273.68 184.735C273.623 184.759 273.572 184.793 273.529 184.837C273.251 185.137 245.643 215.123 238.568 230.458C227.39 254.818 220.638 283.266 221.838 301.384C221.848 301.503 221.901 301.615 221.989 301.697C222.076 301.779 222.191 301.825 222.311 301.827ZM244.75 221.14C244.874 221.132 244.99 221.076 245.073 220.983C245.156 220.891 245.199 220.769 245.193 220.645L243.4 190.298C243.397 190.237 243.382 190.176 243.355 190.12C243.329 190.064 243.291 190.014 243.245 189.973C243.199 189.932 243.145 189.9 243.087 189.88C243.028 189.86 242.966 189.852 242.905 189.856C242.781 189.863 242.664 189.92 242.582 190.012C242.499 190.105 242.456 190.227 242.462 190.351L244.285 220.682C244.291 220.802 244.342 220.914 244.429 220.997C244.516 221.079 244.631 221.125 244.75 221.125V221.14ZM239.153 231.11C239.266 231.06 239.354 230.967 239.399 230.852C239.444 230.737 239.442 230.609 239.394 230.495L227.863 204.41C227.813 204.297 227.72 204.208 227.605 204.163C227.489 204.118 227.361 204.12 227.247 204.17C227.134 204.22 227.045 204.312 227 204.428C226.955 204.543 226.958 204.672 227.007 204.785L238.531 230.87C238.567 230.954 238.627 231.026 238.702 231.076C238.778 231.127 238.867 231.154 238.958 231.155C239.036 231.16 239.113 231.144 239.183 231.11H239.153ZM241.149 227.509L268.75 223.563C268.816 223.562 268.882 223.546 268.942 223.518C269.003 223.489 269.056 223.448 269.099 223.398C269.143 223.347 269.175 223.288 269.194 223.224C269.212 223.16 269.217 223.093 269.208 223.026C269.199 222.96 269.176 222.897 269.141 222.84C269.106 222.784 269.059 222.735 269.004 222.698C268.948 222.661 268.886 222.636 268.82 222.625C268.754 222.614 268.687 222.616 268.622 222.633L241.022 226.579C240.898 226.587 240.783 226.644 240.701 226.737C240.62 226.829 240.578 226.951 240.586 227.074C240.594 227.198 240.651 227.313 240.744 227.394C240.837 227.476 240.958 227.517 241.082 227.509H241.149ZM233.279 245.117C233.377 245.04 233.441 244.928 233.456 244.804C233.472 244.68 233.438 244.556 233.362 244.457L218.402 225.236C218.326 225.137 218.213 225.072 218.088 225.056C217.964 225.039 217.838 225.073 217.738 225.15C217.639 225.227 217.574 225.34 217.558 225.464C217.541 225.589 217.575 225.714 217.652 225.814L232.642 245.065C232.685 245.121 232.741 245.166 232.804 245.197C232.868 245.228 232.938 245.245 233.009 245.245C233.121 245.239 233.227 245.194 233.309 245.117H233.279ZM256.656 239.918C256.66 239.794 256.615 239.673 256.531 239.582C256.447 239.491 256.33 239.436 256.206 239.43L235.642 238.388C235.527 238.396 235.418 238.446 235.337 238.528C235.256 238.611 235.208 238.721 235.203 238.836C235.197 238.952 235.234 239.066 235.307 239.156C235.38 239.246 235.483 239.306 235.597 239.325L256.199 240.368C256.323 240.372 256.443 240.327 256.535 240.243C256.626 240.159 256.68 240.042 256.686 239.918H256.656ZM246.956 255.178C246.963 255.116 246.958 255.053 246.941 254.994C246.923 254.934 246.894 254.878 246.855 254.83C246.816 254.782 246.767 254.742 246.713 254.713C246.658 254.684 246.598 254.666 246.536 254.66L230.781 253.107C230.72 253.101 230.658 253.107 230.599 253.125C230.54 253.142 230.486 253.172 230.438 253.211C230.391 253.25 230.352 253.298 230.323 253.352C230.294 253.407 230.276 253.466 230.271 253.527C230.26 253.65 230.298 253.773 230.377 253.868C230.455 253.963 230.568 254.024 230.691 254.037L246.446 255.598H246.491C246.612 255.606 246.731 255.567 246.824 255.488C246.916 255.41 246.974 255.298 246.986 255.178H246.956ZM227.187 263.31C227.292 263.241 227.364 263.134 227.39 263.012C227.415 262.889 227.391 262.762 227.322 262.657L219.535 250.886C219.464 250.785 219.356 250.715 219.234 250.691C219.113 250.668 218.987 250.692 218.882 250.759C218.778 250.828 218.706 250.935 218.68 251.057C218.655 251.18 218.679 251.307 218.747 251.412L226.535 263.183C226.579 263.247 226.639 263.3 226.708 263.336C226.777 263.373 226.854 263.392 226.932 263.393C227.034 263.398 227.134 263.369 227.217 263.31H227.187ZM245.058 267.249C245.056 267.125 245.006 267.007 244.92 266.919C244.833 266.831 244.716 266.78 244.593 266.776L226.07 266.604C225.946 266.604 225.828 266.653 225.741 266.74C225.653 266.827 225.604 266.945 225.604 267.069C225.602 267.131 225.613 267.192 225.636 267.25C225.658 267.308 225.692 267.361 225.736 267.405C225.779 267.449 225.831 267.484 225.889 267.507C225.946 267.531 226.008 267.542 226.07 267.541L244.593 267.714C244.656 267.717 244.719 267.707 244.779 267.685C244.838 267.663 244.893 267.63 244.939 267.586C244.985 267.543 245.022 267.491 245.048 267.433C245.073 267.375 245.087 267.312 245.088 267.249H245.058ZM220.203 294.947C220.24 294.864 223.399 286.162 232.897 284.084C233.019 284.057 233.126 283.982 233.193 283.877C233.261 283.771 233.283 283.643 233.257 283.521C233.226 283.401 233.151 283.298 233.046 283.232C232.941 283.166 232.815 283.143 232.694 283.169C222.679 285.359 219.355 294.549 219.318 294.639C219.279 294.758 219.288 294.887 219.342 294.999C219.397 295.111 219.493 295.197 219.61 295.24H219.76C219.86 295.248 219.96 295.224 220.045 295.172C220.13 295.119 220.196 295.04 220.233 294.947H220.203ZM222.311 301.827C222.435 301.817 222.55 301.759 222.632 301.665C222.713 301.571 222.754 301.448 222.746 301.324C221.568 283.634 228.41 254.66 239.386 230.878C246.401 215.678 273.896 185.804 274.189 185.504C274.277 185.416 274.327 185.296 274.327 185.171C274.327 185.045 274.277 184.925 274.189 184.837C274.146 184.793 274.094 184.759 274.038 184.735C273.981 184.711 273.92 184.699 273.859 184.699C273.797 184.699 273.737 184.711 273.68 184.735C273.623 184.759 273.572 184.793 273.529 184.837C273.251 185.137 245.643 215.123 238.568 230.458C227.39 254.818 220.638 283.266 221.838 301.384C221.848 301.503 221.901 301.615 221.989 301.697C222.076 301.779 222.191 301.825 222.311 301.827ZM244.75 221.14C244.874 221.132 244.99 221.076 245.073 220.983C245.156 220.891 245.199 220.769 245.193 220.645L243.4 190.298C243.397 190.237 243.382 190.176 243.355 190.12C243.329 190.064 243.291 190.014 243.245 189.973C243.199 189.932 243.145 189.9 243.087 189.88C243.028 189.86 242.966 189.852 242.905 189.856C242.781 189.863 242.664 189.92 242.582 190.012C242.499 190.105 242.456 190.227 242.462 190.351L244.285 220.682C244.291 220.802 244.342 220.914 244.429 220.997C244.516 221.079 244.631 221.125 244.75 221.125V221.14ZM239.153 231.11C239.266 231.06 239.354 230.967 239.399 230.852C239.444 230.737 239.442 230.609 239.394 230.495L227.863 204.41C227.813 204.297 227.72 204.208 227.605 204.163C227.489 204.118 227.361 204.12 227.247 204.17C227.134 204.22 227.045 204.312 227 204.428C226.955 204.543 226.958 204.672 227.007 204.785L238.531 230.87C238.567 230.954 238.627 231.026 238.702 231.076C238.778 231.127 238.867 231.154 238.958 231.155C239.036 231.16 239.113 231.144 239.183 231.11H239.153ZM241.149 227.509L268.75 223.563C268.816 223.562 268.882 223.546 268.942 223.518C269.003 223.489 269.056 223.448 269.099 223.398C269.143 223.347 269.175 223.288 269.194 223.224C269.212 223.16 269.217 223.093 269.208 223.026C269.199 222.96 269.176 222.897 269.141 222.84C269.106 222.784 269.059 222.735 269.004 222.698C268.948 222.661 268.886 222.636 268.82 222.625C268.754 222.614 268.687 222.616 268.622 222.633L241.022 226.579C240.898 226.587 240.783 226.644 240.701 226.737C240.62 226.829 240.578 226.951 240.586 227.074C240.594 227.198 240.651 227.313 240.744 227.394C240.837 227.476 240.958 227.517 241.082 227.509H241.149ZM233.279 245.117C233.377 245.04 233.441 244.928 233.456 244.804C233.472 244.68 233.438 244.556 233.362 244.457L218.402 225.236C218.364 225.187 218.317 225.146 218.263 225.115C218.209 225.084 218.15 225.064 218.088 225.056C218.027 225.048 217.964 225.052 217.904 225.068C217.844 225.084 217.788 225.112 217.738 225.15C217.689 225.188 217.648 225.235 217.617 225.289C217.586 225.343 217.566 225.402 217.558 225.464C217.55 225.526 217.554 225.588 217.57 225.648C217.586 225.708 217.614 225.765 217.652 225.814L232.642 245.065C232.685 245.121 232.741 245.166 232.804 245.197C232.868 245.228 232.938 245.245 233.009 245.245C233.121 245.239 233.227 245.194 233.309 245.117H233.279ZM256.656 239.918C256.66 239.794 256.615 239.673 256.531 239.582C256.447 239.491 256.33 239.436 256.206 239.43L235.642 238.388C235.527 238.396 235.418 238.446 235.337 238.528C235.256 238.611 235.208 238.721 235.203 238.836C235.197 238.952 235.234 239.066 235.307 239.156C235.38 239.246 235.483 239.306 235.597 239.325L256.199 240.368C256.323 240.372 256.443 240.327 256.535 240.243C256.626 240.159 256.68 240.042 256.686 239.918H256.656ZM246.956 255.178C246.963 255.116 246.958 255.053 246.941 254.994C246.923 254.934 246.894 254.878 246.855 254.83C246.816 254.782 246.767 254.742 246.713 254.713C246.658 254.684 246.598 254.666 246.536 254.66L230.781 253.107C230.72 253.101 230.658 253.107 230.599 253.125C230.54 253.142 230.486 253.172 230.438 253.211C230.391 253.25 230.352 253.298 230.323 253.352C230.294 253.407 230.276 253.466 230.271 253.527C230.26 253.65 230.298 253.773 230.377 253.868C230.455 253.963 230.568 254.024 230.691 254.037L246.446 255.598H246.491C246.612 255.606 246.731 255.567 246.824 255.488C246.916 255.41 246.974 255.298 246.986 255.178H246.956ZM227.187 263.31C227.292 263.241 227.364 263.134 227.39 263.012C227.415 262.889 227.391 262.762 227.322 262.657L219.535 250.886C219.464 250.785 219.356 250.715 219.234 250.691C219.113 250.668 218.987 250.692 218.882 250.759C218.778 250.828 218.706 250.935 218.68 251.057C218.655 251.18 218.679 251.307 218.747 251.412L226.535 263.183C226.579 263.247 226.639 263.3 226.708 263.336C226.777 263.373 226.854 263.392 226.932 263.393C227.034 263.398 227.134 263.369 227.217 263.31H227.187ZM245.058 267.249C245.056 267.125 245.006 267.007 244.92 266.919C244.833 266.831 244.716 266.78 244.593 266.776L226.07 266.604C225.946 266.604 225.828 266.653 225.741 266.74C225.653 266.827 225.604 266.945 225.604 267.069C225.602 267.131 225.613 267.192 225.636 267.25C225.658 267.308 225.692 267.361 225.736 267.405C225.779 267.449 225.831 267.484 225.889 267.507C225.946 267.531 226.008 267.542 226.07 267.541L244.593 267.714C244.656 267.717 244.719 267.707 244.779 267.685C244.838 267.663 244.893 267.63 244.939 267.586C244.985 267.543 245.022 267.491 245.048 267.433C245.073 267.375 245.087 267.312 245.088 267.249H245.058ZM220.203 294.947C220.24 294.864 223.399 286.162 232.897 284.084C233.019 284.057 233.126 283.982 233.193 283.877C233.261 283.771 233.283 283.643 233.257 283.521C233.226 283.401 233.151 283.298 233.046 283.232C232.941 283.166 232.815 283.143 232.694 283.169C222.679 285.359 219.355 294.549 219.318 294.639C219.279 294.758 219.288 294.887 219.342 294.999C219.397 295.111 219.493 295.197 219.61 295.24H219.76C219.86 295.248 219.96 295.224 220.045 295.172C220.13 295.119 220.196 295.04 220.233 294.947H220.203Z" fill="#92E3A9"/>
<path opacity="0.2" d="M244.758 220.675L242.935 190.343L244.758 220.675ZM238.988 230.683L227.465 204.598L238.988 230.683ZM268.727 223.098L241.112 227.059L268.727 223.098ZM233.017 244.742L218.065 225.559L233.017 244.742ZM235.642 238.86L256.244 239.896L235.642 238.86ZM230.766 253.572L246.521 255.133L230.766 253.572ZM226.962 262.92L219.137 251.149L226.962 262.92ZM226.062 267.076L244.585 267.249L226.062 267.076ZM222.311 301.827C222.435 301.817 222.55 301.759 222.632 301.665C222.713 301.571 222.754 301.448 222.746 301.324C221.568 283.634 228.41 254.66 239.386 230.878C246.401 215.678 273.896 185.804 274.189 185.504C274.277 185.416 274.327 185.296 274.327 185.171C274.327 185.045 274.277 184.925 274.189 184.837C274.146 184.793 274.094 184.759 274.038 184.735C273.981 184.711 273.92 184.699 273.859 184.699C273.797 184.699 273.737 184.711 273.68 184.735C273.623 184.759 273.572 184.793 273.529 184.837C273.251 185.137 245.643 215.123 238.568 230.458C227.39 254.818 220.638 283.266 221.838 301.384C221.848 301.503 221.901 301.615 221.989 301.697C222.076 301.779 222.191 301.825 222.311 301.827ZM244.75 221.14C244.874 221.132 244.99 221.076 245.073 220.983C245.156 220.891 245.199 220.769 245.193 220.645L243.4 190.298C243.397 190.237 243.382 190.176 243.355 190.12C243.329 190.064 243.291 190.014 243.245 189.973C243.199 189.932 243.145 189.9 243.087 189.88C243.028 189.86 242.966 189.852 242.905 189.856C242.781 189.863 242.664 189.92 242.582 190.012C242.499 190.105 242.456 190.227 242.462 190.351L244.285 220.682C244.291 220.802 244.342 220.914 244.429 220.997C244.516 221.079 244.631 221.125 244.75 221.125V221.14ZM239.153 231.11C239.266 231.06 239.354 230.967 239.399 230.852C239.444 230.737 239.442 230.609 239.394 230.495L227.863 204.41C227.813 204.297 227.72 204.208 227.605 204.163C227.489 204.118 227.361 204.12 227.247 204.17C227.134 204.22 227.045 204.312 227 204.428C226.955 204.543 226.958 204.672 227.007 204.785L238.531 230.87C238.567 230.954 238.627 231.026 238.702 231.076C238.778 231.127 238.867 231.154 238.958 231.155C239.036 231.16 239.113 231.144 239.183 231.11H239.153ZM241.149 227.509L268.75 223.563C268.816 223.562 268.882 223.546 268.942 223.518C269.003 223.489 269.056 223.448 269.099 223.398C269.143 223.347 269.175 223.288 269.194 223.224C269.212 223.16 269.217 223.093 269.208 223.026C269.199 222.96 269.176 222.897 269.141 222.84C269.106 222.784 269.059 222.735 269.004 222.698C268.948 222.661 268.886 222.636 268.82 222.625C268.754 222.614 268.687 222.616 268.622 222.633L241.022 226.579C240.898 226.587 240.783 226.644 240.701 226.737C240.62 226.829 240.578 226.951 240.586 227.074C240.594 227.198 240.651 227.313 240.744 227.394C240.837 227.476 240.958 227.517 241.082 227.509H241.149ZM233.279 245.117C233.377 245.04 233.441 244.928 233.456 244.804C233.472 244.68 233.438 244.556 233.362 244.457L218.402 225.236C218.326 225.137 218.213 225.072 218.088 225.056C217.964 225.039 217.838 225.073 217.738 225.15C217.639 225.227 217.574 225.34 217.558 225.464C217.541 225.589 217.575 225.714 217.652 225.814L232.642 245.065C232.685 245.121 232.741 245.166 232.804 245.197C232.868 245.228 232.938 245.245 233.009 245.245C233.121 245.239 233.227 245.194 233.309 245.117H233.279ZM256.656 239.918C256.66 239.794 256.615 239.673 256.531 239.582C256.447 239.491 256.33 239.436 256.206 239.43L235.642 238.388C235.527 238.396 235.418 238.446 235.337 238.528C235.256 238.611 235.208 238.721 235.203 238.836C235.197 238.952 235.234 239.066 235.307 239.156C235.38 239.246 235.483 239.306 235.597 239.325L256.199 240.368C256.323 240.372 256.443 240.327 256.535 240.243C256.626 240.159 256.68 240.042 256.686 239.918H256.656ZM246.956 255.178C246.963 255.116 246.958 255.053 246.941 254.994C246.923 254.934 246.894 254.878 246.855 254.83C246.816 254.782 246.767 254.742 246.713 254.713C246.658 254.684 246.598 254.666 246.536 254.66L230.781 253.107C230.72 253.101 230.658 253.107 230.599 253.125C230.54 253.142 230.486 253.172 230.438 253.211C230.391 253.25 230.352 253.298 230.323 253.352C230.294 253.407 230.276 253.466 230.271 253.527C230.26 253.65 230.298 253.773 230.377 253.868C230.455 253.963 230.568 254.024 230.691 254.037L246.446 255.598H246.491C246.612 255.606 246.731 255.567 246.824 255.488C246.916 255.41 246.974 255.298 246.986 255.178H246.956ZM227.187 263.31C227.292 263.241 227.364 263.134 227.39 263.012C227.415 262.889 227.391 262.762 227.322 262.657L219.535 250.886C219.464 250.785 219.356 250.715 219.234 250.691C219.113 250.668 218.987 250.692 218.882 250.759C218.778 250.828 218.706 250.935 218.68 251.057C218.655 251.18 218.679 251.307 218.747 251.412L226.535 263.183C226.579 263.247 226.639 263.3 226.708 263.336C226.777 263.373 226.854 263.392 226.932 263.393C227.034 263.398 227.134 263.369 227.217 263.31H227.187ZM245.058 267.249C245.056 267.125 245.006 267.007 244.92 266.919C244.833 266.831 244.716 266.78 244.593 266.776L226.07 266.604C225.946 266.604 225.828 266.653 225.741 266.74C225.653 266.827 225.604 266.945 225.604 267.069C225.602 267.131 225.613 267.192 225.636 267.25C225.658 267.308 225.692 267.361 225.736 267.405C225.779 267.449 225.831 267.484 225.889 267.507C225.946 267.531 226.008 267.542 226.07 267.541L244.593 267.714C244.656 267.717 244.719 267.707 244.779 267.685C244.838 267.663 244.893 267.63 244.939 267.586C244.985 267.543 245.022 267.491 245.048 267.433C245.073 267.375 245.087 267.312 245.088 267.249H245.058ZM220.203 294.947C220.24 294.864 223.399 286.162 232.897 284.084C233.019 284.057 233.126 283.982 233.193 283.877C233.261 283.771 233.283 283.643 233.257 283.521C233.226 283.401 233.151 283.298 233.046 283.232C232.941 283.166 232.815 283.143 232.694 283.169C222.679 285.359 219.355 294.549 219.318 294.639C219.279 294.758 219.288 294.887 219.342 294.999C219.397 295.111 219.493 295.197 219.61 295.24H219.76C219.86 295.248 219.96 295.224 220.045 295.172C220.13 295.119 220.196 295.04 220.233 294.947H220.203ZM222.311 301.827C222.435 301.817 222.55 301.759 222.632 301.665C222.713 301.571 222.754 301.448 222.746 301.324C221.568 283.634 228.41 254.66 239.386 230.878C246.401 215.678 273.896 185.804 274.189 185.504C274.277 185.416 274.327 185.296 274.327 185.171C274.327 185.045 274.277 184.925 274.189 184.837C274.146 184.793 274.094 184.759 274.038 184.735C273.981 184.711 273.92 184.699 273.859 184.699C273.797 184.699 273.737 184.711 273.68 184.735C273.623 184.759 273.572 184.793 273.529 184.837C273.251 185.137 245.643 215.123 238.568 230.458C227.39 254.818 220.638 283.266 221.838 301.384C221.848 301.503 221.901 301.615 221.989 301.697C222.076 301.779 222.191 301.825 222.311 301.827ZM244.75 221.14C244.874 221.132 244.99 221.076 245.073 220.983C245.156 220.891 245.199 220.769 245.193 220.645L243.4 190.298C243.397 190.237 243.382 190.176 243.355 190.12C243.329 190.064 243.291 190.014 243.245 189.973C243.199 189.932 243.145 189.9 243.087 189.88C243.028 189.86 242.966 189.852 242.905 189.856C242.781 189.863 242.664 189.92 242.582 190.012C242.499 190.105 242.456 190.227 242.462 190.351L244.285 220.682C244.291 220.802 244.342 220.914 244.429 220.997C244.516 221.079 244.631 221.125 244.75 221.125V221.14ZM239.153 231.11C239.266 231.06 239.354 230.967 239.399 230.852C239.444 230.737 239.442 230.609 239.394 230.495L227.863 204.41C227.813 204.297 227.72 204.208 227.605 204.163C227.489 204.118 227.361 204.12 227.247 204.17C227.134 204.22 227.045 204.312 227 204.428C226.955 204.543 226.958 204.672 227.007 204.785L238.531 230.87C238.567 230.954 238.627 231.026 238.702 231.076C238.778 231.127 238.867 231.154 238.958 231.155C239.036 231.16 239.113 231.144 239.183 231.11H239.153ZM241.149 227.509L268.75 223.563C268.816 223.562 268.882 223.546 268.942 223.518C269.003 223.489 269.056 223.448 269.099 223.398C269.143 223.347 269.175 223.288 269.194 223.224C269.212 223.16 269.217 223.093 269.208 223.026C269.199 222.96 269.176 222.897 269.141 222.84C269.106 222.784 269.059 222.735 269.004 222.698C268.948 222.661 268.886 222.636 268.82 222.625C268.754 222.614 268.687 222.616 268.622 222.633L241.022 226.579C240.898 226.587 240.783 226.644 240.701 226.737C240.62 226.829 240.578 226.951 240.586 227.074C240.594 227.198 240.651 227.313 240.744 227.394C240.837 227.476 240.958 227.517 241.082 227.509H241.149ZM233.279 245.117C233.377 245.04 233.441 244.928 233.456 244.804C233.472 244.68 233.438 244.556 233.362 244.457L218.402 225.236C218.364 225.187 218.317 225.146 218.263 225.115C218.209 225.084 218.15 225.064 218.088 225.056C218.027 225.048 217.964 225.052 217.904 225.068C217.844 225.084 217.788 225.112 217.738 225.15C217.689 225.188 217.648 225.235 217.617 225.289C217.586 225.343 217.566 225.402 217.558 225.464C217.55 225.526 217.554 225.588 217.57 225.648C217.586 225.708 217.614 225.765 217.652 225.814L232.642 245.065C232.685 245.121 232.741 245.166 232.804 245.197C232.868 245.228 232.938 245.245 233.009 245.245C233.121 245.239 233.227 245.194 233.309 245.117H233.279ZM256.656 239.918C256.66 239.794 256.615 239.673 256.531 239.582C256.447 239.491 256.33 239.436 256.206 239.43L235.642 238.388C235.527 238.396 235.418 238.446 235.337 238.528C235.256 238.611 235.208 238.721 235.203 238.836C235.197 238.952 235.234 239.066 235.307 239.156C235.38 239.246 235.483 239.306 235.597 239.325L256.199 240.368C256.323 240.372 256.443 240.327 256.535 240.243C256.626 240.159 256.68 240.042 256.686 239.918H256.656ZM246.956 255.178C246.963 255.116 246.958 255.053 246.941 254.994C246.923 254.934 246.894 254.878 246.855 254.83C246.816 254.782 246.767 254.742 246.713 254.713C246.658 254.684 246.598 254.666 246.536 254.66L230.781 253.107C230.72 253.101 230.658 253.107 230.599 253.125C230.54 253.142 230.486 253.172 230.438 253.211C230.391 253.25 230.352 253.298 230.323 253.352C230.294 253.407 230.276 253.466 230.271 253.527C230.26 253.65 230.298 253.773 230.377 253.868C230.455 253.963 230.568 254.024 230.691 254.037L246.446 255.598H246.491C246.612 255.606 246.731 255.567 246.824 255.488C246.916 255.41 246.974 255.298 246.986 255.178H246.956ZM227.187 263.31C227.292 263.241 227.364 263.134 227.39 263.012C227.415 262.889 227.391 262.762 227.322 262.657L219.535 250.886C219.464 250.785 219.356 250.715 219.234 250.691C219.113 250.668 218.987 250.692 218.882 250.759C218.778 250.828 218.706 250.935 218.68 251.057C218.655 251.18 218.679 251.307 218.747 251.412L226.535 263.183C226.579 263.247 226.639 263.3 226.708 263.336C226.777 263.373 226.854 263.392 226.932 263.393C227.034 263.398 227.134 263.369 227.217 263.31H227.187ZM245.058 267.249C245.056 267.125 245.006 267.007 244.92 266.919C244.833 266.831 244.716 266.78 244.593 266.776L226.07 266.604C225.946 266.604 225.828 266.653 225.741 266.74C225.653 266.827 225.604 266.945 225.604 267.069C225.602 267.131 225.613 267.192 225.636 267.25C225.658 267.308 225.692 267.361 225.736 267.405C225.779 267.449 225.831 267.484 225.889 267.507C225.946 267.531 226.008 267.542 226.07 267.541L244.593 267.714C244.656 267.717 244.719 267.707 244.779 267.685C244.838 267.663 244.893 267.63 244.939 267.586C244.985 267.543 245.022 267.491 245.048 267.433C245.073 267.375 245.087 267.312 245.088 267.249H245.058ZM220.203 294.947C220.24 294.864 223.399 286.162 232.897 284.084C233.019 284.057 233.126 283.982 233.193 283.877C233.261 283.771 233.283 283.643 233.257 283.521C233.226 283.401 233.151 283.298 233.046 283.232C232.941 283.166 232.815 283.143 232.694 283.169C222.679 285.359 219.355 294.549 219.318 294.639C219.279 294.758 219.288 294.887 219.342 294.999C219.397 295.111 219.493 295.197 219.61 295.24H219.76C219.86 295.248 219.96 295.224 220.045 295.172C220.13 295.119 220.196 295.04 220.233 294.947H220.203Z" fill="black"/>
<path d="M234.562 288.6H213.323V292.996H215.176L219.01 316.981H228.875L232.709 292.996H234.562V288.6Z" fill="#92E3A9"/>
<path opacity="0.3" d="M234.562 288.6H213.323V292.996H215.176L219.01 316.981H228.875L232.709 292.996H234.562V288.6Z" fill="white"/>
<path d="M157.918 155.046L133.214 146.981L131.015 141.174L125.996 141.017L116.889 139.291L117.984 141.174L129.447 149.494L132.276 150.904L158.113 164.401L157.918 155.046Z" fill="white" stroke="#263238" stroke-width="1.10039" stroke-miterlimit="10"/>
<path d="M131.016 141.174L128.66 139.764L123.956 141.489L124.736 142.427L131.016 141.174Z" fill="white" stroke="#263238" stroke-width="1.10039" stroke-linejoin="round"/>
<path d="M157.918 155.046L133.214 146.981L131.015 141.174L125.996 141.017L116.889 139.291L117.984 141.174L129.447 149.494L132.276 150.904L158.113 164.401L157.918 155.046Z" fill="white"/>
<mask id="mask0_16563_264838" style="mask-type:luminance" maskUnits="userSpaceOnUse" x="116" y="139" width="43" height="26">
<path d="M157.918 155.046L133.214 146.981L131.015 141.174L125.996 141.017L116.889 139.291L117.984 141.174L129.447 149.494L132.276 150.904L158.113 164.401L157.918 155.046Z" fill="white"/>
</mask>
<g mask="url(#mask0_16563_264838)">
<path opacity="0.5" d="M157.918 155.046L133.214 146.981L131.015 141.174L125.996 141.017L116.889 139.291L117.984 141.174L129.447 149.494L132.276 150.904L158.113 164.401L157.918 155.046Z" fill="#92E3A9" stroke="#263238" stroke-width="1.10039" stroke-miterlimit="10"/>
</g>
<path d="M157.918 155.046L133.214 146.981L131.015 141.174L125.996 141.017L116.889 139.291L117.984 141.174L129.447 149.494L132.276 150.904L158.113 164.401L157.918 155.046Z" stroke="#263238" stroke-width="1.10039" stroke-miterlimit="10"/>
<path d="M131.016 141.174L128.66 139.764L123.956 141.489L124.736 142.427L131.016 141.174Z" fill="white"/>
<mask id="mask1_16563_264838" style="mask-type:luminance" maskUnits="userSpaceOnUse" x="123" y="139" width="9" height="4">
<path d="M131.016 141.174L128.66 139.764L123.956 141.489L124.736 142.427L131.016 141.174Z" fill="white"/>
</mask>
<g mask="url(#mask1_16563_264838)">
<path opacity="0.5" d="M131.016 141.174L128.66 139.764L123.956 141.489L124.736 142.427L131.016 141.174Z" fill="#92E3A9" stroke="#263238" stroke-width="1.10039" stroke-linejoin="round"/>
</g>
<path d="M131.016 141.174L128.66 139.764L123.956 141.489L124.736 142.427L131.016 141.174Z" stroke="#263238" stroke-width="1.10039" stroke-linejoin="round"/>
<path d="M163.163 102.703C163.163 102.703 162.78 106.079 163.733 108.247C164.686 110.415 169.975 117.76 169.975 117.76L160.102 125.675C160.102 125.675 156.006 117.422 155.226 116.087C154.445 114.751 153.508 109.005 156.051 104.886C158.594 100.767 162.255 99.6568 163.163 102.703Z" fill="white"/>
<mask id="mask2_16563_264838" style="mask-type:luminance" maskUnits="userSpaceOnUse" x="154" y="100" width="16" height="26">
<path d="M163.163 102.703C163.163 102.703 162.78 106.079 163.733 108.247C164.686 110.415 169.975 117.76 169.975 117.76L160.102 125.675C160.102 125.675 156.006 117.422 155.226 116.087C154.445 114.751 153.508 109.005 156.051 104.886C158.594 100.767 162.255 99.6568 163.163 102.703Z" fill="white"/>
</mask>
<g mask="url(#mask2_16563_264838)">
<g style="mix-blend-mode:multiply" opacity="0.5">
<path d="M158.091 113.551L162.375 122.433L160.094 125.682L155.788 117.992L158.091 113.551Z" fill="#92E3A9"/>
</g>
</g>
<path d="M163.163 102.703C163.163 102.703 162.78 106.079 163.733 108.247C164.686 110.415 169.975 117.76 169.975 117.76L160.102 125.675C160.102 125.675 156.006 117.422 155.226 116.087C154.445 114.751 153.508 109.005 156.051 104.886C158.594 100.767 162.255 99.6568 163.163 102.703Z" stroke="#263238" stroke-width="1.10039" stroke-miterlimit="10"/>
<path d="M166.223 96.5208C165.616 92.7697 161.317 85.1399 154.497 85.4325C150.071 85.6276 148 86.5203 146.08 87.6081C144.514 88.5305 143.055 89.6224 141.728 90.8641C138.397 94.8628 137.227 95.9581 137.872 99.019C137.819 100.24 138.011 101.459 138.435 102.605C139.455 105.328 140.153 107.106 141.038 108.404C140.768 109.672 140.063 113.018 140.025 113.783C139.988 114.549 142.276 114.016 143.431 113.723C145.577 118.525 149.508 121.856 150.731 122.238C152.862 122.906 156.23 119.403 158.016 116.687C159.801 113.971 158.451 110.918 158.458 109.702C158.466 108.487 162.472 105.816 163.958 104.968C165.443 104.121 166.823 100.264 166.223 96.5208Z" fill="white"/>
<mask id="mask3_16563_264838" style="mask-type:luminance" maskUnits="userSpaceOnUse" x="137" y="85" width="30" height="38">
<path d="M166.223 96.5208C165.616 92.7697 161.317 85.1399 154.497 85.4325C150.071 85.6276 148 86.5203 146.08 87.6081C144.514 88.5305 143.055 89.6224 141.728 90.8641C138.397 94.8628 137.227 95.9581 137.872 99.019C137.819 100.24 138.011 101.459 138.435 102.605C139.455 105.328 140.153 107.106 141.038 108.404C140.768 109.672 140.063 113.018 140.025 113.783C139.988 114.549 142.276 114.016 143.431 113.723C145.577 118.525 149.508 121.856 150.731 122.238C152.862 122.906 156.23 119.403 158.016 116.687C159.801 113.971 158.451 110.918 158.458 109.702C158.466 108.487 162.472 105.816 163.958 104.968C165.443 104.121 166.823 100.264 166.223 96.5208Z" fill="white"/>
</mask>
<g mask="url(#mask3_16563_264838)">
<g style="mix-blend-mode:multiply" opacity="0.5">
<path d="M137.903 99.0195C137.85 100.24 138.041 101.46 138.465 102.606C139.486 105.329 140.183 107.107 141.069 108.405C140.798 109.673 140.093 113.019 140.056 113.784C140.018 114.549 142.306 114.016 143.462 113.724C145.607 118.525 149.539 121.856 150.761 122.239C152.892 122.907 156.261 119.403 158.046 116.687C158.492 116.009 158.782 115.24 158.894 114.437C158.796 114.084 158.729 113.866 158.729 113.866C158.729 113.866 157.724 117.73 155.728 117.227C153.732 116.725 150.679 112.726 148.976 111.346C147.273 109.965 147.971 108.15 147.633 106.094C147.295 104.038 142.254 102.23 141.916 101.053C141.579 99.8747 142.757 94.9983 142.757 94.9983C142.757 94.9983 144.67 92.4475 144.257 93.4978C143.965 94.4085 143.86 95.3685 143.946 96.3209C144.032 97.2733 144.309 98.1986 144.76 99.042C145.076 99.7075 145.578 100.268 146.204 100.655C146.831 101.042 147.557 101.24 148.293 101.225L150.124 92.1549L146.26 88.959L141.759 90.8345C138.398 94.8633 137.25 95.9586 137.903 99.0195Z" fill="#92E3A9"/>
</g>
</g>
<path d="M166.223 96.5208C165.616 92.7697 161.317 85.1399 154.497 85.4325C150.071 85.6276 148 86.5203 146.08 87.6081C144.514 88.5305 143.055 89.6224 141.728 90.8641C138.397 94.8628 137.227 95.9581 137.872 99.019C137.819 100.24 138.011 101.459 138.435 102.605C139.455 105.328 140.153 107.106 141.038 108.404C140.768 109.672 140.063 113.018 140.025 113.783C139.988 114.549 142.276 114.016 143.431 113.723C145.577 118.525 149.508 121.856 150.731 122.238C152.862 122.906 156.23 119.403 158.016 116.687C159.801 113.971 158.451 110.918 158.458 109.702C158.466 108.487 162.472 105.816 163.958 104.968C165.443 104.121 166.823 100.264 166.223 96.5208Z" stroke="#263238" stroke-width="1.09605" stroke-miterlimit="10"/>
<path d="M141.969 106.139L142.719 108.284C142.719 108.284 144.332 108.817 146.298 106.671" stroke="#263238" stroke-width="1.09605" stroke-miterlimit="10" stroke-linecap="round"/>
<path d="M147.513 116.161C147.513 116.161 149.298 115.981 150.018 113.476" stroke="#263238" stroke-width="1.09605" stroke-miterlimit="10" stroke-linecap="round"/>
<path d="M140.716 104.345C140.716 104.345 141.248 102.732 144.467 102.732" stroke="#263238" stroke-width="1.09605" stroke-miterlimit="10" stroke-linecap="round"/>
<path d="M157.213 82.4466C154.874 82.1103 152.516 81.9298 150.153 81.9064C150.153 81.9064 143.086 77.8327 136.297 82.1765C129.507 86.5203 132.771 94.1276 132.771 96.0257C132.771 97.9237 130.595 97.9312 131.953 100.377C133.311 102.823 137.902 101.472 137.902 101.472C137.951 100.55 138.194 99.6482 138.617 98.8269C139.04 98.0057 139.633 97.2836 140.355 96.7084C142.801 94.8103 144.752 94.3977 145.562 94.9453C145.562 94.9453 145.022 99.019 145.832 100.647C145.832 100.647 148.548 102.005 149.366 102.005C150.183 102.005 148.833 103.153 151.541 104.173C152.035 104.35 152.562 104.411 153.083 104.349C153.604 104.288 154.103 104.107 154.542 103.82C154.94 102.17 155.81 99.6867 157.43 100.264C159.809 101.112 161.977 106.964 158.758 108.96C162.63 109.665 167.318 102.815 167.596 96.5733C167.874 90.3314 161.234 83.1518 157.213 82.4466Z" fill="#263238"/>
<path d="M145.683 92.267C145.683 92.267 147.678 91.1942 150.124 93.4899C152.57 95.7855 157.326 98.854 163.628 97.1659" stroke="white" stroke-width="0.548025" stroke-linecap="round" stroke-linejoin="round"/>
<path d="M145.405 90.4288C145.405 90.4288 146.778 88.2832 149.074 88.2832C151.37 88.2832 156.734 91.5017 161.017 91.5017" stroke="white" stroke-width="0.548025" stroke-linecap="round" stroke-linejoin="round"/>
<path d="M143.844 94.5628C143.844 94.5628 141.241 91.3518 138.795 93.9551C136.349 96.5583 137.902 99.0191 137.902 99.0191" stroke="white" stroke-width="0.548025" stroke-linecap="round" stroke-linejoin="round"/>
<path d="M133.438 96.7085C134.93 95.3631 135.858 93.503 136.034 91.5019C136.342 88.1334 140.941 85.2225 143.844 87.9834" stroke="white" stroke-width="0.548025" stroke-linecap="round" stroke-linejoin="round"/>
<path d="M138.18 84.4573C138.18 84.4573 142.779 80.0159 146.605 85.6801" stroke="white" stroke-width="0.548025" stroke-linecap="round" stroke-linejoin="round"/>
<path d="M175.609 302.825C175.609 302.825 178.437 307.221 178.122 310.049L177.814 312.878C177.814 312.878 167.439 315.721 165.241 315.721C163.042 315.721 151.406 314.618 151.406 314.618L150.904 312.623C150.869 312.475 150.885 312.32 150.951 312.184C151.016 312.047 151.127 311.937 151.264 311.872L161.639 307.033L164.91 303.455L175.609 302.825Z" fill="white" stroke="#263238" stroke-width="1.10039" stroke-miterlimit="10"/>
<path d="M166.817 313.508C169.63 313.725 174.972 312.007 178.07 310.912L177.852 312.878C177.852 312.878 167.439 315.721 165.241 315.721C163.043 315.721 151.407 314.618 151.407 314.618L151.047 313.193C152.907 313.2 163.095 313.223 166.817 313.508Z" fill="#92E3A9" stroke="#263238" stroke-width="1.10039" stroke-miterlimit="10"/>
<path d="M161.655 307.033L146.553 313.605C146.553 313.605 145.263 316.839 146.553 317.484C147.843 318.129 175.977 317.484 175.977 317.484C175.977 317.484 177.92 312.375 174.851 308.946C171.783 305.518 161.655 307.033 161.655 307.033Z" fill="white" stroke="#263238" stroke-width="1.10039" stroke-miterlimit="10"/>
<path d="M175.976 317.484C175.976 317.484 147.843 318.129 146.552 317.484C145.93 317.169 145.907 316.261 146.05 315.398H176.471C176.372 316.108 176.206 316.806 175.976 317.484Z" fill="#92E3A9" stroke="#263238" stroke-width="1.10039" stroke-miterlimit="10"/>
<path d="M154.513 192.842C154.513 192.842 150.566 210.33 149.074 221.268C147.581 232.206 146.703 254.12 147.018 256.634C147.333 259.147 163.043 301.257 163.043 301.257L164.611 305.008L175.609 302.81C175.609 302.81 170.582 286.785 168.699 277.985C166.816 269.185 162.698 254.728 162.698 252.215C162.698 249.702 172.451 201.702 173.148 198.551C173.846 195.4 177.012 190.561 177.012 190.561L155.953 190.134L154.513 192.842Z" fill="#92E3A9" stroke="#263238" stroke-width="1.10039" stroke-miterlimit="10"/>
<path d="M154.513 192.842C154.513 192.842 152.202 208.814 153.155 219.917C154.108 231.021 156.156 254.66 156.156 258.179C156.156 261.697 161.835 282.711 162.158 289.313C162.661 298.848 161.955 303.567 161.955 303.567L161.618 307.026C161.618 307.026 168.242 307.971 169.69 308.384C171.362 308.815 173.088 309.002 174.814 308.939C174.814 308.939 177.222 298.338 177.222 289.306C177.222 280.273 175.219 261.682 174.221 254.15C173.224 246.618 176.367 217.562 178.153 212.138C179.938 206.714 183.839 195.228 181.214 189.361C178.588 183.494 154.513 192.842 154.513 192.842Z" fill="#92E3A9" stroke="#263238" stroke-width="1.10039" stroke-miterlimit="10"/>
<path d="M184.132 186.42L183.892 193.563C183.892 193.563 179.616 194.41 173.854 195.408C169.097 196.233 157.154 195.191 153.133 194.8C152.766 194.768 152.427 194.592 152.19 194.311C151.952 194.03 151.836 193.667 151.865 193.3L152.255 186.848L184.132 186.42Z" fill="#263238"/>
<path d="M167.416 115.224C167.416 115.224 160.664 122.524 158.121 127.063C155.578 131.602 154.572 138.556 153.62 144.033C152.667 149.509 155.248 162.368 154.52 168.272L152.217 186.87C152.217 186.87 151.722 188.131 153.38 189.511C155.038 190.892 163.132 191.394 170.447 191.762C173.118 191.897 181.093 190.179 182.398 190.096C183.974 189.999 184.026 187.996 184.094 186.42C184.409 179.016 185.744 159.277 186.622 150.68C188.43 133.147 178.535 116.222 167.416 115.224Z" fill="white" stroke="#263238" stroke-width="1.10039" stroke-miterlimit="10"/>
<g style="mix-blend-mode:multiply">
<path d="M185.797 160.65C186.097 156.756 186.397 153.223 186.66 150.68C186.735 149.929 186.78 149.179 186.817 148.429L168.879 151.43L153.47 146.178C153.471 149.367 153.652 152.553 154.01 155.721L169.127 159.952L185.797 160.65Z" fill="#92E3A9"/>
</g>
<g style="mix-blend-mode:multiply">
<path d="M166.748 115.959C165.728 117.092 163.702 119.396 161.774 121.841L173.163 133.417L176.914 131.917L166.748 115.959Z" fill="#92E3A9"/>
</g>
<path d="M167.416 115.224C167.416 115.224 160.664 122.524 158.121 127.063C157.367 128.442 156.756 129.895 156.298 131.399L169.877 115.712C169.075 115.469 168.25 115.305 167.416 115.224Z" fill="#263238"/>
<g style="mix-blend-mode:multiply">
<path d="M154.146 141.076L168.88 145.923L186.773 143.867C186.492 139.41 185.502 135.026 183.839 130.881L169.413 136.665L156.516 130.821C155.462 134.173 154.669 137.602 154.146 141.076Z" fill="#92E3A9"/>
</g>
<g style="mix-blend-mode:multiply">
<path d="M179.51 179.016C172.037 180.271 164.369 179.644 157.199 177.193L153.605 175.962L152.487 184.965L156.584 186.113C164.371 188.29 172.509 188.917 180.538 187.958L183.847 187.561C184.019 187.196 184.116 186.801 184.132 186.398C184.222 184.395 184.379 181.484 184.582 178.146L179.51 179.016Z" fill="#92E3A9"/>
</g>
<g style="mix-blend-mode:multiply">
<path d="M181.514 166.757C174.04 168.017 166.37 167.387 159.202 164.926L154.626 163.358C154.739 164.993 154.717 166.634 154.558 168.265L154.025 172.594L158.587 173.869C166.371 176.049 174.507 176.678 182.534 175.722L184.785 175.452C184.972 172.451 185.19 169.255 185.422 166.097L181.514 166.757Z" fill="#92E3A9"/>
</g>
<path d="M111.128 135.031L125.634 146.694L126.259 145.917L111.753 134.254L111.128 135.031Z" fill="#263238"/>
<path d="M174.401 123.319C174.401 123.319 179.72 126.942 179.84 135.502C179.892 139.254 179.502 142.757 178.639 148.901C177.777 155.046 172.42 175.054 168.249 177.485C164.077 179.916 157.603 175.324 157.603 175.324L126.289 154.536L118.719 148.421L114.968 141.339L116.146 139.089L125.381 146.171L120.407 141.572L121.382 140.334L123.183 141.587L128.434 143.552L129.582 151.055L131.203 152.165L161.159 163.111C161.159 163.111 160.784 146.988 161.062 143.905C161.339 140.822 161.722 133.072 165.023 127.453" fill="white"/>
<mask id="mask4_16563_264838" style="mask-type:luminance" maskUnits="userSpaceOnUse" x="114" y="123" width="66" height="56">
<path d="M174.401 123.319C174.401 123.319 179.72 126.942 179.84 135.502C179.892 139.254 179.502 142.757 178.639 148.901C177.777 155.046 172.42 175.054 168.249 177.485C164.077 179.916 157.603 175.324 157.603 175.324L126.289 154.536L118.719 148.421L114.968 141.339L116.146 139.089L125.381 146.171L120.407 141.572L121.382 140.334L123.183 141.587L128.434 143.552L129.582 151.055L131.203 152.165L161.159 163.111C161.159 163.111 160.784 146.988 161.062 143.905C161.339 140.822 161.722 133.072 165.023 127.453" fill="white"/>
</mask>
<g mask="url(#mask4_16563_264838)">
<g style="mix-blend-mode:multiply" opacity="0.5">
<path d="M160.949 150.927C160.949 156.494 161.136 163.111 161.136 163.111L131.21 152.21L129.589 151.099L128.441 143.597L123.19 141.632L121.397 140.356L120.421 141.594L125.38 146.17L116.145 139.088L115.027 141.302L118.778 148.384L126.348 154.535L128.254 155.803L169.629 169.135L160.949 150.927Z" fill="#92E3A9"/>
</g>
</g>
<path d="M174.401 123.319C174.401 123.319 179.72 126.942 179.84 135.502C179.892 139.254 179.502 142.757 178.639 148.901C177.777 155.046 172.42 175.054 168.249 177.485C164.077 179.916 157.603 175.324 157.603 175.324L126.289 154.536L118.719 148.421L114.968 141.339L116.146 139.089L125.381 146.171L120.407 141.572L121.382 140.334L123.183 141.587L128.434 143.552L129.582 151.055L131.203 152.165L161.159 163.111C161.159 163.111 160.784 146.988 161.062 143.905C161.339 140.822 161.722 133.072 165.023 127.453" stroke="#263238" stroke-width="1.10039" stroke-miterlimit="10"/>
<path d="M161.16 163.111L172.593 171.363L175.557 166.112C175.557 166.112 177.605 164.499 177.905 163.283C178.205 162.068 177.822 160.095 178.13 158.88C178.438 157.664 179.968 156.524 180.111 153.583C180.253 150.642 180.111 148.189 180.111 148.189C180.111 148.189 182.586 138.008 182.316 133.582C182.046 129.156 177.777 121.331 174.356 121.158C170.935 120.986 166.486 121.504 163.035 126.725C159.584 131.947 160.29 147.191 159.749 148.144C159.209 149.097 159.96 153.801 159.96 153.801C159.66 154.024 159.411 154.309 159.23 154.637C159.049 154.964 158.939 155.326 158.909 155.699C158.849 156.922 160.17 159.93 160.17 159.93L161.16 163.111Z" fill="white" stroke="#263238" stroke-width="1.10039" stroke-miterlimit="10"/>
<g style="mix-blend-mode:multiply">
<path d="M160.049 144.228C160.073 145.537 159.975 146.845 159.756 148.136C159.276 148.991 159.824 152.855 159.944 153.643C166.375 155.64 173.175 156.153 179.832 155.143C179.975 154.622 180.061 154.086 180.088 153.545C180.238 150.612 180.088 148.151 180.088 148.151C180.088 148.151 180.305 147.243 180.605 145.863C173.71 146.301 166.788 145.751 160.049 144.228Z" fill="#92E3A9"/>
</g>
<g style="mix-blend-mode:multiply">
<path d="M162.57 127.558C161.497 129.711 160.897 132.944 160.552 136.223C167.362 138.822 174.705 139.716 181.941 138.826C182.229 137.091 182.357 135.333 182.323 133.574C182.193 132.184 181.865 130.82 181.348 129.523C175.03 129.671 168.72 129.01 162.57 127.558Z" fill="#92E3A9"/>
</g>
<path d="M160.169 160.013L161.137 163.111L172.57 171.364L175.534 166.112C175.534 166.112 177.582 164.499 177.882 163.284C177.935 163.072 177.968 162.856 177.979 162.638C171.954 162.534 165.968 161.652 160.169 160.013Z" fill="#263238"/>
<path d="M168.444 308.286C168.444 308.286 168.699 301.789 169.945 292.291C171.19 282.793 168.197 269.304 167.694 267.054C167.191 264.803 167.949 259.807 167.446 258.051C166.944 256.296 164.513 248.808 165.946 240.121C167.379 231.433 168.542 208.469 168.542 208.469C168.542 208.469 164.933 205.535 163.875 201.717C162.817 197.898 163.628 196.698 163.628 196.698" stroke="#263238" stroke-width="1.10039" stroke-miterlimit="10"/>
<path d="M170.117 197.051L168.729 204.733" stroke="#263238" stroke-width="1.10039" stroke-miterlimit="10"/>
<path d="M93.8141 122.961H9.38154C6.49731 122.961 4.15918 125.299 4.15918 128.183V221.259C4.15918 224.143 6.49731 226.482 9.38154 226.482H93.8141C96.6983 226.482 99.0365 224.143 99.0365 221.259V128.183C99.0365 125.299 96.6983 122.961 93.8141 122.961Z" fill="white" stroke="#263238" stroke-width="0.981929" stroke-linecap="round" stroke-linejoin="round"/>
<path d="M9.38161 122.961H93.8055C95.1837 122.961 96.5054 123.508 97.4799 124.483C98.4544 125.457 99.0019 126.779 99.0019 128.157V133.579H4.15924V128.183C4.1558 127.497 4.28852 126.816 4.54975 126.181C4.81098 125.546 5.19555 124.969 5.68117 124.483C6.1668 123.997 6.74386 123.613 7.37902 123.352C8.01418 123.09 8.69484 122.958 9.38161 122.961Z" fill="#263238" stroke="#263238" stroke-width="0.981929" stroke-linecap="round" stroke-linejoin="round"/>
<path d="M94.4553 126.07H7.00879V129.439H94.4553V126.07Z" fill="white" stroke="#263238" stroke-width="0.981929" stroke-linecap="round" stroke-linejoin="round"/>
<circle cx="19.0419" cy="152.727" r="6.94136" stroke="#20263D"/>
<circle cx="19.0415" cy="152.727" r="4.15085" fill="#95C16B" stroke="#20263D"/>
<rect x="31.1338" y="149.936" width="46.5085" height="5.58102" rx="2.79051" fill="#D9D9D9"/>
<circle cx="19.0419" cy="175.05" r="6.94136" stroke="#20263D"/>
<rect x="31.1338" y="172.26" width="46.5085" height="5.58102" rx="2.79051" fill="#D9D9D9"/>
<circle cx="19.0419" cy="197.374" r="6.94136" stroke="#20263D"/>
<rect x="31.1338" y="194.584" width="46.5085" height="5.58102" rx="2.79051" fill="#D9D9D9"/>
<g filter="url(#filter0_d_16563_264838)">
<rect x="55.3184" y="212.257" width="36" height="36" rx="18" fill="#E8F6EB"/>
<path d="M73.3184 241.007C67.3884 241.007 62.5684 236.187 62.5684 230.257C62.5684 224.327 67.3884 219.507 73.3184 219.507C79.2484 219.507 84.0684 224.327 84.0684 230.257C84.0684 236.187 79.2484 241.007 73.3184 241.007ZM73.3184 221.007C68.2184 221.007 64.0684 225.157 64.0684 230.257C64.0684 235.357 68.2184 239.507 73.3184 239.507C78.4184 239.507 82.5684 235.357 82.5684 230.257C82.5684 225.157 78.4184 221.007 73.3184 221.007Z" fill="#1DA534"/>
<path d="M71.8988 233.837C71.6988 233.837 71.5088 233.757 71.3688 233.617L68.5388 230.787C68.2488 230.497 68.2488 230.017 68.5388 229.727C68.8288 229.437 69.3088 229.437 69.5988 229.727L71.8988 232.027L77.0388 226.887C77.3288 226.597 77.8088 226.597 78.0988 226.887C78.3888 227.177 78.3888 227.657 78.0988 227.947L72.4288 233.617C72.2888 233.757 72.0988 233.837 71.8988 233.837Z" fill="#1DA534"/>
</g>
<path d="M226.241 116.056C239.652 113.867 248.75 101.22 246.561 87.8093C244.372 74.3981 231.725 65.3007 218.314 67.4897C204.903 69.6786 195.806 82.325 197.995 95.7361C200.184 109.147 212.83 118.245 226.241 116.056Z" fill="#263238" stroke="#263238" stroke-width="1.50221" stroke-linecap="round" stroke-linejoin="round"/>
<path d="M237.884 105.5C245.45 96.8848 244.6 83.7666 235.984 76.2002C227.368 68.6337 214.25 69.4844 206.684 78.1001C199.117 86.7158 199.968 99.834 208.584 107.4C217.199 114.967 230.317 114.116 237.884 105.5Z" fill="white" stroke="#263238" stroke-width="1.50221" stroke-linecap="round" stroke-linejoin="round"/>
<path d="M222.289 76.7578V91.7695H232.438" stroke="#263238" stroke-width="3.00442" stroke-linecap="round" stroke-linejoin="round"/>
<defs>
<filter id="filter0_d_16563_264838" x="0.318359" y="169.257" width="146" height="146" filterUnits="userSpaceOnUse" color-interpolation-filters="sRGB">
<feFlood flood-opacity="0" result="BackgroundImageFix"/>
<feColorMatrix in="SourceAlpha" type="matrix" values="0 0 0 0 0 0 0 0 0 0 0 0 0 0 0 0 0 0 127 0" result="hardAlpha"/>
<feMorphology radius="15" operator="dilate" in="SourceAlpha" result="effect1_dropShadow_16563_264838"/>
<feOffset dy="12"/>
<feGaussianBlur stdDeviation="20"/>
<feColorMatrix type="matrix" values="0 0 0 0 0 0 0 0 0 0 0 0 0 0 0 0 0 0 0.1 0"/>
<feBlend mode="normal" in2="BackgroundImageFix" result="effect1_dropShadow_16563_264838"/>
<feBlend mode="normal" in="SourceGraphic" in2="effect1_dropShadow_16563_264838" result="shape"/>
</filter>
</defs>
</svg>
