<svg width="18" height="21" viewBox="0 0 18 21" fill="none" xmlns="http://www.w3.org/2000/svg">
<path d="M14.7188 11.1094C14.7188 9.375 15.5156 8.10938 17.0625 7.125C16.1719 5.85938 14.8594 5.20312 13.125 5.0625C11.4375 4.92188 9.60938 6 8.95312 6C8.25 6 6.65625 5.10938 5.39062 5.10938C2.76562 5.15625 0 7.17188 0 11.3438C0 12.5625 0.1875 13.8281 0.65625 15.1406C1.26562 16.875 3.42188 21.0938 5.67188 21C6.84375 21 7.6875 20.1562 9.23438 20.1562C10.7344 20.1562 11.4844 21 12.7969 21C15.0938 21 17.0625 17.1562 17.625 15.4219C14.5781 13.9688 14.7188 11.2031 14.7188 11.1094ZM12.0938 3.42188C13.3594 1.92188 13.2188 0.515625 13.2188 0C12.0938 0.09375 10.7812 0.796875 10.0312 1.64062C9.1875 2.57812 8.71875 3.75 8.8125 5.01562C10.0312 5.10938 11.1562 4.5 12.0938 3.42188Z" fill="#95C16B"/>
</svg>
