<svg width="48" height="48" viewBox="0 0 48 48" fill="none" xmlns="http://www.w3.org/2000/svg">
<rect width="48" height="48" rx="24" fill="#F3EDFE"/>
<path d="M27.9998 16.2441L28.6804 16.3066C29.8906 16.4187 30.7084 16.8249 31.2468 17.3965C31.7415 17.9216 32.0591 18.6513 32.1804 19.5898H15.8201C15.9414 18.6513 16.259 17.9216 16.7537 17.3965C17.2921 16.825 18.1091 16.4187 19.3191 16.3066L19.9998 16.2441V16.25H27.9998V16.2441Z" fill="#8646F4" stroke="#8646F4" stroke-width="1.5"/>
<path opacity="0.4" d="M16 22.5801H31.9863L32.04 22.5869C32.1619 22.6142 32.2499 22.7233 32.25 22.8398V24.5801C32.25 24.7409 32.1122 24.8417 31.9834 24.8203L31.9746 24.8193L31.9658 24.8174C31.6682 24.7749 31.3395 24.7402 31 24.7402C27.5558 24.7402 24.75 27.546 24.75 30.9902C24.75 31.5872 24.9715 32.3364 25.1572 32.9033L25.1592 32.9102C25.2141 33.0724 25.0981 33.2402 24.9199 33.2402H20C18.3929 33.2402 17.3687 32.7844 16.7373 32.1045C16.0966 31.4145 15.75 30.3752 15.75 28.9902V22.8301C15.75 22.6943 15.8642 22.5801 16 22.5801Z" fill="#8646F4" stroke="#8646F4" stroke-width="1.5"/>
<path d="M31 27.75C31.9136 27.75 32.7379 28.1272 33.3281 28.7334C32.8148 28.429 32.1489 28.4494 31.6562 28.8223L31.541 28.9189L30.4678 29.9102C29.9198 29.3932 29.0693 29.368 28.4932 29.8369L28.3799 29.9395C27.797 30.5223 27.797 31.4777 28.3799 32.0605L29.3701 33.0508C29.668 33.3485 30.0518 33.4902 30.4297 33.4902C30.7919 33.4902 31.1659 33.3533 31.4492 33.0908L33.5791 31.1211L33.5908 31.1094C33.9316 30.7799 34.0908 30.321 34.0498 29.874C34.1792 30.2248 34.25 30.6041 34.25 31C34.25 31.6094 34.0791 32.183 33.7812 32.666L33.7754 32.6768C33.2156 33.6178 32.1858 34.25 31 34.25C29.8883 34.25 28.9137 33.6944 28.335 32.8496L28.2246 32.6768L28.2188 32.666L28.1123 32.4814C27.8801 32.0396 27.75 31.5333 27.75 31C27.75 29.2042 29.2042 27.75 31 27.75Z" fill="#8646F4" stroke="#8646F4" stroke-width="1.5"/>
<path d="M20.5439 25.7549L20.5537 25.7559L20.5918 25.7754L20.6299 25.7881C20.6478 25.8024 20.6671 25.8173 20.6855 25.832C20.7283 25.8879 20.75 25.9528 20.75 26.001C20.75 26.049 20.728 26.1133 20.6855 26.1689C20.679 26.1742 20.6725 26.1803 20.666 26.1855C20.6548 26.1945 20.6431 26.2029 20.6318 26.2119L20.5918 26.2266L20.5586 26.2422C20.5404 26.2447 20.5265 26.2476 20.5137 26.249C20.4936 26.2513 20.4912 26.251 20.5 26.251C20.4484 26.251 20.3775 26.2261 20.3193 26.1768C20.273 26.1196 20.25 26.0511 20.25 26.001C20.25 25.9485 20.2743 25.8751 20.3252 25.8164C20.38 25.7653 20.4699 25.7393 20.5439 25.7549Z" fill="#8646F4" stroke="#8646F4" stroke-width="1.5"/>
<path d="M24.0039 25.7617C24.0914 25.7618 24.1483 25.7925 24.1748 25.8164C24.2251 25.8748 24.2499 25.9469 24.25 25.999C24.25 26.0498 24.2255 26.1191 24.1777 26.1768C24.12 26.2246 24.0509 26.249 24 26.249C23.949 26.249 23.8791 26.2249 23.8213 26.1768C23.7738 26.1192 23.75 26.0497 23.75 25.999C23.7501 25.9478 23.7738 25.8772 23.8223 25.8193C23.8568 25.7905 23.9193 25.7617 24.0039 25.7617Z" fill="#8646F4" stroke="#8646F4" stroke-width="1.5"/>
<path d="M20.5 30.5008C20.24 30.5008 19.98 30.3908 19.79 30.2108C19.61 30.0208 19.5 29.7608 19.5 29.5008C19.5 29.2408 19.61 28.9809 19.79 28.7909C19.89 28.7009 19.99 28.6308 20.12 28.5808C20.49 28.4208 20.93 28.5109 21.21 28.7909C21.39 28.9809 21.5 29.2408 21.5 29.5008C21.5 29.7608 21.39 30.0208 21.21 30.2108C21.02 30.3908 20.76 30.5008 20.5 30.5008Z" fill="#8646F4"/>
</svg>
