<svg width="48" height="48" viewBox="0 0 48 48" fill="none" xmlns="http://www.w3.org/2000/svg">
<rect width="48" height="48" rx="24" fill="#01A9DB" fill-opacity="0.2"/>
<path d="M18.4561 25.8672C18.7751 25.8714 19.2335 25.8868 19.7832 25.9326C20.8877 26.0247 22.3393 26.2371 23.7637 26.7119C25.468 27.2799 27.0994 27.0201 28.2695 26.6445C28.8494 26.4584 29.3298 26.2386 29.6699 26.0635L30.8232 28.7002C31.4547 30.1521 31.4722 31.2744 31.0723 31.9883C30.694 32.6633 29.7779 33.25 27.8408 33.25H20.1602C18.1895 33.2499 17.2765 32.6592 16.9062 31.9883C16.513 31.2753 16.5431 30.1506 17.1865 28.6934V28.6924L18.4316 25.8672C18.4396 25.8673 18.4479 25.8671 18.4561 25.8672Z" fill="#55C5E7" stroke="#55C5E7" stroke-width="1.5"/>
<path opacity="0.4" d="M20.4414 14.75H27.5518C28.0008 14.7501 28.4033 14.9326 28.7012 15.2305C29.0928 15.6222 29.2838 16.1771 29.1348 16.7666H29.1338L29.1318 16.7744C28.965 17.4673 28.2691 17.9902 27.4414 17.9902H26.1338L26.5947 19.041L29.0684 24.6836C29.0455 24.6958 29.0229 24.7108 28.998 24.7236C28.7147 24.8703 28.3058 25.0574 27.8125 25.2158C26.8177 25.5352 25.5337 25.7199 24.2383 25.2881C22.6627 24.763 21.0836 24.5355 19.9082 24.4375C19.6052 24.4123 19.3276 24.3957 19.082 24.3848L21.4277 19.041L21.8896 17.9902H20.4414C19.9926 17.9902 19.5829 17.8104 19.292 17.5195C19.0011 17.2286 18.8213 16.8189 18.8213 16.3701C18.8213 15.4823 19.5477 14.75 20.4414 14.75Z" fill="#55C5E7" stroke="#55C5E7" stroke-width="1.5"/>
</svg>
