<svg width="48" height="48" viewBox="0 0 48 48" fill="none" xmlns="http://www.w3.org/2000/svg">
<rect width="48" height="48" rx="24" fill="#E6F6FB"/>
<path d="M18.4554 25.8672C18.7745 25.8714 19.2328 25.8868 19.7826 25.9326C20.8871 26.0247 22.3387 26.2371 23.7631 26.7119C25.4674 27.2799 27.0988 27.0201 28.2689 26.6445C28.8488 26.4584 29.3292 26.2386 29.6693 26.0635L30.8226 28.7002C31.4541 30.1521 31.4716 31.2744 31.0717 31.9883C30.6934 32.6633 29.7773 33.25 27.8402 33.25H20.1595C18.1888 33.2499 17.2759 32.6592 16.9056 31.9883C16.5124 31.2753 16.5425 30.1506 17.1859 28.6934V28.6924L18.431 25.8672C18.439 25.8673 18.4473 25.8671 18.4554 25.8672Z" fill="#01A9DB" stroke="#01A9DB" stroke-width="1.5"/>
<path opacity="0.4" d="M20.44 14.75H27.5504C27.9994 14.7501 28.4019 14.9326 28.6998 15.2305C29.0914 15.6222 29.2824 16.1771 29.1334 16.7666H29.1324L29.1304 16.7744C28.9636 17.4673 28.2677 17.9902 27.44 17.9902H26.1324L26.5933 19.041L29.067 24.6836C29.0441 24.6958 29.0215 24.7108 28.9966 24.7236C28.7133 24.8703 28.3044 25.0574 27.8111 25.2158C26.8163 25.5352 25.5323 25.7199 24.2369 25.2881C22.6613 24.763 21.0822 24.5355 19.9068 24.4375C19.6038 24.4123 19.3262 24.3957 19.0806 24.3848L21.4263 19.041L21.8882 17.9902H20.44C19.9912 17.9902 19.5815 17.8104 19.2906 17.5195C18.9997 17.2286 18.8199 16.8189 18.8199 16.3701C18.8199 15.4823 19.5463 14.75 20.44 14.75Z" fill="#01A9DB" stroke="#01A9DB" stroke-width="1.5"/>
</svg>
