<svg width="37" height="37" viewBox="0 0 37 37" fill="none" xmlns="http://www.w3.org/2000/svg">
<rect x="0.5" y="0.5" width="36" height="36" rx="18" fill="#E53939" fill-opacity="0.2"/>
<path opacity="0.4" d="M28.2605 22.42L21.8605 10.9C21.0005 9.35 19.8105 8.5 18.5005 8.5C17.1905 8.5 16.0005 9.35 15.1405 10.9L8.74047 22.42C7.93047 23.89 7.84047 25.3 8.49047 26.41C9.14047 27.52 10.4205 28.13 12.1005 28.13H24.9005C26.5805 28.13 27.8605 27.52 28.5105 26.41C29.1605 25.3 29.0705 23.88 28.2605 22.42Z" fill="#E53939"/>
<path d="M18.5 21.25C18.09 21.25 17.75 20.91 17.75 20.5V15.5C17.75 15.09 18.09 14.75 18.5 14.75C18.91 14.75 19.25 15.09 19.25 15.5V20.5C19.25 20.91 18.91 21.25 18.5 21.25Z" fill="#E53939"/>
<path d="M18.5 24.5001C18.44 24.5001 18.37 24.4901 18.3 24.4801C18.24 24.4701 18.18 24.4501 18.12 24.4201C18.06 24.4001 18 24.3701 17.94 24.3301C17.89 24.2901 17.84 24.2501 17.79 24.2101C17.61 24.0201 17.5 23.7601 17.5 23.5001C17.5 23.2401 17.61 22.9801 17.79 22.7901C17.84 22.7501 17.89 22.7101 17.94 22.6701C18 22.6301 18.06 22.6001 18.12 22.5801C18.18 22.5501 18.24 22.5301 18.3 22.5201C18.43 22.4901 18.57 22.4901 18.69 22.5201C18.76 22.5301 18.82 22.5501 18.88 22.5801C18.94 22.6001 19 22.6301 19.06 22.6701C19.11 22.7101 19.16 22.7501 19.21 22.7901C19.39 22.9801 19.5 23.2401 19.5 23.5001C19.5 23.7601 19.39 24.0201 19.21 24.2101C19.16 24.2501 19.11 24.2901 19.06 24.3301C19 24.3701 18.94 24.4001 18.88 24.4201C18.82 24.4501 18.76 24.4701 18.69 24.4801C18.63 24.4901 18.56 24.5001 18.5 24.5001Z" fill="#E53939"/>
</svg>
