<svg width="40" height="40" viewBox="0 0 40 40" fill="none" xmlns="http://www.w3.org/2000/svg">
<rect x="0.5" y="0.5" width="39" height="39" rx="19.5" fill="white"/>
<rect x="0.5" y="0.5" width="39" height="39" rx="19.5" stroke="#DEE2E6"/>
<path d="M20 16.918L19.1975 18.313C19.0175 18.6205 19.1675 18.8755 19.52 18.8755H20.4725C20.8325 18.8755 20.975 19.1305 20.795 19.438L20 20.833" stroke="#47830E" stroke-width="1.5" stroke-linecap="round" stroke-linejoin="round"/>
<path d="M17.225 24.5301V23.6601C15.5 22.6176 14.0825 20.5851 14.0825 18.4251C14.0825 14.7126 17.495 11.8026 21.35 12.6426C23.045 13.0176 24.53 14.1426 25.3025 15.6951C26.87 18.8451 25.22 22.1901 22.7975 23.6526V24.5226C22.7975 24.7401 22.88 25.2426 22.0775 25.2426H17.945C17.12 25.2501 17.225 24.9276 17.225 24.5301Z" stroke="#47830E" stroke-width="1.5" stroke-linecap="round" stroke-linejoin="round"/>
<path d="M17.375 27.5004C19.0925 27.0129 20.9075 27.0129 22.625 27.5004" stroke="#47830E" stroke-width="1.5" stroke-linecap="round" stroke-linejoin="round"/>
</svg>
