<svg width="24" height="24" viewBox="0 0 24 24" fill="none" xmlns="http://www.w3.org/2000/svg">
<path opacity="0.4" d="M5.74132 16C5.85132 15.51 5.65132 14.81 5.30132 14.46L2.87132 12.03C2.11132 11.27 1.81132 10.46 2.03132 9.76C2.26132 9.06 2.97132 8.58 4.03132 8.4L7.15132 7.88C7.60132 7.8 8.15132 7.4 8.36132 6.99L10.0813 3.54C10.5813 2.55 11.2613 2 12.0013 2C12.7413 2 13.4213 2.55 13.9213 3.54L15.6413 6.99C15.7713 7.25 16.0413 7.5 16.3313 7.67L5.56132 18.44C5.42132 18.58 5.18132 18.45 5.22132 18.25L5.74132 16Z" fill="#95C16B"/>
<path d="M18.7008 14.4619C18.3408 14.8219 18.1408 15.5119 18.2608 16.0019L18.9508 19.0119C19.2408 20.2619 19.0608 21.2019 18.4408 21.6519C18.1908 21.8319 17.8908 21.9219 17.5408 21.9219C17.0308 21.9219 16.4308 21.7319 15.7708 21.3419L12.8408 19.6019C12.3808 19.3319 11.6208 19.3319 11.1608 19.6019L8.23078 21.3419C7.12078 21.9919 6.17078 22.1019 5.56078 21.6519C5.33078 21.4819 5.16078 21.2519 5.05078 20.9519L17.2108 8.79185C17.6708 8.33185 18.3208 8.12185 18.9508 8.23185L19.9608 8.40185C21.0208 8.58185 21.7308 9.06185 21.9608 9.76185C22.1808 10.4619 21.8808 11.2719 21.1208 12.0319L18.7008 14.4619Z" fill="#95C16B"/>
</svg>
