<svg width="40" height="40" viewBox="0 0 40 40" fill="none" xmlns="http://www.w3.org/2000/svg">
<path opacity="0.4" d="M26.9833 3.33398H13.0166C6.94992 3.33398 3.33325 6.95065 3.33325 13.0173V26.9673C3.33325 33.0507 6.94992 36.6673 13.0166 36.6673H26.9666C33.0333 36.6673 36.6499 33.0507 36.6499 26.984V13.0173C36.6666 6.95065 33.0499 3.33398 26.9833 3.33398Z" fill="#2D68F8"/>
<path d="M11.4666 31.5008C10.7832 31.5008 10.2166 30.9341 10.2166 30.2508V26.8008C10.2166 26.1174 10.7832 25.5508 11.4666 25.5508C12.1499 25.5508 12.7166 26.1174 12.7166 26.8008V30.2508C12.7166 30.9508 12.1499 31.5008 11.4666 31.5008Z" fill="#2D68F8"/>
<path d="M20 31.5007C19.3167 31.5007 18.75 30.934 18.75 30.2507V23.334C18.75 22.6507 19.3167 22.084 20 22.084C20.6833 22.084 21.25 22.6507 21.25 23.334V30.2507C21.25 30.9507 20.6833 31.5007 20 31.5007Z" fill="#2D68F8"/>
<path d="M28.5333 31.4995C27.85 31.4995 27.2833 30.9328 27.2833 30.2495V19.8828C27.2833 19.1995 27.85 18.6328 28.5333 18.6328C29.2167 18.6328 29.7833 19.1995 29.7833 19.8828V30.2495C29.7833 30.9495 29.2333 31.4995 28.5333 31.4995Z" fill="#2D68F8"/>
<path d="M29.7832 9.7C29.7832 9.61667 29.7499 9.51667 29.7332 9.43333C29.7166 9.36667 29.6999 9.28333 29.6832 9.21667C29.6499 9.15 29.5999 9.1 29.5666 9.03333C29.5166 8.96667 29.4666 8.88333 29.3999 8.83333C29.3832 8.81667 29.3832 8.8 29.3666 8.8C29.3166 8.76667 29.2666 8.75 29.2166 8.71667C29.1499 8.66667 29.0666 8.61667 28.9832 8.58333C28.8999 8.55 28.8166 8.55 28.7332 8.53333C28.6666 8.51667 28.6166 8.5 28.5499 8.5H23.6666C22.9832 8.5 22.4166 9.06667 22.4166 9.75C22.4166 10.4333 22.9832 11 23.6666 11H25.7499C21.7832 15.1667 16.7832 18.1 11.1666 19.5167C10.4999 19.6833 10.0832 20.3667 10.2499 21.0333C10.3832 21.6 10.8999 21.9833 11.4666 21.9833C11.5666 21.9833 11.6666 21.9667 11.7666 21.95C17.7166 20.4667 23.0332 17.3833 27.2832 13.0167V14.6333C27.2832 15.3167 27.8499 15.8833 28.5332 15.8833C29.2166 15.8833 29.7832 15.3167 29.7832 14.6333V9.75C29.7832 9.73333 29.7832 9.71667 29.7832 9.7Z" fill="#2D68F8"/>
</svg>
