<svg width="36" height="36" viewBox="0 0 36 36" fill="none" xmlns="http://www.w3.org/2000/svg">
<rect width="36" height="36" rx="18" fill="#47830E" fill-opacity="0.2"/>
<path opacity="0.4" d="M18 28C23.5228 28 28 23.5228 28 18C28 12.4772 23.5228 8 18 8C12.4772 8 8 12.4772 8 18C8 23.5228 12.4772 28 18 28Z" fill="#47830E"/>
<path d="M16.5799 21.5801C16.3799 21.5801 16.1899 21.5001 16.0499 21.3601L13.2199 18.5301C12.9299 18.2401 12.9299 17.7601 13.2199 17.4701C13.5099 17.1801 13.9899 17.1801 14.2799 17.4701L16.5799 19.7701L21.7199 14.6301C22.0099 14.3401 22.4899 14.3401 22.7799 14.6301C23.0699 14.9201 23.0699 15.4001 22.7799 15.6901L17.1099 21.3601C16.9699 21.5001 16.7799 21.5801 16.5799 21.5801Z" fill="#47830E"/>
</svg>
