<svg width="40" height="40" viewBox="0 0 40 40" fill="none" xmlns="http://www.w3.org/2000/svg">
<path opacity="0.4" d="M26.984 3.33325H13.0173C6.95065 3.33325 3.33398 6.94992 3.33398 13.0166V26.9833C3.33398 33.0499 6.95065 36.6666 13.0173 36.6666H26.984C33.0507 36.6666 36.6673 33.0499 36.6673 26.9833V13.0166C36.6673 6.94992 33.0507 3.33325 26.984 3.33325Z" fill="#8646F4"/>
<path d="M30.5176 14.7834C30.5176 15.4668 29.9676 16.0334 29.2676 16.0334H20.5176C19.8342 16.0334 19.2676 15.4668 19.2676 14.7834C19.2676 14.1001 19.8342 13.5334 20.5176 13.5334H29.2676C29.9676 13.5334 30.5176 14.1001 30.5176 14.7834Z" fill="#8646F4"/>
<path d="M16.6163 13.1668L12.8663 16.9168C12.6163 17.1668 12.2996 17.2834 11.9829 17.2834C11.6663 17.2834 11.3329 17.1668 11.0996 16.9168L9.84961 15.6668C9.34961 15.1834 9.34961 14.3834 9.84961 13.9001C10.3329 13.4168 11.1163 13.4168 11.6163 13.9001L11.9829 14.2668L14.8496 11.4001C15.3329 10.9168 16.1163 10.9168 16.6163 11.4001C17.0996 11.8834 17.0996 12.6834 16.6163 13.1668Z" fill="#8646F4"/>
<path d="M30.5176 26.45C30.5176 27.1333 29.9676 27.7 29.2676 27.7H20.5176C19.8342 27.7 19.2676 27.1333 19.2676 26.45C19.2676 25.7666 19.8342 25.2 20.5176 25.2H29.2676C29.9676 25.2 30.5176 25.7666 30.5176 26.45Z" fill="#8646F4"/>
<path d="M16.6163 24.8333L12.8663 28.5833C12.6163 28.8333 12.2996 28.9499 11.9829 28.9499C11.6663 28.9499 11.3329 28.8333 11.0996 28.5833L9.84961 27.3333C9.34961 26.8499 9.34961 26.0499 9.84961 25.5666C10.3329 25.0833 11.1163 25.0833 11.6163 25.5666L11.9829 25.9333L14.8496 23.0666C15.3329 22.5833 16.1163 22.5833 16.6163 23.0666C17.0996 23.5499 17.0996 24.3499 16.6163 24.8333Z" fill="#8646F4"/>
</svg>
