<svg width="48" height="48" viewBox="0 0 48 48" fill="none" xmlns="http://www.w3.org/2000/svg">
<rect width="48" height="48" rx="24" fill="#F27430" fill-opacity="0.2"/>
<path opacity="0.4" d="M19.8096 14.75H28.1904C29.8612 14.7501 31.104 15.2456 31.9277 16.0703C32.7513 16.8949 33.2448 18.1374 33.2402 19.8076V28.1904C33.2401 29.861 32.745 31.1046 31.9199 31.9297C31.0947 32.7549 29.8505 33.25 28.1797 33.25H19.8096C18.139 33.2499 16.8953 32.7548 16.0703 31.9287C15.2452 31.1025 14.75 29.8559 14.75 28.1797V19.8096C14.7501 18.1389 15.2452 16.8954 16.0703 16.0703C16.8954 15.2452 18.1389 14.7501 19.8096 14.75Z" fill="#F6A274" stroke="#F6A274" stroke-width="1.5"/>
<mask id="path-3-inside-1_34215_31199" fill="white">
<path d="M28.8314 21.4105C28.7614 21.2405 28.6214 21.1005 28.4514 21.0305C28.3714 21.0005 28.2814 20.9805 28.1914 20.9805H26.3314C25.9414 20.9805 25.6314 21.2905 25.6314 21.6805C25.6314 22.0705 25.9414 22.3805 26.3314 22.3805H26.5114L24.4014 24.4905L23.3814 22.9705C23.2614 22.8005 23.0814 22.6805 22.8714 22.6605C22.6514 22.6405 22.4614 22.7105 22.3114 22.8605L19.3314 25.8405C19.0614 26.1105 19.0614 26.5505 19.3314 26.8305C19.4714 26.9705 19.6414 27.0305 19.8214 27.0305C20.0014 27.0305 20.1814 26.9605 20.3114 26.8305L22.6914 24.4505L23.7114 25.9705C23.8314 26.1405 24.0114 26.2605 24.2214 26.2805C24.4414 26.3005 24.6314 26.2305 24.7814 26.0805L27.5014 23.3605V23.5405C27.5014 23.9305 27.8114 24.2405 28.2014 24.2405C28.5914 24.2405 28.9014 23.9305 28.9014 23.5405V21.6705C28.8814 21.5805 28.8714 21.4905 28.8314 21.4105Z"/>
</mask>
<path d="M28.8314 21.4105C28.7614 21.2405 28.6214 21.1005 28.4514 21.0305C28.3714 21.0005 28.2814 20.9805 28.1914 20.9805H26.3314C25.9414 20.9805 25.6314 21.2905 25.6314 21.6805C25.6314 22.0705 25.9414 22.3805 26.3314 22.3805H26.5114L24.4014 24.4905L23.3814 22.9705C23.2614 22.8005 23.0814 22.6805 22.8714 22.6605C22.6514 22.6405 22.4614 22.7105 22.3114 22.8605L19.3314 25.8405C19.0614 26.1105 19.0614 26.5505 19.3314 26.8305C19.4714 26.9705 19.6414 27.0305 19.8214 27.0305C20.0014 27.0305 20.1814 26.9605 20.3114 26.8305L22.6914 24.4505L23.7114 25.9705C23.8314 26.1405 24.0114 26.2605 24.2214 26.2805C24.4414 26.3005 24.6314 26.2305 24.7814 26.0805L27.5014 23.3605V23.5405C27.5014 23.9305 27.8114 24.2405 28.2014 24.2405C28.5914 24.2405 28.9014 23.9305 28.9014 23.5405V21.6705C28.8814 21.5805 28.8714 21.4905 28.8314 21.4105Z" fill="#F6A274"/>
<path d="M28.8314 21.4105L27.4444 21.9816L27.4653 22.0323L27.4898 22.0813L28.8314 21.4105ZM28.4514 21.0305L29.0225 19.6435L29.0005 19.6344L28.9781 19.626L28.4514 21.0305ZM26.5114 22.3805L27.5721 23.4411L30.1327 20.8805H26.5114V22.3805ZM24.4014 24.4905L23.1559 25.3263L24.1723 26.8409L25.4621 25.5511L24.4014 24.4905ZM23.3814 22.9705L24.627 22.1346L24.6171 22.1199L24.6069 22.1054L23.3814 22.9705ZM22.8714 22.6605L23.0136 21.1672L23.0072 21.1666L22.8714 22.6605ZM22.3114 22.8605L23.3721 23.9211L22.3114 22.8605ZM19.3314 25.8405L18.2707 24.7798L19.3314 25.8405ZM19.3314 26.8305L18.2516 27.8717L18.2611 27.8815L18.2707 27.8911L19.3314 26.8305ZM20.3114 26.8305L21.3721 27.8911V27.8911L20.3114 26.8305ZM22.6914 24.4505L23.937 23.6146L22.9206 22.1L21.6307 23.3898L22.6914 24.4505ZM23.7114 25.9705L22.4659 26.8063L22.4757 26.821L22.486 26.8355L23.7114 25.9705ZM24.2214 26.2805L24.0792 27.7737L24.0856 27.7743L24.2214 26.2805ZM24.7814 26.0805L23.7207 25.0198H23.7207L24.7814 26.0805ZM27.5014 23.3605H29.0014V19.7391L26.4407 22.2998L27.5014 23.3605ZM28.9014 21.6705H30.4014V21.5058L30.3657 21.3451L28.9014 21.6705ZM28.8314 21.4105L30.2184 20.8393C29.9961 20.2995 29.5624 19.8658 29.0225 19.6435L28.4514 21.0305L27.8803 22.4175C27.6804 22.3352 27.5267 22.1815 27.4444 21.9816L28.8314 21.4105ZM28.4514 21.0305L28.9781 19.626C28.7657 19.5463 28.4961 19.4805 28.1914 19.4805V20.9805V22.4805C28.0667 22.4805 27.9772 22.4546 27.9247 22.435L28.4514 21.0305ZM28.1914 20.9805V19.4805H26.3314V20.9805V22.4805H28.1914V20.9805ZM26.3314 20.9805V19.4805C25.113 19.4805 24.1314 20.462 24.1314 21.6805H25.6314H27.1314C27.1314 22.1189 26.7698 22.4805 26.3314 22.4805V20.9805ZM25.6314 21.6805H24.1314C24.1314 22.8989 25.113 23.8805 26.3314 23.8805V22.3805V20.8805C26.7698 20.8805 27.1314 21.242 27.1314 21.6805H25.6314ZM26.3314 22.3805V23.8805H26.5114V22.3805V20.8805H26.3314V22.3805ZM26.5114 22.3805L25.4507 21.3198L23.3407 23.4298L24.4014 24.4905L25.4621 25.5511L27.5721 23.4411L26.5114 22.3805ZM24.4014 24.4905L25.647 23.6546L24.627 22.1346L23.3814 22.9705L22.1359 23.8063L23.1559 25.3263L24.4014 24.4905ZM23.3814 22.9705L24.6069 22.1054C24.2763 21.6372 23.7262 21.2351 23.0136 21.1672L22.8714 22.6605L22.7292 24.1537C22.4366 24.1258 22.2465 23.9638 22.156 23.8355L23.3814 22.9705ZM22.8714 22.6605L23.0072 21.1666C22.3479 21.1067 21.7184 21.3322 21.2507 21.7998L22.3114 22.8605L23.3721 23.9211C23.3026 23.9906 23.2022 24.0616 23.0732 24.1081C22.9444 24.1544 22.8255 24.1625 22.7356 24.1543L22.8714 22.6605ZM22.3114 22.8605L21.2507 21.7998L18.2707 24.7798L19.3314 25.8405L20.3921 26.9011L23.3721 23.9211L22.3114 22.8605ZM19.3314 25.8405L18.2707 24.7798C17.4045 25.646 17.4317 27.0214 18.2516 27.8717L19.3314 26.8305L20.4112 25.7893C20.6911 26.0795 20.7183 26.5749 20.3921 26.9011L19.3314 25.8405ZM19.3314 26.8305L18.2707 27.8911C18.7182 28.3386 19.2821 28.5305 19.8214 28.5305V27.0305V25.5305C19.8994 25.5305 20.0007 25.5438 20.1112 25.5874C20.224 25.6318 20.3195 25.6972 20.3921 25.7698L19.3314 26.8305ZM19.8214 27.0305V28.5305C20.3782 28.5305 20.9462 28.317 21.3721 27.8911L20.3114 26.8305L19.2507 25.7698C19.4166 25.6039 19.6247 25.5305 19.8214 25.5305V27.0305ZM20.3114 26.8305L21.3721 27.8911L23.7521 25.5111L22.6914 24.4505L21.6307 23.3898L19.2507 25.7698L20.3114 26.8305ZM22.6914 24.4505L21.4459 25.2863L22.4659 26.8063L23.7114 25.9705L24.957 25.1346L23.937 23.6146L22.6914 24.4505ZM23.7114 25.9705L22.486 26.8355C22.8165 27.3038 23.3666 27.7059 24.0792 27.7737L24.2214 26.2805L24.3636 24.7872C24.6562 24.8151 24.8463 24.9772 24.9369 25.1054L23.7114 25.9705ZM24.2214 26.2805L24.0856 27.7743C24.7449 27.8342 25.3745 27.6087 25.8421 27.1411L24.7814 26.0805L23.7207 25.0198C23.7902 24.9503 23.8906 24.8793 24.0196 24.8329C24.1484 24.7865 24.2673 24.7785 24.3572 24.7866L24.2214 26.2805ZM24.7814 26.0805L25.8421 27.1411L28.5621 24.4211L27.5014 23.3605L26.4407 22.2998L23.7207 25.0198L24.7814 26.0805ZM27.5014 23.3605H26.0014V23.5405H27.5014H29.0014V23.3605H27.5014ZM27.5014 23.5405H26.0014C26.0014 24.7589 26.983 25.7405 28.2014 25.7405V24.2405V22.7405C28.6398 22.7405 29.0014 23.102 29.0014 23.5405H27.5014ZM28.2014 24.2405V25.7405C29.4198 25.7405 30.4014 24.7589 30.4014 23.5405H28.9014H27.4014C27.4014 23.102 27.763 22.7405 28.2014 22.7405V24.2405ZM28.9014 23.5405H30.4014V21.6705H28.9014H27.4014V23.5405H28.9014ZM28.9014 21.6705L30.3657 21.3451C30.366 21.3465 30.3657 21.3454 30.3647 21.3401C30.3635 21.3341 30.3622 21.3278 30.3597 21.3149C30.3557 21.2946 30.3472 21.2505 30.3362 21.2025C30.3142 21.1062 30.2696 20.9327 30.173 20.7396L28.8314 21.4105L27.4898 22.0813C27.4606 22.023 27.4419 21.9728 27.4302 21.937C27.4189 21.9021 27.4131 21.8773 27.4116 21.871C27.4106 21.8667 27.4108 21.8669 27.4156 21.8914C27.419 21.9087 27.4272 21.9512 27.4371 21.9959L28.9014 21.6705Z" fill="#F6A274" mask="url(#path-3-inside-1_34215_31199)"/>
</svg>
