<svg width="48" height="48" viewBox="0 0 48 48" fill="none" xmlns="http://www.w3.org/2000/svg">
<rect width="48" height="48" rx="24" fill="#FEF1EA"/>
<path opacity="0.4" d="M19.8096 14.75H28.1904C29.8612 14.7501 31.104 15.2456 31.9277 16.0703C32.7513 16.8949 33.2448 18.1374 33.2402 19.8076V28.1904C33.2401 29.861 32.745 31.1046 31.9199 31.9297C31.0947 32.7549 29.8505 33.25 28.1797 33.25H19.8096C18.139 33.2499 16.8953 32.7548 16.0703 31.9287C15.2452 31.1025 14.75 29.8559 14.75 28.1797V19.8096C14.7501 18.1389 15.2452 16.8954 16.0703 16.0703C16.8954 15.2452 18.1389 14.7501 19.8096 14.75Z" fill="#F27430" stroke="#F27430" stroke-width="1.5"/>
<mask id="path-3-inside-1_34215_32395" fill="white">
<path d="M28.8299 21.4105C28.7599 21.2405 28.6199 21.1005 28.4499 21.0305C28.3699 21.0005 28.2799 20.9805 28.1899 20.9805H26.3299C25.9399 20.9805 25.6299 21.2905 25.6299 21.6805C25.6299 22.0705 25.9399 22.3805 26.3299 22.3805H26.5099L24.3999 24.4905L23.3799 22.9705C23.2599 22.8005 23.0799 22.6805 22.8699 22.6605C22.6499 22.6405 22.4599 22.7105 22.3099 22.8605L19.3299 25.8405C19.0599 26.1105 19.0599 26.5505 19.3299 26.8305C19.4699 26.9705 19.6399 27.0305 19.8199 27.0305C19.9999 27.0305 20.1799 26.9605 20.3099 26.8305L22.6899 24.4505L23.7099 25.9705C23.8299 26.1405 24.0099 26.2605 24.2199 26.2805C24.4399 26.3005 24.6299 26.2305 24.7799 26.0805L27.4999 23.3605V23.5405C27.4999 23.9305 27.8099 24.2405 28.1999 24.2405C28.5899 24.2405 28.8999 23.9305 28.8999 23.5405V21.6705C28.8799 21.5805 28.8699 21.4905 28.8299 21.4105Z"/>
</mask>
<path d="M28.8299 21.4105C28.7599 21.2405 28.6199 21.1005 28.4499 21.0305C28.3699 21.0005 28.2799 20.9805 28.1899 20.9805H26.3299C25.9399 20.9805 25.6299 21.2905 25.6299 21.6805C25.6299 22.0705 25.9399 22.3805 26.3299 22.3805H26.5099L24.3999 24.4905L23.3799 22.9705C23.2599 22.8005 23.0799 22.6805 22.8699 22.6605C22.6499 22.6405 22.4599 22.7105 22.3099 22.8605L19.3299 25.8405C19.0599 26.1105 19.0599 26.5505 19.3299 26.8305C19.4699 26.9705 19.6399 27.0305 19.8199 27.0305C19.9999 27.0305 20.1799 26.9605 20.3099 26.8305L22.6899 24.4505L23.7099 25.9705C23.8299 26.1405 24.0099 26.2605 24.2199 26.2805C24.4399 26.3005 24.6299 26.2305 24.7799 26.0805L27.4999 23.3605V23.5405C27.4999 23.9305 27.8099 24.2405 28.1999 24.2405C28.5899 24.2405 28.8999 23.9305 28.8999 23.5405V21.6705C28.8799 21.5805 28.8699 21.4905 28.8299 21.4105Z" fill="#F27430"/>
<path d="M28.8299 21.4105L27.4429 21.9816L27.4638 22.0323L27.4883 22.0813L28.8299 21.4105ZM28.4499 21.0305L29.0211 19.6435L28.999 19.6344L28.9766 19.626L28.4499 21.0305ZM26.5099 22.3805L27.5706 23.4411L30.1313 20.8805H26.5099V22.3805ZM24.3999 24.4905L23.1544 25.3263L24.1708 26.8409L25.4606 25.5511L24.3999 24.4905ZM23.3799 22.9705L24.6255 22.1346L24.6156 22.1199L24.6054 22.1054L23.3799 22.9705ZM22.8699 22.6605L23.0122 21.1672L23.0057 21.1666L22.8699 22.6605ZM22.3099 22.8605L23.3706 23.9211L22.3099 22.8605ZM19.3299 25.8405L18.2693 24.7798L19.3299 25.8405ZM19.3299 26.8305L18.2502 27.8717L18.2596 27.8815L18.2693 27.8911L19.3299 26.8305ZM20.3099 26.8305L21.3706 27.8911V27.8911L20.3099 26.8305ZM22.6899 24.4505L23.9355 23.6146L22.9191 22.1L21.6293 23.3898L22.6899 24.4505ZM23.7099 25.9705L22.4644 26.8063L22.4743 26.821L22.4845 26.8355L23.7099 25.9705ZM24.2199 26.2805L24.0777 27.7737L24.0841 27.7743L24.2199 26.2805ZM24.7799 26.0805L23.7193 25.0198H23.7193L24.7799 26.0805ZM27.4999 23.3605H28.9999V19.7391L26.4393 22.2998L27.4999 23.3605ZM28.8999 21.6705H30.3999V21.5058L30.3642 21.3451L28.8999 21.6705ZM28.8299 21.4105L30.217 20.8393C29.9947 20.2995 29.5609 19.8658 29.0211 19.6435L28.4499 21.0305L27.8788 22.4175C27.6789 22.3352 27.5252 22.1815 27.4429 21.9816L28.8299 21.4105ZM28.4499 21.0305L28.9766 19.626C28.7642 19.5463 28.4946 19.4805 28.1899 19.4805V20.9805V22.4805C28.0653 22.4805 27.9757 22.4546 27.9233 22.435L28.4499 21.0305ZM28.1899 20.9805V19.4805H26.3299V20.9805V22.4805H28.1899V20.9805ZM26.3299 20.9805V19.4805C25.1115 19.4805 24.1299 20.462 24.1299 21.6805H25.6299H27.1299C27.1299 22.1189 26.7684 22.4805 26.3299 22.4805V20.9805ZM25.6299 21.6805H24.1299C24.1299 22.8989 25.1115 23.8805 26.3299 23.8805V22.3805V20.8805C26.7684 20.8805 27.1299 21.242 27.1299 21.6805H25.6299ZM26.3299 22.3805V23.8805H26.5099V22.3805V20.8805H26.3299V22.3805ZM26.5099 22.3805L25.4493 21.3198L23.3393 23.4298L24.3999 24.4905L25.4606 25.5511L27.5706 23.4411L26.5099 22.3805ZM24.3999 24.4905L25.6455 23.6546L24.6255 22.1346L23.3799 22.9705L22.1344 23.8063L23.1544 25.3263L24.3999 24.4905ZM23.3799 22.9705L24.6054 22.1054C24.2749 21.6372 23.7247 21.2351 23.0122 21.1672L22.8699 22.6605L22.7277 24.1537C22.4352 24.1258 22.245 23.9638 22.1545 23.8355L23.3799 22.9705ZM22.8699 22.6605L23.0057 21.1666C22.3464 21.1067 21.7169 21.3322 21.2493 21.7998L22.3099 22.8605L23.3706 23.9211C23.3011 23.9906 23.2008 24.0616 23.0718 24.1081C22.943 24.1544 22.824 24.1625 22.7341 24.1543L22.8699 22.6605ZM22.3099 22.8605L21.2493 21.7998L18.2693 24.7798L19.3299 25.8405L20.3906 26.9011L23.3706 23.9211L22.3099 22.8605ZM19.3299 25.8405L18.2693 24.7798C17.4031 25.646 17.4303 27.0214 18.2502 27.8717L19.3299 26.8305L20.4097 25.7893C20.6896 26.0795 20.7168 26.5749 20.3906 26.9011L19.3299 25.8405ZM19.3299 26.8305L18.2693 27.8911C18.7167 28.3386 19.2806 28.5305 19.8199 28.5305V27.0305V25.5305C19.8979 25.5305 19.9993 25.5438 20.1097 25.5874C20.2225 25.6318 20.318 25.6972 20.3906 25.7698L19.3299 26.8305ZM19.8199 27.0305V28.5305C20.3767 28.5305 20.9447 28.317 21.3706 27.8911L20.3099 26.8305L19.2493 25.7698C19.4151 25.6039 19.6232 25.5305 19.8199 25.5305V27.0305ZM20.3099 26.8305L21.3706 27.8911L23.7506 25.5111L22.6899 24.4505L21.6293 23.3898L19.2493 25.7698L20.3099 26.8305ZM22.6899 24.4505L21.4444 25.2863L22.4644 26.8063L23.7099 25.9705L24.9555 25.1346L23.9355 23.6146L22.6899 24.4505ZM23.7099 25.9705L22.4845 26.8355C22.815 27.3038 23.3652 27.7059 24.0777 27.7737L24.2199 26.2805L24.3622 24.7872C24.6547 24.8151 24.8449 24.9772 24.9354 25.1054L23.7099 25.9705ZM24.2199 26.2805L24.0841 27.7743C24.7435 27.8342 25.373 27.6087 25.8406 27.1411L24.7799 26.0805L23.7193 25.0198C23.7888 24.9503 23.8891 24.8793 24.0181 24.8329C24.1469 24.7865 24.2659 24.7785 24.3557 24.7866L24.2199 26.2805ZM24.7799 26.0805L25.8406 27.1411L28.5606 24.4211L27.4999 23.3605L26.4393 22.2998L23.7193 25.0198L24.7799 26.0805ZM27.4999 23.3605H25.9999V23.5405H27.4999H28.9999V23.3605H27.4999ZM27.4999 23.5405H25.9999C25.9999 24.7589 26.9815 25.7405 28.1999 25.7405V24.2405V22.7405C28.6384 22.7405 28.9999 23.102 28.9999 23.5405H27.4999ZM28.1999 24.2405V25.7405C29.4184 25.7405 30.3999 24.7589 30.3999 23.5405H28.8999H27.3999C27.3999 23.102 27.7615 22.7405 28.1999 22.7405V24.2405ZM28.8999 23.5405H30.3999V21.6705H28.8999H27.3999V23.5405H28.8999ZM28.8999 21.6705L30.3642 21.3451C30.3645 21.3465 30.3643 21.3454 30.3632 21.3401C30.362 21.3341 30.3608 21.3278 30.3582 21.3149C30.3543 21.2946 30.3457 21.2505 30.3347 21.2025C30.3127 21.1062 30.2681 20.9327 30.1716 20.7396L28.8299 21.4105L27.4883 22.0813C27.4592 22.023 27.4405 21.9728 27.4288 21.937C27.4174 21.9021 27.4116 21.8773 27.4102 21.871C27.4092 21.8667 27.4094 21.8669 27.4141 21.8914C27.4175 21.9087 27.4257 21.9512 27.4357 21.9959L28.8999 21.6705Z" fill="#F27430" mask="url(#path-3-inside-1_34215_32395)"/>
</svg>
