<svg width="40" height="40" viewBox="0 0 40 40" fill="none" xmlns="http://www.w3.org/2000/svg">
<path opacity="0.4" d="M26.984 3.33325H13.0173C6.95065 3.33325 3.33398 6.94992 3.33398 13.0166V26.9666C3.33398 33.0499 6.95065 36.6666 13.0173 36.6666H26.9673C33.034 36.6666 36.6507 33.0499 36.6507 26.9833V13.0166C36.6673 6.94992 33.0507 3.33325 26.984 3.33325Z" fill="#FFC800"/>
<path d="M28.0497 15.6832C27.9331 15.3999 27.6997 15.1666 27.4164 15.0499C27.2831 14.9999 27.1331 14.9666 26.9831 14.9666H23.8831C23.2331 14.9666 22.7164 15.4832 22.7164 16.1332C22.7164 16.7832 23.2331 17.2999 23.8831 17.2999H24.1831L20.6664 20.8166L18.9664 18.2832C18.7664 17.9999 18.4664 17.7999 18.1164 17.7666C17.7497 17.7332 17.4331 17.8499 17.1831 18.0999L12.2164 23.0666C11.7664 23.5166 11.7664 24.2499 12.2164 24.7166C12.4497 24.9499 12.7331 25.0499 13.0331 25.0499C13.3331 25.0499 13.6331 24.9332 13.8497 24.7166L17.8164 20.7499L19.5164 23.2832C19.7164 23.5666 20.0164 23.7666 20.3664 23.7999C20.7331 23.8332 21.0497 23.7166 21.2997 23.4666L25.8331 18.9332V19.2332C25.8331 19.8832 26.3497 20.3999 26.9997 20.3999C27.6497 20.3999 28.1664 19.8832 28.1664 19.2332V16.1166C28.1331 15.9666 28.1164 15.8166 28.0497 15.6832Z" fill="#FFC800"/>
</svg>
