<svg width="351" height="118" viewBox="0 0 351 118" fill="none" xmlns="http://www.w3.org/2000/svg">
<g style="mix-blend-mode:luminosity">
<rect x="25" y="2" width="114" height="114" rx="57" fill="white"/>
<rect x="25" y="2" width="114" height="114" rx="57" stroke="#DEE2E6" stroke-width="4"/>
<g clip-path="url(#clip0_15958_19589)">
<mask id="mask0_15958_19589" style="mask-type:luminance" maskUnits="userSpaceOnUse" x="66" y="19" width="32" height="32">
<path d="M98 19H66V51H98V19Z" fill="white"/>
</mask>
<g mask="url(#mask0_15958_19589)">
<path opacity="0.4" d="M89.1328 48.3331H74.8796C71.4662 48.3331 69.9995 45.8797 71.6128 42.8797L72.9595 40.3731L74.0262 38.4131L78.2928 30.493C78.7195 29.7197 78.9063 28.373 78.7463 27.5197L77.9063 23.3597C77.7329 22.493 78.3995 21.6797 79.2795 21.6797H84.7595C85.6395 21.6797 86.3062 22.493 86.1328 23.3597L85.2928 27.5197C85.1195 28.373 85.3196 29.7197 85.7463 30.493L92.4262 42.8797C94.0128 45.8797 92.5462 48.3331 89.1328 48.3331Z" fill="#8646F4"/>
<path d="M83.052 39.4532C83.052 40.0266 82.572 40.5066 81.9987 40.5066H73.452C73.2653 40.5066 73.1053 40.4666 72.9453 40.3599L74.012 38.3999H81.9987C82.572 38.3999 83.052 38.8532 83.052 39.4532Z" fill="#8646F4"/>
</g>
</g>
<path d="M64.5873 67.845C64.4746 67.845 64.3836 67.806 64.3143 67.728C64.2449 67.6587 64.1886 67.598 64.1453 67.546L63.6123 66.818C63.1443 67.026 62.6026 67.13 61.9873 67.13C61.2419 67.13 60.6049 67.0043 60.0763 66.753C59.5563 66.493 59.1489 66.0987 58.8543 65.57C58.5683 65.0327 58.4123 64.361 58.3863 63.555C58.3776 63.1737 58.3733 62.8097 58.3733 62.463C58.3733 62.1077 58.3776 61.7393 58.3863 61.358C58.4123 60.5607 58.5769 59.8977 58.8803 59.369C59.1836 58.8317 59.5996 58.433 60.1283 58.173C60.6656 57.9043 61.2853 57.77 61.9873 57.77C62.6979 57.77 63.3176 57.9043 63.8463 58.173C64.3836 58.433 64.8039 58.8317 65.1073 59.369C65.4106 59.8977 65.5709 60.5607 65.5883 61.358C65.6056 61.7393 65.6143 62.1077 65.6143 62.463C65.6143 62.8097 65.6056 63.1737 65.5883 63.555C65.5449 64.751 65.2329 65.6393 64.6523 66.22L65.5103 67.442C65.5189 67.4507 65.5276 67.4637 65.5363 67.481C65.5449 67.507 65.5493 67.5417 65.5493 67.585C65.5579 67.6543 65.5363 67.715 65.4843 67.767C65.4323 67.819 65.3673 67.845 65.2893 67.845H64.5873ZM61.9873 66.025C62.6459 66.025 63.1876 65.8257 63.6123 65.427C64.0369 65.0283 64.2666 64.3827 64.3013 63.49C64.3186 63.1 64.3273 62.7533 64.3273 62.45C64.3273 62.138 64.3186 61.7913 64.3013 61.41C64.2839 60.812 64.1713 60.3267 63.9633 59.954C63.7639 59.5813 63.4953 59.3083 63.1573 59.135C62.8193 58.9617 62.4293 58.875 61.9873 58.875C61.5626 58.875 61.1769 58.9617 60.8303 59.135C60.4923 59.3083 60.2236 59.5813 60.0243 59.954C59.8249 60.3267 59.7123 60.812 59.6863 61.41C59.6776 61.7913 59.6733 62.138 59.6733 62.45C59.6733 62.7533 59.6776 63.1 59.6863 63.49C59.7209 64.3827 59.9506 65.0283 60.3753 65.427C60.7999 65.8257 61.3373 66.025 61.9873 66.025ZM69.8751 67.13C69.3204 67.13 68.8481 67.0087 68.4581 66.766C68.0768 66.5147 67.7864 66.168 67.5871 65.726C67.3878 65.284 67.2881 64.777 67.2881 64.205V60.539C67.2881 60.4523 67.3141 60.383 67.3661 60.331C67.4268 60.2703 67.5004 60.24 67.5871 60.24H68.2371C68.3238 60.24 68.3931 60.2703 68.4451 60.331C68.5058 60.383 68.5361 60.4523 68.5361 60.539V64.14C68.5361 65.4313 69.0994 66.077 70.2261 66.077C70.7634 66.077 71.1924 65.908 71.5131 65.57C71.8424 65.2233 72.0071 64.7467 72.0071 64.14V60.539C72.0071 60.4523 72.0331 60.383 72.0851 60.331C72.1458 60.2703 72.2194 60.24 72.3061 60.24H72.9431C73.0384 60.24 73.1121 60.2703 73.1641 60.331C73.2161 60.383 73.2421 60.4523 73.2421 60.539V66.701C73.2421 66.7877 73.2161 66.8613 73.1641 66.922C73.1121 66.974 73.0384 67 72.9431 67H72.3451C72.2584 67 72.1848 66.974 72.1241 66.922C72.0721 66.8613 72.0461 66.7877 72.0461 66.701V66.129C71.8121 66.4323 71.5261 66.675 71.1881 66.857C70.8588 67.039 70.4211 67.13 69.8751 67.13ZM75.4724 67C75.3858 67 75.3121 66.974 75.2514 66.922C75.1994 66.8613 75.1734 66.7877 75.1734 66.701V60.539C75.1734 60.4523 75.1994 60.383 75.2514 60.331C75.3121 60.2703 75.3858 60.24 75.4724 60.24H76.0964C76.1831 60.24 76.2524 60.2703 76.3044 60.331C76.3564 60.383 76.3824 60.4523 76.3824 60.539V66.701C76.3824 66.7877 76.3564 66.8613 76.3044 66.922C76.2524 66.974 76.1831 67 76.0964 67H75.4724ZM75.4334 59.265C75.2948 59.265 75.2254 59.1957 75.2254 59.057C75.2254 58.9877 75.2471 58.9313 75.2904 58.888L76.2654 57.718C76.3434 57.6227 76.4128 57.562 76.4734 57.536C76.5341 57.5013 76.6251 57.484 76.7464 57.484H77.6304C77.7951 57.484 77.8774 57.5663 77.8774 57.731C77.8774 57.7917 77.8558 57.8437 77.8124 57.887L76.3044 59.122C76.2351 59.1827 76.1701 59.2217 76.1094 59.239C76.0488 59.2563 75.9708 59.265 75.8754 59.265H75.4334ZM78.6209 67C78.5342 67 78.4605 66.974 78.3999 66.922C78.3479 66.8613 78.3219 66.7877 78.3219 66.701V60.539C78.3219 60.4523 78.3479 60.383 78.3999 60.331C78.4605 60.2703 78.5342 60.24 78.6209 60.24H79.2059C79.2925 60.24 79.3619 60.2703 79.4139 60.331C79.4745 60.383 79.5049 60.4523 79.5049 60.539V60.994C79.7042 60.7253 79.9555 60.513 80.2589 60.357C80.5622 60.1923 80.9262 60.11 81.3509 60.11C82.3302 60.1013 83.0235 60.5 83.4309 61.306C83.6302 60.942 83.9205 60.6517 84.3019 60.435C84.6832 60.2183 85.1165 60.11 85.6019 60.11C86.0525 60.11 86.4599 60.214 86.8239 60.422C87.1965 60.63 87.4869 60.9463 87.6949 61.371C87.9115 61.787 88.0199 62.3113 88.0199 62.944V66.701C88.0199 66.7877 87.9895 66.8613 87.9289 66.922C87.8769 66.974 87.8075 67 87.7209 67H87.1099C87.0232 67 86.9495 66.974 86.8889 66.922C86.8369 66.8613 86.8109 66.7877 86.8109 66.701V63.061C86.8109 62.5757 86.7415 62.1943 86.6029 61.917C86.4642 61.6397 86.2779 61.4447 86.0439 61.332C85.8099 61.2193 85.5542 61.163 85.2769 61.163C85.0515 61.163 84.8219 61.2193 84.5879 61.332C84.3539 61.4447 84.1589 61.6397 84.0029 61.917C83.8555 62.1943 83.7819 62.5757 83.7819 63.061V66.701C83.7819 66.7877 83.7515 66.8613 83.6909 66.922C83.6389 66.974 83.5695 67 83.4829 67H82.8719C82.7852 67 82.7115 66.974 82.6509 66.922C82.5989 66.8613 82.5729 66.7877 82.5729 66.701V63.061C82.5729 62.5757 82.4992 62.1943 82.3519 61.917C82.2045 61.6397 82.0139 61.4447 81.7799 61.332C81.5459 61.2193 81.2989 61.163 81.0389 61.163C80.8135 61.163 80.5839 61.2193 80.3499 61.332C80.1159 61.4447 79.9209 61.6397 79.7649 61.917C79.6175 62.1943 79.5439 62.5713 79.5439 63.048V66.701C79.5439 66.7877 79.5135 66.8613 79.4529 66.922C79.4009 66.974 79.3315 67 79.2449 67H78.6209ZM90.1736 67C90.0869 67 90.0133 66.974 89.9526 66.922C89.9006 66.8613 89.8746 66.7877 89.8746 66.701V60.539C89.8746 60.4523 89.9006 60.383 89.9526 60.331C90.0133 60.2703 90.0869 60.24 90.1736 60.24H90.7976C90.8843 60.24 90.9536 60.2703 91.0056 60.331C91.0576 60.383 91.0836 60.4523 91.0836 60.539V66.701C91.0836 66.7877 91.0576 66.8613 91.0056 66.922C90.9536 66.974 90.8843 67 90.7976 67H90.1736ZM90.0696 58.979C89.9829 58.979 89.9093 58.953 89.8486 58.901C89.7966 58.8403 89.7706 58.7667 89.7706 58.68V57.978C89.7706 57.8913 89.7966 57.822 89.8486 57.77C89.9093 57.7093 89.9829 57.679 90.0696 57.679H90.8886C90.9753 57.679 91.0446 57.7093 91.0966 57.77C91.1573 57.822 91.1876 57.8913 91.1876 57.978V58.68C91.1876 58.7667 91.1573 58.8403 91.0966 58.901C91.0446 58.953 90.9753 58.979 90.8886 58.979H90.0696ZM95.753 67.13C95.1377 67.13 94.6047 67.013 94.154 66.779C93.712 66.5363 93.3697 66.194 93.127 65.752C92.8844 65.3013 92.7544 64.764 92.737 64.14C92.7284 64.01 92.724 63.8367 92.724 63.62C92.724 63.4033 92.7284 63.23 92.737 63.1C92.7544 62.476 92.8844 61.943 93.127 61.501C93.3697 61.0503 93.712 60.708 94.154 60.474C94.6047 60.2313 95.1377 60.11 95.753 60.11C96.2557 60.11 96.6847 60.1793 97.04 60.318C97.404 60.4567 97.703 60.6343 97.937 60.851C98.171 61.0677 98.3444 61.3017 98.457 61.553C98.5784 61.8043 98.6434 62.0427 98.652 62.268C98.6607 62.3547 98.6347 62.424 98.574 62.476C98.5134 62.528 98.4397 62.554 98.353 62.554H97.729C97.6424 62.554 97.5774 62.5367 97.534 62.502C97.4907 62.4587 97.4474 62.3893 97.404 62.294C97.248 61.8693 97.0357 61.5703 96.767 61.397C96.4984 61.2237 96.1647 61.137 95.766 61.137C95.246 61.137 94.8214 61.2973 94.492 61.618C94.1714 61.9387 93.998 62.4543 93.972 63.165C93.9634 63.477 93.9634 63.7803 93.972 64.075C93.998 64.7943 94.1714 65.3143 94.492 65.635C94.8214 65.947 95.246 66.103 95.766 66.103C96.1647 66.103 96.4984 66.0163 96.767 65.843C97.0357 65.6697 97.248 65.3707 97.404 64.946C97.4474 64.8507 97.4907 64.7857 97.534 64.751C97.5774 64.7077 97.6424 64.686 97.729 64.686H98.353C98.4397 64.686 98.5134 64.712 98.574 64.764C98.6347 64.816 98.6607 64.8853 98.652 64.972C98.6434 65.154 98.6044 65.3403 98.535 65.531C98.4657 65.7217 98.353 65.9167 98.197 66.116C98.0497 66.3067 97.8634 66.48 97.638 66.636C97.4127 66.7833 97.1397 66.9047 96.819 67C96.507 67.0867 96.1517 67.13 95.753 67.13ZM102.081 67.13C101.648 67.13 101.253 67.0433 100.898 66.87C100.543 66.6967 100.257 66.4627 100.04 66.168C99.8232 65.8733 99.7149 65.5397 99.7149 65.167C99.7149 64.569 99.9576 64.0923 100.443 63.737C100.928 63.3817 101.561 63.1477 102.341 63.035L104.278 62.762V62.385C104.278 61.969 104.157 61.644 103.914 61.41C103.68 61.176 103.294 61.059 102.757 61.059C102.367 61.059 102.051 61.137 101.808 61.293C101.574 61.449 101.409 61.6483 101.314 61.891C101.262 62.021 101.171 62.086 101.041 62.086H100.456C100.361 62.086 100.287 62.06 100.235 62.008C100.192 61.9473 100.17 61.878 100.17 61.8C100.17 61.67 100.218 61.5097 100.313 61.319C100.417 61.1283 100.573 60.942 100.781 60.76C100.989 60.578 101.253 60.4263 101.574 60.305C101.903 60.175 102.302 60.11 102.77 60.11C103.29 60.11 103.728 60.1793 104.083 60.318C104.438 60.448 104.716 60.6257 104.915 60.851C105.123 61.0763 105.27 61.332 105.357 61.618C105.452 61.904 105.5 62.1943 105.5 62.489V66.701C105.5 66.7877 105.47 66.8613 105.409 66.922C105.357 66.974 105.288 67 105.201 67H104.603C104.508 67 104.434 66.974 104.382 66.922C104.33 66.8613 104.304 66.7877 104.304 66.701V66.142C104.191 66.298 104.04 66.454 103.849 66.61C103.658 66.7573 103.42 66.883 103.134 66.987C102.848 67.0823 102.497 67.13 102.081 67.13ZM102.354 66.155C102.709 66.155 103.034 66.0813 103.329 65.934C103.624 65.778 103.853 65.5397 104.018 65.219C104.191 64.8983 104.278 64.4953 104.278 64.01V63.646L102.77 63.867C102.155 63.9537 101.691 64.101 101.379 64.309C101.067 64.5083 100.911 64.764 100.911 65.076C100.911 65.3187 100.98 65.5223 101.119 65.687C101.266 65.843 101.448 65.96 101.665 66.038C101.89 66.116 102.12 66.155 102.354 66.155Z" fill="#171B22"/>
<rect x="63.5" y="74" width="37" height="25" rx="12.5" fill="#8646F4"/>
<path d="M76.3417 91.14C75.6697 91.14 75.0864 91.0467 74.5917 90.86C74.097 90.664 73.6864 90.398 73.3597 90.062C73.0424 89.726 72.7997 89.334 72.6317 88.886C72.4637 88.438 72.3657 87.9573 72.3377 87.444C72.3284 87.192 72.319 86.9073 72.3097 86.59C72.3097 86.2633 72.3097 85.9367 72.3097 85.61C72.319 85.274 72.3284 84.9753 72.3377 84.714C72.3657 84.2007 72.4637 83.7247 72.6317 83.286C72.809 82.838 73.061 82.4507 73.3877 82.124C73.7237 81.788 74.1344 81.5267 74.6197 81.34C75.1144 81.1533 75.6884 81.06 76.3417 81.06C77.0044 81.06 77.5784 81.1533 78.0637 81.34C78.549 81.5267 78.955 81.788 79.2817 82.124C79.6177 82.4507 79.8744 82.838 80.0517 83.286C80.229 83.7247 80.327 84.2007 80.3457 84.714C80.3644 84.9753 80.3737 85.274 80.3737 85.61C80.383 85.9367 80.383 86.2633 80.3737 86.59C80.3737 86.9073 80.3644 87.192 80.3457 87.444C80.327 87.9573 80.229 88.438 80.0517 88.886C79.8837 89.334 79.6364 89.726 79.3097 90.062C78.9924 90.398 78.5864 90.664 78.0917 90.86C77.6064 91.0467 77.023 91.14 76.3417 91.14ZM76.3417 89.11C76.827 89.11 77.177 88.956 77.3917 88.648C77.6157 88.3307 77.7324 87.906 77.7417 87.374C77.7604 87.1033 77.7697 86.8187 77.7697 86.52C77.779 86.2213 77.779 85.9227 77.7697 85.624C77.7697 85.3253 77.7604 85.05 77.7417 84.798C77.7324 84.2847 77.6157 83.8693 77.3917 83.552C77.177 83.2347 76.827 83.0713 76.3417 83.062C75.8564 83.0713 75.5064 83.2347 75.2917 83.552C75.077 83.8693 74.9604 84.2847 74.9417 84.798C74.9324 85.05 74.923 85.3253 74.9137 85.624C74.9137 85.9227 74.9137 86.2213 74.9137 86.52C74.923 86.8187 74.9324 87.1033 74.9417 87.374C74.9604 87.906 75.0817 88.3307 75.3057 88.648C75.5297 88.956 75.875 89.11 76.3417 89.11ZM82.6793 91C82.4647 91 82.3573 90.9067 82.3573 90.72C82.3573 90.664 82.376 90.6127 82.4133 90.566L89.3293 81.466C89.3947 81.382 89.46 81.3167 89.5253 81.27C89.5907 81.2233 89.6887 81.2 89.8193 81.2H90.8133C91.028 81.2 91.1353 81.2933 91.1353 81.48C91.1353 81.536 91.1167 81.5873 91.0793 81.634L84.1633 90.734C84.098 90.818 84.0327 90.8833 83.9673 90.93C83.902 90.9767 83.804 91 83.6733 91H82.6793ZM89.7213 91.07C89.0867 91.07 88.578 90.902 88.1953 90.566C87.822 90.23 87.612 89.782 87.5653 89.222C87.556 88.9793 87.5513 88.7647 87.5513 88.578C87.5513 88.3913 87.556 88.1673 87.5653 87.906C87.6027 87.3367 87.8033 86.884 88.1673 86.548C88.5407 86.2027 89.0587 86.03 89.7213 86.03C90.3933 86.03 90.9113 86.2027 91.2753 86.548C91.6393 86.884 91.84 87.3367 91.8773 87.906C91.896 88.1673 91.9053 88.3913 91.9053 88.578C91.9053 88.7647 91.896 88.9793 91.8773 89.222C91.84 89.782 91.63 90.23 91.2473 90.566C90.8647 90.902 90.356 91.07 89.7213 91.07ZM89.7213 89.838C89.88 89.838 90.0013 89.8053 90.0853 89.74C90.1787 89.6747 90.2487 89.5907 90.2953 89.488C90.342 89.376 90.3653 89.2593 90.3653 89.138C90.384 88.9233 90.3933 88.7273 90.3933 88.55C90.3933 88.3727 90.384 88.1813 90.3653 87.976C90.356 87.7987 90.3047 87.64 90.2113 87.5C90.118 87.3507 89.9547 87.276 89.7213 87.276C89.488 87.276 89.3247 87.3507 89.2313 87.5C89.138 87.64 89.0867 87.7987 89.0773 87.976C89.068 88.1813 89.0633 88.3727 89.0633 88.55C89.0633 88.7273 89.068 88.9233 89.0773 89.138C89.0867 89.2593 89.11 89.376 89.1473 89.488C89.194 89.5907 89.264 89.6747 89.3573 89.74C89.4507 89.8053 89.572 89.838 89.7213 89.838ZM83.7993 86.142C83.1553 86.142 82.642 85.9787 82.2593 85.652C81.886 85.316 81.6807 84.868 81.6433 84.308C81.6247 84.0653 81.6153 83.8553 81.6153 83.678C81.6247 83.4913 81.634 83.2673 81.6433 83.006C81.6713 82.4367 81.8673 81.984 82.2313 81.648C82.6047 81.3027 83.1273 81.13 83.7993 81.13C84.4713 81.13 84.9893 81.3027 85.3533 81.648C85.7173 81.984 85.9133 82.4367 85.9413 83.006C85.96 83.2673 85.9693 83.4913 85.9693 83.678C85.9693 83.8553 85.96 84.0653 85.9413 84.308C85.9133 84.868 85.708 85.316 85.3253 85.652C84.9427 85.9787 84.434 86.142 83.7993 86.142ZM83.7993 84.938C83.9487 84.938 84.07 84.9053 84.1633 84.84C84.2567 84.7653 84.3267 84.6767 84.3733 84.574C84.42 84.462 84.4433 84.35 84.4433 84.238C84.462 84.0233 84.4713 83.8273 84.4713 83.65C84.4713 83.4727 84.462 83.2813 84.4433 83.076C84.434 82.8987 84.378 82.74 84.2753 82.6C84.182 82.4507 84.0233 82.376 83.7993 82.376C83.566 82.376 83.398 82.4507 83.2953 82.6C83.202 82.74 83.1507 82.8987 83.1413 83.076C83.132 83.2813 83.1273 83.4727 83.1273 83.65C83.1273 83.8273 83.132 84.0233 83.1413 84.238C83.1507 84.35 83.174 84.462 83.2113 84.574C83.258 84.6767 83.328 84.7653 83.4213 84.84C83.5147 84.9053 83.6407 84.938 83.7993 84.938Z" fill="white"/>
<g filter="url(#filter0_d_15958_19589)">
<rect x="111" y="14" width="32" height="32" rx="16" fill="white"/>
<rect x="110" y="13" width="34" height="34" rx="17" stroke="#1DA534" stroke-width="2"/>
<path opacity="0.4" d="M126.999 32.8398C127.485 32.8398 127.879 33.2338 127.879 33.7197C127.879 34.2057 127.485 34.5996 126.999 34.5996C126.513 34.5995 126.119 34.2057 126.119 33.7197C126.119 33.2338 126.513 32.8399 126.999 32.8398Z" fill="#1DA534" stroke="#1DA534" stroke-width="1.5"/>
<path d="M122.35 28.1899H131.65C133.674 28.19 134.735 28.5109 135.332 29.1079C135.929 29.7049 136.25 30.7662 136.25 32.7896V34.6499C136.25 36.6735 135.929 37.7355 135.332 38.3325C134.735 38.9294 133.673 39.2495 131.65 39.2495H122.35C120.327 39.2495 119.265 38.9294 118.668 38.3325C118.071 37.7355 117.75 36.6735 117.75 34.6499V32.7896C117.75 30.7662 118.071 29.7049 118.668 29.1079C119.265 28.5109 120.326 28.19 122.35 28.1899ZM127 29.9497C124.914 29.9497 123.23 31.6476 123.23 33.7202C123.231 35.7927 124.914 37.4897 127 37.4897C129.086 37.4897 130.769 35.7927 130.77 33.7202C130.77 31.6476 129.086 29.9497 127 29.9497Z" fill="#1DA534" stroke="#1DA534" stroke-width="1.5"/>
<g opacity="0.4">
<mask id="path-12-inside-1_15958_19589" fill="white">
<path d="M122.121 27.45V26.28C122.121 23.35 122.951 21.4 127.001 21.4C131.051 21.4 131.881 23.35 131.881 26.28V27.45C132.391 27.46 132.851 27.48 133.281 27.54V26.28C133.281 23.58 132.631 20 127.001 20C121.371 20 120.721 23.58 120.721 26.28V27.53C121.141 27.48 121.611 27.45 122.121 27.45Z"/>
</mask>
<path d="M122.121 27.45V26.28C122.121 23.35 122.951 21.4 127.001 21.4C131.051 21.4 131.881 23.35 131.881 26.28V27.45C132.391 27.46 132.851 27.48 133.281 27.54V26.28C133.281 23.58 132.631 20 127.001 20C121.371 20 120.721 23.58 120.721 26.28V27.53C121.141 27.48 121.611 27.45 122.121 27.45Z" fill="#1DA534"/>
<path d="M122.121 27.45V28.95H123.621V27.45H122.121ZM131.881 27.45H130.381V28.9209L131.851 28.9497L131.881 27.45ZM133.281 27.54L133.073 29.0256L134.781 29.2638V27.54H133.281ZM133.281 26.28H131.781H133.281ZM120.721 27.53H119.221V29.2192L120.898 29.0195L120.721 27.53ZM122.121 27.45H123.621V26.28H122.121H120.621V27.45H122.121ZM122.121 26.28H123.621C123.621 24.8831 123.837 24.1294 124.193 23.7033C124.498 23.3385 125.182 22.9 127.001 22.9V21.4V19.9C124.769 19.9 123.014 20.4365 121.891 21.7792C120.82 23.0606 120.621 24.7469 120.621 26.28H122.121ZM127.001 21.4V22.9C128.819 22.9 129.504 23.3385 129.809 23.7033C130.165 24.1294 130.381 24.8831 130.381 26.28H131.881H133.381C133.381 24.7469 133.182 23.0606 132.11 21.7792C130.988 20.4365 129.232 19.9 127.001 19.9V21.4ZM131.881 26.28H130.381V27.45H131.881H133.381V26.28H131.881ZM131.881 27.45L131.851 28.9497C132.349 28.9595 132.735 28.9785 133.073 29.0256L133.281 27.54L133.488 26.0544C132.966 25.9815 132.433 25.9605 131.91 25.9503L131.881 27.45ZM133.281 27.54H134.781V26.28H133.281H131.781V27.54H133.281ZM133.281 26.28H134.781C134.781 24.8668 134.625 22.8955 133.479 21.265C132.257 19.5254 130.156 18.5 127.001 18.5V20V21.5C129.475 21.5 130.515 22.2646 131.025 22.99C131.611 23.8245 131.781 24.9932 131.781 26.28H133.281ZM127.001 20V18.5C123.845 18.5 121.745 19.5254 120.522 21.265C119.376 22.8955 119.221 24.8668 119.221 26.28H120.721H122.221C122.221 24.9932 122.39 23.8245 122.977 22.99C123.487 22.2646 124.526 21.5 127.001 21.5V20ZM120.721 26.28H119.221V27.53H120.721H122.221V26.28H120.721ZM120.721 27.53L120.898 29.0195C121.258 28.9766 121.669 28.95 122.121 28.95V27.45V25.95C121.552 25.95 121.023 25.9834 120.543 26.0405L120.721 27.53Z" fill="#1DA534" mask="url(#path-12-inside-1_15958_19589)"/>
</g>
</g>
</g>
<defs>
<filter id="filter0_d_15958_19589" x="94" y="5" width="66" height="66" filterUnits="userSpaceOnUse" color-interpolation-filters="sRGB">
<feFlood flood-opacity="0" result="BackgroundImageFix"/>
<feColorMatrix in="SourceAlpha" type="matrix" values="0 0 0 0 0 0 0 0 0 0 0 0 0 0 0 0 0 0 127 0" result="hardAlpha"/>
<feOffset dy="8"/>
<feGaussianBlur stdDeviation="7.5"/>
<feColorMatrix type="matrix" values="0 0 0 0 0 0 0 0 0 0 0 0 0 0 0 0 0 0 0.25 0"/>
<feBlend mode="normal" in2="BackgroundImageFix" result="effect1_dropShadow_15958_19589"/>
<feBlend mode="normal" in="SourceGraphic" in2="effect1_dropShadow_15958_19589" result="shape"/>
</filter>
<clipPath id="clip0_15958_19589">
<rect width="32" height="32" fill="white" transform="translate(66 19)"/>
</clipPath>
</defs>
</svg>
