<svg width="351" height="118" viewBox="0 0 351 118" fill="none" xmlns="http://www.w3.org/2000/svg">
<g style="mix-blend-mode:luminosity">
<rect x="17" y="2" width="114" height="114" rx="57" fill="white"/>
<rect x="17" y="2" width="114" height="114" rx="57" stroke="#DEE2E6" stroke-width="4"/>
<g clip-path="url(#clip0_15958_19585)">
<path opacity="0.4" d="M72.8917 14.1665H73.3592C73.4808 14.2096 73.6017 14.2096 73.7232 14.1665H74.971C75.1627 14.2339 75.3635 14.1943 75.5594 14.211C77.5539 14.3777 79.3595 15.0828 81.0553 16.1152C81.8889 16.6223 82.6503 17.2267 83.3402 17.9089C84.5337 19.0886 85.491 20.4412 86.1837 21.9786C86.6971 23.1179 87.0451 24.3038 87.223 25.539C87.3605 26.4949 87.3202 27.4592 87.3084 28.4214C87.298 29.2585 87.1472 30.0769 86.934 30.8835C86.3726 33.0016 85.3611 34.8725 83.8953 36.5037C82.7615 37.7653 81.4311 38.7601 79.9229 39.5174C78.6682 40.1475 77.3406 40.5643 75.9477 40.7616C75.624 40.8075 75.2947 40.7797 74.9716 40.8339H74.6597C74.5729 40.7915 74.4867 40.7915 74.3999 40.8339H73.2564C73.2217 40.8012 73.1869 40.8012 73.1522 40.8339H72.8924C72.4672 40.7713 72.0351 40.7811 71.6106 40.6998C69.8995 40.3733 68.3017 39.7633 66.8282 38.8282C65.9911 38.2968 65.2088 37.6931 64.5183 36.9851C62.4675 34.8822 61.1864 32.384 60.7487 29.4662C60.7077 29.1939 60.7341 28.916 60.6758 28.6458V28.2289C60.7182 28.1247 60.7182 28.0205 60.6758 27.9163V27.0306C60.7182 26.9264 60.7182 26.8221 60.6758 26.7179V26.4053C60.7348 26.1003 60.707 25.7877 60.7543 25.4806C61.1364 23.0234 62.1194 20.8399 63.6999 18.9218C64.8976 17.4678 66.3509 16.3368 68.0245 15.4941C69.2854 14.8605 70.6186 14.434 72.0205 14.2388C72.3095 14.1985 72.6041 14.2228 72.8917 14.1665Z" fill="#017974"/>
<path d="M77.2937 20.1709C77.152 20.1758 77.0242 20.1292 76.8936 20.0785C76.2558 19.8277 75.616 20.1542 75.4875 20.8302C75.2964 21.832 75.1408 22.8407 74.9727 23.8473C74.7205 25.357 74.4711 26.8666 74.2203 28.3762C73.9862 29.7837 73.7548 31.1912 73.5158 32.5973C73.4172 33.176 73.37 33.7672 73.1984 34.3299C72.7364 35.8451 71.0308 36.6232 69.5886 35.991C69.0919 35.7735 68.887 35.3296 69.0745 34.8787C69.2607 34.4313 69.7185 34.2667 70.2215 34.4654C70.9002 34.7335 71.5505 34.3751 71.679 33.6407C71.8499 32.6695 72.0007 31.6955 72.1612 30.7229C72.4106 29.2126 72.66 27.703 72.9107 26.1927C73.1629 24.6747 73.4158 23.1561 73.6694 21.6381C73.7347 21.2463 73.7923 20.8517 73.8743 20.4634C74.2279 18.7933 76.0689 17.8721 77.6084 18.5897C78.217 18.8732 78.3087 19.6429 77.78 20.0264C77.6355 20.1313 77.4723 20.1799 77.2937 20.1716V20.1709Z" fill="#017974"/>
</g>
<path d="M56.1013 59.63C55.304 59.63 54.641 59.4827 54.1123 59.188C53.5923 58.8933 53.198 58.4817 52.9293 57.953C52.6607 57.4243 52.5133 56.809 52.4873 56.107C52.4787 55.7517 52.4743 55.3703 52.4743 54.963C52.4743 54.5557 52.4787 54.1657 52.4873 53.793C52.5133 53.091 52.6607 52.4757 52.9293 51.947C53.198 51.4183 53.5923 51.0067 54.1123 50.712C54.641 50.4173 55.304 50.27 56.1013 50.27C56.6993 50.27 57.2237 50.3523 57.6743 50.517C58.125 50.6817 58.4977 50.9027 58.7923 51.18C59.0957 51.4573 59.3253 51.7693 59.4813 52.116C59.6373 52.454 59.724 52.805 59.7413 53.169C59.75 53.247 59.724 53.312 59.6633 53.364C59.6113 53.416 59.5463 53.442 59.4683 53.442H58.7533C58.6753 53.442 58.606 53.4203 58.5453 53.377C58.4933 53.3337 58.4543 53.2557 58.4283 53.143C58.281 52.467 58.0037 52.0033 57.5963 51.752C57.1977 51.5007 56.695 51.375 56.0883 51.375C55.395 51.375 54.8447 51.5743 54.4373 51.973C54.03 52.363 53.809 52.9913 53.7743 53.858C53.7483 54.5687 53.7483 55.2967 53.7743 56.042C53.809 56.9087 54.03 57.5413 54.4373 57.94C54.8447 58.33 55.395 58.525 56.0883 58.525C56.695 58.525 57.1977 58.3993 57.5963 58.148C58.0037 57.8967 58.281 57.433 58.4283 56.757C58.4543 56.6443 58.4933 56.5663 58.5453 56.523C58.606 56.4797 58.6753 56.458 58.7533 56.458H59.4683C59.5463 56.458 59.6113 56.484 59.6633 56.536C59.724 56.588 59.75 56.653 59.7413 56.731C59.724 57.095 59.6373 57.4503 59.4813 57.797C59.3253 58.135 59.0957 58.4427 58.7923 58.72C58.4977 58.9973 58.125 59.2183 57.6743 59.383C57.2237 59.5477 56.6993 59.63 56.1013 59.63ZM63.1995 59.63C62.7662 59.63 62.3719 59.5433 62.0165 59.37C61.6612 59.1967 61.3752 58.9627 61.1585 58.668C60.9419 58.3733 60.8335 58.0397 60.8335 57.667C60.8335 57.069 61.0762 56.5923 61.5615 56.237C62.0469 55.8817 62.6795 55.6477 63.4595 55.535L65.3965 55.262V54.885C65.3965 54.469 65.2752 54.144 65.0325 53.91C64.7985 53.676 64.4129 53.559 63.8755 53.559C63.4855 53.559 63.1692 53.637 62.9265 53.793C62.6925 53.949 62.5279 54.1483 62.4325 54.391C62.3805 54.521 62.2895 54.586 62.1595 54.586H61.5745C61.4792 54.586 61.4055 54.56 61.3535 54.508C61.3102 54.4473 61.2885 54.378 61.2885 54.3C61.2885 54.17 61.3362 54.0097 61.4315 53.819C61.5355 53.6283 61.6915 53.442 61.8995 53.26C62.1075 53.078 62.3719 52.9263 62.6925 52.805C63.0219 52.675 63.4205 52.61 63.8885 52.61C64.4085 52.61 64.8462 52.6793 65.2015 52.818C65.5569 52.948 65.8342 53.1257 66.0335 53.351C66.2415 53.5763 66.3889 53.832 66.4755 54.118C66.5709 54.404 66.6185 54.6943 66.6185 54.989V59.201C66.6185 59.2877 66.5882 59.3613 66.5275 59.422C66.4755 59.474 66.4062 59.5 66.3195 59.5H65.7215C65.6262 59.5 65.5525 59.474 65.5005 59.422C65.4485 59.3613 65.4225 59.2877 65.4225 59.201V58.642C65.3099 58.798 65.1582 58.954 64.9675 59.11C64.7769 59.2573 64.5385 59.383 64.2525 59.487C63.9665 59.5823 63.6155 59.63 63.1995 59.63ZM63.4725 58.655C63.8279 58.655 64.1529 58.5813 64.4475 58.434C64.7422 58.278 64.9719 58.0397 65.1365 57.719C65.3099 57.3983 65.3965 56.9953 65.3965 56.51V56.146L63.8885 56.367C63.2732 56.4537 62.8095 56.601 62.4975 56.809C62.1855 57.0083 62.0295 57.264 62.0295 57.576C62.0295 57.8187 62.0989 58.0223 62.2375 58.187C62.3849 58.343 62.5669 58.46 62.7835 58.538C63.0089 58.616 63.2385 58.655 63.4725 58.655ZM63.5505 51.765C63.4119 51.765 63.3425 51.6957 63.3425 51.557C63.3425 51.4877 63.3642 51.4313 63.4075 51.388L64.3825 50.218C64.4605 50.1227 64.5299 50.062 64.5905 50.036C64.6512 50.0013 64.7422 49.984 64.8635 49.984H65.7475C65.9122 49.984 65.9945 50.0663 65.9945 50.231C65.9945 50.2917 65.9729 50.3437 65.9295 50.387L64.4215 51.622C64.3522 51.6827 64.2872 51.7217 64.2265 51.739C64.1659 51.7563 64.0879 51.765 63.9925 51.765H63.5505ZM68.7994 59.5C68.7127 59.5 68.6391 59.474 68.5784 59.422C68.5264 59.3613 68.5004 59.2877 68.5004 59.201V50.569C68.5004 50.4823 68.5264 50.413 68.5784 50.361C68.6391 50.3003 68.7127 50.27 68.7994 50.27H69.4104C69.5057 50.27 69.5794 50.3003 69.6314 50.361C69.6834 50.413 69.7094 50.4823 69.7094 50.569V59.201C69.7094 59.2877 69.6834 59.3613 69.6314 59.422C69.5794 59.474 69.5057 59.5 69.4104 59.5H68.7994ZM74.3785 59.63C73.7632 59.63 73.2302 59.513 72.7795 59.279C72.3375 59.0363 71.9952 58.694 71.7525 58.252C71.5099 57.8013 71.3799 57.264 71.3625 56.64C71.3539 56.51 71.3495 56.3367 71.3495 56.12C71.3495 55.9033 71.3539 55.73 71.3625 55.6C71.3799 54.976 71.5099 54.443 71.7525 54.001C71.9952 53.5503 72.3375 53.208 72.7795 52.974C73.2302 52.7313 73.7632 52.61 74.3785 52.61C74.8812 52.61 75.3102 52.6793 75.6655 52.818C76.0295 52.9567 76.3285 53.1343 76.5625 53.351C76.7965 53.5677 76.9699 53.8017 77.0825 54.053C77.2039 54.3043 77.2689 54.5427 77.2775 54.768C77.2862 54.8547 77.2602 54.924 77.1995 54.976C77.1389 55.028 77.0652 55.054 76.9785 55.054H76.3545C76.2679 55.054 76.2029 55.0367 76.1595 55.002C76.1162 54.9587 76.0729 54.8893 76.0295 54.794C75.8735 54.3693 75.6612 54.0703 75.3925 53.897C75.1239 53.7237 74.7902 53.637 74.3915 53.637C73.8715 53.637 73.4469 53.7973 73.1175 54.118C72.7969 54.4387 72.6235 54.9543 72.5975 55.665C72.5889 55.977 72.5889 56.2803 72.5975 56.575C72.6235 57.2943 72.7969 57.8143 73.1175 58.135C73.4469 58.447 73.8715 58.603 74.3915 58.603C74.7902 58.603 75.1239 58.5163 75.3925 58.343C75.6612 58.1697 75.8735 57.8707 76.0295 57.446C76.0729 57.3507 76.1162 57.2857 76.1595 57.251C76.2029 57.2077 76.2679 57.186 76.3545 57.186H76.9785C77.0652 57.186 77.1389 57.212 77.1995 57.264C77.2602 57.316 77.2862 57.3853 77.2775 57.472C77.2689 57.654 77.2299 57.8403 77.1605 58.031C77.0912 58.2217 76.9785 58.4167 76.8225 58.616C76.6752 58.8067 76.4889 58.98 76.2635 59.136C76.0382 59.2833 75.7652 59.4047 75.4445 59.5C75.1325 59.5867 74.7772 59.63 74.3785 59.63ZM81.3434 59.63C80.7887 59.63 80.3164 59.5087 79.9264 59.266C79.545 59.0147 79.2547 58.668 79.0554 58.226C78.856 57.784 78.7564 57.277 78.7564 56.705V53.039C78.7564 52.9523 78.7824 52.883 78.8344 52.831C78.895 52.7703 78.9687 52.74 79.0554 52.74H79.7054C79.792 52.74 79.8614 52.7703 79.9134 52.831C79.974 52.883 80.0044 52.9523 80.0044 53.039V56.64C80.0044 57.9313 80.5677 58.577 81.6944 58.577C82.2317 58.577 82.6607 58.408 82.9814 58.07C83.3107 57.7233 83.4754 57.2467 83.4754 56.64V53.039C83.4754 52.9523 83.5014 52.883 83.5534 52.831C83.614 52.7703 83.6877 52.74 83.7744 52.74H84.4114C84.5067 52.74 84.5804 52.7703 84.6324 52.831C84.6844 52.883 84.7104 52.9523 84.7104 53.039V59.201C84.7104 59.2877 84.6844 59.3613 84.6324 59.422C84.5804 59.474 84.5067 59.5 84.4114 59.5H83.8134C83.7267 59.5 83.653 59.474 83.5924 59.422C83.5404 59.3613 83.5144 59.2877 83.5144 59.201V58.629C83.2804 58.9323 82.9944 59.175 82.6564 59.357C82.327 59.539 81.8894 59.63 81.3434 59.63ZM86.9537 59.5C86.867 59.5 86.7934 59.474 86.7327 59.422C86.6807 59.3613 86.6547 59.2877 86.6547 59.201V50.569C86.6547 50.4823 86.6807 50.413 86.7327 50.361C86.7934 50.3003 86.867 50.27 86.9537 50.27H87.5647C87.66 50.27 87.7337 50.3003 87.7857 50.361C87.8377 50.413 87.8637 50.4823 87.8637 50.569V59.201C87.8637 59.2877 87.8377 59.3613 87.7857 59.422C87.7337 59.474 87.66 59.5 87.5647 59.5H86.9537ZM92.5718 59.63C91.9132 59.63 91.3628 59.5043 90.9208 59.253C90.4788 59.0017 90.1408 58.655 89.9068 58.213C89.6728 57.7623 89.5428 57.251 89.5168 56.679C89.5082 56.5317 89.5038 56.3453 89.5038 56.12C89.5038 55.886 89.5082 55.6997 89.5168 55.561C89.5428 54.9803 89.6728 54.469 89.9068 54.027C90.1495 53.585 90.4918 53.2383 90.9338 52.987C91.3758 52.7357 91.9218 52.61 92.5718 52.61C93.2218 52.61 93.7678 52.7357 94.2098 52.987C94.6518 53.2383 94.9898 53.585 95.2238 54.027C95.4665 54.469 95.6008 54.9803 95.6268 55.561C95.6355 55.6997 95.6398 55.886 95.6398 56.12C95.6398 56.3453 95.6355 56.5317 95.6268 56.679C95.6008 57.251 95.4708 57.7623 95.2368 58.213C95.0028 58.655 94.6648 59.0017 94.2228 59.253C93.7808 59.5043 93.2305 59.63 92.5718 59.63ZM92.5718 58.629C93.1092 58.629 93.5382 58.46 93.8588 58.122C94.1795 57.7753 94.3528 57.2727 94.3788 56.614C94.3875 56.484 94.3918 56.3193 94.3918 56.12C94.3918 55.9207 94.3875 55.756 94.3788 55.626C94.3528 54.9673 94.1795 54.469 93.8588 54.131C93.5382 53.7843 93.1092 53.611 92.5718 53.611C92.0345 53.611 91.6012 53.7843 91.2718 54.131C90.9512 54.469 90.7822 54.9673 90.7648 55.626C90.7562 55.756 90.7518 55.9207 90.7518 56.12C90.7518 56.3193 90.7562 56.484 90.7648 56.614C90.7822 57.2727 90.9512 57.7753 91.2718 58.122C91.6012 58.46 92.0345 58.629 92.5718 58.629ZM52.1151 74.5C52.0197 74.5 51.9461 74.474 51.8941 74.422C51.8421 74.3613 51.8161 74.2877 51.8161 74.201V65.699C51.8161 65.6123 51.8421 65.543 51.8941 65.491C51.9461 65.4303 52.0197 65.4 52.1151 65.4H52.8041C52.8907 65.4 52.9601 65.4303 53.0121 65.491C53.0727 65.543 53.1031 65.6123 53.1031 65.699V74.201C53.1031 74.2877 53.0727 74.3613 53.0121 74.422C52.9601 74.474 52.8907 74.5 52.8041 74.5H52.1151ZM55.5007 74.5C55.4141 74.5 55.3404 74.474 55.2797 74.422C55.2277 74.3613 55.2017 74.2877 55.2017 74.201V68.039C55.2017 67.9523 55.2277 67.883 55.2797 67.831C55.3404 67.7703 55.4141 67.74 55.5007 67.74H56.1117C56.1984 67.74 56.2677 67.7703 56.3197 67.831C56.3804 67.883 56.4107 67.9523 56.4107 68.039V68.611C56.6361 68.3163 56.9177 68.078 57.2557 67.896C57.6024 67.7053 58.0444 67.61 58.5817 67.61C59.1451 67.61 59.6217 67.7357 60.0117 67.987C60.4104 68.2297 60.7094 68.572 60.9087 69.014C61.1081 69.4473 61.2077 69.9543 61.2077 70.535V74.201C61.2077 74.2877 61.1817 74.3613 61.1297 74.422C61.0777 74.474 61.0084 74.5 60.9217 74.5H60.2717C60.1851 74.5 60.1114 74.474 60.0507 74.422C59.9987 74.3613 59.9727 74.2877 59.9727 74.201V70.6C59.9727 69.9933 59.8254 69.521 59.5307 69.183C59.2361 68.8363 58.8027 68.663 58.2307 68.663C57.6934 68.663 57.2601 68.8363 56.9307 69.183C56.6101 69.521 56.4497 69.9933 56.4497 70.6V74.201C56.4497 74.2877 56.4194 74.3613 56.3587 74.422C56.3067 74.474 56.2374 74.5 56.1507 74.5H55.5007ZM65.6357 74.5C65.1503 74.5 64.756 74.409 64.4527 74.227C64.1493 74.0363 63.9283 73.772 63.7897 73.434C63.651 73.0873 63.5817 72.68 63.5817 72.212V68.78H62.5677C62.481 68.78 62.4073 68.754 62.3467 68.702C62.2947 68.6413 62.2687 68.5677 62.2687 68.481V68.039C62.2687 67.9523 62.2947 67.883 62.3467 67.831C62.4073 67.7703 62.481 67.74 62.5677 67.74H63.5817V65.569C63.5817 65.4823 63.6077 65.413 63.6597 65.361C63.7203 65.3003 63.794 65.27 63.8807 65.27H64.4917C64.5783 65.27 64.6477 65.3003 64.6997 65.361C64.7603 65.413 64.7907 65.4823 64.7907 65.569V67.74H66.4027C66.4893 67.74 66.5587 67.7703 66.6107 67.831C66.6713 67.883 66.7017 67.9523 66.7017 68.039V68.481C66.7017 68.5677 66.6713 68.6413 66.6107 68.702C66.5587 68.754 66.4893 68.78 66.4027 68.78H64.7907V72.121C64.7907 72.5283 64.86 72.849 64.9987 73.083C65.1373 73.317 65.3843 73.434 65.7397 73.434H66.5327C66.6193 73.434 66.6887 73.4643 66.7407 73.525C66.8013 73.577 66.8317 73.6463 66.8317 73.733V74.201C66.8317 74.2877 66.8013 74.3613 66.7407 74.422C66.6887 74.474 66.6193 74.5 66.5327 74.5H65.6357ZM70.7658 74.63C69.8731 74.63 69.1625 74.357 68.6338 73.811C68.1051 73.2563 67.8148 72.5023 67.7628 71.549C67.7541 71.4363 67.7498 71.2933 67.7498 71.12C67.7498 70.938 67.7541 70.7907 67.7628 70.678C67.7975 70.0627 67.9405 69.5253 68.1918 69.066C68.4431 68.598 68.7855 68.2383 69.2188 67.987C69.6608 67.7357 70.1765 67.61 70.7658 67.61C71.4245 67.61 71.9748 67.7487 72.4168 68.026C72.8675 68.3033 73.2098 68.6977 73.4438 69.209C73.6778 69.7203 73.7948 70.3183 73.7948 71.003V71.224C73.7948 71.3193 73.7645 71.393 73.7038 71.445C73.6518 71.497 73.5825 71.523 73.4958 71.523H68.9978C68.9978 71.5317 68.9978 71.549 68.9978 71.575C68.9978 71.601 68.9978 71.6227 68.9978 71.64C69.0151 71.9953 69.0931 72.329 69.2318 72.641C69.3705 72.9443 69.5698 73.1913 69.8298 73.382C70.0898 73.5727 70.4018 73.668 70.7658 73.668C71.0778 73.668 71.3378 73.6203 71.5458 73.525C71.7538 73.4297 71.9228 73.3257 72.0528 73.213C72.1828 73.0917 72.2695 73.0007 72.3128 72.94C72.3908 72.8273 72.4515 72.7623 72.4948 72.745C72.5381 72.719 72.6075 72.706 72.7028 72.706H73.3268C73.4135 72.706 73.4828 72.732 73.5348 72.784C73.5955 72.8273 73.6215 72.8923 73.6128 72.979C73.6041 73.109 73.5348 73.2693 73.4048 73.46C73.2748 73.642 73.0885 73.824 72.8458 74.006C72.6031 74.188 72.3085 74.3397 71.9618 74.461C71.6151 74.5737 71.2165 74.63 70.7658 74.63ZM68.9978 70.626H72.5598V70.587C72.5598 70.197 72.4861 69.8503 72.3388 69.547C72.2001 69.2437 71.9965 69.0053 71.7278 68.832C71.4591 68.65 71.1385 68.559 70.7658 68.559C70.3931 68.559 70.0725 68.65 69.8038 68.832C69.5438 69.0053 69.3445 69.2437 69.2058 69.547C69.0671 69.8503 68.9978 70.197 68.9978 70.587V70.626ZM78.1182 77.36C77.5289 77.36 77.0435 77.282 76.6622 77.126C76.2895 76.97 75.9949 76.7793 75.7782 76.554C75.5702 76.3373 75.4185 76.1163 75.3232 75.891C75.2365 75.6743 75.1889 75.501 75.1802 75.371C75.1715 75.2843 75.1975 75.2107 75.2582 75.15C75.3275 75.0893 75.4012 75.059 75.4792 75.059H76.1032C76.1812 75.059 76.2462 75.0763 76.2982 75.111C76.3502 75.1457 76.3935 75.2193 76.4282 75.332C76.4802 75.462 76.5582 75.605 76.6622 75.761C76.7662 75.9257 76.9265 76.0643 77.1432 76.177C77.3599 76.2983 77.6632 76.359 78.0532 76.359C78.4605 76.359 78.8029 76.3027 79.0802 76.19C79.3575 76.086 79.5655 75.8953 79.7042 75.618C79.8515 75.3493 79.9252 74.9767 79.9252 74.5V73.616C79.7172 73.8847 79.4442 74.11 79.1062 74.292C78.7682 74.4653 78.3435 74.552 77.8322 74.552C77.3469 74.552 76.9309 74.4697 76.5842 74.305C76.2375 74.1317 75.9515 73.902 75.7262 73.616C75.5095 73.3213 75.3449 72.9877 75.2322 72.615C75.1282 72.2423 75.0675 71.8523 75.0502 71.445C75.0415 71.2023 75.0415 70.964 75.0502 70.73C75.0675 70.3227 75.1282 69.9327 75.2322 69.56C75.3449 69.1873 75.5095 68.8537 75.7262 68.559C75.9515 68.2643 76.2375 68.0347 76.5842 67.87C76.9309 67.6967 77.3469 67.61 77.8322 67.61C78.3522 67.61 78.7812 67.7097 79.1192 67.909C79.4659 68.0997 79.7475 68.3337 79.9642 68.611V68.052C79.9642 67.9653 79.9902 67.8917 80.0422 67.831C80.1029 67.7703 80.1765 67.74 80.2632 67.74H80.8612C80.9479 67.74 81.0215 67.7703 81.0822 67.831C81.1429 67.8917 81.1732 67.9653 81.1732 68.052V74.357C81.1732 74.9377 81.0735 75.4533 80.8742 75.904C80.6835 76.3547 80.3629 76.71 79.9122 76.97C79.4702 77.23 78.8722 77.36 78.1182 77.36ZM78.0922 73.512C78.5255 73.512 78.8722 73.4123 79.1322 73.213C79.4009 73.0137 79.5959 72.7623 79.7172 72.459C79.8472 72.1557 79.9165 71.848 79.9252 71.536C79.9339 71.4147 79.9382 71.2673 79.9382 71.094C79.9382 70.912 79.9339 70.7603 79.9252 70.639C79.9165 70.327 79.8472 70.0193 79.7172 69.716C79.5959 69.4127 79.4009 69.1613 79.1322 68.962C78.8722 68.7627 78.5255 68.663 78.0922 68.663C77.6589 68.663 77.3122 68.7627 77.0522 68.962C76.7922 69.1527 76.6059 69.4083 76.4932 69.729C76.3805 70.041 76.3155 70.379 76.2982 70.743C76.2895 70.9683 76.2895 71.198 76.2982 71.432C76.3155 71.796 76.3805 72.1383 76.4932 72.459C76.6059 72.771 76.7922 73.0267 77.0522 73.226C77.3122 73.4167 77.6589 73.512 78.0922 73.512ZM83.405 74.5C83.3184 74.5 83.2447 74.474 83.184 74.422C83.132 74.3613 83.106 74.2877 83.106 74.201V68.052C83.106 67.9653 83.132 67.8917 83.184 67.831C83.2447 67.7703 83.3184 67.74 83.405 67.74H84.003C84.0897 67.74 84.1634 67.7703 84.224 67.831C84.2847 67.8917 84.315 67.9653 84.315 68.052V68.624C84.4884 68.3293 84.7267 68.1083 85.03 67.961C85.3334 67.8137 85.6974 67.74 86.122 67.74H86.642C86.7287 67.74 86.798 67.7703 86.85 67.831C86.902 67.883 86.928 67.9523 86.928 68.039V68.572C86.928 68.6587 86.902 68.728 86.85 68.78C86.798 68.832 86.7287 68.858 86.642 68.858H85.862C85.394 68.858 85.0257 68.9967 84.757 69.274C84.4884 69.5427 84.354 69.911 84.354 70.379V74.201C84.354 74.2877 84.3237 74.3613 84.263 74.422C84.2024 74.474 84.1287 74.5 84.042 74.5H83.405ZM89.828 74.63C89.3946 74.63 89.0003 74.5433 88.645 74.37C88.2896 74.1967 88.0036 73.9627 87.787 73.668C87.5703 73.3733 87.462 73.0397 87.462 72.667C87.462 72.069 87.7046 71.5923 88.19 71.237C88.6753 70.8817 89.308 70.6477 90.088 70.535L92.025 70.262V69.885C92.025 69.469 91.9036 69.144 91.661 68.91C91.427 68.676 91.0413 68.559 90.504 68.559C90.114 68.559 89.7976 68.637 89.555 68.793C89.321 68.949 89.1563 69.1483 89.061 69.391C89.009 69.521 88.918 69.586 88.788 69.586H88.203C88.1076 69.586 88.034 69.56 87.982 69.508C87.9386 69.4473 87.917 69.378 87.917 69.3C87.917 69.17 87.9646 69.0097 88.06 68.819C88.164 68.6283 88.32 68.442 88.528 68.26C88.736 68.078 89.0003 67.9263 89.321 67.805C89.6503 67.675 90.049 67.61 90.517 67.61C91.037 67.61 91.4746 67.6793 91.83 67.818C92.1853 67.948 92.4626 68.1257 92.662 68.351C92.87 68.5763 93.0173 68.832 93.104 69.118C93.1993 69.404 93.247 69.6943 93.247 69.989V74.201C93.247 74.2877 93.2166 74.3613 93.156 74.422C93.104 74.474 93.0346 74.5 92.948 74.5H92.35C92.2546 74.5 92.181 74.474 92.129 74.422C92.077 74.3613 92.051 74.2877 92.051 74.201V73.642C91.9383 73.798 91.7866 73.954 91.596 74.11C91.4053 74.2573 91.167 74.383 90.881 74.487C90.595 74.5823 90.244 74.63 89.828 74.63ZM90.101 73.655C90.4563 73.655 90.7813 73.5813 91.076 73.434C91.3706 73.278 91.6003 73.0397 91.765 72.719C91.9383 72.3983 92.025 71.9953 92.025 71.51V71.146L90.517 71.367C89.9016 71.4537 89.438 71.601 89.126 71.809C88.814 72.0083 88.658 72.264 88.658 72.576C88.658 72.8187 88.7273 73.0223 88.866 73.187C89.0133 73.343 89.1953 73.46 89.412 73.538C89.6373 73.616 89.867 73.655 90.101 73.655ZM95.4278 74.5C95.3411 74.5 95.2675 74.474 95.2068 74.422C95.1548 74.3613 95.1288 74.2877 95.1288 74.201V65.569C95.1288 65.4823 95.1548 65.413 95.2068 65.361C95.2675 65.3003 95.3411 65.27 95.4278 65.27H96.0388C96.1341 65.27 96.2078 65.3003 96.2598 65.361C96.3118 65.413 96.3378 65.4823 96.3378 65.569V74.201C96.3378 74.2877 96.3118 74.3613 96.2598 74.422C96.2078 74.474 96.1341 74.5 96.0388 74.5H95.4278Z" fill="#171B22"/>
<rect x="55.5" y="81.5" width="37" height="25" rx="12.5" fill="#017974"/>
<path d="M68.3417 98.64C67.6697 98.64 67.0864 98.5467 66.5917 98.36C66.097 98.164 65.6864 97.898 65.3597 97.562C65.0424 97.226 64.7997 96.834 64.6317 96.386C64.4637 95.938 64.3657 95.4573 64.3377 94.944C64.3284 94.692 64.319 94.4073 64.3097 94.09C64.3097 93.7633 64.3097 93.4367 64.3097 93.11C64.319 92.774 64.3284 92.4753 64.3377 92.214C64.3657 91.7007 64.4637 91.2247 64.6317 90.786C64.809 90.338 65.061 89.9507 65.3877 89.624C65.7237 89.288 66.1344 89.0267 66.6197 88.84C67.1144 88.6533 67.6884 88.56 68.3417 88.56C69.0044 88.56 69.5784 88.6533 70.0637 88.84C70.549 89.0267 70.955 89.288 71.2817 89.624C71.6177 89.9507 71.8744 90.338 72.0517 90.786C72.229 91.2247 72.327 91.7007 72.3457 92.214C72.3644 92.4753 72.3737 92.774 72.3737 93.11C72.383 93.4367 72.383 93.7633 72.3737 94.09C72.3737 94.4073 72.3644 94.692 72.3457 94.944C72.327 95.4573 72.229 95.938 72.0517 96.386C71.8837 96.834 71.6364 97.226 71.3097 97.562C70.9924 97.898 70.5864 98.164 70.0917 98.36C69.6064 98.5467 69.023 98.64 68.3417 98.64ZM68.3417 96.61C68.827 96.61 69.177 96.456 69.3917 96.148C69.6157 95.8307 69.7324 95.406 69.7417 94.874C69.7604 94.6033 69.7697 94.3187 69.7697 94.02C69.779 93.7213 69.779 93.4227 69.7697 93.124C69.7697 92.8253 69.7604 92.55 69.7417 92.298C69.7324 91.7847 69.6157 91.3693 69.3917 91.052C69.177 90.7347 68.827 90.5713 68.3417 90.562C67.8564 90.5713 67.5064 90.7347 67.2917 91.052C67.077 91.3693 66.9604 91.7847 66.9417 92.298C66.9324 92.55 66.923 92.8253 66.9137 93.124C66.9137 93.4227 66.9137 93.7213 66.9137 94.02C66.923 94.3187 66.9324 94.6033 66.9417 94.874C66.9604 95.406 67.0817 95.8307 67.3057 96.148C67.5297 96.456 67.875 96.61 68.3417 96.61ZM74.6793 98.5C74.4647 98.5 74.3573 98.4067 74.3573 98.22C74.3573 98.164 74.376 98.1127 74.4133 98.066L81.3293 88.966C81.3947 88.882 81.46 88.8167 81.5253 88.77C81.5907 88.7233 81.6887 88.7 81.8193 88.7H82.8133C83.028 88.7 83.1353 88.7933 83.1353 88.98C83.1353 89.036 83.1167 89.0873 83.0793 89.134L76.1633 98.234C76.098 98.318 76.0327 98.3833 75.9673 98.43C75.902 98.4767 75.804 98.5 75.6733 98.5H74.6793ZM81.7213 98.57C81.0867 98.57 80.578 98.402 80.1953 98.066C79.822 97.73 79.612 97.282 79.5653 96.722C79.556 96.4793 79.5513 96.2647 79.5513 96.078C79.5513 95.8913 79.556 95.6673 79.5653 95.406C79.6027 94.8367 79.8033 94.384 80.1673 94.048C80.5407 93.7027 81.0587 93.53 81.7213 93.53C82.3933 93.53 82.9113 93.7027 83.2753 94.048C83.6393 94.384 83.84 94.8367 83.8773 95.406C83.896 95.6673 83.9053 95.8913 83.9053 96.078C83.9053 96.2647 83.896 96.4793 83.8773 96.722C83.84 97.282 83.63 97.73 83.2473 98.066C82.8647 98.402 82.356 98.57 81.7213 98.57ZM81.7213 97.338C81.88 97.338 82.0013 97.3053 82.0853 97.24C82.1787 97.1747 82.2487 97.0907 82.2953 96.988C82.342 96.876 82.3653 96.7593 82.3653 96.638C82.384 96.4233 82.3933 96.2273 82.3933 96.05C82.3933 95.8727 82.384 95.6813 82.3653 95.476C82.356 95.2987 82.3047 95.14 82.2113 95C82.118 94.8507 81.9547 94.776 81.7213 94.776C81.488 94.776 81.3247 94.8507 81.2313 95C81.138 95.14 81.0867 95.2987 81.0773 95.476C81.068 95.6813 81.0633 95.8727 81.0633 96.05C81.0633 96.2273 81.068 96.4233 81.0773 96.638C81.0867 96.7593 81.11 96.876 81.1473 96.988C81.194 97.0907 81.264 97.1747 81.3573 97.24C81.4507 97.3053 81.572 97.338 81.7213 97.338ZM75.7993 93.642C75.1553 93.642 74.642 93.4787 74.2593 93.152C73.886 92.816 73.6807 92.368 73.6433 91.808C73.6247 91.5653 73.6153 91.3553 73.6153 91.178C73.6247 90.9913 73.634 90.7673 73.6433 90.506C73.6713 89.9367 73.8673 89.484 74.2313 89.148C74.6047 88.8027 75.1273 88.63 75.7993 88.63C76.4713 88.63 76.9893 88.8027 77.3533 89.148C77.7173 89.484 77.9133 89.9367 77.9413 90.506C77.96 90.7673 77.9693 90.9913 77.9693 91.178C77.9693 91.3553 77.96 91.5653 77.9413 91.808C77.9133 92.368 77.708 92.816 77.3253 93.152C76.9427 93.4787 76.434 93.642 75.7993 93.642ZM75.7993 92.438C75.9487 92.438 76.07 92.4053 76.1633 92.34C76.2567 92.2653 76.3267 92.1767 76.3733 92.074C76.42 91.962 76.4433 91.85 76.4433 91.738C76.462 91.5233 76.4713 91.3273 76.4713 91.15C76.4713 90.9727 76.462 90.7813 76.4433 90.576C76.434 90.3987 76.378 90.24 76.2753 90.1C76.182 89.9507 76.0233 89.876 75.7993 89.876C75.566 89.876 75.398 89.9507 75.2953 90.1C75.202 90.24 75.1507 90.3987 75.1413 90.576C75.132 90.7813 75.1273 90.9727 75.1273 91.15C75.1273 91.3273 75.132 91.5233 75.1413 91.738C75.1507 91.85 75.174 91.962 75.2113 92.074C75.258 92.1767 75.328 92.2653 75.4213 92.34C75.5147 92.4053 75.6407 92.438 75.7993 92.438Z" fill="white"/>
<g filter="url(#filter0_d_15958_19585)">
<rect x="103" y="14" width="32" height="32" rx="16" fill="white"/>
<rect x="102" y="13" width="34" height="34" rx="17" stroke="#1DA534" stroke-width="2"/>
<path opacity="0.4" d="M118.999 32.8398C119.485 32.8398 119.879 33.2338 119.879 33.7197C119.879 34.2057 119.485 34.5996 118.999 34.5996C118.513 34.5995 118.119 34.2057 118.119 33.7197C118.119 33.2338 118.513 32.8399 118.999 32.8398Z" fill="#1DA534" stroke="#1DA534" stroke-width="1.5"/>
<path d="M114.35 28.1899H123.65C125.674 28.19 126.735 28.5109 127.332 29.1079C127.929 29.7049 128.25 30.7662 128.25 32.7896V34.6499C128.25 36.6735 127.929 37.7355 127.332 38.3325C126.735 38.9294 125.673 39.2495 123.65 39.2495H114.35C112.327 39.2495 111.265 38.9294 110.668 38.3325C110.071 37.7355 109.75 36.6735 109.75 34.6499V32.7896C109.75 30.7662 110.071 29.7049 110.668 29.1079C111.265 28.5109 112.326 28.19 114.35 28.1899ZM119 29.9497C116.914 29.9497 115.23 31.6476 115.23 33.7202C115.231 35.7927 116.914 37.4897 119 37.4897C121.086 37.4897 122.769 35.7927 122.77 33.7202C122.77 31.6476 121.086 29.9497 119 29.9497Z" fill="#1DA534" stroke="#1DA534" stroke-width="1.5"/>
<g opacity="0.4">
<mask id="path-11-inside-1_15958_19585" fill="white">
<path d="M114.121 27.45V26.28C114.121 23.35 114.951 21.4 119.001 21.4C123.051 21.4 123.881 23.35 123.881 26.28V27.45C124.391 27.46 124.851 27.48 125.281 27.54V26.28C125.281 23.58 124.631 20 119.001 20C113.371 20 112.721 23.58 112.721 26.28V27.53C113.141 27.48 113.611 27.45 114.121 27.45Z"/>
</mask>
<path d="M114.121 27.45V26.28C114.121 23.35 114.951 21.4 119.001 21.4C123.051 21.4 123.881 23.35 123.881 26.28V27.45C124.391 27.46 124.851 27.48 125.281 27.54V26.28C125.281 23.58 124.631 20 119.001 20C113.371 20 112.721 23.58 112.721 26.28V27.53C113.141 27.48 113.611 27.45 114.121 27.45Z" fill="#1DA534"/>
<path d="M114.121 27.45V28.95H115.621V27.45H114.121ZM123.881 27.45H122.381V28.9209L123.851 28.9497L123.881 27.45ZM125.281 27.54L125.073 29.0256L126.781 29.2638V27.54H125.281ZM125.281 26.28H123.781H125.281ZM112.721 27.53H111.221V29.2192L112.898 29.0195L112.721 27.53ZM114.121 27.45H115.621V26.28H114.121H112.621V27.45H114.121ZM114.121 26.28H115.621C115.621 24.8831 115.837 24.1294 116.193 23.7033C116.498 23.3385 117.182 22.9 119.001 22.9V21.4V19.9C116.769 19.9 115.014 20.4365 113.891 21.7792C112.82 23.0606 112.621 24.7469 112.621 26.28H114.121ZM119.001 21.4V22.9C120.819 22.9 121.504 23.3385 121.809 23.7033C122.165 24.1294 122.381 24.8831 122.381 26.28H123.881H125.381C125.381 24.7469 125.182 23.0606 124.11 21.7792C122.988 20.4365 121.232 19.9 119.001 19.9V21.4ZM123.881 26.28H122.381V27.45H123.881H125.381V26.28H123.881ZM123.881 27.45L123.851 28.9497C124.349 28.9595 124.735 28.9785 125.073 29.0256L125.281 27.54L125.488 26.0544C124.966 25.9815 124.433 25.9605 123.91 25.9503L123.881 27.45ZM125.281 27.54H126.781V26.28H125.281H123.781V27.54H125.281ZM125.281 26.28H126.781C126.781 24.8668 126.625 22.8955 125.479 21.265C124.257 19.5254 122.156 18.5 119.001 18.5V20V21.5C121.475 21.5 122.515 22.2646 123.025 22.99C123.611 23.8245 123.781 24.9932 123.781 26.28H125.281ZM119.001 20V18.5C115.845 18.5 113.745 19.5254 112.522 21.265C111.376 22.8955 111.221 24.8668 111.221 26.28H112.721H114.221C114.221 24.9932 114.39 23.8245 114.977 22.99C115.487 22.2646 116.526 21.5 119.001 21.5V20ZM112.721 26.28H111.221V27.53H112.721H114.221V26.28H112.721ZM112.721 27.53L112.898 29.0195C113.258 28.9766 113.669 28.95 114.121 28.95V27.45V25.95C113.552 25.95 113.023 25.9834 112.543 26.0405L112.721 27.53Z" fill="#1DA534" mask="url(#path-11-inside-1_15958_19585)"/>
</g>
</g>
</g>
<defs>
<filter id="filter0_d_15958_19585" x="86" y="5" width="66" height="66" filterUnits="userSpaceOnUse" color-interpolation-filters="sRGB">
<feFlood flood-opacity="0" result="BackgroundImageFix"/>
<feColorMatrix in="SourceAlpha" type="matrix" values="0 0 0 0 0 0 0 0 0 0 0 0 0 0 0 0 0 0 127 0" result="hardAlpha"/>
<feOffset dy="8"/>
<feGaussianBlur stdDeviation="7.5"/>
<feColorMatrix type="matrix" values="0 0 0 0 0 0 0 0 0 0 0 0 0 0 0 0 0 0 0.25 0"/>
<feBlend mode="normal" in2="BackgroundImageFix" result="effect1_dropShadow_15958_19585"/>
<feBlend mode="normal" in="SourceGraphic" in2="effect1_dropShadow_15958_19585" result="shape"/>
</filter>
<clipPath id="clip0_15958_19585">
<rect width="26.6472" height="26.6667" fill="white" transform="translate(60.6758 14.1665)"/>
</clipPath>
</defs>
</svg>
