<svg width="351" height="118" viewBox="0 0 351 118" fill="none" xmlns="http://www.w3.org/2000/svg">
<g style="mix-blend-mode:luminosity">
<rect x="198" y="2" width="114" height="114" rx="57" fill="white"/>
<rect x="198" y="2" width="114" height="114" rx="57" stroke="#DEE2E6" stroke-width="4"/>
<g clip-path="url(#clip0_15958_19577)">
<mask id="mask0_15958_19577" style="mask-type:luminance" maskUnits="userSpaceOnUse" x="239" y="19" width="32" height="32">
<path d="M271 19H239V51H271V19Z" fill="white"/>
</mask>
<g mask="url(#mask0_15958_19577)">
<path opacity="0.4" d="M261.879 40.2802C261.786 40.3736 261.693 40.4536 261.613 40.5469C252.719 49.1736 239.479 35.9336 248.106 27.0403C248.199 26.947 248.279 26.867 248.373 26.7736C253.973 21.1736 265.266 23.4003 265.266 23.4003C265.266 23.4003 267.479 34.6802 261.879 40.2802Z" fill="#1DA534"/>
<path d="M254.973 33.6665C244.48 39.7332 244.307 47.0532 244.307 47.0532L254.973 33.6665Z" fill="#1DA534"/>
<path d="M254.973 33.6665C244.48 39.7332 244.307 47.0532 244.307 47.0532" stroke="#1DA534" stroke-width="1.5" stroke-miterlimit="10" stroke-linecap="round"/>
</g>
</g>
<path d="M232.43 67C232.334 67 232.261 66.974 232.209 66.922C232.157 66.8613 232.131 66.7877 232.131 66.701V58.212C232.131 58.1167 232.157 58.043 232.209 57.991C232.261 57.9303 232.334 57.9 232.43 57.9H235.992C236.642 57.9 237.17 58.0083 237.578 58.225C237.994 58.433 238.297 58.719 238.488 59.083C238.687 59.447 238.787 59.8543 238.787 60.305C238.787 60.6603 238.726 60.968 238.605 61.228C238.492 61.4793 238.349 61.6873 238.176 61.852C238.002 62.008 237.833 62.1293 237.669 62.216C238.007 62.3807 238.306 62.6493 238.566 63.022C238.834 63.3947 238.969 63.8453 238.969 64.374C238.969 64.8507 238.86 65.2883 238.644 65.687C238.427 66.0857 238.102 66.4063 237.669 66.649C237.244 66.883 236.715 67 236.083 67H232.43ZM233.405 65.947H235.914C236.477 65.947 236.91 65.7953 237.214 65.492C237.517 65.1887 237.669 64.816 237.669 64.374C237.669 63.9147 237.517 63.5377 237.214 63.243C236.91 62.9397 236.477 62.788 235.914 62.788H233.405V65.947ZM233.405 61.748H235.797C236.351 61.748 236.772 61.6223 237.058 61.371C237.344 61.111 237.487 60.76 237.487 60.318C237.487 59.876 237.344 59.538 237.058 59.304C236.772 59.07 236.351 58.953 235.797 58.953H233.405V61.748ZM240.944 67C240.857 67 240.784 66.974 240.723 66.922C240.671 66.8613 240.645 66.7877 240.645 66.701V60.539C240.645 60.4523 240.671 60.383 240.723 60.331C240.784 60.2703 240.857 60.24 240.944 60.24H241.568C241.655 60.24 241.724 60.2703 241.776 60.331C241.828 60.383 241.854 60.4523 241.854 60.539V66.701C241.854 66.7877 241.828 66.8613 241.776 66.922C241.724 66.974 241.655 67 241.568 67H240.944ZM240.84 58.979C240.753 58.979 240.68 58.953 240.619 58.901C240.567 58.8403 240.541 58.7667 240.541 58.68V57.978C240.541 57.8913 240.567 57.822 240.619 57.77C240.68 57.7093 240.753 57.679 240.84 57.679H241.659C241.746 57.679 241.815 57.7093 241.867 57.77C241.928 57.822 241.958 57.8913 241.958 57.978V58.68C241.958 58.7667 241.928 58.8403 241.867 58.901C241.815 58.953 241.746 58.979 241.659 58.979H240.84ZM246.563 67.13C245.904 67.13 245.354 67.0043 244.912 66.753C244.47 66.5017 244.132 66.155 243.898 65.713C243.664 65.2623 243.534 64.751 243.508 64.179C243.499 64.0317 243.495 63.8453 243.495 63.62C243.495 63.386 243.499 63.1997 243.508 63.061C243.534 62.4803 243.664 61.969 243.898 61.527C244.14 61.085 244.483 60.7383 244.925 60.487C245.367 60.2357 245.913 60.11 246.563 60.11C247.213 60.11 247.759 60.2357 248.201 60.487C248.643 60.7383 248.981 61.085 249.215 61.527C249.457 61.969 249.592 62.4803 249.618 63.061C249.626 63.1997 249.631 63.386 249.631 63.62C249.631 63.8453 249.626 64.0317 249.618 64.179C249.592 64.751 249.462 65.2623 249.228 65.713C248.994 66.155 248.656 66.5017 248.214 66.753C247.772 67.0043 247.221 67.13 246.563 67.13ZM246.563 66.129C247.1 66.129 247.529 65.96 247.85 65.622C248.17 65.2753 248.344 64.7727 248.37 64.114C248.378 63.984 248.383 63.8193 248.383 63.62C248.383 63.4207 248.378 63.256 248.37 63.126C248.344 62.4673 248.17 61.969 247.85 61.631C247.529 61.2843 247.1 61.111 246.563 61.111C246.025 61.111 245.592 61.2843 245.263 61.631C244.942 61.969 244.773 62.4673 244.756 63.126C244.747 63.256 244.743 63.4207 244.743 63.62C244.743 63.8193 244.747 63.984 244.756 64.114C244.773 64.7727 244.942 65.2753 245.263 65.622C245.592 65.96 246.025 66.129 246.563 66.129ZM251.57 67C251.484 67 251.41 66.974 251.349 66.922C251.297 66.8613 251.271 66.7877 251.271 66.701V58.069C251.271 57.9823 251.297 57.913 251.349 57.861C251.41 57.8003 251.484 57.77 251.57 57.77H252.181C252.277 57.77 252.35 57.8003 252.402 57.861C252.454 57.913 252.48 57.9823 252.48 58.069V66.701C252.48 66.7877 252.454 66.8613 252.402 66.922C252.35 66.974 252.277 67 252.181 67H251.57ZM257.189 67.13C256.53 67.13 255.98 67.0043 255.538 66.753C255.096 66.5017 254.758 66.155 254.524 65.713C254.29 65.2623 254.16 64.751 254.134 64.179C254.125 64.0317 254.121 63.8453 254.121 63.62C254.121 63.386 254.125 63.1997 254.134 63.061C254.16 62.4803 254.29 61.969 254.524 61.527C254.766 61.085 255.109 60.7383 255.551 60.487C255.993 60.2357 256.539 60.11 257.189 60.11C257.839 60.11 258.385 60.2357 258.827 60.487C259.269 60.7383 259.607 61.085 259.841 61.527C260.083 61.969 260.218 62.4803 260.244 63.061C260.252 63.1997 260.257 63.386 260.257 63.62C260.257 63.8453 260.252 64.0317 260.244 64.179C260.218 64.751 260.088 65.2623 259.854 65.713C259.62 66.155 259.282 66.5017 258.84 66.753C258.398 67.0043 257.847 67.13 257.189 67.13ZM257.189 66.129C257.726 66.129 258.155 65.96 258.476 65.622C258.796 65.2753 258.97 64.7727 258.996 64.114C259.004 63.984 259.009 63.8193 259.009 63.62C259.009 63.4207 259.004 63.256 258.996 63.126C258.97 62.4673 258.796 61.969 258.476 61.631C258.155 61.2843 257.726 61.111 257.189 61.111C256.651 61.111 256.218 61.2843 255.889 61.631C255.568 61.969 255.399 62.4673 255.382 63.126C255.373 63.256 255.369 63.4207 255.369 63.62C255.369 63.8193 255.373 63.984 255.382 64.114C255.399 64.7727 255.568 65.2753 255.889 65.622C256.218 65.96 256.651 66.129 257.189 66.129ZM264.653 69.86C264.064 69.86 263.579 69.782 263.197 69.626C262.825 69.47 262.53 69.2793 262.313 69.054C262.105 68.8373 261.954 68.6163 261.858 68.391C261.772 68.1743 261.724 68.001 261.715 67.871C261.707 67.7843 261.733 67.7107 261.793 67.65C261.863 67.5893 261.936 67.559 262.014 67.559H262.638C262.716 67.559 262.781 67.5763 262.833 67.611C262.885 67.6457 262.929 67.7193 262.963 67.832C263.015 67.962 263.093 68.105 263.197 68.261C263.301 68.4257 263.462 68.5643 263.678 68.677C263.895 68.7983 264.198 68.859 264.588 68.859C264.996 68.859 265.338 68.8027 265.615 68.69C265.893 68.586 266.101 68.3953 266.239 68.118C266.387 67.8493 266.46 67.4767 266.46 67V66.116C266.252 66.3847 265.979 66.61 265.641 66.792C265.303 66.9653 264.879 67.052 264.367 67.052C263.882 67.052 263.466 66.9697 263.119 66.805C262.773 66.6317 262.487 66.402 262.261 66.116C262.045 65.8213 261.88 65.4877 261.767 65.115C261.663 64.7423 261.603 64.3523 261.585 63.945C261.577 63.7023 261.577 63.464 261.585 63.23C261.603 62.8227 261.663 62.4327 261.767 62.06C261.88 61.6873 262.045 61.3537 262.261 61.059C262.487 60.7643 262.773 60.5347 263.119 60.37C263.466 60.1967 263.882 60.11 264.367 60.11C264.887 60.11 265.316 60.2097 265.654 60.409C266.001 60.5997 266.283 60.8337 266.499 61.111V60.552C266.499 60.4653 266.525 60.3917 266.577 60.331C266.638 60.2703 266.712 60.24 266.798 60.24H267.396C267.483 60.24 267.557 60.2703 267.617 60.331C267.678 60.3917 267.708 60.4653 267.708 60.552V66.857C267.708 67.4377 267.609 67.9533 267.409 68.404C267.219 68.8547 266.898 69.21 266.447 69.47C266.005 69.73 265.407 69.86 264.653 69.86ZM264.627 66.012C265.061 66.012 265.407 65.9123 265.667 65.713C265.936 65.5137 266.131 65.2623 266.252 64.959C266.382 64.6557 266.452 64.348 266.46 64.036C266.469 63.9147 266.473 63.7673 266.473 63.594C266.473 63.412 266.469 63.2603 266.46 63.139C266.452 62.827 266.382 62.5193 266.252 62.216C266.131 61.9127 265.936 61.6613 265.667 61.462C265.407 61.2627 265.061 61.163 264.627 61.163C264.194 61.163 263.847 61.2627 263.587 61.462C263.327 61.6527 263.141 61.9083 263.028 62.229C262.916 62.541 262.851 62.879 262.833 63.243C262.825 63.4683 262.825 63.698 262.833 63.932C262.851 64.296 262.916 64.6383 263.028 64.959C263.141 65.271 263.327 65.5267 263.587 65.726C263.847 65.9167 264.194 66.012 264.627 66.012ZM269.94 67C269.854 67 269.78 66.974 269.719 66.922C269.667 66.8613 269.641 66.7877 269.641 66.701V60.539C269.641 60.4523 269.667 60.383 269.719 60.331C269.78 60.2703 269.854 60.24 269.94 60.24H270.564C270.651 60.24 270.72 60.2703 270.772 60.331C270.824 60.383 270.85 60.4523 270.85 60.539V66.701C270.85 66.7877 270.824 66.8613 270.772 66.922C270.72 66.974 270.651 67 270.564 67H269.94ZM269.901 59.265C269.763 59.265 269.693 59.1957 269.693 59.057C269.693 58.9877 269.715 58.9313 269.758 58.888L270.733 57.718C270.811 57.6227 270.881 57.562 270.941 57.536C271.002 57.5013 271.093 57.484 271.214 57.484H272.098C272.263 57.484 272.345 57.5663 272.345 57.731C272.345 57.7917 272.324 57.8437 272.28 57.887L270.772 59.122C270.703 59.1827 270.638 59.2217 270.577 59.239C270.517 59.2563 270.439 59.265 270.343 59.265H269.901ZM274.675 67.13C274.241 67.13 273.847 67.0433 273.492 66.87C273.136 66.6967 272.85 66.4627 272.634 66.168C272.417 65.8733 272.309 65.5397 272.309 65.167C272.309 64.569 272.551 64.0923 273.037 63.737C273.522 63.3817 274.155 63.1477 274.935 63.035L276.872 62.762V62.385C276.872 61.969 276.75 61.644 276.508 61.41C276.274 61.176 275.888 61.059 275.351 61.059C274.961 61.059 274.644 61.137 274.402 61.293C274.168 61.449 274.003 61.6483 273.908 61.891C273.856 62.021 273.765 62.086 273.635 62.086H273.05C272.954 62.086 272.881 62.06 272.829 62.008C272.785 61.9473 272.764 61.878 272.764 61.8C272.764 61.67 272.811 61.5097 272.907 61.319C273.011 61.1283 273.167 60.942 273.375 60.76C273.583 60.578 273.847 60.4263 274.168 60.305C274.497 60.175 274.896 60.11 275.364 60.11C275.884 60.11 276.321 60.1793 276.677 60.318C277.032 60.448 277.309 60.6257 277.509 60.851C277.717 61.0763 277.864 61.332 277.951 61.618C278.046 61.904 278.094 62.1943 278.094 62.489V66.701C278.094 66.7877 278.063 66.8613 278.003 66.922C277.951 66.974 277.881 67 277.795 67H277.197C277.101 67 277.028 66.974 276.976 66.922C276.924 66.8613 276.898 66.7877 276.898 66.701V66.142C276.785 66.298 276.633 66.454 276.443 66.61C276.252 66.7573 276.014 66.883 275.728 66.987C275.442 67.0823 275.091 67.13 274.675 67.13ZM274.948 66.155C275.303 66.155 275.628 66.0813 275.923 65.934C276.217 65.778 276.447 65.5397 276.612 65.219C276.785 64.8983 276.872 64.4953 276.872 64.01V63.646L275.364 63.867C274.748 63.9537 274.285 64.101 273.973 64.309C273.661 64.5083 273.505 64.764 273.505 65.076C273.505 65.3187 273.574 65.5223 273.713 65.687C273.86 65.843 274.042 65.96 274.259 66.038C274.484 66.116 274.714 66.155 274.948 66.155Z" fill="#171B22"/>
<rect x="236.5" y="74" width="37" height="25" rx="12.5" fill="#1DA534"/>
<path d="M249.342 91.14C248.67 91.14 248.086 91.0467 247.592 90.86C247.097 90.664 246.686 90.398 246.36 90.062C246.042 89.726 245.8 89.334 245.632 88.886C245.464 88.438 245.366 87.9573 245.338 87.444C245.328 87.192 245.319 86.9073 245.31 86.59C245.31 86.2633 245.31 85.9367 245.31 85.61C245.319 85.274 245.328 84.9753 245.338 84.714C245.366 84.2007 245.464 83.7247 245.632 83.286C245.809 82.838 246.061 82.4507 246.388 82.124C246.724 81.788 247.134 81.5267 247.62 81.34C248.114 81.1533 248.688 81.06 249.342 81.06C250.004 81.06 250.578 81.1533 251.064 81.34C251.549 81.5267 251.955 81.788 252.282 82.124C252.618 82.4507 252.874 82.838 253.052 83.286C253.229 83.7247 253.327 84.2007 253.346 84.714C253.364 84.9753 253.374 85.274 253.374 85.61C253.383 85.9367 253.383 86.2633 253.374 86.59C253.374 86.9073 253.364 87.192 253.346 87.444C253.327 87.9573 253.229 88.438 253.052 88.886C252.884 89.334 252.636 89.726 252.31 90.062C251.992 90.398 251.586 90.664 251.092 90.86C250.606 91.0467 250.023 91.14 249.342 91.14ZM249.342 89.11C249.827 89.11 250.177 88.956 250.392 88.648C250.616 88.3307 250.732 87.906 250.742 87.374C250.76 87.1033 250.77 86.8187 250.77 86.52C250.779 86.2213 250.779 85.9227 250.77 85.624C250.77 85.3253 250.76 85.05 250.742 84.798C250.732 84.2847 250.616 83.8693 250.392 83.552C250.177 83.2347 249.827 83.0713 249.342 83.062C248.856 83.0713 248.506 83.2347 248.292 83.552C248.077 83.8693 247.96 84.2847 247.942 84.798C247.932 85.05 247.923 85.3253 247.914 85.624C247.914 85.9227 247.914 86.2213 247.914 86.52C247.923 86.8187 247.932 87.1033 247.942 87.374C247.96 87.906 248.082 88.3307 248.306 88.648C248.53 88.956 248.875 89.11 249.342 89.11ZM255.679 91C255.465 91 255.357 90.9067 255.357 90.72C255.357 90.664 255.376 90.6127 255.413 90.566L262.329 81.466C262.395 81.382 262.46 81.3167 262.525 81.27C262.591 81.2233 262.689 81.2 262.819 81.2H263.813C264.028 81.2 264.135 81.2933 264.135 81.48C264.135 81.536 264.117 81.5873 264.079 81.634L257.163 90.734C257.098 90.818 257.033 90.8833 256.967 90.93C256.902 90.9767 256.804 91 256.673 91H255.679ZM262.721 91.07C262.087 91.07 261.578 90.902 261.195 90.566C260.822 90.23 260.612 89.782 260.565 89.222C260.556 88.9793 260.551 88.7647 260.551 88.578C260.551 88.3913 260.556 88.1673 260.565 87.906C260.603 87.3367 260.803 86.884 261.167 86.548C261.541 86.2027 262.059 86.03 262.721 86.03C263.393 86.03 263.911 86.2027 264.275 86.548C264.639 86.884 264.84 87.3367 264.877 87.906C264.896 88.1673 264.905 88.3913 264.905 88.578C264.905 88.7647 264.896 88.9793 264.877 89.222C264.84 89.782 264.63 90.23 264.247 90.566C263.865 90.902 263.356 91.07 262.721 91.07ZM262.721 89.838C262.88 89.838 263.001 89.8053 263.085 89.74C263.179 89.6747 263.249 89.5907 263.295 89.488C263.342 89.376 263.365 89.2593 263.365 89.138C263.384 88.9233 263.393 88.7273 263.393 88.55C263.393 88.3727 263.384 88.1813 263.365 87.976C263.356 87.7987 263.305 87.64 263.211 87.5C263.118 87.3507 262.955 87.276 262.721 87.276C262.488 87.276 262.325 87.3507 262.231 87.5C262.138 87.64 262.087 87.7987 262.077 87.976C262.068 88.1813 262.063 88.3727 262.063 88.55C262.063 88.7273 262.068 88.9233 262.077 89.138C262.087 89.2593 262.11 89.376 262.147 89.488C262.194 89.5907 262.264 89.6747 262.357 89.74C262.451 89.8053 262.572 89.838 262.721 89.838ZM256.799 86.142C256.155 86.142 255.642 85.9787 255.259 85.652C254.886 85.316 254.681 84.868 254.643 84.308C254.625 84.0653 254.615 83.8553 254.615 83.678C254.625 83.4913 254.634 83.2673 254.643 83.006C254.671 82.4367 254.867 81.984 255.231 81.648C255.605 81.3027 256.127 81.13 256.799 81.13C257.471 81.13 257.989 81.3027 258.353 81.648C258.717 81.984 258.913 82.4367 258.941 83.006C258.96 83.2673 258.969 83.4913 258.969 83.678C258.969 83.8553 258.96 84.0653 258.941 84.308C258.913 84.868 258.708 85.316 258.325 85.652C257.943 85.9787 257.434 86.142 256.799 86.142ZM256.799 84.938C256.949 84.938 257.07 84.9053 257.163 84.84C257.257 84.7653 257.327 84.6767 257.373 84.574C257.42 84.462 257.443 84.35 257.443 84.238C257.462 84.0233 257.471 83.8273 257.471 83.65C257.471 83.4727 257.462 83.2813 257.443 83.076C257.434 82.8987 257.378 82.74 257.275 82.6C257.182 82.4507 257.023 82.376 256.799 82.376C256.566 82.376 256.398 82.4507 256.295 82.6C256.202 82.74 256.151 82.8987 256.141 83.076C256.132 83.2813 256.127 83.4727 256.127 83.65C256.127 83.8273 256.132 84.0233 256.141 84.238C256.151 84.35 256.174 84.462 256.211 84.574C256.258 84.6767 256.328 84.7653 256.421 84.84C256.515 84.9053 256.641 84.938 256.799 84.938Z" fill="white"/>
<g filter="url(#filter0_d_15958_19577)">
<rect x="284" y="14" width="32" height="32" rx="16" fill="white"/>
<rect x="283" y="13" width="34" height="34" rx="17" stroke="#1DA534" stroke-width="2"/>
<path opacity="0.4" d="M299.999 32.8398C300.485 32.8398 300.879 33.2338 300.879 33.7197C300.879 34.2057 300.485 34.5996 299.999 34.5996C299.513 34.5995 299.119 34.2057 299.119 33.7197C299.119 33.2338 299.513 32.8399 299.999 32.8398Z" fill="#1DA534" stroke="#1DA534" stroke-width="1.5"/>
<path d="M295.35 28.1899H304.65C306.674 28.19 307.735 28.5109 308.332 29.1079C308.929 29.7049 309.25 30.7662 309.25 32.7896V34.6499C309.25 36.6735 308.929 37.7355 308.332 38.3325C307.735 38.9294 306.673 39.2495 304.65 39.2495H295.35C293.327 39.2495 292.265 38.9294 291.668 38.3325C291.071 37.7355 290.75 36.6735 290.75 34.6499V32.7896C290.75 30.7662 291.071 29.7049 291.668 29.1079C292.265 28.5109 293.326 28.19 295.35 28.1899ZM300 29.9497C297.914 29.9497 296.23 31.6476 296.23 33.7202C296.231 35.7927 297.914 37.4897 300 37.4897C302.086 37.4897 303.769 35.7927 303.77 33.7202C303.77 31.6476 302.086 29.9497 300 29.9497Z" fill="#1DA534" stroke="#1DA534" stroke-width="1.5"/>
<g opacity="0.4">
<mask id="path-13-inside-1_15958_19577" fill="white">
<path d="M295.121 27.45V26.28C295.121 23.35 295.951 21.4 300.001 21.4C304.051 21.4 304.881 23.35 304.881 26.28V27.45C305.391 27.46 305.851 27.48 306.281 27.54V26.28C306.281 23.58 305.631 20 300.001 20C294.371 20 293.721 23.58 293.721 26.28V27.53C294.141 27.48 294.611 27.45 295.121 27.45Z"/>
</mask>
<path d="M295.121 27.45V26.28C295.121 23.35 295.951 21.4 300.001 21.4C304.051 21.4 304.881 23.35 304.881 26.28V27.45C305.391 27.46 305.851 27.48 306.281 27.54V26.28C306.281 23.58 305.631 20 300.001 20C294.371 20 293.721 23.58 293.721 26.28V27.53C294.141 27.48 294.611 27.45 295.121 27.45Z" fill="#1DA534"/>
<path d="M295.121 27.45V28.95H296.621V27.45H295.121ZM304.881 27.45H303.381V28.9209L304.851 28.9497L304.881 27.45ZM306.281 27.54L306.073 29.0256L307.781 29.2638V27.54H306.281ZM306.281 26.28H304.781H306.281ZM293.721 27.53H292.221V29.2192L293.898 29.0195L293.721 27.53ZM295.121 27.45H296.621V26.28H295.121H293.621V27.45H295.121ZM295.121 26.28H296.621C296.621 24.8831 296.837 24.1294 297.193 23.7033C297.498 23.3385 298.182 22.9 300.001 22.9V21.4V19.9C297.769 19.9 296.014 20.4365 294.891 21.7792C293.82 23.0606 293.621 24.7469 293.621 26.28H295.121ZM300.001 21.4V22.9C301.819 22.9 302.504 23.3385 302.809 23.7033C303.165 24.1294 303.381 24.8831 303.381 26.28H304.881H306.381C306.381 24.7469 306.182 23.0606 305.11 21.7792C303.988 20.4365 302.232 19.9 300.001 19.9V21.4ZM304.881 26.28H303.381V27.45H304.881H306.381V26.28H304.881ZM304.881 27.45L304.851 28.9497C305.349 28.9595 305.735 28.9785 306.073 29.0256L306.281 27.54L306.488 26.0544C305.966 25.9815 305.433 25.9605 304.91 25.9503L304.881 27.45ZM306.281 27.54H307.781V26.28H306.281H304.781V27.54H306.281ZM306.281 26.28H307.781C307.781 24.8668 307.625 22.8955 306.479 21.265C305.257 19.5254 303.156 18.5 300.001 18.5V20V21.5C302.475 21.5 303.515 22.2646 304.025 22.99C304.611 23.8245 304.781 24.9932 304.781 26.28H306.281ZM300.001 20V18.5C296.845 18.5 294.745 19.5254 293.522 21.265C292.376 22.8955 292.221 24.8668 292.221 26.28H293.721H295.221C295.221 24.9932 295.39 23.8245 295.977 22.99C296.487 22.2646 297.526 21.5 300.001 21.5V20ZM293.721 26.28H292.221V27.53H293.721H295.221V26.28H293.721ZM293.721 27.53L293.898 29.0195C294.258 28.9766 294.669 28.95 295.121 28.95V27.45V25.95C294.552 25.95 294.023 25.9834 293.543 26.0405L293.721 27.53Z" fill="#1DA534" mask="url(#path-13-inside-1_15958_19577)"/>
</g>
</g>
</g>
<defs>
<filter id="filter0_d_15958_19577" x="267" y="5" width="66" height="66" filterUnits="userSpaceOnUse" color-interpolation-filters="sRGB">
<feFlood flood-opacity="0" result="BackgroundImageFix"/>
<feColorMatrix in="SourceAlpha" type="matrix" values="0 0 0 0 0 0 0 0 0 0 0 0 0 0 0 0 0 0 127 0" result="hardAlpha"/>
<feOffset dy="8"/>
<feGaussianBlur stdDeviation="7.5"/>
<feColorMatrix type="matrix" values="0 0 0 0 0 0 0 0 0 0 0 0 0 0 0 0 0 0 0.25 0"/>
<feBlend mode="normal" in2="BackgroundImageFix" result="effect1_dropShadow_15958_19577"/>
<feBlend mode="normal" in="SourceGraphic" in2="effect1_dropShadow_15958_19577" result="shape"/>
</filter>
<clipPath id="clip0_15958_19577">
<rect width="32" height="32" fill="white" transform="translate(239 19)"/>
</clipPath>
</defs>
</svg>
