<svg width="355" height="118" viewBox="0 0 355 118" fill="none" xmlns="http://www.w3.org/2000/svg">
<rect x="2" y="2" width="114" height="114" rx="57" fill="#EAF0FE"/>
<rect x="2" y="2" width="114" height="114" rx="57" stroke="#2D68F8" stroke-width="4"/>
<path d="M72.3325 25.668H45.666V44.3334H72.3325V25.668Z" fill="white"/>
<path d="M60.6659 25.6665H57.3326V33.2492H45.666V36.749H57.3326V44.3317H60.6659V36.749H72.3325V33.2492H60.6659V25.6665Z" fill="#D80027"/>
<path d="M66.1758 38.2456L72.3328 41.837V38.2456H66.1758Z" fill="#0052B4"/>
<path d="M61.8984 38.2456L72.3331 44.3321V42.611L64.8492 38.2456H61.8984Z" fill="#0052B4"/>
<path d="M69.5537 44.3314L61.8984 39.8657V44.3314H69.5537Z" fill="#0052B4"/>
<path d="M61.8984 38.2456L72.3331 44.3321V42.611L64.8492 38.2456H61.8984Z" fill="white"/>
<path d="M61.8984 38.2456L72.3331 44.3321V42.611L64.8492 38.2456H61.8984Z" fill="#D80027"/>
<path d="M50.3712 38.2456L45.666 40.9902V38.2456H50.3712Z" fill="#0052B4"/>
<path d="M56.1012 39.019V44.3316H46.9941L56.1012 39.019Z" fill="#0052B4"/>
<path d="M53.15 38.2456L45.666 42.611V44.3321L56.1007 38.2456H53.15Z" fill="#D80027"/>
<path d="M51.823 31.753L45.666 28.1616V31.753H51.823Z" fill="#0052B4"/>
<path d="M56.1007 31.753L45.666 25.6665V27.3876L53.15 31.753H56.1007Z" fill="#0052B4"/>
<path d="M48.4453 25.6665L56.1006 30.1322V25.6665H48.4453Z" fill="#0052B4"/>
<path d="M56.1007 31.753L45.666 25.6665V27.3876L53.15 31.753H56.1007Z" fill="white"/>
<path d="M56.1007 31.753L45.666 25.6665V27.3876L53.15 31.753H56.1007Z" fill="#D80027"/>
<path d="M67.6289 31.7524L72.3341 29.0078V31.7524H67.6289Z" fill="#0052B4"/>
<path d="M61.8984 30.9791V25.6665H71.0055L61.8984 30.9791Z" fill="#0052B4"/>
<path d="M64.8492 31.753L72.3331 27.3876V25.6665L61.8984 31.753H64.8492Z" fill="#D80027"/>
<path d="M42.3011 67C42.2058 67 42.1321 66.974 42.0801 66.922C42.0281 66.8613 42.0021 66.7877 42.0021 66.701V58.199C42.0021 58.1123 42.0281 58.043 42.0801 57.991C42.1321 57.9303 42.2058 57.9 42.3011 57.9H42.9901C43.0768 57.9 43.1461 57.9303 43.1981 57.991C43.2588 58.043 43.2891 58.1123 43.2891 58.199V66.701C43.2891 66.7877 43.2588 66.8613 43.1981 66.922C43.1461 66.974 43.0768 67 42.9901 67H42.3011ZM45.6868 67C45.6001 67 45.5264 66.974 45.4658 66.922C45.4138 66.8613 45.3878 66.7877 45.3878 66.701V60.539C45.3878 60.4523 45.4138 60.383 45.4658 60.331C45.5264 60.2703 45.6001 60.24 45.6868 60.24H46.2978C46.3844 60.24 46.4538 60.2703 46.5058 60.331C46.5664 60.383 46.5968 60.4523 46.5968 60.539V61.111C46.8221 60.8163 47.1038 60.578 47.4418 60.396C47.7884 60.2053 48.2304 60.11 48.7678 60.11C49.3311 60.11 49.8078 60.2357 50.1978 60.487C50.5964 60.7297 50.8954 61.072 51.0948 61.514C51.2941 61.9473 51.3938 62.4543 51.3938 63.035V66.701C51.3938 66.7877 51.3678 66.8613 51.3158 66.922C51.2638 66.974 51.1944 67 51.1078 67H50.4578C50.3711 67 50.2974 66.974 50.2368 66.922C50.1848 66.8613 50.1588 66.7877 50.1588 66.701V63.1C50.1588 62.4933 50.0114 62.021 49.7168 61.683C49.4221 61.3363 48.9888 61.163 48.4168 61.163C47.8794 61.163 47.4461 61.3363 47.1168 61.683C46.7961 62.021 46.6358 62.4933 46.6358 63.1V66.701C46.6358 66.7877 46.6054 66.8613 46.5448 66.922C46.4928 66.974 46.4234 67 46.3368 67H45.6868ZM56.0406 69.86C55.4512 69.86 54.9659 69.782 54.5846 69.626C54.2119 69.47 53.9172 69.2793 53.7006 69.054C53.4926 68.8373 53.3409 68.6163 53.2456 68.391C53.1589 68.1743 53.1112 68.001 53.1026 67.871C53.0939 67.7843 53.1199 67.7107 53.1806 67.65C53.2499 67.5893 53.3236 67.559 53.4016 67.559H54.0256C54.1036 67.559 54.1686 67.5763 54.2206 67.611C54.2726 67.6457 54.3159 67.7193 54.3506 67.832C54.4026 67.962 54.4806 68.105 54.5846 68.261C54.6886 68.4257 54.8489 68.5643 55.0656 68.677C55.2822 68.7983 55.5856 68.859 55.9756 68.859C56.3829 68.859 56.7252 68.8027 57.0026 68.69C57.2799 68.586 57.4879 68.3953 57.6266 68.118C57.7739 67.8493 57.8476 67.4767 57.8476 67V66.116C57.6396 66.3847 57.3666 66.61 57.0286 66.792C56.6906 66.9653 56.2659 67.052 55.7546 67.052C55.2692 67.052 54.8532 66.9697 54.5066 66.805C54.1599 66.6317 53.8739 66.402 53.6486 66.116C53.4319 65.8213 53.2672 65.4877 53.1546 65.115C53.0506 64.7423 52.9899 64.3523 52.9726 63.945C52.9639 63.7023 52.9639 63.464 52.9726 63.23C52.9899 62.8227 53.0506 62.4327 53.1546 62.06C53.2672 61.6873 53.4319 61.3537 53.6486 61.059C53.8739 60.7643 54.1599 60.5347 54.5066 60.37C54.8532 60.1967 55.2692 60.11 55.7546 60.11C56.2746 60.11 56.7036 60.2097 57.0416 60.409C57.3882 60.5997 57.6699 60.8337 57.8866 61.111V60.552C57.8866 60.4653 57.9126 60.3917 57.9646 60.331C58.0252 60.2703 58.0989 60.24 58.1856 60.24H58.7836C58.8702 60.24 58.9439 60.2703 59.0046 60.331C59.0652 60.3917 59.0956 60.4653 59.0956 60.552V66.857C59.0956 67.4377 58.9959 67.9533 58.7966 68.404C58.6059 68.8547 58.2852 69.21 57.8346 69.47C57.3926 69.73 56.7946 69.86 56.0406 69.86ZM56.0146 66.012C56.4479 66.012 56.7946 65.9123 57.0546 65.713C57.3232 65.5137 57.5182 65.2623 57.6396 64.959C57.7696 64.6557 57.8389 64.348 57.8476 64.036C57.8562 63.9147 57.8606 63.7673 57.8606 63.594C57.8606 63.412 57.8562 63.2603 57.8476 63.139C57.8389 62.827 57.7696 62.5193 57.6396 62.216C57.5182 61.9127 57.3232 61.6613 57.0546 61.462C56.7946 61.2627 56.4479 61.163 56.0146 61.163C55.5812 61.163 55.2346 61.2627 54.9746 61.462C54.7146 61.6527 54.5282 61.9083 54.4156 62.229C54.3029 62.541 54.2379 62.879 54.2206 63.243C54.2119 63.4683 54.2119 63.698 54.2206 63.932C54.2379 64.296 54.3029 64.6383 54.4156 64.959C54.5282 65.271 54.7146 65.5267 54.9746 65.726C55.2346 65.9167 55.5812 66.012 56.0146 66.012ZM61.3404 67C61.2537 67 61.1801 66.974 61.1194 66.922C61.0674 66.8613 61.0414 66.7877 61.0414 66.701V58.069C61.0414 57.9823 61.0674 57.913 61.1194 57.861C61.1801 57.8003 61.2537 57.77 61.3404 57.77H61.9514C62.0467 57.77 62.1204 57.8003 62.1724 57.861C62.2244 57.913 62.2504 57.9823 62.2504 58.069V66.701C62.2504 66.7877 62.2244 66.8613 62.1724 66.922C62.1204 66.974 62.0467 67 61.9514 67H61.3404ZM66.8805 67.13C65.9879 67.13 65.2772 66.857 64.7485 66.311C64.2199 65.7563 63.9295 65.0023 63.8775 64.049C63.8689 63.9363 63.8645 63.7933 63.8645 63.62C63.8645 63.438 63.8689 63.2907 63.8775 63.178C63.9122 62.5627 64.0552 62.0253 64.3065 61.566C64.5579 61.098 64.9002 60.7383 65.3335 60.487C65.7755 60.2357 66.2912 60.11 66.8805 60.11C67.5392 60.11 68.0895 60.2487 68.5315 60.526C68.9822 60.8033 69.3245 61.1977 69.5585 61.709C69.7925 62.2203 69.9095 62.8183 69.9095 63.503V63.724C69.9095 63.8193 69.8792 63.893 69.8185 63.945C69.7665 63.997 69.6972 64.023 69.6105 64.023H65.1125C65.1125 64.0317 65.1125 64.049 65.1125 64.075C65.1125 64.101 65.1125 64.1227 65.1125 64.14C65.1299 64.4953 65.2079 64.829 65.3465 65.141C65.4852 65.4443 65.6845 65.6913 65.9445 65.882C66.2045 66.0727 66.5165 66.168 66.8805 66.168C67.1925 66.168 67.4525 66.1203 67.6605 66.025C67.8685 65.9297 68.0375 65.8257 68.1675 65.713C68.2975 65.5917 68.3842 65.5007 68.4275 65.44C68.5055 65.3273 68.5662 65.2623 68.6095 65.245C68.6529 65.219 68.7222 65.206 68.8175 65.206H69.4415C69.5282 65.206 69.5975 65.232 69.6495 65.284C69.7102 65.3273 69.7362 65.3923 69.7275 65.479C69.7189 65.609 69.6495 65.7693 69.5195 65.96C69.3895 66.142 69.2032 66.324 68.9605 66.506C68.7179 66.688 68.4232 66.8397 68.0765 66.961C67.7299 67.0737 67.3312 67.13 66.8805 67.13ZM65.1125 63.126H68.6745V63.087C68.6745 62.697 68.6009 62.3503 68.4535 62.047C68.3149 61.7437 68.1112 61.5053 67.8425 61.332C67.5739 61.15 67.2532 61.059 66.8805 61.059C66.5079 61.059 66.1872 61.15 65.9185 61.332C65.6585 61.5053 65.4592 61.7437 65.3205 62.047C65.1819 62.3503 65.1125 62.697 65.1125 63.087V63.126ZM66.5295 59.265C66.3909 59.265 66.3215 59.1957 66.3215 59.057C66.3215 58.9877 66.3432 58.9313 66.3865 58.888L67.3615 57.718C67.4395 57.6227 67.5089 57.562 67.5695 57.536C67.6302 57.5013 67.7212 57.484 67.8425 57.484H68.7265C68.8912 57.484 68.9735 57.5663 68.9735 57.731C68.9735 57.7917 68.9519 57.8437 68.9085 57.887L67.4005 59.122C67.3312 59.1827 67.2662 59.2217 67.2055 59.239C67.1449 59.2563 67.0669 59.265 66.9715 59.265H66.5295ZM73.804 67.13C73.3186 67.13 72.9026 67.0693 72.556 66.948C72.2093 66.8267 71.9276 66.6793 71.711 66.506C71.4943 66.3327 71.3296 66.1593 71.217 65.986C71.113 65.8127 71.0566 65.674 71.048 65.57C71.0393 65.4747 71.0696 65.401 71.139 65.349C71.2083 65.297 71.2776 65.271 71.347 65.271H71.919C71.971 65.271 72.01 65.2797 72.036 65.297C72.0706 65.3057 72.114 65.3403 72.166 65.401C72.2786 65.5223 72.4043 65.6437 72.543 65.765C72.6816 65.8863 72.8506 65.986 73.05 66.064C73.258 66.142 73.5136 66.181 73.817 66.181C74.259 66.181 74.623 66.0987 74.909 65.934C75.195 65.7607 75.338 65.5093 75.338 65.18C75.338 64.9633 75.2773 64.79 75.156 64.66C75.0433 64.53 74.8353 64.413 74.532 64.309C74.2373 64.205 73.83 64.0967 73.31 63.984C72.79 63.8627 72.3783 63.7153 72.075 63.542C71.7716 63.36 71.555 63.1477 71.425 62.905C71.295 62.6537 71.23 62.372 71.23 62.06C71.23 61.7393 71.3253 61.4317 71.516 61.137C71.7066 60.8337 71.984 60.5867 72.348 60.396C72.7206 60.2053 73.1843 60.11 73.739 60.11C74.1896 60.11 74.5753 60.1663 74.896 60.279C75.2166 60.3917 75.481 60.5347 75.689 60.708C75.897 60.8727 76.053 61.0373 76.157 61.202C76.261 61.3667 76.3173 61.5053 76.326 61.618C76.3346 61.7047 76.3086 61.7783 76.248 61.839C76.1873 61.891 76.118 61.917 76.04 61.917H75.494C75.4333 61.917 75.3813 61.904 75.338 61.878C75.3033 61.852 75.2686 61.8217 75.234 61.787C75.1473 61.6743 75.0433 61.5617 74.922 61.449C74.8093 61.3363 74.6576 61.2453 74.467 61.176C74.285 61.098 74.0423 61.059 73.739 61.059C73.3056 61.059 72.9806 61.15 72.764 61.332C72.5473 61.514 72.439 61.7437 72.439 62.021C72.439 62.1857 72.4866 62.333 72.582 62.463C72.6773 62.593 72.8593 62.71 73.128 62.814C73.3966 62.918 73.7953 63.0307 74.324 63.152C74.896 63.2647 75.3466 63.4163 75.676 63.607C76.0053 63.7977 76.2393 64.0187 76.378 64.27C76.5166 64.5213 76.586 64.8117 76.586 65.141C76.586 65.505 76.4776 65.8387 76.261 66.142C76.053 66.4453 75.741 66.688 75.325 66.87C74.9176 67.0433 74.4106 67.13 73.804 67.13Z" fill="#171B22"/>
<rect x="40.5" y="74" width="37" height="25" rx="12.5" fill="#2D68F8"/>
<path d="M53.3417 91.14C52.6697 91.14 52.0864 91.0467 51.5917 90.86C51.097 90.664 50.6864 90.398 50.3597 90.062C50.0424 89.726 49.7997 89.334 49.6317 88.886C49.4637 88.438 49.3657 87.9573 49.3377 87.444C49.3284 87.192 49.319 86.9073 49.3097 86.59C49.3097 86.2633 49.3097 85.9367 49.3097 85.61C49.319 85.274 49.3284 84.9753 49.3377 84.714C49.3657 84.2007 49.4637 83.7247 49.6317 83.286C49.809 82.838 50.061 82.4507 50.3877 82.124C50.7237 81.788 51.1344 81.5267 51.6197 81.34C52.1144 81.1533 52.6884 81.06 53.3417 81.06C54.0044 81.06 54.5784 81.1533 55.0637 81.34C55.549 81.5267 55.955 81.788 56.2817 82.124C56.6177 82.4507 56.8744 82.838 57.0517 83.286C57.229 83.7247 57.327 84.2007 57.3457 84.714C57.3644 84.9753 57.3737 85.274 57.3737 85.61C57.383 85.9367 57.383 86.2633 57.3737 86.59C57.3737 86.9073 57.3644 87.192 57.3457 87.444C57.327 87.9573 57.229 88.438 57.0517 88.886C56.8837 89.334 56.6364 89.726 56.3097 90.062C55.9924 90.398 55.5864 90.664 55.0917 90.86C54.6064 91.0467 54.023 91.14 53.3417 91.14ZM53.3417 89.11C53.827 89.11 54.177 88.956 54.3917 88.648C54.6157 88.3307 54.7324 87.906 54.7417 87.374C54.7604 87.1033 54.7697 86.8187 54.7697 86.52C54.779 86.2213 54.779 85.9227 54.7697 85.624C54.7697 85.3253 54.7604 85.05 54.7417 84.798C54.7324 84.2847 54.6157 83.8693 54.3917 83.552C54.177 83.2347 53.827 83.0713 53.3417 83.062C52.8564 83.0713 52.5064 83.2347 52.2917 83.552C52.077 83.8693 51.9604 84.2847 51.9417 84.798C51.9324 85.05 51.923 85.3253 51.9137 85.624C51.9137 85.9227 51.9137 86.2213 51.9137 86.52C51.923 86.8187 51.9324 87.1033 51.9417 87.374C51.9604 87.906 52.0817 88.3307 52.3057 88.648C52.5297 88.956 52.875 89.11 53.3417 89.11ZM59.6793 91C59.4647 91 59.3573 90.9067 59.3573 90.72C59.3573 90.664 59.376 90.6127 59.4133 90.566L66.3293 81.466C66.3947 81.382 66.46 81.3167 66.5253 81.27C66.5907 81.2233 66.6887 81.2 66.8193 81.2H67.8133C68.028 81.2 68.1353 81.2933 68.1353 81.48C68.1353 81.536 68.1167 81.5873 68.0793 81.634L61.1633 90.734C61.098 90.818 61.0327 90.8833 60.9673 90.93C60.902 90.9767 60.804 91 60.6733 91H59.6793ZM66.7213 91.07C66.0867 91.07 65.578 90.902 65.1953 90.566C64.822 90.23 64.612 89.782 64.5653 89.222C64.556 88.9793 64.5513 88.7647 64.5513 88.578C64.5513 88.3913 64.556 88.1673 64.5653 87.906C64.6027 87.3367 64.8033 86.884 65.1673 86.548C65.5407 86.2027 66.0587 86.03 66.7213 86.03C67.3933 86.03 67.9113 86.2027 68.2753 86.548C68.6393 86.884 68.84 87.3367 68.8773 87.906C68.896 88.1673 68.9053 88.3913 68.9053 88.578C68.9053 88.7647 68.896 88.9793 68.8773 89.222C68.84 89.782 68.63 90.23 68.2473 90.566C67.8647 90.902 67.356 91.07 66.7213 91.07ZM66.7213 89.838C66.88 89.838 67.0013 89.8053 67.0853 89.74C67.1787 89.6747 67.2487 89.5907 67.2953 89.488C67.342 89.376 67.3653 89.2593 67.3653 89.138C67.384 88.9233 67.3933 88.7273 67.3933 88.55C67.3933 88.3727 67.384 88.1813 67.3653 87.976C67.356 87.7987 67.3047 87.64 67.2113 87.5C67.118 87.3507 66.9547 87.276 66.7213 87.276C66.488 87.276 66.3247 87.3507 66.2313 87.5C66.138 87.64 66.0867 87.7987 66.0773 87.976C66.068 88.1813 66.0633 88.3727 66.0633 88.55C66.0633 88.7273 66.068 88.9233 66.0773 89.138C66.0867 89.2593 66.11 89.376 66.1473 89.488C66.194 89.5907 66.264 89.6747 66.3573 89.74C66.4507 89.8053 66.572 89.838 66.7213 89.838ZM60.7993 86.142C60.1553 86.142 59.642 85.9787 59.2593 85.652C58.886 85.316 58.6807 84.868 58.6433 84.308C58.6247 84.0653 58.6153 83.8553 58.6153 83.678C58.6247 83.4913 58.634 83.2673 58.6433 83.006C58.6713 82.4367 58.8673 81.984 59.2313 81.648C59.6047 81.3027 60.1273 81.13 60.7993 81.13C61.4713 81.13 61.9893 81.3027 62.3533 81.648C62.7173 81.984 62.9133 82.4367 62.9413 83.006C62.96 83.2673 62.9693 83.4913 62.9693 83.678C62.9693 83.8553 62.96 84.0653 62.9413 84.308C62.9133 84.868 62.708 85.316 62.3253 85.652C61.9427 85.9787 61.434 86.142 60.7993 86.142ZM60.7993 84.938C60.9487 84.938 61.07 84.9053 61.1633 84.84C61.2567 84.7653 61.3267 84.6767 61.3733 84.574C61.42 84.462 61.4433 84.35 61.4433 84.238C61.462 84.0233 61.4713 83.8273 61.4713 83.65C61.4713 83.4727 61.462 83.2813 61.4433 83.076C61.434 82.8987 61.378 82.74 61.2753 82.6C61.182 82.4507 61.0233 82.376 60.7993 82.376C60.566 82.376 60.398 82.4507 60.2953 82.6C60.202 82.74 60.1507 82.8987 60.1413 83.076C60.132 83.2813 60.1273 83.4727 60.1273 83.65C60.1273 83.8273 60.132 84.0233 60.1413 84.238C60.1507 84.35 60.174 84.462 60.2113 84.574C60.258 84.6767 60.328 84.7653 60.4213 84.84C60.5147 84.9053 60.6407 84.938 60.7993 84.938Z" fill="white"/>
<g filter="url(#filter0_d_15958_19607)">
<rect x="88" y="14" width="32" height="32" rx="16" fill="white"/>
<rect x="87" y="13" width="34" height="34" rx="17" stroke="#1DA534" stroke-width="2"/>
<path opacity="0.4" d="M104 40C109.523 40 114 35.5228 114 30C114 24.4772 109.523 20 104 20C98.4772 20 94 24.4772 94 30C94 35.5228 98.4772 40 104 40Z" fill="#1DA534"/>
<path d="M102.579 33.5801C102.379 33.5801 102.189 33.5001 102.049 33.3601L99.2195 30.5301C98.9295 30.2401 98.9295 29.7601 99.2195 29.4701C99.5095 29.1801 99.9895 29.1801 100.279 29.4701L102.579 31.7701L107.719 26.6301C108.009 26.3401 108.489 26.3401 108.779 26.6301C109.069 26.9201 109.069 27.4001 108.779 27.6901L103.109 33.3601C102.969 33.5001 102.779 33.5801 102.579 33.5801Z" fill="#1DA534"/>
</g>
<defs>
<filter id="filter0_d_15958_19607" x="71" y="5" width="66" height="66" filterUnits="userSpaceOnUse" color-interpolation-filters="sRGB">
<feFlood flood-opacity="0" result="BackgroundImageFix"/>
<feColorMatrix in="SourceAlpha" type="matrix" values="0 0 0 0 0 0 0 0 0 0 0 0 0 0 0 0 0 0 127 0" result="hardAlpha"/>
<feOffset dy="8"/>
<feGaussianBlur stdDeviation="7.5"/>
<feColorMatrix type="matrix" values="0 0 0 0 0 0 0 0 0 0 0 0 0 0 0 0 0 0 0.25 0"/>
<feBlend mode="normal" in2="BackgroundImageFix" result="effect1_dropShadow_15958_19607"/>
<feBlend mode="normal" in="SourceGraphic" in2="effect1_dropShadow_15958_19607" result="shape"/>
</filter>
</defs>
</svg>
