<svg width="351" height="118" viewBox="0 0 351 118" fill="none" xmlns="http://www.w3.org/2000/svg">
<rect x="84" y="2" width="114" height="114" rx="57" fill="#E8F6EB"/>
<rect x="84" y="2" width="114" height="114" rx="57" stroke="#4AB75D" stroke-width="4"/>
<path opacity="0.4" d="M149.334 21.667C152.095 21.667 154.334 23.9056 154.334 26.667V43.333C154.334 46.0944 152.095 48.333 149.334 48.333H132.668C129.907 48.333 127.668 46.0944 127.668 43.333V26.667C127.668 23.9056 129.907 21.667 132.668 21.667H149.334ZM133.334 24.333C131.677 24.3332 130.334 25.6764 130.334 27.333V42.667C130.334 44.3236 131.677 45.6668 133.334 45.667H148.668C150.325 45.6668 151.668 44.3236 151.668 42.667V27.333C151.668 25.6764 150.325 24.3332 148.668 24.333H133.334Z" fill="#157525"/>
<circle cx="135" cy="31.6665" r="2" fill="#157525"/>
<circle cx="138" cy="31.6665" r="2" fill="#157525"/>
<circle cx="141" cy="31.6665" r="2" fill="#157525"/>
<rect x="130.334" y="30.9556" width="21.3333" height="1.42222" fill="#157525"/>
<circle cx="2" cy="2" r="2" transform="matrix(-1 0 0 1 149.002 36.3335)" fill="#157525"/>
<circle cx="2" cy="2" r="2" transform="matrix(-1 0 0 1 146.002 36.3335)" fill="#157525"/>
<circle cx="2" cy="2" r="2" transform="matrix(-1 0 0 1 143.002 36.3335)" fill="#157525"/>
<rect width="21.3333" height="1.42222" transform="matrix(-1 0 0 1 151.668 37.6221)" fill="#157525"/>
<path d="M109.902 67C109.833 67 109.772 66.974 109.72 66.922C109.668 66.87 109.642 66.8093 109.642 66.74C109.642 66.6967 109.647 66.649 109.655 66.597L112.879 58.186C112.914 58.0993 112.962 58.03 113.022 57.978C113.083 57.926 113.174 57.9 113.295 57.9H114.179C114.292 57.9 114.379 57.926 114.439 57.978C114.509 58.03 114.561 58.0993 114.595 58.186L117.806 66.597C117.824 66.649 117.832 66.6967 117.832 66.74C117.832 66.8093 117.806 66.87 117.754 66.922C117.702 66.974 117.642 67 117.572 67H116.909C116.805 67 116.727 66.974 116.675 66.922C116.632 66.87 116.602 66.8223 116.584 66.779L115.869 64.933H111.605L110.89 66.779C110.882 66.8223 110.851 66.87 110.799 66.922C110.747 66.974 110.669 67 110.565 67H109.902ZM111.982 63.815H115.492L113.737 59.2L111.982 63.815ZM119.352 67C119.266 67 119.192 66.974 119.131 66.922C119.079 66.8613 119.053 66.7877 119.053 66.701V60.552C119.053 60.4653 119.079 60.3917 119.131 60.331C119.192 60.2703 119.266 60.24 119.352 60.24H119.95C120.037 60.24 120.111 60.2703 120.171 60.331C120.232 60.3917 120.262 60.4653 120.262 60.552V61.124C120.436 60.8293 120.674 60.6083 120.977 60.461C121.281 60.3137 121.645 60.24 122.069 60.24H122.589C122.676 60.24 122.745 60.2703 122.797 60.331C122.849 60.383 122.875 60.4523 122.875 60.539V61.072C122.875 61.1587 122.849 61.228 122.797 61.28C122.745 61.332 122.676 61.358 122.589 61.358H121.809C121.341 61.358 120.973 61.4967 120.704 61.774C120.436 62.0427 120.301 62.411 120.301 62.879V66.701C120.301 66.7877 120.271 66.8613 120.21 66.922C120.15 66.974 120.076 67 119.989 67H119.352ZM124.291 67C124.204 67 124.13 66.974 124.07 66.922C124.018 66.8613 123.992 66.7877 123.992 66.701V60.539C123.992 60.4523 124.018 60.383 124.07 60.331C124.13 60.2703 124.204 60.24 124.291 60.24H124.915C125.001 60.24 125.071 60.2703 125.123 60.331C125.175 60.383 125.201 60.4523 125.201 60.539V66.701C125.201 66.7877 125.175 66.8613 125.123 66.922C125.071 66.974 125.001 67 124.915 67H124.291ZM124.187 58.979C124.1 58.979 124.026 58.953 123.966 58.901C123.914 58.8403 123.888 58.7667 123.888 58.68V57.978C123.888 57.8913 123.914 57.822 123.966 57.77C124.026 57.7093 124.1 57.679 124.187 57.679H125.006C125.092 57.679 125.162 57.7093 125.214 57.77C125.274 57.822 125.305 57.8913 125.305 57.978V58.68C125.305 58.7667 125.274 58.8403 125.214 58.901C125.162 58.953 125.092 58.979 125.006 58.979H124.187ZM129.779 67C129.294 67 128.9 66.909 128.596 66.727C128.293 66.5363 128.072 66.272 127.933 65.934C127.795 65.5873 127.725 65.18 127.725 64.712V61.28H126.711C126.625 61.28 126.551 61.254 126.49 61.202C126.438 61.1413 126.412 61.0677 126.412 60.981V60.539C126.412 60.4523 126.438 60.383 126.49 60.331C126.551 60.2703 126.625 60.24 126.711 60.24H127.725V58.069C127.725 57.9823 127.751 57.913 127.803 57.861C127.864 57.8003 127.938 57.77 128.024 57.77H128.635C128.722 57.77 128.791 57.8003 128.843 57.861C128.904 57.913 128.934 57.9823 128.934 58.069V60.24H130.546C130.633 60.24 130.702 60.2703 130.754 60.331C130.815 60.383 130.845 60.4523 130.845 60.539V60.981C130.845 61.0677 130.815 61.1413 130.754 61.202C130.702 61.254 130.633 61.28 130.546 61.28H128.934V64.621C128.934 65.0283 129.004 65.349 129.142 65.583C129.281 65.817 129.528 65.934 129.883 65.934H130.676C130.763 65.934 130.832 65.9643 130.884 66.025C130.945 66.077 130.975 66.1463 130.975 66.233V66.701C130.975 66.7877 130.945 66.8613 130.884 66.922C130.832 66.974 130.763 67 130.676 67H129.779ZM132.517 67C132.431 67 132.357 66.974 132.296 66.922C132.244 66.8613 132.218 66.7877 132.218 66.701V60.539C132.218 60.4523 132.244 60.383 132.296 60.331C132.357 60.2703 132.431 60.24 132.517 60.24H133.102C133.189 60.24 133.258 60.2703 133.31 60.331C133.371 60.383 133.401 60.4523 133.401 60.539V60.994C133.601 60.7253 133.852 60.513 134.155 60.357C134.459 60.1923 134.823 60.11 135.247 60.11C136.227 60.1013 136.92 60.5 137.327 61.306C137.527 60.942 137.817 60.6517 138.198 60.435C138.58 60.2183 139.013 60.11 139.498 60.11C139.949 60.11 140.356 60.214 140.72 60.422C141.093 60.63 141.383 60.9463 141.591 61.371C141.808 61.787 141.916 62.3113 141.916 62.944V66.701C141.916 66.7877 141.886 66.8613 141.825 66.922C141.773 66.974 141.704 67 141.617 67H141.006C140.92 67 140.846 66.974 140.785 66.922C140.733 66.8613 140.707 66.7877 140.707 66.701V63.061C140.707 62.5757 140.638 62.1943 140.499 61.917C140.361 61.6397 140.174 61.4447 139.94 61.332C139.706 61.2193 139.451 61.163 139.173 61.163C138.948 61.163 138.718 61.2193 138.484 61.332C138.25 61.4447 138.055 61.6397 137.899 61.917C137.752 62.1943 137.678 62.5757 137.678 63.061V66.701C137.678 66.7877 137.648 66.8613 137.587 66.922C137.535 66.974 137.466 67 137.379 67H136.768C136.682 67 136.608 66.974 136.547 66.922C136.495 66.8613 136.469 66.7877 136.469 66.701V63.061C136.469 62.5757 136.396 62.1943 136.248 61.917C136.101 61.6397 135.91 61.4447 135.676 61.332C135.442 61.2193 135.195 61.163 134.935 61.163C134.71 61.163 134.48 61.2193 134.246 61.332C134.012 61.4447 133.817 61.6397 133.661 61.917C133.514 62.1943 133.44 62.5713 133.44 63.048V66.701C133.44 66.7877 133.41 66.8613 133.349 66.922C133.297 66.974 133.228 67 133.141 67H132.517ZM146.462 67.13C145.569 67.13 144.859 66.857 144.33 66.311C143.801 65.7563 143.511 65.0023 143.459 64.049C143.45 63.9363 143.446 63.7933 143.446 63.62C143.446 63.438 143.45 63.2907 143.459 63.178C143.494 62.5627 143.637 62.0253 143.888 61.566C144.139 61.098 144.482 60.7383 144.915 60.487C145.357 60.2357 145.873 60.11 146.462 60.11C147.121 60.11 147.671 60.2487 148.113 60.526C148.564 60.8033 148.906 61.1977 149.14 61.709C149.374 62.2203 149.491 62.8183 149.491 63.503V63.724C149.491 63.8193 149.461 63.893 149.4 63.945C149.348 63.997 149.279 64.023 149.192 64.023H144.694C144.694 64.0317 144.694 64.049 144.694 64.075C144.694 64.101 144.694 64.1227 144.694 64.14C144.711 64.4953 144.789 64.829 144.928 65.141C145.067 65.4443 145.266 65.6913 145.526 65.882C145.786 66.0727 146.098 66.168 146.462 66.168C146.774 66.168 147.034 66.1203 147.242 66.025C147.45 65.9297 147.619 65.8257 147.749 65.713C147.879 65.5917 147.966 65.5007 148.009 65.44C148.087 65.3273 148.148 65.2623 148.191 65.245C148.234 65.219 148.304 65.206 148.399 65.206H149.023C149.11 65.206 149.179 65.232 149.231 65.284C149.292 65.3273 149.318 65.3923 149.309 65.479C149.3 65.609 149.231 65.7693 149.101 65.96C148.971 66.142 148.785 66.324 148.542 66.506C148.299 66.688 148.005 66.8397 147.658 66.961C147.311 67.0737 146.913 67.13 146.462 67.13ZM144.694 63.126H148.256V63.087C148.256 62.697 148.182 62.3503 148.035 62.047C147.896 61.7437 147.693 61.5053 147.424 61.332C147.155 61.15 146.835 61.059 146.462 61.059C146.089 61.059 145.769 61.15 145.5 61.332C145.24 61.5053 145.041 61.7437 144.902 62.047C144.763 62.3503 144.694 62.697 144.694 63.087V63.126ZM146.111 59.265C145.972 59.265 145.903 59.1957 145.903 59.057C145.903 58.9877 145.925 58.9313 145.968 58.888L146.943 57.718C147.021 57.6227 147.09 57.562 147.151 57.536C147.212 57.5013 147.303 57.484 147.424 57.484H148.308C148.473 57.484 148.555 57.5663 148.555 57.731C148.555 57.7917 148.533 57.8437 148.49 57.887L146.982 59.122C146.913 59.1827 146.848 59.2217 146.787 59.239C146.726 59.2563 146.648 59.265 146.553 59.265H146.111ZM153.646 67C153.161 67 152.767 66.909 152.463 66.727C152.16 66.5363 151.939 66.272 151.8 65.934C151.662 65.5873 151.592 65.18 151.592 64.712V61.28H150.578C150.492 61.28 150.418 61.254 150.357 61.202C150.305 61.1413 150.279 61.0677 150.279 60.981V60.539C150.279 60.4523 150.305 60.383 150.357 60.331C150.418 60.2703 150.492 60.24 150.578 60.24H151.592V58.069C151.592 57.9823 151.618 57.913 151.67 57.861C151.731 57.8003 151.805 57.77 151.891 57.77H152.502C152.589 57.77 152.658 57.8003 152.71 57.861C152.771 57.913 152.801 57.9823 152.801 58.069V60.24H154.413C154.5 60.24 154.569 60.2703 154.621 60.331C154.682 60.383 154.712 60.4523 154.712 60.539V60.981C154.712 61.0677 154.682 61.1413 154.621 61.202C154.569 61.254 154.5 61.28 154.413 61.28H152.801V64.621C152.801 65.0283 152.871 65.349 153.009 65.583C153.148 65.817 153.395 65.934 153.75 65.934H154.543C154.63 65.934 154.699 65.9643 154.751 66.025C154.812 66.077 154.842 66.1463 154.842 66.233V66.701C154.842 66.7877 154.812 66.8613 154.751 66.922C154.699 66.974 154.63 67 154.543 67H153.646ZM156.385 67C156.298 67 156.224 66.974 156.164 66.922C156.112 66.8613 156.086 66.7877 156.086 66.701V60.539C156.086 60.4523 156.112 60.383 156.164 60.331C156.224 60.2703 156.298 60.24 156.385 60.24H157.009C157.095 60.24 157.165 60.2703 157.217 60.331C157.269 60.383 157.295 60.4523 157.295 60.539V66.701C157.295 66.7877 157.269 66.8613 157.217 66.922C157.165 66.974 157.095 67 157.009 67H156.385ZM156.281 58.979C156.194 58.979 156.12 58.953 156.06 58.901C156.008 58.8403 155.982 58.7667 155.982 58.68V57.978C155.982 57.8913 156.008 57.822 156.06 57.77C156.12 57.7093 156.194 57.679 156.281 57.679H157.1C157.186 57.679 157.256 57.7093 157.308 57.77C157.368 57.822 157.399 57.8913 157.399 57.978V58.68C157.399 58.7667 157.368 58.8403 157.308 58.901C157.256 58.953 157.186 58.979 157.1 58.979H156.281ZM161.964 67.13C161.349 67.13 160.816 67.013 160.365 66.779C159.923 66.5363 159.581 66.194 159.338 65.752C159.095 65.3013 158.965 64.764 158.948 64.14C158.939 64.01 158.935 63.8367 158.935 63.62C158.935 63.4033 158.939 63.23 158.948 63.1C158.965 62.476 159.095 61.943 159.338 61.501C159.581 61.0503 159.923 60.708 160.365 60.474C160.816 60.2313 161.349 60.11 161.964 60.11C162.467 60.11 162.896 60.1793 163.251 60.318C163.615 60.4567 163.914 60.6343 164.148 60.851C164.382 61.0677 164.555 61.3017 164.668 61.553C164.789 61.8043 164.854 62.0427 164.863 62.268C164.872 62.3547 164.846 62.424 164.785 62.476C164.724 62.528 164.651 62.554 164.564 62.554H163.94C163.853 62.554 163.788 62.5367 163.745 62.502C163.702 62.4587 163.658 62.3893 163.615 62.294C163.459 61.8693 163.247 61.5703 162.978 61.397C162.709 61.2237 162.376 61.137 161.977 61.137C161.457 61.137 161.032 61.2973 160.703 61.618C160.382 61.9387 160.209 62.4543 160.183 63.165C160.174 63.477 160.174 63.7803 160.183 64.075C160.209 64.7943 160.382 65.3143 160.703 65.635C161.032 65.947 161.457 66.103 161.977 66.103C162.376 66.103 162.709 66.0163 162.978 65.843C163.247 65.6697 163.459 65.3707 163.615 64.946C163.658 64.8507 163.702 64.7857 163.745 64.751C163.788 64.7077 163.853 64.686 163.94 64.686H164.564C164.651 64.686 164.724 64.712 164.785 64.764C164.846 64.816 164.872 64.8853 164.863 64.972C164.854 65.154 164.815 65.3403 164.746 65.531C164.677 65.7217 164.564 65.9167 164.408 66.116C164.261 66.3067 164.074 66.48 163.849 66.636C163.624 66.7833 163.351 66.9047 163.03 67C162.718 67.0867 162.363 67.13 161.964 67.13ZM168.292 67.13C167.858 67.13 167.464 67.0433 167.109 66.87C166.753 66.6967 166.467 66.4627 166.251 66.168C166.034 65.8733 165.926 65.5397 165.926 65.167C165.926 64.569 166.168 64.0923 166.654 63.737C167.139 63.3817 167.772 63.1477 168.552 63.035L170.489 62.762V62.385C170.489 61.969 170.367 61.644 170.125 61.41C169.891 61.176 169.505 61.059 168.968 61.059C168.578 61.059 168.261 61.137 168.019 61.293C167.785 61.449 167.62 61.6483 167.525 61.891C167.473 62.021 167.382 62.086 167.252 62.086H166.667C166.571 62.086 166.498 62.06 166.446 62.008C166.402 61.9473 166.381 61.878 166.381 61.8C166.381 61.67 166.428 61.5097 166.524 61.319C166.628 61.1283 166.784 60.942 166.992 60.76C167.2 60.578 167.464 60.4263 167.785 60.305C168.114 60.175 168.513 60.11 168.981 60.11C169.501 60.11 169.938 60.1793 170.294 60.318C170.649 60.448 170.926 60.6257 171.126 60.851C171.334 61.0763 171.481 61.332 171.568 61.618C171.663 61.904 171.711 62.1943 171.711 62.489V66.701C171.711 66.7877 171.68 66.8613 171.62 66.922C171.568 66.974 171.498 67 171.412 67H170.814C170.718 67 170.645 66.974 170.593 66.922C170.541 66.8613 170.515 66.7877 170.515 66.701V66.142C170.402 66.298 170.25 66.454 170.06 66.61C169.869 66.7573 169.631 66.883 169.345 66.987C169.059 67.0823 168.708 67.13 168.292 67.13ZM168.565 66.155C168.92 66.155 169.245 66.0813 169.54 65.934C169.834 65.778 170.064 65.5397 170.229 65.219C170.402 64.8983 170.489 64.4953 170.489 64.01V63.646L168.981 63.867C168.365 63.9537 167.902 64.101 167.59 64.309C167.278 64.5083 167.122 64.764 167.122 65.076C167.122 65.3187 167.191 65.5223 167.33 65.687C167.477 65.843 167.659 65.96 167.876 66.038C168.101 66.116 168.331 66.155 168.565 66.155Z" fill="#171B22"/>
<rect x="122.5" y="74" width="37" height="25" rx="12.5" fill="#157525"/>
<path d="M135.342 91.14C134.67 91.14 134.086 91.0467 133.592 90.86C133.097 90.664 132.686 90.398 132.36 90.062C132.042 89.726 131.8 89.334 131.632 88.886C131.464 88.438 131.366 87.9573 131.338 87.444C131.328 87.192 131.319 86.9073 131.31 86.59C131.31 86.2633 131.31 85.9367 131.31 85.61C131.319 85.274 131.328 84.9753 131.338 84.714C131.366 84.2007 131.464 83.7247 131.632 83.286C131.809 82.838 132.061 82.4507 132.388 82.124C132.724 81.788 133.134 81.5267 133.62 81.34C134.114 81.1533 134.688 81.06 135.342 81.06C136.004 81.06 136.578 81.1533 137.064 81.34C137.549 81.5267 137.955 81.788 138.282 82.124C138.618 82.4507 138.874 82.838 139.052 83.286C139.229 83.7247 139.327 84.2007 139.346 84.714C139.364 84.9753 139.374 85.274 139.374 85.61C139.383 85.9367 139.383 86.2633 139.374 86.59C139.374 86.9073 139.364 87.192 139.346 87.444C139.327 87.9573 139.229 88.438 139.052 88.886C138.884 89.334 138.636 89.726 138.31 90.062C137.992 90.398 137.586 90.664 137.092 90.86C136.606 91.0467 136.023 91.14 135.342 91.14ZM135.342 89.11C135.827 89.11 136.177 88.956 136.392 88.648C136.616 88.3307 136.732 87.906 136.742 87.374C136.76 87.1033 136.77 86.8187 136.77 86.52C136.779 86.2213 136.779 85.9227 136.77 85.624C136.77 85.3253 136.76 85.05 136.742 84.798C136.732 84.2847 136.616 83.8693 136.392 83.552C136.177 83.2347 135.827 83.0713 135.342 83.062C134.856 83.0713 134.506 83.2347 134.292 83.552C134.077 83.8693 133.96 84.2847 133.942 84.798C133.932 85.05 133.923 85.3253 133.914 85.624C133.914 85.9227 133.914 86.2213 133.914 86.52C133.923 86.8187 133.932 87.1033 133.942 87.374C133.96 87.906 134.082 88.3307 134.306 88.648C134.53 88.956 134.875 89.11 135.342 89.11ZM141.679 91C141.465 91 141.357 90.9067 141.357 90.72C141.357 90.664 141.376 90.6127 141.413 90.566L148.329 81.466C148.395 81.382 148.46 81.3167 148.525 81.27C148.591 81.2233 148.689 81.2 148.819 81.2H149.813C150.028 81.2 150.135 81.2933 150.135 81.48C150.135 81.536 150.117 81.5873 150.079 81.634L143.163 90.734C143.098 90.818 143.033 90.8833 142.967 90.93C142.902 90.9767 142.804 91 142.673 91H141.679ZM148.721 91.07C148.087 91.07 147.578 90.902 147.195 90.566C146.822 90.23 146.612 89.782 146.565 89.222C146.556 88.9793 146.551 88.7647 146.551 88.578C146.551 88.3913 146.556 88.1673 146.565 87.906C146.603 87.3367 146.803 86.884 147.167 86.548C147.541 86.2027 148.059 86.03 148.721 86.03C149.393 86.03 149.911 86.2027 150.275 86.548C150.639 86.884 150.84 87.3367 150.877 87.906C150.896 88.1673 150.905 88.3913 150.905 88.578C150.905 88.7647 150.896 88.9793 150.877 89.222C150.84 89.782 150.63 90.23 150.247 90.566C149.865 90.902 149.356 91.07 148.721 91.07ZM148.721 89.838C148.88 89.838 149.001 89.8053 149.085 89.74C149.179 89.6747 149.249 89.5907 149.295 89.488C149.342 89.376 149.365 89.2593 149.365 89.138C149.384 88.9233 149.393 88.7273 149.393 88.55C149.393 88.3727 149.384 88.1813 149.365 87.976C149.356 87.7987 149.305 87.64 149.211 87.5C149.118 87.3507 148.955 87.276 148.721 87.276C148.488 87.276 148.325 87.3507 148.231 87.5C148.138 87.64 148.087 87.7987 148.077 87.976C148.068 88.1813 148.063 88.3727 148.063 88.55C148.063 88.7273 148.068 88.9233 148.077 89.138C148.087 89.2593 148.11 89.376 148.147 89.488C148.194 89.5907 148.264 89.6747 148.357 89.74C148.451 89.8053 148.572 89.838 148.721 89.838ZM142.799 86.142C142.155 86.142 141.642 85.9787 141.259 85.652C140.886 85.316 140.681 84.868 140.643 84.308C140.625 84.0653 140.615 83.8553 140.615 83.678C140.625 83.4913 140.634 83.2673 140.643 83.006C140.671 82.4367 140.867 81.984 141.231 81.648C141.605 81.3027 142.127 81.13 142.799 81.13C143.471 81.13 143.989 81.3027 144.353 81.648C144.717 81.984 144.913 82.4367 144.941 83.006C144.96 83.2673 144.969 83.4913 144.969 83.678C144.969 83.8553 144.96 84.0653 144.941 84.308C144.913 84.868 144.708 85.316 144.325 85.652C143.943 85.9787 143.434 86.142 142.799 86.142ZM142.799 84.938C142.949 84.938 143.07 84.9053 143.163 84.84C143.257 84.7653 143.327 84.6767 143.373 84.574C143.42 84.462 143.443 84.35 143.443 84.238C143.462 84.0233 143.471 83.8273 143.471 83.65C143.471 83.4727 143.462 83.2813 143.443 83.076C143.434 82.8987 143.378 82.74 143.275 82.6C143.182 82.4507 143.023 82.376 142.799 82.376C142.566 82.376 142.398 82.4507 142.295 82.6C142.202 82.74 142.151 82.8987 142.141 83.076C142.132 83.2813 142.127 83.4727 142.127 83.65C142.127 83.8273 142.132 84.0233 142.141 84.238C142.151 84.35 142.174 84.462 142.211 84.574C142.258 84.6767 142.328 84.7653 142.421 84.84C142.515 84.9053 142.641 84.938 142.799 84.938Z" fill="white"/>
<g filter="url(#filter0_d_15958_19605)">
<rect x="170" y="14" width="32" height="32" rx="16" fill="white"/>
<rect x="169" y="13" width="34" height="34" rx="17" stroke="#1DA534" stroke-width="2"/>
<path opacity="0.4" d="M186 40C191.523 40 196 35.5228 196 30C196 24.4772 191.523 20 186 20C180.477 20 176 24.4772 176 30C176 35.5228 180.477 40 186 40Z" fill="#1DA534"/>
<path d="M184.579 33.5801C184.379 33.5801 184.189 33.5001 184.049 33.3601L181.219 30.5301C180.929 30.2401 180.929 29.7601 181.219 29.4701C181.509 29.1801 181.989 29.1801 182.279 29.4701L184.579 31.7701L189.719 26.6301C190.009 26.3401 190.489 26.3401 190.779 26.6301C191.069 26.9201 191.069 27.4001 190.779 27.6901L185.109 33.3601C184.969 33.5001 184.779 33.5801 184.579 33.5801Z" fill="#1DA534"/>
</g>
<defs>
<filter id="filter0_d_15958_19605" x="153" y="5" width="66" height="66" filterUnits="userSpaceOnUse" color-interpolation-filters="sRGB">
<feFlood flood-opacity="0" result="BackgroundImageFix"/>
<feColorMatrix in="SourceAlpha" type="matrix" values="0 0 0 0 0 0 0 0 0 0 0 0 0 0 0 0 0 0 127 0" result="hardAlpha"/>
<feOffset dy="8"/>
<feGaussianBlur stdDeviation="7.5"/>
<feColorMatrix type="matrix" values="0 0 0 0 0 0 0 0 0 0 0 0 0 0 0 0 0 0 0.25 0"/>
<feBlend mode="normal" in2="BackgroundImageFix" result="effect1_dropShadow_15958_19605"/>
<feBlend mode="normal" in="SourceGraphic" in2="effect1_dropShadow_15958_19605" result="shape"/>
</filter>
</defs>
</svg>
