<svg width="351" height="118" viewBox="0 0 351 118" fill="none" xmlns="http://www.w3.org/2000/svg">
<g style="mix-blend-mode:luminosity">
<rect x="158" y="2" width="114" height="114" rx="57" fill="white"/>
<rect x="158" y="2" width="114" height="114" rx="57" stroke="#DEE2E6" stroke-width="4"/>
<path opacity="0.4" d="M220.586 21.6665H209.413C204.559 21.6665 201.666 24.5598 201.666 29.4132V40.5732C201.666 45.4398 204.559 48.3332 209.413 48.3332H220.573C225.426 48.3332 228.319 45.4398 228.319 40.5865V29.4132C228.333 24.5598 225.439 21.6665 220.586 21.6665Z" fill="#02AAA4"/>
<path d="M220.894 29.4134V40.5867C220.894 41.44 220.2 42.1334 219.347 42.1334C218.48 42.1334 217.787 41.44 217.787 40.5867V29.4134C217.787 28.56 218.48 27.8667 219.347 27.8667C220.2 27.8667 220.894 28.56 220.894 29.4134Z" fill="#02AAA4"/>
<path d="M212.214 36.24V40.5867C212.214 41.44 211.521 42.1334 210.654 42.1334C209.801 42.1334 209.107 41.44 209.107 40.5867V36.24C209.107 35.3867 209.801 34.6934 210.654 34.6934C211.521 34.6934 212.214 35.3867 212.214 36.24Z" fill="#02AAA4"/>
<path d="M183.022 67C182.927 67 182.853 66.974 182.801 66.922C182.749 66.8613 182.723 66.7877 182.723 66.701V58.212C182.723 58.1167 182.749 58.043 182.801 57.991C182.853 57.9303 182.927 57.9 183.022 57.9H188.391C188.487 57.9 188.56 57.9303 188.612 57.991C188.664 58.043 188.69 58.1167 188.69 58.212V58.706C188.69 58.8013 188.664 58.875 188.612 58.927C188.56 58.979 188.487 59.005 188.391 59.005H183.971V61.852H188.105C188.201 61.852 188.274 61.8823 188.326 61.943C188.378 61.995 188.404 62.0687 188.404 62.164V62.645C188.404 62.7317 188.378 62.8053 188.326 62.866C188.274 62.918 188.201 62.944 188.105 62.944H183.971V65.895H188.495C188.591 65.895 188.664 65.921 188.716 65.973C188.768 66.025 188.794 66.0987 188.794 66.194V66.701C188.794 66.7877 188.768 66.8613 188.716 66.922C188.664 66.974 188.591 67 188.495 67H183.022ZM192.778 67.13C192.293 67.13 191.877 67.0693 191.53 66.948C191.183 66.8267 190.902 66.6793 190.685 66.506C190.468 66.3327 190.304 66.1593 190.191 65.986C190.087 65.8127 190.031 65.674 190.022 65.57C190.013 65.4747 190.044 65.401 190.113 65.349C190.182 65.297 190.252 65.271 190.321 65.271H190.893C190.945 65.271 190.984 65.2797 191.01 65.297C191.045 65.3057 191.088 65.3403 191.14 65.401C191.253 65.5223 191.378 65.6437 191.517 65.765C191.656 65.8863 191.825 65.986 192.024 66.064C192.232 66.142 192.488 66.181 192.791 66.181C193.233 66.181 193.597 66.0987 193.883 65.934C194.169 65.7607 194.312 65.5093 194.312 65.18C194.312 64.9633 194.251 64.79 194.13 64.66C194.017 64.53 193.809 64.413 193.506 64.309C193.211 64.205 192.804 64.0967 192.284 63.984C191.764 63.8627 191.352 63.7153 191.049 63.542C190.746 63.36 190.529 63.1477 190.399 62.905C190.269 62.6537 190.204 62.372 190.204 62.06C190.204 61.7393 190.299 61.4317 190.49 61.137C190.681 60.8337 190.958 60.5867 191.322 60.396C191.695 60.2053 192.158 60.11 192.713 60.11C193.164 60.11 193.549 60.1663 193.87 60.279C194.191 60.3917 194.455 60.5347 194.663 60.708C194.871 60.8727 195.027 61.0373 195.131 61.202C195.235 61.3667 195.291 61.5053 195.3 61.618C195.309 61.7047 195.283 61.7783 195.222 61.839C195.161 61.891 195.092 61.917 195.014 61.917H194.468C194.407 61.917 194.355 61.904 194.312 61.878C194.277 61.852 194.243 61.8217 194.208 61.787C194.121 61.6743 194.017 61.5617 193.896 61.449C193.783 61.3363 193.632 61.2453 193.441 61.176C193.259 61.098 193.016 61.059 192.713 61.059C192.28 61.059 191.955 61.15 191.738 61.332C191.521 61.514 191.413 61.7437 191.413 62.021C191.413 62.1857 191.461 62.333 191.556 62.463C191.651 62.593 191.833 62.71 192.102 62.814C192.371 62.918 192.769 63.0307 193.298 63.152C193.87 63.2647 194.321 63.4163 194.65 63.607C194.979 63.7977 195.213 64.0187 195.352 64.27C195.491 64.5213 195.56 64.8117 195.56 65.141C195.56 65.505 195.452 65.8387 195.235 66.142C195.027 66.4453 194.715 66.688 194.299 66.87C193.892 67.0433 193.385 67.13 192.778 67.13ZM199.691 67C199.206 67 198.812 66.909 198.508 66.727C198.205 66.5363 197.984 66.272 197.845 65.934C197.707 65.5873 197.637 65.18 197.637 64.712V61.28H196.623C196.537 61.28 196.463 61.254 196.402 61.202C196.35 61.1413 196.324 61.0677 196.324 60.981V60.539C196.324 60.4523 196.35 60.383 196.402 60.331C196.463 60.2703 196.537 60.24 196.623 60.24H197.637V58.069C197.637 57.9823 197.663 57.913 197.715 57.861C197.776 57.8003 197.85 57.77 197.936 57.77H198.547C198.634 57.77 198.703 57.8003 198.755 57.861C198.816 57.913 198.846 57.9823 198.846 58.069V60.24H200.458C200.545 60.24 200.614 60.2703 200.666 60.331C200.727 60.383 200.757 60.4523 200.757 60.539V60.981C200.757 61.0677 200.727 61.1413 200.666 61.202C200.614 61.254 200.545 61.28 200.458 61.28H198.846V64.621C198.846 65.0283 198.916 65.349 199.054 65.583C199.193 65.817 199.44 65.934 199.795 65.934H200.588C200.675 65.934 200.744 65.9643 200.796 66.025C200.857 66.077 200.887 66.1463 200.887 66.233V66.701C200.887 66.7877 200.857 66.8613 200.796 66.922C200.744 66.974 200.675 67 200.588 67H199.691ZM204.015 67.13C203.582 67.13 203.188 67.0433 202.832 66.87C202.477 66.6967 202.191 66.4627 201.974 66.168C201.758 65.8733 201.649 65.5397 201.649 65.167C201.649 64.569 201.892 64.0923 202.377 63.737C202.863 63.3817 203.495 63.1477 204.275 63.035L206.212 62.762V62.385C206.212 61.969 206.091 61.644 205.848 61.41C205.614 61.176 205.229 61.059 204.691 61.059C204.301 61.059 203.985 61.137 203.742 61.293C203.508 61.449 203.344 61.6483 203.248 61.891C203.196 62.021 203.105 62.086 202.975 62.086H202.39C202.295 62.086 202.221 62.06 202.169 62.008C202.126 61.9473 202.104 61.878 202.104 61.8C202.104 61.67 202.152 61.5097 202.247 61.319C202.351 61.1283 202.507 60.942 202.715 60.76C202.923 60.578 203.188 60.4263 203.508 60.305C203.838 60.175 204.236 60.11 204.704 60.11C205.224 60.11 205.662 60.1793 206.017 60.318C206.373 60.448 206.65 60.6257 206.849 60.851C207.057 61.0763 207.205 61.332 207.291 61.618C207.387 61.904 207.434 62.1943 207.434 62.489V66.701C207.434 66.7877 207.404 66.8613 207.343 66.922C207.291 66.974 207.222 67 207.135 67H206.537C206.442 67 206.368 66.974 206.316 66.922C206.264 66.8613 206.238 66.7877 206.238 66.701V66.142C206.126 66.298 205.974 66.454 205.783 66.61C205.593 66.7573 205.354 66.883 205.068 66.987C204.782 67.0823 204.431 67.13 204.015 67.13ZM204.288 66.155C204.644 66.155 204.969 66.0813 205.263 65.934C205.558 65.778 205.788 65.5397 205.952 65.219C206.126 64.8983 206.212 64.4953 206.212 64.01V63.646L204.704 63.867C204.089 63.9537 203.625 64.101 203.313 64.309C203.001 64.5083 202.845 64.764 202.845 65.076C202.845 65.3187 202.915 65.5223 203.053 65.687C203.201 65.843 203.383 65.96 203.599 66.038C203.825 66.116 204.054 66.155 204.288 66.155ZM211.773 67.13C211.297 67.13 210.885 67.0477 210.538 66.883C210.192 66.7097 209.906 66.48 209.68 66.194C209.464 65.8993 209.299 65.5657 209.186 65.193C209.082 64.8203 209.022 64.426 209.004 64.01C208.996 63.8713 208.991 63.7413 208.991 63.62C208.991 63.4987 208.996 63.3687 209.004 63.23C209.022 62.8227 209.082 62.4327 209.186 62.06C209.299 61.6873 209.464 61.3537 209.68 61.059C209.906 60.7643 210.192 60.5347 210.538 60.37C210.885 60.1967 211.297 60.11 211.773 60.11C212.285 60.11 212.709 60.201 213.047 60.383C213.385 60.565 213.663 60.7903 213.879 61.059V58.069C213.879 57.9823 213.905 57.913 213.957 57.861C214.018 57.8003 214.092 57.77 214.178 57.77H214.802C214.889 57.77 214.958 57.8003 215.01 57.861C215.071 57.913 215.101 57.9823 215.101 58.069V66.701C215.101 66.7877 215.071 66.8613 215.01 66.922C214.958 66.974 214.889 67 214.802 67H214.217C214.122 67 214.048 66.974 213.996 66.922C213.944 66.8613 213.918 66.7877 213.918 66.701V66.155C213.702 66.4323 213.42 66.6663 213.073 66.857C212.727 67.039 212.293 67.13 211.773 67.13ZM212.046 66.077C212.48 66.077 212.826 65.9773 213.086 65.778C213.346 65.5787 213.541 65.3273 213.671 65.024C213.801 64.712 213.871 64.3957 213.879 64.075C213.888 63.9363 213.892 63.7717 213.892 63.581C213.892 63.3817 213.888 63.2127 213.879 63.074C213.871 62.7707 213.797 62.4717 213.658 62.177C213.528 61.8823 213.329 61.6397 213.06 61.449C212.8 61.2583 212.462 61.163 212.046 61.163C211.604 61.163 211.253 61.2627 210.993 61.462C210.733 61.6527 210.547 61.9083 210.434 62.229C210.322 62.541 210.257 62.879 210.239 63.243C210.231 63.4943 210.231 63.7457 210.239 63.997C210.257 64.361 210.322 64.7033 210.434 65.024C210.547 65.336 210.733 65.5917 210.993 65.791C211.253 65.9817 211.604 66.077 212.046 66.077ZM217.334 67C217.247 67 217.173 66.974 217.113 66.922C217.061 66.8613 217.035 66.7877 217.035 66.701V60.539C217.035 60.4523 217.061 60.383 217.113 60.331C217.173 60.2703 217.247 60.24 217.334 60.24H217.958C218.044 60.24 218.114 60.2703 218.166 60.331C218.218 60.383 218.244 60.4523 218.244 60.539V66.701C218.244 66.7877 218.218 66.8613 218.166 66.922C218.114 66.974 218.044 67 217.958 67H217.334ZM217.295 59.265C217.156 59.265 217.087 59.1957 217.087 59.057C217.087 58.9877 217.108 58.9313 217.152 58.888L218.127 57.718C218.205 57.6227 218.274 57.562 218.335 57.536C218.395 57.5013 218.486 57.484 218.608 57.484H219.492C219.656 57.484 219.739 57.5663 219.739 57.731C219.739 57.7917 219.717 57.8437 219.674 57.887L218.166 59.122C218.096 59.1827 218.031 59.2217 217.971 59.239C217.91 59.2563 217.832 59.265 217.737 59.265H217.295ZM222.523 67.13C222.038 67.13 221.622 67.0693 221.275 66.948C220.929 66.8267 220.647 66.6793 220.43 66.506C220.214 66.3327 220.049 66.1593 219.936 65.986C219.832 65.8127 219.776 65.674 219.767 65.57C219.759 65.4747 219.789 65.401 219.858 65.349C219.928 65.297 219.997 65.271 220.066 65.271H220.638C220.69 65.271 220.729 65.2797 220.755 65.297C220.79 65.3057 220.833 65.3403 220.885 65.401C220.998 65.5223 221.124 65.6437 221.262 65.765C221.401 65.8863 221.57 65.986 221.769 66.064C221.977 66.142 222.233 66.181 222.536 66.181C222.978 66.181 223.342 66.0987 223.628 65.934C223.914 65.7607 224.057 65.5093 224.057 65.18C224.057 64.9633 223.997 64.79 223.875 64.66C223.763 64.53 223.555 64.413 223.251 64.309C222.957 64.205 222.549 64.0967 222.029 63.984C221.509 63.8627 221.098 63.7153 220.794 63.542C220.491 63.36 220.274 63.1477 220.144 62.905C220.014 62.6537 219.949 62.372 219.949 62.06C219.949 61.7393 220.045 61.4317 220.235 61.137C220.426 60.8337 220.703 60.5867 221.067 60.396C221.44 60.2053 221.904 60.11 222.458 60.11C222.909 60.11 223.295 60.1663 223.615 60.279C223.936 60.3917 224.2 60.5347 224.408 60.708C224.616 60.8727 224.772 61.0373 224.876 61.202C224.98 61.3667 225.037 61.5053 225.045 61.618C225.054 61.7047 225.028 61.7783 224.967 61.839C224.907 61.891 224.837 61.917 224.759 61.917H224.213C224.153 61.917 224.101 61.904 224.057 61.878C224.023 61.852 223.988 61.8217 223.953 61.787C223.867 61.6743 223.763 61.5617 223.641 61.449C223.529 61.3363 223.377 61.2453 223.186 61.176C223.004 61.098 222.762 61.059 222.458 61.059C222.025 61.059 221.7 61.15 221.483 61.332C221.267 61.514 221.158 61.7437 221.158 62.021C221.158 62.1857 221.206 62.333 221.301 62.463C221.397 62.593 221.579 62.71 221.847 62.814C222.116 62.918 222.515 63.0307 223.043 63.152C223.615 63.2647 224.066 63.4163 224.395 63.607C224.725 63.7977 224.959 64.0187 225.097 64.27C225.236 64.5213 225.305 64.8117 225.305 65.141C225.305 65.505 225.197 65.8387 224.98 66.142C224.772 66.4453 224.46 66.688 224.044 66.87C223.637 67.0433 223.13 67.13 222.523 67.13ZM229.436 67C228.951 67 228.557 66.909 228.253 66.727C227.95 66.5363 227.729 66.272 227.59 65.934C227.452 65.5873 227.382 65.18 227.382 64.712V61.28H226.368C226.282 61.28 226.208 61.254 226.147 61.202C226.095 61.1413 226.069 61.0677 226.069 60.981V60.539C226.069 60.4523 226.095 60.383 226.147 60.331C226.208 60.2703 226.282 60.24 226.368 60.24H227.382V58.069C227.382 57.9823 227.408 57.913 227.46 57.861C227.521 57.8003 227.595 57.77 227.681 57.77H228.292C228.379 57.77 228.448 57.8003 228.5 57.861C228.561 57.913 228.591 57.9823 228.591 58.069V60.24H230.203C230.29 60.24 230.359 60.2703 230.411 60.331C230.472 60.383 230.502 60.4523 230.502 60.539V60.981C230.502 61.0677 230.472 61.1413 230.411 61.202C230.359 61.254 230.29 61.28 230.203 61.28H228.591V64.621C228.591 65.0283 228.661 65.349 228.799 65.583C228.938 65.817 229.185 65.934 229.54 65.934H230.333C230.42 65.934 230.489 65.9643 230.541 66.025C230.602 66.077 230.632 66.1463 230.632 66.233V66.701C230.632 66.7877 230.602 66.8613 230.541 66.922C230.489 66.974 230.42 67 230.333 67H229.436ZM232.175 67C232.088 67 232.014 66.974 231.954 66.922C231.902 66.8613 231.876 66.7877 231.876 66.701V60.539C231.876 60.4523 231.902 60.383 231.954 60.331C232.014 60.2703 232.088 60.24 232.175 60.24H232.799C232.885 60.24 232.955 60.2703 233.007 60.331C233.059 60.383 233.085 60.4523 233.085 60.539V66.701C233.085 66.7877 233.059 66.8613 233.007 66.922C232.955 66.974 232.885 67 232.799 67H232.175ZM232.071 58.979C231.984 58.979 231.91 58.953 231.85 58.901C231.798 58.8403 231.772 58.7667 231.772 58.68V57.978C231.772 57.8913 231.798 57.822 231.85 57.77C231.91 57.7093 231.984 57.679 232.071 57.679H232.89C232.976 57.679 233.046 57.7093 233.098 57.77C233.158 57.822 233.189 57.8913 233.189 57.978V58.68C233.189 58.7667 233.158 58.8403 233.098 58.901C233.046 58.953 232.976 58.979 232.89 58.979H232.071ZM237.754 67.13C237.139 67.13 236.606 67.013 236.155 66.779C235.713 66.5363 235.371 66.194 235.128 65.752C234.885 65.3013 234.755 64.764 234.738 64.14C234.729 64.01 234.725 63.8367 234.725 63.62C234.725 63.4033 234.729 63.23 234.738 63.1C234.755 62.476 234.885 61.943 235.128 61.501C235.371 61.0503 235.713 60.708 236.155 60.474C236.606 60.2313 237.139 60.11 237.754 60.11C238.257 60.11 238.686 60.1793 239.041 60.318C239.405 60.4567 239.704 60.6343 239.938 60.851C240.172 61.0677 240.345 61.3017 240.458 61.553C240.579 61.8043 240.644 62.0427 240.653 62.268C240.662 62.3547 240.636 62.424 240.575 62.476C240.514 62.528 240.441 62.554 240.354 62.554H239.73C239.643 62.554 239.578 62.5367 239.535 62.502C239.492 62.4587 239.448 62.3893 239.405 62.294C239.249 61.8693 239.037 61.5703 238.768 61.397C238.499 61.2237 238.166 61.137 237.767 61.137C237.247 61.137 236.822 61.2973 236.493 61.618C236.172 61.9387 235.999 62.4543 235.973 63.165C235.964 63.477 235.964 63.7803 235.973 64.075C235.999 64.7943 236.172 65.3143 236.493 65.635C236.822 65.947 237.247 66.103 237.767 66.103C238.166 66.103 238.499 66.0163 238.768 65.843C239.037 65.6697 239.249 65.3707 239.405 64.946C239.448 64.8507 239.492 64.7857 239.535 64.751C239.578 64.7077 239.643 64.686 239.73 64.686H240.354C240.441 64.686 240.514 64.712 240.575 64.764C240.636 64.816 240.662 64.8853 240.653 64.972C240.644 65.154 240.605 65.3403 240.536 65.531C240.467 65.7217 240.354 65.9167 240.198 66.116C240.051 66.3067 239.864 66.48 239.639 66.636C239.414 66.7833 239.141 66.9047 238.82 67C238.508 67.0867 238.153 67.13 237.754 67.13ZM244.082 67.13C243.649 67.13 243.254 67.0433 242.899 66.87C242.544 66.6967 242.258 66.4627 242.041 66.168C241.824 65.8733 241.716 65.5397 241.716 65.167C241.716 64.569 241.959 64.0923 242.444 63.737C242.929 63.3817 243.562 63.1477 244.342 63.035L246.279 62.762V62.385C246.279 61.969 246.158 61.644 245.915 61.41C245.681 61.176 245.295 61.059 244.758 61.059C244.368 61.059 244.052 61.137 243.809 61.293C243.575 61.449 243.41 61.6483 243.315 61.891C243.263 62.021 243.172 62.086 243.042 62.086H242.457C242.362 62.086 242.288 62.06 242.236 62.008C242.193 61.9473 242.171 61.878 242.171 61.8C242.171 61.67 242.219 61.5097 242.314 61.319C242.418 61.1283 242.574 60.942 242.782 60.76C242.99 60.578 243.254 60.4263 243.575 60.305C243.904 60.175 244.303 60.11 244.771 60.11C245.291 60.11 245.729 60.1793 246.084 60.318C246.439 60.448 246.717 60.6257 246.916 60.851C247.124 61.0763 247.271 61.332 247.358 61.618C247.453 61.904 247.501 62.1943 247.501 62.489V66.701C247.501 66.7877 247.471 66.8613 247.41 66.922C247.358 66.974 247.289 67 247.202 67H246.604C246.509 67 246.435 66.974 246.383 66.922C246.331 66.8613 246.305 66.7877 246.305 66.701V66.142C246.192 66.298 246.041 66.454 245.85 66.61C245.659 66.7573 245.421 66.883 245.135 66.987C244.849 67.0823 244.498 67.13 244.082 67.13ZM244.355 66.155C244.71 66.155 245.035 66.0813 245.33 65.934C245.625 65.778 245.854 65.5397 246.019 65.219C246.192 64.8983 246.279 64.4953 246.279 64.01V63.646L244.771 63.867C244.156 63.9537 243.692 64.101 243.38 64.309C243.068 64.5083 242.912 64.764 242.912 65.076C242.912 65.3187 242.981 65.5223 243.12 65.687C243.267 65.843 243.449 65.96 243.666 66.038C243.891 66.116 244.121 66.155 244.355 66.155Z" fill="#171B22"/>
<rect x="196.5" y="74" width="37" height="25" rx="12.5" fill="#02AAA4"/>
<path d="M209.342 91.14C208.67 91.14 208.086 91.0467 207.592 90.86C207.097 90.664 206.686 90.398 206.36 90.062C206.042 89.726 205.8 89.334 205.632 88.886C205.464 88.438 205.366 87.9573 205.338 87.444C205.328 87.192 205.319 86.9073 205.31 86.59C205.31 86.2633 205.31 85.9367 205.31 85.61C205.319 85.274 205.328 84.9753 205.338 84.714C205.366 84.2007 205.464 83.7247 205.632 83.286C205.809 82.838 206.061 82.4507 206.388 82.124C206.724 81.788 207.134 81.5267 207.62 81.34C208.114 81.1533 208.688 81.06 209.342 81.06C210.004 81.06 210.578 81.1533 211.064 81.34C211.549 81.5267 211.955 81.788 212.282 82.124C212.618 82.4507 212.874 82.838 213.052 83.286C213.229 83.7247 213.327 84.2007 213.346 84.714C213.364 84.9753 213.374 85.274 213.374 85.61C213.383 85.9367 213.383 86.2633 213.374 86.59C213.374 86.9073 213.364 87.192 213.346 87.444C213.327 87.9573 213.229 88.438 213.052 88.886C212.884 89.334 212.636 89.726 212.31 90.062C211.992 90.398 211.586 90.664 211.092 90.86C210.606 91.0467 210.023 91.14 209.342 91.14ZM209.342 89.11C209.827 89.11 210.177 88.956 210.392 88.648C210.616 88.3307 210.732 87.906 210.742 87.374C210.76 87.1033 210.77 86.8187 210.77 86.52C210.779 86.2213 210.779 85.9227 210.77 85.624C210.77 85.3253 210.76 85.05 210.742 84.798C210.732 84.2847 210.616 83.8693 210.392 83.552C210.177 83.2347 209.827 83.0713 209.342 83.062C208.856 83.0713 208.506 83.2347 208.292 83.552C208.077 83.8693 207.96 84.2847 207.942 84.798C207.932 85.05 207.923 85.3253 207.914 85.624C207.914 85.9227 207.914 86.2213 207.914 86.52C207.923 86.8187 207.932 87.1033 207.942 87.374C207.96 87.906 208.082 88.3307 208.306 88.648C208.53 88.956 208.875 89.11 209.342 89.11ZM215.679 91C215.465 91 215.357 90.9067 215.357 90.72C215.357 90.664 215.376 90.6127 215.413 90.566L222.329 81.466C222.395 81.382 222.46 81.3167 222.525 81.27C222.591 81.2233 222.689 81.2 222.819 81.2H223.813C224.028 81.2 224.135 81.2933 224.135 81.48C224.135 81.536 224.117 81.5873 224.079 81.634L217.163 90.734C217.098 90.818 217.033 90.8833 216.967 90.93C216.902 90.9767 216.804 91 216.673 91H215.679ZM222.721 91.07C222.087 91.07 221.578 90.902 221.195 90.566C220.822 90.23 220.612 89.782 220.565 89.222C220.556 88.9793 220.551 88.7647 220.551 88.578C220.551 88.3913 220.556 88.1673 220.565 87.906C220.603 87.3367 220.803 86.884 221.167 86.548C221.541 86.2027 222.059 86.03 222.721 86.03C223.393 86.03 223.911 86.2027 224.275 86.548C224.639 86.884 224.84 87.3367 224.877 87.906C224.896 88.1673 224.905 88.3913 224.905 88.578C224.905 88.7647 224.896 88.9793 224.877 89.222C224.84 89.782 224.63 90.23 224.247 90.566C223.865 90.902 223.356 91.07 222.721 91.07ZM222.721 89.838C222.88 89.838 223.001 89.8053 223.085 89.74C223.179 89.6747 223.249 89.5907 223.295 89.488C223.342 89.376 223.365 89.2593 223.365 89.138C223.384 88.9233 223.393 88.7273 223.393 88.55C223.393 88.3727 223.384 88.1813 223.365 87.976C223.356 87.7987 223.305 87.64 223.211 87.5C223.118 87.3507 222.955 87.276 222.721 87.276C222.488 87.276 222.325 87.3507 222.231 87.5C222.138 87.64 222.087 87.7987 222.077 87.976C222.068 88.1813 222.063 88.3727 222.063 88.55C222.063 88.7273 222.068 88.9233 222.077 89.138C222.087 89.2593 222.11 89.376 222.147 89.488C222.194 89.5907 222.264 89.6747 222.357 89.74C222.451 89.8053 222.572 89.838 222.721 89.838ZM216.799 86.142C216.155 86.142 215.642 85.9787 215.259 85.652C214.886 85.316 214.681 84.868 214.643 84.308C214.625 84.0653 214.615 83.8553 214.615 83.678C214.625 83.4913 214.634 83.2673 214.643 83.006C214.671 82.4367 214.867 81.984 215.231 81.648C215.605 81.3027 216.127 81.13 216.799 81.13C217.471 81.13 217.989 81.3027 218.353 81.648C218.717 81.984 218.913 82.4367 218.941 83.006C218.96 83.2673 218.969 83.4913 218.969 83.678C218.969 83.8553 218.96 84.0653 218.941 84.308C218.913 84.868 218.708 85.316 218.325 85.652C217.943 85.9787 217.434 86.142 216.799 86.142ZM216.799 84.938C216.949 84.938 217.07 84.9053 217.163 84.84C217.257 84.7653 217.327 84.6767 217.373 84.574C217.42 84.462 217.443 84.35 217.443 84.238C217.462 84.0233 217.471 83.8273 217.471 83.65C217.471 83.4727 217.462 83.2813 217.443 83.076C217.434 82.8987 217.378 82.74 217.275 82.6C217.182 82.4507 217.023 82.376 216.799 82.376C216.566 82.376 216.398 82.4507 216.295 82.6C216.202 82.74 216.151 82.8987 216.141 83.076C216.132 83.2813 216.127 83.4727 216.127 83.65C216.127 83.8273 216.132 84.0233 216.141 84.238C216.151 84.35 216.174 84.462 216.211 84.574C216.258 84.6767 216.328 84.7653 216.421 84.84C216.515 84.9053 216.641 84.938 216.799 84.938Z" fill="white"/>
<g filter="url(#filter0_d_15958_19603)">
<rect x="244" y="14" width="32" height="32" rx="16" fill="white"/>
<rect x="243" y="13" width="34" height="34" rx="17" stroke="#1DA534" stroke-width="2"/>
<path opacity="0.4" d="M259.999 32.8398C260.485 32.8398 260.879 33.2338 260.879 33.7197C260.879 34.2057 260.485 34.5996 259.999 34.5996C259.513 34.5995 259.119 34.2057 259.119 33.7197C259.119 33.2338 259.513 32.8399 259.999 32.8398Z" fill="#1DA534" stroke="#1DA534" stroke-width="1.5"/>
<path d="M255.35 28.1899H264.65C266.674 28.19 267.735 28.5109 268.332 29.1079C268.929 29.7049 269.25 30.7662 269.25 32.7896V34.6499C269.25 36.6735 268.929 37.7355 268.332 38.3325C267.735 38.9294 266.673 39.2495 264.65 39.2495H255.35C253.327 39.2495 252.265 38.9294 251.668 38.3325C251.071 37.7355 250.75 36.6735 250.75 34.6499V32.7896C250.75 30.7662 251.071 29.7049 251.668 29.1079C252.265 28.5109 253.326 28.19 255.35 28.1899ZM260 29.9497C257.914 29.9497 256.23 31.6476 256.23 33.7202C256.231 35.7927 257.914 37.4897 260 37.4897C262.086 37.4897 263.769 35.7927 263.77 33.7202C263.77 31.6476 262.086 29.9497 260 29.9497Z" fill="#1DA534" stroke="#1DA534" stroke-width="1.5"/>
<g opacity="0.4">
<mask id="path-12-inside-1_15958_19603" fill="white">
<path d="M255.121 27.45V26.28C255.121 23.35 255.951 21.4 260.001 21.4C264.051 21.4 264.881 23.35 264.881 26.28V27.45C265.391 27.46 265.851 27.48 266.281 27.54V26.28C266.281 23.58 265.631 20 260.001 20C254.371 20 253.721 23.58 253.721 26.28V27.53C254.141 27.48 254.611 27.45 255.121 27.45Z"/>
</mask>
<path d="M255.121 27.45V26.28C255.121 23.35 255.951 21.4 260.001 21.4C264.051 21.4 264.881 23.35 264.881 26.28V27.45C265.391 27.46 265.851 27.48 266.281 27.54V26.28C266.281 23.58 265.631 20 260.001 20C254.371 20 253.721 23.58 253.721 26.28V27.53C254.141 27.48 254.611 27.45 255.121 27.45Z" fill="#1DA534"/>
<path d="M255.121 27.45V28.95H256.621V27.45H255.121ZM264.881 27.45H263.381V28.9209L264.851 28.9497L264.881 27.45ZM266.281 27.54L266.073 29.0256L267.781 29.2638V27.54H266.281ZM266.281 26.28H264.781H266.281ZM253.721 27.53H252.221V29.2192L253.898 29.0195L253.721 27.53ZM255.121 27.45H256.621V26.28H255.121H253.621V27.45H255.121ZM255.121 26.28H256.621C256.621 24.8831 256.837 24.1294 257.193 23.7033C257.498 23.3385 258.182 22.9 260.001 22.9V21.4V19.9C257.769 19.9 256.014 20.4365 254.891 21.7792C253.82 23.0606 253.621 24.7469 253.621 26.28H255.121ZM260.001 21.4V22.9C261.819 22.9 262.504 23.3385 262.809 23.7033C263.165 24.1294 263.381 24.8831 263.381 26.28H264.881H266.381C266.381 24.7469 266.182 23.0606 265.11 21.7792C263.988 20.4365 262.232 19.9 260.001 19.9V21.4ZM264.881 26.28H263.381V27.45H264.881H266.381V26.28H264.881ZM264.881 27.45L264.851 28.9497C265.349 28.9595 265.735 28.9785 266.073 29.0256L266.281 27.54L266.488 26.0544C265.966 25.9815 265.433 25.9605 264.91 25.9503L264.881 27.45ZM266.281 27.54H267.781V26.28H266.281H264.781V27.54H266.281ZM266.281 26.28H267.781C267.781 24.8668 267.625 22.8955 266.479 21.265C265.257 19.5254 263.156 18.5 260.001 18.5V20V21.5C262.475 21.5 263.515 22.2646 264.025 22.99C264.611 23.8245 264.781 24.9932 264.781 26.28H266.281ZM260.001 20V18.5C256.845 18.5 254.745 19.5254 253.522 21.265C252.376 22.8955 252.221 24.8668 252.221 26.28H253.721H255.221C255.221 24.9932 255.39 23.8245 255.977 22.99C256.487 22.2646 257.526 21.5 260.001 21.5V20ZM253.721 26.28H252.221V27.53H253.721H255.221V26.28H253.721ZM253.721 27.53L253.898 29.0195C254.258 28.9766 254.669 28.95 255.121 28.95V27.45V25.95C254.552 25.95 254.023 25.9834 253.543 26.0405L253.721 27.53Z" fill="#1DA534" mask="url(#path-12-inside-1_15958_19603)"/>
</g>
</g>
</g>
<defs>
<filter id="filter0_d_15958_19603" x="227" y="5" width="66" height="66" filterUnits="userSpaceOnUse" color-interpolation-filters="sRGB">
<feFlood flood-opacity="0" result="BackgroundImageFix"/>
<feColorMatrix in="SourceAlpha" type="matrix" values="0 0 0 0 0 0 0 0 0 0 0 0 0 0 0 0 0 0 127 0" result="hardAlpha"/>
<feOffset dy="8"/>
<feGaussianBlur stdDeviation="7.5"/>
<feColorMatrix type="matrix" values="0 0 0 0 0 0 0 0 0 0 0 0 0 0 0 0 0 0 0.25 0"/>
<feBlend mode="normal" in2="BackgroundImageFix" result="effect1_dropShadow_15958_19603"/>
<feBlend mode="normal" in="SourceGraphic" in2="effect1_dropShadow_15958_19603" result="shape"/>
</filter>
</defs>
</svg>
