<svg width="383" height="118" viewBox="0 0 383 118" fill="none" xmlns="http://www.w3.org/2000/svg">
<g style="mix-blend-mode:luminosity">
<rect x="248" y="2" width="114" height="114" rx="57" fill="white"/>
<rect x="248" y="2" width="114" height="114" rx="57" stroke="#DEE2E6" stroke-width="4"/>
<g clip-path="url(#clip0_15958_19599)">
<mask id="mask0_15958_19599" style="mask-type:luminance" maskUnits="userSpaceOnUse" x="289" y="19" width="32" height="32">
<path d="M321 19H289V51H321V19Z" fill="white"/>
</mask>
<g mask="url(#mask0_15958_19599)">
<path opacity="0.4" d="M299.667 48.3332H310.333C314.013 48.3332 317 45.3465 317 41.6665V28.3332C317 24.6532 314.013 21.6665 310.333 21.6665H299.667C295.987 21.6665 293 24.6532 293 28.3332V41.6665C293 45.3465 295.987 48.3332 299.667 48.3332Z" fill="#E8B600"/>
<path d="M309.001 26.6143H301.001C299.627 26.6143 298.494 27.7343 298.494 29.1209V30.4543C298.494 31.8276 299.614 32.9609 301.001 32.9609H309.001C310.374 32.9609 311.507 31.8409 311.507 30.4543V29.1209C311.507 27.7343 310.387 26.6143 309.001 26.6143Z" fill="#E8B600"/>
<path d="M299.88 38.8944C299.693 38.8944 299.52 38.8544 299.36 38.7877C299.2 38.7211 299.053 38.6277 298.933 38.5077C298.68 38.2544 298.533 37.9211 298.533 37.5611C298.533 37.3877 298.573 37.2144 298.64 37.0544C298.707 36.8811 298.8 36.7477 298.933 36.6144C299.24 36.3077 299.707 36.1611 300.133 36.2544C300.213 36.2677 300.307 36.2944 300.387 36.3344C300.467 36.3611 300.547 36.4011 300.613 36.4544C300.693 36.4944 300.76 36.5611 300.813 36.6144C300.933 36.7477 301.04 36.8811 301.107 37.0544C301.173 37.2144 301.2 37.3877 301.2 37.5611C301.2 37.9211 301.067 38.2544 300.813 38.5077C300.56 38.7611 300.227 38.8944 299.88 38.8944Z" fill="#E8B600"/>
<path d="M305.201 38.8922C304.854 38.8922 304.521 38.7589 304.267 38.5055C304.014 38.2522 303.867 37.9189 303.867 37.5589C303.867 37.2122 304.014 36.8655 304.267 36.6122C304.761 36.1189 305.654 36.1189 306.147 36.6122C306.267 36.7455 306.374 36.8789 306.441 37.0522C306.507 37.2122 306.534 37.3855 306.534 37.5589C306.534 37.9189 306.401 38.2522 306.147 38.5055C305.894 38.7589 305.561 38.8922 305.201 38.8922Z" fill="#E8B600"/>
<path d="M310.533 38.8922C310.186 38.8922 309.853 38.7589 309.599 38.5055C309.346 38.2522 309.199 37.9189 309.199 37.5589C309.199 37.2122 309.346 36.8655 309.599 36.6122C310.093 36.1189 310.986 36.1189 311.479 36.6122C311.733 36.8655 311.879 37.2122 311.879 37.5589C311.879 37.7322 311.839 37.9055 311.773 38.0655C311.706 38.2255 311.613 38.3722 311.479 38.5055C311.226 38.7589 310.893 38.8922 310.533 38.8922Z" fill="#E8B600"/>
<path d="M299.88 44.2274C299.52 44.2274 299.187 44.0941 298.933 43.8407C298.68 43.5874 298.533 43.254 298.533 42.894C298.533 42.5474 298.68 42.2007 298.933 41.9474C299.053 41.8274 299.2 41.734 299.36 41.6674C299.693 41.534 300.053 41.534 300.387 41.6674C300.467 41.694 300.547 41.734 300.613 41.7874C300.693 41.8274 300.76 41.8941 300.813 41.9474C301.067 42.2007 301.213 42.5474 301.213 42.894C301.213 43.254 301.067 43.5874 300.813 43.8407C300.56 44.0941 300.227 44.2274 299.88 44.2274Z" fill="#E8B600"/>
<path d="M305.201 44.2266C304.854 44.2266 304.521 44.0933 304.267 43.84C304.014 43.5866 303.867 43.2533 303.867 42.8933C303.867 42.8 303.881 42.72 303.894 42.6266C303.921 42.5466 303.947 42.4666 303.974 42.3866C304.014 42.3066 304.054 42.2266 304.094 42.1466C304.147 42.08 304.201 42.0133 304.267 41.9466C304.387 41.8266 304.534 41.7333 304.694 41.6666C305.187 41.4666 305.774 41.5733 306.147 41.9466C306.401 42.2 306.534 42.5466 306.534 42.8933C306.534 43.2533 306.401 43.5866 306.147 43.84C306.027 43.96 305.881 44.0533 305.721 44.12C305.561 44.1866 305.387 44.2266 305.201 44.2266Z" fill="#E8B600"/>
<path d="M310.533 44.2266C310.36 44.2266 310.186 44.1866 310.026 44.12C309.866 44.0533 309.72 43.96 309.6 43.84C309.346 43.5866 309.213 43.2533 309.213 42.8933C309.213 42.5466 309.346 42.2 309.6 41.9466C309.96 41.5733 310.56 41.4666 311.053 41.6666C311.213 41.7333 311.36 41.8266 311.48 41.9466C311.733 42.2 311.866 42.5466 311.866 42.8933C311.866 43.2533 311.733 43.5866 311.48 43.84C311.226 44.0933 310.893 44.2266 310.533 44.2266Z" fill="#E8B600"/>
</g>
</g>
<path d="M279.383 67C279.287 67 279.214 66.974 279.162 66.922C279.11 66.8613 279.084 66.7877 279.084 66.701V58.212C279.084 58.1167 279.11 58.043 279.162 57.991C279.214 57.9303 279.287 57.9 279.383 57.9H284.687C284.782 57.9 284.856 57.9303 284.908 57.991C284.96 58.043 284.986 58.1167 284.986 58.212V58.732C284.986 58.8273 284.96 58.901 284.908 58.953C284.856 59.005 284.782 59.031 284.687 59.031H280.345V62.06H284.427C284.522 62.06 284.596 62.0903 284.648 62.151C284.7 62.203 284.726 62.2767 284.726 62.372V62.892C284.726 62.9787 284.7 63.0523 284.648 63.113C284.596 63.165 284.522 63.191 284.427 63.191H280.345V66.701C280.345 66.7877 280.314 66.8613 280.254 66.922C280.202 66.974 280.128 67 280.033 67H279.383ZM286.805 67C286.719 67 286.645 66.974 286.584 66.922C286.532 66.8613 286.506 66.7877 286.506 66.701V60.539C286.506 60.4523 286.532 60.383 286.584 60.331C286.645 60.2703 286.719 60.24 286.805 60.24H287.429C287.516 60.24 287.585 60.2703 287.637 60.331C287.689 60.383 287.715 60.4523 287.715 60.539V66.701C287.715 66.7877 287.689 66.8613 287.637 66.922C287.585 66.974 287.516 67 287.429 67H286.805ZM286.701 58.979C286.615 58.979 286.541 58.953 286.48 58.901C286.428 58.8403 286.402 58.7667 286.402 58.68V57.978C286.402 57.8913 286.428 57.822 286.48 57.77C286.541 57.7093 286.615 57.679 286.701 57.679H287.52C287.607 57.679 287.676 57.7093 287.728 57.77C287.789 57.822 287.819 57.8913 287.819 57.978V58.68C287.819 58.7667 287.789 58.8403 287.728 58.901C287.676 58.953 287.607 58.979 287.52 58.979H286.701ZM289.954 67C289.867 67 289.794 66.974 289.733 66.922C289.681 66.8613 289.655 66.7877 289.655 66.701V60.539C289.655 60.4523 289.681 60.383 289.733 60.331C289.794 60.2703 289.867 60.24 289.954 60.24H290.565C290.652 60.24 290.721 60.2703 290.773 60.331C290.834 60.383 290.864 60.4523 290.864 60.539V61.111C291.089 60.8163 291.371 60.578 291.709 60.396C292.056 60.2053 292.498 60.11 293.035 60.11C293.598 60.11 294.075 60.2357 294.465 60.487C294.864 60.7297 295.163 61.072 295.362 61.514C295.561 61.9473 295.661 62.4543 295.661 63.035V66.701C295.661 66.7877 295.635 66.8613 295.583 66.922C295.531 66.974 295.462 67 295.375 67H294.725C294.638 67 294.565 66.974 294.504 66.922C294.452 66.8613 294.426 66.7877 294.426 66.701V63.1C294.426 62.4933 294.279 62.021 293.984 61.683C293.689 61.3363 293.256 61.163 292.684 61.163C292.147 61.163 291.713 61.3363 291.384 61.683C291.063 62.021 290.903 62.4933 290.903 63.1V66.701C290.903 66.7877 290.873 66.8613 290.812 66.922C290.76 66.974 290.691 67 290.604 67H289.954ZM299.424 67.13C298.99 67.13 298.596 67.0433 298.241 66.87C297.885 66.6967 297.599 66.4627 297.383 66.168C297.166 65.8733 297.058 65.5397 297.058 65.167C297.058 64.569 297.3 64.0923 297.786 63.737C298.271 63.3817 298.904 63.1477 299.684 63.035L301.621 62.762V62.385C301.621 61.969 301.499 61.644 301.257 61.41C301.023 61.176 300.637 61.059 300.1 61.059C299.71 61.059 299.393 61.137 299.151 61.293C298.917 61.449 298.752 61.6483 298.657 61.891C298.605 62.021 298.514 62.086 298.384 62.086H297.799C297.703 62.086 297.63 62.06 297.578 62.008C297.534 61.9473 297.513 61.878 297.513 61.8C297.513 61.67 297.56 61.5097 297.656 61.319C297.76 61.1283 297.916 60.942 298.124 60.76C298.332 60.578 298.596 60.4263 298.917 60.305C299.246 60.175 299.645 60.11 300.113 60.11C300.633 60.11 301.07 60.1793 301.426 60.318C301.781 60.448 302.058 60.6257 302.258 60.851C302.466 61.0763 302.613 61.332 302.7 61.618C302.795 61.904 302.843 62.1943 302.843 62.489V66.701C302.843 66.7877 302.812 66.8613 302.752 66.922C302.7 66.974 302.63 67 302.544 67H301.946C301.85 67 301.777 66.974 301.725 66.922C301.673 66.8613 301.647 66.7877 301.647 66.701V66.142C301.534 66.298 301.382 66.454 301.192 66.61C301.001 66.7573 300.763 66.883 300.477 66.987C300.191 67.0823 299.84 67.13 299.424 67.13ZM299.697 66.155C300.052 66.155 300.377 66.0813 300.672 65.934C300.966 65.778 301.196 65.5397 301.361 65.219C301.534 64.8983 301.621 64.4953 301.621 64.01V63.646L300.113 63.867C299.497 63.9537 299.034 64.101 298.722 64.309C298.41 64.5083 298.254 64.764 298.254 65.076C298.254 65.3187 298.323 65.5223 298.462 65.687C298.609 65.843 298.791 65.96 299.008 66.038C299.233 66.116 299.463 66.155 299.697 66.155ZM305.011 67C304.924 67 304.85 66.974 304.79 66.922C304.738 66.8613 304.712 66.7877 304.712 66.701V60.539C304.712 60.4523 304.738 60.383 304.79 60.331C304.85 60.2703 304.924 60.24 305.011 60.24H305.622C305.708 60.24 305.778 60.2703 305.83 60.331C305.89 60.383 305.921 60.4523 305.921 60.539V61.111C306.146 60.8163 306.428 60.578 306.766 60.396C307.112 60.2053 307.554 60.11 308.092 60.11C308.655 60.11 309.132 60.2357 309.522 60.487C309.92 60.7297 310.219 61.072 310.419 61.514C310.618 61.9473 310.718 62.4543 310.718 63.035V66.701C310.718 66.7877 310.692 66.8613 310.64 66.922C310.588 66.974 310.518 67 310.432 67H309.782C309.695 67 309.621 66.974 309.561 66.922C309.509 66.8613 309.483 66.7877 309.483 66.701V63.1C309.483 62.4933 309.335 62.021 309.041 61.683C308.746 61.3363 308.313 61.163 307.741 61.163C307.203 61.163 306.77 61.3363 306.441 61.683C306.12 62.021 305.96 62.4933 305.96 63.1V66.701C305.96 66.7877 305.929 66.8613 305.869 66.922C305.817 66.974 305.747 67 305.661 67H305.011ZM312.465 67C312.379 67 312.305 66.974 312.244 66.922C312.192 66.8613 312.166 66.7877 312.166 66.701V66.246C312.166 66.168 312.184 66.0943 312.218 66.025C312.262 65.9557 312.305 65.8907 312.348 65.83L315.936 61.267H312.582C312.496 61.267 312.422 61.241 312.361 61.189C312.309 61.137 312.283 61.0633 312.283 60.968V60.539C312.283 60.4523 312.309 60.383 312.361 60.331C312.422 60.2703 312.496 60.24 312.582 60.24H317.21C317.297 60.24 317.366 60.2703 317.418 60.331C317.479 60.383 317.509 60.4523 317.509 60.539V61.02C317.509 61.098 317.488 61.1673 317.444 61.228C317.41 61.2887 317.371 61.3537 317.327 61.423L313.778 65.973H317.47C317.557 65.973 317.626 65.999 317.678 66.051C317.739 66.103 317.769 66.1767 317.769 66.272V66.701C317.769 66.7877 317.739 66.8613 317.678 66.922C317.626 66.974 317.557 67 317.47 67H312.465ZM321.095 67.13C320.661 67.13 320.267 67.0433 319.912 66.87C319.556 66.6967 319.27 66.4627 319.054 66.168C318.837 65.8733 318.729 65.5397 318.729 65.167C318.729 64.569 318.971 64.0923 319.457 63.737C319.942 63.3817 320.575 63.1477 321.355 63.035L323.292 62.762V62.385C323.292 61.969 323.17 61.644 322.928 61.41C322.694 61.176 322.308 61.059 321.771 61.059C321.381 61.059 321.064 61.137 320.822 61.293C320.588 61.449 320.423 61.6483 320.328 61.891C320.276 62.021 320.185 62.086 320.055 62.086H319.47C319.374 62.086 319.301 62.06 319.249 62.008C319.205 61.9473 319.184 61.878 319.184 61.8C319.184 61.67 319.231 61.5097 319.327 61.319C319.431 61.1283 319.587 60.942 319.795 60.76C320.003 60.578 320.267 60.4263 320.588 60.305C320.917 60.175 321.316 60.11 321.784 60.11C322.304 60.11 322.741 60.1793 323.097 60.318C323.452 60.448 323.729 60.6257 323.929 60.851C324.137 61.0763 324.284 61.332 324.371 61.618C324.466 61.904 324.514 62.1943 324.514 62.489V66.701C324.514 66.7877 324.483 66.8613 324.423 66.922C324.371 66.974 324.301 67 324.215 67H323.617C323.521 67 323.448 66.974 323.396 66.922C323.344 66.8613 323.318 66.7877 323.318 66.701V66.142C323.205 66.298 323.053 66.454 322.863 66.61C322.672 66.7573 322.434 66.883 322.148 66.987C321.862 67.0823 321.511 67.13 321.095 67.13ZM321.368 66.155C321.723 66.155 322.048 66.0813 322.343 65.934C322.637 65.778 322.867 65.5397 323.032 65.219C323.205 64.8983 323.292 64.4953 323.292 64.01V63.646L321.784 63.867C321.168 63.9537 320.705 64.101 320.393 64.309C320.081 64.5083 319.925 64.764 319.925 65.076C319.925 65.3187 319.994 65.5223 320.133 65.687C320.28 65.843 320.462 65.96 320.679 66.038C320.904 66.116 321.134 66.155 321.368 66.155ZM328.722 67.13C328.237 67.13 327.821 67.0693 327.474 66.948C327.128 66.8267 326.846 66.6793 326.629 66.506C326.413 66.3327 326.248 66.1593 326.135 65.986C326.031 65.8127 325.975 65.674 325.966 65.57C325.958 65.4747 325.988 65.401 326.057 65.349C326.127 65.297 326.196 65.271 326.265 65.271H326.837C326.889 65.271 326.928 65.2797 326.954 65.297C326.989 65.3057 327.032 65.3403 327.084 65.401C327.197 65.5223 327.323 65.6437 327.461 65.765C327.6 65.8863 327.769 65.986 327.968 66.064C328.176 66.142 328.432 66.181 328.735 66.181C329.177 66.181 329.541 66.0987 329.827 65.934C330.113 65.7607 330.256 65.5093 330.256 65.18C330.256 64.9633 330.196 64.79 330.074 64.66C329.962 64.53 329.754 64.413 329.45 64.309C329.156 64.205 328.748 64.0967 328.228 63.984C327.708 63.8627 327.297 63.7153 326.993 63.542C326.69 63.36 326.473 63.1477 326.343 62.905C326.213 62.6537 326.148 62.372 326.148 62.06C326.148 61.7393 326.244 61.4317 326.434 61.137C326.625 60.8337 326.902 60.5867 327.266 60.396C327.639 60.2053 328.103 60.11 328.657 60.11C329.108 60.11 329.494 60.1663 329.814 60.279C330.135 60.3917 330.399 60.5347 330.607 60.708C330.815 60.8727 330.971 61.0373 331.075 61.202C331.179 61.3667 331.236 61.5053 331.244 61.618C331.253 61.7047 331.227 61.7783 331.166 61.839C331.106 61.891 331.036 61.917 330.958 61.917H330.412C330.352 61.917 330.3 61.904 330.256 61.878C330.222 61.852 330.187 61.8217 330.152 61.787C330.066 61.6743 329.962 61.5617 329.84 61.449C329.728 61.3363 329.576 61.2453 329.385 61.176C329.203 61.098 328.961 61.059 328.657 61.059C328.224 61.059 327.899 61.15 327.682 61.332C327.466 61.514 327.357 61.7437 327.357 62.021C327.357 62.1857 327.405 62.333 327.5 62.463C327.596 62.593 327.778 62.71 328.046 62.814C328.315 62.918 328.714 63.0307 329.242 63.152C329.814 63.2647 330.265 63.4163 330.594 63.607C330.924 63.7977 331.158 64.0187 331.296 64.27C331.435 64.5213 331.504 64.8117 331.504 65.141C331.504 65.505 331.396 65.8387 331.179 66.142C330.971 66.4453 330.659 66.688 330.243 66.87C329.836 67.0433 329.329 67.13 328.722 67.13Z" fill="#171B22"/>
<rect x="286.5" y="74" width="37" height="25" rx="12.5" fill="#E8B600"/>
<path d="M299.342 91.14C298.67 91.14 298.086 91.0467 297.592 90.86C297.097 90.664 296.686 90.398 296.36 90.062C296.042 89.726 295.8 89.334 295.632 88.886C295.464 88.438 295.366 87.9573 295.338 87.444C295.328 87.192 295.319 86.9073 295.31 86.59C295.31 86.2633 295.31 85.9367 295.31 85.61C295.319 85.274 295.328 84.9753 295.338 84.714C295.366 84.2007 295.464 83.7247 295.632 83.286C295.809 82.838 296.061 82.4507 296.388 82.124C296.724 81.788 297.134 81.5267 297.62 81.34C298.114 81.1533 298.688 81.06 299.342 81.06C300.004 81.06 300.578 81.1533 301.064 81.34C301.549 81.5267 301.955 81.788 302.282 82.124C302.618 82.4507 302.874 82.838 303.052 83.286C303.229 83.7247 303.327 84.2007 303.346 84.714C303.364 84.9753 303.374 85.274 303.374 85.61C303.383 85.9367 303.383 86.2633 303.374 86.59C303.374 86.9073 303.364 87.192 303.346 87.444C303.327 87.9573 303.229 88.438 303.052 88.886C302.884 89.334 302.636 89.726 302.31 90.062C301.992 90.398 301.586 90.664 301.092 90.86C300.606 91.0467 300.023 91.14 299.342 91.14ZM299.342 89.11C299.827 89.11 300.177 88.956 300.392 88.648C300.616 88.3307 300.732 87.906 300.742 87.374C300.76 87.1033 300.77 86.8187 300.77 86.52C300.779 86.2213 300.779 85.9227 300.77 85.624C300.77 85.3253 300.76 85.05 300.742 84.798C300.732 84.2847 300.616 83.8693 300.392 83.552C300.177 83.2347 299.827 83.0713 299.342 83.062C298.856 83.0713 298.506 83.2347 298.292 83.552C298.077 83.8693 297.96 84.2847 297.942 84.798C297.932 85.05 297.923 85.3253 297.914 85.624C297.914 85.9227 297.914 86.2213 297.914 86.52C297.923 86.8187 297.932 87.1033 297.942 87.374C297.96 87.906 298.082 88.3307 298.306 88.648C298.53 88.956 298.875 89.11 299.342 89.11ZM305.679 91C305.465 91 305.357 90.9067 305.357 90.72C305.357 90.664 305.376 90.6127 305.413 90.566L312.329 81.466C312.395 81.382 312.46 81.3167 312.525 81.27C312.591 81.2233 312.689 81.2 312.819 81.2H313.813C314.028 81.2 314.135 81.2933 314.135 81.48C314.135 81.536 314.117 81.5873 314.079 81.634L307.163 90.734C307.098 90.818 307.033 90.8833 306.967 90.93C306.902 90.9767 306.804 91 306.673 91H305.679ZM312.721 91.07C312.087 91.07 311.578 90.902 311.195 90.566C310.822 90.23 310.612 89.782 310.565 89.222C310.556 88.9793 310.551 88.7647 310.551 88.578C310.551 88.3913 310.556 88.1673 310.565 87.906C310.603 87.3367 310.803 86.884 311.167 86.548C311.541 86.2027 312.059 86.03 312.721 86.03C313.393 86.03 313.911 86.2027 314.275 86.548C314.639 86.884 314.84 87.3367 314.877 87.906C314.896 88.1673 314.905 88.3913 314.905 88.578C314.905 88.7647 314.896 88.9793 314.877 89.222C314.84 89.782 314.63 90.23 314.247 90.566C313.865 90.902 313.356 91.07 312.721 91.07ZM312.721 89.838C312.88 89.838 313.001 89.8053 313.085 89.74C313.179 89.6747 313.249 89.5907 313.295 89.488C313.342 89.376 313.365 89.2593 313.365 89.138C313.384 88.9233 313.393 88.7273 313.393 88.55C313.393 88.3727 313.384 88.1813 313.365 87.976C313.356 87.7987 313.305 87.64 313.211 87.5C313.118 87.3507 312.955 87.276 312.721 87.276C312.488 87.276 312.325 87.3507 312.231 87.5C312.138 87.64 312.087 87.7987 312.077 87.976C312.068 88.1813 312.063 88.3727 312.063 88.55C312.063 88.7273 312.068 88.9233 312.077 89.138C312.087 89.2593 312.11 89.376 312.147 89.488C312.194 89.5907 312.264 89.6747 312.357 89.74C312.451 89.8053 312.572 89.838 312.721 89.838ZM306.799 86.142C306.155 86.142 305.642 85.9787 305.259 85.652C304.886 85.316 304.681 84.868 304.643 84.308C304.625 84.0653 304.615 83.8553 304.615 83.678C304.625 83.4913 304.634 83.2673 304.643 83.006C304.671 82.4367 304.867 81.984 305.231 81.648C305.605 81.3027 306.127 81.13 306.799 81.13C307.471 81.13 307.989 81.3027 308.353 81.648C308.717 81.984 308.913 82.4367 308.941 83.006C308.96 83.2673 308.969 83.4913 308.969 83.678C308.969 83.8553 308.96 84.0653 308.941 84.308C308.913 84.868 308.708 85.316 308.325 85.652C307.943 85.9787 307.434 86.142 306.799 86.142ZM306.799 84.938C306.949 84.938 307.07 84.9053 307.163 84.84C307.257 84.7653 307.327 84.6767 307.373 84.574C307.42 84.462 307.443 84.35 307.443 84.238C307.462 84.0233 307.471 83.8273 307.471 83.65C307.471 83.4727 307.462 83.2813 307.443 83.076C307.434 82.8987 307.378 82.74 307.275 82.6C307.182 82.4507 307.023 82.376 306.799 82.376C306.566 82.376 306.398 82.4507 306.295 82.6C306.202 82.74 306.151 82.8987 306.141 83.076C306.132 83.2813 306.127 83.4727 306.127 83.65C306.127 83.8273 306.132 84.0233 306.141 84.238C306.151 84.35 306.174 84.462 306.211 84.574C306.258 84.6767 306.328 84.7653 306.421 84.84C306.515 84.9053 306.641 84.938 306.799 84.938Z" fill="white"/>
<g filter="url(#filter0_d_15958_19599)">
<rect x="334" y="14" width="32" height="32" rx="16" fill="white"/>
<rect x="333" y="13" width="34" height="34" rx="17" stroke="#1DA534" stroke-width="2"/>
<path opacity="0.4" d="M349.999 32.8398C350.485 32.8398 350.879 33.2338 350.879 33.7197C350.879 34.2057 350.485 34.5996 349.999 34.5996C349.513 34.5995 349.119 34.2057 349.119 33.7197C349.119 33.2338 349.513 32.8399 349.999 32.8398Z" fill="#1DA534" stroke="#1DA534" stroke-width="1.5"/>
<path d="M345.35 28.1899H354.65C356.674 28.19 357.735 28.5109 358.332 29.1079C358.929 29.7049 359.25 30.7662 359.25 32.7896V34.6499C359.25 36.6735 358.929 37.7355 358.332 38.3325C357.735 38.9294 356.673 39.2495 354.65 39.2495H345.35C343.327 39.2495 342.265 38.9294 341.668 38.3325C341.071 37.7355 340.75 36.6735 340.75 34.6499V32.7896C340.75 30.7662 341.071 29.7049 341.668 29.1079C342.265 28.5109 343.326 28.19 345.35 28.1899ZM350 29.9497C347.914 29.9497 346.23 31.6476 346.23 33.7202C346.231 35.7927 347.914 37.4897 350 37.4897C352.086 37.4897 353.769 35.7927 353.77 33.7202C353.77 31.6476 352.086 29.9497 350 29.9497Z" fill="#1DA534" stroke="#1DA534" stroke-width="1.5"/>
<g opacity="0.4">
<mask id="path-18-inside-1_15958_19599" fill="white">
<path d="M345.121 27.45V26.28C345.121 23.35 345.951 21.4 350.001 21.4C354.051 21.4 354.881 23.35 354.881 26.28V27.45C355.391 27.46 355.851 27.48 356.281 27.54V26.28C356.281 23.58 355.631 20 350.001 20C344.371 20 343.721 23.58 343.721 26.28V27.53C344.141 27.48 344.611 27.45 345.121 27.45Z"/>
</mask>
<path d="M345.121 27.45V26.28C345.121 23.35 345.951 21.4 350.001 21.4C354.051 21.4 354.881 23.35 354.881 26.28V27.45C355.391 27.46 355.851 27.48 356.281 27.54V26.28C356.281 23.58 355.631 20 350.001 20C344.371 20 343.721 23.58 343.721 26.28V27.53C344.141 27.48 344.611 27.45 345.121 27.45Z" fill="#1DA534"/>
<path d="M345.121 27.45V28.95H346.621V27.45H345.121ZM354.881 27.45H353.381V28.9209L354.851 28.9497L354.881 27.45ZM356.281 27.54L356.073 29.0256L357.781 29.2638V27.54H356.281ZM356.281 26.28H354.781H356.281ZM343.721 27.53H342.221V29.2192L343.898 29.0195L343.721 27.53ZM345.121 27.45H346.621V26.28H345.121H343.621V27.45H345.121ZM345.121 26.28H346.621C346.621 24.8831 346.837 24.1294 347.193 23.7033C347.498 23.3385 348.182 22.9 350.001 22.9V21.4V19.9C347.769 19.9 346.014 20.4365 344.891 21.7792C343.82 23.0606 343.621 24.7469 343.621 26.28H345.121ZM350.001 21.4V22.9C351.819 22.9 352.504 23.3385 352.809 23.7033C353.165 24.1294 353.381 24.8831 353.381 26.28H354.881H356.381C356.381 24.7469 356.182 23.0606 355.11 21.7792C353.988 20.4365 352.232 19.9 350.001 19.9V21.4ZM354.881 26.28H353.381V27.45H354.881H356.381V26.28H354.881ZM354.881 27.45L354.851 28.9497C355.349 28.9595 355.735 28.9785 356.073 29.0256L356.281 27.54L356.488 26.0544C355.966 25.9815 355.433 25.9605 354.91 25.9503L354.881 27.45ZM356.281 27.54H357.781V26.28H356.281H354.781V27.54H356.281ZM356.281 26.28H357.781C357.781 24.8668 357.625 22.8955 356.479 21.265C355.257 19.5254 353.156 18.5 350.001 18.5V20V21.5C352.475 21.5 353.515 22.2646 354.025 22.99C354.611 23.8245 354.781 24.9932 354.781 26.28H356.281ZM350.001 20V18.5C346.845 18.5 344.745 19.5254 343.522 21.265C342.376 22.8955 342.221 24.8668 342.221 26.28H343.721H345.221C345.221 24.9932 345.39 23.8245 345.977 22.99C346.487 22.2646 347.526 21.5 350.001 21.5V20ZM343.721 26.28H342.221V27.53H343.721H345.221V26.28H343.721ZM343.721 27.53L343.898 29.0195C344.258 28.9766 344.669 28.95 345.121 28.95V27.45V25.95C344.552 25.95 344.023 25.9834 343.543 26.0405L343.721 27.53Z" fill="#1DA534" mask="url(#path-18-inside-1_15958_19599)"/>
</g>
</g>
</g>
<defs>
<filter id="filter0_d_15958_19599" x="317" y="5" width="66" height="66" filterUnits="userSpaceOnUse" color-interpolation-filters="sRGB">
<feFlood flood-opacity="0" result="BackgroundImageFix"/>
<feColorMatrix in="SourceAlpha" type="matrix" values="0 0 0 0 0 0 0 0 0 0 0 0 0 0 0 0 0 0 127 0" result="hardAlpha"/>
<feOffset dy="8"/>
<feGaussianBlur stdDeviation="7.5"/>
<feColorMatrix type="matrix" values="0 0 0 0 0 0 0 0 0 0 0 0 0 0 0 0 0 0 0.25 0"/>
<feBlend mode="normal" in2="BackgroundImageFix" result="effect1_dropShadow_15958_19599"/>
<feBlend mode="normal" in="SourceGraphic" in2="effect1_dropShadow_15958_19599" result="shape"/>
</filter>
<clipPath id="clip0_15958_19599">
<rect width="32" height="32" fill="white" transform="translate(289 19)"/>
</clipPath>
</defs>
</svg>
