<svg width="351" height="118" viewBox="0 0 351 118" fill="none" xmlns="http://www.w3.org/2000/svg">
<g style="mix-blend-mode:luminosity">
<rect x="170" y="2" width="114" height="114" rx="57" fill="white"/>
<rect x="170" y="2" width="114" height="114" rx="57" stroke="#DEE2E6" stroke-width="4"/>
<g clip-path="url(#clip0_15958_19595)">
<mask id="mask0_15958_19595" style="mask-type:luminance" maskUnits="userSpaceOnUse" x="211" y="11" width="32" height="33">
<path d="M243 11.5H211V43.5H243V11.5Z" fill="white"/>
</mask>
<g mask="url(#mask0_15958_19595)">
<path opacity="0.4" d="M240.333 23.0865C240.306 32.4199 231.679 37.8999 227.826 39.2332C227.386 39.3799 226.639 39.3799 226.173 39.2332C223.133 38.2199 217.119 34.5665 214.706 28.4999C214.453 27.8732 214.239 27.2065 214.066 26.5132C213.813 25.4332 213.666 24.2998 213.666 23.0865C213.666 18.9665 216.986 15.6465 221.079 15.6465C223.506 15.6465 225.639 16.8332 226.999 18.6465C228.333 16.8332 230.493 15.6465 232.919 15.6465C237.013 15.6465 240.333 18.9665 240.333 23.0865Z" fill="#2D68F8"/>
<path d="M233.666 26.5H231.413C230.786 26.5 230.226 26.8466 229.92 27.42L228.333 30.5933L224.466 22.8599C224.186 22.2999 223.626 21.9533 223 21.9399C222.986 21.9399 222.986 21.9399 222.973 21.9399C222.36 21.9399 221.786 22.2866 221.506 22.8199L219.52 26.5L214.066 26.5133C214.24 27.2066 214.453 27.8733 214.706 28.5H219.72C220.36 28.5 220.92 28.1533 221.186 27.6333L222.96 24.3399L226.84 32.0866C227.12 32.66 227.68 33.02 228.333 33.02C228.973 33.02 229.533 32.66 229.813 32.1L231.613 28.5H233.666C234.213 28.5 234.666 28.0466 234.666 27.5C234.666 26.9533 234.213 26.5 233.666 26.5Z" fill="#2D68F8"/>
</g>
</g>
<path d="M196.768 59.63C195.971 59.63 195.308 59.4827 194.779 59.188C194.259 58.8933 193.865 58.4817 193.596 57.953C193.327 57.4243 193.18 56.809 193.154 56.107C193.145 55.7517 193.141 55.3703 193.141 54.963C193.141 54.5557 193.145 54.1657 193.154 53.793C193.18 53.091 193.327 52.4757 193.596 51.947C193.865 51.4183 194.259 51.0067 194.779 50.712C195.308 50.4173 195.971 50.27 196.768 50.27C197.366 50.27 197.89 50.3523 198.341 50.517C198.792 50.6817 199.164 50.9027 199.459 51.18C199.762 51.4573 199.992 51.7693 200.148 52.116C200.304 52.454 200.391 52.805 200.408 53.169C200.417 53.247 200.391 53.312 200.33 53.364C200.278 53.416 200.213 53.442 200.135 53.442H199.42C199.342 53.442 199.273 53.4203 199.212 53.377C199.16 53.3337 199.121 53.2557 199.095 53.143C198.948 52.467 198.67 52.0033 198.263 51.752C197.864 51.5007 197.362 51.375 196.755 51.375C196.062 51.375 195.511 51.5743 195.104 51.973C194.697 52.363 194.476 52.9913 194.441 53.858C194.415 54.5687 194.415 55.2967 194.441 56.042C194.476 56.9087 194.697 57.5413 195.104 57.94C195.511 58.33 196.062 58.525 196.755 58.525C197.362 58.525 197.864 58.3993 198.263 58.148C198.67 57.8967 198.948 57.433 199.095 56.757C199.121 56.6443 199.16 56.5663 199.212 56.523C199.273 56.4797 199.342 56.458 199.42 56.458H200.135C200.213 56.458 200.278 56.484 200.33 56.536C200.391 56.588 200.417 56.653 200.408 56.731C200.391 57.095 200.304 57.4503 200.148 57.797C199.992 58.135 199.762 58.4427 199.459 58.72C199.164 58.9973 198.792 59.2183 198.341 59.383C197.89 59.5477 197.366 59.63 196.768 59.63ZM202.28 59.5C202.193 59.5 202.12 59.474 202.059 59.422C202.007 59.3613 201.981 59.2877 201.981 59.201V53.039C201.981 52.9523 202.007 52.883 202.059 52.831C202.12 52.7703 202.193 52.74 202.28 52.74H202.904C202.991 52.74 203.06 52.7703 203.112 52.831C203.164 52.883 203.19 52.9523 203.19 53.039V59.201C203.19 59.2877 203.164 59.3613 203.112 59.422C203.06 59.474 202.991 59.5 202.904 59.5H202.28ZM202.176 51.479C202.089 51.479 202.016 51.453 201.955 51.401C201.903 51.3403 201.877 51.2667 201.877 51.18V50.478C201.877 50.3913 201.903 50.322 201.955 50.27C202.016 50.2093 202.089 50.179 202.176 50.179H202.995C203.082 50.179 203.151 50.2093 203.203 50.27C203.264 50.322 203.294 50.3913 203.294 50.478V51.18C203.294 51.2667 203.264 51.3403 203.203 51.401C203.151 51.453 203.082 51.479 202.995 51.479H202.176ZM207.82 59.63C206.928 59.63 206.217 59.357 205.688 58.811C205.16 58.2563 204.869 57.5023 204.817 56.549C204.809 56.4363 204.804 56.2933 204.804 56.12C204.804 55.938 204.809 55.7907 204.817 55.678C204.852 55.0627 204.995 54.5253 205.246 54.066C205.498 53.598 205.84 53.2383 206.273 52.987C206.715 52.7357 207.231 52.61 207.82 52.61C208.479 52.61 209.029 52.7487 209.471 53.026C209.922 53.3033 210.264 53.6977 210.498 54.209C210.732 54.7203 210.849 55.3183 210.849 56.003V56.224C210.849 56.3193 210.819 56.393 210.758 56.445C210.706 56.497 210.637 56.523 210.55 56.523H206.052C206.052 56.5317 206.052 56.549 206.052 56.575C206.052 56.601 206.052 56.6227 206.052 56.64C206.07 56.9953 206.148 57.329 206.286 57.641C206.425 57.9443 206.624 58.1913 206.884 58.382C207.144 58.5727 207.456 58.668 207.82 58.668C208.132 58.668 208.392 58.6203 208.6 58.525C208.808 58.4297 208.977 58.3257 209.107 58.213C209.237 58.0917 209.324 58.0007 209.367 57.94C209.445 57.8273 209.506 57.7623 209.549 57.745C209.593 57.719 209.662 57.706 209.757 57.706H210.381C210.468 57.706 210.537 57.732 210.589 57.784C210.65 57.8273 210.676 57.8923 210.667 57.979C210.659 58.109 210.589 58.2693 210.459 58.46C210.329 58.642 210.143 58.824 209.9 59.006C209.658 59.188 209.363 59.3397 209.016 59.461C208.67 59.5737 208.271 59.63 207.82 59.63ZM206.052 55.626H209.614V55.587C209.614 55.197 209.541 54.8503 209.393 54.547C209.255 54.2437 209.051 54.0053 208.782 53.832C208.514 53.65 208.193 53.559 207.82 53.559C207.448 53.559 207.127 53.65 206.858 53.832C206.598 54.0053 206.399 54.2437 206.26 54.547C206.122 54.8503 206.052 55.197 206.052 55.587V55.626ZM212.703 59.5C212.616 59.5 212.543 59.474 212.482 59.422C212.43 59.3613 212.404 59.2877 212.404 59.201V53.039C212.404 52.9523 212.43 52.883 212.482 52.831C212.543 52.7703 212.616 52.74 212.703 52.74H213.314C213.401 52.74 213.47 52.7703 213.522 52.831C213.583 52.883 213.613 52.9523 213.613 53.039V53.611C213.838 53.3163 214.12 53.078 214.458 52.896C214.805 52.7053 215.247 52.61 215.784 52.61C216.347 52.61 216.824 52.7357 217.214 52.987C217.613 53.2297 217.912 53.572 218.111 54.014C218.31 54.4473 218.41 54.9543 218.41 55.535V59.201C218.41 59.2877 218.384 59.3613 218.332 59.422C218.28 59.474 218.211 59.5 218.124 59.5H217.474C217.387 59.5 217.314 59.474 217.253 59.422C217.201 59.3613 217.175 59.2877 217.175 59.201V55.6C217.175 54.9933 217.028 54.521 216.733 54.183C216.438 53.8363 216.005 53.663 215.433 53.663C214.896 53.663 214.462 53.8363 214.133 54.183C213.812 54.521 213.652 54.9933 213.652 55.6V59.201C213.652 59.2877 213.622 59.3613 213.561 59.422C213.509 59.474 213.44 59.5 213.353 59.5H212.703ZM223.018 59.63C222.402 59.63 221.869 59.513 221.419 59.279C220.977 59.0363 220.634 58.694 220.392 58.252C220.149 57.8013 220.019 57.264 220.002 56.64C219.993 56.51 219.989 56.3367 219.989 56.12C219.989 55.9033 219.993 55.73 220.002 55.6C220.019 54.976 220.149 54.443 220.392 54.001C220.634 53.5503 220.977 53.208 221.419 52.974C221.869 52.7313 222.402 52.61 223.018 52.61C223.52 52.61 223.949 52.6793 224.305 52.818C224.669 52.9567 224.968 53.1343 225.202 53.351C225.436 53.5677 225.609 53.8017 225.722 54.053C225.843 54.3043 225.908 54.5427 225.917 54.768C225.925 54.8547 225.899 54.924 225.839 54.976C225.778 55.028 225.704 55.054 225.618 55.054H224.994C224.907 55.054 224.842 55.0367 224.799 55.002C224.755 54.9587 224.712 54.8893 224.669 54.794C224.513 54.3693 224.3 54.0703 224.032 53.897C223.763 53.7237 223.429 53.637 223.031 53.637C222.511 53.637 222.086 53.7973 221.757 54.118C221.436 54.4387 221.263 54.9543 221.237 55.665C221.228 55.977 221.228 56.2803 221.237 56.575C221.263 57.2943 221.436 57.8143 221.757 58.135C222.086 58.447 222.511 58.603 223.031 58.603C223.429 58.603 223.763 58.5163 224.032 58.343C224.3 58.1697 224.513 57.8707 224.669 57.446C224.712 57.3507 224.755 57.2857 224.799 57.251C224.842 57.2077 224.907 57.186 224.994 57.186H225.618C225.704 57.186 225.778 57.212 225.839 57.264C225.899 57.316 225.925 57.3853 225.917 57.472C225.908 57.654 225.869 57.8403 225.8 58.031C225.73 58.2217 225.618 58.4167 225.462 58.616C225.314 58.8067 225.128 58.98 224.903 59.136C224.677 59.2833 224.404 59.4047 224.084 59.5C223.772 59.5867 223.416 59.63 223.018 59.63ZM227.76 59.5C227.673 59.5 227.599 59.474 227.539 59.422C227.487 59.3613 227.461 59.2877 227.461 59.201V53.039C227.461 52.9523 227.487 52.883 227.539 52.831C227.599 52.7703 227.673 52.74 227.76 52.74H228.384C228.47 52.74 228.54 52.7703 228.592 52.831C228.644 52.883 228.67 52.9523 228.67 53.039V59.201C228.67 59.2877 228.644 59.3613 228.592 59.422C228.54 59.474 228.47 59.5 228.384 59.5H227.76ZM227.656 51.479C227.569 51.479 227.495 51.453 227.435 51.401C227.383 51.3403 227.357 51.2667 227.357 51.18V50.478C227.357 50.3913 227.383 50.322 227.435 50.27C227.495 50.2093 227.569 50.179 227.656 50.179H228.475C228.561 50.179 228.631 50.2093 228.683 50.27C228.743 50.322 228.774 50.3913 228.774 50.478V51.18C228.774 51.2667 228.743 51.3403 228.683 51.401C228.631 51.453 228.561 51.479 228.475 51.479H227.656ZM232.494 59.63C232.061 59.63 231.666 59.5433 231.311 59.37C230.956 59.1967 230.67 58.9627 230.453 58.668C230.236 58.3733 230.128 58.0397 230.128 57.667C230.128 57.069 230.371 56.5923 230.856 56.237C231.341 55.8817 231.974 55.6477 232.754 55.535L234.691 55.262V54.885C234.691 54.469 234.57 54.144 234.327 53.91C234.093 53.676 233.707 53.559 233.17 53.559C232.78 53.559 232.464 53.637 232.221 53.793C231.987 53.949 231.822 54.1483 231.727 54.391C231.675 54.521 231.584 54.586 231.454 54.586H230.869C230.774 54.586 230.7 54.56 230.648 54.508C230.605 54.4473 230.583 54.378 230.583 54.3C230.583 54.17 230.631 54.0097 230.726 53.819C230.83 53.6283 230.986 53.442 231.194 53.26C231.402 53.078 231.666 52.9263 231.987 52.805C232.316 52.675 232.715 52.61 233.183 52.61C233.703 52.61 234.141 52.6793 234.496 52.818C234.851 52.948 235.129 53.1257 235.328 53.351C235.536 53.5763 235.683 53.832 235.77 54.118C235.865 54.404 235.913 54.6943 235.913 54.989V59.201C235.913 59.2877 235.883 59.3613 235.822 59.422C235.77 59.474 235.701 59.5 235.614 59.5H235.016C234.921 59.5 234.847 59.474 234.795 59.422C234.743 59.3613 234.717 59.2877 234.717 59.201V58.642C234.604 58.798 234.453 58.954 234.262 59.11C234.071 59.2573 233.833 59.383 233.547 59.487C233.261 59.5823 232.91 59.63 232.494 59.63ZM232.767 58.655C233.122 58.655 233.447 58.5813 233.742 58.434C234.037 58.278 234.266 58.0397 234.431 57.719C234.604 57.3983 234.691 56.9953 234.691 56.51V56.146L233.183 56.367C232.568 56.4537 232.104 56.601 231.792 56.809C231.48 57.0083 231.324 57.264 231.324 57.576C231.324 57.8187 231.393 58.0223 231.532 58.187C231.679 58.343 231.861 58.46 232.078 58.538C232.303 58.616 232.533 58.655 232.767 58.655ZM240.122 59.63C239.636 59.63 239.22 59.5693 238.874 59.448C238.527 59.3267 238.245 59.1793 238.029 59.006C237.812 58.8327 237.647 58.6593 237.535 58.486C237.431 58.3127 237.374 58.174 237.366 58.07C237.357 57.9747 237.387 57.901 237.457 57.849C237.526 57.797 237.595 57.771 237.665 57.771H238.237C238.289 57.771 238.328 57.7797 238.354 57.797C238.388 57.8057 238.432 57.8403 238.484 57.901C238.596 58.0223 238.722 58.1437 238.861 58.265C238.999 58.3863 239.168 58.486 239.368 58.564C239.576 58.642 239.831 58.681 240.135 58.681C240.577 58.681 240.941 58.5987 241.227 58.434C241.513 58.2607 241.656 58.0093 241.656 57.68C241.656 57.4633 241.595 57.29 241.474 57.16C241.361 57.03 241.153 56.913 240.85 56.809C240.555 56.705 240.148 56.5967 239.628 56.484C239.108 56.3627 238.696 56.2153 238.393 56.042C238.089 55.86 237.873 55.6477 237.743 55.405C237.613 55.1537 237.548 54.872 237.548 54.56C237.548 54.2393 237.643 53.9317 237.834 53.637C238.024 53.3337 238.302 53.0867 238.666 52.896C239.038 52.7053 239.502 52.61 240.057 52.61C240.507 52.61 240.893 52.6663 241.214 52.779C241.534 52.8917 241.799 53.0347 242.007 53.208C242.215 53.3727 242.371 53.5373 242.475 53.702C242.579 53.8667 242.635 54.0053 242.644 54.118C242.652 54.2047 242.626 54.2783 242.566 54.339C242.505 54.391 242.436 54.417 242.358 54.417H241.812C241.751 54.417 241.699 54.404 241.656 54.378C241.621 54.352 241.586 54.3217 241.552 54.287C241.465 54.1743 241.361 54.0617 241.24 53.949C241.127 53.8363 240.975 53.7453 240.785 53.676C240.603 53.598 240.36 53.559 240.057 53.559C239.623 53.559 239.298 53.65 239.082 53.832C238.865 54.014 238.757 54.2437 238.757 54.521C238.757 54.6857 238.804 54.833 238.9 54.963C238.995 55.093 239.177 55.21 239.446 55.314C239.714 55.418 240.113 55.5307 240.642 55.652C241.214 55.7647 241.664 55.9163 241.994 56.107C242.323 56.2977 242.557 56.5187 242.696 56.77C242.834 57.0213 242.904 57.3117 242.904 57.641C242.904 58.005 242.795 58.3387 242.579 58.642C242.371 58.9453 242.059 59.188 241.643 59.37C241.235 59.5433 240.728 59.63 240.122 59.63ZM250.065 59.63C249.589 59.63 249.177 59.5477 248.83 59.383C248.484 59.2097 248.198 58.98 247.972 58.694C247.756 58.3993 247.591 58.0657 247.478 57.693C247.374 57.3203 247.314 56.926 247.296 56.51C247.288 56.3713 247.283 56.2413 247.283 56.12C247.283 55.9987 247.288 55.8687 247.296 55.73C247.314 55.3227 247.374 54.9327 247.478 54.56C247.591 54.1873 247.756 53.8537 247.972 53.559C248.198 53.2643 248.484 53.0347 248.83 52.87C249.177 52.6967 249.589 52.61 250.065 52.61C250.577 52.61 251.001 52.701 251.339 52.883C251.677 53.065 251.955 53.2903 252.171 53.559V50.569C252.171 50.4823 252.197 50.413 252.249 50.361C252.31 50.3003 252.384 50.27 252.47 50.27H253.094C253.181 50.27 253.25 50.3003 253.302 50.361C253.363 50.413 253.393 50.4823 253.393 50.569V59.201C253.393 59.2877 253.363 59.3613 253.302 59.422C253.25 59.474 253.181 59.5 253.094 59.5H252.509C252.414 59.5 252.34 59.474 252.288 59.422C252.236 59.3613 252.21 59.2877 252.21 59.201V58.655C251.994 58.9323 251.712 59.1663 251.365 59.357C251.019 59.539 250.585 59.63 250.065 59.63ZM250.338 58.577C250.772 58.577 251.118 58.4773 251.378 58.278C251.638 58.0787 251.833 57.8273 251.963 57.524C252.093 57.212 252.163 56.8957 252.171 56.575C252.18 56.4363 252.184 56.2717 252.184 56.081C252.184 55.8817 252.18 55.7127 252.171 55.574C252.163 55.2707 252.089 54.9717 251.95 54.677C251.82 54.3823 251.621 54.1397 251.352 53.949C251.092 53.7583 250.754 53.663 250.338 53.663C249.896 53.663 249.545 53.7627 249.285 53.962C249.025 54.1527 248.839 54.4083 248.726 54.729C248.614 55.041 248.549 55.379 248.531 55.743C248.523 55.9943 248.523 56.2457 248.531 56.497C248.549 56.861 248.614 57.2033 248.726 57.524C248.839 57.836 249.025 58.0917 249.285 58.291C249.545 58.4817 249.896 58.577 250.338 58.577ZM258.018 59.63C257.125 59.63 256.414 59.357 255.886 58.811C255.357 58.2563 255.067 57.5023 255.015 56.549C255.006 56.4363 255.002 56.2933 255.002 56.12C255.002 55.938 255.006 55.7907 255.015 55.678C255.049 55.0627 255.192 54.5253 255.444 54.066C255.695 53.598 256.037 53.2383 256.471 52.987C256.913 52.7357 257.428 52.61 258.018 52.61C258.676 52.61 259.227 52.7487 259.669 53.026C260.119 53.3033 260.462 53.6977 260.696 54.209C260.93 54.7203 261.047 55.3183 261.047 56.003V56.224C261.047 56.3193 261.016 56.393 260.956 56.445C260.904 56.497 260.834 56.523 260.748 56.523H256.25C256.25 56.5317 256.25 56.549 256.25 56.575C256.25 56.601 256.25 56.6227 256.25 56.64C256.267 56.9953 256.345 57.329 256.484 57.641C256.622 57.9443 256.822 58.1913 257.082 58.382C257.342 58.5727 257.654 58.668 258.018 58.668C258.33 58.668 258.59 58.6203 258.798 58.525C259.006 58.4297 259.175 58.3257 259.305 58.213C259.435 58.0917 259.521 58.0007 259.565 57.94C259.643 57.8273 259.703 57.7623 259.747 57.745C259.79 57.719 259.859 57.706 259.955 57.706H260.579C260.665 57.706 260.735 57.732 260.787 57.784C260.847 57.8273 260.873 57.8923 260.865 57.979C260.856 58.109 260.787 58.2693 260.657 58.46C260.527 58.642 260.34 58.824 260.098 59.006C259.855 59.188 259.56 59.3397 259.214 59.461C258.867 59.5737 258.468 59.63 258.018 59.63ZM256.25 55.626H259.812V55.587C259.812 55.197 259.738 54.8503 259.591 54.547C259.452 54.2437 259.248 54.0053 258.98 53.832C258.711 53.65 258.39 53.559 258.018 53.559C257.645 53.559 257.324 53.65 257.056 53.832C256.796 54.0053 256.596 54.2437 256.458 54.547C256.319 54.8503 256.25 55.197 256.25 55.587V55.626ZM204.527 74.5C204.441 74.5 204.367 74.474 204.306 74.422C204.254 74.3613 204.228 74.2877 204.228 74.201V65.569C204.228 65.4823 204.254 65.413 204.306 65.361C204.367 65.3003 204.441 65.27 204.527 65.27H205.138C205.234 65.27 205.307 65.3003 205.359 65.361C205.411 65.413 205.437 65.4823 205.437 65.569V74.201C205.437 74.2877 205.411 74.3613 205.359 74.422C205.307 74.474 205.234 74.5 205.138 74.5H204.527ZM209.262 74.63C208.828 74.63 208.434 74.5433 208.079 74.37C207.723 74.1967 207.437 73.9627 207.221 73.668C207.004 73.3733 206.896 73.0397 206.896 72.667C206.896 72.069 207.138 71.5923 207.624 71.237C208.109 70.8817 208.742 70.6477 209.522 70.535L211.459 70.262V69.885C211.459 69.469 211.337 69.144 211.095 68.91C210.861 68.676 210.475 68.559 209.938 68.559C209.548 68.559 209.231 68.637 208.989 68.793C208.755 68.949 208.59 69.1483 208.495 69.391C208.443 69.521 208.352 69.586 208.222 69.586H207.637C207.541 69.586 207.468 69.56 207.416 69.508C207.372 69.4473 207.351 69.378 207.351 69.3C207.351 69.17 207.398 69.0097 207.494 68.819C207.598 68.6283 207.754 68.442 207.962 68.26C208.17 68.078 208.434 67.9263 208.755 67.805C209.084 67.675 209.483 67.61 209.951 67.61C210.471 67.61 210.908 67.6793 211.264 67.818C211.619 67.948 211.896 68.1257 212.096 68.351C212.304 68.5763 212.451 68.832 212.538 69.118C212.633 69.404 212.681 69.6943 212.681 69.989V74.201C212.681 74.2877 212.65 74.3613 212.59 74.422C212.538 74.474 212.468 74.5 212.382 74.5H211.784C211.688 74.5 211.615 74.474 211.563 74.422C211.511 74.3613 211.485 74.2877 211.485 74.201V73.642C211.372 73.798 211.22 73.954 211.03 74.11C210.839 74.2573 210.601 74.383 210.315 74.487C210.029 74.5823 209.678 74.63 209.262 74.63ZM209.535 73.655C209.89 73.655 210.215 73.5813 210.51 73.434C210.804 73.278 211.034 73.0397 211.199 72.719C211.372 72.3983 211.459 71.9953 211.459 71.51V71.146L209.951 71.367C209.335 71.4537 208.872 71.601 208.56 71.809C208.248 72.0083 208.092 72.264 208.092 72.576C208.092 72.8187 208.161 73.0223 208.3 73.187C208.447 73.343 208.629 73.46 208.846 73.538C209.071 73.616 209.301 73.655 209.535 73.655ZM220.83 74.63C220.076 74.63 219.443 74.5173 218.932 74.292C218.421 74.058 218.026 73.759 217.749 73.395C217.48 73.0223 217.337 72.628 217.32 72.212C217.32 72.1427 217.346 72.082 217.398 72.03C217.459 71.9693 217.528 71.939 217.606 71.939H218.269C218.373 71.939 218.451 71.965 218.503 72.017C218.555 72.069 218.59 72.1297 218.607 72.199C218.65 72.407 218.754 72.615 218.919 72.823C219.092 73.0223 219.331 73.1913 219.634 73.33C219.946 73.46 220.345 73.525 220.83 73.525C221.575 73.525 222.121 73.395 222.468 73.135C222.823 72.8663 223.001 72.511 223.001 72.069C223.001 71.7657 222.906 71.523 222.715 71.341C222.533 71.1503 222.251 70.9813 221.87 70.834C221.489 70.6867 220.995 70.5263 220.388 70.353C219.755 70.171 219.231 69.9717 218.815 69.755C218.399 69.5383 218.087 69.2697 217.879 68.949C217.68 68.6283 217.58 68.221 217.58 67.727C217.58 67.259 217.706 66.843 217.957 66.479C218.208 66.1063 218.568 65.8117 219.036 65.595C219.513 65.3783 220.089 65.27 220.765 65.27C221.302 65.27 221.77 65.3437 222.169 65.491C222.576 65.6297 222.914 65.8203 223.183 66.063C223.452 66.297 223.655 66.5527 223.794 66.83C223.933 67.0987 224.006 67.363 224.015 67.623C224.015 67.6837 223.993 67.7443 223.95 67.805C223.907 67.857 223.837 67.883 223.742 67.883H223.053C222.992 67.883 222.927 67.8657 222.858 67.831C222.797 67.7963 222.75 67.7313 222.715 67.636C222.663 67.2807 222.464 66.9817 222.117 66.739C221.77 66.4963 221.32 66.375 220.765 66.375C220.202 66.375 219.742 66.4833 219.387 66.7C219.04 66.9167 218.867 67.2547 218.867 67.714C218.867 68.0087 218.949 68.2557 219.114 68.455C219.279 68.6457 219.539 68.8147 219.894 68.962C220.249 69.1093 220.713 69.2653 221.285 69.43C221.978 69.6207 222.546 69.8243 222.988 70.041C223.43 70.249 223.755 70.5133 223.963 70.834C224.18 71.146 224.288 71.549 224.288 72.043C224.288 72.589 224.145 73.057 223.859 73.447C223.573 73.8283 223.17 74.123 222.65 74.331C222.139 74.5303 221.532 74.63 220.83 74.63ZM227.708 74.63C227.275 74.63 226.88 74.5433 226.525 74.37C226.17 74.1967 225.884 73.9627 225.667 73.668C225.45 73.3733 225.342 73.0397 225.342 72.667C225.342 72.069 225.585 71.5923 226.07 71.237C226.555 70.8817 227.188 70.6477 227.968 70.535L229.905 70.262V69.885C229.905 69.469 229.784 69.144 229.541 68.91C229.307 68.676 228.921 68.559 228.384 68.559C227.994 68.559 227.678 68.637 227.435 68.793C227.201 68.949 227.036 69.1483 226.941 69.391C226.889 69.521 226.798 69.586 226.668 69.586H226.083C225.988 69.586 225.914 69.56 225.862 69.508C225.819 69.4473 225.797 69.378 225.797 69.3C225.797 69.17 225.845 69.0097 225.94 68.819C226.044 68.6283 226.2 68.442 226.408 68.26C226.616 68.078 226.88 67.9263 227.201 67.805C227.53 67.675 227.929 67.61 228.397 67.61C228.917 67.61 229.355 67.6793 229.71 67.818C230.065 67.948 230.343 68.1257 230.542 68.351C230.75 68.5763 230.897 68.832 230.984 69.118C231.079 69.404 231.127 69.6943 231.127 69.989V74.201C231.127 74.2877 231.097 74.3613 231.036 74.422C230.984 74.474 230.915 74.5 230.828 74.5H230.23C230.135 74.5 230.061 74.474 230.009 74.422C229.957 74.3613 229.931 74.2877 229.931 74.201V73.642C229.818 73.798 229.667 73.954 229.476 74.11C229.285 74.2573 229.047 74.383 228.761 74.487C228.475 74.5823 228.124 74.63 227.708 74.63ZM227.981 73.655C228.336 73.655 228.661 73.5813 228.956 73.434C229.251 73.278 229.48 73.0397 229.645 72.719C229.818 72.3983 229.905 71.9953 229.905 71.51V71.146L228.397 71.367C227.782 71.4537 227.318 71.601 227.006 71.809C226.694 72.0083 226.538 72.264 226.538 72.576C226.538 72.8187 226.607 73.0223 226.746 73.187C226.893 73.343 227.075 73.46 227.292 73.538C227.517 73.616 227.747 73.655 227.981 73.655ZM233.308 74.5C233.221 74.5 233.147 74.474 233.087 74.422C233.035 74.3613 233.009 74.2877 233.009 74.201V65.569C233.009 65.4823 233.035 65.413 233.087 65.361C233.147 65.3003 233.221 65.27 233.308 65.27H233.919C234.014 65.27 234.088 65.3003 234.14 65.361C234.192 65.413 234.218 65.4823 234.218 65.569V74.201C234.218 74.2877 234.192 74.3613 234.14 74.422C234.088 74.474 234.014 74.5 233.919 74.5H233.308ZM238.679 74.63C238.124 74.63 237.652 74.5087 237.262 74.266C236.88 74.0147 236.59 73.668 236.391 73.226C236.191 72.784 236.092 72.277 236.092 71.705V68.039C236.092 67.9523 236.118 67.883 236.17 67.831C236.23 67.7703 236.304 67.74 236.391 67.74H237.041C237.127 67.74 237.197 67.7703 237.249 67.831C237.309 67.883 237.34 67.9523 237.34 68.039V71.64C237.34 72.9313 237.903 73.577 239.03 73.577C239.567 73.577 239.996 73.408 240.317 73.07C240.646 72.7233 240.811 72.2467 240.811 71.64V68.039C240.811 67.9523 240.837 67.883 240.889 67.831C240.949 67.7703 241.023 67.74 241.11 67.74H241.747C241.842 67.74 241.916 67.7703 241.968 67.831C242.02 67.883 242.046 67.9523 242.046 68.039V74.201C242.046 74.2877 242.02 74.3613 241.968 74.422C241.916 74.474 241.842 74.5 241.747 74.5H241.149C241.062 74.5 240.988 74.474 240.928 74.422C240.876 74.3613 240.85 74.2877 240.85 74.201V73.629C240.616 73.9323 240.33 74.175 239.992 74.357C239.662 74.539 239.225 74.63 238.679 74.63ZM246.447 74.63C245.97 74.63 245.559 74.5477 245.212 74.383C244.865 74.2097 244.579 73.98 244.354 73.694C244.137 73.3993 243.973 73.0657 243.86 72.693C243.756 72.3203 243.695 71.926 243.678 71.51C243.669 71.3713 243.665 71.2413 243.665 71.12C243.665 70.9987 243.669 70.8687 243.678 70.73C243.695 70.3227 243.756 69.9327 243.86 69.56C243.973 69.1873 244.137 68.8537 244.354 68.559C244.579 68.2643 244.865 68.0347 245.212 67.87C245.559 67.6967 245.97 67.61 246.447 67.61C246.958 67.61 247.383 67.701 247.721 67.883C248.059 68.065 248.336 68.2903 248.553 68.559V65.569C248.553 65.4823 248.579 65.413 248.631 65.361C248.692 65.3003 248.765 65.27 248.852 65.27H249.476C249.563 65.27 249.632 65.3003 249.684 65.361C249.745 65.413 249.775 65.4823 249.775 65.569V74.201C249.775 74.2877 249.745 74.3613 249.684 74.422C249.632 74.474 249.563 74.5 249.476 74.5H248.891C248.796 74.5 248.722 74.474 248.67 74.422C248.618 74.3613 248.592 74.2877 248.592 74.201V73.655C248.375 73.9323 248.094 74.1663 247.747 74.357C247.4 74.539 246.967 74.63 246.447 74.63ZM246.72 73.577C247.153 73.577 247.5 73.4773 247.76 73.278C248.02 73.0787 248.215 72.8273 248.345 72.524C248.475 72.212 248.544 71.8957 248.553 71.575C248.562 71.4363 248.566 71.2717 248.566 71.081C248.566 70.8817 248.562 70.7127 248.553 70.574C248.544 70.2707 248.471 69.9717 248.332 69.677C248.202 69.3823 248.003 69.1397 247.734 68.949C247.474 68.7583 247.136 68.663 246.72 68.663C246.278 68.663 245.927 68.7627 245.667 68.962C245.407 69.1527 245.221 69.4083 245.108 69.729C244.995 70.041 244.93 70.379 244.913 70.743C244.904 70.9943 244.904 71.2457 244.913 71.497C244.93 71.861 244.995 72.2033 245.108 72.524C245.221 72.836 245.407 73.0917 245.667 73.291C245.927 73.4817 246.278 73.577 246.72 73.577Z" fill="#171B22"/>
<rect x="208.5" y="81.5" width="37" height="25" rx="12.5" fill="#2D68F8"/>
<path d="M221.342 98.64C220.67 98.64 220.086 98.5467 219.592 98.36C219.097 98.164 218.686 97.898 218.36 97.562C218.042 97.226 217.8 96.834 217.632 96.386C217.464 95.938 217.366 95.4573 217.338 94.944C217.328 94.692 217.319 94.4073 217.31 94.09C217.31 93.7633 217.31 93.4367 217.31 93.11C217.319 92.774 217.328 92.4753 217.338 92.214C217.366 91.7007 217.464 91.2247 217.632 90.786C217.809 90.338 218.061 89.9507 218.388 89.624C218.724 89.288 219.134 89.0267 219.62 88.84C220.114 88.6533 220.688 88.56 221.342 88.56C222.004 88.56 222.578 88.6533 223.064 88.84C223.549 89.0267 223.955 89.288 224.282 89.624C224.618 89.9507 224.874 90.338 225.052 90.786C225.229 91.2247 225.327 91.7007 225.346 92.214C225.364 92.4753 225.374 92.774 225.374 93.11C225.383 93.4367 225.383 93.7633 225.374 94.09C225.374 94.4073 225.364 94.692 225.346 94.944C225.327 95.4573 225.229 95.938 225.052 96.386C224.884 96.834 224.636 97.226 224.31 97.562C223.992 97.898 223.586 98.164 223.092 98.36C222.606 98.5467 222.023 98.64 221.342 98.64ZM221.342 96.61C221.827 96.61 222.177 96.456 222.392 96.148C222.616 95.8307 222.732 95.406 222.742 94.874C222.76 94.6033 222.77 94.3187 222.77 94.02C222.779 93.7213 222.779 93.4227 222.77 93.124C222.77 92.8253 222.76 92.55 222.742 92.298C222.732 91.7847 222.616 91.3693 222.392 91.052C222.177 90.7347 221.827 90.5713 221.342 90.562C220.856 90.5713 220.506 90.7347 220.292 91.052C220.077 91.3693 219.96 91.7847 219.942 92.298C219.932 92.55 219.923 92.8253 219.914 93.124C219.914 93.4227 219.914 93.7213 219.914 94.02C219.923 94.3187 219.932 94.6033 219.942 94.874C219.96 95.406 220.082 95.8307 220.306 96.148C220.53 96.456 220.875 96.61 221.342 96.61ZM227.679 98.5C227.465 98.5 227.357 98.4067 227.357 98.22C227.357 98.164 227.376 98.1127 227.413 98.066L234.329 88.966C234.395 88.882 234.46 88.8167 234.525 88.77C234.591 88.7233 234.689 88.7 234.819 88.7H235.813C236.028 88.7 236.135 88.7933 236.135 88.98C236.135 89.036 236.117 89.0873 236.079 89.134L229.163 98.234C229.098 98.318 229.033 98.3833 228.967 98.43C228.902 98.4767 228.804 98.5 228.673 98.5H227.679ZM234.721 98.57C234.087 98.57 233.578 98.402 233.195 98.066C232.822 97.73 232.612 97.282 232.565 96.722C232.556 96.4793 232.551 96.2647 232.551 96.078C232.551 95.8913 232.556 95.6673 232.565 95.406C232.603 94.8367 232.803 94.384 233.167 94.048C233.541 93.7027 234.059 93.53 234.721 93.53C235.393 93.53 235.911 93.7027 236.275 94.048C236.639 94.384 236.84 94.8367 236.877 95.406C236.896 95.6673 236.905 95.8913 236.905 96.078C236.905 96.2647 236.896 96.4793 236.877 96.722C236.84 97.282 236.63 97.73 236.247 98.066C235.865 98.402 235.356 98.57 234.721 98.57ZM234.721 97.338C234.88 97.338 235.001 97.3053 235.085 97.24C235.179 97.1747 235.249 97.0907 235.295 96.988C235.342 96.876 235.365 96.7593 235.365 96.638C235.384 96.4233 235.393 96.2273 235.393 96.05C235.393 95.8727 235.384 95.6813 235.365 95.476C235.356 95.2987 235.305 95.14 235.211 95C235.118 94.8507 234.955 94.776 234.721 94.776C234.488 94.776 234.325 94.8507 234.231 95C234.138 95.14 234.087 95.2987 234.077 95.476C234.068 95.6813 234.063 95.8727 234.063 96.05C234.063 96.2273 234.068 96.4233 234.077 96.638C234.087 96.7593 234.11 96.876 234.147 96.988C234.194 97.0907 234.264 97.1747 234.357 97.24C234.451 97.3053 234.572 97.338 234.721 97.338ZM228.799 93.642C228.155 93.642 227.642 93.4787 227.259 93.152C226.886 92.816 226.681 92.368 226.643 91.808C226.625 91.5653 226.615 91.3553 226.615 91.178C226.625 90.9913 226.634 90.7673 226.643 90.506C226.671 89.9367 226.867 89.484 227.231 89.148C227.605 88.8027 228.127 88.63 228.799 88.63C229.471 88.63 229.989 88.8027 230.353 89.148C230.717 89.484 230.913 89.9367 230.941 90.506C230.96 90.7673 230.969 90.9913 230.969 91.178C230.969 91.3553 230.96 91.5653 230.941 91.808C230.913 92.368 230.708 92.816 230.325 93.152C229.943 93.4787 229.434 93.642 228.799 93.642ZM228.799 92.438C228.949 92.438 229.07 92.4053 229.163 92.34C229.257 92.2653 229.327 92.1767 229.373 92.074C229.42 91.962 229.443 91.85 229.443 91.738C229.462 91.5233 229.471 91.3273 229.471 91.15C229.471 90.9727 229.462 90.7813 229.443 90.576C229.434 90.3987 229.378 90.24 229.275 90.1C229.182 89.9507 229.023 89.876 228.799 89.876C228.566 89.876 228.398 89.9507 228.295 90.1C228.202 90.24 228.151 90.3987 228.141 90.576C228.132 90.7813 228.127 90.9727 228.127 91.15C228.127 91.3273 228.132 91.5233 228.141 91.738C228.151 91.85 228.174 91.962 228.211 92.074C228.258 92.1767 228.328 92.2653 228.421 92.34C228.515 92.4053 228.641 92.438 228.799 92.438Z" fill="white"/>
<g filter="url(#filter0_d_15958_19595)">
<rect x="256" y="14" width="32" height="32" rx="16" fill="white"/>
<rect x="255" y="13" width="34" height="34" rx="17" stroke="#1DA534" stroke-width="2"/>
<path opacity="0.4" d="M271.999 32.8398C272.485 32.8398 272.879 33.2338 272.879 33.7197C272.879 34.2057 272.485 34.5996 271.999 34.5996C271.513 34.5995 271.119 34.2057 271.119 33.7197C271.119 33.2338 271.513 32.8399 271.999 32.8398Z" fill="#1DA534" stroke="#1DA534" stroke-width="1.5"/>
<path d="M267.35 28.1899H276.65C278.674 28.19 279.735 28.5109 280.332 29.1079C280.929 29.7049 281.25 30.7662 281.25 32.7896V34.6499C281.25 36.6735 280.929 37.7355 280.332 38.3325C279.735 38.9294 278.673 39.2495 276.65 39.2495H267.35C265.327 39.2495 264.265 38.9294 263.668 38.3325C263.071 37.7355 262.75 36.6735 262.75 34.6499V32.7896C262.75 30.7662 263.071 29.7049 263.668 29.1079C264.265 28.5109 265.326 28.19 267.35 28.1899ZM272 29.9497C269.914 29.9497 268.23 31.6476 268.23 33.7202C268.231 35.7927 269.914 37.4897 272 37.4897C274.086 37.4897 275.769 35.7927 275.77 33.7202C275.77 31.6476 274.086 29.9497 272 29.9497Z" fill="#1DA534" stroke="#1DA534" stroke-width="1.5"/>
<g opacity="0.4">
<mask id="path-12-inside-1_15958_19595" fill="white">
<path d="M267.121 27.45V26.28C267.121 23.35 267.951 21.4 272.001 21.4C276.051 21.4 276.881 23.35 276.881 26.28V27.45C277.391 27.46 277.851 27.48 278.281 27.54V26.28C278.281 23.58 277.631 20 272.001 20C266.371 20 265.721 23.58 265.721 26.28V27.53C266.141 27.48 266.611 27.45 267.121 27.45Z"/>
</mask>
<path d="M267.121 27.45V26.28C267.121 23.35 267.951 21.4 272.001 21.4C276.051 21.4 276.881 23.35 276.881 26.28V27.45C277.391 27.46 277.851 27.48 278.281 27.54V26.28C278.281 23.58 277.631 20 272.001 20C266.371 20 265.721 23.58 265.721 26.28V27.53C266.141 27.48 266.611 27.45 267.121 27.45Z" fill="#1DA534"/>
<path d="M267.121 27.45V28.95H268.621V27.45H267.121ZM276.881 27.45H275.381V28.9209L276.851 28.9497L276.881 27.45ZM278.281 27.54L278.073 29.0256L279.781 29.2638V27.54H278.281ZM278.281 26.28H276.781H278.281ZM265.721 27.53H264.221V29.2192L265.898 29.0195L265.721 27.53ZM267.121 27.45H268.621V26.28H267.121H265.621V27.45H267.121ZM267.121 26.28H268.621C268.621 24.8831 268.837 24.1294 269.193 23.7033C269.498 23.3385 270.182 22.9 272.001 22.9V21.4V19.9C269.769 19.9 268.014 20.4365 266.891 21.7792C265.82 23.0606 265.621 24.7469 265.621 26.28H267.121ZM272.001 21.4V22.9C273.819 22.9 274.504 23.3385 274.809 23.7033C275.165 24.1294 275.381 24.8831 275.381 26.28H276.881H278.381C278.381 24.7469 278.182 23.0606 277.11 21.7792C275.988 20.4365 274.232 19.9 272.001 19.9V21.4ZM276.881 26.28H275.381V27.45H276.881H278.381V26.28H276.881ZM276.881 27.45L276.851 28.9497C277.349 28.9595 277.735 28.9785 278.073 29.0256L278.281 27.54L278.488 26.0544C277.966 25.9815 277.433 25.9605 276.91 25.9503L276.881 27.45ZM278.281 27.54H279.781V26.28H278.281H276.781V27.54H278.281ZM278.281 26.28H279.781C279.781 24.8668 279.625 22.8955 278.479 21.265C277.257 19.5254 275.156 18.5 272.001 18.5V20V21.5C274.475 21.5 275.515 22.2646 276.025 22.99C276.611 23.8245 276.781 24.9932 276.781 26.28H278.281ZM272.001 20V18.5C268.845 18.5 266.745 19.5254 265.522 21.265C264.376 22.8955 264.221 24.8668 264.221 26.28H265.721H267.221C267.221 24.9932 267.39 23.8245 267.977 22.99C268.487 22.2646 269.526 21.5 272.001 21.5V20ZM265.721 26.28H264.221V27.53H265.721H267.221V26.28H265.721ZM265.721 27.53L265.898 29.0195C266.258 28.9766 266.669 28.95 267.121 28.95V27.45V25.95C266.552 25.95 266.023 25.9834 265.543 26.0405L265.721 27.53Z" fill="#1DA534" mask="url(#path-12-inside-1_15958_19595)"/>
</g>
</g>
</g>
<defs>
<filter id="filter0_d_15958_19595" x="239" y="5" width="66" height="66" filterUnits="userSpaceOnUse" color-interpolation-filters="sRGB">
<feFlood flood-opacity="0" result="BackgroundImageFix"/>
<feColorMatrix in="SourceAlpha" type="matrix" values="0 0 0 0 0 0 0 0 0 0 0 0 0 0 0 0 0 0 127 0" result="hardAlpha"/>
<feOffset dy="8"/>
<feGaussianBlur stdDeviation="7.5"/>
<feColorMatrix type="matrix" values="0 0 0 0 0 0 0 0 0 0 0 0 0 0 0 0 0 0 0.25 0"/>
<feBlend mode="normal" in2="BackgroundImageFix" result="effect1_dropShadow_15958_19595"/>
<feBlend mode="normal" in="SourceGraphic" in2="effect1_dropShadow_15958_19595" result="shape"/>
</filter>
<clipPath id="clip0_15958_19595">
<rect width="32" height="32" fill="white" transform="translate(211 11.5)"/>
</clipPath>
</defs>
</svg>
