<svg width="351" height="118" viewBox="0 0 351 118" fill="none" xmlns="http://www.w3.org/2000/svg">
<g style="mix-blend-mode:luminosity">
<rect x="130" y="2" width="114" height="114" rx="57" fill="white"/>
<rect x="130" y="2" width="114" height="114" rx="57" stroke="#DEE2E6" stroke-width="4"/>
<g clip-path="url(#clip0_15958_19593)">
<mask id="mask0_15958_19593" style="mask-type:luminance" maskUnits="userSpaceOnUse" x="171" y="19" width="32" height="32">
<path d="M203 19H171V51H203V19Z" fill="white"/>
</mask>
<g mask="url(#mask0_15958_19593)">
<path d="M196.468 29.5601C196.468 33.8535 192.975 37.3335 188.695 37.3335C184.388 37.3335 180.908 33.8401 180.908 29.5601C180.908 25.2534 184.401 21.7734 188.695 21.7734C192.975 21.7734 196.468 25.2534 196.468 29.5601Z" fill="#1DA534"/>
<path opacity="0.4" d="M198.441 38.7731C198.881 38.3064 198.854 37.5731 198.387 37.1331C197.921 36.6931 197.187 36.7198 196.747 37.1864C194.641 39.4264 191.787 40.6664 188.694 40.6664C182.574 40.6664 177.587 35.6798 177.587 29.5597C177.587 27.6397 178.081 25.7597 179.014 24.1197C179.334 23.5598 179.134 22.8531 178.574 22.5331C178.014 22.2131 177.307 22.4131 176.987 22.9731C175.854 24.9597 175.254 27.2397 175.254 29.5597C175.254 36.5731 180.667 42.3464 187.521 42.9331V46.1198H184.587C183.947 46.1198 183.427 46.6398 183.427 47.2798C183.427 47.9198 183.947 48.4398 184.587 48.4398H192.774C193.414 48.4398 193.934 47.9198 193.934 47.2798C193.934 46.6398 193.414 46.1198 192.774 46.1198H189.841V42.9331C193.134 42.6398 196.161 41.1998 198.441 38.7731Z" fill="#1DA534"/>
</g>
</g>
<path d="M162.088 67.13C161.325 67.13 160.675 66.987 160.138 66.701C159.609 66.415 159.202 66.012 158.916 65.492C158.638 64.972 158.482 64.361 158.448 63.659C158.439 63.2777 158.435 62.8747 158.435 62.45C158.435 62.0167 158.439 61.605 158.448 61.215C158.482 60.513 158.638 59.9063 158.916 59.395C159.202 58.8837 159.613 58.485 160.151 58.199C160.688 57.913 161.334 57.77 162.088 57.77C162.703 57.77 163.236 57.8567 163.687 58.03C164.137 58.2033 164.506 58.4243 164.792 58.693C165.086 58.953 165.303 59.226 165.442 59.512C165.589 59.798 165.667 60.0493 165.676 60.266C165.684 60.344 165.663 60.409 165.611 60.461C165.559 60.5043 165.489 60.526 165.403 60.526H164.636C164.549 60.526 164.484 60.5087 164.441 60.474C164.406 60.4393 164.371 60.3787 164.337 60.292C164.259 60.0667 164.129 59.8457 163.947 59.629C163.773 59.4123 163.535 59.2347 163.232 59.096C162.937 58.9487 162.556 58.875 162.088 58.875C161.403 58.875 160.848 59.0613 160.424 59.434C160.008 59.8067 159.782 60.422 159.748 61.28C159.722 62.0513 159.722 62.8227 159.748 63.594C159.782 64.4607 160.012 65.0847 160.437 65.466C160.861 65.8387 161.416 66.025 162.101 66.025C162.56 66.025 162.967 65.9427 163.323 65.778C163.687 65.6047 163.973 65.3403 164.181 64.985C164.389 64.6297 164.493 64.179 164.493 63.633V63.087H162.543C162.456 63.087 162.382 63.061 162.322 63.009C162.27 62.9483 162.244 62.8703 162.244 62.775V62.359C162.244 62.2637 162.27 62.19 162.322 62.138C162.382 62.0773 162.456 62.047 162.543 62.047H165.481C165.576 62.047 165.65 62.0773 165.702 62.138C165.754 62.19 165.78 62.2637 165.78 62.359V63.607C165.78 64.3177 165.632 64.9373 165.338 65.466C165.052 65.9947 164.631 66.4063 164.077 66.701C163.522 66.987 162.859 67.13 162.088 67.13ZM170.156 67.13C169.264 67.13 168.553 66.857 168.024 66.311C167.496 65.7563 167.205 65.0023 167.153 64.049C167.145 63.9363 167.14 63.7933 167.14 63.62C167.14 63.438 167.145 63.2907 167.153 63.178C167.188 62.5627 167.331 62.0253 167.582 61.566C167.834 61.098 168.176 60.7383 168.609 60.487C169.051 60.2357 169.567 60.11 170.156 60.11C170.815 60.11 171.365 60.2487 171.807 60.526C172.258 60.8033 172.6 61.1977 172.834 61.709C173.068 62.2203 173.185 62.8183 173.185 63.503V63.724C173.185 63.8193 173.155 63.893 173.094 63.945C173.042 63.997 172.973 64.023 172.886 64.023H168.388C168.388 64.0317 168.388 64.049 168.388 64.075C168.388 64.101 168.388 64.1227 168.388 64.14C168.406 64.4953 168.484 64.829 168.622 65.141C168.761 65.4443 168.96 65.6913 169.22 65.882C169.48 66.0727 169.792 66.168 170.156 66.168C170.468 66.168 170.728 66.1203 170.936 66.025C171.144 65.9297 171.313 65.8257 171.443 65.713C171.573 65.5917 171.66 65.5007 171.703 65.44C171.781 65.3273 171.842 65.2623 171.885 65.245C171.929 65.219 171.998 65.206 172.093 65.206H172.717C172.804 65.206 172.873 65.232 172.925 65.284C172.986 65.3273 173.012 65.3923 173.003 65.479C172.995 65.609 172.925 65.7693 172.795 65.96C172.665 66.142 172.479 66.324 172.236 66.506C171.994 66.688 171.699 66.8397 171.352 66.961C171.006 67.0737 170.607 67.13 170.156 67.13ZM168.388 63.126H171.95V63.087C171.95 62.697 171.877 62.3503 171.729 62.047C171.591 61.7437 171.387 61.5053 171.118 61.332C170.85 61.15 170.529 61.059 170.156 61.059C169.784 61.059 169.463 61.15 169.194 61.332C168.934 61.5053 168.735 61.7437 168.596 62.047C168.458 62.3503 168.388 62.697 168.388 63.087V63.126ZM177.509 67.13C176.85 67.13 176.3 67.0043 175.858 66.753C175.416 66.5017 175.078 66.155 174.844 65.713C174.61 65.2623 174.48 64.751 174.454 64.179C174.445 64.0317 174.441 63.8453 174.441 63.62C174.441 63.386 174.445 63.1997 174.454 63.061C174.48 62.4803 174.61 61.969 174.844 61.527C175.086 61.085 175.429 60.7383 175.871 60.487C176.313 60.2357 176.859 60.11 177.509 60.11C178.159 60.11 178.705 60.2357 179.147 60.487C179.589 60.7383 179.927 61.085 180.161 61.527C180.403 61.969 180.538 62.4803 180.564 63.061C180.572 63.1997 180.577 63.386 180.577 63.62C180.577 63.8453 180.572 64.0317 180.564 64.179C180.538 64.751 180.408 65.2623 180.174 65.713C179.94 66.155 179.602 66.5017 179.16 66.753C178.718 67.0043 178.167 67.13 177.509 67.13ZM177.509 66.129C178.046 66.129 178.475 65.96 178.796 65.622C179.116 65.2753 179.29 64.7727 179.316 64.114C179.324 63.984 179.329 63.8193 179.329 63.62C179.329 63.4207 179.324 63.256 179.316 63.126C179.29 62.4673 179.116 61.969 178.796 61.631C178.475 61.2843 178.046 61.111 177.509 61.111C176.971 61.111 176.538 61.2843 176.209 61.631C175.888 61.969 175.719 62.4673 175.702 63.126C175.693 63.256 175.689 63.4207 175.689 63.62C175.689 63.8193 175.693 63.984 175.702 64.114C175.719 64.7727 175.888 65.2753 176.209 65.622C176.538 65.96 176.971 66.129 177.509 66.129ZM184.974 69.86C184.384 69.86 183.899 69.782 183.518 69.626C183.145 69.47 182.85 69.2793 182.634 69.054C182.426 68.8373 182.274 68.6163 182.179 68.391C182.092 68.1743 182.044 68.001 182.036 67.871C182.027 67.7843 182.053 67.7107 182.114 67.65C182.183 67.5893 182.257 67.559 182.335 67.559H182.959C183.037 67.559 183.102 67.5763 183.154 67.611C183.206 67.6457 183.249 67.7193 183.284 67.832C183.336 67.962 183.414 68.105 183.518 68.261C183.622 68.4257 183.782 68.5643 183.999 68.677C184.215 68.7983 184.519 68.859 184.909 68.859C185.316 68.859 185.658 68.8027 185.936 68.69C186.213 68.586 186.421 68.3953 186.56 68.118C186.707 67.8493 186.781 67.4767 186.781 67V66.116C186.573 66.3847 186.3 66.61 185.962 66.792C185.624 66.9653 185.199 67.052 184.688 67.052C184.202 67.052 183.786 66.9697 183.44 66.805C183.093 66.6317 182.807 66.402 182.582 66.116C182.365 65.8213 182.2 65.4877 182.088 65.115C181.984 64.7423 181.923 64.3523 181.906 63.945C181.897 63.7023 181.897 63.464 181.906 63.23C181.923 62.8227 181.984 62.4327 182.088 62.06C182.2 61.6873 182.365 61.3537 182.582 61.059C182.807 60.7643 183.093 60.5347 183.44 60.37C183.786 60.1967 184.202 60.11 184.688 60.11C185.208 60.11 185.637 60.2097 185.975 60.409C186.321 60.5997 186.603 60.8337 186.82 61.111V60.552C186.82 60.4653 186.846 60.3917 186.898 60.331C186.958 60.2703 187.032 60.24 187.119 60.24H187.717C187.803 60.24 187.877 60.2703 187.938 60.331C187.998 60.3917 188.029 60.4653 188.029 60.552V66.857C188.029 67.4377 187.929 67.9533 187.73 68.404C187.539 68.8547 187.218 69.21 186.768 69.47C186.326 69.73 185.728 69.86 184.974 69.86ZM184.948 66.012C185.381 66.012 185.728 65.9123 185.988 65.713C186.256 65.5137 186.451 65.2623 186.573 64.959C186.703 64.6557 186.772 64.348 186.781 64.036C186.789 63.9147 186.794 63.7673 186.794 63.594C186.794 63.412 186.789 63.2603 186.781 63.139C186.772 62.827 186.703 62.5193 186.573 62.216C186.451 61.9127 186.256 61.6613 185.988 61.462C185.728 61.2627 185.381 61.163 184.948 61.163C184.514 61.163 184.168 61.2627 183.908 61.462C183.648 61.6527 183.461 61.9083 183.349 62.229C183.236 62.541 183.171 62.879 183.154 63.243C183.145 63.4683 183.145 63.698 183.154 63.932C183.171 64.296 183.236 64.6383 183.349 64.959C183.461 65.271 183.648 65.5267 183.908 65.726C184.168 65.9167 184.514 66.012 184.948 66.012ZM190.261 67C190.174 67 190.1 66.974 190.04 66.922C189.988 66.8613 189.962 66.7877 189.962 66.701V60.552C189.962 60.4653 189.988 60.3917 190.04 60.331C190.1 60.2703 190.174 60.24 190.261 60.24H190.859C190.945 60.24 191.019 60.2703 191.08 60.331C191.14 60.3917 191.171 60.4653 191.171 60.552V61.124C191.344 60.8293 191.582 60.6083 191.886 60.461C192.189 60.3137 192.553 60.24 192.978 60.24H193.498C193.584 60.24 193.654 60.2703 193.706 60.331C193.758 60.383 193.784 60.4523 193.784 60.539V61.072C193.784 61.1587 193.758 61.228 193.706 61.28C193.654 61.332 193.584 61.358 193.498 61.358H192.718C192.25 61.358 191.881 61.4967 191.613 61.774C191.344 62.0427 191.21 62.411 191.21 62.879V66.701C191.21 66.7877 191.179 66.8613 191.119 66.922C191.058 66.974 190.984 67 190.898 67H190.261ZM196.683 67.13C196.25 67.13 195.856 67.0433 195.5 66.87C195.145 66.6967 194.859 66.4627 194.642 66.168C194.426 65.8733 194.317 65.5397 194.317 65.167C194.317 64.569 194.56 64.0923 195.045 63.737C195.531 63.3817 196.163 63.1477 196.943 63.035L198.88 62.762V62.385C198.88 61.969 198.759 61.644 198.516 61.41C198.282 61.176 197.897 61.059 197.359 61.059C196.969 61.059 196.653 61.137 196.41 61.293C196.176 61.449 196.012 61.6483 195.916 61.891C195.864 62.021 195.773 62.086 195.643 62.086H195.058C194.963 62.086 194.889 62.06 194.837 62.008C194.794 61.9473 194.772 61.878 194.772 61.8C194.772 61.67 194.82 61.5097 194.915 61.319C195.019 61.1283 195.175 60.942 195.383 60.76C195.591 60.578 195.856 60.4263 196.176 60.305C196.506 60.175 196.904 60.11 197.372 60.11C197.892 60.11 198.33 60.1793 198.685 60.318C199.041 60.448 199.318 60.6257 199.517 60.851C199.725 61.0763 199.873 61.332 199.959 61.618C200.055 61.904 200.102 62.1943 200.102 62.489V66.701C200.102 66.7877 200.072 66.8613 200.011 66.922C199.959 66.974 199.89 67 199.803 67H199.205C199.11 67 199.036 66.974 198.984 66.922C198.932 66.8613 198.906 66.7877 198.906 66.701V66.142C198.794 66.298 198.642 66.454 198.451 66.61C198.261 66.7573 198.022 66.883 197.736 66.987C197.45 67.0823 197.099 67.13 196.683 67.13ZM196.956 66.155C197.312 66.155 197.637 66.0813 197.931 65.934C198.226 65.778 198.456 65.5397 198.62 65.219C198.794 64.8983 198.88 64.4953 198.88 64.01V63.646L197.372 63.867C196.757 63.9537 196.293 64.101 195.981 64.309C195.669 64.5083 195.513 64.764 195.513 65.076C195.513 65.3187 195.583 65.5223 195.721 65.687C195.869 65.843 196.051 65.96 196.267 66.038C196.493 66.116 196.722 66.155 196.956 66.155ZM202.883 67C202.796 67 202.722 66.974 202.662 66.922C202.61 66.8613 202.584 66.7877 202.584 66.701V61.28H201.479C201.392 61.28 201.318 61.254 201.258 61.202C201.206 61.1413 201.18 61.0677 201.18 60.981V60.539C201.18 60.4523 201.206 60.383 201.258 60.331C201.318 60.2703 201.392 60.24 201.479 60.24H202.584V59.59C202.584 59.148 202.657 58.7623 202.805 58.433C202.952 58.095 203.186 57.835 203.507 57.653C203.836 57.471 204.274 57.38 204.82 57.38H205.6C205.686 57.38 205.756 57.4103 205.808 57.471C205.86 57.523 205.886 57.5923 205.886 57.679V58.121C205.886 58.2077 205.86 58.2813 205.808 58.342C205.756 58.394 205.686 58.42 205.6 58.42H204.846C204.438 58.42 204.161 58.5283 204.014 58.745C203.866 58.953 203.793 59.2563 203.793 59.655V60.24H205.47C205.556 60.24 205.626 60.2703 205.678 60.331C205.73 60.383 205.756 60.4523 205.756 60.539V60.981C205.756 61.0677 205.73 61.1413 205.678 61.202C205.626 61.254 205.556 61.28 205.47 61.28H203.793V66.701C203.793 66.7877 203.762 66.8613 203.702 66.922C203.65 66.974 203.58 67 203.494 67H202.883ZM207.285 67C207.198 67 207.125 66.974 207.064 66.922C207.012 66.8613 206.986 66.7877 206.986 66.701V60.539C206.986 60.4523 207.012 60.383 207.064 60.331C207.125 60.2703 207.198 60.24 207.285 60.24H207.909C207.996 60.24 208.065 60.2703 208.117 60.331C208.169 60.383 208.195 60.4523 208.195 60.539V66.701C208.195 66.7877 208.169 66.8613 208.117 66.922C208.065 66.974 207.996 67 207.909 67H207.285ZM207.246 59.265C207.107 59.265 207.038 59.1957 207.038 59.057C207.038 58.9877 207.06 58.9313 207.103 58.888L208.078 57.718C208.156 57.6227 208.225 57.562 208.286 57.536C208.347 57.5013 208.438 57.484 208.559 57.484H209.443C209.608 57.484 209.69 57.5663 209.69 57.731C209.69 57.7917 209.668 57.8437 209.625 57.887L208.117 59.122C208.048 59.1827 207.983 59.2217 207.922 59.239C207.861 59.2563 207.783 59.265 207.688 59.265H207.246ZM212.019 67.13C211.586 67.13 211.192 67.0433 210.836 66.87C210.481 66.6967 210.195 66.4627 209.978 66.168C209.762 65.8733 209.653 65.5397 209.653 65.167C209.653 64.569 209.896 64.0923 210.381 63.737C210.867 63.3817 211.499 63.1477 212.279 63.035L214.216 62.762V62.385C214.216 61.969 214.095 61.644 213.852 61.41C213.618 61.176 213.233 61.059 212.695 61.059C212.305 61.059 211.989 61.137 211.746 61.293C211.512 61.449 211.348 61.6483 211.252 61.891C211.2 62.021 211.109 62.086 210.979 62.086H210.394C210.299 62.086 210.225 62.06 210.173 62.008C210.13 61.9473 210.108 61.878 210.108 61.8C210.108 61.67 210.156 61.5097 210.251 61.319C210.355 61.1283 210.511 60.942 210.719 60.76C210.927 60.578 211.192 60.4263 211.512 60.305C211.842 60.175 212.24 60.11 212.708 60.11C213.228 60.11 213.666 60.1793 214.021 60.318C214.377 60.448 214.654 60.6257 214.853 60.851C215.061 61.0763 215.209 61.332 215.295 61.618C215.391 61.904 215.438 62.1943 215.438 62.489V66.701C215.438 66.7877 215.408 66.8613 215.347 66.922C215.295 66.974 215.226 67 215.139 67H214.541C214.446 67 214.372 66.974 214.32 66.922C214.268 66.8613 214.242 66.7877 214.242 66.701V66.142C214.13 66.298 213.978 66.454 213.787 66.61C213.597 66.7573 213.358 66.883 213.072 66.987C212.786 67.0823 212.435 67.13 212.019 67.13ZM212.292 66.155C212.648 66.155 212.973 66.0813 213.267 65.934C213.562 65.778 213.792 65.5397 213.956 65.219C214.13 64.8983 214.216 64.4953 214.216 64.01V63.646L212.708 63.867C212.093 63.9537 211.629 64.101 211.317 64.309C211.005 64.5083 210.849 64.764 210.849 65.076C210.849 65.3187 210.919 65.5223 211.057 65.687C211.205 65.843 211.387 65.96 211.603 66.038C211.829 66.116 212.058 66.155 212.292 66.155Z" fill="#171B22"/>
<rect x="168.5" y="74" width="37" height="25" rx="12.5" fill="#1DA534"/>
<path d="M181.342 91.14C180.67 91.14 180.086 91.0467 179.592 90.86C179.097 90.664 178.686 90.398 178.36 90.062C178.042 89.726 177.8 89.334 177.632 88.886C177.464 88.438 177.366 87.9573 177.338 87.444C177.328 87.192 177.319 86.9073 177.31 86.59C177.31 86.2633 177.31 85.9367 177.31 85.61C177.319 85.274 177.328 84.9753 177.338 84.714C177.366 84.2007 177.464 83.7247 177.632 83.286C177.809 82.838 178.061 82.4507 178.388 82.124C178.724 81.788 179.134 81.5267 179.62 81.34C180.114 81.1533 180.688 81.06 181.342 81.06C182.004 81.06 182.578 81.1533 183.064 81.34C183.549 81.5267 183.955 81.788 184.282 82.124C184.618 82.4507 184.874 82.838 185.052 83.286C185.229 83.7247 185.327 84.2007 185.346 84.714C185.364 84.9753 185.374 85.274 185.374 85.61C185.383 85.9367 185.383 86.2633 185.374 86.59C185.374 86.9073 185.364 87.192 185.346 87.444C185.327 87.9573 185.229 88.438 185.052 88.886C184.884 89.334 184.636 89.726 184.31 90.062C183.992 90.398 183.586 90.664 183.092 90.86C182.606 91.0467 182.023 91.14 181.342 91.14ZM181.342 89.11C181.827 89.11 182.177 88.956 182.392 88.648C182.616 88.3307 182.732 87.906 182.742 87.374C182.76 87.1033 182.77 86.8187 182.77 86.52C182.779 86.2213 182.779 85.9227 182.77 85.624C182.77 85.3253 182.76 85.05 182.742 84.798C182.732 84.2847 182.616 83.8693 182.392 83.552C182.177 83.2347 181.827 83.0713 181.342 83.062C180.856 83.0713 180.506 83.2347 180.292 83.552C180.077 83.8693 179.96 84.2847 179.942 84.798C179.932 85.05 179.923 85.3253 179.914 85.624C179.914 85.9227 179.914 86.2213 179.914 86.52C179.923 86.8187 179.932 87.1033 179.942 87.374C179.96 87.906 180.082 88.3307 180.306 88.648C180.53 88.956 180.875 89.11 181.342 89.11ZM187.679 91C187.465 91 187.357 90.9067 187.357 90.72C187.357 90.664 187.376 90.6127 187.413 90.566L194.329 81.466C194.395 81.382 194.46 81.3167 194.525 81.27C194.591 81.2233 194.689 81.2 194.819 81.2H195.813C196.028 81.2 196.135 81.2933 196.135 81.48C196.135 81.536 196.117 81.5873 196.079 81.634L189.163 90.734C189.098 90.818 189.033 90.8833 188.967 90.93C188.902 90.9767 188.804 91 188.673 91H187.679ZM194.721 91.07C194.087 91.07 193.578 90.902 193.195 90.566C192.822 90.23 192.612 89.782 192.565 89.222C192.556 88.9793 192.551 88.7647 192.551 88.578C192.551 88.3913 192.556 88.1673 192.565 87.906C192.603 87.3367 192.803 86.884 193.167 86.548C193.541 86.2027 194.059 86.03 194.721 86.03C195.393 86.03 195.911 86.2027 196.275 86.548C196.639 86.884 196.84 87.3367 196.877 87.906C196.896 88.1673 196.905 88.3913 196.905 88.578C196.905 88.7647 196.896 88.9793 196.877 89.222C196.84 89.782 196.63 90.23 196.247 90.566C195.865 90.902 195.356 91.07 194.721 91.07ZM194.721 89.838C194.88 89.838 195.001 89.8053 195.085 89.74C195.179 89.6747 195.249 89.5907 195.295 89.488C195.342 89.376 195.365 89.2593 195.365 89.138C195.384 88.9233 195.393 88.7273 195.393 88.55C195.393 88.3727 195.384 88.1813 195.365 87.976C195.356 87.7987 195.305 87.64 195.211 87.5C195.118 87.3507 194.955 87.276 194.721 87.276C194.488 87.276 194.325 87.3507 194.231 87.5C194.138 87.64 194.087 87.7987 194.077 87.976C194.068 88.1813 194.063 88.3727 194.063 88.55C194.063 88.7273 194.068 88.9233 194.077 89.138C194.087 89.2593 194.11 89.376 194.147 89.488C194.194 89.5907 194.264 89.6747 194.357 89.74C194.451 89.8053 194.572 89.838 194.721 89.838ZM188.799 86.142C188.155 86.142 187.642 85.9787 187.259 85.652C186.886 85.316 186.681 84.868 186.643 84.308C186.625 84.0653 186.615 83.8553 186.615 83.678C186.625 83.4913 186.634 83.2673 186.643 83.006C186.671 82.4367 186.867 81.984 187.231 81.648C187.605 81.3027 188.127 81.13 188.799 81.13C189.471 81.13 189.989 81.3027 190.353 81.648C190.717 81.984 190.913 82.4367 190.941 83.006C190.96 83.2673 190.969 83.4913 190.969 83.678C190.969 83.8553 190.96 84.0653 190.941 84.308C190.913 84.868 190.708 85.316 190.325 85.652C189.943 85.9787 189.434 86.142 188.799 86.142ZM188.799 84.938C188.949 84.938 189.07 84.9053 189.163 84.84C189.257 84.7653 189.327 84.6767 189.373 84.574C189.42 84.462 189.443 84.35 189.443 84.238C189.462 84.0233 189.471 83.8273 189.471 83.65C189.471 83.4727 189.462 83.2813 189.443 83.076C189.434 82.8987 189.378 82.74 189.275 82.6C189.182 82.4507 189.023 82.376 188.799 82.376C188.566 82.376 188.398 82.4507 188.295 82.6C188.202 82.74 188.151 82.8987 188.141 83.076C188.132 83.2813 188.127 83.4727 188.127 83.65C188.127 83.8273 188.132 84.0233 188.141 84.238C188.151 84.35 188.174 84.462 188.211 84.574C188.258 84.6767 188.328 84.7653 188.421 84.84C188.515 84.9053 188.641 84.938 188.799 84.938Z" fill="white"/>
<g filter="url(#filter0_d_15958_19593)">
<rect x="216" y="14" width="32" height="32" rx="16" fill="white"/>
<rect x="215" y="13" width="34" height="34" rx="17" stroke="#1DA534" stroke-width="2"/>
<path opacity="0.4" d="M231.999 32.8398C232.485 32.8398 232.879 33.2338 232.879 33.7197C232.879 34.2057 232.485 34.5996 231.999 34.5996C231.513 34.5995 231.119 34.2057 231.119 33.7197C231.119 33.2338 231.513 32.8399 231.999 32.8398Z" fill="#1DA534" stroke="#1DA534" stroke-width="1.5"/>
<path d="M227.35 28.1899H236.65C238.674 28.19 239.735 28.5109 240.332 29.1079C240.929 29.7049 241.25 30.7662 241.25 32.7896V34.6499C241.25 36.6735 240.929 37.7355 240.332 38.3325C239.735 38.9294 238.673 39.2495 236.65 39.2495H227.35C225.327 39.2495 224.265 38.9294 223.668 38.3325C223.071 37.7355 222.75 36.6735 222.75 34.6499V32.7896C222.75 30.7662 223.071 29.7049 223.668 29.1079C224.265 28.5109 225.326 28.19 227.35 28.1899ZM232 29.9497C229.914 29.9497 228.23 31.6476 228.23 33.7202C228.231 35.7927 229.914 37.4897 232 37.4897C234.086 37.4897 235.769 35.7927 235.77 33.7202C235.77 31.6476 234.086 29.9497 232 29.9497Z" fill="#1DA534" stroke="#1DA534" stroke-width="1.5"/>
<g opacity="0.4">
<mask id="path-12-inside-1_15958_19593" fill="white">
<path d="M227.121 27.45V26.28C227.121 23.35 227.951 21.4 232.001 21.4C236.051 21.4 236.881 23.35 236.881 26.28V27.45C237.391 27.46 237.851 27.48 238.281 27.54V26.28C238.281 23.58 237.631 20 232.001 20C226.371 20 225.721 23.58 225.721 26.28V27.53C226.141 27.48 226.611 27.45 227.121 27.45Z"/>
</mask>
<path d="M227.121 27.45V26.28C227.121 23.35 227.951 21.4 232.001 21.4C236.051 21.4 236.881 23.35 236.881 26.28V27.45C237.391 27.46 237.851 27.48 238.281 27.54V26.28C238.281 23.58 237.631 20 232.001 20C226.371 20 225.721 23.58 225.721 26.28V27.53C226.141 27.48 226.611 27.45 227.121 27.45Z" fill="#1DA534"/>
<path d="M227.121 27.45V28.95H228.621V27.45H227.121ZM236.881 27.45H235.381V28.9209L236.851 28.9497L236.881 27.45ZM238.281 27.54L238.073 29.0256L239.781 29.2638V27.54H238.281ZM238.281 26.28H236.781H238.281ZM225.721 27.53H224.221V29.2192L225.898 29.0195L225.721 27.53ZM227.121 27.45H228.621V26.28H227.121H225.621V27.45H227.121ZM227.121 26.28H228.621C228.621 24.8831 228.837 24.1294 229.193 23.7033C229.498 23.3385 230.182 22.9 232.001 22.9V21.4V19.9C229.769 19.9 228.014 20.4365 226.891 21.7792C225.82 23.0606 225.621 24.7469 225.621 26.28H227.121ZM232.001 21.4V22.9C233.819 22.9 234.504 23.3385 234.809 23.7033C235.165 24.1294 235.381 24.8831 235.381 26.28H236.881H238.381C238.381 24.7469 238.182 23.0606 237.11 21.7792C235.988 20.4365 234.232 19.9 232.001 19.9V21.4ZM236.881 26.28H235.381V27.45H236.881H238.381V26.28H236.881ZM236.881 27.45L236.851 28.9497C237.349 28.9595 237.735 28.9785 238.073 29.0256L238.281 27.54L238.488 26.0544C237.966 25.9815 237.433 25.9605 236.91 25.9503L236.881 27.45ZM238.281 27.54H239.781V26.28H238.281H236.781V27.54H238.281ZM238.281 26.28H239.781C239.781 24.8668 239.625 22.8955 238.479 21.265C237.257 19.5254 235.156 18.5 232.001 18.5V20V21.5C234.475 21.5 235.515 22.2646 236.025 22.99C236.611 23.8245 236.781 24.9932 236.781 26.28H238.281ZM232.001 20V18.5C228.845 18.5 226.745 19.5254 225.522 21.265C224.376 22.8955 224.221 24.8668 224.221 26.28H225.721H227.221C227.221 24.9932 227.39 23.8245 227.977 22.99C228.487 22.2646 229.526 21.5 232.001 21.5V20ZM225.721 26.28H224.221V27.53H225.721H227.221V26.28H225.721ZM225.721 27.53L225.898 29.0195C226.258 28.9766 226.669 28.95 227.121 28.95V27.45V25.95C226.552 25.95 226.023 25.9834 225.543 26.0405L225.721 27.53Z" fill="#1DA534" mask="url(#path-12-inside-1_15958_19593)"/>
</g>
</g>
</g>
<defs>
<filter id="filter0_d_15958_19593" x="199" y="5" width="66" height="66" filterUnits="userSpaceOnUse" color-interpolation-filters="sRGB">
<feFlood flood-opacity="0" result="BackgroundImageFix"/>
<feColorMatrix in="SourceAlpha" type="matrix" values="0 0 0 0 0 0 0 0 0 0 0 0 0 0 0 0 0 0 127 0" result="hardAlpha"/>
<feOffset dy="8"/>
<feGaussianBlur stdDeviation="7.5"/>
<feColorMatrix type="matrix" values="0 0 0 0 0 0 0 0 0 0 0 0 0 0 0 0 0 0 0.25 0"/>
<feBlend mode="normal" in2="BackgroundImageFix" result="effect1_dropShadow_15958_19593"/>
<feBlend mode="normal" in="SourceGraphic" in2="effect1_dropShadow_15958_19593" result="shape"/>
</filter>
<clipPath id="clip0_15958_19593">
<rect width="32" height="32" fill="white" transform="translate(171 19)"/>
</clipPath>
</defs>
</svg>
