<svg width="137" height="118" viewBox="0 0 137 118" fill="none" xmlns="http://www.w3.org/2000/svg">
<rect x="2" y="2" width="114" height="114" rx="57" fill="white"/>
<rect x="2" y="2" width="114" height="114" rx="57" stroke="#DEE2E6" stroke-width="4"/>
<g clip-path="url(#clip0_15958_19594)">
<mask id="mask0_15958_19594" style="mask-type:luminance" maskUnits="userSpaceOnUse" x="43" y="19" width="32" height="32">
<path d="M75 19H43V51H75V19Z" fill="white"/>
</mask>
<g mask="url(#mask0_15958_19594)">
<path d="M68.4681 29.5601C68.4681 33.8535 64.9748 37.3335 60.6948 37.3335C56.3881 37.3335 52.9082 33.8401 52.9082 29.5601C52.9082 25.2534 56.4015 21.7734 60.6948 21.7734C64.9748 21.7734 68.4681 25.2534 68.4681 29.5601Z" fill="#1DA534"/>
<path opacity="0.4" d="M70.4407 38.7731C70.8807 38.3064 70.854 37.5731 70.3873 37.1331C69.9207 36.6931 69.1875 36.7198 68.7475 37.1864C66.6408 39.4264 63.7873 40.6664 60.694 40.6664C54.574 40.6664 49.5872 35.6798 49.5872 29.5597C49.5872 27.6397 50.0807 25.7597 51.014 24.1197C51.334 23.5598 51.1341 22.8531 50.5741 22.5331C50.0141 22.2131 49.3073 22.4131 48.9873 22.9731C47.854 24.9597 47.2539 27.2397 47.2539 29.5597C47.2539 36.5731 52.6673 42.3464 59.5207 42.9331V46.1198H56.5872C55.9472 46.1198 55.4273 46.6398 55.4273 47.2798C55.4273 47.9198 55.9472 48.4398 56.5872 48.4398H64.774C65.414 48.4398 65.934 47.9198 65.934 47.2798C65.934 46.6398 65.414 46.1198 64.774 46.1198H61.8407V42.9331C65.134 42.6398 68.1607 41.1998 70.4407 38.7731Z" fill="#1DA534"/>
</g>
</g>
<path d="M34.0878 67.13C33.3251 67.13 32.6751 66.987 32.1378 66.701C31.6091 66.415 31.2018 66.012 30.9158 65.492C30.6385 64.972 30.4825 64.361 30.4478 63.659C30.4391 63.2777 30.4348 62.8747 30.4348 62.45C30.4348 62.0167 30.4391 61.605 30.4478 61.215C30.4825 60.513 30.6385 59.9063 30.9158 59.395C31.2018 58.8837 31.6135 58.485 32.1508 58.199C32.6881 57.913 33.3338 57.77 34.0878 57.77C34.7031 57.77 35.2361 57.8567 35.6868 58.03C36.1375 58.2033 36.5058 58.4243 36.7918 58.693C37.0865 58.953 37.3031 59.226 37.4418 59.512C37.5891 59.798 37.6671 60.0493 37.6758 60.266C37.6845 60.344 37.6628 60.409 37.6108 60.461C37.5588 60.5043 37.4895 60.526 37.4028 60.526H36.6358C36.5491 60.526 36.4841 60.5087 36.4408 60.474C36.4061 60.4393 36.3715 60.3787 36.3368 60.292C36.2588 60.0667 36.1288 59.8457 35.9468 59.629C35.7735 59.4123 35.5351 59.2347 35.2318 59.096C34.9371 58.9487 34.5558 58.875 34.0878 58.875C33.4031 58.875 32.8485 59.0613 32.4238 59.434C32.0078 59.8067 31.7825 60.422 31.7478 61.28C31.7218 62.0513 31.7218 62.8227 31.7478 63.594C31.7825 64.4607 32.0121 65.0847 32.4368 65.466C32.8615 65.8387 33.4161 66.025 34.1008 66.025C34.5601 66.025 34.9675 65.9427 35.3228 65.778C35.6868 65.6047 35.9728 65.3403 36.1808 64.985C36.3888 64.6297 36.4928 64.179 36.4928 63.633V63.087H34.5428C34.4561 63.087 34.3825 63.061 34.3218 63.009C34.2698 62.9483 34.2438 62.8703 34.2438 62.775V62.359C34.2438 62.2637 34.2698 62.19 34.3218 62.138C34.3825 62.0773 34.4561 62.047 34.5428 62.047H37.4808C37.5761 62.047 37.6498 62.0773 37.7018 62.138C37.7538 62.19 37.7798 62.2637 37.7798 62.359V63.607C37.7798 64.3177 37.6325 64.9373 37.3378 65.466C37.0518 65.9947 36.6315 66.4063 36.0768 66.701C35.5221 66.987 34.8591 67.13 34.0878 67.13ZM42.1564 67.13C41.2638 67.13 40.5531 66.857 40.0244 66.311C39.4958 65.7563 39.2054 65.0023 39.1534 64.049C39.1448 63.9363 39.1404 63.7933 39.1404 63.62C39.1404 63.438 39.1448 63.2907 39.1534 63.178C39.1881 62.5627 39.3311 62.0253 39.5824 61.566C39.8338 61.098 40.1761 60.7383 40.6094 60.487C41.0514 60.2357 41.5671 60.11 42.1564 60.11C42.8151 60.11 43.3654 60.2487 43.8074 60.526C44.2581 60.8033 44.6004 61.1977 44.8344 61.709C45.0684 62.2203 45.1854 62.8183 45.1854 63.503V63.724C45.1854 63.8193 45.1551 63.893 45.0944 63.945C45.0424 63.997 44.9731 64.023 44.8864 64.023H40.3884C40.3884 64.0317 40.3884 64.049 40.3884 64.075C40.3884 64.101 40.3884 64.1227 40.3884 64.14C40.4058 64.4953 40.4838 64.829 40.6224 65.141C40.7611 65.4443 40.9604 65.6913 41.2204 65.882C41.4804 66.0727 41.7924 66.168 42.1564 66.168C42.4684 66.168 42.7284 66.1203 42.9364 66.025C43.1444 65.9297 43.3134 65.8257 43.4434 65.713C43.5734 65.5917 43.6601 65.5007 43.7034 65.44C43.7814 65.3273 43.8421 65.2623 43.8854 65.245C43.9288 65.219 43.9981 65.206 44.0934 65.206H44.7174C44.8041 65.206 44.8734 65.232 44.9254 65.284C44.9861 65.3273 45.0121 65.3923 45.0034 65.479C44.9948 65.609 44.9254 65.7693 44.7954 65.96C44.6654 66.142 44.4791 66.324 44.2364 66.506C43.9938 66.688 43.6991 66.8397 43.3524 66.961C43.0058 67.0737 42.6071 67.13 42.1564 67.13ZM40.3884 63.126H43.9504V63.087C43.9504 62.697 43.8768 62.3503 43.7294 62.047C43.5908 61.7437 43.3871 61.5053 43.1184 61.332C42.8498 61.15 42.5291 61.059 42.1564 61.059C41.7838 61.059 41.4631 61.15 41.1944 61.332C40.9344 61.5053 40.7351 61.7437 40.5964 62.047C40.4578 62.3503 40.3884 62.697 40.3884 63.087V63.126ZM49.5088 67.13C48.8502 67.13 48.2998 67.0043 47.8578 66.753C47.4158 66.5017 47.0778 66.155 46.8438 65.713C46.6098 65.2623 46.4798 64.751 46.4538 64.179C46.4452 64.0317 46.4408 63.8453 46.4408 63.62C46.4408 63.386 46.4452 63.1997 46.4538 63.061C46.4798 62.4803 46.6098 61.969 46.8438 61.527C47.0865 61.085 47.4288 60.7383 47.8708 60.487C48.3128 60.2357 48.8588 60.11 49.5088 60.11C50.1588 60.11 50.7048 60.2357 51.1468 60.487C51.5888 60.7383 51.9268 61.085 52.1608 61.527C52.4035 61.969 52.5378 62.4803 52.5638 63.061C52.5725 63.1997 52.5768 63.386 52.5768 63.62C52.5768 63.8453 52.5725 64.0317 52.5638 64.179C52.5378 64.751 52.4078 65.2623 52.1738 65.713C51.9398 66.155 51.6018 66.5017 51.1598 66.753C50.7178 67.0043 50.1675 67.13 49.5088 67.13ZM49.5088 66.129C50.0462 66.129 50.4752 65.96 50.7958 65.622C51.1165 65.2753 51.2898 64.7727 51.3158 64.114C51.3245 63.984 51.3288 63.8193 51.3288 63.62C51.3288 63.4207 51.3245 63.256 51.3158 63.126C51.2898 62.4673 51.1165 61.969 50.7958 61.631C50.4752 61.2843 50.0462 61.111 49.5088 61.111C48.9715 61.111 48.5382 61.2843 48.2088 61.631C47.8882 61.969 47.7192 62.4673 47.7018 63.126C47.6932 63.256 47.6888 63.4207 47.6888 63.62C47.6888 63.8193 47.6932 63.984 47.7018 64.114C47.7192 64.7727 47.8882 65.2753 48.2088 65.622C48.5382 65.96 48.9715 66.129 49.5088 66.129ZM56.9737 69.86C56.3843 69.86 55.899 69.782 55.5177 69.626C55.145 69.47 54.8503 69.2793 54.6337 69.054C54.4257 68.8373 54.274 68.6163 54.1787 68.391C54.092 68.1743 54.0443 68.001 54.0357 67.871C54.027 67.7843 54.053 67.7107 54.1137 67.65C54.183 67.5893 54.2567 67.559 54.3347 67.559H54.9587C55.0367 67.559 55.1017 67.5763 55.1537 67.611C55.2057 67.6457 55.249 67.7193 55.2837 67.832C55.3357 67.962 55.4137 68.105 55.5177 68.261C55.6217 68.4257 55.782 68.5643 55.9987 68.677C56.2153 68.7983 56.5187 68.859 56.9087 68.859C57.316 68.859 57.6583 68.8027 57.9357 68.69C58.213 68.586 58.421 68.3953 58.5597 68.118C58.707 67.8493 58.7807 67.4767 58.7807 67V66.116C58.5727 66.3847 58.2997 66.61 57.9617 66.792C57.6237 66.9653 57.199 67.052 56.6877 67.052C56.2023 67.052 55.7863 66.9697 55.4397 66.805C55.093 66.6317 54.807 66.402 54.5817 66.116C54.365 65.8213 54.2003 65.4877 54.0877 65.115C53.9837 64.7423 53.923 64.3523 53.9057 63.945C53.897 63.7023 53.897 63.464 53.9057 63.23C53.923 62.8227 53.9837 62.4327 54.0877 62.06C54.2003 61.6873 54.365 61.3537 54.5817 61.059C54.807 60.7643 55.093 60.5347 55.4397 60.37C55.7863 60.1967 56.2023 60.11 56.6877 60.11C57.2077 60.11 57.6367 60.2097 57.9747 60.409C58.3213 60.5997 58.603 60.8337 58.8197 61.111V60.552C58.8197 60.4653 58.8457 60.3917 58.8977 60.331C58.9583 60.2703 59.032 60.24 59.1187 60.24H59.7167C59.8033 60.24 59.877 60.2703 59.9377 60.331C59.9983 60.3917 60.0287 60.4653 60.0287 60.552V66.857C60.0287 67.4377 59.929 67.9533 59.7297 68.404C59.539 68.8547 59.2183 69.21 58.7677 69.47C58.3257 69.73 57.7277 69.86 56.9737 69.86ZM56.9477 66.012C57.381 66.012 57.7277 65.9123 57.9877 65.713C58.2563 65.5137 58.4513 65.2623 58.5727 64.959C58.7027 64.6557 58.772 64.348 58.7807 64.036C58.7893 63.9147 58.7937 63.7673 58.7937 63.594C58.7937 63.412 58.7893 63.2603 58.7807 63.139C58.772 62.827 58.7027 62.5193 58.5727 62.216C58.4513 61.9127 58.2563 61.6613 57.9877 61.462C57.7277 61.2627 57.381 61.163 56.9477 61.163C56.5143 61.163 56.1677 61.2627 55.9077 61.462C55.6477 61.6527 55.4613 61.9083 55.3487 62.229C55.236 62.541 55.171 62.879 55.1537 63.243C55.145 63.4683 55.145 63.698 55.1537 63.932C55.171 64.296 55.236 64.6383 55.3487 64.959C55.4613 65.271 55.6477 65.5267 55.9077 65.726C56.1677 65.9167 56.5143 66.012 56.9477 66.012ZM62.2605 67C62.1738 67 62.1002 66.974 62.0395 66.922C61.9875 66.8613 61.9615 66.7877 61.9615 66.701V60.552C61.9615 60.4653 61.9875 60.3917 62.0395 60.331C62.1002 60.2703 62.1738 60.24 62.2605 60.24H62.8585C62.9452 60.24 63.0188 60.2703 63.0795 60.331C63.1402 60.3917 63.1705 60.4653 63.1705 60.552V61.124C63.3438 60.8293 63.5822 60.6083 63.8855 60.461C64.1888 60.3137 64.5528 60.24 64.9775 60.24H65.4975C65.5842 60.24 65.6535 60.2703 65.7055 60.331C65.7575 60.383 65.7835 60.4523 65.7835 60.539V61.072C65.7835 61.1587 65.7575 61.228 65.7055 61.28C65.6535 61.332 65.5842 61.358 65.4975 61.358H64.7175C64.2495 61.358 63.8812 61.4967 63.6125 61.774C63.3438 62.0427 63.2095 62.411 63.2095 62.879V66.701C63.2095 66.7877 63.1792 66.8613 63.1185 66.922C63.0578 66.974 62.9842 67 62.8975 67H62.2605ZM68.6834 67.13C68.2501 67.13 67.8558 67.0433 67.5004 66.87C67.1451 66.6967 66.8591 66.4627 66.6424 66.168C66.4258 65.8733 66.3174 65.5397 66.3174 65.167C66.3174 64.569 66.5601 64.0923 67.0454 63.737C67.5308 63.3817 68.1634 63.1477 68.9434 63.035L70.8804 62.762V62.385C70.8804 61.969 70.7591 61.644 70.5164 61.41C70.2824 61.176 69.8968 61.059 69.3594 61.059C68.9694 61.059 68.6531 61.137 68.4104 61.293C68.1764 61.449 68.0118 61.6483 67.9164 61.891C67.8644 62.021 67.7734 62.086 67.6434 62.086H67.0584C66.9631 62.086 66.8894 62.06 66.8374 62.008C66.7941 61.9473 66.7724 61.878 66.7724 61.8C66.7724 61.67 66.8201 61.5097 66.9154 61.319C67.0194 61.1283 67.1754 60.942 67.3834 60.76C67.5914 60.578 67.8558 60.4263 68.1764 60.305C68.5058 60.175 68.9044 60.11 69.3724 60.11C69.8924 60.11 70.3301 60.1793 70.6854 60.318C71.0408 60.448 71.3181 60.6257 71.5174 60.851C71.7254 61.0763 71.8728 61.332 71.9594 61.618C72.0548 61.904 72.1024 62.1943 72.1024 62.489V66.701C72.1024 66.7877 72.0721 66.8613 72.0114 66.922C71.9594 66.974 71.8901 67 71.8034 67H71.2054C71.1101 67 71.0364 66.974 70.9844 66.922C70.9324 66.8613 70.9064 66.7877 70.9064 66.701V66.142C70.7938 66.298 70.6421 66.454 70.4514 66.61C70.2608 66.7573 70.0224 66.883 69.7364 66.987C69.4504 67.0823 69.0994 67.13 68.6834 67.13ZM68.9564 66.155C69.3118 66.155 69.6368 66.0813 69.9314 65.934C70.2261 65.778 70.4558 65.5397 70.6204 65.219C70.7938 64.8983 70.8804 64.4953 70.8804 64.01V63.646L69.3724 63.867C68.7571 63.9537 68.2934 64.101 67.9814 64.309C67.6694 64.5083 67.5134 64.764 67.5134 65.076C67.5134 65.3187 67.5828 65.5223 67.7214 65.687C67.8688 65.843 68.0508 65.96 68.2674 66.038C68.4928 66.116 68.7224 66.155 68.9564 66.155ZM74.8828 67C74.7961 67 74.7225 66.974 74.6618 66.922C74.6098 66.8613 74.5838 66.7877 74.5838 66.701V61.28H73.4788C73.3921 61.28 73.3185 61.254 73.2578 61.202C73.2058 61.1413 73.1798 61.0677 73.1798 60.981V60.539C73.1798 60.4523 73.2058 60.383 73.2578 60.331C73.3185 60.2703 73.3921 60.24 73.4788 60.24H74.5838V59.59C74.5838 59.148 74.6575 58.7623 74.8048 58.433C74.9521 58.095 75.1861 57.835 75.5068 57.653C75.8361 57.471 76.2738 57.38 76.8198 57.38H77.5998C77.6865 57.38 77.7558 57.4103 77.8078 57.471C77.8598 57.523 77.8858 57.5923 77.8858 57.679V58.121C77.8858 58.2077 77.8598 58.2813 77.8078 58.342C77.7558 58.394 77.6865 58.42 77.5998 58.42H76.8458C76.4385 58.42 76.1611 58.5283 76.0138 58.745C75.8665 58.953 75.7928 59.2563 75.7928 59.655V60.24H77.4698C77.5565 60.24 77.6258 60.2703 77.6778 60.331C77.7298 60.383 77.7558 60.4523 77.7558 60.539V60.981C77.7558 61.0677 77.7298 61.1413 77.6778 61.202C77.6258 61.254 77.5565 61.28 77.4698 61.28H75.7928V66.701C75.7928 66.7877 75.7625 66.8613 75.7018 66.922C75.6498 66.974 75.5805 67 75.4938 67H74.8828ZM79.2849 67C79.1983 67 79.1246 66.974 79.0639 66.922C79.0119 66.8613 78.9859 66.7877 78.9859 66.701V60.539C78.9859 60.4523 79.0119 60.383 79.0639 60.331C79.1246 60.2703 79.1983 60.24 79.2849 60.24H79.9089C79.9956 60.24 80.0649 60.2703 80.1169 60.331C80.1689 60.383 80.1949 60.4523 80.1949 60.539V66.701C80.1949 66.7877 80.1689 66.8613 80.1169 66.922C80.0649 66.974 79.9956 67 79.9089 67H79.2849ZM79.2459 59.265C79.1073 59.265 79.0379 59.1957 79.0379 59.057C79.0379 58.9877 79.0596 58.9313 79.1029 58.888L80.0779 57.718C80.1559 57.6227 80.2253 57.562 80.2859 57.536C80.3466 57.5013 80.4376 57.484 80.5589 57.484H81.4429C81.6076 57.484 81.6899 57.5663 81.6899 57.731C81.6899 57.7917 81.6683 57.8437 81.6249 57.887L80.1169 59.122C80.0476 59.1827 79.9826 59.2217 79.9219 59.239C79.8613 59.2563 79.7833 59.265 79.6879 59.265H79.2459ZM84.0194 67.13C83.586 67.13 83.1917 67.0433 82.8364 66.87C82.481 66.6967 82.195 66.4627 81.9784 66.168C81.7617 65.8733 81.6534 65.5397 81.6534 65.167C81.6534 64.569 81.896 64.0923 82.3814 63.737C82.8667 63.3817 83.4994 63.1477 84.2794 63.035L86.2164 62.762V62.385C86.2164 61.969 86.095 61.644 85.8524 61.41C85.6184 61.176 85.2327 61.059 84.6954 61.059C84.3054 61.059 83.989 61.137 83.7464 61.293C83.5124 61.449 83.3477 61.6483 83.2524 61.891C83.2004 62.021 83.1094 62.086 82.9794 62.086H82.3944C82.299 62.086 82.2254 62.06 82.1734 62.008C82.13 61.9473 82.1084 61.878 82.1084 61.8C82.1084 61.67 82.156 61.5097 82.2514 61.319C82.3554 61.1283 82.5114 60.942 82.7194 60.76C82.9274 60.578 83.1917 60.4263 83.5124 60.305C83.8417 60.175 84.2404 60.11 84.7084 60.11C85.2284 60.11 85.666 60.1793 86.0214 60.318C86.3767 60.448 86.654 60.6257 86.8534 60.851C87.0614 61.0763 87.2087 61.332 87.2954 61.618C87.3907 61.904 87.4384 62.1943 87.4384 62.489V66.701C87.4384 66.7877 87.408 66.8613 87.3474 66.922C87.2954 66.974 87.226 67 87.1394 67H86.5414C86.446 67 86.3724 66.974 86.3204 66.922C86.2684 66.8613 86.2424 66.7877 86.2424 66.701V66.142C86.1297 66.298 85.978 66.454 85.7874 66.61C85.5967 66.7573 85.3584 66.883 85.0724 66.987C84.7864 67.0823 84.4354 67.13 84.0194 67.13ZM84.2924 66.155C84.6477 66.155 84.9727 66.0813 85.2674 65.934C85.562 65.778 85.7917 65.5397 85.9564 65.219C86.1297 64.8983 86.2164 64.4953 86.2164 64.01V63.646L84.7084 63.867C84.093 63.9537 83.6294 64.101 83.3174 64.309C83.0054 64.5083 82.8494 64.764 82.8494 65.076C82.8494 65.3187 82.9187 65.5223 83.0574 65.687C83.2047 65.843 83.3867 65.96 83.6034 66.038C83.8287 66.116 84.0584 66.155 84.2924 66.155Z" fill="#171B22"/>
<rect x="40.5" y="74" width="37" height="25" rx="12.5" fill="#1DA534"/>
<path d="M53.3417 91.14C52.6697 91.14 52.0864 91.0467 51.5917 90.86C51.097 90.664 50.6864 90.398 50.3597 90.062C50.0424 89.726 49.7997 89.334 49.6317 88.886C49.4637 88.438 49.3657 87.9573 49.3377 87.444C49.3284 87.192 49.319 86.9073 49.3097 86.59C49.3097 86.2633 49.3097 85.9367 49.3097 85.61C49.319 85.274 49.3284 84.9753 49.3377 84.714C49.3657 84.2007 49.4637 83.7247 49.6317 83.286C49.809 82.838 50.061 82.4507 50.3877 82.124C50.7237 81.788 51.1344 81.5267 51.6197 81.34C52.1144 81.1533 52.6884 81.06 53.3417 81.06C54.0044 81.06 54.5784 81.1533 55.0637 81.34C55.549 81.5267 55.955 81.788 56.2817 82.124C56.6177 82.4507 56.8744 82.838 57.0517 83.286C57.229 83.7247 57.327 84.2007 57.3457 84.714C57.3644 84.9753 57.3737 85.274 57.3737 85.61C57.383 85.9367 57.383 86.2633 57.3737 86.59C57.3737 86.9073 57.3644 87.192 57.3457 87.444C57.327 87.9573 57.229 88.438 57.0517 88.886C56.8837 89.334 56.6364 89.726 56.3097 90.062C55.9924 90.398 55.5864 90.664 55.0917 90.86C54.6064 91.0467 54.023 91.14 53.3417 91.14ZM53.3417 89.11C53.827 89.11 54.177 88.956 54.3917 88.648C54.6157 88.3307 54.7324 87.906 54.7417 87.374C54.7604 87.1033 54.7697 86.8187 54.7697 86.52C54.779 86.2213 54.779 85.9227 54.7697 85.624C54.7697 85.3253 54.7604 85.05 54.7417 84.798C54.7324 84.2847 54.6157 83.8693 54.3917 83.552C54.177 83.2347 53.827 83.0713 53.3417 83.062C52.8564 83.0713 52.5064 83.2347 52.2917 83.552C52.077 83.8693 51.9604 84.2847 51.9417 84.798C51.9324 85.05 51.923 85.3253 51.9137 85.624C51.9137 85.9227 51.9137 86.2213 51.9137 86.52C51.923 86.8187 51.9324 87.1033 51.9417 87.374C51.9604 87.906 52.0817 88.3307 52.3057 88.648C52.5297 88.956 52.875 89.11 53.3417 89.11ZM59.6793 91C59.4647 91 59.3573 90.9067 59.3573 90.72C59.3573 90.664 59.376 90.6127 59.4133 90.566L66.3293 81.466C66.3947 81.382 66.46 81.3167 66.5253 81.27C66.5907 81.2233 66.6887 81.2 66.8193 81.2H67.8133C68.028 81.2 68.1353 81.2933 68.1353 81.48C68.1353 81.536 68.1167 81.5873 68.0793 81.634L61.1633 90.734C61.098 90.818 61.0327 90.8833 60.9673 90.93C60.902 90.9767 60.804 91 60.6733 91H59.6793ZM66.7213 91.07C66.0867 91.07 65.578 90.902 65.1953 90.566C64.822 90.23 64.612 89.782 64.5653 89.222C64.556 88.9793 64.5513 88.7647 64.5513 88.578C64.5513 88.3913 64.556 88.1673 64.5653 87.906C64.6027 87.3367 64.8033 86.884 65.1673 86.548C65.5407 86.2027 66.0587 86.03 66.7213 86.03C67.3933 86.03 67.9113 86.2027 68.2753 86.548C68.6393 86.884 68.84 87.3367 68.8773 87.906C68.896 88.1673 68.9053 88.3913 68.9053 88.578C68.9053 88.7647 68.896 88.9793 68.8773 89.222C68.84 89.782 68.63 90.23 68.2473 90.566C67.8647 90.902 67.356 91.07 66.7213 91.07ZM66.7213 89.838C66.88 89.838 67.0013 89.8053 67.0853 89.74C67.1787 89.6747 67.2487 89.5907 67.2953 89.488C67.342 89.376 67.3653 89.2593 67.3653 89.138C67.384 88.9233 67.3933 88.7273 67.3933 88.55C67.3933 88.3727 67.384 88.1813 67.3653 87.976C67.356 87.7987 67.3047 87.64 67.2113 87.5C67.118 87.3507 66.9547 87.276 66.7213 87.276C66.488 87.276 66.3247 87.3507 66.2313 87.5C66.138 87.64 66.0867 87.7987 66.0773 87.976C66.068 88.1813 66.0633 88.3727 66.0633 88.55C66.0633 88.7273 66.068 88.9233 66.0773 89.138C66.0867 89.2593 66.11 89.376 66.1473 89.488C66.194 89.5907 66.264 89.6747 66.3573 89.74C66.4507 89.8053 66.572 89.838 66.7213 89.838ZM60.7993 86.142C60.1553 86.142 59.642 85.9787 59.2593 85.652C58.886 85.316 58.6807 84.868 58.6433 84.308C58.6247 84.0653 58.6153 83.8553 58.6153 83.678C58.6247 83.4913 58.634 83.2673 58.6433 83.006C58.6713 82.4367 58.8673 81.984 59.2313 81.648C59.6047 81.3027 60.1273 81.13 60.7993 81.13C61.4713 81.13 61.9893 81.3027 62.3533 81.648C62.7173 81.984 62.9133 82.4367 62.9413 83.006C62.96 83.2673 62.9693 83.4913 62.9693 83.678C62.9693 83.8553 62.96 84.0653 62.9413 84.308C62.9133 84.868 62.708 85.316 62.3253 85.652C61.9427 85.9787 61.434 86.142 60.7993 86.142ZM60.7993 84.938C60.9487 84.938 61.07 84.9053 61.1633 84.84C61.2567 84.7653 61.3267 84.6767 61.3733 84.574C61.42 84.462 61.4433 84.35 61.4433 84.238C61.462 84.0233 61.4713 83.8273 61.4713 83.65C61.4713 83.4727 61.462 83.2813 61.4433 83.076C61.434 82.8987 61.378 82.74 61.2753 82.6C61.182 82.4507 61.0233 82.376 60.7993 82.376C60.566 82.376 60.398 82.4507 60.2953 82.6C60.202 82.74 60.1507 82.8987 60.1413 83.076C60.132 83.2813 60.1273 83.4727 60.1273 83.65C60.1273 83.8273 60.132 84.0233 60.1413 84.238C60.1507 84.35 60.174 84.462 60.2113 84.574C60.258 84.6767 60.328 84.7653 60.4213 84.84C60.5147 84.9053 60.6407 84.938 60.7993 84.938Z" fill="white"/>
<g filter="url(#filter0_d_15958_19594)">
<rect x="88" y="14" width="32" height="32" rx="16" fill="white"/>
<rect x="87" y="13" width="34" height="34" rx="17" stroke="#1DA534" stroke-width="2"/>
<path opacity="0.4" d="M103.999 32.8398C104.485 32.8398 104.879 33.2338 104.879 33.7197C104.879 34.2057 104.485 34.5996 103.999 34.5996C103.513 34.5995 103.119 34.2057 103.119 33.7197C103.119 33.2338 103.513 32.8399 103.999 32.8398Z" fill="#1DA534" stroke="#1DA534" stroke-width="1.5"/>
<path d="M99.3496 28.1899H108.65C110.674 28.19 111.735 28.5109 112.332 29.1079C112.929 29.7049 113.25 30.7662 113.25 32.7896V34.6499C113.25 36.6735 112.929 37.7355 112.332 38.3325C111.735 38.9294 110.673 39.2495 108.65 39.2495H99.3496C97.3266 39.2495 96.265 38.9294 95.668 38.3325C95.0709 37.7355 94.75 36.6735 94.75 34.6499V32.7896C94.75 30.7662 95.0709 29.7049 95.668 29.1079C96.265 28.5109 97.3263 28.19 99.3496 28.1899ZM104 29.9497C101.914 29.9497 100.23 31.6476 100.23 33.7202C100.231 35.7927 101.914 37.4897 104 37.4897C106.086 37.4897 107.769 35.7927 107.77 33.7202C107.77 31.6476 106.086 29.9497 104 29.9497Z" fill="#1DA534" stroke="#1DA534" stroke-width="1.5"/>
<g opacity="0.4">
<mask id="path-12-inside-1_15958_19594" fill="white">
<path d="M99.1207 27.45V26.28C99.1207 23.35 99.9507 21.4 104.001 21.4C108.051 21.4 108.881 23.35 108.881 26.28V27.45C109.391 27.46 109.851 27.48 110.281 27.54V26.28C110.281 23.58 109.631 20 104.001 20C98.3707 20 97.7207 23.58 97.7207 26.28V27.53C98.1407 27.48 98.6107 27.45 99.1207 27.45Z"/>
</mask>
<path d="M99.1207 27.45V26.28C99.1207 23.35 99.9507 21.4 104.001 21.4C108.051 21.4 108.881 23.35 108.881 26.28V27.45C109.391 27.46 109.851 27.48 110.281 27.54V26.28C110.281 23.58 109.631 20 104.001 20C98.3707 20 97.7207 23.58 97.7207 26.28V27.53C98.1407 27.48 98.6107 27.45 99.1207 27.45Z" fill="#1DA534"/>
<path d="M99.1207 27.45V28.95H100.621V27.45H99.1207ZM108.881 27.45H107.381V28.9209L108.851 28.9497L108.881 27.45ZM110.281 27.54L110.073 29.0256L111.781 29.2638V27.54H110.281ZM110.281 26.28H108.781H110.281ZM97.7207 27.53H96.2207V29.2192L97.898 29.0195L97.7207 27.53ZM99.1207 27.45H100.621V26.28H99.1207H97.6207V27.45H99.1207ZM99.1207 26.28H100.621C100.621 24.8831 100.837 24.1294 101.193 23.7033C101.498 23.3385 102.182 22.9 104.001 22.9V21.4V19.9C101.769 19.9 100.014 20.4365 98.8911 21.7792C97.8198 23.0606 97.6207 24.7469 97.6207 26.28H99.1207ZM104.001 21.4V22.9C105.819 22.9 106.504 23.3385 106.809 23.7033C107.165 24.1294 107.381 24.8831 107.381 26.28H108.881H110.381C110.381 24.7469 110.182 23.0606 109.11 21.7792C107.988 20.4365 106.232 19.9 104.001 19.9V21.4ZM108.881 26.28H107.381V27.45H108.881H110.381V26.28H108.881ZM108.881 27.45L108.851 28.9497C109.349 28.9595 109.735 28.9785 110.073 29.0256L110.281 27.54L110.488 26.0544C109.966 25.9815 109.433 25.9605 108.91 25.9503L108.881 27.45ZM110.281 27.54H111.781V26.28H110.281H108.781V27.54H110.281ZM110.281 26.28H111.781C111.781 24.8668 111.625 22.8955 110.479 21.265C109.257 19.5254 107.156 18.5 104.001 18.5V20V21.5C106.475 21.5 107.515 22.2646 108.025 22.99C108.611 23.8245 108.781 24.9932 108.781 26.28H110.281ZM104.001 20V18.5C100.845 18.5 98.7449 19.5254 97.5222 21.265C96.3762 22.8955 96.2207 24.8668 96.2207 26.28H97.7207H99.2207C99.2207 24.9932 99.3902 23.8245 99.9767 22.99C100.487 22.2646 101.526 21.5 104.001 21.5V20ZM97.7207 26.28H96.2207V27.53H97.7207H99.2207V26.28H97.7207ZM97.7207 27.53L97.898 29.0195C98.2582 28.9766 98.669 28.95 99.1207 28.95V27.45V25.95C98.5524 25.95 98.0232 25.9834 97.5434 26.0405L97.7207 27.53Z" fill="#1DA534" mask="url(#path-12-inside-1_15958_19594)"/>
</g>
</g>
<defs>
<filter id="filter0_d_15958_19594" x="71" y="5" width="66" height="66" filterUnits="userSpaceOnUse" color-interpolation-filters="sRGB">
<feFlood flood-opacity="0" result="BackgroundImageFix"/>
<feColorMatrix in="SourceAlpha" type="matrix" values="0 0 0 0 0 0 0 0 0 0 0 0 0 0 0 0 0 0 127 0" result="hardAlpha"/>
<feOffset dy="8"/>
<feGaussianBlur stdDeviation="7.5"/>
<feColorMatrix type="matrix" values="0 0 0 0 0 0 0 0 0 0 0 0 0 0 0 0 0 0 0.25 0"/>
<feBlend mode="normal" in2="BackgroundImageFix" result="effect1_dropShadow_15958_19594"/>
<feBlend mode="normal" in="SourceGraphic" in2="effect1_dropShadow_15958_19594" result="shape"/>
</filter>
<clipPath id="clip0_15958_19594">
<rect width="32" height="32" fill="white" transform="translate(43 19)"/>
</clipPath>
</defs>
</svg>
