<svg width="133" height="118" viewBox="0 0 133 118" fill="none" xmlns="http://www.w3.org/2000/svg">
<rect x="2" y="2" width="114" height="114" rx="57" fill="white"/>
<rect x="2" y="2" width="114" height="114" rx="57" stroke="#DEE2E6" stroke-width="4"/>
<path opacity="0.4" d="M67.334 21.667C70.0954 21.667 72.334 23.9056 72.334 26.667V43.333C72.334 46.0944 70.0954 48.333 67.334 48.333H50.668C47.9065 48.333 45.668 46.0944 45.668 43.333V26.667C45.668 23.9056 47.9065 21.667 50.668 21.667H67.334ZM51.334 24.333C49.6774 24.3332 48.3342 25.6764 48.334 27.333V42.667C48.3342 44.3236 49.6774 45.6668 51.334 45.667H66.668C68.3246 45.6668 69.6678 44.3236 69.668 42.667V27.333C69.6678 25.6764 68.3246 24.3332 66.668 24.333H51.334Z" fill="#157525"/>
<circle cx="53" cy="31.6665" r="2" fill="#157525"/>
<circle cx="56" cy="31.6665" r="2" fill="#157525"/>
<circle cx="59" cy="31.6665" r="2" fill="#157525"/>
<rect x="48.334" y="30.9556" width="21.3333" height="1.42222" fill="#157525"/>
<circle cx="2" cy="2" r="2" transform="matrix(-1 0 0 1 67.002 36.3335)" fill="#157525"/>
<circle cx="2" cy="2" r="2" transform="matrix(-1 0 0 1 64.002 36.3335)" fill="#157525"/>
<circle cx="2" cy="2" r="2" transform="matrix(-1 0 0 1 61.002 36.3335)" fill="#157525"/>
<rect width="21.3333" height="1.42222" transform="matrix(-1 0 0 1 69.668 37.6221)" fill="#157525"/>
<path d="M29.388 64.946L28.712 66.675C28.634 66.8917 28.465 67 28.205 67H27.724C27.646 67 27.5766 66.974 27.516 66.922C27.464 66.8613 27.438 66.792 27.438 66.714C27.438 66.6707 27.4553 66.61 27.49 66.532L30.675 58.329C30.7876 58.043 30.9826 57.9 31.26 57.9H32.04C32.3173 57.9 32.5123 58.043 32.625 58.329L35.797 66.532C35.8316 66.61 35.849 66.6707 35.849 66.714C35.849 66.792 35.8186 66.8613 35.758 66.922C35.706 66.974 35.641 67 35.563 67H35.082C34.822 67 34.653 66.8917 34.575 66.675L33.899 64.946H29.388ZM33.444 63.776L31.65 59.135L29.843 63.776H33.444ZM40.4729 60.24C40.5683 60.24 40.6506 60.2747 40.7199 60.344C40.7893 60.4133 40.8239 60.4957 40.8239 60.591V61.007C40.8239 61.1023 40.7893 61.1847 40.7199 61.254C40.6506 61.3233 40.5683 61.358 40.4729 61.358H39.7189C39.2336 61.358 38.8609 61.488 38.6009 61.748C38.3496 61.9993 38.2239 62.3677 38.2239 62.853V66.649C38.2239 66.7443 38.1893 66.8267 38.1199 66.896C38.0506 66.9653 37.9683 67 37.8729 67H37.3919C37.2966 67 37.2143 66.9653 37.1449 66.896C37.0756 66.8267 37.0409 66.7443 37.0409 66.649V60.591C37.0409 60.4957 37.0756 60.4133 37.1449 60.344C37.2143 60.2747 37.2966 60.24 37.3919 60.24H37.8729C37.9683 60.24 38.0506 60.2747 38.1199 60.344C38.1893 60.4133 38.2239 60.4957 38.2239 60.591V60.994C38.3973 60.734 38.6053 60.5433 38.8479 60.422C39.0906 60.3007 39.4069 60.24 39.7969 60.24H40.4729ZM43.267 58.862C43.267 58.9573 43.2323 59.0397 43.163 59.109C43.0937 59.1783 43.0113 59.213 42.916 59.213H42.175C42.0797 59.213 41.9973 59.1783 41.928 59.109C41.8587 59.0397 41.824 58.9573 41.824 58.862V58.121C41.824 58.0257 41.8587 57.9433 41.928 57.874C41.9973 57.8047 42.0797 57.77 42.175 57.77H42.916C43.0113 57.77 43.0937 57.8047 43.163 57.874C43.2323 57.9433 43.267 58.0257 43.267 58.121V58.862ZM43.137 66.649C43.137 66.7443 43.1023 66.8267 43.033 66.896C42.9637 66.9653 42.8813 67 42.786 67H42.305C42.2097 67 42.1273 66.9653 42.058 66.896C41.9887 66.8267 41.954 66.7443 41.954 66.649V60.591C41.954 60.4957 41.9887 60.4133 42.058 60.344C42.1273 60.2747 42.2097 60.24 42.305 60.24H42.786C42.8813 60.24 42.9637 60.2747 43.033 60.344C43.1023 60.4133 43.137 60.4957 43.137 60.591V66.649ZM46.8577 64.725C46.8577 65.0977 46.9314 65.3837 47.0787 65.583C47.2347 65.7823 47.5251 65.882 47.9497 65.882H48.6387C48.7341 65.882 48.8164 65.9167 48.8857 65.986C48.9551 66.0553 48.9897 66.1377 48.9897 66.233V66.649C48.9897 66.7443 48.9551 66.8267 48.8857 66.896C48.8164 66.9653 48.7341 67 48.6387 67H47.8197C47.0831 67 46.5414 66.8093 46.1947 66.428C45.8481 66.038 45.6747 65.4703 45.6747 64.725V61.358H44.7127C44.6174 61.358 44.5351 61.3233 44.4657 61.254C44.3964 61.1847 44.3617 61.1023 44.3617 61.007V60.591C44.3617 60.4957 44.3964 60.4133 44.4657 60.344C44.5351 60.2747 44.6174 60.24 44.7127 60.24H45.6747V58.121C45.6747 58.0257 45.7094 57.9433 45.7787 57.874C45.8481 57.8047 45.9304 57.77 46.0257 57.77H46.5067C46.6021 57.77 46.6844 57.8047 46.7537 57.874C46.8231 57.9433 46.8577 58.0257 46.8577 58.121V60.24H48.5087C48.6041 60.24 48.6864 60.2747 48.7557 60.344C48.8251 60.4133 48.8597 60.4957 48.8597 60.591V61.007C48.8597 61.1023 48.8251 61.1847 48.7557 61.254C48.6864 61.3233 48.6041 61.358 48.5087 61.358H46.8577V64.725ZM51.4778 60.994C51.6858 60.7253 51.9198 60.513 52.1798 60.357C52.4398 60.1923 52.7865 60.11 53.2198 60.11C54.2338 60.11 54.9445 60.487 55.3518 61.241C55.6032 60.877 55.8892 60.5997 56.2098 60.409C56.5305 60.2097 56.9508 60.11 57.4708 60.11C58.3202 60.11 58.9485 60.3657 59.3558 60.877C59.7718 61.3883 59.9798 62.112 59.9798 63.048V66.649C59.9798 66.7443 59.9452 66.8267 59.8758 66.896C59.8065 66.9653 59.7242 67 59.6288 67H59.1478C59.0525 67 58.9702 66.9653 58.9008 66.896C58.8315 66.8267 58.7968 66.7443 58.7968 66.649V63.178C58.7968 61.878 58.2855 61.228 57.2628 61.228C56.7948 61.228 56.4222 61.384 56.1448 61.696C55.8675 62.008 55.7288 62.4717 55.7288 63.087V66.649C55.7288 66.7443 55.6942 66.8267 55.6248 66.896C55.5555 66.9653 55.4732 67 55.3778 67H54.8968C54.8015 67 54.7192 66.9653 54.6498 66.896C54.5805 66.8267 54.5458 66.7443 54.5458 66.649V63.178C54.5458 61.878 54.0345 61.228 53.0118 61.228C52.5438 61.228 52.1712 61.384 51.8938 61.696C51.6165 62.008 51.4778 62.4717 51.4778 63.087V66.649C51.4778 66.7443 51.4432 66.8267 51.3738 66.896C51.3045 66.9653 51.2222 67 51.1268 67H50.6458C50.5505 67 50.4682 66.9653 50.3988 66.896C50.3295 66.8267 50.2948 66.7443 50.2948 66.649V60.591C50.2948 60.4957 50.3295 60.4133 50.3988 60.344C50.4682 60.2747 50.5505 60.24 50.6458 60.24H51.1268C51.2222 60.24 51.3045 60.2747 51.3738 60.344C51.4432 60.4133 51.4778 60.4957 51.4778 60.591V60.994ZM64.5253 60.11C65.4526 60.11 66.1849 60.4047 66.7223 60.994C67.2596 61.5833 67.5283 62.385 67.5283 63.399V63.75C67.5283 63.8453 67.4936 63.9277 67.4243 63.997C67.3549 64.0663 67.2726 64.101 67.1773 64.101H62.7053V64.179C62.7226 64.751 62.8959 65.2017 63.2253 65.531C63.5633 65.8517 63.9966 66.012 64.5253 66.012C64.9586 66.012 65.2923 65.9557 65.5263 65.843C65.7689 65.7303 65.9856 65.57 66.1763 65.362C66.2456 65.2927 66.3063 65.245 66.3583 65.219C66.4189 65.193 66.4969 65.18 66.5923 65.18H66.9823C67.0863 65.18 67.1729 65.2147 67.2423 65.284C67.3116 65.3533 67.3419 65.4357 67.3333 65.531C67.2986 65.765 67.1686 66.0077 66.9433 66.259C66.7266 66.5017 66.4103 66.7097 65.9943 66.883C65.5869 67.0477 65.0973 67.13 64.5253 67.13C63.9706 67.13 63.4766 67.0043 63.0433 66.753C62.6099 66.493 62.2633 66.1377 62.0033 65.687C61.7519 65.2363 61.6003 64.7293 61.5483 64.166C61.5309 63.906 61.5223 63.7067 61.5223 63.568C61.5223 63.4293 61.5309 63.23 61.5483 62.97C61.6003 62.4327 61.7519 61.9473 62.0033 61.514C62.2633 61.0807 62.6056 60.7383 63.0303 60.487C63.4636 60.2357 63.9619 60.11 64.5253 60.11ZM66.3583 63.009V62.97C66.3583 62.4413 66.1893 62.021 65.8513 61.709C65.5219 61.3883 65.0799 61.228 64.5253 61.228C64.0226 61.228 63.5936 61.3883 63.2383 61.709C62.8916 62.0297 62.7139 62.45 62.7053 62.97V63.009H66.3583ZM64.9283 57.692C65.0236 57.588 65.1016 57.523 65.1623 57.497C65.2229 57.4623 65.3053 57.445 65.4093 57.445H66.3713C66.4493 57.445 66.5099 57.471 66.5533 57.523C66.5966 57.5663 66.6183 57.627 66.6183 57.705C66.6183 57.7657 66.5966 57.8177 66.5533 57.861L65.1103 59.044C65.0149 59.122 64.9283 59.1783 64.8503 59.213C64.7809 59.2477 64.6856 59.265 64.5643 59.265H64.0833C63.9446 59.265 63.8753 59.1957 63.8753 59.057C63.8753 58.9877 63.8969 58.9313 63.9403 58.888L64.9283 57.692ZM70.8646 64.725C70.8646 65.0977 70.9382 65.3837 71.0856 65.583C71.2416 65.7823 71.5319 65.882 71.9566 65.882H72.6456C72.7409 65.882 72.8232 65.9167 72.8926 65.986C72.9619 66.0553 72.9966 66.1377 72.9966 66.233V66.649C72.9966 66.7443 72.9619 66.8267 72.8926 66.896C72.8232 66.9653 72.7409 67 72.6456 67H71.8266C71.0899 67 70.5482 66.8093 70.2016 66.428C69.8549 66.038 69.6816 65.4703 69.6816 64.725V61.358H68.7196C68.6242 61.358 68.5419 61.3233 68.4726 61.254C68.4032 61.1847 68.3686 61.1023 68.3686 61.007V60.591C68.3686 60.4957 68.4032 60.4133 68.4726 60.344C68.5419 60.2747 68.6242 60.24 68.7196 60.24H69.6816V58.121C69.6816 58.0257 69.7162 57.9433 69.7856 57.874C69.8549 57.8047 69.9372 57.77 70.0326 57.77H70.5136C70.6089 57.77 70.6912 57.8047 70.7606 57.874C70.8299 57.9433 70.8646 58.0257 70.8646 58.121V60.24H72.5156C72.6109 60.24 72.6932 60.2747 72.7626 60.344C72.8319 60.4133 72.8666 60.4957 72.8666 60.591V61.007C72.8666 61.1023 72.8319 61.1847 72.7626 61.254C72.6932 61.3233 72.6109 61.358 72.5156 61.358H70.8646V64.725ZM75.6147 58.862C75.6147 58.9573 75.58 59.0397 75.5107 59.109C75.4413 59.1783 75.359 59.213 75.2637 59.213H74.5227C74.4273 59.213 74.345 59.1783 74.2757 59.109C74.2063 59.0397 74.1717 58.9573 74.1717 58.862V58.121C74.1717 58.0257 74.2063 57.9433 74.2757 57.874C74.345 57.8047 74.4273 57.77 74.5227 57.77H75.2637C75.359 57.77 75.4413 57.8047 75.5107 57.874C75.58 57.9433 75.6147 58.0257 75.6147 58.121V58.862ZM75.4847 66.649C75.4847 66.7443 75.45 66.8267 75.3807 66.896C75.3113 66.9653 75.229 67 75.1337 67H74.6527C74.5573 67 74.475 66.9653 74.4057 66.896C74.3363 66.8267 74.3017 66.7443 74.3017 66.649V60.591C74.3017 60.4957 74.3363 60.4133 74.4057 60.344C74.475 60.2747 74.5573 60.24 74.6527 60.24H75.1337C75.229 60.24 75.3113 60.2747 75.3807 60.344C75.45 60.4133 75.4847 60.4957 75.4847 60.591V66.649ZM80.1674 66.012C81.0341 66.012 81.6191 65.674 81.9224 64.998C81.9831 64.868 82.0437 64.777 82.1044 64.725C82.1651 64.673 82.2474 64.647 82.3514 64.647H82.7414C82.8367 64.647 82.9191 64.6817 82.9884 64.751C83.0577 64.8117 83.0924 64.8853 83.0924 64.972C83.0924 65.2667 82.9754 65.583 82.7414 65.921C82.5074 66.259 82.1694 66.545 81.7274 66.779C81.2854 67.013 80.7654 67.13 80.1674 67.13C79.5521 67.13 79.0191 67 78.5684 66.74C78.1177 66.48 77.7711 66.1247 77.5284 65.674C77.2857 65.2147 77.1514 64.7033 77.1254 64.14C77.1167 64.036 77.1124 63.8367 77.1124 63.542C77.1124 63.334 77.1167 63.1867 77.1254 63.1C77.2034 62.216 77.5024 61.4967 78.0224 60.942C78.5424 60.3873 79.2574 60.11 80.1674 60.11C80.7654 60.11 81.2811 60.227 81.7144 60.461C82.1564 60.6863 82.4901 60.968 82.7154 61.306C82.9494 61.6353 83.0751 61.9473 83.0924 62.242C83.1011 62.3373 83.0664 62.4197 82.9884 62.489C82.9191 62.5583 82.8367 62.593 82.7414 62.593H82.3514C82.2474 62.593 82.1651 62.567 82.1044 62.515C82.0437 62.463 81.9831 62.372 81.9224 62.242C81.6191 61.566 81.0341 61.228 80.1674 61.228C79.6907 61.228 79.2747 61.3883 78.9194 61.709C78.5641 62.0297 78.3604 62.515 78.3084 63.165C78.2997 63.2603 78.2954 63.4163 78.2954 63.633C78.2954 63.8323 78.2997 63.9797 78.3084 64.075C78.3691 64.725 78.5727 65.2103 78.9194 65.531C79.2747 65.8517 79.6907 66.012 80.1674 66.012ZM88.6653 62.723V62.554C88.6653 62.1293 88.5223 61.8043 88.2363 61.579C87.959 61.345 87.595 61.228 87.1443 61.228C86.7977 61.228 86.5247 61.2887 86.3253 61.41C86.1347 61.5227 85.9527 61.696 85.7793 61.93C85.7273 61.9993 85.671 62.047 85.6103 62.073C85.5497 62.099 85.4673 62.112 85.3633 62.112H84.9733C84.878 62.112 84.7913 62.0773 84.7133 62.008C84.644 61.9387 84.6137 61.8563 84.6223 61.761C84.6483 61.501 84.774 61.2453 84.9993 60.994C85.2333 60.734 85.541 60.5217 85.9223 60.357C86.3037 60.1923 86.711 60.11 87.1443 60.11C87.9503 60.11 88.6003 60.3353 89.0943 60.786C89.597 61.2367 89.8483 61.8693 89.8483 62.684V66.649C89.8483 66.7443 89.8137 66.8267 89.7443 66.896C89.675 66.9653 89.5927 67 89.4973 67H89.0163C88.921 67 88.8387 66.9653 88.7693 66.896C88.7 66.8267 88.6653 66.7443 88.6653 66.649V66.116C88.5267 66.428 88.232 66.675 87.7813 66.857C87.3307 67.039 86.88 67.13 86.4293 67.13C85.9873 67.13 85.593 67.052 85.2463 66.896C84.8997 66.7313 84.631 66.5103 84.4403 66.233C84.2583 65.9557 84.1673 65.6437 84.1673 65.297C84.1673 64.647 84.41 64.14 84.8953 63.776C85.3807 63.4033 86.0263 63.152 86.8323 63.022L88.6653 62.723ZM88.6653 63.763L87.1313 64.01C86.568 64.0967 86.1303 64.2397 85.8183 64.439C85.5063 64.6297 85.3503 64.8723 85.3503 65.167C85.3503 65.3837 85.45 65.5787 85.6493 65.752C85.8487 65.9253 86.152 66.012 86.5593 66.012C87.1833 66.012 87.6903 65.8343 88.0803 65.479C88.4703 65.1237 88.6653 64.66 88.6653 64.088V63.763Z" fill="#171B22"/>
<rect x="40" y="74" width="38" height="25" rx="12.5" fill="#157525"/>
<path d="M57.1579 84.854C57.1766 85.1153 57.1859 85.5353 57.1859 86.114C57.1859 86.6833 57.1766 87.094 57.1579 87.346C57.0926 88.4567 56.7239 89.3667 56.0519 90.076C55.3892 90.7853 54.3952 91.14 53.0699 91.14C51.7446 91.14 50.7459 90.7853 50.0739 90.076C49.4112 89.3667 49.0472 88.4567 48.9819 87.346C48.9632 86.842 48.9539 86.4313 48.9539 86.114C48.9539 85.7967 48.9632 85.3767 48.9819 84.854C49.0472 83.7433 49.4112 82.8333 50.0739 82.124C50.7459 81.4147 51.7446 81.06 53.0699 81.06C54.3952 81.06 55.3892 81.4147 56.0519 82.124C56.7239 82.8333 57.0926 83.7433 57.1579 84.854ZM54.5679 84.924C54.5399 84.4107 54.4139 84.014 54.1899 83.734C53.9659 83.4447 53.5926 83.3 53.0699 83.3C52.5472 83.3 52.1739 83.4447 51.9499 83.734C51.7259 84.014 51.5999 84.4107 51.5719 84.924C51.5532 85.428 51.5439 85.8153 51.5439 86.086C51.5439 86.338 51.5532 86.7347 51.5719 87.276C51.5906 87.7893 51.7119 88.1907 51.9359 88.48C52.1692 88.76 52.5472 88.9 53.0699 88.9C53.5926 88.9 53.9659 88.76 54.1899 88.48C54.4232 88.1907 54.5492 87.7893 54.5679 87.276C54.5866 87.0053 54.5959 86.6087 54.5959 86.086C54.5959 85.5633 54.5866 85.176 54.5679 84.924ZM62.7646 84.182C62.7366 84.77 62.5359 85.2507 62.1626 85.624C61.7986 85.988 61.2666 86.17 60.5666 86.17C59.8666 86.17 59.3346 85.988 58.9706 85.624C58.6159 85.26 58.4152 84.7793 58.3686 84.182C58.3592 84.0607 58.3546 83.888 58.3546 83.664C58.3546 83.4307 58.3592 83.2487 58.3686 83.118C58.4152 82.5207 58.6159 82.04 58.9706 81.676C59.3346 81.312 59.8666 81.13 60.5666 81.13C61.2666 81.13 61.7939 81.312 62.1486 81.676C62.5126 82.04 62.7179 82.5207 62.7646 83.118C62.7832 83.3793 62.7926 83.5613 62.7926 83.664C62.7926 83.7667 62.7832 83.9393 62.7646 84.182ZM66.2646 81.466C66.3392 81.3727 66.4092 81.3073 66.4746 81.27C66.5492 81.2233 66.6472 81.2 66.7686 81.2H67.9166C68.0192 81.2 68.0986 81.228 68.1546 81.284C68.2199 81.3307 68.2526 81.396 68.2526 81.48C68.2526 81.536 68.2339 81.5873 68.1966 81.634L61.2806 90.734C61.2059 90.8273 61.1312 90.8973 61.0566 90.944C60.9912 90.9813 60.8979 91 60.7766 91H59.6286C59.5259 91 59.4419 90.9767 59.3766 90.93C59.3206 90.874 59.2926 90.804 59.2926 90.72C59.2926 90.664 59.3112 90.6127 59.3486 90.566L66.2646 81.466ZM60.5666 84.84C60.7626 84.84 60.9026 84.784 60.9866 84.672C61.0706 84.56 61.1219 84.3733 61.1406 84.112C61.1592 83.888 61.1686 83.734 61.1686 83.65C61.1686 83.5473 61.1592 83.3933 61.1406 83.188C61.1219 82.9267 61.0706 82.74 60.9866 82.628C60.9026 82.516 60.7626 82.46 60.5666 82.46C60.3706 82.46 60.2306 82.516 60.1466 82.628C60.0626 82.74 60.0112 82.9267 59.9926 83.188C59.9832 83.2907 59.9786 83.4447 59.9786 83.65C59.9786 83.846 59.9832 84 59.9926 84.112C60.0112 84.3733 60.0626 84.56 60.1466 84.672C60.2306 84.784 60.3706 84.84 60.5666 84.84ZM69.2606 89.082C69.2326 89.67 69.0319 90.1507 68.6586 90.524C68.2946 90.888 67.7626 91.07 67.0626 91.07C66.3626 91.07 65.8306 90.888 65.4666 90.524C65.1119 90.16 64.9112 89.6793 64.8646 89.082C64.8552 88.9607 64.8506 88.788 64.8506 88.564C64.8506 88.3307 64.8552 88.1487 64.8646 88.018C64.9112 87.4207 65.1119 86.94 65.4666 86.576C65.8306 86.212 66.3626 86.03 67.0626 86.03C67.7626 86.03 68.2899 86.212 68.6446 86.576C69.0086 86.94 69.2139 87.4207 69.2606 88.018C69.2792 88.2793 69.2886 88.4613 69.2886 88.564C69.2886 88.6667 69.2792 88.8393 69.2606 89.082ZM67.0626 89.74C67.2586 89.74 67.3986 89.684 67.4826 89.572C67.5666 89.46 67.6179 89.2733 67.6366 89.012C67.6552 88.788 67.6646 88.634 67.6646 88.55C67.6646 88.4473 67.6552 88.2933 67.6366 88.088C67.6179 87.8267 67.5666 87.64 67.4826 87.528C67.3986 87.416 67.2586 87.36 67.0626 87.36C66.8666 87.36 66.7266 87.416 66.6426 87.528C66.5586 87.64 66.5072 87.8267 66.4886 88.088C66.4792 88.1907 66.4746 88.3447 66.4746 88.55C66.4746 88.746 66.4792 88.9 66.4886 89.012C66.5072 89.2733 66.5586 89.46 66.6426 89.572C66.7266 89.684 66.8666 89.74 67.0626 89.74Z" fill="white"/>
<g filter="url(#filter0_d_34428_7803)">
<rect x="88" y="14" width="28" height="28" rx="14" fill="white"/>
<rect x="87" y="13" width="30" height="30" rx="15" stroke="#1DA534" stroke-width="2"/>
<path opacity="0.4" d="M102.001 30.4917C102.337 30.4917 102.609 30.7641 102.609 31.1001C102.609 31.436 102.337 31.7085 102.001 31.7085C101.665 31.7085 101.393 31.436 101.393 31.1001C101.393 30.7641 101.665 30.4917 102.001 30.4917Z" fill="#1DA534" stroke="#1DA534" stroke-width="1.5"/>
<path d="M98.124 26.6167H105.874C107.556 26.6167 108.395 26.8857 108.854 27.3452C109.314 27.8048 109.583 28.6432 109.583 30.3247V31.8755C109.583 33.557 109.314 34.3954 108.854 34.855C108.395 35.3145 107.556 35.5835 105.874 35.5835H98.124C96.4424 35.5835 95.6041 35.3145 95.1445 34.855C94.685 34.3955 94.4161 33.5571 94.416 31.8755V30.3247C94.4161 28.643 94.685 27.8047 95.1445 27.3452C95.6041 26.8857 96.4423 26.6167 98.124 26.6167ZM101.999 27.8335C100.192 27.8337 98.7324 29.3043 98.7324 31.1001C98.7325 32.8959 100.192 34.3665 101.999 34.3667C103.806 34.3667 105.266 32.896 105.266 31.1001C105.266 29.3042 103.807 27.8335 101.999 27.8335Z" fill="#1DA534" stroke="#1DA534" stroke-width="1.5"/>
<g opacity="0.4">
<mask id="path-18-inside-1_34428_7803" fill="white">
<path d="M97.9342 25.8748V24.8998C97.9342 22.4582 98.6259 20.8332 102.001 20.8332C105.376 20.8332 106.068 22.4582 106.068 24.8998V25.8748C106.493 25.8832 106.876 25.8998 107.234 25.9498V24.8998C107.234 22.6498 106.693 19.6665 102.001 19.6665C97.3092 19.6665 96.7676 22.6498 96.7676 24.8998V25.9415C97.1176 25.8998 97.5092 25.8748 97.9342 25.8748Z"/>
</mask>
<path d="M97.9342 25.8748V24.8998C97.9342 22.4582 98.6259 20.8332 102.001 20.8332C105.376 20.8332 106.068 22.4582 106.068 24.8998V25.8748C106.493 25.8832 106.876 25.8998 107.234 25.9498V24.8998C107.234 22.6498 106.693 19.6665 102.001 19.6665C97.3092 19.6665 96.7676 22.6498 96.7676 24.8998V25.9415C97.1176 25.8998 97.5092 25.8748 97.9342 25.8748Z" fill="#1DA534"/>
<path d="M97.9342 25.8748V27.3748H99.4342V25.8748H97.9342ZM106.068 25.8748H104.568V27.3457L106.038 27.3745L106.068 25.8748ZM107.234 25.9498L107.027 27.4354L108.734 27.6737V25.9498H107.234ZM107.234 24.8998H105.734H107.234ZM96.7676 25.9415H95.2676V27.6307L96.9449 27.431L96.7676 25.9415ZM97.9342 25.8748H99.4342V24.8998H97.9342H96.4342V25.8748H97.9342ZM97.9342 24.8998H99.4342C99.4342 23.7471 99.6156 23.1967 99.8528 22.913C100.039 22.6905 100.52 22.3332 102.001 22.3332V20.8332V19.3332C100.107 19.3332 98.5547 19.7884 97.5511 20.9888C96.5988 22.128 96.4342 23.6109 96.4342 24.8998H97.9342ZM102.001 20.8332V22.3332C103.482 22.3332 103.963 22.6905 104.149 22.913C104.386 23.1967 104.568 23.7471 104.568 24.8998H106.068H107.568C107.568 23.6109 107.403 22.128 106.451 20.9888C105.447 19.7884 103.895 19.3332 102.001 19.3332V20.8332ZM106.068 24.8998H104.568V25.8748H106.068H107.568V24.8998H106.068ZM106.068 25.8748L106.038 27.3745C106.451 27.3826 106.761 27.3983 107.027 27.4354L107.234 25.9498L107.442 24.4642C106.991 24.4014 106.535 24.3837 106.097 24.3751L106.068 25.8748ZM107.234 25.9498H108.734V24.8998H107.234H105.734V25.9498H107.234ZM107.234 24.8998L108.734 24.8998C108.734 23.7116 108.606 22.002 107.604 20.5769C106.526 19.0428 104.687 18.1665 102.001 18.1665V19.6665V21.1665C104.006 21.1665 104.784 21.7819 105.15 22.302C105.592 22.931 105.734 23.8381 105.734 24.8998L107.234 24.8998ZM102.001 19.6665V18.1665C99.3145 18.1665 97.4759 19.0428 96.3977 20.5769C95.396 22.002 95.2676 23.7116 95.2676 24.8998H96.7676H98.2676C98.2676 23.8381 98.41 22.931 98.8521 22.302C99.2176 21.7819 99.9956 21.1665 102.001 21.1665V19.6665ZM96.7676 24.8998H95.2676V25.9415H96.7676H98.2676V24.8998H96.7676ZM96.7676 25.9415L96.9449 27.431C97.2351 27.3964 97.5675 27.3748 97.9342 27.3748V25.8748V24.3748C97.451 24.3748 97.0001 24.4032 96.5903 24.452L96.7676 25.9415Z" fill="#1DA534" mask="url(#path-18-inside-1_34428_7803)"/>
</g>
</g>
<defs>
<filter id="filter0_d_34428_7803" x="71" y="5" width="62" height="62" filterUnits="userSpaceOnUse" color-interpolation-filters="sRGB">
<feFlood flood-opacity="0" result="BackgroundImageFix"/>
<feColorMatrix in="SourceAlpha" type="matrix" values="0 0 0 0 0 0 0 0 0 0 0 0 0 0 0 0 0 0 127 0" result="hardAlpha"/>
<feOffset dy="8"/>
<feGaussianBlur stdDeviation="7.5"/>
<feColorMatrix type="matrix" values="0 0 0 0 0 0 0 0 0 0 0 0 0 0 0 0 0 0 0.25 0"/>
<feBlend mode="normal" in2="BackgroundImageFix" result="effect1_dropShadow_34428_7803"/>
<feBlend mode="normal" in="SourceGraphic" in2="effect1_dropShadow_34428_7803" result="shape"/>
</filter>
</defs>
</svg>
