<svg width="137" height="118" viewBox="0 0 137 118" fill="none" xmlns="http://www.w3.org/2000/svg">
<rect x="2" y="2" width="114" height="114" rx="57" fill="white"/>
<rect x="2" y="2" width="114" height="114" rx="57" stroke="#DEE2E6" stroke-width="4"/>
<rect opacity="0.4" x="45.666" y="21.6665" width="26.6667" height="26.6667" rx="5" fill="#5F6774"/>
<g clip-path="url(#clip0_15958_19576)">
<path d="M52.8007 40.2996C52.8007 38.6044 52.7959 36.9085 52.8064 35.2133C52.808 34.9899 52.7595 34.9268 52.5296 34.9324C51.8439 34.9502 51.1574 34.9324 50.4709 34.943C50.3001 34.9454 50.2516 34.8976 50.254 34.726C50.2637 34.0598 50.2637 33.3935 50.254 32.7281C50.2516 32.5557 50.3018 32.5095 50.4718 32.512C51.1679 32.5209 51.8649 32.5079 52.5603 32.5209C52.7627 32.5249 52.8064 32.4642 52.8056 32.2707C52.7967 30.9787 52.7999 29.6875 52.8016 28.3956C52.804 26.12 54.5874 24.3407 56.8654 24.3382C57.3802 24.3382 57.8951 24.3463 58.4091 24.3342C58.5864 24.3301 58.6244 24.3884 58.622 24.5544C58.6131 25.2206 58.6115 25.8868 58.622 26.5523C58.6253 26.7296 58.5654 26.7619 58.401 26.7652C57.7866 26.7765 57.1673 26.6956 56.5594 26.8048C55.7798 26.9457 55.2471 27.5464 55.2342 28.3381C55.2115 29.6697 55.2309 31.0022 55.222 32.3347C55.2204 32.5201 55.3095 32.5176 55.4422 32.5168C56.0979 32.5128 56.7545 32.5201 57.4102 32.512C57.5761 32.5104 57.6603 32.5233 57.6555 32.7314C57.6401 33.3968 57.6433 34.0638 57.6538 34.7293C57.6571 34.9065 57.598 34.9438 57.4328 34.9413C56.7868 34.9324 56.1408 34.9503 55.4956 34.9308C55.2585 34.9235 55.2212 35.0004 55.222 35.2166C55.2293 38.5971 55.2236 41.9785 55.2334 45.3591C55.2334 45.6173 55.1662 45.6732 54.9193 45.6651C54.2943 45.6457 53.6677 45.6497 53.0428 45.6635C52.842 45.6675 52.7959 45.6092 52.7967 45.4141C52.8048 43.7085 52.8016 42.0028 52.8016 40.2971L52.8007 40.2996Z" fill="#374151"/>
<path d="M66.7454 36.9985C65.7885 38.4014 64.8681 39.7582 63.9355 41.1077C63.8141 41.2833 63.8036 41.395 63.9298 41.5764C64.8017 42.8336 65.6598 44.1013 66.5219 45.3657C66.577 45.4467 66.6288 45.5301 66.713 45.6604H65.9949C65.3392 45.6604 64.6827 45.6515 64.027 45.6661C63.8295 45.6701 63.7226 45.6037 63.6157 45.4418C63.1948 44.8047 62.7577 44.179 62.3027 43.5144C61.8575 44.1652 61.4219 44.7861 61.005 45.42C60.8877 45.5989 60.767 45.6709 60.5468 45.6669C59.679 45.6515 58.8112 45.6604 57.9337 45.6604C57.928 45.5422 58.0114 45.4775 58.064 45.3997C58.931 44.1264 59.7964 42.8522 60.6707 41.5853C60.7897 41.4128 60.8018 41.2963 60.6756 41.1133C59.7924 39.8391 58.9238 38.5552 58.0503 37.2746C57.996 37.1944 57.9418 37.1143 57.8633 36.9977C58.8363 36.9977 59.7608 37.0009 60.6845 36.9937C60.8294 36.9928 60.8707 37.0868 60.9314 37.175C61.3807 37.8307 61.8291 38.4872 62.2995 39.1761C62.5496 38.8143 62.7884 38.4702 63.0256 38.1246C63.2474 37.8008 63.47 37.4769 63.6886 37.1515C63.7453 37.0665 63.7882 36.9928 63.9161 36.9937C64.8422 36.9993 65.7683 36.9969 66.7454 36.9969V36.9985Z" fill="#374151"/>
</g>
<path d="M41.1013 67.13C40.304 67.13 39.641 66.9827 39.1123 66.688C38.5923 66.3933 38.198 65.9817 37.9293 65.453C37.6607 64.9243 37.5133 64.309 37.4873 63.607C37.4787 63.2517 37.4743 62.8703 37.4743 62.463C37.4743 62.0557 37.4787 61.6657 37.4873 61.293C37.5133 60.591 37.6607 59.9757 37.9293 59.447C38.198 58.9183 38.5923 58.5067 39.1123 58.212C39.641 57.9173 40.304 57.77 41.1013 57.77C41.6993 57.77 42.2237 57.8523 42.6743 58.017C43.125 58.1817 43.4977 58.4027 43.7923 58.68C44.0957 58.9573 44.3253 59.2693 44.4813 59.616C44.6373 59.954 44.724 60.305 44.7413 60.669C44.75 60.747 44.724 60.812 44.6633 60.864C44.6113 60.916 44.5463 60.942 44.4683 60.942H43.7533C43.6753 60.942 43.606 60.9203 43.5453 60.877C43.4933 60.8337 43.4543 60.7557 43.4283 60.643C43.281 59.967 43.0037 59.5033 42.5963 59.252C42.1977 59.0007 41.695 58.875 41.0883 58.875C40.395 58.875 39.8447 59.0743 39.4373 59.473C39.03 59.863 38.809 60.4913 38.7743 61.358C38.7483 62.0687 38.7483 62.7967 38.7743 63.542C38.809 64.4087 39.03 65.0413 39.4373 65.44C39.8447 65.83 40.395 66.025 41.0883 66.025C41.695 66.025 42.1977 65.8993 42.5963 65.648C43.0037 65.3967 43.281 64.933 43.4283 64.257C43.4543 64.1443 43.4933 64.0663 43.5453 64.023C43.606 63.9797 43.6753 63.958 43.7533 63.958H44.4683C44.5463 63.958 44.6113 63.984 44.6633 64.036C44.724 64.088 44.75 64.153 44.7413 64.231C44.724 64.595 44.6373 64.9503 44.4813 65.297C44.3253 65.635 44.0957 65.9427 43.7923 66.22C43.4977 66.4973 43.125 66.7183 42.6743 66.883C42.2237 67.0477 41.6993 67.13 41.1013 67.13ZM48.1995 67.13C47.7662 67.13 47.3719 67.0433 47.0165 66.87C46.6612 66.6967 46.3752 66.4627 46.1585 66.168C45.9419 65.8733 45.8335 65.5397 45.8335 65.167C45.8335 64.569 46.0762 64.0923 46.5615 63.737C47.0469 63.3817 47.6795 63.1477 48.4595 63.035L50.3965 62.762V62.385C50.3965 61.969 50.2752 61.644 50.0325 61.41C49.7985 61.176 49.4129 61.059 48.8755 61.059C48.4855 61.059 48.1692 61.137 47.9265 61.293C47.6925 61.449 47.5279 61.6483 47.4325 61.891C47.3805 62.021 47.2895 62.086 47.1595 62.086H46.5745C46.4792 62.086 46.4055 62.06 46.3535 62.008C46.3102 61.9473 46.2885 61.878 46.2885 61.8C46.2885 61.67 46.3362 61.5097 46.4315 61.319C46.5355 61.1283 46.6915 60.942 46.8995 60.76C47.1075 60.578 47.3719 60.4263 47.6925 60.305C48.0219 60.175 48.4205 60.11 48.8885 60.11C49.4085 60.11 49.8462 60.1793 50.2015 60.318C50.5569 60.448 50.8342 60.6257 51.0335 60.851C51.2415 61.0763 51.3889 61.332 51.4755 61.618C51.5709 61.904 51.6185 62.1943 51.6185 62.489V66.701C51.6185 66.7877 51.5882 66.8613 51.5275 66.922C51.4755 66.974 51.4062 67 51.3195 67H50.7215C50.6262 67 50.5525 66.974 50.5005 66.922C50.4485 66.8613 50.4225 66.7877 50.4225 66.701V66.142C50.3099 66.298 50.1582 66.454 49.9675 66.61C49.7769 66.7573 49.5385 66.883 49.2525 66.987C48.9665 67.0823 48.6155 67.13 48.1995 67.13ZM48.4725 66.155C48.8279 66.155 49.1529 66.0813 49.4475 65.934C49.7422 65.778 49.9719 65.5397 50.1365 65.219C50.3099 64.8983 50.3965 64.4953 50.3965 64.01V63.646L48.8885 63.867C48.2732 63.9537 47.8095 64.101 47.4975 64.309C47.1855 64.5083 47.0295 64.764 47.0295 65.076C47.0295 65.3187 47.0989 65.5223 47.2375 65.687C47.3849 65.843 47.5669 65.96 47.7835 66.038C48.0089 66.116 48.2385 66.155 48.4725 66.155ZM48.5505 59.265C48.4119 59.265 48.3425 59.1957 48.3425 59.057C48.3425 58.9877 48.3642 58.9313 48.4075 58.888L49.3825 57.718C49.4605 57.6227 49.5299 57.562 49.5905 57.536C49.6512 57.5013 49.7422 57.484 49.8635 57.484H50.7475C50.9122 57.484 50.9945 57.5663 50.9945 57.731C50.9945 57.7917 50.9729 57.8437 50.9295 57.887L49.4215 59.122C49.3522 59.1827 49.2872 59.2217 49.2265 59.239C49.1659 59.2563 49.0879 59.265 48.9925 59.265H48.5505ZM53.7994 67C53.7127 67 53.6391 66.974 53.5784 66.922C53.5264 66.8613 53.5004 66.7877 53.5004 66.701V58.069C53.5004 57.9823 53.5264 57.913 53.5784 57.861C53.6391 57.8003 53.7127 57.77 53.7994 57.77H54.4104C54.5057 57.77 54.5794 57.8003 54.6314 57.861C54.6834 57.913 54.7094 57.9823 54.7094 58.069V66.701C54.7094 66.7877 54.6834 66.8613 54.6314 66.922C54.5794 66.974 54.5057 67 54.4104 67H53.7994ZM59.3785 67.13C58.7632 67.13 58.2302 67.013 57.7795 66.779C57.3375 66.5363 56.9952 66.194 56.7525 65.752C56.5099 65.3013 56.3799 64.764 56.3625 64.14C56.3539 64.01 56.3495 63.8367 56.3495 63.62C56.3495 63.4033 56.3539 63.23 56.3625 63.1C56.3799 62.476 56.5099 61.943 56.7525 61.501C56.9952 61.0503 57.3375 60.708 57.7795 60.474C58.2302 60.2313 58.7632 60.11 59.3785 60.11C59.8812 60.11 60.3102 60.1793 60.6655 60.318C61.0295 60.4567 61.3285 60.6343 61.5625 60.851C61.7965 61.0677 61.9699 61.3017 62.0825 61.553C62.2039 61.8043 62.2689 62.0427 62.2775 62.268C62.2862 62.3547 62.2602 62.424 62.1995 62.476C62.1389 62.528 62.0652 62.554 61.9785 62.554H61.3545C61.2679 62.554 61.2029 62.5367 61.1595 62.502C61.1162 62.4587 61.0729 62.3893 61.0295 62.294C60.8735 61.8693 60.6612 61.5703 60.3925 61.397C60.1239 61.2237 59.7902 61.137 59.3915 61.137C58.8715 61.137 58.4469 61.2973 58.1175 61.618C57.7969 61.9387 57.6235 62.4543 57.5975 63.165C57.5889 63.477 57.5889 63.7803 57.5975 64.075C57.6235 64.7943 57.7969 65.3143 58.1175 65.635C58.4469 65.947 58.8715 66.103 59.3915 66.103C59.7902 66.103 60.1239 66.0163 60.3925 65.843C60.6612 65.6697 60.8735 65.3707 61.0295 64.946C61.0729 64.8507 61.1162 64.7857 61.1595 64.751C61.2029 64.7077 61.2679 64.686 61.3545 64.686H61.9785C62.0652 64.686 62.1389 64.712 62.1995 64.764C62.2602 64.816 62.2862 64.8853 62.2775 64.972C62.2689 65.154 62.2299 65.3403 62.1605 65.531C62.0912 65.7217 61.9785 65.9167 61.8225 66.116C61.6752 66.3067 61.4889 66.48 61.2635 66.636C61.0382 66.7833 60.7652 66.9047 60.4445 67C60.1325 67.0867 59.7772 67.13 59.3785 67.13ZM66.3434 67.13C65.7887 67.13 65.3164 67.0087 64.9264 66.766C64.545 66.5147 64.2547 66.168 64.0554 65.726C63.856 65.284 63.7564 64.777 63.7564 64.205V60.539C63.7564 60.4523 63.7824 60.383 63.8344 60.331C63.895 60.2703 63.9687 60.24 64.0554 60.24H64.7054C64.792 60.24 64.8614 60.2703 64.9134 60.331C64.974 60.383 65.0044 60.4523 65.0044 60.539V64.14C65.0044 65.4313 65.5677 66.077 66.6944 66.077C67.2317 66.077 67.6607 65.908 67.9814 65.57C68.3107 65.2233 68.4754 64.7467 68.4754 64.14V60.539C68.4754 60.4523 68.5014 60.383 68.5534 60.331C68.614 60.2703 68.6877 60.24 68.7744 60.24H69.4114C69.5067 60.24 69.5804 60.2703 69.6324 60.331C69.6844 60.383 69.7104 60.4523 69.7104 60.539V66.701C69.7104 66.7877 69.6844 66.8613 69.6324 66.922C69.5804 66.974 69.5067 67 69.4114 67H68.8134C68.7267 67 68.653 66.974 68.5924 66.922C68.5404 66.8613 68.5144 66.7877 68.5144 66.701V66.129C68.2804 66.4323 67.9944 66.675 67.6564 66.857C67.327 67.039 66.8894 67.13 66.3434 67.13ZM71.9537 67C71.867 67 71.7934 66.974 71.7327 66.922C71.6807 66.8613 71.6547 66.7877 71.6547 66.701V58.069C71.6547 57.9823 71.6807 57.913 71.7327 57.861C71.7934 57.8003 71.867 57.77 71.9537 57.77H72.5647C72.66 57.77 72.7337 57.8003 72.7857 57.861C72.8377 57.913 72.8637 57.9823 72.8637 58.069V66.701C72.8637 66.7877 72.8377 66.8613 72.7857 66.922C72.7337 66.974 72.66 67 72.5647 67H71.9537ZM77.5718 67.13C76.9132 67.13 76.3628 67.0043 75.9208 66.753C75.4788 66.5017 75.1408 66.155 74.9068 65.713C74.6728 65.2623 74.5428 64.751 74.5168 64.179C74.5082 64.0317 74.5038 63.8453 74.5038 63.62C74.5038 63.386 74.5082 63.1997 74.5168 63.061C74.5428 62.4803 74.6728 61.969 74.9068 61.527C75.1495 61.085 75.4918 60.7383 75.9338 60.487C76.3758 60.2357 76.9218 60.11 77.5718 60.11C78.2218 60.11 78.7678 60.2357 79.2098 60.487C79.6518 60.7383 79.9898 61.085 80.2238 61.527C80.4665 61.969 80.6008 62.4803 80.6268 63.061C80.6355 63.1997 80.6398 63.386 80.6398 63.62C80.6398 63.8453 80.6355 64.0317 80.6268 64.179C80.6008 64.751 80.4708 65.2623 80.2368 65.713C80.0028 66.155 79.6648 66.5017 79.2228 66.753C78.7808 67.0043 78.2305 67.13 77.5718 67.13ZM77.5718 66.129C78.1092 66.129 78.5382 65.96 78.8588 65.622C79.1795 65.2753 79.3528 64.7727 79.3788 64.114C79.3875 63.984 79.3918 63.8193 79.3918 63.62C79.3918 63.4207 79.3875 63.256 79.3788 63.126C79.3528 62.4673 79.1795 61.969 78.8588 61.631C78.5382 61.2843 78.1092 61.111 77.5718 61.111C77.0345 61.111 76.6012 61.2843 76.2718 61.631C75.9512 61.969 75.7822 62.4673 75.7648 63.126C75.7562 63.256 75.7518 63.4207 75.7518 63.62C75.7518 63.8193 75.7562 63.984 75.7648 64.114C75.7822 64.7727 75.9512 65.2753 76.2718 65.622C76.6012 65.96 77.0345 66.129 77.5718 66.129Z" fill="#171B22"/>
<rect x="40.5" y="74" width="37" height="25" rx="12.5" fill="#374151"/>
<path d="M53.3417 91.14C52.6697 91.14 52.0864 91.0467 51.5917 90.86C51.097 90.664 50.6864 90.398 50.3597 90.062C50.0424 89.726 49.7997 89.334 49.6317 88.886C49.4637 88.438 49.3657 87.9573 49.3377 87.444C49.3284 87.192 49.319 86.9073 49.3097 86.59C49.3097 86.2633 49.3097 85.9367 49.3097 85.61C49.319 85.274 49.3284 84.9753 49.3377 84.714C49.3657 84.2007 49.4637 83.7247 49.6317 83.286C49.809 82.838 50.061 82.4507 50.3877 82.124C50.7237 81.788 51.1344 81.5267 51.6197 81.34C52.1144 81.1533 52.6884 81.06 53.3417 81.06C54.0044 81.06 54.5784 81.1533 55.0637 81.34C55.549 81.5267 55.955 81.788 56.2817 82.124C56.6177 82.4507 56.8744 82.838 57.0517 83.286C57.229 83.7247 57.327 84.2007 57.3457 84.714C57.3644 84.9753 57.3737 85.274 57.3737 85.61C57.383 85.9367 57.383 86.2633 57.3737 86.59C57.3737 86.9073 57.3644 87.192 57.3457 87.444C57.327 87.9573 57.229 88.438 57.0517 88.886C56.8837 89.334 56.6364 89.726 56.3097 90.062C55.9924 90.398 55.5864 90.664 55.0917 90.86C54.6064 91.0467 54.023 91.14 53.3417 91.14ZM53.3417 89.11C53.827 89.11 54.177 88.956 54.3917 88.648C54.6157 88.3307 54.7324 87.906 54.7417 87.374C54.7604 87.1033 54.7697 86.8187 54.7697 86.52C54.779 86.2213 54.779 85.9227 54.7697 85.624C54.7697 85.3253 54.7604 85.05 54.7417 84.798C54.7324 84.2847 54.6157 83.8693 54.3917 83.552C54.177 83.2347 53.827 83.0713 53.3417 83.062C52.8564 83.0713 52.5064 83.2347 52.2917 83.552C52.077 83.8693 51.9604 84.2847 51.9417 84.798C51.9324 85.05 51.923 85.3253 51.9137 85.624C51.9137 85.9227 51.9137 86.2213 51.9137 86.52C51.923 86.8187 51.9324 87.1033 51.9417 87.374C51.9604 87.906 52.0817 88.3307 52.3057 88.648C52.5297 88.956 52.875 89.11 53.3417 89.11ZM59.6793 91C59.4647 91 59.3573 90.9067 59.3573 90.72C59.3573 90.664 59.376 90.6127 59.4133 90.566L66.3293 81.466C66.3947 81.382 66.46 81.3167 66.5253 81.27C66.5907 81.2233 66.6887 81.2 66.8193 81.2H67.8133C68.028 81.2 68.1353 81.2933 68.1353 81.48C68.1353 81.536 68.1167 81.5873 68.0793 81.634L61.1633 90.734C61.098 90.818 61.0327 90.8833 60.9673 90.93C60.902 90.9767 60.804 91 60.6733 91H59.6793ZM66.7213 91.07C66.0867 91.07 65.578 90.902 65.1953 90.566C64.822 90.23 64.612 89.782 64.5653 89.222C64.556 88.9793 64.5513 88.7647 64.5513 88.578C64.5513 88.3913 64.556 88.1673 64.5653 87.906C64.6027 87.3367 64.8033 86.884 65.1673 86.548C65.5407 86.2027 66.0587 86.03 66.7213 86.03C67.3933 86.03 67.9113 86.2027 68.2753 86.548C68.6393 86.884 68.84 87.3367 68.8773 87.906C68.896 88.1673 68.9053 88.3913 68.9053 88.578C68.9053 88.7647 68.896 88.9793 68.8773 89.222C68.84 89.782 68.63 90.23 68.2473 90.566C67.8647 90.902 67.356 91.07 66.7213 91.07ZM66.7213 89.838C66.88 89.838 67.0013 89.8053 67.0853 89.74C67.1787 89.6747 67.2487 89.5907 67.2953 89.488C67.342 89.376 67.3653 89.2593 67.3653 89.138C67.384 88.9233 67.3933 88.7273 67.3933 88.55C67.3933 88.3727 67.384 88.1813 67.3653 87.976C67.356 87.7987 67.3047 87.64 67.2113 87.5C67.118 87.3507 66.9547 87.276 66.7213 87.276C66.488 87.276 66.3247 87.3507 66.2313 87.5C66.138 87.64 66.0867 87.7987 66.0773 87.976C66.068 88.1813 66.0633 88.3727 66.0633 88.55C66.0633 88.7273 66.068 88.9233 66.0773 89.138C66.0867 89.2593 66.11 89.376 66.1473 89.488C66.194 89.5907 66.264 89.6747 66.3573 89.74C66.4507 89.8053 66.572 89.838 66.7213 89.838ZM60.7993 86.142C60.1553 86.142 59.642 85.9787 59.2593 85.652C58.886 85.316 58.6807 84.868 58.6433 84.308C58.6247 84.0653 58.6153 83.8553 58.6153 83.678C58.6247 83.4913 58.634 83.2673 58.6433 83.006C58.6713 82.4367 58.8673 81.984 59.2313 81.648C59.6047 81.3027 60.1273 81.13 60.7993 81.13C61.4713 81.13 61.9893 81.3027 62.3533 81.648C62.7173 81.984 62.9133 82.4367 62.9413 83.006C62.96 83.2673 62.9693 83.4913 62.9693 83.678C62.9693 83.8553 62.96 84.0653 62.9413 84.308C62.9133 84.868 62.708 85.316 62.3253 85.652C61.9427 85.9787 61.434 86.142 60.7993 86.142ZM60.7993 84.938C60.9487 84.938 61.07 84.9053 61.1633 84.84C61.2567 84.7653 61.3267 84.6767 61.3733 84.574C61.42 84.462 61.4433 84.35 61.4433 84.238C61.462 84.0233 61.4713 83.8273 61.4713 83.65C61.4713 83.4727 61.462 83.2813 61.4433 83.076C61.434 82.8987 61.378 82.74 61.2753 82.6C61.182 82.4507 61.0233 82.376 60.7993 82.376C60.566 82.376 60.398 82.4507 60.2953 82.6C60.202 82.74 60.1507 82.8987 60.1413 83.076C60.132 83.2813 60.1273 83.4727 60.1273 83.65C60.1273 83.8273 60.132 84.0233 60.1413 84.238C60.1507 84.35 60.174 84.462 60.2113 84.574C60.258 84.6767 60.328 84.7653 60.4213 84.84C60.5147 84.9053 60.6407 84.938 60.7993 84.938Z" fill="white"/>
<g filter="url(#filter0_d_15958_19576)">
<rect x="88" y="14" width="32" height="32" rx="16" fill="white"/>
<rect x="87" y="13" width="34" height="34" rx="17" stroke="#1DA534" stroke-width="2"/>
<path opacity="0.4" d="M103.999 32.8398C104.485 32.8398 104.879 33.2338 104.879 33.7197C104.879 34.2057 104.485 34.5996 103.999 34.5996C103.513 34.5995 103.119 34.2057 103.119 33.7197C103.119 33.2338 103.513 32.8399 103.999 32.8398Z" fill="#1DA534" stroke="#1DA534" stroke-width="1.5"/>
<path d="M99.3496 28.1899H108.65C110.674 28.19 111.735 28.5109 112.332 29.1079C112.929 29.7049 113.25 30.7662 113.25 32.7896V34.6499C113.25 36.6735 112.929 37.7355 112.332 38.3325C111.735 38.9294 110.673 39.2495 108.65 39.2495H99.3496C97.3266 39.2495 96.265 38.9294 95.668 38.3325C95.0709 37.7355 94.75 36.6735 94.75 34.6499V32.7896C94.75 30.7662 95.0709 29.7049 95.668 29.1079C96.265 28.5109 97.3263 28.19 99.3496 28.1899ZM104 29.9497C101.914 29.9497 100.23 31.6476 100.23 33.7202C100.231 35.7927 101.914 37.4897 104 37.4897C106.086 37.4897 107.769 35.7927 107.77 33.7202C107.77 31.6476 106.086 29.9497 104 29.9497Z" fill="#1DA534" stroke="#1DA534" stroke-width="1.5"/>
<g opacity="0.4">
<mask id="path-12-inside-1_15958_19576" fill="white">
<path d="M99.1207 27.45V26.28C99.1207 23.35 99.9507 21.4 104.001 21.4C108.051 21.4 108.881 23.35 108.881 26.28V27.45C109.391 27.46 109.851 27.48 110.281 27.54V26.28C110.281 23.58 109.631 20 104.001 20C98.3707 20 97.7207 23.58 97.7207 26.28V27.53C98.1407 27.48 98.6107 27.45 99.1207 27.45Z"/>
</mask>
<path d="M99.1207 27.45V26.28C99.1207 23.35 99.9507 21.4 104.001 21.4C108.051 21.4 108.881 23.35 108.881 26.28V27.45C109.391 27.46 109.851 27.48 110.281 27.54V26.28C110.281 23.58 109.631 20 104.001 20C98.3707 20 97.7207 23.58 97.7207 26.28V27.53C98.1407 27.48 98.6107 27.45 99.1207 27.45Z" fill="#1DA534"/>
<path d="M99.1207 27.45V28.95H100.621V27.45H99.1207ZM108.881 27.45H107.381V28.9209L108.851 28.9497L108.881 27.45ZM110.281 27.54L110.073 29.0256L111.781 29.2638V27.54H110.281ZM110.281 26.28H108.781H110.281ZM97.7207 27.53H96.2207V29.2192L97.898 29.0195L97.7207 27.53ZM99.1207 27.45H100.621V26.28H99.1207H97.6207V27.45H99.1207ZM99.1207 26.28H100.621C100.621 24.8831 100.837 24.1294 101.193 23.7033C101.498 23.3385 102.182 22.9 104.001 22.9V21.4V19.9C101.769 19.9 100.014 20.4365 98.8911 21.7792C97.8198 23.0606 97.6207 24.7469 97.6207 26.28H99.1207ZM104.001 21.4V22.9C105.819 22.9 106.504 23.3385 106.809 23.7033C107.165 24.1294 107.381 24.8831 107.381 26.28H108.881H110.381C110.381 24.7469 110.182 23.0606 109.11 21.7792C107.988 20.4365 106.232 19.9 104.001 19.9V21.4ZM108.881 26.28H107.381V27.45H108.881H110.381V26.28H108.881ZM108.881 27.45L108.851 28.9497C109.349 28.9595 109.735 28.9785 110.073 29.0256L110.281 27.54L110.488 26.0544C109.966 25.9815 109.433 25.9605 108.91 25.9503L108.881 27.45ZM110.281 27.54H111.781V26.28H110.281H108.781V27.54H110.281ZM110.281 26.28H111.781C111.781 24.8668 111.625 22.8955 110.479 21.265C109.257 19.5254 107.156 18.5 104.001 18.5V20V21.5C106.475 21.5 107.515 22.2646 108.025 22.99C108.611 23.8245 108.781 24.9932 108.781 26.28H110.281ZM104.001 20V18.5C100.845 18.5 98.7449 19.5254 97.5222 21.265C96.3762 22.8955 96.2207 24.8668 96.2207 26.28H97.7207H99.2207C99.2207 24.9932 99.3902 23.8245 99.9767 22.99C100.487 22.2646 101.526 21.5 104.001 21.5V20ZM97.7207 26.28H96.2207V27.53H97.7207H99.2207V26.28H97.7207ZM97.7207 27.53L97.898 29.0195C98.2582 28.9766 98.669 28.95 99.1207 28.95V27.45V25.95C98.5524 25.95 98.0232 25.9834 97.5434 26.0405L97.7207 27.53Z" fill="#1DA534" mask="url(#path-12-inside-1_15958_19576)"/>
</g>
</g>
<defs>
<filter id="filter0_d_15958_19576" x="71" y="5" width="66" height="66" filterUnits="userSpaceOnUse" color-interpolation-filters="sRGB">
<feFlood flood-opacity="0" result="BackgroundImageFix"/>
<feColorMatrix in="SourceAlpha" type="matrix" values="0 0 0 0 0 0 0 0 0 0 0 0 0 0 0 0 0 0 127 0" result="hardAlpha"/>
<feOffset dy="8"/>
<feGaussianBlur stdDeviation="7.5"/>
<feColorMatrix type="matrix" values="0 0 0 0 0 0 0 0 0 0 0 0 0 0 0 0 0 0 0.25 0"/>
<feBlend mode="normal" in2="BackgroundImageFix" result="effect1_dropShadow_15958_19576"/>
<feBlend mode="normal" in="SourceGraphic" in2="effect1_dropShadow_15958_19576" result="shape"/>
</filter>
<clipPath id="clip0_15958_19576">
<rect width="16.4908" height="21.3333" fill="white" transform="translate(50.2539 24.3335)"/>
</clipPath>
</defs>
</svg>
