<svg width="137" height="118" viewBox="0 0 137 118" fill="none" xmlns="http://www.w3.org/2000/svg">
<rect x="2" y="2" width="114" height="114" rx="57" fill="white"/>
<rect x="2" y="2" width="114" height="114" rx="57" stroke="#DEE2E6" stroke-width="4"/>
<g clip-path="url(#clip0_15958_19596)">
<mask id="mask0_15958_19596" style="mask-type:luminance" maskUnits="userSpaceOnUse" x="43" y="11" width="32" height="33">
<path d="M75 11.5H43V43.5H75V11.5Z" fill="white"/>
</mask>
<g mask="url(#mask0_15958_19596)">
<path opacity="0.4" d="M72.3327 23.0865C72.306 32.4199 63.6793 37.8999 59.826 39.2332C59.386 39.3799 58.6393 39.3799 58.1727 39.2332C55.1327 38.2199 49.1193 34.5665 46.706 28.4999C46.4527 27.8732 46.2393 27.2065 46.066 26.5132C45.8127 25.4332 45.666 24.2998 45.666 23.0865C45.666 18.9665 48.986 15.6465 53.0793 15.6465C55.506 15.6465 57.6393 16.8332 58.9993 18.6465C60.3327 16.8332 62.4927 15.6465 64.9193 15.6465C69.0127 15.6465 72.3327 18.9665 72.3327 23.0865Z" fill="#2D68F8"/>
<path d="M65.6663 26.5H63.413C62.7863 26.5 62.2263 26.8466 61.9197 27.42L60.333 30.5933L56.4663 22.8599C56.1864 22.2999 55.6264 21.9533 54.9997 21.9399C54.9864 21.9399 54.9864 21.9399 54.9731 21.9399C54.3597 21.9399 53.7864 22.2866 53.5064 22.8199L51.5197 26.5L46.0664 26.5133C46.2397 27.2066 46.4531 27.8733 46.7064 28.5H51.7197C52.3597 28.5 52.9197 28.1533 53.1864 27.6333L54.9597 24.3399L58.8397 32.0866C59.1197 32.66 59.6797 33.02 60.333 33.02C60.973 33.02 61.533 32.66 61.813 32.1L63.613 28.5H65.6663C66.213 28.5 66.6663 28.0466 66.6663 27.5C66.6663 26.9533 66.213 26.5 65.6663 26.5Z" fill="#2D68F8"/>
</g>
</g>
<path d="M28.7678 59.63C27.9705 59.63 27.3075 59.4827 26.7788 59.188C26.2588 58.8933 25.8645 58.4817 25.5958 57.953C25.3272 57.4243 25.1798 56.809 25.1538 56.107C25.1452 55.7517 25.1408 55.3703 25.1408 54.963C25.1408 54.5557 25.1452 54.1657 25.1538 53.793C25.1798 53.091 25.3272 52.4757 25.5958 51.947C25.8645 51.4183 26.2588 51.0067 26.7788 50.712C27.3075 50.4173 27.9705 50.27 28.7678 50.27C29.3658 50.27 29.8902 50.3523 30.3408 50.517C30.7915 50.6817 31.1642 50.9027 31.4588 51.18C31.7622 51.4573 31.9918 51.7693 32.1478 52.116C32.3038 52.454 32.3905 52.805 32.4078 53.169C32.4165 53.247 32.3905 53.312 32.3298 53.364C32.2778 53.416 32.2128 53.442 32.1348 53.442H31.4198C31.3418 53.442 31.2725 53.4203 31.2118 53.377C31.1598 53.3337 31.1208 53.2557 31.0948 53.143C30.9475 52.467 30.6702 52.0033 30.2628 51.752C29.8642 51.5007 29.3615 51.375 28.7548 51.375C28.0615 51.375 27.5112 51.5743 27.1038 51.973C26.6965 52.363 26.4755 52.9913 26.4408 53.858C26.4148 54.5687 26.4148 55.2967 26.4408 56.042C26.4755 56.9087 26.6965 57.5413 27.1038 57.94C27.5112 58.33 28.0615 58.525 28.7548 58.525C29.3615 58.525 29.8642 58.3993 30.2628 58.148C30.6702 57.8967 30.9475 57.433 31.0948 56.757C31.1208 56.6443 31.1598 56.5663 31.2118 56.523C31.2725 56.4797 31.3418 56.458 31.4198 56.458H32.1348C32.2128 56.458 32.2778 56.484 32.3298 56.536C32.3905 56.588 32.4165 56.653 32.4078 56.731C32.3905 57.095 32.3038 57.4503 32.1478 57.797C31.9918 58.135 31.7622 58.4427 31.4588 58.72C31.1642 58.9973 30.7915 59.2183 30.3408 59.383C29.8902 59.5477 29.3658 59.63 28.7678 59.63ZM34.28 59.5C34.1934 59.5 34.1197 59.474 34.059 59.422C34.007 59.3613 33.981 59.2877 33.981 59.201V53.039C33.981 52.9523 34.007 52.883 34.059 52.831C34.1197 52.7703 34.1934 52.74 34.28 52.74H34.904C34.9907 52.74 35.06 52.7703 35.112 52.831C35.164 52.883 35.19 52.9523 35.19 53.039V59.201C35.19 59.2877 35.164 59.3613 35.112 59.422C35.06 59.474 34.9907 59.5 34.904 59.5H34.28ZM34.176 51.479C34.0894 51.479 34.0157 51.453 33.955 51.401C33.903 51.3403 33.877 51.2667 33.877 51.18V50.478C33.877 50.3913 33.903 50.322 33.955 50.27C34.0157 50.2093 34.0894 50.179 34.176 50.179H34.995C35.0817 50.179 35.151 50.2093 35.203 50.27C35.2637 50.322 35.294 50.3913 35.294 50.478V51.18C35.294 51.2667 35.2637 51.3403 35.203 51.401C35.151 51.453 35.0817 51.479 34.995 51.479H34.176ZM39.8205 59.63C38.9278 59.63 38.2171 59.357 37.6885 58.811C37.1598 58.2563 36.8695 57.5023 36.8175 56.549C36.8088 56.4363 36.8045 56.2933 36.8045 56.12C36.8045 55.938 36.8088 55.7907 36.8175 55.678C36.8521 55.0627 36.9951 54.5253 37.2465 54.066C37.4978 53.598 37.8401 53.2383 38.2735 52.987C38.7155 52.7357 39.2311 52.61 39.8205 52.61C40.4791 52.61 41.0295 52.7487 41.4715 53.026C41.9221 53.3033 42.2645 53.6977 42.4985 54.209C42.7325 54.7203 42.8495 55.3183 42.8495 56.003V56.224C42.8495 56.3193 42.8191 56.393 42.7585 56.445C42.7065 56.497 42.6371 56.523 42.5505 56.523H38.0525C38.0525 56.5317 38.0525 56.549 38.0525 56.575C38.0525 56.601 38.0525 56.6227 38.0525 56.64C38.0698 56.9953 38.1478 57.329 38.2865 57.641C38.4251 57.9443 38.6245 58.1913 38.8845 58.382C39.1445 58.5727 39.4565 58.668 39.8205 58.668C40.1325 58.668 40.3925 58.6203 40.6005 58.525C40.8085 58.4297 40.9775 58.3257 41.1075 58.213C41.2375 58.0917 41.3241 58.0007 41.3675 57.94C41.4455 57.8273 41.5061 57.7623 41.5495 57.745C41.5928 57.719 41.6621 57.706 41.7575 57.706H42.3815C42.4681 57.706 42.5375 57.732 42.5895 57.784C42.6501 57.8273 42.6761 57.8923 42.6675 57.979C42.6588 58.109 42.5895 58.2693 42.4595 58.46C42.3295 58.642 42.1431 58.824 41.9005 59.006C41.6578 59.188 41.3631 59.3397 41.0165 59.461C40.6698 59.5737 40.2711 59.63 39.8205 59.63ZM38.0525 55.626H41.6145V55.587C41.6145 55.197 41.5408 54.8503 41.3935 54.547C41.2548 54.2437 41.0511 54.0053 40.7825 53.832C40.5138 53.65 40.1931 53.559 39.8205 53.559C39.4478 53.559 39.1271 53.65 38.8585 53.832C38.5985 54.0053 38.3991 54.2437 38.2605 54.547C38.1218 54.8503 38.0525 55.197 38.0525 55.587V55.626ZM44.7029 59.5C44.6162 59.5 44.5426 59.474 44.4819 59.422C44.4299 59.3613 44.4039 59.2877 44.4039 59.201V53.039C44.4039 52.9523 44.4299 52.883 44.4819 52.831C44.5426 52.7703 44.6162 52.74 44.7029 52.74H45.3139C45.4006 52.74 45.4699 52.7703 45.5219 52.831C45.5826 52.883 45.6129 52.9523 45.6129 53.039V53.611C45.8382 53.3163 46.1199 53.078 46.4579 52.896C46.8046 52.7053 47.2466 52.61 47.7839 52.61C48.3472 52.61 48.8239 52.7357 49.2139 52.987C49.6126 53.2297 49.9116 53.572 50.1109 54.014C50.3102 54.4473 50.4099 54.9543 50.4099 55.535V59.201C50.4099 59.2877 50.3839 59.3613 50.3319 59.422C50.2799 59.474 50.2106 59.5 50.1239 59.5H49.4739C49.3872 59.5 49.3136 59.474 49.2529 59.422C49.2009 59.3613 49.1749 59.2877 49.1749 59.201V55.6C49.1749 54.9933 49.0276 54.521 48.7329 54.183C48.4382 53.8363 48.0049 53.663 47.4329 53.663C46.8956 53.663 46.4622 53.8363 46.1329 54.183C45.8122 54.521 45.6519 54.9933 45.6519 55.6V59.201C45.6519 59.2877 45.6216 59.3613 45.5609 59.422C45.5089 59.474 45.4396 59.5 45.3529 59.5H44.7029ZM55.0177 59.63C54.4024 59.63 53.8694 59.513 53.4187 59.279C52.9767 59.0363 52.6344 58.694 52.3917 58.252C52.149 57.8013 52.019 57.264 52.0017 56.64C51.993 56.51 51.9887 56.3367 51.9887 56.12C51.9887 55.9033 51.993 55.73 52.0017 55.6C52.019 54.976 52.149 54.443 52.3917 54.001C52.6344 53.5503 52.9767 53.208 53.4187 52.974C53.8694 52.7313 54.4024 52.61 55.0177 52.61C55.5204 52.61 55.9494 52.6793 56.3047 52.818C56.6687 52.9567 56.9677 53.1343 57.2017 53.351C57.4357 53.5677 57.609 53.8017 57.7217 54.053C57.843 54.3043 57.908 54.5427 57.9167 54.768C57.9254 54.8547 57.8994 54.924 57.8387 54.976C57.778 55.028 57.7044 55.054 57.6177 55.054H56.9937C56.907 55.054 56.842 55.0367 56.7987 55.002C56.7554 54.9587 56.712 54.8893 56.6687 54.794C56.5127 54.3693 56.3004 54.0703 56.0317 53.897C55.763 53.7237 55.4294 53.637 55.0307 53.637C54.5107 53.637 54.086 53.7973 53.7567 54.118C53.436 54.4387 53.2627 54.9543 53.2367 55.665C53.228 55.977 53.228 56.2803 53.2367 56.575C53.2627 57.2943 53.436 57.8143 53.7567 58.135C54.086 58.447 54.5107 58.603 55.0307 58.603C55.4294 58.603 55.763 58.5163 56.0317 58.343C56.3004 58.1697 56.5127 57.8707 56.6687 57.446C56.712 57.3507 56.7554 57.2857 56.7987 57.251C56.842 57.2077 56.907 57.186 56.9937 57.186H57.6177C57.7044 57.186 57.778 57.212 57.8387 57.264C57.8994 57.316 57.9254 57.3853 57.9167 57.472C57.908 57.654 57.869 57.8403 57.7997 58.031C57.7304 58.2217 57.6177 58.4167 57.4617 58.616C57.3144 58.8067 57.128 58.98 56.9027 59.136C56.6774 59.2833 56.4044 59.4047 56.0837 59.5C55.7717 59.5867 55.4164 59.63 55.0177 59.63ZM59.7595 59.5C59.6729 59.5 59.5992 59.474 59.5385 59.422C59.4865 59.3613 59.4605 59.2877 59.4605 59.201V53.039C59.4605 52.9523 59.4865 52.883 59.5385 52.831C59.5992 52.7703 59.6729 52.74 59.7595 52.74H60.3835C60.4702 52.74 60.5395 52.7703 60.5915 52.831C60.6435 52.883 60.6695 52.9523 60.6695 53.039V59.201C60.6695 59.2877 60.6435 59.3613 60.5915 59.422C60.5395 59.474 60.4702 59.5 60.3835 59.5H59.7595ZM59.6555 51.479C59.5689 51.479 59.4952 51.453 59.4345 51.401C59.3825 51.3403 59.3565 51.2667 59.3565 51.18V50.478C59.3565 50.3913 59.3825 50.322 59.4345 50.27C59.4952 50.2093 59.5689 50.179 59.6555 50.179H60.4745C60.5612 50.179 60.6305 50.2093 60.6825 50.27C60.7432 50.322 60.7735 50.3913 60.7735 50.478V51.18C60.7735 51.2667 60.7432 51.3403 60.6825 51.401C60.6305 51.453 60.5612 51.479 60.4745 51.479H59.6555ZM64.494 59.63C64.0606 59.63 63.6663 59.5433 63.311 59.37C62.9556 59.1967 62.6696 58.9627 62.453 58.668C62.2363 58.3733 62.128 58.0397 62.128 57.667C62.128 57.069 62.3706 56.5923 62.856 56.237C63.3413 55.8817 63.974 55.6477 64.754 55.535L66.691 55.262V54.885C66.691 54.469 66.5696 54.144 66.327 53.91C66.093 53.676 65.7073 53.559 65.17 53.559C64.78 53.559 64.4636 53.637 64.221 53.793C63.987 53.949 63.8223 54.1483 63.727 54.391C63.675 54.521 63.584 54.586 63.454 54.586H62.869C62.7736 54.586 62.7 54.56 62.648 54.508C62.6046 54.4473 62.583 54.378 62.583 54.3C62.583 54.17 62.6306 54.0097 62.726 53.819C62.83 53.6283 62.986 53.442 63.194 53.26C63.402 53.078 63.6663 52.9263 63.987 52.805C64.3163 52.675 64.715 52.61 65.183 52.61C65.703 52.61 66.1406 52.6793 66.496 52.818C66.8513 52.948 67.1286 53.1257 67.328 53.351C67.536 53.5763 67.6833 53.832 67.77 54.118C67.8653 54.404 67.913 54.6943 67.913 54.989V59.201C67.913 59.2877 67.8826 59.3613 67.822 59.422C67.77 59.474 67.7006 59.5 67.614 59.5H67.016C66.9206 59.5 66.847 59.474 66.795 59.422C66.743 59.3613 66.717 59.2877 66.717 59.201V58.642C66.6043 58.798 66.4526 58.954 66.262 59.11C66.0713 59.2573 65.833 59.383 65.547 59.487C65.261 59.5823 64.91 59.63 64.494 59.63ZM64.767 58.655C65.1223 58.655 65.4473 58.5813 65.742 58.434C66.0366 58.278 66.2663 58.0397 66.431 57.719C66.6043 57.3983 66.691 56.9953 66.691 56.51V56.146L65.183 56.367C64.5676 56.4537 64.104 56.601 63.792 56.809C63.48 57.0083 63.324 57.264 63.324 57.576C63.324 57.8187 63.3933 58.0223 63.532 58.187C63.6793 58.343 63.8613 58.46 64.078 58.538C64.3033 58.616 64.533 58.655 64.767 58.655ZM72.1218 59.63C71.6365 59.63 71.2205 59.5693 70.8738 59.448C70.5272 59.3267 70.2455 59.1793 70.0288 59.006C69.8122 58.8327 69.6475 58.6593 69.5348 58.486C69.4308 58.3127 69.3745 58.174 69.3658 58.07C69.3572 57.9747 69.3875 57.901 69.4568 57.849C69.5262 57.797 69.5955 57.771 69.6648 57.771H70.2368C70.2888 57.771 70.3278 57.7797 70.3538 57.797C70.3885 57.8057 70.4318 57.8403 70.4838 57.901C70.5965 58.0223 70.7222 58.1437 70.8608 58.265C70.9995 58.3863 71.1685 58.486 71.3678 58.564C71.5758 58.642 71.8315 58.681 72.1348 58.681C72.5768 58.681 72.9408 58.5987 73.2268 58.434C73.5128 58.2607 73.6558 58.0093 73.6558 57.68C73.6558 57.4633 73.5952 57.29 73.4738 57.16C73.3612 57.03 73.1532 56.913 72.8498 56.809C72.5552 56.705 72.1478 56.5967 71.6278 56.484C71.1078 56.3627 70.6962 56.2153 70.3928 56.042C70.0895 55.86 69.8728 55.6477 69.7428 55.405C69.6128 55.1537 69.5478 54.872 69.5478 54.56C69.5478 54.2393 69.6432 53.9317 69.8338 53.637C70.0245 53.3337 70.3018 53.0867 70.6658 52.896C71.0385 52.7053 71.5022 52.61 72.0568 52.61C72.5075 52.61 72.8932 52.6663 73.2138 52.779C73.5345 52.8917 73.7988 53.0347 74.0068 53.208C74.2148 53.3727 74.3708 53.5373 74.4748 53.702C74.5788 53.8667 74.6352 54.0053 74.6438 54.118C74.6525 54.2047 74.6265 54.2783 74.5658 54.339C74.5052 54.391 74.4358 54.417 74.3578 54.417H73.8118C73.7512 54.417 73.6992 54.404 73.6558 54.378C73.6212 54.352 73.5865 54.3217 73.5518 54.287C73.4652 54.1743 73.3612 54.0617 73.2398 53.949C73.1272 53.8363 72.9755 53.7453 72.7848 53.676C72.6028 53.598 72.3602 53.559 72.0568 53.559C71.6235 53.559 71.2985 53.65 71.0818 53.832C70.8652 54.014 70.7568 54.2437 70.7568 54.521C70.7568 54.6857 70.8045 54.833 70.8998 54.963C70.9952 55.093 71.1772 55.21 71.4458 55.314C71.7145 55.418 72.1132 55.5307 72.6418 55.652C73.2138 55.7647 73.6645 55.9163 73.9938 56.107C74.3232 56.2977 74.5572 56.5187 74.6958 56.77C74.8345 57.0213 74.9038 57.3117 74.9038 57.641C74.9038 58.005 74.7955 58.3387 74.5788 58.642C74.3708 58.9453 74.0588 59.188 73.6428 59.37C73.2355 59.5433 72.7285 59.63 72.1218 59.63ZM82.0653 59.63C81.5886 59.63 81.177 59.5477 80.8303 59.383C80.4836 59.2097 80.1976 58.98 79.9723 58.694C79.7556 58.3993 79.591 58.0657 79.4783 57.693C79.3743 57.3203 79.3136 56.926 79.2963 56.51C79.2876 56.3713 79.2833 56.2413 79.2833 56.12C79.2833 55.9987 79.2876 55.8687 79.2963 55.73C79.3136 55.3227 79.3743 54.9327 79.4783 54.56C79.591 54.1873 79.7556 53.8537 79.9723 53.559C80.1976 53.2643 80.4836 53.0347 80.8303 52.87C81.177 52.6967 81.5886 52.61 82.0653 52.61C82.5766 52.61 83.0013 52.701 83.3393 52.883C83.6773 53.065 83.9546 53.2903 84.1713 53.559V50.569C84.1713 50.4823 84.1973 50.413 84.2493 50.361C84.31 50.3003 84.3836 50.27 84.4703 50.27H85.0943C85.181 50.27 85.2503 50.3003 85.3023 50.361C85.363 50.413 85.3933 50.4823 85.3933 50.569V59.201C85.3933 59.2877 85.363 59.3613 85.3023 59.422C85.2503 59.474 85.181 59.5 85.0943 59.5H84.5093C84.414 59.5 84.3403 59.474 84.2883 59.422C84.2363 59.3613 84.2103 59.2877 84.2103 59.201V58.655C83.9936 58.9323 83.712 59.1663 83.3653 59.357C83.0186 59.539 82.5853 59.63 82.0653 59.63ZM82.3383 58.577C82.7716 58.577 83.1183 58.4773 83.3783 58.278C83.6383 58.0787 83.8333 57.8273 83.9633 57.524C84.0933 57.212 84.1626 56.8957 84.1713 56.575C84.18 56.4363 84.1843 56.2717 84.1843 56.081C84.1843 55.8817 84.18 55.7127 84.1713 55.574C84.1626 55.2707 84.089 54.9717 83.9503 54.677C83.8203 54.3823 83.621 54.1397 83.3523 53.949C83.0923 53.7583 82.7543 53.663 82.3383 53.663C81.8963 53.663 81.5453 53.7627 81.2853 53.962C81.0253 54.1527 80.839 54.4083 80.7263 54.729C80.6136 55.041 80.5486 55.379 80.5313 55.743C80.5226 55.9943 80.5226 56.2457 80.5313 56.497C80.5486 56.861 80.6136 57.2033 80.7263 57.524C80.839 57.836 81.0253 58.0917 81.2853 58.291C81.5453 58.4817 81.8963 58.577 82.3383 58.577ZM90.0177 59.63C89.1251 59.63 88.4144 59.357 87.8857 58.811C87.3571 58.2563 87.0667 57.5023 87.0147 56.549C87.0061 56.4363 87.0017 56.2933 87.0017 56.12C87.0017 55.938 87.0061 55.7907 87.0147 55.678C87.0494 55.0627 87.1924 54.5253 87.4437 54.066C87.6951 53.598 88.0374 53.2383 88.4707 52.987C88.9127 52.7357 89.4284 52.61 90.0177 52.61C90.6764 52.61 91.2267 52.7487 91.6687 53.026C92.1194 53.3033 92.4617 53.6977 92.6957 54.209C92.9297 54.7203 93.0467 55.3183 93.0467 56.003V56.224C93.0467 56.3193 93.0164 56.393 92.9557 56.445C92.9037 56.497 92.8344 56.523 92.7477 56.523H88.2497C88.2497 56.5317 88.2497 56.549 88.2497 56.575C88.2497 56.601 88.2497 56.6227 88.2497 56.64C88.2671 56.9953 88.3451 57.329 88.4837 57.641C88.6224 57.9443 88.8217 58.1913 89.0817 58.382C89.3417 58.5727 89.6537 58.668 90.0177 58.668C90.3297 58.668 90.5897 58.6203 90.7977 58.525C91.0057 58.4297 91.1747 58.3257 91.3047 58.213C91.4347 58.0917 91.5214 58.0007 91.5647 57.94C91.6427 57.8273 91.7034 57.7623 91.7467 57.745C91.7901 57.719 91.8594 57.706 91.9547 57.706H92.5787C92.6654 57.706 92.7347 57.732 92.7867 57.784C92.8474 57.8273 92.8734 57.8923 92.8647 57.979C92.8561 58.109 92.7867 58.2693 92.6567 58.46C92.5267 58.642 92.3404 58.824 92.0977 59.006C91.8551 59.188 91.5604 59.3397 91.2137 59.461C90.8671 59.5737 90.4684 59.63 90.0177 59.63ZM88.2497 55.626H91.8117V55.587C91.8117 55.197 91.7381 54.8503 91.5907 54.547C91.4521 54.2437 91.2484 54.0053 90.9797 53.832C90.7111 53.65 90.3904 53.559 90.0177 53.559C89.6451 53.559 89.3244 53.65 89.0557 53.832C88.7957 54.0053 88.5964 54.2437 88.4577 54.547C88.3191 54.8503 88.2497 55.197 88.2497 55.587V55.626ZM36.5274 74.5C36.4408 74.5 36.3671 74.474 36.3064 74.422C36.2544 74.3613 36.2284 74.2877 36.2284 74.201V65.569C36.2284 65.4823 36.2544 65.413 36.3064 65.361C36.3671 65.3003 36.4408 65.27 36.5274 65.27H37.1384C37.2338 65.27 37.3074 65.3003 37.3594 65.361C37.4114 65.413 37.4374 65.4823 37.4374 65.569V74.201C37.4374 74.2877 37.4114 74.3613 37.3594 74.422C37.3074 74.474 37.2338 74.5 37.1384 74.5H36.5274ZM41.2616 74.63C40.8282 74.63 40.4339 74.5433 40.0786 74.37C39.7232 74.1967 39.4372 73.9627 39.2206 73.668C39.0039 73.3733 38.8956 73.0397 38.8956 72.667C38.8956 72.069 39.1382 71.5923 39.6236 71.237C40.1089 70.8817 40.7416 70.6477 41.5216 70.535L43.4586 70.262V69.885C43.4586 69.469 43.3372 69.144 43.0946 68.91C42.8606 68.676 42.4749 68.559 41.9376 68.559C41.5476 68.559 41.2312 68.637 40.9886 68.793C40.7546 68.949 40.5899 69.1483 40.4946 69.391C40.4426 69.521 40.3516 69.586 40.2216 69.586H39.6366C39.5412 69.586 39.4676 69.56 39.4156 69.508C39.3722 69.4473 39.3506 69.378 39.3506 69.3C39.3506 69.17 39.3982 69.0097 39.4936 68.819C39.5976 68.6283 39.7536 68.442 39.9616 68.26C40.1696 68.078 40.4339 67.9263 40.7546 67.805C41.0839 67.675 41.4826 67.61 41.9506 67.61C42.4706 67.61 42.9082 67.6793 43.2636 67.818C43.6189 67.948 43.8962 68.1257 44.0956 68.351C44.3036 68.5763 44.4509 68.832 44.5376 69.118C44.6329 69.404 44.6806 69.6943 44.6806 69.989V74.201C44.6806 74.2877 44.6502 74.3613 44.5896 74.422C44.5376 74.474 44.4682 74.5 44.3816 74.5H43.7836C43.6882 74.5 43.6146 74.474 43.5626 74.422C43.5106 74.3613 43.4846 74.2877 43.4846 74.201V73.642C43.3719 73.798 43.2202 73.954 43.0296 74.11C42.8389 74.2573 42.6006 74.383 42.3146 74.487C42.0286 74.5823 41.6776 74.63 41.2616 74.63ZM41.5346 73.655C41.8899 73.655 42.2149 73.5813 42.5096 73.434C42.8042 73.278 43.0339 73.0397 43.1986 72.719C43.3719 72.3983 43.4586 71.9953 43.4586 71.51V71.146L41.9506 71.367C41.3352 71.4537 40.8716 71.601 40.5596 71.809C40.2476 72.0083 40.0916 72.264 40.0916 72.576C40.0916 72.8187 40.1609 73.0223 40.2996 73.187C40.4469 73.343 40.6289 73.46 40.8456 73.538C41.0709 73.616 41.3006 73.655 41.5346 73.655ZM52.8299 74.63C52.0759 74.63 51.4433 74.5173 50.9319 74.292C50.4206 74.058 50.0263 73.759 49.7489 73.395C49.4803 73.0223 49.3373 72.628 49.3199 72.212C49.3199 72.1427 49.3459 72.082 49.3979 72.03C49.4586 71.9693 49.5279 71.939 49.6059 71.939H50.2689C50.3729 71.939 50.4509 71.965 50.5029 72.017C50.5549 72.069 50.5896 72.1297 50.6069 72.199C50.6503 72.407 50.7543 72.615 50.9189 72.823C51.0923 73.0223 51.3306 73.1913 51.6339 73.33C51.9459 73.46 52.3446 73.525 52.8299 73.525C53.5753 73.525 54.1213 73.395 54.4679 73.135C54.8233 72.8663 55.0009 72.511 55.0009 72.069C55.0009 71.7657 54.9056 71.523 54.7149 71.341C54.5329 71.1503 54.2513 70.9813 53.8699 70.834C53.4886 70.6867 52.9946 70.5263 52.3879 70.353C51.7553 70.171 51.2309 69.9717 50.8149 69.755C50.3989 69.5383 50.0869 69.2697 49.8789 68.949C49.6796 68.6283 49.5799 68.221 49.5799 67.727C49.5799 67.259 49.7056 66.843 49.9569 66.479C50.2083 66.1063 50.5679 65.8117 51.0359 65.595C51.5126 65.3783 52.0889 65.27 52.7649 65.27C53.3023 65.27 53.7703 65.3437 54.1689 65.491C54.5763 65.6297 54.9143 65.8203 55.1829 66.063C55.4516 66.297 55.6553 66.5527 55.7939 66.83C55.9326 67.0987 56.0063 67.363 56.0149 67.623C56.0149 67.6837 55.9933 67.7443 55.9499 67.805C55.9066 67.857 55.8373 67.883 55.7419 67.883H55.0529C54.9923 67.883 54.9273 67.8657 54.8579 67.831C54.7973 67.7963 54.7496 67.7313 54.7149 67.636C54.6629 67.2807 54.4636 66.9817 54.1169 66.739C53.7703 66.4963 53.3196 66.375 52.7649 66.375C52.2016 66.375 51.7423 66.4833 51.3869 66.7C51.0403 66.9167 50.8669 67.2547 50.8669 67.714C50.8669 68.0087 50.9493 68.2557 51.1139 68.455C51.2786 68.6457 51.5386 68.8147 51.8939 68.962C52.2493 69.1093 52.7129 69.2653 53.2849 69.43C53.9783 69.6207 54.5459 69.8243 54.9879 70.041C55.4299 70.249 55.7549 70.5133 55.9629 70.834C56.1796 71.146 56.2879 71.549 56.2879 72.043C56.2879 72.589 56.1449 73.057 55.8589 73.447C55.5729 73.8283 55.1699 74.123 54.6499 74.331C54.1386 74.5303 53.5319 74.63 52.8299 74.63ZM59.7078 74.63C59.2745 74.63 58.8802 74.5433 58.5248 74.37C58.1695 74.1967 57.8835 73.9627 57.6668 73.668C57.4502 73.3733 57.3418 73.0397 57.3418 72.667C57.3418 72.069 57.5845 71.5923 58.0698 71.237C58.5552 70.8817 59.1878 70.6477 59.9678 70.535L61.9048 70.262V69.885C61.9048 69.469 61.7835 69.144 61.5408 68.91C61.3068 68.676 60.9212 68.559 60.3838 68.559C59.9938 68.559 59.6775 68.637 59.4348 68.793C59.2008 68.949 59.0362 69.1483 58.9408 69.391C58.8888 69.521 58.7978 69.586 58.6678 69.586H58.0828C57.9875 69.586 57.9138 69.56 57.8618 69.508C57.8185 69.4473 57.7968 69.378 57.7968 69.3C57.7968 69.17 57.8445 69.0097 57.9398 68.819C58.0438 68.6283 58.1998 68.442 58.4078 68.26C58.6158 68.078 58.8802 67.9263 59.2008 67.805C59.5302 67.675 59.9288 67.61 60.3968 67.61C60.9168 67.61 61.3545 67.6793 61.7098 67.818C62.0652 67.948 62.3425 68.1257 62.5418 68.351C62.7498 68.5763 62.8972 68.832 62.9838 69.118C63.0792 69.404 63.1268 69.6943 63.1268 69.989V74.201C63.1268 74.2877 63.0965 74.3613 63.0358 74.422C62.9838 74.474 62.9145 74.5 62.8278 74.5H62.2298C62.1345 74.5 62.0608 74.474 62.0088 74.422C61.9568 74.3613 61.9308 74.2877 61.9308 74.201V73.642C61.8182 73.798 61.6665 73.954 61.4758 74.11C61.2852 74.2573 61.0468 74.383 60.7608 74.487C60.4748 74.5823 60.1238 74.63 59.7078 74.63ZM59.9808 73.655C60.3362 73.655 60.6612 73.5813 60.9558 73.434C61.2505 73.278 61.4802 73.0397 61.6448 72.719C61.8182 72.3983 61.9048 71.9953 61.9048 71.51V71.146L60.3968 71.367C59.7815 71.4537 59.3178 71.601 59.0058 71.809C58.6938 72.0083 58.5378 72.264 58.5378 72.576C58.5378 72.8187 58.6072 73.0223 58.7458 73.187C58.8932 73.343 59.0752 73.46 59.2918 73.538C59.5172 73.616 59.7468 73.655 59.9808 73.655ZM65.3077 74.5C65.221 74.5 65.1474 74.474 65.0867 74.422C65.0347 74.3613 65.0087 74.2877 65.0087 74.201V65.569C65.0087 65.4823 65.0347 65.413 65.0867 65.361C65.1474 65.3003 65.221 65.27 65.3077 65.27H65.9187C66.014 65.27 66.0877 65.3003 66.1397 65.361C66.1917 65.413 66.2177 65.4823 66.2177 65.569V74.201C66.2177 74.2877 66.1917 74.3613 66.1397 74.422C66.0877 74.474 66.014 74.5 65.9187 74.5H65.3077ZM70.6788 74.63C70.1242 74.63 69.6518 74.5087 69.2618 74.266C68.8805 74.0147 68.5902 73.668 68.3908 73.226C68.1915 72.784 68.0918 72.277 68.0918 71.705V68.039C68.0918 67.9523 68.1178 67.883 68.1698 67.831C68.2305 67.7703 68.3042 67.74 68.3908 67.74H69.0408C69.1275 67.74 69.1968 67.7703 69.2488 67.831C69.3095 67.883 69.3398 67.9523 69.3398 68.039V71.64C69.3398 72.9313 69.9032 73.577 71.0298 73.577C71.5672 73.577 71.9962 73.408 72.3168 73.07C72.6462 72.7233 72.8108 72.2467 72.8108 71.64V68.039C72.8108 67.9523 72.8368 67.883 72.8888 67.831C72.9495 67.7703 73.0232 67.74 73.1098 67.74H73.7468C73.8422 67.74 73.9158 67.7703 73.9678 67.831C74.0198 67.883 74.0458 67.9523 74.0458 68.039V74.201C74.0458 74.2877 74.0198 74.3613 73.9678 74.422C73.9158 74.474 73.8422 74.5 73.7468 74.5H73.1488C73.0622 74.5 72.9885 74.474 72.9278 74.422C72.8758 74.3613 72.8498 74.2877 72.8498 74.201V73.629C72.6158 73.9323 72.3298 74.175 71.9918 74.357C71.6625 74.539 71.2248 74.63 70.6788 74.63ZM78.4471 74.63C77.9705 74.63 77.5588 74.5477 77.2121 74.383C76.8655 74.2097 76.5795 73.98 76.3541 73.694C76.1375 73.3993 75.9728 73.0657 75.8601 72.693C75.7561 72.3203 75.6955 71.926 75.6781 71.51C75.6695 71.3713 75.6651 71.2413 75.6651 71.12C75.6651 70.9987 75.6695 70.8687 75.6781 70.73C75.6955 70.3227 75.7561 69.9327 75.8601 69.56C75.9728 69.1873 76.1375 68.8537 76.3541 68.559C76.5795 68.2643 76.8655 68.0347 77.2121 67.87C77.5588 67.6967 77.9705 67.61 78.4471 67.61C78.9585 67.61 79.3831 67.701 79.7211 67.883C80.0591 68.065 80.3365 68.2903 80.5531 68.559V65.569C80.5531 65.4823 80.5791 65.413 80.6311 65.361C80.6918 65.3003 80.7655 65.27 80.8521 65.27H81.4761C81.5628 65.27 81.6321 65.3003 81.6841 65.361C81.7448 65.413 81.7751 65.4823 81.7751 65.569V74.201C81.7751 74.2877 81.7448 74.3613 81.6841 74.422C81.6321 74.474 81.5628 74.5 81.4761 74.5H80.8911C80.7958 74.5 80.7221 74.474 80.6701 74.422C80.6181 74.3613 80.5921 74.2877 80.5921 74.201V73.655C80.3755 73.9323 80.0938 74.1663 79.7471 74.357C79.4005 74.539 78.9671 74.63 78.4471 74.63ZM78.7201 73.577C79.1535 73.577 79.5001 73.4773 79.7601 73.278C80.0201 73.0787 80.2151 72.8273 80.3451 72.524C80.4751 72.212 80.5445 71.8957 80.5531 71.575C80.5618 71.4363 80.5661 71.2717 80.5661 71.081C80.5661 70.8817 80.5618 70.7127 80.5531 70.574C80.5445 70.2707 80.4708 69.9717 80.3321 69.677C80.2021 69.3823 80.0028 69.1397 79.7341 68.949C79.4741 68.7583 79.1361 68.663 78.7201 68.663C78.2781 68.663 77.9271 68.7627 77.6671 68.962C77.4071 69.1527 77.2208 69.4083 77.1081 69.729C76.9955 70.041 76.9305 70.379 76.9131 70.743C76.9045 70.9943 76.9045 71.2457 76.9131 71.497C76.9305 71.861 76.9955 72.2033 77.1081 72.524C77.2208 72.836 77.4071 73.0917 77.6671 73.291C77.9271 73.4817 78.2781 73.577 78.7201 73.577Z" fill="#171B22"/>
<rect x="40.5" y="81.5" width="37" height="25" rx="12.5" fill="#2D68F8"/>
<path d="M53.3417 98.64C52.6697 98.64 52.0864 98.5467 51.5917 98.36C51.097 98.164 50.6864 97.898 50.3597 97.562C50.0424 97.226 49.7997 96.834 49.6317 96.386C49.4637 95.938 49.3657 95.4573 49.3377 94.944C49.3284 94.692 49.319 94.4073 49.3097 94.09C49.3097 93.7633 49.3097 93.4367 49.3097 93.11C49.319 92.774 49.3284 92.4753 49.3377 92.214C49.3657 91.7007 49.4637 91.2247 49.6317 90.786C49.809 90.338 50.061 89.9507 50.3877 89.624C50.7237 89.288 51.1344 89.0267 51.6197 88.84C52.1144 88.6533 52.6884 88.56 53.3417 88.56C54.0044 88.56 54.5784 88.6533 55.0637 88.84C55.549 89.0267 55.955 89.288 56.2817 89.624C56.6177 89.9507 56.8744 90.338 57.0517 90.786C57.229 91.2247 57.327 91.7007 57.3457 92.214C57.3644 92.4753 57.3737 92.774 57.3737 93.11C57.383 93.4367 57.383 93.7633 57.3737 94.09C57.3737 94.4073 57.3644 94.692 57.3457 94.944C57.327 95.4573 57.229 95.938 57.0517 96.386C56.8837 96.834 56.6364 97.226 56.3097 97.562C55.9924 97.898 55.5864 98.164 55.0917 98.36C54.6064 98.5467 54.023 98.64 53.3417 98.64ZM53.3417 96.61C53.827 96.61 54.177 96.456 54.3917 96.148C54.6157 95.8307 54.7324 95.406 54.7417 94.874C54.7604 94.6033 54.7697 94.3187 54.7697 94.02C54.779 93.7213 54.779 93.4227 54.7697 93.124C54.7697 92.8253 54.7604 92.55 54.7417 92.298C54.7324 91.7847 54.6157 91.3693 54.3917 91.052C54.177 90.7347 53.827 90.5713 53.3417 90.562C52.8564 90.5713 52.5064 90.7347 52.2917 91.052C52.077 91.3693 51.9604 91.7847 51.9417 92.298C51.9324 92.55 51.923 92.8253 51.9137 93.124C51.9137 93.4227 51.9137 93.7213 51.9137 94.02C51.923 94.3187 51.9324 94.6033 51.9417 94.874C51.9604 95.406 52.0817 95.8307 52.3057 96.148C52.5297 96.456 52.875 96.61 53.3417 96.61ZM59.6793 98.5C59.4647 98.5 59.3573 98.4067 59.3573 98.22C59.3573 98.164 59.376 98.1127 59.4133 98.066L66.3293 88.966C66.3947 88.882 66.46 88.8167 66.5253 88.77C66.5907 88.7233 66.6887 88.7 66.8193 88.7H67.8133C68.028 88.7 68.1353 88.7933 68.1353 88.98C68.1353 89.036 68.1167 89.0873 68.0793 89.134L61.1633 98.234C61.098 98.318 61.0327 98.3833 60.9673 98.43C60.902 98.4767 60.804 98.5 60.6733 98.5H59.6793ZM66.7213 98.57C66.0867 98.57 65.578 98.402 65.1953 98.066C64.822 97.73 64.612 97.282 64.5653 96.722C64.556 96.4793 64.5513 96.2647 64.5513 96.078C64.5513 95.8913 64.556 95.6673 64.5653 95.406C64.6027 94.8367 64.8033 94.384 65.1673 94.048C65.5407 93.7027 66.0587 93.53 66.7213 93.53C67.3933 93.53 67.9113 93.7027 68.2753 94.048C68.6393 94.384 68.84 94.8367 68.8773 95.406C68.896 95.6673 68.9053 95.8913 68.9053 96.078C68.9053 96.2647 68.896 96.4793 68.8773 96.722C68.84 97.282 68.63 97.73 68.2473 98.066C67.8647 98.402 67.356 98.57 66.7213 98.57ZM66.7213 97.338C66.88 97.338 67.0013 97.3053 67.0853 97.24C67.1787 97.1747 67.2487 97.0907 67.2953 96.988C67.342 96.876 67.3653 96.7593 67.3653 96.638C67.384 96.4233 67.3933 96.2273 67.3933 96.05C67.3933 95.8727 67.384 95.6813 67.3653 95.476C67.356 95.2987 67.3047 95.14 67.2113 95C67.118 94.8507 66.9547 94.776 66.7213 94.776C66.488 94.776 66.3247 94.8507 66.2313 95C66.138 95.14 66.0867 95.2987 66.0773 95.476C66.068 95.6813 66.0633 95.8727 66.0633 96.05C66.0633 96.2273 66.068 96.4233 66.0773 96.638C66.0867 96.7593 66.11 96.876 66.1473 96.988C66.194 97.0907 66.264 97.1747 66.3573 97.24C66.4507 97.3053 66.572 97.338 66.7213 97.338ZM60.7993 93.642C60.1553 93.642 59.642 93.4787 59.2593 93.152C58.886 92.816 58.6807 92.368 58.6433 91.808C58.6247 91.5653 58.6153 91.3553 58.6153 91.178C58.6247 90.9913 58.634 90.7673 58.6433 90.506C58.6713 89.9367 58.8673 89.484 59.2313 89.148C59.6047 88.8027 60.1273 88.63 60.7993 88.63C61.4713 88.63 61.9893 88.8027 62.3533 89.148C62.7173 89.484 62.9133 89.9367 62.9413 90.506C62.96 90.7673 62.9693 90.9913 62.9693 91.178C62.9693 91.3553 62.96 91.5653 62.9413 91.808C62.9133 92.368 62.708 92.816 62.3253 93.152C61.9427 93.4787 61.434 93.642 60.7993 93.642ZM60.7993 92.438C60.9487 92.438 61.07 92.4053 61.1633 92.34C61.2567 92.2653 61.3267 92.1767 61.3733 92.074C61.42 91.962 61.4433 91.85 61.4433 91.738C61.462 91.5233 61.4713 91.3273 61.4713 91.15C61.4713 90.9727 61.462 90.7813 61.4433 90.576C61.434 90.3987 61.378 90.24 61.2753 90.1C61.182 89.9507 61.0233 89.876 60.7993 89.876C60.566 89.876 60.398 89.9507 60.2953 90.1C60.202 90.24 60.1507 90.3987 60.1413 90.576C60.132 90.7813 60.1273 90.9727 60.1273 91.15C60.1273 91.3273 60.132 91.5233 60.1413 91.738C60.1507 91.85 60.174 91.962 60.2113 92.074C60.258 92.1767 60.328 92.2653 60.4213 92.34C60.5147 92.4053 60.6407 92.438 60.7993 92.438Z" fill="white"/>
<g filter="url(#filter0_d_15958_19596)">
<rect x="88" y="14" width="32" height="32" rx="16" fill="white"/>
<rect x="87" y="13" width="34" height="34" rx="17" stroke="#1DA534" stroke-width="2"/>
<path opacity="0.4" d="M103.999 32.8398C104.485 32.8398 104.879 33.2338 104.879 33.7197C104.879 34.2057 104.485 34.5996 103.999 34.5996C103.513 34.5995 103.119 34.2057 103.119 33.7197C103.119 33.2338 103.513 32.8399 103.999 32.8398Z" fill="#1DA534" stroke="#1DA534" stroke-width="1.5"/>
<path d="M99.3496 28.1899H108.65C110.674 28.19 111.735 28.5109 112.332 29.1079C112.929 29.7049 113.25 30.7662 113.25 32.7896V34.6499C113.25 36.6735 112.929 37.7355 112.332 38.3325C111.735 38.9294 110.673 39.2495 108.65 39.2495H99.3496C97.3266 39.2495 96.265 38.9294 95.668 38.3325C95.0709 37.7355 94.75 36.6735 94.75 34.6499V32.7896C94.75 30.7662 95.0709 29.7049 95.668 29.1079C96.265 28.5109 97.3263 28.19 99.3496 28.1899ZM104 29.9497C101.914 29.9497 100.23 31.6476 100.23 33.7202C100.231 35.7927 101.914 37.4897 104 37.4897C106.086 37.4897 107.769 35.7927 107.77 33.7202C107.77 31.6476 106.086 29.9497 104 29.9497Z" fill="#1DA534" stroke="#1DA534" stroke-width="1.5"/>
<g opacity="0.4">
<mask id="path-12-inside-1_15958_19596" fill="white">
<path d="M99.1207 27.45V26.28C99.1207 23.35 99.9507 21.4 104.001 21.4C108.051 21.4 108.881 23.35 108.881 26.28V27.45C109.391 27.46 109.851 27.48 110.281 27.54V26.28C110.281 23.58 109.631 20 104.001 20C98.3707 20 97.7207 23.58 97.7207 26.28V27.53C98.1407 27.48 98.6107 27.45 99.1207 27.45Z"/>
</mask>
<path d="M99.1207 27.45V26.28C99.1207 23.35 99.9507 21.4 104.001 21.4C108.051 21.4 108.881 23.35 108.881 26.28V27.45C109.391 27.46 109.851 27.48 110.281 27.54V26.28C110.281 23.58 109.631 20 104.001 20C98.3707 20 97.7207 23.58 97.7207 26.28V27.53C98.1407 27.48 98.6107 27.45 99.1207 27.45Z" fill="#1DA534"/>
<path d="M99.1207 27.45V28.95H100.621V27.45H99.1207ZM108.881 27.45H107.381V28.9209L108.851 28.9497L108.881 27.45ZM110.281 27.54L110.073 29.0256L111.781 29.2638V27.54H110.281ZM110.281 26.28H108.781H110.281ZM97.7207 27.53H96.2207V29.2192L97.898 29.0195L97.7207 27.53ZM99.1207 27.45H100.621V26.28H99.1207H97.6207V27.45H99.1207ZM99.1207 26.28H100.621C100.621 24.8831 100.837 24.1294 101.193 23.7033C101.498 23.3385 102.182 22.9 104.001 22.9V21.4V19.9C101.769 19.9 100.014 20.4365 98.8911 21.7792C97.8198 23.0606 97.6207 24.7469 97.6207 26.28H99.1207ZM104.001 21.4V22.9C105.819 22.9 106.504 23.3385 106.809 23.7033C107.165 24.1294 107.381 24.8831 107.381 26.28H108.881H110.381C110.381 24.7469 110.182 23.0606 109.11 21.7792C107.988 20.4365 106.232 19.9 104.001 19.9V21.4ZM108.881 26.28H107.381V27.45H108.881H110.381V26.28H108.881ZM108.881 27.45L108.851 28.9497C109.349 28.9595 109.735 28.9785 110.073 29.0256L110.281 27.54L110.488 26.0544C109.966 25.9815 109.433 25.9605 108.91 25.9503L108.881 27.45ZM110.281 27.54H111.781V26.28H110.281H108.781V27.54H110.281ZM110.281 26.28H111.781C111.781 24.8668 111.625 22.8955 110.479 21.265C109.257 19.5254 107.156 18.5 104.001 18.5V20V21.5C106.475 21.5 107.515 22.2646 108.025 22.99C108.611 23.8245 108.781 24.9932 108.781 26.28H110.281ZM104.001 20V18.5C100.845 18.5 98.7449 19.5254 97.5222 21.265C96.3762 22.8955 96.2207 24.8668 96.2207 26.28H97.7207H99.2207C99.2207 24.9932 99.3902 23.8245 99.9767 22.99C100.487 22.2646 101.526 21.5 104.001 21.5V20ZM97.7207 26.28H96.2207V27.53H97.7207H99.2207V26.28H97.7207ZM97.7207 27.53L97.898 29.0195C98.2582 28.9766 98.669 28.95 99.1207 28.95V27.45V25.95C98.5524 25.95 98.0232 25.9834 97.5434 26.0405L97.7207 27.53Z" fill="#1DA534" mask="url(#path-12-inside-1_15958_19596)"/>
</g>
</g>
<defs>
<filter id="filter0_d_15958_19596" x="71" y="5" width="66" height="66" filterUnits="userSpaceOnUse" color-interpolation-filters="sRGB">
<feFlood flood-opacity="0" result="BackgroundImageFix"/>
<feColorMatrix in="SourceAlpha" type="matrix" values="0 0 0 0 0 0 0 0 0 0 0 0 0 0 0 0 0 0 127 0" result="hardAlpha"/>
<feOffset dy="8"/>
<feGaussianBlur stdDeviation="7.5"/>
<feColorMatrix type="matrix" values="0 0 0 0 0 0 0 0 0 0 0 0 0 0 0 0 0 0 0.25 0"/>
<feBlend mode="normal" in2="BackgroundImageFix" result="effect1_dropShadow_15958_19596"/>
<feBlend mode="normal" in="SourceGraphic" in2="effect1_dropShadow_15958_19596" result="shape"/>
</filter>
<clipPath id="clip0_15958_19596">
<rect width="32" height="32" fill="white" transform="translate(43 11.5)"/>
</clipPath>
</defs>
</svg>
