<svg width="137" height="118" viewBox="0 0 137 118" fill="none" xmlns="http://www.w3.org/2000/svg">
<rect x="2" y="2" width="114" height="114" rx="57" fill="#E8F6EB"/>
<rect x="2" y="2" width="114" height="114" rx="57" stroke="#1DA534" stroke-width="4"/>
<g clip-path="url(#clip0_34428_7953)">
<g clip-path="url(#clip1_34428_7953)">
<path opacity="0.4" d="M54.5 40.5H64.9C68.488 40.5 71.4 37.588 71.4 34V21C71.4 17.412 68.488 14.5 64.9 14.5H54.5C50.912 14.5 48 17.412 48 21V34C48 37.588 50.912 40.5 54.5 40.5Z" fill="#157525"/>
<path d="M67.5552 21H62.2457C61.5609 21 61.6556 21.2294 61.6556 21.5134V21.7866C61.6556 22.0679 61.554 22.3 62.2456 22.3H67.5552C68.24 22.3 68.1452 22.0706 68.1452 21.7866V21.5134C68.1452 21.2294 68.2467 21 67.5552 21Z" fill="#157525"/>
<path d="M67.5552 31.4004H62.2457C61.5609 31.4004 61.6556 31.6298 61.6556 31.9138V32.187C61.6556 32.4683 61.554 32.7004 62.2456 32.7004H67.5552C68.24 32.7004 68.1452 32.471 68.1452 32.187V31.9138C68.1452 31.6298 68.2467 31.4004 67.5552 31.4004Z" fill="#157525"/>
<path d="M57.1548 21H51.8453C51.1605 21 51.2552 21.2294 51.2552 21.5134V21.7866C51.2552 22.0679 51.1537 22.3 51.8452 22.3H57.1548C57.8396 22.3 57.7448 22.0706 57.7448 21.7866V21.5134C57.7448 21.2294 57.8463 21 57.1548 21Z" fill="#157525"/>
<path d="M53.8496 18.9956V24.3051C53.8496 24.9899 54.079 24.8952 54.3631 24.8952H54.6362C54.9175 24.8952 55.1496 24.9967 55.1496 24.3052V18.9956C55.1496 18.3108 54.9202 18.4056 54.6362 18.4056H54.3631C54.079 18.4056 53.8496 18.3041 53.8496 18.9956Z" fill="#157525"/>
<path d="M55.9155 29.7134L52.1612 33.4677C51.6769 33.952 51.9062 34.0472 52.107 34.248L52.3001 34.4412C52.499 34.6401 52.5913 34.876 53.0803 34.3871L56.8348 30.6326C57.319 30.1483 57.0898 30.0532 56.8889 29.8524L56.6958 29.6592C56.495 29.4584 56.4045 29.2244 55.9155 29.7134Z" fill="#157525"/>
<path d="M52.1626 30.6323L55.9169 34.3867C56.4012 34.8709 56.4964 34.6417 56.6973 34.4408L56.8904 34.2477C57.0893 34.0488 57.3253 33.9565 56.8363 33.4675L53.0818 29.7131C52.5976 29.2288 52.5024 29.4581 52.3016 29.6589L52.1085 29.8521C51.9076 30.0529 51.6736 30.1433 52.1626 30.6323Z" fill="#157525"/>
<path d="M64.8968 30.0998C64.7286 30.0998 64.5669 30.0344 64.444 29.9101C64.3211 29.7858 64.25 29.6223 64.25 29.4457C64.25 29.2757 64.3211 29.1056 64.444 28.9813C64.6833 28.7393 65.1167 28.7393 65.356 28.9813C65.4789 29.1056 65.55 29.2757 65.55 29.4457C65.55 29.5307 65.5306 29.6158 65.4983 29.6943C65.4659 29.7728 65.4206 29.8447 65.356 29.9101C65.2331 30.0344 65.0714 30.0998 64.8968 30.0998Z" fill="#157525"/>
<path d="M64.8968 35.3C64.7286 35.3 64.5669 35.2346 64.444 35.1103C64.3211 34.986 64.25 34.8225 64.25 34.6459C64.25 34.4758 64.3211 34.3058 64.444 34.1815C64.6833 33.9395 65.1167 33.9395 65.356 34.1815C65.4789 34.3058 65.55 34.4758 65.55 34.6459C65.55 34.7309 65.5306 34.816 65.4983 34.8945C65.4659 34.973 65.4206 35.0449 65.356 35.1103C65.2331 35.2346 65.0714 35.3 64.8968 35.3Z" fill="#157525"/>
</g>
</g>
<path d="M23.9135 50.4C24.8148 50.4 25.5601 50.634 26.1495 51.102C26.7475 51.57 27.0465 52.2547 27.0465 53.156C27.0465 53.7627 26.9035 54.2783 26.6175 54.703C26.3401 55.1277 25.9631 55.444 25.4865 55.652C25.0185 55.86 24.4941 55.964 23.9135 55.964H21.5215V59.149C21.5215 59.2443 21.4868 59.3267 21.4175 59.396C21.3481 59.4653 21.2658 59.5 21.1705 59.5H20.6375C20.5421 59.5 20.4598 59.4653 20.3905 59.396C20.3211 59.3267 20.2865 59.2443 20.2865 59.149V50.751C20.2865 50.6557 20.3211 50.5733 20.3905 50.504C20.4598 50.4347 20.5421 50.4 20.6375 50.4H23.9135ZM23.8485 54.794C24.4811 54.794 24.9665 54.6597 25.3045 54.391C25.6425 54.1137 25.8115 53.702 25.8115 53.156C25.8115 52.0987 25.1571 51.57 23.8485 51.57H21.5215V54.794H23.8485ZM31.1239 52.61C32.0512 52.61 32.7836 52.9047 33.3209 53.494C33.8582 54.0833 34.1269 54.885 34.1269 55.899V56.25C34.1269 56.3453 34.0922 56.4277 34.0229 56.497C33.9536 56.5663 33.8712 56.601 33.7759 56.601H29.3039V56.679C29.3212 57.251 29.4946 57.7017 29.8239 58.031C30.1619 58.3517 30.5952 58.512 31.1239 58.512C31.5572 58.512 31.8909 58.4557 32.1249 58.343C32.3676 58.2303 32.5842 58.07 32.7749 57.862C32.8442 57.7927 32.9049 57.745 32.9569 57.719C33.0176 57.693 33.0956 57.68 33.1909 57.68H33.5809C33.6849 57.68 33.7716 57.7147 33.8409 57.784C33.9102 57.8533 33.9406 57.9357 33.9319 58.031C33.8972 58.265 33.7672 58.5077 33.5419 58.759C33.3252 59.0017 33.0089 59.2097 32.5929 59.383C32.1856 59.5477 31.6959 59.63 31.1239 59.63C30.5692 59.63 30.0752 59.5043 29.6419 59.253C29.2086 58.993 28.8619 58.6377 28.6019 58.187C28.3506 57.7363 28.1989 57.2293 28.1469 56.666C28.1296 56.406 28.1209 56.2067 28.1209 56.068C28.1209 55.9293 28.1296 55.73 28.1469 55.47C28.1989 54.9327 28.3506 54.4473 28.6019 54.014C28.8619 53.5807 29.2042 53.2383 29.6289 52.987C30.0622 52.7357 30.5606 52.61 31.1239 52.61ZM32.9569 55.509V55.47C32.9569 54.9413 32.7879 54.521 32.4499 54.209C32.1206 53.8883 31.6786 53.728 31.1239 53.728C30.6212 53.728 30.1922 53.8883 29.8369 54.209C29.4902 54.5297 29.3126 54.95 29.3039 55.47V55.509H32.9569ZM41.7012 59.149C41.7012 59.2443 41.6665 59.3267 41.5972 59.396C41.5279 59.4653 41.4455 59.5 41.3502 59.5H40.8692C40.7739 59.5 40.6915 59.4653 40.6222 59.396C40.5529 59.3267 40.5182 59.2443 40.5182 59.149V55.717C40.5182 55.067 40.3579 54.573 40.0372 54.235C39.7165 53.897 39.2702 53.728 38.6982 53.728C38.1349 53.728 37.6885 53.897 37.3592 54.235C37.0385 54.573 36.8782 55.067 36.8782 55.717V59.149C36.8782 59.2443 36.8435 59.3267 36.7742 59.396C36.7049 59.4653 36.6225 59.5 36.5272 59.5H36.0462C35.9509 59.5 35.8685 59.4653 35.7992 59.396C35.7299 59.3267 35.6952 59.2443 35.6952 59.149V53.091C35.6952 52.9957 35.7299 52.9133 35.7992 52.844C35.8685 52.7747 35.9509 52.74 36.0462 52.74H36.5272C36.6225 52.74 36.7049 52.7747 36.7742 52.844C36.8435 52.9133 36.8782 52.9957 36.8782 53.091V53.494C37.0689 53.2427 37.3289 53.0347 37.6582 52.87C37.9962 52.6967 38.4079 52.61 38.8932 52.61C39.4392 52.61 39.9245 52.727 40.3492 52.961C40.7739 53.195 41.1032 53.533 41.3372 53.975C41.5799 54.4083 41.7012 54.924 41.7012 55.522V59.149ZM45.2167 56.497C43.9514 56.2283 43.3187 55.5827 43.3187 54.56C43.3187 54.2047 43.414 53.8797 43.6047 53.585C43.7954 53.2903 44.077 53.0563 44.4497 52.883C44.831 52.701 45.2947 52.61 45.8407 52.61C46.378 52.61 46.8417 52.688 47.2317 52.844C47.6217 53 47.9164 53.195 48.1157 53.429C48.3237 53.663 48.4277 53.8883 48.4277 54.105C48.4277 54.1917 48.393 54.2697 48.3237 54.339C48.2544 54.3997 48.172 54.43 48.0767 54.43H47.6477C47.483 54.43 47.353 54.3693 47.2577 54.248C46.989 53.9013 46.5167 53.728 45.8407 53.728C45.442 53.728 45.117 53.8017 44.8657 53.949C44.623 54.0963 44.5017 54.3 44.5017 54.56C44.5017 54.7767 44.5624 54.9413 44.6837 55.054C44.805 55.1667 44.987 55.2577 45.2297 55.327C45.4724 55.3963 45.9014 55.5003 46.5167 55.639C47.2794 55.8037 47.821 56.055 48.1417 56.393C48.4624 56.731 48.6227 57.1427 48.6227 57.628C48.6227 57.9833 48.51 58.3127 48.2847 58.616C48.068 58.9193 47.7517 59.1663 47.3357 59.357C46.9284 59.539 46.4517 59.63 45.9057 59.63C45.3684 59.63 44.8917 59.5477 44.4757 59.383C44.0684 59.2097 43.752 59.0017 43.5267 58.759C43.3014 58.5163 43.1887 58.2867 43.1887 58.07C43.1887 57.9833 43.2234 57.9097 43.2927 57.849C43.362 57.7797 43.4444 57.745 43.5397 57.745H44.0077C44.0857 57.745 44.155 57.7537 44.2157 57.771C44.2764 57.7883 44.3327 57.836 44.3847 57.914C44.6707 58.3127 45.1777 58.512 45.9057 58.512C46.313 58.512 46.6684 58.4297 46.9717 58.265C47.2837 58.0917 47.4397 57.8793 47.4397 57.628C47.4397 57.42 47.3617 57.2553 47.2057 57.134C47.0584 57.004 46.8417 56.9 46.5557 56.822C46.2697 56.7353 45.8234 56.627 45.2167 56.497ZM54.1849 55.223V55.054C54.1849 54.6293 54.0419 54.3043 53.7559 54.079C53.4785 53.845 53.1145 53.728 52.6639 53.728C52.3172 53.728 52.0442 53.7887 51.8449 53.91C51.6542 54.0227 51.4722 54.196 51.2989 54.43C51.2469 54.4993 51.1905 54.547 51.1299 54.573C51.0692 54.599 50.9869 54.612 50.8829 54.612H50.4929C50.3975 54.612 50.3109 54.5773 50.2329 54.508C50.1635 54.4387 50.1332 54.3563 50.1419 54.261C50.1679 54.001 50.2935 53.7453 50.5189 53.494C50.7529 53.234 51.0605 53.0217 51.4419 52.857C51.8232 52.6923 52.2305 52.61 52.6639 52.61C53.4699 52.61 54.1199 52.8353 54.6139 53.286C55.1165 53.7367 55.3679 54.3693 55.3679 55.184V59.149C55.3679 59.2443 55.3332 59.3267 55.2639 59.396C55.1945 59.4653 55.1122 59.5 55.0169 59.5H54.5359C54.4405 59.5 54.3582 59.4653 54.2889 59.396C54.2195 59.3267 54.1849 59.2443 54.1849 59.149V58.616C54.0462 58.928 53.7515 59.175 53.3009 59.357C52.8502 59.539 52.3995 59.63 51.9489 59.63C51.5069 59.63 51.1125 59.552 50.7659 59.396C50.4192 59.2313 50.1505 59.0103 49.9599 58.733C49.7779 58.4557 49.6869 58.1437 49.6869 57.797C49.6869 57.147 49.9295 56.64 50.4149 56.276C50.9002 55.9033 51.5459 55.652 52.3519 55.522L54.1849 55.223ZM54.1849 56.263L52.6509 56.51C52.0875 56.5967 51.6499 56.7397 51.3379 56.939C51.0259 57.1297 50.8699 57.3723 50.8699 57.667C50.8699 57.8837 50.9695 58.0787 51.1689 58.252C51.3682 58.4253 51.6715 58.512 52.0789 58.512C52.7029 58.512 53.2099 58.3343 53.5999 57.979C53.9899 57.6237 54.1849 57.16 54.1849 56.588V56.263ZM58.4476 53.494C58.6556 53.2253 58.8896 53.013 59.1496 52.857C59.4096 52.6923 59.7562 52.61 60.1896 52.61C61.2036 52.61 61.9142 52.987 62.3216 53.741C62.5729 53.377 62.8589 53.0997 63.1796 52.909C63.5002 52.7097 63.9206 52.61 64.4406 52.61C65.2899 52.61 65.9182 52.8657 66.3256 53.377C66.7416 53.8883 66.9496 54.612 66.9496 55.548V59.149C66.9496 59.2443 66.9149 59.3267 66.8456 59.396C66.7762 59.4653 66.6939 59.5 66.5986 59.5H66.1176C66.0222 59.5 65.9399 59.4653 65.8706 59.396C65.8012 59.3267 65.7666 59.2443 65.7666 59.149V55.678C65.7666 54.378 65.2552 53.728 64.2326 53.728C63.7646 53.728 63.3919 53.884 63.1146 54.196C62.8372 54.508 62.6986 54.9717 62.6986 55.587V59.149C62.6986 59.2443 62.6639 59.3267 62.5946 59.396C62.5252 59.4653 62.4429 59.5 62.3476 59.5H61.8666C61.7712 59.5 61.6889 59.4653 61.6196 59.396C61.5502 59.3267 61.5156 59.2443 61.5156 59.149V55.678C61.5156 54.378 61.0042 53.728 59.9816 53.728C59.5136 53.728 59.1409 53.884 58.8636 54.196C58.5862 54.508 58.4476 54.9717 58.4476 55.587V59.149C58.4476 59.2443 58.4129 59.3267 58.3436 59.396C58.2742 59.4653 58.1919 59.5 58.0966 59.5H57.6156C57.5202 59.5 57.4379 59.4653 57.3686 59.396C57.2992 59.3267 57.2646 59.2443 57.2646 59.149V53.091C57.2646 52.9957 57.2992 52.9133 57.3686 52.844C57.4379 52.7747 57.5202 52.74 57.6156 52.74H58.0966C58.1919 52.74 58.2742 52.7747 58.3436 52.844C58.4129 52.9133 58.4476 52.9957 58.4476 53.091V53.494ZM70.143 51.362C70.143 51.4573 70.1083 51.5397 70.039 51.609C69.9696 51.6783 69.8873 51.713 69.792 51.713H69.051C68.9556 51.713 68.8733 51.6783 68.804 51.609C68.7346 51.5397 68.7 51.4573 68.7 51.362V50.621C68.7 50.5257 68.7346 50.4433 68.804 50.374C68.8733 50.3047 68.9556 50.27 69.051 50.27H69.792C69.8873 50.27 69.9696 50.3047 70.039 50.374C70.1083 50.4433 70.143 50.5257 70.143 50.621V51.362ZM70.013 59.149C70.013 59.2443 69.9783 59.3267 69.909 59.396C69.8396 59.4653 69.7573 59.5 69.662 59.5H69.181C69.0856 59.5 69.0033 59.4653 68.934 59.396C68.8646 59.3267 68.83 59.2443 68.83 59.149V53.091C68.83 52.9957 68.8646 52.9133 68.934 52.844C69.0033 52.7747 69.0856 52.74 69.181 52.74H69.662C69.7573 52.74 69.8396 52.7747 69.909 52.844C69.9783 52.9133 70.013 52.9957 70.013 53.091V59.149ZM74.6307 52.61C75.5581 52.61 76.2904 52.9047 76.8277 53.494C77.3651 54.0833 77.6337 54.885 77.6337 55.899V56.25C77.6337 56.3453 77.5991 56.4277 77.5297 56.497C77.4604 56.5663 77.3781 56.601 77.2827 56.601H72.8107V56.679C72.8281 57.251 73.0014 57.7017 73.3307 58.031C73.6687 58.3517 74.1021 58.512 74.6307 58.512C75.0641 58.512 75.3977 58.4557 75.6317 58.343C75.8744 58.2303 76.0911 58.07 76.2817 57.862C76.3511 57.7927 76.4117 57.745 76.4637 57.719C76.5244 57.693 76.6024 57.68 76.6977 57.68H77.0877C77.1917 57.68 77.2784 57.7147 77.3477 57.784C77.4171 57.8533 77.4474 57.9357 77.4387 58.031C77.4041 58.265 77.2741 58.5077 77.0487 58.759C76.8321 59.0017 76.5157 59.2097 76.0997 59.383C75.6924 59.5477 75.2027 59.63 74.6307 59.63C74.0761 59.63 73.5821 59.5043 73.1487 59.253C72.7154 58.993 72.3687 58.6377 72.1087 58.187C71.8574 57.7363 71.7057 57.2293 71.6537 56.666C71.6364 56.406 71.6277 56.2067 71.6277 56.068C71.6277 55.9293 71.6364 55.73 71.6537 55.47C71.7057 54.9327 71.8574 54.4473 72.1087 54.014C72.3687 53.5807 72.7111 53.2383 73.1357 52.987C73.5691 52.7357 74.0674 52.61 74.6307 52.61ZM76.4637 55.509V55.47C76.4637 54.9413 76.2947 54.521 75.9567 54.209C75.6274 53.8883 75.1854 53.728 74.6307 53.728C74.1281 53.728 73.6991 53.8883 73.3437 54.209C72.9971 54.5297 72.8194 54.95 72.8107 55.47V55.509H76.4637ZM85.2081 59.149C85.2081 59.2443 85.1734 59.3267 85.1041 59.396C85.0347 59.4653 84.9524 59.5 84.8571 59.5H84.3761C84.2807 59.5 84.1984 59.4653 84.1291 59.396C84.0597 59.3267 84.0251 59.2443 84.0251 59.149V55.717C84.0251 55.067 83.8647 54.573 83.5441 54.235C83.2234 53.897 82.7771 53.728 82.2051 53.728C81.6417 53.728 81.1954 53.897 80.8661 54.235C80.5454 54.573 80.3851 55.067 80.3851 55.717V59.149C80.3851 59.2443 80.3504 59.3267 80.2811 59.396C80.2117 59.4653 80.1294 59.5 80.0341 59.5H79.5531C79.4577 59.5 79.3754 59.4653 79.3061 59.396C79.2367 59.3267 79.2021 59.2443 79.2021 59.149V53.091C79.2021 52.9957 79.2367 52.9133 79.3061 52.844C79.3754 52.7747 79.4577 52.74 79.5531 52.74H80.0341C80.1294 52.74 80.2117 52.7747 80.2811 52.844C80.3504 52.9133 80.3851 52.9957 80.3851 53.091V53.494C80.5757 53.2427 80.8357 53.0347 81.1651 52.87C81.5031 52.6967 81.9147 52.61 82.4001 52.61C82.9461 52.61 83.4314 52.727 83.8561 52.961C84.2807 53.195 84.6101 53.533 84.8441 53.975C85.0867 54.4083 85.2081 54.924 85.2081 55.522V59.149ZM88.8665 57.225C88.8665 57.5977 88.9402 57.8837 89.0875 58.083C89.2435 58.2823 89.5339 58.382 89.9585 58.382H90.6475C90.7429 58.382 90.8252 58.4167 90.8945 58.486C90.9639 58.5553 90.9985 58.6377 90.9985 58.733V59.149C90.9985 59.2443 90.9639 59.3267 90.8945 59.396C90.8252 59.4653 90.7429 59.5 90.6475 59.5H89.8285C89.0919 59.5 88.5502 59.3093 88.2035 58.928C87.8569 58.538 87.6835 57.9703 87.6835 57.225V53.858H86.7215C86.6262 53.858 86.5439 53.8233 86.4745 53.754C86.4052 53.6847 86.3705 53.6023 86.3705 53.507V53.091C86.3705 52.9957 86.4052 52.9133 86.4745 52.844C86.5439 52.7747 86.6262 52.74 86.7215 52.74H87.6835V50.621C87.6835 50.5257 87.7182 50.4433 87.7875 50.374C87.8569 50.3047 87.9392 50.27 88.0345 50.27H88.5155C88.6109 50.27 88.6932 50.3047 88.7625 50.374C88.8319 50.4433 88.8665 50.5257 88.8665 50.621V52.74H90.5175C90.6129 52.74 90.6952 52.7747 90.7645 52.844C90.8339 52.9133 90.8685 52.9957 90.8685 53.091V53.507C90.8685 53.6023 90.8339 53.6847 90.7645 53.754C90.6952 53.8233 90.6129 53.858 90.5175 53.858H88.8665V57.225ZM98.1536 55.509C98.1709 55.6997 98.1796 55.9077 98.1796 56.133C98.1796 56.341 98.1709 56.5403 98.1536 56.731C98.0756 57.615 97.7679 58.3213 97.2306 58.85C96.7019 59.37 95.9826 59.63 95.0726 59.63C94.1626 59.63 93.4389 59.37 92.9016 58.85C92.3729 58.3213 92.0696 57.615 91.9916 56.731C91.9829 56.6357 91.9786 56.4363 91.9786 56.133C91.9786 55.8123 91.9829 55.6043 91.9916 55.509C92.0609 54.625 92.3643 53.923 92.9016 53.403C93.4389 52.8743 94.1626 52.61 95.0726 52.61C95.9826 52.61 96.7063 52.8743 97.2436 53.403C97.7809 53.923 98.0843 54.625 98.1536 55.509ZM96.9706 55.574C96.9186 55.0193 96.7323 54.573 96.4116 54.235C96.0996 53.897 95.6533 53.728 95.0726 53.728C94.4919 53.728 94.0413 53.897 93.7206 54.235C93.4086 54.573 93.2266 55.0193 93.1746 55.574C93.1659 55.678 93.1616 55.8643 93.1616 56.133C93.1616 56.393 93.1659 56.5707 93.1746 56.666C93.2266 57.2207 93.4086 57.667 93.7206 58.005C94.0413 58.343 94.4919 58.512 95.0726 58.512C95.6533 58.512 96.0996 58.343 96.4116 58.005C96.7323 57.667 96.9186 57.2207 96.9706 56.666C96.9879 56.4753 96.9966 56.2977 96.9966 56.133C96.9966 55.9683 96.9879 55.782 96.9706 55.574ZM30.9989 65.816C31.1376 65.5387 31.3282 65.4 31.5709 65.4H32.0649C32.1602 65.4 32.2426 65.4347 32.3119 65.504C32.3812 65.5733 32.4159 65.6557 32.4159 65.751V74.149C32.4159 74.2443 32.3812 74.3267 32.3119 74.396C32.2426 74.4653 32.1602 74.5 32.0649 74.5H31.5319C31.4366 74.5 31.3542 74.4653 31.2849 74.396C31.2156 74.3267 31.1809 74.2443 31.1809 74.149V67.987L29.1529 71.9C29.0836 72.0387 29.0056 72.1427 28.9189 72.212C28.8409 72.2813 28.7412 72.316 28.6199 72.316H28.1259C28.0046 72.316 27.9006 72.2813 27.8139 72.212C27.7359 72.1427 27.6622 72.0387 27.5929 71.9L25.5649 67.987V74.149C25.5649 74.2443 25.5302 74.3267 25.4609 74.396C25.3916 74.4653 25.3092 74.5 25.2139 74.5H24.6809C24.5856 74.5 24.5032 74.4653 24.4339 74.396C24.3646 74.3267 24.3299 74.2443 24.3299 74.149V65.751C24.3299 65.6557 24.3646 65.5733 24.4339 65.504C24.5032 65.4347 24.5856 65.4 24.6809 65.4H25.1749C25.4176 65.4 25.6082 65.5387 25.7469 65.816L28.3729 70.899L30.9989 65.816ZM38.5252 70.223V70.054C38.5252 69.6293 38.3822 69.3043 38.0962 69.079C37.8189 68.845 37.4549 68.728 37.0042 68.728C36.6575 68.728 36.3845 68.7887 36.1852 68.91C35.9945 69.0227 35.8125 69.196 35.6392 69.43C35.5872 69.4993 35.5309 69.547 35.4702 69.573C35.4095 69.599 35.3272 69.612 35.2232 69.612H34.8332C34.7379 69.612 34.6512 69.5773 34.5732 69.508C34.5039 69.4387 34.4735 69.3563 34.4822 69.261C34.5082 69.001 34.6339 68.7453 34.8592 68.494C35.0932 68.234 35.4009 68.0217 35.7822 67.857C36.1635 67.6923 36.5709 67.61 37.0042 67.61C37.8102 67.61 38.4602 67.8353 38.9542 68.286C39.4569 68.7367 39.7082 69.3693 39.7082 70.184V74.149C39.7082 74.2443 39.6735 74.3267 39.6042 74.396C39.5349 74.4653 39.4525 74.5 39.3572 74.5H38.8762C38.7809 74.5 38.6985 74.4653 38.6292 74.396C38.5599 74.3267 38.5252 74.2443 38.5252 74.149V73.616C38.3865 73.928 38.0919 74.175 37.6412 74.357C37.1905 74.539 36.7399 74.63 36.2892 74.63C35.8472 74.63 35.4529 74.552 35.1062 74.396C34.7595 74.2313 34.4909 74.0103 34.3002 73.733C34.1182 73.4557 34.0272 73.1437 34.0272 72.797C34.0272 72.147 34.2699 71.64 34.7552 71.276C35.2405 70.9033 35.8862 70.652 36.6922 70.522L38.5252 70.223ZM38.5252 71.263L36.9912 71.51C36.4279 71.5967 35.9902 71.7397 35.6782 71.939C35.3662 72.1297 35.2102 72.3723 35.2102 72.667C35.2102 72.8837 35.3099 73.0787 35.5092 73.252C35.7085 73.4253 36.0119 73.512 36.4192 73.512C37.0432 73.512 37.5502 73.3343 37.9402 72.979C38.3302 72.6237 38.5252 72.16 38.5252 71.588V71.263ZM43.3729 72.225C43.3729 72.5977 43.4465 72.8837 43.5939 73.083C43.7499 73.2823 44.0402 73.382 44.4649 73.382H45.1539C45.2492 73.382 45.3315 73.4167 45.4009 73.486C45.4702 73.5553 45.5049 73.6377 45.5049 73.733V74.149C45.5049 74.2443 45.4702 74.3267 45.4009 74.396C45.3315 74.4653 45.2492 74.5 45.1539 74.5H44.3349C43.5982 74.5 43.0565 74.3093 42.7099 73.928C42.3632 73.538 42.1899 72.9703 42.1899 72.225V68.858H41.2279C41.1325 68.858 41.0502 68.8233 40.9809 68.754C40.9115 68.6847 40.8769 68.6023 40.8769 68.507V68.091C40.8769 67.9957 40.9115 67.9133 40.9809 67.844C41.0502 67.7747 41.1325 67.74 41.2279 67.74H42.1899V65.621C42.1899 65.5257 42.2245 65.4433 42.2939 65.374C42.3632 65.3047 42.4455 65.27 42.5409 65.27H43.0219C43.1172 65.27 43.1995 65.3047 43.2689 65.374C43.3382 65.4433 43.3729 65.5257 43.3729 65.621V67.74H45.0239C45.1192 67.74 45.2015 67.7747 45.2709 67.844C45.3402 67.9133 45.3749 67.9957 45.3749 68.091V68.507C45.3749 68.6023 45.3402 68.6847 45.2709 68.754C45.2015 68.8233 45.1192 68.858 45.0239 68.858H43.3729V72.225ZM49.475 67.61C50.4023 67.61 51.1346 67.9047 51.672 68.494C52.2093 69.0833 52.478 69.885 52.478 70.899V71.25C52.478 71.3453 52.4433 71.4277 52.374 71.497C52.3046 71.5663 52.2223 71.601 52.127 71.601H47.655V71.679C47.6723 72.251 47.8456 72.7017 48.175 73.031C48.513 73.3517 48.9463 73.512 49.475 73.512C49.9083 73.512 50.242 73.4557 50.476 73.343C50.7186 73.2303 50.9353 73.07 51.126 72.862C51.1953 72.7927 51.256 72.745 51.308 72.719C51.3686 72.693 51.4466 72.68 51.542 72.68H51.932C52.036 72.68 52.1226 72.7147 52.192 72.784C52.2613 72.8533 52.2916 72.9357 52.283 73.031C52.2483 73.265 52.1183 73.5077 51.893 73.759C51.6763 74.0017 51.36 74.2097 50.944 74.383C50.5366 74.5477 50.047 74.63 49.475 74.63C48.9203 74.63 48.4263 74.5043 47.993 74.253C47.5596 73.993 47.213 73.6377 46.953 73.187C46.7016 72.7363 46.55 72.2293 46.498 71.666C46.4806 71.406 46.472 71.2067 46.472 71.068C46.472 70.9293 46.4806 70.73 46.498 70.47C46.55 69.9327 46.7016 69.4473 46.953 69.014C47.213 68.5807 47.5553 68.2383 47.98 67.987C48.4133 67.7357 48.9116 67.61 49.475 67.61ZM51.308 70.509V70.47C51.308 69.9413 51.139 69.521 50.801 69.209C50.4716 68.8883 50.0296 68.728 49.475 68.728C48.9723 68.728 48.5433 68.8883 48.188 69.209C47.8413 69.5297 47.6636 69.95 47.655 70.47V70.509H51.308ZM55.2293 68.494C55.4373 68.2253 55.6713 68.013 55.9313 67.857C56.1913 67.6923 56.538 67.61 56.9713 67.61C57.9853 67.61 58.696 67.987 59.1033 68.741C59.3546 68.377 59.6406 68.0997 59.9613 67.909C60.282 67.7097 60.7023 67.61 61.2223 67.61C62.0716 67.61 62.7 67.8657 63.1073 68.377C63.5233 68.8883 63.7313 69.612 63.7313 70.548V74.149C63.7313 74.2443 63.6966 74.3267 63.6273 74.396C63.558 74.4653 63.4756 74.5 63.3803 74.5H62.8993C62.804 74.5 62.7216 74.4653 62.6523 74.396C62.583 74.3267 62.5483 74.2443 62.5483 74.149V70.678C62.5483 69.378 62.037 68.728 61.0143 68.728C60.5463 68.728 60.1736 68.884 59.8963 69.196C59.619 69.508 59.4803 69.9717 59.4803 70.587V74.149C59.4803 74.2443 59.4456 74.3267 59.3763 74.396C59.307 74.4653 59.2246 74.5 59.1293 74.5H58.6483C58.553 74.5 58.4706 74.4653 58.4013 74.396C58.332 74.3267 58.2973 74.2443 58.2973 74.149V70.678C58.2973 69.378 57.786 68.728 56.7633 68.728C56.2953 68.728 55.9226 68.884 55.6453 69.196C55.368 69.508 55.2293 69.9717 55.2293 70.587V74.149C55.2293 74.2443 55.1946 74.3267 55.1253 74.396C55.056 74.4653 54.9736 74.5 54.8783 74.5H54.3973C54.302 74.5 54.2196 74.4653 54.1503 74.396C54.081 74.3267 54.0463 74.2443 54.0463 74.149V68.091C54.0463 67.9957 54.081 67.9133 54.1503 67.844C54.2196 67.7747 54.302 67.74 54.3973 67.74H54.8783C54.9736 67.74 55.056 67.7747 55.1253 67.844C55.1946 67.9133 55.2293 67.9957 55.2293 68.091V68.494ZM69.6287 70.223V70.054C69.6287 69.6293 69.4857 69.3043 69.1997 69.079C68.9224 68.845 68.5584 68.728 68.1077 68.728C67.7611 68.728 67.4881 68.7887 67.2887 68.91C67.0981 69.0227 66.9161 69.196 66.7427 69.43C66.6907 69.4993 66.6344 69.547 66.5737 69.573C66.5131 69.599 66.4307 69.612 66.3267 69.612H65.9367C65.8414 69.612 65.7547 69.5773 65.6767 69.508C65.6074 69.4387 65.5771 69.3563 65.5857 69.261C65.6117 69.001 65.7374 68.7453 65.9627 68.494C66.1967 68.234 66.5044 68.0217 66.8857 67.857C67.2671 67.6923 67.6744 67.61 68.1077 67.61C68.9137 67.61 69.5637 67.8353 70.0577 68.286C70.5604 68.7367 70.8117 69.3693 70.8117 70.184V74.149C70.8117 74.2443 70.7771 74.3267 70.7077 74.396C70.6384 74.4653 70.5561 74.5 70.4607 74.5H69.9797C69.8844 74.5 69.8021 74.4653 69.7327 74.396C69.6634 74.3267 69.6287 74.2443 69.6287 74.149V73.616C69.4901 73.928 69.1954 74.175 68.7447 74.357C68.2941 74.539 67.8434 74.63 67.3927 74.63C66.9507 74.63 66.5564 74.552 66.2097 74.396C65.8631 74.2313 65.5944 74.0103 65.4037 73.733C65.2217 73.4557 65.1307 73.1437 65.1307 72.797C65.1307 72.147 65.3734 71.64 65.8587 71.276C66.3441 70.9033 66.9897 70.652 67.7957 70.522L69.6287 70.223ZM69.6287 71.263L68.0947 71.51C67.5314 71.5967 67.0937 71.7397 66.7817 71.939C66.4697 72.1297 66.3137 72.3723 66.3137 72.667C66.3137 72.8837 66.4134 73.0787 66.6127 73.252C66.8121 73.4253 67.1154 73.512 67.5227 73.512C68.1467 73.512 68.6537 73.3343 69.0437 72.979C69.4337 72.6237 69.6287 72.16 69.6287 71.588V71.263ZM68.5107 65.192C68.6061 65.088 68.6841 65.023 68.7447 64.997C68.8054 64.9623 68.8877 64.945 68.9917 64.945H69.9537C70.0317 64.945 70.0924 64.971 70.1357 65.023C70.1791 65.0663 70.2007 65.127 70.2007 65.205C70.2007 65.2657 70.1791 65.3177 70.1357 65.361L68.6927 66.544C68.5974 66.622 68.5107 66.6783 68.4327 66.713C68.3634 66.7477 68.2681 66.765 68.1467 66.765H67.6657C67.5271 66.765 67.4577 66.6957 67.4577 66.557C67.4577 66.4877 67.4794 66.4313 67.5227 66.388L68.5107 65.192ZM74.4764 72.225C74.4764 72.5977 74.5501 72.8837 74.6974 73.083C74.8534 73.2823 75.1437 73.382 75.5684 73.382H76.2574C76.3527 73.382 76.4351 73.4167 76.5044 73.486C76.5737 73.5553 76.6084 73.6377 76.6084 73.733V74.149C76.6084 74.2443 76.5737 74.3267 76.5044 74.396C76.4351 74.4653 76.3527 74.5 76.2574 74.5H75.4384C74.7017 74.5 74.1601 74.3093 73.8134 73.928C73.4667 73.538 73.2934 72.9703 73.2934 72.225V68.858H72.3314C72.2361 68.858 72.1537 68.8233 72.0844 68.754C72.0151 68.6847 71.9804 68.6023 71.9804 68.507V68.091C71.9804 67.9957 72.0151 67.9133 72.0844 67.844C72.1537 67.7747 72.2361 67.74 72.3314 67.74H73.2934V65.621C73.2934 65.5257 73.3281 65.4433 73.3974 65.374C73.4667 65.3047 73.5491 65.27 73.6444 65.27H74.1254C74.2207 65.27 74.3031 65.3047 74.3724 65.374C74.4417 65.4433 74.4764 65.5257 74.4764 65.621V67.74H76.1274C76.2227 67.74 76.3051 67.7747 76.3744 67.844C76.4437 67.9133 76.4784 67.9957 76.4784 68.091V68.507C76.4784 68.6023 76.4437 68.6847 76.3744 68.754C76.3051 68.8233 76.2227 68.858 76.1274 68.858H74.4764V72.225ZM79.2265 66.362C79.2265 66.4573 79.1918 66.5397 79.1225 66.609C79.0531 66.6783 78.9708 66.713 78.8755 66.713H78.1345C78.0391 66.713 77.9568 66.6783 77.8875 66.609C77.8181 66.5397 77.7835 66.4573 77.7835 66.362V65.621C77.7835 65.5257 77.8181 65.4433 77.8875 65.374C77.9568 65.3047 78.0391 65.27 78.1345 65.27H78.8755C78.9708 65.27 79.0531 65.3047 79.1225 65.374C79.1918 65.4433 79.2265 65.5257 79.2265 65.621V66.362ZM79.0965 74.149C79.0965 74.2443 79.0618 74.3267 78.9925 74.396C78.9231 74.4653 78.8408 74.5 78.7455 74.5H78.2645C78.1691 74.5 78.0868 74.4653 78.0175 74.396C77.9481 74.3267 77.9135 74.2443 77.9135 74.149V68.091C77.9135 67.9957 77.9481 67.9133 78.0175 67.844C78.0868 67.7747 78.1691 67.74 78.2645 67.74H78.7455C78.8408 67.74 78.9231 67.7747 78.9925 67.844C79.0618 67.9133 79.0965 67.9957 79.0965 68.091V74.149ZM83.7792 73.512C84.6459 73.512 85.2309 73.174 85.5342 72.498C85.5949 72.368 85.6556 72.277 85.7162 72.225C85.7769 72.173 85.8592 72.147 85.9632 72.147H86.3532C86.4486 72.147 86.5309 72.1817 86.6002 72.251C86.6696 72.3117 86.7042 72.3853 86.7042 72.472C86.7042 72.7667 86.5872 73.083 86.3532 73.421C86.1192 73.759 85.7812 74.045 85.3392 74.279C84.8972 74.513 84.3772 74.63 83.7792 74.63C83.1639 74.63 82.6309 74.5 82.1802 74.24C81.7296 73.98 81.3829 73.6247 81.1402 73.174C80.8976 72.7147 80.7632 72.2033 80.7372 71.64C80.7286 71.536 80.7242 71.3367 80.7242 71.042C80.7242 70.834 80.7286 70.6867 80.7372 70.6C80.8152 69.716 81.1142 68.9967 81.6342 68.442C82.1542 67.8873 82.8692 67.61 83.7792 67.61C84.3772 67.61 84.8929 67.727 85.3262 67.961C85.7682 68.1863 86.1019 68.468 86.3272 68.806C86.5612 69.1353 86.6869 69.4473 86.7042 69.742C86.7129 69.8373 86.6782 69.9197 86.6002 69.989C86.5309 70.0583 86.4486 70.093 86.3532 70.093H85.9632C85.8592 70.093 85.7769 70.067 85.7162 70.015C85.6556 69.963 85.5949 69.872 85.5342 69.742C85.2309 69.066 84.6459 68.728 83.7792 68.728C83.3026 68.728 82.8866 68.8883 82.5312 69.209C82.1759 69.5297 81.9722 70.015 81.9202 70.665C81.9116 70.7603 81.9072 70.9163 81.9072 71.133C81.9072 71.3323 81.9116 71.4797 81.9202 71.575C81.9809 72.225 82.1846 72.7103 82.5312 73.031C82.8866 73.3517 83.3026 73.512 83.7792 73.512ZM94.1102 70.509C94.1275 70.6997 94.1362 70.9077 94.1362 71.133C94.1362 71.341 94.1275 71.5403 94.1102 71.731C94.0322 72.615 93.7245 73.3213 93.1872 73.85C92.6585 74.37 91.9392 74.63 91.0292 74.63C90.1192 74.63 89.3955 74.37 88.8582 73.85C88.3295 73.3213 88.0262 72.615 87.9482 71.731C87.9395 71.6357 87.9352 71.4363 87.9352 71.133C87.9352 70.8123 87.9395 70.6043 87.9482 70.509C88.0175 69.625 88.3208 68.923 88.8582 68.403C89.3955 67.8743 90.1192 67.61 91.0292 67.61C91.9392 67.61 92.6628 67.8743 93.2002 68.403C93.7375 68.923 94.0408 69.625 94.1102 70.509ZM92.9272 70.574C92.8752 70.0193 92.6888 69.573 92.3682 69.235C92.0562 68.897 91.6098 68.728 91.0292 68.728C90.4485 68.728 89.9978 68.897 89.6772 69.235C89.3652 69.573 89.1832 70.0193 89.1312 70.574C89.1225 70.678 89.1182 70.8643 89.1182 71.133C89.1182 71.393 89.1225 71.5707 89.1312 71.666C89.1832 72.2207 89.3652 72.667 89.6772 73.005C89.9978 73.343 90.4485 73.512 91.0292 73.512C91.6098 73.512 92.0562 73.343 92.3682 73.005C92.6888 72.667 92.8752 72.2207 92.9272 71.666C92.9445 71.4753 92.9532 71.2977 92.9532 71.133C92.9532 70.9683 92.9445 70.782 92.9272 70.574Z" fill="#171B22"/>
<rect x="40" y="81.5" width="38" height="25" rx="12.5" fill="#157525"/>
<path d="M57.1579 92.354C57.1766 92.6153 57.1859 93.0353 57.1859 93.614C57.1859 94.1833 57.1766 94.594 57.1579 94.846C57.0926 95.9567 56.7239 96.8667 56.0519 97.576C55.3892 98.2853 54.3952 98.64 53.0699 98.64C51.7446 98.64 50.7459 98.2853 50.0739 97.576C49.4112 96.8667 49.0472 95.9567 48.9819 94.846C48.9632 94.342 48.9539 93.9313 48.9539 93.614C48.9539 93.2967 48.9632 92.8767 48.9819 92.354C49.0472 91.2433 49.4112 90.3333 50.0739 89.624C50.7459 88.9147 51.7446 88.56 53.0699 88.56C54.3952 88.56 55.3892 88.9147 56.0519 89.624C56.7239 90.3333 57.0926 91.2433 57.1579 92.354ZM54.5679 92.424C54.5399 91.9107 54.4139 91.514 54.1899 91.234C53.9659 90.9447 53.5926 90.8 53.0699 90.8C52.5472 90.8 52.1739 90.9447 51.9499 91.234C51.7259 91.514 51.5999 91.9107 51.5719 92.424C51.5532 92.928 51.5439 93.3153 51.5439 93.586C51.5439 93.838 51.5532 94.2347 51.5719 94.776C51.5906 95.2893 51.7119 95.6907 51.9359 95.98C52.1692 96.26 52.5472 96.4 53.0699 96.4C53.5926 96.4 53.9659 96.26 54.1899 95.98C54.4232 95.6907 54.5492 95.2893 54.5679 94.776C54.5866 94.5053 54.5959 94.1087 54.5959 93.586C54.5959 93.0633 54.5866 92.676 54.5679 92.424ZM62.7646 91.682C62.7366 92.27 62.5359 92.7507 62.1626 93.124C61.7986 93.488 61.2666 93.67 60.5666 93.67C59.8666 93.67 59.3346 93.488 58.9706 93.124C58.6159 92.76 58.4152 92.2793 58.3686 91.682C58.3592 91.5607 58.3546 91.388 58.3546 91.164C58.3546 90.9307 58.3592 90.7487 58.3686 90.618C58.4152 90.0207 58.6159 89.54 58.9706 89.176C59.3346 88.812 59.8666 88.63 60.5666 88.63C61.2666 88.63 61.7939 88.812 62.1486 89.176C62.5126 89.54 62.7179 90.0207 62.7646 90.618C62.7832 90.8793 62.7926 91.0613 62.7926 91.164C62.7926 91.2667 62.7832 91.4393 62.7646 91.682ZM66.2646 88.966C66.3392 88.8727 66.4092 88.8073 66.4746 88.77C66.5492 88.7233 66.6472 88.7 66.7686 88.7H67.9166C68.0192 88.7 68.0986 88.728 68.1546 88.784C68.2199 88.8307 68.2526 88.896 68.2526 88.98C68.2526 89.036 68.2339 89.0873 68.1966 89.134L61.2806 98.234C61.2059 98.3273 61.1312 98.3973 61.0566 98.444C60.9912 98.4813 60.8979 98.5 60.7766 98.5H59.6286C59.5259 98.5 59.4419 98.4767 59.3766 98.43C59.3206 98.374 59.2926 98.304 59.2926 98.22C59.2926 98.164 59.3112 98.1127 59.3486 98.066L66.2646 88.966ZM60.5666 92.34C60.7626 92.34 60.9026 92.284 60.9866 92.172C61.0706 92.06 61.1219 91.8733 61.1406 91.612C61.1592 91.388 61.1686 91.234 61.1686 91.15C61.1686 91.0473 61.1592 90.8933 61.1406 90.688C61.1219 90.4267 61.0706 90.24 60.9866 90.128C60.9026 90.016 60.7626 89.96 60.5666 89.96C60.3706 89.96 60.2306 90.016 60.1466 90.128C60.0626 90.24 60.0112 90.4267 59.9926 90.688C59.9832 90.7907 59.9786 90.9447 59.9786 91.15C59.9786 91.346 59.9832 91.5 59.9926 91.612C60.0112 91.8733 60.0626 92.06 60.1466 92.172C60.2306 92.284 60.3706 92.34 60.5666 92.34ZM69.2606 96.582C69.2326 97.17 69.0319 97.6507 68.6586 98.024C68.2946 98.388 67.7626 98.57 67.0626 98.57C66.3626 98.57 65.8306 98.388 65.4666 98.024C65.1119 97.66 64.9112 97.1793 64.8646 96.582C64.8552 96.4607 64.8506 96.288 64.8506 96.064C64.8506 95.8307 64.8552 95.6487 64.8646 95.518C64.9112 94.9207 65.1119 94.44 65.4666 94.076C65.8306 93.712 66.3626 93.53 67.0626 93.53C67.7626 93.53 68.2899 93.712 68.6446 94.076C69.0086 94.44 69.2139 94.9207 69.2606 95.518C69.2792 95.7793 69.2886 95.9613 69.2886 96.064C69.2886 96.1667 69.2792 96.3393 69.2606 96.582ZM67.0626 97.24C67.2586 97.24 67.3986 97.184 67.4826 97.072C67.5666 96.96 67.6179 96.7733 67.6366 96.512C67.6552 96.288 67.6646 96.134 67.6646 96.05C67.6646 95.9473 67.6552 95.7933 67.6366 95.588C67.6179 95.3267 67.5666 95.14 67.4826 95.028C67.3986 94.916 67.2586 94.86 67.0626 94.86C66.8666 94.86 66.7266 94.916 66.6426 95.028C66.5586 95.14 66.5072 95.3267 66.4886 95.588C66.4792 95.6907 66.4746 95.8447 66.4746 96.05C66.4746 96.246 66.4792 96.4 66.4886 96.512C66.5072 96.7733 66.5586 96.96 66.6426 97.072C66.7266 97.184 66.8666 97.24 67.0626 97.24Z" fill="white"/>
<g filter="url(#filter0_d_34428_7953)">
<rect x="88" y="14" width="32" height="32" rx="16" fill="white"/>
<rect x="87" y="13" width="34" height="34" rx="17" stroke="#1DA534" stroke-width="2"/>
<path opacity="0.4" d="M104 40C109.523 40 114 35.5228 114 30C114 24.4772 109.523 20 104 20C98.4772 20 94 24.4772 94 30C94 35.5228 98.4772 40 104 40Z" fill="#1DA534"/>
<path d="M102.579 33.5796C102.379 33.5796 102.189 33.4996 102.049 33.3596L99.2195 30.5296C98.9295 30.2396 98.9295 29.7596 99.2195 29.4696C99.5095 29.1796 99.9895 29.1796 100.279 29.4696L102.579 31.7696L107.719 26.6296C108.009 26.3396 108.489 26.3396 108.779 26.6296C109.069 26.9196 109.069 27.3996 108.779 27.6896L103.109 33.3596C102.969 33.4996 102.779 33.5796 102.579 33.5796Z" fill="#1DA534"/>
</g>
<defs>
<filter id="filter0_d_34428_7953" x="71" y="5" width="66" height="66" filterUnits="userSpaceOnUse" color-interpolation-filters="sRGB">
<feFlood flood-opacity="0" result="BackgroundImageFix"/>
<feColorMatrix in="SourceAlpha" type="matrix" values="0 0 0 0 0 0 0 0 0 0 0 0 0 0 0 0 0 0 127 0" result="hardAlpha"/>
<feOffset dy="8"/>
<feGaussianBlur stdDeviation="7.5"/>
<feColorMatrix type="matrix" values="0 0 0 0 0 0 0 0 0 0 0 0 0 0 0 0 0 0 0.25 0"/>
<feBlend mode="normal" in2="BackgroundImageFix" result="effect1_dropShadow_34428_7953"/>
<feBlend mode="normal" in="SourceGraphic" in2="effect1_dropShadow_34428_7953" result="shape"/>
</filter>
<clipPath id="clip0_34428_7953">
<rect width="32" height="32" fill="white" transform="translate(43 11.5)"/>
</clipPath>
<clipPath id="clip1_34428_7953">
<rect width="32" height="32" fill="white" transform="translate(43.666 11.5)"/>
</clipPath>
</defs>
</svg>
