<svg width="137" height="118" viewBox="0 0 137 118" fill="none" xmlns="http://www.w3.org/2000/svg">
<rect x="2" y="2" width="114" height="114" rx="57" fill="white"/>
<rect x="2" y="2" width="114" height="114" rx="57" stroke="#DEE2E6" stroke-width="4"/>
<g clip-path="url(#clip0_15958_19570)">
<mask id="mask0_15958_19570" style="mask-type:luminance" maskUnits="userSpaceOnUse" x="43" y="19" width="32" height="32">
<path d="M75 19H43V51H75V19Z" fill="white"/>
</mask>
<g mask="url(#mask0_15958_19570)">
<path d="M45.6803 49.3333C45.4269 49.3333 45.1736 49.2399 44.9736 49.0399C44.5869 48.6533 44.5869 48.0133 44.9736 47.6266L64.2269 28.3733C64.6136 27.9866 65.2536 27.9866 65.6403 28.3733C66.0269 28.7599 66.0269 29.3999 65.6403 29.7866L46.3869 49.0399C46.1869 49.2399 45.9336 49.3333 45.6803 49.3333Z" fill="#DC6A2C"/>
<g opacity="0.4">
<path d="M51.4125 32.2134L59.8258 23.8268C62.6924 20.9734 67.3191 20.9734 70.1858 23.8268C73.0524 26.6934 73.0524 31.3334 70.1858 34.2L61.7858 42.5867C60.9591 43.4134 59.8258 43.88 58.6524 43.88H50.1191V35.36C50.1191 34.1734 50.5858 33.0534 51.4258 32.2134H51.4125Z" fill="#DC6A2C"/>
</g>
</g>
</g>
<path d="M30.5897 67C30.4943 67 30.4207 66.974 30.3687 66.922C30.3167 66.8613 30.2907 66.7877 30.2907 66.701V58.199C30.2907 58.1123 30.3167 58.043 30.3687 57.991C30.4207 57.9303 30.4943 57.9 30.5897 57.9H31.2787C31.3653 57.9 31.4347 57.9303 31.4867 57.991C31.5387 58.043 31.5647 58.1123 31.5647 58.199V65.869H35.8937C35.989 65.869 36.0627 65.8993 36.1147 65.96C36.1667 66.012 36.1927 66.0857 36.1927 66.181V66.701C36.1927 66.7877 36.1667 66.8613 36.1147 66.922C36.0627 66.974 35.989 67 35.8937 67H30.5897ZM37.7459 67C37.6592 67 37.5855 66.974 37.5249 66.922C37.4729 66.8613 37.4469 66.7877 37.4469 66.701V60.539C37.4469 60.4523 37.4729 60.383 37.5249 60.331C37.5855 60.2703 37.6592 60.24 37.7459 60.24H38.3699C38.4565 60.24 38.5259 60.2703 38.5779 60.331C38.6299 60.383 38.6559 60.4523 38.6559 60.539V66.701C38.6559 66.7877 38.6299 66.8613 38.5779 66.922C38.5259 66.974 38.4565 67 38.3699 67H37.7459ZM37.6419 58.979C37.5552 58.979 37.4815 58.953 37.4209 58.901C37.3689 58.8403 37.3429 58.7667 37.3429 58.68V57.978C37.3429 57.8913 37.3689 57.822 37.4209 57.77C37.4815 57.7093 37.5552 57.679 37.6419 57.679H38.4609C38.5475 57.679 38.6169 57.7093 38.6689 57.77C38.7295 57.822 38.7599 57.8913 38.7599 57.978V58.68C38.7599 58.7667 38.7295 58.8403 38.6689 58.901C38.6169 58.953 38.5475 58.979 38.4609 58.979H37.6419ZM43.2343 67C42.749 67 42.3546 66.909 42.0513 66.727C41.748 66.5363 41.527 66.272 41.3883 65.934C41.2496 65.5873 41.1803 65.18 41.1803 64.712V61.28H40.1663C40.0796 61.28 40.006 61.254 39.9453 61.202C39.8933 61.1413 39.8673 61.0677 39.8673 60.981V60.539C39.8673 60.4523 39.8933 60.383 39.9453 60.331C40.006 60.2703 40.0796 60.24 40.1663 60.24H41.1803V58.069C41.1803 57.9823 41.2063 57.913 41.2583 57.861C41.319 57.8003 41.3926 57.77 41.4793 57.77H42.0903C42.177 57.77 42.2463 57.8003 42.2983 57.861C42.359 57.913 42.3893 57.9823 42.3893 58.069V60.24H44.0013C44.088 60.24 44.1573 60.2703 44.2093 60.331C44.27 60.383 44.3003 60.4523 44.3003 60.539V60.981C44.3003 61.0677 44.27 61.1413 44.2093 61.202C44.1573 61.254 44.088 61.28 44.0013 61.28H42.3893V64.621C42.3893 65.0283 42.4586 65.349 42.5973 65.583C42.736 65.817 42.983 65.934 43.3383 65.934H44.1313C44.218 65.934 44.2873 65.9643 44.3393 66.025C44.4 66.077 44.4303 66.1463 44.4303 66.233V66.701C44.4303 66.7877 44.4 66.8613 44.3393 66.922C44.2873 66.974 44.218 67 44.1313 67H43.2343ZM48.3644 67.13C47.4718 67.13 46.7611 66.857 46.2324 66.311C45.7038 65.7563 45.4134 65.0023 45.3614 64.049C45.3528 63.9363 45.3484 63.7933 45.3484 63.62C45.3484 63.438 45.3528 63.2907 45.3614 63.178C45.3961 62.5627 45.5391 62.0253 45.7904 61.566C46.0418 61.098 46.3841 60.7383 46.8174 60.487C47.2594 60.2357 47.7751 60.11 48.3644 60.11C49.0231 60.11 49.5734 60.2487 50.0154 60.526C50.4661 60.8033 50.8084 61.1977 51.0424 61.709C51.2764 62.2203 51.3934 62.8183 51.3934 63.503V63.724C51.3934 63.8193 51.3631 63.893 51.3024 63.945C51.2504 63.997 51.1811 64.023 51.0944 64.023H46.5964C46.5964 64.0317 46.5964 64.049 46.5964 64.075C46.5964 64.101 46.5964 64.1227 46.5964 64.14C46.6138 64.4953 46.6918 64.829 46.8304 65.141C46.9691 65.4443 47.1684 65.6913 47.4284 65.882C47.6884 66.0727 48.0004 66.168 48.3644 66.168C48.6764 66.168 48.9364 66.1203 49.1444 66.025C49.3524 65.9297 49.5214 65.8257 49.6514 65.713C49.7814 65.5917 49.8681 65.5007 49.9114 65.44C49.9894 65.3273 50.0501 65.2623 50.0934 65.245C50.1368 65.219 50.2061 65.206 50.3014 65.206H50.9254C51.0121 65.206 51.0814 65.232 51.1334 65.284C51.1941 65.3273 51.2201 65.3923 51.2114 65.479C51.2028 65.609 51.1334 65.7693 51.0034 65.96C50.8734 66.142 50.6871 66.324 50.4444 66.506C50.2018 66.688 49.9071 66.8397 49.5604 66.961C49.2138 67.0737 48.8151 67.13 48.3644 67.13ZM46.5964 63.126H50.1584V63.087C50.1584 62.697 50.0848 62.3503 49.9374 62.047C49.7988 61.7437 49.5951 61.5053 49.3264 61.332C49.0578 61.15 48.7371 61.059 48.3644 61.059C47.9918 61.059 47.6711 61.15 47.4024 61.332C47.1424 61.5053 46.9431 61.7437 46.8044 62.047C46.6658 62.3503 46.5964 62.697 46.5964 63.087V63.126ZM53.2468 67C53.1602 67 53.0865 66.974 53.0258 66.922C52.9738 66.8613 52.9478 66.7877 52.9478 66.701V60.552C52.9478 60.4653 52.9738 60.3917 53.0258 60.331C53.0865 60.2703 53.1602 60.24 53.2468 60.24H53.8448C53.9315 60.24 54.0052 60.2703 54.0658 60.331C54.1265 60.3917 54.1568 60.4653 54.1568 60.552V61.124C54.3302 60.8293 54.5685 60.6083 54.8718 60.461C55.1752 60.3137 55.5392 60.24 55.9638 60.24H56.4838C56.5705 60.24 56.6398 60.2703 56.6918 60.331C56.7438 60.383 56.7698 60.4523 56.7698 60.539V61.072C56.7698 61.1587 56.7438 61.228 56.6918 61.28C56.6398 61.332 56.5705 61.358 56.4838 61.358H55.7038C55.2358 61.358 54.8675 61.4967 54.5988 61.774C54.3302 62.0427 54.1958 62.411 54.1958 62.879V66.701C54.1958 66.7877 54.1655 66.8613 54.1048 66.922C54.0442 66.974 53.9705 67 53.8838 67H53.2468ZM59.6698 67.13C59.2364 67.13 58.8421 67.0433 58.4868 66.87C58.1314 66.6967 57.8454 66.4627 57.6288 66.168C57.4121 65.8733 57.3038 65.5397 57.3038 65.167C57.3038 64.569 57.5464 64.0923 58.0318 63.737C58.5171 63.3817 59.1498 63.1477 59.9298 63.035L61.8668 62.762V62.385C61.8668 61.969 61.7454 61.644 61.5028 61.41C61.2688 61.176 60.8831 61.059 60.3458 61.059C59.9558 61.059 59.6394 61.137 59.3968 61.293C59.1628 61.449 58.9981 61.6483 58.9028 61.891C58.8508 62.021 58.7598 62.086 58.6298 62.086H58.0448C57.9494 62.086 57.8758 62.06 57.8238 62.008C57.7804 61.9473 57.7588 61.878 57.7588 61.8C57.7588 61.67 57.8064 61.5097 57.9018 61.319C58.0058 61.1283 58.1618 60.942 58.3698 60.76C58.5778 60.578 58.8421 60.4263 59.1628 60.305C59.4921 60.175 59.8908 60.11 60.3588 60.11C60.8788 60.11 61.3164 60.1793 61.6718 60.318C62.0271 60.448 62.3044 60.6257 62.5038 60.851C62.7118 61.0763 62.8591 61.332 62.9458 61.618C63.0411 61.904 63.0888 62.1943 63.0888 62.489V66.701C63.0888 66.7877 63.0584 66.8613 62.9978 66.922C62.9458 66.974 62.8764 67 62.7898 67H62.1918C62.0964 67 62.0228 66.974 61.9708 66.922C61.9188 66.8613 61.8928 66.7877 61.8928 66.701V66.142C61.7801 66.298 61.6284 66.454 61.4378 66.61C61.2471 66.7573 61.0088 66.883 60.7228 66.987C60.4368 67.0823 60.0858 67.13 59.6698 67.13ZM59.9428 66.155C60.2981 66.155 60.6231 66.0813 60.9178 65.934C61.2124 65.778 61.4421 65.5397 61.6068 65.219C61.7801 64.8983 61.8668 64.4953 61.8668 64.01V63.646L60.3588 63.867C59.7434 63.9537 59.2798 64.101 58.9678 64.309C58.6558 64.5083 58.4998 64.764 58.4998 65.076C58.4998 65.3187 58.5691 65.5223 58.7078 65.687C58.8551 65.843 59.0371 65.96 59.2538 66.038C59.4791 66.116 59.7088 66.155 59.9428 66.155ZM67.5331 67C67.0478 67 66.6535 66.909 66.3501 66.727C66.0468 66.5363 65.8258 66.272 65.6871 65.934C65.5485 65.5873 65.4791 65.18 65.4791 64.712V61.28H64.4651C64.3785 61.28 64.3048 61.254 64.2441 61.202C64.1921 61.1413 64.1661 61.0677 64.1661 60.981V60.539C64.1661 60.4523 64.1921 60.383 64.2441 60.331C64.3048 60.2703 64.3785 60.24 64.4651 60.24H65.4791V58.069C65.4791 57.9823 65.5051 57.913 65.5571 57.861C65.6178 57.8003 65.6915 57.77 65.7781 57.77H66.3891C66.4758 57.77 66.5451 57.8003 66.5971 57.861C66.6578 57.913 66.6881 57.9823 66.6881 58.069V60.24H68.3001C68.3868 60.24 68.4561 60.2703 68.5081 60.331C68.5688 60.383 68.5991 60.4523 68.5991 60.539V60.981C68.5991 61.0677 68.5688 61.1413 68.5081 61.202C68.4561 61.254 68.3868 61.28 68.3001 61.28H66.6881V64.621C66.6881 65.0283 66.7575 65.349 66.8961 65.583C67.0348 65.817 67.2818 65.934 67.6371 65.934H68.4301C68.5168 65.934 68.5861 65.9643 68.6381 66.025C68.6988 66.077 68.7291 66.1463 68.7291 66.233V66.701C68.7291 66.7877 68.6988 66.8613 68.6381 66.922C68.5861 66.974 68.5168 67 68.4301 67H67.5331ZM72.4943 67.13C71.9396 67.13 71.4673 67.0087 71.0773 66.766C70.6959 66.5147 70.4056 66.168 70.2063 65.726C70.0069 65.284 69.9073 64.777 69.9073 64.205V60.539C69.9073 60.4523 69.9333 60.383 69.9853 60.331C70.0459 60.2703 70.1196 60.24 70.2063 60.24H70.8563C70.9429 60.24 71.0123 60.2703 71.0643 60.331C71.1249 60.383 71.1553 60.4523 71.1553 60.539V64.14C71.1553 65.4313 71.7186 66.077 72.8453 66.077C73.3826 66.077 73.8116 65.908 74.1323 65.57C74.4616 65.2233 74.6263 64.7467 74.6263 64.14V60.539C74.6263 60.4523 74.6523 60.383 74.7043 60.331C74.7649 60.2703 74.8386 60.24 74.9253 60.24H75.5623C75.6576 60.24 75.7313 60.2703 75.7833 60.331C75.8353 60.383 75.8613 60.4523 75.8613 60.539V66.701C75.8613 66.7877 75.8353 66.8613 75.7833 66.922C75.7313 66.974 75.6576 67 75.5623 67H74.9643C74.8776 67 74.8039 66.974 74.7433 66.922C74.6913 66.8613 74.6653 66.7877 74.6653 66.701V66.129C74.4313 66.4323 74.1453 66.675 73.8073 66.857C73.4779 67.039 73.0403 67.13 72.4943 67.13ZM78.0916 67C78.0049 67 77.9312 66.974 77.8706 66.922C77.8186 66.8613 77.7926 66.7877 77.7926 66.701V60.552C77.7926 60.4653 77.8186 60.3917 77.8706 60.331C77.9312 60.2703 78.0049 60.24 78.0916 60.24H78.6896C78.7762 60.24 78.8499 60.2703 78.9106 60.331C78.9712 60.3917 79.0016 60.4653 79.0016 60.552V61.124C79.1749 60.8293 79.4132 60.6083 79.7166 60.461C80.0199 60.3137 80.3839 60.24 80.8086 60.24H81.3286C81.4152 60.24 81.4846 60.2703 81.5366 60.331C81.5886 60.383 81.6146 60.4523 81.6146 60.539V61.072C81.6146 61.1587 81.5886 61.228 81.5366 61.28C81.4846 61.332 81.4152 61.358 81.3286 61.358H80.5486C80.0806 61.358 79.7122 61.4967 79.4436 61.774C79.1749 62.0427 79.0406 62.411 79.0406 62.879V66.701C79.0406 66.7877 79.0102 66.8613 78.9496 66.922C78.8889 66.974 78.8152 67 78.7286 67H78.0916ZM84.5145 67.13C84.0811 67.13 83.6868 67.0433 83.3315 66.87C82.9761 66.6967 82.6901 66.4627 82.4735 66.168C82.2568 65.8733 82.1485 65.5397 82.1485 65.167C82.1485 64.569 82.3911 64.0923 82.8765 63.737C83.3618 63.3817 83.9945 63.1477 84.7745 63.035L86.7115 62.762V62.385C86.7115 61.969 86.5901 61.644 86.3475 61.41C86.1135 61.176 85.7278 61.059 85.1905 61.059C84.8005 61.059 84.4841 61.137 84.2415 61.293C84.0075 61.449 83.8428 61.6483 83.7475 61.891C83.6955 62.021 83.6045 62.086 83.4745 62.086H82.8895C82.7941 62.086 82.7205 62.06 82.6685 62.008C82.6251 61.9473 82.6035 61.878 82.6035 61.8C82.6035 61.67 82.6511 61.5097 82.7465 61.319C82.8505 61.1283 83.0065 60.942 83.2145 60.76C83.4225 60.578 83.6868 60.4263 84.0075 60.305C84.3368 60.175 84.7355 60.11 85.2035 60.11C85.7235 60.11 86.1611 60.1793 86.5165 60.318C86.8718 60.448 87.1491 60.6257 87.3485 60.851C87.5565 61.0763 87.7038 61.332 87.7905 61.618C87.8858 61.904 87.9335 62.1943 87.9335 62.489V66.701C87.9335 66.7877 87.9031 66.8613 87.8425 66.922C87.7905 66.974 87.7211 67 87.6345 67H87.0365C86.9411 67 86.8675 66.974 86.8155 66.922C86.7635 66.8613 86.7375 66.7877 86.7375 66.701V66.142C86.6248 66.298 86.4731 66.454 86.2825 66.61C86.0918 66.7573 85.8535 66.883 85.5675 66.987C85.2815 67.0823 84.9305 67.13 84.5145 67.13ZM84.7875 66.155C85.1428 66.155 85.4678 66.0813 85.7625 65.934C86.0571 65.778 86.2868 65.5397 86.4515 65.219C86.6248 64.8983 86.7115 64.4953 86.7115 64.01V63.646L85.2035 63.867C84.5881 63.9537 84.1245 64.101 83.8125 64.309C83.5005 64.5083 83.3445 64.764 83.3445 65.076C83.3445 65.3187 83.4138 65.5223 83.5525 65.687C83.6998 65.843 83.8818 65.96 84.0985 66.038C84.3238 66.116 84.5535 66.155 84.7875 66.155Z" fill="#171B22"/>
<rect x="40.5" y="74" width="37" height="25" rx="12.5" fill="#DC6A2C"/>
<path d="M53.3417 91.14C52.6697 91.14 52.0864 91.0467 51.5917 90.86C51.097 90.664 50.6864 90.398 50.3597 90.062C50.0424 89.726 49.7997 89.334 49.6317 88.886C49.4637 88.438 49.3657 87.9573 49.3377 87.444C49.3284 87.192 49.319 86.9073 49.3097 86.59C49.3097 86.2633 49.3097 85.9367 49.3097 85.61C49.319 85.274 49.3284 84.9753 49.3377 84.714C49.3657 84.2007 49.4637 83.7247 49.6317 83.286C49.809 82.838 50.061 82.4507 50.3877 82.124C50.7237 81.788 51.1344 81.5267 51.6197 81.34C52.1144 81.1533 52.6884 81.06 53.3417 81.06C54.0044 81.06 54.5784 81.1533 55.0637 81.34C55.549 81.5267 55.955 81.788 56.2817 82.124C56.6177 82.4507 56.8744 82.838 57.0517 83.286C57.229 83.7247 57.327 84.2007 57.3457 84.714C57.3644 84.9753 57.3737 85.274 57.3737 85.61C57.383 85.9367 57.383 86.2633 57.3737 86.59C57.3737 86.9073 57.3644 87.192 57.3457 87.444C57.327 87.9573 57.229 88.438 57.0517 88.886C56.8837 89.334 56.6364 89.726 56.3097 90.062C55.9924 90.398 55.5864 90.664 55.0917 90.86C54.6064 91.0467 54.023 91.14 53.3417 91.14ZM53.3417 89.11C53.827 89.11 54.177 88.956 54.3917 88.648C54.6157 88.3307 54.7324 87.906 54.7417 87.374C54.7604 87.1033 54.7697 86.8187 54.7697 86.52C54.779 86.2213 54.779 85.9227 54.7697 85.624C54.7697 85.3253 54.7604 85.05 54.7417 84.798C54.7324 84.2847 54.6157 83.8693 54.3917 83.552C54.177 83.2347 53.827 83.0713 53.3417 83.062C52.8564 83.0713 52.5064 83.2347 52.2917 83.552C52.077 83.8693 51.9604 84.2847 51.9417 84.798C51.9324 85.05 51.923 85.3253 51.9137 85.624C51.9137 85.9227 51.9137 86.2213 51.9137 86.52C51.923 86.8187 51.9324 87.1033 51.9417 87.374C51.9604 87.906 52.0817 88.3307 52.3057 88.648C52.5297 88.956 52.875 89.11 53.3417 89.11ZM59.6793 91C59.4647 91 59.3573 90.9067 59.3573 90.72C59.3573 90.664 59.376 90.6127 59.4133 90.566L66.3293 81.466C66.3947 81.382 66.46 81.3167 66.5253 81.27C66.5907 81.2233 66.6887 81.2 66.8193 81.2H67.8133C68.028 81.2 68.1353 81.2933 68.1353 81.48C68.1353 81.536 68.1167 81.5873 68.0793 81.634L61.1633 90.734C61.098 90.818 61.0327 90.8833 60.9673 90.93C60.902 90.9767 60.804 91 60.6733 91H59.6793ZM66.7213 91.07C66.0867 91.07 65.578 90.902 65.1953 90.566C64.822 90.23 64.612 89.782 64.5653 89.222C64.556 88.9793 64.5513 88.7647 64.5513 88.578C64.5513 88.3913 64.556 88.1673 64.5653 87.906C64.6027 87.3367 64.8033 86.884 65.1673 86.548C65.5407 86.2027 66.0587 86.03 66.7213 86.03C67.3933 86.03 67.9113 86.2027 68.2753 86.548C68.6393 86.884 68.84 87.3367 68.8773 87.906C68.896 88.1673 68.9053 88.3913 68.9053 88.578C68.9053 88.7647 68.896 88.9793 68.8773 89.222C68.84 89.782 68.63 90.23 68.2473 90.566C67.8647 90.902 67.356 91.07 66.7213 91.07ZM66.7213 89.838C66.88 89.838 67.0013 89.8053 67.0853 89.74C67.1787 89.6747 67.2487 89.5907 67.2953 89.488C67.342 89.376 67.3653 89.2593 67.3653 89.138C67.384 88.9233 67.3933 88.7273 67.3933 88.55C67.3933 88.3727 67.384 88.1813 67.3653 87.976C67.356 87.7987 67.3047 87.64 67.2113 87.5C67.118 87.3507 66.9547 87.276 66.7213 87.276C66.488 87.276 66.3247 87.3507 66.2313 87.5C66.138 87.64 66.0867 87.7987 66.0773 87.976C66.068 88.1813 66.0633 88.3727 66.0633 88.55C66.0633 88.7273 66.068 88.9233 66.0773 89.138C66.0867 89.2593 66.11 89.376 66.1473 89.488C66.194 89.5907 66.264 89.6747 66.3573 89.74C66.4507 89.8053 66.572 89.838 66.7213 89.838ZM60.7993 86.142C60.1553 86.142 59.642 85.9787 59.2593 85.652C58.886 85.316 58.6807 84.868 58.6433 84.308C58.6247 84.0653 58.6153 83.8553 58.6153 83.678C58.6247 83.4913 58.634 83.2673 58.6433 83.006C58.6713 82.4367 58.8673 81.984 59.2313 81.648C59.6047 81.3027 60.1273 81.13 60.7993 81.13C61.4713 81.13 61.9893 81.3027 62.3533 81.648C62.7173 81.984 62.9133 82.4367 62.9413 83.006C62.96 83.2673 62.9693 83.4913 62.9693 83.678C62.9693 83.8553 62.96 84.0653 62.9413 84.308C62.9133 84.868 62.708 85.316 62.3253 85.652C61.9427 85.9787 61.434 86.142 60.7993 86.142ZM60.7993 84.938C60.9487 84.938 61.07 84.9053 61.1633 84.84C61.2567 84.7653 61.3267 84.6767 61.3733 84.574C61.42 84.462 61.4433 84.35 61.4433 84.238C61.462 84.0233 61.4713 83.8273 61.4713 83.65C61.4713 83.4727 61.462 83.2813 61.4433 83.076C61.434 82.8987 61.378 82.74 61.2753 82.6C61.182 82.4507 61.0233 82.376 60.7993 82.376C60.566 82.376 60.398 82.4507 60.2953 82.6C60.202 82.74 60.1507 82.8987 60.1413 83.076C60.132 83.2813 60.1273 83.4727 60.1273 83.65C60.1273 83.8273 60.132 84.0233 60.1413 84.238C60.1507 84.35 60.174 84.462 60.2113 84.574C60.258 84.6767 60.328 84.7653 60.4213 84.84C60.5147 84.9053 60.6407 84.938 60.7993 84.938Z" fill="white"/>
<g filter="url(#filter0_d_15958_19570)">
<rect x="88" y="14" width="32" height="32" rx="16" fill="white"/>
<rect x="87" y="13" width="34" height="34" rx="17" stroke="#1DA534" stroke-width="2"/>
<path opacity="0.4" d="M103.999 32.8401C104.485 32.8401 104.879 33.234 104.879 33.72C104.879 34.206 104.485 34.5999 103.999 34.5999C103.513 34.5998 103.119 34.2059 103.119 33.72C103.119 33.2341 103.513 32.8402 103.999 32.8401Z" fill="#1DA534" stroke="#1DA534" stroke-width="1.5"/>
<path d="M99.3496 28.1899H108.65C110.674 28.19 111.735 28.5109 112.332 29.1079C112.929 29.7049 113.25 30.7662 113.25 32.7896V34.6499C113.25 36.6735 112.929 37.7355 112.332 38.3325C111.735 38.9294 110.673 39.2495 108.65 39.2495H99.3496C97.3266 39.2495 96.265 38.9294 95.668 38.3325C95.0709 37.7355 94.75 36.6735 94.75 34.6499V32.7896C94.75 30.7662 95.0709 29.7049 95.668 29.1079C96.265 28.5109 97.3263 28.19 99.3496 28.1899ZM104 29.9497C101.914 29.9497 100.23 31.6476 100.23 33.7202C100.231 35.7927 101.914 37.4897 104 37.4897C106.086 37.4897 107.769 35.7927 107.77 33.7202C107.77 31.6476 106.086 29.9497 104 29.9497Z" fill="#1DA534" stroke="#1DA534" stroke-width="1.5"/>
<g opacity="0.4">
<mask id="path-12-inside-1_15958_19570" fill="white">
<path d="M99.1207 27.45V26.28C99.1207 23.35 99.9507 21.4 104.001 21.4C108.051 21.4 108.881 23.35 108.881 26.28V27.45C109.391 27.46 109.851 27.48 110.281 27.54V26.28C110.281 23.58 109.631 20 104.001 20C98.3707 20 97.7207 23.58 97.7207 26.28V27.53C98.1407 27.48 98.6107 27.45 99.1207 27.45Z"/>
</mask>
<path d="M99.1207 27.45V26.28C99.1207 23.35 99.9507 21.4 104.001 21.4C108.051 21.4 108.881 23.35 108.881 26.28V27.45C109.391 27.46 109.851 27.48 110.281 27.54V26.28C110.281 23.58 109.631 20 104.001 20C98.3707 20 97.7207 23.58 97.7207 26.28V27.53C98.1407 27.48 98.6107 27.45 99.1207 27.45Z" fill="#1DA534"/>
<path d="M99.1207 27.45V28.95H100.621V27.45H99.1207ZM108.881 27.45H107.381V28.9209L108.851 28.9497L108.881 27.45ZM110.281 27.54L110.073 29.0256L111.781 29.2638V27.54H110.281ZM110.281 26.28H108.781H110.281ZM97.7207 27.53H96.2207V29.2192L97.898 29.0195L97.7207 27.53ZM99.1207 27.45H100.621V26.28H99.1207H97.6207V27.45H99.1207ZM99.1207 26.28H100.621C100.621 24.8831 100.837 24.1294 101.193 23.7033C101.498 23.3385 102.182 22.9 104.001 22.9V21.4V19.9C101.769 19.9 100.014 20.4365 98.8911 21.7792C97.8198 23.0606 97.6207 24.7469 97.6207 26.28H99.1207ZM104.001 21.4V22.9C105.819 22.9 106.504 23.3385 106.809 23.7033C107.165 24.1294 107.381 24.8831 107.381 26.28H108.881H110.381C110.381 24.7469 110.182 23.0606 109.11 21.7792C107.988 20.4365 106.232 19.9 104.001 19.9V21.4ZM108.881 26.28H107.381V27.45H108.881H110.381V26.28H108.881ZM108.881 27.45L108.851 28.9497C109.349 28.9595 109.735 28.9785 110.073 29.0256L110.281 27.54L110.488 26.0544C109.966 25.9815 109.433 25.9605 108.91 25.9503L108.881 27.45ZM110.281 27.54H111.781V26.28H110.281H108.781V27.54H110.281ZM110.281 26.28H111.781C111.781 24.8668 111.625 22.8955 110.479 21.265C109.257 19.5254 107.156 18.5 104.001 18.5V20V21.5C106.475 21.5 107.515 22.2646 108.025 22.99C108.611 23.8245 108.781 24.9932 108.781 26.28H110.281ZM104.001 20V18.5C100.845 18.5 98.7449 19.5254 97.5222 21.265C96.3762 22.8955 96.2207 24.8668 96.2207 26.28H97.7207H99.2207C99.2207 24.9932 99.3902 23.8245 99.9767 22.99C100.487 22.2646 101.526 21.5 104.001 21.5V20ZM97.7207 26.28H96.2207V27.53H97.7207H99.2207V26.28H97.7207ZM97.7207 27.53L97.898 29.0195C98.2582 28.9766 98.669 28.95 99.1207 28.95V27.45V25.95C98.5524 25.95 98.0232 25.9834 97.5434 26.0405L97.7207 27.53Z" fill="#1DA534" mask="url(#path-12-inside-1_15958_19570)"/>
</g>
</g>
<defs>
<filter id="filter0_d_15958_19570" x="71" y="5" width="66" height="66" filterUnits="userSpaceOnUse" color-interpolation-filters="sRGB">
<feFlood flood-opacity="0" result="BackgroundImageFix"/>
<feColorMatrix in="SourceAlpha" type="matrix" values="0 0 0 0 0 0 0 0 0 0 0 0 0 0 0 0 0 0 127 0" result="hardAlpha"/>
<feOffset dy="8"/>
<feGaussianBlur stdDeviation="7.5"/>
<feColorMatrix type="matrix" values="0 0 0 0 0 0 0 0 0 0 0 0 0 0 0 0 0 0 0.25 0"/>
<feBlend mode="normal" in2="BackgroundImageFix" result="effect1_dropShadow_15958_19570"/>
<feBlend mode="normal" in="SourceGraphic" in2="effect1_dropShadow_15958_19570" result="shape"/>
</filter>
<clipPath id="clip0_15958_19570">
<rect width="32" height="32" fill="white" transform="translate(43 19)"/>
</clipPath>
</defs>
</svg>
