<svg width="137" height="118" viewBox="0 0 137 118" fill="none" xmlns="http://www.w3.org/2000/svg">
<rect x="2" y="2" width="114" height="114" rx="57" fill="white"/>
<rect x="2" y="2" width="114" height="114" rx="57" stroke="#DEE2E6" stroke-width="4"/>
<path opacity="0.4" d="M68.5865 39.8932L67.8532 38.0265L68.7865 37.6532C70.3065 37.0532 71.2399 36.2932 71.2799 35.6265C71.3065 35.0665 70.7065 34.3732 69.6399 33.7065C69.2399 33.4665 68.7465 33.2132 68.1865 32.9732C65.3065 31.7465 61.8265 31.1465 57.5332 31.1465H56.5332V29.1465H57.5332C62.0932 29.1465 65.8399 29.7998 68.9732 31.1332C69.6132 31.4132 70.1865 31.7065 70.6799 31.9998C72.9199 33.3865 73.3332 34.7999 73.2799 35.7332C73.2132 36.8132 72.5199 38.3332 69.5332 39.5199L68.5999 39.8799L68.5865 39.8932Z" fill="#EA5959"/>
<path opacity="0.4" d="M48.9601 38.8666L48.0668 38.4133C45.1868 36.9466 44.6535 35.3466 44.7201 34.2666C44.8401 32.1066 47.2801 30.4533 51.6135 29.6266L52.6001 29.4399L52.9735 31.3999L51.9868 31.5866C48.4135 32.2666 46.7601 33.48 46.7068 34.3733C46.6668 35.0533 47.5068 35.8933 48.9601 36.6266L49.8535 37.08L48.9468 38.8666H48.9601Z" fill="#EA5959"/>
<path d="M52.907 47.4667C52.187 47.4667 51.627 47.2534 51.2136 46.9867C50.7203 46.6667 50.0936 46.04 49.827 44.7867C49.2003 41.8667 50.8803 36.7734 54.0936 31.8133C57.627 26.3733 62.0003 22.6533 64.9603 22.5467C65.5337 22.4933 66.187 22.6533 66.7603 23C67.7603 23.6533 68.7737 25.16 68.0803 28.72L67.8937 29.7067L65.9337 29.32L66.1203 28.3333C66.4803 26.4933 66.3203 25.08 65.6937 24.68C65.5203 24.5733 65.2937 24.52 65.0937 24.5333C63.1337 24.6133 59.2403 27.56 55.7736 32.8934C52.4403 38.0267 51.3736 42.4267 51.7736 44.36C51.867 44.8267 52.0536 45.1334 52.2936 45.3067C52.9336 45.72 54.2936 45.28 55.867 44.16L56.6803 43.5734L57.8403 45.2L57.027 45.7867C55.267 47.04 53.907 47.4667 52.8936 47.4667H52.907Z" fill="#EA5959"/>
<path d="M64.1341 48.0534C63.7741 48.0534 63.3608 48.0001 62.8941 47.8401C60.0541 46.9201 56.4808 42.9201 53.8008 37.6534C52.1342 34.3868 51.0408 31.0668 50.7075 28.2935C50.2275 24.3201 51.4408 22.8135 52.5342 22.2535C54.3608 21.2935 56.7475 22.6668 57.9075 23.8268L58.6141 24.5335L57.2008 25.9468L56.4941 25.2401C55.6275 24.3735 54.1608 23.6668 53.4542 24.0268C52.8808 24.3201 52.3875 25.5201 52.6808 28.0535C52.9875 30.6001 54.0142 33.6801 55.5742 36.7468C58.3475 42.2001 61.6275 45.3334 63.5075 45.9334C63.9608 46.0801 64.3208 46.0801 64.5875 45.9468C65.9208 45.2668 65.8941 40.3734 62.8141 33.9601L62.3741 33.0534L64.1741 32.1868L64.6141 33.0934C67.5075 39.1068 68.7341 46.0668 65.5075 47.7201C65.1875 47.8801 64.7341 48.0401 64.1475 48.0401L64.1341 48.0534Z" fill="#EA5959"/>
<path opacity="0.4" fill-rule="evenodd" clip-rule="evenodd" d="M57.666 35.0664C57.666 34.3064 58.2927 33.6797 59.0527 33.6797C59.8127 33.6797 60.4393 34.3064 60.4393 35.0664C60.4393 35.8264 59.8127 36.453 59.0527 36.453C58.2927 36.453 57.666 35.8264 57.666 35.0664Z" fill="#EA5959"/>
<path d="M42.9486 67C42.8532 67 42.7796 66.974 42.7276 66.922C42.6756 66.8613 42.6496 66.7877 42.6496 66.701V58.212C42.6496 58.1167 42.6756 58.043 42.7276 57.991C42.7796 57.9303 42.8532 57.9 42.9486 57.9H48.2526C48.3479 57.9 48.4216 57.9303 48.4736 57.991C48.5256 58.043 48.5516 58.1167 48.5516 58.212V58.732C48.5516 58.8273 48.5256 58.901 48.4736 58.953C48.4216 59.005 48.3479 59.031 48.2526 59.031H43.9106V62.06H47.9926C48.0879 62.06 48.1616 62.0903 48.2136 62.151C48.2656 62.203 48.2916 62.2767 48.2916 62.372V62.892C48.2916 62.9787 48.2656 63.0523 48.2136 63.113C48.1616 63.165 48.0879 63.191 47.9926 63.191H43.9106V66.701C43.9106 66.7877 43.8802 66.8613 43.8196 66.922C43.7676 66.974 43.6939 67 43.5986 67H42.9486ZM50.4729 67C50.3862 67 50.3126 66.974 50.2519 66.922C50.1999 66.8613 50.1739 66.7877 50.1739 66.701V60.539C50.1739 60.4523 50.1999 60.383 50.2519 60.331C50.3126 60.2703 50.3862 60.24 50.4729 60.24H51.0969C51.1836 60.24 51.2529 60.2703 51.3049 60.331C51.3569 60.383 51.3829 60.4523 51.3829 60.539V66.701C51.3829 66.7877 51.3569 66.8613 51.3049 66.922C51.2529 66.974 51.1836 67 51.0969 67H50.4729ZM50.4339 59.265C50.2952 59.265 50.2259 59.1957 50.2259 59.057C50.2259 58.9877 50.2476 58.9313 50.2909 58.888L51.2659 57.718C51.3439 57.6227 51.4132 57.562 51.4739 57.536C51.5346 57.5013 51.6256 57.484 51.7469 57.484H52.6309C52.7956 57.484 52.8779 57.5663 52.8779 57.731C52.8779 57.7917 52.8562 57.8437 52.8129 57.887L51.3049 59.122C51.2356 59.1827 51.1706 59.2217 51.1099 59.239C51.0492 59.2563 50.9712 59.265 50.8759 59.265H50.4339ZM55.6624 67.13C55.177 67.13 54.761 67.0693 54.4144 66.948C54.0677 66.8267 53.786 66.6793 53.5694 66.506C53.3527 66.3327 53.188 66.1593 53.0754 65.986C52.9714 65.8127 52.915 65.674 52.9064 65.57C52.8977 65.4747 52.928 65.401 52.9974 65.349C53.0667 65.297 53.136 65.271 53.2054 65.271H53.7774C53.8294 65.271 53.8684 65.2797 53.8944 65.297C53.929 65.3057 53.9724 65.3403 54.0244 65.401C54.137 65.5223 54.2627 65.6437 54.4014 65.765C54.54 65.8863 54.709 65.986 54.9084 66.064C55.1164 66.142 55.372 66.181 55.6754 66.181C56.1174 66.181 56.4814 66.0987 56.7674 65.934C57.0534 65.7607 57.1964 65.5093 57.1964 65.18C57.1964 64.9633 57.1357 64.79 57.0144 64.66C56.9017 64.53 56.6937 64.413 56.3904 64.309C56.0957 64.205 55.6884 64.0967 55.1684 63.984C54.6484 63.8627 54.2367 63.7153 53.9334 63.542C53.63 63.36 53.4134 63.1477 53.2834 62.905C53.1534 62.6537 53.0884 62.372 53.0884 62.06C53.0884 61.7393 53.1837 61.4317 53.3744 61.137C53.565 60.8337 53.8424 60.5867 54.2064 60.396C54.579 60.2053 55.0427 60.11 55.5974 60.11C56.048 60.11 56.4337 60.1663 56.7544 60.279C57.075 60.3917 57.3394 60.5347 57.5474 60.708C57.7554 60.8727 57.9114 61.0373 58.0154 61.202C58.1194 61.3667 58.1757 61.5053 58.1844 61.618C58.193 61.7047 58.167 61.7783 58.1064 61.839C58.0457 61.891 57.9764 61.917 57.8984 61.917H57.3524C57.2917 61.917 57.2397 61.904 57.1964 61.878C57.1617 61.852 57.127 61.8217 57.0924 61.787C57.0057 61.6743 56.9017 61.5617 56.7804 61.449C56.6677 61.3363 56.516 61.2453 56.3254 61.176C56.1434 61.098 55.9007 61.059 55.5974 61.059C55.164 61.059 54.839 61.15 54.6224 61.332C54.4057 61.514 54.2974 61.7437 54.2974 62.021C54.2974 62.1857 54.345 62.333 54.4404 62.463C54.5357 62.593 54.7177 62.71 54.9864 62.814C55.255 62.918 55.6537 63.0307 56.1824 63.152C56.7544 63.2647 57.205 63.4163 57.5344 63.607C57.8637 63.7977 58.0977 64.0187 58.2364 64.27C58.375 64.5213 58.4444 64.8117 58.4444 65.141C58.4444 65.505 58.336 65.8387 58.1194 66.142C57.9114 66.4453 57.5994 66.688 57.1834 66.87C56.776 67.0433 56.269 67.13 55.6624 67.13ZM60.2483 67C60.1616 67 60.088 66.974 60.0273 66.922C59.9753 66.8613 59.9493 66.7877 59.9493 66.701V60.539C59.9493 60.4523 59.9753 60.383 60.0273 60.331C60.088 60.2703 60.1616 60.24 60.2483 60.24H60.8723C60.959 60.24 61.0283 60.2703 61.0803 60.331C61.1323 60.383 61.1583 60.4523 61.1583 60.539V66.701C61.1583 66.7877 61.1323 66.8613 61.0803 66.922C61.0283 66.974 60.959 67 60.8723 67H60.2483ZM60.1443 58.979C60.0576 58.979 59.984 58.953 59.9233 58.901C59.8713 58.8403 59.8453 58.7667 59.8453 58.68V57.978C59.8453 57.8913 59.8713 57.822 59.9233 57.77C59.984 57.7093 60.0576 57.679 60.1443 57.679H60.9633C61.05 57.679 61.1193 57.7093 61.1713 57.77C61.232 57.822 61.2623 57.8913 61.2623 57.978V58.68C61.2623 58.7667 61.232 58.8403 61.1713 58.901C61.1193 58.953 61.05 58.979 60.9633 58.979H60.1443ZM65.8277 67.13C65.2124 67.13 64.6794 67.013 64.2287 66.779C63.7867 66.5363 63.4444 66.194 63.2017 65.752C62.9591 65.3013 62.8291 64.764 62.8117 64.14C62.8031 64.01 62.7987 63.8367 62.7987 63.62C62.7987 63.4033 62.8031 63.23 62.8117 63.1C62.8291 62.476 62.9591 61.943 63.2017 61.501C63.4444 61.0503 63.7867 60.708 64.2287 60.474C64.6794 60.2313 65.2124 60.11 65.8277 60.11C66.3304 60.11 66.7594 60.1793 67.1147 60.318C67.4787 60.4567 67.7777 60.6343 68.0117 60.851C68.2457 61.0677 68.4191 61.3017 68.5317 61.553C68.6531 61.8043 68.7181 62.0427 68.7267 62.268C68.7354 62.3547 68.7094 62.424 68.6487 62.476C68.5881 62.528 68.5144 62.554 68.4277 62.554H67.8037C67.7171 62.554 67.6521 62.5367 67.6087 62.502C67.5654 62.4587 67.5221 62.3893 67.4787 62.294C67.3227 61.8693 67.1104 61.5703 66.8417 61.397C66.5731 61.2237 66.2394 61.137 65.8407 61.137C65.3207 61.137 64.8961 61.2973 64.5667 61.618C64.2461 61.9387 64.0727 62.4543 64.0467 63.165C64.0381 63.477 64.0381 63.7803 64.0467 64.075C64.0727 64.7943 64.2461 65.3143 64.5667 65.635C64.8961 65.947 65.3207 66.103 65.8407 66.103C66.2394 66.103 66.5731 66.0163 66.8417 65.843C67.1104 65.6697 67.3227 65.3707 67.4787 64.946C67.5221 64.8507 67.5654 64.7857 67.6087 64.751C67.6521 64.7077 67.7171 64.686 67.8037 64.686H68.4277C68.5144 64.686 68.5881 64.712 68.6487 64.764C68.7094 64.816 68.7354 64.8853 68.7267 64.972C68.7181 65.154 68.6791 65.3403 68.6097 65.531C68.5404 65.7217 68.4277 65.9167 68.2717 66.116C68.1244 66.3067 67.9381 66.48 67.7127 66.636C67.4874 66.7833 67.2144 66.9047 66.8937 67C66.5817 67.0867 66.2264 67.13 65.8277 67.13ZM72.1556 67.13C71.7223 67.13 71.3279 67.0433 70.9726 66.87C70.6173 66.6967 70.3313 66.4627 70.1146 66.168C69.8979 65.8733 69.7896 65.5397 69.7896 65.167C69.7896 64.569 70.0323 64.0923 70.5176 63.737C71.0029 63.3817 71.6356 63.1477 72.4156 63.035L74.3526 62.762V62.385C74.3526 61.969 74.2313 61.644 73.9886 61.41C73.7546 61.176 73.3689 61.059 72.8316 61.059C72.4416 61.059 72.1253 61.137 71.8826 61.293C71.6486 61.449 71.4839 61.6483 71.3886 61.891C71.3366 62.021 71.2456 62.086 71.1156 62.086H70.5306C70.4353 62.086 70.3616 62.06 70.3096 62.008C70.2663 61.9473 70.2446 61.878 70.2446 61.8C70.2446 61.67 70.2923 61.5097 70.3876 61.319C70.4916 61.1283 70.6476 60.942 70.8556 60.76C71.0636 60.578 71.3279 60.4263 71.6486 60.305C71.9779 60.175 72.3766 60.11 72.8446 60.11C73.3646 60.11 73.8023 60.1793 74.1576 60.318C74.5129 60.448 74.7903 60.6257 74.9896 60.851C75.1976 61.0763 75.3449 61.332 75.4316 61.618C75.5269 61.904 75.5746 62.1943 75.5746 62.489V66.701C75.5746 66.7877 75.5443 66.8613 75.4836 66.922C75.4316 66.974 75.3623 67 75.2756 67H74.6776C74.5823 67 74.5086 66.974 74.4566 66.922C74.4046 66.8613 74.3786 66.7877 74.3786 66.701V66.142C74.2659 66.298 74.1143 66.454 73.9236 66.61C73.7329 66.7573 73.4946 66.883 73.2086 66.987C72.9226 67.0823 72.5716 67.13 72.1556 67.13ZM72.4286 66.155C72.7839 66.155 73.1089 66.0813 73.4036 65.934C73.6983 65.778 73.9279 65.5397 74.0926 65.219C74.2659 64.8983 74.3526 64.4953 74.3526 64.01V63.646L72.8446 63.867C72.2293 63.9537 71.7656 64.101 71.4536 64.309C71.1416 64.5083 70.9856 64.764 70.9856 65.076C70.9856 65.3187 71.0549 65.5223 71.1936 65.687C71.3409 65.843 71.5229 65.96 71.7396 66.038C71.9649 66.116 72.1946 66.155 72.4286 66.155Z" fill="#171B22"/>
<rect x="40.5" y="74" width="37" height="25" rx="12.5" fill="#EA5959"/>
<path d="M53.3417 91.14C52.6697 91.14 52.0864 91.0467 51.5917 90.86C51.097 90.664 50.6864 90.398 50.3597 90.062C50.0424 89.726 49.7997 89.334 49.6317 88.886C49.4637 88.438 49.3657 87.9573 49.3377 87.444C49.3284 87.192 49.319 86.9073 49.3097 86.59C49.3097 86.2633 49.3097 85.9367 49.3097 85.61C49.319 85.274 49.3284 84.9753 49.3377 84.714C49.3657 84.2007 49.4637 83.7247 49.6317 83.286C49.809 82.838 50.061 82.4507 50.3877 82.124C50.7237 81.788 51.1344 81.5267 51.6197 81.34C52.1144 81.1533 52.6884 81.06 53.3417 81.06C54.0044 81.06 54.5784 81.1533 55.0637 81.34C55.549 81.5267 55.955 81.788 56.2817 82.124C56.6177 82.4507 56.8744 82.838 57.0517 83.286C57.229 83.7247 57.327 84.2007 57.3457 84.714C57.3644 84.9753 57.3737 85.274 57.3737 85.61C57.383 85.9367 57.383 86.2633 57.3737 86.59C57.3737 86.9073 57.3644 87.192 57.3457 87.444C57.327 87.9573 57.229 88.438 57.0517 88.886C56.8837 89.334 56.6364 89.726 56.3097 90.062C55.9924 90.398 55.5864 90.664 55.0917 90.86C54.6064 91.0467 54.023 91.14 53.3417 91.14ZM53.3417 89.11C53.827 89.11 54.177 88.956 54.3917 88.648C54.6157 88.3307 54.7324 87.906 54.7417 87.374C54.7604 87.1033 54.7697 86.8187 54.7697 86.52C54.779 86.2213 54.779 85.9227 54.7697 85.624C54.7697 85.3253 54.7604 85.05 54.7417 84.798C54.7324 84.2847 54.6157 83.8693 54.3917 83.552C54.177 83.2347 53.827 83.0713 53.3417 83.062C52.8564 83.0713 52.5064 83.2347 52.2917 83.552C52.077 83.8693 51.9604 84.2847 51.9417 84.798C51.9324 85.05 51.923 85.3253 51.9137 85.624C51.9137 85.9227 51.9137 86.2213 51.9137 86.52C51.923 86.8187 51.9324 87.1033 51.9417 87.374C51.9604 87.906 52.0817 88.3307 52.3057 88.648C52.5297 88.956 52.875 89.11 53.3417 89.11ZM59.6793 91C59.4647 91 59.3573 90.9067 59.3573 90.72C59.3573 90.664 59.376 90.6127 59.4133 90.566L66.3293 81.466C66.3947 81.382 66.46 81.3167 66.5253 81.27C66.5907 81.2233 66.6887 81.2 66.8193 81.2H67.8133C68.028 81.2 68.1353 81.2933 68.1353 81.48C68.1353 81.536 68.1167 81.5873 68.0793 81.634L61.1633 90.734C61.098 90.818 61.0327 90.8833 60.9673 90.93C60.902 90.9767 60.804 91 60.6733 91H59.6793ZM66.7213 91.07C66.0867 91.07 65.578 90.902 65.1953 90.566C64.822 90.23 64.612 89.782 64.5653 89.222C64.556 88.9793 64.5513 88.7647 64.5513 88.578C64.5513 88.3913 64.556 88.1673 64.5653 87.906C64.6027 87.3367 64.8033 86.884 65.1673 86.548C65.5407 86.2027 66.0587 86.03 66.7213 86.03C67.3933 86.03 67.9113 86.2027 68.2753 86.548C68.6393 86.884 68.84 87.3367 68.8773 87.906C68.896 88.1673 68.9053 88.3913 68.9053 88.578C68.9053 88.7647 68.896 88.9793 68.8773 89.222C68.84 89.782 68.63 90.23 68.2473 90.566C67.8647 90.902 67.356 91.07 66.7213 91.07ZM66.7213 89.838C66.88 89.838 67.0013 89.8053 67.0853 89.74C67.1787 89.6747 67.2487 89.5907 67.2953 89.488C67.342 89.376 67.3653 89.2593 67.3653 89.138C67.384 88.9233 67.3933 88.7273 67.3933 88.55C67.3933 88.3727 67.384 88.1813 67.3653 87.976C67.356 87.7987 67.3047 87.64 67.2113 87.5C67.118 87.3507 66.9547 87.276 66.7213 87.276C66.488 87.276 66.3247 87.3507 66.2313 87.5C66.138 87.64 66.0867 87.7987 66.0773 87.976C66.068 88.1813 66.0633 88.3727 66.0633 88.55C66.0633 88.7273 66.068 88.9233 66.0773 89.138C66.0867 89.2593 66.11 89.376 66.1473 89.488C66.194 89.5907 66.264 89.6747 66.3573 89.74C66.4507 89.8053 66.572 89.838 66.7213 89.838ZM60.7993 86.142C60.1553 86.142 59.642 85.9787 59.2593 85.652C58.886 85.316 58.6807 84.868 58.6433 84.308C58.6247 84.0653 58.6153 83.8553 58.6153 83.678C58.6247 83.4913 58.634 83.2673 58.6433 83.006C58.6713 82.4367 58.8673 81.984 59.2313 81.648C59.6047 81.3027 60.1273 81.13 60.7993 81.13C61.4713 81.13 61.9893 81.3027 62.3533 81.648C62.7173 81.984 62.9133 82.4367 62.9413 83.006C62.96 83.2673 62.9693 83.4913 62.9693 83.678C62.9693 83.8553 62.96 84.0653 62.9413 84.308C62.9133 84.868 62.708 85.316 62.3253 85.652C61.9427 85.9787 61.434 86.142 60.7993 86.142ZM60.7993 84.938C60.9487 84.938 61.07 84.9053 61.1633 84.84C61.2567 84.7653 61.3267 84.6767 61.3733 84.574C61.42 84.462 61.4433 84.35 61.4433 84.238C61.462 84.0233 61.4713 83.8273 61.4713 83.65C61.4713 83.4727 61.462 83.2813 61.4433 83.076C61.434 82.8987 61.378 82.74 61.2753 82.6C61.182 82.4507 61.0233 82.376 60.7993 82.376C60.566 82.376 60.398 82.4507 60.2953 82.6C60.202 82.74 60.1507 82.8987 60.1413 83.076C60.132 83.2813 60.1273 83.4727 60.1273 83.65C60.1273 83.8273 60.132 84.0233 60.1413 84.238C60.1507 84.35 60.174 84.462 60.2113 84.574C60.258 84.6767 60.328 84.7653 60.4213 84.84C60.5147 84.9053 60.6407 84.938 60.7993 84.938Z" fill="white"/>
<g filter="url(#filter0_d_15958_19580)">
<rect x="88" y="14" width="32" height="32" rx="16" fill="white"/>
<rect x="87" y="13" width="34" height="34" rx="17" stroke="#1DA534" stroke-width="2"/>
<path opacity="0.4" d="M103.999 32.8398C104.485 32.8398 104.879 33.2338 104.879 33.7197C104.879 34.2057 104.485 34.5996 103.999 34.5996C103.513 34.5995 103.119 34.2057 103.119 33.7197C103.119 33.2338 103.513 32.8399 103.999 32.8398Z" fill="#1DA534" stroke="#1DA534" stroke-width="1.5"/>
<path d="M99.3496 28.1899H108.65C110.674 28.19 111.735 28.5109 112.332 29.1079C112.929 29.7049 113.25 30.7662 113.25 32.7896V34.6499C113.25 36.6735 112.929 37.7355 112.332 38.3325C111.735 38.9294 110.673 39.2495 108.65 39.2495H99.3496C97.3266 39.2495 96.265 38.9294 95.668 38.3325C95.0709 37.7355 94.75 36.6735 94.75 34.6499V32.7896C94.75 30.7662 95.0709 29.7049 95.668 29.1079C96.265 28.5109 97.3263 28.19 99.3496 28.1899ZM104 29.9497C101.914 29.9497 100.23 31.6476 100.23 33.7202C100.231 35.7927 101.914 37.4897 104 37.4897C106.086 37.4897 107.769 35.7927 107.77 33.7202C107.77 31.6476 106.086 29.9497 104 29.9497Z" fill="#1DA534" stroke="#1DA534" stroke-width="1.5"/>
<g opacity="0.4">
<mask id="path-14-inside-1_15958_19580" fill="white">
<path d="M99.1207 27.45V26.28C99.1207 23.35 99.9507 21.4 104.001 21.4C108.051 21.4 108.881 23.35 108.881 26.28V27.45C109.391 27.46 109.851 27.48 110.281 27.54V26.28C110.281 23.58 109.631 20 104.001 20C98.3707 20 97.7207 23.58 97.7207 26.28V27.53C98.1407 27.48 98.6107 27.45 99.1207 27.45Z"/>
</mask>
<path d="M99.1207 27.45V26.28C99.1207 23.35 99.9507 21.4 104.001 21.4C108.051 21.4 108.881 23.35 108.881 26.28V27.45C109.391 27.46 109.851 27.48 110.281 27.54V26.28C110.281 23.58 109.631 20 104.001 20C98.3707 20 97.7207 23.58 97.7207 26.28V27.53C98.1407 27.48 98.6107 27.45 99.1207 27.45Z" fill="#1DA534"/>
<path d="M99.1207 27.45V28.95H100.621V27.45H99.1207ZM108.881 27.45H107.381V28.9209L108.851 28.9497L108.881 27.45ZM110.281 27.54L110.073 29.0256L111.781 29.2638V27.54H110.281ZM110.281 26.28H108.781H110.281ZM97.7207 27.53H96.2207V29.2192L97.898 29.0195L97.7207 27.53ZM99.1207 27.45H100.621V26.28H99.1207H97.6207V27.45H99.1207ZM99.1207 26.28H100.621C100.621 24.8831 100.837 24.1294 101.193 23.7033C101.498 23.3385 102.182 22.9 104.001 22.9V21.4V19.9C101.769 19.9 100.014 20.4365 98.8911 21.7792C97.8198 23.0606 97.6207 24.7469 97.6207 26.28H99.1207ZM104.001 21.4V22.9C105.819 22.9 106.504 23.3385 106.809 23.7033C107.165 24.1294 107.381 24.8831 107.381 26.28H108.881H110.381C110.381 24.7469 110.182 23.0606 109.11 21.7792C107.988 20.4365 106.232 19.9 104.001 19.9V21.4ZM108.881 26.28H107.381V27.45H108.881H110.381V26.28H108.881ZM108.881 27.45L108.851 28.9497C109.349 28.9595 109.735 28.9785 110.073 29.0256L110.281 27.54L110.488 26.0544C109.966 25.9815 109.433 25.9605 108.91 25.9503L108.881 27.45ZM110.281 27.54H111.781V26.28H110.281H108.781V27.54H110.281ZM110.281 26.28H111.781C111.781 24.8668 111.625 22.8955 110.479 21.265C109.257 19.5254 107.156 18.5 104.001 18.5V20V21.5C106.475 21.5 107.515 22.2646 108.025 22.99C108.611 23.8245 108.781 24.9932 108.781 26.28H110.281ZM104.001 20V18.5C100.845 18.5 98.7449 19.5254 97.5222 21.265C96.3762 22.8955 96.2207 24.8668 96.2207 26.28H97.7207H99.2207C99.2207 24.9932 99.3902 23.8245 99.9767 22.99C100.487 22.2646 101.526 21.5 104.001 21.5V20ZM97.7207 26.28H96.2207V27.53H97.7207H99.2207V26.28H97.7207ZM97.7207 27.53L97.898 29.0195C98.2582 28.9766 98.669 28.95 99.1207 28.95V27.45V25.95C98.5524 25.95 98.0232 25.9834 97.5434 26.0405L97.7207 27.53Z" fill="#1DA534" mask="url(#path-14-inside-1_15958_19580)"/>
</g>
</g>
<defs>
<filter id="filter0_d_15958_19580" x="71" y="5" width="66" height="66" filterUnits="userSpaceOnUse" color-interpolation-filters="sRGB">
<feFlood flood-opacity="0" result="BackgroundImageFix"/>
<feColorMatrix in="SourceAlpha" type="matrix" values="0 0 0 0 0 0 0 0 0 0 0 0 0 0 0 0 0 0 127 0" result="hardAlpha"/>
<feOffset dy="8"/>
<feGaussianBlur stdDeviation="7.5"/>
<feColorMatrix type="matrix" values="0 0 0 0 0 0 0 0 0 0 0 0 0 0 0 0 0 0 0.25 0"/>
<feBlend mode="normal" in2="BackgroundImageFix" result="effect1_dropShadow_15958_19580"/>
<feBlend mode="normal" in="SourceGraphic" in2="effect1_dropShadow_15958_19580" result="shape"/>
</filter>
</defs>
</svg>
