<svg width="137" height="118" viewBox="0 0 137 118" fill="none" xmlns="http://www.w3.org/2000/svg">
<rect x="2" y="2" width="114" height="114" rx="57" fill="white"/>
<rect x="2" y="2" width="114" height="114" rx="57" stroke="#DEE2E6" stroke-width="4"/>
<path opacity="0.4" d="M64.586 21.6665H53.4127C48.5593 21.6665 45.666 24.5598 45.666 29.4132V40.5865C45.666 45.4398 48.5593 48.3332 53.4127 48.3332H64.586C69.4394 48.3332 72.3327 45.4398 72.3327 40.5865V29.4132C72.3327 24.5598 69.4394 21.6665 64.586 21.6665Z" fill="#D598E5"/>
<path d="M67.4141 30.8267C67.4141 31.3733 66.9741 31.8267 66.4141 31.8267H59.4141C58.8674 31.8267 58.4141 31.3733 58.4141 30.8267C58.4141 30.28 58.8674 29.8267 59.4141 29.8267H66.4141C66.9741 29.8267 67.4141 30.28 67.4141 30.8267Z" fill="#D598E5"/>
<path d="M56.2934 29.5334L53.2934 32.5334C53.0934 32.7334 52.8401 32.8267 52.5867 32.8267C52.3334 32.8267 52.0667 32.7334 51.8801 32.5334L50.8801 31.5334C50.4801 31.1467 50.4801 30.5067 50.8801 30.1201C51.2667 29.7334 51.8934 29.7334 52.2934 30.1201L52.5867 30.4134L54.8801 28.1201C55.2667 27.7334 55.8934 27.7334 56.2934 28.1201C56.6801 28.5067 56.6801 29.1467 56.2934 29.5334Z" fill="#D598E5"/>
<path d="M67.4141 40.1602C67.4141 40.7068 66.9741 41.1602 66.4141 41.1602H59.4141C58.8674 41.1602 58.4141 40.7068 58.4141 40.1602C58.4141 39.6135 58.8674 39.1602 59.4141 39.1602H66.4141C66.9741 39.1602 67.4141 39.6135 67.4141 40.1602Z" fill="#D598E5"/>
<path d="M56.2934 38.8669L53.2934 41.8669C53.0934 42.0669 52.8401 42.1602 52.5867 42.1602C52.3334 42.1602 52.0667 42.0669 51.8801 41.8669L50.8801 40.8669C50.4801 40.4802 50.4801 39.8402 50.8801 39.4536C51.2667 39.0669 51.8934 39.0669 52.2934 39.4536L52.5867 39.7469L54.8801 37.4536C55.2667 37.0669 55.8934 37.0669 56.2934 37.4536C56.6801 37.8402 56.6801 38.4802 56.2934 38.8669Z" fill="#D598E5"/>
<path d="M20.5451 67C20.4758 67 20.4151 66.974 20.3631 66.922C20.3111 66.87 20.2851 66.8093 20.2851 66.74C20.2851 66.6967 20.2895 66.649 20.2981 66.597L23.5221 58.186C23.5568 58.0993 23.6045 58.03 23.6651 57.978C23.7258 57.926 23.8168 57.9 23.9381 57.9H24.8221C24.9348 57.9 25.0215 57.926 25.0821 57.978C25.1515 58.03 25.2035 58.0993 25.2381 58.186L28.4491 66.597C28.4665 66.649 28.4751 66.6967 28.4751 66.74C28.4751 66.8093 28.4491 66.87 28.3971 66.922C28.3451 66.974 28.2845 67 28.2151 67H27.5521C27.4481 67 27.3701 66.974 27.3181 66.922C27.2748 66.87 27.2445 66.8223 27.2271 66.779L26.5121 64.933H22.2481L21.5331 66.779C21.5245 66.8223 21.4941 66.87 21.4421 66.922C21.3901 66.974 21.3121 67 21.2081 67H20.5451ZM22.6251 63.815H26.1351L24.3801 59.2L22.6251 63.815ZM31.0499 67.13C30.5733 67.13 30.1616 67.0477 29.8149 66.883C29.4683 66.7097 29.1823 66.48 28.9569 66.194C28.7403 65.8993 28.5756 65.5657 28.4629 65.193C28.3589 64.8203 28.2983 64.426 28.2809 64.01C28.2723 63.8713 28.2679 63.7413 28.2679 63.62C28.2679 63.4987 28.2723 63.3687 28.2809 63.23C28.2983 62.8227 28.3589 62.4327 28.4629 62.06C28.5756 61.6873 28.7403 61.3537 28.9569 61.059C29.1823 60.7643 29.4683 60.5347 29.8149 60.37C30.1616 60.1967 30.5733 60.11 31.0499 60.11C31.5613 60.11 31.9859 60.201 32.3239 60.383C32.6619 60.565 32.9393 60.7903 33.1559 61.059V58.069C33.1559 57.9823 33.1819 57.913 33.2339 57.861C33.2946 57.8003 33.3683 57.77 33.4549 57.77H34.0789C34.1656 57.77 34.2349 57.8003 34.2869 57.861C34.3476 57.913 34.3779 57.9823 34.3779 58.069V66.701C34.3779 66.7877 34.3476 66.8613 34.2869 66.922C34.2349 66.974 34.1656 67 34.0789 67H33.4939C33.3986 67 33.3249 66.974 33.2729 66.922C33.2209 66.8613 33.1949 66.7877 33.1949 66.701V66.155C32.9783 66.4323 32.6966 66.6663 32.3499 66.857C32.0033 67.039 31.5699 67.13 31.0499 67.13ZM31.3229 66.077C31.7563 66.077 32.1029 65.9773 32.3629 65.778C32.6229 65.5787 32.8179 65.3273 32.9479 65.024C33.0779 64.712 33.1473 64.3957 33.1559 64.075C33.1646 63.9363 33.1689 63.7717 33.1689 63.581C33.1689 63.3817 33.1646 63.2127 33.1559 63.074C33.1473 62.7707 33.0736 62.4717 32.9349 62.177C32.8049 61.8823 32.6056 61.6397 32.3369 61.449C32.0769 61.2583 31.7389 61.163 31.3229 61.163C30.8809 61.163 30.5299 61.2627 30.2699 61.462C30.0099 61.6527 29.8236 61.9083 29.7109 62.229C29.5983 62.541 29.5333 62.879 29.5159 63.243C29.5073 63.4943 29.5073 63.7457 29.5159 63.997C29.5333 64.361 29.5983 64.7033 29.7109 65.024C29.8236 65.336 30.0099 65.5917 30.2699 65.791C30.5299 65.9817 30.8809 66.077 31.3229 66.077ZM35.5704 67C35.4837 67 35.4101 66.974 35.3494 66.922C35.2974 66.8613 35.2714 66.7877 35.2714 66.701V60.539C35.2714 60.4523 35.2974 60.383 35.3494 60.331C35.4101 60.2703 35.4837 60.24 35.5704 60.24H36.1554C36.2421 60.24 36.3114 60.2703 36.3634 60.331C36.4241 60.383 36.4544 60.4523 36.4544 60.539V60.994C36.6537 60.7253 36.9051 60.513 37.2084 60.357C37.5117 60.1923 37.8757 60.11 38.3004 60.11C39.2797 60.1013 39.9731 60.5 40.3804 61.306C40.5797 60.942 40.8701 60.6517 41.2514 60.435C41.6327 60.2183 42.0661 60.11 42.5514 60.11C43.0021 60.11 43.4094 60.214 43.7734 60.422C44.1461 60.63 44.4364 60.9463 44.6444 61.371C44.8611 61.787 44.9694 62.3113 44.9694 62.944V66.701C44.9694 66.7877 44.9391 66.8613 44.8784 66.922C44.8264 66.974 44.7571 67 44.6704 67H44.0594C43.9727 67 43.8991 66.974 43.8384 66.922C43.7864 66.8613 43.7604 66.7877 43.7604 66.701V63.061C43.7604 62.5757 43.6911 62.1943 43.5524 61.917C43.4137 61.6397 43.2274 61.4447 42.9934 61.332C42.7594 61.2193 42.5037 61.163 42.2264 61.163C42.0011 61.163 41.7714 61.2193 41.5374 61.332C41.3034 61.4447 41.1084 61.6397 40.9524 61.917C40.8051 62.1943 40.7314 62.5757 40.7314 63.061V66.701C40.7314 66.7877 40.7011 66.8613 40.6404 66.922C40.5884 66.974 40.5191 67 40.4324 67H39.8214C39.7347 67 39.6611 66.974 39.6004 66.922C39.5484 66.8613 39.5224 66.7877 39.5224 66.701V63.061C39.5224 62.5757 39.4487 62.1943 39.3014 61.917C39.1541 61.6397 38.9634 61.4447 38.7294 61.332C38.4954 61.2193 38.2484 61.163 37.9884 61.163C37.7631 61.163 37.5334 61.2193 37.2994 61.332C37.0654 61.4447 36.8704 61.6397 36.7144 61.917C36.5671 62.1943 36.4934 62.5713 36.4934 63.048V66.701C36.4934 66.7877 36.4631 66.8613 36.4024 66.922C36.3504 66.974 36.2811 67 36.1944 67H35.5704ZM46.0831 67C45.9965 67 45.9228 66.974 45.8621 66.922C45.8101 66.8613 45.7841 66.7877 45.7841 66.701V60.539C45.7841 60.4523 45.8101 60.383 45.8621 60.331C45.9228 60.2703 45.9965 60.24 46.0831 60.24H46.7071C46.7938 60.24 46.8631 60.2703 46.9151 60.331C46.9671 60.383 46.9931 60.4523 46.9931 60.539V66.701C46.9931 66.7877 46.9671 66.8613 46.9151 66.922C46.8631 66.974 46.7938 67 46.7071 67H46.0831ZM45.9791 58.979C45.8925 58.979 45.8188 58.953 45.7581 58.901C45.7061 58.8403 45.6801 58.7667 45.6801 58.68V57.978C45.6801 57.8913 45.7061 57.822 45.7581 57.77C45.8188 57.7093 45.8925 57.679 45.9791 57.679H46.7981C46.8848 57.679 46.9541 57.7093 47.0061 57.77C47.0668 57.822 47.0971 57.8913 47.0971 57.978V58.68C47.0971 58.7667 47.0668 58.8403 47.0061 58.901C46.9541 58.953 46.8848 58.979 46.7981 58.979H45.9791ZM48.1916 67C48.1049 67 48.0312 66.974 47.9706 66.922C47.9186 66.8613 47.8926 66.7877 47.8926 66.701V60.539C47.8926 60.4523 47.9186 60.383 47.9706 60.331C48.0312 60.2703 48.1049 60.24 48.1916 60.24H48.8026C48.8892 60.24 48.9586 60.2703 49.0106 60.331C49.0712 60.383 49.1016 60.4523 49.1016 60.539V61.111C49.3269 60.8163 49.6086 60.578 49.9466 60.396C50.2932 60.2053 50.7352 60.11 51.2726 60.11C51.8359 60.11 52.3126 60.2357 52.7026 60.487C53.1012 60.7297 53.4002 61.072 53.5996 61.514C53.7989 61.9473 53.8986 62.4543 53.8986 63.035V66.701C53.8986 66.7877 53.8726 66.8613 53.8206 66.922C53.7686 66.974 53.6992 67 53.6126 67H52.9626C52.8759 67 52.8022 66.974 52.7416 66.922C52.6896 66.8613 52.6636 66.7877 52.6636 66.701V63.1C52.6636 62.4933 52.5162 62.021 52.2216 61.683C51.9269 61.3363 51.4936 61.163 50.9216 61.163C50.3842 61.163 49.9509 61.3363 49.6216 61.683C49.3009 62.021 49.1406 62.4933 49.1406 63.1V66.701C49.1406 66.7877 49.1102 66.8613 49.0496 66.922C48.9976 66.974 48.9282 67 48.8416 67H48.1916ZM55.0354 67C54.9487 67 54.875 66.974 54.8144 66.922C54.7624 66.8613 54.7364 66.7877 54.7364 66.701V60.539C54.7364 60.4523 54.7624 60.383 54.8144 60.331C54.875 60.2703 54.9487 60.24 55.0354 60.24H55.6594C55.746 60.24 55.8154 60.2703 55.8674 60.331C55.9194 60.383 55.9454 60.4523 55.9454 60.539V66.701C55.9454 66.7877 55.9194 66.8613 55.8674 66.922C55.8154 66.974 55.746 67 55.6594 67H55.0354ZM54.9314 58.979C54.8447 58.979 54.771 58.953 54.7104 58.901C54.6584 58.8403 54.6324 58.7667 54.6324 58.68V57.978C54.6324 57.8913 54.6584 57.822 54.7104 57.77C54.771 57.7093 54.8447 57.679 54.9314 57.679H55.7504C55.837 57.679 55.9064 57.7093 55.9584 57.77C56.019 57.822 56.0494 57.8913 56.0494 57.978V58.68C56.0494 58.7667 56.019 58.8403 55.9584 58.901C55.9064 58.953 55.837 58.979 55.7504 58.979H54.9314ZM59.1848 67.13C58.6995 67.13 58.2835 67.0693 57.9368 66.948C57.5901 66.8267 57.3085 66.6793 57.0918 66.506C56.8751 66.3327 56.7105 66.1593 56.5978 65.986C56.4938 65.8127 56.4375 65.674 56.4288 65.57C56.4201 65.4747 56.4505 65.401 56.5198 65.349C56.5891 65.297 56.6585 65.271 56.7278 65.271H57.2998C57.3518 65.271 57.3908 65.2797 57.4168 65.297C57.4515 65.3057 57.4948 65.3403 57.5468 65.401C57.6595 65.5223 57.7851 65.6437 57.9238 65.765C58.0625 65.8863 58.2315 65.986 58.4308 66.064C58.6388 66.142 58.8945 66.181 59.1978 66.181C59.6398 66.181 60.0038 66.0987 60.2898 65.934C60.5758 65.7607 60.7188 65.5093 60.7188 65.18C60.7188 64.9633 60.6581 64.79 60.5368 64.66C60.4241 64.53 60.2161 64.413 59.9128 64.309C59.6181 64.205 59.2108 64.0967 58.6908 63.984C58.1708 63.8627 57.7591 63.7153 57.4558 63.542C57.1525 63.36 56.9358 63.1477 56.8058 62.905C56.6758 62.6537 56.6108 62.372 56.6108 62.06C56.6108 61.7393 56.7061 61.4317 56.8968 61.137C57.0875 60.8337 57.3648 60.5867 57.7288 60.396C58.1015 60.2053 58.5651 60.11 59.1198 60.11C59.5705 60.11 59.9561 60.1663 60.2768 60.279C60.5975 60.3917 60.8618 60.5347 61.0698 60.708C61.2778 60.8727 61.4338 61.0373 61.5378 61.202C61.6418 61.3667 61.6981 61.5053 61.7068 61.618C61.7155 61.7047 61.6895 61.7783 61.6288 61.839C61.5681 61.891 61.4988 61.917 61.4208 61.917H60.8748C60.8141 61.917 60.7621 61.904 60.7188 61.878C60.6841 61.852 60.6495 61.8217 60.6148 61.787C60.5281 61.6743 60.4241 61.5617 60.3028 61.449C60.1901 61.3363 60.0385 61.2453 59.8478 61.176C59.6658 61.098 59.4231 61.059 59.1198 61.059C58.6865 61.059 58.3615 61.15 58.1448 61.332C57.9281 61.514 57.8198 61.7437 57.8198 62.021C57.8198 62.1857 57.8675 62.333 57.9628 62.463C58.0581 62.593 58.2401 62.71 58.5088 62.814C58.7775 62.918 59.1761 63.0307 59.7048 63.152C60.2768 63.2647 60.7275 63.4163 61.0568 63.607C61.3861 63.7977 61.6201 64.0187 61.7588 64.27C61.8975 64.5213 61.9668 64.8117 61.9668 65.141C61.9668 65.505 61.8585 65.8387 61.6418 66.142C61.4338 66.4453 61.1218 66.688 60.7058 66.87C60.2985 67.0433 59.7915 67.13 59.1848 67.13ZM65.0581 67C64.5727 67 64.1784 66.909 63.8751 66.727C63.5717 66.5363 63.3507 66.272 63.2121 65.934C63.0734 65.5873 63.0041 65.18 63.0041 64.712V61.28H61.9901C61.9034 61.28 61.8297 61.254 61.7691 61.202C61.7171 61.1413 61.6911 61.0677 61.6911 60.981V60.539C61.6911 60.4523 61.7171 60.383 61.7691 60.331C61.8297 60.2703 61.9034 60.24 61.9901 60.24H63.0041V58.069C63.0041 57.9823 63.0301 57.913 63.0821 57.861C63.1427 57.8003 63.2164 57.77 63.3031 57.77H63.9141C64.0007 57.77 64.0701 57.8003 64.1221 57.861C64.1827 57.913 64.2131 57.9823 64.2131 58.069V60.24H65.8251C65.9117 60.24 65.9811 60.2703 66.0331 60.331C66.0937 60.383 66.1241 60.4523 66.1241 60.539V60.981C66.1241 61.0677 66.0937 61.1413 66.0331 61.202C65.9811 61.254 65.9117 61.28 65.8251 61.28H64.2131V64.621C64.2131 65.0283 64.2824 65.349 64.4211 65.583C64.5597 65.817 64.8067 65.934 65.1621 65.934H65.9551C66.0417 65.934 66.1111 65.9643 66.1631 66.025C66.2237 66.077 66.2541 66.1463 66.2541 66.233V66.701C66.2541 66.7877 66.2237 66.8613 66.1631 66.922C66.1111 66.974 66.0417 67 65.9551 67H65.0581ZM66.7562 67C66.6695 67 66.5958 66.974 66.5352 66.922C66.4832 66.8613 66.4572 66.7877 66.4572 66.701V60.552C66.4572 60.4653 66.4832 60.3917 66.5352 60.331C66.5958 60.2703 66.6695 60.24 66.7562 60.24H67.3542C67.4408 60.24 67.5145 60.2703 67.5752 60.331C67.6358 60.3917 67.6662 60.4653 67.6662 60.552V61.124C67.8395 60.8293 68.0778 60.6083 68.3812 60.461C68.6845 60.3137 69.0485 60.24 69.4732 60.24H69.9932C70.0798 60.24 70.1492 60.2703 70.2012 60.331C70.2532 60.383 70.2792 60.4523 70.2792 60.539V61.072C70.2792 61.1587 70.2532 61.228 70.2012 61.28C70.1492 61.332 70.0798 61.358 69.9932 61.358H69.2132C68.7452 61.358 68.3768 61.4967 68.1082 61.774C67.8395 62.0427 67.7052 62.411 67.7052 62.879V66.701C67.7052 66.7877 67.6748 66.8613 67.6142 66.922C67.5535 66.974 67.4798 67 67.3932 67H66.7562ZM72.1391 67.13C71.7058 67.13 71.3114 67.0433 70.9561 66.87C70.6008 66.6967 70.3148 66.4627 70.0981 66.168C69.8814 65.8733 69.7731 65.5397 69.7731 65.167C69.7731 64.569 70.0158 64.0923 70.5011 63.737C70.9864 63.3817 71.6191 63.1477 72.3991 63.035L74.3361 62.762V62.385C74.3361 61.969 74.2148 61.644 73.9721 61.41C73.7381 61.176 73.3524 61.059 72.8151 61.059C72.4251 61.059 72.1088 61.137 71.8661 61.293C71.6321 61.449 71.4674 61.6483 71.3721 61.891C71.3201 62.021 71.2291 62.086 71.0991 62.086H70.5141C70.4188 62.086 70.3451 62.06 70.2931 62.008C70.2498 61.9473 70.2281 61.878 70.2281 61.8C70.2281 61.67 70.2758 61.5097 70.3711 61.319C70.4751 61.1283 70.6311 60.942 70.8391 60.76C71.0471 60.578 71.3114 60.4263 71.6321 60.305C71.9614 60.175 72.3601 60.11 72.8281 60.11C73.3481 60.11 73.7858 60.1793 74.1411 60.318C74.4964 60.448 74.7738 60.6257 74.9731 60.851C75.1811 61.0763 75.3284 61.332 75.4151 61.618C75.5104 61.904 75.5581 62.1943 75.5581 62.489V66.701C75.5581 66.7877 75.5278 66.8613 75.4671 66.922C75.4151 66.974 75.3458 67 75.2591 67H74.6611C74.5658 67 74.4921 66.974 74.4401 66.922C74.3881 66.8613 74.3621 66.7877 74.3621 66.701V66.142C74.2494 66.298 74.0978 66.454 73.9071 66.61C73.7164 66.7573 73.4781 66.883 73.1921 66.987C72.9061 67.0823 72.5551 67.13 72.1391 67.13ZM72.4121 66.155C72.7674 66.155 73.0924 66.0813 73.3871 65.934C73.6818 65.778 73.9114 65.5397 74.0761 65.219C74.2494 64.8983 74.3361 64.4953 74.3361 64.01V63.646L72.8281 63.867C72.2128 63.9537 71.7491 64.101 71.4371 64.309C71.1251 64.5083 70.9691 64.764 70.9691 65.076C70.9691 65.3187 71.0384 65.5223 71.1771 65.687C71.3244 65.843 71.5064 65.96 71.7231 66.038C71.9484 66.116 72.1781 66.155 72.4121 66.155ZM79.1169 67.13C78.5016 67.13 77.9686 67.013 77.5179 66.779C77.0759 66.5363 76.7336 66.194 76.4909 65.752C76.2483 65.3013 76.1183 64.764 76.1009 64.14C76.0923 64.01 76.0879 63.8367 76.0879 63.62C76.0879 63.4033 76.0923 63.23 76.1009 63.1C76.1183 62.476 76.2483 61.943 76.4909 61.501C76.7336 61.0503 77.0759 60.708 77.5179 60.474C77.9686 60.2313 78.5016 60.11 79.1169 60.11C79.6196 60.11 80.0486 60.1793 80.4039 60.318C80.7679 60.4567 81.0669 60.6343 81.3009 60.851C81.5349 61.0677 81.7083 61.3017 81.8209 61.553C81.9423 61.8043 82.0073 62.0427 82.0159 62.268C82.0246 62.3547 81.9986 62.424 81.9379 62.476C81.8773 62.528 81.8036 62.554 81.7169 62.554H81.0929C81.0063 62.554 80.9413 62.5367 80.8979 62.502C80.8546 62.4587 80.8113 62.3893 80.7679 62.294C80.6119 61.8693 80.3996 61.5703 80.1309 61.397C79.8623 61.2237 79.5286 61.137 79.1299 61.137C78.6099 61.137 78.1853 61.2973 77.8559 61.618C77.5353 61.9387 77.3619 62.4543 77.3359 63.165C77.3273 63.477 77.3273 63.7803 77.3359 64.075C77.3619 64.7943 77.5353 65.3143 77.8559 65.635C78.1853 65.947 78.6099 66.103 79.1299 66.103C79.5286 66.103 79.8623 66.0163 80.1309 65.843C80.3996 65.6697 80.6119 65.3707 80.7679 64.946C80.8113 64.8507 80.8546 64.7857 80.8979 64.751C80.9413 64.7077 81.0063 64.686 81.0929 64.686H81.7169C81.8036 64.686 81.8773 64.712 81.9379 64.764C81.9986 64.816 82.0246 64.8853 82.0159 64.972C82.0073 65.154 81.9683 65.3403 81.8989 65.531C81.8296 65.7217 81.7169 65.9167 81.5609 66.116C81.4136 66.3067 81.2273 66.48 81.0019 66.636C80.7766 66.7833 80.5036 66.9047 80.1829 67C79.8709 67.0867 79.5156 67.13 79.1169 67.13ZM82.8188 67C82.7321 67 82.6585 66.974 82.5978 66.922C82.5458 66.8613 82.5198 66.7877 82.5198 66.701V60.539C82.5198 60.4523 82.5458 60.383 82.5978 60.331C82.6585 60.2703 82.7321 60.24 82.8188 60.24H83.4428C83.5295 60.24 83.5988 60.2703 83.6508 60.331C83.7028 60.383 83.7288 60.4523 83.7288 60.539V66.701C83.7288 66.7877 83.7028 66.8613 83.6508 66.922C83.5988 66.974 83.5295 67 83.4428 67H82.8188ZM82.7148 58.979C82.6281 58.979 82.5545 58.953 82.4938 58.901C82.4418 58.8403 82.4158 58.7667 82.4158 58.68V57.978C82.4158 57.8913 82.4418 57.822 82.4938 57.77C82.5545 57.7093 82.6281 57.679 82.7148 57.679H83.5338C83.6205 57.679 83.6898 57.7093 83.7418 57.77C83.8025 57.822 83.8328 57.8913 83.8328 57.978V58.68C83.8328 58.7667 83.8025 58.8403 83.7418 58.901C83.6898 58.953 83.6205 58.979 83.5338 58.979H82.7148ZM87.3972 67.13C86.7386 67.13 86.1882 67.0043 85.7462 66.753C85.3042 66.5017 84.9662 66.155 84.7322 65.713C84.4982 65.2623 84.3682 64.751 84.3422 64.179C84.3336 64.0317 84.3292 63.8453 84.3292 63.62C84.3292 63.386 84.3336 63.1997 84.3422 63.061C84.3682 62.4803 84.4982 61.969 84.7322 61.527C84.9749 61.085 85.3172 60.7383 85.7592 60.487C86.2012 60.2357 86.7472 60.11 87.3972 60.11C88.0472 60.11 88.5932 60.2357 89.0352 60.487C89.4772 60.7383 89.8152 61.085 90.0492 61.527C90.2919 61.969 90.4262 62.4803 90.4522 63.061C90.4609 63.1997 90.4652 63.386 90.4652 63.62C90.4652 63.8453 90.4609 64.0317 90.4522 64.179C90.4262 64.751 90.2962 65.2623 90.0622 65.713C89.8282 66.155 89.4902 66.5017 89.0482 66.753C88.6062 67.0043 88.0559 67.13 87.3972 67.13ZM87.3972 66.129C87.9346 66.129 88.3636 65.96 88.6842 65.622C89.0049 65.2753 89.1782 64.7727 89.2042 64.114C89.2129 63.984 89.2172 63.8193 89.2172 63.62C89.2172 63.4207 89.2129 63.256 89.2042 63.126C89.1782 62.4673 89.0049 61.969 88.6842 61.631C88.3636 61.2843 87.9346 61.111 87.3972 61.111C86.8599 61.111 86.4266 61.2843 86.0972 61.631C85.7766 61.969 85.6076 62.4673 85.5902 63.126C85.5816 63.256 85.5772 63.4207 85.5772 63.62C85.5772 63.8193 85.5816 63.984 85.5902 64.114C85.6076 64.7727 85.7766 65.2753 86.0972 65.622C86.4266 65.96 86.8599 66.129 87.3972 66.129ZM87.0332 59.265C86.8946 59.265 86.8252 59.1957 86.8252 59.057C86.8252 58.9877 86.8469 58.9313 86.8902 58.888L87.8652 57.718C87.9432 57.6227 88.0126 57.562 88.0732 57.536C88.1339 57.5013 88.2249 57.484 88.3462 57.484H89.2302C89.3949 57.484 89.4772 57.5663 89.4772 57.731C89.4772 57.7917 89.4556 57.8437 89.4122 57.887L87.9042 59.122C87.8349 59.1827 87.7699 59.2217 87.7092 59.239C87.6486 59.2563 87.5706 59.265 87.4752 59.265H87.0332ZM91.3521 67C91.2654 67 91.1917 66.974 91.1311 66.922C91.0791 66.8613 91.0531 66.7877 91.0531 66.701V60.539C91.0531 60.4523 91.0791 60.383 91.1311 60.331C91.1917 60.2703 91.2654 60.24 91.3521 60.24H91.9631C92.0497 60.24 92.1191 60.2703 92.1711 60.331C92.2317 60.383 92.2621 60.4523 92.2621 60.539V61.111C92.4874 60.8163 92.7691 60.578 93.1071 60.396C93.4537 60.2053 93.8957 60.11 94.4331 60.11C94.9964 60.11 95.4731 60.2357 95.8631 60.487C96.2617 60.7297 96.5607 61.072 96.7601 61.514C96.9594 61.9473 97.0591 62.4543 97.0591 63.035V66.701C97.0591 66.7877 97.0331 66.8613 96.9811 66.922C96.9291 66.974 96.8597 67 96.7731 67H96.1231C96.0364 67 95.9627 66.974 95.9021 66.922C95.8501 66.8613 95.8241 66.7877 95.8241 66.701V63.1C95.8241 62.4933 95.6767 62.021 95.3821 61.683C95.0874 61.3363 94.6541 61.163 94.0821 61.163C93.5447 61.163 93.1114 61.3363 92.7821 61.683C92.4614 62.021 92.3011 62.4933 92.3011 63.1V66.701C92.3011 66.7877 92.2707 66.8613 92.2101 66.922C92.1581 66.974 92.0887 67 92.0021 67H91.3521Z" fill="#171B22"/>
<rect x="40.5" y="74" width="37" height="25" rx="12.5" fill="#D598E5"/>
<path d="M53.3417 91.14C52.6697 91.14 52.0864 91.0467 51.5917 90.86C51.097 90.664 50.6864 90.398 50.3597 90.062C50.0424 89.726 49.7997 89.334 49.6317 88.886C49.4637 88.438 49.3657 87.9573 49.3377 87.444C49.3284 87.192 49.319 86.9073 49.3097 86.59C49.3097 86.2633 49.3097 85.9367 49.3097 85.61C49.319 85.274 49.3284 84.9753 49.3377 84.714C49.3657 84.2007 49.4637 83.7247 49.6317 83.286C49.809 82.838 50.061 82.4507 50.3877 82.124C50.7237 81.788 51.1344 81.5267 51.6197 81.34C52.1144 81.1533 52.6884 81.06 53.3417 81.06C54.0044 81.06 54.5784 81.1533 55.0637 81.34C55.549 81.5267 55.955 81.788 56.2817 82.124C56.6177 82.4507 56.8744 82.838 57.0517 83.286C57.229 83.7247 57.327 84.2007 57.3457 84.714C57.3644 84.9753 57.3737 85.274 57.3737 85.61C57.383 85.9367 57.383 86.2633 57.3737 86.59C57.3737 86.9073 57.3644 87.192 57.3457 87.444C57.327 87.9573 57.229 88.438 57.0517 88.886C56.8837 89.334 56.6364 89.726 56.3097 90.062C55.9924 90.398 55.5864 90.664 55.0917 90.86C54.6064 91.0467 54.023 91.14 53.3417 91.14ZM53.3417 89.11C53.827 89.11 54.177 88.956 54.3917 88.648C54.6157 88.3307 54.7324 87.906 54.7417 87.374C54.7604 87.1033 54.7697 86.8187 54.7697 86.52C54.779 86.2213 54.779 85.9227 54.7697 85.624C54.7697 85.3253 54.7604 85.05 54.7417 84.798C54.7324 84.2847 54.6157 83.8693 54.3917 83.552C54.177 83.2347 53.827 83.0713 53.3417 83.062C52.8564 83.0713 52.5064 83.2347 52.2917 83.552C52.077 83.8693 51.9604 84.2847 51.9417 84.798C51.9324 85.05 51.923 85.3253 51.9137 85.624C51.9137 85.9227 51.9137 86.2213 51.9137 86.52C51.923 86.8187 51.9324 87.1033 51.9417 87.374C51.9604 87.906 52.0817 88.3307 52.3057 88.648C52.5297 88.956 52.875 89.11 53.3417 89.11ZM59.6793 91C59.4647 91 59.3573 90.9067 59.3573 90.72C59.3573 90.664 59.376 90.6127 59.4133 90.566L66.3293 81.466C66.3947 81.382 66.46 81.3167 66.5253 81.27C66.5907 81.2233 66.6887 81.2 66.8193 81.2H67.8133C68.028 81.2 68.1353 81.2933 68.1353 81.48C68.1353 81.536 68.1167 81.5873 68.0793 81.634L61.1633 90.734C61.098 90.818 61.0327 90.8833 60.9673 90.93C60.902 90.9767 60.804 91 60.6733 91H59.6793ZM66.7213 91.07C66.0867 91.07 65.578 90.902 65.1953 90.566C64.822 90.23 64.612 89.782 64.5653 89.222C64.556 88.9793 64.5513 88.7647 64.5513 88.578C64.5513 88.3913 64.556 88.1673 64.5653 87.906C64.6027 87.3367 64.8033 86.884 65.1673 86.548C65.5407 86.2027 66.0587 86.03 66.7213 86.03C67.3933 86.03 67.9113 86.2027 68.2753 86.548C68.6393 86.884 68.84 87.3367 68.8773 87.906C68.896 88.1673 68.9053 88.3913 68.9053 88.578C68.9053 88.7647 68.896 88.9793 68.8773 89.222C68.84 89.782 68.63 90.23 68.2473 90.566C67.8647 90.902 67.356 91.07 66.7213 91.07ZM66.7213 89.838C66.88 89.838 67.0013 89.8053 67.0853 89.74C67.1787 89.6747 67.2487 89.5907 67.2953 89.488C67.342 89.376 67.3653 89.2593 67.3653 89.138C67.384 88.9233 67.3933 88.7273 67.3933 88.55C67.3933 88.3727 67.384 88.1813 67.3653 87.976C67.356 87.7987 67.3047 87.64 67.2113 87.5C67.118 87.3507 66.9547 87.276 66.7213 87.276C66.488 87.276 66.3247 87.3507 66.2313 87.5C66.138 87.64 66.0867 87.7987 66.0773 87.976C66.068 88.1813 66.0633 88.3727 66.0633 88.55C66.0633 88.7273 66.068 88.9233 66.0773 89.138C66.0867 89.2593 66.11 89.376 66.1473 89.488C66.194 89.5907 66.264 89.6747 66.3573 89.74C66.4507 89.8053 66.572 89.838 66.7213 89.838ZM60.7993 86.142C60.1553 86.142 59.642 85.9787 59.2593 85.652C58.886 85.316 58.6807 84.868 58.6433 84.308C58.6247 84.0653 58.6153 83.8553 58.6153 83.678C58.6247 83.4913 58.634 83.2673 58.6433 83.006C58.6713 82.4367 58.8673 81.984 59.2313 81.648C59.6047 81.3027 60.1273 81.13 60.7993 81.13C61.4713 81.13 61.9893 81.3027 62.3533 81.648C62.7173 81.984 62.9133 82.4367 62.9413 83.006C62.96 83.2673 62.9693 83.4913 62.9693 83.678C62.9693 83.8553 62.96 84.0653 62.9413 84.308C62.9133 84.868 62.708 85.316 62.3253 85.652C61.9427 85.9787 61.434 86.142 60.7993 86.142ZM60.7993 84.938C60.9487 84.938 61.07 84.9053 61.1633 84.84C61.2567 84.7653 61.3267 84.6767 61.3733 84.574C61.42 84.462 61.4433 84.35 61.4433 84.238C61.462 84.0233 61.4713 83.8273 61.4713 83.65C61.4713 83.4727 61.462 83.2813 61.4433 83.076C61.434 82.8987 61.378 82.74 61.2753 82.6C61.182 82.4507 61.0233 82.376 60.7993 82.376C60.566 82.376 60.398 82.4507 60.2953 82.6C60.202 82.74 60.1507 82.8987 60.1413 83.076C60.132 83.2813 60.1273 83.4727 60.1273 83.65C60.1273 83.8273 60.132 84.0233 60.1413 84.238C60.1507 84.35 60.174 84.462 60.2113 84.574C60.258 84.6767 60.328 84.7653 60.4213 84.84C60.5147 84.9053 60.6407 84.938 60.7993 84.938Z" fill="white"/>
<g filter="url(#filter0_d_15958_19588)">
<rect x="88" y="14" width="32" height="32" rx="16" fill="white"/>
<rect x="87" y="13" width="34" height="34" rx="17" stroke="#1DA534" stroke-width="2"/>
<path opacity="0.4" d="M103.999 32.8398C104.485 32.8398 104.879 33.2338 104.879 33.7197C104.879 34.2057 104.485 34.5996 103.999 34.5996C103.513 34.5995 103.119 34.2057 103.119 33.7197C103.119 33.2338 103.513 32.8399 103.999 32.8398Z" fill="#1DA534" stroke="#1DA534" stroke-width="1.5"/>
<path d="M99.3496 28.1899H108.65C110.674 28.19 111.735 28.5109 112.332 29.1079C112.929 29.7049 113.25 30.7662 113.25 32.7896V34.6499C113.25 36.6735 112.929 37.7355 112.332 38.3325C111.735 38.9294 110.673 39.2495 108.65 39.2495H99.3496C97.3266 39.2495 96.265 38.9294 95.668 38.3325C95.0709 37.7355 94.75 36.6735 94.75 34.6499V32.7896C94.75 30.7662 95.0709 29.7049 95.668 29.1079C96.265 28.5109 97.3263 28.19 99.3496 28.1899ZM104 29.9497C101.914 29.9497 100.23 31.6476 100.23 33.7202C100.231 35.7927 101.914 37.4897 104 37.4897C106.086 37.4897 107.769 35.7927 107.77 33.7202C107.77 31.6476 106.086 29.9497 104 29.9497Z" fill="#1DA534" stroke="#1DA534" stroke-width="1.5"/>
<g opacity="0.4">
<mask id="path-14-inside-1_15958_19588" fill="white">
<path d="M99.1207 27.45V26.28C99.1207 23.35 99.9507 21.4 104.001 21.4C108.051 21.4 108.881 23.35 108.881 26.28V27.45C109.391 27.46 109.851 27.48 110.281 27.54V26.28C110.281 23.58 109.631 20 104.001 20C98.3707 20 97.7207 23.58 97.7207 26.28V27.53C98.1407 27.48 98.6107 27.45 99.1207 27.45Z"/>
</mask>
<path d="M99.1207 27.45V26.28C99.1207 23.35 99.9507 21.4 104.001 21.4C108.051 21.4 108.881 23.35 108.881 26.28V27.45C109.391 27.46 109.851 27.48 110.281 27.54V26.28C110.281 23.58 109.631 20 104.001 20C98.3707 20 97.7207 23.58 97.7207 26.28V27.53C98.1407 27.48 98.6107 27.45 99.1207 27.45Z" fill="#1DA534"/>
<path d="M99.1207 27.45V28.95H100.621V27.45H99.1207ZM108.881 27.45H107.381V28.9209L108.851 28.9497L108.881 27.45ZM110.281 27.54L110.073 29.0256L111.781 29.2638V27.54H110.281ZM110.281 26.28H108.781H110.281ZM97.7207 27.53H96.2207V29.2192L97.898 29.0195L97.7207 27.53ZM99.1207 27.45H100.621V26.28H99.1207H97.6207V27.45H99.1207ZM99.1207 26.28H100.621C100.621 24.8831 100.837 24.1294 101.193 23.7033C101.498 23.3385 102.182 22.9 104.001 22.9V21.4V19.9C101.769 19.9 100.014 20.4365 98.8911 21.7792C97.8198 23.0606 97.6207 24.7469 97.6207 26.28H99.1207ZM104.001 21.4V22.9C105.819 22.9 106.504 23.3385 106.809 23.7033C107.165 24.1294 107.381 24.8831 107.381 26.28H108.881H110.381C110.381 24.7469 110.182 23.0606 109.11 21.7792C107.988 20.4365 106.232 19.9 104.001 19.9V21.4ZM108.881 26.28H107.381V27.45H108.881H110.381V26.28H108.881ZM108.881 27.45L108.851 28.9497C109.349 28.9595 109.735 28.9785 110.073 29.0256L110.281 27.54L110.488 26.0544C109.966 25.9815 109.433 25.9605 108.91 25.9503L108.881 27.45ZM110.281 27.54H111.781V26.28H110.281H108.781V27.54H110.281ZM110.281 26.28H111.781C111.781 24.8668 111.625 22.8955 110.479 21.265C109.257 19.5254 107.156 18.5 104.001 18.5V20V21.5C106.475 21.5 107.515 22.2646 108.025 22.99C108.611 23.8245 108.781 24.9932 108.781 26.28H110.281ZM104.001 20V18.5C100.845 18.5 98.7449 19.5254 97.5222 21.265C96.3762 22.8955 96.2207 24.8668 96.2207 26.28H97.7207H99.2207C99.2207 24.9932 99.3902 23.8245 99.9767 22.99C100.487 22.2646 101.526 21.5 104.001 21.5V20ZM97.7207 26.28H96.2207V27.53H97.7207H99.2207V26.28H97.7207ZM97.7207 27.53L97.898 29.0195C98.2582 28.9766 98.669 28.95 99.1207 28.95V27.45V25.95C98.5524 25.95 98.0232 25.9834 97.5434 26.0405L97.7207 27.53Z" fill="#1DA534" mask="url(#path-14-inside-1_15958_19588)"/>
</g>
</g>
<defs>
<filter id="filter0_d_15958_19588" x="71" y="5" width="66" height="66" filterUnits="userSpaceOnUse" color-interpolation-filters="sRGB">
<feFlood flood-opacity="0" result="BackgroundImageFix"/>
<feColorMatrix in="SourceAlpha" type="matrix" values="0 0 0 0 0 0 0 0 0 0 0 0 0 0 0 0 0 0 127 0" result="hardAlpha"/>
<feOffset dy="8"/>
<feGaussianBlur stdDeviation="7.5"/>
<feColorMatrix type="matrix" values="0 0 0 0 0 0 0 0 0 0 0 0 0 0 0 0 0 0 0.25 0"/>
<feBlend mode="normal" in2="BackgroundImageFix" result="effect1_dropShadow_15958_19588"/>
<feBlend mode="normal" in="SourceGraphic" in2="effect1_dropShadow_15958_19588" result="shape"/>
</filter>
</defs>
</svg>
