<svg width="137" height="118" viewBox="0 0 137 118" fill="none" xmlns="http://www.w3.org/2000/svg">
<rect x="2" y="2" width="114" height="114" rx="57" fill="#E8F6EB"/>
<rect x="2" y="2" width="114" height="114" rx="57" stroke="#4AB75D" stroke-width="4"/>
<path opacity="0.4" d="M67.334 21.667C70.0954 21.667 72.334 23.9056 72.334 26.667V43.333C72.334 46.0944 70.0954 48.333 67.334 48.333H50.668C47.9065 48.333 45.668 46.0944 45.668 43.333V26.667C45.668 23.9056 47.9065 21.667 50.668 21.667H67.334ZM51.334 24.333C49.6774 24.3332 48.3342 25.6764 48.334 27.333V42.667C48.3342 44.3236 49.6774 45.6668 51.334 45.667H66.668C68.3246 45.6668 69.6678 44.3236 69.668 42.667V27.333C69.6678 25.6764 68.3246 24.3332 66.668 24.333H51.334Z" fill="#157525"/>
<circle cx="53" cy="31.6665" r="2" fill="#157525"/>
<circle cx="56" cy="31.6665" r="2" fill="#157525"/>
<circle cx="59" cy="31.6665" r="2" fill="#157525"/>
<rect x="48.334" y="30.9556" width="21.3333" height="1.42222" fill="#157525"/>
<circle cx="2" cy="2" r="2" transform="matrix(-1 0 0 1 67.002 36.3335)" fill="#157525"/>
<circle cx="2" cy="2" r="2" transform="matrix(-1 0 0 1 64.002 36.3335)" fill="#157525"/>
<circle cx="2" cy="2" r="2" transform="matrix(-1 0 0 1 61.002 36.3335)" fill="#157525"/>
<rect width="21.3333" height="1.42222" transform="matrix(-1 0 0 1 69.668 37.6221)" fill="#157525"/>
<path d="M27.9023 67C27.833 67 27.7723 66.974 27.7203 66.922C27.6683 66.87 27.6423 66.8093 27.6423 66.74C27.6423 66.6967 27.6467 66.649 27.6553 66.597L30.8793 58.186C30.914 58.0993 30.9617 58.03 31.0223 57.978C31.083 57.926 31.174 57.9 31.2953 57.9H32.1793C32.292 57.9 32.3787 57.926 32.4393 57.978C32.5087 58.03 32.5607 58.0993 32.5953 58.186L35.8063 66.597C35.8237 66.649 35.8323 66.6967 35.8323 66.74C35.8323 66.8093 35.8063 66.87 35.7543 66.922C35.7023 66.974 35.6417 67 35.5723 67H34.9093C34.8053 67 34.7273 66.974 34.6753 66.922C34.632 66.87 34.6017 66.8223 34.5843 66.779L33.8693 64.933H29.6053L28.8903 66.779C28.8817 66.8223 28.8513 66.87 28.7993 66.922C28.7473 66.974 28.6693 67 28.5653 67H27.9023ZM29.9823 63.815H33.4923L31.7373 59.2L29.9823 63.815ZM37.3523 67C37.2656 67 37.192 66.974 37.1313 66.922C37.0793 66.8613 37.0533 66.7877 37.0533 66.701V60.552C37.0533 60.4653 37.0793 60.3917 37.1313 60.331C37.192 60.2703 37.2656 60.24 37.3523 60.24H37.9503C38.037 60.24 38.1106 60.2703 38.1713 60.331C38.232 60.3917 38.2623 60.4653 38.2623 60.552V61.124C38.4356 60.8293 38.674 60.6083 38.9773 60.461C39.2806 60.3137 39.6446 60.24 40.0693 60.24H40.5893C40.676 60.24 40.7453 60.2703 40.7973 60.331C40.8493 60.383 40.8753 60.4523 40.8753 60.539V61.072C40.8753 61.1587 40.8493 61.228 40.7973 61.28C40.7453 61.332 40.676 61.358 40.5893 61.358H39.8093C39.3413 61.358 38.973 61.4967 38.7043 61.774C38.4356 62.0427 38.3013 62.411 38.3013 62.879V66.701C38.3013 66.7877 38.271 66.8613 38.2103 66.922C38.1496 66.974 38.076 67 37.9893 67H37.3523ZM42.2908 67C42.2041 67 42.1305 66.974 42.0698 66.922C42.0178 66.8613 41.9918 66.7877 41.9918 66.701V60.539C41.9918 60.4523 42.0178 60.383 42.0698 60.331C42.1305 60.2703 42.2041 60.24 42.2908 60.24H42.9148C43.0015 60.24 43.0708 60.2703 43.1228 60.331C43.1748 60.383 43.2008 60.4523 43.2008 60.539V66.701C43.2008 66.7877 43.1748 66.8613 43.1228 66.922C43.0708 66.974 43.0015 67 42.9148 67H42.2908ZM42.1868 58.979C42.1001 58.979 42.0265 58.953 41.9658 58.901C41.9138 58.8403 41.8878 58.7667 41.8878 58.68V57.978C41.8878 57.8913 41.9138 57.822 41.9658 57.77C42.0265 57.7093 42.1001 57.679 42.1868 57.679H43.0058C43.0925 57.679 43.1618 57.7093 43.2138 57.77C43.2745 57.822 43.3048 57.8913 43.3048 57.978V58.68C43.3048 58.7667 43.2745 58.8403 43.2138 58.901C43.1618 58.953 43.0925 58.979 43.0058 58.979H42.1868ZM47.7792 67C47.2939 67 46.8996 66.909 46.5962 66.727C46.2929 66.5363 46.0719 66.272 45.9332 65.934C45.7946 65.5873 45.7252 65.18 45.7252 64.712V61.28H44.7112C44.6246 61.28 44.5509 61.254 44.4902 61.202C44.4382 61.1413 44.4122 61.0677 44.4122 60.981V60.539C44.4122 60.4523 44.4382 60.383 44.4902 60.331C44.5509 60.2703 44.6246 60.24 44.7112 60.24H45.7252V58.069C45.7252 57.9823 45.7512 57.913 45.8032 57.861C45.8639 57.8003 45.9376 57.77 46.0242 57.77H46.6352C46.7219 57.77 46.7912 57.8003 46.8432 57.861C46.9039 57.913 46.9342 57.9823 46.9342 58.069V60.24H48.5462C48.6329 60.24 48.7022 60.2703 48.7542 60.331C48.8149 60.383 48.8452 60.4523 48.8452 60.539V60.981C48.8452 61.0677 48.8149 61.1413 48.7542 61.202C48.7022 61.254 48.6329 61.28 48.5462 61.28H46.9342V64.621C46.9342 65.0283 47.0036 65.349 47.1422 65.583C47.2809 65.817 47.5279 65.934 47.8832 65.934H48.6762C48.7629 65.934 48.8322 65.9643 48.8842 66.025C48.9449 66.077 48.9752 66.1463 48.9752 66.233V66.701C48.9752 66.7877 48.9449 66.8613 48.8842 66.922C48.8322 66.974 48.7629 67 48.6762 67H47.7792ZM50.5173 67C50.4307 67 50.357 66.974 50.2963 66.922C50.2443 66.8613 50.2183 66.7877 50.2183 66.701V60.539C50.2183 60.4523 50.2443 60.383 50.2963 60.331C50.357 60.2703 50.4307 60.24 50.5173 60.24H51.1023C51.189 60.24 51.2583 60.2703 51.3103 60.331C51.371 60.383 51.4013 60.4523 51.4013 60.539V60.994C51.6007 60.7253 51.852 60.513 52.1553 60.357C52.4587 60.1923 52.8227 60.11 53.2473 60.11C54.2267 60.1013 54.92 60.5 55.3273 61.306C55.5267 60.942 55.817 60.6517 56.1983 60.435C56.5797 60.2183 57.013 60.11 57.4983 60.11C57.949 60.11 58.3563 60.214 58.7203 60.422C59.093 60.63 59.3833 60.9463 59.5913 61.371C59.808 61.787 59.9163 62.3113 59.9163 62.944V66.701C59.9163 66.7877 59.886 66.8613 59.8253 66.922C59.7733 66.974 59.704 67 59.6173 67H59.0063C58.9197 67 58.846 66.974 58.7853 66.922C58.7333 66.8613 58.7073 66.7877 58.7073 66.701V63.061C58.7073 62.5757 58.638 62.1943 58.4993 61.917C58.3607 61.6397 58.1743 61.4447 57.9403 61.332C57.7063 61.2193 57.4507 61.163 57.1733 61.163C56.948 61.163 56.7183 61.2193 56.4843 61.332C56.2503 61.4447 56.0553 61.6397 55.8993 61.917C55.752 62.1943 55.6783 62.5757 55.6783 63.061V66.701C55.6783 66.7877 55.648 66.8613 55.5873 66.922C55.5353 66.974 55.466 67 55.3793 67H54.7683C54.6817 67 54.608 66.974 54.5473 66.922C54.4953 66.8613 54.4693 66.7877 54.4693 66.701V63.061C54.4693 62.5757 54.3957 62.1943 54.2483 61.917C54.101 61.6397 53.9103 61.4447 53.6763 61.332C53.4423 61.2193 53.1953 61.163 52.9353 61.163C52.71 61.163 52.4803 61.2193 52.2463 61.332C52.0123 61.4447 51.8173 61.6397 51.6613 61.917C51.514 62.1943 51.4403 62.5713 51.4403 63.048V66.701C51.4403 66.7877 51.41 66.8613 51.3493 66.922C51.2973 66.974 51.228 67 51.1413 67H50.5173ZM64.4621 67.13C63.5694 67.13 62.8587 66.857 62.3301 66.311C61.8014 65.7563 61.5111 65.0023 61.4591 64.049C61.4504 63.9363 61.4461 63.7933 61.4461 63.62C61.4461 63.438 61.4504 63.2907 61.4591 63.178C61.4937 62.5627 61.6367 62.0253 61.8881 61.566C62.1394 61.098 62.4817 60.7383 62.9151 60.487C63.3571 60.2357 63.8727 60.11 64.4621 60.11C65.1207 60.11 65.6711 60.2487 66.1131 60.526C66.5637 60.8033 66.9061 61.1977 67.1401 61.709C67.3741 62.2203 67.4911 62.8183 67.4911 63.503V63.724C67.4911 63.8193 67.4607 63.893 67.4001 63.945C67.3481 63.997 67.2787 64.023 67.1921 64.023H62.6941C62.6941 64.0317 62.6941 64.049 62.6941 64.075C62.6941 64.101 62.6941 64.1227 62.6941 64.14C62.7114 64.4953 62.7894 64.829 62.9281 65.141C63.0667 65.4443 63.2661 65.6913 63.5261 65.882C63.7861 66.0727 64.0981 66.168 64.4621 66.168C64.7741 66.168 65.0341 66.1203 65.2421 66.025C65.4501 65.9297 65.6191 65.8257 65.7491 65.713C65.8791 65.5917 65.9657 65.5007 66.0091 65.44C66.0871 65.3273 66.1477 65.2623 66.1911 65.245C66.2344 65.219 66.3037 65.206 66.3991 65.206H67.0231C67.1097 65.206 67.1791 65.232 67.2311 65.284C67.2917 65.3273 67.3177 65.3923 67.3091 65.479C67.3004 65.609 67.2311 65.7693 67.1011 65.96C66.9711 66.142 66.7847 66.324 66.5421 66.506C66.2994 66.688 66.0047 66.8397 65.6581 66.961C65.3114 67.0737 64.9127 67.13 64.4621 67.13ZM62.6941 63.126H66.2561V63.087C66.2561 62.697 66.1824 62.3503 66.0351 62.047C65.8964 61.7437 65.6927 61.5053 65.4241 61.332C65.1554 61.15 64.8347 61.059 64.4621 61.059C64.0894 61.059 63.7687 61.15 63.5001 61.332C63.2401 61.5053 63.0407 61.7437 62.9021 62.047C62.7634 62.3503 62.6941 62.697 62.6941 63.087V63.126ZM64.1111 59.265C63.9724 59.265 63.9031 59.1957 63.9031 59.057C63.9031 58.9877 63.9247 58.9313 63.9681 58.888L64.9431 57.718C65.0211 57.6227 65.0904 57.562 65.1511 57.536C65.2117 57.5013 65.3027 57.484 65.4241 57.484H66.3081C66.4727 57.484 66.5551 57.5663 66.5551 57.731C66.5551 57.7917 66.5334 57.8437 66.4901 57.887L64.9821 59.122C64.9127 59.1827 64.8477 59.2217 64.7871 59.239C64.7264 59.2563 64.6484 59.265 64.5531 59.265H64.1111ZM71.6464 67C71.1611 67 70.7667 66.909 70.4634 66.727C70.1601 66.5363 69.9391 66.272 69.8004 65.934C69.6617 65.5873 69.5924 65.18 69.5924 64.712V61.28H68.5784C68.4917 61.28 68.4181 61.254 68.3574 61.202C68.3054 61.1413 68.2794 61.0677 68.2794 60.981V60.539C68.2794 60.4523 68.3054 60.383 68.3574 60.331C68.4181 60.2703 68.4917 60.24 68.5784 60.24H69.5924V58.069C69.5924 57.9823 69.6184 57.913 69.6704 57.861C69.7311 57.8003 69.8047 57.77 69.8914 57.77H70.5024C70.5891 57.77 70.6584 57.8003 70.7104 57.861C70.7711 57.913 70.8014 57.9823 70.8014 58.069V60.24H72.4134C72.5001 60.24 72.5694 60.2703 72.6214 60.331C72.6821 60.383 72.7124 60.4523 72.7124 60.539V60.981C72.7124 61.0677 72.6821 61.1413 72.6214 61.202C72.5694 61.254 72.5001 61.28 72.4134 61.28H70.8014V64.621C70.8014 65.0283 70.8707 65.349 71.0094 65.583C71.1481 65.817 71.3951 65.934 71.7504 65.934H72.5434C72.6301 65.934 72.6994 65.9643 72.7514 66.025C72.8121 66.077 72.8424 66.1463 72.8424 66.233V66.701C72.8424 66.7877 72.8121 66.8613 72.7514 66.922C72.6994 66.974 72.6301 67 72.5434 67H71.6464ZM74.3845 67C74.2979 67 74.2242 66.974 74.1635 66.922C74.1115 66.8613 74.0855 66.7877 74.0855 66.701V60.539C74.0855 60.4523 74.1115 60.383 74.1635 60.331C74.2242 60.2703 74.2979 60.24 74.3845 60.24H75.0085C75.0952 60.24 75.1645 60.2703 75.2165 60.331C75.2685 60.383 75.2945 60.4523 75.2945 60.539V66.701C75.2945 66.7877 75.2685 66.8613 75.2165 66.922C75.1645 66.974 75.0952 67 75.0085 67H74.3845ZM74.2805 58.979C74.1939 58.979 74.1202 58.953 74.0595 58.901C74.0075 58.8403 73.9815 58.7667 73.9815 58.68V57.978C73.9815 57.8913 74.0075 57.822 74.0595 57.77C74.1202 57.7093 74.1939 57.679 74.2805 57.679H75.0995C75.1862 57.679 75.2555 57.7093 75.3075 57.77C75.3682 57.822 75.3985 57.8913 75.3985 57.978V58.68C75.3985 58.7667 75.3682 58.8403 75.3075 58.901C75.2555 58.953 75.1862 58.979 75.0995 58.979H74.2805ZM79.964 67.13C79.3486 67.13 78.8156 67.013 78.365 66.779C77.923 66.5363 77.5806 66.194 77.338 65.752C77.0953 65.3013 76.9653 64.764 76.948 64.14C76.9393 64.01 76.935 63.8367 76.935 63.62C76.935 63.4033 76.9393 63.23 76.948 63.1C76.9653 62.476 77.0953 61.943 77.338 61.501C77.5806 61.0503 77.923 60.708 78.365 60.474C78.8156 60.2313 79.3486 60.11 79.964 60.11C80.4666 60.11 80.8956 60.1793 81.251 60.318C81.615 60.4567 81.914 60.6343 82.148 60.851C82.382 61.0677 82.5553 61.3017 82.668 61.553C82.7893 61.8043 82.8543 62.0427 82.863 62.268C82.8716 62.3547 82.8456 62.424 82.785 62.476C82.7243 62.528 82.6506 62.554 82.564 62.554H81.94C81.8533 62.554 81.7883 62.5367 81.745 62.502C81.7016 62.4587 81.6583 62.3893 81.615 62.294C81.459 61.8693 81.2466 61.5703 80.978 61.397C80.7093 61.2237 80.3756 61.137 79.977 61.137C79.457 61.137 79.0323 61.2973 78.703 61.618C78.3823 61.9387 78.209 62.4543 78.183 63.165C78.1743 63.477 78.1743 63.7803 78.183 64.075C78.209 64.7943 78.3823 65.3143 78.703 65.635C79.0323 65.947 79.457 66.103 79.977 66.103C80.3756 66.103 80.7093 66.0163 80.978 65.843C81.2466 65.6697 81.459 65.3707 81.615 64.946C81.6583 64.8507 81.7016 64.7857 81.745 64.751C81.7883 64.7077 81.8533 64.686 81.94 64.686H82.564C82.6506 64.686 82.7243 64.712 82.785 64.764C82.8456 64.816 82.8716 64.8853 82.863 64.972C82.8543 65.154 82.8153 65.3403 82.746 65.531C82.6766 65.7217 82.564 65.9167 82.408 66.116C82.2606 66.3067 82.0743 66.48 81.849 66.636C81.6236 66.7833 81.3506 66.9047 81.03 67C80.718 67.0867 80.3626 67.13 79.964 67.13ZM86.2918 67.13C85.8585 67.13 85.4642 67.0433 85.1088 66.87C84.7535 66.6967 84.4675 66.4627 84.2508 66.168C84.0342 65.8733 83.9258 65.5397 83.9258 65.167C83.9258 64.569 84.1685 64.0923 84.6538 63.737C85.1392 63.3817 85.7718 63.1477 86.5518 63.035L88.4888 62.762V62.385C88.4888 61.969 88.3675 61.644 88.1248 61.41C87.8908 61.176 87.5052 61.059 86.9678 61.059C86.5778 61.059 86.2615 61.137 86.0188 61.293C85.7848 61.449 85.6202 61.6483 85.5248 61.891C85.4728 62.021 85.3818 62.086 85.2518 62.086H84.6668C84.5715 62.086 84.4978 62.06 84.4458 62.008C84.4025 61.9473 84.3808 61.878 84.3808 61.8C84.3808 61.67 84.4285 61.5097 84.5238 61.319C84.6278 61.1283 84.7838 60.942 84.9918 60.76C85.1998 60.578 85.4642 60.4263 85.7848 60.305C86.1142 60.175 86.5128 60.11 86.9808 60.11C87.5008 60.11 87.9385 60.1793 88.2938 60.318C88.6492 60.448 88.9265 60.6257 89.1258 60.851C89.3338 61.0763 89.4812 61.332 89.5678 61.618C89.6632 61.904 89.7108 62.1943 89.7108 62.489V66.701C89.7108 66.7877 89.6805 66.8613 89.6198 66.922C89.5678 66.974 89.4985 67 89.4118 67H88.8138C88.7185 67 88.6448 66.974 88.5928 66.922C88.5408 66.8613 88.5148 66.7877 88.5148 66.701V66.142C88.4022 66.298 88.2505 66.454 88.0598 66.61C87.8692 66.7573 87.6308 66.883 87.3448 66.987C87.0588 67.0823 86.7078 67.13 86.2918 67.13ZM86.5648 66.155C86.9202 66.155 87.2452 66.0813 87.5398 65.934C87.8345 65.778 88.0642 65.5397 88.2288 65.219C88.4022 64.8983 88.4888 64.4953 88.4888 64.01V63.646L86.9808 63.867C86.3655 63.9537 85.9018 64.101 85.5898 64.309C85.2778 64.5083 85.1218 64.764 85.1218 65.076C85.1218 65.3187 85.1912 65.5223 85.3298 65.687C85.4772 65.843 85.6592 65.96 85.8758 66.038C86.1012 66.116 86.3308 66.155 86.5648 66.155Z" fill="#171B22"/>
<rect x="40.5" y="74" width="37" height="25" rx="12.5" fill="#157525"/>
<path d="M53.3417 91.14C52.6697 91.14 52.0864 91.0467 51.5917 90.86C51.097 90.664 50.6864 90.398 50.3597 90.062C50.0424 89.726 49.7997 89.334 49.6317 88.886C49.4637 88.438 49.3657 87.9573 49.3377 87.444C49.3284 87.192 49.319 86.9073 49.3097 86.59C49.3097 86.2633 49.3097 85.9367 49.3097 85.61C49.319 85.274 49.3284 84.9753 49.3377 84.714C49.3657 84.2007 49.4637 83.7247 49.6317 83.286C49.809 82.838 50.061 82.4507 50.3877 82.124C50.7237 81.788 51.1344 81.5267 51.6197 81.34C52.1144 81.1533 52.6884 81.06 53.3417 81.06C54.0044 81.06 54.5784 81.1533 55.0637 81.34C55.549 81.5267 55.955 81.788 56.2817 82.124C56.6177 82.4507 56.8744 82.838 57.0517 83.286C57.229 83.7247 57.327 84.2007 57.3457 84.714C57.3644 84.9753 57.3737 85.274 57.3737 85.61C57.383 85.9367 57.383 86.2633 57.3737 86.59C57.3737 86.9073 57.3644 87.192 57.3457 87.444C57.327 87.9573 57.229 88.438 57.0517 88.886C56.8837 89.334 56.6364 89.726 56.3097 90.062C55.9924 90.398 55.5864 90.664 55.0917 90.86C54.6064 91.0467 54.023 91.14 53.3417 91.14ZM53.3417 89.11C53.827 89.11 54.177 88.956 54.3917 88.648C54.6157 88.3307 54.7324 87.906 54.7417 87.374C54.7604 87.1033 54.7697 86.8187 54.7697 86.52C54.779 86.2213 54.779 85.9227 54.7697 85.624C54.7697 85.3253 54.7604 85.05 54.7417 84.798C54.7324 84.2847 54.6157 83.8693 54.3917 83.552C54.177 83.2347 53.827 83.0713 53.3417 83.062C52.8564 83.0713 52.5064 83.2347 52.2917 83.552C52.077 83.8693 51.9604 84.2847 51.9417 84.798C51.9324 85.05 51.923 85.3253 51.9137 85.624C51.9137 85.9227 51.9137 86.2213 51.9137 86.52C51.923 86.8187 51.9324 87.1033 51.9417 87.374C51.9604 87.906 52.0817 88.3307 52.3057 88.648C52.5297 88.956 52.875 89.11 53.3417 89.11ZM59.6793 91C59.4647 91 59.3573 90.9067 59.3573 90.72C59.3573 90.664 59.376 90.6127 59.4133 90.566L66.3293 81.466C66.3947 81.382 66.46 81.3167 66.5253 81.27C66.5907 81.2233 66.6887 81.2 66.8193 81.2H67.8133C68.028 81.2 68.1353 81.2933 68.1353 81.48C68.1353 81.536 68.1167 81.5873 68.0793 81.634L61.1633 90.734C61.098 90.818 61.0327 90.8833 60.9673 90.93C60.902 90.9767 60.804 91 60.6733 91H59.6793ZM66.7213 91.07C66.0867 91.07 65.578 90.902 65.1953 90.566C64.822 90.23 64.612 89.782 64.5653 89.222C64.556 88.9793 64.5513 88.7647 64.5513 88.578C64.5513 88.3913 64.556 88.1673 64.5653 87.906C64.6027 87.3367 64.8033 86.884 65.1673 86.548C65.5407 86.2027 66.0587 86.03 66.7213 86.03C67.3933 86.03 67.9113 86.2027 68.2753 86.548C68.6393 86.884 68.84 87.3367 68.8773 87.906C68.896 88.1673 68.9053 88.3913 68.9053 88.578C68.9053 88.7647 68.896 88.9793 68.8773 89.222C68.84 89.782 68.63 90.23 68.2473 90.566C67.8647 90.902 67.356 91.07 66.7213 91.07ZM66.7213 89.838C66.88 89.838 67.0013 89.8053 67.0853 89.74C67.1787 89.6747 67.2487 89.5907 67.2953 89.488C67.342 89.376 67.3653 89.2593 67.3653 89.138C67.384 88.9233 67.3933 88.7273 67.3933 88.55C67.3933 88.3727 67.384 88.1813 67.3653 87.976C67.356 87.7987 67.3047 87.64 67.2113 87.5C67.118 87.3507 66.9547 87.276 66.7213 87.276C66.488 87.276 66.3247 87.3507 66.2313 87.5C66.138 87.64 66.0867 87.7987 66.0773 87.976C66.068 88.1813 66.0633 88.3727 66.0633 88.55C66.0633 88.7273 66.068 88.9233 66.0773 89.138C66.0867 89.2593 66.11 89.376 66.1473 89.488C66.194 89.5907 66.264 89.6747 66.3573 89.74C66.4507 89.8053 66.572 89.838 66.7213 89.838ZM60.7993 86.142C60.1553 86.142 59.642 85.9787 59.2593 85.652C58.886 85.316 58.6807 84.868 58.6433 84.308C58.6247 84.0653 58.6153 83.8553 58.6153 83.678C58.6247 83.4913 58.634 83.2673 58.6433 83.006C58.6713 82.4367 58.8673 81.984 59.2313 81.648C59.6047 81.3027 60.1273 81.13 60.7993 81.13C61.4713 81.13 61.9893 81.3027 62.3533 81.648C62.7173 81.984 62.9133 82.4367 62.9413 83.006C62.96 83.2673 62.9693 83.4913 62.9693 83.678C62.9693 83.8553 62.96 84.0653 62.9413 84.308C62.9133 84.868 62.708 85.316 62.3253 85.652C61.9427 85.9787 61.434 86.142 60.7993 86.142ZM60.7993 84.938C60.9487 84.938 61.07 84.9053 61.1633 84.84C61.2567 84.7653 61.3267 84.6767 61.3733 84.574C61.42 84.462 61.4433 84.35 61.4433 84.238C61.462 84.0233 61.4713 83.8273 61.4713 83.65C61.4713 83.4727 61.462 83.2813 61.4433 83.076C61.434 82.8987 61.378 82.74 61.2753 82.6C61.182 82.4507 61.0233 82.376 60.7993 82.376C60.566 82.376 60.398 82.4507 60.2953 82.6C60.202 82.74 60.1507 82.8987 60.1413 83.076C60.132 83.2813 60.1273 83.4727 60.1273 83.65C60.1273 83.8273 60.132 84.0233 60.1413 84.238C60.1507 84.35 60.174 84.462 60.2113 84.574C60.258 84.6767 60.328 84.7653 60.4213 84.84C60.5147 84.9053 60.6407 84.938 60.7993 84.938Z" fill="white"/>
<g filter="url(#filter0_d_15958_19606)">
<rect x="88" y="14" width="32" height="32" rx="16" fill="white"/>
<rect x="87" y="13" width="34" height="34" rx="17" stroke="#1DA534" stroke-width="2"/>
<path opacity="0.4" d="M104 40C109.523 40 114 35.5228 114 30C114 24.4772 109.523 20 104 20C98.4772 20 94 24.4772 94 30C94 35.5228 98.4772 40 104 40Z" fill="#1DA534"/>
<path d="M102.579 33.5801C102.379 33.5801 102.189 33.5001 102.049 33.3601L99.2195 30.5301C98.9295 30.2401 98.9295 29.7601 99.2195 29.4701C99.5095 29.1801 99.9895 29.1801 100.279 29.4701L102.579 31.7701L107.719 26.6301C108.009 26.3401 108.489 26.3401 108.779 26.6301C109.069 26.9201 109.069 27.4001 108.779 27.6901L103.109 33.3601C102.969 33.5001 102.779 33.5801 102.579 33.5801Z" fill="#1DA534"/>
</g>
<defs>
<filter id="filter0_d_15958_19606" x="71" y="5" width="66" height="66" filterUnits="userSpaceOnUse" color-interpolation-filters="sRGB">
<feFlood flood-opacity="0" result="BackgroundImageFix"/>
<feColorMatrix in="SourceAlpha" type="matrix" values="0 0 0 0 0 0 0 0 0 0 0 0 0 0 0 0 0 0 127 0" result="hardAlpha"/>
<feOffset dy="8"/>
<feGaussianBlur stdDeviation="7.5"/>
<feColorMatrix type="matrix" values="0 0 0 0 0 0 0 0 0 0 0 0 0 0 0 0 0 0 0.25 0"/>
<feBlend mode="normal" in2="BackgroundImageFix" result="effect1_dropShadow_15958_19606"/>
<feBlend mode="normal" in="SourceGraphic" in2="effect1_dropShadow_15958_19606" result="shape"/>
</filter>
</defs>
</svg>
