<svg width="137" height="118" viewBox="0 0 137 118" fill="none" xmlns="http://www.w3.org/2000/svg">
<rect x="2" y="2" width="114" height="114" rx="57" fill="white"/>
<rect x="2" y="2" width="114" height="114" rx="57" stroke="#DEE2E6" stroke-width="4"/>
<g clip-path="url(#clip0_15958_19598)">
<path d="M50.5235 37.8593C51.1159 36.3798 51.6958 34.9356 52.2732 33.4905C53.3484 30.8007 54.4245 28.1109 55.4944 25.4193C55.6153 25.1148 55.7981 24.9771 56.1406 24.9771C61.3277 24.985 66.5158 24.9823 71.7029 24.9823C72.192 24.9823 72.3323 25.1254 72.3323 25.6188C72.3323 26.2341 72.3323 26.8485 72.3323 27.4638C72.3323 27.9343 72.1867 28.08 71.71 28.08C67.177 28.08 62.6439 28.0826 58.1118 28.0747C57.8682 28.0747 57.7596 28.1435 57.6678 28.3748C55.558 33.6679 53.4376 38.9566 51.3216 44.247C51.2395 44.4527 51.1618 44.6575 50.9234 44.7272C50.6736 44.8005 50.4573 44.6831 50.3099 44.3882C49.5763 42.9246 48.8436 41.4592 48.1118 39.9947C47.6793 39.1305 47.2405 38.2689 46.8212 37.3976C46.7338 37.2149 46.6349 37.1434 46.4407 37.1681C46.3339 37.1813 46.22 37.1822 46.115 37.1619C45.8581 37.1133 45.6736 36.9774 45.6718 36.6896C45.6674 35.9658 45.6657 35.2419 45.6727 34.518C45.6754 34.2399 45.8713 34.0528 46.1785 34.0484C46.883 34.0378 47.5866 34.0431 48.291 34.0457C48.5505 34.0466 48.7006 34.2002 48.8101 34.4218C49.3698 35.5517 49.9356 36.679 50.5244 37.8593H50.5235Z" fill="#F27430"/>
<path opacity="0.4" d="M65.296 38.8207C65.8971 39.4201 66.493 40.0133 67.088 40.6074C67.4543 40.9737 67.4543 41.1953 67.0924 41.5573C66.6572 41.9916 66.2237 42.4277 65.7868 42.8585C65.4752 43.1657 65.2553 43.1657 64.9481 42.8611C64.3999 42.3164 63.8482 41.7735 63.3106 41.2183C63.1579 41.0603 63.0705 41.0294 62.901 41.2077C62.3731 41.7594 61.8249 42.2908 61.2829 42.8276C60.9315 43.1754 60.7276 43.1745 60.3789 42.8276C59.9367 42.3862 59.4944 41.9457 59.0548 41.5025C58.7511 41.1962 58.752 40.979 59.061 40.6674C59.6259 40.0963 60.1891 39.5242 60.7629 38.9628C60.883 38.8445 60.8812 38.7862 60.7621 38.6697C60.1944 38.1153 59.6374 37.5521 59.0769 36.9898C58.7458 36.6579 58.7467 36.4469 59.0795 36.1115C59.5191 35.6674 59.9587 35.2243 60.4001 34.7829C60.7144 34.4695 60.9466 34.4686 61.2635 34.7829C61.8267 35.3417 62.3908 35.8987 62.9425 36.4681C63.0749 36.604 63.1402 36.5934 63.2656 36.4637C63.8182 35.8952 64.3805 35.3364 64.942 34.7758C65.2474 34.4713 65.4805 34.4686 65.7832 34.7679C66.2273 35.2075 66.6669 35.6507 67.1083 36.0929C67.4481 36.4337 67.4508 36.6614 67.1153 36.9986C66.5142 37.6025 65.9112 38.2045 65.296 38.8198V38.8207Z" fill="#F27430"/>
</g>
<path d="M36.1987 67C36.1294 67 36.0687 66.974 36.0167 66.922C35.9647 66.87 35.9387 66.8093 35.9387 66.74C35.9387 66.6967 35.943 66.649 35.9517 66.597L39.1757 58.186C39.2104 58.0993 39.258 58.03 39.3187 57.978C39.3794 57.926 39.4704 57.9 39.5917 57.9H40.4757C40.5884 57.9 40.675 57.926 40.7357 57.978C40.805 58.03 40.857 58.0993 40.8917 58.186L44.1027 66.597C44.12 66.649 44.1287 66.6967 44.1287 66.74C44.1287 66.8093 44.1027 66.87 44.0507 66.922C43.9987 66.974 43.938 67 43.8687 67H43.2057C43.1017 67 43.0237 66.974 42.9717 66.922C42.9284 66.87 42.898 66.8223 42.8807 66.779L42.1657 64.933H37.9017L37.1867 66.779C37.178 66.8223 37.1477 66.87 37.0957 66.922C37.0437 66.974 36.9657 67 36.8617 67H36.1987ZM38.2787 63.815H41.7887L40.0337 59.2L38.2787 63.815ZM39.6827 57.25C39.544 57.25 39.4747 57.1807 39.4747 57.042C39.4747 56.9727 39.4964 56.9163 39.5397 56.873L40.5147 55.703C40.5927 55.6077 40.662 55.547 40.7227 55.521C40.7834 55.4863 40.8744 55.469 40.9957 55.469H41.9577C42.1224 55.469 42.2047 55.5513 42.2047 55.716C42.2047 55.7767 42.183 55.8287 42.1397 55.872L40.6317 57.107C40.5624 57.1677 40.4974 57.2067 40.4367 57.224C40.376 57.2413 40.298 57.25 40.2027 57.25H39.6827ZM45.6617 67C45.575 67 45.5014 66.974 45.4407 66.922C45.3887 66.8613 45.3627 66.7877 45.3627 66.701V58.069C45.3627 57.9823 45.3887 57.913 45.4407 57.861C45.5014 57.8003 45.575 57.77 45.6617 57.77H46.2727C46.368 57.77 46.4417 57.8003 46.4937 57.861C46.5457 57.913 46.5717 57.9823 46.5717 58.069V66.701C46.5717 66.7877 46.5457 66.8613 46.4937 66.922C46.4417 66.974 46.368 67 46.2727 67H45.6617ZM51.2798 69.86C50.6905 69.86 50.2052 69.782 49.8238 69.626C49.4512 69.47 49.1565 69.2793 48.9398 69.054C48.7318 68.8373 48.5802 68.6163 48.4848 68.391C48.3982 68.1743 48.3505 68.001 48.3418 67.871C48.3332 67.7843 48.3592 67.7107 48.4198 67.65C48.4892 67.5893 48.5628 67.559 48.6408 67.559H49.2648C49.3428 67.559 49.4078 67.5763 49.4598 67.611C49.5118 67.6457 49.5552 67.7193 49.5898 67.832C49.6418 67.962 49.7198 68.105 49.8238 68.261C49.9278 68.4257 50.0882 68.5643 50.3048 68.677C50.5215 68.7983 50.8248 68.859 51.2148 68.859C51.6222 68.859 51.9645 68.8027 52.2418 68.69C52.5192 68.586 52.7272 68.3953 52.8658 68.118C53.0132 67.8493 53.0868 67.4767 53.0868 67V66.116C52.8788 66.3847 52.6058 66.61 52.2678 66.792C51.9298 66.9653 51.5052 67.052 50.9938 67.052C50.5085 67.052 50.0925 66.9697 49.7458 66.805C49.3992 66.6317 49.1132 66.402 48.8878 66.116C48.6712 65.8213 48.5065 65.4877 48.3938 65.115C48.2898 64.7423 48.2292 64.3523 48.2118 63.945C48.2032 63.7023 48.2032 63.464 48.2118 63.23C48.2292 62.8227 48.2898 62.4327 48.3938 62.06C48.5065 61.6873 48.6712 61.3537 48.8878 61.059C49.1132 60.7643 49.3992 60.5347 49.7458 60.37C50.0925 60.1967 50.5085 60.11 50.9938 60.11C51.5138 60.11 51.9428 60.2097 52.2808 60.409C52.6275 60.5997 52.9092 60.8337 53.1258 61.111V60.552C53.1258 60.4653 53.1518 60.3917 53.2038 60.331C53.2645 60.2703 53.3382 60.24 53.4248 60.24H54.0228C54.1095 60.24 54.1832 60.2703 54.2438 60.331C54.3045 60.3917 54.3348 60.4653 54.3348 60.552V66.857C54.3348 67.4377 54.2352 67.9533 54.0358 68.404C53.8452 68.8547 53.5245 69.21 53.0738 69.47C52.6318 69.73 52.0338 69.86 51.2798 69.86ZM51.2538 66.012C51.6872 66.012 52.0338 65.9123 52.2938 65.713C52.5625 65.5137 52.7575 65.2623 52.8788 64.959C53.0088 64.6557 53.0782 64.348 53.0868 64.036C53.0955 63.9147 53.0998 63.7673 53.0998 63.594C53.0998 63.412 53.0955 63.2603 53.0868 63.139C53.0782 62.827 53.0088 62.5193 52.8788 62.216C52.7575 61.9127 52.5625 61.6613 52.2938 61.462C52.0338 61.2627 51.6872 61.163 51.2538 61.163C50.8205 61.163 50.4738 61.2627 50.2138 61.462C49.9538 61.6527 49.7675 61.9083 49.6548 62.229C49.5422 62.541 49.4772 62.879 49.4598 63.243C49.4512 63.4683 49.4512 63.698 49.4598 63.932C49.4772 64.296 49.5422 64.6383 49.6548 64.959C49.7675 65.271 49.9538 65.5267 50.2138 65.726C50.4738 65.9167 50.8205 66.012 51.2538 66.012ZM58.9587 67.13C58.066 67.13 57.3553 66.857 56.8267 66.311C56.298 65.7563 56.0077 65.0023 55.9557 64.049C55.947 63.9363 55.9427 63.7933 55.9427 63.62C55.9427 63.438 55.947 63.2907 55.9557 63.178C55.9903 62.5627 56.1333 62.0253 56.3847 61.566C56.636 61.098 56.9783 60.7383 57.4117 60.487C57.8537 60.2357 58.3693 60.11 58.9587 60.11C59.6173 60.11 60.1677 60.2487 60.6097 60.526C61.0603 60.8033 61.4027 61.1977 61.6367 61.709C61.8707 62.2203 61.9877 62.8183 61.9877 63.503V63.724C61.9877 63.8193 61.9573 63.893 61.8967 63.945C61.8447 63.997 61.7753 64.023 61.6887 64.023H57.1907C57.1907 64.0317 57.1907 64.049 57.1907 64.075C57.1907 64.101 57.1907 64.1227 57.1907 64.14C57.208 64.4953 57.286 64.829 57.4247 65.141C57.5633 65.4443 57.7627 65.6913 58.0227 65.882C58.2827 66.0727 58.5947 66.168 58.9587 66.168C59.2707 66.168 59.5307 66.1203 59.7387 66.025C59.9467 65.9297 60.1157 65.8257 60.2457 65.713C60.3757 65.5917 60.4623 65.5007 60.5057 65.44C60.5837 65.3273 60.6443 65.2623 60.6877 65.245C60.731 65.219 60.8003 65.206 60.8957 65.206H61.5197C61.6063 65.206 61.6757 65.232 61.7277 65.284C61.7883 65.3273 61.8143 65.3923 61.8057 65.479C61.797 65.609 61.7277 65.7693 61.5977 65.96C61.4677 66.142 61.2813 66.324 61.0387 66.506C60.796 66.688 60.5013 66.8397 60.1547 66.961C59.808 67.0737 59.4093 67.13 58.9587 67.13ZM57.1907 63.126H60.7527V63.087C60.7527 62.697 60.679 62.3503 60.5317 62.047C60.393 61.7437 60.1893 61.5053 59.9207 61.332C59.652 61.15 59.3313 61.059 58.9587 61.059C58.586 61.059 58.2653 61.15 57.9967 61.332C57.7367 61.5053 57.5373 61.7437 57.3987 62.047C57.26 62.3503 57.1907 62.697 57.1907 63.087V63.126ZM66.8831 67.13C66.3631 67.13 65.9297 67.039 65.5831 66.857C65.2364 66.6663 64.9591 66.4323 64.7511 66.155V66.701C64.7511 66.7877 64.7207 66.8613 64.6601 66.922C64.6081 66.974 64.5387 67 64.4521 67H63.8541C63.7674 67 63.6937 66.974 63.6331 66.922C63.5811 66.8613 63.5551 66.7877 63.5551 66.701V58.069C63.5551 57.9823 63.5811 57.913 63.6331 57.861C63.6937 57.8003 63.7674 57.77 63.8541 57.77H64.4781C64.5734 57.77 64.6471 57.8003 64.6991 57.861C64.7511 57.913 64.7771 57.9823 64.7771 58.069V61.059C64.9937 60.7903 65.2711 60.565 65.6091 60.383C65.9557 60.201 66.3804 60.11 66.8831 60.11C67.3684 60.11 67.7801 60.1967 68.1181 60.37C68.4647 60.5347 68.7464 60.7643 68.9631 61.059C69.1884 61.3537 69.3574 61.6873 69.4701 62.06C69.5827 62.4327 69.6434 62.8227 69.6521 63.23C69.6607 63.3687 69.6651 63.4987 69.6651 63.62C69.6651 63.7413 69.6607 63.8713 69.6521 64.01C69.6434 64.426 69.5827 64.8203 69.4701 65.193C69.3574 65.5657 69.1884 65.8993 68.9631 66.194C68.7464 66.48 68.4647 66.7097 68.1181 66.883C67.7801 67.0477 67.3684 67.13 66.8831 67.13ZM66.6101 66.077C67.0607 66.077 67.4117 65.9817 67.6631 65.791C67.9231 65.5917 68.1094 65.336 68.2221 65.024C68.3347 64.7033 68.3997 64.361 68.4171 63.997C68.4257 63.7457 68.4257 63.4943 68.4171 63.243C68.3997 62.879 68.3347 62.541 68.2221 62.229C68.1094 61.9083 67.9231 61.6527 67.6631 61.462C67.4117 61.2627 67.0607 61.163 66.6101 61.163C66.2027 61.163 65.8647 61.2583 65.5961 61.449C65.3274 61.6397 65.1237 61.8823 64.9851 62.177C64.8551 62.4717 64.7857 62.7707 64.7771 63.074C64.7684 63.2127 64.7641 63.3817 64.7641 63.581C64.7641 63.7717 64.7684 63.9363 64.7771 64.075C64.7944 64.3957 64.8637 64.712 64.9851 65.024C65.1151 65.3273 65.3101 65.5787 65.5701 65.778C65.8387 65.9773 66.1854 66.077 66.6101 66.077ZM71.5725 67C71.4859 67 71.4122 66.974 71.3515 66.922C71.2995 66.8613 71.2735 66.7877 71.2735 66.701V60.552C71.2735 60.4653 71.2995 60.3917 71.3515 60.331C71.4122 60.2703 71.4859 60.24 71.5725 60.24H72.1705C72.2572 60.24 72.3309 60.2703 72.3915 60.331C72.4522 60.3917 72.4825 60.4653 72.4825 60.552V61.124C72.6559 60.8293 72.8942 60.6083 73.1975 60.461C73.5009 60.3137 73.8649 60.24 74.2895 60.24H74.8095C74.8962 60.24 74.9655 60.2703 75.0175 60.331C75.0695 60.383 75.0955 60.4523 75.0955 60.539V61.072C75.0955 61.1587 75.0695 61.228 75.0175 61.28C74.9655 61.332 74.8962 61.358 74.8095 61.358H74.0295C73.5615 61.358 73.1932 61.4967 72.9245 61.774C72.6559 62.0427 72.5215 62.411 72.5215 62.879V66.701C72.5215 66.7877 72.4912 66.8613 72.4305 66.922C72.3699 66.974 72.2962 67 72.2095 67H71.5725ZM77.9954 67.13C77.5621 67.13 77.1678 67.0433 76.8124 66.87C76.4571 66.6967 76.1711 66.4627 75.9544 66.168C75.7378 65.8733 75.6294 65.5397 75.6294 65.167C75.6294 64.569 75.8721 64.0923 76.3574 63.737C76.8428 63.3817 77.4754 63.1477 78.2554 63.035L80.1924 62.762V62.385C80.1924 61.969 80.0711 61.644 79.8284 61.41C79.5944 61.176 79.2088 61.059 78.6714 61.059C78.2814 61.059 77.9651 61.137 77.7224 61.293C77.4884 61.449 77.3238 61.6483 77.2284 61.891C77.1764 62.021 77.0854 62.086 76.9554 62.086H76.3704C76.2751 62.086 76.2014 62.06 76.1494 62.008C76.1061 61.9473 76.0844 61.878 76.0844 61.8C76.0844 61.67 76.1321 61.5097 76.2274 61.319C76.3314 61.1283 76.4874 60.942 76.6954 60.76C76.9034 60.578 77.1678 60.4263 77.4884 60.305C77.8178 60.175 78.2164 60.11 78.6844 60.11C79.2044 60.11 79.6421 60.1793 79.9974 60.318C80.3528 60.448 80.6301 60.6257 80.8294 60.851C81.0374 61.0763 81.1848 61.332 81.2714 61.618C81.3668 61.904 81.4144 62.1943 81.4144 62.489V66.701C81.4144 66.7877 81.3841 66.8613 81.3234 66.922C81.2714 66.974 81.2021 67 81.1154 67H80.5174C80.4221 67 80.3484 66.974 80.2964 66.922C80.2444 66.8613 80.2184 66.7877 80.2184 66.701V66.142C80.1058 66.298 79.9541 66.454 79.7634 66.61C79.5728 66.7573 79.3344 66.883 79.0484 66.987C78.7624 67.0823 78.4114 67.13 77.9954 67.13ZM78.2684 66.155C78.6238 66.155 78.9488 66.0813 79.2434 65.934C79.5381 65.778 79.7678 65.5397 79.9324 65.219C80.1058 64.8983 80.1924 64.4953 80.1924 64.01V63.646L78.6844 63.867C78.0691 63.9537 77.6054 64.101 77.2934 64.309C76.9814 64.5083 76.8254 64.764 76.8254 65.076C76.8254 65.3187 76.8948 65.5223 77.0334 65.687C77.1808 65.843 77.3628 65.96 77.5794 66.038C77.8048 66.116 78.0344 66.155 78.2684 66.155Z" fill="#171B22"/>
<rect x="40.5" y="74" width="37" height="25" rx="12.5" fill="#F27430"/>
<path d="M53.3417 91.14C52.6697 91.14 52.0864 91.0467 51.5917 90.86C51.097 90.664 50.6864 90.398 50.3597 90.062C50.0424 89.726 49.7997 89.334 49.6317 88.886C49.4637 88.438 49.3657 87.9573 49.3377 87.444C49.3284 87.192 49.319 86.9073 49.3097 86.59C49.3097 86.2633 49.3097 85.9367 49.3097 85.61C49.319 85.274 49.3284 84.9753 49.3377 84.714C49.3657 84.2007 49.4637 83.7247 49.6317 83.286C49.809 82.838 50.061 82.4507 50.3877 82.124C50.7237 81.788 51.1344 81.5267 51.6197 81.34C52.1144 81.1533 52.6884 81.06 53.3417 81.06C54.0044 81.06 54.5784 81.1533 55.0637 81.34C55.549 81.5267 55.955 81.788 56.2817 82.124C56.6177 82.4507 56.8744 82.838 57.0517 83.286C57.229 83.7247 57.327 84.2007 57.3457 84.714C57.3644 84.9753 57.3737 85.274 57.3737 85.61C57.383 85.9367 57.383 86.2633 57.3737 86.59C57.3737 86.9073 57.3644 87.192 57.3457 87.444C57.327 87.9573 57.229 88.438 57.0517 88.886C56.8837 89.334 56.6364 89.726 56.3097 90.062C55.9924 90.398 55.5864 90.664 55.0917 90.86C54.6064 91.0467 54.023 91.14 53.3417 91.14ZM53.3417 89.11C53.827 89.11 54.177 88.956 54.3917 88.648C54.6157 88.3307 54.7324 87.906 54.7417 87.374C54.7604 87.1033 54.7697 86.8187 54.7697 86.52C54.779 86.2213 54.779 85.9227 54.7697 85.624C54.7697 85.3253 54.7604 85.05 54.7417 84.798C54.7324 84.2847 54.6157 83.8693 54.3917 83.552C54.177 83.2347 53.827 83.0713 53.3417 83.062C52.8564 83.0713 52.5064 83.2347 52.2917 83.552C52.077 83.8693 51.9604 84.2847 51.9417 84.798C51.9324 85.05 51.923 85.3253 51.9137 85.624C51.9137 85.9227 51.9137 86.2213 51.9137 86.52C51.923 86.8187 51.9324 87.1033 51.9417 87.374C51.9604 87.906 52.0817 88.3307 52.3057 88.648C52.5297 88.956 52.875 89.11 53.3417 89.11ZM59.6793 91C59.4647 91 59.3573 90.9067 59.3573 90.72C59.3573 90.664 59.376 90.6127 59.4133 90.566L66.3293 81.466C66.3947 81.382 66.46 81.3167 66.5253 81.27C66.5907 81.2233 66.6887 81.2 66.8193 81.2H67.8133C68.028 81.2 68.1353 81.2933 68.1353 81.48C68.1353 81.536 68.1167 81.5873 68.0793 81.634L61.1633 90.734C61.098 90.818 61.0327 90.8833 60.9673 90.93C60.902 90.9767 60.804 91 60.6733 91H59.6793ZM66.7213 91.07C66.0867 91.07 65.578 90.902 65.1953 90.566C64.822 90.23 64.612 89.782 64.5653 89.222C64.556 88.9793 64.5513 88.7647 64.5513 88.578C64.5513 88.3913 64.556 88.1673 64.5653 87.906C64.6027 87.3367 64.8033 86.884 65.1673 86.548C65.5407 86.2027 66.0587 86.03 66.7213 86.03C67.3933 86.03 67.9113 86.2027 68.2753 86.548C68.6393 86.884 68.84 87.3367 68.8773 87.906C68.896 88.1673 68.9053 88.3913 68.9053 88.578C68.9053 88.7647 68.896 88.9793 68.8773 89.222C68.84 89.782 68.63 90.23 68.2473 90.566C67.8647 90.902 67.356 91.07 66.7213 91.07ZM66.7213 89.838C66.88 89.838 67.0013 89.8053 67.0853 89.74C67.1787 89.6747 67.2487 89.5907 67.2953 89.488C67.342 89.376 67.3653 89.2593 67.3653 89.138C67.384 88.9233 67.3933 88.7273 67.3933 88.55C67.3933 88.3727 67.384 88.1813 67.3653 87.976C67.356 87.7987 67.3047 87.64 67.2113 87.5C67.118 87.3507 66.9547 87.276 66.7213 87.276C66.488 87.276 66.3247 87.3507 66.2313 87.5C66.138 87.64 66.0867 87.7987 66.0773 87.976C66.068 88.1813 66.0633 88.3727 66.0633 88.55C66.0633 88.7273 66.068 88.9233 66.0773 89.138C66.0867 89.2593 66.11 89.376 66.1473 89.488C66.194 89.5907 66.264 89.6747 66.3573 89.74C66.4507 89.8053 66.572 89.838 66.7213 89.838ZM60.7993 86.142C60.1553 86.142 59.642 85.9787 59.2593 85.652C58.886 85.316 58.6807 84.868 58.6433 84.308C58.6247 84.0653 58.6153 83.8553 58.6153 83.678C58.6247 83.4913 58.634 83.2673 58.6433 83.006C58.6713 82.4367 58.8673 81.984 59.2313 81.648C59.6047 81.3027 60.1273 81.13 60.7993 81.13C61.4713 81.13 61.9893 81.3027 62.3533 81.648C62.7173 81.984 62.9133 82.4367 62.9413 83.006C62.96 83.2673 62.9693 83.4913 62.9693 83.678C62.9693 83.8553 62.96 84.0653 62.9413 84.308C62.9133 84.868 62.708 85.316 62.3253 85.652C61.9427 85.9787 61.434 86.142 60.7993 86.142ZM60.7993 84.938C60.9487 84.938 61.07 84.9053 61.1633 84.84C61.2567 84.7653 61.3267 84.6767 61.3733 84.574C61.42 84.462 61.4433 84.35 61.4433 84.238C61.462 84.0233 61.4713 83.8273 61.4713 83.65C61.4713 83.4727 61.462 83.2813 61.4433 83.076C61.434 82.8987 61.378 82.74 61.2753 82.6C61.182 82.4507 61.0233 82.376 60.7993 82.376C60.566 82.376 60.398 82.4507 60.2953 82.6C60.202 82.74 60.1507 82.8987 60.1413 83.076C60.132 83.2813 60.1273 83.4727 60.1273 83.65C60.1273 83.8273 60.132 84.0233 60.1413 84.238C60.1507 84.35 60.174 84.462 60.2113 84.574C60.258 84.6767 60.328 84.7653 60.4213 84.84C60.5147 84.9053 60.6407 84.938 60.7993 84.938Z" fill="white"/>
<g filter="url(#filter0_d_15958_19598)">
<rect x="88" y="14" width="32" height="32" rx="16" fill="white"/>
<rect x="87" y="13" width="34" height="34" rx="17" stroke="#1DA534" stroke-width="2"/>
<path opacity="0.4" d="M103.999 32.8398C104.485 32.8398 104.879 33.2338 104.879 33.7197C104.879 34.2057 104.485 34.5996 103.999 34.5996C103.513 34.5995 103.119 34.2057 103.119 33.7197C103.119 33.2338 103.513 32.8399 103.999 32.8398Z" fill="#1DA534" stroke="#1DA534" stroke-width="1.5"/>
<path d="M99.3496 28.1899H108.65C110.674 28.19 111.735 28.5109 112.332 29.1079C112.929 29.7049 113.25 30.7662 113.25 32.7896V34.6499C113.25 36.6735 112.929 37.7355 112.332 38.3325C111.735 38.9294 110.673 39.2495 108.65 39.2495H99.3496C97.3266 39.2495 96.265 38.9294 95.668 38.3325C95.0709 37.7355 94.75 36.6735 94.75 34.6499V32.7896C94.75 30.7662 95.0709 29.7049 95.668 29.1079C96.265 28.5109 97.3263 28.19 99.3496 28.1899ZM104 29.9497C101.914 29.9497 100.23 31.6476 100.23 33.7202C100.231 35.7927 101.914 37.4897 104 37.4897C106.086 37.4897 107.769 35.7927 107.77 33.7202C107.77 31.6476 106.086 29.9497 104 29.9497Z" fill="#1DA534" stroke="#1DA534" stroke-width="1.5"/>
<g opacity="0.4">
<mask id="path-11-inside-1_15958_19598" fill="white">
<path d="M99.1207 27.45V26.28C99.1207 23.35 99.9507 21.4 104.001 21.4C108.051 21.4 108.881 23.35 108.881 26.28V27.45C109.391 27.46 109.851 27.48 110.281 27.54V26.28C110.281 23.58 109.631 20 104.001 20C98.3707 20 97.7207 23.58 97.7207 26.28V27.53C98.1407 27.48 98.6107 27.45 99.1207 27.45Z"/>
</mask>
<path d="M99.1207 27.45V26.28C99.1207 23.35 99.9507 21.4 104.001 21.4C108.051 21.4 108.881 23.35 108.881 26.28V27.45C109.391 27.46 109.851 27.48 110.281 27.54V26.28C110.281 23.58 109.631 20 104.001 20C98.3707 20 97.7207 23.58 97.7207 26.28V27.53C98.1407 27.48 98.6107 27.45 99.1207 27.45Z" fill="#1DA534"/>
<path d="M99.1207 27.45V28.95H100.621V27.45H99.1207ZM108.881 27.45H107.381V28.9209L108.851 28.9497L108.881 27.45ZM110.281 27.54L110.073 29.0256L111.781 29.2638V27.54H110.281ZM110.281 26.28H108.781H110.281ZM97.7207 27.53H96.2207V29.2192L97.898 29.0195L97.7207 27.53ZM99.1207 27.45H100.621V26.28H99.1207H97.6207V27.45H99.1207ZM99.1207 26.28H100.621C100.621 24.8831 100.837 24.1294 101.193 23.7033C101.498 23.3385 102.182 22.9 104.001 22.9V21.4V19.9C101.769 19.9 100.014 20.4365 98.8911 21.7792C97.8198 23.0606 97.6207 24.7469 97.6207 26.28H99.1207ZM104.001 21.4V22.9C105.819 22.9 106.504 23.3385 106.809 23.7033C107.165 24.1294 107.381 24.8831 107.381 26.28H108.881H110.381C110.381 24.7469 110.182 23.0606 109.11 21.7792C107.988 20.4365 106.232 19.9 104.001 19.9V21.4ZM108.881 26.28H107.381V27.45H108.881H110.381V26.28H108.881ZM108.881 27.45L108.851 28.9497C109.349 28.9595 109.735 28.9785 110.073 29.0256L110.281 27.54L110.488 26.0544C109.966 25.9815 109.433 25.9605 108.91 25.9503L108.881 27.45ZM110.281 27.54H111.781V26.28H110.281H108.781V27.54H110.281ZM110.281 26.28H111.781C111.781 24.8668 111.625 22.8955 110.479 21.265C109.257 19.5254 107.156 18.5 104.001 18.5V20V21.5C106.475 21.5 107.515 22.2646 108.025 22.99C108.611 23.8245 108.781 24.9932 108.781 26.28H110.281ZM104.001 20V18.5C100.845 18.5 98.7449 19.5254 97.5222 21.265C96.3762 22.8955 96.2207 24.8668 96.2207 26.28H97.7207H99.2207C99.2207 24.9932 99.3902 23.8245 99.9767 22.99C100.487 22.2646 101.526 21.5 104.001 21.5V20ZM97.7207 26.28H96.2207V27.53H97.7207H99.2207V26.28H97.7207ZM97.7207 27.53L97.898 29.0195C98.2582 28.9766 98.669 28.95 99.1207 28.95V27.45V25.95C98.5524 25.95 98.0232 25.9834 97.5434 26.0405L97.7207 27.53Z" fill="#1DA534" mask="url(#path-11-inside-1_15958_19598)"/>
</g>
</g>
<defs>
<filter id="filter0_d_15958_19598" x="71" y="5" width="66" height="66" filterUnits="userSpaceOnUse" color-interpolation-filters="sRGB">
<feFlood flood-opacity="0" result="BackgroundImageFix"/>
<feColorMatrix in="SourceAlpha" type="matrix" values="0 0 0 0 0 0 0 0 0 0 0 0 0 0 0 0 0 0 127 0" result="hardAlpha"/>
<feOffset dy="8"/>
<feGaussianBlur stdDeviation="7.5"/>
<feColorMatrix type="matrix" values="0 0 0 0 0 0 0 0 0 0 0 0 0 0 0 0 0 0 0.25 0"/>
<feBlend mode="normal" in2="BackgroundImageFix" result="effect1_dropShadow_15958_19598"/>
<feBlend mode="normal" in="SourceGraphic" in2="effect1_dropShadow_15958_19598" result="shape"/>
</filter>
<clipPath id="clip0_15958_19598">
<rect width="26.6667" height="19.7714" fill="white" transform="translate(45.666 24.9771)"/>
</clipPath>
</defs>
</svg>
