<svg width="137" height="118" viewBox="0 0 137 118" fill="none" xmlns="http://www.w3.org/2000/svg">
<rect x="2" y="2" width="114" height="114" rx="57" fill="white"/>
<rect x="2" y="2" width="114" height="114" rx="57" stroke="#DEE2E6" stroke-width="4"/>
<g clip-path="url(#clip0_15958_19602)">
<mask id="mask0_15958_19602" style="mask-type:luminance" maskUnits="userSpaceOnUse" x="43" y="19" width="32" height="32">
<path d="M75 19H43V51H75V19Z" fill="white"/>
</mask>
<g mask="url(#mask0_15958_19602)">
<path d="M72.2809 35.7734H72.2676" stroke="#85401A" stroke-width="1.5" stroke-linecap="round" stroke-linejoin="round"/>
<path d="M45.734 40.333H45.7207" stroke="#85401A" stroke-width="1.5" stroke-linecap="round" stroke-linejoin="round"/>
<path d="M73.2404 35.5332V35.4932C73.1737 35.2265 73.0671 34.9865 72.9471 34.7998C71.8271 32.8932 67.6537 25.8265 67.6537 25.8265C67.6537 25.8132 67.6271 25.7998 67.6137 25.7865C67.5337 25.6665 67.4404 25.5732 67.3204 25.5065C67.3071 25.5065 67.2937 25.4798 67.2804 25.4665C67.1471 25.3998 67.0004 25.3598 66.8404 25.3465C66.8271 25.3465 66.8004 25.3332 66.7871 25.3332C66.7471 25.3332 66.7204 25.3598 66.6804 25.3598C66.6271 25.3598 66.5604 25.3598 66.5071 25.3732L58.9071 27.5998V23.6665C58.9071 23.1198 58.4537 22.6665 57.9071 22.6665C57.3604 22.6665 56.9071 23.1198 56.9071 23.6665V28.1865L50.9604 29.9332C50.7071 29.9998 50.5204 30.1732 50.3871 30.3865V30.4398L45.0938 39.3198C44.9204 39.5865 44.8271 39.8532 44.7871 40.0532V40.0798V40.1065C44.7071 40.3998 44.6671 40.6932 44.6938 40.9598C44.8938 44.4665 47.7071 47.2132 51.2938 47.3465C54.8138 47.2265 57.6137 44.4798 57.8004 40.9732C57.8137 40.6798 57.8004 40.3865 57.7204 40.1198V40.0932V40.0532C57.6537 39.8398 57.5604 39.6132 57.4137 39.3598L52.7738 31.5065L64.6537 28.0265L60.6271 34.8398C60.5337 35.0265 60.4271 35.2398 60.3604 35.4932C60.3604 35.4932 60.3604 35.5065 60.3604 35.5198V35.5732C60.3604 35.5732 60.3604 35.5732 60.3604 35.5865C60.2937 35.8532 60.2671 36.1332 60.2804 36.4132C60.4671 39.9332 63.2804 42.6665 66.8804 42.7998C70.4004 42.6798 73.2004 39.9332 73.3871 36.4265C73.4004 36.1465 73.3737 35.8665 73.2937 35.5732L73.2404 35.5332ZM47.4004 39.3332L51.2271 32.8532L55.0538 39.3332H47.4004ZM66.7737 28.2932C67.8137 30.0398 69.5337 32.9732 70.5871 34.7732H62.9471L66.7737 28.2932Z" fill="#85401A"/>
</g>
</g>
<path d="M34.9886 67C34.8933 67 34.8196 66.974 34.7676 66.922C34.7156 66.8613 34.6896 66.7877 34.6896 66.701V58.212C34.6896 58.1167 34.7156 58.043 34.7676 57.991C34.8196 57.9303 34.8933 57.9 34.9886 57.9H37.9396C38.8323 57.9 39.5516 58.0343 40.0976 58.303C40.6436 58.5717 41.0423 58.9703 41.2936 59.499C41.5449 60.019 41.6749 60.6603 41.6836 61.423C41.6923 61.813 41.6966 62.1553 41.6966 62.45C41.6966 62.7447 41.6923 63.0827 41.6836 63.464C41.6663 64.2613 41.5319 64.9243 41.2806 65.453C41.0379 65.973 40.6479 66.363 40.1106 66.623C39.5819 66.8743 38.8799 67 38.0046 67H34.9886ZM35.9636 65.895H37.9396C38.5376 65.895 39.0143 65.8127 39.3696 65.648C39.7249 65.4833 39.9806 65.219 40.1366 64.855C40.3013 64.491 40.3879 64.01 40.3966 63.412C40.4139 63.152 40.4226 62.9267 40.4226 62.736C40.4226 62.5367 40.4226 62.3417 40.4226 62.151C40.4226 61.9517 40.4139 61.7263 40.3966 61.475C40.3793 60.6343 40.1799 60.0147 39.7986 59.616C39.4173 59.2087 38.7759 59.005 37.8746 59.005H35.9636V65.895ZM46.1745 67.13C45.2818 67.13 44.5712 66.857 44.0425 66.311C43.5138 65.7563 43.2235 65.0023 43.1715 64.049C43.1628 63.9363 43.1585 63.7933 43.1585 63.62C43.1585 63.438 43.1628 63.2907 43.1715 63.178C43.2062 62.5627 43.3492 62.0253 43.6005 61.566C43.8518 61.098 44.1942 60.7383 44.6275 60.487C45.0695 60.2357 45.5852 60.11 46.1745 60.11C46.8332 60.11 47.3835 60.2487 47.8255 60.526C48.2762 60.8033 48.6185 61.1977 48.8525 61.709C49.0865 62.2203 49.2035 62.8183 49.2035 63.503V63.724C49.2035 63.8193 49.1732 63.893 49.1125 63.945C49.0605 63.997 48.9912 64.023 48.9045 64.023H44.4065C44.4065 64.0317 44.4065 64.049 44.4065 64.075C44.4065 64.101 44.4065 64.1227 44.4065 64.14C44.4238 64.4953 44.5018 64.829 44.6405 65.141C44.7792 65.4443 44.9785 65.6913 45.2385 65.882C45.4985 66.0727 45.8105 66.168 46.1745 66.168C46.4865 66.168 46.7465 66.1203 46.9545 66.025C47.1625 65.9297 47.3315 65.8257 47.4615 65.713C47.5915 65.5917 47.6782 65.5007 47.7215 65.44C47.7995 65.3273 47.8602 65.2623 47.9035 65.245C47.9468 65.219 48.0162 65.206 48.1115 65.206H48.7355C48.8222 65.206 48.8915 65.232 48.9435 65.284C49.0042 65.3273 49.0302 65.3923 49.0215 65.479C49.0128 65.609 48.9435 65.7693 48.8135 65.96C48.6835 66.142 48.4972 66.324 48.2545 66.506C48.0118 66.688 47.7172 66.8397 47.3705 66.961C47.0238 67.0737 46.6252 67.13 46.1745 67.13ZM44.4065 63.126H47.9685V63.087C47.9685 62.697 47.8948 62.3503 47.7475 62.047C47.6088 61.7437 47.4052 61.5053 47.1365 61.332C46.8678 61.15 46.5472 61.059 46.1745 61.059C45.8018 61.059 45.4812 61.15 45.2125 61.332C44.9525 61.5053 44.7532 61.7437 44.6145 62.047C44.4758 62.3503 44.4065 62.697 44.4065 63.087V63.126ZM51.0569 67C50.9702 67 50.8966 66.974 50.8359 66.922C50.7839 66.8613 50.7579 66.7877 50.7579 66.701V60.552C50.7579 60.4653 50.7839 60.3917 50.8359 60.331C50.8966 60.2703 50.9702 60.24 51.0569 60.24H51.6549C51.7416 60.24 51.8152 60.2703 51.8759 60.331C51.9366 60.3917 51.9669 60.4653 51.9669 60.552V61.124C52.1402 60.8293 52.3786 60.6083 52.6819 60.461C52.9852 60.3137 53.3492 60.24 53.7739 60.24H54.2939C54.3806 60.24 54.4499 60.2703 54.5019 60.331C54.5539 60.383 54.5799 60.4523 54.5799 60.539V61.072C54.5799 61.1587 54.5539 61.228 54.5019 61.28C54.4499 61.332 54.3806 61.358 54.2939 61.358H53.5139C53.0459 61.358 52.6776 61.4967 52.4089 61.774C52.1402 62.0427 52.0059 62.411 52.0059 62.879V66.701C52.0059 66.7877 51.9756 66.8613 51.9149 66.922C51.8542 66.974 51.7806 67 51.6939 67H51.0569ZM58.2604 67.13C57.3678 67.13 56.6571 66.857 56.1284 66.311C55.5998 65.7563 55.3094 65.0023 55.2574 64.049C55.2488 63.9363 55.2444 63.7933 55.2444 63.62C55.2444 63.438 55.2488 63.2907 55.2574 63.178C55.2921 62.5627 55.4351 62.0253 55.6864 61.566C55.9378 61.098 56.2801 60.7383 56.7134 60.487C57.1554 60.2357 57.6711 60.11 58.2604 60.11C58.9191 60.11 59.4694 60.2487 59.9114 60.526C60.3621 60.8033 60.7044 61.1977 60.9384 61.709C61.1724 62.2203 61.2894 62.8183 61.2894 63.503V63.724C61.2894 63.8193 61.2591 63.893 61.1984 63.945C61.1464 63.997 61.0771 64.023 60.9904 64.023H56.4924C56.4924 64.0317 56.4924 64.049 56.4924 64.075C56.4924 64.101 56.4924 64.1227 56.4924 64.14C56.5098 64.4953 56.5878 64.829 56.7264 65.141C56.8651 65.4443 57.0644 65.6913 57.3244 65.882C57.5844 66.0727 57.8964 66.168 58.2604 66.168C58.5724 66.168 58.8324 66.1203 59.0404 66.025C59.2484 65.9297 59.4174 65.8257 59.5474 65.713C59.6774 65.5917 59.7641 65.5007 59.8074 65.44C59.8854 65.3273 59.9461 65.2623 59.9894 65.245C60.0328 65.219 60.1021 65.206 60.1974 65.206H60.8214C60.9081 65.206 60.9774 65.232 61.0294 65.284C61.0901 65.3273 61.1161 65.3923 61.1074 65.479C61.0988 65.609 61.0294 65.7693 60.8994 65.96C60.7694 66.142 60.5831 66.324 60.3404 66.506C60.0978 66.688 59.8031 66.8397 59.4564 66.961C59.1098 67.0737 58.7111 67.13 58.2604 67.13ZM56.4924 63.126H60.0544V63.087C60.0544 62.697 59.9808 62.3503 59.8334 62.047C59.6948 61.7437 59.4911 61.5053 59.2224 61.332C58.9538 61.15 58.6331 61.059 58.2604 61.059C57.8878 61.059 57.5671 61.15 57.2984 61.332C57.0384 61.5053 56.8391 61.7437 56.7004 62.047C56.5618 62.3503 56.4924 62.697 56.4924 63.087V63.126ZM65.5738 67.13C64.9585 67.13 64.4255 67.013 63.9748 66.779C63.5328 66.5363 63.1905 66.194 62.9478 65.752C62.7052 65.3013 62.5752 64.764 62.5578 64.14C62.5492 64.01 62.5448 63.8367 62.5448 63.62C62.5448 63.4033 62.5492 63.23 62.5578 63.1C62.5752 62.476 62.7052 61.943 62.9478 61.501C63.1905 61.0503 63.5328 60.708 63.9748 60.474C64.4255 60.2313 64.9585 60.11 65.5738 60.11C66.0765 60.11 66.5055 60.1793 66.8608 60.318C67.2248 60.4567 67.5238 60.6343 67.7578 60.851C67.9918 61.0677 68.1652 61.3017 68.2778 61.553C68.3992 61.8043 68.4642 62.0427 68.4728 62.268C68.4815 62.3547 68.4555 62.424 68.3948 62.476C68.3342 62.528 68.2605 62.554 68.1738 62.554H67.5498C67.4632 62.554 67.3982 62.5367 67.3548 62.502C67.3115 62.4587 67.2682 62.3893 67.2248 62.294C67.0688 61.8693 66.8565 61.5703 66.5878 61.397C66.3192 61.2237 65.9855 61.137 65.5868 61.137C65.0668 61.137 64.6422 61.2973 64.3128 61.618C63.9922 61.9387 63.8188 62.4543 63.7928 63.165C63.7842 63.477 63.7842 63.7803 63.7928 64.075C63.8188 64.7943 63.9922 65.3143 64.3128 65.635C64.6422 65.947 65.0668 66.103 65.5868 66.103C65.9855 66.103 66.3192 66.0163 66.5878 65.843C66.8565 65.6697 67.0688 65.3707 67.2248 64.946C67.2682 64.8507 67.3115 64.7857 67.3548 64.751C67.3982 64.7077 67.4632 64.686 67.5498 64.686H68.1738C68.2605 64.686 68.3342 64.712 68.3948 64.764C68.4555 64.816 68.4815 64.8853 68.4728 64.972C68.4642 65.154 68.4252 65.3403 68.3558 65.531C68.2865 65.7217 68.1738 65.9167 68.0178 66.116C67.8705 66.3067 67.6842 66.48 67.4588 66.636C67.2335 66.7833 66.9605 66.9047 66.6398 67C66.3278 67.0867 65.9725 67.13 65.5738 67.13ZM70.3287 67C70.242 67 70.1684 66.974 70.1077 66.922C70.0557 66.8613 70.0297 66.7877 70.0297 66.701V58.069C70.0297 57.9823 70.0557 57.913 70.1077 57.861C70.1684 57.8003 70.242 57.77 70.3287 57.77H70.9787C71.074 57.77 71.1477 57.8003 71.1997 57.861C71.2517 57.913 71.2777 57.9823 71.2777 58.069V61.098C71.5117 60.8033 71.7977 60.565 72.1357 60.383C72.4737 60.201 72.9027 60.11 73.4227 60.11C73.986 60.11 74.4627 60.2357 74.8527 60.487C75.2514 60.7297 75.5504 61.072 75.7497 61.514C75.9577 61.9473 76.0617 62.4543 76.0617 63.035V66.701C76.0617 66.7877 76.0357 66.8613 75.9837 66.922C75.9317 66.974 75.858 67 75.7627 67H75.1127C75.026 67 74.9524 66.974 74.8917 66.922C74.8397 66.8613 74.8137 66.7877 74.8137 66.701V63.1C74.8137 62.4933 74.6664 62.021 74.3717 61.683C74.077 61.3363 73.6437 61.163 73.0717 61.163C72.5344 61.163 72.101 61.3363 71.7717 61.683C71.4424 62.021 71.2777 62.4933 71.2777 63.1V66.701C71.2777 66.7877 71.2517 66.8613 71.1997 66.922C71.1477 66.974 71.074 67 70.9787 67H70.3287ZM80.7076 67.13C80.0489 67.13 79.4986 67.0043 79.0566 66.753C78.6146 66.5017 78.2766 66.155 78.0426 65.713C77.8086 65.2623 77.6786 64.751 77.6526 64.179C77.6439 64.0317 77.6396 63.8453 77.6396 63.62C77.6396 63.386 77.6439 63.1997 77.6526 63.061C77.6786 62.4803 77.8086 61.969 78.0426 61.527C78.2852 61.085 78.6276 60.7383 79.0696 60.487C79.5116 60.2357 80.0576 60.11 80.7076 60.11C81.3576 60.11 81.9036 60.2357 82.3456 60.487C82.7876 60.7383 83.1256 61.085 83.3596 61.527C83.6022 61.969 83.7366 62.4803 83.7626 63.061C83.7712 63.1997 83.7756 63.386 83.7756 63.62C83.7756 63.8453 83.7712 64.0317 83.7626 64.179C83.7366 64.751 83.6066 65.2623 83.3726 65.713C83.1386 66.155 82.8006 66.5017 82.3586 66.753C81.9166 67.0043 81.3662 67.13 80.7076 67.13ZM80.7076 66.129C81.2449 66.129 81.6739 65.96 81.9946 65.622C82.3152 65.2753 82.4886 64.7727 82.5146 64.114C82.5232 63.984 82.5276 63.8193 82.5276 63.62C82.5276 63.4207 82.5232 63.256 82.5146 63.126C82.4886 62.4673 82.3152 61.969 81.9946 61.631C81.6739 61.2843 81.2449 61.111 80.7076 61.111C80.1702 61.111 79.7369 61.2843 79.4076 61.631C79.0869 61.969 78.9179 62.4673 78.9006 63.126C78.8919 63.256 78.8876 63.4207 78.8876 63.62C78.8876 63.8193 78.8919 63.984 78.9006 64.114C78.9179 64.7727 79.0869 65.2753 79.4076 65.622C79.7369 65.96 80.1702 66.129 80.7076 66.129Z" fill="#171B22"/>
<rect x="40.5" y="74" width="37" height="25" rx="12.5" fill="#85401A"/>
<path d="M53.3417 91.14C52.6697 91.14 52.0864 91.0467 51.5917 90.86C51.097 90.664 50.6864 90.398 50.3597 90.062C50.0424 89.726 49.7997 89.334 49.6317 88.886C49.4637 88.438 49.3657 87.9573 49.3377 87.444C49.3284 87.192 49.319 86.9073 49.3097 86.59C49.3097 86.2633 49.3097 85.9367 49.3097 85.61C49.319 85.274 49.3284 84.9753 49.3377 84.714C49.3657 84.2007 49.4637 83.7247 49.6317 83.286C49.809 82.838 50.061 82.4507 50.3877 82.124C50.7237 81.788 51.1344 81.5267 51.6197 81.34C52.1144 81.1533 52.6884 81.06 53.3417 81.06C54.0044 81.06 54.5784 81.1533 55.0637 81.34C55.549 81.5267 55.955 81.788 56.2817 82.124C56.6177 82.4507 56.8744 82.838 57.0517 83.286C57.229 83.7247 57.327 84.2007 57.3457 84.714C57.3644 84.9753 57.3737 85.274 57.3737 85.61C57.383 85.9367 57.383 86.2633 57.3737 86.59C57.3737 86.9073 57.3644 87.192 57.3457 87.444C57.327 87.9573 57.229 88.438 57.0517 88.886C56.8837 89.334 56.6364 89.726 56.3097 90.062C55.9924 90.398 55.5864 90.664 55.0917 90.86C54.6064 91.0467 54.023 91.14 53.3417 91.14ZM53.3417 89.11C53.827 89.11 54.177 88.956 54.3917 88.648C54.6157 88.3307 54.7324 87.906 54.7417 87.374C54.7604 87.1033 54.7697 86.8187 54.7697 86.52C54.779 86.2213 54.779 85.9227 54.7697 85.624C54.7697 85.3253 54.7604 85.05 54.7417 84.798C54.7324 84.2847 54.6157 83.8693 54.3917 83.552C54.177 83.2347 53.827 83.0713 53.3417 83.062C52.8564 83.0713 52.5064 83.2347 52.2917 83.552C52.077 83.8693 51.9604 84.2847 51.9417 84.798C51.9324 85.05 51.923 85.3253 51.9137 85.624C51.9137 85.9227 51.9137 86.2213 51.9137 86.52C51.923 86.8187 51.9324 87.1033 51.9417 87.374C51.9604 87.906 52.0817 88.3307 52.3057 88.648C52.5297 88.956 52.875 89.11 53.3417 89.11ZM59.6793 91C59.4647 91 59.3573 90.9067 59.3573 90.72C59.3573 90.664 59.376 90.6127 59.4133 90.566L66.3293 81.466C66.3947 81.382 66.46 81.3167 66.5253 81.27C66.5907 81.2233 66.6887 81.2 66.8193 81.2H67.8133C68.028 81.2 68.1353 81.2933 68.1353 81.48C68.1353 81.536 68.1167 81.5873 68.0793 81.634L61.1633 90.734C61.098 90.818 61.0327 90.8833 60.9673 90.93C60.902 90.9767 60.804 91 60.6733 91H59.6793ZM66.7213 91.07C66.0867 91.07 65.578 90.902 65.1953 90.566C64.822 90.23 64.612 89.782 64.5653 89.222C64.556 88.9793 64.5513 88.7647 64.5513 88.578C64.5513 88.3913 64.556 88.1673 64.5653 87.906C64.6027 87.3367 64.8033 86.884 65.1673 86.548C65.5407 86.2027 66.0587 86.03 66.7213 86.03C67.3933 86.03 67.9113 86.2027 68.2753 86.548C68.6393 86.884 68.84 87.3367 68.8773 87.906C68.896 88.1673 68.9053 88.3913 68.9053 88.578C68.9053 88.7647 68.896 88.9793 68.8773 89.222C68.84 89.782 68.63 90.23 68.2473 90.566C67.8647 90.902 67.356 91.07 66.7213 91.07ZM66.7213 89.838C66.88 89.838 67.0013 89.8053 67.0853 89.74C67.1787 89.6747 67.2487 89.5907 67.2953 89.488C67.342 89.376 67.3653 89.2593 67.3653 89.138C67.384 88.9233 67.3933 88.7273 67.3933 88.55C67.3933 88.3727 67.384 88.1813 67.3653 87.976C67.356 87.7987 67.3047 87.64 67.2113 87.5C67.118 87.3507 66.9547 87.276 66.7213 87.276C66.488 87.276 66.3247 87.3507 66.2313 87.5C66.138 87.64 66.0867 87.7987 66.0773 87.976C66.068 88.1813 66.0633 88.3727 66.0633 88.55C66.0633 88.7273 66.068 88.9233 66.0773 89.138C66.0867 89.2593 66.11 89.376 66.1473 89.488C66.194 89.5907 66.264 89.6747 66.3573 89.74C66.4507 89.8053 66.572 89.838 66.7213 89.838ZM60.7993 86.142C60.1553 86.142 59.642 85.9787 59.2593 85.652C58.886 85.316 58.6807 84.868 58.6433 84.308C58.6247 84.0653 58.6153 83.8553 58.6153 83.678C58.6247 83.4913 58.634 83.2673 58.6433 83.006C58.6713 82.4367 58.8673 81.984 59.2313 81.648C59.6047 81.3027 60.1273 81.13 60.7993 81.13C61.4713 81.13 61.9893 81.3027 62.3533 81.648C62.7173 81.984 62.9133 82.4367 62.9413 83.006C62.96 83.2673 62.9693 83.4913 62.9693 83.678C62.9693 83.8553 62.96 84.0653 62.9413 84.308C62.9133 84.868 62.708 85.316 62.3253 85.652C61.9427 85.9787 61.434 86.142 60.7993 86.142ZM60.7993 84.938C60.9487 84.938 61.07 84.9053 61.1633 84.84C61.2567 84.7653 61.3267 84.6767 61.3733 84.574C61.42 84.462 61.4433 84.35 61.4433 84.238C61.462 84.0233 61.4713 83.8273 61.4713 83.65C61.4713 83.4727 61.462 83.2813 61.4433 83.076C61.434 82.8987 61.378 82.74 61.2753 82.6C61.182 82.4507 61.0233 82.376 60.7993 82.376C60.566 82.376 60.398 82.4507 60.2953 82.6C60.202 82.74 60.1507 82.8987 60.1413 83.076C60.132 83.2813 60.1273 83.4727 60.1273 83.65C60.1273 83.8273 60.132 84.0233 60.1413 84.238C60.1507 84.35 60.174 84.462 60.2113 84.574C60.258 84.6767 60.328 84.7653 60.4213 84.84C60.5147 84.9053 60.6407 84.938 60.7993 84.938Z" fill="white"/>
<g filter="url(#filter0_d_15958_19602)">
<rect x="88" y="14" width="32" height="32" rx="16" fill="white"/>
<rect x="87" y="13" width="34" height="34" rx="17" stroke="#1DA534" stroke-width="2"/>
<path opacity="0.4" d="M103.999 32.8398C104.485 32.8398 104.879 33.2338 104.879 33.7197C104.879 34.2057 104.485 34.5996 103.999 34.5996C103.513 34.5995 103.119 34.2057 103.119 33.7197C103.119 33.2338 103.513 32.8399 103.999 32.8398Z" fill="#1DA534" stroke="#1DA534" stroke-width="1.5"/>
<path d="M99.3496 28.1899H108.65C110.674 28.19 111.735 28.5109 112.332 29.1079C112.929 29.7049 113.25 30.7662 113.25 32.7896V34.6499C113.25 36.6735 112.929 37.7355 112.332 38.3325C111.735 38.9294 110.673 39.2495 108.65 39.2495H99.3496C97.3266 39.2495 96.265 38.9294 95.668 38.3325C95.0709 37.7355 94.75 36.6735 94.75 34.6499V32.7896C94.75 30.7662 95.0709 29.7049 95.668 29.1079C96.265 28.5109 97.3263 28.19 99.3496 28.1899ZM104 29.9497C101.914 29.9497 100.23 31.6476 100.23 33.7202C100.231 35.7927 101.914 37.4897 104 37.4897C106.086 37.4897 107.769 35.7927 107.77 33.7202C107.77 31.6476 106.086 29.9497 104 29.9497Z" fill="#1DA534" stroke="#1DA534" stroke-width="1.5"/>
<g opacity="0.4">
<mask id="path-13-inside-1_15958_19602" fill="white">
<path d="M99.1207 27.45V26.28C99.1207 23.35 99.9507 21.4 104.001 21.4C108.051 21.4 108.881 23.35 108.881 26.28V27.45C109.391 27.46 109.851 27.48 110.281 27.54V26.28C110.281 23.58 109.631 20 104.001 20C98.3707 20 97.7207 23.58 97.7207 26.28V27.53C98.1407 27.48 98.6107 27.45 99.1207 27.45Z"/>
</mask>
<path d="M99.1207 27.45V26.28C99.1207 23.35 99.9507 21.4 104.001 21.4C108.051 21.4 108.881 23.35 108.881 26.28V27.45C109.391 27.46 109.851 27.48 110.281 27.54V26.28C110.281 23.58 109.631 20 104.001 20C98.3707 20 97.7207 23.58 97.7207 26.28V27.53C98.1407 27.48 98.6107 27.45 99.1207 27.45Z" fill="#1DA534"/>
<path d="M99.1207 27.45V28.95H100.621V27.45H99.1207ZM108.881 27.45H107.381V28.9209L108.851 28.9497L108.881 27.45ZM110.281 27.54L110.073 29.0256L111.781 29.2638V27.54H110.281ZM110.281 26.28H108.781H110.281ZM97.7207 27.53H96.2207V29.2192L97.898 29.0195L97.7207 27.53ZM99.1207 27.45H100.621V26.28H99.1207H97.6207V27.45H99.1207ZM99.1207 26.28H100.621C100.621 24.8831 100.837 24.1294 101.193 23.7033C101.498 23.3385 102.182 22.9 104.001 22.9V21.4V19.9C101.769 19.9 100.014 20.4365 98.8911 21.7792C97.8198 23.0606 97.6207 24.7469 97.6207 26.28H99.1207ZM104.001 21.4V22.9C105.819 22.9 106.504 23.3385 106.809 23.7033C107.165 24.1294 107.381 24.8831 107.381 26.28H108.881H110.381C110.381 24.7469 110.182 23.0606 109.11 21.7792C107.988 20.4365 106.232 19.9 104.001 19.9V21.4ZM108.881 26.28H107.381V27.45H108.881H110.381V26.28H108.881ZM108.881 27.45L108.851 28.9497C109.349 28.9595 109.735 28.9785 110.073 29.0256L110.281 27.54L110.488 26.0544C109.966 25.9815 109.433 25.9605 108.91 25.9503L108.881 27.45ZM110.281 27.54H111.781V26.28H110.281H108.781V27.54H110.281ZM110.281 26.28H111.781C111.781 24.8668 111.625 22.8955 110.479 21.265C109.257 19.5254 107.156 18.5 104.001 18.5V20V21.5C106.475 21.5 107.515 22.2646 108.025 22.99C108.611 23.8245 108.781 24.9932 108.781 26.28H110.281ZM104.001 20V18.5C100.845 18.5 98.7449 19.5254 97.5222 21.265C96.3762 22.8955 96.2207 24.8668 96.2207 26.28H97.7207H99.2207C99.2207 24.9932 99.3902 23.8245 99.9767 22.99C100.487 22.2646 101.526 21.5 104.001 21.5V20ZM97.7207 26.28H96.2207V27.53H97.7207H99.2207V26.28H97.7207ZM97.7207 27.53L97.898 29.0195C98.2582 28.9766 98.669 28.95 99.1207 28.95V27.45V25.95C98.5524 25.95 98.0232 25.9834 97.5434 26.0405L97.7207 27.53Z" fill="#1DA534" mask="url(#path-13-inside-1_15958_19602)"/>
</g>
</g>
<defs>
<filter id="filter0_d_15958_19602" x="71" y="5" width="66" height="66" filterUnits="userSpaceOnUse" color-interpolation-filters="sRGB">
<feFlood flood-opacity="0" result="BackgroundImageFix"/>
<feColorMatrix in="SourceAlpha" type="matrix" values="0 0 0 0 0 0 0 0 0 0 0 0 0 0 0 0 0 0 127 0" result="hardAlpha"/>
<feOffset dy="8"/>
<feGaussianBlur stdDeviation="7.5"/>
<feColorMatrix type="matrix" values="0 0 0 0 0 0 0 0 0 0 0 0 0 0 0 0 0 0 0.25 0"/>
<feBlend mode="normal" in2="BackgroundImageFix" result="effect1_dropShadow_15958_19602"/>
<feBlend mode="normal" in="SourceGraphic" in2="effect1_dropShadow_15958_19602" result="shape"/>
</filter>
<clipPath id="clip0_15958_19602">
<rect width="32" height="32" fill="white" transform="translate(43 19)"/>
</clipPath>
</defs>
</svg>
