<svg width="137" height="118" viewBox="0 0 137 118" fill="none" xmlns="http://www.w3.org/2000/svg">
<rect x="2" y="2" width="114" height="114" rx="57" fill="white"/>
<rect x="2" y="2" width="114" height="114" rx="57" stroke="#DEE2E6" stroke-width="4"/>
<g clip-path="url(#clip0_15958_19574)">
<mask id="mask0_15958_19574" style="mask-type:luminance" maskUnits="userSpaceOnUse" x="43" y="19" width="32" height="32">
<path d="M75 19H43V51H75V19Z" fill="white"/>
</mask>
<g mask="url(#mask0_15958_19574)">
<path d="M59 42.6668C58.4533 42.6668 58 42.2135 58 41.6668V36.3335C58 35.7868 58.4533 35.3335 59 35.3335C59.5467 35.3335 60 35.7868 60 36.3335V41.6668C60 42.2135 59.5467 42.6668 59 42.6668Z" fill="#2D68F8"/>
<path d="M61.6654 40H56.332C55.7854 40 55.332 39.5467 55.332 39C55.332 38.4533 55.7854 38 56.332 38H61.6654C62.212 38 62.6654 38.4533 62.6654 39C62.6654 39.5467 62.212 40 61.6654 40Z" fill="#2D68F8"/>
<path opacity="0.4" d="M68.1057 43.7733V33.1467C68.1057 31.48 66.7456 30.1067 65.0656 30.1067C64.2256 30.1067 63.5456 29.4267 63.5456 28.5867V27H54.439V28.6C54.439 29.44 53.7589 30.12 52.9189 30.12C51.2523 30.12 49.8789 31.48 49.8789 33.16V43.7867C49.8789 46.2933 51.9323 48.3467 54.439 48.3467H63.5456C66.0656 48.3333 68.1057 46.28 68.1057 43.7733Z" fill="#2D68F8"/>
<path d="M63.6654 21.6667H54.332C53.2254 21.6667 52.332 22.5601 52.332 23.6667V25.0001C52.332 26.1067 53.2254 27.0001 54.332 27.0001H63.6654C64.772 27.0001 65.6654 26.1067 65.6654 25.0001V23.6667C65.6654 22.5601 64.772 21.6667 63.6654 21.6667Z" fill="#2D68F8"/>
</g>
</g>
<path d="M22.6741 67C22.5788 67 22.5051 66.974 22.4531 66.922C22.4011 66.8613 22.3751 66.7877 22.3751 66.701V58.212C22.3751 58.1167 22.4011 58.043 22.4531 57.991C22.5051 57.9303 22.5788 57.9 22.6741 57.9H25.9761C26.6175 57.9 27.1721 58.004 27.6401 58.212C28.1168 58.42 28.4851 58.732 28.7451 59.148C29.0051 59.5553 29.1351 60.0667 29.1351 60.682C29.1351 61.2973 29.0051 61.8087 28.7451 62.216C28.4851 62.6233 28.1168 62.931 27.6401 63.139C27.1721 63.347 26.6175 63.451 25.9761 63.451H23.6751V66.701C23.6751 66.7877 23.6448 66.8613 23.5841 66.922C23.5321 66.974 23.4585 67 23.3631 67H22.6741ZM23.6621 62.359H25.9111C26.5525 62.359 27.0335 62.216 27.3541 61.93C27.6748 61.644 27.8351 61.228 27.8351 60.682C27.8351 60.1447 27.6791 59.7287 27.3671 59.434C27.0551 59.1393 26.5698 58.992 25.9111 58.992H23.6621V62.359ZM30.846 67C30.7593 67 30.6856 66.974 30.625 66.922C30.573 66.8613 30.547 66.7877 30.547 66.701V60.552C30.547 60.4653 30.573 60.3917 30.625 60.331C30.6856 60.2703 30.7593 60.24 30.846 60.24H31.444C31.5306 60.24 31.6043 60.2703 31.665 60.331C31.7256 60.3917 31.756 60.4653 31.756 60.552V61.124C31.9293 60.8293 32.1676 60.6083 32.471 60.461C32.7743 60.3137 33.1383 60.24 33.563 60.24H34.083C34.1696 60.24 34.239 60.2703 34.291 60.331C34.343 60.383 34.369 60.4523 34.369 60.539V61.072C34.369 61.1587 34.343 61.228 34.291 61.28C34.239 61.332 34.1696 61.358 34.083 61.358H33.303C32.835 61.358 32.4666 61.4967 32.198 61.774C31.9293 62.0427 31.795 62.411 31.795 62.879V66.701C31.795 66.7877 31.7646 66.8613 31.704 66.922C31.6433 66.974 31.5696 67 31.483 67H30.846ZM38.0495 67.13C37.1568 67.13 36.4462 66.857 35.9175 66.311C35.3888 65.7563 35.0985 65.0023 35.0465 64.049C35.0378 63.9363 35.0335 63.7933 35.0335 63.62C35.0335 63.438 35.0378 63.2907 35.0465 63.178C35.0812 62.5627 35.2242 62.0253 35.4755 61.566C35.7268 61.098 36.0692 60.7383 36.5025 60.487C36.9445 60.2357 37.4602 60.11 38.0495 60.11C38.7082 60.11 39.2585 60.2487 39.7005 60.526C40.1512 60.8033 40.4935 61.1977 40.7275 61.709C40.9615 62.2203 41.0785 62.8183 41.0785 63.503V63.724C41.0785 63.8193 41.0482 63.893 40.9875 63.945C40.9355 63.997 40.8662 64.023 40.7795 64.023H36.2815C36.2815 64.0317 36.2815 64.049 36.2815 64.075C36.2815 64.101 36.2815 64.1227 36.2815 64.14C36.2988 64.4953 36.3768 64.829 36.5155 65.141C36.6542 65.4443 36.8535 65.6913 37.1135 65.882C37.3735 66.0727 37.6855 66.168 38.0495 66.168C38.3615 66.168 38.6215 66.1203 38.8295 66.025C39.0375 65.9297 39.2065 65.8257 39.3365 65.713C39.4665 65.5917 39.5532 65.5007 39.5965 65.44C39.6745 65.3273 39.7352 65.2623 39.7785 65.245C39.8218 65.219 39.8912 65.206 39.9865 65.206H40.6105C40.6972 65.206 40.7665 65.232 40.8185 65.284C40.8792 65.3273 40.9052 65.3923 40.8965 65.479C40.8878 65.609 40.8185 65.7693 40.6885 65.96C40.5585 66.142 40.3722 66.324 40.1295 66.506C39.8868 66.688 39.5922 66.8397 39.2455 66.961C38.8988 67.0737 38.5002 67.13 38.0495 67.13ZM36.2815 63.126H39.8435V63.087C39.8435 62.697 39.7698 62.3503 39.6225 62.047C39.4838 61.7437 39.2802 61.5053 39.0115 61.332C38.7428 61.15 38.4222 61.059 38.0495 61.059C37.6768 61.059 37.3562 61.15 37.0875 61.332C36.8275 61.5053 36.6282 61.7437 36.4895 62.047C36.3508 62.3503 36.2815 62.697 36.2815 63.087V63.126ZM42.9319 67C42.8452 67 42.7716 66.974 42.7109 66.922C42.6589 66.8613 42.6329 66.7877 42.6329 66.701V60.539C42.6329 60.4523 42.6589 60.383 42.7109 60.331C42.7716 60.2703 42.8452 60.24 42.9319 60.24H43.5169C43.6036 60.24 43.6729 60.2703 43.7249 60.331C43.7856 60.383 43.8159 60.4523 43.8159 60.539V60.994C44.0152 60.7253 44.2666 60.513 44.5699 60.357C44.8732 60.1923 45.2372 60.11 45.6619 60.11C46.6412 60.1013 47.3346 60.5 47.7419 61.306C47.9412 60.942 48.2316 60.6517 48.6129 60.435C48.9942 60.2183 49.4276 60.11 49.9129 60.11C50.3636 60.11 50.7709 60.214 51.1349 60.422C51.5076 60.63 51.7979 60.9463 52.0059 61.371C52.2226 61.787 52.3309 62.3113 52.3309 62.944V66.701C52.3309 66.7877 52.3006 66.8613 52.2399 66.922C52.1879 66.974 52.1186 67 52.0319 67H51.4209C51.3342 67 51.2606 66.974 51.1999 66.922C51.1479 66.8613 51.1219 66.7877 51.1219 66.701V63.061C51.1219 62.5757 51.0526 62.1943 50.9139 61.917C50.7752 61.6397 50.5889 61.4447 50.3549 61.332C50.1209 61.2193 49.8652 61.163 49.5879 61.163C49.3626 61.163 49.1329 61.2193 48.8989 61.332C48.6649 61.4447 48.4699 61.6397 48.3139 61.917C48.1666 62.1943 48.0929 62.5757 48.0929 63.061V66.701C48.0929 66.7877 48.0626 66.8613 48.0019 66.922C47.9499 66.974 47.8806 67 47.7939 67H47.1829C47.0962 67 47.0226 66.974 46.9619 66.922C46.9099 66.8613 46.8839 66.7877 46.8839 66.701V63.061C46.8839 62.5757 46.8102 62.1943 46.6629 61.917C46.5156 61.6397 46.3249 61.4447 46.0909 61.332C45.8569 61.2193 45.6099 61.163 45.3499 61.163C45.1246 61.163 44.8949 61.2193 44.6609 61.332C44.4269 61.4447 44.2319 61.6397 44.0759 61.917C43.9286 62.1943 43.8549 62.5713 43.8549 63.048V66.701C43.8549 66.7877 43.8246 66.8613 43.7639 66.922C43.7119 66.974 43.6426 67 43.5559 67H42.9319ZM56.8766 67.13C55.984 67.13 55.2733 66.857 54.7446 66.311C54.216 65.7563 53.9256 65.0023 53.8736 64.049C53.865 63.9363 53.8606 63.7933 53.8606 63.62C53.8606 63.438 53.865 63.2907 53.8736 63.178C53.9083 62.5627 54.0513 62.0253 54.3026 61.566C54.554 61.098 54.8963 60.7383 55.3296 60.487C55.7716 60.2357 56.2873 60.11 56.8766 60.11C57.5353 60.11 58.0856 60.2487 58.5276 60.526C58.9783 60.8033 59.3206 61.1977 59.5546 61.709C59.7886 62.2203 59.9056 62.8183 59.9056 63.503V63.724C59.9056 63.8193 59.8753 63.893 59.8146 63.945C59.7626 63.997 59.6933 64.023 59.6066 64.023H55.1086C55.1086 64.0317 55.1086 64.049 55.1086 64.075C55.1086 64.101 55.1086 64.1227 55.1086 64.14C55.126 64.4953 55.204 64.829 55.3426 65.141C55.4813 65.4443 55.6806 65.6913 55.9406 65.882C56.2006 66.0727 56.5126 66.168 56.8766 66.168C57.1886 66.168 57.4486 66.1203 57.6566 66.025C57.8646 65.9297 58.0336 65.8257 58.1636 65.713C58.2936 65.5917 58.3803 65.5007 58.4236 65.44C58.5016 65.3273 58.5623 65.2623 58.6056 65.245C58.649 65.219 58.7183 65.206 58.8136 65.206H59.4376C59.5243 65.206 59.5936 65.232 59.6456 65.284C59.7063 65.3273 59.7323 65.3923 59.7236 65.479C59.715 65.609 59.6456 65.7693 59.5156 65.96C59.3856 66.142 59.1993 66.324 58.9566 66.506C58.714 66.688 58.4193 66.8397 58.0726 66.961C57.726 67.0737 57.3273 67.13 56.8766 67.13ZM55.1086 63.126H58.6706V63.087C58.6706 62.697 58.597 62.3503 58.4496 62.047C58.311 61.7437 58.1073 61.5053 57.8386 61.332C57.57 61.15 57.2493 61.059 56.8766 61.059C56.504 61.059 56.1833 61.15 55.9146 61.332C55.6546 61.5053 55.4553 61.7437 55.3166 62.047C55.178 62.3503 55.1086 62.697 55.1086 63.087V63.126ZM63.93 67.13C63.4534 67.13 63.0417 67.0477 62.695 66.883C62.3484 66.7097 62.0624 66.48 61.837 66.194C61.6204 65.8993 61.4557 65.5657 61.343 65.193C61.239 64.8203 61.1784 64.426 61.161 64.01C61.1524 63.8713 61.148 63.7413 61.148 63.62C61.148 63.4987 61.1524 63.3687 61.161 63.23C61.1784 62.8227 61.239 62.4327 61.343 62.06C61.4557 61.6873 61.6204 61.3537 61.837 61.059C62.0624 60.7643 62.3484 60.5347 62.695 60.37C63.0417 60.1967 63.4534 60.11 63.93 60.11C64.4414 60.11 64.866 60.201 65.204 60.383C65.542 60.565 65.8194 60.7903 66.036 61.059V58.069C66.036 57.9823 66.062 57.913 66.114 57.861C66.1747 57.8003 66.2484 57.77 66.335 57.77H66.959C67.0457 57.77 67.115 57.8003 67.167 57.861C67.2277 57.913 67.258 57.9823 67.258 58.069V66.701C67.258 66.7877 67.2277 66.8613 67.167 66.922C67.115 66.974 67.0457 67 66.959 67H66.374C66.2787 67 66.205 66.974 66.153 66.922C66.101 66.8613 66.075 66.7877 66.075 66.701V66.155C65.8584 66.4323 65.5767 66.6663 65.23 66.857C64.8834 67.039 64.45 67.13 63.93 67.13ZM64.203 66.077C64.6364 66.077 64.983 65.9773 65.243 65.778C65.503 65.5787 65.698 65.3273 65.828 65.024C65.958 64.712 66.0274 64.3957 66.036 64.075C66.0447 63.9363 66.049 63.7717 66.049 63.581C66.049 63.3817 66.0447 63.2127 66.036 63.074C66.0274 62.7707 65.9537 62.4717 65.815 62.177C65.685 61.8823 65.4857 61.6397 65.217 61.449C64.957 61.2583 64.619 61.163 64.203 61.163C63.761 61.163 63.41 61.2627 63.15 61.462C62.89 61.6527 62.7037 61.9083 62.591 62.229C62.4784 62.541 62.4134 62.879 62.396 63.243C62.3874 63.4943 62.3874 63.7457 62.396 63.997C62.4134 64.361 62.4784 64.7033 62.591 65.024C62.7037 65.336 62.89 65.5917 63.15 65.791C63.41 65.9817 63.761 66.077 64.203 66.077ZM69.4905 67C69.4038 67 69.3302 66.974 69.2695 66.922C69.2175 66.8613 69.1915 66.7877 69.1915 66.701V60.539C69.1915 60.4523 69.2175 60.383 69.2695 60.331C69.3302 60.2703 69.4038 60.24 69.4905 60.24H70.1145C70.2012 60.24 70.2705 60.2703 70.3225 60.331C70.3745 60.383 70.4005 60.4523 70.4005 60.539V66.701C70.4005 66.7877 70.3745 66.8613 70.3225 66.922C70.2705 66.974 70.2012 67 70.1145 67H69.4905ZM69.3865 58.979C69.2998 58.979 69.2262 58.953 69.1655 58.901C69.1135 58.8403 69.0875 58.7667 69.0875 58.68V57.978C69.0875 57.8913 69.1135 57.822 69.1655 57.77C69.2262 57.7093 69.2998 57.679 69.3865 57.679H70.2055C70.2922 57.679 70.3615 57.7093 70.4135 57.77C70.4742 57.822 70.5045 57.8913 70.5045 57.978V58.68C70.5045 58.7667 70.4742 58.8403 70.4135 58.901C70.3615 58.953 70.2922 58.979 70.2055 58.979H69.3865ZM75.0699 67.13C74.4546 67.13 73.9216 67.013 73.4709 66.779C73.0289 66.5363 72.6866 66.194 72.4439 65.752C72.2013 65.3013 72.0713 64.764 72.0539 64.14C72.0453 64.01 72.0409 63.8367 72.0409 63.62C72.0409 63.4033 72.0453 63.23 72.0539 63.1C72.0713 62.476 72.2013 61.943 72.4439 61.501C72.6866 61.0503 73.0289 60.708 73.4709 60.474C73.9216 60.2313 74.4546 60.11 75.0699 60.11C75.5726 60.11 76.0016 60.1793 76.3569 60.318C76.7209 60.4567 77.0199 60.6343 77.2539 60.851C77.4879 61.0677 77.6613 61.3017 77.7739 61.553C77.8953 61.8043 77.9603 62.0427 77.9689 62.268C77.9776 62.3547 77.9516 62.424 77.8909 62.476C77.8303 62.528 77.7566 62.554 77.6699 62.554H77.0459C76.9593 62.554 76.8943 62.5367 76.8509 62.502C76.8076 62.4587 76.7643 62.3893 76.7209 62.294C76.5649 61.8693 76.3526 61.5703 76.0839 61.397C75.8153 61.2237 75.4816 61.137 75.0829 61.137C74.5629 61.137 74.1383 61.2973 73.8089 61.618C73.4883 61.9387 73.3149 62.4543 73.2889 63.165C73.2803 63.477 73.2803 63.7803 73.2889 64.075C73.3149 64.7943 73.4883 65.3143 73.8089 65.635C74.1383 65.947 74.5629 66.103 75.0829 66.103C75.4816 66.103 75.8153 66.0163 76.0839 65.843C76.3526 65.6697 76.5649 65.3707 76.7209 64.946C76.7643 64.8507 76.8076 64.7857 76.8509 64.751C76.8943 64.7077 76.9593 64.686 77.0459 64.686H77.6699C77.7566 64.686 77.8303 64.712 77.8909 64.764C77.9516 64.816 77.9776 64.8853 77.9689 64.972C77.9603 65.154 77.9213 65.3403 77.8519 65.531C77.7826 65.7217 77.6699 65.9167 77.5139 66.116C77.3666 66.3067 77.1803 66.48 76.9549 66.636C76.7296 66.7833 76.4566 66.9047 76.1359 67C75.8239 67.0867 75.4686 67.13 75.0699 67.13ZM79.8118 67C79.7251 67 79.6514 66.974 79.5908 66.922C79.5388 66.8613 79.5128 66.7877 79.5128 66.701V60.539C79.5128 60.4523 79.5388 60.383 79.5908 60.331C79.6514 60.2703 79.7251 60.24 79.8118 60.24H80.4358C80.5224 60.24 80.5918 60.2703 80.6438 60.331C80.6958 60.383 80.7218 60.4523 80.7218 60.539V66.701C80.7218 66.7877 80.6958 66.8613 80.6438 66.922C80.5918 66.974 80.5224 67 80.4358 67H79.8118ZM79.7078 58.979C79.6211 58.979 79.5474 58.953 79.4868 58.901C79.4348 58.8403 79.4088 58.7667 79.4088 58.68V57.978C79.4088 57.8913 79.4348 57.822 79.4868 57.77C79.5474 57.7093 79.6211 57.679 79.7078 57.679H80.5268C80.6134 57.679 80.6828 57.7093 80.7348 57.77C80.7954 57.822 80.8258 57.8913 80.8258 57.978V58.68C80.8258 58.7667 80.7954 58.8403 80.7348 58.901C80.6828 58.953 80.6134 58.979 80.5268 58.979H79.7078ZM82.9602 67C82.8736 67 82.7999 66.974 82.7392 66.922C82.6872 66.8613 82.6612 66.7877 82.6612 66.701V60.539C82.6612 60.4523 82.6872 60.383 82.7392 60.331C82.7999 60.2703 82.8736 60.24 82.9602 60.24H83.5712C83.6579 60.24 83.7272 60.2703 83.7792 60.331C83.8399 60.383 83.8702 60.4523 83.8702 60.539V61.111C84.0956 60.8163 84.3772 60.578 84.7152 60.396C85.0619 60.2053 85.5039 60.11 86.0412 60.11C86.6046 60.11 87.0812 60.2357 87.4712 60.487C87.8699 60.7297 88.1689 61.072 88.3682 61.514C88.5676 61.9473 88.6672 62.4543 88.6672 63.035V66.701C88.6672 66.7877 88.6412 66.8613 88.5892 66.922C88.5372 66.974 88.4679 67 88.3812 67H87.7312C87.6446 67 87.5709 66.974 87.5102 66.922C87.4582 66.8613 87.4322 66.7877 87.4322 66.701V63.1C87.4322 62.4933 87.2849 62.021 86.9902 61.683C86.6956 61.3363 86.2622 61.163 85.6902 61.163C85.1529 61.163 84.7196 61.3363 84.3902 61.683C84.0696 62.021 83.9092 62.4933 83.9092 63.1V66.701C83.9092 66.7877 83.8789 66.8613 83.8182 66.922C83.7662 66.974 83.6969 67 83.6102 67H82.9602ZM92.43 67.13C91.9967 67.13 91.6023 67.0433 91.247 66.87C90.8917 66.6967 90.6057 66.4627 90.389 66.168C90.1723 65.8733 90.064 65.5397 90.064 65.167C90.064 64.569 90.3067 64.0923 90.792 63.737C91.2773 63.3817 91.91 63.1477 92.69 63.035L94.627 62.762V62.385C94.627 61.969 94.5057 61.644 94.263 61.41C94.029 61.176 93.6433 61.059 93.106 61.059C92.716 61.059 92.3997 61.137 92.157 61.293C91.923 61.449 91.7583 61.6483 91.663 61.891C91.611 62.021 91.52 62.086 91.39 62.086H90.805C90.7097 62.086 90.636 62.06 90.584 62.008C90.5407 61.9473 90.519 61.878 90.519 61.8C90.519 61.67 90.5667 61.5097 90.662 61.319C90.766 61.1283 90.922 60.942 91.13 60.76C91.338 60.578 91.6023 60.4263 91.923 60.305C92.2523 60.175 92.651 60.11 93.119 60.11C93.639 60.11 94.0767 60.1793 94.432 60.318C94.7873 60.448 95.0647 60.6257 95.264 60.851C95.472 61.0763 95.6193 61.332 95.706 61.618C95.8013 61.904 95.849 62.1943 95.849 62.489V66.701C95.849 66.7877 95.8187 66.8613 95.758 66.922C95.706 66.974 95.6367 67 95.55 67H94.952C94.8567 67 94.783 66.974 94.731 66.922C94.679 66.8613 94.653 66.7877 94.653 66.701V66.142C94.5403 66.298 94.3887 66.454 94.198 66.61C94.0073 66.7573 93.769 66.883 93.483 66.987C93.197 67.0823 92.846 67.13 92.43 67.13ZM92.703 66.155C93.0583 66.155 93.3833 66.0813 93.678 65.934C93.9727 65.778 94.2023 65.5397 94.367 65.219C94.5403 64.8983 94.627 64.4953 94.627 64.01V63.646L93.119 63.867C92.5037 63.9537 92.04 64.101 91.728 64.309C91.416 64.5083 91.26 64.764 91.26 65.076C91.26 65.3187 91.3293 65.5223 91.468 65.687C91.6153 65.843 91.7973 65.96 92.014 66.038C92.2393 66.116 92.469 66.155 92.703 66.155Z" fill="#171B22"/>
<rect x="40.5" y="74" width="37" height="25" rx="12.5" fill="#2D68F8"/>
<path d="M53.3417 91.14C52.6697 91.14 52.0864 91.0467 51.5917 90.86C51.097 90.664 50.6864 90.398 50.3597 90.062C50.0424 89.726 49.7997 89.334 49.6317 88.886C49.4637 88.438 49.3657 87.9573 49.3377 87.444C49.3284 87.192 49.319 86.9073 49.3097 86.59C49.3097 86.2633 49.3097 85.9367 49.3097 85.61C49.319 85.274 49.3284 84.9753 49.3377 84.714C49.3657 84.2007 49.4637 83.7247 49.6317 83.286C49.809 82.838 50.061 82.4507 50.3877 82.124C50.7237 81.788 51.1344 81.5267 51.6197 81.34C52.1144 81.1533 52.6884 81.06 53.3417 81.06C54.0044 81.06 54.5784 81.1533 55.0637 81.34C55.549 81.5267 55.955 81.788 56.2817 82.124C56.6177 82.4507 56.8744 82.838 57.0517 83.286C57.229 83.7247 57.327 84.2007 57.3457 84.714C57.3644 84.9753 57.3737 85.274 57.3737 85.61C57.383 85.9367 57.383 86.2633 57.3737 86.59C57.3737 86.9073 57.3644 87.192 57.3457 87.444C57.327 87.9573 57.229 88.438 57.0517 88.886C56.8837 89.334 56.6364 89.726 56.3097 90.062C55.9924 90.398 55.5864 90.664 55.0917 90.86C54.6064 91.0467 54.023 91.14 53.3417 91.14ZM53.3417 89.11C53.827 89.11 54.177 88.956 54.3917 88.648C54.6157 88.3307 54.7324 87.906 54.7417 87.374C54.7604 87.1033 54.7697 86.8187 54.7697 86.52C54.779 86.2213 54.779 85.9227 54.7697 85.624C54.7697 85.3253 54.7604 85.05 54.7417 84.798C54.7324 84.2847 54.6157 83.8693 54.3917 83.552C54.177 83.2347 53.827 83.0713 53.3417 83.062C52.8564 83.0713 52.5064 83.2347 52.2917 83.552C52.077 83.8693 51.9604 84.2847 51.9417 84.798C51.9324 85.05 51.923 85.3253 51.9137 85.624C51.9137 85.9227 51.9137 86.2213 51.9137 86.52C51.923 86.8187 51.9324 87.1033 51.9417 87.374C51.9604 87.906 52.0817 88.3307 52.3057 88.648C52.5297 88.956 52.875 89.11 53.3417 89.11ZM59.6793 91C59.4647 91 59.3573 90.9067 59.3573 90.72C59.3573 90.664 59.376 90.6127 59.4133 90.566L66.3293 81.466C66.3947 81.382 66.46 81.3167 66.5253 81.27C66.5907 81.2233 66.6887 81.2 66.8193 81.2H67.8133C68.028 81.2 68.1353 81.2933 68.1353 81.48C68.1353 81.536 68.1167 81.5873 68.0793 81.634L61.1633 90.734C61.098 90.818 61.0327 90.8833 60.9673 90.93C60.902 90.9767 60.804 91 60.6733 91H59.6793ZM66.7213 91.07C66.0867 91.07 65.578 90.902 65.1953 90.566C64.822 90.23 64.612 89.782 64.5653 89.222C64.556 88.9793 64.5513 88.7647 64.5513 88.578C64.5513 88.3913 64.556 88.1673 64.5653 87.906C64.6027 87.3367 64.8033 86.884 65.1673 86.548C65.5407 86.2027 66.0587 86.03 66.7213 86.03C67.3933 86.03 67.9113 86.2027 68.2753 86.548C68.6393 86.884 68.84 87.3367 68.8773 87.906C68.896 88.1673 68.9053 88.3913 68.9053 88.578C68.9053 88.7647 68.896 88.9793 68.8773 89.222C68.84 89.782 68.63 90.23 68.2473 90.566C67.8647 90.902 67.356 91.07 66.7213 91.07ZM66.7213 89.838C66.88 89.838 67.0013 89.8053 67.0853 89.74C67.1787 89.6747 67.2487 89.5907 67.2953 89.488C67.342 89.376 67.3653 89.2593 67.3653 89.138C67.384 88.9233 67.3933 88.7273 67.3933 88.55C67.3933 88.3727 67.384 88.1813 67.3653 87.976C67.356 87.7987 67.3047 87.64 67.2113 87.5C67.118 87.3507 66.9547 87.276 66.7213 87.276C66.488 87.276 66.3247 87.3507 66.2313 87.5C66.138 87.64 66.0867 87.7987 66.0773 87.976C66.068 88.1813 66.0633 88.3727 66.0633 88.55C66.0633 88.7273 66.068 88.9233 66.0773 89.138C66.0867 89.2593 66.11 89.376 66.1473 89.488C66.194 89.5907 66.264 89.6747 66.3573 89.74C66.4507 89.8053 66.572 89.838 66.7213 89.838ZM60.7993 86.142C60.1553 86.142 59.642 85.9787 59.2593 85.652C58.886 85.316 58.6807 84.868 58.6433 84.308C58.6247 84.0653 58.6153 83.8553 58.6153 83.678C58.6247 83.4913 58.634 83.2673 58.6433 83.006C58.6713 82.4367 58.8673 81.984 59.2313 81.648C59.6047 81.3027 60.1273 81.13 60.7993 81.13C61.4713 81.13 61.9893 81.3027 62.3533 81.648C62.7173 81.984 62.9133 82.4367 62.9413 83.006C62.96 83.2673 62.9693 83.4913 62.9693 83.678C62.9693 83.8553 62.96 84.0653 62.9413 84.308C62.9133 84.868 62.708 85.316 62.3253 85.652C61.9427 85.9787 61.434 86.142 60.7993 86.142ZM60.7993 84.938C60.9487 84.938 61.07 84.9053 61.1633 84.84C61.2567 84.7653 61.3267 84.6767 61.3733 84.574C61.42 84.462 61.4433 84.35 61.4433 84.238C61.462 84.0233 61.4713 83.8273 61.4713 83.65C61.4713 83.4727 61.462 83.2813 61.4433 83.076C61.434 82.8987 61.378 82.74 61.2753 82.6C61.182 82.4507 61.0233 82.376 60.7993 82.376C60.566 82.376 60.398 82.4507 60.2953 82.6C60.202 82.74 60.1507 82.8987 60.1413 83.076C60.132 83.2813 60.1273 83.4727 60.1273 83.65C60.1273 83.8273 60.132 84.0233 60.1413 84.238C60.1507 84.35 60.174 84.462 60.2113 84.574C60.258 84.6767 60.328 84.7653 60.4213 84.84C60.5147 84.9053 60.6407 84.938 60.7993 84.938Z" fill="white"/>
<g filter="url(#filter0_d_15958_19574)">
<rect x="88" y="14" width="32" height="32" rx="16" fill="white"/>
<rect x="87" y="13" width="34" height="34" rx="17" stroke="#1DA534" stroke-width="2"/>
<path opacity="0.4" d="M103.999 32.8401C104.485 32.8401 104.879 33.234 104.879 33.72C104.879 34.206 104.485 34.5999 103.999 34.5999C103.513 34.5998 103.119 34.2059 103.119 33.72C103.119 33.2341 103.513 32.8402 103.999 32.8401Z" fill="#1DA534" stroke="#1DA534" stroke-width="1.5"/>
<path d="M99.3496 28.1899H108.65C110.674 28.19 111.735 28.5109 112.332 29.1079C112.929 29.7049 113.25 30.7662 113.25 32.7896V34.6499C113.25 36.6735 112.929 37.7355 112.332 38.3325C111.735 38.9294 110.673 39.2495 108.65 39.2495H99.3496C97.3266 39.2495 96.265 38.9294 95.668 38.3325C95.0709 37.7355 94.75 36.6735 94.75 34.6499V32.7896C94.75 30.7662 95.0709 29.7049 95.668 29.1079C96.265 28.5109 97.3263 28.19 99.3496 28.1899ZM104 29.9497C101.914 29.9497 100.23 31.6476 100.23 33.7202C100.231 35.7927 101.914 37.4897 104 37.4897C106.086 37.4897 107.769 35.7927 107.77 33.7202C107.77 31.6476 106.086 29.9497 104 29.9497Z" fill="#1DA534" stroke="#1DA534" stroke-width="1.5"/>
<g opacity="0.4">
<mask id="path-14-inside-1_15958_19574" fill="white">
<path d="M99.1207 27.45V26.28C99.1207 23.35 99.9507 21.4 104.001 21.4C108.051 21.4 108.881 23.35 108.881 26.28V27.45C109.391 27.46 109.851 27.48 110.281 27.54V26.28C110.281 23.58 109.631 20 104.001 20C98.3707 20 97.7207 23.58 97.7207 26.28V27.53C98.1407 27.48 98.6107 27.45 99.1207 27.45Z"/>
</mask>
<path d="M99.1207 27.45V26.28C99.1207 23.35 99.9507 21.4 104.001 21.4C108.051 21.4 108.881 23.35 108.881 26.28V27.45C109.391 27.46 109.851 27.48 110.281 27.54V26.28C110.281 23.58 109.631 20 104.001 20C98.3707 20 97.7207 23.58 97.7207 26.28V27.53C98.1407 27.48 98.6107 27.45 99.1207 27.45Z" fill="#1DA534"/>
<path d="M99.1207 27.45V28.95H100.621V27.45H99.1207ZM108.881 27.45H107.381V28.9209L108.851 28.9497L108.881 27.45ZM110.281 27.54L110.073 29.0256L111.781 29.2638V27.54H110.281ZM110.281 26.28H108.781H110.281ZM97.7207 27.53H96.2207V29.2192L97.898 29.0195L97.7207 27.53ZM99.1207 27.45H100.621V26.28H99.1207H97.6207V27.45H99.1207ZM99.1207 26.28H100.621C100.621 24.8831 100.837 24.1294 101.193 23.7033C101.498 23.3385 102.182 22.9 104.001 22.9V21.4V19.9C101.769 19.9 100.014 20.4365 98.8911 21.7792C97.8198 23.0606 97.6207 24.7469 97.6207 26.28H99.1207ZM104.001 21.4V22.9C105.819 22.9 106.504 23.3385 106.809 23.7033C107.165 24.1294 107.381 24.8831 107.381 26.28H108.881H110.381C110.381 24.7469 110.182 23.0606 109.11 21.7792C107.988 20.4365 106.232 19.9 104.001 19.9V21.4ZM108.881 26.28H107.381V27.45H108.881H110.381V26.28H108.881ZM108.881 27.45L108.851 28.9497C109.349 28.9595 109.735 28.9785 110.073 29.0256L110.281 27.54L110.488 26.0544C109.966 25.9815 109.433 25.9605 108.91 25.9503L108.881 27.45ZM110.281 27.54H111.781V26.28H110.281H108.781V27.54H110.281ZM110.281 26.28H111.781C111.781 24.8668 111.625 22.8955 110.479 21.265C109.257 19.5254 107.156 18.5 104.001 18.5V20V21.5C106.475 21.5 107.515 22.2646 108.025 22.99C108.611 23.8245 108.781 24.9932 108.781 26.28H110.281ZM104.001 20V18.5C100.845 18.5 98.7449 19.5254 97.5222 21.265C96.3762 22.8955 96.2207 24.8668 96.2207 26.28H97.7207H99.2207C99.2207 24.9932 99.3902 23.8245 99.9767 22.99C100.487 22.2646 101.526 21.5 104.001 21.5V20ZM97.7207 26.28H96.2207V27.53H97.7207H99.2207V26.28H97.7207ZM97.7207 27.53L97.898 29.0195C98.2582 28.9766 98.669 28.95 99.1207 28.95V27.45V25.95C98.5524 25.95 98.0232 25.9834 97.5434 26.0405L97.7207 27.53Z" fill="#1DA534" mask="url(#path-14-inside-1_15958_19574)"/>
</g>
</g>
<defs>
<filter id="filter0_d_15958_19574" x="71" y="5" width="66" height="66" filterUnits="userSpaceOnUse" color-interpolation-filters="sRGB">
<feFlood flood-opacity="0" result="BackgroundImageFix"/>
<feColorMatrix in="SourceAlpha" type="matrix" values="0 0 0 0 0 0 0 0 0 0 0 0 0 0 0 0 0 0 127 0" result="hardAlpha"/>
<feOffset dy="8"/>
<feGaussianBlur stdDeviation="7.5"/>
<feColorMatrix type="matrix" values="0 0 0 0 0 0 0 0 0 0 0 0 0 0 0 0 0 0 0.25 0"/>
<feBlend mode="normal" in2="BackgroundImageFix" result="effect1_dropShadow_15958_19574"/>
<feBlend mode="normal" in="SourceGraphic" in2="effect1_dropShadow_15958_19574" result="shape"/>
</filter>
<clipPath id="clip0_15958_19574">
<rect width="32" height="32" fill="white" transform="translate(43 19)"/>
</clipPath>
</defs>
</svg>
