<svg width="122" height="118" viewBox="0 0 122 118" fill="none" xmlns="http://www.w3.org/2000/svg">
<rect x="2" y="2" width="114" height="114" rx="57" fill="#2D68F8" fill-opacity="0.15"/>
<rect x="2" y="2" width="114" height="114" rx="57" stroke="#2D68F8" stroke-width="4"/>
<path opacity="0.4" d="M63.6023 14.5H53.7977C49.5389 14.5 47 17.321 47 22.053V32.947C47 37.679 49.5389 40.5 53.7977 40.5H63.6023C67.8611 40.5 70.4 37.679 70.4 32.947V22.053C70.4 17.321 67.8611 14.5 63.6023 14.5Z" fill="#2D68F8"/>
<path d="M56.3618 27.5002C56.3618 28.2109 56.0186 28.8002 55.5818 28.8002H50.1218C49.6954 28.8002 49.3418 28.2109 49.3418 27.5002C49.3418 26.7895 49.6954 26.2002 50.1218 26.2002H55.5818C56.0186 26.2002 56.3618 26.7895 56.3618 27.5002Z" fill="#2D68F8"/>
<path d="M56.3618 22.3C56.3618 23.0107 56.0186 23.6 55.5818 23.6H50.1218C49.6954 23.6 49.3418 23.0107 49.3418 22.3C49.3418 21.5893 49.6954 21 50.1218 21H55.5818C56.0186 21 56.3618 21.5893 56.3618 22.3Z" fill="#2D68F8"/>
<path d="M68.061 22.3C68.061 23.0107 67.7178 23.6 67.281 23.6H61.821C61.3946 23.6 61.041 23.0107 61.041 22.3C61.041 21.5893 61.3946 21 61.821 21H67.281C67.7178 21 68.061 21.5893 68.061 22.3Z" fill="#2D68F8"/>
<path opacity="0.4" d="M58.6993 14.5C59.3389 14.5 59.8693 15.7711 59.8693 17.3889V37.6111C59.8693 39.1904 59.3389 40.5 58.6993 40.5C58.0597 40.5 57.5293 39.1904 57.5293 37.6111V17.3889C57.5293 15.7711 58.0597 14.5 58.6993 14.5Z" fill="#2D68F8"/>
<path d="M68.061 27.5002C68.061 28.2109 67.7178 28.8002 67.281 28.8002H61.821C61.3946 28.8002 61.041 28.2109 61.041 27.5002C61.041 26.7895 61.3946 26.2002 61.821 26.2002H67.281C67.7178 26.2002 68.061 26.7895 68.061 27.5002Z" fill="#2D68F8"/>
<path d="M56.3618 32.6999C56.3618 33.4106 56.0186 33.9999 55.5818 33.9999H50.1218C49.6954 33.9999 49.3418 33.4106 49.3418 32.6999C49.3418 31.9892 49.6954 31.3999 50.1218 31.3999H55.5818C56.0186 31.3999 56.3618 31.9892 56.3618 32.6999Z" fill="#2D68F8"/>
<path d="M68.061 32.6999C68.061 33.4106 67.7178 33.9999 67.281 33.9999H61.821C61.3946 33.9999 61.041 33.4106 61.041 32.6999C61.041 31.9892 61.3946 31.3999 61.821 31.3999H67.281C67.7178 31.3999 68.061 31.9892 68.061 32.6999Z" fill="#2D68F8"/>
<path d="M20.682 56.042C20.708 56.7787 20.929 57.368 21.345 57.81C21.7697 58.2433 22.359 58.46 23.113 58.46C23.8757 58.46 24.439 58.2953 24.803 57.966C25.167 57.6367 25.4097 57.212 25.531 56.692C25.5483 56.6053 25.5873 56.536 25.648 56.484C25.7173 56.432 25.791 56.406 25.869 56.406H26.467C26.545 56.406 26.61 56.4363 26.662 56.497C26.7227 56.549 26.753 56.614 26.753 56.692C26.7357 57.1167 26.597 57.5587 26.337 58.018C26.077 58.4687 25.674 58.85 25.128 59.162C24.5907 59.474 23.919 59.63 23.113 59.63C22.385 59.63 21.748 59.4783 21.202 59.175C20.656 58.8717 20.2313 58.4557 19.928 57.927C19.6333 57.3897 19.473 56.783 19.447 56.107C19.4383 55.847 19.434 55.4613 19.434 54.95C19.434 54.4387 19.4383 54.053 19.447 53.793C19.473 53.117 19.6333 52.5147 19.928 51.986C20.2313 51.4487 20.656 51.0283 21.202 50.725C21.748 50.4217 22.385 50.27 23.113 50.27C23.919 50.27 24.5907 50.426 25.128 50.738C25.674 51.05 26.077 51.4357 26.337 51.895C26.597 52.3457 26.7357 52.7833 26.753 53.208C26.753 53.286 26.7227 53.3553 26.662 53.416C26.61 53.468 26.545 53.494 26.467 53.494H25.869C25.791 53.494 25.7173 53.468 25.648 53.416C25.5873 53.364 25.5483 53.2947 25.531 53.208C25.4097 52.688 25.167 52.2633 24.803 51.934C24.439 51.6047 23.8757 51.44 23.113 51.44C22.359 51.44 21.7697 51.661 21.345 52.103C20.929 52.5363 20.708 53.1213 20.682 53.858C20.6733 54.118 20.669 54.482 20.669 54.95C20.669 55.418 20.6733 55.782 20.682 56.042ZM34.1629 55.509C34.1802 55.6997 34.1889 55.9077 34.1889 56.133C34.1889 56.341 34.1802 56.5403 34.1629 56.731C34.0849 57.615 33.7772 58.3213 33.2399 58.85C32.7112 59.37 31.9919 59.63 31.0819 59.63C30.1719 59.63 29.4482 59.37 28.9109 58.85C28.3822 58.3213 28.0789 57.615 28.0009 56.731C27.9922 56.6357 27.9879 56.4363 27.9879 56.133C27.9879 55.8123 27.9922 55.6043 28.0009 55.509C28.0702 54.625 28.3736 53.923 28.9109 53.403C29.4482 52.8743 30.1719 52.61 31.0819 52.61C31.9919 52.61 32.7156 52.8743 33.2529 53.403C33.7902 53.923 34.0936 54.625 34.1629 55.509ZM32.9799 55.574C32.9279 55.0193 32.7416 54.573 32.4209 54.235C32.1089 53.897 31.6626 53.728 31.0819 53.728C30.5012 53.728 30.0506 53.897 29.7299 54.235C29.4179 54.573 29.2359 55.0193 29.1839 55.574C29.1752 55.678 29.1709 55.8643 29.1709 56.133C29.1709 56.393 29.1752 56.5707 29.1839 56.666C29.2359 57.2207 29.4179 57.667 29.7299 58.005C30.0506 58.343 30.5012 58.512 31.0819 58.512C31.6626 58.512 32.1089 58.343 32.4209 58.005C32.7416 57.667 32.9279 57.2207 32.9799 56.666C32.9972 56.4753 33.0059 56.2977 33.0059 56.133C33.0059 55.9683 32.9972 55.782 32.9799 55.574ZM36.9988 53.494C37.2068 53.2253 37.4408 53.013 37.7008 52.857C37.9608 52.6923 38.3075 52.61 38.7408 52.61C39.7548 52.61 40.4655 52.987 40.8728 53.741C41.1242 53.377 41.4102 53.0997 41.7308 52.909C42.0515 52.7097 42.4718 52.61 42.9918 52.61C43.8412 52.61 44.4695 52.8657 44.8768 53.377C45.2928 53.8883 45.5008 54.612 45.5008 55.548V59.149C45.5008 59.2443 45.4662 59.3267 45.3968 59.396C45.3275 59.4653 45.2452 59.5 45.1498 59.5H44.6688C44.5735 59.5 44.4912 59.4653 44.4218 59.396C44.3525 59.3267 44.3178 59.2443 44.3178 59.149V55.678C44.3178 54.378 43.8065 53.728 42.7838 53.728C42.3158 53.728 41.9432 53.884 41.6658 54.196C41.3885 54.508 41.2498 54.9717 41.2498 55.587V59.149C41.2498 59.2443 41.2152 59.3267 41.1458 59.396C41.0765 59.4653 40.9942 59.5 40.8988 59.5H40.4178C40.3225 59.5 40.2402 59.4653 40.1708 59.396C40.1015 59.3267 40.0668 59.2443 40.0668 59.149V55.678C40.0668 54.378 39.5555 53.728 38.5328 53.728C38.0648 53.728 37.6922 53.884 37.4148 54.196C37.1375 54.508 36.9988 54.9717 36.9988 55.587V59.149C36.9988 59.2443 36.9642 59.3267 36.8948 59.396C36.8255 59.4653 36.7432 59.5 36.6478 59.5H36.1668C36.0715 59.5 35.9892 59.4653 35.9198 59.396C35.8505 59.3267 35.8158 59.2443 35.8158 59.149V53.091C35.8158 52.9957 35.8505 52.9133 35.9198 52.844C35.9892 52.7747 36.0715 52.74 36.1668 52.74H36.6478C36.7432 52.74 36.8255 52.7747 36.8948 52.844C36.9642 52.9133 36.9988 52.9957 36.9988 53.091V53.494ZM48.5643 61.619C48.5643 61.7143 48.5296 61.7967 48.4603 61.866C48.3909 61.9353 48.3086 61.97 48.2133 61.97H47.7323C47.6369 61.97 47.5546 61.9353 47.4853 61.866C47.4159 61.7967 47.3813 61.7143 47.3813 61.619V53.091C47.3813 52.9957 47.4159 52.9133 47.4853 52.844C47.5546 52.7747 47.6369 52.74 47.7323 52.74H48.2133C48.3086 52.74 48.3909 52.7747 48.4603 52.844C48.5296 52.9133 48.5643 52.9957 48.5643 53.091V53.494C49.0063 52.9047 49.6779 52.61 50.5793 52.61C51.1166 52.61 51.6019 52.7357 52.0353 52.987C52.4773 53.2383 52.8283 53.598 53.0882 54.066C53.3569 54.534 53.5043 55.08 53.5303 55.704C53.5389 55.7907 53.5433 55.9293 53.5433 56.12C53.5433 56.3193 53.5389 56.4623 53.5303 56.549C53.5043 57.173 53.3569 57.719 53.0882 58.187C52.8283 58.6463 52.4816 59.0017 52.0483 59.253C51.6149 59.5043 51.1253 59.63 50.5793 59.63C50.0939 59.63 49.6823 59.5477 49.3443 59.383C49.0149 59.2097 48.7549 58.9973 48.5643 58.746V61.619ZM48.5643 56.588C48.5903 57.1947 48.7723 57.667 49.1103 58.005C49.4483 58.343 49.8946 58.512 50.4493 58.512C51.0126 58.512 51.4589 58.33 51.7883 57.966C52.1263 57.602 52.3126 57.108 52.3473 56.484C52.3559 56.3973 52.3603 56.276 52.3603 56.12C52.3603 55.964 52.3559 55.8427 52.3473 55.756C52.3126 55.132 52.1263 54.638 51.7883 54.274C51.4589 53.91 51.0126 53.728 50.4493 53.728C49.9119 53.728 49.4699 53.897 49.1233 54.235C48.7766 54.5643 48.5903 55.0063 48.5643 55.561L48.5513 56.068L48.5643 56.588ZM58.5828 52.74C58.6781 52.74 58.7604 52.7747 58.8298 52.844C58.8991 52.9133 58.9338 52.9957 58.9338 53.091V53.507C58.9338 53.6023 58.8991 53.6847 58.8298 53.754C58.7604 53.8233 58.6781 53.858 58.5828 53.858H57.8288C57.3434 53.858 56.9708 53.988 56.7108 54.248C56.4594 54.4993 56.3338 54.8677 56.3338 55.353V59.149C56.3338 59.2443 56.2991 59.3267 56.2298 59.396C56.1604 59.4653 56.0781 59.5 55.9828 59.5H55.5018C55.4064 59.5 55.3241 59.4653 55.2548 59.396C55.1854 59.3267 55.1508 59.2443 55.1508 59.149V53.091C55.1508 52.9957 55.1854 52.9133 55.2548 52.844C55.3241 52.7747 55.4064 52.74 55.5018 52.74H55.9828C56.0781 52.74 56.1604 52.7747 56.2298 52.844C56.2991 52.9133 56.3338 52.9957 56.3338 53.091V53.494C56.5071 53.234 56.7151 53.0433 56.9578 52.922C57.2004 52.8007 57.5168 52.74 57.9068 52.74H58.5828ZM62.7289 52.61C63.6562 52.61 64.3885 52.9047 64.9259 53.494C65.4632 54.0833 65.7319 54.885 65.7319 55.899V56.25C65.7319 56.3453 65.6972 56.4277 65.6279 56.497C65.5585 56.5663 65.4762 56.601 65.3809 56.601H60.9089V56.679C60.9262 57.251 61.0995 57.7017 61.4289 58.031C61.7669 58.3517 62.2002 58.512 62.7289 58.512C63.1622 58.512 63.4959 58.4557 63.7299 58.343C63.9725 58.2303 64.1892 58.07 64.3799 57.862C64.4492 57.7927 64.5099 57.745 64.5619 57.719C64.6225 57.693 64.7005 57.68 64.7959 57.68H65.1859C65.2899 57.68 65.3765 57.7147 65.4459 57.784C65.5152 57.8533 65.5455 57.9357 65.5369 58.031C65.5022 58.265 65.3722 58.5077 65.1469 58.759C64.9302 59.0017 64.6139 59.2097 64.1979 59.383C63.7905 59.5477 63.3009 59.63 62.7289 59.63C62.1742 59.63 61.6802 59.5043 61.2469 59.253C60.8135 58.993 60.4669 58.6377 60.2069 58.187C59.9555 57.7363 59.8039 57.2293 59.7519 56.666C59.7345 56.406 59.7259 56.2067 59.7259 56.068C59.7259 55.9293 59.7345 55.73 59.7519 55.47C59.8039 54.9327 59.9555 54.4473 60.2069 54.014C60.4669 53.5807 60.8092 53.2383 61.2339 52.987C61.6672 52.7357 62.1655 52.61 62.7289 52.61ZM64.5619 55.509V55.47C64.5619 54.9413 64.3929 54.521 64.0549 54.209C63.7255 53.8883 63.2835 53.728 62.7289 53.728C62.2262 53.728 61.7972 53.8883 61.4419 54.209C61.0952 54.5297 60.9175 54.95 60.9089 55.47V55.509H64.5619ZM73.3062 59.149C73.3062 59.2443 73.2715 59.3267 73.2022 59.396C73.1329 59.4653 73.0505 59.5 72.9552 59.5H72.4742C72.3789 59.5 72.2965 59.4653 72.2272 59.396C72.1579 59.3267 72.1232 59.2443 72.1232 59.149V55.717C72.1232 55.067 71.9629 54.573 71.6422 54.235C71.3215 53.897 70.8752 53.728 70.3032 53.728C69.7399 53.728 69.2935 53.897 68.9642 54.235C68.6435 54.573 68.4832 55.067 68.4832 55.717V59.149C68.4832 59.2443 68.4485 59.3267 68.3792 59.396C68.3099 59.4653 68.2275 59.5 68.1322 59.5H67.6512C67.5559 59.5 67.4735 59.4653 67.4042 59.396C67.3349 59.3267 67.3002 59.2443 67.3002 59.149V53.091C67.3002 52.9957 67.3349 52.9133 67.4042 52.844C67.4735 52.7747 67.5559 52.74 67.6512 52.74H68.1322C68.2275 52.74 68.3099 52.7747 68.3792 52.844C68.4485 52.9133 68.4832 52.9957 68.4832 53.091V53.494C68.6739 53.2427 68.9339 53.0347 69.2632 52.87C69.6012 52.6967 70.0129 52.61 70.4982 52.61C71.0442 52.61 71.5295 52.727 71.9542 52.961C72.3789 53.195 72.7082 53.533 72.9422 53.975C73.1849 54.4083 73.3062 54.924 73.3062 55.522V59.149ZM76.8217 56.497C75.5563 56.2283 74.9237 55.5827 74.9237 54.56C74.9237 54.2047 75.019 53.8797 75.2097 53.585C75.4003 53.2903 75.682 53.0563 76.0547 52.883C76.436 52.701 76.8997 52.61 77.4457 52.61C77.983 52.61 78.4467 52.688 78.8367 52.844C79.2267 53 79.5213 53.195 79.7207 53.429C79.9287 53.663 80.0327 53.8883 80.0327 54.105C80.0327 54.1917 79.998 54.2697 79.9287 54.339C79.8593 54.3997 79.777 54.43 79.6817 54.43H79.2527C79.088 54.43 78.958 54.3693 78.8627 54.248C78.594 53.9013 78.1217 53.728 77.4457 53.728C77.047 53.728 76.722 53.8017 76.4707 53.949C76.228 54.0963 76.1067 54.3 76.1067 54.56C76.1067 54.7767 76.1673 54.9413 76.2887 55.054C76.41 55.1667 76.592 55.2577 76.8347 55.327C77.0773 55.3963 77.5063 55.5003 78.1217 55.639C78.8843 55.8037 79.426 56.055 79.7467 56.393C80.0673 56.731 80.2277 57.1427 80.2277 57.628C80.2277 57.9833 80.115 58.3127 79.8897 58.616C79.673 58.9193 79.3567 59.1663 78.9407 59.357C78.5333 59.539 78.0567 59.63 77.5107 59.63C76.9733 59.63 76.4967 59.5477 76.0807 59.383C75.6733 59.2097 75.357 59.0017 75.1317 58.759C74.9063 58.5163 74.7937 58.2867 74.7937 58.07C74.7937 57.9833 74.8283 57.9097 74.8977 57.849C74.967 57.7797 75.0493 57.745 75.1447 57.745H75.6127C75.6907 57.745 75.76 57.7537 75.8207 57.771C75.8813 57.7883 75.9377 57.836 75.9897 57.914C76.2757 58.3127 76.7827 58.512 77.5107 58.512C77.918 58.512 78.2733 58.4297 78.5767 58.265C78.8887 58.0917 79.0447 57.8793 79.0447 57.628C79.0447 57.42 78.9667 57.2553 78.8107 57.134C78.6633 57.004 78.4467 56.9 78.1607 56.822C77.8747 56.7353 77.4283 56.627 76.8217 56.497ZM83.0859 51.362C83.0859 51.4573 83.0512 51.5397 82.9819 51.609C82.9125 51.6783 82.8302 51.713 82.7349 51.713H81.9939C81.8985 51.713 81.8162 51.6783 81.7469 51.609C81.6775 51.5397 81.6429 51.4573 81.6429 51.362V50.621C81.6429 50.5257 81.6775 50.4433 81.7469 50.374C81.8162 50.3047 81.8985 50.27 81.9939 50.27H82.7349C82.8302 50.27 82.9125 50.3047 82.9819 50.374C83.0512 50.4433 83.0859 50.5257 83.0859 50.621V51.362ZM82.9559 59.149C82.9559 59.2443 82.9212 59.3267 82.8519 59.396C82.7825 59.4653 82.7002 59.5 82.6049 59.5H82.1239C82.0285 59.5 81.9462 59.4653 81.8769 59.396C81.8075 59.3267 81.7729 59.2443 81.7729 59.149V53.091C81.7729 52.9957 81.8075 52.9133 81.8769 52.844C81.9462 52.7747 82.0285 52.74 82.1239 52.74H82.6049C82.7002 52.74 82.7825 52.7747 82.8519 52.844C82.9212 52.9133 82.9559 52.9957 82.9559 53.091V59.149ZM90.7586 55.509C90.7759 55.6997 90.7846 55.9077 90.7846 56.133C90.7846 56.341 90.7759 56.5403 90.7586 56.731C90.6806 57.615 90.3729 58.3213 89.8356 58.85C89.3069 59.37 88.5876 59.63 87.6776 59.63C86.7676 59.63 86.0439 59.37 85.5066 58.85C84.9779 58.3213 84.6746 57.615 84.5966 56.731C84.5879 56.6357 84.5836 56.4363 84.5836 56.133C84.5836 55.8123 84.5879 55.6043 84.5966 55.509C84.6659 54.625 84.9693 53.923 85.5066 53.403C86.0439 52.8743 86.7676 52.61 87.6776 52.61C88.5876 52.61 89.3113 52.8743 89.8486 53.403C90.3859 53.923 90.6893 54.625 90.7586 55.509ZM89.5756 55.574C89.5236 55.0193 89.3373 54.573 89.0166 54.235C88.7046 53.897 88.2583 53.728 87.6776 53.728C87.0969 53.728 86.6463 53.897 86.3256 54.235C86.0136 54.573 85.8316 55.0193 85.7796 55.574C85.7709 55.678 85.7666 55.8643 85.7666 56.133C85.7666 56.393 85.7709 56.5707 85.7796 56.666C85.8316 57.2207 86.0136 57.667 86.3256 58.005C86.6463 58.343 87.0969 58.512 87.6776 58.512C88.2583 58.512 88.7046 58.343 89.0166 58.005C89.3373 57.667 89.5236 57.2207 89.5756 56.666C89.5929 56.4753 89.6016 56.2977 89.6016 56.133C89.6016 55.9683 89.5929 55.782 89.5756 55.574ZM88.0676 50.192C88.1629 50.088 88.2409 50.023 88.3016 49.997C88.3623 49.9623 88.4446 49.945 88.5486 49.945H89.5106C89.5886 49.945 89.6493 49.971 89.6926 50.023C89.7359 50.0663 89.7576 50.127 89.7576 50.205C89.7576 50.2657 89.7359 50.3177 89.6926 50.361L88.2496 51.544C88.1543 51.622 88.0676 51.6783 87.9896 51.713C87.9203 51.7477 87.8249 51.765 87.7036 51.765H87.2226C87.0839 51.765 87.0146 51.6957 87.0146 51.557C87.0146 51.4877 87.0363 51.4313 87.0796 51.388L88.0676 50.192ZM98.4175 59.149C98.4175 59.2443 98.3829 59.3267 98.3135 59.396C98.2442 59.4653 98.1619 59.5 98.0665 59.5H97.5855C97.4902 59.5 97.4079 59.4653 97.3385 59.396C97.2692 59.3267 97.2345 59.2443 97.2345 59.149V55.717C97.2345 55.067 97.0742 54.573 96.7535 54.235C96.4329 53.897 95.9865 53.728 95.4145 53.728C94.8512 53.728 94.4049 53.897 94.0755 54.235C93.7549 54.573 93.5945 55.067 93.5945 55.717V59.149C93.5945 59.2443 93.5599 59.3267 93.4905 59.396C93.4212 59.4653 93.3389 59.5 93.2435 59.5H92.7625C92.6672 59.5 92.5849 59.4653 92.5155 59.396C92.4462 59.3267 92.4115 59.2443 92.4115 59.149V53.091C92.4115 52.9957 92.4462 52.9133 92.5155 52.844C92.5849 52.7747 92.6672 52.74 92.7625 52.74H93.2435C93.3389 52.74 93.4212 52.7747 93.4905 52.844C93.5599 52.9133 93.5945 52.9957 93.5945 53.091V53.494C93.7852 53.2427 94.0452 53.0347 94.3745 52.87C94.7125 52.6967 95.1242 52.61 95.6095 52.61C96.1555 52.61 96.6409 52.727 97.0655 52.961C97.4902 53.195 97.8195 53.533 98.0535 53.975C98.2962 54.4083 98.4175 54.924 98.4175 55.522V59.149ZM40.0076 74.149C40.0076 74.2443 39.9729 74.3267 39.9036 74.396C39.8343 74.4653 39.7519 74.5 39.6566 74.5H39.1756C39.0803 74.5 38.9979 74.4653 38.9286 74.396C38.8593 74.3267 38.8246 74.2443 38.8246 74.149V65.621C38.8246 65.5257 38.8593 65.4433 38.9286 65.374C38.9979 65.3047 39.0803 65.27 39.1756 65.27H39.6566C39.7519 65.27 39.8343 65.3047 39.9036 65.374C39.9729 65.4433 40.0076 65.5257 40.0076 65.621V74.149ZM44.6254 67.61C45.5527 67.61 46.285 67.9047 46.8224 68.494C47.3597 69.0833 47.6284 69.885 47.6284 70.899V71.25C47.6284 71.3453 47.5937 71.4277 47.5244 71.497C47.455 71.5663 47.3727 71.601 47.2774 71.601H42.8054V71.679C42.8227 72.251 42.996 72.7017 43.3254 73.031C43.6634 73.3517 44.0967 73.512 44.6254 73.512C45.0587 73.512 45.3924 73.4557 45.6264 73.343C45.869 73.2303 46.0857 73.07 46.2764 72.862C46.3457 72.7927 46.4064 72.745 46.4584 72.719C46.519 72.693 46.597 72.68 46.6924 72.68H47.0824C47.1864 72.68 47.273 72.7147 47.3424 72.784C47.4117 72.8533 47.442 72.9357 47.4334 73.031C47.3987 73.265 47.2687 73.5077 47.0434 73.759C46.8267 74.0017 46.5104 74.2097 46.0944 74.383C45.687 74.5477 45.1974 74.63 44.6254 74.63C44.0707 74.63 43.5767 74.5043 43.1434 74.253C42.71 73.993 42.3634 73.6377 42.1034 73.187C41.852 72.7363 41.7004 72.2293 41.6484 71.666C41.631 71.406 41.6224 71.2067 41.6224 71.068C41.6224 70.9293 41.631 70.73 41.6484 70.47C41.7004 69.9327 41.852 69.4473 42.1034 69.014C42.3634 68.5807 42.7057 68.2383 43.1304 67.987C43.5637 67.7357 44.062 67.61 44.6254 67.61ZM46.4584 70.509V70.47C46.4584 69.9413 46.2894 69.521 45.9514 69.209C45.622 68.8883 45.18 68.728 44.6254 68.728C44.1227 68.728 43.6937 68.8883 43.3384 69.209C42.9917 69.5297 42.814 69.95 42.8054 70.47V70.509H46.4584ZM51.9267 73.512C52.7933 73.512 53.3783 73.174 53.6817 72.498C53.7423 72.368 53.803 72.277 53.8637 72.225C53.9243 72.173 54.0067 72.147 54.1107 72.147H54.5007C54.596 72.147 54.6783 72.1817 54.7477 72.251C54.817 72.3117 54.8517 72.3853 54.8517 72.472C54.8517 72.7667 54.7347 73.083 54.5007 73.421C54.2667 73.759 53.9287 74.045 53.4867 74.279C53.0447 74.513 52.5247 74.63 51.9267 74.63C51.3113 74.63 50.7783 74.5 50.3277 74.24C49.877 73.98 49.5303 73.6247 49.2877 73.174C49.045 72.7147 48.9107 72.2033 48.8847 71.64C48.876 71.536 48.8717 71.3367 48.8717 71.042C48.8717 70.834 48.876 70.6867 48.8847 70.6C48.9627 69.716 49.2617 68.9967 49.7817 68.442C50.3017 67.8873 51.0167 67.61 51.9267 67.61C52.5247 67.61 53.0403 67.727 53.4737 67.961C53.9157 68.1863 54.2493 68.468 54.4747 68.806C54.7087 69.1353 54.8343 69.4473 54.8517 69.742C54.8603 69.8373 54.8257 69.9197 54.7477 69.989C54.6783 70.0583 54.596 70.093 54.5007 70.093H54.1107C54.0067 70.093 53.9243 70.067 53.8637 70.015C53.803 69.963 53.7423 69.872 53.6817 69.742C53.3783 69.066 52.7933 68.728 51.9267 68.728C51.45 68.728 51.034 68.8883 50.6787 69.209C50.3233 69.5297 50.1197 70.015 50.0677 70.665C50.059 70.7603 50.0547 70.9163 50.0547 71.133C50.0547 71.3323 50.059 71.4797 50.0677 71.575C50.1283 72.225 50.332 72.7103 50.6787 73.031C51.034 73.3517 51.45 73.512 51.9267 73.512ZM58.1756 72.225C58.1756 72.5977 58.2493 72.8837 58.3966 73.083C58.5526 73.2823 58.843 73.382 59.2676 73.382H59.9566C60.052 73.382 60.1343 73.4167 60.2036 73.486C60.273 73.5553 60.3076 73.6377 60.3076 73.733V74.149C60.3076 74.2443 60.273 74.3267 60.2036 74.396C60.1343 74.4653 60.052 74.5 59.9566 74.5H59.1376C58.401 74.5 57.8593 74.3093 57.5126 73.928C57.166 73.538 56.9926 72.9703 56.9926 72.225V68.858H56.0306C55.9353 68.858 55.853 68.8233 55.7836 68.754C55.7143 68.6847 55.6796 68.6023 55.6796 68.507V68.091C55.6796 67.9957 55.7143 67.9133 55.7836 67.844C55.853 67.7747 55.9353 67.74 56.0306 67.74H56.9926V65.621C56.9926 65.5257 57.0273 65.4433 57.0966 65.374C57.166 65.3047 57.2483 65.27 57.3436 65.27H57.8246C57.92 65.27 58.0023 65.3047 58.0716 65.374C58.141 65.4433 58.1756 65.5257 58.1756 65.621V67.74H59.8266C59.922 67.74 60.0043 67.7747 60.0736 67.844C60.143 67.9133 60.1776 67.9957 60.1776 68.091V68.507C60.1776 68.6023 60.143 68.6847 60.0736 68.754C60.0043 68.8233 59.922 68.858 59.8266 68.858H58.1756V72.225ZM67.4627 70.509C67.48 70.6997 67.4887 70.9077 67.4887 71.133C67.4887 71.341 67.48 71.5403 67.4627 71.731C67.3847 72.615 67.077 73.3213 66.5397 73.85C66.011 74.37 65.2917 74.63 64.3817 74.63C63.4717 74.63 62.748 74.37 62.2107 73.85C61.682 73.3213 61.3787 72.615 61.3007 71.731C61.292 71.6357 61.2877 71.4363 61.2877 71.133C61.2877 70.8123 61.292 70.6043 61.3007 70.509C61.37 69.625 61.6734 68.923 62.2107 68.403C62.748 67.8743 63.4717 67.61 64.3817 67.61C65.2917 67.61 66.0154 67.8743 66.5527 68.403C67.09 68.923 67.3934 69.625 67.4627 70.509ZM66.2797 70.574C66.2277 70.0193 66.0414 69.573 65.7207 69.235C65.4087 68.897 64.9624 68.728 64.3817 68.728C63.801 68.728 63.3504 68.897 63.0297 69.235C62.7177 69.573 62.5357 70.0193 62.4837 70.574C62.475 70.678 62.4707 70.8643 62.4707 71.133C62.4707 71.393 62.475 71.5707 62.4837 71.666C62.5357 72.2207 62.7177 72.667 63.0297 73.005C63.3504 73.343 63.801 73.512 64.3817 73.512C64.9624 73.512 65.4087 73.343 65.7207 73.005C66.0414 72.667 66.2277 72.2207 66.2797 71.666C66.297 71.4753 66.3057 71.2977 66.3057 71.133C66.3057 70.9683 66.297 70.782 66.2797 70.574ZM72.5476 67.74C72.643 67.74 72.7253 67.7747 72.7946 67.844C72.864 67.9133 72.8986 67.9957 72.8986 68.091V68.507C72.8986 68.6023 72.864 68.6847 72.7946 68.754C72.7253 68.8233 72.643 68.858 72.5476 68.858H71.7936C71.3083 68.858 70.9356 68.988 70.6756 69.248C70.4243 69.4993 70.2986 69.8677 70.2986 70.353V74.149C70.2986 74.2443 70.264 74.3267 70.1946 74.396C70.1253 74.4653 70.043 74.5 69.9476 74.5H69.4666C69.3713 74.5 69.289 74.4653 69.2196 74.396C69.1503 74.3267 69.1156 74.2443 69.1156 74.149V68.091C69.1156 67.9957 69.1503 67.9133 69.2196 67.844C69.289 67.7747 69.3713 67.74 69.4666 67.74H69.9476C70.043 67.74 70.1253 67.7747 70.1946 67.844C70.264 67.9133 70.2986 67.9957 70.2986 68.091V68.494C70.472 68.234 70.68 68.0433 70.9226 67.922C71.1653 67.8007 71.4816 67.74 71.8716 67.74H72.5476ZM78.0457 70.223V70.054C78.0457 69.6293 77.9027 69.3043 77.6167 69.079C77.3394 68.845 76.9754 68.728 76.5247 68.728C76.178 68.728 75.905 68.7887 75.7057 68.91C75.515 69.0227 75.333 69.196 75.1597 69.43C75.1077 69.4993 75.0514 69.547 74.9907 69.573C74.93 69.599 74.8477 69.612 74.7437 69.612H74.3537C74.2584 69.612 74.1717 69.5773 74.0937 69.508C74.0244 69.4387 73.994 69.3563 74.0027 69.261C74.0287 69.001 74.1544 68.7453 74.3797 68.494C74.6137 68.234 74.9214 68.0217 75.3027 67.857C75.684 67.6923 76.0914 67.61 76.5247 67.61C77.3307 67.61 77.9807 67.8353 78.4747 68.286C78.9774 68.7367 79.2287 69.3693 79.2287 70.184V74.149C79.2287 74.2443 79.194 74.3267 79.1247 74.396C79.0554 74.4653 78.973 74.5 78.8777 74.5H78.3967C78.3014 74.5 78.219 74.4653 78.1497 74.396C78.0804 74.3267 78.0457 74.2443 78.0457 74.149V73.616C77.907 73.928 77.6124 74.175 77.1617 74.357C76.711 74.539 76.2604 74.63 75.8097 74.63C75.3677 74.63 74.9734 74.552 74.6267 74.396C74.28 74.2313 74.0114 74.0103 73.8207 73.733C73.6387 73.4557 73.5477 73.1437 73.5477 72.797C73.5477 72.147 73.7904 71.64 74.2757 71.276C74.761 70.9033 75.4067 70.652 76.2127 70.522L78.0457 70.223ZM78.0457 71.263L76.5117 71.51C75.9484 71.5967 75.5107 71.7397 75.1987 71.939C74.8867 72.1297 74.7307 72.3723 74.7307 72.667C74.7307 72.8837 74.8304 73.0787 75.0297 73.252C75.229 73.4253 75.5324 73.512 75.9397 73.512C76.5637 73.512 77.0707 73.3343 77.4607 72.979C77.8507 72.6237 78.0457 72.16 78.0457 71.588V71.263Z" fill="#EBECEE"/>
<rect x="40" y="81.5" width="38" height="25" rx="12.5" fill="#2D68F8"/>
<path d="M57.1579 92.354C57.1766 92.6153 57.1859 93.0353 57.1859 93.614C57.1859 94.1833 57.1766 94.594 57.1579 94.846C57.0926 95.9567 56.7239 96.8667 56.0519 97.576C55.3892 98.2853 54.3952 98.64 53.0699 98.64C51.7446 98.64 50.7459 98.2853 50.0739 97.576C49.4112 96.8667 49.0472 95.9567 48.9819 94.846C48.9632 94.342 48.9539 93.9313 48.9539 93.614C48.9539 93.2967 48.9632 92.8767 48.9819 92.354C49.0472 91.2433 49.4112 90.3333 50.0739 89.624C50.7459 88.9147 51.7446 88.56 53.0699 88.56C54.3952 88.56 55.3892 88.9147 56.0519 89.624C56.7239 90.3333 57.0926 91.2433 57.1579 92.354ZM54.5679 92.424C54.5399 91.9107 54.4139 91.514 54.1899 91.234C53.9659 90.9447 53.5926 90.8 53.0699 90.8C52.5472 90.8 52.1739 90.9447 51.9499 91.234C51.7259 91.514 51.5999 91.9107 51.5719 92.424C51.5532 92.928 51.5439 93.3153 51.5439 93.586C51.5439 93.838 51.5532 94.2347 51.5719 94.776C51.5906 95.2893 51.7119 95.6907 51.9359 95.98C52.1692 96.26 52.5472 96.4 53.0699 96.4C53.5926 96.4 53.9659 96.26 54.1899 95.98C54.4232 95.6907 54.5492 95.2893 54.5679 94.776C54.5866 94.5053 54.5959 94.1087 54.5959 93.586C54.5959 93.0633 54.5866 92.676 54.5679 92.424ZM62.7646 91.682C62.7366 92.27 62.5359 92.7507 62.1626 93.124C61.7986 93.488 61.2666 93.67 60.5666 93.67C59.8666 93.67 59.3346 93.488 58.9706 93.124C58.6159 92.76 58.4152 92.2793 58.3686 91.682C58.3592 91.5607 58.3546 91.388 58.3546 91.164C58.3546 90.9307 58.3592 90.7487 58.3686 90.618C58.4152 90.0207 58.6159 89.54 58.9706 89.176C59.3346 88.812 59.8666 88.63 60.5666 88.63C61.2666 88.63 61.7939 88.812 62.1486 89.176C62.5126 89.54 62.7179 90.0207 62.7646 90.618C62.7832 90.8793 62.7926 91.0613 62.7926 91.164C62.7926 91.2667 62.7832 91.4393 62.7646 91.682ZM66.2646 88.966C66.3392 88.8727 66.4092 88.8073 66.4746 88.77C66.5492 88.7233 66.6472 88.7 66.7686 88.7H67.9166C68.0192 88.7 68.0986 88.728 68.1546 88.784C68.2199 88.8307 68.2526 88.896 68.2526 88.98C68.2526 89.036 68.2339 89.0873 68.1966 89.134L61.2806 98.234C61.2059 98.3273 61.1312 98.3973 61.0566 98.444C60.9912 98.4813 60.8979 98.5 60.7766 98.5H59.6286C59.5259 98.5 59.4419 98.4767 59.3766 98.43C59.3206 98.374 59.2926 98.304 59.2926 98.22C59.2926 98.164 59.3112 98.1127 59.3486 98.066L66.2646 88.966ZM60.5666 92.34C60.7626 92.34 60.9026 92.284 60.9866 92.172C61.0706 92.06 61.1219 91.8733 61.1406 91.612C61.1592 91.388 61.1686 91.234 61.1686 91.15C61.1686 91.0473 61.1592 90.8933 61.1406 90.688C61.1219 90.4267 61.0706 90.24 60.9866 90.128C60.9026 90.016 60.7626 89.96 60.5666 89.96C60.3706 89.96 60.2306 90.016 60.1466 90.128C60.0626 90.24 60.0112 90.4267 59.9926 90.688C59.9832 90.7907 59.9786 90.9447 59.9786 91.15C59.9786 91.346 59.9832 91.5 59.9926 91.612C60.0112 91.8733 60.0626 92.06 60.1466 92.172C60.2306 92.284 60.3706 92.34 60.5666 92.34ZM69.2606 96.582C69.2326 97.17 69.0319 97.6507 68.6586 98.024C68.2946 98.388 67.7626 98.57 67.0626 98.57C66.3626 98.57 65.8306 98.388 65.4666 98.024C65.1119 97.66 64.9112 97.1793 64.8646 96.582C64.8552 96.4607 64.8506 96.288 64.8506 96.064C64.8506 95.8307 64.8552 95.6487 64.8646 95.518C64.9112 94.9207 65.1119 94.44 65.4666 94.076C65.8306 93.712 66.3626 93.53 67.0626 93.53C67.7626 93.53 68.2899 93.712 68.6446 94.076C69.0086 94.44 69.2139 94.9207 69.2606 95.518C69.2792 95.7793 69.2886 95.9613 69.2886 96.064C69.2886 96.1667 69.2792 96.3393 69.2606 96.582ZM67.0626 97.24C67.2586 97.24 67.3986 97.184 67.4826 97.072C67.5666 96.96 67.6179 96.7733 67.6366 96.512C67.6552 96.288 67.6646 96.134 67.6646 96.05C67.6646 95.9473 67.6552 95.7933 67.6366 95.588C67.6179 95.3267 67.5666 95.14 67.4826 95.028C67.3986 94.916 67.2586 94.86 67.0626 94.86C66.8666 94.86 66.7266 94.916 66.6426 95.028C66.5586 95.14 66.5072 95.3267 66.4886 95.588C66.4792 95.6907 66.4746 95.8447 66.4746 96.05C66.4746 96.246 66.4792 96.4 66.4886 96.512C66.5072 96.7733 66.5586 96.96 66.6426 97.072C66.7266 97.184 66.8666 97.24 67.0626 97.24Z" fill="white"/>
<rect x="87" y="13" width="34" height="34" rx="17" fill="white"/>
<rect x="87" y="13" width="34" height="34" rx="17" stroke="#1DA534" stroke-width="2"/>
<path opacity="0.4" d="M104 40C109.523 40 114 35.5228 114 30C114 24.4772 109.523 20 104 20C98.4772 20 94 24.4772 94 30C94 35.5228 98.4772 40 104 40Z" fill="#1DA534"/>
<path d="M102.579 33.5801C102.379 33.5801 102.189 33.5001 102.049 33.3601L99.2195 30.5301C98.9295 30.2401 98.9295 29.7601 99.2195 29.4701C99.5095 29.1801 99.9895 29.1801 100.279 29.4701L102.579 31.7701L107.719 26.6301C108.009 26.3401 108.489 26.3401 108.779 26.6301C109.069 26.9201 109.069 27.4001 108.779 27.6901L103.109 33.3601C102.969 33.5001 102.779 33.5801 102.579 33.5801Z" fill="#1DA534"/>
</svg>
