<svg width="242" height="238" viewBox="0 0 242 238" fill="none" xmlns="http://www.w3.org/2000/svg">
<g filter="url(#filter0_d_15958_23154)">
<rect x="64" y="64" width="110" height="110" rx="55" fill="#F27430" fill-opacity="0.15" shape-rendering="crispEdges"/>
<rect x="62" y="62" width="114" height="114" rx="57" stroke="#F27430" stroke-width="4" shape-rendering="crispEdges"/>
<g clip-path="url(#clip0_15958_23154)">
<path d="M110.524 97.8593C111.116 96.3798 111.696 94.9356 112.273 93.4905C113.348 90.8007 114.424 88.1109 115.494 85.4193C115.615 85.1148 115.798 84.9771 116.141 84.9771C121.328 84.985 126.516 84.9823 131.703 84.9823C132.192 84.9823 132.332 85.1254 132.332 85.6188C132.332 86.2341 132.332 86.8485 132.332 87.4638C132.332 87.9343 132.187 88.08 131.71 88.08C127.177 88.08 122.644 88.0826 118.112 88.0747C117.868 88.0747 117.76 88.1435 117.668 88.3748C115.558 93.6679 113.438 98.9566 111.322 104.247C111.239 104.453 111.162 104.657 110.923 104.727C110.674 104.8 110.457 104.683 110.31 104.388C109.576 102.925 108.844 101.459 108.112 99.9947C107.679 99.1305 107.241 98.2689 106.821 97.3976C106.734 97.2149 106.635 97.1434 106.441 97.1681C106.334 97.1813 106.22 97.1822 106.115 97.1619C105.858 97.1133 105.674 96.9774 105.672 96.6896C105.667 95.9658 105.666 95.2419 105.673 94.518C105.675 94.2399 105.871 94.0528 106.179 94.0484C106.883 94.0378 107.587 94.0431 108.291 94.0457C108.551 94.0466 108.701 94.2002 108.81 94.4218C109.37 95.5517 109.936 96.679 110.524 97.8593H110.524Z" fill="#F27430"/>
<path opacity="0.4" d="M125.296 98.8207C125.897 99.4201 126.493 100.013 127.088 100.607C127.454 100.974 127.454 101.195 127.092 101.557C126.657 101.992 126.224 102.428 125.787 102.858C125.475 103.166 125.255 103.166 124.948 102.861C124.4 102.316 123.848 101.774 123.311 101.218C123.158 101.06 123.07 101.029 122.901 101.208C122.373 101.759 121.825 102.291 121.283 102.828C120.932 103.175 120.728 103.174 120.379 102.828C119.937 102.386 119.494 101.946 119.055 101.503C118.751 101.196 118.752 100.979 119.061 100.667C119.626 100.096 120.189 99.5242 120.763 98.9628C120.883 98.8445 120.881 98.7862 120.762 98.6697C120.194 98.1153 119.637 97.5521 119.077 96.9898C118.746 96.6579 118.747 96.4469 119.08 96.1115C119.519 95.6674 119.959 95.2243 120.4 94.7829C120.714 94.4695 120.947 94.4686 121.263 94.7829C121.827 95.3417 122.391 95.8987 122.942 96.4681C123.075 96.604 123.14 96.5934 123.266 96.4637C123.818 95.8952 124.381 95.3364 124.942 94.7758C125.247 94.4713 125.48 94.4686 125.783 94.7679C126.227 95.2075 126.667 95.6507 127.108 96.0929C127.448 96.4337 127.451 96.6614 127.115 96.9986C126.514 97.6025 125.911 98.2045 125.296 98.8198V98.8207Z" fill="#F27430"/>
</g>
<path d="M96.1987 127C96.1294 127 96.0687 126.974 96.0167 126.922C95.9647 126.87 95.9387 126.809 95.9387 126.74C95.9387 126.697 95.943 126.649 95.9517 126.597L99.1757 118.186C99.2104 118.099 99.258 118.03 99.3187 117.978C99.3794 117.926 99.4704 117.9 99.5917 117.9H100.476C100.588 117.9 100.675 117.926 100.736 117.978C100.805 118.03 100.857 118.099 100.892 118.186L104.103 126.597C104.12 126.649 104.129 126.697 104.129 126.74C104.129 126.809 104.103 126.87 104.051 126.922C103.999 126.974 103.938 127 103.869 127H103.206C103.102 127 103.024 126.974 102.972 126.922C102.928 126.87 102.898 126.822 102.881 126.779L102.166 124.933H97.9017L97.1867 126.779C97.178 126.822 97.1477 126.87 97.0957 126.922C97.0437 126.974 96.9657 127 96.8617 127H96.1987ZM98.2787 123.815H101.789L100.034 119.2L98.2787 123.815ZM99.6827 117.25C99.544 117.25 99.4747 117.181 99.4747 117.042C99.4747 116.973 99.4964 116.916 99.5397 116.873L100.515 115.703C100.593 115.608 100.662 115.547 100.723 115.521C100.783 115.486 100.874 115.469 100.996 115.469H101.958C102.122 115.469 102.205 115.551 102.205 115.716C102.205 115.777 102.183 115.829 102.14 115.872L100.632 117.107C100.562 117.168 100.497 117.207 100.437 117.224C100.376 117.241 100.298 117.25 100.203 117.25H99.6827ZM105.662 127C105.575 127 105.501 126.974 105.441 126.922C105.389 126.861 105.363 126.788 105.363 126.701V118.069C105.363 117.982 105.389 117.913 105.441 117.861C105.501 117.8 105.575 117.77 105.662 117.77H106.273C106.368 117.77 106.442 117.8 106.494 117.861C106.546 117.913 106.572 117.982 106.572 118.069V126.701C106.572 126.788 106.546 126.861 106.494 126.922C106.442 126.974 106.368 127 106.273 127H105.662ZM111.28 129.86C110.69 129.86 110.205 129.782 109.824 129.626C109.451 129.47 109.156 129.279 108.94 129.054C108.732 128.837 108.58 128.616 108.485 128.391C108.398 128.174 108.35 128.001 108.342 127.871C108.333 127.784 108.359 127.711 108.42 127.65C108.489 127.589 108.563 127.559 108.641 127.559H109.265C109.343 127.559 109.408 127.576 109.46 127.611C109.512 127.646 109.555 127.719 109.59 127.832C109.642 127.962 109.72 128.105 109.824 128.261C109.928 128.426 110.088 128.564 110.305 128.677C110.521 128.798 110.825 128.859 111.215 128.859C111.622 128.859 111.964 128.803 112.242 128.69C112.519 128.586 112.727 128.395 112.866 128.118C113.013 127.849 113.087 127.477 113.087 127V126.116C112.879 126.385 112.606 126.61 112.268 126.792C111.93 126.965 111.505 127.052 110.994 127.052C110.508 127.052 110.092 126.97 109.746 126.805C109.399 126.632 109.113 126.402 108.888 126.116C108.671 125.821 108.506 125.488 108.394 125.115C108.29 124.742 108.229 124.352 108.212 123.945C108.203 123.702 108.203 123.464 108.212 123.23C108.229 122.823 108.29 122.433 108.394 122.06C108.506 121.687 108.671 121.354 108.888 121.059C109.113 120.764 109.399 120.535 109.746 120.37C110.092 120.197 110.508 120.11 110.994 120.11C111.514 120.11 111.943 120.21 112.281 120.409C112.627 120.6 112.909 120.834 113.126 121.111V120.552C113.126 120.465 113.152 120.392 113.204 120.331C113.264 120.27 113.338 120.24 113.425 120.24H114.023C114.109 120.24 114.183 120.27 114.244 120.331C114.304 120.392 114.335 120.465 114.335 120.552V126.857C114.335 127.438 114.235 127.953 114.036 128.404C113.845 128.855 113.524 129.21 113.074 129.47C112.632 129.73 112.034 129.86 111.28 129.86ZM111.254 126.012C111.687 126.012 112.034 125.912 112.294 125.713C112.562 125.514 112.757 125.262 112.879 124.959C113.009 124.656 113.078 124.348 113.087 124.036C113.095 123.915 113.1 123.767 113.1 123.594C113.1 123.412 113.095 123.26 113.087 123.139C113.078 122.827 113.009 122.519 112.879 122.216C112.757 121.913 112.562 121.661 112.294 121.462C112.034 121.263 111.687 121.163 111.254 121.163C110.82 121.163 110.474 121.263 110.214 121.462C109.954 121.653 109.767 121.908 109.655 122.229C109.542 122.541 109.477 122.879 109.46 123.243C109.451 123.468 109.451 123.698 109.46 123.932C109.477 124.296 109.542 124.638 109.655 124.959C109.767 125.271 109.954 125.527 110.214 125.726C110.474 125.917 110.82 126.012 111.254 126.012ZM118.959 127.13C118.066 127.13 117.355 126.857 116.827 126.311C116.298 125.756 116.008 125.002 115.956 124.049C115.947 123.936 115.943 123.793 115.943 123.62C115.943 123.438 115.947 123.291 115.956 123.178C115.99 122.563 116.133 122.025 116.385 121.566C116.636 121.098 116.978 120.738 117.412 120.487C117.854 120.236 118.369 120.11 118.959 120.11C119.617 120.11 120.168 120.249 120.61 120.526C121.06 120.803 121.403 121.198 121.637 121.709C121.871 122.22 121.988 122.818 121.988 123.503V123.724C121.988 123.819 121.957 123.893 121.897 123.945C121.845 123.997 121.775 124.023 121.689 124.023H117.191C117.191 124.032 117.191 124.049 117.191 124.075C117.191 124.101 117.191 124.123 117.191 124.14C117.208 124.495 117.286 124.829 117.425 125.141C117.563 125.444 117.763 125.691 118.023 125.882C118.283 126.073 118.595 126.168 118.959 126.168C119.271 126.168 119.531 126.12 119.739 126.025C119.947 125.93 120.116 125.826 120.246 125.713C120.376 125.592 120.462 125.501 120.506 125.44C120.584 125.327 120.644 125.262 120.688 125.245C120.731 125.219 120.8 125.206 120.896 125.206H121.52C121.606 125.206 121.676 125.232 121.728 125.284C121.788 125.327 121.814 125.392 121.806 125.479C121.797 125.609 121.728 125.769 121.598 125.96C121.468 126.142 121.281 126.324 121.039 126.506C120.796 126.688 120.501 126.84 120.155 126.961C119.808 127.074 119.409 127.13 118.959 127.13ZM117.191 123.126H120.753V123.087C120.753 122.697 120.679 122.35 120.532 122.047C120.393 121.744 120.189 121.505 119.921 121.332C119.652 121.15 119.331 121.059 118.959 121.059C118.586 121.059 118.265 121.15 117.997 121.332C117.737 121.505 117.537 121.744 117.399 122.047C117.26 122.35 117.191 122.697 117.191 123.087V123.126ZM126.883 127.13C126.363 127.13 125.93 127.039 125.583 126.857C125.236 126.666 124.959 126.432 124.751 126.155V126.701C124.751 126.788 124.721 126.861 124.66 126.922C124.608 126.974 124.539 127 124.452 127H123.854C123.767 127 123.694 126.974 123.633 126.922C123.581 126.861 123.555 126.788 123.555 126.701V118.069C123.555 117.982 123.581 117.913 123.633 117.861C123.694 117.8 123.767 117.77 123.854 117.77H124.478C124.573 117.77 124.647 117.8 124.699 117.861C124.751 117.913 124.777 117.982 124.777 118.069V121.059C124.994 120.79 125.271 120.565 125.609 120.383C125.956 120.201 126.38 120.11 126.883 120.11C127.368 120.11 127.78 120.197 128.118 120.37C128.465 120.535 128.746 120.764 128.963 121.059C129.188 121.354 129.357 121.687 129.47 122.06C129.583 122.433 129.643 122.823 129.652 123.23C129.661 123.369 129.665 123.499 129.665 123.62C129.665 123.741 129.661 123.871 129.652 124.01C129.643 124.426 129.583 124.82 129.47 125.193C129.357 125.566 129.188 125.899 128.963 126.194C128.746 126.48 128.465 126.71 128.118 126.883C127.78 127.048 127.368 127.13 126.883 127.13ZM126.61 126.077C127.061 126.077 127.412 125.982 127.663 125.791C127.923 125.592 128.109 125.336 128.222 125.024C128.335 124.703 128.4 124.361 128.417 123.997C128.426 123.746 128.426 123.494 128.417 123.243C128.4 122.879 128.335 122.541 128.222 122.229C128.109 121.908 127.923 121.653 127.663 121.462C127.412 121.263 127.061 121.163 126.61 121.163C126.203 121.163 125.865 121.258 125.596 121.449C125.327 121.64 125.124 121.882 124.985 122.177C124.855 122.472 124.786 122.771 124.777 123.074C124.768 123.213 124.764 123.382 124.764 123.581C124.764 123.772 124.768 123.936 124.777 124.075C124.794 124.396 124.864 124.712 124.985 125.024C125.115 125.327 125.31 125.579 125.57 125.778C125.839 125.977 126.185 126.077 126.61 126.077ZM131.573 127C131.486 127 131.412 126.974 131.352 126.922C131.3 126.861 131.274 126.788 131.274 126.701V120.552C131.274 120.465 131.3 120.392 131.352 120.331C131.412 120.27 131.486 120.24 131.573 120.24H132.171C132.257 120.24 132.331 120.27 132.392 120.331C132.452 120.392 132.483 120.465 132.483 120.552V121.124C132.656 120.829 132.894 120.608 133.198 120.461C133.501 120.314 133.865 120.24 134.29 120.24H134.81C134.896 120.24 134.966 120.27 135.018 120.331C135.07 120.383 135.096 120.452 135.096 120.539V121.072C135.096 121.159 135.07 121.228 135.018 121.28C134.966 121.332 134.896 121.358 134.81 121.358H134.03C133.562 121.358 133.193 121.497 132.925 121.774C132.656 122.043 132.522 122.411 132.522 122.879V126.701C132.522 126.788 132.491 126.861 132.431 126.922C132.37 126.974 132.296 127 132.21 127H131.573ZM137.995 127.13C137.562 127.13 137.168 127.043 136.812 126.87C136.457 126.697 136.171 126.463 135.954 126.168C135.738 125.873 135.629 125.54 135.629 125.167C135.629 124.569 135.872 124.092 136.357 123.737C136.843 123.382 137.475 123.148 138.255 123.035L140.192 122.762V122.385C140.192 121.969 140.071 121.644 139.828 121.41C139.594 121.176 139.209 121.059 138.671 121.059C138.281 121.059 137.965 121.137 137.722 121.293C137.488 121.449 137.324 121.648 137.228 121.891C137.176 122.021 137.085 122.086 136.955 122.086H136.37C136.275 122.086 136.201 122.06 136.149 122.008C136.106 121.947 136.084 121.878 136.084 121.8C136.084 121.67 136.132 121.51 136.227 121.319C136.331 121.128 136.487 120.942 136.695 120.76C136.903 120.578 137.168 120.426 137.488 120.305C137.818 120.175 138.216 120.11 138.684 120.11C139.204 120.11 139.642 120.179 139.997 120.318C140.353 120.448 140.63 120.626 140.829 120.851C141.037 121.076 141.185 121.332 141.271 121.618C141.367 121.904 141.414 122.194 141.414 122.489V126.701C141.414 126.788 141.384 126.861 141.323 126.922C141.271 126.974 141.202 127 141.115 127H140.517C140.422 127 140.348 126.974 140.296 126.922C140.244 126.861 140.218 126.788 140.218 126.701V126.142C140.106 126.298 139.954 126.454 139.763 126.61C139.573 126.757 139.334 126.883 139.048 126.987C138.762 127.082 138.411 127.13 137.995 127.13ZM138.268 126.155C138.624 126.155 138.949 126.081 139.243 125.934C139.538 125.778 139.768 125.54 139.932 125.219C140.106 124.898 140.192 124.495 140.192 124.01V123.646L138.684 123.867C138.069 123.954 137.605 124.101 137.293 124.309C136.981 124.508 136.825 124.764 136.825 125.076C136.825 125.319 136.895 125.522 137.033 125.687C137.181 125.843 137.363 125.96 137.579 126.038C137.805 126.116 138.034 126.155 138.268 126.155Z" fill="#EBECEE"/>
<rect x="100.5" y="134" width="37" height="25" rx="12.5" fill="#F27430"/>
<path d="M113.342 151.14C112.67 151.14 112.086 151.047 111.592 150.86C111.097 150.664 110.686 150.398 110.36 150.062C110.042 149.726 109.8 149.334 109.632 148.886C109.464 148.438 109.366 147.957 109.338 147.444C109.328 147.192 109.319 146.907 109.31 146.59C109.31 146.263 109.31 145.937 109.31 145.61C109.319 145.274 109.328 144.975 109.338 144.714C109.366 144.201 109.464 143.725 109.632 143.286C109.809 142.838 110.061 142.451 110.388 142.124C110.724 141.788 111.134 141.527 111.62 141.34C112.114 141.153 112.688 141.06 113.342 141.06C114.004 141.06 114.578 141.153 115.064 141.34C115.549 141.527 115.955 141.788 116.282 142.124C116.618 142.451 116.874 142.838 117.052 143.286C117.229 143.725 117.327 144.201 117.346 144.714C117.364 144.975 117.374 145.274 117.374 145.61C117.383 145.937 117.383 146.263 117.374 146.59C117.374 146.907 117.364 147.192 117.346 147.444C117.327 147.957 117.229 148.438 117.052 148.886C116.884 149.334 116.636 149.726 116.31 150.062C115.992 150.398 115.586 150.664 115.092 150.86C114.606 151.047 114.023 151.14 113.342 151.14ZM113.342 149.11C113.827 149.11 114.177 148.956 114.392 148.648C114.616 148.331 114.732 147.906 114.742 147.374C114.76 147.103 114.77 146.819 114.77 146.52C114.779 146.221 114.779 145.923 114.77 145.624C114.77 145.325 114.76 145.05 114.742 144.798C114.732 144.285 114.616 143.869 114.392 143.552C114.177 143.235 113.827 143.071 113.342 143.062C112.856 143.071 112.506 143.235 112.292 143.552C112.077 143.869 111.96 144.285 111.942 144.798C111.932 145.05 111.923 145.325 111.914 145.624C111.914 145.923 111.914 146.221 111.914 146.52C111.923 146.819 111.932 147.103 111.942 147.374C111.96 147.906 112.082 148.331 112.306 148.648C112.53 148.956 112.875 149.11 113.342 149.11ZM119.679 151C119.465 151 119.357 150.907 119.357 150.72C119.357 150.664 119.376 150.613 119.413 150.566L126.329 141.466C126.395 141.382 126.46 141.317 126.525 141.27C126.591 141.223 126.689 141.2 126.819 141.2H127.813C128.028 141.2 128.135 141.293 128.135 141.48C128.135 141.536 128.117 141.587 128.079 141.634L121.163 150.734C121.098 150.818 121.033 150.883 120.967 150.93C120.902 150.977 120.804 151 120.673 151H119.679ZM126.721 151.07C126.087 151.07 125.578 150.902 125.195 150.566C124.822 150.23 124.612 149.782 124.565 149.222C124.556 148.979 124.551 148.765 124.551 148.578C124.551 148.391 124.556 148.167 124.565 147.906C124.603 147.337 124.803 146.884 125.167 146.548C125.541 146.203 126.059 146.03 126.721 146.03C127.393 146.03 127.911 146.203 128.275 146.548C128.639 146.884 128.84 147.337 128.877 147.906C128.896 148.167 128.905 148.391 128.905 148.578C128.905 148.765 128.896 148.979 128.877 149.222C128.84 149.782 128.63 150.23 128.247 150.566C127.865 150.902 127.356 151.07 126.721 151.07ZM126.721 149.838C126.88 149.838 127.001 149.805 127.085 149.74C127.179 149.675 127.249 149.591 127.295 149.488C127.342 149.376 127.365 149.259 127.365 149.138C127.384 148.923 127.393 148.727 127.393 148.55C127.393 148.373 127.384 148.181 127.365 147.976C127.356 147.799 127.305 147.64 127.211 147.5C127.118 147.351 126.955 147.276 126.721 147.276C126.488 147.276 126.325 147.351 126.231 147.5C126.138 147.64 126.087 147.799 126.077 147.976C126.068 148.181 126.063 148.373 126.063 148.55C126.063 148.727 126.068 148.923 126.077 149.138C126.087 149.259 126.11 149.376 126.147 149.488C126.194 149.591 126.264 149.675 126.357 149.74C126.451 149.805 126.572 149.838 126.721 149.838ZM120.799 146.142C120.155 146.142 119.642 145.979 119.259 145.652C118.886 145.316 118.681 144.868 118.643 144.308C118.625 144.065 118.615 143.855 118.615 143.678C118.625 143.491 118.634 143.267 118.643 143.006C118.671 142.437 118.867 141.984 119.231 141.648C119.605 141.303 120.127 141.13 120.799 141.13C121.471 141.13 121.989 141.303 122.353 141.648C122.717 141.984 122.913 142.437 122.941 143.006C122.96 143.267 122.969 143.491 122.969 143.678C122.969 143.855 122.96 144.065 122.941 144.308C122.913 144.868 122.708 145.316 122.325 145.652C121.943 145.979 121.434 146.142 120.799 146.142ZM120.799 144.938C120.949 144.938 121.07 144.905 121.163 144.84C121.257 144.765 121.327 144.677 121.373 144.574C121.42 144.462 121.443 144.35 121.443 144.238C121.462 144.023 121.471 143.827 121.471 143.65C121.471 143.473 121.462 143.281 121.443 143.076C121.434 142.899 121.378 142.74 121.275 142.6C121.182 142.451 121.023 142.376 120.799 142.376C120.566 142.376 120.398 142.451 120.295 142.6C120.202 142.74 120.151 142.899 120.141 143.076C120.132 143.281 120.127 143.473 120.127 143.65C120.127 143.827 120.132 144.023 120.141 144.238C120.151 144.35 120.174 144.462 120.211 144.574C120.258 144.677 120.328 144.765 120.421 144.84C120.515 144.905 120.641 144.938 120.799 144.938Z" fill="#EBECEE"/>
<g filter="url(#filter1_d_15958_23154)">
<rect x="148" y="74" width="32" height="32" rx="16" fill="white"/>
<rect x="147" y="73" width="34" height="34" rx="17" stroke="#1DA534" stroke-width="2"/>
<path opacity="0.4" d="M164 100C169.523 100 174 95.5228 174 90C174 84.4772 169.523 80 164 80C158.477 80 154 84.4772 154 90C154 95.5228 158.477 100 164 100Z" fill="#1DA534"/>
<path d="M162.579 93.5801C162.379 93.5801 162.189 93.5001 162.049 93.3601L159.219 90.5301C158.929 90.2401 158.929 89.7601 159.219 89.4701C159.509 89.1801 159.989 89.1801 160.279 89.4701L162.579 91.7701L167.719 86.6301C168.009 86.3401 168.489 86.3401 168.779 86.6301C169.069 86.9201 169.069 87.4001 168.779 87.6901L163.109 93.3601C162.969 93.5001 162.779 93.5801 162.579 93.5801Z" fill="#1DA534"/>
</g>
</g>
<defs>
<filter id="filter0_d_15958_23154" x="0" y="0" width="242" height="238" filterUnits="userSpaceOnUse" color-interpolation-filters="sRGB">
<feFlood flood-opacity="0" result="BackgroundImageFix"/>
<feColorMatrix in="SourceAlpha" type="matrix" values="0 0 0 0 0 0 0 0 0 0 0 0 0 0 0 0 0 0 127 0" result="hardAlpha"/>
<feOffset/>
<feGaussianBlur stdDeviation="30"/>
<feComposite in2="hardAlpha" operator="out"/>
<feColorMatrix type="matrix" values="0 0 0 0 0.94902 0 0 0 0 0.470588 0 0 0 0 0.180392 0 0 0 1 0"/>
<feBlend mode="normal" in2="BackgroundImageFix" result="effect1_dropShadow_15958_23154"/>
<feBlend mode="normal" in="SourceGraphic" in2="effect1_dropShadow_15958_23154" result="shape"/>
</filter>
<filter id="filter1_d_15958_23154" x="131" y="65" width="66" height="66" filterUnits="userSpaceOnUse" color-interpolation-filters="sRGB">
<feFlood flood-opacity="0" result="BackgroundImageFix"/>
<feColorMatrix in="SourceAlpha" type="matrix" values="0 0 0 0 0 0 0 0 0 0 0 0 0 0 0 0 0 0 127 0" result="hardAlpha"/>
<feOffset dy="8"/>
<feGaussianBlur stdDeviation="7.5"/>
<feColorMatrix type="matrix" values="0 0 0 0 0 0 0 0 0 0 0 0 0 0 0 0 0 0 0.25 0"/>
<feBlend mode="normal" in2="BackgroundImageFix" result="effect1_dropShadow_15958_23154"/>
<feBlend mode="normal" in="SourceGraphic" in2="effect1_dropShadow_15958_23154" result="shape"/>
</filter>
<clipPath id="clip0_15958_23154">
<rect width="26.6667" height="19.7714" fill="white" transform="translate(105.666 84.9771)"/>
</clipPath>
</defs>
</svg>
