<svg width="242" height="238" viewBox="0 0 242 238" fill="none" xmlns="http://www.w3.org/2000/svg">
<g filter="url(#filter0_d_15958_23128)">
<rect x="64" y="64" width="110" height="110" rx="55" fill="#A677B3" fill-opacity="0.15" shape-rendering="crispEdges"/>
<rect x="62" y="62" width="114" height="114" rx="57" stroke="#A677B3" stroke-width="4" shape-rendering="crispEdges"/>
<g clip-path="url(#clip0_15958_23128)">
<mask id="mask0_15958_23128" style="mask-type:luminance" maskUnits="userSpaceOnUse" x="103" y="79" width="32" height="32">
<path d="M135 79H103V111H135V79Z" fill="white"/>
</mask>
<g mask="url(#mask0_15958_23128)">
<path opacity="0.4" fill-rule="evenodd" clip-rule="evenodd" d="M117.984 82.5878C116.805 81.6833 115.25 81.4227 113.837 81.9068C112.397 82.4001 111.317 83.5868 110.957 85.0668C110.837 85.6401 110.384 86.0935 109.811 86.2135C108.117 86.5601 106.717 87.7201 106.051 89.3068C105.384 90.9068 105.571 92.7202 106.517 94.1602C106.864 94.6669 106.864 95.3335 106.517 95.8269C105.557 97.2669 105.384 99.0802 106.051 100.68C106.704 102.28 108.117 103.44 109.811 103.773C110.384 103.893 110.837 104.347 110.957 104.92C111.317 106.4 112.397 107.587 113.837 108.08C115.25 108.564 116.805 108.304 117.984 107.399V82.5878ZM119.984 107.399C121.163 108.304 122.717 108.564 124.131 108.08C125.571 107.587 126.651 106.387 127.011 104.907C127.131 104.333 127.584 103.88 128.157 103.76C129.851 103.413 131.251 102.253 131.917 100.653C132.571 99.0534 132.397 97.2401 131.437 95.8001C131.091 95.2934 131.091 94.6401 131.437 94.1334C132.397 92.6934 132.571 90.8801 131.917 89.2801C131.251 87.6801 129.851 86.5201 128.157 86.1735C127.584 86.0535 127.131 85.6001 127.011 85.0268C126.651 83.5468 125.571 82.3601 124.131 81.8668C122.717 81.3826 121.163 81.6434 119.984 82.5482V107.399Z" fill="#A677B3"/>
<path fill-rule="evenodd" clip-rule="evenodd" d="M126.386 98.96C125.298 98.96 124.426 99.8322 124.426 100.92V101.92H122.426V100.92C122.426 98.7277 124.193 96.96 126.386 96.96H127.386V98.96H126.386Z" fill="#A677B3"/>
<path fill-rule="evenodd" clip-rule="evenodd" d="M115.546 88.0801V89.0801C115.546 91.2723 113.778 93.0401 111.586 93.0401H110.586V91.0401H111.586C112.674 91.0401 113.546 90.1678 113.546 89.0801V88.0801H115.546Z" fill="#A677B3"/>
<path fill-rule="evenodd" clip-rule="evenodd" d="M110.586 96.96H111.586C113.778 96.96 115.546 98.7277 115.546 100.92V101.92H113.546V100.92C113.546 99.8322 112.674 98.96 111.586 98.96H110.586V96.96Z" fill="#A677B3"/>
<path fill-rule="evenodd" clip-rule="evenodd" d="M124.426 88.0801V89.0801C124.426 90.1678 125.298 91.0401 126.386 91.0401H127.386V93.0401H126.386C124.193 93.0401 122.426 91.2723 122.426 89.0801V88.0801H124.426Z" fill="#5F6774"/>
</g>
</g>
<path d="M95.0394 127C94.944 127 94.8704 126.974 94.8184 126.922C94.7664 126.861 94.7404 126.788 94.7404 126.701V118.212C94.7404 118.117 94.7664 118.043 94.8184 117.991C94.8704 117.93 94.944 117.9 95.0394 117.9H100.343C100.439 117.9 100.512 117.93 100.564 117.991C100.616 118.043 100.642 118.117 100.642 118.212V118.732C100.642 118.827 100.616 118.901 100.564 118.953C100.512 119.005 100.439 119.031 100.343 119.031H96.0014V122.06H100.083C100.179 122.06 100.252 122.09 100.304 122.151C100.356 122.203 100.382 122.277 100.382 122.372V122.892C100.382 122.979 100.356 123.052 100.304 123.113C100.252 123.165 100.179 123.191 100.083 123.191H96.0014V126.701C96.0014 126.788 95.971 126.861 95.9104 126.922C95.8584 126.974 95.7847 127 95.6894 127H95.0394ZM102.462 127C102.376 127 102.302 126.974 102.241 126.922C102.189 126.861 102.163 126.788 102.163 126.701V120.539C102.163 120.452 102.189 120.383 102.241 120.331C102.302 120.27 102.376 120.24 102.462 120.24H103.086C103.173 120.24 103.242 120.27 103.294 120.331C103.346 120.383 103.372 120.452 103.372 120.539V126.701C103.372 126.788 103.346 126.861 103.294 126.922C103.242 126.974 103.173 127 103.086 127H102.462ZM102.358 118.979C102.272 118.979 102.198 118.953 102.137 118.901C102.085 118.84 102.059 118.767 102.059 118.68V117.978C102.059 117.891 102.085 117.822 102.137 117.77C102.198 117.709 102.272 117.679 102.358 117.679H103.177C103.264 117.679 103.333 117.709 103.385 117.77C103.446 117.822 103.476 117.891 103.476 117.978V118.68C103.476 118.767 103.446 118.84 103.385 118.901C103.333 118.953 103.264 118.979 103.177 118.979H102.358ZM105.624 127C105.537 127 105.463 126.974 105.403 126.922C105.351 126.861 105.325 126.788 105.325 126.701V118.069C105.325 117.982 105.351 117.913 105.403 117.861C105.463 117.8 105.537 117.77 105.624 117.77H106.235C106.33 117.77 106.404 117.8 106.456 117.861C106.508 117.913 106.534 117.982 106.534 118.069V126.701C106.534 126.788 106.508 126.861 106.456 126.922C106.404 126.974 106.33 127 106.235 127H105.624ZM111.242 127.13C110.583 127.13 110.033 127.004 109.591 126.753C109.149 126.502 108.811 126.155 108.577 125.713C108.343 125.262 108.213 124.751 108.187 124.179C108.178 124.032 108.174 123.845 108.174 123.62C108.174 123.386 108.178 123.2 108.187 123.061C108.213 122.48 108.343 121.969 108.577 121.527C108.819 121.085 109.162 120.738 109.604 120.487C110.046 120.236 110.592 120.11 111.242 120.11C111.892 120.11 112.438 120.236 112.88 120.487C113.322 120.738 113.66 121.085 113.894 121.527C114.136 121.969 114.271 122.48 114.297 123.061C114.305 123.2 114.31 123.386 114.31 123.62C114.31 123.845 114.305 124.032 114.297 124.179C114.271 124.751 114.141 125.262 113.907 125.713C113.673 126.155 113.335 126.502 112.893 126.753C112.451 127.004 111.9 127.13 111.242 127.13ZM111.242 126.129C111.779 126.129 112.208 125.96 112.529 125.622C112.849 125.275 113.023 124.773 113.049 124.114C113.057 123.984 113.062 123.819 113.062 123.62C113.062 123.421 113.057 123.256 113.049 123.126C113.023 122.467 112.849 121.969 112.529 121.631C112.208 121.284 111.779 121.111 111.242 121.111C110.704 121.111 110.271 121.284 109.942 121.631C109.621 121.969 109.452 122.467 109.435 123.126C109.426 123.256 109.422 123.421 109.422 123.62C109.422 123.819 109.426 123.984 109.435 124.114C109.452 124.773 109.621 125.275 109.942 125.622C110.271 125.96 110.704 126.129 111.242 126.129ZM118.278 127.13C117.792 127.13 117.376 127.069 117.03 126.948C116.683 126.827 116.401 126.679 116.185 126.506C115.968 126.333 115.803 126.159 115.691 125.986C115.587 125.813 115.53 125.674 115.522 125.57C115.513 125.475 115.543 125.401 115.613 125.349C115.682 125.297 115.751 125.271 115.821 125.271H116.393C116.445 125.271 116.484 125.28 116.51 125.297C116.544 125.306 116.588 125.34 116.64 125.401C116.752 125.522 116.878 125.644 117.017 125.765C117.155 125.886 117.324 125.986 117.524 126.064C117.732 126.142 117.987 126.181 118.291 126.181C118.733 126.181 119.097 126.099 119.383 125.934C119.669 125.761 119.812 125.509 119.812 125.18C119.812 124.963 119.751 124.79 119.63 124.66C119.517 124.53 119.309 124.413 119.006 124.309C118.711 124.205 118.304 124.097 117.784 123.984C117.264 123.863 116.852 123.715 116.549 123.542C116.245 123.36 116.029 123.148 115.899 122.905C115.769 122.654 115.704 122.372 115.704 122.06C115.704 121.739 115.799 121.432 115.99 121.137C116.18 120.834 116.458 120.587 116.822 120.396C117.194 120.205 117.658 120.11 118.213 120.11C118.663 120.11 119.049 120.166 119.37 120.279C119.69 120.392 119.955 120.535 120.163 120.708C120.371 120.873 120.527 121.037 120.631 121.202C120.735 121.367 120.791 121.505 120.8 121.618C120.808 121.705 120.782 121.778 120.722 121.839C120.661 121.891 120.592 121.917 120.514 121.917H119.968C119.907 121.917 119.855 121.904 119.812 121.878C119.777 121.852 119.742 121.822 119.708 121.787C119.621 121.674 119.517 121.562 119.396 121.449C119.283 121.336 119.131 121.245 118.941 121.176C118.759 121.098 118.516 121.059 118.213 121.059C117.779 121.059 117.454 121.15 117.238 121.332C117.021 121.514 116.913 121.744 116.913 122.021C116.913 122.186 116.96 122.333 117.056 122.463C117.151 122.593 117.333 122.71 117.602 122.814C117.87 122.918 118.269 123.031 118.798 123.152C119.37 123.265 119.82 123.416 120.15 123.607C120.479 123.798 120.713 124.019 120.852 124.27C120.99 124.521 121.06 124.812 121.06 125.141C121.06 125.505 120.951 125.839 120.735 126.142C120.527 126.445 120.215 126.688 119.799 126.87C119.391 127.043 118.884 127.13 118.278 127.13ZM125.334 127.13C124.675 127.13 124.125 127.004 123.683 126.753C123.241 126.502 122.903 126.155 122.669 125.713C122.435 125.262 122.305 124.751 122.279 124.179C122.27 124.032 122.266 123.845 122.266 123.62C122.266 123.386 122.27 123.2 122.279 123.061C122.305 122.48 122.435 121.969 122.669 121.527C122.911 121.085 123.254 120.738 123.696 120.487C124.138 120.236 124.684 120.11 125.334 120.11C125.984 120.11 126.53 120.236 126.972 120.487C127.414 120.738 127.752 121.085 127.986 121.527C128.228 121.969 128.363 122.48 128.389 123.061C128.397 123.2 128.402 123.386 128.402 123.62C128.402 123.845 128.397 124.032 128.389 124.179C128.363 124.751 128.233 125.262 127.999 125.713C127.765 126.155 127.427 126.502 126.985 126.753C126.543 127.004 125.992 127.13 125.334 127.13ZM125.334 126.129C125.871 126.129 126.3 125.96 126.621 125.622C126.941 125.275 127.115 124.773 127.141 124.114C127.149 123.984 127.154 123.819 127.154 123.62C127.154 123.421 127.149 123.256 127.141 123.126C127.115 122.467 126.941 121.969 126.621 121.631C126.3 121.284 125.871 121.111 125.334 121.111C124.796 121.111 124.363 121.284 124.034 121.631C123.713 121.969 123.544 122.467 123.527 123.126C123.518 123.256 123.514 123.421 123.514 123.62C123.514 123.819 123.518 123.984 123.527 124.114C123.544 124.773 123.713 125.275 124.034 125.622C124.363 125.96 124.796 126.129 125.334 126.129ZM130.928 127C130.842 127 130.768 126.974 130.707 126.922C130.655 126.861 130.629 126.788 130.629 126.701V121.28H129.524C129.438 121.28 129.364 121.254 129.303 121.202C129.251 121.141 129.225 121.068 129.225 120.981V120.539C129.225 120.452 129.251 120.383 129.303 120.331C129.364 120.27 129.438 120.24 129.524 120.24H130.629V119.59C130.629 119.148 130.703 118.762 130.85 118.433C130.998 118.095 131.232 117.835 131.552 117.653C131.882 117.471 132.319 117.38 132.865 117.38H133.645C133.732 117.38 133.801 117.41 133.853 117.471C133.905 117.523 133.931 117.592 133.931 117.679V118.121C133.931 118.208 133.905 118.281 133.853 118.342C133.801 118.394 133.732 118.42 133.645 118.42H132.891C132.484 118.42 132.207 118.528 132.059 118.745C131.912 118.953 131.838 119.256 131.838 119.655V120.24H133.515C133.602 120.24 133.671 120.27 133.723 120.331C133.775 120.383 133.801 120.452 133.801 120.539V120.981C133.801 121.068 133.775 121.141 133.723 121.202C133.671 121.254 133.602 121.28 133.515 121.28H131.838V126.701C131.838 126.788 131.808 126.861 131.747 126.922C131.695 126.974 131.626 127 131.539 127H130.928ZM135.33 127C135.244 127 135.17 126.974 135.109 126.922C135.057 126.861 135.031 126.788 135.031 126.701V120.539C135.031 120.452 135.057 120.383 135.109 120.331C135.17 120.27 135.244 120.24 135.33 120.24H135.954C136.041 120.24 136.11 120.27 136.162 120.331C136.214 120.383 136.24 120.452 136.24 120.539V126.701C136.24 126.788 136.214 126.861 136.162 126.922C136.11 126.974 136.041 127 135.954 127H135.33ZM135.291 119.265C135.153 119.265 135.083 119.196 135.083 119.057C135.083 118.988 135.105 118.931 135.148 118.888L136.123 117.718C136.201 117.623 136.271 117.562 136.331 117.536C136.392 117.501 136.483 117.484 136.604 117.484H137.488C137.653 117.484 137.735 117.566 137.735 117.731C137.735 117.792 137.714 117.844 137.67 117.887L136.162 119.122C136.093 119.183 136.028 119.222 135.967 119.239C135.907 119.256 135.829 119.265 135.733 119.265H135.291ZM140.065 127.13C139.631 127.13 139.237 127.043 138.882 126.87C138.526 126.697 138.24 126.463 138.024 126.168C137.807 125.873 137.699 125.54 137.699 125.167C137.699 124.569 137.941 124.092 138.427 123.737C138.912 123.382 139.545 123.148 140.325 123.035L142.262 122.762V122.385C142.262 121.969 142.14 121.644 141.898 121.41C141.664 121.176 141.278 121.059 140.741 121.059C140.351 121.059 140.034 121.137 139.792 121.293C139.558 121.449 139.393 121.648 139.298 121.891C139.246 122.021 139.155 122.086 139.025 122.086H138.44C138.344 122.086 138.271 122.06 138.219 122.008C138.175 121.947 138.154 121.878 138.154 121.8C138.154 121.67 138.201 121.51 138.297 121.319C138.401 121.128 138.557 120.942 138.765 120.76C138.973 120.578 139.237 120.426 139.558 120.305C139.887 120.175 140.286 120.11 140.754 120.11C141.274 120.11 141.711 120.179 142.067 120.318C142.422 120.448 142.699 120.626 142.899 120.851C143.107 121.076 143.254 121.332 143.341 121.618C143.436 121.904 143.484 122.194 143.484 122.489V126.701C143.484 126.788 143.453 126.861 143.393 126.922C143.341 126.974 143.271 127 143.185 127H142.587C142.491 127 142.418 126.974 142.366 126.922C142.314 126.861 142.288 126.788 142.288 126.701V126.142C142.175 126.298 142.023 126.454 141.833 126.61C141.642 126.757 141.404 126.883 141.118 126.987C140.832 127.082 140.481 127.13 140.065 127.13ZM140.338 126.155C140.693 126.155 141.018 126.081 141.313 125.934C141.607 125.778 141.837 125.54 142.002 125.219C142.175 124.898 142.262 124.495 142.262 124.01V123.646L140.754 123.867C140.138 123.954 139.675 124.101 139.363 124.309C139.051 124.508 138.895 124.764 138.895 125.076C138.895 125.319 138.964 125.522 139.103 125.687C139.25 125.843 139.432 125.96 139.649 126.038C139.874 126.116 140.104 126.155 140.338 126.155Z" fill="#EBECEE"/>
<rect x="100.5" y="134" width="37" height="25" rx="12.5" fill="#A677B3"/>
<path d="M113.342 151.14C112.67 151.14 112.086 151.047 111.592 150.86C111.097 150.664 110.686 150.398 110.36 150.062C110.042 149.726 109.8 149.334 109.632 148.886C109.464 148.438 109.366 147.957 109.338 147.444C109.328 147.192 109.319 146.907 109.31 146.59C109.31 146.263 109.31 145.937 109.31 145.61C109.319 145.274 109.328 144.975 109.338 144.714C109.366 144.201 109.464 143.725 109.632 143.286C109.809 142.838 110.061 142.451 110.388 142.124C110.724 141.788 111.134 141.527 111.62 141.34C112.114 141.153 112.688 141.06 113.342 141.06C114.004 141.06 114.578 141.153 115.064 141.34C115.549 141.527 115.955 141.788 116.282 142.124C116.618 142.451 116.874 142.838 117.052 143.286C117.229 143.725 117.327 144.201 117.346 144.714C117.364 144.975 117.374 145.274 117.374 145.61C117.383 145.937 117.383 146.263 117.374 146.59C117.374 146.907 117.364 147.192 117.346 147.444C117.327 147.957 117.229 148.438 117.052 148.886C116.884 149.334 116.636 149.726 116.31 150.062C115.992 150.398 115.586 150.664 115.092 150.86C114.606 151.047 114.023 151.14 113.342 151.14ZM113.342 149.11C113.827 149.11 114.177 148.956 114.392 148.648C114.616 148.331 114.732 147.906 114.742 147.374C114.76 147.103 114.77 146.819 114.77 146.52C114.779 146.221 114.779 145.923 114.77 145.624C114.77 145.325 114.76 145.05 114.742 144.798C114.732 144.285 114.616 143.869 114.392 143.552C114.177 143.235 113.827 143.071 113.342 143.062C112.856 143.071 112.506 143.235 112.292 143.552C112.077 143.869 111.96 144.285 111.942 144.798C111.932 145.05 111.923 145.325 111.914 145.624C111.914 145.923 111.914 146.221 111.914 146.52C111.923 146.819 111.932 147.103 111.942 147.374C111.96 147.906 112.082 148.331 112.306 148.648C112.53 148.956 112.875 149.11 113.342 149.11ZM119.679 151C119.465 151 119.357 150.907 119.357 150.72C119.357 150.664 119.376 150.613 119.413 150.566L126.329 141.466C126.395 141.382 126.46 141.317 126.525 141.27C126.591 141.223 126.689 141.2 126.819 141.2H127.813C128.028 141.2 128.135 141.293 128.135 141.48C128.135 141.536 128.117 141.587 128.079 141.634L121.163 150.734C121.098 150.818 121.033 150.883 120.967 150.93C120.902 150.977 120.804 151 120.673 151H119.679ZM126.721 151.07C126.087 151.07 125.578 150.902 125.195 150.566C124.822 150.23 124.612 149.782 124.565 149.222C124.556 148.979 124.551 148.765 124.551 148.578C124.551 148.391 124.556 148.167 124.565 147.906C124.603 147.337 124.803 146.884 125.167 146.548C125.541 146.203 126.059 146.03 126.721 146.03C127.393 146.03 127.911 146.203 128.275 146.548C128.639 146.884 128.84 147.337 128.877 147.906C128.896 148.167 128.905 148.391 128.905 148.578C128.905 148.765 128.896 148.979 128.877 149.222C128.84 149.782 128.63 150.23 128.247 150.566C127.865 150.902 127.356 151.07 126.721 151.07ZM126.721 149.838C126.88 149.838 127.001 149.805 127.085 149.74C127.179 149.675 127.249 149.591 127.295 149.488C127.342 149.376 127.365 149.259 127.365 149.138C127.384 148.923 127.393 148.727 127.393 148.55C127.393 148.373 127.384 148.181 127.365 147.976C127.356 147.799 127.305 147.64 127.211 147.5C127.118 147.351 126.955 147.276 126.721 147.276C126.488 147.276 126.325 147.351 126.231 147.5C126.138 147.64 126.087 147.799 126.077 147.976C126.068 148.181 126.063 148.373 126.063 148.55C126.063 148.727 126.068 148.923 126.077 149.138C126.087 149.259 126.11 149.376 126.147 149.488C126.194 149.591 126.264 149.675 126.357 149.74C126.451 149.805 126.572 149.838 126.721 149.838ZM120.799 146.142C120.155 146.142 119.642 145.979 119.259 145.652C118.886 145.316 118.681 144.868 118.643 144.308C118.625 144.065 118.615 143.855 118.615 143.678C118.625 143.491 118.634 143.267 118.643 143.006C118.671 142.437 118.867 141.984 119.231 141.648C119.605 141.303 120.127 141.13 120.799 141.13C121.471 141.13 121.989 141.303 122.353 141.648C122.717 141.984 122.913 142.437 122.941 143.006C122.96 143.267 122.969 143.491 122.969 143.678C122.969 143.855 122.96 144.065 122.941 144.308C122.913 144.868 122.708 145.316 122.325 145.652C121.943 145.979 121.434 146.142 120.799 146.142ZM120.799 144.938C120.949 144.938 121.07 144.905 121.163 144.84C121.257 144.765 121.327 144.677 121.373 144.574C121.42 144.462 121.443 144.35 121.443 144.238C121.462 144.023 121.471 143.827 121.471 143.65C121.471 143.473 121.462 143.281 121.443 143.076C121.434 142.899 121.378 142.74 121.275 142.6C121.182 142.451 121.023 142.376 120.799 142.376C120.566 142.376 120.398 142.451 120.295 142.6C120.202 142.74 120.151 142.899 120.141 143.076C120.132 143.281 120.127 143.473 120.127 143.65C120.127 143.827 120.132 144.023 120.141 144.238C120.151 144.35 120.174 144.462 120.211 144.574C120.258 144.677 120.328 144.765 120.421 144.84C120.515 144.905 120.641 144.938 120.799 144.938Z" fill="#EBECEE"/>
<g filter="url(#filter1_d_15958_23128)">
<rect x="148" y="74" width="32" height="32" rx="16" fill="white"/>
<rect x="147" y="73" width="34" height="34" rx="17" stroke="#1DA534" stroke-width="2"/>
<path opacity="0.4" d="M164 100C169.523 100 174 95.5228 174 90C174 84.4772 169.523 80 164 80C158.477 80 154 84.4772 154 90C154 95.5228 158.477 100 164 100Z" fill="#1DA534"/>
<path d="M162.579 93.5801C162.379 93.5801 162.189 93.5001 162.049 93.3601L159.219 90.5301C158.929 90.2401 158.929 89.7601 159.219 89.4701C159.509 89.1801 159.989 89.1801 160.279 89.4701L162.579 91.7701L167.719 86.6301C168.009 86.3401 168.489 86.3401 168.779 86.6301C169.069 86.9201 169.069 87.4001 168.779 87.6901L163.109 93.3601C162.969 93.5001 162.779 93.5801 162.579 93.5801Z" fill="#1DA534"/>
</g>
</g>
<defs>
<filter id="filter0_d_15958_23128" x="0" y="0" width="242" height="238" filterUnits="userSpaceOnUse" color-interpolation-filters="sRGB">
<feFlood flood-opacity="0" result="BackgroundImageFix"/>
<feColorMatrix in="SourceAlpha" type="matrix" values="0 0 0 0 0 0 0 0 0 0 0 0 0 0 0 0 0 0 127 0" result="hardAlpha"/>
<feOffset/>
<feGaussianBlur stdDeviation="30"/>
<feComposite in2="hardAlpha" operator="out"/>
<feColorMatrix type="matrix" values="0 0 0 0 0.639216 0 0 0 0 0.466667 0 0 0 0 0.709804 0 0 0 1 0"/>
<feBlend mode="normal" in2="BackgroundImageFix" result="effect1_dropShadow_15958_23128"/>
<feBlend mode="normal" in="SourceGraphic" in2="effect1_dropShadow_15958_23128" result="shape"/>
</filter>
<filter id="filter1_d_15958_23128" x="131" y="65" width="66" height="66" filterUnits="userSpaceOnUse" color-interpolation-filters="sRGB">
<feFlood flood-opacity="0" result="BackgroundImageFix"/>
<feColorMatrix in="SourceAlpha" type="matrix" values="0 0 0 0 0 0 0 0 0 0 0 0 0 0 0 0 0 0 127 0" result="hardAlpha"/>
<feOffset dy="8"/>
<feGaussianBlur stdDeviation="7.5"/>
<feColorMatrix type="matrix" values="0 0 0 0 0 0 0 0 0 0 0 0 0 0 0 0 0 0 0.25 0"/>
<feBlend mode="normal" in2="BackgroundImageFix" result="effect1_dropShadow_15958_23128"/>
<feBlend mode="normal" in="SourceGraphic" in2="effect1_dropShadow_15958_23128" result="shape"/>
</filter>
<clipPath id="clip0_15958_23128">
<rect width="32" height="32" fill="white" transform="translate(103 79)"/>
</clipPath>
</defs>
</svg>
