<svg width="242" height="238" viewBox="0 0 242 238" fill="none" xmlns="http://www.w3.org/2000/svg">
<g filter="url(#filter0_d_15958_23164)">
<rect x="64" y="64" width="110" height="110" rx="55" fill="#2D68F8" fill-opacity="0.15" shape-rendering="crispEdges"/>
<rect x="62" y="62" width="114" height="114" rx="57" stroke="#2D68F8" stroke-width="4" shape-rendering="crispEdges"/>
<path d="M132.332 85.668H105.666V104.333H132.332V85.668Z" fill="white"/>
<path d="M120.666 85.6665H117.333V93.2492H105.666V96.749H117.333V104.332H120.666V96.749H132.332V93.2492H120.666V85.6665Z" fill="#D80027"/>
<path d="M126.176 98.2456L132.333 101.837V98.2456H126.176Z" fill="#0052B4"/>
<path d="M121.898 98.2456L132.333 104.332V102.611L124.849 98.2456H121.898Z" fill="#0052B4"/>
<path d="M129.554 104.331L121.898 99.8657V104.331H129.554Z" fill="#0052B4"/>
<path d="M121.898 98.2456L132.333 104.332V102.611L124.849 98.2456H121.898Z" fill="white"/>
<path d="M121.898 98.2456L132.333 104.332V102.611L124.849 98.2456H121.898Z" fill="#D80027"/>
<path d="M110.371 98.2456L105.666 100.99V98.2456H110.371Z" fill="#0052B4"/>
<path d="M116.101 99.019V104.332H106.994L116.101 99.019Z" fill="#0052B4"/>
<path d="M113.15 98.2456L105.666 102.611V104.332L116.101 98.2456H113.15Z" fill="#D80027"/>
<path d="M111.823 91.753L105.666 88.1616V91.753H111.823Z" fill="#0052B4"/>
<path d="M116.101 91.753L105.666 85.6665V87.3876L113.15 91.753H116.101Z" fill="#0052B4"/>
<path d="M108.445 85.6665L116.101 90.1322V85.6665H108.445Z" fill="#0052B4"/>
<path d="M116.101 91.753L105.666 85.6665V87.3876L113.15 91.753H116.101Z" fill="white"/>
<path d="M116.101 91.753L105.666 85.6665V87.3876L113.15 91.753H116.101Z" fill="#D80027"/>
<path d="M127.629 91.7524L132.334 89.0078V91.7524H127.629Z" fill="#0052B4"/>
<path d="M121.898 90.9791V85.6665H131.005L121.898 90.9791Z" fill="#0052B4"/>
<path d="M124.849 91.753L132.333 87.3876V85.6665L121.898 91.753H124.849Z" fill="#D80027"/>
<path d="M102.301 127C102.206 127 102.132 126.974 102.08 126.922C102.028 126.861 102.002 126.788 102.002 126.701V118.199C102.002 118.112 102.028 118.043 102.08 117.991C102.132 117.93 102.206 117.9 102.301 117.9H102.99C103.077 117.9 103.146 117.93 103.198 117.991C103.259 118.043 103.289 118.112 103.289 118.199V126.701C103.289 126.788 103.259 126.861 103.198 126.922C103.146 126.974 103.077 127 102.99 127H102.301ZM105.687 127C105.6 127 105.526 126.974 105.466 126.922C105.414 126.861 105.388 126.788 105.388 126.701V120.539C105.388 120.452 105.414 120.383 105.466 120.331C105.526 120.27 105.6 120.24 105.687 120.24H106.298C106.384 120.24 106.454 120.27 106.506 120.331C106.566 120.383 106.597 120.452 106.597 120.539V121.111C106.822 120.816 107.104 120.578 107.442 120.396C107.788 120.205 108.23 120.11 108.768 120.11C109.331 120.11 109.808 120.236 110.198 120.487C110.596 120.73 110.895 121.072 111.095 121.514C111.294 121.947 111.394 122.454 111.394 123.035V126.701C111.394 126.788 111.368 126.861 111.316 126.922C111.264 126.974 111.194 127 111.108 127H110.458C110.371 127 110.297 126.974 110.237 126.922C110.185 126.861 110.159 126.788 110.159 126.701V123.1C110.159 122.493 110.011 122.021 109.717 121.683C109.422 121.336 108.989 121.163 108.417 121.163C107.879 121.163 107.446 121.336 107.117 121.683C106.796 122.021 106.636 122.493 106.636 123.1V126.701C106.636 126.788 106.605 126.861 106.545 126.922C106.493 126.974 106.423 127 106.337 127H105.687ZM116.041 129.86C115.451 129.86 114.966 129.782 114.585 129.626C114.212 129.47 113.917 129.279 113.701 129.054C113.493 128.837 113.341 128.616 113.246 128.391C113.159 128.174 113.111 128.001 113.103 127.871C113.094 127.784 113.12 127.711 113.181 127.65C113.25 127.589 113.324 127.559 113.402 127.559H114.026C114.104 127.559 114.169 127.576 114.221 127.611C114.273 127.646 114.316 127.719 114.351 127.832C114.403 127.962 114.481 128.105 114.585 128.261C114.689 128.426 114.849 128.564 115.066 128.677C115.282 128.798 115.586 128.859 115.976 128.859C116.383 128.859 116.725 128.803 117.003 128.69C117.28 128.586 117.488 128.395 117.627 128.118C117.774 127.849 117.848 127.477 117.848 127V126.116C117.64 126.385 117.367 126.61 117.029 126.792C116.691 126.965 116.266 127.052 115.755 127.052C115.269 127.052 114.853 126.97 114.507 126.805C114.16 126.632 113.874 126.402 113.649 126.116C113.432 125.821 113.267 125.488 113.155 125.115C113.051 124.742 112.99 124.352 112.973 123.945C112.964 123.702 112.964 123.464 112.973 123.23C112.99 122.823 113.051 122.433 113.155 122.06C113.267 121.687 113.432 121.354 113.649 121.059C113.874 120.764 114.16 120.535 114.507 120.37C114.853 120.197 115.269 120.11 115.755 120.11C116.275 120.11 116.704 120.21 117.042 120.409C117.388 120.6 117.67 120.834 117.887 121.111V120.552C117.887 120.465 117.913 120.392 117.965 120.331C118.025 120.27 118.099 120.24 118.186 120.24H118.784C118.87 120.24 118.944 120.27 119.005 120.331C119.065 120.392 119.096 120.465 119.096 120.552V126.857C119.096 127.438 118.996 127.953 118.797 128.404C118.606 128.855 118.285 129.21 117.835 129.47C117.393 129.73 116.795 129.86 116.041 129.86ZM116.015 126.012C116.448 126.012 116.795 125.912 117.055 125.713C117.323 125.514 117.518 125.262 117.64 124.959C117.77 124.656 117.839 124.348 117.848 124.036C117.856 123.915 117.861 123.767 117.861 123.594C117.861 123.412 117.856 123.26 117.848 123.139C117.839 122.827 117.77 122.519 117.64 122.216C117.518 121.913 117.323 121.661 117.055 121.462C116.795 121.263 116.448 121.163 116.015 121.163C115.581 121.163 115.235 121.263 114.975 121.462C114.715 121.653 114.528 121.908 114.416 122.229C114.303 122.541 114.238 122.879 114.221 123.243C114.212 123.468 114.212 123.698 114.221 123.932C114.238 124.296 114.303 124.638 114.416 124.959C114.528 125.271 114.715 125.527 114.975 125.726C115.235 125.917 115.581 126.012 116.015 126.012ZM121.34 127C121.254 127 121.18 126.974 121.119 126.922C121.067 126.861 121.041 126.788 121.041 126.701V118.069C121.041 117.982 121.067 117.913 121.119 117.861C121.18 117.8 121.254 117.77 121.34 117.77H121.951C122.047 117.77 122.12 117.8 122.172 117.861C122.224 117.913 122.25 117.982 122.25 118.069V126.701C122.25 126.788 122.224 126.861 122.172 126.922C122.12 126.974 122.047 127 121.951 127H121.34ZM126.881 127.13C125.988 127.13 125.277 126.857 124.749 126.311C124.22 125.756 123.93 125.002 123.878 124.049C123.869 123.936 123.865 123.793 123.865 123.62C123.865 123.438 123.869 123.291 123.878 123.178C123.912 122.563 124.055 122.025 124.307 121.566C124.558 121.098 124.9 120.738 125.334 120.487C125.776 120.236 126.291 120.11 126.881 120.11C127.539 120.11 128.09 120.249 128.532 120.526C128.982 120.803 129.325 121.198 129.559 121.709C129.793 122.22 129.91 122.818 129.91 123.503V123.724C129.91 123.819 129.879 123.893 129.819 123.945C129.767 123.997 129.697 124.023 129.611 124.023H125.113C125.113 124.032 125.113 124.049 125.113 124.075C125.113 124.101 125.113 124.123 125.113 124.14C125.13 124.495 125.208 124.829 125.347 125.141C125.485 125.444 125.685 125.691 125.945 125.882C126.205 126.073 126.517 126.168 126.881 126.168C127.193 126.168 127.453 126.12 127.661 126.025C127.869 125.93 128.038 125.826 128.168 125.713C128.298 125.592 128.384 125.501 128.428 125.44C128.506 125.327 128.566 125.262 128.61 125.245C128.653 125.219 128.722 125.206 128.818 125.206H129.442C129.528 125.206 129.598 125.232 129.65 125.284C129.71 125.327 129.736 125.392 129.728 125.479C129.719 125.609 129.65 125.769 129.52 125.96C129.39 126.142 129.203 126.324 128.961 126.506C128.718 126.688 128.423 126.84 128.077 126.961C127.73 127.074 127.331 127.13 126.881 127.13ZM125.113 123.126H128.675V123.087C128.675 122.697 128.601 122.35 128.454 122.047C128.315 121.744 128.111 121.505 127.843 121.332C127.574 121.15 127.253 121.059 126.881 121.059C126.508 121.059 126.187 121.15 125.919 121.332C125.659 121.505 125.459 121.744 125.321 122.047C125.182 122.35 125.113 122.697 125.113 123.087V123.126ZM126.53 119.265C126.391 119.265 126.322 119.196 126.322 119.057C126.322 118.988 126.343 118.931 126.387 118.888L127.362 117.718C127.44 117.623 127.509 117.562 127.57 117.536C127.63 117.501 127.721 117.484 127.843 117.484H128.727C128.891 117.484 128.974 117.566 128.974 117.731C128.974 117.792 128.952 117.844 128.909 117.887L127.401 119.122C127.331 119.183 127.266 119.222 127.206 119.239C127.145 119.256 127.067 119.265 126.972 119.265H126.53ZM133.804 127.13C133.319 127.13 132.903 127.069 132.556 126.948C132.209 126.827 131.928 126.679 131.711 126.506C131.494 126.333 131.33 126.159 131.217 125.986C131.113 125.813 131.057 125.674 131.048 125.57C131.039 125.475 131.07 125.401 131.139 125.349C131.208 125.297 131.278 125.271 131.347 125.271H131.919C131.971 125.271 132.01 125.28 132.036 125.297C132.071 125.306 132.114 125.34 132.166 125.401C132.279 125.522 132.404 125.644 132.543 125.765C132.682 125.886 132.851 125.986 133.05 126.064C133.258 126.142 133.514 126.181 133.817 126.181C134.259 126.181 134.623 126.099 134.909 125.934C135.195 125.761 135.338 125.509 135.338 125.18C135.338 124.963 135.277 124.79 135.156 124.66C135.043 124.53 134.835 124.413 134.532 124.309C134.237 124.205 133.83 124.097 133.31 123.984C132.79 123.863 132.378 123.715 132.075 123.542C131.772 123.36 131.555 123.148 131.425 122.905C131.295 122.654 131.23 122.372 131.23 122.06C131.23 121.739 131.325 121.432 131.516 121.137C131.707 120.834 131.984 120.587 132.348 120.396C132.721 120.205 133.184 120.11 133.739 120.11C134.19 120.11 134.575 120.166 134.896 120.279C135.217 120.392 135.481 120.535 135.689 120.708C135.897 120.873 136.053 121.037 136.157 121.202C136.261 121.367 136.317 121.505 136.326 121.618C136.335 121.705 136.309 121.778 136.248 121.839C136.187 121.891 136.118 121.917 136.04 121.917H135.494C135.433 121.917 135.381 121.904 135.338 121.878C135.303 121.852 135.269 121.822 135.234 121.787C135.147 121.674 135.043 121.562 134.922 121.449C134.809 121.336 134.658 121.245 134.467 121.176C134.285 121.098 134.042 121.059 133.739 121.059C133.306 121.059 132.981 121.15 132.764 121.332C132.547 121.514 132.439 121.744 132.439 122.021C132.439 122.186 132.487 122.333 132.582 122.463C132.677 122.593 132.859 122.71 133.128 122.814C133.397 122.918 133.795 123.031 134.324 123.152C134.896 123.265 135.347 123.416 135.676 123.607C136.005 123.798 136.239 124.019 136.378 124.27C136.517 124.521 136.586 124.812 136.586 125.141C136.586 125.505 136.478 125.839 136.261 126.142C136.053 126.445 135.741 126.688 135.325 126.87C134.918 127.043 134.411 127.13 133.804 127.13Z" fill="#EBECEE"/>
<rect x="100.5" y="134" width="37" height="25" rx="12.5" fill="#2D68F8"/>
<path d="M113.342 151.14C112.67 151.14 112.086 151.047 111.592 150.86C111.097 150.664 110.686 150.398 110.36 150.062C110.042 149.726 109.8 149.334 109.632 148.886C109.464 148.438 109.366 147.957 109.338 147.444C109.328 147.192 109.319 146.907 109.31 146.59C109.31 146.263 109.31 145.937 109.31 145.61C109.319 145.274 109.328 144.975 109.338 144.714C109.366 144.201 109.464 143.725 109.632 143.286C109.809 142.838 110.061 142.451 110.388 142.124C110.724 141.788 111.134 141.527 111.62 141.34C112.114 141.153 112.688 141.06 113.342 141.06C114.004 141.06 114.578 141.153 115.064 141.34C115.549 141.527 115.955 141.788 116.282 142.124C116.618 142.451 116.874 142.838 117.052 143.286C117.229 143.725 117.327 144.201 117.346 144.714C117.364 144.975 117.374 145.274 117.374 145.61C117.383 145.937 117.383 146.263 117.374 146.59C117.374 146.907 117.364 147.192 117.346 147.444C117.327 147.957 117.229 148.438 117.052 148.886C116.884 149.334 116.636 149.726 116.31 150.062C115.992 150.398 115.586 150.664 115.092 150.86C114.606 151.047 114.023 151.14 113.342 151.14ZM113.342 149.11C113.827 149.11 114.177 148.956 114.392 148.648C114.616 148.331 114.732 147.906 114.742 147.374C114.76 147.103 114.77 146.819 114.77 146.52C114.779 146.221 114.779 145.923 114.77 145.624C114.77 145.325 114.76 145.05 114.742 144.798C114.732 144.285 114.616 143.869 114.392 143.552C114.177 143.235 113.827 143.071 113.342 143.062C112.856 143.071 112.506 143.235 112.292 143.552C112.077 143.869 111.96 144.285 111.942 144.798C111.932 145.05 111.923 145.325 111.914 145.624C111.914 145.923 111.914 146.221 111.914 146.52C111.923 146.819 111.932 147.103 111.942 147.374C111.96 147.906 112.082 148.331 112.306 148.648C112.53 148.956 112.875 149.11 113.342 149.11ZM119.679 151C119.465 151 119.357 150.907 119.357 150.72C119.357 150.664 119.376 150.613 119.413 150.566L126.329 141.466C126.395 141.382 126.46 141.317 126.525 141.27C126.591 141.223 126.689 141.2 126.819 141.2H127.813C128.028 141.2 128.135 141.293 128.135 141.48C128.135 141.536 128.117 141.587 128.079 141.634L121.163 150.734C121.098 150.818 121.033 150.883 120.967 150.93C120.902 150.977 120.804 151 120.673 151H119.679ZM126.721 151.07C126.087 151.07 125.578 150.902 125.195 150.566C124.822 150.23 124.612 149.782 124.565 149.222C124.556 148.979 124.551 148.765 124.551 148.578C124.551 148.391 124.556 148.167 124.565 147.906C124.603 147.337 124.803 146.884 125.167 146.548C125.541 146.203 126.059 146.03 126.721 146.03C127.393 146.03 127.911 146.203 128.275 146.548C128.639 146.884 128.84 147.337 128.877 147.906C128.896 148.167 128.905 148.391 128.905 148.578C128.905 148.765 128.896 148.979 128.877 149.222C128.84 149.782 128.63 150.23 128.247 150.566C127.865 150.902 127.356 151.07 126.721 151.07ZM126.721 149.838C126.88 149.838 127.001 149.805 127.085 149.74C127.179 149.675 127.249 149.591 127.295 149.488C127.342 149.376 127.365 149.259 127.365 149.138C127.384 148.923 127.393 148.727 127.393 148.55C127.393 148.373 127.384 148.181 127.365 147.976C127.356 147.799 127.305 147.64 127.211 147.5C127.118 147.351 126.955 147.276 126.721 147.276C126.488 147.276 126.325 147.351 126.231 147.5C126.138 147.64 126.087 147.799 126.077 147.976C126.068 148.181 126.063 148.373 126.063 148.55C126.063 148.727 126.068 148.923 126.077 149.138C126.087 149.259 126.11 149.376 126.147 149.488C126.194 149.591 126.264 149.675 126.357 149.74C126.451 149.805 126.572 149.838 126.721 149.838ZM120.799 146.142C120.155 146.142 119.642 145.979 119.259 145.652C118.886 145.316 118.681 144.868 118.643 144.308C118.625 144.065 118.615 143.855 118.615 143.678C118.625 143.491 118.634 143.267 118.643 143.006C118.671 142.437 118.867 141.984 119.231 141.648C119.605 141.303 120.127 141.13 120.799 141.13C121.471 141.13 121.989 141.303 122.353 141.648C122.717 141.984 122.913 142.437 122.941 143.006C122.96 143.267 122.969 143.491 122.969 143.678C122.969 143.855 122.96 144.065 122.941 144.308C122.913 144.868 122.708 145.316 122.325 145.652C121.943 145.979 121.434 146.142 120.799 146.142ZM120.799 144.938C120.949 144.938 121.07 144.905 121.163 144.84C121.257 144.765 121.327 144.677 121.373 144.574C121.42 144.462 121.443 144.35 121.443 144.238C121.462 144.023 121.471 143.827 121.471 143.65C121.471 143.473 121.462 143.281 121.443 143.076C121.434 142.899 121.378 142.74 121.275 142.6C121.182 142.451 121.023 142.376 120.799 142.376C120.566 142.376 120.398 142.451 120.295 142.6C120.202 142.74 120.151 142.899 120.141 143.076C120.132 143.281 120.127 143.473 120.127 143.65C120.127 143.827 120.132 144.023 120.141 144.238C120.151 144.35 120.174 144.462 120.211 144.574C120.258 144.677 120.328 144.765 120.421 144.84C120.515 144.905 120.641 144.938 120.799 144.938Z" fill="#EBECEE"/>
<g filter="url(#filter1_d_15958_23164)">
<rect x="148" y="74" width="32" height="32" rx="16" fill="white"/>
<rect x="147" y="73" width="34" height="34" rx="17" stroke="#1DA534" stroke-width="2"/>
<path opacity="0.4" d="M164 100C169.523 100 174 95.5228 174 90C174 84.4772 169.523 80 164 80C158.477 80 154 84.4772 154 90C154 95.5228 158.477 100 164 100Z" fill="#1DA534"/>
<path d="M162.579 93.5801C162.379 93.5801 162.189 93.5001 162.049 93.3601L159.219 90.5301C158.929 90.2401 158.929 89.7601 159.219 89.4701C159.509 89.1801 159.989 89.1801 160.279 89.4701L162.579 91.7701L167.719 86.6301C168.009 86.3401 168.489 86.3401 168.779 86.6301C169.069 86.9201 169.069 87.4001 168.779 87.6901L163.109 93.3601C162.969 93.5001 162.779 93.5801 162.579 93.5801Z" fill="#1DA534"/>
</g>
</g>
<defs>
<filter id="filter0_d_15958_23164" x="0" y="0" width="242" height="238" filterUnits="userSpaceOnUse" color-interpolation-filters="sRGB">
<feFlood flood-opacity="0" result="BackgroundImageFix"/>
<feColorMatrix in="SourceAlpha" type="matrix" values="0 0 0 0 0 0 0 0 0 0 0 0 0 0 0 0 0 0 127 0" result="hardAlpha"/>
<feOffset/>
<feGaussianBlur stdDeviation="30"/>
<feComposite in2="hardAlpha" operator="out"/>
<feColorMatrix type="matrix" values="0 0 0 0 0.160784 0 0 0 0 0.372549 0 0 0 0 0.886275 0 0 0 1 0"/>
<feBlend mode="normal" in2="BackgroundImageFix" result="effect1_dropShadow_15958_23164"/>
<feBlend mode="normal" in="SourceGraphic" in2="effect1_dropShadow_15958_23164" result="shape"/>
</filter>
<filter id="filter1_d_15958_23164" x="131" y="65" width="66" height="66" filterUnits="userSpaceOnUse" color-interpolation-filters="sRGB">
<feFlood flood-opacity="0" result="BackgroundImageFix"/>
<feColorMatrix in="SourceAlpha" type="matrix" values="0 0 0 0 0 0 0 0 0 0 0 0 0 0 0 0 0 0 127 0" result="hardAlpha"/>
<feOffset dy="8"/>
<feGaussianBlur stdDeviation="7.5"/>
<feColorMatrix type="matrix" values="0 0 0 0 0 0 0 0 0 0 0 0 0 0 0 0 0 0 0.25 0"/>
<feBlend mode="normal" in2="BackgroundImageFix" result="effect1_dropShadow_15958_23164"/>
<feBlend mode="normal" in="SourceGraphic" in2="effect1_dropShadow_15958_23164" result="shape"/>
</filter>
</defs>
</svg>
