<svg width="242" height="238" viewBox="0 0 242 238" fill="none" xmlns="http://www.w3.org/2000/svg">
<g filter="url(#filter0_d_15958_23162)">
<rect x="64" y="64" width="110" height="110" rx="55" fill="#4AB75D" fill-opacity="0.15" shape-rendering="crispEdges"/>
<rect x="62" y="62" width="114" height="114" rx="57" stroke="#157525" stroke-width="4" shape-rendering="crispEdges"/>
<path opacity="0.4" d="M127.334 81.667C130.095 81.667 132.334 83.9056 132.334 86.667V103.333C132.334 106.094 130.095 108.333 127.334 108.333H110.668C107.907 108.333 105.668 106.094 105.668 103.333V86.667C105.668 83.9056 107.907 81.667 110.668 81.667H127.334ZM111.334 84.333C109.677 84.3332 108.334 85.6764 108.334 87.333V102.667C108.334 104.324 109.677 105.667 111.334 105.667H126.668C128.325 105.667 129.668 104.324 129.668 102.667V87.333C129.668 85.6764 128.325 84.3332 126.668 84.333H111.334Z" fill="#157525"/>
<circle cx="113" cy="91.6665" r="2" fill="#157525"/>
<circle cx="116" cy="91.6665" r="2" fill="#157525"/>
<circle cx="119" cy="91.6665" r="2" fill="#157525"/>
<rect x="108.334" y="90.9556" width="21.3333" height="1.42222" fill="#157525"/>
<circle cx="2" cy="2" r="2" transform="matrix(-1 0 0 1 127.002 96.3335)" fill="#157525"/>
<circle cx="2" cy="2" r="2" transform="matrix(-1 0 0 1 124.002 96.3335)" fill="#157525"/>
<circle cx="2" cy="2" r="2" transform="matrix(-1 0 0 1 121.002 96.3335)" fill="#157525"/>
<rect width="21.3333" height="1.42222" transform="matrix(-1 0 0 1 129.668 97.6221)" fill="#157525"/>
<path d="M87.9023 127C87.833 127 87.7723 126.974 87.7203 126.922C87.6683 126.87 87.6423 126.809 87.6423 126.74C87.6423 126.697 87.6467 126.649 87.6553 126.597L90.8793 118.186C90.914 118.099 90.9617 118.03 91.0223 117.978C91.083 117.926 91.174 117.9 91.2953 117.9H92.1793C92.292 117.9 92.3787 117.926 92.4393 117.978C92.5087 118.03 92.5607 118.099 92.5953 118.186L95.8063 126.597C95.8237 126.649 95.8323 126.697 95.8323 126.74C95.8323 126.809 95.8063 126.87 95.7543 126.922C95.7023 126.974 95.6417 127 95.5723 127H94.9093C94.8053 127 94.7273 126.974 94.6753 126.922C94.632 126.87 94.6017 126.822 94.5843 126.779L93.8693 124.933H89.6053L88.8903 126.779C88.8817 126.822 88.8513 126.87 88.7993 126.922C88.7473 126.974 88.6693 127 88.5653 127H87.9023ZM89.9823 123.815H93.4923L91.7373 119.2L89.9823 123.815ZM97.3523 127C97.2656 127 97.192 126.974 97.1313 126.922C97.0793 126.861 97.0533 126.788 97.0533 126.701V120.552C97.0533 120.465 97.0793 120.392 97.1313 120.331C97.192 120.27 97.2656 120.24 97.3523 120.24H97.9503C98.037 120.24 98.1106 120.27 98.1713 120.331C98.232 120.392 98.2623 120.465 98.2623 120.552V121.124C98.4356 120.829 98.674 120.608 98.9773 120.461C99.2806 120.314 99.6446 120.24 100.069 120.24H100.589C100.676 120.24 100.745 120.27 100.797 120.331C100.849 120.383 100.875 120.452 100.875 120.539V121.072C100.875 121.159 100.849 121.228 100.797 121.28C100.745 121.332 100.676 121.358 100.589 121.358H99.8093C99.3413 121.358 98.973 121.497 98.7043 121.774C98.4356 122.043 98.3013 122.411 98.3013 122.879V126.701C98.3013 126.788 98.271 126.861 98.2103 126.922C98.1496 126.974 98.076 127 97.9893 127H97.3523ZM102.291 127C102.204 127 102.13 126.974 102.07 126.922C102.018 126.861 101.992 126.788 101.992 126.701V120.539C101.992 120.452 102.018 120.383 102.07 120.331C102.13 120.27 102.204 120.24 102.291 120.24H102.915C103.001 120.24 103.071 120.27 103.123 120.331C103.175 120.383 103.201 120.452 103.201 120.539V126.701C103.201 126.788 103.175 126.861 103.123 126.922C103.071 126.974 103.001 127 102.915 127H102.291ZM102.187 118.979C102.1 118.979 102.026 118.953 101.966 118.901C101.914 118.84 101.888 118.767 101.888 118.68V117.978C101.888 117.891 101.914 117.822 101.966 117.77C102.026 117.709 102.1 117.679 102.187 117.679H103.006C103.092 117.679 103.162 117.709 103.214 117.77C103.274 117.822 103.305 117.891 103.305 117.978V118.68C103.305 118.767 103.274 118.84 103.214 118.901C103.162 118.953 103.092 118.979 103.006 118.979H102.187ZM107.779 127C107.294 127 106.9 126.909 106.596 126.727C106.293 126.536 106.072 126.272 105.933 125.934C105.795 125.587 105.725 125.18 105.725 124.712V121.28H104.711C104.625 121.28 104.551 121.254 104.49 121.202C104.438 121.141 104.412 121.068 104.412 120.981V120.539C104.412 120.452 104.438 120.383 104.49 120.331C104.551 120.27 104.625 120.24 104.711 120.24H105.725V118.069C105.725 117.982 105.751 117.913 105.803 117.861C105.864 117.8 105.938 117.77 106.024 117.77H106.635C106.722 117.77 106.791 117.8 106.843 117.861C106.904 117.913 106.934 117.982 106.934 118.069V120.24H108.546C108.633 120.24 108.702 120.27 108.754 120.331C108.815 120.383 108.845 120.452 108.845 120.539V120.981C108.845 121.068 108.815 121.141 108.754 121.202C108.702 121.254 108.633 121.28 108.546 121.28H106.934V124.621C106.934 125.028 107.004 125.349 107.142 125.583C107.281 125.817 107.528 125.934 107.883 125.934H108.676C108.763 125.934 108.832 125.964 108.884 126.025C108.945 126.077 108.975 126.146 108.975 126.233V126.701C108.975 126.788 108.945 126.861 108.884 126.922C108.832 126.974 108.763 127 108.676 127H107.779ZM110.517 127C110.431 127 110.357 126.974 110.296 126.922C110.244 126.861 110.218 126.788 110.218 126.701V120.539C110.218 120.452 110.244 120.383 110.296 120.331C110.357 120.27 110.431 120.24 110.517 120.24H111.102C111.189 120.24 111.258 120.27 111.31 120.331C111.371 120.383 111.401 120.452 111.401 120.539V120.994C111.601 120.725 111.852 120.513 112.155 120.357C112.459 120.192 112.823 120.11 113.247 120.11C114.227 120.101 114.92 120.5 115.327 121.306C115.527 120.942 115.817 120.652 116.198 120.435C116.58 120.218 117.013 120.11 117.498 120.11C117.949 120.11 118.356 120.214 118.72 120.422C119.093 120.63 119.383 120.946 119.591 121.371C119.808 121.787 119.916 122.311 119.916 122.944V126.701C119.916 126.788 119.886 126.861 119.825 126.922C119.773 126.974 119.704 127 119.617 127H119.006C118.92 127 118.846 126.974 118.785 126.922C118.733 126.861 118.707 126.788 118.707 126.701V123.061C118.707 122.576 118.638 122.194 118.499 121.917C118.361 121.64 118.174 121.445 117.94 121.332C117.706 121.219 117.451 121.163 117.173 121.163C116.948 121.163 116.718 121.219 116.484 121.332C116.25 121.445 116.055 121.64 115.899 121.917C115.752 122.194 115.678 122.576 115.678 123.061V126.701C115.678 126.788 115.648 126.861 115.587 126.922C115.535 126.974 115.466 127 115.379 127H114.768C114.682 127 114.608 126.974 114.547 126.922C114.495 126.861 114.469 126.788 114.469 126.701V123.061C114.469 122.576 114.396 122.194 114.248 121.917C114.101 121.64 113.91 121.445 113.676 121.332C113.442 121.219 113.195 121.163 112.935 121.163C112.71 121.163 112.48 121.219 112.246 121.332C112.012 121.445 111.817 121.64 111.661 121.917C111.514 122.194 111.44 122.571 111.44 123.048V126.701C111.44 126.788 111.41 126.861 111.349 126.922C111.297 126.974 111.228 127 111.141 127H110.517ZM124.462 127.13C123.569 127.13 122.859 126.857 122.33 126.311C121.801 125.756 121.511 125.002 121.459 124.049C121.45 123.936 121.446 123.793 121.446 123.62C121.446 123.438 121.45 123.291 121.459 123.178C121.494 122.563 121.637 122.025 121.888 121.566C122.139 121.098 122.482 120.738 122.915 120.487C123.357 120.236 123.873 120.11 124.462 120.11C125.121 120.11 125.671 120.249 126.113 120.526C126.564 120.803 126.906 121.198 127.14 121.709C127.374 122.22 127.491 122.818 127.491 123.503V123.724C127.491 123.819 127.461 123.893 127.4 123.945C127.348 123.997 127.279 124.023 127.192 124.023H122.694C122.694 124.032 122.694 124.049 122.694 124.075C122.694 124.101 122.694 124.123 122.694 124.14C122.711 124.495 122.789 124.829 122.928 125.141C123.067 125.444 123.266 125.691 123.526 125.882C123.786 126.073 124.098 126.168 124.462 126.168C124.774 126.168 125.034 126.12 125.242 126.025C125.45 125.93 125.619 125.826 125.749 125.713C125.879 125.592 125.966 125.501 126.009 125.44C126.087 125.327 126.148 125.262 126.191 125.245C126.234 125.219 126.304 125.206 126.399 125.206H127.023C127.11 125.206 127.179 125.232 127.231 125.284C127.292 125.327 127.318 125.392 127.309 125.479C127.3 125.609 127.231 125.769 127.101 125.96C126.971 126.142 126.785 126.324 126.542 126.506C126.299 126.688 126.005 126.84 125.658 126.961C125.311 127.074 124.913 127.13 124.462 127.13ZM122.694 123.126H126.256V123.087C126.256 122.697 126.182 122.35 126.035 122.047C125.896 121.744 125.693 121.505 125.424 121.332C125.155 121.15 124.835 121.059 124.462 121.059C124.089 121.059 123.769 121.15 123.5 121.332C123.24 121.505 123.041 121.744 122.902 122.047C122.763 122.35 122.694 122.697 122.694 123.087V123.126ZM124.111 119.265C123.972 119.265 123.903 119.196 123.903 119.057C123.903 118.988 123.925 118.931 123.968 118.888L124.943 117.718C125.021 117.623 125.09 117.562 125.151 117.536C125.212 117.501 125.303 117.484 125.424 117.484H126.308C126.473 117.484 126.555 117.566 126.555 117.731C126.555 117.792 126.533 117.844 126.49 117.887L124.982 119.122C124.913 119.183 124.848 119.222 124.787 119.239C124.726 119.256 124.648 119.265 124.553 119.265H124.111ZM131.646 127C131.161 127 130.767 126.909 130.463 126.727C130.16 126.536 129.939 126.272 129.8 125.934C129.662 125.587 129.592 125.18 129.592 124.712V121.28H128.578C128.492 121.28 128.418 121.254 128.357 121.202C128.305 121.141 128.279 121.068 128.279 120.981V120.539C128.279 120.452 128.305 120.383 128.357 120.331C128.418 120.27 128.492 120.24 128.578 120.24H129.592V118.069C129.592 117.982 129.618 117.913 129.67 117.861C129.731 117.8 129.805 117.77 129.891 117.77H130.502C130.589 117.77 130.658 117.8 130.71 117.861C130.771 117.913 130.801 117.982 130.801 118.069V120.24H132.413C132.5 120.24 132.569 120.27 132.621 120.331C132.682 120.383 132.712 120.452 132.712 120.539V120.981C132.712 121.068 132.682 121.141 132.621 121.202C132.569 121.254 132.5 121.28 132.413 121.28H130.801V124.621C130.801 125.028 130.871 125.349 131.009 125.583C131.148 125.817 131.395 125.934 131.75 125.934H132.543C132.63 125.934 132.699 125.964 132.751 126.025C132.812 126.077 132.842 126.146 132.842 126.233V126.701C132.842 126.788 132.812 126.861 132.751 126.922C132.699 126.974 132.63 127 132.543 127H131.646ZM134.385 127C134.298 127 134.224 126.974 134.164 126.922C134.112 126.861 134.086 126.788 134.086 126.701V120.539C134.086 120.452 134.112 120.383 134.164 120.331C134.224 120.27 134.298 120.24 134.385 120.24H135.009C135.095 120.24 135.165 120.27 135.217 120.331C135.269 120.383 135.295 120.452 135.295 120.539V126.701C135.295 126.788 135.269 126.861 135.217 126.922C135.165 126.974 135.095 127 135.009 127H134.385ZM134.281 118.979C134.194 118.979 134.12 118.953 134.06 118.901C134.008 118.84 133.982 118.767 133.982 118.68V117.978C133.982 117.891 134.008 117.822 134.06 117.77C134.12 117.709 134.194 117.679 134.281 117.679H135.1C135.186 117.679 135.256 117.709 135.308 117.77C135.368 117.822 135.399 117.891 135.399 117.978V118.68C135.399 118.767 135.368 118.84 135.308 118.901C135.256 118.953 135.186 118.979 135.1 118.979H134.281ZM139.964 127.13C139.349 127.13 138.816 127.013 138.365 126.779C137.923 126.536 137.581 126.194 137.338 125.752C137.095 125.301 136.965 124.764 136.948 124.14C136.939 124.01 136.935 123.837 136.935 123.62C136.935 123.403 136.939 123.23 136.948 123.1C136.965 122.476 137.095 121.943 137.338 121.501C137.581 121.05 137.923 120.708 138.365 120.474C138.816 120.231 139.349 120.11 139.964 120.11C140.467 120.11 140.896 120.179 141.251 120.318C141.615 120.457 141.914 120.634 142.148 120.851C142.382 121.068 142.555 121.302 142.668 121.553C142.789 121.804 142.854 122.043 142.863 122.268C142.872 122.355 142.846 122.424 142.785 122.476C142.724 122.528 142.651 122.554 142.564 122.554H141.94C141.853 122.554 141.788 122.537 141.745 122.502C141.702 122.459 141.658 122.389 141.615 122.294C141.459 121.869 141.247 121.57 140.978 121.397C140.709 121.224 140.376 121.137 139.977 121.137C139.457 121.137 139.032 121.297 138.703 121.618C138.382 121.939 138.209 122.454 138.183 123.165C138.174 123.477 138.174 123.78 138.183 124.075C138.209 124.794 138.382 125.314 138.703 125.635C139.032 125.947 139.457 126.103 139.977 126.103C140.376 126.103 140.709 126.016 140.978 125.843C141.247 125.67 141.459 125.371 141.615 124.946C141.658 124.851 141.702 124.786 141.745 124.751C141.788 124.708 141.853 124.686 141.94 124.686H142.564C142.651 124.686 142.724 124.712 142.785 124.764C142.846 124.816 142.872 124.885 142.863 124.972C142.854 125.154 142.815 125.34 142.746 125.531C142.677 125.722 142.564 125.917 142.408 126.116C142.261 126.307 142.074 126.48 141.849 126.636C141.624 126.783 141.351 126.905 141.03 127C140.718 127.087 140.363 127.13 139.964 127.13ZM146.292 127.13C145.858 127.13 145.464 127.043 145.109 126.87C144.753 126.697 144.467 126.463 144.251 126.168C144.034 125.873 143.926 125.54 143.926 125.167C143.926 124.569 144.168 124.092 144.654 123.737C145.139 123.382 145.772 123.148 146.552 123.035L148.489 122.762V122.385C148.489 121.969 148.367 121.644 148.125 121.41C147.891 121.176 147.505 121.059 146.968 121.059C146.578 121.059 146.261 121.137 146.019 121.293C145.785 121.449 145.62 121.648 145.525 121.891C145.473 122.021 145.382 122.086 145.252 122.086H144.667C144.571 122.086 144.498 122.06 144.446 122.008C144.402 121.947 144.381 121.878 144.381 121.8C144.381 121.67 144.428 121.51 144.524 121.319C144.628 121.128 144.784 120.942 144.992 120.76C145.2 120.578 145.464 120.426 145.785 120.305C146.114 120.175 146.513 120.11 146.981 120.11C147.501 120.11 147.938 120.179 148.294 120.318C148.649 120.448 148.926 120.626 149.126 120.851C149.334 121.076 149.481 121.332 149.568 121.618C149.663 121.904 149.711 122.194 149.711 122.489V126.701C149.711 126.788 149.68 126.861 149.62 126.922C149.568 126.974 149.498 127 149.412 127H148.814C148.718 127 148.645 126.974 148.593 126.922C148.541 126.861 148.515 126.788 148.515 126.701V126.142C148.402 126.298 148.25 126.454 148.06 126.61C147.869 126.757 147.631 126.883 147.345 126.987C147.059 127.082 146.708 127.13 146.292 127.13ZM146.565 126.155C146.92 126.155 147.245 126.081 147.54 125.934C147.834 125.778 148.064 125.54 148.229 125.219C148.402 124.898 148.489 124.495 148.489 124.01V123.646L146.981 123.867C146.365 123.954 145.902 124.101 145.59 124.309C145.278 124.508 145.122 124.764 145.122 125.076C145.122 125.319 145.191 125.522 145.33 125.687C145.477 125.843 145.659 125.96 145.876 126.038C146.101 126.116 146.331 126.155 146.565 126.155Z" fill="#EBECEE"/>
<rect x="100.5" y="134" width="37" height="25" rx="12.5" fill="#157525"/>
<path d="M113.342 151.14C112.67 151.14 112.086 151.047 111.592 150.86C111.097 150.664 110.686 150.398 110.36 150.062C110.042 149.726 109.8 149.334 109.632 148.886C109.464 148.438 109.366 147.957 109.338 147.444C109.328 147.192 109.319 146.907 109.31 146.59C109.31 146.263 109.31 145.937 109.31 145.61C109.319 145.274 109.328 144.975 109.338 144.714C109.366 144.201 109.464 143.725 109.632 143.286C109.809 142.838 110.061 142.451 110.388 142.124C110.724 141.788 111.134 141.527 111.62 141.34C112.114 141.153 112.688 141.06 113.342 141.06C114.004 141.06 114.578 141.153 115.064 141.34C115.549 141.527 115.955 141.788 116.282 142.124C116.618 142.451 116.874 142.838 117.052 143.286C117.229 143.725 117.327 144.201 117.346 144.714C117.364 144.975 117.374 145.274 117.374 145.61C117.383 145.937 117.383 146.263 117.374 146.59C117.374 146.907 117.364 147.192 117.346 147.444C117.327 147.957 117.229 148.438 117.052 148.886C116.884 149.334 116.636 149.726 116.31 150.062C115.992 150.398 115.586 150.664 115.092 150.86C114.606 151.047 114.023 151.14 113.342 151.14ZM113.342 149.11C113.827 149.11 114.177 148.956 114.392 148.648C114.616 148.331 114.732 147.906 114.742 147.374C114.76 147.103 114.77 146.819 114.77 146.52C114.779 146.221 114.779 145.923 114.77 145.624C114.77 145.325 114.76 145.05 114.742 144.798C114.732 144.285 114.616 143.869 114.392 143.552C114.177 143.235 113.827 143.071 113.342 143.062C112.856 143.071 112.506 143.235 112.292 143.552C112.077 143.869 111.96 144.285 111.942 144.798C111.932 145.05 111.923 145.325 111.914 145.624C111.914 145.923 111.914 146.221 111.914 146.52C111.923 146.819 111.932 147.103 111.942 147.374C111.96 147.906 112.082 148.331 112.306 148.648C112.53 148.956 112.875 149.11 113.342 149.11ZM119.679 151C119.465 151 119.357 150.907 119.357 150.72C119.357 150.664 119.376 150.613 119.413 150.566L126.329 141.466C126.395 141.382 126.46 141.317 126.525 141.27C126.591 141.223 126.689 141.2 126.819 141.2H127.813C128.028 141.2 128.135 141.293 128.135 141.48C128.135 141.536 128.117 141.587 128.079 141.634L121.163 150.734C121.098 150.818 121.033 150.883 120.967 150.93C120.902 150.977 120.804 151 120.673 151H119.679ZM126.721 151.07C126.087 151.07 125.578 150.902 125.195 150.566C124.822 150.23 124.612 149.782 124.565 149.222C124.556 148.979 124.551 148.765 124.551 148.578C124.551 148.391 124.556 148.167 124.565 147.906C124.603 147.337 124.803 146.884 125.167 146.548C125.541 146.203 126.059 146.03 126.721 146.03C127.393 146.03 127.911 146.203 128.275 146.548C128.639 146.884 128.84 147.337 128.877 147.906C128.896 148.167 128.905 148.391 128.905 148.578C128.905 148.765 128.896 148.979 128.877 149.222C128.84 149.782 128.63 150.23 128.247 150.566C127.865 150.902 127.356 151.07 126.721 151.07ZM126.721 149.838C126.88 149.838 127.001 149.805 127.085 149.74C127.179 149.675 127.249 149.591 127.295 149.488C127.342 149.376 127.365 149.259 127.365 149.138C127.384 148.923 127.393 148.727 127.393 148.55C127.393 148.373 127.384 148.181 127.365 147.976C127.356 147.799 127.305 147.64 127.211 147.5C127.118 147.351 126.955 147.276 126.721 147.276C126.488 147.276 126.325 147.351 126.231 147.5C126.138 147.64 126.087 147.799 126.077 147.976C126.068 148.181 126.063 148.373 126.063 148.55C126.063 148.727 126.068 148.923 126.077 149.138C126.087 149.259 126.11 149.376 126.147 149.488C126.194 149.591 126.264 149.675 126.357 149.74C126.451 149.805 126.572 149.838 126.721 149.838ZM120.799 146.142C120.155 146.142 119.642 145.979 119.259 145.652C118.886 145.316 118.681 144.868 118.643 144.308C118.625 144.065 118.615 143.855 118.615 143.678C118.625 143.491 118.634 143.267 118.643 143.006C118.671 142.437 118.867 141.984 119.231 141.648C119.605 141.303 120.127 141.13 120.799 141.13C121.471 141.13 121.989 141.303 122.353 141.648C122.717 141.984 122.913 142.437 122.941 143.006C122.96 143.267 122.969 143.491 122.969 143.678C122.969 143.855 122.96 144.065 122.941 144.308C122.913 144.868 122.708 145.316 122.325 145.652C121.943 145.979 121.434 146.142 120.799 146.142ZM120.799 144.938C120.949 144.938 121.07 144.905 121.163 144.84C121.257 144.765 121.327 144.677 121.373 144.574C121.42 144.462 121.443 144.35 121.443 144.238C121.462 144.023 121.471 143.827 121.471 143.65C121.471 143.473 121.462 143.281 121.443 143.076C121.434 142.899 121.378 142.74 121.275 142.6C121.182 142.451 121.023 142.376 120.799 142.376C120.566 142.376 120.398 142.451 120.295 142.6C120.202 142.74 120.151 142.899 120.141 143.076C120.132 143.281 120.127 143.473 120.127 143.65C120.127 143.827 120.132 144.023 120.141 144.238C120.151 144.35 120.174 144.462 120.211 144.574C120.258 144.677 120.328 144.765 120.421 144.84C120.515 144.905 120.641 144.938 120.799 144.938Z" fill="#EBECEE"/>
<g filter="url(#filter1_d_15958_23162)">
<rect x="148" y="74" width="32" height="32" rx="16" fill="white"/>
<rect x="147" y="73" width="34" height="34" rx="17" stroke="#1DA534" stroke-width="2"/>
<path opacity="0.4" d="M164 100C169.523 100 174 95.5228 174 90C174 84.4772 169.523 80 164 80C158.477 80 154 84.4772 154 90C154 95.5228 158.477 100 164 100Z" fill="#1DA534"/>
<path d="M162.579 93.5801C162.379 93.5801 162.189 93.5001 162.049 93.3601L159.219 90.5301C158.929 90.2401 158.929 89.7601 159.219 89.4701C159.509 89.1801 159.989 89.1801 160.279 89.4701L162.579 91.7701L167.719 86.6301C168.009 86.3401 168.489 86.3401 168.779 86.6301C169.069 86.9201 169.069 87.4001 168.779 87.6901L163.109 93.3601C162.969 93.5001 162.779 93.5801 162.579 93.5801Z" fill="#1DA534"/>
</g>
</g>
<defs>
<filter id="filter0_d_15958_23162" x="0" y="0" width="242" height="238" filterUnits="userSpaceOnUse" color-interpolation-filters="sRGB">
<feFlood flood-opacity="0" result="BackgroundImageFix"/>
<feColorMatrix in="SourceAlpha" type="matrix" values="0 0 0 0 0 0 0 0 0 0 0 0 0 0 0 0 0 0 127 0" result="hardAlpha"/>
<feOffset/>
<feGaussianBlur stdDeviation="30"/>
<feComposite in2="hardAlpha" operator="out"/>
<feColorMatrix type="matrix" values="0 0 0 0 0.0823529 0 0 0 0 0.458824 0 0 0 0 0.145098 0 0 0 1 0"/>
<feBlend mode="normal" in2="BackgroundImageFix" result="effect1_dropShadow_15958_23162"/>
<feBlend mode="normal" in="SourceGraphic" in2="effect1_dropShadow_15958_23162" result="shape"/>
</filter>
<filter id="filter1_d_15958_23162" x="131" y="65" width="66" height="66" filterUnits="userSpaceOnUse" color-interpolation-filters="sRGB">
<feFlood flood-opacity="0" result="BackgroundImageFix"/>
<feColorMatrix in="SourceAlpha" type="matrix" values="0 0 0 0 0 0 0 0 0 0 0 0 0 0 0 0 0 0 127 0" result="hardAlpha"/>
<feOffset dy="8"/>
<feGaussianBlur stdDeviation="7.5"/>
<feColorMatrix type="matrix" values="0 0 0 0 0 0 0 0 0 0 0 0 0 0 0 0 0 0 0.25 0"/>
<feBlend mode="normal" in2="BackgroundImageFix" result="effect1_dropShadow_15958_23162"/>
<feBlend mode="normal" in="SourceGraphic" in2="effect1_dropShadow_15958_23162" result="shape"/>
</filter>
</defs>
</svg>
