<svg width="122" height="118" viewBox="0 0 122 118" fill="none" xmlns="http://www.w3.org/2000/svg">
<rect x="2" y="2" width="114" height="114" rx="57" fill="#2D68F8" fill-opacity="0.15"/>
<rect x="2" y="2" width="114" height="114" rx="57" stroke="#2D68F8" stroke-width="4"/>
<path d="M72.3325 25.668H45.666V44.3334H72.3325V25.668Z" fill="white"/>
<path d="M60.6659 25.667H57.3326V33.2497H45.666V36.7495H57.3326V44.3322H60.6659V36.7495H72.3325V33.2497H60.6659V25.667Z" fill="#D80027"/>
<path d="M66.1758 38.2451L72.3328 41.8365V38.2451H66.1758Z" fill="#0052B4"/>
<path d="M61.8984 38.2451L72.3331 44.3316V42.6105L64.8492 38.2451H61.8984Z" fill="#0052B4"/>
<path d="M69.5537 44.3309L61.8984 39.8652V44.3309H69.5537Z" fill="#0052B4"/>
<path d="M61.8984 38.2451L72.3331 44.3316V42.6105L64.8492 38.2451H61.8984Z" fill="white"/>
<path d="M61.8984 38.2451L72.3331 44.3316V42.6105L64.8492 38.2451H61.8984Z" fill="#D80027"/>
<path d="M50.3712 38.2451L45.666 40.9897V38.2451H50.3712Z" fill="#0052B4"/>
<path d="M56.1012 39.0186V44.3311H46.9941L56.1012 39.0186Z" fill="#0052B4"/>
<path d="M53.15 38.2451L45.666 42.6105V44.3316L56.1007 38.2451H53.15Z" fill="#D80027"/>
<path d="M51.823 31.7535L45.666 28.1621V31.7535H51.823Z" fill="#0052B4"/>
<path d="M56.1007 31.7535L45.666 25.667V27.3881L53.15 31.7535H56.1007Z" fill="#0052B4"/>
<path d="M48.4453 25.667L56.1006 30.1327V25.667H48.4453Z" fill="#0052B4"/>
<path d="M56.1007 31.7535L45.666 25.667V27.3881L53.15 31.7535H56.1007Z" fill="white"/>
<path d="M56.1007 31.7535L45.666 25.667V27.3881L53.15 31.7535H56.1007Z" fill="#D80027"/>
<path d="M67.6289 31.7533L72.3341 29.0088V31.7533H67.6289Z" fill="#0052B4"/>
<path d="M61.8984 30.9795V25.667H71.0055L61.8984 30.9795Z" fill="#0052B4"/>
<path d="M64.8492 31.7535L72.3331 27.3881V25.667L61.8984 31.7535H64.8492Z" fill="#D80027"/>
<path d="M42.429 67C42.3336 67 42.2513 66.9653 42.182 66.896C42.1126 66.8267 42.078 66.7443 42.078 66.649V58.251C42.078 58.1557 42.1126 58.0733 42.182 58.004C42.2513 57.9347 42.3336 57.9 42.429 57.9H42.962C43.0573 57.9 43.1396 57.9347 43.209 58.004C43.2783 58.0733 43.313 58.1557 43.313 58.251V66.649C43.313 66.7443 43.2783 66.8267 43.209 66.896C43.1396 66.9653 43.0573 67 42.962 67H42.429ZM51.4068 66.649C51.4068 66.7443 51.3721 66.8267 51.3028 66.896C51.2334 66.9653 51.1511 67 51.0558 67H50.5748C50.4794 67 50.3971 66.9653 50.3278 66.896C50.2584 66.8267 50.2238 66.7443 50.2238 66.649V63.217C50.2238 62.567 50.0634 62.073 49.7428 61.735C49.4221 61.397 48.9758 61.228 48.4038 61.228C47.8404 61.228 47.3941 61.397 47.0648 61.735C46.7441 62.073 46.5838 62.567 46.5838 63.217V66.649C46.5838 66.7443 46.5491 66.8267 46.4798 66.896C46.4104 66.9653 46.3281 67 46.2328 67H45.7518C45.6564 67 45.5741 66.9653 45.5048 66.896C45.4354 66.8267 45.4008 66.7443 45.4008 66.649V60.591C45.4008 60.4957 45.4354 60.4133 45.5048 60.344C45.5741 60.2747 45.6564 60.24 45.7518 60.24H46.2328C46.3281 60.24 46.4104 60.2747 46.4798 60.344C46.5491 60.4133 46.5838 60.4957 46.5838 60.591V60.994C46.7744 60.7427 47.0344 60.5347 47.3638 60.37C47.7018 60.1967 48.1134 60.11 48.5988 60.11C49.1448 60.11 49.6301 60.227 50.0548 60.461C50.4794 60.695 50.8088 61.033 51.0428 61.475C51.2854 61.9083 51.4068 62.424 51.4068 63.022V66.649ZM55.9233 60.11C56.4086 60.11 56.8159 60.1967 57.1453 60.37C57.4833 60.5347 57.7476 60.7427 57.9383 60.994V60.591C57.9383 60.4957 57.9729 60.4133 58.0423 60.344C58.1116 60.2747 58.1939 60.24 58.2893 60.24H58.7703C58.8656 60.24 58.9479 60.2747 59.0173 60.344C59.0866 60.4133 59.1213 60.4957 59.1213 60.591V66.909C59.1213 67.8277 58.8613 68.547 58.3413 69.067C57.8213 69.5957 57.0586 69.86 56.0533 69.86C55.4033 69.86 54.8573 69.7603 54.4153 69.561C53.9733 69.3617 53.6439 69.1147 53.4273 68.82C53.2193 68.5253 53.1066 68.2263 53.0893 67.923C53.0806 67.8277 53.1109 67.7453 53.1803 67.676C53.2583 67.6067 53.3449 67.572 53.4403 67.572H53.8303C53.9343 67.572 54.0166 67.598 54.0773 67.65C54.1379 67.702 54.1986 67.793 54.2593 67.923C54.3459 68.1223 54.5106 68.3087 54.7533 68.482C54.9959 68.6553 55.3859 68.742 55.9233 68.742C57.2666 68.742 57.9383 68.183 57.9383 67.065V66.246C57.4963 66.8353 56.8246 67.13 55.9233 67.13C55.3859 67.13 54.8963 67.0043 54.4543 66.753C54.0209 66.5017 53.6699 66.1463 53.4013 65.687C53.1413 65.219 52.9983 64.673 52.9723 64.049L52.9593 63.62L52.9723 63.191C52.9983 62.567 53.1413 62.0253 53.4013 61.566C53.6699 61.098 54.0209 60.7383 54.4543 60.487C54.8876 60.2357 55.3773 60.11 55.9233 60.11ZM56.0533 61.228C55.4899 61.228 55.0393 61.41 54.7013 61.774C54.3719 62.138 54.1899 62.632 54.1553 63.256L54.1423 63.62L54.1553 63.984C54.1899 64.608 54.3719 65.102 54.7013 65.466C55.0393 65.83 55.4899 66.012 56.0533 66.012C56.6079 66.012 57.0543 65.843 57.3923 65.505C57.7303 65.1583 57.9123 64.686 57.9383 64.088C57.9469 64.0013 57.9513 63.8453 57.9513 63.62C57.9513 63.3947 57.9469 63.2387 57.9383 63.152C57.9123 62.5453 57.7303 62.073 57.3923 61.735C57.0543 61.397 56.6079 61.228 56.0533 61.228ZM62.2498 66.649C62.2498 66.7443 62.2151 66.8267 62.1458 66.896C62.0765 66.9653 61.9941 67 61.8988 67H61.4178C61.3225 67 61.2401 66.9653 61.1708 66.896C61.1015 66.8267 61.0668 66.7443 61.0668 66.649V58.121C61.0668 58.0257 61.1015 57.9433 61.1708 57.874C61.2401 57.8047 61.3225 57.77 61.4178 57.77H61.8988C61.9941 57.77 62.0765 57.8047 62.1458 57.874C62.2151 57.9433 62.2498 58.0257 62.2498 58.121V66.649ZM66.8675 60.11C67.7949 60.11 68.5272 60.4047 69.0645 60.994C69.6019 61.5833 69.8705 62.385 69.8705 63.399V63.75C69.8705 63.8453 69.8359 63.9277 69.7665 63.997C69.6972 64.0663 69.6149 64.101 69.5195 64.101H65.0475V64.179C65.0649 64.751 65.2382 65.2017 65.5675 65.531C65.9055 65.8517 66.3389 66.012 66.8675 66.012C67.3009 66.012 67.6345 65.9557 67.8685 65.843C68.1112 65.7303 68.3279 65.57 68.5185 65.362C68.5879 65.2927 68.6485 65.245 68.7005 65.219C68.7612 65.193 68.8392 65.18 68.9345 65.18H69.3245C69.4285 65.18 69.5152 65.2147 69.5845 65.284C69.6539 65.3533 69.6842 65.4357 69.6755 65.531C69.6409 65.765 69.5109 66.0077 69.2855 66.259C69.0689 66.5017 68.7525 66.7097 68.3365 66.883C67.9292 67.0477 67.4395 67.13 66.8675 67.13C66.3129 67.13 65.8189 67.0043 65.3855 66.753C64.9522 66.493 64.6055 66.1377 64.3455 65.687C64.0942 65.2363 63.9425 64.7293 63.8905 64.166C63.8732 63.906 63.8645 63.7067 63.8645 63.568C63.8645 63.4293 63.8732 63.23 63.8905 62.97C63.9425 62.4327 64.0942 61.9473 64.3455 61.514C64.6055 61.0807 64.9479 60.7383 65.3725 60.487C65.8059 60.2357 66.3042 60.11 66.8675 60.11ZM68.7005 63.009V62.97C68.7005 62.4413 68.5315 62.021 68.1935 61.709C67.8642 61.3883 67.4222 61.228 66.8675 61.228C66.3649 61.228 65.9359 61.3883 65.5805 61.709C65.2339 62.0297 65.0562 62.45 65.0475 62.97V63.009H68.7005ZM67.2705 57.692C67.3659 57.588 67.4439 57.523 67.5045 57.497C67.5652 57.4623 67.6475 57.445 67.7515 57.445H68.7135C68.7915 57.445 68.8522 57.471 68.8955 57.523C68.9389 57.5663 68.9605 57.627 68.9605 57.705C68.9605 57.7657 68.9389 57.8177 68.8955 57.861L67.4525 59.044C67.3572 59.122 67.2705 59.1783 67.1925 59.213C67.1232 59.2477 67.0279 59.265 66.9065 59.265H66.4255C66.2869 59.265 66.2175 59.1957 66.2175 59.057C66.2175 58.9877 66.2392 58.9313 66.2825 58.888L67.2705 57.692ZM73.0639 63.997C71.7985 63.7283 71.1659 63.0827 71.1659 62.06C71.1659 61.7047 71.2612 61.3797 71.4519 61.085C71.6425 60.7903 71.9242 60.5563 72.2969 60.383C72.6782 60.201 73.1419 60.11 73.6879 60.11C74.2252 60.11 74.6889 60.188 75.0789 60.344C75.4689 60.5 75.7635 60.695 75.9629 60.929C76.1709 61.163 76.2749 61.3883 76.2749 61.605C76.2749 61.6917 76.2402 61.7697 76.1709 61.839C76.1015 61.8997 76.0192 61.93 75.9239 61.93H75.4949C75.3302 61.93 75.2002 61.8693 75.1049 61.748C74.8362 61.4013 74.3639 61.228 73.6879 61.228C73.2892 61.228 72.9642 61.3017 72.7129 61.449C72.4702 61.5963 72.3489 61.8 72.3489 62.06C72.3489 62.2767 72.4095 62.4413 72.5309 62.554C72.6522 62.6667 72.8342 62.7577 73.0769 62.827C73.3195 62.8963 73.7485 63.0003 74.3639 63.139C75.1265 63.3037 75.6682 63.555 75.9889 63.893C76.3095 64.231 76.4699 64.6427 76.4699 65.128C76.4699 65.4833 76.3572 65.8127 76.1319 66.116C75.9152 66.4193 75.5989 66.6663 75.1829 66.857C74.7755 67.039 74.2989 67.13 73.7529 67.13C73.2155 67.13 72.7389 67.0477 72.3229 66.883C71.9155 66.7097 71.5992 66.5017 71.3739 66.259C71.1485 66.0163 71.0359 65.7867 71.0359 65.57C71.0359 65.4833 71.0705 65.4097 71.1399 65.349C71.2092 65.2797 71.2915 65.245 71.3869 65.245H71.8549C71.9329 65.245 72.0022 65.2537 72.0629 65.271C72.1235 65.2883 72.1799 65.336 72.2319 65.414C72.5179 65.8127 73.0249 66.012 73.7529 66.012C74.1602 66.012 74.5155 65.9297 74.8189 65.765C75.1309 65.5917 75.2869 65.3793 75.2869 65.128C75.2869 64.92 75.2089 64.7553 75.0529 64.634C74.9055 64.504 74.6889 64.4 74.4029 64.322C74.1169 64.2353 73.6705 64.127 73.0639 63.997Z" fill="#EBECEE"/>
<rect x="40" y="74" width="38" height="25" rx="12.5" fill="#2D68F8"/>
<path d="M57.1579 84.854C57.1766 85.1153 57.1859 85.5353 57.1859 86.114C57.1859 86.6833 57.1766 87.094 57.1579 87.346C57.0926 88.4567 56.7239 89.3667 56.0519 90.076C55.3892 90.7853 54.3952 91.14 53.0699 91.14C51.7446 91.14 50.7459 90.7853 50.0739 90.076C49.4112 89.3667 49.0472 88.4567 48.9819 87.346C48.9632 86.842 48.9539 86.4313 48.9539 86.114C48.9539 85.7967 48.9632 85.3767 48.9819 84.854C49.0472 83.7433 49.4112 82.8333 50.0739 82.124C50.7459 81.4147 51.7446 81.06 53.0699 81.06C54.3952 81.06 55.3892 81.4147 56.0519 82.124C56.7239 82.8333 57.0926 83.7433 57.1579 84.854ZM54.5679 84.924C54.5399 84.4107 54.4139 84.014 54.1899 83.734C53.9659 83.4447 53.5926 83.3 53.0699 83.3C52.5472 83.3 52.1739 83.4447 51.9499 83.734C51.7259 84.014 51.5999 84.4107 51.5719 84.924C51.5532 85.428 51.5439 85.8153 51.5439 86.086C51.5439 86.338 51.5532 86.7347 51.5719 87.276C51.5906 87.7893 51.7119 88.1907 51.9359 88.48C52.1692 88.76 52.5472 88.9 53.0699 88.9C53.5926 88.9 53.9659 88.76 54.1899 88.48C54.4232 88.1907 54.5492 87.7893 54.5679 87.276C54.5866 87.0053 54.5959 86.6087 54.5959 86.086C54.5959 85.5633 54.5866 85.176 54.5679 84.924ZM62.7646 84.182C62.7366 84.77 62.5359 85.2507 62.1626 85.624C61.7986 85.988 61.2666 86.17 60.5666 86.17C59.8666 86.17 59.3346 85.988 58.9706 85.624C58.6159 85.26 58.4152 84.7793 58.3686 84.182C58.3592 84.0607 58.3546 83.888 58.3546 83.664C58.3546 83.4307 58.3592 83.2487 58.3686 83.118C58.4152 82.5207 58.6159 82.04 58.9706 81.676C59.3346 81.312 59.8666 81.13 60.5666 81.13C61.2666 81.13 61.7939 81.312 62.1486 81.676C62.5126 82.04 62.7179 82.5207 62.7646 83.118C62.7832 83.3793 62.7926 83.5613 62.7926 83.664C62.7926 83.7667 62.7832 83.9393 62.7646 84.182ZM66.2646 81.466C66.3392 81.3727 66.4092 81.3073 66.4746 81.27C66.5492 81.2233 66.6472 81.2 66.7686 81.2H67.9166C68.0192 81.2 68.0986 81.228 68.1546 81.284C68.2199 81.3307 68.2526 81.396 68.2526 81.48C68.2526 81.536 68.2339 81.5873 68.1966 81.634L61.2806 90.734C61.2059 90.8273 61.1312 90.8973 61.0566 90.944C60.9912 90.9813 60.8979 91 60.7766 91H59.6286C59.5259 91 59.4419 90.9767 59.3766 90.93C59.3206 90.874 59.2926 90.804 59.2926 90.72C59.2926 90.664 59.3112 90.6127 59.3486 90.566L66.2646 81.466ZM60.5666 84.84C60.7626 84.84 60.9026 84.784 60.9866 84.672C61.0706 84.56 61.1219 84.3733 61.1406 84.112C61.1592 83.888 61.1686 83.734 61.1686 83.65C61.1686 83.5473 61.1592 83.3933 61.1406 83.188C61.1219 82.9267 61.0706 82.74 60.9866 82.628C60.9026 82.516 60.7626 82.46 60.5666 82.46C60.3706 82.46 60.2306 82.516 60.1466 82.628C60.0626 82.74 60.0112 82.9267 59.9926 83.188C59.9832 83.2907 59.9786 83.4447 59.9786 83.65C59.9786 83.846 59.9832 84 59.9926 84.112C60.0112 84.3733 60.0626 84.56 60.1466 84.672C60.2306 84.784 60.3706 84.84 60.5666 84.84ZM69.2606 89.082C69.2326 89.67 69.0319 90.1507 68.6586 90.524C68.2946 90.888 67.7626 91.07 67.0626 91.07C66.3626 91.07 65.8306 90.888 65.4666 90.524C65.1119 90.16 64.9112 89.6793 64.8646 89.082C64.8552 88.9607 64.8506 88.788 64.8506 88.564C64.8506 88.3307 64.8552 88.1487 64.8646 88.018C64.9112 87.4207 65.1119 86.94 65.4666 86.576C65.8306 86.212 66.3626 86.03 67.0626 86.03C67.7626 86.03 68.2899 86.212 68.6446 86.576C69.0086 86.94 69.2139 87.4207 69.2606 88.018C69.2792 88.2793 69.2886 88.4613 69.2886 88.564C69.2886 88.6667 69.2792 88.8393 69.2606 89.082ZM67.0626 89.74C67.2586 89.74 67.3986 89.684 67.4826 89.572C67.5666 89.46 67.6179 89.2733 67.6366 89.012C67.6552 88.788 67.6646 88.634 67.6646 88.55C67.6646 88.4473 67.6552 88.2933 67.6366 88.088C67.6179 87.8267 67.5666 87.64 67.4826 87.528C67.3986 87.416 67.2586 87.36 67.0626 87.36C66.8666 87.36 66.7266 87.416 66.6426 87.528C66.5586 87.64 66.5072 87.8267 66.4886 88.088C66.4792 88.1907 66.4746 88.3447 66.4746 88.55C66.4746 88.746 66.4792 88.9 66.4886 89.012C66.5072 89.2733 66.5586 89.46 66.6426 89.572C66.7266 89.684 66.8666 89.74 67.0626 89.74Z" fill="#EBECEE"/>
<rect x="87" y="13" width="34" height="34" rx="17" fill="white"/>
<rect x="87" y="13" width="34" height="34" rx="17" stroke="#1DA534" stroke-width="2"/>
<path opacity="0.4" d="M104 40C109.523 40 114 35.5228 114 30C114 24.4772 109.523 20 104 20C98.4772 20 94 24.4772 94 30C94 35.5228 98.4772 40 104 40Z" fill="#1DA534"/>
<path d="M102.579 33.5796C102.379 33.5796 102.189 33.4996 102.049 33.3596L99.2195 30.5296C98.9295 30.2396 98.9295 29.7596 99.2195 29.4696C99.5095 29.1796 99.9895 29.1796 100.279 29.4696L102.579 31.7696L107.719 26.6296C108.009 26.3396 108.489 26.3396 108.779 26.6296C109.069 26.9196 109.069 27.3996 108.779 27.6896L103.109 33.3596C102.969 33.4996 102.779 33.5796 102.579 33.5796Z" fill="#1DA534"/>
</svg>
