<svg width="242" height="238" viewBox="0 0 242 238" fill="none" xmlns="http://www.w3.org/2000/svg">
<g filter="url(#filter0_d_15958_23138)">
<rect x="64" y="64" width="110" height="110" rx="55" fill="#E8B600" fill-opacity="0.15" shape-rendering="crispEdges"/>
<rect x="62" y="62" width="114" height="114" rx="57" stroke="#E8B600" stroke-width="4" shape-rendering="crispEdges"/>
<path opacity="0.4" d="M118.999 108.2C126.363 108.2 132.333 102.23 132.333 94.8665C132.333 87.5027 126.363 81.5332 118.999 81.5332C111.636 81.5332 105.666 87.5027 105.666 94.8665C105.666 102.23 111.636 108.2 118.999 108.2Z" fill="#E8B600"/>
<path d="M122.014 95L120 94.2933V89.7733H120.48C121.56 89.7733 122.44 90.72 122.44 91.88C122.44 92.4267 122.894 92.88 123.44 92.88C123.987 92.88 124.44 92.4267 124.44 91.88C124.44 89.6133 122.667 87.7733 120.48 87.7733H120V87C120 86.4533 119.547 86 119 86C118.454 86 118 86.4533 118 87V87.7733H117.134C115.16 87.7733 113.547 89.44 113.547 91.48C113.547 93.8667 114.934 94.6267 115.987 95L118 95.7067V100.213H117.52C116.44 100.213 115.56 99.2667 115.56 98.1067C115.56 97.56 115.107 97.1067 114.56 97.1067C114.014 97.1067 113.56 97.56 113.56 98.1067C113.56 100.373 115.334 102.213 117.52 102.213H118V103C118 103.547 118.454 104 119 104C119.547 104 120 103.547 120 103V102.227H120.867C122.84 102.227 124.454 100.56 124.454 98.52C124.44 96.12 123.054 95.36 122.014 95ZM116.654 93.12C115.974 92.88 115.56 92.6533 115.56 91.4933C115.56 90.5467 116.267 89.7867 117.147 89.7867H118.014V93.6L116.654 93.12ZM120.867 100.227H120V96.4133L121.347 96.88C122.027 97.12 122.44 97.3467 122.44 98.5067C122.44 99.4533 121.734 100.227 120.867 100.227Z" fill="#E8B600"/>
<path d="M90.596 127C90.5007 127 90.427 126.974 90.375 126.922C90.323 126.861 90.297 126.788 90.297 126.701V118.212C90.297 118.117 90.323 118.043 90.375 117.991C90.427 117.93 90.5007 117.9 90.596 117.9H95.965C96.0603 117.9 96.134 117.93 96.186 117.991C96.238 118.043 96.264 118.117 96.264 118.212V118.706C96.264 118.801 96.238 118.875 96.186 118.927C96.134 118.979 96.0603 119.005 95.965 119.005H91.545V121.852H95.679C95.7743 121.852 95.848 121.882 95.9 121.943C95.952 121.995 95.978 122.069 95.978 122.164V122.645C95.978 122.732 95.952 122.805 95.9 122.866C95.848 122.918 95.7743 122.944 95.679 122.944H91.545V125.895H96.069C96.1643 125.895 96.238 125.921 96.29 125.973C96.342 126.025 96.368 126.099 96.368 126.194V126.701C96.368 126.788 96.342 126.861 96.29 126.922C96.238 126.974 96.1643 127 96.069 127H90.596ZM100.666 127.13C100.05 127.13 99.5173 127.013 99.0666 126.779C98.6246 126.536 98.2823 126.194 98.0396 125.752C97.797 125.301 97.667 124.764 97.6496 124.14C97.641 124.01 97.6366 123.837 97.6366 123.62C97.6366 123.403 97.641 123.23 97.6496 123.1C97.667 122.476 97.797 121.943 98.0396 121.501C98.2823 121.05 98.6246 120.708 99.0666 120.474C99.5173 120.231 100.05 120.11 100.666 120.11C101.168 120.11 101.597 120.179 101.953 120.318C102.317 120.457 102.616 120.634 102.85 120.851C103.084 121.068 103.257 121.302 103.37 121.553C103.491 121.804 103.556 122.043 103.565 122.268C103.573 122.355 103.547 122.424 103.487 122.476C103.426 122.528 103.352 122.554 103.266 122.554H102.642C102.555 122.554 102.49 122.537 102.447 122.502C102.403 122.459 102.36 122.389 102.317 122.294C102.161 121.869 101.948 121.57 101.68 121.397C101.411 121.224 101.077 121.137 100.679 121.137C100.159 121.137 99.734 121.297 99.4046 121.618C99.084 121.939 98.9106 122.454 98.8846 123.165C98.876 123.477 98.876 123.78 98.8846 124.075C98.9106 124.794 99.084 125.314 99.4046 125.635C99.734 125.947 100.159 126.103 100.679 126.103C101.077 126.103 101.411 126.016 101.68 125.843C101.948 125.67 102.161 125.371 102.317 124.946C102.36 124.851 102.403 124.786 102.447 124.751C102.49 124.708 102.555 124.686 102.642 124.686H103.266C103.352 124.686 103.426 124.712 103.487 124.764C103.547 124.816 103.573 124.885 103.565 124.972C103.556 125.154 103.517 125.34 103.448 125.531C103.378 125.722 103.266 125.917 103.11 126.116C102.962 126.307 102.776 126.48 102.551 126.636C102.325 126.783 102.052 126.905 101.732 127C101.42 127.087 101.064 127.13 100.666 127.13ZM107.877 127.13C107.219 127.13 106.668 127.004 106.226 126.753C105.784 126.502 105.446 126.155 105.212 125.713C104.978 125.262 104.848 124.751 104.822 124.179C104.814 124.032 104.809 123.845 104.809 123.62C104.809 123.386 104.814 123.2 104.822 123.061C104.848 122.48 104.978 121.969 105.212 121.527C105.455 121.085 105.797 120.738 106.239 120.487C106.681 120.236 107.227 120.11 107.877 120.11C108.527 120.11 109.073 120.236 109.515 120.487C109.957 120.738 110.295 121.085 110.529 121.527C110.772 121.969 110.906 122.48 110.932 123.061C110.941 123.2 110.945 123.386 110.945 123.62C110.945 123.845 110.941 124.032 110.932 124.179C110.906 124.751 110.776 125.262 110.542 125.713C110.308 126.155 109.97 126.502 109.528 126.753C109.086 127.004 108.536 127.13 107.877 127.13ZM107.877 126.129C108.415 126.129 108.844 125.96 109.164 125.622C109.485 125.275 109.658 124.773 109.684 124.114C109.693 123.984 109.697 123.819 109.697 123.62C109.697 123.421 109.693 123.256 109.684 123.126C109.658 122.467 109.485 121.969 109.164 121.631C108.844 121.284 108.415 121.111 107.877 121.111C107.34 121.111 106.907 121.284 106.577 121.631C106.257 121.969 106.088 122.467 106.07 123.126C106.062 123.256 106.057 123.421 106.057 123.62C106.057 123.819 106.062 123.984 106.07 124.114C106.088 124.773 106.257 125.275 106.577 125.622C106.907 125.96 107.34 126.129 107.877 126.129ZM112.872 127C112.786 127 112.712 126.974 112.651 126.922C112.599 126.861 112.573 126.788 112.573 126.701V120.539C112.573 120.452 112.599 120.383 112.651 120.331C112.712 120.27 112.786 120.24 112.872 120.24H113.483C113.57 120.24 113.639 120.27 113.691 120.331C113.752 120.383 113.782 120.452 113.782 120.539V121.111C114.008 120.816 114.289 120.578 114.627 120.396C114.974 120.205 115.416 120.11 115.953 120.11C116.517 120.11 116.993 120.236 117.383 120.487C117.782 120.73 118.081 121.072 118.28 121.514C118.48 121.947 118.579 122.454 118.579 123.035V126.701C118.579 126.788 118.553 126.861 118.501 126.922C118.449 126.974 118.38 127 118.293 127H117.643C117.557 127 117.483 126.974 117.422 126.922C117.37 126.861 117.344 126.788 117.344 126.701V123.1C117.344 122.493 117.197 122.021 116.902 121.683C116.608 121.336 116.174 121.163 115.602 121.163C115.065 121.163 114.632 121.336 114.302 121.683C113.982 122.021 113.821 122.493 113.821 123.1V126.701C113.821 126.788 113.791 126.861 113.73 126.922C113.678 126.974 113.609 127 113.522 127H112.872ZM123.226 127.13C122.567 127.13 122.017 127.004 121.575 126.753C121.133 126.502 120.795 126.155 120.561 125.713C120.327 125.262 120.197 124.751 120.171 124.179C120.162 124.032 120.158 123.845 120.158 123.62C120.158 123.386 120.162 123.2 120.171 123.061C120.197 122.48 120.327 121.969 120.561 121.527C120.804 121.085 121.146 120.738 121.588 120.487C122.03 120.236 122.576 120.11 123.226 120.11C123.876 120.11 124.422 120.236 124.864 120.487C125.306 120.738 125.644 121.085 125.878 121.527C126.121 121.969 126.255 122.48 126.281 123.061C126.29 123.2 126.294 123.386 126.294 123.62C126.294 123.845 126.29 124.032 126.281 124.179C126.255 124.751 126.125 125.262 125.891 125.713C125.657 126.155 125.319 126.502 124.877 126.753C124.435 127.004 123.885 127.13 123.226 127.13ZM123.226 126.129C123.763 126.129 124.192 125.96 124.513 125.622C124.834 125.275 125.007 124.773 125.033 124.114C125.042 123.984 125.046 123.819 125.046 123.62C125.046 123.421 125.042 123.256 125.033 123.126C125.007 122.467 124.834 121.969 124.513 121.631C124.192 121.284 123.763 121.111 123.226 121.111C122.689 121.111 122.255 121.284 121.926 121.631C121.605 121.969 121.436 122.467 121.419 123.126C121.41 123.256 121.406 123.421 121.406 123.62C121.406 123.819 121.41 123.984 121.419 124.114C121.436 124.773 121.605 125.275 121.926 125.622C122.255 125.96 122.689 126.129 123.226 126.129ZM128.221 127C128.134 127 128.061 126.974 128 126.922C127.948 126.861 127.922 126.788 127.922 126.701V120.539C127.922 120.452 127.948 120.383 128 120.331C128.061 120.27 128.134 120.24 128.221 120.24H128.806C128.893 120.24 128.962 120.27 129.014 120.331C129.075 120.383 129.105 120.452 129.105 120.539V120.994C129.304 120.725 129.556 120.513 129.859 120.357C130.162 120.192 130.526 120.11 130.951 120.11C131.93 120.101 132.624 120.5 133.031 121.306C133.23 120.942 133.521 120.652 133.902 120.435C134.283 120.218 134.717 120.11 135.202 120.11C135.653 120.11 136.06 120.214 136.424 120.422C136.797 120.63 137.087 120.946 137.295 121.371C137.512 121.787 137.62 122.311 137.62 122.944V126.701C137.62 126.788 137.59 126.861 137.529 126.922C137.477 126.974 137.408 127 137.321 127H136.71C136.623 127 136.55 126.974 136.489 126.922C136.437 126.861 136.411 126.788 136.411 126.701V123.061C136.411 122.576 136.342 122.194 136.203 121.917C136.064 121.64 135.878 121.445 135.644 121.332C135.41 121.219 135.154 121.163 134.877 121.163C134.652 121.163 134.422 121.219 134.188 121.332C133.954 121.445 133.759 121.64 133.603 121.917C133.456 122.194 133.382 122.576 133.382 123.061V126.701C133.382 126.788 133.352 126.861 133.291 126.922C133.239 126.974 133.17 127 133.083 127H132.472C132.385 127 132.312 126.974 132.251 126.922C132.199 126.861 132.173 126.788 132.173 126.701V123.061C132.173 122.576 132.099 122.194 131.952 121.917C131.805 121.64 131.614 121.445 131.38 121.332C131.146 121.219 130.899 121.163 130.639 121.163C130.414 121.163 130.184 121.219 129.95 121.332C129.716 121.445 129.521 121.64 129.365 121.917C129.218 122.194 129.144 122.571 129.144 123.048V126.701C129.144 126.788 129.114 126.861 129.053 126.922C129.001 126.974 128.932 127 128.845 127H128.221ZM139.774 127C139.687 127 139.613 126.974 139.553 126.922C139.501 126.861 139.475 126.788 139.475 126.701V120.539C139.475 120.452 139.501 120.383 139.553 120.331C139.613 120.27 139.687 120.24 139.774 120.24H140.398C140.484 120.24 140.554 120.27 140.606 120.331C140.658 120.383 140.684 120.452 140.684 120.539V126.701C140.684 126.788 140.658 126.861 140.606 126.922C140.554 126.974 140.484 127 140.398 127H139.774ZM139.735 119.265C139.596 119.265 139.527 119.196 139.527 119.057C139.527 118.988 139.548 118.931 139.592 118.888L140.567 117.718C140.645 117.623 140.714 117.562 140.775 117.536C140.835 117.501 140.926 117.484 141.048 117.484H141.932C142.096 117.484 142.179 117.566 142.179 117.731C142.179 117.792 142.157 117.844 142.114 117.887L140.606 119.122C140.536 119.183 140.471 119.222 140.411 119.239C140.35 119.256 140.272 119.265 140.177 119.265H139.735ZM144.508 127.13C144.075 127.13 143.68 127.043 143.325 126.87C142.97 126.697 142.684 126.463 142.467 126.168C142.25 125.873 142.142 125.54 142.142 125.167C142.142 124.569 142.385 124.092 142.87 123.737C143.355 123.382 143.988 123.148 144.768 123.035L146.705 122.762V122.385C146.705 121.969 146.584 121.644 146.341 121.41C146.107 121.176 145.721 121.059 145.184 121.059C144.794 121.059 144.478 121.137 144.235 121.293C144.001 121.449 143.836 121.648 143.741 121.891C143.689 122.021 143.598 122.086 143.468 122.086H142.883C142.788 122.086 142.714 122.06 142.662 122.008C142.619 121.947 142.597 121.878 142.597 121.8C142.597 121.67 142.645 121.51 142.74 121.319C142.844 121.128 143 120.942 143.208 120.76C143.416 120.578 143.68 120.426 144.001 120.305C144.33 120.175 144.729 120.11 145.197 120.11C145.717 120.11 146.155 120.179 146.51 120.318C146.865 120.448 147.143 120.626 147.342 120.851C147.55 121.076 147.697 121.332 147.784 121.618C147.879 121.904 147.927 122.194 147.927 122.489V126.701C147.927 126.788 147.897 126.861 147.836 126.922C147.784 126.974 147.715 127 147.628 127H147.03C146.935 127 146.861 126.974 146.809 126.922C146.757 126.861 146.731 126.788 146.731 126.701V126.142C146.618 126.298 146.467 126.454 146.276 126.61C146.085 126.757 145.847 126.883 145.561 126.987C145.275 127.082 144.924 127.13 144.508 127.13ZM144.781 126.155C145.136 126.155 145.461 126.081 145.756 125.934C146.051 125.778 146.28 125.54 146.445 125.219C146.618 124.898 146.705 124.495 146.705 124.01V123.646L145.197 123.867C144.582 123.954 144.118 124.101 143.806 124.309C143.494 124.508 143.338 124.764 143.338 125.076C143.338 125.319 143.407 125.522 143.546 125.687C143.693 125.843 143.875 125.96 144.092 126.038C144.317 126.116 144.547 126.155 144.781 126.155Z" fill="#EBECEE"/>
<rect x="100.5" y="134" width="37" height="25" rx="12.5" fill="#E8B600"/>
<path d="M113.342 151.14C112.67 151.14 112.086 151.047 111.592 150.86C111.097 150.664 110.686 150.398 110.36 150.062C110.042 149.726 109.8 149.334 109.632 148.886C109.464 148.438 109.366 147.957 109.338 147.444C109.328 147.192 109.319 146.907 109.31 146.59C109.31 146.263 109.31 145.937 109.31 145.61C109.319 145.274 109.328 144.975 109.338 144.714C109.366 144.201 109.464 143.725 109.632 143.286C109.809 142.838 110.061 142.451 110.388 142.124C110.724 141.788 111.134 141.527 111.62 141.34C112.114 141.153 112.688 141.06 113.342 141.06C114.004 141.06 114.578 141.153 115.064 141.34C115.549 141.527 115.955 141.788 116.282 142.124C116.618 142.451 116.874 142.838 117.052 143.286C117.229 143.725 117.327 144.201 117.346 144.714C117.364 144.975 117.374 145.274 117.374 145.61C117.383 145.937 117.383 146.263 117.374 146.59C117.374 146.907 117.364 147.192 117.346 147.444C117.327 147.957 117.229 148.438 117.052 148.886C116.884 149.334 116.636 149.726 116.31 150.062C115.992 150.398 115.586 150.664 115.092 150.86C114.606 151.047 114.023 151.14 113.342 151.14ZM113.342 149.11C113.827 149.11 114.177 148.956 114.392 148.648C114.616 148.331 114.732 147.906 114.742 147.374C114.76 147.103 114.77 146.819 114.77 146.52C114.779 146.221 114.779 145.923 114.77 145.624C114.77 145.325 114.76 145.05 114.742 144.798C114.732 144.285 114.616 143.869 114.392 143.552C114.177 143.235 113.827 143.071 113.342 143.062C112.856 143.071 112.506 143.235 112.292 143.552C112.077 143.869 111.96 144.285 111.942 144.798C111.932 145.05 111.923 145.325 111.914 145.624C111.914 145.923 111.914 146.221 111.914 146.52C111.923 146.819 111.932 147.103 111.942 147.374C111.96 147.906 112.082 148.331 112.306 148.648C112.53 148.956 112.875 149.11 113.342 149.11ZM119.679 151C119.465 151 119.357 150.907 119.357 150.72C119.357 150.664 119.376 150.613 119.413 150.566L126.329 141.466C126.395 141.382 126.46 141.317 126.525 141.27C126.591 141.223 126.689 141.2 126.819 141.2H127.813C128.028 141.2 128.135 141.293 128.135 141.48C128.135 141.536 128.117 141.587 128.079 141.634L121.163 150.734C121.098 150.818 121.033 150.883 120.967 150.93C120.902 150.977 120.804 151 120.673 151H119.679ZM126.721 151.07C126.087 151.07 125.578 150.902 125.195 150.566C124.822 150.23 124.612 149.782 124.565 149.222C124.556 148.979 124.551 148.765 124.551 148.578C124.551 148.391 124.556 148.167 124.565 147.906C124.603 147.337 124.803 146.884 125.167 146.548C125.541 146.203 126.059 146.03 126.721 146.03C127.393 146.03 127.911 146.203 128.275 146.548C128.639 146.884 128.84 147.337 128.877 147.906C128.896 148.167 128.905 148.391 128.905 148.578C128.905 148.765 128.896 148.979 128.877 149.222C128.84 149.782 128.63 150.23 128.247 150.566C127.865 150.902 127.356 151.07 126.721 151.07ZM126.721 149.838C126.88 149.838 127.001 149.805 127.085 149.74C127.179 149.675 127.249 149.591 127.295 149.488C127.342 149.376 127.365 149.259 127.365 149.138C127.384 148.923 127.393 148.727 127.393 148.55C127.393 148.373 127.384 148.181 127.365 147.976C127.356 147.799 127.305 147.64 127.211 147.5C127.118 147.351 126.955 147.276 126.721 147.276C126.488 147.276 126.325 147.351 126.231 147.5C126.138 147.64 126.087 147.799 126.077 147.976C126.068 148.181 126.063 148.373 126.063 148.55C126.063 148.727 126.068 148.923 126.077 149.138C126.087 149.259 126.11 149.376 126.147 149.488C126.194 149.591 126.264 149.675 126.357 149.74C126.451 149.805 126.572 149.838 126.721 149.838ZM120.799 146.142C120.155 146.142 119.642 145.979 119.259 145.652C118.886 145.316 118.681 144.868 118.643 144.308C118.625 144.065 118.615 143.855 118.615 143.678C118.625 143.491 118.634 143.267 118.643 143.006C118.671 142.437 118.867 141.984 119.231 141.648C119.605 141.303 120.127 141.13 120.799 141.13C121.471 141.13 121.989 141.303 122.353 141.648C122.717 141.984 122.913 142.437 122.941 143.006C122.96 143.267 122.969 143.491 122.969 143.678C122.969 143.855 122.96 144.065 122.941 144.308C122.913 144.868 122.708 145.316 122.325 145.652C121.943 145.979 121.434 146.142 120.799 146.142ZM120.799 144.938C120.949 144.938 121.07 144.905 121.163 144.84C121.257 144.765 121.327 144.677 121.373 144.574C121.42 144.462 121.443 144.35 121.443 144.238C121.462 144.023 121.471 143.827 121.471 143.65C121.471 143.473 121.462 143.281 121.443 143.076C121.434 142.899 121.378 142.74 121.275 142.6C121.182 142.451 121.023 142.376 120.799 142.376C120.566 142.376 120.398 142.451 120.295 142.6C120.202 142.74 120.151 142.899 120.141 143.076C120.132 143.281 120.127 143.473 120.127 143.65C120.127 143.827 120.132 144.023 120.141 144.238C120.151 144.35 120.174 144.462 120.211 144.574C120.258 144.677 120.328 144.765 120.421 144.84C120.515 144.905 120.641 144.938 120.799 144.938Z" fill="#EBECEE"/>
<g filter="url(#filter1_d_15958_23138)">
<rect x="148" y="74" width="32" height="32" rx="16" fill="white"/>
<rect x="147" y="73" width="34" height="34" rx="17" stroke="#1DA534" stroke-width="2"/>
<path opacity="0.4" d="M164 100C169.523 100 174 95.5228 174 90C174 84.4772 169.523 80 164 80C158.477 80 154 84.4772 154 90C154 95.5228 158.477 100 164 100Z" fill="#1DA534"/>
<path d="M162.579 93.5801C162.379 93.5801 162.189 93.5001 162.049 93.3601L159.219 90.5301C158.929 90.2401 158.929 89.7601 159.219 89.4701C159.509 89.1801 159.989 89.1801 160.279 89.4701L162.579 91.7701L167.719 86.6301C168.009 86.3401 168.489 86.3401 168.779 86.6301C169.069 86.9201 169.069 87.4001 168.779 87.6901L163.109 93.3601C162.969 93.5001 162.779 93.5801 162.579 93.5801Z" fill="#1DA534"/>
</g>
</g>
<defs>
<filter id="filter0_d_15958_23138" x="0" y="0" width="242" height="238" filterUnits="userSpaceOnUse" color-interpolation-filters="sRGB">
<feFlood flood-opacity="0" result="BackgroundImageFix"/>
<feColorMatrix in="SourceAlpha" type="matrix" values="0 0 0 0 0 0 0 0 0 0 0 0 0 0 0 0 0 0 127 0" result="hardAlpha"/>
<feOffset/>
<feGaussianBlur stdDeviation="30"/>
<feComposite in2="hardAlpha" operator="out"/>
<feColorMatrix type="matrix" values="0 0 0 0 0.901961 0 0 0 0 0.709804 0 0 0 0 0 0 0 0 1 0"/>
<feBlend mode="normal" in2="BackgroundImageFix" result="effect1_dropShadow_15958_23138"/>
<feBlend mode="normal" in="SourceGraphic" in2="effect1_dropShadow_15958_23138" result="shape"/>
</filter>
<filter id="filter1_d_15958_23138" x="131" y="65" width="66" height="66" filterUnits="userSpaceOnUse" color-interpolation-filters="sRGB">
<feFlood flood-opacity="0" result="BackgroundImageFix"/>
<feColorMatrix in="SourceAlpha" type="matrix" values="0 0 0 0 0 0 0 0 0 0 0 0 0 0 0 0 0 0 127 0" result="hardAlpha"/>
<feOffset dy="8"/>
<feGaussianBlur stdDeviation="7.5"/>
<feColorMatrix type="matrix" values="0 0 0 0 0 0 0 0 0 0 0 0 0 0 0 0 0 0 0.25 0"/>
<feBlend mode="normal" in2="BackgroundImageFix" result="effect1_dropShadow_15958_23138"/>
<feBlend mode="normal" in="SourceGraphic" in2="effect1_dropShadow_15958_23138" result="shape"/>
</filter>
</defs>
</svg>
