<svg width="242" height="238" viewBox="0 0 242 238" fill="none" xmlns="http://www.w3.org/2000/svg">
<g filter="url(#filter0_d_15958_23150)">
<rect x="64" y="64" width="110" height="110" rx="55" fill="#4AB75D" fill-opacity="0.15" shape-rendering="crispEdges"/>
<rect x="62" y="62" width="114" height="114" rx="57" stroke="#1DA534" stroke-width="4" shape-rendering="crispEdges"/>
<g clip-path="url(#clip0_15958_23150)">
<mask id="mask0_15958_23150" style="mask-type:luminance" maskUnits="userSpaceOnUse" x="103" y="79" width="32" height="32">
<path d="M135 79H103V111H135V79Z" fill="white"/>
</mask>
<g mask="url(#mask0_15958_23150)">
<path d="M128.468 89.5601C128.468 93.8535 124.975 97.3335 120.695 97.3335C116.388 97.3335 112.908 93.8401 112.908 89.5601C112.908 85.2534 116.401 81.7734 120.695 81.7734C124.975 81.7734 128.468 85.2534 128.468 89.5601Z" fill="#1DA534"/>
<path opacity="0.4" d="M130.441 98.7731C130.881 98.3064 130.854 97.5731 130.387 97.1331C129.921 96.6931 129.187 96.7198 128.747 97.1864C126.641 99.4264 123.787 100.666 120.694 100.666C114.574 100.666 109.587 95.6798 109.587 89.5597C109.587 87.6397 110.081 85.7597 111.014 84.1197C111.334 83.5598 111.134 82.8531 110.574 82.5331C110.014 82.2131 109.307 82.4131 108.987 82.9731C107.854 84.9597 107.254 87.2397 107.254 89.5597C107.254 96.5731 112.667 102.346 119.521 102.933V106.12H116.587C115.947 106.12 115.427 106.64 115.427 107.28C115.427 107.92 115.947 108.44 116.587 108.44H124.774C125.414 108.44 125.934 107.92 125.934 107.28C125.934 106.64 125.414 106.12 124.774 106.12H121.841V102.933C125.134 102.64 128.161 101.2 130.441 98.7731Z" fill="#1DA534"/>
</g>
</g>
<path d="M94.0878 127.13C93.3251 127.13 92.6751 126.987 92.1378 126.701C91.6091 126.415 91.2018 126.012 90.9158 125.492C90.6385 124.972 90.4825 124.361 90.4478 123.659C90.4391 123.278 90.4348 122.875 90.4348 122.45C90.4348 122.017 90.4391 121.605 90.4478 121.215C90.4825 120.513 90.6385 119.906 90.9158 119.395C91.2018 118.884 91.6135 118.485 92.1508 118.199C92.6881 117.913 93.3338 117.77 94.0878 117.77C94.7031 117.77 95.2361 117.857 95.6868 118.03C96.1375 118.203 96.5058 118.424 96.7918 118.693C97.0865 118.953 97.3031 119.226 97.4418 119.512C97.5891 119.798 97.6671 120.049 97.6758 120.266C97.6845 120.344 97.6628 120.409 97.6108 120.461C97.5588 120.504 97.4895 120.526 97.4028 120.526H96.6358C96.5491 120.526 96.4841 120.509 96.4408 120.474C96.4061 120.439 96.3715 120.379 96.3368 120.292C96.2588 120.067 96.1288 119.846 95.9468 119.629C95.7735 119.412 95.5351 119.235 95.2318 119.096C94.9371 118.949 94.5558 118.875 94.0878 118.875C93.4031 118.875 92.8485 119.061 92.4238 119.434C92.0078 119.807 91.7825 120.422 91.7478 121.28C91.7218 122.051 91.7218 122.823 91.7478 123.594C91.7825 124.461 92.0121 125.085 92.4368 125.466C92.8615 125.839 93.4161 126.025 94.1008 126.025C94.5601 126.025 94.9675 125.943 95.3228 125.778C95.6868 125.605 95.9728 125.34 96.1808 124.985C96.3888 124.63 96.4928 124.179 96.4928 123.633V123.087H94.5428C94.4561 123.087 94.3825 123.061 94.3218 123.009C94.2698 122.948 94.2438 122.87 94.2438 122.775V122.359C94.2438 122.264 94.2698 122.19 94.3218 122.138C94.3825 122.077 94.4561 122.047 94.5428 122.047H97.4808C97.5761 122.047 97.6498 122.077 97.7018 122.138C97.7538 122.19 97.7798 122.264 97.7798 122.359V123.607C97.7798 124.318 97.6325 124.937 97.3378 125.466C97.0518 125.995 96.6315 126.406 96.0768 126.701C95.5221 126.987 94.8591 127.13 94.0878 127.13ZM102.156 127.13C101.264 127.13 100.553 126.857 100.024 126.311C99.4958 125.756 99.2054 125.002 99.1534 124.049C99.1448 123.936 99.1404 123.793 99.1404 123.62C99.1404 123.438 99.1448 123.291 99.1534 123.178C99.1881 122.563 99.3311 122.025 99.5824 121.566C99.8338 121.098 100.176 120.738 100.609 120.487C101.051 120.236 101.567 120.11 102.156 120.11C102.815 120.11 103.365 120.249 103.807 120.526C104.258 120.803 104.6 121.198 104.834 121.709C105.068 122.22 105.185 122.818 105.185 123.503V123.724C105.185 123.819 105.155 123.893 105.094 123.945C105.042 123.997 104.973 124.023 104.886 124.023H100.388C100.388 124.032 100.388 124.049 100.388 124.075C100.388 124.101 100.388 124.123 100.388 124.14C100.406 124.495 100.484 124.829 100.622 125.141C100.761 125.444 100.96 125.691 101.22 125.882C101.48 126.073 101.792 126.168 102.156 126.168C102.468 126.168 102.728 126.12 102.936 126.025C103.144 125.93 103.313 125.826 103.443 125.713C103.573 125.592 103.66 125.501 103.703 125.44C103.781 125.327 103.842 125.262 103.885 125.245C103.929 125.219 103.998 125.206 104.093 125.206H104.717C104.804 125.206 104.873 125.232 104.925 125.284C104.986 125.327 105.012 125.392 105.003 125.479C104.995 125.609 104.925 125.769 104.795 125.96C104.665 126.142 104.479 126.324 104.236 126.506C103.994 126.688 103.699 126.84 103.352 126.961C103.006 127.074 102.607 127.13 102.156 127.13ZM100.388 123.126H103.95V123.087C103.95 122.697 103.877 122.35 103.729 122.047C103.591 121.744 103.387 121.505 103.118 121.332C102.85 121.15 102.529 121.059 102.156 121.059C101.784 121.059 101.463 121.15 101.194 121.332C100.934 121.505 100.735 121.744 100.596 122.047C100.458 122.35 100.388 122.697 100.388 123.087V123.126ZM109.509 127.13C108.85 127.13 108.3 127.004 107.858 126.753C107.416 126.502 107.078 126.155 106.844 125.713C106.61 125.262 106.48 124.751 106.454 124.179C106.445 124.032 106.441 123.845 106.441 123.62C106.441 123.386 106.445 123.2 106.454 123.061C106.48 122.48 106.61 121.969 106.844 121.527C107.086 121.085 107.429 120.738 107.871 120.487C108.313 120.236 108.859 120.11 109.509 120.11C110.159 120.11 110.705 120.236 111.147 120.487C111.589 120.738 111.927 121.085 112.161 121.527C112.403 121.969 112.538 122.48 112.564 123.061C112.572 123.2 112.577 123.386 112.577 123.62C112.577 123.845 112.572 124.032 112.564 124.179C112.538 124.751 112.408 125.262 112.174 125.713C111.94 126.155 111.602 126.502 111.16 126.753C110.718 127.004 110.167 127.13 109.509 127.13ZM109.509 126.129C110.046 126.129 110.475 125.96 110.796 125.622C111.116 125.275 111.29 124.773 111.316 124.114C111.324 123.984 111.329 123.819 111.329 123.62C111.329 123.421 111.324 123.256 111.316 123.126C111.29 122.467 111.116 121.969 110.796 121.631C110.475 121.284 110.046 121.111 109.509 121.111C108.971 121.111 108.538 121.284 108.209 121.631C107.888 121.969 107.719 122.467 107.702 123.126C107.693 123.256 107.689 123.421 107.689 123.62C107.689 123.819 107.693 123.984 107.702 124.114C107.719 124.773 107.888 125.275 108.209 125.622C108.538 125.96 108.971 126.129 109.509 126.129ZM116.974 129.86C116.384 129.86 115.899 129.782 115.518 129.626C115.145 129.47 114.85 129.279 114.634 129.054C114.426 128.837 114.274 128.616 114.179 128.391C114.092 128.174 114.044 128.001 114.036 127.871C114.027 127.784 114.053 127.711 114.114 127.65C114.183 127.589 114.257 127.559 114.335 127.559H114.959C115.037 127.559 115.102 127.576 115.154 127.611C115.206 127.646 115.249 127.719 115.284 127.832C115.336 127.962 115.414 128.105 115.518 128.261C115.622 128.426 115.782 128.564 115.999 128.677C116.215 128.798 116.519 128.859 116.909 128.859C117.316 128.859 117.658 128.803 117.936 128.69C118.213 128.586 118.421 128.395 118.56 128.118C118.707 127.849 118.781 127.477 118.781 127V126.116C118.573 126.385 118.3 126.61 117.962 126.792C117.624 126.965 117.199 127.052 116.688 127.052C116.202 127.052 115.786 126.97 115.44 126.805C115.093 126.632 114.807 126.402 114.582 126.116C114.365 125.821 114.2 125.488 114.088 125.115C113.984 124.742 113.923 124.352 113.906 123.945C113.897 123.702 113.897 123.464 113.906 123.23C113.923 122.823 113.984 122.433 114.088 122.06C114.2 121.687 114.365 121.354 114.582 121.059C114.807 120.764 115.093 120.535 115.44 120.37C115.786 120.197 116.202 120.11 116.688 120.11C117.208 120.11 117.637 120.21 117.975 120.409C118.321 120.6 118.603 120.834 118.82 121.111V120.552C118.82 120.465 118.846 120.392 118.898 120.331C118.958 120.27 119.032 120.24 119.119 120.24H119.717C119.803 120.24 119.877 120.27 119.938 120.331C119.998 120.392 120.029 120.465 120.029 120.552V126.857C120.029 127.438 119.929 127.953 119.73 128.404C119.539 128.855 119.218 129.21 118.768 129.47C118.326 129.73 117.728 129.86 116.974 129.86ZM116.948 126.012C117.381 126.012 117.728 125.912 117.988 125.713C118.256 125.514 118.451 125.262 118.573 124.959C118.703 124.656 118.772 124.348 118.781 124.036C118.789 123.915 118.794 123.767 118.794 123.594C118.794 123.412 118.789 123.26 118.781 123.139C118.772 122.827 118.703 122.519 118.573 122.216C118.451 121.913 118.256 121.661 117.988 121.462C117.728 121.263 117.381 121.163 116.948 121.163C116.514 121.163 116.168 121.263 115.908 121.462C115.648 121.653 115.461 121.908 115.349 122.229C115.236 122.541 115.171 122.879 115.154 123.243C115.145 123.468 115.145 123.698 115.154 123.932C115.171 124.296 115.236 124.638 115.349 124.959C115.461 125.271 115.648 125.527 115.908 125.726C116.168 125.917 116.514 126.012 116.948 126.012ZM122.261 127C122.174 127 122.1 126.974 122.04 126.922C121.988 126.861 121.962 126.788 121.962 126.701V120.552C121.962 120.465 121.988 120.392 122.04 120.331C122.1 120.27 122.174 120.24 122.261 120.24H122.859C122.945 120.24 123.019 120.27 123.08 120.331C123.14 120.392 123.171 120.465 123.171 120.552V121.124C123.344 120.829 123.582 120.608 123.886 120.461C124.189 120.314 124.553 120.24 124.978 120.24H125.498C125.584 120.24 125.654 120.27 125.706 120.331C125.758 120.383 125.784 120.452 125.784 120.539V121.072C125.784 121.159 125.758 121.228 125.706 121.28C125.654 121.332 125.584 121.358 125.498 121.358H124.718C124.25 121.358 123.881 121.497 123.613 121.774C123.344 122.043 123.21 122.411 123.21 122.879V126.701C123.21 126.788 123.179 126.861 123.119 126.922C123.058 126.974 122.984 127 122.898 127H122.261ZM128.683 127.13C128.25 127.13 127.856 127.043 127.5 126.87C127.145 126.697 126.859 126.463 126.642 126.168C126.426 125.873 126.317 125.54 126.317 125.167C126.317 124.569 126.56 124.092 127.045 123.737C127.531 123.382 128.163 123.148 128.943 123.035L130.88 122.762V122.385C130.88 121.969 130.759 121.644 130.516 121.41C130.282 121.176 129.897 121.059 129.359 121.059C128.969 121.059 128.653 121.137 128.41 121.293C128.176 121.449 128.012 121.648 127.916 121.891C127.864 122.021 127.773 122.086 127.643 122.086H127.058C126.963 122.086 126.889 122.06 126.837 122.008C126.794 121.947 126.772 121.878 126.772 121.8C126.772 121.67 126.82 121.51 126.915 121.319C127.019 121.128 127.175 120.942 127.383 120.76C127.591 120.578 127.856 120.426 128.176 120.305C128.506 120.175 128.904 120.11 129.372 120.11C129.892 120.11 130.33 120.179 130.685 120.318C131.041 120.448 131.318 120.626 131.517 120.851C131.725 121.076 131.873 121.332 131.959 121.618C132.055 121.904 132.102 122.194 132.102 122.489V126.701C132.102 126.788 132.072 126.861 132.011 126.922C131.959 126.974 131.89 127 131.803 127H131.205C131.11 127 131.036 126.974 130.984 126.922C130.932 126.861 130.906 126.788 130.906 126.701V126.142C130.794 126.298 130.642 126.454 130.451 126.61C130.261 126.757 130.022 126.883 129.736 126.987C129.45 127.082 129.099 127.13 128.683 127.13ZM128.956 126.155C129.312 126.155 129.637 126.081 129.931 125.934C130.226 125.778 130.456 125.54 130.62 125.219C130.794 124.898 130.88 124.495 130.88 124.01V123.646L129.372 123.867C128.757 123.954 128.293 124.101 127.981 124.309C127.669 124.508 127.513 124.764 127.513 125.076C127.513 125.319 127.583 125.522 127.721 125.687C127.869 125.843 128.051 125.96 128.267 126.038C128.493 126.116 128.722 126.155 128.956 126.155ZM134.883 127C134.796 127 134.722 126.974 134.662 126.922C134.61 126.861 134.584 126.788 134.584 126.701V121.28H133.479C133.392 121.28 133.318 121.254 133.258 121.202C133.206 121.141 133.18 121.068 133.18 120.981V120.539C133.18 120.452 133.206 120.383 133.258 120.331C133.318 120.27 133.392 120.24 133.479 120.24H134.584V119.59C134.584 119.148 134.657 118.762 134.805 118.433C134.952 118.095 135.186 117.835 135.507 117.653C135.836 117.471 136.274 117.38 136.82 117.38H137.6C137.686 117.38 137.756 117.41 137.808 117.471C137.86 117.523 137.886 117.592 137.886 117.679V118.121C137.886 118.208 137.86 118.281 137.808 118.342C137.756 118.394 137.686 118.42 137.6 118.42H136.846C136.438 118.42 136.161 118.528 136.014 118.745C135.866 118.953 135.793 119.256 135.793 119.655V120.24H137.47C137.556 120.24 137.626 120.27 137.678 120.331C137.73 120.383 137.756 120.452 137.756 120.539V120.981C137.756 121.068 137.73 121.141 137.678 121.202C137.626 121.254 137.556 121.28 137.47 121.28H135.793V126.701C135.793 126.788 135.762 126.861 135.702 126.922C135.65 126.974 135.58 127 135.494 127H134.883ZM139.285 127C139.198 127 139.125 126.974 139.064 126.922C139.012 126.861 138.986 126.788 138.986 126.701V120.539C138.986 120.452 139.012 120.383 139.064 120.331C139.125 120.27 139.198 120.24 139.285 120.24H139.909C139.996 120.24 140.065 120.27 140.117 120.331C140.169 120.383 140.195 120.452 140.195 120.539V126.701C140.195 126.788 140.169 126.861 140.117 126.922C140.065 126.974 139.996 127 139.909 127H139.285ZM139.246 119.265C139.107 119.265 139.038 119.196 139.038 119.057C139.038 118.988 139.06 118.931 139.103 118.888L140.078 117.718C140.156 117.623 140.225 117.562 140.286 117.536C140.347 117.501 140.438 117.484 140.559 117.484H141.443C141.608 117.484 141.69 117.566 141.69 117.731C141.69 117.792 141.668 117.844 141.625 117.887L140.117 119.122C140.048 119.183 139.983 119.222 139.922 119.239C139.861 119.256 139.783 119.265 139.688 119.265H139.246ZM144.019 127.13C143.586 127.13 143.192 127.043 142.836 126.87C142.481 126.697 142.195 126.463 141.978 126.168C141.762 125.873 141.653 125.54 141.653 125.167C141.653 124.569 141.896 124.092 142.381 123.737C142.867 123.382 143.499 123.148 144.279 123.035L146.216 122.762V122.385C146.216 121.969 146.095 121.644 145.852 121.41C145.618 121.176 145.233 121.059 144.695 121.059C144.305 121.059 143.989 121.137 143.746 121.293C143.512 121.449 143.348 121.648 143.252 121.891C143.2 122.021 143.109 122.086 142.979 122.086H142.394C142.299 122.086 142.225 122.06 142.173 122.008C142.13 121.947 142.108 121.878 142.108 121.8C142.108 121.67 142.156 121.51 142.251 121.319C142.355 121.128 142.511 120.942 142.719 120.76C142.927 120.578 143.192 120.426 143.512 120.305C143.842 120.175 144.24 120.11 144.708 120.11C145.228 120.11 145.666 120.179 146.021 120.318C146.377 120.448 146.654 120.626 146.853 120.851C147.061 121.076 147.209 121.332 147.295 121.618C147.391 121.904 147.438 122.194 147.438 122.489V126.701C147.438 126.788 147.408 126.861 147.347 126.922C147.295 126.974 147.226 127 147.139 127H146.541C146.446 127 146.372 126.974 146.32 126.922C146.268 126.861 146.242 126.788 146.242 126.701V126.142C146.13 126.298 145.978 126.454 145.787 126.61C145.597 126.757 145.358 126.883 145.072 126.987C144.786 127.082 144.435 127.13 144.019 127.13ZM144.292 126.155C144.648 126.155 144.973 126.081 145.267 125.934C145.562 125.778 145.792 125.54 145.956 125.219C146.13 124.898 146.216 124.495 146.216 124.01V123.646L144.708 123.867C144.093 123.954 143.629 124.101 143.317 124.309C143.005 124.508 142.849 124.764 142.849 125.076C142.849 125.319 142.919 125.522 143.057 125.687C143.205 125.843 143.387 125.96 143.603 126.038C143.829 126.116 144.058 126.155 144.292 126.155Z" fill="#EBECEE"/>
<rect x="100.5" y="134" width="37" height="25" rx="12.5" fill="#1DA534"/>
<path d="M113.342 151.14C112.67 151.14 112.086 151.047 111.592 150.86C111.097 150.664 110.686 150.398 110.36 150.062C110.042 149.726 109.8 149.334 109.632 148.886C109.464 148.438 109.366 147.957 109.338 147.444C109.328 147.192 109.319 146.907 109.31 146.59C109.31 146.263 109.31 145.937 109.31 145.61C109.319 145.274 109.328 144.975 109.338 144.714C109.366 144.201 109.464 143.725 109.632 143.286C109.809 142.838 110.061 142.451 110.388 142.124C110.724 141.788 111.134 141.527 111.62 141.34C112.114 141.153 112.688 141.06 113.342 141.06C114.004 141.06 114.578 141.153 115.064 141.34C115.549 141.527 115.955 141.788 116.282 142.124C116.618 142.451 116.874 142.838 117.052 143.286C117.229 143.725 117.327 144.201 117.346 144.714C117.364 144.975 117.374 145.274 117.374 145.61C117.383 145.937 117.383 146.263 117.374 146.59C117.374 146.907 117.364 147.192 117.346 147.444C117.327 147.957 117.229 148.438 117.052 148.886C116.884 149.334 116.636 149.726 116.31 150.062C115.992 150.398 115.586 150.664 115.092 150.86C114.606 151.047 114.023 151.14 113.342 151.14ZM113.342 149.11C113.827 149.11 114.177 148.956 114.392 148.648C114.616 148.331 114.732 147.906 114.742 147.374C114.76 147.103 114.77 146.819 114.77 146.52C114.779 146.221 114.779 145.923 114.77 145.624C114.77 145.325 114.76 145.05 114.742 144.798C114.732 144.285 114.616 143.869 114.392 143.552C114.177 143.235 113.827 143.071 113.342 143.062C112.856 143.071 112.506 143.235 112.292 143.552C112.077 143.869 111.96 144.285 111.942 144.798C111.932 145.05 111.923 145.325 111.914 145.624C111.914 145.923 111.914 146.221 111.914 146.52C111.923 146.819 111.932 147.103 111.942 147.374C111.96 147.906 112.082 148.331 112.306 148.648C112.53 148.956 112.875 149.11 113.342 149.11ZM119.679 151C119.465 151 119.357 150.907 119.357 150.72C119.357 150.664 119.376 150.613 119.413 150.566L126.329 141.466C126.395 141.382 126.46 141.317 126.525 141.27C126.591 141.223 126.689 141.2 126.819 141.2H127.813C128.028 141.2 128.135 141.293 128.135 141.48C128.135 141.536 128.117 141.587 128.079 141.634L121.163 150.734C121.098 150.818 121.033 150.883 120.967 150.93C120.902 150.977 120.804 151 120.673 151H119.679ZM126.721 151.07C126.087 151.07 125.578 150.902 125.195 150.566C124.822 150.23 124.612 149.782 124.565 149.222C124.556 148.979 124.551 148.765 124.551 148.578C124.551 148.391 124.556 148.167 124.565 147.906C124.603 147.337 124.803 146.884 125.167 146.548C125.541 146.203 126.059 146.03 126.721 146.03C127.393 146.03 127.911 146.203 128.275 146.548C128.639 146.884 128.84 147.337 128.877 147.906C128.896 148.167 128.905 148.391 128.905 148.578C128.905 148.765 128.896 148.979 128.877 149.222C128.84 149.782 128.63 150.23 128.247 150.566C127.865 150.902 127.356 151.07 126.721 151.07ZM126.721 149.838C126.88 149.838 127.001 149.805 127.085 149.74C127.179 149.675 127.249 149.591 127.295 149.488C127.342 149.376 127.365 149.259 127.365 149.138C127.384 148.923 127.393 148.727 127.393 148.55C127.393 148.373 127.384 148.181 127.365 147.976C127.356 147.799 127.305 147.64 127.211 147.5C127.118 147.351 126.955 147.276 126.721 147.276C126.488 147.276 126.325 147.351 126.231 147.5C126.138 147.64 126.087 147.799 126.077 147.976C126.068 148.181 126.063 148.373 126.063 148.55C126.063 148.727 126.068 148.923 126.077 149.138C126.087 149.259 126.11 149.376 126.147 149.488C126.194 149.591 126.264 149.675 126.357 149.74C126.451 149.805 126.572 149.838 126.721 149.838ZM120.799 146.142C120.155 146.142 119.642 145.979 119.259 145.652C118.886 145.316 118.681 144.868 118.643 144.308C118.625 144.065 118.615 143.855 118.615 143.678C118.625 143.491 118.634 143.267 118.643 143.006C118.671 142.437 118.867 141.984 119.231 141.648C119.605 141.303 120.127 141.13 120.799 141.13C121.471 141.13 121.989 141.303 122.353 141.648C122.717 141.984 122.913 142.437 122.941 143.006C122.96 143.267 122.969 143.491 122.969 143.678C122.969 143.855 122.96 144.065 122.941 144.308C122.913 144.868 122.708 145.316 122.325 145.652C121.943 145.979 121.434 146.142 120.799 146.142ZM120.799 144.938C120.949 144.938 121.07 144.905 121.163 144.84C121.257 144.765 121.327 144.677 121.373 144.574C121.42 144.462 121.443 144.35 121.443 144.238C121.462 144.023 121.471 143.827 121.471 143.65C121.471 143.473 121.462 143.281 121.443 143.076C121.434 142.899 121.378 142.74 121.275 142.6C121.182 142.451 121.023 142.376 120.799 142.376C120.566 142.376 120.398 142.451 120.295 142.6C120.202 142.74 120.151 142.899 120.141 143.076C120.132 143.281 120.127 143.473 120.127 143.65C120.127 143.827 120.132 144.023 120.141 144.238C120.151 144.35 120.174 144.462 120.211 144.574C120.258 144.677 120.328 144.765 120.421 144.84C120.515 144.905 120.641 144.938 120.799 144.938Z" fill="#EBECEE"/>
<g filter="url(#filter1_d_15958_23150)">
<rect x="148" y="74" width="32" height="32" rx="16" fill="white"/>
<rect x="147" y="73" width="34" height="34" rx="17" stroke="#1DA534" stroke-width="2"/>
<path opacity="0.4" d="M164 100C169.523 100 174 95.5228 174 90C174 84.4772 169.523 80 164 80C158.477 80 154 84.4772 154 90C154 95.5228 158.477 100 164 100Z" fill="#1DA534"/>
<path d="M162.579 93.5801C162.379 93.5801 162.189 93.5001 162.049 93.3601L159.219 90.5301C158.929 90.2401 158.929 89.7601 159.219 89.4701C159.509 89.1801 159.989 89.1801 160.279 89.4701L162.579 91.7701L167.719 86.6301C168.009 86.3401 168.489 86.3401 168.779 86.6301C169.069 86.9201 169.069 87.4001 168.779 87.6901L163.109 93.3601C162.969 93.5001 162.779 93.5801 162.579 93.5801Z" fill="#1DA534"/>
</g>
</g>
<defs>
<filter id="filter0_d_15958_23150" x="0" y="0" width="242" height="238" filterUnits="userSpaceOnUse" color-interpolation-filters="sRGB">
<feFlood flood-opacity="0" result="BackgroundImageFix"/>
<feColorMatrix in="SourceAlpha" type="matrix" values="0 0 0 0 0 0 0 0 0 0 0 0 0 0 0 0 0 0 127 0" result="hardAlpha"/>
<feOffset/>
<feGaussianBlur stdDeviation="30"/>
<feComposite in2="hardAlpha" operator="out"/>
<feColorMatrix type="matrix" values="0 0 0 0 0.113725 0 0 0 0 0.647059 0 0 0 0 0.211765 0 0 0 1 0"/>
<feBlend mode="normal" in2="BackgroundImageFix" result="effect1_dropShadow_15958_23150"/>
<feBlend mode="normal" in="SourceGraphic" in2="effect1_dropShadow_15958_23150" result="shape"/>
</filter>
<filter id="filter1_d_15958_23150" x="131" y="65" width="66" height="66" filterUnits="userSpaceOnUse" color-interpolation-filters="sRGB">
<feFlood flood-opacity="0" result="BackgroundImageFix"/>
<feColorMatrix in="SourceAlpha" type="matrix" values="0 0 0 0 0 0 0 0 0 0 0 0 0 0 0 0 0 0 127 0" result="hardAlpha"/>
<feOffset dy="8"/>
<feGaussianBlur stdDeviation="7.5"/>
<feColorMatrix type="matrix" values="0 0 0 0 0 0 0 0 0 0 0 0 0 0 0 0 0 0 0.25 0"/>
<feBlend mode="normal" in2="BackgroundImageFix" result="effect1_dropShadow_15958_23150"/>
<feBlend mode="normal" in="SourceGraphic" in2="effect1_dropShadow_15958_23150" result="shape"/>
</filter>
<clipPath id="clip0_15958_23150">
<rect width="32" height="32" fill="white" transform="translate(103 79)"/>
</clipPath>
</defs>
</svg>
