<svg width="242" height="238" viewBox="0 0 242 238" fill="none" xmlns="http://www.w3.org/2000/svg">
<g filter="url(#filter0_d_15958_23144)">
<rect x="64" y="64" width="110" height="110" rx="55" fill="#EAA7FC" fill-opacity="0.15" shape-rendering="crispEdges"/>
<rect x="62" y="62" width="114" height="114" rx="57" stroke="#D598E5" stroke-width="4" shape-rendering="crispEdges"/>
<path opacity="0.4" d="M124.586 74.1665H113.413C108.559 74.1665 105.666 77.0598 105.666 81.9132V93.0865C105.666 97.9398 108.559 100.833 113.413 100.833H124.586C129.439 100.833 132.333 97.9398 132.333 93.0865V81.9132C132.333 77.0598 129.439 74.1665 124.586 74.1665Z" fill="#D598E5"/>
<path d="M127.414 83.3267C127.414 83.8733 126.974 84.3267 126.414 84.3267H119.414C118.867 84.3267 118.414 83.8733 118.414 83.3267C118.414 82.78 118.867 82.3267 119.414 82.3267H126.414C126.974 82.3267 127.414 82.78 127.414 83.3267Z" fill="#D598E5"/>
<path d="M116.293 82.0334L113.293 85.0334C113.093 85.2334 112.84 85.3267 112.587 85.3267C112.333 85.3267 112.067 85.2334 111.88 85.0334L110.88 84.0334C110.48 83.6467 110.48 83.0067 110.88 82.6201C111.267 82.2334 111.893 82.2334 112.293 82.6201L112.587 82.9134L114.88 80.6201C115.267 80.2334 115.893 80.2334 116.293 80.6201C116.68 81.0067 116.68 81.6467 116.293 82.0334Z" fill="#D598E5"/>
<path d="M127.414 92.6602C127.414 93.2068 126.974 93.6602 126.414 93.6602H119.414C118.867 93.6602 118.414 93.2068 118.414 92.6602C118.414 92.1135 118.867 91.6602 119.414 91.6602H126.414C126.974 91.6602 127.414 92.1135 127.414 92.6602Z" fill="#D598E5"/>
<path d="M116.293 91.3669L113.293 94.3669C113.093 94.5669 112.84 94.6602 112.587 94.6602C112.333 94.6602 112.067 94.5669 111.88 94.3669L110.88 93.3669C110.48 92.9802 110.48 92.3402 110.88 91.9536C111.267 91.5669 111.893 91.5669 112.293 91.9536L112.587 92.2469L114.88 89.9536C115.267 89.5669 115.893 89.5669 116.293 89.9536C116.68 90.3402 116.68 90.9802 116.293 91.3669Z" fill="#D598E5"/>
<path d="M83.0337 119.5C82.9643 119.5 82.9037 119.474 82.8517 119.422C82.7997 119.37 82.7737 119.309 82.7737 119.24C82.7737 119.197 82.778 119.149 82.7867 119.097L86.0107 110.686C86.0453 110.599 86.093 110.53 86.1537 110.478C86.2143 110.426 86.3053 110.4 86.4267 110.4H87.3107C87.4233 110.4 87.51 110.426 87.5707 110.478C87.64 110.53 87.692 110.599 87.7267 110.686L90.9377 119.097C90.955 119.149 90.9637 119.197 90.9637 119.24C90.9637 119.309 90.9377 119.37 90.8857 119.422C90.8337 119.474 90.773 119.5 90.7037 119.5H90.0407C89.9367 119.5 89.8587 119.474 89.8067 119.422C89.7633 119.37 89.733 119.322 89.7157 119.279L89.0007 117.433H84.7367L84.0217 119.279C84.013 119.322 83.9827 119.37 83.9307 119.422C83.8787 119.474 83.8007 119.5 83.6967 119.5H83.0337ZM85.1137 116.315H88.6237L86.8687 111.7L85.1137 116.315ZM94.5785 119.63C94.1018 119.63 93.6902 119.548 93.3435 119.383C92.9968 119.21 92.7108 118.98 92.4855 118.694C92.2688 118.399 92.1042 118.066 91.9915 117.693C91.8875 117.32 91.8268 116.926 91.8095 116.51C91.8008 116.371 91.7965 116.241 91.7965 116.12C91.7965 115.999 91.8008 115.869 91.8095 115.73C91.8268 115.323 91.8875 114.933 91.9915 114.56C92.1042 114.187 92.2688 113.854 92.4855 113.559C92.7108 113.264 92.9968 113.035 93.3435 112.87C93.6902 112.697 94.1018 112.61 94.5785 112.61C95.0898 112.61 95.5145 112.701 95.8525 112.883C96.1905 113.065 96.4678 113.29 96.6845 113.559V110.569C96.6845 110.482 96.7105 110.413 96.7625 110.361C96.8232 110.3 96.8968 110.27 96.9835 110.27H97.6075C97.6942 110.27 97.7635 110.3 97.8155 110.361C97.8762 110.413 97.9065 110.482 97.9065 110.569V119.201C97.9065 119.288 97.8762 119.361 97.8155 119.422C97.7635 119.474 97.6942 119.5 97.6075 119.5H97.0225C96.9272 119.5 96.8535 119.474 96.8015 119.422C96.7495 119.361 96.7235 119.288 96.7235 119.201V118.655C96.5068 118.932 96.2252 119.166 95.8785 119.357C95.5318 119.539 95.0985 119.63 94.5785 119.63ZM94.8515 118.577C95.2848 118.577 95.6315 118.477 95.8915 118.278C96.1515 118.079 96.3465 117.827 96.4765 117.524C96.6065 117.212 96.6758 116.896 96.6845 116.575C96.6932 116.436 96.6975 116.272 96.6975 116.081C96.6975 115.882 96.6932 115.713 96.6845 115.574C96.6758 115.271 96.6022 114.972 96.4635 114.677C96.3335 114.382 96.1342 114.14 95.8655 113.949C95.6055 113.758 95.2675 113.663 94.8515 113.663C94.4095 113.663 94.0585 113.763 93.7985 113.962C93.5385 114.153 93.3522 114.408 93.2395 114.729C93.1268 115.041 93.0618 115.379 93.0445 115.743C93.0358 115.994 93.0358 116.246 93.0445 116.497C93.0618 116.861 93.1268 117.203 93.2395 117.524C93.3522 117.836 93.5385 118.092 93.7985 118.291C94.0585 118.482 94.4095 118.577 94.8515 118.577ZM100.139 119.5C100.052 119.5 99.9786 119.474 99.9179 119.422C99.8659 119.361 99.8399 119.288 99.8399 119.201V113.039C99.8399 112.952 99.8659 112.883 99.9179 112.831C99.9786 112.77 100.052 112.74 100.139 112.74H100.724C100.811 112.74 100.88 112.77 100.932 112.831C100.993 112.883 101.023 112.952 101.023 113.039V113.494C101.222 113.225 101.474 113.013 101.777 112.857C102.08 112.692 102.444 112.61 102.869 112.61C103.848 112.601 104.542 113 104.949 113.806C105.148 113.442 105.439 113.152 105.82 112.935C106.201 112.718 106.635 112.61 107.12 112.61C107.571 112.61 107.978 112.714 108.342 112.922C108.715 113.13 109.005 113.446 109.213 113.871C109.43 114.287 109.538 114.811 109.538 115.444V119.201C109.538 119.288 109.508 119.361 109.447 119.422C109.395 119.474 109.326 119.5 109.239 119.5H108.628C108.541 119.5 108.468 119.474 108.407 119.422C108.355 119.361 108.329 119.288 108.329 119.201V115.561C108.329 115.076 108.26 114.694 108.121 114.417C107.982 114.14 107.796 113.945 107.562 113.832C107.328 113.719 107.072 113.663 106.795 113.663C106.57 113.663 106.34 113.719 106.106 113.832C105.872 113.945 105.677 114.14 105.521 114.417C105.374 114.694 105.3 115.076 105.3 115.561V119.201C105.3 119.288 105.27 119.361 105.209 119.422C105.157 119.474 105.088 119.5 105.001 119.5H104.39C104.303 119.5 104.23 119.474 104.169 119.422C104.117 119.361 104.091 119.288 104.091 119.201V115.561C104.091 115.076 104.017 114.694 103.87 114.417C103.723 114.14 103.532 113.945 103.298 113.832C103.064 113.719 102.817 113.663 102.557 113.663C102.332 113.663 102.102 113.719 101.868 113.832C101.634 113.945 101.439 114.14 101.283 114.417C101.136 114.694 101.062 115.071 101.062 115.548V119.201C101.062 119.288 101.032 119.361 100.971 119.422C100.919 119.474 100.85 119.5 100.763 119.5H100.139ZM111.692 119.5C111.605 119.5 111.531 119.474 111.471 119.422C111.419 119.361 111.393 119.288 111.393 119.201V113.039C111.393 112.952 111.419 112.883 111.471 112.831C111.531 112.77 111.605 112.74 111.692 112.74H112.316C112.402 112.74 112.472 112.77 112.524 112.831C112.576 112.883 112.602 112.952 112.602 113.039V119.201C112.602 119.288 112.576 119.361 112.524 119.422C112.472 119.474 112.402 119.5 112.316 119.5H111.692ZM111.588 111.479C111.501 111.479 111.427 111.453 111.367 111.401C111.315 111.34 111.289 111.267 111.289 111.18V110.478C111.289 110.391 111.315 110.322 111.367 110.27C111.427 110.209 111.501 110.179 111.588 110.179H112.407C112.493 110.179 112.563 110.209 112.615 110.27C112.675 110.322 112.706 110.391 112.706 110.478V111.18C112.706 111.267 112.675 111.34 112.615 111.401C112.563 111.453 112.493 111.479 112.407 111.479H111.588ZM114.84 119.5C114.753 119.5 114.68 119.474 114.619 119.422C114.567 119.361 114.541 119.288 114.541 119.201V113.039C114.541 112.952 114.567 112.883 114.619 112.831C114.68 112.77 114.753 112.74 114.84 112.74H115.451C115.538 112.74 115.607 112.77 115.659 112.831C115.72 112.883 115.75 112.952 115.75 113.039V113.611C115.975 113.316 116.257 113.078 116.595 112.896C116.942 112.705 117.384 112.61 117.921 112.61C118.484 112.61 118.961 112.736 119.351 112.987C119.75 113.23 120.049 113.572 120.248 114.014C120.447 114.447 120.547 114.954 120.547 115.535V119.201C120.547 119.288 120.521 119.361 120.469 119.422C120.417 119.474 120.348 119.5 120.261 119.5H119.611C119.524 119.5 119.451 119.474 119.39 119.422C119.338 119.361 119.312 119.288 119.312 119.201V115.6C119.312 114.993 119.165 114.521 118.87 114.183C118.575 113.836 118.142 113.663 117.57 113.663C117.033 113.663 116.599 113.836 116.27 114.183C115.949 114.521 115.789 114.993 115.789 115.6V119.201C115.789 119.288 115.759 119.361 115.698 119.422C115.646 119.474 115.577 119.5 115.49 119.5H114.84ZM122.724 119.5C122.637 119.5 122.564 119.474 122.503 119.422C122.451 119.361 122.425 119.288 122.425 119.201V113.039C122.425 112.952 122.451 112.883 122.503 112.831C122.564 112.77 122.637 112.74 122.724 112.74H123.348C123.435 112.74 123.504 112.77 123.556 112.831C123.608 112.883 123.634 112.952 123.634 113.039V119.201C123.634 119.288 123.608 119.361 123.556 119.422C123.504 119.474 123.435 119.5 123.348 119.5H122.724ZM122.62 111.479C122.533 111.479 122.46 111.453 122.399 111.401C122.347 111.34 122.321 111.267 122.321 111.18V110.478C122.321 110.391 122.347 110.322 122.399 110.27C122.46 110.209 122.533 110.179 122.62 110.179H123.439C123.526 110.179 123.595 110.209 123.647 110.27C123.708 110.322 123.738 110.391 123.738 110.478V111.18C123.738 111.267 123.708 111.34 123.647 111.401C123.595 111.453 123.526 111.479 123.439 111.479H122.62ZM127.913 119.63C127.428 119.63 127.012 119.569 126.665 119.448C126.319 119.327 126.037 119.179 125.82 119.006C125.604 118.833 125.439 118.659 125.326 118.486C125.222 118.313 125.166 118.174 125.157 118.07C125.149 117.975 125.179 117.901 125.248 117.849C125.318 117.797 125.387 117.771 125.456 117.771H126.028C126.08 117.771 126.119 117.78 126.145 117.797C126.18 117.806 126.223 117.84 126.275 117.901C126.388 118.022 126.514 118.144 126.652 118.265C126.791 118.386 126.96 118.486 127.159 118.564C127.367 118.642 127.623 118.681 127.926 118.681C128.368 118.681 128.732 118.599 129.018 118.434C129.304 118.261 129.447 118.009 129.447 117.68C129.447 117.463 129.387 117.29 129.265 117.16C129.153 117.03 128.945 116.913 128.641 116.809C128.347 116.705 127.939 116.597 127.419 116.484C126.899 116.363 126.488 116.215 126.184 116.042C125.881 115.86 125.664 115.648 125.534 115.405C125.404 115.154 125.339 114.872 125.339 114.56C125.339 114.239 125.435 113.932 125.625 113.637C125.816 113.334 126.093 113.087 126.457 112.896C126.83 112.705 127.294 112.61 127.848 112.61C128.299 112.61 128.685 112.666 129.005 112.779C129.326 112.892 129.59 113.035 129.798 113.208C130.006 113.373 130.162 113.537 130.266 113.702C130.37 113.867 130.427 114.005 130.435 114.118C130.444 114.205 130.418 114.278 130.357 114.339C130.297 114.391 130.227 114.417 130.149 114.417H129.603C129.543 114.417 129.491 114.404 129.447 114.378C129.413 114.352 129.378 114.322 129.343 114.287C129.257 114.174 129.153 114.062 129.031 113.949C128.919 113.836 128.767 113.745 128.576 113.676C128.394 113.598 128.152 113.559 127.848 113.559C127.415 113.559 127.09 113.65 126.873 113.832C126.657 114.014 126.548 114.244 126.548 114.521C126.548 114.686 126.596 114.833 126.691 114.963C126.787 115.093 126.969 115.21 127.237 115.314C127.506 115.418 127.905 115.531 128.433 115.652C129.005 115.765 129.456 115.916 129.785 116.107C130.115 116.298 130.349 116.519 130.487 116.77C130.626 117.021 130.695 117.312 130.695 117.641C130.695 118.005 130.587 118.339 130.37 118.642C130.162 118.945 129.85 119.188 129.434 119.37C129.027 119.543 128.52 119.63 127.913 119.63ZM134.827 119.5C134.341 119.5 133.947 119.409 133.644 119.227C133.34 119.036 133.119 118.772 132.981 118.434C132.842 118.087 132.773 117.68 132.773 117.212V113.78H131.759C131.672 113.78 131.598 113.754 131.538 113.702C131.486 113.641 131.46 113.568 131.46 113.481V113.039C131.46 112.952 131.486 112.883 131.538 112.831C131.598 112.77 131.672 112.74 131.759 112.74H132.773V110.569C132.773 110.482 132.799 110.413 132.851 110.361C132.911 110.3 132.985 110.27 133.072 110.27H133.683C133.769 110.27 133.839 110.3 133.891 110.361C133.951 110.413 133.982 110.482 133.982 110.569V112.74H135.594C135.68 112.74 135.75 112.77 135.802 112.831C135.862 112.883 135.893 112.952 135.893 113.039V113.481C135.893 113.568 135.862 113.641 135.802 113.702C135.75 113.754 135.68 113.78 135.594 113.78H133.982V117.121C133.982 117.528 134.051 117.849 134.19 118.083C134.328 118.317 134.575 118.434 134.931 118.434H135.724C135.81 118.434 135.88 118.464 135.932 118.525C135.992 118.577 136.023 118.646 136.023 118.733V119.201C136.023 119.288 135.992 119.361 135.932 119.422C135.88 119.474 135.81 119.5 135.724 119.5H134.827ZM137.565 119.5C137.478 119.5 137.404 119.474 137.344 119.422C137.292 119.361 137.266 119.288 137.266 119.201V113.052C137.266 112.965 137.292 112.892 137.344 112.831C137.404 112.77 137.478 112.74 137.565 112.74H138.163C138.249 112.74 138.323 112.77 138.384 112.831C138.444 112.892 138.475 112.965 138.475 113.052V113.624C138.648 113.329 138.886 113.108 139.19 112.961C139.493 112.814 139.857 112.74 140.282 112.74H140.802C140.888 112.74 140.958 112.77 141.01 112.831C141.062 112.883 141.088 112.952 141.088 113.039V113.572C141.088 113.659 141.062 113.728 141.01 113.78C140.958 113.832 140.888 113.858 140.802 113.858H140.022C139.554 113.858 139.185 113.997 138.917 114.274C138.648 114.543 138.514 114.911 138.514 115.379V119.201C138.514 119.288 138.483 119.361 138.423 119.422C138.362 119.474 138.288 119.5 138.202 119.5H137.565ZM143.988 119.63C143.554 119.63 143.16 119.543 142.805 119.37C142.449 119.197 142.163 118.963 141.947 118.668C141.73 118.373 141.622 118.04 141.622 117.667C141.622 117.069 141.864 116.592 142.35 116.237C142.835 115.882 143.468 115.648 144.248 115.535L146.185 115.262V114.885C146.185 114.469 146.063 114.144 145.821 113.91C145.587 113.676 145.201 113.559 144.664 113.559C144.274 113.559 143.957 113.637 143.715 113.793C143.481 113.949 143.316 114.148 143.221 114.391C143.169 114.521 143.078 114.586 142.948 114.586H142.363C142.267 114.586 142.194 114.56 142.142 114.508C142.098 114.447 142.077 114.378 142.077 114.3C142.077 114.17 142.124 114.01 142.22 113.819C142.324 113.628 142.48 113.442 142.688 113.26C142.896 113.078 143.16 112.926 143.481 112.805C143.81 112.675 144.209 112.61 144.677 112.61C145.197 112.61 145.634 112.679 145.99 112.818C146.345 112.948 146.622 113.126 146.822 113.351C147.03 113.576 147.177 113.832 147.264 114.118C147.359 114.404 147.407 114.694 147.407 114.989V119.201C147.407 119.288 147.376 119.361 147.316 119.422C147.264 119.474 147.194 119.5 147.108 119.5H146.51C146.414 119.5 146.341 119.474 146.289 119.422C146.237 119.361 146.211 119.288 146.211 119.201V118.642C146.098 118.798 145.946 118.954 145.756 119.11C145.565 119.257 145.327 119.383 145.041 119.487C144.755 119.582 144.404 119.63 143.988 119.63ZM144.261 118.655C144.616 118.655 144.941 118.581 145.236 118.434C145.53 118.278 145.76 118.04 145.925 117.719C146.098 117.398 146.185 116.995 146.185 116.51V116.146L144.677 116.367C144.061 116.454 143.598 116.601 143.286 116.809C142.974 117.008 142.818 117.264 142.818 117.576C142.818 117.819 142.887 118.022 143.026 118.187C143.173 118.343 143.355 118.46 143.572 118.538C143.797 118.616 144.027 118.655 144.261 118.655ZM152.005 119.63C151.39 119.63 150.857 119.513 150.406 119.279C149.964 119.036 149.622 118.694 149.379 118.252C149.137 117.801 149.007 117.264 148.989 116.64C148.981 116.51 148.976 116.337 148.976 116.12C148.976 115.903 148.981 115.73 148.989 115.6C149.007 114.976 149.137 114.443 149.379 114.001C149.622 113.55 149.964 113.208 150.406 112.974C150.857 112.731 151.39 112.61 152.005 112.61C152.508 112.61 152.937 112.679 153.292 112.818C153.656 112.957 153.955 113.134 154.189 113.351C154.423 113.568 154.597 113.802 154.709 114.053C154.831 114.304 154.896 114.543 154.904 114.768C154.913 114.855 154.887 114.924 154.826 114.976C154.766 115.028 154.692 115.054 154.605 115.054H153.981C153.895 115.054 153.83 115.037 153.786 115.002C153.743 114.959 153.7 114.889 153.656 114.794C153.5 114.369 153.288 114.07 153.019 113.897C152.751 113.724 152.417 113.637 152.018 113.637C151.498 113.637 151.074 113.797 150.744 114.118C150.424 114.439 150.25 114.954 150.224 115.665C150.216 115.977 150.216 116.28 150.224 116.575C150.25 117.294 150.424 117.814 150.744 118.135C151.074 118.447 151.498 118.603 152.018 118.603C152.417 118.603 152.751 118.516 153.019 118.343C153.288 118.17 153.5 117.871 153.656 117.446C153.7 117.351 153.743 117.286 153.786 117.251C153.83 117.208 153.895 117.186 153.981 117.186H154.605C154.692 117.186 154.766 117.212 154.826 117.264C154.887 117.316 154.913 117.385 154.904 117.472C154.896 117.654 154.857 117.84 154.787 118.031C154.718 118.222 154.605 118.417 154.449 118.616C154.302 118.807 154.116 118.98 153.89 119.136C153.665 119.283 153.392 119.405 153.071 119.5C152.759 119.587 152.404 119.63 152.005 119.63ZM111.012 134.5C110.926 134.5 110.852 134.474 110.791 134.422C110.739 134.361 110.713 134.288 110.713 134.201V128.039C110.713 127.952 110.739 127.883 110.791 127.831C110.852 127.77 110.926 127.74 111.012 127.74H111.636C111.723 127.74 111.792 127.77 111.844 127.831C111.896 127.883 111.922 127.952 111.922 128.039V134.201C111.922 134.288 111.896 134.361 111.844 134.422C111.792 134.474 111.723 134.5 111.636 134.5H111.012ZM110.908 126.479C110.822 126.479 110.748 126.453 110.687 126.401C110.635 126.34 110.609 126.267 110.609 126.18V125.478C110.609 125.391 110.635 125.322 110.687 125.27C110.748 125.209 110.822 125.179 110.908 125.179H111.727C111.814 125.179 111.883 125.209 111.935 125.27C111.996 125.322 112.026 125.391 112.026 125.478V126.18C112.026 126.267 111.996 126.34 111.935 126.401C111.883 126.453 111.814 126.479 111.727 126.479H110.908ZM116.631 134.63C115.972 134.63 115.422 134.504 114.98 134.253C114.538 134.002 114.2 133.655 113.966 133.213C113.732 132.762 113.602 132.251 113.576 131.679C113.567 131.532 113.563 131.345 113.563 131.12C113.563 130.886 113.567 130.7 113.576 130.561C113.602 129.98 113.732 129.469 113.966 129.027C114.209 128.585 114.551 128.238 114.993 127.987C115.435 127.736 115.981 127.61 116.631 127.61C117.281 127.61 117.827 127.736 118.269 127.987C118.711 128.238 119.049 128.585 119.283 129.027C119.526 129.469 119.66 129.98 119.686 130.561C119.695 130.7 119.699 130.886 119.699 131.12C119.699 131.345 119.695 131.532 119.686 131.679C119.66 132.251 119.53 132.762 119.296 133.213C119.062 133.655 118.724 134.002 118.282 134.253C117.84 134.504 117.29 134.63 116.631 134.63ZM116.631 133.629C117.168 133.629 117.597 133.46 117.918 133.122C118.239 132.775 118.412 132.273 118.438 131.614C118.447 131.484 118.451 131.319 118.451 131.12C118.451 130.921 118.447 130.756 118.438 130.626C118.412 129.967 118.239 129.469 117.918 129.131C117.597 128.784 117.168 128.611 116.631 128.611C116.094 128.611 115.66 128.784 115.331 129.131C115.01 129.469 114.841 129.967 114.824 130.626C114.815 130.756 114.811 130.921 114.811 131.12C114.811 131.319 114.815 131.484 114.824 131.614C114.841 132.273 115.01 132.775 115.331 133.122C115.66 133.46 116.094 133.629 116.631 133.629ZM116.267 126.765C116.128 126.765 116.059 126.696 116.059 126.557C116.059 126.488 116.081 126.431 116.124 126.388L117.099 125.218C117.177 125.123 117.246 125.062 117.307 125.036C117.368 125.001 117.459 124.984 117.58 124.984H118.464C118.629 124.984 118.711 125.066 118.711 125.231C118.711 125.292 118.689 125.344 118.646 125.387L117.138 126.622C117.069 126.683 117.004 126.722 116.943 126.739C116.882 126.756 116.804 126.765 116.709 126.765H116.267ZM121.626 134.5C121.539 134.5 121.465 134.474 121.405 134.422C121.353 134.361 121.327 134.288 121.327 134.201V128.039C121.327 127.952 121.353 127.883 121.405 127.831C121.465 127.77 121.539 127.74 121.626 127.74H122.237C122.323 127.74 122.393 127.77 122.445 127.831C122.505 127.883 122.536 127.952 122.536 128.039V128.611C122.761 128.316 123.043 128.078 123.381 127.896C123.727 127.705 124.169 127.61 124.707 127.61C125.27 127.61 125.747 127.736 126.137 127.987C126.535 128.23 126.834 128.572 127.034 129.014C127.233 129.447 127.333 129.954 127.333 130.535V134.201C127.333 134.288 127.307 134.361 127.255 134.422C127.203 134.474 127.133 134.5 127.047 134.5H126.397C126.31 134.5 126.236 134.474 126.176 134.422C126.124 134.361 126.098 134.288 126.098 134.201V130.6C126.098 129.993 125.95 129.521 125.656 129.183C125.361 128.836 124.928 128.663 124.356 128.663C123.818 128.663 123.385 128.836 123.056 129.183C122.735 129.521 122.575 129.993 122.575 130.6V134.201C122.575 134.288 122.544 134.361 122.484 134.422C122.432 134.474 122.362 134.5 122.276 134.5H121.626Z" fill="#EBECEE"/>
<rect x="100.5" y="141.5" width="37" height="25" rx="12.5" fill="#D598E5"/>
<path d="M113.342 158.64C112.67 158.64 112.086 158.547 111.592 158.36C111.097 158.164 110.686 157.898 110.36 157.562C110.042 157.226 109.8 156.834 109.632 156.386C109.464 155.938 109.366 155.457 109.338 154.944C109.328 154.692 109.319 154.407 109.31 154.09C109.31 153.763 109.31 153.437 109.31 153.11C109.319 152.774 109.328 152.475 109.338 152.214C109.366 151.701 109.464 151.225 109.632 150.786C109.809 150.338 110.061 149.951 110.388 149.624C110.724 149.288 111.134 149.027 111.62 148.84C112.114 148.653 112.688 148.56 113.342 148.56C114.004 148.56 114.578 148.653 115.064 148.84C115.549 149.027 115.955 149.288 116.282 149.624C116.618 149.951 116.874 150.338 117.052 150.786C117.229 151.225 117.327 151.701 117.346 152.214C117.364 152.475 117.374 152.774 117.374 153.11C117.383 153.437 117.383 153.763 117.374 154.09C117.374 154.407 117.364 154.692 117.346 154.944C117.327 155.457 117.229 155.938 117.052 156.386C116.884 156.834 116.636 157.226 116.31 157.562C115.992 157.898 115.586 158.164 115.092 158.36C114.606 158.547 114.023 158.64 113.342 158.64ZM113.342 156.61C113.827 156.61 114.177 156.456 114.392 156.148C114.616 155.831 114.732 155.406 114.742 154.874C114.76 154.603 114.77 154.319 114.77 154.02C114.779 153.721 114.779 153.423 114.77 153.124C114.77 152.825 114.76 152.55 114.742 152.298C114.732 151.785 114.616 151.369 114.392 151.052C114.177 150.735 113.827 150.571 113.342 150.562C112.856 150.571 112.506 150.735 112.292 151.052C112.077 151.369 111.96 151.785 111.942 152.298C111.932 152.55 111.923 152.825 111.914 153.124C111.914 153.423 111.914 153.721 111.914 154.02C111.923 154.319 111.932 154.603 111.942 154.874C111.96 155.406 112.082 155.831 112.306 156.148C112.53 156.456 112.875 156.61 113.342 156.61ZM119.679 158.5C119.465 158.5 119.357 158.407 119.357 158.22C119.357 158.164 119.376 158.113 119.413 158.066L126.329 148.966C126.395 148.882 126.46 148.817 126.525 148.77C126.591 148.723 126.689 148.7 126.819 148.7H127.813C128.028 148.7 128.135 148.793 128.135 148.98C128.135 149.036 128.117 149.087 128.079 149.134L121.163 158.234C121.098 158.318 121.033 158.383 120.967 158.43C120.902 158.477 120.804 158.5 120.673 158.5H119.679ZM126.721 158.57C126.087 158.57 125.578 158.402 125.195 158.066C124.822 157.73 124.612 157.282 124.565 156.722C124.556 156.479 124.551 156.265 124.551 156.078C124.551 155.891 124.556 155.667 124.565 155.406C124.603 154.837 124.803 154.384 125.167 154.048C125.541 153.703 126.059 153.53 126.721 153.53C127.393 153.53 127.911 153.703 128.275 154.048C128.639 154.384 128.84 154.837 128.877 155.406C128.896 155.667 128.905 155.891 128.905 156.078C128.905 156.265 128.896 156.479 128.877 156.722C128.84 157.282 128.63 157.73 128.247 158.066C127.865 158.402 127.356 158.57 126.721 158.57ZM126.721 157.338C126.88 157.338 127.001 157.305 127.085 157.24C127.179 157.175 127.249 157.091 127.295 156.988C127.342 156.876 127.365 156.759 127.365 156.638C127.384 156.423 127.393 156.227 127.393 156.05C127.393 155.873 127.384 155.681 127.365 155.476C127.356 155.299 127.305 155.14 127.211 155C127.118 154.851 126.955 154.776 126.721 154.776C126.488 154.776 126.325 154.851 126.231 155C126.138 155.14 126.087 155.299 126.077 155.476C126.068 155.681 126.063 155.873 126.063 156.05C126.063 156.227 126.068 156.423 126.077 156.638C126.087 156.759 126.11 156.876 126.147 156.988C126.194 157.091 126.264 157.175 126.357 157.24C126.451 157.305 126.572 157.338 126.721 157.338ZM120.799 153.642C120.155 153.642 119.642 153.479 119.259 153.152C118.886 152.816 118.681 152.368 118.643 151.808C118.625 151.565 118.615 151.355 118.615 151.178C118.625 150.991 118.634 150.767 118.643 150.506C118.671 149.937 118.867 149.484 119.231 149.148C119.605 148.803 120.127 148.63 120.799 148.63C121.471 148.63 121.989 148.803 122.353 149.148C122.717 149.484 122.913 149.937 122.941 150.506C122.96 150.767 122.969 150.991 122.969 151.178C122.969 151.355 122.96 151.565 122.941 151.808C122.913 152.368 122.708 152.816 122.325 153.152C121.943 153.479 121.434 153.642 120.799 153.642ZM120.799 152.438C120.949 152.438 121.07 152.405 121.163 152.34C121.257 152.265 121.327 152.177 121.373 152.074C121.42 151.962 121.443 151.85 121.443 151.738C121.462 151.523 121.471 151.327 121.471 151.15C121.471 150.973 121.462 150.781 121.443 150.576C121.434 150.399 121.378 150.24 121.275 150.1C121.182 149.951 121.023 149.876 120.799 149.876C120.566 149.876 120.398 149.951 120.295 150.1C120.202 150.24 120.151 150.399 120.141 150.576C120.132 150.781 120.127 150.973 120.127 151.15C120.127 151.327 120.132 151.523 120.141 151.738C120.151 151.85 120.174 151.962 120.211 152.074C120.258 152.177 120.328 152.265 120.421 152.34C120.515 152.405 120.641 152.438 120.799 152.438Z" fill="#EBECEE"/>
<g filter="url(#filter1_d_15958_23144)">
<rect x="148" y="74" width="32" height="32" rx="16" fill="white"/>
<rect x="147" y="73" width="34" height="34" rx="17" stroke="#1DA534" stroke-width="2"/>
<path opacity="0.4" d="M164 100C169.523 100 174 95.5228 174 90C174 84.4772 169.523 80 164 80C158.477 80 154 84.4772 154 90C154 95.5228 158.477 100 164 100Z" fill="#1DA534"/>
<path d="M162.579 93.5801C162.379 93.5801 162.189 93.5001 162.049 93.3601L159.219 90.5301C158.929 90.2401 158.929 89.7601 159.219 89.4701C159.509 89.1801 159.989 89.1801 160.279 89.4701L162.579 91.7701L167.719 86.6301C168.009 86.3401 168.489 86.3401 168.779 86.6301C169.069 86.9201 169.069 87.4001 168.779 87.6901L163.109 93.3601C162.969 93.5001 162.779 93.5801 162.579 93.5801Z" fill="#1DA534"/>
</g>
</g>
<defs>
<filter id="filter0_d_15958_23144" x="0" y="0" width="242" height="238" filterUnits="userSpaceOnUse" color-interpolation-filters="sRGB">
<feFlood flood-opacity="0" result="BackgroundImageFix"/>
<feColorMatrix in="SourceAlpha" type="matrix" values="0 0 0 0 0 0 0 0 0 0 0 0 0 0 0 0 0 0 127 0" result="hardAlpha"/>
<feOffset/>
<feGaussianBlur stdDeviation="30"/>
<feComposite in2="hardAlpha" operator="out"/>
<feColorMatrix type="matrix" values="0 0 0 0 0.819608 0 0 0 0 0.580392 0 0 0 0 0.898039 0 0 0 1 0"/>
<feBlend mode="normal" in2="BackgroundImageFix" result="effect1_dropShadow_15958_23144"/>
<feBlend mode="normal" in="SourceGraphic" in2="effect1_dropShadow_15958_23144" result="shape"/>
</filter>
<filter id="filter1_d_15958_23144" x="131" y="65" width="66" height="66" filterUnits="userSpaceOnUse" color-interpolation-filters="sRGB">
<feFlood flood-opacity="0" result="BackgroundImageFix"/>
<feColorMatrix in="SourceAlpha" type="matrix" values="0 0 0 0 0 0 0 0 0 0 0 0 0 0 0 0 0 0 127 0" result="hardAlpha"/>
<feOffset dy="8"/>
<feGaussianBlur stdDeviation="7.5"/>
<feColorMatrix type="matrix" values="0 0 0 0 0 0 0 0 0 0 0 0 0 0 0 0 0 0 0.25 0"/>
<feBlend mode="normal" in2="BackgroundImageFix" result="effect1_dropShadow_15958_23144"/>
<feBlend mode="normal" in="SourceGraphic" in2="effect1_dropShadow_15958_23144" result="shape"/>
</filter>
</defs>
</svg>
