<svg width="242" height="238" viewBox="0 0 242 238" fill="none" xmlns="http://www.w3.org/2000/svg">
<g filter="url(#filter0_d_15958_23136)">
<rect x="64" y="64" width="110" height="110" rx="55" fill="#EA5959" fill-opacity="0.15" shape-rendering="crispEdges"/>
<rect x="62" y="62" width="114" height="114" rx="57" stroke="#EA5959" stroke-width="4" shape-rendering="crispEdges"/>
<path opacity="0.4" d="M128.587 99.8932L127.853 98.0265L128.787 97.6532C130.307 97.0532 131.24 96.2932 131.28 95.6265C131.307 95.0665 130.707 94.3732 129.64 93.7065C129.24 93.4665 128.747 93.2132 128.187 92.9732C125.307 91.7465 121.827 91.1465 117.533 91.1465H116.533V89.1465H117.533C122.093 89.1465 125.84 89.7998 128.973 91.1332C129.613 91.4132 130.187 91.7065 130.68 91.9998C132.92 93.3865 133.333 94.7999 133.28 95.7332C133.213 96.8132 132.52 98.3332 129.533 99.5199L128.6 99.8799L128.587 99.8932Z" fill="#EA5959"/>
<path opacity="0.4" d="M108.96 98.8666L108.067 98.4133C105.187 96.9466 104.653 95.3466 104.72 94.2666C104.84 92.1066 107.28 90.4533 111.613 89.6266L112.6 89.4399L112.973 91.3999L111.987 91.5866C108.413 92.2666 106.76 93.48 106.707 94.3733C106.667 95.0533 107.507 95.8933 108.96 96.6266L109.853 97.08L108.947 98.8666H108.96Z" fill="#EA5959"/>
<path d="M112.907 107.467C112.187 107.467 111.627 107.253 111.214 106.987C110.72 106.667 110.094 106.04 109.827 104.787C109.2 101.867 110.88 96.7734 114.094 91.8133C117.627 86.3733 122 82.6533 124.96 82.5467C125.534 82.4933 126.187 82.6533 126.76 83C127.76 83.6533 128.774 85.16 128.08 88.72L127.894 89.7067L125.934 89.32L126.12 88.3333C126.48 86.4933 126.32 85.08 125.694 84.68C125.52 84.5733 125.294 84.52 125.094 84.5333C123.134 84.6133 119.24 87.56 115.774 92.8934C112.44 98.0267 111.374 102.427 111.774 104.36C111.867 104.827 112.054 105.133 112.294 105.307C112.934 105.72 114.294 105.28 115.867 104.16L116.68 103.573L117.84 105.2L117.027 105.787C115.267 107.04 113.907 107.467 112.894 107.467H112.907Z" fill="#EA5959"/>
<path d="M124.134 108.053C123.774 108.053 123.361 108 122.894 107.84C120.054 106.92 116.481 102.92 113.801 97.6534C112.134 94.3868 111.041 91.0668 110.708 88.2935C110.228 84.3201 111.441 82.8135 112.534 82.2535C114.361 81.2935 116.747 82.6668 117.907 83.8268L118.614 84.5335L117.201 85.9468L116.494 85.2401C115.628 84.3735 114.161 83.6668 113.454 84.0268C112.881 84.3201 112.388 85.5201 112.681 88.0535C112.988 90.6001 114.014 93.6801 115.574 96.7468C118.347 102.2 121.627 105.333 123.507 105.933C123.961 106.08 124.321 106.08 124.587 105.947C125.921 105.267 125.894 100.373 122.814 93.9601L122.374 93.0534L124.174 92.1868L124.614 93.0934C127.507 99.1068 128.734 106.067 125.507 107.72C125.187 107.88 124.734 108.04 124.147 108.04L124.134 108.053Z" fill="#EA5959"/>
<path opacity="0.4" fill-rule="evenodd" clip-rule="evenodd" d="M117.666 95.0664C117.666 94.3064 118.293 93.6797 119.053 93.6797C119.813 93.6797 120.439 94.3064 120.439 95.0664C120.439 95.8264 119.813 96.453 119.053 96.453C118.293 96.453 117.666 95.8264 117.666 95.0664Z" fill="#EA5959"/>
<path d="M102.949 127C102.853 127 102.78 126.974 102.728 126.922C102.676 126.861 102.65 126.788 102.65 126.701V118.212C102.65 118.117 102.676 118.043 102.728 117.991C102.78 117.93 102.853 117.9 102.949 117.9H108.253C108.348 117.9 108.422 117.93 108.474 117.991C108.526 118.043 108.552 118.117 108.552 118.212V118.732C108.552 118.827 108.526 118.901 108.474 118.953C108.422 119.005 108.348 119.031 108.253 119.031H103.911V122.06H107.993C108.088 122.06 108.162 122.09 108.214 122.151C108.266 122.203 108.292 122.277 108.292 122.372V122.892C108.292 122.979 108.266 123.052 108.214 123.113C108.162 123.165 108.088 123.191 107.993 123.191H103.911V126.701C103.911 126.788 103.88 126.861 103.82 126.922C103.768 126.974 103.694 127 103.599 127H102.949ZM110.473 127C110.386 127 110.313 126.974 110.252 126.922C110.2 126.861 110.174 126.788 110.174 126.701V120.539C110.174 120.452 110.2 120.383 110.252 120.331C110.313 120.27 110.386 120.24 110.473 120.24H111.097C111.184 120.24 111.253 120.27 111.305 120.331C111.357 120.383 111.383 120.452 111.383 120.539V126.701C111.383 126.788 111.357 126.861 111.305 126.922C111.253 126.974 111.184 127 111.097 127H110.473ZM110.434 119.265C110.295 119.265 110.226 119.196 110.226 119.057C110.226 118.988 110.248 118.931 110.291 118.888L111.266 117.718C111.344 117.623 111.413 117.562 111.474 117.536C111.535 117.501 111.626 117.484 111.747 117.484H112.631C112.796 117.484 112.878 117.566 112.878 117.731C112.878 117.792 112.856 117.844 112.813 117.887L111.305 119.122C111.236 119.183 111.171 119.222 111.11 119.239C111.049 119.256 110.971 119.265 110.876 119.265H110.434ZM115.662 127.13C115.177 127.13 114.761 127.069 114.414 126.948C114.068 126.827 113.786 126.679 113.569 126.506C113.353 126.333 113.188 126.159 113.075 125.986C112.971 125.813 112.915 125.674 112.906 125.57C112.898 125.475 112.928 125.401 112.997 125.349C113.067 125.297 113.136 125.271 113.205 125.271H113.777C113.829 125.271 113.868 125.28 113.894 125.297C113.929 125.306 113.972 125.34 114.024 125.401C114.137 125.522 114.263 125.644 114.401 125.765C114.54 125.886 114.709 125.986 114.908 126.064C115.116 126.142 115.372 126.181 115.675 126.181C116.117 126.181 116.481 126.099 116.767 125.934C117.053 125.761 117.196 125.509 117.196 125.18C117.196 124.963 117.136 124.79 117.014 124.66C116.902 124.53 116.694 124.413 116.39 124.309C116.096 124.205 115.688 124.097 115.168 123.984C114.648 123.863 114.237 123.715 113.933 123.542C113.63 123.36 113.413 123.148 113.283 122.905C113.153 122.654 113.088 122.372 113.088 122.06C113.088 121.739 113.184 121.432 113.374 121.137C113.565 120.834 113.842 120.587 114.206 120.396C114.579 120.205 115.043 120.11 115.597 120.11C116.048 120.11 116.434 120.166 116.754 120.279C117.075 120.392 117.339 120.535 117.547 120.708C117.755 120.873 117.911 121.037 118.015 121.202C118.119 121.367 118.176 121.505 118.184 121.618C118.193 121.705 118.167 121.778 118.106 121.839C118.046 121.891 117.976 121.917 117.898 121.917H117.352C117.292 121.917 117.24 121.904 117.196 121.878C117.162 121.852 117.127 121.822 117.092 121.787C117.006 121.674 116.902 121.562 116.78 121.449C116.668 121.336 116.516 121.245 116.325 121.176C116.143 121.098 115.901 121.059 115.597 121.059C115.164 121.059 114.839 121.15 114.622 121.332C114.406 121.514 114.297 121.744 114.297 122.021C114.297 122.186 114.345 122.333 114.44 122.463C114.536 122.593 114.718 122.71 114.986 122.814C115.255 122.918 115.654 123.031 116.182 123.152C116.754 123.265 117.205 123.416 117.534 123.607C117.864 123.798 118.098 124.019 118.236 124.27C118.375 124.521 118.444 124.812 118.444 125.141C118.444 125.505 118.336 125.839 118.119 126.142C117.911 126.445 117.599 126.688 117.183 126.87C116.776 127.043 116.269 127.13 115.662 127.13ZM120.248 127C120.162 127 120.088 126.974 120.027 126.922C119.975 126.861 119.949 126.788 119.949 126.701V120.539C119.949 120.452 119.975 120.383 120.027 120.331C120.088 120.27 120.162 120.24 120.248 120.24H120.872C120.959 120.24 121.028 120.27 121.08 120.331C121.132 120.383 121.158 120.452 121.158 120.539V126.701C121.158 126.788 121.132 126.861 121.08 126.922C121.028 126.974 120.959 127 120.872 127H120.248ZM120.144 118.979C120.058 118.979 119.984 118.953 119.923 118.901C119.871 118.84 119.845 118.767 119.845 118.68V117.978C119.845 117.891 119.871 117.822 119.923 117.77C119.984 117.709 120.058 117.679 120.144 117.679H120.963C121.05 117.679 121.119 117.709 121.171 117.77C121.232 117.822 121.262 117.891 121.262 117.978V118.68C121.262 118.767 121.232 118.84 121.171 118.901C121.119 118.953 121.05 118.979 120.963 118.979H120.144ZM125.828 127.13C125.212 127.13 124.679 127.013 124.229 126.779C123.787 126.536 123.444 126.194 123.202 125.752C122.959 125.301 122.829 124.764 122.812 124.14C122.803 124.01 122.799 123.837 122.799 123.62C122.799 123.403 122.803 123.23 122.812 123.1C122.829 122.476 122.959 121.943 123.202 121.501C123.444 121.05 123.787 120.708 124.229 120.474C124.679 120.231 125.212 120.11 125.828 120.11C126.33 120.11 126.759 120.179 127.115 120.318C127.479 120.457 127.778 120.634 128.012 120.851C128.246 121.068 128.419 121.302 128.532 121.553C128.653 121.804 128.718 122.043 128.727 122.268C128.735 122.355 128.709 122.424 128.649 122.476C128.588 122.528 128.514 122.554 128.428 122.554H127.804C127.717 122.554 127.652 122.537 127.609 122.502C127.565 122.459 127.522 122.389 127.479 122.294C127.323 121.869 127.11 121.57 126.842 121.397C126.573 121.224 126.239 121.137 125.841 121.137C125.321 121.137 124.896 121.297 124.567 121.618C124.246 121.939 124.073 122.454 124.047 123.165C124.038 123.477 124.038 123.78 124.047 124.075C124.073 124.794 124.246 125.314 124.567 125.635C124.896 125.947 125.321 126.103 125.841 126.103C126.239 126.103 126.573 126.016 126.842 125.843C127.11 125.67 127.323 125.371 127.479 124.946C127.522 124.851 127.565 124.786 127.609 124.751C127.652 124.708 127.717 124.686 127.804 124.686H128.428C128.514 124.686 128.588 124.712 128.649 124.764C128.709 124.816 128.735 124.885 128.727 124.972C128.718 125.154 128.679 125.34 128.61 125.531C128.54 125.722 128.428 125.917 128.272 126.116C128.124 126.307 127.938 126.48 127.713 126.636C127.487 126.783 127.214 126.905 126.894 127C126.582 127.087 126.226 127.13 125.828 127.13ZM132.156 127.13C131.722 127.13 131.328 127.043 130.973 126.87C130.617 126.697 130.331 126.463 130.115 126.168C129.898 125.873 129.79 125.54 129.79 125.167C129.79 124.569 130.032 124.092 130.518 123.737C131.003 123.382 131.636 123.148 132.416 123.035L134.353 122.762V122.385C134.353 121.969 134.231 121.644 133.989 121.41C133.755 121.176 133.369 121.059 132.832 121.059C132.442 121.059 132.125 121.137 131.883 121.293C131.649 121.449 131.484 121.648 131.389 121.891C131.337 122.021 131.246 122.086 131.116 122.086H130.531C130.435 122.086 130.362 122.06 130.31 122.008C130.266 121.947 130.245 121.878 130.245 121.8C130.245 121.67 130.292 121.51 130.388 121.319C130.492 121.128 130.648 120.942 130.856 120.76C131.064 120.578 131.328 120.426 131.649 120.305C131.978 120.175 132.377 120.11 132.845 120.11C133.365 120.11 133.802 120.179 134.158 120.318C134.513 120.448 134.79 120.626 134.99 120.851C135.198 121.076 135.345 121.332 135.432 121.618C135.527 121.904 135.575 122.194 135.575 122.489V126.701C135.575 126.788 135.544 126.861 135.484 126.922C135.432 126.974 135.362 127 135.276 127H134.678C134.582 127 134.509 126.974 134.457 126.922C134.405 126.861 134.379 126.788 134.379 126.701V126.142C134.266 126.298 134.114 126.454 133.924 126.61C133.733 126.757 133.495 126.883 133.209 126.987C132.923 127.082 132.572 127.13 132.156 127.13ZM132.429 126.155C132.784 126.155 133.109 126.081 133.404 125.934C133.698 125.778 133.928 125.54 134.093 125.219C134.266 124.898 134.353 124.495 134.353 124.01V123.646L132.845 123.867C132.229 123.954 131.766 124.101 131.454 124.309C131.142 124.508 130.986 124.764 130.986 125.076C130.986 125.319 131.055 125.522 131.194 125.687C131.341 125.843 131.523 125.96 131.74 126.038C131.965 126.116 132.195 126.155 132.429 126.155Z" fill="#EBECEE"/>
<rect x="100.5" y="134" width="37" height="25" rx="12.5" fill="#EA5959"/>
<path d="M113.342 151.14C112.67 151.14 112.086 151.047 111.592 150.86C111.097 150.664 110.686 150.398 110.36 150.062C110.042 149.726 109.8 149.334 109.632 148.886C109.464 148.438 109.366 147.957 109.338 147.444C109.328 147.192 109.319 146.907 109.31 146.59C109.31 146.263 109.31 145.937 109.31 145.61C109.319 145.274 109.328 144.975 109.338 144.714C109.366 144.201 109.464 143.725 109.632 143.286C109.809 142.838 110.061 142.451 110.388 142.124C110.724 141.788 111.134 141.527 111.62 141.34C112.114 141.153 112.688 141.06 113.342 141.06C114.004 141.06 114.578 141.153 115.064 141.34C115.549 141.527 115.955 141.788 116.282 142.124C116.618 142.451 116.874 142.838 117.052 143.286C117.229 143.725 117.327 144.201 117.346 144.714C117.364 144.975 117.374 145.274 117.374 145.61C117.383 145.937 117.383 146.263 117.374 146.59C117.374 146.907 117.364 147.192 117.346 147.444C117.327 147.957 117.229 148.438 117.052 148.886C116.884 149.334 116.636 149.726 116.31 150.062C115.992 150.398 115.586 150.664 115.092 150.86C114.606 151.047 114.023 151.14 113.342 151.14ZM113.342 149.11C113.827 149.11 114.177 148.956 114.392 148.648C114.616 148.331 114.732 147.906 114.742 147.374C114.76 147.103 114.77 146.819 114.77 146.52C114.779 146.221 114.779 145.923 114.77 145.624C114.77 145.325 114.76 145.05 114.742 144.798C114.732 144.285 114.616 143.869 114.392 143.552C114.177 143.235 113.827 143.071 113.342 143.062C112.856 143.071 112.506 143.235 112.292 143.552C112.077 143.869 111.96 144.285 111.942 144.798C111.932 145.05 111.923 145.325 111.914 145.624C111.914 145.923 111.914 146.221 111.914 146.52C111.923 146.819 111.932 147.103 111.942 147.374C111.96 147.906 112.082 148.331 112.306 148.648C112.53 148.956 112.875 149.11 113.342 149.11ZM119.679 151C119.465 151 119.357 150.907 119.357 150.72C119.357 150.664 119.376 150.613 119.413 150.566L126.329 141.466C126.395 141.382 126.46 141.317 126.525 141.27C126.591 141.223 126.689 141.2 126.819 141.2H127.813C128.028 141.2 128.135 141.293 128.135 141.48C128.135 141.536 128.117 141.587 128.079 141.634L121.163 150.734C121.098 150.818 121.033 150.883 120.967 150.93C120.902 150.977 120.804 151 120.673 151H119.679ZM126.721 151.07C126.087 151.07 125.578 150.902 125.195 150.566C124.822 150.23 124.612 149.782 124.565 149.222C124.556 148.979 124.551 148.765 124.551 148.578C124.551 148.391 124.556 148.167 124.565 147.906C124.603 147.337 124.803 146.884 125.167 146.548C125.541 146.203 126.059 146.03 126.721 146.03C127.393 146.03 127.911 146.203 128.275 146.548C128.639 146.884 128.84 147.337 128.877 147.906C128.896 148.167 128.905 148.391 128.905 148.578C128.905 148.765 128.896 148.979 128.877 149.222C128.84 149.782 128.63 150.23 128.247 150.566C127.865 150.902 127.356 151.07 126.721 151.07ZM126.721 149.838C126.88 149.838 127.001 149.805 127.085 149.74C127.179 149.675 127.249 149.591 127.295 149.488C127.342 149.376 127.365 149.259 127.365 149.138C127.384 148.923 127.393 148.727 127.393 148.55C127.393 148.373 127.384 148.181 127.365 147.976C127.356 147.799 127.305 147.64 127.211 147.5C127.118 147.351 126.955 147.276 126.721 147.276C126.488 147.276 126.325 147.351 126.231 147.5C126.138 147.64 126.087 147.799 126.077 147.976C126.068 148.181 126.063 148.373 126.063 148.55C126.063 148.727 126.068 148.923 126.077 149.138C126.087 149.259 126.11 149.376 126.147 149.488C126.194 149.591 126.264 149.675 126.357 149.74C126.451 149.805 126.572 149.838 126.721 149.838ZM120.799 146.142C120.155 146.142 119.642 145.979 119.259 145.652C118.886 145.316 118.681 144.868 118.643 144.308C118.625 144.065 118.615 143.855 118.615 143.678C118.625 143.491 118.634 143.267 118.643 143.006C118.671 142.437 118.867 141.984 119.231 141.648C119.605 141.303 120.127 141.13 120.799 141.13C121.471 141.13 121.989 141.303 122.353 141.648C122.717 141.984 122.913 142.437 122.941 143.006C122.96 143.267 122.969 143.491 122.969 143.678C122.969 143.855 122.96 144.065 122.941 144.308C122.913 144.868 122.708 145.316 122.325 145.652C121.943 145.979 121.434 146.142 120.799 146.142ZM120.799 144.938C120.949 144.938 121.07 144.905 121.163 144.84C121.257 144.765 121.327 144.677 121.373 144.574C121.42 144.462 121.443 144.35 121.443 144.238C121.462 144.023 121.471 143.827 121.471 143.65C121.471 143.473 121.462 143.281 121.443 143.076C121.434 142.899 121.378 142.74 121.275 142.6C121.182 142.451 121.023 142.376 120.799 142.376C120.566 142.376 120.398 142.451 120.295 142.6C120.202 142.74 120.151 142.899 120.141 143.076C120.132 143.281 120.127 143.473 120.127 143.65C120.127 143.827 120.132 144.023 120.141 144.238C120.151 144.35 120.174 144.462 120.211 144.574C120.258 144.677 120.328 144.765 120.421 144.84C120.515 144.905 120.641 144.938 120.799 144.938Z" fill="#EBECEE"/>
<g filter="url(#filter1_d_15958_23136)">
<rect x="148" y="74" width="32" height="32" rx="16" fill="white"/>
<rect x="147" y="73" width="34" height="34" rx="17" stroke="#1DA534" stroke-width="2"/>
<path opacity="0.4" d="M164 100C169.523 100 174 95.5228 174 90C174 84.4772 169.523 80 164 80C158.477 80 154 84.4772 154 90C154 95.5228 158.477 100 164 100Z" fill="#1DA534"/>
<path d="M162.579 93.5801C162.379 93.5801 162.189 93.5001 162.049 93.3601L159.219 90.5301C158.929 90.2401 158.929 89.7601 159.219 89.4701C159.509 89.1801 159.989 89.1801 160.279 89.4701L162.579 91.7701L167.719 86.6301C168.009 86.3401 168.489 86.3401 168.779 86.6301C169.069 86.9201 169.069 87.4001 168.779 87.6901L163.109 93.3601C162.969 93.5001 162.779 93.5801 162.579 93.5801Z" fill="#1DA534"/>
</g>
</g>
<defs>
<filter id="filter0_d_15958_23136" x="0" y="0" width="242" height="238" filterUnits="userSpaceOnUse" color-interpolation-filters="sRGB">
<feFlood flood-opacity="0" result="BackgroundImageFix"/>
<feColorMatrix in="SourceAlpha" type="matrix" values="0 0 0 0 0 0 0 0 0 0 0 0 0 0 0 0 0 0 127 0" result="hardAlpha"/>
<feOffset/>
<feGaussianBlur stdDeviation="30"/>
<feComposite in2="hardAlpha" operator="out"/>
<feColorMatrix type="matrix" values="0 0 0 0 0.917647 0 0 0 0 0.352941 0 0 0 0 0.34902 0 0 0 1 0"/>
<feBlend mode="normal" in2="BackgroundImageFix" result="effect1_dropShadow_15958_23136"/>
<feBlend mode="normal" in="SourceGraphic" in2="effect1_dropShadow_15958_23136" result="shape"/>
</filter>
<filter id="filter1_d_15958_23136" x="131" y="65" width="66" height="66" filterUnits="userSpaceOnUse" color-interpolation-filters="sRGB">
<feFlood flood-opacity="0" result="BackgroundImageFix"/>
<feColorMatrix in="SourceAlpha" type="matrix" values="0 0 0 0 0 0 0 0 0 0 0 0 0 0 0 0 0 0 127 0" result="hardAlpha"/>
<feOffset dy="8"/>
<feGaussianBlur stdDeviation="7.5"/>
<feColorMatrix type="matrix" values="0 0 0 0 0 0 0 0 0 0 0 0 0 0 0 0 0 0 0.25 0"/>
<feBlend mode="normal" in2="BackgroundImageFix" result="effect1_dropShadow_15958_23136"/>
<feBlend mode="normal" in="SourceGraphic" in2="effect1_dropShadow_15958_23136" result="shape"/>
</filter>
</defs>
</svg>
