<svg width="242" height="238" viewBox="0 0 242 238" fill="none" xmlns="http://www.w3.org/2000/svg">
<g filter="url(#filter0_d_15958_23146)">
<rect x="64" y="64" width="110" height="110" rx="55" fill="#8646F4" fill-opacity="0.15" shape-rendering="crispEdges"/>
<rect x="62" y="62" width="114" height="114" rx="57" stroke="#8646F4" stroke-width="4" shape-rendering="crispEdges"/>
<g clip-path="url(#clip0_15958_23146)">
<mask id="mask0_15958_23146" style="mask-type:luminance" maskUnits="userSpaceOnUse" x="103" y="79" width="32" height="32">
<path d="M135 79H103V111H135V79Z" fill="white"/>
</mask>
<g mask="url(#mask0_15958_23146)">
<path opacity="0.4" d="M126.133 108.333H111.88C108.466 108.333 106.999 105.88 108.613 102.88L109.959 100.373L111.026 98.4131L115.293 90.493C115.719 89.7197 115.906 88.373 115.746 87.5197L114.906 83.3597C114.733 82.493 115.399 81.6797 116.279 81.6797H121.76C122.64 81.6797 123.306 82.493 123.133 83.3597L122.293 87.5197C122.12 88.373 122.32 89.7197 122.746 90.493L129.426 102.88C131.013 105.88 129.546 108.333 126.133 108.333Z" fill="#8646F4"/>
<path d="M120.052 99.4532C120.052 100.027 119.572 100.507 118.999 100.507H110.452C110.265 100.507 110.105 100.467 109.945 100.36L111.012 98.3999H118.999C119.572 98.3999 120.052 98.8532 120.052 99.4532Z" fill="#8646F4"/>
</g>
</g>
<path d="M101.587 127.845C101.475 127.845 101.384 127.806 101.314 127.728C101.245 127.659 101.189 127.598 101.145 127.546L100.612 126.818C100.144 127.026 99.6026 127.13 98.9873 127.13C98.2419 127.13 97.6049 127.004 97.0763 126.753C96.5563 126.493 96.1489 126.099 95.8543 125.57C95.5683 125.033 95.4123 124.361 95.3863 123.555C95.3776 123.174 95.3733 122.81 95.3733 122.463C95.3733 122.108 95.3776 121.739 95.3863 121.358C95.4123 120.561 95.5769 119.898 95.8803 119.369C96.1836 118.832 96.5996 118.433 97.1283 118.173C97.6656 117.904 98.2853 117.77 98.9873 117.77C99.6979 117.77 100.318 117.904 100.846 118.173C101.384 118.433 101.804 118.832 102.107 119.369C102.411 119.898 102.571 120.561 102.588 121.358C102.606 121.739 102.614 122.108 102.614 122.463C102.614 122.81 102.606 123.174 102.588 123.555C102.545 124.751 102.233 125.639 101.652 126.22L102.51 127.442C102.519 127.451 102.528 127.464 102.536 127.481C102.545 127.507 102.549 127.542 102.549 127.585C102.558 127.654 102.536 127.715 102.484 127.767C102.432 127.819 102.367 127.845 102.289 127.845H101.587ZM98.9873 126.025C99.6459 126.025 100.188 125.826 100.612 125.427C101.037 125.028 101.267 124.383 101.301 123.49C101.319 123.1 101.327 122.753 101.327 122.45C101.327 122.138 101.319 121.791 101.301 121.41C101.284 120.812 101.171 120.327 100.963 119.954C100.764 119.581 100.495 119.308 100.157 119.135C99.8193 118.962 99.4293 118.875 98.9873 118.875C98.5626 118.875 98.1769 118.962 97.8303 119.135C97.4923 119.308 97.2236 119.581 97.0243 119.954C96.8249 120.327 96.7123 120.812 96.6863 121.41C96.6776 121.791 96.6733 122.138 96.6733 122.45C96.6733 122.753 96.6776 123.1 96.6863 123.49C96.7209 124.383 96.9506 125.028 97.3753 125.427C97.7999 125.826 98.3373 126.025 98.9873 126.025ZM106.875 127.13C106.32 127.13 105.848 127.009 105.458 126.766C105.077 126.515 104.786 126.168 104.587 125.726C104.388 125.284 104.288 124.777 104.288 124.205V120.539C104.288 120.452 104.314 120.383 104.366 120.331C104.427 120.27 104.5 120.24 104.587 120.24H105.237C105.324 120.24 105.393 120.27 105.445 120.331C105.506 120.383 105.536 120.452 105.536 120.539V124.14C105.536 125.431 106.099 126.077 107.226 126.077C107.763 126.077 108.192 125.908 108.513 125.57C108.842 125.223 109.007 124.747 109.007 124.14V120.539C109.007 120.452 109.033 120.383 109.085 120.331C109.146 120.27 109.219 120.24 109.306 120.24H109.943C110.038 120.24 110.112 120.27 110.164 120.331C110.216 120.383 110.242 120.452 110.242 120.539V126.701C110.242 126.788 110.216 126.861 110.164 126.922C110.112 126.974 110.038 127 109.943 127H109.345C109.258 127 109.185 126.974 109.124 126.922C109.072 126.861 109.046 126.788 109.046 126.701V126.129C108.812 126.432 108.526 126.675 108.188 126.857C107.859 127.039 107.421 127.13 106.875 127.13ZM112.472 127C112.386 127 112.312 126.974 112.251 126.922C112.199 126.861 112.173 126.788 112.173 126.701V120.539C112.173 120.452 112.199 120.383 112.251 120.331C112.312 120.27 112.386 120.24 112.472 120.24H113.096C113.183 120.24 113.252 120.27 113.304 120.331C113.356 120.383 113.382 120.452 113.382 120.539V126.701C113.382 126.788 113.356 126.861 113.304 126.922C113.252 126.974 113.183 127 113.096 127H112.472ZM112.433 119.265C112.295 119.265 112.225 119.196 112.225 119.057C112.225 118.988 112.247 118.931 112.29 118.888L113.265 117.718C113.343 117.623 113.413 117.562 113.473 117.536C113.534 117.501 113.625 117.484 113.746 117.484H114.63C114.795 117.484 114.877 117.566 114.877 117.731C114.877 117.792 114.856 117.844 114.812 117.887L113.304 119.122C113.235 119.183 113.17 119.222 113.109 119.239C113.049 119.256 112.971 119.265 112.875 119.265H112.433ZM115.621 127C115.534 127 115.461 126.974 115.4 126.922C115.348 126.861 115.322 126.788 115.322 126.701V120.539C115.322 120.452 115.348 120.383 115.4 120.331C115.461 120.27 115.534 120.24 115.621 120.24H116.206C116.293 120.24 116.362 120.27 116.414 120.331C116.475 120.383 116.505 120.452 116.505 120.539V120.994C116.704 120.725 116.956 120.513 117.259 120.357C117.562 120.192 117.926 120.11 118.351 120.11C119.33 120.101 120.024 120.5 120.431 121.306C120.63 120.942 120.921 120.652 121.302 120.435C121.683 120.218 122.117 120.11 122.602 120.11C123.053 120.11 123.46 120.214 123.824 120.422C124.197 120.63 124.487 120.946 124.695 121.371C124.912 121.787 125.02 122.311 125.02 122.944V126.701C125.02 126.788 124.99 126.861 124.929 126.922C124.877 126.974 124.808 127 124.721 127H124.11C124.023 127 123.95 126.974 123.889 126.922C123.837 126.861 123.811 126.788 123.811 126.701V123.061C123.811 122.576 123.742 122.194 123.603 121.917C123.464 121.64 123.278 121.445 123.044 121.332C122.81 121.219 122.554 121.163 122.277 121.163C122.052 121.163 121.822 121.219 121.588 121.332C121.354 121.445 121.159 121.64 121.003 121.917C120.856 122.194 120.782 122.576 120.782 123.061V126.701C120.782 126.788 120.752 126.861 120.691 126.922C120.639 126.974 120.57 127 120.483 127H119.872C119.785 127 119.712 126.974 119.651 126.922C119.599 126.861 119.573 126.788 119.573 126.701V123.061C119.573 122.576 119.499 122.194 119.352 121.917C119.205 121.64 119.014 121.445 118.78 121.332C118.546 121.219 118.299 121.163 118.039 121.163C117.814 121.163 117.584 121.219 117.35 121.332C117.116 121.445 116.921 121.64 116.765 121.917C116.618 122.194 116.544 122.571 116.544 123.048V126.701C116.544 126.788 116.514 126.861 116.453 126.922C116.401 126.974 116.332 127 116.245 127H115.621ZM127.174 127C127.087 127 127.013 126.974 126.953 126.922C126.901 126.861 126.875 126.788 126.875 126.701V120.539C126.875 120.452 126.901 120.383 126.953 120.331C127.013 120.27 127.087 120.24 127.174 120.24H127.798C127.884 120.24 127.954 120.27 128.006 120.331C128.058 120.383 128.084 120.452 128.084 120.539V126.701C128.084 126.788 128.058 126.861 128.006 126.922C127.954 126.974 127.884 127 127.798 127H127.174ZM127.07 118.979C126.983 118.979 126.909 118.953 126.849 118.901C126.797 118.84 126.771 118.767 126.771 118.68V117.978C126.771 117.891 126.797 117.822 126.849 117.77C126.909 117.709 126.983 117.679 127.07 117.679H127.889C127.975 117.679 128.045 117.709 128.097 117.77C128.157 117.822 128.188 117.891 128.188 117.978V118.68C128.188 118.767 128.157 118.84 128.097 118.901C128.045 118.953 127.975 118.979 127.889 118.979H127.07ZM132.753 127.13C132.138 127.13 131.605 127.013 131.154 126.779C130.712 126.536 130.37 126.194 130.127 125.752C129.884 125.301 129.754 124.764 129.737 124.14C129.728 124.01 129.724 123.837 129.724 123.62C129.724 123.403 129.728 123.23 129.737 123.1C129.754 122.476 129.884 121.943 130.127 121.501C130.37 121.05 130.712 120.708 131.154 120.474C131.605 120.231 132.138 120.11 132.753 120.11C133.256 120.11 133.685 120.179 134.04 120.318C134.404 120.457 134.703 120.634 134.937 120.851C135.171 121.068 135.344 121.302 135.457 121.553C135.578 121.804 135.643 122.043 135.652 122.268C135.661 122.355 135.635 122.424 135.574 122.476C135.513 122.528 135.44 122.554 135.353 122.554H134.729C134.642 122.554 134.577 122.537 134.534 122.502C134.491 122.459 134.447 122.389 134.404 122.294C134.248 121.869 134.036 121.57 133.767 121.397C133.498 121.224 133.165 121.137 132.766 121.137C132.246 121.137 131.821 121.297 131.492 121.618C131.171 121.939 130.998 122.454 130.972 123.165C130.963 123.477 130.963 123.78 130.972 124.075C130.998 124.794 131.171 125.314 131.492 125.635C131.821 125.947 132.246 126.103 132.766 126.103C133.165 126.103 133.498 126.016 133.767 125.843C134.036 125.67 134.248 125.371 134.404 124.946C134.447 124.851 134.491 124.786 134.534 124.751C134.577 124.708 134.642 124.686 134.729 124.686H135.353C135.44 124.686 135.513 124.712 135.574 124.764C135.635 124.816 135.661 124.885 135.652 124.972C135.643 125.154 135.604 125.34 135.535 125.531C135.466 125.722 135.353 125.917 135.197 126.116C135.05 126.307 134.863 126.48 134.638 126.636C134.413 126.783 134.14 126.905 133.819 127C133.507 127.087 133.152 127.13 132.753 127.13ZM139.081 127.13C138.648 127.13 138.253 127.043 137.898 126.87C137.543 126.697 137.257 126.463 137.04 126.168C136.823 125.873 136.715 125.54 136.715 125.167C136.715 124.569 136.958 124.092 137.443 123.737C137.928 123.382 138.561 123.148 139.341 123.035L141.278 122.762V122.385C141.278 121.969 141.157 121.644 140.914 121.41C140.68 121.176 140.294 121.059 139.757 121.059C139.367 121.059 139.051 121.137 138.808 121.293C138.574 121.449 138.409 121.648 138.314 121.891C138.262 122.021 138.171 122.086 138.041 122.086H137.456C137.361 122.086 137.287 122.06 137.235 122.008C137.192 121.947 137.17 121.878 137.17 121.8C137.17 121.67 137.218 121.51 137.313 121.319C137.417 121.128 137.573 120.942 137.781 120.76C137.989 120.578 138.253 120.426 138.574 120.305C138.903 120.175 139.302 120.11 139.77 120.11C140.29 120.11 140.728 120.179 141.083 120.318C141.438 120.448 141.716 120.626 141.915 120.851C142.123 121.076 142.27 121.332 142.357 121.618C142.452 121.904 142.5 122.194 142.5 122.489V126.701C142.5 126.788 142.47 126.861 142.409 126.922C142.357 126.974 142.288 127 142.201 127H141.603C141.508 127 141.434 126.974 141.382 126.922C141.33 126.861 141.304 126.788 141.304 126.701V126.142C141.191 126.298 141.04 126.454 140.849 126.61C140.658 126.757 140.42 126.883 140.134 126.987C139.848 127.082 139.497 127.13 139.081 127.13ZM139.354 126.155C139.709 126.155 140.034 126.081 140.329 125.934C140.624 125.778 140.853 125.54 141.018 125.219C141.191 124.898 141.278 124.495 141.278 124.01V123.646L139.77 123.867C139.155 123.954 138.691 124.101 138.379 124.309C138.067 124.508 137.911 124.764 137.911 125.076C137.911 125.319 137.98 125.522 138.119 125.687C138.266 125.843 138.448 125.96 138.665 126.038C138.89 126.116 139.12 126.155 139.354 126.155Z" fill="#EBECEE"/>
<rect x="100.5" y="134" width="37" height="25" rx="12.5" fill="#8646F4"/>
<path d="M113.342 151.14C112.67 151.14 112.086 151.047 111.592 150.86C111.097 150.664 110.686 150.398 110.36 150.062C110.042 149.726 109.8 149.334 109.632 148.886C109.464 148.438 109.366 147.957 109.338 147.444C109.328 147.192 109.319 146.907 109.31 146.59C109.31 146.263 109.31 145.937 109.31 145.61C109.319 145.274 109.328 144.975 109.338 144.714C109.366 144.201 109.464 143.725 109.632 143.286C109.809 142.838 110.061 142.451 110.388 142.124C110.724 141.788 111.134 141.527 111.62 141.34C112.114 141.153 112.688 141.06 113.342 141.06C114.004 141.06 114.578 141.153 115.064 141.34C115.549 141.527 115.955 141.788 116.282 142.124C116.618 142.451 116.874 142.838 117.052 143.286C117.229 143.725 117.327 144.201 117.346 144.714C117.364 144.975 117.374 145.274 117.374 145.61C117.383 145.937 117.383 146.263 117.374 146.59C117.374 146.907 117.364 147.192 117.346 147.444C117.327 147.957 117.229 148.438 117.052 148.886C116.884 149.334 116.636 149.726 116.31 150.062C115.992 150.398 115.586 150.664 115.092 150.86C114.606 151.047 114.023 151.14 113.342 151.14ZM113.342 149.11C113.827 149.11 114.177 148.956 114.392 148.648C114.616 148.331 114.732 147.906 114.742 147.374C114.76 147.103 114.77 146.819 114.77 146.52C114.779 146.221 114.779 145.923 114.77 145.624C114.77 145.325 114.76 145.05 114.742 144.798C114.732 144.285 114.616 143.869 114.392 143.552C114.177 143.235 113.827 143.071 113.342 143.062C112.856 143.071 112.506 143.235 112.292 143.552C112.077 143.869 111.96 144.285 111.942 144.798C111.932 145.05 111.923 145.325 111.914 145.624C111.914 145.923 111.914 146.221 111.914 146.52C111.923 146.819 111.932 147.103 111.942 147.374C111.96 147.906 112.082 148.331 112.306 148.648C112.53 148.956 112.875 149.11 113.342 149.11ZM119.679 151C119.465 151 119.357 150.907 119.357 150.72C119.357 150.664 119.376 150.613 119.413 150.566L126.329 141.466C126.395 141.382 126.46 141.317 126.525 141.27C126.591 141.223 126.689 141.2 126.819 141.2H127.813C128.028 141.2 128.135 141.293 128.135 141.48C128.135 141.536 128.117 141.587 128.079 141.634L121.163 150.734C121.098 150.818 121.033 150.883 120.967 150.93C120.902 150.977 120.804 151 120.673 151H119.679ZM126.721 151.07C126.087 151.07 125.578 150.902 125.195 150.566C124.822 150.23 124.612 149.782 124.565 149.222C124.556 148.979 124.551 148.765 124.551 148.578C124.551 148.391 124.556 148.167 124.565 147.906C124.603 147.337 124.803 146.884 125.167 146.548C125.541 146.203 126.059 146.03 126.721 146.03C127.393 146.03 127.911 146.203 128.275 146.548C128.639 146.884 128.84 147.337 128.877 147.906C128.896 148.167 128.905 148.391 128.905 148.578C128.905 148.765 128.896 148.979 128.877 149.222C128.84 149.782 128.63 150.23 128.247 150.566C127.865 150.902 127.356 151.07 126.721 151.07ZM126.721 149.838C126.88 149.838 127.001 149.805 127.085 149.74C127.179 149.675 127.249 149.591 127.295 149.488C127.342 149.376 127.365 149.259 127.365 149.138C127.384 148.923 127.393 148.727 127.393 148.55C127.393 148.373 127.384 148.181 127.365 147.976C127.356 147.799 127.305 147.64 127.211 147.5C127.118 147.351 126.955 147.276 126.721 147.276C126.488 147.276 126.325 147.351 126.231 147.5C126.138 147.64 126.087 147.799 126.077 147.976C126.068 148.181 126.063 148.373 126.063 148.55C126.063 148.727 126.068 148.923 126.077 149.138C126.087 149.259 126.11 149.376 126.147 149.488C126.194 149.591 126.264 149.675 126.357 149.74C126.451 149.805 126.572 149.838 126.721 149.838ZM120.799 146.142C120.155 146.142 119.642 145.979 119.259 145.652C118.886 145.316 118.681 144.868 118.643 144.308C118.625 144.065 118.615 143.855 118.615 143.678C118.625 143.491 118.634 143.267 118.643 143.006C118.671 142.437 118.867 141.984 119.231 141.648C119.605 141.303 120.127 141.13 120.799 141.13C121.471 141.13 121.989 141.303 122.353 141.648C122.717 141.984 122.913 142.437 122.941 143.006C122.96 143.267 122.969 143.491 122.969 143.678C122.969 143.855 122.96 144.065 122.941 144.308C122.913 144.868 122.708 145.316 122.325 145.652C121.943 145.979 121.434 146.142 120.799 146.142ZM120.799 144.938C120.949 144.938 121.07 144.905 121.163 144.84C121.257 144.765 121.327 144.677 121.373 144.574C121.42 144.462 121.443 144.35 121.443 144.238C121.462 144.023 121.471 143.827 121.471 143.65C121.471 143.473 121.462 143.281 121.443 143.076C121.434 142.899 121.378 142.74 121.275 142.6C121.182 142.451 121.023 142.376 120.799 142.376C120.566 142.376 120.398 142.451 120.295 142.6C120.202 142.74 120.151 142.899 120.141 143.076C120.132 143.281 120.127 143.473 120.127 143.65C120.127 143.827 120.132 144.023 120.141 144.238C120.151 144.35 120.174 144.462 120.211 144.574C120.258 144.677 120.328 144.765 120.421 144.84C120.515 144.905 120.641 144.938 120.799 144.938Z" fill="#EBECEE"/>
<g filter="url(#filter1_d_15958_23146)">
<rect x="148" y="74" width="32" height="32" rx="16" fill="white"/>
<rect x="147" y="73" width="34" height="34" rx="17" stroke="#1DA534" stroke-width="2"/>
<path opacity="0.4" d="M164 100C169.523 100 174 95.5228 174 90C174 84.4772 169.523 80 164 80C158.477 80 154 84.4772 154 90C154 95.5228 158.477 100 164 100Z" fill="#1DA534"/>
<path d="M162.579 93.5801C162.379 93.5801 162.189 93.5001 162.049 93.3601L159.219 90.5301C158.929 90.2401 158.929 89.7601 159.219 89.4701C159.509 89.1801 159.989 89.1801 160.279 89.4701L162.579 91.7701L167.719 86.6301C168.009 86.3401 168.489 86.3401 168.779 86.6301C169.069 86.9201 169.069 87.4001 168.779 87.6901L163.109 93.3601C162.969 93.5001 162.779 93.5801 162.579 93.5801Z" fill="#1DA534"/>
</g>
</g>
<defs>
<filter id="filter0_d_15958_23146" x="0" y="0" width="242" height="238" filterUnits="userSpaceOnUse" color-interpolation-filters="sRGB">
<feFlood flood-opacity="0" result="BackgroundImageFix"/>
<feColorMatrix in="SourceAlpha" type="matrix" values="0 0 0 0 0 0 0 0 0 0 0 0 0 0 0 0 0 0 127 0" result="hardAlpha"/>
<feOffset/>
<feGaussianBlur stdDeviation="30"/>
<feComposite in2="hardAlpha" operator="out"/>
<feColorMatrix type="matrix" values="0 0 0 0 0.52549 0 0 0 0 0.27451 0 0 0 0 0.952941 0 0 0 1 0"/>
<feBlend mode="normal" in2="BackgroundImageFix" result="effect1_dropShadow_15958_23146"/>
<feBlend mode="normal" in="SourceGraphic" in2="effect1_dropShadow_15958_23146" result="shape"/>
</filter>
<filter id="filter1_d_15958_23146" x="131" y="65" width="66" height="66" filterUnits="userSpaceOnUse" color-interpolation-filters="sRGB">
<feFlood flood-opacity="0" result="BackgroundImageFix"/>
<feColorMatrix in="SourceAlpha" type="matrix" values="0 0 0 0 0 0 0 0 0 0 0 0 0 0 0 0 0 0 127 0" result="hardAlpha"/>
<feOffset dy="8"/>
<feGaussianBlur stdDeviation="7.5"/>
<feColorMatrix type="matrix" values="0 0 0 0 0 0 0 0 0 0 0 0 0 0 0 0 0 0 0.25 0"/>
<feBlend mode="normal" in2="BackgroundImageFix" result="effect1_dropShadow_15958_23146"/>
<feBlend mode="normal" in="SourceGraphic" in2="effect1_dropShadow_15958_23146" result="shape"/>
</filter>
<clipPath id="clip0_15958_23146">
<rect width="32" height="32" fill="white" transform="translate(103 79)"/>
</clipPath>
</defs>
</svg>
