<svg width="122" height="118" viewBox="0 0 122 118" fill="none" xmlns="http://www.w3.org/2000/svg">
<rect x="2" y="2" width="114" height="114" rx="57" fill="#4AB75D" fill-opacity="0.15"/>
<rect x="2" y="2" width="114" height="114" rx="57" stroke="#1DA534" stroke-width="4"/>
<g clip-path="url(#clip0_34428_9654)">
<mask id="mask0_34428_9654" style="mask-type:luminance" maskUnits="userSpaceOnUse" x="43" y="19" width="32" height="32">
<path d="M75 19H43V51H75V19Z" fill="white"/>
</mask>
<g mask="url(#mask0_34428_9654)">
<path d="M68.4681 29.5601C68.4681 33.8535 64.9748 37.3335 60.6948 37.3335C56.3881 37.3335 52.9082 33.8401 52.9082 29.5601C52.9082 25.2534 56.4015 21.7734 60.6948 21.7734C64.9748 21.7734 68.4681 25.2534 68.4681 29.5601Z" fill="#1DA534"/>
<path opacity="0.4" d="M70.4407 38.7731C70.8807 38.3064 70.854 37.5731 70.3873 37.1331C69.9207 36.6931 69.1875 36.7198 68.7475 37.1864C66.6408 39.4264 63.7873 40.6664 60.694 40.6664C54.574 40.6664 49.5872 35.6798 49.5872 29.5597C49.5872 27.6397 50.0807 25.7597 51.014 24.1197C51.334 23.5598 51.1341 22.8531 50.5741 22.5331C50.0141 22.2131 49.3073 22.4131 48.9873 22.9731C47.854 24.9597 47.2539 27.2397 47.2539 29.5597C47.2539 36.5731 52.6673 42.3464 59.5207 42.9331V46.1198H56.5872C55.9472 46.1198 55.4273 46.6398 55.4273 47.2798C55.4273 47.9198 55.9472 48.4398 56.5872 48.4398H64.774C65.414 48.4398 65.934 47.9198 65.934 47.2798C65.934 46.6398 65.414 46.1198 64.774 46.1198H61.8407V42.9331C65.134 42.6398 68.1607 41.1998 70.4407 38.7731Z" fill="#1DA534"/>
</g>
</g>
<path d="M34.1464 57.77C34.8831 57.77 35.5201 57.9087 36.0574 58.186C36.5948 58.4547 37.0021 58.7883 37.2794 59.187C37.5654 59.577 37.7171 59.941 37.7344 60.279C37.7431 60.357 37.7171 60.4263 37.6564 60.487C37.5958 60.539 37.5264 60.565 37.4484 60.565H36.9154C36.7161 60.565 36.5904 60.5173 36.5384 60.422C36.2871 59.9367 35.9838 59.5683 35.6284 59.317C35.2818 59.0657 34.7878 58.94 34.1464 58.94C33.4184 58.94 32.8291 59.148 32.3784 59.564C31.9278 59.9713 31.6894 60.5607 31.6634 61.332C31.6548 61.592 31.6504 61.9517 31.6504 62.411C31.6504 62.8703 31.6548 63.23 31.6634 63.49C31.6894 64.3047 31.9234 64.92 32.3654 65.336C32.8161 65.752 33.4098 65.96 34.1464 65.96C34.9004 65.96 35.5028 65.765 35.9534 65.375C36.4041 64.9763 36.6294 64.3523 36.6294 63.503V63.139H34.7574C34.6621 63.139 34.5798 63.1043 34.5104 63.035C34.4411 62.9657 34.4064 62.8833 34.4064 62.788V62.32C34.4064 62.2247 34.4411 62.1423 34.5104 62.073C34.5798 62.0037 34.6621 61.969 34.7574 61.969H37.5134C37.6088 61.969 37.6911 62.0037 37.7604 62.073C37.8298 62.1423 37.8644 62.2247 37.8644 62.32V63.555C37.8644 64.2483 37.7171 64.868 37.4224 65.414C37.1278 65.9513 36.6988 66.3717 36.1354 66.675C35.5808 66.9783 34.9178 67.13 34.1464 67.13C32.9504 67.13 32.0404 66.8007 31.4164 66.142C30.7924 65.4747 30.4631 64.6123 30.4284 63.555C30.4198 63.295 30.4154 62.9137 30.4154 62.411C30.4154 61.9083 30.4198 61.527 30.4284 61.267C30.4544 60.5997 30.6018 60.006 30.8704 59.486C31.1478 58.9573 31.5594 58.5413 32.1054 58.238C32.6601 57.926 33.3404 57.77 34.1464 57.77ZM42.1752 60.11C43.1025 60.11 43.8348 60.4047 44.3722 60.994C44.9095 61.5833 45.1782 62.385 45.1782 63.399V63.75C45.1782 63.8453 45.1435 63.9277 45.0742 63.997C45.0048 64.0663 44.9225 64.101 44.8272 64.101H40.3552V64.179C40.3725 64.751 40.5458 65.2017 40.8752 65.531C41.2132 65.8517 41.6465 66.012 42.1752 66.012C42.6085 66.012 42.9422 65.9557 43.1762 65.843C43.4188 65.7303 43.6355 65.57 43.8262 65.362C43.8955 65.2927 43.9562 65.245 44.0082 65.219C44.0688 65.193 44.1468 65.18 44.2422 65.18H44.6322C44.7362 65.18 44.8228 65.2147 44.8922 65.284C44.9615 65.3533 44.9918 65.4357 44.9832 65.531C44.9485 65.765 44.8185 66.0077 44.5932 66.259C44.3765 66.5017 44.0602 66.7097 43.6442 66.883C43.2368 67.0477 42.7472 67.13 42.1752 67.13C41.6205 67.13 41.1265 67.0043 40.6932 66.753C40.2598 66.493 39.9132 66.1377 39.6532 65.687C39.4018 65.2363 39.2502 64.7293 39.1982 64.166C39.1808 63.906 39.1722 63.7067 39.1722 63.568C39.1722 63.4293 39.1808 63.23 39.1982 62.97C39.2502 62.4327 39.4018 61.9473 39.6532 61.514C39.9132 61.0807 40.2555 60.7383 40.6802 60.487C41.1135 60.2357 41.6118 60.11 42.1752 60.11ZM44.0082 63.009V62.97C44.0082 62.4413 43.8392 62.021 43.5012 61.709C43.1718 61.3883 42.7298 61.228 42.1752 61.228C41.6725 61.228 41.2435 61.3883 40.8882 61.709C40.5415 62.0297 40.3638 62.45 40.3552 62.97V63.009H44.0082ZM52.5965 63.009C52.6138 63.1997 52.6225 63.4077 52.6225 63.633C52.6225 63.841 52.6138 64.0403 52.5965 64.231C52.5185 65.115 52.2108 65.8213 51.6735 66.35C51.1448 66.87 50.4255 67.13 49.5155 67.13C48.6055 67.13 47.8818 66.87 47.3445 66.35C46.8158 65.8213 46.5125 65.115 46.4345 64.231C46.4258 64.1357 46.4215 63.9363 46.4215 63.633C46.4215 63.3123 46.4258 63.1043 46.4345 63.009C46.5038 62.125 46.8072 61.423 47.3445 60.903C47.8818 60.3743 48.6055 60.11 49.5155 60.11C50.4255 60.11 51.1492 60.3743 51.6865 60.903C52.2238 61.423 52.5272 62.125 52.5965 63.009ZM51.4135 63.074C51.3615 62.5193 51.1752 62.073 50.8545 61.735C50.5425 61.397 50.0962 61.228 49.5155 61.228C48.9348 61.228 48.4842 61.397 48.1635 61.735C47.8515 62.073 47.6695 62.5193 47.6175 63.074C47.6088 63.178 47.6045 63.3643 47.6045 63.633C47.6045 63.893 47.6088 64.0707 47.6175 64.166C47.6695 64.7207 47.8515 65.167 48.1635 65.505C48.4842 65.843 48.9348 66.012 49.5155 66.012C50.0962 66.012 50.5425 65.843 50.8545 65.505C51.1752 65.167 51.3615 64.7207 51.4135 64.166C51.4308 63.9753 51.4395 63.7977 51.4395 63.633C51.4395 63.4683 51.4308 63.282 51.4135 63.074ZM56.8754 60.11C57.3607 60.11 57.7681 60.1967 58.0974 60.37C58.4354 60.5347 58.6997 60.7427 58.8904 60.994V60.591C58.8904 60.4957 58.9251 60.4133 58.9944 60.344C59.0637 60.2747 59.1461 60.24 59.2414 60.24H59.7224C59.8177 60.24 59.9001 60.2747 59.9694 60.344C60.0387 60.4133 60.0734 60.4957 60.0734 60.591V66.909C60.0734 67.8277 59.8134 68.547 59.2934 69.067C58.7734 69.5957 58.0107 69.86 57.0054 69.86C56.3554 69.86 55.8094 69.7603 55.3674 69.561C54.9254 69.3617 54.5961 69.1147 54.3794 68.82C54.1714 68.5253 54.0587 68.2263 54.0414 67.923C54.0327 67.8277 54.0631 67.7453 54.1324 67.676C54.2104 67.6067 54.2971 67.572 54.3924 67.572H54.7824C54.8864 67.572 54.9687 67.598 55.0294 67.65C55.0901 67.702 55.1507 67.793 55.2114 67.923C55.2981 68.1223 55.4627 68.3087 55.7054 68.482C55.9481 68.6553 56.3381 68.742 56.8754 68.742C58.2187 68.742 58.8904 68.183 58.8904 67.065V66.246C58.4484 66.8353 57.7767 67.13 56.8754 67.13C56.3381 67.13 55.8484 67.0043 55.4064 66.753C54.9731 66.5017 54.6221 66.1463 54.3534 65.687C54.0934 65.219 53.9504 64.673 53.9244 64.049L53.9114 63.62L53.9244 63.191C53.9504 62.567 54.0934 62.0253 54.3534 61.566C54.6221 61.098 54.9731 60.7383 55.4064 60.487C55.8397 60.2357 56.3294 60.11 56.8754 60.11ZM57.0054 61.228C56.4421 61.228 55.9914 61.41 55.6534 61.774C55.3241 62.138 55.1421 62.632 55.1074 63.256L55.0944 63.62L55.1074 63.984C55.1421 64.608 55.3241 65.102 55.6534 65.466C55.9914 65.83 56.4421 66.012 57.0054 66.012C57.5601 66.012 58.0064 65.843 58.3444 65.505C58.6824 65.1583 58.8644 64.686 58.8904 64.088C58.8991 64.0013 58.9034 63.8453 58.9034 63.62C58.9034 63.3947 58.8991 63.2387 58.8904 63.152C58.8644 62.5453 58.6824 62.073 58.3444 61.735C58.0064 61.397 57.5601 61.228 57.0054 61.228ZM65.4509 60.24C65.5463 60.24 65.6286 60.2747 65.6979 60.344C65.7673 60.4133 65.8019 60.4957 65.8019 60.591V61.007C65.8019 61.1023 65.7673 61.1847 65.6979 61.254C65.6286 61.3233 65.5463 61.358 65.4509 61.358H64.6969C64.2116 61.358 63.8389 61.488 63.5789 61.748C63.3276 61.9993 63.2019 62.3677 63.2019 62.853V66.649C63.2019 66.7443 63.1673 66.8267 63.0979 66.896C63.0286 66.9653 62.9463 67 62.8509 67H62.3699C62.2746 67 62.1923 66.9653 62.1229 66.896C62.0536 66.8267 62.0189 66.7443 62.0189 66.649V60.591C62.0189 60.4957 62.0536 60.4133 62.1229 60.344C62.1923 60.2747 62.2746 60.24 62.3699 60.24H62.8509C62.9463 60.24 63.0286 60.2747 63.0979 60.344C63.1673 60.4133 63.2019 60.4957 63.2019 60.591V60.994C63.3753 60.734 63.5833 60.5433 63.8259 60.422C64.0686 60.3007 64.3849 60.24 64.7749 60.24H65.4509ZM70.949 62.723V62.554C70.949 62.1293 70.806 61.8043 70.52 61.579C70.2427 61.345 69.8787 61.228 69.428 61.228C69.0814 61.228 68.8084 61.2887 68.609 61.41C68.4184 61.5227 68.2364 61.696 68.063 61.93C68.011 61.9993 67.9547 62.047 67.894 62.073C67.8334 62.099 67.751 62.112 67.647 62.112H67.257C67.1617 62.112 67.075 62.0773 66.997 62.008C66.9277 61.9387 66.8974 61.8563 66.906 61.761C66.932 61.501 67.0577 61.2453 67.283 60.994C67.517 60.734 67.8247 60.5217 68.206 60.357C68.5874 60.1923 68.9947 60.11 69.428 60.11C70.234 60.11 70.884 60.3353 71.378 60.786C71.8807 61.2367 72.132 61.8693 72.132 62.684V66.649C72.132 66.7443 72.0974 66.8267 72.028 66.896C71.9587 66.9653 71.8764 67 71.781 67H71.3C71.2047 67 71.1224 66.9653 71.053 66.896C70.9837 66.8267 70.949 66.7443 70.949 66.649V66.116C70.8104 66.428 70.5157 66.675 70.065 66.857C69.6144 67.039 69.1637 67.13 68.713 67.13C68.271 67.13 67.8767 67.052 67.53 66.896C67.1834 66.7313 66.9147 66.5103 66.724 66.233C66.542 65.9557 66.451 65.6437 66.451 65.297C66.451 64.647 66.6937 64.14 67.179 63.776C67.6644 63.4033 68.31 63.152 69.116 63.022L70.949 62.723ZM70.949 63.763L69.415 64.01C68.8517 64.0967 68.414 64.2397 68.102 64.439C67.79 64.6297 67.634 64.8723 67.634 65.167C67.634 65.3837 67.7337 65.5787 67.933 65.752C68.1324 65.9253 68.4357 66.012 68.843 66.012C69.467 66.012 69.974 65.8343 70.364 65.479C70.754 65.1237 70.949 64.66 70.949 64.088V63.763ZM77.5777 60.24C77.673 60.24 77.7554 60.2747 77.8247 60.344C77.894 60.4133 77.9287 60.4957 77.9287 60.591V61.007C77.9287 61.1023 77.894 61.1847 77.8247 61.254C77.7554 61.3233 77.673 61.358 77.5777 61.358H75.9267V66.649C75.9267 66.7443 75.892 66.8267 75.8227 66.896C75.7534 66.9653 75.671 67 75.5757 67H75.0947C74.9994 67 74.917 66.9653 74.8477 66.896C74.7784 66.8267 74.7437 66.7443 74.7437 66.649V61.358H73.6517C73.5564 61.358 73.474 61.3233 73.4047 61.254C73.3354 61.1847 73.3007 61.1023 73.3007 61.007V60.591C73.3007 60.4957 73.3354 60.4133 73.4047 60.344C73.474 60.2747 73.5564 60.24 73.6517 60.24H74.7437V59.59C74.7437 58.8447 74.917 58.29 75.2637 57.926C75.6104 57.562 76.152 57.38 76.8887 57.38H77.7077C77.803 57.38 77.8854 57.4147 77.9547 57.484C78.024 57.5533 78.0587 57.6357 78.0587 57.731V58.147C78.0587 58.2423 78.024 58.3247 77.9547 58.394C77.8854 58.4633 77.803 58.498 77.7077 58.498H77.0187C76.594 58.498 76.3037 58.5977 76.1477 58.797C76.0004 58.9963 75.9267 59.2823 75.9267 59.655V60.24H77.5777ZM80.2771 66.649C80.2771 66.7443 80.2425 66.8267 80.1731 66.896C80.1038 66.9653 80.0215 67 79.9261 67H79.4451C79.3498 67 79.2675 66.9653 79.1981 66.896C79.1288 66.8267 79.0941 66.7443 79.0941 66.649V60.591C79.0941 60.4957 79.1288 60.4133 79.1981 60.344C79.2675 60.2747 79.3498 60.24 79.4451 60.24H79.9261C80.0215 60.24 80.1038 60.2747 80.1731 60.344C80.2425 60.4133 80.2771 60.4957 80.2771 60.591V66.649ZM80.0691 57.692C80.1645 57.588 80.2425 57.523 80.3031 57.497C80.3638 57.4623 80.4461 57.445 80.5501 57.445H81.5121C81.5901 57.445 81.6508 57.471 81.6941 57.523C81.7375 57.5663 81.7591 57.627 81.7591 57.705C81.7591 57.7657 81.7375 57.8177 81.6941 57.861L80.2511 59.044C80.1558 59.122 80.0691 59.1783 79.9911 59.213C79.9218 59.2477 79.8265 59.265 79.7051 59.265H79.2241C79.0855 59.265 79.0161 59.1957 79.0161 59.057C79.0161 58.9877 79.0378 58.9313 79.0811 58.888L80.0691 57.692ZM86.2469 62.723V62.554C86.2469 62.1293 86.1039 61.8043 85.8179 61.579C85.5405 61.345 85.1765 61.228 84.7259 61.228C84.3792 61.228 84.1062 61.2887 83.9069 61.41C83.7162 61.5227 83.5342 61.696 83.3609 61.93C83.3089 61.9993 83.2525 62.047 83.1919 62.073C83.1312 62.099 83.0489 62.112 82.9449 62.112H82.5549C82.4595 62.112 82.3729 62.0773 82.2949 62.008C82.2255 61.9387 82.1952 61.8563 82.2039 61.761C82.2299 61.501 82.3555 61.2453 82.5809 60.994C82.8149 60.734 83.1225 60.5217 83.5039 60.357C83.8852 60.1923 84.2925 60.11 84.7259 60.11C85.5319 60.11 86.1819 60.3353 86.6759 60.786C87.1785 61.2367 87.4299 61.8693 87.4299 62.684V66.649C87.4299 66.7443 87.3952 66.8267 87.3259 66.896C87.2565 66.9653 87.1742 67 87.0789 67H86.5979C86.5025 67 86.4202 66.9653 86.3509 66.896C86.2815 66.8267 86.2469 66.7443 86.2469 66.649V66.116C86.1082 66.428 85.8135 66.675 85.3629 66.857C84.9122 67.039 84.4615 67.13 84.0109 67.13C83.5689 67.13 83.1745 67.052 82.8279 66.896C82.4812 66.7313 82.2125 66.5103 82.0219 66.233C81.8399 65.9557 81.7489 65.6437 81.7489 65.297C81.7489 64.647 81.9915 64.14 82.4769 63.776C82.9622 63.4033 83.6079 63.152 84.4139 63.022L86.2469 62.723ZM86.2469 63.763L84.7129 64.01C84.1495 64.0967 83.7119 64.2397 83.3999 64.439C83.0879 64.6297 82.9319 64.8723 82.9319 65.167C82.9319 65.3837 83.0315 65.5787 83.2309 65.752C83.4302 65.9253 83.7335 66.012 84.1409 66.012C84.7649 66.012 85.2719 65.8343 85.6619 65.479C86.0519 65.1237 86.2469 64.66 86.2469 64.088V63.763Z" fill="#EBECEE"/>
<rect x="40" y="74" width="38" height="25" rx="12.5" fill="#1DA534"/>
<path d="M57.1579 84.854C57.1766 85.1153 57.1859 85.5353 57.1859 86.114C57.1859 86.6833 57.1766 87.094 57.1579 87.346C57.0926 88.4567 56.7239 89.3667 56.0519 90.076C55.3892 90.7853 54.3952 91.14 53.0699 91.14C51.7446 91.14 50.7459 90.7853 50.0739 90.076C49.4112 89.3667 49.0472 88.4567 48.9819 87.346C48.9632 86.842 48.9539 86.4313 48.9539 86.114C48.9539 85.7967 48.9632 85.3767 48.9819 84.854C49.0472 83.7433 49.4112 82.8333 50.0739 82.124C50.7459 81.4147 51.7446 81.06 53.0699 81.06C54.3952 81.06 55.3892 81.4147 56.0519 82.124C56.7239 82.8333 57.0926 83.7433 57.1579 84.854ZM54.5679 84.924C54.5399 84.4107 54.4139 84.014 54.1899 83.734C53.9659 83.4447 53.5926 83.3 53.0699 83.3C52.5472 83.3 52.1739 83.4447 51.9499 83.734C51.7259 84.014 51.5999 84.4107 51.5719 84.924C51.5532 85.428 51.5439 85.8153 51.5439 86.086C51.5439 86.338 51.5532 86.7347 51.5719 87.276C51.5906 87.7893 51.7119 88.1907 51.9359 88.48C52.1692 88.76 52.5472 88.9 53.0699 88.9C53.5926 88.9 53.9659 88.76 54.1899 88.48C54.4232 88.1907 54.5492 87.7893 54.5679 87.276C54.5866 87.0053 54.5959 86.6087 54.5959 86.086C54.5959 85.5633 54.5866 85.176 54.5679 84.924ZM62.7646 84.182C62.7366 84.77 62.5359 85.2507 62.1626 85.624C61.7986 85.988 61.2666 86.17 60.5666 86.17C59.8666 86.17 59.3346 85.988 58.9706 85.624C58.6159 85.26 58.4152 84.7793 58.3686 84.182C58.3592 84.0607 58.3546 83.888 58.3546 83.664C58.3546 83.4307 58.3592 83.2487 58.3686 83.118C58.4152 82.5207 58.6159 82.04 58.9706 81.676C59.3346 81.312 59.8666 81.13 60.5666 81.13C61.2666 81.13 61.7939 81.312 62.1486 81.676C62.5126 82.04 62.7179 82.5207 62.7646 83.118C62.7832 83.3793 62.7926 83.5613 62.7926 83.664C62.7926 83.7667 62.7832 83.9393 62.7646 84.182ZM66.2646 81.466C66.3392 81.3727 66.4092 81.3073 66.4746 81.27C66.5492 81.2233 66.6472 81.2 66.7686 81.2H67.9166C68.0192 81.2 68.0986 81.228 68.1546 81.284C68.2199 81.3307 68.2526 81.396 68.2526 81.48C68.2526 81.536 68.2339 81.5873 68.1966 81.634L61.2806 90.734C61.2059 90.8273 61.1312 90.8973 61.0566 90.944C60.9912 90.9813 60.8979 91 60.7766 91H59.6286C59.5259 91 59.4419 90.9767 59.3766 90.93C59.3206 90.874 59.2926 90.804 59.2926 90.72C59.2926 90.664 59.3112 90.6127 59.3486 90.566L66.2646 81.466ZM60.5666 84.84C60.7626 84.84 60.9026 84.784 60.9866 84.672C61.0706 84.56 61.1219 84.3733 61.1406 84.112C61.1592 83.888 61.1686 83.734 61.1686 83.65C61.1686 83.5473 61.1592 83.3933 61.1406 83.188C61.1219 82.9267 61.0706 82.74 60.9866 82.628C60.9026 82.516 60.7626 82.46 60.5666 82.46C60.3706 82.46 60.2306 82.516 60.1466 82.628C60.0626 82.74 60.0112 82.9267 59.9926 83.188C59.9832 83.2907 59.9786 83.4447 59.9786 83.65C59.9786 83.846 59.9832 84 59.9926 84.112C60.0112 84.3733 60.0626 84.56 60.1466 84.672C60.2306 84.784 60.3706 84.84 60.5666 84.84ZM69.2606 89.082C69.2326 89.67 69.0319 90.1507 68.6586 90.524C68.2946 90.888 67.7626 91.07 67.0626 91.07C66.3626 91.07 65.8306 90.888 65.4666 90.524C65.1119 90.16 64.9112 89.6793 64.8646 89.082C64.8552 88.9607 64.8506 88.788 64.8506 88.564C64.8506 88.3307 64.8552 88.1487 64.8646 88.018C64.9112 87.4207 65.1119 86.94 65.4666 86.576C65.8306 86.212 66.3626 86.03 67.0626 86.03C67.7626 86.03 68.2899 86.212 68.6446 86.576C69.0086 86.94 69.2139 87.4207 69.2606 88.018C69.2792 88.2793 69.2886 88.4613 69.2886 88.564C69.2886 88.6667 69.2792 88.8393 69.2606 89.082ZM67.0626 89.74C67.2586 89.74 67.3986 89.684 67.4826 89.572C67.5666 89.46 67.6179 89.2733 67.6366 89.012C67.6552 88.788 67.6646 88.634 67.6646 88.55C67.6646 88.4473 67.6552 88.2933 67.6366 88.088C67.6179 87.8267 67.5666 87.64 67.4826 87.528C67.3986 87.416 67.2586 87.36 67.0626 87.36C66.8666 87.36 66.7266 87.416 66.6426 87.528C66.5586 87.64 66.5072 87.8267 66.4886 88.088C66.4792 88.1907 66.4746 88.3447 66.4746 88.55C66.4746 88.746 66.4792 88.9 66.4886 89.012C66.5072 89.2733 66.5586 89.46 66.6426 89.572C66.7266 89.684 66.8666 89.74 67.0626 89.74Z" fill="#EBECEE"/>
<rect x="87" y="13" width="34" height="34" rx="17" fill="white"/>
<rect x="87" y="13" width="34" height="34" rx="17" stroke="#1DA534" stroke-width="2"/>
<path opacity="0.4" d="M104 40C109.523 40 114 35.5228 114 30C114 24.4772 109.523 20 104 20C98.4772 20 94 24.4772 94 30C94 35.5228 98.4772 40 104 40Z" fill="#1DA534"/>
<path d="M102.579 33.5801C102.379 33.5801 102.189 33.5001 102.049 33.3601L99.2195 30.5301C98.9295 30.2401 98.9295 29.7601 99.2195 29.4701C99.5095 29.1801 99.9895 29.1801 100.279 29.4701L102.579 31.7701L107.719 26.6301C108.009 26.3401 108.489 26.3401 108.779 26.6301C109.069 26.9201 109.069 27.4001 108.779 27.6901L103.109 33.3601C102.969 33.5001 102.779 33.5801 102.579 33.5801Z" fill="#1DA534"/>
<defs>
<clipPath id="clip0_34428_9654">
<rect width="32" height="32" fill="white" transform="translate(43 19)"/>
</clipPath>
</defs>
</svg>
