<svg width="242" height="238" viewBox="0 0 242 238" fill="none" xmlns="http://www.w3.org/2000/svg">
<g filter="url(#filter0_d_15958_23156)">
<rect x="64" y="64" width="110" height="110" rx="55" fill="#FFC800" fill-opacity="0.15" shape-rendering="crispEdges"/>
<rect x="62" y="62" width="114" height="114" rx="57" stroke="#FFC800" stroke-width="4" shape-rendering="crispEdges"/>
<g clip-path="url(#clip0_15958_23156)">
<mask id="mask0_15958_23156" style="mask-type:luminance" maskUnits="userSpaceOnUse" x="103" y="79" width="32" height="32">
<path d="M135 79H103V111H135V79Z" fill="white"/>
</mask>
<g mask="url(#mask0_15958_23156)">
<path opacity="0.4" d="M113.667 108.333H124.333C128.013 108.333 131 105.347 131 101.667V88.3332C131 84.6532 128.013 81.6665 124.333 81.6665H113.667C109.987 81.6665 107 84.6532 107 88.3332V101.667C107 105.347 109.987 108.333 113.667 108.333Z" fill="#E8B600"/>
<path d="M123.001 86.6143H115.001C113.627 86.6143 112.494 87.7343 112.494 89.1209V90.4543C112.494 91.8276 113.614 92.9609 115.001 92.9609H123.001C124.374 92.9609 125.507 91.8409 125.507 90.4543V89.1209C125.507 87.7343 124.387 86.6143 123.001 86.6143Z" fill="#E8B600"/>
<path d="M113.88 98.8944C113.693 98.8944 113.52 98.8544 113.36 98.7877C113.2 98.7211 113.053 98.6277 112.933 98.5077C112.68 98.2544 112.533 97.9211 112.533 97.5611C112.533 97.3877 112.573 97.2144 112.64 97.0544C112.707 96.8811 112.8 96.7477 112.933 96.6144C113.24 96.3077 113.707 96.1611 114.133 96.2544C114.213 96.2677 114.307 96.2944 114.387 96.3344C114.467 96.3611 114.547 96.4011 114.613 96.4544C114.693 96.4944 114.76 96.5611 114.813 96.6144C114.933 96.7477 115.04 96.8811 115.107 97.0544C115.173 97.2144 115.2 97.3877 115.2 97.5611C115.2 97.9211 115.067 98.2544 114.813 98.5077C114.56 98.7611 114.227 98.8944 113.88 98.8944Z" fill="#E8B600"/>
<path d="M119.201 98.8922C118.854 98.8922 118.521 98.7589 118.267 98.5055C118.014 98.2522 117.867 97.9189 117.867 97.5589C117.867 97.2122 118.014 96.8655 118.267 96.6122C118.761 96.1189 119.654 96.1189 120.147 96.6122C120.267 96.7455 120.374 96.8789 120.441 97.0522C120.507 97.2122 120.534 97.3855 120.534 97.5589C120.534 97.9189 120.401 98.2522 120.147 98.5055C119.894 98.7589 119.561 98.8922 119.201 98.8922Z" fill="#E8B600"/>
<path d="M124.533 98.8922C124.186 98.8922 123.853 98.7589 123.599 98.5055C123.346 98.2522 123.199 97.9189 123.199 97.5589C123.199 97.2122 123.346 96.8655 123.599 96.6122C124.093 96.1189 124.986 96.1189 125.479 96.6122C125.733 96.8655 125.879 97.2122 125.879 97.5589C125.879 97.7322 125.839 97.9055 125.773 98.0655C125.706 98.2255 125.613 98.3722 125.479 98.5055C125.226 98.7589 124.893 98.8922 124.533 98.8922Z" fill="#E8B600"/>
<path d="M113.88 104.227C113.52 104.227 113.187 104.094 112.933 103.841C112.68 103.587 112.533 103.254 112.533 102.894C112.533 102.547 112.68 102.201 112.933 101.947C113.053 101.827 113.2 101.734 113.36 101.667C113.693 101.534 114.053 101.534 114.387 101.667C114.467 101.694 114.547 101.734 114.613 101.787C114.693 101.827 114.76 101.894 114.813 101.947C115.067 102.201 115.213 102.547 115.213 102.894C115.213 103.254 115.067 103.587 114.813 103.841C114.56 104.094 114.227 104.227 113.88 104.227Z" fill="#E8B600"/>
<path d="M119.201 104.227C118.854 104.227 118.521 104.093 118.267 103.84C118.014 103.587 117.867 103.253 117.867 102.893C117.867 102.8 117.881 102.72 117.894 102.627C117.921 102.547 117.947 102.467 117.974 102.387C118.014 102.307 118.054 102.227 118.094 102.147C118.147 102.08 118.201 102.013 118.267 101.947C118.387 101.827 118.534 101.733 118.694 101.667C119.187 101.467 119.774 101.573 120.147 101.947C120.401 102.2 120.534 102.547 120.534 102.893C120.534 103.253 120.401 103.587 120.147 103.84C120.027 103.96 119.881 104.053 119.721 104.12C119.561 104.187 119.387 104.227 119.201 104.227Z" fill="#E8B600"/>
<path d="M124.533 104.227C124.36 104.227 124.186 104.187 124.026 104.12C123.866 104.053 123.72 103.96 123.6 103.84C123.346 103.587 123.213 103.253 123.213 102.893C123.213 102.547 123.346 102.2 123.6 101.947C123.96 101.573 124.56 101.467 125.053 101.667C125.213 101.733 125.36 101.827 125.48 101.947C125.733 102.2 125.866 102.547 125.866 102.893C125.866 103.253 125.733 103.587 125.48 103.84C125.226 104.093 124.893 104.227 124.533 104.227Z" fill="#E8B600"/>
</g>
</g>
<path d="M93.3826 127C93.2873 127 93.2136 126.974 93.1616 126.922C93.1096 126.861 93.0836 126.788 93.0836 126.701V118.212C93.0836 118.117 93.1096 118.043 93.1616 117.991C93.2136 117.93 93.2873 117.9 93.3826 117.9H98.6866C98.782 117.9 98.8556 117.93 98.9076 117.991C98.9596 118.043 98.9856 118.117 98.9856 118.212V118.732C98.9856 118.827 98.9596 118.901 98.9076 118.953C98.8556 119.005 98.782 119.031 98.6866 119.031H94.3446V122.06H98.4266C98.522 122.06 98.5956 122.09 98.6476 122.151C98.6996 122.203 98.7256 122.277 98.7256 122.372V122.892C98.7256 122.979 98.6996 123.052 98.6476 123.113C98.5956 123.165 98.522 123.191 98.4266 123.191H94.3446V126.701C94.3446 126.788 94.3143 126.861 94.2536 126.922C94.2016 126.974 94.128 127 94.0326 127H93.3826ZM100.805 127C100.719 127 100.645 126.974 100.584 126.922C100.532 126.861 100.506 126.788 100.506 126.701V120.539C100.506 120.452 100.532 120.383 100.584 120.331C100.645 120.27 100.719 120.24 100.805 120.24H101.429C101.516 120.24 101.585 120.27 101.637 120.331C101.689 120.383 101.715 120.452 101.715 120.539V126.701C101.715 126.788 101.689 126.861 101.637 126.922C101.585 126.974 101.516 127 101.429 127H100.805ZM100.701 118.979C100.615 118.979 100.541 118.953 100.48 118.901C100.428 118.84 100.402 118.767 100.402 118.68V117.978C100.402 117.891 100.428 117.822 100.48 117.77C100.541 117.709 100.615 117.679 100.701 117.679H101.52C101.607 117.679 101.676 117.709 101.728 117.77C101.789 117.822 101.819 117.891 101.819 117.978V118.68C101.819 118.767 101.789 118.84 101.728 118.901C101.676 118.953 101.607 118.979 101.52 118.979H100.701ZM103.954 127C103.867 127 103.794 126.974 103.733 126.922C103.681 126.861 103.655 126.788 103.655 126.701V120.539C103.655 120.452 103.681 120.383 103.733 120.331C103.794 120.27 103.867 120.24 103.954 120.24H104.565C104.652 120.24 104.721 120.27 104.773 120.331C104.834 120.383 104.864 120.452 104.864 120.539V121.111C105.089 120.816 105.371 120.578 105.709 120.396C106.056 120.205 106.498 120.11 107.035 120.11C107.598 120.11 108.075 120.236 108.465 120.487C108.864 120.73 109.163 121.072 109.362 121.514C109.561 121.947 109.661 122.454 109.661 123.035V126.701C109.661 126.788 109.635 126.861 109.583 126.922C109.531 126.974 109.462 127 109.375 127H108.725C108.638 127 108.565 126.974 108.504 126.922C108.452 126.861 108.426 126.788 108.426 126.701V123.1C108.426 122.493 108.279 122.021 107.984 121.683C107.689 121.336 107.256 121.163 106.684 121.163C106.147 121.163 105.713 121.336 105.384 121.683C105.063 122.021 104.903 122.493 104.903 123.1V126.701C104.903 126.788 104.873 126.861 104.812 126.922C104.76 126.974 104.691 127 104.604 127H103.954ZM113.424 127.13C112.99 127.13 112.596 127.043 112.241 126.87C111.885 126.697 111.599 126.463 111.383 126.168C111.166 125.873 111.058 125.54 111.058 125.167C111.058 124.569 111.3 124.092 111.786 123.737C112.271 123.382 112.904 123.148 113.684 123.035L115.621 122.762V122.385C115.621 121.969 115.499 121.644 115.257 121.41C115.023 121.176 114.637 121.059 114.1 121.059C113.71 121.059 113.393 121.137 113.151 121.293C112.917 121.449 112.752 121.648 112.657 121.891C112.605 122.021 112.514 122.086 112.384 122.086H111.799C111.703 122.086 111.63 122.06 111.578 122.008C111.534 121.947 111.513 121.878 111.513 121.8C111.513 121.67 111.56 121.51 111.656 121.319C111.76 121.128 111.916 120.942 112.124 120.76C112.332 120.578 112.596 120.426 112.917 120.305C113.246 120.175 113.645 120.11 114.113 120.11C114.633 120.11 115.07 120.179 115.426 120.318C115.781 120.448 116.058 120.626 116.258 120.851C116.466 121.076 116.613 121.332 116.7 121.618C116.795 121.904 116.843 122.194 116.843 122.489V126.701C116.843 126.788 116.812 126.861 116.752 126.922C116.7 126.974 116.63 127 116.544 127H115.946C115.85 127 115.777 126.974 115.725 126.922C115.673 126.861 115.647 126.788 115.647 126.701V126.142C115.534 126.298 115.382 126.454 115.192 126.61C115.001 126.757 114.763 126.883 114.477 126.987C114.191 127.082 113.84 127.13 113.424 127.13ZM113.697 126.155C114.052 126.155 114.377 126.081 114.672 125.934C114.966 125.778 115.196 125.54 115.361 125.219C115.534 124.898 115.621 124.495 115.621 124.01V123.646L114.113 123.867C113.497 123.954 113.034 124.101 112.722 124.309C112.41 124.508 112.254 124.764 112.254 125.076C112.254 125.319 112.323 125.522 112.462 125.687C112.609 125.843 112.791 125.96 113.008 126.038C113.233 126.116 113.463 126.155 113.697 126.155ZM119.011 127C118.924 127 118.85 126.974 118.79 126.922C118.738 126.861 118.712 126.788 118.712 126.701V120.539C118.712 120.452 118.738 120.383 118.79 120.331C118.85 120.27 118.924 120.24 119.011 120.24H119.622C119.708 120.24 119.778 120.27 119.83 120.331C119.89 120.383 119.921 120.452 119.921 120.539V121.111C120.146 120.816 120.428 120.578 120.766 120.396C121.112 120.205 121.554 120.11 122.092 120.11C122.655 120.11 123.132 120.236 123.522 120.487C123.92 120.73 124.219 121.072 124.419 121.514C124.618 121.947 124.718 122.454 124.718 123.035V126.701C124.718 126.788 124.692 126.861 124.64 126.922C124.588 126.974 124.518 127 124.432 127H123.782C123.695 127 123.621 126.974 123.561 126.922C123.509 126.861 123.483 126.788 123.483 126.701V123.1C123.483 122.493 123.335 122.021 123.041 121.683C122.746 121.336 122.313 121.163 121.741 121.163C121.203 121.163 120.77 121.336 120.441 121.683C120.12 122.021 119.96 122.493 119.96 123.1V126.701C119.96 126.788 119.929 126.861 119.869 126.922C119.817 126.974 119.747 127 119.661 127H119.011ZM126.465 127C126.379 127 126.305 126.974 126.244 126.922C126.192 126.861 126.166 126.788 126.166 126.701V126.246C126.166 126.168 126.184 126.094 126.218 126.025C126.262 125.956 126.305 125.891 126.348 125.83L129.936 121.267H126.582C126.496 121.267 126.422 121.241 126.361 121.189C126.309 121.137 126.283 121.063 126.283 120.968V120.539C126.283 120.452 126.309 120.383 126.361 120.331C126.422 120.27 126.496 120.24 126.582 120.24H131.21C131.297 120.24 131.366 120.27 131.418 120.331C131.479 120.383 131.509 120.452 131.509 120.539V121.02C131.509 121.098 131.488 121.167 131.444 121.228C131.41 121.289 131.371 121.354 131.327 121.423L127.778 125.973H131.47C131.557 125.973 131.626 125.999 131.678 126.051C131.739 126.103 131.769 126.177 131.769 126.272V126.701C131.769 126.788 131.739 126.861 131.678 126.922C131.626 126.974 131.557 127 131.47 127H126.465ZM135.095 127.13C134.661 127.13 134.267 127.043 133.912 126.87C133.556 126.697 133.27 126.463 133.054 126.168C132.837 125.873 132.729 125.54 132.729 125.167C132.729 124.569 132.971 124.092 133.457 123.737C133.942 123.382 134.575 123.148 135.355 123.035L137.292 122.762V122.385C137.292 121.969 137.17 121.644 136.928 121.41C136.694 121.176 136.308 121.059 135.771 121.059C135.381 121.059 135.064 121.137 134.822 121.293C134.588 121.449 134.423 121.648 134.328 121.891C134.276 122.021 134.185 122.086 134.055 122.086H133.47C133.374 122.086 133.301 122.06 133.249 122.008C133.205 121.947 133.184 121.878 133.184 121.8C133.184 121.67 133.231 121.51 133.327 121.319C133.431 121.128 133.587 120.942 133.795 120.76C134.003 120.578 134.267 120.426 134.588 120.305C134.917 120.175 135.316 120.11 135.784 120.11C136.304 120.11 136.741 120.179 137.097 120.318C137.452 120.448 137.729 120.626 137.929 120.851C138.137 121.076 138.284 121.332 138.371 121.618C138.466 121.904 138.514 122.194 138.514 122.489V126.701C138.514 126.788 138.483 126.861 138.423 126.922C138.371 126.974 138.301 127 138.215 127H137.617C137.521 127 137.448 126.974 137.396 126.922C137.344 126.861 137.318 126.788 137.318 126.701V126.142C137.205 126.298 137.053 126.454 136.863 126.61C136.672 126.757 136.434 126.883 136.148 126.987C135.862 127.082 135.511 127.13 135.095 127.13ZM135.368 126.155C135.723 126.155 136.048 126.081 136.343 125.934C136.637 125.778 136.867 125.54 137.032 125.219C137.205 124.898 137.292 124.495 137.292 124.01V123.646L135.784 123.867C135.168 123.954 134.705 124.101 134.393 124.309C134.081 124.508 133.925 124.764 133.925 125.076C133.925 125.319 133.994 125.522 134.133 125.687C134.28 125.843 134.462 125.96 134.679 126.038C134.904 126.116 135.134 126.155 135.368 126.155ZM142.722 127.13C142.237 127.13 141.821 127.069 141.474 126.948C141.128 126.827 140.846 126.679 140.629 126.506C140.413 126.333 140.248 126.159 140.135 125.986C140.031 125.813 139.975 125.674 139.966 125.57C139.958 125.475 139.988 125.401 140.057 125.349C140.127 125.297 140.196 125.271 140.265 125.271H140.837C140.889 125.271 140.928 125.28 140.954 125.297C140.989 125.306 141.032 125.34 141.084 125.401C141.197 125.522 141.323 125.644 141.461 125.765C141.6 125.886 141.769 125.986 141.968 126.064C142.176 126.142 142.432 126.181 142.735 126.181C143.177 126.181 143.541 126.099 143.827 125.934C144.113 125.761 144.256 125.509 144.256 125.18C144.256 124.963 144.196 124.79 144.074 124.66C143.962 124.53 143.754 124.413 143.45 124.309C143.156 124.205 142.748 124.097 142.228 123.984C141.708 123.863 141.297 123.715 140.993 123.542C140.69 123.36 140.473 123.148 140.343 122.905C140.213 122.654 140.148 122.372 140.148 122.06C140.148 121.739 140.244 121.432 140.434 121.137C140.625 120.834 140.902 120.587 141.266 120.396C141.639 120.205 142.103 120.11 142.657 120.11C143.108 120.11 143.494 120.166 143.814 120.279C144.135 120.392 144.399 120.535 144.607 120.708C144.815 120.873 144.971 121.037 145.075 121.202C145.179 121.367 145.236 121.505 145.244 121.618C145.253 121.705 145.227 121.778 145.166 121.839C145.106 121.891 145.036 121.917 144.958 121.917H144.412C144.352 121.917 144.3 121.904 144.256 121.878C144.222 121.852 144.187 121.822 144.152 121.787C144.066 121.674 143.962 121.562 143.84 121.449C143.728 121.336 143.576 121.245 143.385 121.176C143.203 121.098 142.961 121.059 142.657 121.059C142.224 121.059 141.899 121.15 141.682 121.332C141.466 121.514 141.357 121.744 141.357 122.021C141.357 122.186 141.405 122.333 141.5 122.463C141.596 122.593 141.778 122.71 142.046 122.814C142.315 122.918 142.714 123.031 143.242 123.152C143.814 123.265 144.265 123.416 144.594 123.607C144.924 123.798 145.158 124.019 145.296 124.27C145.435 124.521 145.504 124.812 145.504 125.141C145.504 125.505 145.396 125.839 145.179 126.142C144.971 126.445 144.659 126.688 144.243 126.87C143.836 127.043 143.329 127.13 142.722 127.13Z" fill="#EBECEE"/>
<rect x="100.5" y="134" width="37" height="25" rx="12.5" fill="#E8B600"/>
<path d="M113.342 151.14C112.67 151.14 112.086 151.047 111.592 150.86C111.097 150.664 110.686 150.398 110.36 150.062C110.042 149.726 109.8 149.334 109.632 148.886C109.464 148.438 109.366 147.957 109.338 147.444C109.328 147.192 109.319 146.907 109.31 146.59C109.31 146.263 109.31 145.937 109.31 145.61C109.319 145.274 109.328 144.975 109.338 144.714C109.366 144.201 109.464 143.725 109.632 143.286C109.809 142.838 110.061 142.451 110.388 142.124C110.724 141.788 111.134 141.527 111.62 141.34C112.114 141.153 112.688 141.06 113.342 141.06C114.004 141.06 114.578 141.153 115.064 141.34C115.549 141.527 115.955 141.788 116.282 142.124C116.618 142.451 116.874 142.838 117.052 143.286C117.229 143.725 117.327 144.201 117.346 144.714C117.364 144.975 117.374 145.274 117.374 145.61C117.383 145.937 117.383 146.263 117.374 146.59C117.374 146.907 117.364 147.192 117.346 147.444C117.327 147.957 117.229 148.438 117.052 148.886C116.884 149.334 116.636 149.726 116.31 150.062C115.992 150.398 115.586 150.664 115.092 150.86C114.606 151.047 114.023 151.14 113.342 151.14ZM113.342 149.11C113.827 149.11 114.177 148.956 114.392 148.648C114.616 148.331 114.732 147.906 114.742 147.374C114.76 147.103 114.77 146.819 114.77 146.52C114.779 146.221 114.779 145.923 114.77 145.624C114.77 145.325 114.76 145.05 114.742 144.798C114.732 144.285 114.616 143.869 114.392 143.552C114.177 143.235 113.827 143.071 113.342 143.062C112.856 143.071 112.506 143.235 112.292 143.552C112.077 143.869 111.96 144.285 111.942 144.798C111.932 145.05 111.923 145.325 111.914 145.624C111.914 145.923 111.914 146.221 111.914 146.52C111.923 146.819 111.932 147.103 111.942 147.374C111.96 147.906 112.082 148.331 112.306 148.648C112.53 148.956 112.875 149.11 113.342 149.11ZM119.679 151C119.465 151 119.357 150.907 119.357 150.72C119.357 150.664 119.376 150.613 119.413 150.566L126.329 141.466C126.395 141.382 126.46 141.317 126.525 141.27C126.591 141.223 126.689 141.2 126.819 141.2H127.813C128.028 141.2 128.135 141.293 128.135 141.48C128.135 141.536 128.117 141.587 128.079 141.634L121.163 150.734C121.098 150.818 121.033 150.883 120.967 150.93C120.902 150.977 120.804 151 120.673 151H119.679ZM126.721 151.07C126.087 151.07 125.578 150.902 125.195 150.566C124.822 150.23 124.612 149.782 124.565 149.222C124.556 148.979 124.551 148.765 124.551 148.578C124.551 148.391 124.556 148.167 124.565 147.906C124.603 147.337 124.803 146.884 125.167 146.548C125.541 146.203 126.059 146.03 126.721 146.03C127.393 146.03 127.911 146.203 128.275 146.548C128.639 146.884 128.84 147.337 128.877 147.906C128.896 148.167 128.905 148.391 128.905 148.578C128.905 148.765 128.896 148.979 128.877 149.222C128.84 149.782 128.63 150.23 128.247 150.566C127.865 150.902 127.356 151.07 126.721 151.07ZM126.721 149.838C126.88 149.838 127.001 149.805 127.085 149.74C127.179 149.675 127.249 149.591 127.295 149.488C127.342 149.376 127.365 149.259 127.365 149.138C127.384 148.923 127.393 148.727 127.393 148.55C127.393 148.373 127.384 148.181 127.365 147.976C127.356 147.799 127.305 147.64 127.211 147.5C127.118 147.351 126.955 147.276 126.721 147.276C126.488 147.276 126.325 147.351 126.231 147.5C126.138 147.64 126.087 147.799 126.077 147.976C126.068 148.181 126.063 148.373 126.063 148.55C126.063 148.727 126.068 148.923 126.077 149.138C126.087 149.259 126.11 149.376 126.147 149.488C126.194 149.591 126.264 149.675 126.357 149.74C126.451 149.805 126.572 149.838 126.721 149.838ZM120.799 146.142C120.155 146.142 119.642 145.979 119.259 145.652C118.886 145.316 118.681 144.868 118.643 144.308C118.625 144.065 118.615 143.855 118.615 143.678C118.625 143.491 118.634 143.267 118.643 143.006C118.671 142.437 118.867 141.984 119.231 141.648C119.605 141.303 120.127 141.13 120.799 141.13C121.471 141.13 121.989 141.303 122.353 141.648C122.717 141.984 122.913 142.437 122.941 143.006C122.96 143.267 122.969 143.491 122.969 143.678C122.969 143.855 122.96 144.065 122.941 144.308C122.913 144.868 122.708 145.316 122.325 145.652C121.943 145.979 121.434 146.142 120.799 146.142ZM120.799 144.938C120.949 144.938 121.07 144.905 121.163 144.84C121.257 144.765 121.327 144.677 121.373 144.574C121.42 144.462 121.443 144.35 121.443 144.238C121.462 144.023 121.471 143.827 121.471 143.65C121.471 143.473 121.462 143.281 121.443 143.076C121.434 142.899 121.378 142.74 121.275 142.6C121.182 142.451 121.023 142.376 120.799 142.376C120.566 142.376 120.398 142.451 120.295 142.6C120.202 142.74 120.151 142.899 120.141 143.076C120.132 143.281 120.127 143.473 120.127 143.65C120.127 143.827 120.132 144.023 120.141 144.238C120.151 144.35 120.174 144.462 120.211 144.574C120.258 144.677 120.328 144.765 120.421 144.84C120.515 144.905 120.641 144.938 120.799 144.938Z" fill="#EBECEE"/>
<g filter="url(#filter1_d_15958_23156)">
<rect x="148" y="74" width="32" height="32" rx="16" fill="white"/>
<rect x="147" y="73" width="34" height="34" rx="17" stroke="#1DA534" stroke-width="2"/>
<path opacity="0.4" d="M164 100C169.523 100 174 95.5228 174 90C174 84.4772 169.523 80 164 80C158.477 80 154 84.4772 154 90C154 95.5228 158.477 100 164 100Z" fill="#1DA534"/>
<path d="M162.579 93.5801C162.379 93.5801 162.189 93.5001 162.049 93.3601L159.219 90.5301C158.929 90.2401 158.929 89.7601 159.219 89.4701C159.509 89.1801 159.989 89.1801 160.279 89.4701L162.579 91.7701L167.719 86.6301C168.009 86.3401 168.489 86.3401 168.779 86.6301C169.069 86.9201 169.069 87.4001 168.779 87.6901L163.109 93.3601C162.969 93.5001 162.779 93.5801 162.579 93.5801Z" fill="#1DA534"/>
</g>
</g>
<defs>
<filter id="filter0_d_15958_23156" x="0" y="0" width="242" height="238" filterUnits="userSpaceOnUse" color-interpolation-filters="sRGB">
<feFlood flood-opacity="0" result="BackgroundImageFix"/>
<feColorMatrix in="SourceAlpha" type="matrix" values="0 0 0 0 0 0 0 0 0 0 0 0 0 0 0 0 0 0 127 0" result="hardAlpha"/>
<feOffset/>
<feGaussianBlur stdDeviation="30"/>
<feComposite in2="hardAlpha" operator="out"/>
<feColorMatrix type="matrix" values="0 0 0 0 0.901961 0 0 0 0 0.701961 0 0 0 0 0.00392157 0 0 0 1 0"/>
<feBlend mode="normal" in2="BackgroundImageFix" result="effect1_dropShadow_15958_23156"/>
<feBlend mode="normal" in="SourceGraphic" in2="effect1_dropShadow_15958_23156" result="shape"/>
</filter>
<filter id="filter1_d_15958_23156" x="131" y="65" width="66" height="66" filterUnits="userSpaceOnUse" color-interpolation-filters="sRGB">
<feFlood flood-opacity="0" result="BackgroundImageFix"/>
<feColorMatrix in="SourceAlpha" type="matrix" values="0 0 0 0 0 0 0 0 0 0 0 0 0 0 0 0 0 0 127 0" result="hardAlpha"/>
<feOffset dy="8"/>
<feGaussianBlur stdDeviation="7.5"/>
<feColorMatrix type="matrix" values="0 0 0 0 0 0 0 0 0 0 0 0 0 0 0 0 0 0 0.25 0"/>
<feBlend mode="normal" in2="BackgroundImageFix" result="effect1_dropShadow_15958_23156"/>
<feBlend mode="normal" in="SourceGraphic" in2="effect1_dropShadow_15958_23156" result="shape"/>
</filter>
<clipPath id="clip0_15958_23156">
<rect width="32" height="32" fill="white" transform="translate(103 79)"/>
</clipPath>
</defs>
</svg>
