<svg width="242" height="238" viewBox="0 0 242 238" fill="none" xmlns="http://www.w3.org/2000/svg">
<g filter="url(#filter0_d_15958_23142)">
<rect x="64" y="64" width="110" height="110" rx="55" fill="#02AAA4" fill-opacity="0.15" shape-rendering="crispEdges"/>
<rect x="62" y="62" width="114" height="114" rx="57" stroke="#017974" stroke-width="4" shape-rendering="crispEdges"/>
<g clip-path="url(#clip0_15958_23142)">
<path opacity="0.4" d="M117.892 74.1665H118.359C118.481 74.2096 118.602 74.2096 118.723 74.1665H119.971C120.163 74.2339 120.363 74.1943 120.559 74.211C122.554 74.3777 124.359 75.0828 126.055 76.1152C126.889 76.6223 127.65 77.2267 128.34 77.9089C129.534 79.0886 130.491 80.4412 131.184 81.9786C131.697 83.1179 132.045 84.3038 132.223 85.539C132.361 86.4949 132.32 87.4592 132.308 88.4214C132.298 89.2585 132.147 90.0769 131.934 90.8835C131.373 93.0016 130.361 94.8725 128.895 96.5037C127.761 97.7653 126.431 98.7601 124.923 99.5174C123.668 100.147 122.341 100.564 120.948 100.762C120.624 100.807 120.295 100.78 119.972 100.834H119.66C119.573 100.791 119.487 100.791 119.4 100.834H118.256C118.222 100.801 118.187 100.801 118.152 100.834H117.892C117.467 100.771 117.035 100.781 116.611 100.7C114.9 100.373 113.302 99.7633 111.828 98.8282C110.991 98.2968 110.209 97.6931 109.518 96.9851C107.467 94.8822 106.186 92.384 105.749 89.4662C105.708 89.1939 105.734 88.916 105.676 88.6458V88.2289C105.718 88.1247 105.718 88.0205 105.676 87.9163V87.0306C105.718 86.9264 105.718 86.8221 105.676 86.7179V86.4053C105.735 86.1003 105.707 85.7877 105.754 85.4806C106.136 83.0234 107.119 80.8399 108.7 78.9218C109.898 77.4678 111.351 76.3368 113.024 75.4941C114.285 74.8605 115.619 74.434 117.02 74.2388C117.309 74.1985 117.604 74.2228 117.892 74.1665Z" fill="#017974"/>
<path d="M122.294 80.1709C122.152 80.1758 122.024 80.1292 121.894 80.0785C121.256 79.8277 120.616 80.1542 120.487 80.8302C120.296 81.832 120.141 82.8407 119.973 83.8473C119.72 85.357 119.471 86.8666 119.22 88.3762C118.986 89.7837 118.755 91.1912 118.516 92.5973C118.417 93.176 118.37 93.7672 118.198 94.3299C117.736 95.8451 116.031 96.6232 114.589 95.991C114.092 95.7735 113.887 95.3296 114.075 94.8787C114.261 94.4313 114.719 94.2667 115.222 94.4654C115.9 94.7335 116.55 94.3751 116.679 93.6407C116.85 92.6695 117.001 91.6955 117.161 90.7229C117.411 89.2126 117.66 87.703 117.911 86.1927C118.163 84.6747 118.416 83.1561 118.669 81.6381C118.735 81.2463 118.792 80.8517 118.874 80.4634C119.228 78.7933 121.069 77.8721 122.608 78.5897C123.217 78.8732 123.309 79.6429 122.78 80.0264C122.636 80.1313 122.472 80.1799 122.294 80.1716V80.1709Z" fill="#017974"/>
</g>
<path d="M101.101 119.63C100.304 119.63 99.641 119.483 99.1123 119.188C98.5923 118.893 98.198 118.482 97.9293 117.953C97.6607 117.424 97.5133 116.809 97.4873 116.107C97.4787 115.752 97.4743 115.37 97.4743 114.963C97.4743 114.556 97.4787 114.166 97.4873 113.793C97.5133 113.091 97.6607 112.476 97.9293 111.947C98.198 111.418 98.5923 111.007 99.1123 110.712C99.641 110.417 100.304 110.27 101.101 110.27C101.699 110.27 102.224 110.352 102.674 110.517C103.125 110.682 103.498 110.903 103.792 111.18C104.096 111.457 104.325 111.769 104.481 112.116C104.637 112.454 104.724 112.805 104.741 113.169C104.75 113.247 104.724 113.312 104.663 113.364C104.611 113.416 104.546 113.442 104.468 113.442H103.753C103.675 113.442 103.606 113.42 103.545 113.377C103.493 113.334 103.454 113.256 103.428 113.143C103.281 112.467 103.004 112.003 102.596 111.752C102.198 111.501 101.695 111.375 101.088 111.375C100.395 111.375 99.8447 111.574 99.4373 111.973C99.03 112.363 98.809 112.991 98.7743 113.858C98.7483 114.569 98.7483 115.297 98.7743 116.042C98.809 116.909 99.03 117.541 99.4373 117.94C99.8447 118.33 100.395 118.525 101.088 118.525C101.695 118.525 102.198 118.399 102.596 118.148C103.004 117.897 103.281 117.433 103.428 116.757C103.454 116.644 103.493 116.566 103.545 116.523C103.606 116.48 103.675 116.458 103.753 116.458H104.468C104.546 116.458 104.611 116.484 104.663 116.536C104.724 116.588 104.75 116.653 104.741 116.731C104.724 117.095 104.637 117.45 104.481 117.797C104.325 118.135 104.096 118.443 103.792 118.72C103.498 118.997 103.125 119.218 102.674 119.383C102.224 119.548 101.699 119.63 101.101 119.63ZM108.2 119.63C107.766 119.63 107.372 119.543 107.017 119.37C106.661 119.197 106.375 118.963 106.159 118.668C105.942 118.373 105.834 118.04 105.834 117.667C105.834 117.069 106.076 116.592 106.562 116.237C107.047 115.882 107.68 115.648 108.46 115.535L110.397 115.262V114.885C110.397 114.469 110.275 114.144 110.033 113.91C109.799 113.676 109.413 113.559 108.876 113.559C108.486 113.559 108.169 113.637 107.927 113.793C107.693 113.949 107.528 114.148 107.433 114.391C107.381 114.521 107.29 114.586 107.16 114.586H106.575C106.479 114.586 106.406 114.56 106.354 114.508C106.31 114.447 106.289 114.378 106.289 114.3C106.289 114.17 106.336 114.01 106.432 113.819C106.536 113.628 106.692 113.442 106.9 113.26C107.108 113.078 107.372 112.926 107.693 112.805C108.022 112.675 108.421 112.61 108.889 112.61C109.409 112.61 109.846 112.679 110.202 112.818C110.557 112.948 110.834 113.126 111.034 113.351C111.242 113.576 111.389 113.832 111.476 114.118C111.571 114.404 111.619 114.694 111.619 114.989V119.201C111.619 119.288 111.588 119.361 111.528 119.422C111.476 119.474 111.406 119.5 111.32 119.5H110.722C110.626 119.5 110.553 119.474 110.501 119.422C110.449 119.361 110.423 119.288 110.423 119.201V118.642C110.31 118.798 110.158 118.954 109.968 119.11C109.777 119.257 109.539 119.383 109.253 119.487C108.967 119.582 108.616 119.63 108.2 119.63ZM108.473 118.655C108.828 118.655 109.153 118.581 109.448 118.434C109.742 118.278 109.972 118.04 110.137 117.719C110.31 117.398 110.397 116.995 110.397 116.51V116.146L108.889 116.367C108.273 116.454 107.81 116.601 107.498 116.809C107.186 117.008 107.03 117.264 107.03 117.576C107.03 117.819 107.099 118.022 107.238 118.187C107.385 118.343 107.567 118.46 107.784 118.538C108.009 118.616 108.239 118.655 108.473 118.655ZM108.551 111.765C108.412 111.765 108.343 111.696 108.343 111.557C108.343 111.488 108.364 111.431 108.408 111.388L109.383 110.218C109.461 110.123 109.53 110.062 109.591 110.036C109.651 110.001 109.742 109.984 109.864 109.984H110.748C110.912 109.984 110.995 110.066 110.995 110.231C110.995 110.292 110.973 110.344 110.93 110.387L109.422 111.622C109.352 111.683 109.287 111.722 109.227 111.739C109.166 111.756 109.088 111.765 108.993 111.765H108.551ZM113.799 119.5C113.713 119.5 113.639 119.474 113.578 119.422C113.526 119.361 113.5 119.288 113.5 119.201V110.569C113.5 110.482 113.526 110.413 113.578 110.361C113.639 110.3 113.713 110.27 113.799 110.27H114.41C114.506 110.27 114.579 110.3 114.631 110.361C114.683 110.413 114.709 110.482 114.709 110.569V119.201C114.709 119.288 114.683 119.361 114.631 119.422C114.579 119.474 114.506 119.5 114.41 119.5H113.799ZM119.379 119.63C118.763 119.63 118.23 119.513 117.78 119.279C117.338 119.036 116.995 118.694 116.753 118.252C116.51 117.801 116.38 117.264 116.363 116.64C116.354 116.51 116.35 116.337 116.35 116.12C116.35 115.903 116.354 115.73 116.363 115.6C116.38 114.976 116.51 114.443 116.753 114.001C116.995 113.55 117.338 113.208 117.78 112.974C118.23 112.731 118.763 112.61 119.379 112.61C119.881 112.61 120.31 112.679 120.666 112.818C121.03 112.957 121.329 113.134 121.563 113.351C121.797 113.568 121.97 113.802 122.083 114.053C122.204 114.304 122.269 114.543 122.278 114.768C122.286 114.855 122.26 114.924 122.2 114.976C122.139 115.028 122.065 115.054 121.979 115.054H121.355C121.268 115.054 121.203 115.037 121.16 115.002C121.116 114.959 121.073 114.889 121.03 114.794C120.874 114.369 120.661 114.07 120.393 113.897C120.124 113.724 119.79 113.637 119.392 113.637C118.872 113.637 118.447 113.797 118.118 114.118C117.797 114.439 117.624 114.954 117.598 115.665C117.589 115.977 117.589 116.28 117.598 116.575C117.624 117.294 117.797 117.814 118.118 118.135C118.447 118.447 118.872 118.603 119.392 118.603C119.79 118.603 120.124 118.516 120.393 118.343C120.661 118.17 120.874 117.871 121.03 117.446C121.073 117.351 121.116 117.286 121.16 117.251C121.203 117.208 121.268 117.186 121.355 117.186H121.979C122.065 117.186 122.139 117.212 122.2 117.264C122.26 117.316 122.286 117.385 122.278 117.472C122.269 117.654 122.23 117.84 122.161 118.031C122.091 118.222 121.979 118.417 121.823 118.616C121.675 118.807 121.489 118.98 121.264 119.136C121.038 119.283 120.765 119.405 120.445 119.5C120.133 119.587 119.777 119.63 119.379 119.63ZM126.343 119.63C125.789 119.63 125.316 119.509 124.926 119.266C124.545 119.015 124.255 118.668 124.055 118.226C123.856 117.784 123.756 117.277 123.756 116.705V113.039C123.756 112.952 123.782 112.883 123.834 112.831C123.895 112.77 123.969 112.74 124.055 112.74H124.705C124.792 112.74 124.861 112.77 124.913 112.831C124.974 112.883 125.004 112.952 125.004 113.039V116.64C125.004 117.931 125.568 118.577 126.694 118.577C127.232 118.577 127.661 118.408 127.981 118.07C128.311 117.723 128.475 117.247 128.475 116.64V113.039C128.475 112.952 128.501 112.883 128.553 112.831C128.614 112.77 128.688 112.74 128.774 112.74H129.411C129.507 112.74 129.58 112.77 129.632 112.831C129.684 112.883 129.71 112.952 129.71 113.039V119.201C129.71 119.288 129.684 119.361 129.632 119.422C129.58 119.474 129.507 119.5 129.411 119.5H128.813C128.727 119.5 128.653 119.474 128.592 119.422C128.54 119.361 128.514 119.288 128.514 119.201V118.629C128.28 118.932 127.994 119.175 127.656 119.357C127.327 119.539 126.889 119.63 126.343 119.63ZM131.954 119.5C131.867 119.5 131.793 119.474 131.733 119.422C131.681 119.361 131.655 119.288 131.655 119.201V110.569C131.655 110.482 131.681 110.413 131.733 110.361C131.793 110.3 131.867 110.27 131.954 110.27H132.565C132.66 110.27 132.734 110.3 132.786 110.361C132.838 110.413 132.864 110.482 132.864 110.569V119.201C132.864 119.288 132.838 119.361 132.786 119.422C132.734 119.474 132.66 119.5 132.565 119.5H131.954ZM137.572 119.63C136.913 119.63 136.363 119.504 135.921 119.253C135.479 119.002 135.141 118.655 134.907 118.213C134.673 117.762 134.543 117.251 134.517 116.679C134.508 116.532 134.504 116.345 134.504 116.12C134.504 115.886 134.508 115.7 134.517 115.561C134.543 114.98 134.673 114.469 134.907 114.027C135.149 113.585 135.492 113.238 135.934 112.987C136.376 112.736 136.922 112.61 137.572 112.61C138.222 112.61 138.768 112.736 139.21 112.987C139.652 113.238 139.99 113.585 140.224 114.027C140.466 114.469 140.601 114.98 140.627 115.561C140.635 115.7 140.64 115.886 140.64 116.12C140.64 116.345 140.635 116.532 140.627 116.679C140.601 117.251 140.471 117.762 140.237 118.213C140.003 118.655 139.665 119.002 139.223 119.253C138.781 119.504 138.23 119.63 137.572 119.63ZM137.572 118.629C138.109 118.629 138.538 118.46 138.859 118.122C139.179 117.775 139.353 117.273 139.379 116.614C139.387 116.484 139.392 116.319 139.392 116.12C139.392 115.921 139.387 115.756 139.379 115.626C139.353 114.967 139.179 114.469 138.859 114.131C138.538 113.784 138.109 113.611 137.572 113.611C137.034 113.611 136.601 113.784 136.272 114.131C135.951 114.469 135.782 114.967 135.765 115.626C135.756 115.756 135.752 115.921 135.752 116.12C135.752 116.319 135.756 116.484 135.765 116.614C135.782 117.273 135.951 117.775 136.272 118.122C136.601 118.46 137.034 118.629 137.572 118.629ZM97.1151 134.5C97.0197 134.5 96.9461 134.474 96.8941 134.422C96.8421 134.361 96.8161 134.288 96.8161 134.201V125.699C96.8161 125.612 96.8421 125.543 96.8941 125.491C96.9461 125.43 97.0197 125.4 97.1151 125.4H97.8041C97.8907 125.4 97.9601 125.43 98.0121 125.491C98.0727 125.543 98.1031 125.612 98.1031 125.699V134.201C98.1031 134.288 98.0727 134.361 98.0121 134.422C97.9601 134.474 97.8907 134.5 97.8041 134.5H97.1151ZM100.501 134.5C100.414 134.5 100.34 134.474 100.28 134.422C100.228 134.361 100.202 134.288 100.202 134.201V128.039C100.202 127.952 100.228 127.883 100.28 127.831C100.34 127.77 100.414 127.74 100.501 127.74H101.112C101.198 127.74 101.268 127.77 101.32 127.831C101.38 127.883 101.411 127.952 101.411 128.039V128.611C101.636 128.316 101.918 128.078 102.256 127.896C102.602 127.705 103.044 127.61 103.582 127.61C104.145 127.61 104.622 127.736 105.012 127.987C105.41 128.23 105.709 128.572 105.909 129.014C106.108 129.447 106.208 129.954 106.208 130.535V134.201C106.208 134.288 106.182 134.361 106.13 134.422C106.078 134.474 106.008 134.5 105.922 134.5H105.272C105.185 134.5 105.111 134.474 105.051 134.422C104.999 134.361 104.973 134.288 104.973 134.201V130.6C104.973 129.993 104.825 129.521 104.531 129.183C104.236 128.836 103.803 128.663 103.231 128.663C102.693 128.663 102.26 128.836 101.931 129.183C101.61 129.521 101.45 129.993 101.45 130.6V134.201C101.45 134.288 101.419 134.361 101.359 134.422C101.307 134.474 101.237 134.5 101.151 134.5H100.501ZM110.636 134.5C110.15 134.5 109.756 134.409 109.453 134.227C109.149 134.036 108.928 133.772 108.79 133.434C108.651 133.087 108.582 132.68 108.582 132.212V128.78H107.568C107.481 128.78 107.407 128.754 107.347 128.702C107.295 128.641 107.269 128.568 107.269 128.481V128.039C107.269 127.952 107.295 127.883 107.347 127.831C107.407 127.77 107.481 127.74 107.568 127.74H108.582V125.569C108.582 125.482 108.608 125.413 108.66 125.361C108.72 125.3 108.794 125.27 108.881 125.27H109.492C109.578 125.27 109.648 125.3 109.7 125.361C109.76 125.413 109.791 125.482 109.791 125.569V127.74H111.403C111.489 127.74 111.559 127.77 111.611 127.831C111.671 127.883 111.702 127.952 111.702 128.039V128.481C111.702 128.568 111.671 128.641 111.611 128.702C111.559 128.754 111.489 128.78 111.403 128.78H109.791V132.121C109.791 132.528 109.86 132.849 109.999 133.083C110.137 133.317 110.384 133.434 110.74 133.434H111.533C111.619 133.434 111.689 133.464 111.741 133.525C111.801 133.577 111.832 133.646 111.832 133.733V134.201C111.832 134.288 111.801 134.361 111.741 134.422C111.689 134.474 111.619 134.5 111.533 134.5H110.636ZM115.766 134.63C114.873 134.63 114.162 134.357 113.634 133.811C113.105 133.256 112.815 132.502 112.763 131.549C112.754 131.436 112.75 131.293 112.75 131.12C112.75 130.938 112.754 130.791 112.763 130.678C112.797 130.063 112.94 129.525 113.192 129.066C113.443 128.598 113.785 128.238 114.219 127.987C114.661 127.736 115.176 127.61 115.766 127.61C116.424 127.61 116.975 127.749 117.417 128.026C117.867 128.303 118.21 128.698 118.444 129.209C118.678 129.72 118.795 130.318 118.795 131.003V131.224C118.795 131.319 118.764 131.393 118.704 131.445C118.652 131.497 118.582 131.523 118.496 131.523H113.998C113.998 131.532 113.998 131.549 113.998 131.575C113.998 131.601 113.998 131.623 113.998 131.64C114.015 131.995 114.093 132.329 114.232 132.641C114.37 132.944 114.57 133.191 114.83 133.382C115.09 133.573 115.402 133.668 115.766 133.668C116.078 133.668 116.338 133.62 116.546 133.525C116.754 133.43 116.923 133.326 117.053 133.213C117.183 133.092 117.269 133.001 117.313 132.94C117.391 132.827 117.451 132.762 117.495 132.745C117.538 132.719 117.607 132.706 117.703 132.706H118.327C118.413 132.706 118.483 132.732 118.535 132.784C118.595 132.827 118.621 132.892 118.613 132.979C118.604 133.109 118.535 133.269 118.405 133.46C118.275 133.642 118.088 133.824 117.846 134.006C117.603 134.188 117.308 134.34 116.962 134.461C116.615 134.574 116.216 134.63 115.766 134.63ZM113.998 130.626H117.56V130.587C117.56 130.197 117.486 129.85 117.339 129.547C117.2 129.244 116.996 129.005 116.728 128.832C116.459 128.65 116.138 128.559 115.766 128.559C115.393 128.559 115.072 128.65 114.804 128.832C114.544 129.005 114.344 129.244 114.206 129.547C114.067 129.85 113.998 130.197 113.998 130.587V130.626ZM123.118 137.36C122.529 137.36 122.044 137.282 121.662 137.126C121.29 136.97 120.995 136.779 120.778 136.554C120.57 136.337 120.419 136.116 120.323 135.891C120.237 135.674 120.189 135.501 120.18 135.371C120.172 135.284 120.198 135.211 120.258 135.15C120.328 135.089 120.401 135.059 120.479 135.059H121.103C121.181 135.059 121.246 135.076 121.298 135.111C121.35 135.146 121.394 135.219 121.428 135.332C121.48 135.462 121.558 135.605 121.662 135.761C121.766 135.926 121.927 136.064 122.143 136.177C122.36 136.298 122.663 136.359 123.053 136.359C123.461 136.359 123.803 136.303 124.08 136.19C124.358 136.086 124.566 135.895 124.704 135.618C124.852 135.349 124.925 134.977 124.925 134.5V133.616C124.717 133.885 124.444 134.11 124.106 134.292C123.768 134.465 123.344 134.552 122.832 134.552C122.347 134.552 121.931 134.47 121.584 134.305C121.238 134.132 120.952 133.902 120.726 133.616C120.51 133.321 120.345 132.988 120.232 132.615C120.128 132.242 120.068 131.852 120.05 131.445C120.042 131.202 120.042 130.964 120.05 130.73C120.068 130.323 120.128 129.933 120.232 129.56C120.345 129.187 120.51 128.854 120.726 128.559C120.952 128.264 121.238 128.035 121.584 127.87C121.931 127.697 122.347 127.61 122.832 127.61C123.352 127.61 123.781 127.71 124.119 127.909C124.466 128.1 124.748 128.334 124.964 128.611V128.052C124.964 127.965 124.99 127.892 125.042 127.831C125.103 127.77 125.177 127.74 125.263 127.74H125.861C125.948 127.74 126.022 127.77 126.082 127.831C126.143 127.892 126.173 127.965 126.173 128.052V134.357C126.173 134.938 126.074 135.453 125.874 135.904C125.684 136.355 125.363 136.71 124.912 136.97C124.47 137.23 123.872 137.36 123.118 137.36ZM123.092 133.512C123.526 133.512 123.872 133.412 124.132 133.213C124.401 133.014 124.596 132.762 124.717 132.459C124.847 132.156 124.917 131.848 124.925 131.536C124.934 131.415 124.938 131.267 124.938 131.094C124.938 130.912 124.934 130.76 124.925 130.639C124.917 130.327 124.847 130.019 124.717 129.716C124.596 129.413 124.401 129.161 124.132 128.962C123.872 128.763 123.526 128.663 123.092 128.663C122.659 128.663 122.312 128.763 122.052 128.962C121.792 129.153 121.606 129.408 121.493 129.729C121.381 130.041 121.316 130.379 121.298 130.743C121.29 130.968 121.29 131.198 121.298 131.432C121.316 131.796 121.381 132.138 121.493 132.459C121.606 132.771 121.792 133.027 122.052 133.226C122.312 133.417 122.659 133.512 123.092 133.512ZM128.405 134.5C128.318 134.5 128.245 134.474 128.184 134.422C128.132 134.361 128.106 134.288 128.106 134.201V128.052C128.106 127.965 128.132 127.892 128.184 127.831C128.245 127.77 128.318 127.74 128.405 127.74H129.003C129.09 127.74 129.163 127.77 129.224 127.831C129.285 127.892 129.315 127.965 129.315 128.052V128.624C129.488 128.329 129.727 128.108 130.03 127.961C130.333 127.814 130.697 127.74 131.122 127.74H131.642C131.729 127.74 131.798 127.77 131.85 127.831C131.902 127.883 131.928 127.952 131.928 128.039V128.572C131.928 128.659 131.902 128.728 131.85 128.78C131.798 128.832 131.729 128.858 131.642 128.858H130.862C130.394 128.858 130.026 128.997 129.757 129.274C129.488 129.543 129.354 129.911 129.354 130.379V134.201C129.354 134.288 129.324 134.361 129.263 134.422C129.202 134.474 129.129 134.5 129.042 134.5H128.405ZM134.828 134.63C134.395 134.63 134 134.543 133.645 134.37C133.29 134.197 133.004 133.963 132.787 133.668C132.57 133.373 132.462 133.04 132.462 132.667C132.462 132.069 132.705 131.592 133.19 131.237C133.675 130.882 134.308 130.648 135.088 130.535L137.025 130.262V129.885C137.025 129.469 136.904 129.144 136.661 128.91C136.427 128.676 136.041 128.559 135.504 128.559C135.114 128.559 134.798 128.637 134.555 128.793C134.321 128.949 134.156 129.148 134.061 129.391C134.009 129.521 133.918 129.586 133.788 129.586H133.203C133.108 129.586 133.034 129.56 132.982 129.508C132.939 129.447 132.917 129.378 132.917 129.3C132.917 129.17 132.965 129.01 133.06 128.819C133.164 128.628 133.32 128.442 133.528 128.26C133.736 128.078 134 127.926 134.321 127.805C134.65 127.675 135.049 127.61 135.517 127.61C136.037 127.61 136.475 127.679 136.83 127.818C137.185 127.948 137.463 128.126 137.662 128.351C137.87 128.576 138.017 128.832 138.104 129.118C138.199 129.404 138.247 129.694 138.247 129.989V134.201C138.247 134.288 138.217 134.361 138.156 134.422C138.104 134.474 138.035 134.5 137.948 134.5H137.35C137.255 134.5 137.181 134.474 137.129 134.422C137.077 134.361 137.051 134.288 137.051 134.201V133.642C136.938 133.798 136.787 133.954 136.596 134.11C136.405 134.257 136.167 134.383 135.881 134.487C135.595 134.582 135.244 134.63 134.828 134.63ZM135.101 133.655C135.456 133.655 135.781 133.581 136.076 133.434C136.371 133.278 136.6 133.04 136.765 132.719C136.938 132.398 137.025 131.995 137.025 131.51V131.146L135.517 131.367C134.902 131.454 134.438 131.601 134.126 131.809C133.814 132.008 133.658 132.264 133.658 132.576C133.658 132.819 133.727 133.022 133.866 133.187C134.013 133.343 134.195 133.46 134.412 133.538C134.637 133.616 134.867 133.655 135.101 133.655ZM140.428 134.5C140.341 134.5 140.267 134.474 140.207 134.422C140.155 134.361 140.129 134.288 140.129 134.201V125.569C140.129 125.482 140.155 125.413 140.207 125.361C140.267 125.3 140.341 125.27 140.428 125.27H141.039C141.134 125.27 141.208 125.3 141.26 125.361C141.312 125.413 141.338 125.482 141.338 125.569V134.201C141.338 134.288 141.312 134.361 141.26 134.422C141.208 134.474 141.134 134.5 141.039 134.5H140.428Z" fill="#EBECEE"/>
<rect x="100.5" y="141.5" width="37" height="25" rx="12.5" fill="#017974"/>
<path d="M113.342 158.64C112.67 158.64 112.086 158.547 111.592 158.36C111.097 158.164 110.686 157.898 110.36 157.562C110.042 157.226 109.8 156.834 109.632 156.386C109.464 155.938 109.366 155.457 109.338 154.944C109.328 154.692 109.319 154.407 109.31 154.09C109.31 153.763 109.31 153.437 109.31 153.11C109.319 152.774 109.328 152.475 109.338 152.214C109.366 151.701 109.464 151.225 109.632 150.786C109.809 150.338 110.061 149.951 110.388 149.624C110.724 149.288 111.134 149.027 111.62 148.84C112.114 148.653 112.688 148.56 113.342 148.56C114.004 148.56 114.578 148.653 115.064 148.84C115.549 149.027 115.955 149.288 116.282 149.624C116.618 149.951 116.874 150.338 117.052 150.786C117.229 151.225 117.327 151.701 117.346 152.214C117.364 152.475 117.374 152.774 117.374 153.11C117.383 153.437 117.383 153.763 117.374 154.09C117.374 154.407 117.364 154.692 117.346 154.944C117.327 155.457 117.229 155.938 117.052 156.386C116.884 156.834 116.636 157.226 116.31 157.562C115.992 157.898 115.586 158.164 115.092 158.36C114.606 158.547 114.023 158.64 113.342 158.64ZM113.342 156.61C113.827 156.61 114.177 156.456 114.392 156.148C114.616 155.831 114.732 155.406 114.742 154.874C114.76 154.603 114.77 154.319 114.77 154.02C114.779 153.721 114.779 153.423 114.77 153.124C114.77 152.825 114.76 152.55 114.742 152.298C114.732 151.785 114.616 151.369 114.392 151.052C114.177 150.735 113.827 150.571 113.342 150.562C112.856 150.571 112.506 150.735 112.292 151.052C112.077 151.369 111.96 151.785 111.942 152.298C111.932 152.55 111.923 152.825 111.914 153.124C111.914 153.423 111.914 153.721 111.914 154.02C111.923 154.319 111.932 154.603 111.942 154.874C111.96 155.406 112.082 155.831 112.306 156.148C112.53 156.456 112.875 156.61 113.342 156.61ZM119.679 158.5C119.465 158.5 119.357 158.407 119.357 158.22C119.357 158.164 119.376 158.113 119.413 158.066L126.329 148.966C126.395 148.882 126.46 148.817 126.525 148.77C126.591 148.723 126.689 148.7 126.819 148.7H127.813C128.028 148.7 128.135 148.793 128.135 148.98C128.135 149.036 128.117 149.087 128.079 149.134L121.163 158.234C121.098 158.318 121.033 158.383 120.967 158.43C120.902 158.477 120.804 158.5 120.673 158.5H119.679ZM126.721 158.57C126.087 158.57 125.578 158.402 125.195 158.066C124.822 157.73 124.612 157.282 124.565 156.722C124.556 156.479 124.551 156.265 124.551 156.078C124.551 155.891 124.556 155.667 124.565 155.406C124.603 154.837 124.803 154.384 125.167 154.048C125.541 153.703 126.059 153.53 126.721 153.53C127.393 153.53 127.911 153.703 128.275 154.048C128.639 154.384 128.84 154.837 128.877 155.406C128.896 155.667 128.905 155.891 128.905 156.078C128.905 156.265 128.896 156.479 128.877 156.722C128.84 157.282 128.63 157.73 128.247 158.066C127.865 158.402 127.356 158.57 126.721 158.57ZM126.721 157.338C126.88 157.338 127.001 157.305 127.085 157.24C127.179 157.175 127.249 157.091 127.295 156.988C127.342 156.876 127.365 156.759 127.365 156.638C127.384 156.423 127.393 156.227 127.393 156.05C127.393 155.873 127.384 155.681 127.365 155.476C127.356 155.299 127.305 155.14 127.211 155C127.118 154.851 126.955 154.776 126.721 154.776C126.488 154.776 126.325 154.851 126.231 155C126.138 155.14 126.087 155.299 126.077 155.476C126.068 155.681 126.063 155.873 126.063 156.05C126.063 156.227 126.068 156.423 126.077 156.638C126.087 156.759 126.11 156.876 126.147 156.988C126.194 157.091 126.264 157.175 126.357 157.24C126.451 157.305 126.572 157.338 126.721 157.338ZM120.799 153.642C120.155 153.642 119.642 153.479 119.259 153.152C118.886 152.816 118.681 152.368 118.643 151.808C118.625 151.565 118.615 151.355 118.615 151.178C118.625 150.991 118.634 150.767 118.643 150.506C118.671 149.937 118.867 149.484 119.231 149.148C119.605 148.803 120.127 148.63 120.799 148.63C121.471 148.63 121.989 148.803 122.353 149.148C122.717 149.484 122.913 149.937 122.941 150.506C122.96 150.767 122.969 150.991 122.969 151.178C122.969 151.355 122.96 151.565 122.941 151.808C122.913 152.368 122.708 152.816 122.325 153.152C121.943 153.479 121.434 153.642 120.799 153.642ZM120.799 152.438C120.949 152.438 121.07 152.405 121.163 152.34C121.257 152.265 121.327 152.177 121.373 152.074C121.42 151.962 121.443 151.85 121.443 151.738C121.462 151.523 121.471 151.327 121.471 151.15C121.471 150.973 121.462 150.781 121.443 150.576C121.434 150.399 121.378 150.24 121.275 150.1C121.182 149.951 121.023 149.876 120.799 149.876C120.566 149.876 120.398 149.951 120.295 150.1C120.202 150.24 120.151 150.399 120.141 150.576C120.132 150.781 120.127 150.973 120.127 151.15C120.127 151.327 120.132 151.523 120.141 151.738C120.151 151.85 120.174 151.962 120.211 152.074C120.258 152.177 120.328 152.265 120.421 152.34C120.515 152.405 120.641 152.438 120.799 152.438Z" fill="#EBECEE"/>
<g filter="url(#filter1_d_15958_23142)">
<rect x="148" y="74" width="32" height="32" rx="16" fill="white"/>
<rect x="147" y="73" width="34" height="34" rx="17" stroke="#1DA534" stroke-width="2"/>
<path opacity="0.4" d="M164 100C169.523 100 174 95.5228 174 90C174 84.4772 169.523 80 164 80C158.477 80 154 84.4772 154 90C154 95.5228 158.477 100 164 100Z" fill="#1DA534"/>
<path d="M162.579 93.5801C162.379 93.5801 162.189 93.5001 162.049 93.3601L159.219 90.5301C158.929 90.2401 158.929 89.7601 159.219 89.4701C159.509 89.1801 159.989 89.1801 160.279 89.4701L162.579 91.7701L167.719 86.6301C168.009 86.3401 168.489 86.3401 168.779 86.6301C169.069 86.9201 169.069 87.4001 168.779 87.6901L163.109 93.3601C162.969 93.5001 162.779 93.5801 162.579 93.5801Z" fill="#1DA534"/>
</g>
</g>
<defs>
<filter id="filter0_d_15958_23142" x="0" y="0" width="242" height="238" filterUnits="userSpaceOnUse" color-interpolation-filters="sRGB">
<feFlood flood-opacity="0" result="BackgroundImageFix"/>
<feColorMatrix in="SourceAlpha" type="matrix" values="0 0 0 0 0 0 0 0 0 0 0 0 0 0 0 0 0 0 127 0" result="hardAlpha"/>
<feOffset/>
<feGaussianBlur stdDeviation="30"/>
<feComposite in2="hardAlpha" operator="out"/>
<feColorMatrix type="matrix" values="0 0 0 0 0.0431373 0 0 0 0 0.478431 0 0 0 0 0.478431 0 0 0 1 0"/>
<feBlend mode="normal" in2="BackgroundImageFix" result="effect1_dropShadow_15958_23142"/>
<feBlend mode="normal" in="SourceGraphic" in2="effect1_dropShadow_15958_23142" result="shape"/>
</filter>
<filter id="filter1_d_15958_23142" x="131" y="65" width="66" height="66" filterUnits="userSpaceOnUse" color-interpolation-filters="sRGB">
<feFlood flood-opacity="0" result="BackgroundImageFix"/>
<feColorMatrix in="SourceAlpha" type="matrix" values="0 0 0 0 0 0 0 0 0 0 0 0 0 0 0 0 0 0 127 0" result="hardAlpha"/>
<feOffset dy="8"/>
<feGaussianBlur stdDeviation="7.5"/>
<feColorMatrix type="matrix" values="0 0 0 0 0 0 0 0 0 0 0 0 0 0 0 0 0 0 0.25 0"/>
<feBlend mode="normal" in2="BackgroundImageFix" result="effect1_dropShadow_15958_23142"/>
<feBlend mode="normal" in="SourceGraphic" in2="effect1_dropShadow_15958_23142" result="shape"/>
</filter>
<clipPath id="clip0_15958_23142">
<rect width="26.6472" height="26.6667" fill="white" transform="translate(105.676 74.1665)"/>
</clipPath>
</defs>
</svg>
