<svg width="242" height="238" viewBox="0 0 242 238" fill="none" xmlns="http://www.w3.org/2000/svg">
<g filter="url(#filter0_d_15958_23158)">
<rect x="64" y="64" width="110" height="110" rx="55" fill="#85401A" fill-opacity="0.15" shape-rendering="crispEdges"/>
<rect x="62" y="62" width="114" height="114" rx="57" stroke="#85401A" stroke-width="4" shape-rendering="crispEdges"/>
<g clip-path="url(#clip0_15958_23158)">
<mask id="mask0_15958_23158" style="mask-type:luminance" maskUnits="userSpaceOnUse" x="103" y="79" width="32" height="32">
<path d="M135 79H103V111H135V79Z" fill="white"/>
</mask>
<g mask="url(#mask0_15958_23158)">
<path d="M132.281 95.7734H132.268" stroke="#85401A" stroke-width="1.5" stroke-linecap="round" stroke-linejoin="round"/>
<path d="M105.734 100.333H105.721" stroke="#85401A" stroke-width="1.5" stroke-linecap="round" stroke-linejoin="round"/>
<path d="M133.24 95.5332V95.4932C133.174 95.2265 133.067 94.9865 132.947 94.7998C131.827 92.8932 127.654 85.8265 127.654 85.8265C127.654 85.8132 127.627 85.7998 127.614 85.7865C127.534 85.6665 127.44 85.5732 127.32 85.5065C127.307 85.5065 127.294 85.4798 127.28 85.4665C127.147 85.3998 127 85.3598 126.84 85.3465C126.827 85.3465 126.8 85.3332 126.787 85.3332C126.747 85.3332 126.72 85.3598 126.68 85.3598C126.627 85.3598 126.56 85.3598 126.507 85.3732L118.907 87.5998V83.6665C118.907 83.1198 118.454 82.6665 117.907 82.6665C117.36 82.6665 116.907 83.1198 116.907 83.6665V88.1865L110.96 89.9332C110.707 89.9998 110.52 90.1732 110.387 90.3865V90.4398L105.094 99.3198C104.92 99.5865 104.827 99.8532 104.787 100.053V100.08V100.107C104.707 100.4 104.667 100.693 104.694 100.96C104.894 104.467 107.707 107.213 111.294 107.347C114.814 107.227 117.614 104.48 117.8 100.973C117.814 100.68 117.8 100.387 117.72 100.12V100.093V100.053C117.654 99.8398 117.56 99.6132 117.414 99.3598L112.774 91.5065L124.654 88.0265L120.627 94.8398C120.534 95.0265 120.427 95.2398 120.36 95.4932C120.36 95.4932 120.36 95.5065 120.36 95.5198V95.5732C120.36 95.5732 120.36 95.5732 120.36 95.5865C120.294 95.8532 120.267 96.1332 120.28 96.4132C120.467 99.9332 123.28 102.667 126.88 102.8C130.4 102.68 133.2 99.9332 133.387 96.4265C133.4 96.1465 133.374 95.8665 133.294 95.5732L133.24 95.5332ZM107.4 99.3332L111.227 92.8532L115.054 99.3332H107.4ZM126.774 88.2932C127.814 90.0398 129.534 92.9732 130.587 94.7732H122.947L126.774 88.2932Z" fill="#85401A"/>
</g>
</g>
<path d="M94.9886 127C94.8933 127 94.8196 126.974 94.7676 126.922C94.7156 126.861 94.6896 126.788 94.6896 126.701V118.212C94.6896 118.117 94.7156 118.043 94.7676 117.991C94.8196 117.93 94.8933 117.9 94.9886 117.9H97.9396C98.8323 117.9 99.5516 118.034 100.098 118.303C100.644 118.572 101.042 118.97 101.294 119.499C101.545 120.019 101.675 120.66 101.684 121.423C101.692 121.813 101.697 122.155 101.697 122.45C101.697 122.745 101.692 123.083 101.684 123.464C101.666 124.261 101.532 124.924 101.281 125.453C101.038 125.973 100.648 126.363 100.111 126.623C99.5819 126.874 98.8799 127 98.0046 127H94.9886ZM95.9636 125.895H97.9396C98.5376 125.895 99.0143 125.813 99.3696 125.648C99.7249 125.483 99.9806 125.219 100.137 124.855C100.301 124.491 100.388 124.01 100.397 123.412C100.414 123.152 100.423 122.927 100.423 122.736C100.423 122.537 100.423 122.342 100.423 122.151C100.423 121.952 100.414 121.726 100.397 121.475C100.379 120.634 100.18 120.015 99.7986 119.616C99.4173 119.209 98.7759 119.005 97.8746 119.005H95.9636V125.895ZM106.174 127.13C105.282 127.13 104.571 126.857 104.042 126.311C103.514 125.756 103.223 125.002 103.171 124.049C103.163 123.936 103.158 123.793 103.158 123.62C103.158 123.438 103.163 123.291 103.171 123.178C103.206 122.563 103.349 122.025 103.6 121.566C103.852 121.098 104.194 120.738 104.627 120.487C105.069 120.236 105.585 120.11 106.174 120.11C106.833 120.11 107.383 120.249 107.825 120.526C108.276 120.803 108.618 121.198 108.852 121.709C109.086 122.22 109.203 122.818 109.203 123.503V123.724C109.203 123.819 109.173 123.893 109.112 123.945C109.06 123.997 108.991 124.023 108.904 124.023H104.406C104.406 124.032 104.406 124.049 104.406 124.075C104.406 124.101 104.406 124.123 104.406 124.14C104.424 124.495 104.502 124.829 104.64 125.141C104.779 125.444 104.978 125.691 105.238 125.882C105.498 126.073 105.81 126.168 106.174 126.168C106.486 126.168 106.746 126.12 106.954 126.025C107.162 125.93 107.331 125.826 107.461 125.713C107.591 125.592 107.678 125.501 107.721 125.44C107.799 125.327 107.86 125.262 107.903 125.245C107.947 125.219 108.016 125.206 108.111 125.206H108.735C108.822 125.206 108.891 125.232 108.943 125.284C109.004 125.327 109.03 125.392 109.021 125.479C109.013 125.609 108.943 125.769 108.813 125.96C108.683 126.142 108.497 126.324 108.254 126.506C108.012 126.688 107.717 126.84 107.37 126.961C107.024 127.074 106.625 127.13 106.174 127.13ZM104.406 123.126H107.968V123.087C107.968 122.697 107.895 122.35 107.747 122.047C107.609 121.744 107.405 121.505 107.136 121.332C106.868 121.15 106.547 121.059 106.174 121.059C105.802 121.059 105.481 121.15 105.212 121.332C104.952 121.505 104.753 121.744 104.614 122.047C104.476 122.35 104.406 122.697 104.406 123.087V123.126ZM111.057 127C110.97 127 110.897 126.974 110.836 126.922C110.784 126.861 110.758 126.788 110.758 126.701V120.552C110.758 120.465 110.784 120.392 110.836 120.331C110.897 120.27 110.97 120.24 111.057 120.24H111.655C111.742 120.24 111.815 120.27 111.876 120.331C111.937 120.392 111.967 120.465 111.967 120.552V121.124C112.14 120.829 112.379 120.608 112.682 120.461C112.985 120.314 113.349 120.24 113.774 120.24H114.294C114.381 120.24 114.45 120.27 114.502 120.331C114.554 120.383 114.58 120.452 114.58 120.539V121.072C114.58 121.159 114.554 121.228 114.502 121.28C114.45 121.332 114.381 121.358 114.294 121.358H113.514C113.046 121.358 112.678 121.497 112.409 121.774C112.14 122.043 112.006 122.411 112.006 122.879V126.701C112.006 126.788 111.976 126.861 111.915 126.922C111.854 126.974 111.781 127 111.694 127H111.057ZM118.26 127.13C117.368 127.13 116.657 126.857 116.128 126.311C115.6 125.756 115.309 125.002 115.257 124.049C115.249 123.936 115.244 123.793 115.244 123.62C115.244 123.438 115.249 123.291 115.257 123.178C115.292 122.563 115.435 122.025 115.686 121.566C115.938 121.098 116.28 120.738 116.713 120.487C117.155 120.236 117.671 120.11 118.26 120.11C118.919 120.11 119.469 120.249 119.911 120.526C120.362 120.803 120.704 121.198 120.938 121.709C121.172 122.22 121.289 122.818 121.289 123.503V123.724C121.289 123.819 121.259 123.893 121.198 123.945C121.146 123.997 121.077 124.023 120.99 124.023H116.492C116.492 124.032 116.492 124.049 116.492 124.075C116.492 124.101 116.492 124.123 116.492 124.14C116.51 124.495 116.588 124.829 116.726 125.141C116.865 125.444 117.064 125.691 117.324 125.882C117.584 126.073 117.896 126.168 118.26 126.168C118.572 126.168 118.832 126.12 119.04 126.025C119.248 125.93 119.417 125.826 119.547 125.713C119.677 125.592 119.764 125.501 119.807 125.44C119.885 125.327 119.946 125.262 119.989 125.245C120.033 125.219 120.102 125.206 120.197 125.206H120.821C120.908 125.206 120.977 125.232 121.029 125.284C121.09 125.327 121.116 125.392 121.107 125.479C121.099 125.609 121.029 125.769 120.899 125.96C120.769 126.142 120.583 126.324 120.34 126.506C120.098 126.688 119.803 126.84 119.456 126.961C119.11 127.074 118.711 127.13 118.26 127.13ZM116.492 123.126H120.054V123.087C120.054 122.697 119.981 122.35 119.833 122.047C119.695 121.744 119.491 121.505 119.222 121.332C118.954 121.15 118.633 121.059 118.26 121.059C117.888 121.059 117.567 121.15 117.298 121.332C117.038 121.505 116.839 121.744 116.7 122.047C116.562 122.35 116.492 122.697 116.492 123.087V123.126ZM125.574 127.13C124.959 127.13 124.426 127.013 123.975 126.779C123.533 126.536 123.191 126.194 122.948 125.752C122.705 125.301 122.575 124.764 122.558 124.14C122.549 124.01 122.545 123.837 122.545 123.62C122.545 123.403 122.549 123.23 122.558 123.1C122.575 122.476 122.705 121.943 122.948 121.501C123.191 121.05 123.533 120.708 123.975 120.474C124.426 120.231 124.959 120.11 125.574 120.11C126.077 120.11 126.506 120.179 126.861 120.318C127.225 120.457 127.524 120.634 127.758 120.851C127.992 121.068 128.165 121.302 128.278 121.553C128.399 121.804 128.464 122.043 128.473 122.268C128.482 122.355 128.456 122.424 128.395 122.476C128.334 122.528 128.261 122.554 128.174 122.554H127.55C127.463 122.554 127.398 122.537 127.355 122.502C127.312 122.459 127.268 122.389 127.225 122.294C127.069 121.869 126.857 121.57 126.588 121.397C126.319 121.224 125.986 121.137 125.587 121.137C125.067 121.137 124.642 121.297 124.313 121.618C123.992 121.939 123.819 122.454 123.793 123.165C123.784 123.477 123.784 123.78 123.793 124.075C123.819 124.794 123.992 125.314 124.313 125.635C124.642 125.947 125.067 126.103 125.587 126.103C125.986 126.103 126.319 126.016 126.588 125.843C126.857 125.67 127.069 125.371 127.225 124.946C127.268 124.851 127.312 124.786 127.355 124.751C127.398 124.708 127.463 124.686 127.55 124.686H128.174C128.261 124.686 128.334 124.712 128.395 124.764C128.456 124.816 128.482 124.885 128.473 124.972C128.464 125.154 128.425 125.34 128.356 125.531C128.287 125.722 128.174 125.917 128.018 126.116C127.871 126.307 127.684 126.48 127.459 126.636C127.234 126.783 126.961 126.905 126.64 127C126.328 127.087 125.973 127.13 125.574 127.13ZM130.329 127C130.242 127 130.168 126.974 130.108 126.922C130.056 126.861 130.03 126.788 130.03 126.701V118.069C130.03 117.982 130.056 117.913 130.108 117.861C130.168 117.8 130.242 117.77 130.329 117.77H130.979C131.074 117.77 131.148 117.8 131.2 117.861C131.252 117.913 131.278 117.982 131.278 118.069V121.098C131.512 120.803 131.798 120.565 132.136 120.383C132.474 120.201 132.903 120.11 133.423 120.11C133.986 120.11 134.463 120.236 134.853 120.487C135.251 120.73 135.55 121.072 135.75 121.514C135.958 121.947 136.062 122.454 136.062 123.035V126.701C136.062 126.788 136.036 126.861 135.984 126.922C135.932 126.974 135.858 127 135.763 127H135.113C135.026 127 134.952 126.974 134.892 126.922C134.84 126.861 134.814 126.788 134.814 126.701V123.1C134.814 122.493 134.666 122.021 134.372 121.683C134.077 121.336 133.644 121.163 133.072 121.163C132.534 121.163 132.101 121.336 131.772 121.683C131.442 122.021 131.278 122.493 131.278 123.1V126.701C131.278 126.788 131.252 126.861 131.2 126.922C131.148 126.974 131.074 127 130.979 127H130.329ZM140.708 127.13C140.049 127.13 139.499 127.004 139.057 126.753C138.615 126.502 138.277 126.155 138.043 125.713C137.809 125.262 137.679 124.751 137.653 124.179C137.644 124.032 137.64 123.845 137.64 123.62C137.64 123.386 137.644 123.2 137.653 123.061C137.679 122.48 137.809 121.969 138.043 121.527C138.285 121.085 138.628 120.738 139.07 120.487C139.512 120.236 140.058 120.11 140.708 120.11C141.358 120.11 141.904 120.236 142.346 120.487C142.788 120.738 143.126 121.085 143.36 121.527C143.602 121.969 143.737 122.48 143.763 123.061C143.771 123.2 143.776 123.386 143.776 123.62C143.776 123.845 143.771 124.032 143.763 124.179C143.737 124.751 143.607 125.262 143.373 125.713C143.139 126.155 142.801 126.502 142.359 126.753C141.917 127.004 141.366 127.13 140.708 127.13ZM140.708 126.129C141.245 126.129 141.674 125.96 141.995 125.622C142.315 125.275 142.489 124.773 142.515 124.114C142.523 123.984 142.528 123.819 142.528 123.62C142.528 123.421 142.523 123.256 142.515 123.126C142.489 122.467 142.315 121.969 141.995 121.631C141.674 121.284 141.245 121.111 140.708 121.111C140.17 121.111 139.737 121.284 139.408 121.631C139.087 121.969 138.918 122.467 138.901 123.126C138.892 123.256 138.888 123.421 138.888 123.62C138.888 123.819 138.892 123.984 138.901 124.114C138.918 124.773 139.087 125.275 139.408 125.622C139.737 125.96 140.17 126.129 140.708 126.129Z" fill="#EBECEE"/>
<rect x="100.5" y="134" width="37" height="25" rx="12.5" fill="#85401A"/>
<path d="M113.342 151.14C112.67 151.14 112.086 151.047 111.592 150.86C111.097 150.664 110.686 150.398 110.36 150.062C110.042 149.726 109.8 149.334 109.632 148.886C109.464 148.438 109.366 147.957 109.338 147.444C109.328 147.192 109.319 146.907 109.31 146.59C109.31 146.263 109.31 145.937 109.31 145.61C109.319 145.274 109.328 144.975 109.338 144.714C109.366 144.201 109.464 143.725 109.632 143.286C109.809 142.838 110.061 142.451 110.388 142.124C110.724 141.788 111.134 141.527 111.62 141.34C112.114 141.153 112.688 141.06 113.342 141.06C114.004 141.06 114.578 141.153 115.064 141.34C115.549 141.527 115.955 141.788 116.282 142.124C116.618 142.451 116.874 142.838 117.052 143.286C117.229 143.725 117.327 144.201 117.346 144.714C117.364 144.975 117.374 145.274 117.374 145.61C117.383 145.937 117.383 146.263 117.374 146.59C117.374 146.907 117.364 147.192 117.346 147.444C117.327 147.957 117.229 148.438 117.052 148.886C116.884 149.334 116.636 149.726 116.31 150.062C115.992 150.398 115.586 150.664 115.092 150.86C114.606 151.047 114.023 151.14 113.342 151.14ZM113.342 149.11C113.827 149.11 114.177 148.956 114.392 148.648C114.616 148.331 114.732 147.906 114.742 147.374C114.76 147.103 114.77 146.819 114.77 146.52C114.779 146.221 114.779 145.923 114.77 145.624C114.77 145.325 114.76 145.05 114.742 144.798C114.732 144.285 114.616 143.869 114.392 143.552C114.177 143.235 113.827 143.071 113.342 143.062C112.856 143.071 112.506 143.235 112.292 143.552C112.077 143.869 111.96 144.285 111.942 144.798C111.932 145.05 111.923 145.325 111.914 145.624C111.914 145.923 111.914 146.221 111.914 146.52C111.923 146.819 111.932 147.103 111.942 147.374C111.96 147.906 112.082 148.331 112.306 148.648C112.53 148.956 112.875 149.11 113.342 149.11ZM119.679 151C119.465 151 119.357 150.907 119.357 150.72C119.357 150.664 119.376 150.613 119.413 150.566L126.329 141.466C126.395 141.382 126.46 141.317 126.525 141.27C126.591 141.223 126.689 141.2 126.819 141.2H127.813C128.028 141.2 128.135 141.293 128.135 141.48C128.135 141.536 128.117 141.587 128.079 141.634L121.163 150.734C121.098 150.818 121.033 150.883 120.967 150.93C120.902 150.977 120.804 151 120.673 151H119.679ZM126.721 151.07C126.087 151.07 125.578 150.902 125.195 150.566C124.822 150.23 124.612 149.782 124.565 149.222C124.556 148.979 124.551 148.765 124.551 148.578C124.551 148.391 124.556 148.167 124.565 147.906C124.603 147.337 124.803 146.884 125.167 146.548C125.541 146.203 126.059 146.03 126.721 146.03C127.393 146.03 127.911 146.203 128.275 146.548C128.639 146.884 128.84 147.337 128.877 147.906C128.896 148.167 128.905 148.391 128.905 148.578C128.905 148.765 128.896 148.979 128.877 149.222C128.84 149.782 128.63 150.23 128.247 150.566C127.865 150.902 127.356 151.07 126.721 151.07ZM126.721 149.838C126.88 149.838 127.001 149.805 127.085 149.74C127.179 149.675 127.249 149.591 127.295 149.488C127.342 149.376 127.365 149.259 127.365 149.138C127.384 148.923 127.393 148.727 127.393 148.55C127.393 148.373 127.384 148.181 127.365 147.976C127.356 147.799 127.305 147.64 127.211 147.5C127.118 147.351 126.955 147.276 126.721 147.276C126.488 147.276 126.325 147.351 126.231 147.5C126.138 147.64 126.087 147.799 126.077 147.976C126.068 148.181 126.063 148.373 126.063 148.55C126.063 148.727 126.068 148.923 126.077 149.138C126.087 149.259 126.11 149.376 126.147 149.488C126.194 149.591 126.264 149.675 126.357 149.74C126.451 149.805 126.572 149.838 126.721 149.838ZM120.799 146.142C120.155 146.142 119.642 145.979 119.259 145.652C118.886 145.316 118.681 144.868 118.643 144.308C118.625 144.065 118.615 143.855 118.615 143.678C118.625 143.491 118.634 143.267 118.643 143.006C118.671 142.437 118.867 141.984 119.231 141.648C119.605 141.303 120.127 141.13 120.799 141.13C121.471 141.13 121.989 141.303 122.353 141.648C122.717 141.984 122.913 142.437 122.941 143.006C122.96 143.267 122.969 143.491 122.969 143.678C122.969 143.855 122.96 144.065 122.941 144.308C122.913 144.868 122.708 145.316 122.325 145.652C121.943 145.979 121.434 146.142 120.799 146.142ZM120.799 144.938C120.949 144.938 121.07 144.905 121.163 144.84C121.257 144.765 121.327 144.677 121.373 144.574C121.42 144.462 121.443 144.35 121.443 144.238C121.462 144.023 121.471 143.827 121.471 143.65C121.471 143.473 121.462 143.281 121.443 143.076C121.434 142.899 121.378 142.74 121.275 142.6C121.182 142.451 121.023 142.376 120.799 142.376C120.566 142.376 120.398 142.451 120.295 142.6C120.202 142.74 120.151 142.899 120.141 143.076C120.132 143.281 120.127 143.473 120.127 143.65C120.127 143.827 120.132 144.023 120.141 144.238C120.151 144.35 120.174 144.462 120.211 144.574C120.258 144.677 120.328 144.765 120.421 144.84C120.515 144.905 120.641 144.938 120.799 144.938Z" fill="#EBECEE"/>
<g filter="url(#filter1_d_15958_23158)">
<rect x="148" y="74" width="32" height="32" rx="16" fill="white"/>
<rect x="147" y="73" width="34" height="34" rx="17" stroke="#1DA534" stroke-width="2"/>
<path opacity="0.4" d="M164 100C169.523 100 174 95.5228 174 90C174 84.4772 169.523 80 164 80C158.477 80 154 84.4772 154 90C154 95.5228 158.477 100 164 100Z" fill="#1DA534"/>
<path d="M162.579 93.5801C162.379 93.5801 162.189 93.5001 162.049 93.3601L159.219 90.5301C158.929 90.2401 158.929 89.7601 159.219 89.4701C159.509 89.1801 159.989 89.1801 160.279 89.4701L162.579 91.7701L167.719 86.6301C168.009 86.3401 168.489 86.3401 168.779 86.6301C169.069 86.9201 169.069 87.4001 168.779 87.6901L163.109 93.3601C162.969 93.5001 162.779 93.5801 162.579 93.5801Z" fill="#1DA534"/>
</g>
</g>
<defs>
<filter id="filter0_d_15958_23158" x="0" y="0" width="242" height="238" filterUnits="userSpaceOnUse" color-interpolation-filters="sRGB">
<feFlood flood-opacity="0" result="BackgroundImageFix"/>
<feColorMatrix in="SourceAlpha" type="matrix" values="0 0 0 0 0 0 0 0 0 0 0 0 0 0 0 0 0 0 127 0" result="hardAlpha"/>
<feOffset/>
<feGaussianBlur stdDeviation="30"/>
<feComposite in2="hardAlpha" operator="out"/>
<feColorMatrix type="matrix" values="0 0 0 0 0.517647 0 0 0 0 0.254902 0 0 0 0 0.109804 0 0 0 1 0"/>
<feBlend mode="normal" in2="BackgroundImageFix" result="effect1_dropShadow_15958_23158"/>
<feBlend mode="normal" in="SourceGraphic" in2="effect1_dropShadow_15958_23158" result="shape"/>
</filter>
<filter id="filter1_d_15958_23158" x="131" y="65" width="66" height="66" filterUnits="userSpaceOnUse" color-interpolation-filters="sRGB">
<feFlood flood-opacity="0" result="BackgroundImageFix"/>
<feColorMatrix in="SourceAlpha" type="matrix" values="0 0 0 0 0 0 0 0 0 0 0 0 0 0 0 0 0 0 127 0" result="hardAlpha"/>
<feOffset dy="8"/>
<feGaussianBlur stdDeviation="7.5"/>
<feColorMatrix type="matrix" values="0 0 0 0 0 0 0 0 0 0 0 0 0 0 0 0 0 0 0.25 0"/>
<feBlend mode="normal" in2="BackgroundImageFix" result="effect1_dropShadow_15958_23158"/>
<feBlend mode="normal" in="SourceGraphic" in2="effect1_dropShadow_15958_23158" result="shape"/>
</filter>
<clipPath id="clip0_15958_23158">
<rect width="32" height="32" fill="white" transform="translate(103 79)"/>
</clipPath>
</defs>
</svg>
