<svg width="242" height="238" viewBox="0 0 242 238" fill="none" xmlns="http://www.w3.org/2000/svg">
<g filter="url(#filter0_d_15958_23132)">
<rect x="64" y="64" width="110" height="110" rx="55" fill="#E53939" fill-opacity="0.15" shape-rendering="crispEdges"/>
<rect x="62" y="62" width="114" height="114" rx="57" stroke="#E53939" stroke-width="4" shape-rendering="crispEdges"/>
<rect opacity="0.4" x="105.666" y="81.6665" width="26.6667" height="26.6667" rx="5" fill="#E53939"/>
<g clip-path="url(#clip0_15958_23132)">
<path d="M112.801 100.3C112.801 98.6044 112.796 96.9085 112.806 95.2133C112.808 94.9899 112.759 94.9268 112.53 94.9324C111.844 94.9502 111.157 94.9324 110.471 94.943C110.3 94.9454 110.252 94.8976 110.254 94.726C110.264 94.0598 110.264 93.3935 110.254 92.7281C110.252 92.5557 110.302 92.5095 110.472 92.512C111.168 92.5209 111.865 92.5079 112.56 92.5209C112.763 92.5249 112.806 92.4642 112.806 92.2707C112.797 90.9787 112.8 89.6875 112.802 88.3956C112.804 86.12 114.587 84.3407 116.865 84.3382C117.38 84.3382 117.895 84.3463 118.409 84.3342C118.586 84.3301 118.624 84.3884 118.622 84.5544C118.613 85.2206 118.611 85.8868 118.622 86.5523C118.625 86.7296 118.565 86.7619 118.401 86.7652C117.787 86.7765 117.167 86.6956 116.559 86.8048C115.78 86.9457 115.247 87.5464 115.234 88.3381C115.212 89.6697 115.231 91.0022 115.222 92.3347C115.22 92.5201 115.309 92.5176 115.442 92.5168C116.098 92.5128 116.754 92.5201 117.41 92.512C117.576 92.5104 117.66 92.5233 117.655 92.7314C117.64 93.3968 117.643 94.0638 117.654 94.7293C117.657 94.9065 117.598 94.9438 117.433 94.9413C116.787 94.9324 116.141 94.9503 115.496 94.9308C115.258 94.9235 115.221 95.0004 115.222 95.2166C115.229 98.5971 115.224 101.979 115.233 105.359C115.233 105.617 115.166 105.673 114.919 105.665C114.294 105.646 113.668 105.65 113.043 105.663C112.842 105.668 112.796 105.609 112.797 105.414C112.805 103.708 112.802 102.003 112.802 100.297L112.801 100.3Z" fill="#E53939"/>
<path d="M126.745 96.9985C125.789 98.4014 124.868 99.7582 123.936 101.108C123.814 101.283 123.804 101.395 123.93 101.576C124.802 102.834 125.66 104.101 126.522 105.366C126.577 105.447 126.629 105.53 126.713 105.66H125.995C125.339 105.66 124.683 105.651 124.027 105.666C123.829 105.67 123.723 105.604 123.616 105.442C123.195 104.805 122.758 104.179 122.303 103.514C121.857 104.165 121.422 104.786 121.005 105.42C120.888 105.599 120.767 105.671 120.547 105.667C119.679 105.651 118.811 105.66 117.934 105.66C117.928 105.542 118.011 105.477 118.064 105.4C118.931 104.126 119.796 102.852 120.671 101.585C120.79 101.413 120.802 101.296 120.676 101.113C119.792 99.8391 118.924 98.5552 118.05 97.2746C117.996 97.1944 117.942 97.1143 117.863 96.9977C118.836 96.9977 119.761 97.0009 120.684 96.9937C120.829 96.9928 120.871 97.0868 120.931 97.175C121.381 97.8307 121.829 98.4872 122.299 99.1761C122.55 98.8143 122.788 98.4702 123.026 98.1246C123.247 97.8008 123.47 97.4769 123.689 97.1515C123.745 97.0665 123.788 96.9928 123.916 96.9937C124.842 96.9993 125.768 96.9969 126.745 96.9969V96.9985Z" fill="#E53939"/>
</g>
<path d="M101.101 127.13C100.304 127.13 99.641 126.983 99.1123 126.688C98.5923 126.393 98.198 125.982 97.9293 125.453C97.6607 124.924 97.5133 124.309 97.4873 123.607C97.4787 123.252 97.4743 122.87 97.4743 122.463C97.4743 122.056 97.4787 121.666 97.4873 121.293C97.5133 120.591 97.6607 119.976 97.9293 119.447C98.198 118.918 98.5923 118.507 99.1123 118.212C99.641 117.917 100.304 117.77 101.101 117.77C101.699 117.77 102.224 117.852 102.674 118.017C103.125 118.182 103.498 118.403 103.792 118.68C104.096 118.957 104.325 119.269 104.481 119.616C104.637 119.954 104.724 120.305 104.741 120.669C104.75 120.747 104.724 120.812 104.663 120.864C104.611 120.916 104.546 120.942 104.468 120.942H103.753C103.675 120.942 103.606 120.92 103.545 120.877C103.493 120.834 103.454 120.756 103.428 120.643C103.281 119.967 103.004 119.503 102.596 119.252C102.198 119.001 101.695 118.875 101.088 118.875C100.395 118.875 99.8447 119.074 99.4373 119.473C99.03 119.863 98.809 120.491 98.7743 121.358C98.7483 122.069 98.7483 122.797 98.7743 123.542C98.809 124.409 99.03 125.041 99.4373 125.44C99.8447 125.83 100.395 126.025 101.088 126.025C101.695 126.025 102.198 125.899 102.596 125.648C103.004 125.397 103.281 124.933 103.428 124.257C103.454 124.144 103.493 124.066 103.545 124.023C103.606 123.98 103.675 123.958 103.753 123.958H104.468C104.546 123.958 104.611 123.984 104.663 124.036C104.724 124.088 104.75 124.153 104.741 124.231C104.724 124.595 104.637 124.95 104.481 125.297C104.325 125.635 104.096 125.943 103.792 126.22C103.498 126.497 103.125 126.718 102.674 126.883C102.224 127.048 101.699 127.13 101.101 127.13ZM108.2 127.13C107.766 127.13 107.372 127.043 107.017 126.87C106.661 126.697 106.375 126.463 106.159 126.168C105.942 125.873 105.834 125.54 105.834 125.167C105.834 124.569 106.076 124.092 106.562 123.737C107.047 123.382 107.68 123.148 108.46 123.035L110.397 122.762V122.385C110.397 121.969 110.275 121.644 110.033 121.41C109.799 121.176 109.413 121.059 108.876 121.059C108.486 121.059 108.169 121.137 107.927 121.293C107.693 121.449 107.528 121.648 107.433 121.891C107.381 122.021 107.29 122.086 107.16 122.086H106.575C106.479 122.086 106.406 122.06 106.354 122.008C106.31 121.947 106.289 121.878 106.289 121.8C106.289 121.67 106.336 121.51 106.432 121.319C106.536 121.128 106.692 120.942 106.9 120.76C107.108 120.578 107.372 120.426 107.693 120.305C108.022 120.175 108.421 120.11 108.889 120.11C109.409 120.11 109.846 120.179 110.202 120.318C110.557 120.448 110.834 120.626 111.034 120.851C111.242 121.076 111.389 121.332 111.476 121.618C111.571 121.904 111.619 122.194 111.619 122.489V126.701C111.619 126.788 111.588 126.861 111.528 126.922C111.476 126.974 111.406 127 111.32 127H110.722C110.626 127 110.553 126.974 110.501 126.922C110.449 126.861 110.423 126.788 110.423 126.701V126.142C110.31 126.298 110.158 126.454 109.968 126.61C109.777 126.757 109.539 126.883 109.253 126.987C108.967 127.082 108.616 127.13 108.2 127.13ZM108.473 126.155C108.828 126.155 109.153 126.081 109.448 125.934C109.742 125.778 109.972 125.54 110.137 125.219C110.31 124.898 110.397 124.495 110.397 124.01V123.646L108.889 123.867C108.273 123.954 107.81 124.101 107.498 124.309C107.186 124.508 107.03 124.764 107.03 125.076C107.03 125.319 107.099 125.522 107.238 125.687C107.385 125.843 107.567 125.96 107.784 126.038C108.009 126.116 108.239 126.155 108.473 126.155ZM108.551 119.265C108.412 119.265 108.343 119.196 108.343 119.057C108.343 118.988 108.364 118.931 108.408 118.888L109.383 117.718C109.461 117.623 109.53 117.562 109.591 117.536C109.651 117.501 109.742 117.484 109.864 117.484H110.748C110.912 117.484 110.995 117.566 110.995 117.731C110.995 117.792 110.973 117.844 110.93 117.887L109.422 119.122C109.352 119.183 109.287 119.222 109.227 119.239C109.166 119.256 109.088 119.265 108.993 119.265H108.551ZM113.799 127C113.713 127 113.639 126.974 113.578 126.922C113.526 126.861 113.5 126.788 113.5 126.701V118.069C113.5 117.982 113.526 117.913 113.578 117.861C113.639 117.8 113.713 117.77 113.799 117.77H114.41C114.506 117.77 114.579 117.8 114.631 117.861C114.683 117.913 114.709 117.982 114.709 118.069V126.701C114.709 126.788 114.683 126.861 114.631 126.922C114.579 126.974 114.506 127 114.41 127H113.799ZM119.379 127.13C118.763 127.13 118.23 127.013 117.78 126.779C117.338 126.536 116.995 126.194 116.753 125.752C116.51 125.301 116.38 124.764 116.363 124.14C116.354 124.01 116.35 123.837 116.35 123.62C116.35 123.403 116.354 123.23 116.363 123.1C116.38 122.476 116.51 121.943 116.753 121.501C116.995 121.05 117.338 120.708 117.78 120.474C118.23 120.231 118.763 120.11 119.379 120.11C119.881 120.11 120.31 120.179 120.666 120.318C121.03 120.457 121.329 120.634 121.563 120.851C121.797 121.068 121.97 121.302 122.083 121.553C122.204 121.804 122.269 122.043 122.278 122.268C122.286 122.355 122.26 122.424 122.2 122.476C122.139 122.528 122.065 122.554 121.979 122.554H121.355C121.268 122.554 121.203 122.537 121.16 122.502C121.116 122.459 121.073 122.389 121.03 122.294C120.874 121.869 120.661 121.57 120.393 121.397C120.124 121.224 119.79 121.137 119.392 121.137C118.872 121.137 118.447 121.297 118.118 121.618C117.797 121.939 117.624 122.454 117.598 123.165C117.589 123.477 117.589 123.78 117.598 124.075C117.624 124.794 117.797 125.314 118.118 125.635C118.447 125.947 118.872 126.103 119.392 126.103C119.79 126.103 120.124 126.016 120.393 125.843C120.661 125.67 120.874 125.371 121.03 124.946C121.073 124.851 121.116 124.786 121.16 124.751C121.203 124.708 121.268 124.686 121.355 124.686H121.979C122.065 124.686 122.139 124.712 122.2 124.764C122.26 124.816 122.286 124.885 122.278 124.972C122.269 125.154 122.23 125.34 122.161 125.531C122.091 125.722 121.979 125.917 121.823 126.116C121.675 126.307 121.489 126.48 121.264 126.636C121.038 126.783 120.765 126.905 120.445 127C120.133 127.087 119.777 127.13 119.379 127.13ZM126.343 127.13C125.789 127.13 125.316 127.009 124.926 126.766C124.545 126.515 124.255 126.168 124.055 125.726C123.856 125.284 123.756 124.777 123.756 124.205V120.539C123.756 120.452 123.782 120.383 123.834 120.331C123.895 120.27 123.969 120.24 124.055 120.24H124.705C124.792 120.24 124.861 120.27 124.913 120.331C124.974 120.383 125.004 120.452 125.004 120.539V124.14C125.004 125.431 125.568 126.077 126.694 126.077C127.232 126.077 127.661 125.908 127.981 125.57C128.311 125.223 128.475 124.747 128.475 124.14V120.539C128.475 120.452 128.501 120.383 128.553 120.331C128.614 120.27 128.688 120.24 128.774 120.24H129.411C129.507 120.24 129.58 120.27 129.632 120.331C129.684 120.383 129.71 120.452 129.71 120.539V126.701C129.71 126.788 129.684 126.861 129.632 126.922C129.58 126.974 129.507 127 129.411 127H128.813C128.727 127 128.653 126.974 128.592 126.922C128.54 126.861 128.514 126.788 128.514 126.701V126.129C128.28 126.432 127.994 126.675 127.656 126.857C127.327 127.039 126.889 127.13 126.343 127.13ZM131.954 127C131.867 127 131.793 126.974 131.733 126.922C131.681 126.861 131.655 126.788 131.655 126.701V118.069C131.655 117.982 131.681 117.913 131.733 117.861C131.793 117.8 131.867 117.77 131.954 117.77H132.565C132.66 117.77 132.734 117.8 132.786 117.861C132.838 117.913 132.864 117.982 132.864 118.069V126.701C132.864 126.788 132.838 126.861 132.786 126.922C132.734 126.974 132.66 127 132.565 127H131.954ZM137.572 127.13C136.913 127.13 136.363 127.004 135.921 126.753C135.479 126.502 135.141 126.155 134.907 125.713C134.673 125.262 134.543 124.751 134.517 124.179C134.508 124.032 134.504 123.845 134.504 123.62C134.504 123.386 134.508 123.2 134.517 123.061C134.543 122.48 134.673 121.969 134.907 121.527C135.149 121.085 135.492 120.738 135.934 120.487C136.376 120.236 136.922 120.11 137.572 120.11C138.222 120.11 138.768 120.236 139.21 120.487C139.652 120.738 139.99 121.085 140.224 121.527C140.466 121.969 140.601 122.48 140.627 123.061C140.635 123.2 140.64 123.386 140.64 123.62C140.64 123.845 140.635 124.032 140.627 124.179C140.601 124.751 140.471 125.262 140.237 125.713C140.003 126.155 139.665 126.502 139.223 126.753C138.781 127.004 138.23 127.13 137.572 127.13ZM137.572 126.129C138.109 126.129 138.538 125.96 138.859 125.622C139.179 125.275 139.353 124.773 139.379 124.114C139.387 123.984 139.392 123.819 139.392 123.62C139.392 123.421 139.387 123.256 139.379 123.126C139.353 122.467 139.179 121.969 138.859 121.631C138.538 121.284 138.109 121.111 137.572 121.111C137.034 121.111 136.601 121.284 136.272 121.631C135.951 121.969 135.782 122.467 135.765 123.126C135.756 123.256 135.752 123.421 135.752 123.62C135.752 123.819 135.756 123.984 135.765 124.114C135.782 124.773 135.951 125.275 136.272 125.622C136.601 125.96 137.034 126.129 137.572 126.129Z" fill="#EBECEE"/>
<rect x="100.5" y="134" width="37" height="25" rx="12.5" fill="#E53939"/>
<path d="M113.342 151.14C112.67 151.14 112.086 151.047 111.592 150.86C111.097 150.664 110.686 150.398 110.36 150.062C110.042 149.726 109.8 149.334 109.632 148.886C109.464 148.438 109.366 147.957 109.338 147.444C109.328 147.192 109.319 146.907 109.31 146.59C109.31 146.263 109.31 145.937 109.31 145.61C109.319 145.274 109.328 144.975 109.338 144.714C109.366 144.201 109.464 143.725 109.632 143.286C109.809 142.838 110.061 142.451 110.388 142.124C110.724 141.788 111.134 141.527 111.62 141.34C112.114 141.153 112.688 141.06 113.342 141.06C114.004 141.06 114.578 141.153 115.064 141.34C115.549 141.527 115.955 141.788 116.282 142.124C116.618 142.451 116.874 142.838 117.052 143.286C117.229 143.725 117.327 144.201 117.346 144.714C117.364 144.975 117.374 145.274 117.374 145.61C117.383 145.937 117.383 146.263 117.374 146.59C117.374 146.907 117.364 147.192 117.346 147.444C117.327 147.957 117.229 148.438 117.052 148.886C116.884 149.334 116.636 149.726 116.31 150.062C115.992 150.398 115.586 150.664 115.092 150.86C114.606 151.047 114.023 151.14 113.342 151.14ZM113.342 149.11C113.827 149.11 114.177 148.956 114.392 148.648C114.616 148.331 114.732 147.906 114.742 147.374C114.76 147.103 114.77 146.819 114.77 146.52C114.779 146.221 114.779 145.923 114.77 145.624C114.77 145.325 114.76 145.05 114.742 144.798C114.732 144.285 114.616 143.869 114.392 143.552C114.177 143.235 113.827 143.071 113.342 143.062C112.856 143.071 112.506 143.235 112.292 143.552C112.077 143.869 111.96 144.285 111.942 144.798C111.932 145.05 111.923 145.325 111.914 145.624C111.914 145.923 111.914 146.221 111.914 146.52C111.923 146.819 111.932 147.103 111.942 147.374C111.96 147.906 112.082 148.331 112.306 148.648C112.53 148.956 112.875 149.11 113.342 149.11ZM119.679 151C119.465 151 119.357 150.907 119.357 150.72C119.357 150.664 119.376 150.613 119.413 150.566L126.329 141.466C126.395 141.382 126.46 141.317 126.525 141.27C126.591 141.223 126.689 141.2 126.819 141.2H127.813C128.028 141.2 128.135 141.293 128.135 141.48C128.135 141.536 128.117 141.587 128.079 141.634L121.163 150.734C121.098 150.818 121.033 150.883 120.967 150.93C120.902 150.977 120.804 151 120.673 151H119.679ZM126.721 151.07C126.087 151.07 125.578 150.902 125.195 150.566C124.822 150.23 124.612 149.782 124.565 149.222C124.556 148.979 124.551 148.765 124.551 148.578C124.551 148.391 124.556 148.167 124.565 147.906C124.603 147.337 124.803 146.884 125.167 146.548C125.541 146.203 126.059 146.03 126.721 146.03C127.393 146.03 127.911 146.203 128.275 146.548C128.639 146.884 128.84 147.337 128.877 147.906C128.896 148.167 128.905 148.391 128.905 148.578C128.905 148.765 128.896 148.979 128.877 149.222C128.84 149.782 128.63 150.23 128.247 150.566C127.865 150.902 127.356 151.07 126.721 151.07ZM126.721 149.838C126.88 149.838 127.001 149.805 127.085 149.74C127.179 149.675 127.249 149.591 127.295 149.488C127.342 149.376 127.365 149.259 127.365 149.138C127.384 148.923 127.393 148.727 127.393 148.55C127.393 148.373 127.384 148.181 127.365 147.976C127.356 147.799 127.305 147.64 127.211 147.5C127.118 147.351 126.955 147.276 126.721 147.276C126.488 147.276 126.325 147.351 126.231 147.5C126.138 147.64 126.087 147.799 126.077 147.976C126.068 148.181 126.063 148.373 126.063 148.55C126.063 148.727 126.068 148.923 126.077 149.138C126.087 149.259 126.11 149.376 126.147 149.488C126.194 149.591 126.264 149.675 126.357 149.74C126.451 149.805 126.572 149.838 126.721 149.838ZM120.799 146.142C120.155 146.142 119.642 145.979 119.259 145.652C118.886 145.316 118.681 144.868 118.643 144.308C118.625 144.065 118.615 143.855 118.615 143.678C118.625 143.491 118.634 143.267 118.643 143.006C118.671 142.437 118.867 141.984 119.231 141.648C119.605 141.303 120.127 141.13 120.799 141.13C121.471 141.13 121.989 141.303 122.353 141.648C122.717 141.984 122.913 142.437 122.941 143.006C122.96 143.267 122.969 143.491 122.969 143.678C122.969 143.855 122.96 144.065 122.941 144.308C122.913 144.868 122.708 145.316 122.325 145.652C121.943 145.979 121.434 146.142 120.799 146.142ZM120.799 144.938C120.949 144.938 121.07 144.905 121.163 144.84C121.257 144.765 121.327 144.677 121.373 144.574C121.42 144.462 121.443 144.35 121.443 144.238C121.462 144.023 121.471 143.827 121.471 143.65C121.471 143.473 121.462 143.281 121.443 143.076C121.434 142.899 121.378 142.74 121.275 142.6C121.182 142.451 121.023 142.376 120.799 142.376C120.566 142.376 120.398 142.451 120.295 142.6C120.202 142.74 120.151 142.899 120.141 143.076C120.132 143.281 120.127 143.473 120.127 143.65C120.127 143.827 120.132 144.023 120.141 144.238C120.151 144.35 120.174 144.462 120.211 144.574C120.258 144.677 120.328 144.765 120.421 144.84C120.515 144.905 120.641 144.938 120.799 144.938Z" fill="#EBECEE"/>
<g filter="url(#filter1_d_15958_23132)">
<rect x="148" y="74" width="32" height="32" rx="16" fill="white"/>
<rect x="147" y="73" width="34" height="34" rx="17" stroke="#1DA534" stroke-width="2"/>
<path opacity="0.4" d="M164 100C169.523 100 174 95.5228 174 90C174 84.4772 169.523 80 164 80C158.477 80 154 84.4772 154 90C154 95.5228 158.477 100 164 100Z" fill="#1DA534"/>
<path d="M162.579 93.5801C162.379 93.5801 162.189 93.5001 162.049 93.3601L159.219 90.5301C158.929 90.2401 158.929 89.7601 159.219 89.4701C159.509 89.1801 159.989 89.1801 160.279 89.4701L162.579 91.7701L167.719 86.6301C168.009 86.3401 168.489 86.3401 168.779 86.6301C169.069 86.9201 169.069 87.4001 168.779 87.6901L163.109 93.3601C162.969 93.5001 162.779 93.5801 162.579 93.5801Z" fill="#1DA534"/>
</g>
</g>
<defs>
<filter id="filter0_d_15958_23132" x="0" y="0" width="242" height="238" filterUnits="userSpaceOnUse" color-interpolation-filters="sRGB">
<feFlood flood-opacity="0" result="BackgroundImageFix"/>
<feColorMatrix in="SourceAlpha" type="matrix" values="0 0 0 0 0 0 0 0 0 0 0 0 0 0 0 0 0 0 127 0" result="hardAlpha"/>
<feOffset/>
<feGaussianBlur stdDeviation="30"/>
<feComposite in2="hardAlpha" operator="out"/>
<feColorMatrix type="matrix" values="0 0 0 0 0.886275 0 0 0 0 0.235294 0 0 0 0 0.227451 0 0 0 1 0"/>
<feBlend mode="normal" in2="BackgroundImageFix" result="effect1_dropShadow_15958_23132"/>
<feBlend mode="normal" in="SourceGraphic" in2="effect1_dropShadow_15958_23132" result="shape"/>
</filter>
<filter id="filter1_d_15958_23132" x="131" y="65" width="66" height="66" filterUnits="userSpaceOnUse" color-interpolation-filters="sRGB">
<feFlood flood-opacity="0" result="BackgroundImageFix"/>
<feColorMatrix in="SourceAlpha" type="matrix" values="0 0 0 0 0 0 0 0 0 0 0 0 0 0 0 0 0 0 127 0" result="hardAlpha"/>
<feOffset dy="8"/>
<feGaussianBlur stdDeviation="7.5"/>
<feColorMatrix type="matrix" values="0 0 0 0 0 0 0 0 0 0 0 0 0 0 0 0 0 0 0.25 0"/>
<feBlend mode="normal" in2="BackgroundImageFix" result="effect1_dropShadow_15958_23132"/>
<feBlend mode="normal" in="SourceGraphic" in2="effect1_dropShadow_15958_23132" result="shape"/>
</filter>
<clipPath id="clip0_15958_23132">
<rect width="16.4908" height="21.3333" fill="white" transform="translate(110.254 84.3335)"/>
</clipPath>
</defs>
</svg>
