<svg width="242" height="238" viewBox="0 0 242 238" fill="none" xmlns="http://www.w3.org/2000/svg">
<g filter="url(#filter0_d_15958_23148)">
<rect x="64" y="64" width="110" height="110" rx="55" fill="#E53939" fill-opacity="0.15" shape-rendering="crispEdges"/>
<rect x="62" y="62" width="114" height="114" rx="57" stroke="#E53939" stroke-width="4" shape-rendering="crispEdges"/>
<g clip-path="url(#clip0_15958_23148)">
<path d="M112.882 95.7828C114.429 95.8114 115.624 95.1638 116.622 94.1041C117.339 93.3427 117.837 92.454 118.1 91.4349C118.312 90.6194 118.872 90.1937 119.723 90.1921C122.665 90.189 125.606 90.1921 128.549 90.1866C128.75 90.1866 128.834 90.2263 128.817 90.4443C128.798 90.6806 128.806 90.9201 128.817 91.158C128.829 91.4436 129.018 91.6194 129.292 91.6186C129.563 91.6178 129.773 91.4364 129.767 91.158C129.74 89.85 129.872 88.5397 129.705 87.2357C129.621 86.5746 129.384 85.9572 129.1 85.3549C128.996 85.1369 128.874 85.2611 128.765 85.312C127.529 85.8912 126.255 86.3661 124.945 86.748C123.365 87.2079 121.757 87.5245 120.119 87.6948C118.334 87.8809 116.551 87.8881 114.767 87.7035C114.633 87.69 114.58 87.7091 114.556 87.8603C114.401 88.8142 114.365 89.7721 114.448 90.7339C114.467 90.9559 114.432 91.1636 114.361 91.3736C113.869 92.8303 113.382 94.2878 112.881 95.7844L112.882 95.7828Z" fill="#E53939"/>
<path d="M114.79 86.7745C119.605 87.2328 124.165 86.4189 128.535 84.3861C127.985 83.5945 127.28 82.997 126.499 82.4735C123.759 80.6373 120.221 80.6278 117.655 82.4735C116.168 83.542 115.303 85.029 114.791 86.7753L114.79 86.7745Z" fill="#E53939"/>
<path opacity="0.4" d="M120.234 74.546C120.314 75.3185 120.391 76.0767 120.471 76.8341C120.584 77.897 120.705 78.9591 120.804 80.0228C120.824 80.2344 120.909 80.2543 121.082 80.2336C122.424 80.0721 123.731 80.2265 124.999 80.6887C125.177 80.754 125.235 80.6999 125.309 80.5487C126.168 78.796 127.033 77.0441 127.904 75.2962C127.985 75.1339 127.977 75.0726 127.796 75.0114C125.749 74.3272 123.655 74.04 121.501 74.2182C121.135 74.2484 120.772 74.2938 120.408 74.3367C120.239 74.3566 120.208 74.421 120.234 74.546Z" fill="#E53939"/>
<path d="M128.757 99.0492C128.757 98.544 128.748 98.038 128.762 97.5328C128.766 97.3458 128.71 97.2265 128.564 97.1088C127.365 96.1469 126.175 95.1731 124.975 94.2136C124.738 94.0242 124.624 93.8206 124.633 93.5087C124.652 92.7959 124.633 92.0814 124.643 91.3678C124.645 91.1872 124.601 91.1315 124.413 91.1339C123.648 91.145 122.883 91.1394 122.118 91.137C121.992 91.137 121.893 91.1251 121.897 91.3121C121.925 92.4203 121.865 93.5286 122.008 94.6361C122.229 96.3633 123.065 97.7325 124.338 98.8782C125.536 99.957 126.94 100.578 128.525 100.824C128.698 100.851 128.77 100.829 128.763 100.626C128.748 100.101 128.758 99.5751 128.759 99.05L128.757 99.0492Z" fill="#E53939"/>
<path opacity="0.4" d="M119.866 80.0477C119.74 78.8606 119.608 77.6108 119.476 76.3609C119.424 75.8589 119.369 75.3568 119.33 74.854C119.312 74.6241 119.261 74.5636 119.005 74.6273C116.548 75.2391 114.376 76.3839 112.476 78.0499C112.336 78.1724 112.304 78.2353 112.462 78.3809C113.769 79.583 115.071 80.7931 116.366 82.0088C116.512 82.1456 116.591 82.1186 116.725 82.0056C117.57 81.2959 118.531 80.8027 119.591 80.4972C119.885 80.4128 119.885 80.4136 119.866 80.0477Z" fill="#E53939"/>
<path opacity="0.4" d="M113.844 86.6858C112.949 86.5219 112.064 86.3588 111.179 86.1997C110.128 86.0095 109.073 85.8313 108.024 85.6276C107.822 85.5887 107.77 85.6436 107.726 85.8186C107.249 87.689 107.102 89.5825 107.281 91.5039C107.296 91.6622 107.339 91.6694 107.481 91.6391C109.405 91.2246 111.33 90.8165 113.257 90.4092C113.421 90.3741 113.495 90.3113 113.487 90.1188C113.433 88.9651 113.552 87.8267 113.844 86.685V86.6858Z" fill="#E53939"/>
<path opacity="0.4" d="M113.979 85.7553C114.143 85.8078 114.158 85.6917 114.185 85.6185C114.548 84.6335 115.075 83.7457 115.763 82.9541C115.903 82.7933 115.788 82.7408 115.7 82.6597C114.718 81.7479 113.735 80.8362 112.752 79.9252C112.424 79.6213 112.093 79.3214 111.77 79.0127C111.666 78.9124 111.609 78.8894 111.495 79.0167C110.059 80.6277 108.895 82.4035 108.155 84.4418C108.084 84.6359 108.1 84.7036 108.312 84.741C110.017 85.0409 111.721 85.3504 113.425 85.6567C113.62 85.6917 113.815 85.7259 113.978 85.7553H113.979Z" fill="#E53939"/>
</g>
<path d="M97.0135 119.5C96.9182 119.5 96.8445 119.474 96.7925 119.422C96.7405 119.361 96.7145 119.288 96.7145 119.201V110.712C96.7145 110.617 96.7405 110.543 96.7925 110.491C96.8445 110.43 96.9182 110.4 97.0135 110.4H97.6765C97.7718 110.4 97.8455 110.43 97.8975 110.491C97.9582 110.543 97.9885 110.617 97.9885 110.712V114.3H102.46V110.712C102.46 110.617 102.486 110.543 102.538 110.491C102.599 110.43 102.673 110.4 102.759 110.4H103.422C103.518 110.4 103.591 110.43 103.643 110.491C103.704 110.543 103.734 110.617 103.734 110.712V119.201C103.734 119.288 103.704 119.361 103.643 119.422C103.591 119.474 103.518 119.5 103.422 119.5H102.759C102.673 119.5 102.599 119.474 102.538 119.422C102.486 119.361 102.46 119.288 102.46 119.201V115.47H97.9885V119.201C97.9885 119.288 97.9582 119.361 97.8975 119.422C97.8455 119.474 97.7718 119.5 97.6765 119.5H97.0135ZM106.112 119.5C106.025 119.5 105.952 119.474 105.891 119.422C105.839 119.361 105.813 119.288 105.813 119.201V113.039C105.813 112.952 105.839 112.883 105.891 112.831C105.952 112.77 106.025 112.74 106.112 112.74H106.736C106.823 112.74 106.892 112.77 106.944 112.831C106.996 112.883 107.022 112.952 107.022 113.039V119.201C107.022 119.288 106.996 119.361 106.944 119.422C106.892 119.474 106.823 119.5 106.736 119.5H106.112ZM106.008 111.479C105.921 111.479 105.848 111.453 105.787 111.401C105.735 111.34 105.709 111.267 105.709 111.18V110.478C105.709 110.391 105.735 110.322 105.787 110.27C105.848 110.209 105.921 110.179 106.008 110.179H106.827C106.914 110.179 106.983 110.209 107.035 110.27C107.096 110.322 107.126 110.391 107.126 110.478V111.18C107.126 111.267 107.096 111.34 107.035 111.401C106.983 111.453 106.914 111.479 106.827 111.479H106.008ZM111.302 119.63C110.816 119.63 110.4 119.569 110.054 119.448C109.707 119.327 109.425 119.179 109.209 119.006C108.992 118.833 108.827 118.659 108.715 118.486C108.611 118.313 108.554 118.174 108.546 118.07C108.537 117.975 108.567 117.901 108.637 117.849C108.706 117.797 108.775 117.771 108.845 117.771H109.417C109.469 117.771 109.508 117.78 109.534 117.797C109.568 117.806 109.612 117.84 109.664 117.901C109.776 118.022 109.902 118.144 110.041 118.265C110.179 118.386 110.348 118.486 110.548 118.564C110.756 118.642 111.011 118.681 111.315 118.681C111.757 118.681 112.121 118.599 112.407 118.434C112.693 118.261 112.836 118.009 112.836 117.68C112.836 117.463 112.775 117.29 112.654 117.16C112.541 117.03 112.333 116.913 112.03 116.809C111.735 116.705 111.328 116.597 110.808 116.484C110.288 116.363 109.876 116.215 109.573 116.042C109.269 115.86 109.053 115.648 108.923 115.405C108.793 115.154 108.728 114.872 108.728 114.56C108.728 114.239 108.823 113.932 109.014 113.637C109.204 113.334 109.482 113.087 109.846 112.896C110.218 112.705 110.682 112.61 111.237 112.61C111.687 112.61 112.073 112.666 112.394 112.779C112.714 112.892 112.979 113.035 113.187 113.208C113.395 113.373 113.551 113.537 113.655 113.702C113.759 113.867 113.815 114.005 113.824 114.118C113.832 114.205 113.806 114.278 113.746 114.339C113.685 114.391 113.616 114.417 113.538 114.417H112.992C112.931 114.417 112.879 114.404 112.836 114.378C112.801 114.352 112.766 114.322 112.732 114.287C112.645 114.174 112.541 114.062 112.42 113.949C112.307 113.836 112.155 113.745 111.965 113.676C111.783 113.598 111.54 113.559 111.237 113.559C110.803 113.559 110.478 113.65 110.262 113.832C110.045 114.014 109.937 114.244 109.937 114.521C109.937 114.686 109.984 114.833 110.08 114.963C110.175 115.093 110.357 115.21 110.626 115.314C110.894 115.418 111.293 115.531 111.822 115.652C112.394 115.765 112.844 115.916 113.174 116.107C113.503 116.298 113.737 116.519 113.876 116.77C114.014 117.021 114.084 117.312 114.084 117.641C114.084 118.005 113.975 118.339 113.759 118.642C113.551 118.945 113.239 119.188 112.823 119.37C112.415 119.543 111.908 119.63 111.302 119.63ZM118.215 119.5C117.729 119.5 117.335 119.409 117.032 119.227C116.728 119.036 116.507 118.772 116.369 118.434C116.23 118.087 116.161 117.68 116.161 117.212V113.78H115.147C115.06 113.78 114.986 113.754 114.926 113.702C114.874 113.641 114.848 113.568 114.848 113.481V113.039C114.848 112.952 114.874 112.883 114.926 112.831C114.986 112.77 115.06 112.74 115.147 112.74H116.161V110.569C116.161 110.482 116.187 110.413 116.239 110.361C116.299 110.3 116.373 110.27 116.46 110.27H117.071C117.157 110.27 117.227 110.3 117.279 110.361C117.339 110.413 117.37 110.482 117.37 110.569V112.74H118.982C119.068 112.74 119.138 112.77 119.19 112.831C119.25 112.883 119.281 112.952 119.281 113.039V113.481C119.281 113.568 119.25 113.641 119.19 113.702C119.138 113.754 119.068 113.78 118.982 113.78H117.37V117.121C117.37 117.528 117.439 117.849 117.578 118.083C117.716 118.317 117.963 118.434 118.319 118.434H119.112C119.198 118.434 119.268 118.464 119.32 118.525C119.38 118.577 119.411 118.646 119.411 118.733V119.201C119.411 119.288 119.38 119.361 119.32 119.422C119.268 119.474 119.198 119.5 119.112 119.5H118.215ZM123.423 119.63C122.764 119.63 122.214 119.504 121.772 119.253C121.33 119.002 120.992 118.655 120.758 118.213C120.524 117.762 120.394 117.251 120.368 116.679C120.359 116.532 120.355 116.345 120.355 116.12C120.355 115.886 120.359 115.7 120.368 115.561C120.394 114.98 120.524 114.469 120.758 114.027C121.001 113.585 121.343 113.238 121.785 112.987C122.227 112.736 122.773 112.61 123.423 112.61C124.073 112.61 124.619 112.736 125.061 112.987C125.503 113.238 125.841 113.585 126.075 114.027C126.318 114.469 126.452 114.98 126.478 115.561C126.487 115.7 126.491 115.886 126.491 116.12C126.491 116.345 126.487 116.532 126.478 116.679C126.452 117.251 126.322 117.762 126.088 118.213C125.854 118.655 125.516 119.002 125.074 119.253C124.632 119.504 124.082 119.63 123.423 119.63ZM123.423 118.629C123.96 118.629 124.389 118.46 124.71 118.122C125.031 117.775 125.204 117.273 125.23 116.614C125.239 116.484 125.243 116.319 125.243 116.12C125.243 115.921 125.239 115.756 125.23 115.626C125.204 114.967 125.031 114.469 124.71 114.131C124.389 113.784 123.96 113.611 123.423 113.611C122.886 113.611 122.452 113.784 122.123 114.131C121.802 114.469 121.633 114.967 121.616 115.626C121.607 115.756 121.603 115.921 121.603 116.12C121.603 116.319 121.607 116.484 121.616 116.614C121.633 117.273 121.802 117.775 122.123 118.122C122.452 118.46 122.886 118.629 123.423 118.629ZM128.418 119.5C128.331 119.5 128.257 119.474 128.197 119.422C128.145 119.361 128.119 119.288 128.119 119.201V113.052C128.119 112.965 128.145 112.892 128.197 112.831C128.257 112.77 128.331 112.74 128.418 112.74H129.016C129.102 112.74 129.176 112.77 129.237 112.831C129.297 112.892 129.328 112.965 129.328 113.052V113.624C129.501 113.329 129.739 113.108 130.043 112.961C130.346 112.814 130.71 112.74 131.135 112.74H131.655C131.741 112.74 131.811 112.77 131.863 112.831C131.915 112.883 131.941 112.952 131.941 113.039V113.572C131.941 113.659 131.915 113.728 131.863 113.78C131.811 113.832 131.741 113.858 131.655 113.858H130.875C130.407 113.858 130.038 113.997 129.77 114.274C129.501 114.543 129.367 114.911 129.367 115.379V119.201C129.367 119.288 129.336 119.361 129.276 119.422C129.215 119.474 129.141 119.5 129.055 119.5H128.418ZM133.356 119.5C133.27 119.5 133.196 119.474 133.135 119.422C133.083 119.361 133.057 119.288 133.057 119.201V113.039C133.057 112.952 133.083 112.883 133.135 112.831C133.196 112.77 133.27 112.74 133.356 112.74H133.98C134.067 112.74 134.136 112.77 134.188 112.831C134.24 112.883 134.266 112.952 134.266 113.039V119.201C134.266 119.288 134.24 119.361 134.188 119.422C134.136 119.474 134.067 119.5 133.98 119.5H133.356ZM133.252 111.479C133.166 111.479 133.092 111.453 133.031 111.401C132.979 111.34 132.953 111.267 132.953 111.18V110.478C132.953 110.391 132.979 110.322 133.031 110.27C133.092 110.209 133.166 110.179 133.252 110.179H134.071C134.158 110.179 134.227 110.209 134.279 110.27C134.34 110.322 134.37 110.391 134.37 110.478V111.18C134.37 111.267 134.34 111.34 134.279 111.401C134.227 111.453 134.158 111.479 134.071 111.479H133.252ZM138.091 119.63C137.657 119.63 137.263 119.543 136.908 119.37C136.552 119.197 136.266 118.963 136.05 118.668C135.833 118.373 135.725 118.04 135.725 117.667C135.725 117.069 135.967 116.592 136.453 116.237C136.938 115.882 137.571 115.648 138.351 115.535L140.288 115.262V114.885C140.288 114.469 140.166 114.144 139.924 113.91C139.69 113.676 139.304 113.559 138.767 113.559C138.377 113.559 138.06 113.637 137.818 113.793C137.584 113.949 137.419 114.148 137.324 114.391C137.272 114.521 137.181 114.586 137.051 114.586H136.466C136.37 114.586 136.297 114.56 136.245 114.508C136.201 114.447 136.18 114.378 136.18 114.3C136.18 114.17 136.227 114.01 136.323 113.819C136.427 113.628 136.583 113.442 136.791 113.26C136.999 113.078 137.263 112.926 137.584 112.805C137.913 112.675 138.312 112.61 138.78 112.61C139.3 112.61 139.737 112.679 140.093 112.818C140.448 112.948 140.725 113.126 140.925 113.351C141.133 113.576 141.28 113.832 141.367 114.118C141.462 114.404 141.51 114.694 141.51 114.989V119.201C141.51 119.288 141.479 119.361 141.419 119.422C141.367 119.474 141.297 119.5 141.211 119.5H140.613C140.517 119.5 140.444 119.474 140.392 119.422C140.34 119.361 140.314 119.288 140.314 119.201V118.642C140.201 118.798 140.049 118.954 139.859 119.11C139.668 119.257 139.43 119.383 139.144 119.487C138.858 119.582 138.507 119.63 138.091 119.63ZM138.364 118.655C138.719 118.655 139.044 118.581 139.339 118.434C139.633 118.278 139.863 118.04 140.028 117.719C140.201 117.398 140.288 116.995 140.288 116.51V116.146L138.78 116.367C138.164 116.454 137.701 116.601 137.389 116.809C137.077 117.008 136.921 117.264 136.921 117.576C136.921 117.819 136.99 118.022 137.129 118.187C137.276 118.343 137.458 118.46 137.675 118.538C137.9 118.616 138.13 118.655 138.364 118.655ZM95.4238 134.63C94.6958 134.63 94.0675 134.5 93.5388 134.24C93.0188 133.98 92.6158 133.586 92.3298 133.057C92.0525 132.52 91.9138 131.831 91.9138 130.99V125.712C91.9138 125.617 91.9398 125.543 91.9918 125.491C92.0438 125.43 92.1175 125.4 92.2128 125.4H92.8758C92.9712 125.4 93.0448 125.43 93.0968 125.491C93.1575 125.543 93.1878 125.617 93.1878 125.712V131.016C93.1878 131.865 93.3872 132.494 93.7858 132.901C94.1845 133.308 94.7305 133.512 95.4238 133.512C96.1085 133.512 96.6502 133.308 97.0488 132.901C97.4562 132.494 97.6598 131.865 97.6598 131.016V125.712C97.6598 125.617 97.6858 125.543 97.7378 125.491C97.7985 125.43 97.8722 125.4 97.9588 125.4H98.6348C98.7215 125.4 98.7908 125.43 98.8428 125.491C98.9035 125.543 98.9338 125.617 98.9338 125.712V130.99C98.9338 131.831 98.7908 132.52 98.5048 133.057C98.2275 133.586 97.8288 133.98 97.3088 134.24C96.7888 134.5 96.1605 134.63 95.4238 134.63ZM101.237 134.5C101.15 134.5 101.077 134.474 101.016 134.422C100.964 134.361 100.938 134.288 100.938 134.201V128.039C100.938 127.952 100.964 127.883 101.016 127.831C101.077 127.77 101.15 127.74 101.237 127.74H101.848C101.935 127.74 102.004 127.77 102.056 127.831C102.117 127.883 102.147 127.952 102.147 128.039V128.611C102.372 128.316 102.654 128.078 102.992 127.896C103.339 127.705 103.781 127.61 104.318 127.61C104.881 127.61 105.358 127.736 105.748 127.987C106.147 128.23 106.446 128.572 106.645 129.014C106.844 129.447 106.944 129.954 106.944 130.535V134.201C106.944 134.288 106.918 134.361 106.866 134.422C106.814 134.474 106.745 134.5 106.658 134.5H106.008C105.921 134.5 105.848 134.474 105.787 134.422C105.735 134.361 105.709 134.288 105.709 134.201V130.6C105.709 129.993 105.562 129.521 105.267 129.183C104.972 128.836 104.539 128.663 103.967 128.663C103.43 128.663 102.996 128.836 102.667 129.183C102.346 129.521 102.186 129.993 102.186 130.6V134.201C102.186 134.288 102.156 134.361 102.095 134.422C102.043 134.474 101.974 134.5 101.887 134.5H101.237ZM109.121 134.5C109.034 134.5 108.961 134.474 108.9 134.422C108.848 134.361 108.822 134.288 108.822 134.201V128.039C108.822 127.952 108.848 127.883 108.9 127.831C108.961 127.77 109.034 127.74 109.121 127.74H109.745C109.832 127.74 109.901 127.77 109.953 127.831C110.005 127.883 110.031 127.952 110.031 128.039V134.201C110.031 134.288 110.005 134.361 109.953 134.422C109.901 134.474 109.832 134.5 109.745 134.5H109.121ZM109.017 126.479C108.93 126.479 108.857 126.453 108.796 126.401C108.744 126.34 108.718 126.267 108.718 126.18V125.478C108.718 125.391 108.744 125.322 108.796 125.27C108.857 125.209 108.93 125.179 109.017 125.179H109.836C109.923 125.179 109.992 125.209 110.044 125.27C110.105 125.322 110.135 125.391 110.135 125.478V126.18C110.135 126.267 110.105 126.34 110.044 126.401C109.992 126.453 109.923 126.479 109.836 126.479H109.017ZM114.323 134.5C114.193 134.5 114.089 134.47 114.011 134.409C113.942 134.348 113.886 134.27 113.842 134.175L111.437 128.143C111.42 128.1 111.411 128.056 111.411 128.013C111.411 127.935 111.437 127.87 111.489 127.818C111.541 127.766 111.606 127.74 111.684 127.74H112.308C112.404 127.74 112.477 127.766 112.529 127.818C112.581 127.87 112.612 127.918 112.62 127.961L114.609 133.083L116.585 127.961C116.603 127.918 116.633 127.87 116.676 127.818C116.728 127.766 116.802 127.74 116.897 127.74H117.534C117.604 127.74 117.664 127.766 117.716 127.818C117.777 127.87 117.807 127.935 117.807 128.013C117.807 128.056 117.799 128.1 117.781 128.143L115.363 134.175C115.329 134.27 115.272 134.348 115.194 134.409C115.125 134.47 115.021 134.5 114.882 134.5H114.323ZM121.618 134.63C120.726 134.63 120.015 134.357 119.486 133.811C118.958 133.256 118.667 132.502 118.615 131.549C118.607 131.436 118.602 131.293 118.602 131.12C118.602 130.938 118.607 130.791 118.615 130.678C118.65 130.063 118.793 129.525 119.044 129.066C119.296 128.598 119.638 128.238 120.071 127.987C120.513 127.736 121.029 127.61 121.618 127.61C122.277 127.61 122.827 127.749 123.269 128.026C123.72 128.303 124.062 128.698 124.296 129.209C124.53 129.72 124.647 130.318 124.647 131.003V131.224C124.647 131.319 124.617 131.393 124.556 131.445C124.504 131.497 124.435 131.523 124.348 131.523H119.85C119.85 131.532 119.85 131.549 119.85 131.575C119.85 131.601 119.85 131.623 119.85 131.64C119.868 131.995 119.946 132.329 120.084 132.641C120.223 132.944 120.422 133.191 120.682 133.382C120.942 133.573 121.254 133.668 121.618 133.668C121.93 133.668 122.19 133.62 122.398 133.525C122.606 133.43 122.775 133.326 122.905 133.213C123.035 133.092 123.122 133.001 123.165 132.94C123.243 132.827 123.304 132.762 123.347 132.745C123.391 132.719 123.46 132.706 123.555 132.706H124.179C124.266 132.706 124.335 132.732 124.387 132.784C124.448 132.827 124.474 132.892 124.465 132.979C124.457 133.109 124.387 133.269 124.257 133.46C124.127 133.642 123.941 133.824 123.698 134.006C123.456 134.188 123.161 134.34 122.814 134.461C122.468 134.574 122.069 134.63 121.618 134.63ZM119.85 130.626H123.412V130.587C123.412 130.197 123.339 129.85 123.191 129.547C123.053 129.244 122.849 129.005 122.58 128.832C122.312 128.65 121.991 128.559 121.618 128.559C121.246 128.559 120.925 128.65 120.656 128.832C120.396 129.005 120.197 129.244 120.058 129.547C119.92 129.85 119.85 130.197 119.85 130.587V130.626ZM126.501 134.5C126.414 134.5 126.34 134.474 126.28 134.422C126.228 134.361 126.202 134.288 126.202 134.201V128.052C126.202 127.965 126.228 127.892 126.28 127.831C126.34 127.77 126.414 127.74 126.501 127.74H127.099C127.185 127.74 127.259 127.77 127.32 127.831C127.38 127.892 127.411 127.965 127.411 128.052V128.624C127.584 128.329 127.822 128.108 128.126 127.961C128.429 127.814 128.793 127.74 129.218 127.74H129.738C129.824 127.74 129.894 127.77 129.946 127.831C129.998 127.883 130.024 127.952 130.024 128.039V128.572C130.024 128.659 129.998 128.728 129.946 128.78C129.894 128.832 129.824 128.858 129.738 128.858H128.958C128.49 128.858 128.121 128.997 127.853 129.274C127.584 129.543 127.45 129.911 127.45 130.379V134.201C127.45 134.288 127.419 134.361 127.359 134.422C127.298 134.474 127.224 134.5 127.138 134.5H126.501ZM133.48 134.63C132.995 134.63 132.579 134.569 132.232 134.448C131.886 134.327 131.604 134.179 131.387 134.006C131.171 133.833 131.006 133.659 130.893 133.486C130.789 133.313 130.733 133.174 130.724 133.07C130.716 132.975 130.746 132.901 130.815 132.849C130.885 132.797 130.954 132.771 131.023 132.771H131.595C131.647 132.771 131.686 132.78 131.712 132.797C131.747 132.806 131.79 132.84 131.842 132.901C131.955 133.022 132.081 133.144 132.219 133.265C132.358 133.386 132.527 133.486 132.726 133.564C132.934 133.642 133.19 133.681 133.493 133.681C133.935 133.681 134.299 133.599 134.585 133.434C134.871 133.261 135.014 133.009 135.014 132.68C135.014 132.463 134.954 132.29 134.832 132.16C134.72 132.03 134.512 131.913 134.208 131.809C133.914 131.705 133.506 131.597 132.986 131.484C132.466 131.363 132.055 131.215 131.751 131.042C131.448 130.86 131.231 130.648 131.101 130.405C130.971 130.154 130.906 129.872 130.906 129.56C130.906 129.239 131.002 128.932 131.192 128.637C131.383 128.334 131.66 128.087 132.024 127.896C132.397 127.705 132.861 127.61 133.415 127.61C133.866 127.61 134.252 127.666 134.572 127.779C134.893 127.892 135.157 128.035 135.365 128.208C135.573 128.373 135.729 128.537 135.833 128.702C135.937 128.867 135.994 129.005 136.002 129.118C136.011 129.205 135.985 129.278 135.924 129.339C135.864 129.391 135.794 129.417 135.716 129.417H135.17C135.11 129.417 135.058 129.404 135.014 129.378C134.98 129.352 134.945 129.322 134.91 129.287C134.824 129.174 134.72 129.062 134.598 128.949C134.486 128.836 134.334 128.745 134.143 128.676C133.961 128.598 133.719 128.559 133.415 128.559C132.982 128.559 132.657 128.65 132.44 128.832C132.224 129.014 132.115 129.244 132.115 129.521C132.115 129.686 132.163 129.833 132.258 129.963C132.354 130.093 132.536 130.21 132.804 130.314C133.073 130.418 133.472 130.531 134 130.652C134.572 130.765 135.023 130.916 135.352 131.107C135.682 131.298 135.916 131.519 136.054 131.77C136.193 132.021 136.262 132.312 136.262 132.641C136.262 133.005 136.154 133.339 135.937 133.642C135.729 133.945 135.417 134.188 135.001 134.37C134.594 134.543 134.087 134.63 133.48 134.63ZM139.652 134.63C139.219 134.63 138.825 134.543 138.469 134.37C138.114 134.197 137.828 133.963 137.611 133.668C137.395 133.373 137.286 133.04 137.286 132.667C137.286 132.069 137.529 131.592 138.014 131.237C138.5 130.882 139.132 130.648 139.912 130.535L141.849 130.262V129.885C141.849 129.469 141.728 129.144 141.485 128.91C141.251 128.676 140.866 128.559 140.328 128.559C139.938 128.559 139.622 128.637 139.379 128.793C139.145 128.949 138.981 129.148 138.885 129.391C138.833 129.521 138.742 129.586 138.612 129.586H138.027C137.932 129.586 137.858 129.56 137.806 129.508C137.763 129.447 137.741 129.378 137.741 129.3C137.741 129.17 137.789 129.01 137.884 128.819C137.988 128.628 138.144 128.442 138.352 128.26C138.56 128.078 138.825 127.926 139.145 127.805C139.475 127.675 139.873 127.61 140.341 127.61C140.861 127.61 141.299 127.679 141.654 127.818C142.01 127.948 142.287 128.126 142.486 128.351C142.694 128.576 142.842 128.832 142.928 129.118C143.024 129.404 143.071 129.694 143.071 129.989V134.201C143.071 134.288 143.041 134.361 142.98 134.422C142.928 134.474 142.859 134.5 142.772 134.5H142.174C142.079 134.5 142.005 134.474 141.953 134.422C141.901 134.361 141.875 134.288 141.875 134.201V133.642C141.763 133.798 141.611 133.954 141.42 134.11C141.23 134.257 140.991 134.383 140.705 134.487C140.419 134.582 140.068 134.63 139.652 134.63ZM139.925 133.655C140.281 133.655 140.606 133.581 140.9 133.434C141.195 133.278 141.425 133.04 141.589 132.719C141.763 132.398 141.849 131.995 141.849 131.51V131.146L140.341 131.367C139.726 131.454 139.262 131.601 138.95 131.809C138.638 132.008 138.482 132.264 138.482 132.576C138.482 132.819 138.552 133.022 138.69 133.187C138.838 133.343 139.02 133.46 139.236 133.538C139.462 133.616 139.691 133.655 139.925 133.655ZM145.252 134.5C145.165 134.5 145.092 134.474 145.031 134.422C144.979 134.361 144.953 134.288 144.953 134.201V125.569C144.953 125.482 144.979 125.413 145.031 125.361C145.092 125.3 145.165 125.27 145.252 125.27H145.863C145.958 125.27 146.032 125.3 146.084 125.361C146.136 125.413 146.162 125.482 146.162 125.569V134.201C146.162 134.288 146.136 134.361 146.084 134.422C146.032 134.474 145.958 134.5 145.863 134.5H145.252Z" fill="#EBECEE"/>
<rect x="100.5" y="141.5" width="37" height="25" rx="12.5" fill="#E53939"/>
<path d="M113.342 158.64C112.67 158.64 112.086 158.547 111.592 158.36C111.097 158.164 110.686 157.898 110.36 157.562C110.042 157.226 109.8 156.834 109.632 156.386C109.464 155.938 109.366 155.457 109.338 154.944C109.328 154.692 109.319 154.407 109.31 154.09C109.31 153.763 109.31 153.437 109.31 153.11C109.319 152.774 109.328 152.475 109.338 152.214C109.366 151.701 109.464 151.225 109.632 150.786C109.809 150.338 110.061 149.951 110.388 149.624C110.724 149.288 111.134 149.027 111.62 148.84C112.114 148.653 112.688 148.56 113.342 148.56C114.004 148.56 114.578 148.653 115.064 148.84C115.549 149.027 115.955 149.288 116.282 149.624C116.618 149.951 116.874 150.338 117.052 150.786C117.229 151.225 117.327 151.701 117.346 152.214C117.364 152.475 117.374 152.774 117.374 153.11C117.383 153.437 117.383 153.763 117.374 154.09C117.374 154.407 117.364 154.692 117.346 154.944C117.327 155.457 117.229 155.938 117.052 156.386C116.884 156.834 116.636 157.226 116.31 157.562C115.992 157.898 115.586 158.164 115.092 158.36C114.606 158.547 114.023 158.64 113.342 158.64ZM113.342 156.61C113.827 156.61 114.177 156.456 114.392 156.148C114.616 155.831 114.732 155.406 114.742 154.874C114.76 154.603 114.77 154.319 114.77 154.02C114.779 153.721 114.779 153.423 114.77 153.124C114.77 152.825 114.76 152.55 114.742 152.298C114.732 151.785 114.616 151.369 114.392 151.052C114.177 150.735 113.827 150.571 113.342 150.562C112.856 150.571 112.506 150.735 112.292 151.052C112.077 151.369 111.96 151.785 111.942 152.298C111.932 152.55 111.923 152.825 111.914 153.124C111.914 153.423 111.914 153.721 111.914 154.02C111.923 154.319 111.932 154.603 111.942 154.874C111.96 155.406 112.082 155.831 112.306 156.148C112.53 156.456 112.875 156.61 113.342 156.61ZM119.679 158.5C119.465 158.5 119.357 158.407 119.357 158.22C119.357 158.164 119.376 158.113 119.413 158.066L126.329 148.966C126.395 148.882 126.46 148.817 126.525 148.77C126.591 148.723 126.689 148.7 126.819 148.7H127.813C128.028 148.7 128.135 148.793 128.135 148.98C128.135 149.036 128.117 149.087 128.079 149.134L121.163 158.234C121.098 158.318 121.033 158.383 120.967 158.43C120.902 158.477 120.804 158.5 120.673 158.5H119.679ZM126.721 158.57C126.087 158.57 125.578 158.402 125.195 158.066C124.822 157.73 124.612 157.282 124.565 156.722C124.556 156.479 124.551 156.265 124.551 156.078C124.551 155.891 124.556 155.667 124.565 155.406C124.603 154.837 124.803 154.384 125.167 154.048C125.541 153.703 126.059 153.53 126.721 153.53C127.393 153.53 127.911 153.703 128.275 154.048C128.639 154.384 128.84 154.837 128.877 155.406C128.896 155.667 128.905 155.891 128.905 156.078C128.905 156.265 128.896 156.479 128.877 156.722C128.84 157.282 128.63 157.73 128.247 158.066C127.865 158.402 127.356 158.57 126.721 158.57ZM126.721 157.338C126.88 157.338 127.001 157.305 127.085 157.24C127.179 157.175 127.249 157.091 127.295 156.988C127.342 156.876 127.365 156.759 127.365 156.638C127.384 156.423 127.393 156.227 127.393 156.05C127.393 155.873 127.384 155.681 127.365 155.476C127.356 155.299 127.305 155.14 127.211 155C127.118 154.851 126.955 154.776 126.721 154.776C126.488 154.776 126.325 154.851 126.231 155C126.138 155.14 126.087 155.299 126.077 155.476C126.068 155.681 126.063 155.873 126.063 156.05C126.063 156.227 126.068 156.423 126.077 156.638C126.087 156.759 126.11 156.876 126.147 156.988C126.194 157.091 126.264 157.175 126.357 157.24C126.451 157.305 126.572 157.338 126.721 157.338ZM120.799 153.642C120.155 153.642 119.642 153.479 119.259 153.152C118.886 152.816 118.681 152.368 118.643 151.808C118.625 151.565 118.615 151.355 118.615 151.178C118.625 150.991 118.634 150.767 118.643 150.506C118.671 149.937 118.867 149.484 119.231 149.148C119.605 148.803 120.127 148.63 120.799 148.63C121.471 148.63 121.989 148.803 122.353 149.148C122.717 149.484 122.913 149.937 122.941 150.506C122.96 150.767 122.969 150.991 122.969 151.178C122.969 151.355 122.96 151.565 122.941 151.808C122.913 152.368 122.708 152.816 122.325 153.152C121.943 153.479 121.434 153.642 120.799 153.642ZM120.799 152.438C120.949 152.438 121.07 152.405 121.163 152.34C121.257 152.265 121.327 152.177 121.373 152.074C121.42 151.962 121.443 151.85 121.443 151.738C121.462 151.523 121.471 151.327 121.471 151.15C121.471 150.973 121.462 150.781 121.443 150.576C121.434 150.399 121.378 150.24 121.275 150.1C121.182 149.951 121.023 149.876 120.799 149.876C120.566 149.876 120.398 149.951 120.295 150.1C120.202 150.24 120.151 150.399 120.141 150.576C120.132 150.781 120.127 150.973 120.127 151.15C120.127 151.327 120.132 151.523 120.141 151.738C120.151 151.85 120.174 151.962 120.211 152.074C120.258 152.177 120.328 152.265 120.421 152.34C120.515 152.405 120.641 152.438 120.799 152.438Z" fill="#EBECEE"/>
<g filter="url(#filter1_d_15958_23148)">
<rect x="148" y="74" width="32" height="32" rx="16" fill="white"/>
<rect x="147" y="73" width="34" height="34" rx="17" stroke="#1DA534" stroke-width="2"/>
<path opacity="0.4" d="M164 100C169.523 100 174 95.5228 174 90C174 84.4772 169.523 80 164 80C158.477 80 154 84.4772 154 90C154 95.5228 158.477 100 164 100Z" fill="#1DA534"/>
<path d="M162.579 93.5801C162.379 93.5801 162.189 93.5001 162.049 93.3601L159.219 90.5301C158.929 90.2401 158.929 89.7601 159.219 89.4701C159.509 89.1801 159.989 89.1801 160.279 89.4701L162.579 91.7701L167.719 86.6301C168.009 86.3401 168.489 86.3401 168.779 86.6301C169.069 86.9201 169.069 87.4001 168.779 87.6901L163.109 93.3601C162.969 93.5001 162.779 93.5801 162.579 93.5801Z" fill="#1DA534"/>
</g>
</g>
<defs>
<filter id="filter0_d_15958_23148" x="0" y="0" width="242" height="238" filterUnits="userSpaceOnUse" color-interpolation-filters="sRGB">
<feFlood flood-opacity="0" result="BackgroundImageFix"/>
<feColorMatrix in="SourceAlpha" type="matrix" values="0 0 0 0 0 0 0 0 0 0 0 0 0 0 0 0 0 0 127 0" result="hardAlpha"/>
<feOffset/>
<feGaussianBlur stdDeviation="30"/>
<feComposite in2="hardAlpha" operator="out"/>
<feColorMatrix type="matrix" values="0 0 0 0 0.878431 0 0 0 0 0.235294 0 0 0 0 0.223529 0 0 0 1 0"/>
<feBlend mode="normal" in2="BackgroundImageFix" result="effect1_dropShadow_15958_23148"/>
<feBlend mode="normal" in="SourceGraphic" in2="effect1_dropShadow_15958_23148" result="shape"/>
</filter>
<filter id="filter1_d_15958_23148" x="131" y="65" width="66" height="66" filterUnits="userSpaceOnUse" color-interpolation-filters="sRGB">
<feFlood flood-opacity="0" result="BackgroundImageFix"/>
<feColorMatrix in="SourceAlpha" type="matrix" values="0 0 0 0 0 0 0 0 0 0 0 0 0 0 0 0 0 0 127 0" result="hardAlpha"/>
<feOffset dy="8"/>
<feGaussianBlur stdDeviation="7.5"/>
<feColorMatrix type="matrix" values="0 0 0 0 0 0 0 0 0 0 0 0 0 0 0 0 0 0 0.25 0"/>
<feBlend mode="normal" in2="BackgroundImageFix" result="effect1_dropShadow_15958_23148"/>
<feBlend mode="normal" in="SourceGraphic" in2="effect1_dropShadow_15958_23148" result="shape"/>
</filter>
<clipPath id="clip0_15958_23148">
<rect width="22.5829" height="26.6667" fill="white" transform="matrix(-1 0 0 1 129.791 74.1665)"/>
</clipPath>
</defs>
</svg>
