<svg width="242" height="238" viewBox="0 0 242 238" fill="none" xmlns="http://www.w3.org/2000/svg">
<g filter="url(#filter0_d_15958_23140)">
<rect x="64" y="64" width="110" height="110" rx="55" fill="#1DA534" fill-opacity="0.15" shape-rendering="crispEdges"/>
<rect x="62" y="62" width="114" height="114" rx="57" stroke="#47830E" stroke-width="4" shape-rendering="crispEdges"/>
<path d="M132.333 78.1665H105.666V96.8332H132.333V78.1665Z" fill="white"/>
<path d="M114.555 78.1665H105.666V96.8332H114.555V78.1665Z" fill="#007D36"/>
<path d="M132.334 78.1665H123.445V96.8332H132.334V78.1665Z" fill="#D80027"/>
<path d="M118.989 90.6617C117.329 90.6617 115.979 89.2436 115.979 87.5004C115.979 87.2511 116.171 87.0488 116.409 87.0488C116.646 87.0488 116.839 87.2511 116.839 87.5004C116.839 88.7454 117.804 89.7585 118.989 89.7585C120.175 89.7585 121.14 88.7454 121.14 87.5004C121.14 87.2511 121.332 87.0488 121.57 87.0488C121.808 87.0488 122 87.2511 122 87.5004C122 89.2436 120.649 90.6617 118.989 90.6617Z" fill="#4BA543"/>
<path d="M118.133 85.2417H118.559C119.272 85.2417 119.849 85.8483 119.849 86.5965V87.9513L119.248 88.4029C118.606 88.4029 118.061 87.9071 117.971 87.2397L118.133 85.2417Z" fill="#966A5B"/>
<path d="M119.85 87.9513H119.249C118.821 87.9513 118.458 87.6208 118.397 87.1758L118.134 85.2417H117.764C117.503 85.2417 117.302 85.4845 117.338 85.7562L117.546 87.3035C117.666 88.1877 118.398 88.8546 119.249 88.8546H119.42C119.658 88.8546 119.85 88.6524 119.85 88.403V87.9513H119.85Z" fill="#785353"/>
<path d="M87.9173 119.5C87.822 119.5 87.7483 119.474 87.6963 119.422C87.6443 119.361 87.6183 119.288 87.6183 119.201V110.712C87.6183 110.617 87.6443 110.543 87.6963 110.491C87.7483 110.43 87.822 110.4 87.9173 110.4H88.5803C88.6756 110.4 88.7493 110.43 88.8013 110.491C88.862 110.543 88.8923 110.617 88.8923 110.712V114.3H93.3643V110.712C93.3643 110.617 93.3903 110.543 93.4423 110.491C93.503 110.43 93.5766 110.4 93.6633 110.4H94.3263C94.4216 110.4 94.4953 110.43 94.5473 110.491C94.608 110.543 94.6383 110.617 94.6383 110.712V119.201C94.6383 119.288 94.608 119.361 94.5473 119.422C94.4953 119.474 94.4216 119.5 94.3263 119.5H93.6633C93.5766 119.5 93.503 119.474 93.4423 119.422C93.3903 119.361 93.3643 119.288 93.3643 119.201V115.47H88.8923V119.201C88.8923 119.288 88.862 119.361 88.8013 119.422C88.7493 119.474 88.6756 119.5 88.5803 119.5H87.9173ZM97.0159 119.5C96.9292 119.5 96.8555 119.474 96.7949 119.422C96.7429 119.361 96.7169 119.288 96.7169 119.201V113.039C96.7169 112.952 96.7429 112.883 96.7949 112.831C96.8555 112.77 96.9292 112.74 97.0159 112.74H97.6399C97.7265 112.74 97.7959 112.77 97.8479 112.831C97.8999 112.883 97.9259 112.952 97.9259 113.039V119.201C97.9259 119.288 97.8999 119.361 97.8479 119.422C97.7959 119.474 97.7265 119.5 97.6399 119.5H97.0159ZM96.9119 111.479C96.8252 111.479 96.7515 111.453 96.6909 111.401C96.6389 111.34 96.6129 111.267 96.6129 111.18V110.478C96.6129 110.391 96.6389 110.322 96.6909 110.27C96.7515 110.209 96.8252 110.179 96.9119 110.179H97.7309C97.8175 110.179 97.8869 110.209 97.9389 110.27C97.9995 110.322 98.0299 110.391 98.0299 110.478V111.18C98.0299 111.267 97.9995 111.34 97.9389 111.401C97.8869 111.453 97.8175 111.479 97.7309 111.479H96.9119ZM102.205 119.63C101.72 119.63 101.304 119.569 100.957 119.448C100.611 119.327 100.329 119.179 100.112 119.006C99.8957 118.833 99.731 118.659 99.6183 118.486C99.5143 118.313 99.458 118.174 99.4493 118.07C99.4407 117.975 99.471 117.901 99.5403 117.849C99.6097 117.797 99.679 117.771 99.7483 117.771H100.32C100.372 117.771 100.411 117.78 100.437 117.797C100.472 117.806 100.515 117.84 100.567 117.901C100.68 118.022 100.806 118.144 100.944 118.265C101.083 118.386 101.252 118.486 101.451 118.564C101.659 118.642 101.915 118.681 102.218 118.681C102.66 118.681 103.024 118.599 103.31 118.434C103.596 118.261 103.739 118.009 103.739 117.68C103.739 117.463 103.679 117.29 103.557 117.16C103.445 117.03 103.237 116.913 102.933 116.809C102.639 116.705 102.231 116.597 101.711 116.484C101.191 116.363 100.78 116.215 100.476 116.042C100.173 115.86 99.9563 115.648 99.8263 115.405C99.6963 115.154 99.6313 114.872 99.6313 114.56C99.6313 114.239 99.7267 113.932 99.9173 113.637C100.108 113.334 100.385 113.087 100.749 112.896C101.122 112.705 101.586 112.61 102.14 112.61C102.591 112.61 102.977 112.666 103.297 112.779C103.618 112.892 103.882 113.035 104.09 113.208C104.298 113.373 104.454 113.537 104.558 113.702C104.662 113.867 104.719 114.005 104.727 114.118C104.736 114.205 104.71 114.278 104.649 114.339C104.589 114.391 104.519 114.417 104.441 114.417H103.895C103.835 114.417 103.783 114.404 103.739 114.378C103.705 114.352 103.67 114.322 103.635 114.287C103.549 114.174 103.445 114.062 103.323 113.949C103.211 113.836 103.059 113.745 102.868 113.676C102.686 113.598 102.444 113.559 102.14 113.559C101.707 113.559 101.382 113.65 101.165 113.832C100.949 114.014 100.84 114.244 100.84 114.521C100.84 114.686 100.888 114.833 100.983 114.963C101.079 115.093 101.261 115.21 101.529 115.314C101.798 115.418 102.197 115.531 102.725 115.652C103.297 115.765 103.748 115.916 104.077 116.107C104.407 116.298 104.641 116.519 104.779 116.77C104.918 117.021 104.987 117.312 104.987 117.641C104.987 118.005 104.879 118.339 104.662 118.642C104.454 118.945 104.142 119.188 103.726 119.37C103.319 119.543 102.812 119.63 102.205 119.63ZM109.119 119.5C108.633 119.5 108.239 119.409 107.936 119.227C107.632 119.036 107.411 118.772 107.273 118.434C107.134 118.087 107.065 117.68 107.065 117.212V113.78H106.051C105.964 113.78 105.89 113.754 105.83 113.702C105.778 113.641 105.752 113.568 105.752 113.481V113.039C105.752 112.952 105.778 112.883 105.83 112.831C105.89 112.77 105.964 112.74 106.051 112.74H107.065V110.569C107.065 110.482 107.091 110.413 107.143 110.361C107.203 110.3 107.277 110.27 107.364 110.27H107.975C108.061 110.27 108.131 110.3 108.183 110.361C108.243 110.413 108.274 110.482 108.274 110.569V112.74H109.886C109.972 112.74 110.042 112.77 110.094 112.831C110.154 112.883 110.185 112.952 110.185 113.039V113.481C110.185 113.568 110.154 113.641 110.094 113.702C110.042 113.754 109.972 113.78 109.886 113.78H108.274V117.121C108.274 117.528 108.343 117.849 108.482 118.083C108.62 118.317 108.867 118.434 109.223 118.434H110.016C110.102 118.434 110.172 118.464 110.224 118.525C110.284 118.577 110.315 118.646 110.315 118.733V119.201C110.315 119.288 110.284 119.361 110.224 119.422C110.172 119.474 110.102 119.5 110.016 119.5H109.119ZM114.327 119.63C113.668 119.63 113.118 119.504 112.676 119.253C112.234 119.002 111.896 118.655 111.662 118.213C111.428 117.762 111.298 117.251 111.272 116.679C111.263 116.532 111.259 116.345 111.259 116.12C111.259 115.886 111.263 115.7 111.272 115.561C111.298 114.98 111.428 114.469 111.662 114.027C111.904 113.585 112.247 113.238 112.689 112.987C113.131 112.736 113.677 112.61 114.327 112.61C114.977 112.61 115.523 112.736 115.965 112.987C116.407 113.238 116.745 113.585 116.979 114.027C117.221 114.469 117.356 114.98 117.382 115.561C117.39 115.7 117.395 115.886 117.395 116.12C117.395 116.345 117.39 116.532 117.382 116.679C117.356 117.251 117.226 117.762 116.992 118.213C116.758 118.655 116.42 119.002 115.978 119.253C115.536 119.504 114.985 119.63 114.327 119.63ZM114.327 118.629C114.864 118.629 115.293 118.46 115.614 118.122C115.934 117.775 116.108 117.273 116.134 116.614C116.142 116.484 116.147 116.319 116.147 116.12C116.147 115.921 116.142 115.756 116.134 115.626C116.108 114.967 115.934 114.469 115.614 114.131C115.293 113.784 114.864 113.611 114.327 113.611C113.789 113.611 113.356 113.784 113.027 114.131C112.706 114.469 112.537 114.967 112.52 115.626C112.511 115.756 112.507 115.921 112.507 116.12C112.507 116.319 112.511 116.484 112.52 116.614C112.537 117.273 112.706 117.775 113.027 118.122C113.356 118.46 113.789 118.629 114.327 118.629ZM119.322 119.5C119.235 119.5 119.161 119.474 119.101 119.422C119.049 119.361 119.023 119.288 119.023 119.201V113.052C119.023 112.965 119.049 112.892 119.101 112.831C119.161 112.77 119.235 112.74 119.322 112.74H119.92C120.006 112.74 120.08 112.77 120.141 112.831C120.201 112.892 120.232 112.965 120.232 113.052V113.624C120.405 113.329 120.643 113.108 120.947 112.961C121.25 112.814 121.614 112.74 122.039 112.74H122.559C122.645 112.74 122.715 112.77 122.767 112.831C122.819 112.883 122.845 112.952 122.845 113.039V113.572C122.845 113.659 122.819 113.728 122.767 113.78C122.715 113.832 122.645 113.858 122.559 113.858H121.779C121.311 113.858 120.942 113.997 120.674 114.274C120.405 114.543 120.271 114.911 120.271 115.379V119.201C120.271 119.288 120.24 119.361 120.18 119.422C120.119 119.474 120.045 119.5 119.959 119.5H119.322ZM124.26 119.5C124.173 119.5 124.1 119.474 124.039 119.422C123.987 119.361 123.961 119.288 123.961 119.201V113.039C123.961 112.952 123.987 112.883 124.039 112.831C124.1 112.77 124.173 112.74 124.26 112.74H124.884C124.971 112.74 125.04 112.77 125.092 112.831C125.144 112.883 125.17 112.952 125.17 113.039V119.201C125.17 119.288 125.144 119.361 125.092 119.422C125.04 119.474 124.971 119.5 124.884 119.5H124.26ZM124.156 111.479C124.069 111.479 123.996 111.453 123.935 111.401C123.883 111.34 123.857 111.267 123.857 111.18V110.478C123.857 110.391 123.883 110.322 123.935 110.27C123.996 110.209 124.069 110.179 124.156 110.179H124.975C125.062 110.179 125.131 110.209 125.183 110.27C125.244 110.322 125.274 110.391 125.274 110.478V111.18C125.274 111.267 125.244 111.34 125.183 111.401C125.131 111.453 125.062 111.479 124.975 111.479H124.156ZM128.994 119.63C128.561 119.63 128.167 119.543 127.811 119.37C127.456 119.197 127.17 118.963 126.953 118.668C126.737 118.373 126.628 118.04 126.628 117.667C126.628 117.069 126.871 116.592 127.356 116.237C127.842 115.882 128.474 115.648 129.254 115.535L131.191 115.262V114.885C131.191 114.469 131.07 114.144 130.827 113.91C130.593 113.676 130.208 113.559 129.67 113.559C129.28 113.559 128.964 113.637 128.721 113.793C128.487 113.949 128.323 114.148 128.227 114.391C128.175 114.521 128.084 114.586 127.954 114.586H127.369C127.274 114.586 127.2 114.56 127.148 114.508C127.105 114.447 127.083 114.378 127.083 114.3C127.083 114.17 127.131 114.01 127.226 113.819C127.33 113.628 127.486 113.442 127.694 113.26C127.902 113.078 128.167 112.926 128.487 112.805C128.817 112.675 129.215 112.61 129.683 112.61C130.203 112.61 130.641 112.679 130.996 112.818C131.352 112.948 131.629 113.126 131.828 113.351C132.036 113.576 132.184 113.832 132.27 114.118C132.366 114.404 132.413 114.694 132.413 114.989V119.201C132.413 119.288 132.383 119.361 132.322 119.422C132.27 119.474 132.201 119.5 132.114 119.5H131.516C131.421 119.5 131.347 119.474 131.295 119.422C131.243 119.361 131.217 119.288 131.217 119.201V118.642C131.105 118.798 130.953 118.954 130.762 119.11C130.572 119.257 130.333 119.383 130.047 119.487C129.761 119.582 129.41 119.63 128.994 119.63ZM129.267 118.655C129.623 118.655 129.948 118.581 130.242 118.434C130.537 118.278 130.767 118.04 130.931 117.719C131.105 117.398 131.191 116.995 131.191 116.51V116.146L129.683 116.367C129.068 116.454 128.604 116.601 128.292 116.809C127.98 117.008 127.824 117.264 127.824 117.576C127.824 117.819 127.894 118.022 128.032 118.187C128.18 118.343 128.362 118.46 128.578 118.538C128.804 118.616 129.033 118.655 129.267 118.655ZM139.939 119.63C139.462 119.63 139.051 119.548 138.704 119.383C138.357 119.21 138.071 118.98 137.846 118.694C137.629 118.399 137.465 118.066 137.352 117.693C137.248 117.32 137.187 116.926 137.17 116.51C137.161 116.371 137.157 116.241 137.157 116.12C137.157 115.999 137.161 115.869 137.17 115.73C137.187 115.323 137.248 114.933 137.352 114.56C137.465 114.187 137.629 113.854 137.846 113.559C138.071 113.264 138.357 113.035 138.704 112.87C139.051 112.697 139.462 112.61 139.939 112.61C140.45 112.61 140.875 112.701 141.213 112.883C141.551 113.065 141.828 113.29 142.045 113.559V110.569C142.045 110.482 142.071 110.413 142.123 110.361C142.184 110.3 142.257 110.27 142.344 110.27H142.968C143.055 110.27 143.124 110.3 143.176 110.361C143.237 110.413 143.267 110.482 143.267 110.569V119.201C143.267 119.288 143.237 119.361 143.176 119.422C143.124 119.474 143.055 119.5 142.968 119.5H142.383C142.288 119.5 142.214 119.474 142.162 119.422C142.11 119.361 142.084 119.288 142.084 119.201V118.655C141.867 118.932 141.586 119.166 141.239 119.357C140.892 119.539 140.459 119.63 139.939 119.63ZM140.212 118.577C140.645 118.577 140.992 118.477 141.252 118.278C141.512 118.079 141.707 117.827 141.837 117.524C141.967 117.212 142.036 116.896 142.045 116.575C142.054 116.436 142.058 116.272 142.058 116.081C142.058 115.882 142.054 115.713 142.045 115.574C142.036 115.271 141.963 114.972 141.824 114.677C141.694 114.382 141.495 114.14 141.226 113.949C140.966 113.758 140.628 113.663 140.212 113.663C139.77 113.663 139.419 113.763 139.159 113.962C138.899 114.153 138.713 114.408 138.6 114.729C138.487 115.041 138.422 115.379 138.405 115.743C138.396 115.994 138.396 116.246 138.405 116.497C138.422 116.861 138.487 117.203 138.6 117.524C138.713 117.836 138.899 118.092 139.159 118.291C139.419 118.482 139.77 118.577 140.212 118.577ZM147.891 119.63C146.999 119.63 146.288 119.357 145.759 118.811C145.231 118.256 144.94 117.502 144.888 116.549C144.88 116.436 144.875 116.293 144.875 116.12C144.875 115.938 144.88 115.791 144.888 115.678C144.923 115.063 145.066 114.525 145.317 114.066C145.569 113.598 145.911 113.238 146.344 112.987C146.786 112.736 147.302 112.61 147.891 112.61C148.55 112.61 149.1 112.749 149.542 113.026C149.993 113.303 150.335 113.698 150.569 114.209C150.803 114.72 150.92 115.318 150.92 116.003V116.224C150.92 116.319 150.89 116.393 150.829 116.445C150.777 116.497 150.708 116.523 150.621 116.523H146.123C146.123 116.532 146.123 116.549 146.123 116.575C146.123 116.601 146.123 116.623 146.123 116.64C146.141 116.995 146.219 117.329 146.357 117.641C146.496 117.944 146.695 118.191 146.955 118.382C147.215 118.573 147.527 118.668 147.891 118.668C148.203 118.668 148.463 118.62 148.671 118.525C148.879 118.43 149.048 118.326 149.178 118.213C149.308 118.092 149.395 118.001 149.438 117.94C149.516 117.827 149.577 117.762 149.62 117.745C149.664 117.719 149.733 117.706 149.828 117.706H150.452C150.539 117.706 150.608 117.732 150.66 117.784C150.721 117.827 150.747 117.892 150.738 117.979C150.73 118.109 150.66 118.269 150.53 118.46C150.4 118.642 150.214 118.824 149.971 119.006C149.729 119.188 149.434 119.34 149.087 119.461C148.741 119.574 148.342 119.63 147.891 119.63ZM146.123 115.626H149.685V115.587C149.685 115.197 149.612 114.85 149.464 114.547C149.326 114.244 149.122 114.005 148.853 113.832C148.585 113.65 148.264 113.559 147.891 113.559C147.519 113.559 147.198 113.65 146.929 113.832C146.669 114.005 146.47 114.244 146.331 114.547C146.193 114.85 146.123 115.197 146.123 115.587V115.626ZM99.305 134.5C99.2183 134.5 99.1447 134.474 99.084 134.422C99.032 134.361 99.006 134.288 99.006 134.201V125.712C99.006 125.617 99.032 125.543 99.084 125.491C99.1447 125.43 99.2183 125.4 99.305 125.4H99.955C100.059 125.4 100.137 125.426 100.189 125.478C100.241 125.53 100.271 125.573 100.28 125.608L103.036 130.86L105.805 125.608C105.822 125.573 105.853 125.53 105.896 125.478C105.948 125.426 106.026 125.4 106.13 125.4H106.767C106.862 125.4 106.936 125.43 106.988 125.491C107.049 125.543 107.079 125.617 107.079 125.712V134.201C107.079 134.288 107.049 134.361 106.988 134.422C106.936 134.474 106.862 134.5 106.767 134.5H106.13C106.043 134.5 105.97 134.474 105.909 134.422C105.857 134.361 105.831 134.288 105.831 134.201V127.805L103.66 132.043C103.625 132.13 103.573 132.199 103.504 132.251C103.435 132.294 103.348 132.316 103.244 132.316H102.841C102.728 132.316 102.637 132.294 102.568 132.251C102.507 132.199 102.455 132.13 102.412 132.043L100.241 127.805V134.201C100.241 134.288 100.211 134.361 100.15 134.422C100.098 134.474 100.029 134.5 99.942 134.5H99.305ZM111.849 134.63C110.957 134.63 110.246 134.357 109.717 133.811C109.189 133.256 108.898 132.502 108.846 131.549C108.838 131.436 108.833 131.293 108.833 131.12C108.833 130.938 108.838 130.791 108.846 130.678C108.881 130.063 109.024 129.525 109.275 129.066C109.527 128.598 109.869 128.238 110.302 127.987C110.744 127.736 111.26 127.61 111.849 127.61C112.508 127.61 113.058 127.749 113.5 128.026C113.951 128.303 114.293 128.698 114.527 129.209C114.761 129.72 114.878 130.318 114.878 131.003V131.224C114.878 131.319 114.848 131.393 114.787 131.445C114.735 131.497 114.666 131.523 114.579 131.523H110.081C110.081 131.532 110.081 131.549 110.081 131.575C110.081 131.601 110.081 131.623 110.081 131.64C110.099 131.995 110.177 132.329 110.315 132.641C110.454 132.944 110.653 133.191 110.913 133.382C111.173 133.573 111.485 133.668 111.849 133.668C112.161 133.668 112.421 133.62 112.629 133.525C112.837 133.43 113.006 133.326 113.136 133.213C113.266 133.092 113.353 133.001 113.396 132.94C113.474 132.827 113.535 132.762 113.578 132.745C113.622 132.719 113.691 132.706 113.786 132.706H114.41C114.497 132.706 114.566 132.732 114.618 132.784C114.679 132.827 114.705 132.892 114.696 132.979C114.688 133.109 114.618 133.269 114.488 133.46C114.358 133.642 114.172 133.824 113.929 134.006C113.687 134.188 113.392 134.34 113.045 134.461C112.699 134.574 112.3 134.63 111.849 134.63ZM110.081 130.626H113.643V130.587C113.643 130.197 113.57 129.85 113.422 129.547C113.284 129.244 113.08 129.005 112.811 128.832C112.543 128.65 112.222 128.559 111.849 128.559C111.477 128.559 111.156 128.65 110.887 128.832C110.627 129.005 110.428 129.244 110.289 129.547C110.151 129.85 110.081 130.197 110.081 130.587V130.626ZM111.498 126.765C111.36 126.765 111.29 126.696 111.29 126.557C111.29 126.488 111.312 126.431 111.355 126.388L112.33 125.218C112.408 125.123 112.478 125.062 112.538 125.036C112.599 125.001 112.69 124.984 112.811 124.984H113.695C113.86 124.984 113.942 125.066 113.942 125.231C113.942 125.292 113.921 125.344 113.877 125.387L112.369 126.622C112.3 126.683 112.235 126.722 112.174 126.739C112.114 126.756 112.036 126.765 111.94 126.765H111.498ZM115.981 134.5C115.912 134.5 115.847 134.474 115.786 134.422C115.734 134.37 115.708 134.305 115.708 134.227C115.708 134.201 115.712 134.171 115.721 134.136C115.738 134.093 115.764 134.045 115.799 133.993L118.061 131.042L115.942 128.247C115.907 128.195 115.881 128.152 115.864 128.117C115.855 128.082 115.851 128.048 115.851 128.013C115.851 127.935 115.877 127.87 115.929 127.818C115.981 127.766 116.046 127.74 116.124 127.74H116.787C116.882 127.74 116.952 127.766 116.995 127.818C117.047 127.861 117.09 127.905 117.125 127.948L118.854 130.197L120.583 127.961C120.618 127.918 120.657 127.87 120.7 127.818C120.752 127.766 120.826 127.74 120.921 127.74H121.558C121.636 127.74 121.701 127.766 121.753 127.818C121.805 127.87 121.831 127.935 121.831 128.013C121.831 128.048 121.822 128.082 121.805 128.117C121.796 128.152 121.775 128.195 121.74 128.247L119.595 131.068L121.857 133.993C121.892 134.045 121.913 134.088 121.922 134.123C121.939 134.158 121.948 134.192 121.948 134.227C121.948 134.305 121.922 134.37 121.87 134.422C121.818 134.474 121.753 134.5 121.675 134.5H120.986C120.899 134.5 120.83 134.478 120.778 134.435C120.726 134.392 120.683 134.348 120.648 134.305L118.815 131.926L116.982 134.305C116.947 134.34 116.904 134.383 116.852 134.435C116.809 134.478 116.739 134.5 116.644 134.5H115.981ZM123.6 134.5C123.513 134.5 123.44 134.474 123.379 134.422C123.327 134.361 123.301 134.288 123.301 134.201V128.039C123.301 127.952 123.327 127.883 123.379 127.831C123.44 127.77 123.513 127.74 123.6 127.74H124.224C124.311 127.74 124.38 127.77 124.432 127.831C124.484 127.883 124.51 127.952 124.51 128.039V134.201C124.51 134.288 124.484 134.361 124.432 134.422C124.38 134.474 124.311 134.5 124.224 134.5H123.6ZM123.496 126.479C123.409 126.479 123.336 126.453 123.275 126.401C123.223 126.34 123.197 126.267 123.197 126.18V125.478C123.197 125.391 123.223 125.322 123.275 125.27C123.336 125.209 123.409 125.179 123.496 125.179H124.315C124.402 125.179 124.471 125.209 124.523 125.27C124.584 125.322 124.614 125.391 124.614 125.478V126.18C124.614 126.267 124.584 126.34 124.523 126.401C124.471 126.453 124.402 126.479 124.315 126.479H123.496ZM129.179 134.63C128.564 134.63 128.031 134.513 127.58 134.279C127.138 134.036 126.796 133.694 126.553 133.252C126.311 132.801 126.181 132.264 126.163 131.64C126.155 131.51 126.15 131.337 126.15 131.12C126.15 130.903 126.155 130.73 126.163 130.6C126.181 129.976 126.311 129.443 126.553 129.001C126.796 128.55 127.138 128.208 127.58 127.974C128.031 127.731 128.564 127.61 129.179 127.61C129.682 127.61 130.111 127.679 130.466 127.818C130.83 127.957 131.129 128.134 131.363 128.351C131.597 128.568 131.771 128.802 131.883 129.053C132.005 129.304 132.07 129.543 132.078 129.768C132.087 129.855 132.061 129.924 132 129.976C131.94 130.028 131.866 130.054 131.779 130.054H131.155C131.069 130.054 131.004 130.037 130.96 130.002C130.917 129.959 130.874 129.889 130.83 129.794C130.674 129.369 130.462 129.07 130.193 128.897C129.925 128.724 129.591 128.637 129.192 128.637C128.672 128.637 128.248 128.797 127.918 129.118C127.598 129.439 127.424 129.954 127.398 130.665C127.39 130.977 127.39 131.28 127.398 131.575C127.424 132.294 127.598 132.814 127.918 133.135C128.248 133.447 128.672 133.603 129.192 133.603C129.591 133.603 129.925 133.516 130.193 133.343C130.462 133.17 130.674 132.871 130.83 132.446C130.874 132.351 130.917 132.286 130.96 132.251C131.004 132.208 131.069 132.186 131.155 132.186H131.779C131.866 132.186 131.94 132.212 132 132.264C132.061 132.316 132.087 132.385 132.078 132.472C132.07 132.654 132.031 132.84 131.961 133.031C131.892 133.222 131.779 133.417 131.623 133.616C131.476 133.807 131.29 133.98 131.064 134.136C130.839 134.283 130.566 134.405 130.245 134.5C129.933 134.587 129.578 134.63 129.179 134.63ZM136.391 134.63C135.732 134.63 135.182 134.504 134.74 134.253C134.298 134.002 133.96 133.655 133.726 133.213C133.492 132.762 133.362 132.251 133.336 131.679C133.327 131.532 133.323 131.345 133.323 131.12C133.323 130.886 133.327 130.7 133.336 130.561C133.362 129.98 133.492 129.469 133.726 129.027C133.969 128.585 134.311 128.238 134.753 127.987C135.195 127.736 135.741 127.61 136.391 127.61C137.041 127.61 137.587 127.736 138.029 127.987C138.471 128.238 138.809 128.585 139.043 129.027C139.286 129.469 139.42 129.98 139.446 130.561C139.455 130.7 139.459 130.886 139.459 131.12C139.459 131.345 139.455 131.532 139.446 131.679C139.42 132.251 139.29 132.762 139.056 133.213C138.822 133.655 138.484 134.002 138.042 134.253C137.6 134.504 137.05 134.63 136.391 134.63ZM136.391 133.629C136.928 133.629 137.357 133.46 137.678 133.122C137.999 132.775 138.172 132.273 138.198 131.614C138.207 131.484 138.211 131.319 138.211 131.12C138.211 130.921 138.207 130.756 138.198 130.626C138.172 129.967 137.999 129.469 137.678 129.131C137.357 128.784 136.928 128.611 136.391 128.611C135.854 128.611 135.42 128.784 135.091 129.131C134.77 129.469 134.601 129.967 134.584 130.626C134.575 130.756 134.571 130.921 134.571 131.12C134.571 131.319 134.575 131.484 134.584 131.614C134.601 132.273 134.77 132.775 135.091 133.122C135.42 133.46 135.854 133.629 136.391 133.629Z" fill="#EBECEE"/>
<rect x="100.5" y="141.5" width="37" height="25" rx="12.5" fill="#47830E"/>
<path d="M113.342 158.64C112.67 158.64 112.086 158.547 111.592 158.36C111.097 158.164 110.686 157.898 110.36 157.562C110.042 157.226 109.8 156.834 109.632 156.386C109.464 155.938 109.366 155.457 109.338 154.944C109.328 154.692 109.319 154.407 109.31 154.09C109.31 153.763 109.31 153.437 109.31 153.11C109.319 152.774 109.328 152.475 109.338 152.214C109.366 151.701 109.464 151.225 109.632 150.786C109.809 150.338 110.061 149.951 110.388 149.624C110.724 149.288 111.134 149.027 111.62 148.84C112.114 148.653 112.688 148.56 113.342 148.56C114.004 148.56 114.578 148.653 115.064 148.84C115.549 149.027 115.955 149.288 116.282 149.624C116.618 149.951 116.874 150.338 117.052 150.786C117.229 151.225 117.327 151.701 117.346 152.214C117.364 152.475 117.374 152.774 117.374 153.11C117.383 153.437 117.383 153.763 117.374 154.09C117.374 154.407 117.364 154.692 117.346 154.944C117.327 155.457 117.229 155.938 117.052 156.386C116.884 156.834 116.636 157.226 116.31 157.562C115.992 157.898 115.586 158.164 115.092 158.36C114.606 158.547 114.023 158.64 113.342 158.64ZM113.342 156.61C113.827 156.61 114.177 156.456 114.392 156.148C114.616 155.831 114.732 155.406 114.742 154.874C114.76 154.603 114.77 154.319 114.77 154.02C114.779 153.721 114.779 153.423 114.77 153.124C114.77 152.825 114.76 152.55 114.742 152.298C114.732 151.785 114.616 151.369 114.392 151.052C114.177 150.735 113.827 150.571 113.342 150.562C112.856 150.571 112.506 150.735 112.292 151.052C112.077 151.369 111.96 151.785 111.942 152.298C111.932 152.55 111.923 152.825 111.914 153.124C111.914 153.423 111.914 153.721 111.914 154.02C111.923 154.319 111.932 154.603 111.942 154.874C111.96 155.406 112.082 155.831 112.306 156.148C112.53 156.456 112.875 156.61 113.342 156.61ZM119.679 158.5C119.465 158.5 119.357 158.407 119.357 158.22C119.357 158.164 119.376 158.113 119.413 158.066L126.329 148.966C126.395 148.882 126.46 148.817 126.525 148.77C126.591 148.723 126.689 148.7 126.819 148.7H127.813C128.028 148.7 128.135 148.793 128.135 148.98C128.135 149.036 128.117 149.087 128.079 149.134L121.163 158.234C121.098 158.318 121.033 158.383 120.967 158.43C120.902 158.477 120.804 158.5 120.673 158.5H119.679ZM126.721 158.57C126.087 158.57 125.578 158.402 125.195 158.066C124.822 157.73 124.612 157.282 124.565 156.722C124.556 156.479 124.551 156.265 124.551 156.078C124.551 155.891 124.556 155.667 124.565 155.406C124.603 154.837 124.803 154.384 125.167 154.048C125.541 153.703 126.059 153.53 126.721 153.53C127.393 153.53 127.911 153.703 128.275 154.048C128.639 154.384 128.84 154.837 128.877 155.406C128.896 155.667 128.905 155.891 128.905 156.078C128.905 156.265 128.896 156.479 128.877 156.722C128.84 157.282 128.63 157.73 128.247 158.066C127.865 158.402 127.356 158.57 126.721 158.57ZM126.721 157.338C126.88 157.338 127.001 157.305 127.085 157.24C127.179 157.175 127.249 157.091 127.295 156.988C127.342 156.876 127.365 156.759 127.365 156.638C127.384 156.423 127.393 156.227 127.393 156.05C127.393 155.873 127.384 155.681 127.365 155.476C127.356 155.299 127.305 155.14 127.211 155C127.118 154.851 126.955 154.776 126.721 154.776C126.488 154.776 126.325 154.851 126.231 155C126.138 155.14 126.087 155.299 126.077 155.476C126.068 155.681 126.063 155.873 126.063 156.05C126.063 156.227 126.068 156.423 126.077 156.638C126.087 156.759 126.11 156.876 126.147 156.988C126.194 157.091 126.264 157.175 126.357 157.24C126.451 157.305 126.572 157.338 126.721 157.338ZM120.799 153.642C120.155 153.642 119.642 153.479 119.259 153.152C118.886 152.816 118.681 152.368 118.643 151.808C118.625 151.565 118.615 151.355 118.615 151.178C118.625 150.991 118.634 150.767 118.643 150.506C118.671 149.937 118.867 149.484 119.231 149.148C119.605 148.803 120.127 148.63 120.799 148.63C121.471 148.63 121.989 148.803 122.353 149.148C122.717 149.484 122.913 149.937 122.941 150.506C122.96 150.767 122.969 150.991 122.969 151.178C122.969 151.355 122.96 151.565 122.941 151.808C122.913 152.368 122.708 152.816 122.325 153.152C121.943 153.479 121.434 153.642 120.799 153.642ZM120.799 152.438C120.949 152.438 121.07 152.405 121.163 152.34C121.257 152.265 121.327 152.177 121.373 152.074C121.42 151.962 121.443 151.85 121.443 151.738C121.462 151.523 121.471 151.327 121.471 151.15C121.471 150.973 121.462 150.781 121.443 150.576C121.434 150.399 121.378 150.24 121.275 150.1C121.182 149.951 121.023 149.876 120.799 149.876C120.566 149.876 120.398 149.951 120.295 150.1C120.202 150.24 120.151 150.399 120.141 150.576C120.132 150.781 120.127 150.973 120.127 151.15C120.127 151.327 120.132 151.523 120.141 151.738C120.151 151.85 120.174 151.962 120.211 152.074C120.258 152.177 120.328 152.265 120.421 152.34C120.515 152.405 120.641 152.438 120.799 152.438Z" fill="#EBECEE"/>
<g filter="url(#filter1_d_15958_23140)">
<rect x="148" y="74" width="32" height="32" rx="16" fill="white"/>
<rect x="147" y="73" width="34" height="34" rx="17" stroke="#1DA534" stroke-width="2"/>
<path opacity="0.4" d="M164 100C169.523 100 174 95.5228 174 90C174 84.4772 169.523 80 164 80C158.477 80 154 84.4772 154 90C154 95.5228 158.477 100 164 100Z" fill="#1DA534"/>
<path d="M162.579 93.5801C162.379 93.5801 162.189 93.5001 162.049 93.3601L159.219 90.5301C158.929 90.2401 158.929 89.7601 159.219 89.4701C159.509 89.1801 159.989 89.1801 160.279 89.4701L162.579 91.7701L167.719 86.6301C168.009 86.3401 168.489 86.3401 168.779 86.6301C169.069 86.9201 169.069 87.4001 168.779 87.6901L163.109 93.3601C162.969 93.5001 162.779 93.5801 162.579 93.5801Z" fill="#1DA534"/>
</g>
</g>
<defs>
<filter id="filter0_d_15958_23140" x="0" y="0" width="242" height="238" filterUnits="userSpaceOnUse" color-interpolation-filters="sRGB">
<feFlood flood-opacity="0" result="BackgroundImageFix"/>
<feColorMatrix in="SourceAlpha" type="matrix" values="0 0 0 0 0 0 0 0 0 0 0 0 0 0 0 0 0 0 127 0" result="hardAlpha"/>
<feOffset/>
<feGaussianBlur stdDeviation="30"/>
<feComposite in2="hardAlpha" operator="out"/>
<feColorMatrix type="matrix" values="0 0 0 0 0.27451 0 0 0 0 0.513726 0 0 0 0 0.0627451 0 0 0 1 0"/>
<feBlend mode="normal" in2="BackgroundImageFix" result="effect1_dropShadow_15958_23140"/>
<feBlend mode="normal" in="SourceGraphic" in2="effect1_dropShadow_15958_23140" result="shape"/>
</filter>
<filter id="filter1_d_15958_23140" x="131" y="65" width="66" height="66" filterUnits="userSpaceOnUse" color-interpolation-filters="sRGB">
<feFlood flood-opacity="0" result="BackgroundImageFix"/>
<feColorMatrix in="SourceAlpha" type="matrix" values="0 0 0 0 0 0 0 0 0 0 0 0 0 0 0 0 0 0 127 0" result="hardAlpha"/>
<feOffset dy="8"/>
<feGaussianBlur stdDeviation="7.5"/>
<feColorMatrix type="matrix" values="0 0 0 0 0 0 0 0 0 0 0 0 0 0 0 0 0 0 0.25 0"/>
<feBlend mode="normal" in2="BackgroundImageFix" result="effect1_dropShadow_15958_23140"/>
<feBlend mode="normal" in="SourceGraphic" in2="effect1_dropShadow_15958_23140" result="shape"/>
</filter>
</defs>
</svg>
