<svg width="242" height="238" viewBox="0 0 242 238" fill="none" xmlns="http://www.w3.org/2000/svg">
<g filter="url(#filter0_d_15958_23160)">
<rect x="64" y="64" width="110" height="110" rx="55" fill="#02AAA4" fill-opacity="0.15" shape-rendering="crispEdges"/>
<rect x="62" y="62" width="114" height="114" rx="57" stroke="#02AAA4" stroke-width="4" shape-rendering="crispEdges"/>
<path opacity="0.4" d="M124.586 81.6665H113.413C108.559 81.6665 105.666 84.5598 105.666 89.4132V100.573C105.666 105.44 108.559 108.333 113.413 108.333H124.573C129.426 108.333 132.319 105.44 132.319 100.587V89.4132C132.333 84.5598 129.439 81.6665 124.586 81.6665Z" fill="#02AAA4"/>
<path d="M124.894 89.4134V100.587C124.894 101.44 124.2 102.133 123.347 102.133C122.48 102.133 121.787 101.44 121.787 100.587V89.4134C121.787 88.56 122.48 87.8667 123.347 87.8667C124.2 87.8667 124.894 88.56 124.894 89.4134Z" fill="#02AAA4"/>
<path d="M116.214 96.24V100.587C116.214 101.44 115.521 102.133 114.654 102.133C113.801 102.133 113.107 101.44 113.107 100.587V96.24C113.107 95.3867 113.801 94.6934 114.654 94.6934C115.521 94.6934 116.214 95.3867 116.214 96.24Z" fill="#02AAA4"/>
<path d="M87.0223 127C86.927 127 86.8533 126.974 86.8013 126.922C86.7493 126.861 86.7233 126.788 86.7233 126.701V118.212C86.7233 118.117 86.7493 118.043 86.8013 117.991C86.8533 117.93 86.927 117.9 87.0223 117.9H92.3913C92.4866 117.9 92.5603 117.93 92.6123 117.991C92.6643 118.043 92.6903 118.117 92.6903 118.212V118.706C92.6903 118.801 92.6643 118.875 92.6123 118.927C92.5603 118.979 92.4866 119.005 92.3913 119.005H87.9713V121.852H92.1053C92.2006 121.852 92.2743 121.882 92.3263 121.943C92.3783 121.995 92.4043 122.069 92.4043 122.164V122.645C92.4043 122.732 92.3783 122.805 92.3263 122.866C92.2743 122.918 92.2006 122.944 92.1053 122.944H87.9713V125.895H92.4953C92.5906 125.895 92.6643 125.921 92.7163 125.973C92.7683 126.025 92.7943 126.099 92.7943 126.194V126.701C92.7943 126.788 92.7683 126.861 92.7163 126.922C92.6643 126.974 92.5906 127 92.4953 127H87.0223ZM96.7781 127.13C96.2927 127.13 95.8767 127.069 95.5301 126.948C95.1834 126.827 94.9017 126.679 94.6851 126.506C94.4684 126.333 94.3037 126.159 94.1911 125.986C94.0871 125.813 94.0307 125.674 94.0221 125.57C94.0134 125.475 94.0437 125.401 94.1131 125.349C94.1824 125.297 94.2517 125.271 94.3211 125.271H94.8931C94.9451 125.271 94.9841 125.28 95.0101 125.297C95.0447 125.306 95.0881 125.34 95.1401 125.401C95.2527 125.522 95.3784 125.644 95.5171 125.765C95.6557 125.886 95.8247 125.986 96.0241 126.064C96.2321 126.142 96.4877 126.181 96.7911 126.181C97.2331 126.181 97.5971 126.099 97.8831 125.934C98.1691 125.761 98.3121 125.509 98.3121 125.18C98.3121 124.963 98.2514 124.79 98.1301 124.66C98.0174 124.53 97.8094 124.413 97.5061 124.309C97.2114 124.205 96.8041 124.097 96.2841 123.984C95.7641 123.863 95.3524 123.715 95.0491 123.542C94.7457 123.36 94.5291 123.148 94.3991 122.905C94.2691 122.654 94.2041 122.372 94.2041 122.06C94.2041 121.739 94.2994 121.432 94.4901 121.137C94.6807 120.834 94.9581 120.587 95.3221 120.396C95.6947 120.205 96.1584 120.11 96.7131 120.11C97.1637 120.11 97.5494 120.166 97.8701 120.279C98.1907 120.392 98.4551 120.535 98.6631 120.708C98.8711 120.873 99.0271 121.037 99.1311 121.202C99.2351 121.367 99.2914 121.505 99.3001 121.618C99.3087 121.705 99.2827 121.778 99.2221 121.839C99.1614 121.891 99.0921 121.917 99.0141 121.917H98.4681C98.4074 121.917 98.3554 121.904 98.3121 121.878C98.2774 121.852 98.2427 121.822 98.2081 121.787C98.1214 121.674 98.0174 121.562 97.8961 121.449C97.7834 121.336 97.6317 121.245 97.4411 121.176C97.2591 121.098 97.0164 121.059 96.7131 121.059C96.2797 121.059 95.9547 121.15 95.7381 121.332C95.5214 121.514 95.4131 121.744 95.4131 122.021C95.4131 122.186 95.4607 122.333 95.5561 122.463C95.6514 122.593 95.8334 122.71 96.1021 122.814C96.3707 122.918 96.7694 123.031 97.2981 123.152C97.8701 123.265 98.3207 123.416 98.6501 123.607C98.9794 123.798 99.2134 124.019 99.3521 124.27C99.4907 124.521 99.5601 124.812 99.5601 125.141C99.5601 125.505 99.4517 125.839 99.2351 126.142C99.0271 126.445 98.7151 126.688 98.2991 126.87C97.8917 127.043 97.3847 127.13 96.7781 127.13ZM103.691 127C103.206 127 102.812 126.909 102.508 126.727C102.205 126.536 101.984 126.272 101.845 125.934C101.707 125.587 101.637 125.18 101.637 124.712V121.28H100.623C100.537 121.28 100.463 121.254 100.402 121.202C100.35 121.141 100.324 121.068 100.324 120.981V120.539C100.324 120.452 100.35 120.383 100.402 120.331C100.463 120.27 100.537 120.24 100.623 120.24H101.637V118.069C101.637 117.982 101.663 117.913 101.715 117.861C101.776 117.8 101.85 117.77 101.936 117.77H102.547C102.634 117.77 102.703 117.8 102.755 117.861C102.816 117.913 102.846 117.982 102.846 118.069V120.24H104.458C104.545 120.24 104.614 120.27 104.666 120.331C104.727 120.383 104.757 120.452 104.757 120.539V120.981C104.757 121.068 104.727 121.141 104.666 121.202C104.614 121.254 104.545 121.28 104.458 121.28H102.846V124.621C102.846 125.028 102.916 125.349 103.054 125.583C103.193 125.817 103.44 125.934 103.795 125.934H104.588C104.675 125.934 104.744 125.964 104.796 126.025C104.857 126.077 104.887 126.146 104.887 126.233V126.701C104.887 126.788 104.857 126.861 104.796 126.922C104.744 126.974 104.675 127 104.588 127H103.691ZM108.015 127.13C107.582 127.13 107.188 127.043 106.832 126.87C106.477 126.697 106.191 126.463 105.974 126.168C105.758 125.873 105.649 125.54 105.649 125.167C105.649 124.569 105.892 124.092 106.377 123.737C106.863 123.382 107.495 123.148 108.275 123.035L110.212 122.762V122.385C110.212 121.969 110.091 121.644 109.848 121.41C109.614 121.176 109.229 121.059 108.691 121.059C108.301 121.059 107.985 121.137 107.742 121.293C107.508 121.449 107.344 121.648 107.248 121.891C107.196 122.021 107.105 122.086 106.975 122.086H106.39C106.295 122.086 106.221 122.06 106.169 122.008C106.126 121.947 106.104 121.878 106.104 121.8C106.104 121.67 106.152 121.51 106.247 121.319C106.351 121.128 106.507 120.942 106.715 120.76C106.923 120.578 107.188 120.426 107.508 120.305C107.838 120.175 108.236 120.11 108.704 120.11C109.224 120.11 109.662 120.179 110.017 120.318C110.373 120.448 110.65 120.626 110.849 120.851C111.057 121.076 111.205 121.332 111.291 121.618C111.387 121.904 111.434 122.194 111.434 122.489V126.701C111.434 126.788 111.404 126.861 111.343 126.922C111.291 126.974 111.222 127 111.135 127H110.537C110.442 127 110.368 126.974 110.316 126.922C110.264 126.861 110.238 126.788 110.238 126.701V126.142C110.126 126.298 109.974 126.454 109.783 126.61C109.593 126.757 109.354 126.883 109.068 126.987C108.782 127.082 108.431 127.13 108.015 127.13ZM108.288 126.155C108.644 126.155 108.969 126.081 109.263 125.934C109.558 125.778 109.788 125.54 109.952 125.219C110.126 124.898 110.212 124.495 110.212 124.01V123.646L108.704 123.867C108.089 123.954 107.625 124.101 107.313 124.309C107.001 124.508 106.845 124.764 106.845 125.076C106.845 125.319 106.915 125.522 107.053 125.687C107.201 125.843 107.383 125.96 107.599 126.038C107.825 126.116 108.054 126.155 108.288 126.155ZM115.773 127.13C115.297 127.13 114.885 127.048 114.538 126.883C114.192 126.71 113.906 126.48 113.68 126.194C113.464 125.899 113.299 125.566 113.186 125.193C113.082 124.82 113.022 124.426 113.004 124.01C112.996 123.871 112.991 123.741 112.991 123.62C112.991 123.499 112.996 123.369 113.004 123.23C113.022 122.823 113.082 122.433 113.186 122.06C113.299 121.687 113.464 121.354 113.68 121.059C113.906 120.764 114.192 120.535 114.538 120.37C114.885 120.197 115.297 120.11 115.773 120.11C116.285 120.11 116.709 120.201 117.047 120.383C117.385 120.565 117.663 120.79 117.879 121.059V118.069C117.879 117.982 117.905 117.913 117.957 117.861C118.018 117.8 118.092 117.77 118.178 117.77H118.802C118.889 117.77 118.958 117.8 119.01 117.861C119.071 117.913 119.101 117.982 119.101 118.069V126.701C119.101 126.788 119.071 126.861 119.01 126.922C118.958 126.974 118.889 127 118.802 127H118.217C118.122 127 118.048 126.974 117.996 126.922C117.944 126.861 117.918 126.788 117.918 126.701V126.155C117.702 126.432 117.42 126.666 117.073 126.857C116.727 127.039 116.293 127.13 115.773 127.13ZM116.046 126.077C116.48 126.077 116.826 125.977 117.086 125.778C117.346 125.579 117.541 125.327 117.671 125.024C117.801 124.712 117.871 124.396 117.879 124.075C117.888 123.936 117.892 123.772 117.892 123.581C117.892 123.382 117.888 123.213 117.879 123.074C117.871 122.771 117.797 122.472 117.658 122.177C117.528 121.882 117.329 121.64 117.06 121.449C116.8 121.258 116.462 121.163 116.046 121.163C115.604 121.163 115.253 121.263 114.993 121.462C114.733 121.653 114.547 121.908 114.434 122.229C114.322 122.541 114.257 122.879 114.239 123.243C114.231 123.494 114.231 123.746 114.239 123.997C114.257 124.361 114.322 124.703 114.434 125.024C114.547 125.336 114.733 125.592 114.993 125.791C115.253 125.982 115.604 126.077 116.046 126.077ZM121.334 127C121.247 127 121.173 126.974 121.113 126.922C121.061 126.861 121.035 126.788 121.035 126.701V120.539C121.035 120.452 121.061 120.383 121.113 120.331C121.173 120.27 121.247 120.24 121.334 120.24H121.958C122.044 120.24 122.114 120.27 122.166 120.331C122.218 120.383 122.244 120.452 122.244 120.539V126.701C122.244 126.788 122.218 126.861 122.166 126.922C122.114 126.974 122.044 127 121.958 127H121.334ZM121.295 119.265C121.156 119.265 121.087 119.196 121.087 119.057C121.087 118.988 121.108 118.931 121.152 118.888L122.127 117.718C122.205 117.623 122.274 117.562 122.335 117.536C122.395 117.501 122.486 117.484 122.608 117.484H123.492C123.656 117.484 123.739 117.566 123.739 117.731C123.739 117.792 123.717 117.844 123.674 117.887L122.166 119.122C122.096 119.183 122.031 119.222 121.971 119.239C121.91 119.256 121.832 119.265 121.737 119.265H121.295ZM126.523 127.13C126.038 127.13 125.622 127.069 125.275 126.948C124.929 126.827 124.647 126.679 124.43 126.506C124.214 126.333 124.049 126.159 123.936 125.986C123.832 125.813 123.776 125.674 123.767 125.57C123.759 125.475 123.789 125.401 123.858 125.349C123.928 125.297 123.997 125.271 124.066 125.271H124.638C124.69 125.271 124.729 125.28 124.755 125.297C124.79 125.306 124.833 125.34 124.885 125.401C124.998 125.522 125.124 125.644 125.262 125.765C125.401 125.886 125.57 125.986 125.769 126.064C125.977 126.142 126.233 126.181 126.536 126.181C126.978 126.181 127.342 126.099 127.628 125.934C127.914 125.761 128.057 125.509 128.057 125.18C128.057 124.963 127.997 124.79 127.875 124.66C127.763 124.53 127.555 124.413 127.251 124.309C126.957 124.205 126.549 124.097 126.029 123.984C125.509 123.863 125.098 123.715 124.794 123.542C124.491 123.36 124.274 123.148 124.144 122.905C124.014 122.654 123.949 122.372 123.949 122.06C123.949 121.739 124.045 121.432 124.235 121.137C124.426 120.834 124.703 120.587 125.067 120.396C125.44 120.205 125.904 120.11 126.458 120.11C126.909 120.11 127.295 120.166 127.615 120.279C127.936 120.392 128.2 120.535 128.408 120.708C128.616 120.873 128.772 121.037 128.876 121.202C128.98 121.367 129.037 121.505 129.045 121.618C129.054 121.705 129.028 121.778 128.967 121.839C128.907 121.891 128.837 121.917 128.759 121.917H128.213C128.153 121.917 128.101 121.904 128.057 121.878C128.023 121.852 127.988 121.822 127.953 121.787C127.867 121.674 127.763 121.562 127.641 121.449C127.529 121.336 127.377 121.245 127.186 121.176C127.004 121.098 126.762 121.059 126.458 121.059C126.025 121.059 125.7 121.15 125.483 121.332C125.267 121.514 125.158 121.744 125.158 122.021C125.158 122.186 125.206 122.333 125.301 122.463C125.397 122.593 125.579 122.71 125.847 122.814C126.116 122.918 126.515 123.031 127.043 123.152C127.615 123.265 128.066 123.416 128.395 123.607C128.725 123.798 128.959 124.019 129.097 124.27C129.236 124.521 129.305 124.812 129.305 125.141C129.305 125.505 129.197 125.839 128.98 126.142C128.772 126.445 128.46 126.688 128.044 126.87C127.637 127.043 127.13 127.13 126.523 127.13ZM133.436 127C132.951 127 132.557 126.909 132.253 126.727C131.95 126.536 131.729 126.272 131.59 125.934C131.452 125.587 131.382 125.18 131.382 124.712V121.28H130.368C130.282 121.28 130.208 121.254 130.147 121.202C130.095 121.141 130.069 121.068 130.069 120.981V120.539C130.069 120.452 130.095 120.383 130.147 120.331C130.208 120.27 130.282 120.24 130.368 120.24H131.382V118.069C131.382 117.982 131.408 117.913 131.46 117.861C131.521 117.8 131.595 117.77 131.681 117.77H132.292C132.379 117.77 132.448 117.8 132.5 117.861C132.561 117.913 132.591 117.982 132.591 118.069V120.24H134.203C134.29 120.24 134.359 120.27 134.411 120.331C134.472 120.383 134.502 120.452 134.502 120.539V120.981C134.502 121.068 134.472 121.141 134.411 121.202C134.359 121.254 134.29 121.28 134.203 121.28H132.591V124.621C132.591 125.028 132.661 125.349 132.799 125.583C132.938 125.817 133.185 125.934 133.54 125.934H134.333C134.42 125.934 134.489 125.964 134.541 126.025C134.602 126.077 134.632 126.146 134.632 126.233V126.701C134.632 126.788 134.602 126.861 134.541 126.922C134.489 126.974 134.42 127 134.333 127H133.436ZM136.175 127C136.088 127 136.014 126.974 135.954 126.922C135.902 126.861 135.876 126.788 135.876 126.701V120.539C135.876 120.452 135.902 120.383 135.954 120.331C136.014 120.27 136.088 120.24 136.175 120.24H136.799C136.885 120.24 136.955 120.27 137.007 120.331C137.059 120.383 137.085 120.452 137.085 120.539V126.701C137.085 126.788 137.059 126.861 137.007 126.922C136.955 126.974 136.885 127 136.799 127H136.175ZM136.071 118.979C135.984 118.979 135.91 118.953 135.85 118.901C135.798 118.84 135.772 118.767 135.772 118.68V117.978C135.772 117.891 135.798 117.822 135.85 117.77C135.91 117.709 135.984 117.679 136.071 117.679H136.89C136.976 117.679 137.046 117.709 137.098 117.77C137.158 117.822 137.189 117.891 137.189 117.978V118.68C137.189 118.767 137.158 118.84 137.098 118.901C137.046 118.953 136.976 118.979 136.89 118.979H136.071ZM141.754 127.13C141.139 127.13 140.606 127.013 140.155 126.779C139.713 126.536 139.371 126.194 139.128 125.752C138.885 125.301 138.755 124.764 138.738 124.14C138.729 124.01 138.725 123.837 138.725 123.62C138.725 123.403 138.729 123.23 138.738 123.1C138.755 122.476 138.885 121.943 139.128 121.501C139.371 121.05 139.713 120.708 140.155 120.474C140.606 120.231 141.139 120.11 141.754 120.11C142.257 120.11 142.686 120.179 143.041 120.318C143.405 120.457 143.704 120.634 143.938 120.851C144.172 121.068 144.345 121.302 144.458 121.553C144.579 121.804 144.644 122.043 144.653 122.268C144.662 122.355 144.636 122.424 144.575 122.476C144.514 122.528 144.441 122.554 144.354 122.554H143.73C143.643 122.554 143.578 122.537 143.535 122.502C143.492 122.459 143.448 122.389 143.405 122.294C143.249 121.869 143.037 121.57 142.768 121.397C142.499 121.224 142.166 121.137 141.767 121.137C141.247 121.137 140.822 121.297 140.493 121.618C140.172 121.939 139.999 122.454 139.973 123.165C139.964 123.477 139.964 123.78 139.973 124.075C139.999 124.794 140.172 125.314 140.493 125.635C140.822 125.947 141.247 126.103 141.767 126.103C142.166 126.103 142.499 126.016 142.768 125.843C143.037 125.67 143.249 125.371 143.405 124.946C143.448 124.851 143.492 124.786 143.535 124.751C143.578 124.708 143.643 124.686 143.73 124.686H144.354C144.441 124.686 144.514 124.712 144.575 124.764C144.636 124.816 144.662 124.885 144.653 124.972C144.644 125.154 144.605 125.34 144.536 125.531C144.467 125.722 144.354 125.917 144.198 126.116C144.051 126.307 143.864 126.48 143.639 126.636C143.414 126.783 143.141 126.905 142.82 127C142.508 127.087 142.153 127.13 141.754 127.13ZM148.082 127.13C147.649 127.13 147.254 127.043 146.899 126.87C146.544 126.697 146.258 126.463 146.041 126.168C145.824 125.873 145.716 125.54 145.716 125.167C145.716 124.569 145.959 124.092 146.444 123.737C146.929 123.382 147.562 123.148 148.342 123.035L150.279 122.762V122.385C150.279 121.969 150.158 121.644 149.915 121.41C149.681 121.176 149.295 121.059 148.758 121.059C148.368 121.059 148.052 121.137 147.809 121.293C147.575 121.449 147.41 121.648 147.315 121.891C147.263 122.021 147.172 122.086 147.042 122.086H146.457C146.362 122.086 146.288 122.06 146.236 122.008C146.193 121.947 146.171 121.878 146.171 121.8C146.171 121.67 146.219 121.51 146.314 121.319C146.418 121.128 146.574 120.942 146.782 120.76C146.99 120.578 147.254 120.426 147.575 120.305C147.904 120.175 148.303 120.11 148.771 120.11C149.291 120.11 149.729 120.179 150.084 120.318C150.439 120.448 150.717 120.626 150.916 120.851C151.124 121.076 151.271 121.332 151.358 121.618C151.453 121.904 151.501 122.194 151.501 122.489V126.701C151.501 126.788 151.471 126.861 151.41 126.922C151.358 126.974 151.289 127 151.202 127H150.604C150.509 127 150.435 126.974 150.383 126.922C150.331 126.861 150.305 126.788 150.305 126.701V126.142C150.192 126.298 150.041 126.454 149.85 126.61C149.659 126.757 149.421 126.883 149.135 126.987C148.849 127.082 148.498 127.13 148.082 127.13ZM148.355 126.155C148.71 126.155 149.035 126.081 149.33 125.934C149.625 125.778 149.854 125.54 150.019 125.219C150.192 124.898 150.279 124.495 150.279 124.01V123.646L148.771 123.867C148.156 123.954 147.692 124.101 147.38 124.309C147.068 124.508 146.912 124.764 146.912 125.076C146.912 125.319 146.981 125.522 147.12 125.687C147.267 125.843 147.449 125.96 147.666 126.038C147.891 126.116 148.121 126.155 148.355 126.155Z" fill="#EBECEE"/>
<rect x="100.5" y="134" width="37" height="25" rx="12.5" fill="#02AAA4"/>
<path d="M113.342 151.14C112.67 151.14 112.086 151.047 111.592 150.86C111.097 150.664 110.686 150.398 110.36 150.062C110.042 149.726 109.8 149.334 109.632 148.886C109.464 148.438 109.366 147.957 109.338 147.444C109.328 147.192 109.319 146.907 109.31 146.59C109.31 146.263 109.31 145.937 109.31 145.61C109.319 145.274 109.328 144.975 109.338 144.714C109.366 144.201 109.464 143.725 109.632 143.286C109.809 142.838 110.061 142.451 110.388 142.124C110.724 141.788 111.134 141.527 111.62 141.34C112.114 141.153 112.688 141.06 113.342 141.06C114.004 141.06 114.578 141.153 115.064 141.34C115.549 141.527 115.955 141.788 116.282 142.124C116.618 142.451 116.874 142.838 117.052 143.286C117.229 143.725 117.327 144.201 117.346 144.714C117.364 144.975 117.374 145.274 117.374 145.61C117.383 145.937 117.383 146.263 117.374 146.59C117.374 146.907 117.364 147.192 117.346 147.444C117.327 147.957 117.229 148.438 117.052 148.886C116.884 149.334 116.636 149.726 116.31 150.062C115.992 150.398 115.586 150.664 115.092 150.86C114.606 151.047 114.023 151.14 113.342 151.14ZM113.342 149.11C113.827 149.11 114.177 148.956 114.392 148.648C114.616 148.331 114.732 147.906 114.742 147.374C114.76 147.103 114.77 146.819 114.77 146.52C114.779 146.221 114.779 145.923 114.77 145.624C114.77 145.325 114.76 145.05 114.742 144.798C114.732 144.285 114.616 143.869 114.392 143.552C114.177 143.235 113.827 143.071 113.342 143.062C112.856 143.071 112.506 143.235 112.292 143.552C112.077 143.869 111.96 144.285 111.942 144.798C111.932 145.05 111.923 145.325 111.914 145.624C111.914 145.923 111.914 146.221 111.914 146.52C111.923 146.819 111.932 147.103 111.942 147.374C111.96 147.906 112.082 148.331 112.306 148.648C112.53 148.956 112.875 149.11 113.342 149.11ZM119.679 151C119.465 151 119.357 150.907 119.357 150.72C119.357 150.664 119.376 150.613 119.413 150.566L126.329 141.466C126.395 141.382 126.46 141.317 126.525 141.27C126.591 141.223 126.689 141.2 126.819 141.2H127.813C128.028 141.2 128.135 141.293 128.135 141.48C128.135 141.536 128.117 141.587 128.079 141.634L121.163 150.734C121.098 150.818 121.033 150.883 120.967 150.93C120.902 150.977 120.804 151 120.673 151H119.679ZM126.721 151.07C126.087 151.07 125.578 150.902 125.195 150.566C124.822 150.23 124.612 149.782 124.565 149.222C124.556 148.979 124.551 148.765 124.551 148.578C124.551 148.391 124.556 148.167 124.565 147.906C124.603 147.337 124.803 146.884 125.167 146.548C125.541 146.203 126.059 146.03 126.721 146.03C127.393 146.03 127.911 146.203 128.275 146.548C128.639 146.884 128.84 147.337 128.877 147.906C128.896 148.167 128.905 148.391 128.905 148.578C128.905 148.765 128.896 148.979 128.877 149.222C128.84 149.782 128.63 150.23 128.247 150.566C127.865 150.902 127.356 151.07 126.721 151.07ZM126.721 149.838C126.88 149.838 127.001 149.805 127.085 149.74C127.179 149.675 127.249 149.591 127.295 149.488C127.342 149.376 127.365 149.259 127.365 149.138C127.384 148.923 127.393 148.727 127.393 148.55C127.393 148.373 127.384 148.181 127.365 147.976C127.356 147.799 127.305 147.64 127.211 147.5C127.118 147.351 126.955 147.276 126.721 147.276C126.488 147.276 126.325 147.351 126.231 147.5C126.138 147.64 126.087 147.799 126.077 147.976C126.068 148.181 126.063 148.373 126.063 148.55C126.063 148.727 126.068 148.923 126.077 149.138C126.087 149.259 126.11 149.376 126.147 149.488C126.194 149.591 126.264 149.675 126.357 149.74C126.451 149.805 126.572 149.838 126.721 149.838ZM120.799 146.142C120.155 146.142 119.642 145.979 119.259 145.652C118.886 145.316 118.681 144.868 118.643 144.308C118.625 144.065 118.615 143.855 118.615 143.678C118.625 143.491 118.634 143.267 118.643 143.006C118.671 142.437 118.867 141.984 119.231 141.648C119.605 141.303 120.127 141.13 120.799 141.13C121.471 141.13 121.989 141.303 122.353 141.648C122.717 141.984 122.913 142.437 122.941 143.006C122.96 143.267 122.969 143.491 122.969 143.678C122.969 143.855 122.96 144.065 122.941 144.308C122.913 144.868 122.708 145.316 122.325 145.652C121.943 145.979 121.434 146.142 120.799 146.142ZM120.799 144.938C120.949 144.938 121.07 144.905 121.163 144.84C121.257 144.765 121.327 144.677 121.373 144.574C121.42 144.462 121.443 144.35 121.443 144.238C121.462 144.023 121.471 143.827 121.471 143.65C121.471 143.473 121.462 143.281 121.443 143.076C121.434 142.899 121.378 142.74 121.275 142.6C121.182 142.451 121.023 142.376 120.799 142.376C120.566 142.376 120.398 142.451 120.295 142.6C120.202 142.74 120.151 142.899 120.141 143.076C120.132 143.281 120.127 143.473 120.127 143.65C120.127 143.827 120.132 144.023 120.141 144.238C120.151 144.35 120.174 144.462 120.211 144.574C120.258 144.677 120.328 144.765 120.421 144.84C120.515 144.905 120.641 144.938 120.799 144.938Z" fill="#EBECEE"/>
<g filter="url(#filter1_d_15958_23160)">
<rect x="148" y="74" width="32" height="32" rx="16" fill="white"/>
<rect x="147" y="73" width="34" height="34" rx="17" stroke="#1DA534" stroke-width="2"/>
<path opacity="0.4" d="M164 100C169.523 100 174 95.5228 174 90C174 84.4772 169.523 80 164 80C158.477 80 154 84.4772 154 90C154 95.5228 158.477 100 164 100Z" fill="#1DA534"/>
<path d="M162.579 93.5801C162.379 93.5801 162.189 93.5001 162.049 93.3601L159.219 90.5301C158.929 90.2401 158.929 89.7601 159.219 89.4701C159.509 89.1801 159.989 89.1801 160.279 89.4701L162.579 91.7701L167.719 86.6301C168.009 86.3401 168.489 86.3401 168.779 86.6301C169.069 86.9201 169.069 87.4001 168.779 87.6901L163.109 93.3601C162.969 93.5001 162.779 93.5801 162.579 93.5801Z" fill="#1DA534"/>
</g>
</g>
<defs>
<filter id="filter0_d_15958_23160" x="0" y="0" width="242" height="238" filterUnits="userSpaceOnUse" color-interpolation-filters="sRGB">
<feFlood flood-opacity="0" result="BackgroundImageFix"/>
<feColorMatrix in="SourceAlpha" type="matrix" values="0 0 0 0 0 0 0 0 0 0 0 0 0 0 0 0 0 0 127 0" result="hardAlpha"/>
<feOffset/>
<feGaussianBlur stdDeviation="30"/>
<feComposite in2="hardAlpha" operator="out"/>
<feColorMatrix type="matrix" values="0 0 0 0 0.00784314 0 0 0 0 0.666667 0 0 0 0 0.643137 0 0 0 1 0"/>
<feBlend mode="normal" in2="BackgroundImageFix" result="effect1_dropShadow_15958_23160"/>
<feBlend mode="normal" in="SourceGraphic" in2="effect1_dropShadow_15958_23160" result="shape"/>
</filter>
<filter id="filter1_d_15958_23160" x="131" y="65" width="66" height="66" filterUnits="userSpaceOnUse" color-interpolation-filters="sRGB">
<feFlood flood-opacity="0" result="BackgroundImageFix"/>
<feColorMatrix in="SourceAlpha" type="matrix" values="0 0 0 0 0 0 0 0 0 0 0 0 0 0 0 0 0 0 127 0" result="hardAlpha"/>
<feOffset dy="8"/>
<feGaussianBlur stdDeviation="7.5"/>
<feColorMatrix type="matrix" values="0 0 0 0 0 0 0 0 0 0 0 0 0 0 0 0 0 0 0.25 0"/>
<feBlend mode="normal" in2="BackgroundImageFix" result="effect1_dropShadow_15958_23160"/>
<feBlend mode="normal" in="SourceGraphic" in2="effect1_dropShadow_15958_23160" result="shape"/>
</filter>
</defs>
</svg>
