<svg width="242" height="238" viewBox="0 0 242 238" fill="none" xmlns="http://www.w3.org/2000/svg">
<g filter="url(#filter0_d_15958_23134)">
<rect x="64" y="64" width="110" height="110" rx="55" fill="#1DA534" fill-opacity="0.15" shape-rendering="crispEdges"/>
<rect x="62" y="62" width="114" height="114" rx="57" stroke="#1DA534" stroke-width="4" shape-rendering="crispEdges"/>
<g clip-path="url(#clip0_15958_23134)">
<mask id="mask0_15958_23134" style="mask-type:luminance" maskUnits="userSpaceOnUse" x="103" y="79" width="32" height="32">
<path d="M135 79H103V111H135V79Z" fill="white"/>
</mask>
<g mask="url(#mask0_15958_23134)">
<path opacity="0.4" d="M125.879 100.28C125.786 100.374 125.693 100.454 125.613 100.547C116.719 109.174 103.479 95.9336 112.106 87.0403C112.199 86.947 112.279 86.867 112.373 86.7736C117.973 81.1736 129.266 83.4003 129.266 83.4003C129.266 83.4003 131.479 94.6802 125.879 100.28Z" fill="#1DA534"/>
<path d="M118.973 93.6665C108.48 99.7332 108.307 107.053 108.307 107.053L118.973 93.6665Z" fill="#1DA534"/>
<path d="M118.973 93.6665C108.48 99.7332 108.307 107.053 108.307 107.053" stroke="#1DA534" stroke-width="1.5" stroke-miterlimit="10" stroke-linecap="round"/>
</g>
</g>
<path d="M96.4295 127C96.3342 127 96.2605 126.974 96.2085 126.922C96.1565 126.861 96.1305 126.788 96.1305 126.701V118.212C96.1305 118.117 96.1565 118.043 96.2085 117.991C96.2605 117.93 96.3342 117.9 96.4295 117.9H99.9915C100.642 117.9 101.17 118.008 101.578 118.225C101.994 118.433 102.297 118.719 102.488 119.083C102.687 119.447 102.787 119.854 102.787 120.305C102.787 120.66 102.726 120.968 102.605 121.228C102.492 121.479 102.349 121.687 102.176 121.852C102.002 122.008 101.833 122.129 101.669 122.216C102.007 122.381 102.306 122.649 102.566 123.022C102.834 123.395 102.969 123.845 102.969 124.374C102.969 124.851 102.86 125.288 102.644 125.687C102.427 126.086 102.102 126.406 101.669 126.649C101.244 126.883 100.715 127 100.083 127H96.4295ZM97.4045 125.947H99.9135C100.477 125.947 100.91 125.795 101.214 125.492C101.517 125.189 101.669 124.816 101.669 124.374C101.669 123.915 101.517 123.538 101.214 123.243C100.91 122.94 100.477 122.788 99.9135 122.788H97.4045V125.947ZM97.4045 121.748H99.7965C100.351 121.748 100.772 121.622 101.058 121.371C101.344 121.111 101.487 120.76 101.487 120.318C101.487 119.876 101.344 119.538 101.058 119.304C100.772 119.07 100.351 118.953 99.7965 118.953H97.4045V121.748ZM104.944 127C104.857 127 104.784 126.974 104.723 126.922C104.671 126.861 104.645 126.788 104.645 126.701V120.539C104.645 120.452 104.671 120.383 104.723 120.331C104.784 120.27 104.857 120.24 104.944 120.24H105.568C105.655 120.24 105.724 120.27 105.776 120.331C105.828 120.383 105.854 120.452 105.854 120.539V126.701C105.854 126.788 105.828 126.861 105.776 126.922C105.724 126.974 105.655 127 105.568 127H104.944ZM104.84 118.979C104.753 118.979 104.68 118.953 104.619 118.901C104.567 118.84 104.541 118.767 104.541 118.68V117.978C104.541 117.891 104.567 117.822 104.619 117.77C104.68 117.709 104.753 117.679 104.84 117.679H105.659C105.746 117.679 105.815 117.709 105.867 117.77C105.928 117.822 105.958 117.891 105.958 117.978V118.68C105.958 118.767 105.928 118.84 105.867 118.901C105.815 118.953 105.746 118.979 105.659 118.979H104.84ZM110.563 127.13C109.904 127.13 109.354 127.004 108.912 126.753C108.47 126.502 108.132 126.155 107.898 125.713C107.664 125.262 107.534 124.751 107.508 124.179C107.499 124.032 107.495 123.845 107.495 123.62C107.495 123.386 107.499 123.2 107.508 123.061C107.534 122.48 107.664 121.969 107.898 121.527C108.14 121.085 108.483 120.738 108.925 120.487C109.367 120.236 109.913 120.11 110.563 120.11C111.213 120.11 111.759 120.236 112.201 120.487C112.643 120.738 112.981 121.085 113.215 121.527C113.457 121.969 113.592 122.48 113.618 123.061C113.626 123.2 113.631 123.386 113.631 123.62C113.631 123.845 113.626 124.032 113.618 124.179C113.592 124.751 113.462 125.262 113.228 125.713C112.994 126.155 112.656 126.502 112.214 126.753C111.772 127.004 111.221 127.13 110.563 127.13ZM110.563 126.129C111.1 126.129 111.529 125.96 111.85 125.622C112.17 125.275 112.344 124.773 112.37 124.114C112.378 123.984 112.383 123.819 112.383 123.62C112.383 123.421 112.378 123.256 112.37 123.126C112.344 122.467 112.17 121.969 111.85 121.631C111.529 121.284 111.1 121.111 110.563 121.111C110.025 121.111 109.592 121.284 109.263 121.631C108.942 121.969 108.773 122.467 108.756 123.126C108.747 123.256 108.743 123.421 108.743 123.62C108.743 123.819 108.747 123.984 108.756 124.114C108.773 124.773 108.942 125.275 109.263 125.622C109.592 125.96 110.025 126.129 110.563 126.129ZM115.57 127C115.484 127 115.41 126.974 115.349 126.922C115.297 126.861 115.271 126.788 115.271 126.701V118.069C115.271 117.982 115.297 117.913 115.349 117.861C115.41 117.8 115.484 117.77 115.57 117.77H116.181C116.277 117.77 116.35 117.8 116.402 117.861C116.454 117.913 116.48 117.982 116.48 118.069V126.701C116.48 126.788 116.454 126.861 116.402 126.922C116.35 126.974 116.277 127 116.181 127H115.57ZM121.189 127.13C120.53 127.13 119.98 127.004 119.538 126.753C119.096 126.502 118.758 126.155 118.524 125.713C118.29 125.262 118.16 124.751 118.134 124.179C118.125 124.032 118.121 123.845 118.121 123.62C118.121 123.386 118.125 123.2 118.134 123.061C118.16 122.48 118.29 121.969 118.524 121.527C118.766 121.085 119.109 120.738 119.551 120.487C119.993 120.236 120.539 120.11 121.189 120.11C121.839 120.11 122.385 120.236 122.827 120.487C123.269 120.738 123.607 121.085 123.841 121.527C124.083 121.969 124.218 122.48 124.244 123.061C124.252 123.2 124.257 123.386 124.257 123.62C124.257 123.845 124.252 124.032 124.244 124.179C124.218 124.751 124.088 125.262 123.854 125.713C123.62 126.155 123.282 126.502 122.84 126.753C122.398 127.004 121.847 127.13 121.189 127.13ZM121.189 126.129C121.726 126.129 122.155 125.96 122.476 125.622C122.796 125.275 122.97 124.773 122.996 124.114C123.004 123.984 123.009 123.819 123.009 123.62C123.009 123.421 123.004 123.256 122.996 123.126C122.97 122.467 122.796 121.969 122.476 121.631C122.155 121.284 121.726 121.111 121.189 121.111C120.651 121.111 120.218 121.284 119.889 121.631C119.568 121.969 119.399 122.467 119.382 123.126C119.373 123.256 119.369 123.421 119.369 123.62C119.369 123.819 119.373 123.984 119.382 124.114C119.399 124.773 119.568 125.275 119.889 125.622C120.218 125.96 120.651 126.129 121.189 126.129ZM128.653 129.86C128.064 129.86 127.579 129.782 127.197 129.626C126.825 129.47 126.53 129.279 126.313 129.054C126.105 128.837 125.954 128.616 125.858 128.391C125.772 128.174 125.724 128.001 125.715 127.871C125.707 127.784 125.733 127.711 125.793 127.65C125.863 127.589 125.936 127.559 126.014 127.559H126.638C126.716 127.559 126.781 127.576 126.833 127.611C126.885 127.646 126.929 127.719 126.963 127.832C127.015 127.962 127.093 128.105 127.197 128.261C127.301 128.426 127.462 128.564 127.678 128.677C127.895 128.798 128.198 128.859 128.588 128.859C128.996 128.859 129.338 128.803 129.615 128.69C129.893 128.586 130.101 128.395 130.239 128.118C130.387 127.849 130.46 127.477 130.46 127V126.116C130.252 126.385 129.979 126.61 129.641 126.792C129.303 126.965 128.879 127.052 128.367 127.052C127.882 127.052 127.466 126.97 127.119 126.805C126.773 126.632 126.487 126.402 126.261 126.116C126.045 125.821 125.88 125.488 125.767 125.115C125.663 124.742 125.603 124.352 125.585 123.945C125.577 123.702 125.577 123.464 125.585 123.23C125.603 122.823 125.663 122.433 125.767 122.06C125.88 121.687 126.045 121.354 126.261 121.059C126.487 120.764 126.773 120.535 127.119 120.37C127.466 120.197 127.882 120.11 128.367 120.11C128.887 120.11 129.316 120.21 129.654 120.409C130.001 120.6 130.283 120.834 130.499 121.111V120.552C130.499 120.465 130.525 120.392 130.577 120.331C130.638 120.27 130.712 120.24 130.798 120.24H131.396C131.483 120.24 131.557 120.27 131.617 120.331C131.678 120.392 131.708 120.465 131.708 120.552V126.857C131.708 127.438 131.609 127.953 131.409 128.404C131.219 128.855 130.898 129.21 130.447 129.47C130.005 129.73 129.407 129.86 128.653 129.86ZM128.627 126.012C129.061 126.012 129.407 125.912 129.667 125.713C129.936 125.514 130.131 125.262 130.252 124.959C130.382 124.656 130.452 124.348 130.46 124.036C130.469 123.915 130.473 123.767 130.473 123.594C130.473 123.412 130.469 123.26 130.46 123.139C130.452 122.827 130.382 122.519 130.252 122.216C130.131 121.913 129.936 121.661 129.667 121.462C129.407 121.263 129.061 121.163 128.627 121.163C128.194 121.163 127.847 121.263 127.587 121.462C127.327 121.653 127.141 121.908 127.028 122.229C126.916 122.541 126.851 122.879 126.833 123.243C126.825 123.468 126.825 123.698 126.833 123.932C126.851 124.296 126.916 124.638 127.028 124.959C127.141 125.271 127.327 125.527 127.587 125.726C127.847 125.917 128.194 126.012 128.627 126.012ZM133.94 127C133.854 127 133.78 126.974 133.719 126.922C133.667 126.861 133.641 126.788 133.641 126.701V120.539C133.641 120.452 133.667 120.383 133.719 120.331C133.78 120.27 133.854 120.24 133.94 120.24H134.564C134.651 120.24 134.72 120.27 134.772 120.331C134.824 120.383 134.85 120.452 134.85 120.539V126.701C134.85 126.788 134.824 126.861 134.772 126.922C134.72 126.974 134.651 127 134.564 127H133.94ZM133.901 119.265C133.763 119.265 133.693 119.196 133.693 119.057C133.693 118.988 133.715 118.931 133.758 118.888L134.733 117.718C134.811 117.623 134.881 117.562 134.941 117.536C135.002 117.501 135.093 117.484 135.214 117.484H136.098C136.263 117.484 136.345 117.566 136.345 117.731C136.345 117.792 136.324 117.844 136.28 117.887L134.772 119.122C134.703 119.183 134.638 119.222 134.577 119.239C134.517 119.256 134.439 119.265 134.343 119.265H133.901ZM138.675 127.13C138.241 127.13 137.847 127.043 137.492 126.87C137.136 126.697 136.85 126.463 136.634 126.168C136.417 125.873 136.309 125.54 136.309 125.167C136.309 124.569 136.551 124.092 137.037 123.737C137.522 123.382 138.155 123.148 138.935 123.035L140.872 122.762V122.385C140.872 121.969 140.75 121.644 140.508 121.41C140.274 121.176 139.888 121.059 139.351 121.059C138.961 121.059 138.644 121.137 138.402 121.293C138.168 121.449 138.003 121.648 137.908 121.891C137.856 122.021 137.765 122.086 137.635 122.086H137.05C136.954 122.086 136.881 122.06 136.829 122.008C136.785 121.947 136.764 121.878 136.764 121.8C136.764 121.67 136.811 121.51 136.907 121.319C137.011 121.128 137.167 120.942 137.375 120.76C137.583 120.578 137.847 120.426 138.168 120.305C138.497 120.175 138.896 120.11 139.364 120.11C139.884 120.11 140.321 120.179 140.677 120.318C141.032 120.448 141.309 120.626 141.509 120.851C141.717 121.076 141.864 121.332 141.951 121.618C142.046 121.904 142.094 122.194 142.094 122.489V126.701C142.094 126.788 142.063 126.861 142.003 126.922C141.951 126.974 141.881 127 141.795 127H141.197C141.101 127 141.028 126.974 140.976 126.922C140.924 126.861 140.898 126.788 140.898 126.701V126.142C140.785 126.298 140.633 126.454 140.443 126.61C140.252 126.757 140.014 126.883 139.728 126.987C139.442 127.082 139.091 127.13 138.675 127.13ZM138.948 126.155C139.303 126.155 139.628 126.081 139.923 125.934C140.217 125.778 140.447 125.54 140.612 125.219C140.785 124.898 140.872 124.495 140.872 124.01V123.646L139.364 123.867C138.748 123.954 138.285 124.101 137.973 124.309C137.661 124.508 137.505 124.764 137.505 125.076C137.505 125.319 137.574 125.522 137.713 125.687C137.86 125.843 138.042 125.96 138.259 126.038C138.484 126.116 138.714 126.155 138.948 126.155Z" fill="#EBECEE"/>
<rect x="100.5" y="134" width="37" height="25" rx="12.5" fill="#1DA534"/>
<path d="M113.342 151.14C112.67 151.14 112.086 151.047 111.592 150.86C111.097 150.664 110.686 150.398 110.36 150.062C110.042 149.726 109.8 149.334 109.632 148.886C109.464 148.438 109.366 147.957 109.338 147.444C109.328 147.192 109.319 146.907 109.31 146.59C109.31 146.263 109.31 145.937 109.31 145.61C109.319 145.274 109.328 144.975 109.338 144.714C109.366 144.201 109.464 143.725 109.632 143.286C109.809 142.838 110.061 142.451 110.388 142.124C110.724 141.788 111.134 141.527 111.62 141.34C112.114 141.153 112.688 141.06 113.342 141.06C114.004 141.06 114.578 141.153 115.064 141.34C115.549 141.527 115.955 141.788 116.282 142.124C116.618 142.451 116.874 142.838 117.052 143.286C117.229 143.725 117.327 144.201 117.346 144.714C117.364 144.975 117.374 145.274 117.374 145.61C117.383 145.937 117.383 146.263 117.374 146.59C117.374 146.907 117.364 147.192 117.346 147.444C117.327 147.957 117.229 148.438 117.052 148.886C116.884 149.334 116.636 149.726 116.31 150.062C115.992 150.398 115.586 150.664 115.092 150.86C114.606 151.047 114.023 151.14 113.342 151.14ZM113.342 149.11C113.827 149.11 114.177 148.956 114.392 148.648C114.616 148.331 114.732 147.906 114.742 147.374C114.76 147.103 114.77 146.819 114.77 146.52C114.779 146.221 114.779 145.923 114.77 145.624C114.77 145.325 114.76 145.05 114.742 144.798C114.732 144.285 114.616 143.869 114.392 143.552C114.177 143.235 113.827 143.071 113.342 143.062C112.856 143.071 112.506 143.235 112.292 143.552C112.077 143.869 111.96 144.285 111.942 144.798C111.932 145.05 111.923 145.325 111.914 145.624C111.914 145.923 111.914 146.221 111.914 146.52C111.923 146.819 111.932 147.103 111.942 147.374C111.96 147.906 112.082 148.331 112.306 148.648C112.53 148.956 112.875 149.11 113.342 149.11ZM119.679 151C119.465 151 119.357 150.907 119.357 150.72C119.357 150.664 119.376 150.613 119.413 150.566L126.329 141.466C126.395 141.382 126.46 141.317 126.525 141.27C126.591 141.223 126.689 141.2 126.819 141.2H127.813C128.028 141.2 128.135 141.293 128.135 141.48C128.135 141.536 128.117 141.587 128.079 141.634L121.163 150.734C121.098 150.818 121.033 150.883 120.967 150.93C120.902 150.977 120.804 151 120.673 151H119.679ZM126.721 151.07C126.087 151.07 125.578 150.902 125.195 150.566C124.822 150.23 124.612 149.782 124.565 149.222C124.556 148.979 124.551 148.765 124.551 148.578C124.551 148.391 124.556 148.167 124.565 147.906C124.603 147.337 124.803 146.884 125.167 146.548C125.541 146.203 126.059 146.03 126.721 146.03C127.393 146.03 127.911 146.203 128.275 146.548C128.639 146.884 128.84 147.337 128.877 147.906C128.896 148.167 128.905 148.391 128.905 148.578C128.905 148.765 128.896 148.979 128.877 149.222C128.84 149.782 128.63 150.23 128.247 150.566C127.865 150.902 127.356 151.07 126.721 151.07ZM126.721 149.838C126.88 149.838 127.001 149.805 127.085 149.74C127.179 149.675 127.249 149.591 127.295 149.488C127.342 149.376 127.365 149.259 127.365 149.138C127.384 148.923 127.393 148.727 127.393 148.55C127.393 148.373 127.384 148.181 127.365 147.976C127.356 147.799 127.305 147.64 127.211 147.5C127.118 147.351 126.955 147.276 126.721 147.276C126.488 147.276 126.325 147.351 126.231 147.5C126.138 147.64 126.087 147.799 126.077 147.976C126.068 148.181 126.063 148.373 126.063 148.55C126.063 148.727 126.068 148.923 126.077 149.138C126.087 149.259 126.11 149.376 126.147 149.488C126.194 149.591 126.264 149.675 126.357 149.74C126.451 149.805 126.572 149.838 126.721 149.838ZM120.799 146.142C120.155 146.142 119.642 145.979 119.259 145.652C118.886 145.316 118.681 144.868 118.643 144.308C118.625 144.065 118.615 143.855 118.615 143.678C118.625 143.491 118.634 143.267 118.643 143.006C118.671 142.437 118.867 141.984 119.231 141.648C119.605 141.303 120.127 141.13 120.799 141.13C121.471 141.13 121.989 141.303 122.353 141.648C122.717 141.984 122.913 142.437 122.941 143.006C122.96 143.267 122.969 143.491 122.969 143.678C122.969 143.855 122.96 144.065 122.941 144.308C122.913 144.868 122.708 145.316 122.325 145.652C121.943 145.979 121.434 146.142 120.799 146.142ZM120.799 144.938C120.949 144.938 121.07 144.905 121.163 144.84C121.257 144.765 121.327 144.677 121.373 144.574C121.42 144.462 121.443 144.35 121.443 144.238C121.462 144.023 121.471 143.827 121.471 143.65C121.471 143.473 121.462 143.281 121.443 143.076C121.434 142.899 121.378 142.74 121.275 142.6C121.182 142.451 121.023 142.376 120.799 142.376C120.566 142.376 120.398 142.451 120.295 142.6C120.202 142.74 120.151 142.899 120.141 143.076C120.132 143.281 120.127 143.473 120.127 143.65C120.127 143.827 120.132 144.023 120.141 144.238C120.151 144.35 120.174 144.462 120.211 144.574C120.258 144.677 120.328 144.765 120.421 144.84C120.515 144.905 120.641 144.938 120.799 144.938Z" fill="#EBECEE"/>
<g filter="url(#filter1_d_15958_23134)">
<rect x="148" y="74" width="32" height="32" rx="16" fill="white"/>
<rect x="147" y="73" width="34" height="34" rx="17" stroke="#1DA534" stroke-width="2"/>
<path opacity="0.4" d="M164 100C169.523 100 174 95.5228 174 90C174 84.4772 169.523 80 164 80C158.477 80 154 84.4772 154 90C154 95.5228 158.477 100 164 100Z" fill="#1DA534"/>
<path d="M162.579 93.5801C162.379 93.5801 162.189 93.5001 162.049 93.3601L159.219 90.5301C158.929 90.2401 158.929 89.7601 159.219 89.4701C159.509 89.1801 159.989 89.1801 160.279 89.4701L162.579 91.7701L167.719 86.6301C168.009 86.3401 168.489 86.3401 168.779 86.6301C169.069 86.9201 169.069 87.4001 168.779 87.6901L163.109 93.3601C162.969 93.5001 162.779 93.5801 162.579 93.5801Z" fill="#1DA534"/>
</g>
</g>
<defs>
<filter id="filter0_d_15958_23134" x="0" y="0" width="242" height="238" filterUnits="userSpaceOnUse" color-interpolation-filters="sRGB">
<feFlood flood-opacity="0" result="BackgroundImageFix"/>
<feColorMatrix in="SourceAlpha" type="matrix" values="0 0 0 0 0 0 0 0 0 0 0 0 0 0 0 0 0 0 127 0" result="hardAlpha"/>
<feOffset/>
<feGaussianBlur stdDeviation="30"/>
<feComposite in2="hardAlpha" operator="out"/>
<feColorMatrix type="matrix" values="0 0 0 0 0.121569 0 0 0 0 0.647059 0 0 0 0 0.207843 0 0 0 1 0"/>
<feBlend mode="normal" in2="BackgroundImageFix" result="effect1_dropShadow_15958_23134"/>
<feBlend mode="normal" in="SourceGraphic" in2="effect1_dropShadow_15958_23134" result="shape"/>
</filter>
<filter id="filter1_d_15958_23134" x="131" y="65" width="66" height="66" filterUnits="userSpaceOnUse" color-interpolation-filters="sRGB">
<feFlood flood-opacity="0" result="BackgroundImageFix"/>
<feColorMatrix in="SourceAlpha" type="matrix" values="0 0 0 0 0 0 0 0 0 0 0 0 0 0 0 0 0 0 127 0" result="hardAlpha"/>
<feOffset dy="8"/>
<feGaussianBlur stdDeviation="7.5"/>
<feColorMatrix type="matrix" values="0 0 0 0 0 0 0 0 0 0 0 0 0 0 0 0 0 0 0.25 0"/>
<feBlend mode="normal" in2="BackgroundImageFix" result="effect1_dropShadow_15958_23134"/>
<feBlend mode="normal" in="SourceGraphic" in2="effect1_dropShadow_15958_23134" result="shape"/>
</filter>
<clipPath id="clip0_15958_23134">
<rect width="32" height="32" fill="white" transform="translate(103 79)"/>
</clipPath>
</defs>
</svg>
