<svg width="242" height="238" viewBox="0 0 242 238" fill="none" xmlns="http://www.w3.org/2000/svg">
<g filter="url(#filter0_d_15958_23152)">
<rect x="64" y="64" width="110" height="110" rx="55" fill="#2D68F8" fill-opacity="0.15" shape-rendering="crispEdges"/>
<rect x="62" y="62" width="114" height="114" rx="57" stroke="#2D68F8" stroke-width="4" shape-rendering="crispEdges"/>
<g clip-path="url(#clip0_15958_23152)">
<mask id="mask0_15958_23152" style="mask-type:luminance" maskUnits="userSpaceOnUse" x="103" y="71" width="32" height="33">
<path d="M135 71.5H103V103.5H135V71.5Z" fill="white"/>
</mask>
<g mask="url(#mask0_15958_23152)">
<path opacity="0.4" d="M132.333 83.0865C132.306 92.4199 123.679 97.8999 119.826 99.2332C119.386 99.3799 118.639 99.3799 118.173 99.2332C115.133 98.2199 109.119 94.5665 106.706 88.4999C106.453 87.8732 106.239 87.2065 106.066 86.5132C105.813 85.4332 105.666 84.2998 105.666 83.0865C105.666 78.9665 108.986 75.6465 113.079 75.6465C115.506 75.6465 117.639 76.8332 118.999 78.6465C120.333 76.8332 122.493 75.6465 124.919 75.6465C129.013 75.6465 132.333 78.9665 132.333 83.0865Z" fill="#2D68F8"/>
<path d="M125.666 86.5H123.413C122.786 86.5 122.226 86.8466 121.92 87.42L120.333 90.5933L116.466 82.8599C116.186 82.2999 115.626 81.9533 115 81.9399C114.986 81.9399 114.986 81.9399 114.973 81.9399C114.36 81.9399 113.786 82.2866 113.506 82.8199L111.52 86.5L106.066 86.5133C106.24 87.2066 106.453 87.8733 106.706 88.5H111.72C112.36 88.5 112.92 88.1533 113.186 87.6333L114.96 84.3399L118.84 92.0866C119.12 92.66 119.68 93.02 120.333 93.02C120.973 93.02 121.533 92.66 121.813 92.1L123.613 88.5H125.666C126.213 88.5 126.666 88.0466 126.666 87.5C126.666 86.9533 126.213 86.5 125.666 86.5Z" fill="#2D68F8"/>
</g>
</g>
<path d="M88.7678 119.63C87.9705 119.63 87.3075 119.483 86.7788 119.188C86.2588 118.893 85.8645 118.482 85.5958 117.953C85.3272 117.424 85.1798 116.809 85.1538 116.107C85.1452 115.752 85.1408 115.37 85.1408 114.963C85.1408 114.556 85.1452 114.166 85.1538 113.793C85.1798 113.091 85.3272 112.476 85.5958 111.947C85.8645 111.418 86.2588 111.007 86.7788 110.712C87.3075 110.417 87.9705 110.27 88.7678 110.27C89.3658 110.27 89.8902 110.352 90.3408 110.517C90.7915 110.682 91.1642 110.903 91.4588 111.18C91.7622 111.457 91.9918 111.769 92.1478 112.116C92.3038 112.454 92.3905 112.805 92.4078 113.169C92.4165 113.247 92.3905 113.312 92.3298 113.364C92.2778 113.416 92.2128 113.442 92.1348 113.442H91.4198C91.3418 113.442 91.2725 113.42 91.2118 113.377C91.1598 113.334 91.1208 113.256 91.0948 113.143C90.9475 112.467 90.6702 112.003 90.2628 111.752C89.8642 111.501 89.3615 111.375 88.7548 111.375C88.0615 111.375 87.5112 111.574 87.1038 111.973C86.6965 112.363 86.4755 112.991 86.4408 113.858C86.4148 114.569 86.4148 115.297 86.4408 116.042C86.4755 116.909 86.6965 117.541 87.1038 117.94C87.5112 118.33 88.0615 118.525 88.7548 118.525C89.3615 118.525 89.8642 118.399 90.2628 118.148C90.6702 117.897 90.9475 117.433 91.0948 116.757C91.1208 116.644 91.1598 116.566 91.2118 116.523C91.2725 116.48 91.3418 116.458 91.4198 116.458H92.1348C92.2128 116.458 92.2778 116.484 92.3298 116.536C92.3905 116.588 92.4165 116.653 92.4078 116.731C92.3905 117.095 92.3038 117.45 92.1478 117.797C91.9918 118.135 91.7622 118.443 91.4588 118.72C91.1642 118.997 90.7915 119.218 90.3408 119.383C89.8902 119.548 89.3658 119.63 88.7678 119.63ZM94.28 119.5C94.1934 119.5 94.1197 119.474 94.059 119.422C94.007 119.361 93.981 119.288 93.981 119.201V113.039C93.981 112.952 94.007 112.883 94.059 112.831C94.1197 112.77 94.1934 112.74 94.28 112.74H94.904C94.9907 112.74 95.06 112.77 95.112 112.831C95.164 112.883 95.19 112.952 95.19 113.039V119.201C95.19 119.288 95.164 119.361 95.112 119.422C95.06 119.474 94.9907 119.5 94.904 119.5H94.28ZM94.176 111.479C94.0894 111.479 94.0157 111.453 93.955 111.401C93.903 111.34 93.877 111.267 93.877 111.18V110.478C93.877 110.391 93.903 110.322 93.955 110.27C94.0157 110.209 94.0894 110.179 94.176 110.179H94.995C95.0817 110.179 95.151 110.209 95.203 110.27C95.2637 110.322 95.294 110.391 95.294 110.478V111.18C95.294 111.267 95.2637 111.34 95.203 111.401C95.151 111.453 95.0817 111.479 94.995 111.479H94.176ZM99.8205 119.63C98.9278 119.63 98.2171 119.357 97.6885 118.811C97.1598 118.256 96.8695 117.502 96.8175 116.549C96.8088 116.436 96.8045 116.293 96.8045 116.12C96.8045 115.938 96.8088 115.791 96.8175 115.678C96.8521 115.063 96.9951 114.525 97.2465 114.066C97.4978 113.598 97.8401 113.238 98.2735 112.987C98.7155 112.736 99.2311 112.61 99.8205 112.61C100.479 112.61 101.029 112.749 101.471 113.026C101.922 113.303 102.264 113.698 102.498 114.209C102.732 114.72 102.849 115.318 102.849 116.003V116.224C102.849 116.319 102.819 116.393 102.758 116.445C102.706 116.497 102.637 116.523 102.55 116.523H98.0525C98.0525 116.532 98.0525 116.549 98.0525 116.575C98.0525 116.601 98.0525 116.623 98.0525 116.64C98.0698 116.995 98.1478 117.329 98.2865 117.641C98.4251 117.944 98.6245 118.191 98.8845 118.382C99.1445 118.573 99.4565 118.668 99.8205 118.668C100.132 118.668 100.392 118.62 100.6 118.525C100.808 118.43 100.977 118.326 101.107 118.213C101.237 118.092 101.324 118.001 101.367 117.94C101.445 117.827 101.506 117.762 101.549 117.745C101.593 117.719 101.662 117.706 101.757 117.706H102.381C102.468 117.706 102.537 117.732 102.589 117.784C102.65 117.827 102.676 117.892 102.667 117.979C102.659 118.109 102.589 118.269 102.459 118.46C102.329 118.642 102.143 118.824 101.9 119.006C101.658 119.188 101.363 119.34 101.016 119.461C100.67 119.574 100.271 119.63 99.8205 119.63ZM98.0525 115.626H101.614V115.587C101.614 115.197 101.541 114.85 101.393 114.547C101.255 114.244 101.051 114.005 100.782 113.832C100.514 113.65 100.193 113.559 99.8205 113.559C99.4478 113.559 99.1271 113.65 98.8585 113.832C98.5985 114.005 98.3991 114.244 98.2605 114.547C98.1218 114.85 98.0525 115.197 98.0525 115.587V115.626ZM104.703 119.5C104.616 119.5 104.543 119.474 104.482 119.422C104.43 119.361 104.404 119.288 104.404 119.201V113.039C104.404 112.952 104.43 112.883 104.482 112.831C104.543 112.77 104.616 112.74 104.703 112.74H105.314C105.401 112.74 105.47 112.77 105.522 112.831C105.583 112.883 105.613 112.952 105.613 113.039V113.611C105.838 113.316 106.12 113.078 106.458 112.896C106.805 112.705 107.247 112.61 107.784 112.61C108.347 112.61 108.824 112.736 109.214 112.987C109.613 113.23 109.912 113.572 110.111 114.014C110.31 114.447 110.41 114.954 110.41 115.535V119.201C110.41 119.288 110.384 119.361 110.332 119.422C110.28 119.474 110.211 119.5 110.124 119.5H109.474C109.387 119.5 109.314 119.474 109.253 119.422C109.201 119.361 109.175 119.288 109.175 119.201V115.6C109.175 114.993 109.028 114.521 108.733 114.183C108.438 113.836 108.005 113.663 107.433 113.663C106.896 113.663 106.462 113.836 106.133 114.183C105.812 114.521 105.652 114.993 105.652 115.6V119.201C105.652 119.288 105.622 119.361 105.561 119.422C105.509 119.474 105.44 119.5 105.353 119.5H104.703ZM115.018 119.63C114.402 119.63 113.869 119.513 113.419 119.279C112.977 119.036 112.634 118.694 112.392 118.252C112.149 117.801 112.019 117.264 112.002 116.64C111.993 116.51 111.989 116.337 111.989 116.12C111.989 115.903 111.993 115.73 112.002 115.6C112.019 114.976 112.149 114.443 112.392 114.001C112.634 113.55 112.977 113.208 113.419 112.974C113.869 112.731 114.402 112.61 115.018 112.61C115.52 112.61 115.949 112.679 116.305 112.818C116.669 112.957 116.968 113.134 117.202 113.351C117.436 113.568 117.609 113.802 117.722 114.053C117.843 114.304 117.908 114.543 117.917 114.768C117.925 114.855 117.899 114.924 117.839 114.976C117.778 115.028 117.704 115.054 117.618 115.054H116.994C116.907 115.054 116.842 115.037 116.799 115.002C116.755 114.959 116.712 114.889 116.669 114.794C116.513 114.369 116.3 114.07 116.032 113.897C115.763 113.724 115.429 113.637 115.031 113.637C114.511 113.637 114.086 113.797 113.757 114.118C113.436 114.439 113.263 114.954 113.237 115.665C113.228 115.977 113.228 116.28 113.237 116.575C113.263 117.294 113.436 117.814 113.757 118.135C114.086 118.447 114.511 118.603 115.031 118.603C115.429 118.603 115.763 118.516 116.032 118.343C116.3 118.17 116.513 117.871 116.669 117.446C116.712 117.351 116.755 117.286 116.799 117.251C116.842 117.208 116.907 117.186 116.994 117.186H117.618C117.704 117.186 117.778 117.212 117.839 117.264C117.899 117.316 117.925 117.385 117.917 117.472C117.908 117.654 117.869 117.84 117.8 118.031C117.73 118.222 117.618 118.417 117.462 118.616C117.314 118.807 117.128 118.98 116.903 119.136C116.677 119.283 116.404 119.405 116.084 119.5C115.772 119.587 115.416 119.63 115.018 119.63ZM119.76 119.5C119.673 119.5 119.599 119.474 119.539 119.422C119.487 119.361 119.461 119.288 119.461 119.201V113.039C119.461 112.952 119.487 112.883 119.539 112.831C119.599 112.77 119.673 112.74 119.76 112.74H120.384C120.47 112.74 120.54 112.77 120.592 112.831C120.644 112.883 120.67 112.952 120.67 113.039V119.201C120.67 119.288 120.644 119.361 120.592 119.422C120.54 119.474 120.47 119.5 120.384 119.5H119.76ZM119.656 111.479C119.569 111.479 119.495 111.453 119.435 111.401C119.383 111.34 119.357 111.267 119.357 111.18V110.478C119.357 110.391 119.383 110.322 119.435 110.27C119.495 110.209 119.569 110.179 119.656 110.179H120.475C120.561 110.179 120.631 110.209 120.683 110.27C120.743 110.322 120.774 110.391 120.774 110.478V111.18C120.774 111.267 120.743 111.34 120.683 111.401C120.631 111.453 120.561 111.479 120.475 111.479H119.656ZM124.494 119.63C124.061 119.63 123.666 119.543 123.311 119.37C122.956 119.197 122.67 118.963 122.453 118.668C122.236 118.373 122.128 118.04 122.128 117.667C122.128 117.069 122.371 116.592 122.856 116.237C123.341 115.882 123.974 115.648 124.754 115.535L126.691 115.262V114.885C126.691 114.469 126.57 114.144 126.327 113.91C126.093 113.676 125.707 113.559 125.17 113.559C124.78 113.559 124.464 113.637 124.221 113.793C123.987 113.949 123.822 114.148 123.727 114.391C123.675 114.521 123.584 114.586 123.454 114.586H122.869C122.774 114.586 122.7 114.56 122.648 114.508C122.605 114.447 122.583 114.378 122.583 114.3C122.583 114.17 122.631 114.01 122.726 113.819C122.83 113.628 122.986 113.442 123.194 113.26C123.402 113.078 123.666 112.926 123.987 112.805C124.316 112.675 124.715 112.61 125.183 112.61C125.703 112.61 126.141 112.679 126.496 112.818C126.851 112.948 127.129 113.126 127.328 113.351C127.536 113.576 127.683 113.832 127.77 114.118C127.865 114.404 127.913 114.694 127.913 114.989V119.201C127.913 119.288 127.883 119.361 127.822 119.422C127.77 119.474 127.701 119.5 127.614 119.5H127.016C126.921 119.5 126.847 119.474 126.795 119.422C126.743 119.361 126.717 119.288 126.717 119.201V118.642C126.604 118.798 126.453 118.954 126.262 119.11C126.071 119.257 125.833 119.383 125.547 119.487C125.261 119.582 124.91 119.63 124.494 119.63ZM124.767 118.655C125.122 118.655 125.447 118.581 125.742 118.434C126.037 118.278 126.266 118.04 126.431 117.719C126.604 117.398 126.691 116.995 126.691 116.51V116.146L125.183 116.367C124.568 116.454 124.104 116.601 123.792 116.809C123.48 117.008 123.324 117.264 123.324 117.576C123.324 117.819 123.393 118.022 123.532 118.187C123.679 118.343 123.861 118.46 124.078 118.538C124.303 118.616 124.533 118.655 124.767 118.655ZM132.122 119.63C131.636 119.63 131.22 119.569 130.874 119.448C130.527 119.327 130.245 119.179 130.029 119.006C129.812 118.833 129.647 118.659 129.535 118.486C129.431 118.313 129.374 118.174 129.366 118.07C129.357 117.975 129.387 117.901 129.457 117.849C129.526 117.797 129.595 117.771 129.665 117.771H130.237C130.289 117.771 130.328 117.78 130.354 117.797C130.388 117.806 130.432 117.84 130.484 117.901C130.596 118.022 130.722 118.144 130.861 118.265C130.999 118.386 131.168 118.486 131.368 118.564C131.576 118.642 131.831 118.681 132.135 118.681C132.577 118.681 132.941 118.599 133.227 118.434C133.513 118.261 133.656 118.009 133.656 117.68C133.656 117.463 133.595 117.29 133.474 117.16C133.361 117.03 133.153 116.913 132.85 116.809C132.555 116.705 132.148 116.597 131.628 116.484C131.108 116.363 130.696 116.215 130.393 116.042C130.089 115.86 129.873 115.648 129.743 115.405C129.613 115.154 129.548 114.872 129.548 114.56C129.548 114.239 129.643 113.932 129.834 113.637C130.024 113.334 130.302 113.087 130.666 112.896C131.038 112.705 131.502 112.61 132.057 112.61C132.507 112.61 132.893 112.666 133.214 112.779C133.534 112.892 133.799 113.035 134.007 113.208C134.215 113.373 134.371 113.537 134.475 113.702C134.579 113.867 134.635 114.005 134.644 114.118C134.652 114.205 134.626 114.278 134.566 114.339C134.505 114.391 134.436 114.417 134.358 114.417H133.812C133.751 114.417 133.699 114.404 133.656 114.378C133.621 114.352 133.586 114.322 133.552 114.287C133.465 114.174 133.361 114.062 133.24 113.949C133.127 113.836 132.975 113.745 132.785 113.676C132.603 113.598 132.36 113.559 132.057 113.559C131.623 113.559 131.298 113.65 131.082 113.832C130.865 114.014 130.757 114.244 130.757 114.521C130.757 114.686 130.804 114.833 130.9 114.963C130.995 115.093 131.177 115.21 131.446 115.314C131.714 115.418 132.113 115.531 132.642 115.652C133.214 115.765 133.664 115.916 133.994 116.107C134.323 116.298 134.557 116.519 134.696 116.77C134.834 117.021 134.904 117.312 134.904 117.641C134.904 118.005 134.795 118.339 134.579 118.642C134.371 118.945 134.059 119.188 133.643 119.37C133.235 119.543 132.728 119.63 132.122 119.63ZM142.065 119.63C141.589 119.63 141.177 119.548 140.83 119.383C140.484 119.21 140.198 118.98 139.972 118.694C139.756 118.399 139.591 118.066 139.478 117.693C139.374 117.32 139.314 116.926 139.296 116.51C139.288 116.371 139.283 116.241 139.283 116.12C139.283 115.999 139.288 115.869 139.296 115.73C139.314 115.323 139.374 114.933 139.478 114.56C139.591 114.187 139.756 113.854 139.972 113.559C140.198 113.264 140.484 113.035 140.83 112.87C141.177 112.697 141.589 112.61 142.065 112.61C142.577 112.61 143.001 112.701 143.339 112.883C143.677 113.065 143.955 113.29 144.171 113.559V110.569C144.171 110.482 144.197 110.413 144.249 110.361C144.31 110.3 144.384 110.27 144.47 110.27H145.094C145.181 110.27 145.25 110.3 145.302 110.361C145.363 110.413 145.393 110.482 145.393 110.569V119.201C145.393 119.288 145.363 119.361 145.302 119.422C145.25 119.474 145.181 119.5 145.094 119.5H144.509C144.414 119.5 144.34 119.474 144.288 119.422C144.236 119.361 144.21 119.288 144.21 119.201V118.655C143.994 118.932 143.712 119.166 143.365 119.357C143.019 119.539 142.585 119.63 142.065 119.63ZM142.338 118.577C142.772 118.577 143.118 118.477 143.378 118.278C143.638 118.079 143.833 117.827 143.963 117.524C144.093 117.212 144.163 116.896 144.171 116.575C144.18 116.436 144.184 116.272 144.184 116.081C144.184 115.882 144.18 115.713 144.171 115.574C144.163 115.271 144.089 114.972 143.95 114.677C143.82 114.382 143.621 114.14 143.352 113.949C143.092 113.758 142.754 113.663 142.338 113.663C141.896 113.663 141.545 113.763 141.285 113.962C141.025 114.153 140.839 114.408 140.726 114.729C140.614 115.041 140.549 115.379 140.531 115.743C140.523 115.994 140.523 116.246 140.531 116.497C140.549 116.861 140.614 117.203 140.726 117.524C140.839 117.836 141.025 118.092 141.285 118.291C141.545 118.482 141.896 118.577 142.338 118.577ZM150.018 119.63C149.125 119.63 148.414 119.357 147.886 118.811C147.357 118.256 147.067 117.502 147.015 116.549C147.006 116.436 147.002 116.293 147.002 116.12C147.002 115.938 147.006 115.791 147.015 115.678C147.049 115.063 147.192 114.525 147.444 114.066C147.695 113.598 148.037 113.238 148.471 112.987C148.913 112.736 149.428 112.61 150.018 112.61C150.676 112.61 151.227 112.749 151.669 113.026C152.119 113.303 152.462 113.698 152.696 114.209C152.93 114.72 153.047 115.318 153.047 116.003V116.224C153.047 116.319 153.016 116.393 152.956 116.445C152.904 116.497 152.834 116.523 152.748 116.523H148.25C148.25 116.532 148.25 116.549 148.25 116.575C148.25 116.601 148.25 116.623 148.25 116.64C148.267 116.995 148.345 117.329 148.484 117.641C148.622 117.944 148.822 118.191 149.082 118.382C149.342 118.573 149.654 118.668 150.018 118.668C150.33 118.668 150.59 118.62 150.798 118.525C151.006 118.43 151.175 118.326 151.305 118.213C151.435 118.092 151.521 118.001 151.565 117.94C151.643 117.827 151.703 117.762 151.747 117.745C151.79 117.719 151.859 117.706 151.955 117.706H152.579C152.665 117.706 152.735 117.732 152.787 117.784C152.847 117.827 152.873 117.892 152.865 117.979C152.856 118.109 152.787 118.269 152.657 118.46C152.527 118.642 152.34 118.824 152.098 119.006C151.855 119.188 151.56 119.34 151.214 119.461C150.867 119.574 150.468 119.63 150.018 119.63ZM148.25 115.626H151.812V115.587C151.812 115.197 151.738 114.85 151.591 114.547C151.452 114.244 151.248 114.005 150.98 113.832C150.711 113.65 150.39 113.559 150.018 113.559C149.645 113.559 149.324 113.65 149.056 113.832C148.796 114.005 148.596 114.244 148.458 114.547C148.319 114.85 148.25 115.197 148.25 115.587V115.626ZM96.5274 134.5C96.4408 134.5 96.3671 134.474 96.3064 134.422C96.2544 134.361 96.2284 134.288 96.2284 134.201V125.569C96.2284 125.482 96.2544 125.413 96.3064 125.361C96.3671 125.3 96.4408 125.27 96.5274 125.27H97.1384C97.2338 125.27 97.3074 125.3 97.3594 125.361C97.4114 125.413 97.4374 125.482 97.4374 125.569V134.201C97.4374 134.288 97.4114 134.361 97.3594 134.422C97.3074 134.474 97.2338 134.5 97.1384 134.5H96.5274ZM101.262 134.63C100.828 134.63 100.434 134.543 100.079 134.37C99.7232 134.197 99.4372 133.963 99.2206 133.668C99.0039 133.373 98.8956 133.04 98.8956 132.667C98.8956 132.069 99.1382 131.592 99.6236 131.237C100.109 130.882 100.742 130.648 101.522 130.535L103.459 130.262V129.885C103.459 129.469 103.337 129.144 103.095 128.91C102.861 128.676 102.475 128.559 101.938 128.559C101.548 128.559 101.231 128.637 100.989 128.793C100.755 128.949 100.59 129.148 100.495 129.391C100.443 129.521 100.352 129.586 100.222 129.586H99.6366C99.5412 129.586 99.4676 129.56 99.4156 129.508C99.3722 129.447 99.3506 129.378 99.3506 129.3C99.3506 129.17 99.3982 129.01 99.4936 128.819C99.5976 128.628 99.7536 128.442 99.9616 128.26C100.17 128.078 100.434 127.926 100.755 127.805C101.084 127.675 101.483 127.61 101.951 127.61C102.471 127.61 102.908 127.679 103.264 127.818C103.619 127.948 103.896 128.126 104.096 128.351C104.304 128.576 104.451 128.832 104.538 129.118C104.633 129.404 104.681 129.694 104.681 129.989V134.201C104.681 134.288 104.65 134.361 104.59 134.422C104.538 134.474 104.468 134.5 104.382 134.5H103.784C103.688 134.5 103.615 134.474 103.563 134.422C103.511 134.361 103.485 134.288 103.485 134.201V133.642C103.372 133.798 103.22 133.954 103.03 134.11C102.839 134.257 102.601 134.383 102.315 134.487C102.029 134.582 101.678 134.63 101.262 134.63ZM101.535 133.655C101.89 133.655 102.215 133.581 102.51 133.434C102.804 133.278 103.034 133.04 103.199 132.719C103.372 132.398 103.459 131.995 103.459 131.51V131.146L101.951 131.367C101.335 131.454 100.872 131.601 100.56 131.809C100.248 132.008 100.092 132.264 100.092 132.576C100.092 132.819 100.161 133.022 100.3 133.187C100.447 133.343 100.629 133.46 100.846 133.538C101.071 133.616 101.301 133.655 101.535 133.655ZM112.83 134.63C112.076 134.63 111.443 134.517 110.932 134.292C110.421 134.058 110.026 133.759 109.749 133.395C109.48 133.022 109.337 132.628 109.32 132.212C109.32 132.143 109.346 132.082 109.398 132.03C109.459 131.969 109.528 131.939 109.606 131.939H110.269C110.373 131.939 110.451 131.965 110.503 132.017C110.555 132.069 110.59 132.13 110.607 132.199C110.65 132.407 110.754 132.615 110.919 132.823C111.092 133.022 111.331 133.191 111.634 133.33C111.946 133.46 112.345 133.525 112.83 133.525C113.575 133.525 114.121 133.395 114.468 133.135C114.823 132.866 115.001 132.511 115.001 132.069C115.001 131.766 114.906 131.523 114.715 131.341C114.533 131.15 114.251 130.981 113.87 130.834C113.489 130.687 112.995 130.526 112.388 130.353C111.755 130.171 111.231 129.972 110.815 129.755C110.399 129.538 110.087 129.27 109.879 128.949C109.68 128.628 109.58 128.221 109.58 127.727C109.58 127.259 109.706 126.843 109.957 126.479C110.208 126.106 110.568 125.812 111.036 125.595C111.513 125.378 112.089 125.27 112.765 125.27C113.302 125.27 113.77 125.344 114.169 125.491C114.576 125.63 114.914 125.82 115.183 126.063C115.452 126.297 115.655 126.553 115.794 126.83C115.933 127.099 116.006 127.363 116.015 127.623C116.015 127.684 115.993 127.744 115.95 127.805C115.907 127.857 115.837 127.883 115.742 127.883H115.053C114.992 127.883 114.927 127.866 114.858 127.831C114.797 127.796 114.75 127.731 114.715 127.636C114.663 127.281 114.464 126.982 114.117 126.739C113.77 126.496 113.32 126.375 112.765 126.375C112.202 126.375 111.742 126.483 111.387 126.7C111.04 126.917 110.867 127.255 110.867 127.714C110.867 128.009 110.949 128.256 111.114 128.455C111.279 128.646 111.539 128.815 111.894 128.962C112.249 129.109 112.713 129.265 113.285 129.43C113.978 129.621 114.546 129.824 114.988 130.041C115.43 130.249 115.755 130.513 115.963 130.834C116.18 131.146 116.288 131.549 116.288 132.043C116.288 132.589 116.145 133.057 115.859 133.447C115.573 133.828 115.17 134.123 114.65 134.331C114.139 134.53 113.532 134.63 112.83 134.63ZM119.708 134.63C119.275 134.63 118.88 134.543 118.525 134.37C118.17 134.197 117.884 133.963 117.667 133.668C117.45 133.373 117.342 133.04 117.342 132.667C117.342 132.069 117.585 131.592 118.07 131.237C118.555 130.882 119.188 130.648 119.968 130.535L121.905 130.262V129.885C121.905 129.469 121.784 129.144 121.541 128.91C121.307 128.676 120.921 128.559 120.384 128.559C119.994 128.559 119.678 128.637 119.435 128.793C119.201 128.949 119.036 129.148 118.941 129.391C118.889 129.521 118.798 129.586 118.668 129.586H118.083C117.988 129.586 117.914 129.56 117.862 129.508C117.819 129.447 117.797 129.378 117.797 129.3C117.797 129.17 117.845 129.01 117.94 128.819C118.044 128.628 118.2 128.442 118.408 128.26C118.616 128.078 118.88 127.926 119.201 127.805C119.53 127.675 119.929 127.61 120.397 127.61C120.917 127.61 121.355 127.679 121.71 127.818C122.065 127.948 122.343 128.126 122.542 128.351C122.75 128.576 122.897 128.832 122.984 129.118C123.079 129.404 123.127 129.694 123.127 129.989V134.201C123.127 134.288 123.097 134.361 123.036 134.422C122.984 134.474 122.915 134.5 122.828 134.5H122.23C122.135 134.5 122.061 134.474 122.009 134.422C121.957 134.361 121.931 134.288 121.931 134.201V133.642C121.818 133.798 121.667 133.954 121.476 134.11C121.285 134.257 121.047 134.383 120.761 134.487C120.475 134.582 120.124 134.63 119.708 134.63ZM119.981 133.655C120.336 133.655 120.661 133.581 120.956 133.434C121.251 133.278 121.48 133.04 121.645 132.719C121.818 132.398 121.905 131.995 121.905 131.51V131.146L120.397 131.367C119.782 131.454 119.318 131.601 119.006 131.809C118.694 132.008 118.538 132.264 118.538 132.576C118.538 132.819 118.607 133.022 118.746 133.187C118.893 133.343 119.075 133.46 119.292 133.538C119.517 133.616 119.747 133.655 119.981 133.655ZM125.308 134.5C125.221 134.5 125.147 134.474 125.087 134.422C125.035 134.361 125.009 134.288 125.009 134.201V125.569C125.009 125.482 125.035 125.413 125.087 125.361C125.147 125.3 125.221 125.27 125.308 125.27H125.919C126.014 125.27 126.088 125.3 126.14 125.361C126.192 125.413 126.218 125.482 126.218 125.569V134.201C126.218 134.288 126.192 134.361 126.14 134.422C126.088 134.474 126.014 134.5 125.919 134.5H125.308ZM130.679 134.63C130.124 134.63 129.652 134.509 129.262 134.266C128.88 134.015 128.59 133.668 128.391 133.226C128.191 132.784 128.092 132.277 128.092 131.705V128.039C128.092 127.952 128.118 127.883 128.17 127.831C128.23 127.77 128.304 127.74 128.391 127.74H129.041C129.127 127.74 129.197 127.77 129.249 127.831C129.309 127.883 129.34 127.952 129.34 128.039V131.64C129.34 132.931 129.903 133.577 131.03 133.577C131.567 133.577 131.996 133.408 132.317 133.07C132.646 132.723 132.811 132.247 132.811 131.64V128.039C132.811 127.952 132.837 127.883 132.889 127.831C132.949 127.77 133.023 127.74 133.11 127.74H133.747C133.842 127.74 133.916 127.77 133.968 127.831C134.02 127.883 134.046 127.952 134.046 128.039V134.201C134.046 134.288 134.02 134.361 133.968 134.422C133.916 134.474 133.842 134.5 133.747 134.5H133.149C133.062 134.5 132.988 134.474 132.928 134.422C132.876 134.361 132.85 134.288 132.85 134.201V133.629C132.616 133.932 132.33 134.175 131.992 134.357C131.662 134.539 131.225 134.63 130.679 134.63ZM138.447 134.63C137.97 134.63 137.559 134.548 137.212 134.383C136.865 134.21 136.579 133.98 136.354 133.694C136.137 133.399 135.973 133.066 135.86 132.693C135.756 132.32 135.695 131.926 135.678 131.51C135.669 131.371 135.665 131.241 135.665 131.12C135.665 130.999 135.669 130.869 135.678 130.73C135.695 130.323 135.756 129.933 135.86 129.56C135.973 129.187 136.137 128.854 136.354 128.559C136.579 128.264 136.865 128.035 137.212 127.87C137.559 127.697 137.97 127.61 138.447 127.61C138.958 127.61 139.383 127.701 139.721 127.883C140.059 128.065 140.336 128.29 140.553 128.559V125.569C140.553 125.482 140.579 125.413 140.631 125.361C140.692 125.3 140.765 125.27 140.852 125.27H141.476C141.563 125.27 141.632 125.3 141.684 125.361C141.745 125.413 141.775 125.482 141.775 125.569V134.201C141.775 134.288 141.745 134.361 141.684 134.422C141.632 134.474 141.563 134.5 141.476 134.5H140.891C140.796 134.5 140.722 134.474 140.67 134.422C140.618 134.361 140.592 134.288 140.592 134.201V133.655C140.375 133.932 140.094 134.166 139.747 134.357C139.4 134.539 138.967 134.63 138.447 134.63ZM138.72 133.577C139.153 133.577 139.5 133.477 139.76 133.278C140.02 133.079 140.215 132.827 140.345 132.524C140.475 132.212 140.544 131.896 140.553 131.575C140.562 131.436 140.566 131.272 140.566 131.081C140.566 130.882 140.562 130.713 140.553 130.574C140.544 130.271 140.471 129.972 140.332 129.677C140.202 129.382 140.003 129.14 139.734 128.949C139.474 128.758 139.136 128.663 138.72 128.663C138.278 128.663 137.927 128.763 137.667 128.962C137.407 129.153 137.221 129.408 137.108 129.729C136.995 130.041 136.93 130.379 136.913 130.743C136.904 130.994 136.904 131.246 136.913 131.497C136.93 131.861 136.995 132.203 137.108 132.524C137.221 132.836 137.407 133.092 137.667 133.291C137.927 133.482 138.278 133.577 138.72 133.577Z" fill="#EBECEE"/>
<rect x="100.5" y="141.5" width="37" height="25" rx="12.5" fill="#2D68F8"/>
<path d="M113.342 158.64C112.67 158.64 112.086 158.547 111.592 158.36C111.097 158.164 110.686 157.898 110.36 157.562C110.042 157.226 109.8 156.834 109.632 156.386C109.464 155.938 109.366 155.457 109.338 154.944C109.328 154.692 109.319 154.407 109.31 154.09C109.31 153.763 109.31 153.437 109.31 153.11C109.319 152.774 109.328 152.475 109.338 152.214C109.366 151.701 109.464 151.225 109.632 150.786C109.809 150.338 110.061 149.951 110.388 149.624C110.724 149.288 111.134 149.027 111.62 148.84C112.114 148.653 112.688 148.56 113.342 148.56C114.004 148.56 114.578 148.653 115.064 148.84C115.549 149.027 115.955 149.288 116.282 149.624C116.618 149.951 116.874 150.338 117.052 150.786C117.229 151.225 117.327 151.701 117.346 152.214C117.364 152.475 117.374 152.774 117.374 153.11C117.383 153.437 117.383 153.763 117.374 154.09C117.374 154.407 117.364 154.692 117.346 154.944C117.327 155.457 117.229 155.938 117.052 156.386C116.884 156.834 116.636 157.226 116.31 157.562C115.992 157.898 115.586 158.164 115.092 158.36C114.606 158.547 114.023 158.64 113.342 158.64ZM113.342 156.61C113.827 156.61 114.177 156.456 114.392 156.148C114.616 155.831 114.732 155.406 114.742 154.874C114.76 154.603 114.77 154.319 114.77 154.02C114.779 153.721 114.779 153.423 114.77 153.124C114.77 152.825 114.76 152.55 114.742 152.298C114.732 151.785 114.616 151.369 114.392 151.052C114.177 150.735 113.827 150.571 113.342 150.562C112.856 150.571 112.506 150.735 112.292 151.052C112.077 151.369 111.96 151.785 111.942 152.298C111.932 152.55 111.923 152.825 111.914 153.124C111.914 153.423 111.914 153.721 111.914 154.02C111.923 154.319 111.932 154.603 111.942 154.874C111.96 155.406 112.082 155.831 112.306 156.148C112.53 156.456 112.875 156.61 113.342 156.61ZM119.679 158.5C119.465 158.5 119.357 158.407 119.357 158.22C119.357 158.164 119.376 158.113 119.413 158.066L126.329 148.966C126.395 148.882 126.46 148.817 126.525 148.77C126.591 148.723 126.689 148.7 126.819 148.7H127.813C128.028 148.7 128.135 148.793 128.135 148.98C128.135 149.036 128.117 149.087 128.079 149.134L121.163 158.234C121.098 158.318 121.033 158.383 120.967 158.43C120.902 158.477 120.804 158.5 120.673 158.5H119.679ZM126.721 158.57C126.087 158.57 125.578 158.402 125.195 158.066C124.822 157.73 124.612 157.282 124.565 156.722C124.556 156.479 124.551 156.265 124.551 156.078C124.551 155.891 124.556 155.667 124.565 155.406C124.603 154.837 124.803 154.384 125.167 154.048C125.541 153.703 126.059 153.53 126.721 153.53C127.393 153.53 127.911 153.703 128.275 154.048C128.639 154.384 128.84 154.837 128.877 155.406C128.896 155.667 128.905 155.891 128.905 156.078C128.905 156.265 128.896 156.479 128.877 156.722C128.84 157.282 128.63 157.73 128.247 158.066C127.865 158.402 127.356 158.57 126.721 158.57ZM126.721 157.338C126.88 157.338 127.001 157.305 127.085 157.24C127.179 157.175 127.249 157.091 127.295 156.988C127.342 156.876 127.365 156.759 127.365 156.638C127.384 156.423 127.393 156.227 127.393 156.05C127.393 155.873 127.384 155.681 127.365 155.476C127.356 155.299 127.305 155.14 127.211 155C127.118 154.851 126.955 154.776 126.721 154.776C126.488 154.776 126.325 154.851 126.231 155C126.138 155.14 126.087 155.299 126.077 155.476C126.068 155.681 126.063 155.873 126.063 156.05C126.063 156.227 126.068 156.423 126.077 156.638C126.087 156.759 126.11 156.876 126.147 156.988C126.194 157.091 126.264 157.175 126.357 157.24C126.451 157.305 126.572 157.338 126.721 157.338ZM120.799 153.642C120.155 153.642 119.642 153.479 119.259 153.152C118.886 152.816 118.681 152.368 118.643 151.808C118.625 151.565 118.615 151.355 118.615 151.178C118.625 150.991 118.634 150.767 118.643 150.506C118.671 149.937 118.867 149.484 119.231 149.148C119.605 148.803 120.127 148.63 120.799 148.63C121.471 148.63 121.989 148.803 122.353 149.148C122.717 149.484 122.913 149.937 122.941 150.506C122.96 150.767 122.969 150.991 122.969 151.178C122.969 151.355 122.96 151.565 122.941 151.808C122.913 152.368 122.708 152.816 122.325 153.152C121.943 153.479 121.434 153.642 120.799 153.642ZM120.799 152.438C120.949 152.438 121.07 152.405 121.163 152.34C121.257 152.265 121.327 152.177 121.373 152.074C121.42 151.962 121.443 151.85 121.443 151.738C121.462 151.523 121.471 151.327 121.471 151.15C121.471 150.973 121.462 150.781 121.443 150.576C121.434 150.399 121.378 150.24 121.275 150.1C121.182 149.951 121.023 149.876 120.799 149.876C120.566 149.876 120.398 149.951 120.295 150.1C120.202 150.24 120.151 150.399 120.141 150.576C120.132 150.781 120.127 150.973 120.127 151.15C120.127 151.327 120.132 151.523 120.141 151.738C120.151 151.85 120.174 151.962 120.211 152.074C120.258 152.177 120.328 152.265 120.421 152.34C120.515 152.405 120.641 152.438 120.799 152.438Z" fill="#EBECEE"/>
<g filter="url(#filter1_d_15958_23152)">
<rect x="148" y="74" width="32" height="32" rx="16" fill="white"/>
<rect x="147" y="73" width="34" height="34" rx="17" stroke="#1DA534" stroke-width="2"/>
<path opacity="0.4" d="M164 100C169.523 100 174 95.5228 174 90C174 84.4772 169.523 80 164 80C158.477 80 154 84.4772 154 90C154 95.5228 158.477 100 164 100Z" fill="#1DA534"/>
<path d="M162.579 93.5801C162.379 93.5801 162.189 93.5001 162.049 93.3601L159.219 90.5301C158.929 90.2401 158.929 89.7601 159.219 89.4701C159.509 89.1801 159.989 89.1801 160.279 89.4701L162.579 91.7701L167.719 86.6301C168.009 86.3401 168.489 86.3401 168.779 86.6301C169.069 86.9201 169.069 87.4001 168.779 87.6901L163.109 93.3601C162.969 93.5001 162.779 93.5801 162.579 93.5801Z" fill="#1DA534"/>
</g>
</g>
<defs>
<filter id="filter0_d_15958_23152" x="0" y="0" width="242" height="238" filterUnits="userSpaceOnUse" color-interpolation-filters="sRGB">
<feFlood flood-opacity="0" result="BackgroundImageFix"/>
<feColorMatrix in="SourceAlpha" type="matrix" values="0 0 0 0 0 0 0 0 0 0 0 0 0 0 0 0 0 0 127 0" result="hardAlpha"/>
<feOffset/>
<feGaussianBlur stdDeviation="30"/>
<feComposite in2="hardAlpha" operator="out"/>
<feColorMatrix type="matrix" values="0 0 0 0 0.160784 0 0 0 0 0.372549 0 0 0 0 0.886275 0 0 0 0.7 0"/>
<feBlend mode="normal" in2="BackgroundImageFix" result="effect1_dropShadow_15958_23152"/>
<feBlend mode="normal" in="SourceGraphic" in2="effect1_dropShadow_15958_23152" result="shape"/>
</filter>
<filter id="filter1_d_15958_23152" x="131" y="65" width="66" height="66" filterUnits="userSpaceOnUse" color-interpolation-filters="sRGB">
<feFlood flood-opacity="0" result="BackgroundImageFix"/>
<feColorMatrix in="SourceAlpha" type="matrix" values="0 0 0 0 0 0 0 0 0 0 0 0 0 0 0 0 0 0 127 0" result="hardAlpha"/>
<feOffset dy="8"/>
<feGaussianBlur stdDeviation="7.5"/>
<feColorMatrix type="matrix" values="0 0 0 0 0 0 0 0 0 0 0 0 0 0 0 0 0 0 0.25 0"/>
<feBlend mode="normal" in2="BackgroundImageFix" result="effect1_dropShadow_15958_23152"/>
<feBlend mode="normal" in="SourceGraphic" in2="effect1_dropShadow_15958_23152" result="shape"/>
</filter>
<clipPath id="clip0_15958_23152">
<rect width="32" height="32" fill="white" transform="translate(103 71.5)"/>
</clipPath>
</defs>
</svg>
