<svg width="122" height="118" viewBox="0 0 122 118" fill="none" xmlns="http://www.w3.org/2000/svg">
<rect x="2" y="2" width="114" height="114" rx="57" fill="#EA5959" fill-opacity="0.15"/>
<rect x="2" y="2" width="114" height="114" rx="57" stroke="#EA5959" stroke-width="4"/>
<path opacity="0.4" d="M68.5865 39.8932L67.8532 38.0265L68.7865 37.6532C70.3065 37.0532 71.2399 36.2932 71.2799 35.6265C71.3065 35.0665 70.7065 34.3732 69.6399 33.7065C69.2399 33.4665 68.7465 33.2132 68.1865 32.9732C65.3065 31.7465 61.8265 31.1465 57.5332 31.1465H56.5332V29.1465H57.5332C62.0932 29.1465 65.8399 29.7998 68.9732 31.1332C69.6132 31.4132 70.1865 31.7065 70.6799 31.9998C72.9199 33.3865 73.3332 34.7999 73.2799 35.7332C73.2132 36.8132 72.5199 38.3332 69.5332 39.5199L68.5999 39.8799L68.5865 39.8932Z" fill="#EA5959"/>
<path opacity="0.4" d="M48.9601 38.8666L48.0668 38.4133C45.1868 36.9466 44.6535 35.3466 44.7201 34.2666C44.8401 32.1066 47.2801 30.4533 51.6135 29.6266L52.6001 29.4399L52.9735 31.3999L51.9868 31.5866C48.4135 32.2666 46.7601 33.48 46.7068 34.3733C46.6668 35.0533 47.5068 35.8933 48.9601 36.6266L49.8535 37.08L48.9468 38.8666H48.9601Z" fill="#EA5959"/>
<path d="M52.907 47.4667C52.187 47.4667 51.627 47.2534 51.2136 46.9867C50.7203 46.6667 50.0936 46.04 49.827 44.7867C49.2003 41.8667 50.8803 36.7734 54.0936 31.8133C57.627 26.3733 62.0003 22.6533 64.9603 22.5467C65.5337 22.4933 66.187 22.6533 66.7603 23C67.7603 23.6533 68.7737 25.16 68.0803 28.72L67.8937 29.7067L65.9337 29.32L66.1203 28.3333C66.4803 26.4933 66.3203 25.08 65.6937 24.68C65.5203 24.5733 65.2937 24.52 65.0937 24.5333C63.1337 24.6133 59.2403 27.56 55.7736 32.8934C52.4403 38.0267 51.3736 42.4267 51.7736 44.36C51.867 44.8267 52.0536 45.1334 52.2936 45.3067C52.9336 45.72 54.2936 45.28 55.867 44.16L56.6803 43.5734L57.8403 45.2L57.027 45.7867C55.267 47.04 53.907 47.4667 52.8936 47.4667H52.907Z" fill="#EA5959"/>
<path d="M64.1341 48.0534C63.7741 48.0534 63.3608 48.0001 62.8941 47.8401C60.0541 46.9201 56.4808 42.9201 53.8008 37.6534C52.1342 34.3868 51.0408 31.0668 50.7075 28.2935C50.2275 24.3201 51.4408 22.8135 52.5342 22.2535C54.3608 21.2935 56.7475 22.6668 57.9075 23.8268L58.6141 24.5335L57.2008 25.9468L56.4941 25.2401C55.6275 24.3735 54.1608 23.6668 53.4542 24.0268C52.8808 24.3201 52.3875 25.5201 52.6808 28.0535C52.9875 30.6001 54.0142 33.6801 55.5742 36.7468C58.3475 42.2001 61.6275 45.3334 63.5075 45.9334C63.9608 46.0801 64.3208 46.0801 64.5875 45.9468C65.9208 45.2668 65.8941 40.3734 62.8141 33.9601L62.3741 33.0534L64.1741 32.1868L64.6141 33.0934C67.5075 39.1068 68.7341 46.0668 65.5075 47.7201C65.1875 47.8801 64.7341 48.0401 64.1475 48.0401L64.1341 48.0534Z" fill="#EA5959"/>
<path opacity="0.4" fill-rule="evenodd" clip-rule="evenodd" d="M57.666 35.0664C57.666 34.3064 58.2927 33.6797 59.0527 33.6797C59.8127 33.6797 60.4393 34.3064 60.4393 35.0664C60.4393 35.8264 59.8127 36.453 59.0527 36.453C58.2927 36.453 57.666 35.8264 57.666 35.0664Z" fill="#EA5959"/>
<path d="M48.3009 57.9C48.3962 57.9 48.4786 57.9347 48.5479 58.004C48.6172 58.0733 48.6519 58.1557 48.6519 58.251V58.719C48.6519 58.8143 48.6172 58.8967 48.5479 58.966C48.4786 59.0353 48.3962 59.07 48.3009 59.07H44.0239V62.073H48.0409C48.1362 62.073 48.2186 62.1077 48.2879 62.177C48.3572 62.2463 48.3919 62.3287 48.3919 62.424V62.892C48.3919 62.9873 48.3572 63.0697 48.2879 63.139C48.2186 63.2083 48.1362 63.243 48.0409 63.243H44.0239V66.649C44.0239 66.7443 43.9892 66.8267 43.9199 66.896C43.8506 66.9653 43.7682 67 43.6729 67H43.1399C43.0446 67 42.9622 66.9653 42.8929 66.896C42.8236 66.8267 42.7889 66.7443 42.7889 66.649V58.251C42.7889 58.1557 42.8236 58.0733 42.8929 58.004C42.9622 57.9347 43.0446 57.9 43.1399 57.9H48.3009ZM51.3318 66.649C51.3318 66.7443 51.2972 66.8267 51.2278 66.896C51.1585 66.9653 51.0762 67 50.9808 67H50.4998C50.4045 67 50.3222 66.9653 50.2528 66.896C50.1835 66.8267 50.1488 66.7443 50.1488 66.649V60.591C50.1488 60.4957 50.1835 60.4133 50.2528 60.344C50.3222 60.2747 50.4045 60.24 50.4998 60.24H50.9808C51.0762 60.24 51.1585 60.2747 51.2278 60.344C51.2972 60.4133 51.3318 60.4957 51.3318 60.591V66.649ZM51.1238 57.692C51.2192 57.588 51.2972 57.523 51.3578 57.497C51.4185 57.4623 51.5008 57.445 51.6048 57.445H52.5668C52.6448 57.445 52.7055 57.471 52.7488 57.523C52.7922 57.5663 52.8138 57.627 52.8138 57.705C52.8138 57.7657 52.7922 57.8177 52.7488 57.861L51.3058 59.044C51.2105 59.122 51.1238 59.1783 51.0458 59.213C50.9765 59.2477 50.8812 59.265 50.7598 59.265H50.2788C50.1402 59.265 50.0708 59.1957 50.0708 59.057C50.0708 58.9877 50.0925 58.9313 50.1358 58.888L51.1238 57.692ZM54.9096 63.997C53.6442 63.7283 53.0116 63.0827 53.0116 62.06C53.0116 61.7047 53.1069 61.3797 53.2976 61.085C53.4882 60.7903 53.7699 60.5563 54.1426 60.383C54.5239 60.201 54.9876 60.11 55.5336 60.11C56.0709 60.11 56.5346 60.188 56.9246 60.344C57.3146 60.5 57.6092 60.695 57.8086 60.929C58.0166 61.163 58.1206 61.3883 58.1206 61.605C58.1206 61.6917 58.0859 61.7697 58.0166 61.839C57.9472 61.8997 57.8649 61.93 57.7696 61.93H57.3406C57.1759 61.93 57.0459 61.8693 56.9506 61.748C56.6819 61.4013 56.2096 61.228 55.5336 61.228C55.1349 61.228 54.8099 61.3017 54.5586 61.449C54.3159 61.5963 54.1946 61.8 54.1946 62.06C54.1946 62.2767 54.2552 62.4413 54.3766 62.554C54.4979 62.6667 54.6799 62.7577 54.9226 62.827C55.1652 62.8963 55.5942 63.0003 56.2096 63.139C56.9722 63.3037 57.5139 63.555 57.8346 63.893C58.1552 64.231 58.3156 64.6427 58.3156 65.128C58.3156 65.4833 58.2029 65.8127 57.9776 66.116C57.7609 66.4193 57.4446 66.6663 57.0286 66.857C56.6212 67.039 56.1446 67.13 55.5986 67.13C55.0612 67.13 54.5846 67.0477 54.1686 66.883C53.7612 66.7097 53.4449 66.5017 53.2196 66.259C52.9942 66.0163 52.8816 65.7867 52.8816 65.57C52.8816 65.4833 52.9162 65.4097 52.9856 65.349C53.0549 65.2797 53.1372 65.245 53.2326 65.245H53.7006C53.7786 65.245 53.8479 65.2537 53.9086 65.271C53.9692 65.2883 54.0256 65.336 54.0776 65.414C54.3636 65.8127 54.8706 66.012 55.5986 66.012C56.0059 66.012 56.3612 65.9297 56.6646 65.765C56.9766 65.5917 57.1326 65.3793 57.1326 65.128C57.1326 64.92 57.0546 64.7553 56.8986 64.634C56.7512 64.504 56.5346 64.4 56.2486 64.322C55.9626 64.2353 55.5162 64.127 54.9096 63.997ZM61.1737 58.862C61.1737 58.9573 61.1391 59.0397 61.0697 59.109C61.0004 59.1783 60.9181 59.213 60.8227 59.213H60.0817C59.9864 59.213 59.9041 59.1783 59.8347 59.109C59.7654 59.0397 59.7307 58.9573 59.7307 58.862V58.121C59.7307 58.0257 59.7654 57.9433 59.8347 57.874C59.9041 57.8047 59.9864 57.77 60.0817 57.77H60.8227C60.9181 57.77 61.0004 57.8047 61.0697 57.874C61.1391 57.9433 61.1737 58.0257 61.1737 58.121V58.862ZM61.0437 66.649C61.0437 66.7443 61.0091 66.8267 60.9397 66.896C60.8704 66.9653 60.7881 67 60.6927 67H60.2117C60.1164 67 60.0341 66.9653 59.9647 66.896C59.8954 66.8267 59.8607 66.7443 59.8607 66.649V60.591C59.8607 60.4957 59.8954 60.4133 59.9647 60.344C60.0341 60.2747 60.1164 60.24 60.2117 60.24H60.6927C60.7881 60.24 60.8704 60.2747 60.9397 60.344C61.0091 60.4133 61.0437 60.4957 61.0437 60.591V66.649ZM65.7265 66.012C66.5932 66.012 67.1782 65.674 67.4815 64.998C67.5422 64.868 67.6028 64.777 67.6635 64.725C67.7242 64.673 67.8065 64.647 67.9105 64.647H68.3005C68.3958 64.647 68.4782 64.6817 68.5475 64.751C68.6168 64.8117 68.6515 64.8853 68.6515 64.972C68.6515 65.2667 68.5345 65.583 68.3005 65.921C68.0665 66.259 67.7285 66.545 67.2865 66.779C66.8445 67.013 66.3245 67.13 65.7265 67.13C65.1112 67.13 64.5782 67 64.1275 66.74C63.6768 66.48 63.3302 66.1247 63.0875 65.674C62.8448 65.2147 62.7105 64.7033 62.6845 64.14C62.6758 64.036 62.6715 63.8367 62.6715 63.542C62.6715 63.334 62.6758 63.1867 62.6845 63.1C62.7625 62.216 63.0615 61.4967 63.5815 60.942C64.1015 60.3873 64.8165 60.11 65.7265 60.11C66.3245 60.11 66.8402 60.227 67.2735 60.461C67.7155 60.6863 68.0492 60.968 68.2745 61.306C68.5085 61.6353 68.6342 61.9473 68.6515 62.242C68.6602 62.3373 68.6255 62.4197 68.5475 62.489C68.4782 62.5583 68.3958 62.593 68.3005 62.593H67.9105C67.8065 62.593 67.7242 62.567 67.6635 62.515C67.6028 62.463 67.5422 62.372 67.4815 62.242C67.1782 61.566 66.5932 61.228 65.7265 61.228C65.2498 61.228 64.8338 61.3883 64.4785 61.709C64.1232 62.0297 63.9195 62.515 63.8675 63.165C63.8588 63.2603 63.8545 63.4163 63.8545 63.633C63.8545 63.8323 63.8588 63.9797 63.8675 64.075C63.9282 64.725 64.1318 65.2103 64.4785 65.531C64.8338 65.8517 65.2498 66.012 65.7265 66.012ZM74.2244 62.723V62.554C74.2244 62.1293 74.0814 61.8043 73.7954 61.579C73.5181 61.345 73.1541 61.228 72.7034 61.228C72.3568 61.228 72.0838 61.2887 71.8844 61.41C71.6938 61.5227 71.5118 61.696 71.3384 61.93C71.2864 61.9993 71.2301 62.047 71.1694 62.073C71.1088 62.099 71.0264 62.112 70.9224 62.112H70.5324C70.4371 62.112 70.3504 62.0773 70.2724 62.008C70.2031 61.9387 70.1728 61.8563 70.1814 61.761C70.2074 61.501 70.3331 61.2453 70.5584 60.994C70.7924 60.734 71.1001 60.5217 71.4814 60.357C71.8628 60.1923 72.2701 60.11 72.7034 60.11C73.5094 60.11 74.1594 60.3353 74.6534 60.786C75.1561 61.2367 75.4074 61.8693 75.4074 62.684V66.649C75.4074 66.7443 75.3728 66.8267 75.3034 66.896C75.2341 66.9653 75.1518 67 75.0564 67H74.5754C74.4801 67 74.3978 66.9653 74.3284 66.896C74.2591 66.8267 74.2244 66.7443 74.2244 66.649V66.116C74.0858 66.428 73.7911 66.675 73.3404 66.857C72.8898 67.039 72.4391 67.13 71.9884 67.13C71.5464 67.13 71.1521 67.052 70.8054 66.896C70.4588 66.7313 70.1901 66.5103 69.9994 66.233C69.8174 65.9557 69.7264 65.6437 69.7264 65.297C69.7264 64.647 69.9691 64.14 70.4544 63.776C70.9398 63.4033 71.5854 63.152 72.3914 63.022L74.2244 62.723ZM74.2244 63.763L72.6904 64.01C72.1271 64.0967 71.6894 64.2397 71.3774 64.439C71.0654 64.6297 70.9094 64.8723 70.9094 65.167C70.9094 65.3837 71.0091 65.5787 71.2084 65.752C71.4078 65.9253 71.7111 66.012 72.1184 66.012C72.7424 66.012 73.2494 65.8343 73.6394 65.479C74.0294 65.1237 74.2244 64.66 74.2244 64.088V63.763Z" fill="#EBECEE"/>
<rect x="40" y="74" width="38" height="25" rx="12.5" fill="#EA5959"/>
<path d="M57.1579 84.854C57.1766 85.1153 57.1859 85.5353 57.1859 86.114C57.1859 86.6833 57.1766 87.094 57.1579 87.346C57.0926 88.4567 56.7239 89.3667 56.0519 90.076C55.3892 90.7853 54.3952 91.14 53.0699 91.14C51.7446 91.14 50.7459 90.7853 50.0739 90.076C49.4112 89.3667 49.0472 88.4567 48.9819 87.346C48.9632 86.842 48.9539 86.4313 48.9539 86.114C48.9539 85.7967 48.9632 85.3767 48.9819 84.854C49.0472 83.7433 49.4112 82.8333 50.0739 82.124C50.7459 81.4147 51.7446 81.06 53.0699 81.06C54.3952 81.06 55.3892 81.4147 56.0519 82.124C56.7239 82.8333 57.0926 83.7433 57.1579 84.854ZM54.5679 84.924C54.5399 84.4107 54.4139 84.014 54.1899 83.734C53.9659 83.4447 53.5926 83.3 53.0699 83.3C52.5472 83.3 52.1739 83.4447 51.9499 83.734C51.7259 84.014 51.5999 84.4107 51.5719 84.924C51.5532 85.428 51.5439 85.8153 51.5439 86.086C51.5439 86.338 51.5532 86.7347 51.5719 87.276C51.5906 87.7893 51.7119 88.1907 51.9359 88.48C52.1692 88.76 52.5472 88.9 53.0699 88.9C53.5926 88.9 53.9659 88.76 54.1899 88.48C54.4232 88.1907 54.5492 87.7893 54.5679 87.276C54.5866 87.0053 54.5959 86.6087 54.5959 86.086C54.5959 85.5633 54.5866 85.176 54.5679 84.924ZM62.7646 84.182C62.7366 84.77 62.5359 85.2507 62.1626 85.624C61.7986 85.988 61.2666 86.17 60.5666 86.17C59.8666 86.17 59.3346 85.988 58.9706 85.624C58.6159 85.26 58.4152 84.7793 58.3686 84.182C58.3592 84.0607 58.3546 83.888 58.3546 83.664C58.3546 83.4307 58.3592 83.2487 58.3686 83.118C58.4152 82.5207 58.6159 82.04 58.9706 81.676C59.3346 81.312 59.8666 81.13 60.5666 81.13C61.2666 81.13 61.7939 81.312 62.1486 81.676C62.5126 82.04 62.7179 82.5207 62.7646 83.118C62.7832 83.3793 62.7926 83.5613 62.7926 83.664C62.7926 83.7667 62.7832 83.9393 62.7646 84.182ZM66.2646 81.466C66.3392 81.3727 66.4092 81.3073 66.4746 81.27C66.5492 81.2233 66.6472 81.2 66.7686 81.2H67.9166C68.0192 81.2 68.0986 81.228 68.1546 81.284C68.2199 81.3307 68.2526 81.396 68.2526 81.48C68.2526 81.536 68.2339 81.5873 68.1966 81.634L61.2806 90.734C61.2059 90.8273 61.1312 90.8973 61.0566 90.944C60.9912 90.9813 60.8979 91 60.7766 91H59.6286C59.5259 91 59.4419 90.9767 59.3766 90.93C59.3206 90.874 59.2926 90.804 59.2926 90.72C59.2926 90.664 59.3112 90.6127 59.3486 90.566L66.2646 81.466ZM60.5666 84.84C60.7626 84.84 60.9026 84.784 60.9866 84.672C61.0706 84.56 61.1219 84.3733 61.1406 84.112C61.1592 83.888 61.1686 83.734 61.1686 83.65C61.1686 83.5473 61.1592 83.3933 61.1406 83.188C61.1219 82.9267 61.0706 82.74 60.9866 82.628C60.9026 82.516 60.7626 82.46 60.5666 82.46C60.3706 82.46 60.2306 82.516 60.1466 82.628C60.0626 82.74 60.0112 82.9267 59.9926 83.188C59.9832 83.2907 59.9786 83.4447 59.9786 83.65C59.9786 83.846 59.9832 84 59.9926 84.112C60.0112 84.3733 60.0626 84.56 60.1466 84.672C60.2306 84.784 60.3706 84.84 60.5666 84.84ZM69.2606 89.082C69.2326 89.67 69.0319 90.1507 68.6586 90.524C68.2946 90.888 67.7626 91.07 67.0626 91.07C66.3626 91.07 65.8306 90.888 65.4666 90.524C65.1119 90.16 64.9112 89.6793 64.8646 89.082C64.8552 88.9607 64.8506 88.788 64.8506 88.564C64.8506 88.3307 64.8552 88.1487 64.8646 88.018C64.9112 87.4207 65.1119 86.94 65.4666 86.576C65.8306 86.212 66.3626 86.03 67.0626 86.03C67.7626 86.03 68.2899 86.212 68.6446 86.576C69.0086 86.94 69.2139 87.4207 69.2606 88.018C69.2792 88.2793 69.2886 88.4613 69.2886 88.564C69.2886 88.6667 69.2792 88.8393 69.2606 89.082ZM67.0626 89.74C67.2586 89.74 67.3986 89.684 67.4826 89.572C67.5666 89.46 67.6179 89.2733 67.6366 89.012C67.6552 88.788 67.6646 88.634 67.6646 88.55C67.6646 88.4473 67.6552 88.2933 67.6366 88.088C67.6179 87.8267 67.5666 87.64 67.4826 87.528C67.3986 87.416 67.2586 87.36 67.0626 87.36C66.8666 87.36 66.7266 87.416 66.6426 87.528C66.5586 87.64 66.5072 87.8267 66.4886 88.088C66.4792 88.1907 66.4746 88.3447 66.4746 88.55C66.4746 88.746 66.4792 88.9 66.4886 89.012C66.5072 89.2733 66.5586 89.46 66.6426 89.572C66.7266 89.684 66.8666 89.74 67.0626 89.74Z" fill="#EBECEE"/>
<rect x="87" y="13" width="34" height="34" rx="17" fill="white"/>
<rect x="87" y="13" width="34" height="34" rx="17" stroke="#1DA534" stroke-width="2"/>
<path opacity="0.4" d="M104 40C109.523 40 114 35.5228 114 30C114 24.4772 109.523 20 104 20C98.4772 20 94 24.4772 94 30C94 35.5228 98.4772 40 104 40Z" fill="#1DA534"/>
<path d="M102.579 33.5801C102.379 33.5801 102.189 33.5001 102.049 33.3601L99.2195 30.5301C98.9295 30.2401 98.9295 29.7601 99.2195 29.4701C99.5095 29.1801 99.9895 29.1801 100.279 29.4701L102.579 31.7701L107.719 26.6301C108.009 26.3401 108.489 26.3401 108.779 26.6301C109.069 26.9201 109.069 27.4001 108.779 27.6901L103.109 33.3601C102.969 33.5001 102.779 33.5801 102.579 33.5801Z" fill="#1DA534"/>
</svg>
