<svg width="242" height="238" viewBox="0 0 242 238" fill="none" xmlns="http://www.w3.org/2000/svg">
<g filter="url(#filter0_d_15958_23126)">
<rect x="64" y="64" width="110" height="110" rx="55" fill="#DC6A2C" fill-opacity="0.15" shape-rendering="crispEdges"/>
<rect x="62" y="62" width="114" height="114" rx="57" stroke="#DC6A2C" stroke-width="4" shape-rendering="crispEdges"/>
<g clip-path="url(#clip0_15958_23126)">
<mask id="mask0_15958_23126" style="mask-type:luminance" maskUnits="userSpaceOnUse" x="103" y="79" width="32" height="32">
<path d="M135 79H103V111H135V79Z" fill="white"/>
</mask>
<g mask="url(#mask0_15958_23126)">
<path d="M105.68 109.333C105.427 109.333 105.174 109.24 104.974 109.04C104.587 108.653 104.587 108.013 104.974 107.627L124.227 88.3733C124.614 87.9866 125.254 87.9866 125.64 88.3733C126.027 88.7599 126.027 89.3999 125.64 89.7866L106.387 109.04C106.187 109.24 105.934 109.333 105.68 109.333Z" fill="#DC6A2C"/>
<g opacity="0.4">
<path d="M111.412 92.2134L119.826 83.8268C122.692 80.9734 127.319 80.9734 130.186 83.8268C133.052 86.6934 133.052 91.3334 130.186 94.2L121.786 102.587C120.959 103.413 119.826 103.88 118.652 103.88H110.119V95.36C110.119 94.1734 110.586 93.0534 111.426 92.2134H111.412Z" fill="#DC6A2C"/>
</g>
</g>
</g>
<path d="M90.5897 127C90.4943 127 90.4207 126.974 90.3687 126.922C90.3167 126.861 90.2907 126.788 90.2907 126.701V118.199C90.2907 118.112 90.3167 118.043 90.3687 117.991C90.4207 117.93 90.4943 117.9 90.5897 117.9H91.2787C91.3653 117.9 91.4347 117.93 91.4867 117.991C91.5387 118.043 91.5647 118.112 91.5647 118.199V125.869H95.8937C95.989 125.869 96.0627 125.899 96.1147 125.96C96.1667 126.012 96.1927 126.086 96.1927 126.181V126.701C96.1927 126.788 96.1667 126.861 96.1147 126.922C96.0627 126.974 95.989 127 95.8937 127H90.5897ZM97.7459 127C97.6592 127 97.5855 126.974 97.5249 126.922C97.4729 126.861 97.4469 126.788 97.4469 126.701V120.539C97.4469 120.452 97.4729 120.383 97.5249 120.331C97.5855 120.27 97.6592 120.24 97.7459 120.24H98.3699C98.4565 120.24 98.5259 120.27 98.5779 120.331C98.6299 120.383 98.6559 120.452 98.6559 120.539V126.701C98.6559 126.788 98.6299 126.861 98.5779 126.922C98.5259 126.974 98.4565 127 98.3699 127H97.7459ZM97.6419 118.979C97.5552 118.979 97.4815 118.953 97.4209 118.901C97.3689 118.84 97.3429 118.767 97.3429 118.68V117.978C97.3429 117.891 97.3689 117.822 97.4209 117.77C97.4815 117.709 97.5552 117.679 97.6419 117.679H98.4609C98.5475 117.679 98.6169 117.709 98.6689 117.77C98.7295 117.822 98.7599 117.891 98.7599 117.978V118.68C98.7599 118.767 98.7295 118.84 98.6689 118.901C98.6169 118.953 98.5475 118.979 98.4609 118.979H97.6419ZM103.234 127C102.749 127 102.355 126.909 102.051 126.727C101.748 126.536 101.527 126.272 101.388 125.934C101.25 125.587 101.18 125.18 101.18 124.712V121.28H100.166C100.08 121.28 100.006 121.254 99.9453 121.202C99.8933 121.141 99.8673 121.068 99.8673 120.981V120.539C99.8673 120.452 99.8933 120.383 99.9453 120.331C100.006 120.27 100.08 120.24 100.166 120.24H101.18V118.069C101.18 117.982 101.206 117.913 101.258 117.861C101.319 117.8 101.393 117.77 101.479 117.77H102.09C102.177 117.77 102.246 117.8 102.298 117.861C102.359 117.913 102.389 117.982 102.389 118.069V120.24H104.001C104.088 120.24 104.157 120.27 104.209 120.331C104.27 120.383 104.3 120.452 104.3 120.539V120.981C104.3 121.068 104.27 121.141 104.209 121.202C104.157 121.254 104.088 121.28 104.001 121.28H102.389V124.621C102.389 125.028 102.459 125.349 102.597 125.583C102.736 125.817 102.983 125.934 103.338 125.934H104.131C104.218 125.934 104.287 125.964 104.339 126.025C104.4 126.077 104.43 126.146 104.43 126.233V126.701C104.43 126.788 104.4 126.861 104.339 126.922C104.287 126.974 104.218 127 104.131 127H103.234ZM108.364 127.13C107.472 127.13 106.761 126.857 106.232 126.311C105.704 125.756 105.413 125.002 105.361 124.049C105.353 123.936 105.348 123.793 105.348 123.62C105.348 123.438 105.353 123.291 105.361 123.178C105.396 122.563 105.539 122.025 105.79 121.566C106.042 121.098 106.384 120.738 106.817 120.487C107.259 120.236 107.775 120.11 108.364 120.11C109.023 120.11 109.573 120.249 110.015 120.526C110.466 120.803 110.808 121.198 111.042 121.709C111.276 122.22 111.393 122.818 111.393 123.503V123.724C111.393 123.819 111.363 123.893 111.302 123.945C111.25 123.997 111.181 124.023 111.094 124.023H106.596C106.596 124.032 106.596 124.049 106.596 124.075C106.596 124.101 106.596 124.123 106.596 124.14C106.614 124.495 106.692 124.829 106.83 125.141C106.969 125.444 107.168 125.691 107.428 125.882C107.688 126.073 108 126.168 108.364 126.168C108.676 126.168 108.936 126.12 109.144 126.025C109.352 125.93 109.521 125.826 109.651 125.713C109.781 125.592 109.868 125.501 109.911 125.44C109.989 125.327 110.05 125.262 110.093 125.245C110.137 125.219 110.206 125.206 110.301 125.206H110.925C111.012 125.206 111.081 125.232 111.133 125.284C111.194 125.327 111.22 125.392 111.211 125.479C111.203 125.609 111.133 125.769 111.003 125.96C110.873 126.142 110.687 126.324 110.444 126.506C110.202 126.688 109.907 126.84 109.56 126.961C109.214 127.074 108.815 127.13 108.364 127.13ZM106.596 123.126H110.158V123.087C110.158 122.697 110.085 122.35 109.937 122.047C109.799 121.744 109.595 121.505 109.326 121.332C109.058 121.15 108.737 121.059 108.364 121.059C107.992 121.059 107.671 121.15 107.402 121.332C107.142 121.505 106.943 121.744 106.804 122.047C106.666 122.35 106.596 122.697 106.596 123.087V123.126ZM113.247 127C113.16 127 113.087 126.974 113.026 126.922C112.974 126.861 112.948 126.788 112.948 126.701V120.552C112.948 120.465 112.974 120.392 113.026 120.331C113.087 120.27 113.16 120.24 113.247 120.24H113.845C113.932 120.24 114.005 120.27 114.066 120.331C114.127 120.392 114.157 120.465 114.157 120.552V121.124C114.33 120.829 114.569 120.608 114.872 120.461C115.175 120.314 115.539 120.24 115.964 120.24H116.484C116.571 120.24 116.64 120.27 116.692 120.331C116.744 120.383 116.77 120.452 116.77 120.539V121.072C116.77 121.159 116.744 121.228 116.692 121.28C116.64 121.332 116.571 121.358 116.484 121.358H115.704C115.236 121.358 114.868 121.497 114.599 121.774C114.33 122.043 114.196 122.411 114.196 122.879V126.701C114.196 126.788 114.166 126.861 114.105 126.922C114.044 126.974 113.971 127 113.884 127H113.247ZM119.67 127.13C119.236 127.13 118.842 127.043 118.487 126.87C118.131 126.697 117.845 126.463 117.629 126.168C117.412 125.873 117.304 125.54 117.304 125.167C117.304 124.569 117.546 124.092 118.032 123.737C118.517 123.382 119.15 123.148 119.93 123.035L121.867 122.762V122.385C121.867 121.969 121.745 121.644 121.503 121.41C121.269 121.176 120.883 121.059 120.346 121.059C119.956 121.059 119.639 121.137 119.397 121.293C119.163 121.449 118.998 121.648 118.903 121.891C118.851 122.021 118.76 122.086 118.63 122.086H118.045C117.949 122.086 117.876 122.06 117.824 122.008C117.78 121.947 117.759 121.878 117.759 121.8C117.759 121.67 117.806 121.51 117.902 121.319C118.006 121.128 118.162 120.942 118.37 120.76C118.578 120.578 118.842 120.426 119.163 120.305C119.492 120.175 119.891 120.11 120.359 120.11C120.879 120.11 121.316 120.179 121.672 120.318C122.027 120.448 122.304 120.626 122.504 120.851C122.712 121.076 122.859 121.332 122.946 121.618C123.041 121.904 123.089 122.194 123.089 122.489V126.701C123.089 126.788 123.058 126.861 122.998 126.922C122.946 126.974 122.876 127 122.79 127H122.192C122.096 127 122.023 126.974 121.971 126.922C121.919 126.861 121.893 126.788 121.893 126.701V126.142C121.78 126.298 121.628 126.454 121.438 126.61C121.247 126.757 121.009 126.883 120.723 126.987C120.437 127.082 120.086 127.13 119.67 127.13ZM119.943 126.155C120.298 126.155 120.623 126.081 120.918 125.934C121.212 125.778 121.442 125.54 121.607 125.219C121.78 124.898 121.867 124.495 121.867 124.01V123.646L120.359 123.867C119.743 123.954 119.28 124.101 118.968 124.309C118.656 124.508 118.5 124.764 118.5 125.076C118.5 125.319 118.569 125.522 118.708 125.687C118.855 125.843 119.037 125.96 119.254 126.038C119.479 126.116 119.709 126.155 119.943 126.155ZM127.533 127C127.048 127 126.653 126.909 126.35 126.727C126.047 126.536 125.826 126.272 125.687 125.934C125.548 125.587 125.479 125.18 125.479 124.712V121.28H124.465C124.378 121.28 124.305 121.254 124.244 121.202C124.192 121.141 124.166 121.068 124.166 120.981V120.539C124.166 120.452 124.192 120.383 124.244 120.331C124.305 120.27 124.378 120.24 124.465 120.24H125.479V118.069C125.479 117.982 125.505 117.913 125.557 117.861C125.618 117.8 125.691 117.77 125.778 117.77H126.389C126.476 117.77 126.545 117.8 126.597 117.861C126.658 117.913 126.688 117.982 126.688 118.069V120.24H128.3C128.387 120.24 128.456 120.27 128.508 120.331C128.569 120.383 128.599 120.452 128.599 120.539V120.981C128.599 121.068 128.569 121.141 128.508 121.202C128.456 121.254 128.387 121.28 128.3 121.28H126.688V124.621C126.688 125.028 126.757 125.349 126.896 125.583C127.035 125.817 127.282 125.934 127.637 125.934H128.43C128.517 125.934 128.586 125.964 128.638 126.025C128.699 126.077 128.729 126.146 128.729 126.233V126.701C128.729 126.788 128.699 126.861 128.638 126.922C128.586 126.974 128.517 127 128.43 127H127.533ZM132.494 127.13C131.94 127.13 131.467 127.009 131.077 126.766C130.696 126.515 130.406 126.168 130.206 125.726C130.007 125.284 129.907 124.777 129.907 124.205V120.539C129.907 120.452 129.933 120.383 129.985 120.331C130.046 120.27 130.12 120.24 130.206 120.24H130.856C130.943 120.24 131.012 120.27 131.064 120.331C131.125 120.383 131.155 120.452 131.155 120.539V124.14C131.155 125.431 131.719 126.077 132.845 126.077C133.383 126.077 133.812 125.908 134.132 125.57C134.462 125.223 134.626 124.747 134.626 124.14V120.539C134.626 120.452 134.652 120.383 134.704 120.331C134.765 120.27 134.839 120.24 134.925 120.24H135.562C135.658 120.24 135.731 120.27 135.783 120.331C135.835 120.383 135.861 120.452 135.861 120.539V126.701C135.861 126.788 135.835 126.861 135.783 126.922C135.731 126.974 135.658 127 135.562 127H134.964C134.878 127 134.804 126.974 134.743 126.922C134.691 126.861 134.665 126.788 134.665 126.701V126.129C134.431 126.432 134.145 126.675 133.807 126.857C133.478 127.039 133.04 127.13 132.494 127.13ZM138.092 127C138.005 127 137.931 126.974 137.871 126.922C137.819 126.861 137.793 126.788 137.793 126.701V120.552C137.793 120.465 137.819 120.392 137.871 120.331C137.931 120.27 138.005 120.24 138.092 120.24H138.69C138.776 120.24 138.85 120.27 138.911 120.331C138.971 120.392 139.002 120.465 139.002 120.552V121.124C139.175 120.829 139.413 120.608 139.717 120.461C140.02 120.314 140.384 120.24 140.809 120.24H141.329C141.415 120.24 141.485 120.27 141.537 120.331C141.589 120.383 141.615 120.452 141.615 120.539V121.072C141.615 121.159 141.589 121.228 141.537 121.28C141.485 121.332 141.415 121.358 141.329 121.358H140.549C140.081 121.358 139.712 121.497 139.444 121.774C139.175 122.043 139.041 122.411 139.041 122.879V126.701C139.041 126.788 139.01 126.861 138.95 126.922C138.889 126.974 138.815 127 138.729 127H138.092ZM144.514 127.13C144.081 127.13 143.687 127.043 143.331 126.87C142.976 126.697 142.69 126.463 142.473 126.168C142.257 125.873 142.148 125.54 142.148 125.167C142.148 124.569 142.391 124.092 142.876 123.737C143.362 123.382 143.994 123.148 144.774 123.035L146.711 122.762V122.385C146.711 121.969 146.59 121.644 146.347 121.41C146.113 121.176 145.728 121.059 145.19 121.059C144.8 121.059 144.484 121.137 144.241 121.293C144.007 121.449 143.843 121.648 143.747 121.891C143.695 122.021 143.604 122.086 143.474 122.086H142.889C142.794 122.086 142.72 122.06 142.668 122.008C142.625 121.947 142.603 121.878 142.603 121.8C142.603 121.67 142.651 121.51 142.746 121.319C142.85 121.128 143.006 120.942 143.214 120.76C143.422 120.578 143.687 120.426 144.007 120.305C144.337 120.175 144.735 120.11 145.203 120.11C145.723 120.11 146.161 120.179 146.516 120.318C146.872 120.448 147.149 120.626 147.348 120.851C147.556 121.076 147.704 121.332 147.79 121.618C147.886 121.904 147.933 122.194 147.933 122.489V126.701C147.933 126.788 147.903 126.861 147.842 126.922C147.79 126.974 147.721 127 147.634 127H147.036C146.941 127 146.867 126.974 146.815 126.922C146.763 126.861 146.737 126.788 146.737 126.701V126.142C146.625 126.298 146.473 126.454 146.282 126.61C146.092 126.757 145.853 126.883 145.567 126.987C145.281 127.082 144.93 127.13 144.514 127.13ZM144.787 126.155C145.143 126.155 145.468 126.081 145.762 125.934C146.057 125.778 146.287 125.54 146.451 125.219C146.625 124.898 146.711 124.495 146.711 124.01V123.646L145.203 123.867C144.588 123.954 144.124 124.101 143.812 124.309C143.5 124.508 143.344 124.764 143.344 125.076C143.344 125.319 143.414 125.522 143.552 125.687C143.7 125.843 143.882 125.96 144.098 126.038C144.324 126.116 144.553 126.155 144.787 126.155Z" fill="#EBECEE"/>
<rect x="100.5" y="134" width="37" height="25" rx="12.5" fill="#DC6A2C"/>
<path d="M113.342 151.14C112.67 151.14 112.086 151.047 111.592 150.86C111.097 150.664 110.686 150.398 110.36 150.062C110.042 149.726 109.8 149.334 109.632 148.886C109.464 148.438 109.366 147.957 109.338 147.444C109.328 147.192 109.319 146.907 109.31 146.59C109.31 146.263 109.31 145.937 109.31 145.61C109.319 145.274 109.328 144.975 109.338 144.714C109.366 144.201 109.464 143.725 109.632 143.286C109.809 142.838 110.061 142.451 110.388 142.124C110.724 141.788 111.134 141.527 111.62 141.34C112.114 141.153 112.688 141.06 113.342 141.06C114.004 141.06 114.578 141.153 115.064 141.34C115.549 141.527 115.955 141.788 116.282 142.124C116.618 142.451 116.874 142.838 117.052 143.286C117.229 143.725 117.327 144.201 117.346 144.714C117.364 144.975 117.374 145.274 117.374 145.61C117.383 145.937 117.383 146.263 117.374 146.59C117.374 146.907 117.364 147.192 117.346 147.444C117.327 147.957 117.229 148.438 117.052 148.886C116.884 149.334 116.636 149.726 116.31 150.062C115.992 150.398 115.586 150.664 115.092 150.86C114.606 151.047 114.023 151.14 113.342 151.14ZM113.342 149.11C113.827 149.11 114.177 148.956 114.392 148.648C114.616 148.331 114.732 147.906 114.742 147.374C114.76 147.103 114.77 146.819 114.77 146.52C114.779 146.221 114.779 145.923 114.77 145.624C114.77 145.325 114.76 145.05 114.742 144.798C114.732 144.285 114.616 143.869 114.392 143.552C114.177 143.235 113.827 143.071 113.342 143.062C112.856 143.071 112.506 143.235 112.292 143.552C112.077 143.869 111.96 144.285 111.942 144.798C111.932 145.05 111.923 145.325 111.914 145.624C111.914 145.923 111.914 146.221 111.914 146.52C111.923 146.819 111.932 147.103 111.942 147.374C111.96 147.906 112.082 148.331 112.306 148.648C112.53 148.956 112.875 149.11 113.342 149.11ZM119.679 151C119.465 151 119.357 150.907 119.357 150.72C119.357 150.664 119.376 150.613 119.413 150.566L126.329 141.466C126.395 141.382 126.46 141.317 126.525 141.27C126.591 141.223 126.689 141.2 126.819 141.2H127.813C128.028 141.2 128.135 141.293 128.135 141.48C128.135 141.536 128.117 141.587 128.079 141.634L121.163 150.734C121.098 150.818 121.033 150.883 120.967 150.93C120.902 150.977 120.804 151 120.673 151H119.679ZM126.721 151.07C126.087 151.07 125.578 150.902 125.195 150.566C124.822 150.23 124.612 149.782 124.565 149.222C124.556 148.979 124.551 148.765 124.551 148.578C124.551 148.391 124.556 148.167 124.565 147.906C124.603 147.337 124.803 146.884 125.167 146.548C125.541 146.203 126.059 146.03 126.721 146.03C127.393 146.03 127.911 146.203 128.275 146.548C128.639 146.884 128.84 147.337 128.877 147.906C128.896 148.167 128.905 148.391 128.905 148.578C128.905 148.765 128.896 148.979 128.877 149.222C128.84 149.782 128.63 150.23 128.247 150.566C127.865 150.902 127.356 151.07 126.721 151.07ZM126.721 149.838C126.88 149.838 127.001 149.805 127.085 149.74C127.179 149.675 127.249 149.591 127.295 149.488C127.342 149.376 127.365 149.259 127.365 149.138C127.384 148.923 127.393 148.727 127.393 148.55C127.393 148.373 127.384 148.181 127.365 147.976C127.356 147.799 127.305 147.64 127.211 147.5C127.118 147.351 126.955 147.276 126.721 147.276C126.488 147.276 126.325 147.351 126.231 147.5C126.138 147.64 126.087 147.799 126.077 147.976C126.068 148.181 126.063 148.373 126.063 148.55C126.063 148.727 126.068 148.923 126.077 149.138C126.087 149.259 126.11 149.376 126.147 149.488C126.194 149.591 126.264 149.675 126.357 149.74C126.451 149.805 126.572 149.838 126.721 149.838ZM120.799 146.142C120.155 146.142 119.642 145.979 119.259 145.652C118.886 145.316 118.681 144.868 118.643 144.308C118.625 144.065 118.615 143.855 118.615 143.678C118.625 143.491 118.634 143.267 118.643 143.006C118.671 142.437 118.867 141.984 119.231 141.648C119.605 141.303 120.127 141.13 120.799 141.13C121.471 141.13 121.989 141.303 122.353 141.648C122.717 141.984 122.913 142.437 122.941 143.006C122.96 143.267 122.969 143.491 122.969 143.678C122.969 143.855 122.96 144.065 122.941 144.308C122.913 144.868 122.708 145.316 122.325 145.652C121.943 145.979 121.434 146.142 120.799 146.142ZM120.799 144.938C120.949 144.938 121.07 144.905 121.163 144.84C121.257 144.765 121.327 144.677 121.373 144.574C121.42 144.462 121.443 144.35 121.443 144.238C121.462 144.023 121.471 143.827 121.471 143.65C121.471 143.473 121.462 143.281 121.443 143.076C121.434 142.899 121.378 142.74 121.275 142.6C121.182 142.451 121.023 142.376 120.799 142.376C120.566 142.376 120.398 142.451 120.295 142.6C120.202 142.74 120.151 142.899 120.141 143.076C120.132 143.281 120.127 143.473 120.127 143.65C120.127 143.827 120.132 144.023 120.141 144.238C120.151 144.35 120.174 144.462 120.211 144.574C120.258 144.677 120.328 144.765 120.421 144.84C120.515 144.905 120.641 144.938 120.799 144.938Z" fill="#EBECEE"/>
<g filter="url(#filter1_d_15958_23126)">
<rect x="148" y="74" width="32" height="32" rx="16" fill="white"/>
<rect x="147" y="73" width="34" height="34" rx="17" stroke="#1DA534" stroke-width="2"/>
<path opacity="0.4" d="M164 100C169.523 100 174 95.5228 174 90C174 84.4772 169.523 80 164 80C158.477 80 154 84.4772 154 90C154 95.5228 158.477 100 164 100Z" fill="#1DA534"/>
<path d="M162.579 93.5801C162.379 93.5801 162.189 93.5001 162.049 93.3601L159.219 90.5301C158.929 90.2401 158.929 89.7601 159.219 89.4701C159.509 89.1801 159.989 89.1801 160.279 89.4701L162.579 91.7701L167.719 86.6301C168.009 86.3401 168.489 86.3401 168.779 86.6301C169.069 86.9201 169.069 87.4001 168.779 87.6901L163.109 93.3601C162.969 93.5001 162.779 93.5801 162.579 93.5801Z" fill="#1DA534"/>
</g>
</g>
<defs>
<filter id="filter0_d_15958_23126" x="0" y="0" width="242" height="238" filterUnits="userSpaceOnUse" color-interpolation-filters="sRGB">
<feFlood flood-opacity="0" result="BackgroundImageFix"/>
<feColorMatrix in="SourceAlpha" type="matrix" values="0 0 0 0 0 0 0 0 0 0 0 0 0 0 0 0 0 0 127 0" result="hardAlpha"/>
<feOffset/>
<feGaussianBlur stdDeviation="30"/>
<feComposite in2="hardAlpha" operator="out"/>
<feColorMatrix type="matrix" values="0 0 0 0 0.858824 0 0 0 0 0.419608 0 0 0 0 0.188235 0 0 0 1 0"/>
<feBlend mode="normal" in2="BackgroundImageFix" result="effect1_dropShadow_15958_23126"/>
<feBlend mode="normal" in="SourceGraphic" in2="effect1_dropShadow_15958_23126" result="shape"/>
</filter>
<filter id="filter1_d_15958_23126" x="131" y="65" width="66" height="66" filterUnits="userSpaceOnUse" color-interpolation-filters="sRGB">
<feFlood flood-opacity="0" result="BackgroundImageFix"/>
<feColorMatrix in="SourceAlpha" type="matrix" values="0 0 0 0 0 0 0 0 0 0 0 0 0 0 0 0 0 0 127 0" result="hardAlpha"/>
<feOffset dy="8"/>
<feGaussianBlur stdDeviation="7.5"/>
<feColorMatrix type="matrix" values="0 0 0 0 0 0 0 0 0 0 0 0 0 0 0 0 0 0 0.25 0"/>
<feBlend mode="normal" in2="BackgroundImageFix" result="effect1_dropShadow_15958_23126"/>
<feBlend mode="normal" in="SourceGraphic" in2="effect1_dropShadow_15958_23126" result="shape"/>
</filter>
<clipPath id="clip0_15958_23126">
<rect width="32" height="32" fill="white" transform="translate(103 79)"/>
</clipPath>
</defs>
</svg>
