<svg width="122" height="118" viewBox="0 0 122 118" fill="none" xmlns="http://www.w3.org/2000/svg">
<rect x="2" y="2" width="114" height="114" rx="57" fill="#EAA7FC" fill-opacity="0.15"/>
<rect x="2" y="2" width="114" height="114" rx="57" stroke="#D598E5" stroke-width="4"/>
<path opacity="0.4" d="M64.586 14.1665H53.4127C48.5593 14.1665 45.666 17.0598 45.666 21.9132V33.0865C45.666 37.9398 48.5593 40.8332 53.4127 40.8332H64.586C69.4393 40.8332 72.3327 37.9398 72.3327 33.0865V21.9132C72.3327 17.0598 69.4393 14.1665 64.586 14.1665Z" fill="#D598E5"/>
<path d="M67.4141 23.3267C67.4141 23.8733 66.9741 24.3267 66.4141 24.3267H59.4141C58.8674 24.3267 58.4141 23.8733 58.4141 23.3267C58.4141 22.78 58.8674 22.3267 59.4141 22.3267H66.4141C66.9741 22.3267 67.4141 22.78 67.4141 23.3267Z" fill="#D598E5"/>
<path d="M56.2934 22.0334L53.2934 25.0334C53.0934 25.2334 52.8401 25.3267 52.5867 25.3267C52.3334 25.3267 52.0667 25.2334 51.8801 25.0334L50.8801 24.0334C50.4801 23.6467 50.4801 23.0067 50.8801 22.6201C51.2667 22.2334 51.8934 22.2334 52.2934 22.6201L52.5867 22.9134L54.8801 20.6201C55.2667 20.2334 55.8934 20.2334 56.2934 20.6201C56.6801 21.0067 56.6801 21.6467 56.2934 22.0334Z" fill="#D598E5"/>
<path d="M67.4141 32.6602C67.4141 33.2068 66.9741 33.6602 66.4141 33.6602H59.4141C58.8674 33.6602 58.4141 33.2068 58.4141 32.6602C58.4141 32.1135 58.8674 31.6602 59.4141 31.6602H66.4141C66.9741 31.6602 67.4141 32.1135 67.4141 32.6602Z" fill="#D598E5"/>
<path d="M56.2934 31.3669L53.2934 34.3669C53.0934 34.5669 52.8401 34.6602 52.5867 34.6602C52.3334 34.6602 52.0667 34.5669 51.8801 34.3669L50.8801 33.3669C50.4801 32.9802 50.4801 32.3402 50.8801 31.9536C51.2667 31.5669 51.8934 31.5669 52.2934 31.9536L52.5867 32.2469L54.8801 29.9536C55.2667 29.5669 55.8934 29.5669 56.2934 29.9536C56.6801 30.3402 56.6801 30.9802 56.2934 31.3669Z" fill="#D598E5"/>
<path d="M24.4876 57.446L23.8116 59.175C23.7336 59.3917 23.5646 59.5 23.3046 59.5H22.8236C22.7456 59.5 22.6763 59.474 22.6156 59.422C22.5636 59.3613 22.5376 59.292 22.5376 59.214C22.5376 59.1707 22.5549 59.11 22.5896 59.032L25.7746 50.829C25.8873 50.543 26.0823 50.4 26.3596 50.4H27.1396C27.4169 50.4 27.6119 50.543 27.7246 50.829L30.8966 59.032C30.9313 59.11 30.9486 59.1707 30.9486 59.214C30.9486 59.292 30.9183 59.3613 30.8576 59.422C30.8056 59.474 30.7406 59.5 30.6626 59.5H30.1816C29.9216 59.5 29.7526 59.3917 29.6746 59.175L28.9986 57.446H24.4876ZM28.5436 56.276L26.7496 51.635L24.9426 56.276H28.5436ZM36.7815 50.621C36.7815 50.5257 36.8162 50.4433 36.8855 50.374C36.9549 50.3047 37.0372 50.27 37.1325 50.27H37.6135C37.7089 50.27 37.7912 50.3047 37.8605 50.374C37.9299 50.4433 37.9645 50.5257 37.9645 50.621V59.149C37.9645 59.2443 37.9299 59.3267 37.8605 59.396C37.7912 59.4653 37.7089 59.5 37.6135 59.5H37.1325C37.0372 59.5 36.9549 59.4653 36.8855 59.396C36.8162 59.3267 36.7815 59.2443 36.7815 59.149V58.746C36.3395 59.3353 35.6679 59.63 34.7665 59.63C34.2292 59.63 33.7395 59.5043 33.2975 59.253C32.8642 59.0017 32.5132 58.642 32.2445 58.174C31.9845 57.706 31.8415 57.16 31.8155 56.536L31.8025 56.107L31.8155 55.691C31.8415 55.067 31.9845 54.5253 32.2445 54.066C32.5132 53.598 32.8642 53.2383 33.2975 52.987C33.7309 52.7357 34.2205 52.61 34.7665 52.61C35.2519 52.61 35.6592 52.6967 35.9885 52.87C36.3265 53.0347 36.5909 53.2427 36.7815 53.494V50.621ZM36.7815 55.652C36.7555 55.0453 36.5735 54.573 36.2355 54.235C35.8975 53.897 35.4512 53.728 34.8965 53.728C34.3332 53.728 33.8825 53.91 33.5445 54.274C33.2152 54.638 33.0332 55.132 32.9985 55.756L32.9855 56.12L32.9985 56.484C33.0332 57.108 33.2152 57.602 33.5445 57.966C33.8825 58.33 34.3332 58.512 34.8965 58.512C35.4339 58.512 35.8759 58.3473 36.2225 58.018C36.5692 57.68 36.7555 57.2337 36.7815 56.679C36.7902 56.5923 36.7945 56.419 36.7945 56.159C36.7945 55.9077 36.7902 55.7387 36.7815 55.652ZM41.0931 53.494C41.3011 53.2253 41.5351 53.013 41.7951 52.857C42.0551 52.6923 42.4017 52.61 42.8351 52.61C43.8491 52.61 44.5597 52.987 44.9671 53.741C45.2184 53.377 45.5044 53.0997 45.8251 52.909C46.1457 52.7097 46.5661 52.61 47.0861 52.61C47.9354 52.61 48.5637 52.8657 48.9711 53.377C49.3871 53.8883 49.5951 54.612 49.5951 55.548V59.149C49.5951 59.2443 49.5604 59.3267 49.4911 59.396C49.4217 59.4653 49.3394 59.5 49.2441 59.5H48.7631C48.6677 59.5 48.5854 59.4653 48.5161 59.396C48.4467 59.3267 48.4121 59.2443 48.4121 59.149V55.678C48.4121 54.378 47.9007 53.728 46.8781 53.728C46.4101 53.728 46.0374 53.884 45.7601 54.196C45.4827 54.508 45.3441 54.9717 45.3441 55.587V59.149C45.3441 59.2443 45.3094 59.3267 45.2401 59.396C45.1707 59.4653 45.0884 59.5 44.9931 59.5H44.5121C44.4167 59.5 44.3344 59.4653 44.2651 59.396C44.1957 59.3267 44.1611 59.2443 44.1611 59.149V55.678C44.1611 54.378 43.6497 53.728 42.6271 53.728C42.1591 53.728 41.7864 53.884 41.5091 54.196C41.2317 54.508 41.0931 54.9717 41.0931 55.587V59.149C41.0931 59.2443 41.0584 59.3267 40.9891 59.396C40.9197 59.4653 40.8374 59.5 40.7421 59.5H40.2611C40.1657 59.5 40.0834 59.4653 40.0141 59.396C39.9447 59.3267 39.9101 59.2443 39.9101 59.149V53.091C39.9101 52.9957 39.9447 52.9133 40.0141 52.844C40.0834 52.7747 40.1657 52.74 40.2611 52.74H40.7421C40.8374 52.74 40.9197 52.7747 40.9891 52.844C41.0584 52.9133 41.0931 52.9957 41.0931 53.091V53.494ZM52.7885 51.362C52.7885 51.4573 52.7538 51.5397 52.6845 51.609C52.6152 51.6783 52.5328 51.713 52.4375 51.713H51.6965C51.6012 51.713 51.5188 51.6783 51.4495 51.609C51.3802 51.5397 51.3455 51.4573 51.3455 51.362V50.621C51.3455 50.5257 51.3802 50.4433 51.4495 50.374C51.5188 50.3047 51.6012 50.27 51.6965 50.27H52.4375C52.5328 50.27 52.6152 50.3047 52.6845 50.374C52.7538 50.4433 52.7885 50.5257 52.7885 50.621V51.362ZM52.6585 59.149C52.6585 59.2443 52.6238 59.3267 52.5545 59.396C52.4852 59.4653 52.4028 59.5 52.3075 59.5H51.8265C51.7312 59.5 51.6488 59.4653 51.5795 59.396C51.5102 59.3267 51.4755 59.2443 51.4755 59.149V53.091C51.4755 52.9957 51.5102 52.9133 51.5795 52.844C51.6488 52.7747 51.7312 52.74 51.8265 52.74H52.3075C52.4028 52.74 52.4852 52.7747 52.5545 52.844C52.6238 52.9133 52.6585 52.9957 52.6585 53.091V59.149ZM60.6172 59.149C60.6172 59.2443 60.5826 59.3267 60.5132 59.396C60.4439 59.4653 60.3616 59.5 60.2662 59.5H59.7852C59.6899 59.5 59.6076 59.4653 59.5382 59.396C59.4689 59.3267 59.4342 59.2443 59.4342 59.149V55.717C59.4342 55.067 59.2739 54.573 58.9532 54.235C58.6326 53.897 58.1862 53.728 57.6142 53.728C57.0509 53.728 56.6046 53.897 56.2752 54.235C55.9546 54.573 55.7942 55.067 55.7942 55.717V59.149C55.7942 59.2443 55.7596 59.3267 55.6902 59.396C55.6209 59.4653 55.5386 59.5 55.4432 59.5H54.9622C54.8669 59.5 54.7846 59.4653 54.7152 59.396C54.6459 59.3267 54.6112 59.2443 54.6112 59.149V53.091C54.6112 52.9957 54.6459 52.9133 54.7152 52.844C54.7846 52.7747 54.8669 52.74 54.9622 52.74H55.4432C55.5386 52.74 55.6209 52.7747 55.6902 52.844C55.7596 52.9133 55.7942 52.9957 55.7942 53.091V53.494C55.9849 53.2427 56.2449 53.0347 56.5742 52.87C56.9122 52.6967 57.3239 52.61 57.8092 52.61C58.3552 52.61 58.8406 52.727 59.2652 52.961C59.6899 53.195 60.0192 53.533 60.2532 53.975C60.4959 54.4083 60.6172 54.924 60.6172 55.522V59.149ZM63.8207 51.362C63.8207 51.4573 63.786 51.5397 63.7167 51.609C63.6474 51.6783 63.565 51.713 63.4697 51.713H62.7287C62.6334 51.713 62.551 51.6783 62.4817 51.609C62.4124 51.5397 62.3777 51.4573 62.3777 51.362V50.621C62.3777 50.5257 62.4124 50.4433 62.4817 50.374C62.551 50.3047 62.6334 50.27 62.7287 50.27H63.4697C63.565 50.27 63.6474 50.3047 63.7167 50.374C63.786 50.4433 63.8207 50.5257 63.8207 50.621V51.362ZM63.6907 59.149C63.6907 59.2443 63.656 59.3267 63.5867 59.396C63.5174 59.4653 63.435 59.5 63.3397 59.5H62.8587C62.7634 59.5 62.681 59.4653 62.6117 59.396C62.5424 59.3267 62.5077 59.2443 62.5077 59.149V53.091C62.5077 52.9957 62.5424 52.9133 62.6117 52.844C62.681 52.7747 62.7634 52.74 62.8587 52.74H63.3397C63.435 52.74 63.5174 52.7747 63.5867 52.844C63.656 52.9133 63.6907 52.9957 63.6907 53.091V59.149ZM67.2685 56.497C66.0031 56.2283 65.3705 55.5827 65.3705 54.56C65.3705 54.2047 65.4658 53.8797 65.6565 53.585C65.8471 53.2903 66.1288 53.0563 66.5015 52.883C66.8828 52.701 67.3465 52.61 67.8925 52.61C68.4298 52.61 68.8935 52.688 69.2835 52.844C69.6735 53 69.9681 53.195 70.1675 53.429C70.3755 53.663 70.4795 53.8883 70.4795 54.105C70.4795 54.1917 70.4448 54.2697 70.3755 54.339C70.3061 54.3997 70.2238 54.43 70.1285 54.43H69.6995C69.5348 54.43 69.4048 54.3693 69.3095 54.248C69.0408 53.9013 68.5685 53.728 67.8925 53.728C67.4938 53.728 67.1688 53.8017 66.9175 53.949C66.6748 54.0963 66.5535 54.3 66.5535 54.56C66.5535 54.7767 66.6141 54.9413 66.7355 55.054C66.8568 55.1667 67.0388 55.2577 67.2815 55.327C67.5241 55.3963 67.9531 55.5003 68.5685 55.639C69.3311 55.8037 69.8728 56.055 70.1935 56.393C70.5141 56.731 70.6745 57.1427 70.6745 57.628C70.6745 57.9833 70.5618 58.3127 70.3365 58.616C70.1198 58.9193 69.8035 59.1663 69.3875 59.357C68.9801 59.539 68.5035 59.63 67.9575 59.63C67.4201 59.63 66.9435 59.5477 66.5275 59.383C66.1201 59.2097 65.8038 59.0017 65.5785 58.759C65.3531 58.5163 65.2405 58.2867 65.2405 58.07C65.2405 57.9833 65.2751 57.9097 65.3445 57.849C65.4138 57.7797 65.4961 57.745 65.5915 57.745H66.0595C66.1375 57.745 66.2068 57.7537 66.2675 57.771C66.3281 57.7883 66.3845 57.836 66.4365 57.914C66.7225 58.3127 67.2295 58.512 67.9575 58.512C68.3648 58.512 68.7201 58.4297 69.0235 58.265C69.3355 58.0917 69.4915 57.8793 69.4915 57.628C69.4915 57.42 69.4135 57.2553 69.2575 57.134C69.1101 57.004 68.8935 56.9 68.6075 56.822C68.3215 56.7353 67.8751 56.627 67.2685 56.497ZM73.9876 57.225C73.9876 57.5977 74.0613 57.8837 74.2086 58.083C74.3646 58.2823 74.655 58.382 75.0796 58.382H75.7686C75.864 58.382 75.9463 58.4167 76.0156 58.486C76.085 58.5553 76.1196 58.6377 76.1196 58.733V59.149C76.1196 59.2443 76.085 59.3267 76.0156 59.396C75.9463 59.4653 75.864 59.5 75.7686 59.5H74.9496C74.213 59.5 73.6713 59.3093 73.3246 58.928C72.978 58.538 72.8046 57.9703 72.8046 57.225V53.858H71.8426C71.7473 53.858 71.665 53.8233 71.5956 53.754C71.5263 53.6847 71.4916 53.6023 71.4916 53.507V53.091C71.4916 52.9957 71.5263 52.9133 71.5956 52.844C71.665 52.7747 71.7473 52.74 71.8426 52.74H72.8046V50.621C72.8046 50.5257 72.8393 50.4433 72.9086 50.374C72.978 50.3047 73.0603 50.27 73.1556 50.27H73.6366C73.732 50.27 73.8143 50.3047 73.8836 50.374C73.953 50.4433 73.9876 50.5257 73.9876 50.621V52.74H75.6386C75.734 52.74 75.8163 52.7747 75.8856 52.844C75.955 52.9133 75.9896 52.9957 75.9896 53.091V53.507C75.9896 53.6023 75.955 53.6847 75.8856 53.754C75.8163 53.8233 75.734 53.858 75.6386 53.858H73.9876V57.225ZM80.8567 52.74C80.952 52.74 81.0344 52.7747 81.1037 52.844C81.173 52.9133 81.2077 52.9957 81.2077 53.091V53.507C81.2077 53.6023 81.173 53.6847 81.1037 53.754C81.0344 53.8233 80.952 53.858 80.8567 53.858H80.1027C79.6174 53.858 79.2447 53.988 78.9847 54.248C78.7334 54.4993 78.6077 54.8677 78.6077 55.353V59.149C78.6077 59.2443 78.573 59.3267 78.5037 59.396C78.4344 59.4653 78.352 59.5 78.2567 59.5H77.7757C77.6804 59.5 77.598 59.4653 77.5287 59.396C77.4594 59.3267 77.4247 59.2443 77.4247 59.149V53.091C77.4247 52.9957 77.4594 52.9133 77.5287 52.844C77.598 52.7747 77.6804 52.74 77.7757 52.74H78.2567C78.352 52.74 78.4344 52.7747 78.5037 52.844C78.573 52.9133 78.6077 52.9957 78.6077 53.091V53.494C78.781 53.234 78.989 53.0433 79.2317 52.922C79.4744 52.8007 79.7907 52.74 80.1807 52.74H80.8567ZM86.3548 55.223V55.054C86.3548 54.6293 86.2118 54.3043 85.9258 54.079C85.6485 53.845 85.2845 53.728 84.8338 53.728C84.4871 53.728 84.2141 53.7887 84.0148 53.91C83.8241 54.0227 83.6421 54.196 83.4688 54.43C83.4168 54.4993 83.3605 54.547 83.2998 54.573C83.2391 54.599 83.1568 54.612 83.0528 54.612H82.6628C82.5675 54.612 82.4808 54.5773 82.4028 54.508C82.3335 54.4387 82.3031 54.3563 82.3118 54.261C82.3378 54.001 82.4635 53.7453 82.6888 53.494C82.9228 53.234 83.2305 53.0217 83.6118 52.857C83.9931 52.6923 84.4005 52.61 84.8338 52.61C85.6398 52.61 86.2898 52.8353 86.7838 53.286C87.2865 53.7367 87.5378 54.3693 87.5378 55.184V59.149C87.5378 59.2443 87.5031 59.3267 87.4338 59.396C87.3645 59.4653 87.2821 59.5 87.1868 59.5H86.7058C86.6105 59.5 86.5281 59.4653 86.4588 59.396C86.3895 59.3267 86.3548 59.2443 86.3548 59.149V58.616C86.2161 58.928 85.9215 59.175 85.4708 59.357C85.0201 59.539 84.5695 59.63 84.1188 59.63C83.6768 59.63 83.2825 59.552 82.9358 59.396C82.5891 59.2313 82.3205 59.0103 82.1298 58.733C81.9478 58.4557 81.8568 58.1437 81.8568 57.797C81.8568 57.147 82.0995 56.64 82.5848 56.276C83.0701 55.9033 83.7158 55.652 84.5218 55.522L86.3548 55.223ZM86.3548 56.263L84.8208 56.51C84.2575 56.5967 83.8198 56.7397 83.5078 56.939C83.1958 57.1297 83.0398 57.3723 83.0398 57.667C83.0398 57.8837 83.1395 58.0787 83.3388 58.252C83.5381 58.4253 83.8415 58.512 84.2488 58.512C84.8728 58.512 85.3798 58.3343 85.7698 57.979C86.1598 57.6237 86.3548 57.16 86.3548 56.588V56.263ZM92.1645 58.512C93.0311 58.512 93.6161 58.174 93.9195 57.498C93.9801 57.368 94.0408 57.277 94.1015 57.225C94.1621 57.173 94.2445 57.147 94.3485 57.147H94.7385C94.8338 57.147 94.9161 57.1817 94.9855 57.251C95.0548 57.3117 95.0895 57.3853 95.0895 57.472C95.0895 57.7667 94.9725 58.083 94.7385 58.421C94.5045 58.759 94.1665 59.045 93.7245 59.279C93.2825 59.513 92.7625 59.63 92.1645 59.63C91.5491 59.63 91.0161 59.5 90.5655 59.24C90.1148 58.98 89.7681 58.6247 89.5255 58.174C89.2828 57.7147 89.1485 57.2033 89.1225 56.64C89.1138 56.536 89.1095 56.3367 89.1095 56.042C89.1095 55.834 89.1138 55.6867 89.1225 55.6C89.2005 54.716 89.4995 53.9967 90.0195 53.442C90.5395 52.8873 91.2545 52.61 92.1645 52.61C92.7625 52.61 93.2781 52.727 93.7115 52.961C94.1535 53.1863 94.4871 53.468 94.7125 53.806C94.9465 54.1353 95.0721 54.4473 95.0895 54.742C95.0981 54.8373 95.0635 54.9197 94.9855 54.989C94.9161 55.0583 94.8338 55.093 94.7385 55.093H94.3485C94.2445 55.093 94.1621 55.067 94.1015 55.015C94.0408 54.963 93.9801 54.872 93.9195 54.742C93.6161 54.066 93.0311 53.728 92.1645 53.728C91.6878 53.728 91.2718 53.8883 90.9165 54.209C90.5611 54.5297 90.3575 55.015 90.3055 55.665C90.2968 55.7603 90.2925 55.9163 90.2925 56.133C90.2925 56.3323 90.2968 56.4797 90.3055 56.575C90.3661 57.225 90.5698 57.7103 90.9165 58.031C91.2718 58.3517 91.6878 58.512 92.1645 58.512ZM52.0204 66.362C52.0204 66.4573 51.9858 66.5397 51.9164 66.609C51.8471 66.6783 51.7648 66.713 51.6694 66.713H50.9284C50.8331 66.713 50.7508 66.6783 50.6814 66.609C50.6121 66.5397 50.5774 66.4573 50.5774 66.362V65.621C50.5774 65.5257 50.6121 65.4433 50.6814 65.374C50.7508 65.3047 50.8331 65.27 50.9284 65.27H51.6694C51.7648 65.27 51.8471 65.3047 51.9164 65.374C51.9858 65.4433 52.0204 65.5257 52.0204 65.621V66.362ZM51.8904 74.149C51.8904 74.2443 51.8558 74.3267 51.7864 74.396C51.7171 74.4653 51.6348 74.5 51.5394 74.5H51.0584C50.9631 74.5 50.8808 74.4653 50.8114 74.396C50.7421 74.3267 50.7074 74.2443 50.7074 74.149V68.091C50.7074 67.9957 50.7421 67.9133 50.8114 67.844C50.8808 67.7747 50.9631 67.74 51.0584 67.74H51.5394C51.6348 67.74 51.7171 67.7747 51.7864 67.844C51.8558 67.9133 51.8904 67.9957 51.8904 68.091V74.149ZM59.6932 70.509C59.7105 70.6997 59.7192 70.9077 59.7192 71.133C59.7192 71.341 59.7105 71.5403 59.6932 71.731C59.6152 72.615 59.3075 73.3213 58.7702 73.85C58.2415 74.37 57.5222 74.63 56.6122 74.63C55.7022 74.63 54.9785 74.37 54.4412 73.85C53.9125 73.3213 53.6092 72.615 53.5312 71.731C53.5225 71.6357 53.5182 71.4363 53.5182 71.133C53.5182 70.8123 53.5225 70.6043 53.5312 70.509C53.6005 69.625 53.9038 68.923 54.4412 68.403C54.9785 67.8743 55.7022 67.61 56.6122 67.61C57.5222 67.61 58.2458 67.8743 58.7832 68.403C59.3205 68.923 59.6238 69.625 59.6932 70.509ZM58.5102 70.574C58.4582 70.0193 58.2718 69.573 57.9512 69.235C57.6392 68.897 57.1928 68.728 56.6122 68.728C56.0315 68.728 55.5808 68.897 55.2602 69.235C54.9482 69.573 54.7662 70.0193 54.7142 70.574C54.7055 70.678 54.7012 70.8643 54.7012 71.133C54.7012 71.393 54.7055 71.5707 54.7142 71.666C54.7662 72.2207 54.9482 72.667 55.2602 73.005C55.5808 73.343 56.0315 73.512 56.6122 73.512C57.1928 73.512 57.6392 73.343 57.9512 73.005C58.2718 72.667 58.4582 72.2207 58.5102 71.666C58.5275 71.4753 58.5362 71.2977 58.5362 71.133C58.5362 70.9683 58.5275 70.782 58.5102 70.574ZM57.0022 65.192C57.0975 65.088 57.1755 65.023 57.2362 64.997C57.2968 64.9623 57.3792 64.945 57.4832 64.945H58.4452C58.5232 64.945 58.5838 64.971 58.6272 65.023C58.6705 65.0663 58.6922 65.127 58.6922 65.205C58.6922 65.2657 58.6705 65.3177 58.6272 65.361L57.1842 66.544C57.0888 66.622 57.0022 66.6783 56.9242 66.713C56.8548 66.7477 56.7595 66.765 56.6382 66.765H56.1572C56.0185 66.765 55.9492 66.6957 55.9492 66.557C55.9492 66.4877 55.9708 66.4313 56.0142 66.388L57.0022 65.192ZM67.3521 74.149C67.3521 74.2443 67.3174 74.3267 67.2481 74.396C67.1788 74.4653 67.0964 74.5 67.0011 74.5H66.5201C66.4248 74.5 66.3424 74.4653 66.2731 74.396C66.2038 74.3267 66.1691 74.2443 66.1691 74.149V70.717C66.1691 70.067 66.0088 69.573 65.6881 69.235C65.3674 68.897 64.9211 68.728 64.3491 68.728C63.7858 68.728 63.3394 68.897 63.0101 69.235C62.6894 69.573 62.5291 70.067 62.5291 70.717V74.149C62.5291 74.2443 62.4944 74.3267 62.4251 74.396C62.3558 74.4653 62.2734 74.5 62.1781 74.5H61.6971C61.6018 74.5 61.5194 74.4653 61.4501 74.396C61.3808 74.3267 61.3461 74.2443 61.3461 74.149V68.091C61.3461 67.9957 61.3808 67.9133 61.4501 67.844C61.5194 67.7747 61.6018 67.74 61.6971 67.74H62.1781C62.2734 67.74 62.3558 67.7747 62.4251 67.844C62.4944 67.9133 62.5291 67.9957 62.5291 68.091V68.494C62.7198 68.2427 62.9798 68.0347 63.3091 67.87C63.6471 67.6967 64.0588 67.61 64.5441 67.61C65.0901 67.61 65.5754 67.727 66.0001 67.961C66.4248 68.195 66.7541 68.533 66.9881 68.975C67.2308 69.4083 67.3521 69.924 67.3521 70.522V74.149Z" fill="#EBECEE"/>
<rect x="40" y="81.5" width="38" height="25" rx="12.5" fill="#D598E5"/>
<path d="M57.1579 92.354C57.1766 92.6153 57.1859 93.0353 57.1859 93.614C57.1859 94.1833 57.1766 94.594 57.1579 94.846C57.0926 95.9567 56.7239 96.8667 56.0519 97.576C55.3892 98.2853 54.3952 98.64 53.0699 98.64C51.7446 98.64 50.7459 98.2853 50.0739 97.576C49.4112 96.8667 49.0472 95.9567 48.9819 94.846C48.9632 94.342 48.9539 93.9313 48.9539 93.614C48.9539 93.2967 48.9632 92.8767 48.9819 92.354C49.0472 91.2433 49.4112 90.3333 50.0739 89.624C50.7459 88.9147 51.7446 88.56 53.0699 88.56C54.3952 88.56 55.3892 88.9147 56.0519 89.624C56.7239 90.3333 57.0926 91.2433 57.1579 92.354ZM54.5679 92.424C54.5399 91.9107 54.4139 91.514 54.1899 91.234C53.9659 90.9447 53.5926 90.8 53.0699 90.8C52.5472 90.8 52.1739 90.9447 51.9499 91.234C51.7259 91.514 51.5999 91.9107 51.5719 92.424C51.5532 92.928 51.5439 93.3153 51.5439 93.586C51.5439 93.838 51.5532 94.2347 51.5719 94.776C51.5906 95.2893 51.7119 95.6907 51.9359 95.98C52.1692 96.26 52.5472 96.4 53.0699 96.4C53.5926 96.4 53.9659 96.26 54.1899 95.98C54.4232 95.6907 54.5492 95.2893 54.5679 94.776C54.5866 94.5053 54.5959 94.1087 54.5959 93.586C54.5959 93.0633 54.5866 92.676 54.5679 92.424ZM62.7646 91.682C62.7366 92.27 62.5359 92.7507 62.1626 93.124C61.7986 93.488 61.2666 93.67 60.5666 93.67C59.8666 93.67 59.3346 93.488 58.9706 93.124C58.6159 92.76 58.4152 92.2793 58.3686 91.682C58.3592 91.5607 58.3546 91.388 58.3546 91.164C58.3546 90.9307 58.3592 90.7487 58.3686 90.618C58.4152 90.0207 58.6159 89.54 58.9706 89.176C59.3346 88.812 59.8666 88.63 60.5666 88.63C61.2666 88.63 61.7939 88.812 62.1486 89.176C62.5126 89.54 62.7179 90.0207 62.7646 90.618C62.7832 90.8793 62.7926 91.0613 62.7926 91.164C62.7926 91.2667 62.7832 91.4393 62.7646 91.682ZM66.2646 88.966C66.3392 88.8727 66.4092 88.8073 66.4746 88.77C66.5492 88.7233 66.6472 88.7 66.7686 88.7H67.9166C68.0192 88.7 68.0986 88.728 68.1546 88.784C68.2199 88.8307 68.2526 88.896 68.2526 88.98C68.2526 89.036 68.2339 89.0873 68.1966 89.134L61.2806 98.234C61.2059 98.3273 61.1312 98.3973 61.0566 98.444C60.9912 98.4813 60.8979 98.5 60.7766 98.5H59.6286C59.5259 98.5 59.4419 98.4767 59.3766 98.43C59.3206 98.374 59.2926 98.304 59.2926 98.22C59.2926 98.164 59.3112 98.1127 59.3486 98.066L66.2646 88.966ZM60.5666 92.34C60.7626 92.34 60.9026 92.284 60.9866 92.172C61.0706 92.06 61.1219 91.8733 61.1406 91.612C61.1592 91.388 61.1686 91.234 61.1686 91.15C61.1686 91.0473 61.1592 90.8933 61.1406 90.688C61.1219 90.4267 61.0706 90.24 60.9866 90.128C60.9026 90.016 60.7626 89.96 60.5666 89.96C60.3706 89.96 60.2306 90.016 60.1466 90.128C60.0626 90.24 60.0112 90.4267 59.9926 90.688C59.9832 90.7907 59.9786 90.9447 59.9786 91.15C59.9786 91.346 59.9832 91.5 59.9926 91.612C60.0112 91.8733 60.0626 92.06 60.1466 92.172C60.2306 92.284 60.3706 92.34 60.5666 92.34ZM69.2606 96.582C69.2326 97.17 69.0319 97.6507 68.6586 98.024C68.2946 98.388 67.7626 98.57 67.0626 98.57C66.3626 98.57 65.8306 98.388 65.4666 98.024C65.1119 97.66 64.9112 97.1793 64.8646 96.582C64.8552 96.4607 64.8506 96.288 64.8506 96.064C64.8506 95.8307 64.8552 95.6487 64.8646 95.518C64.9112 94.9207 65.1119 94.44 65.4666 94.076C65.8306 93.712 66.3626 93.53 67.0626 93.53C67.7626 93.53 68.2899 93.712 68.6446 94.076C69.0086 94.44 69.2139 94.9207 69.2606 95.518C69.2792 95.7793 69.2886 95.9613 69.2886 96.064C69.2886 96.1667 69.2792 96.3393 69.2606 96.582ZM67.0626 97.24C67.2586 97.24 67.3986 97.184 67.4826 97.072C67.5666 96.96 67.6179 96.7733 67.6366 96.512C67.6552 96.288 67.6646 96.134 67.6646 96.05C67.6646 95.9473 67.6552 95.7933 67.6366 95.588C67.6179 95.3267 67.5666 95.14 67.4826 95.028C67.3986 94.916 67.2586 94.86 67.0626 94.86C66.8666 94.86 66.7266 94.916 66.6426 95.028C66.5586 95.14 66.5072 95.3267 66.4886 95.588C66.4792 95.6907 66.4746 95.8447 66.4746 96.05C66.4746 96.246 66.4792 96.4 66.4886 96.512C66.5072 96.7733 66.5586 96.96 66.6426 97.072C66.7266 97.184 66.8666 97.24 67.0626 97.24Z" fill="#EBECEE"/>
<rect x="87" y="13" width="34" height="34" rx="17" fill="white"/>
<rect x="87" y="13" width="34" height="34" rx="17" stroke="#1DA534" stroke-width="2"/>
<path opacity="0.4" d="M104 40C109.523 40 114 35.5228 114 30C114 24.4772 109.523 20 104 20C98.4772 20 94 24.4772 94 30C94 35.5228 98.4772 40 104 40Z" fill="#1DA534"/>
<path d="M102.579 33.5801C102.379 33.5801 102.189 33.5001 102.049 33.3601L99.2195 30.5301C98.9295 30.2401 98.9295 29.7601 99.2195 29.4701C99.5095 29.1801 99.9895 29.1801 100.279 29.4701L102.579 31.7701L107.719 26.6301C108.009 26.3401 108.489 26.3401 108.779 26.6301C109.069 26.9201 109.069 27.4001 108.779 27.6901L103.109 33.3601C102.969 33.5001 102.779 33.5801 102.579 33.5801Z" fill="#1DA534"/>
</svg>
