<svg width="242" height="238" viewBox="0 0 242 238" fill="none" xmlns="http://www.w3.org/2000/svg">
<g filter="url(#filter0_d_15958_23130)">
<rect x="64" y="64" width="110" height="110" rx="55" fill="#2D68F8" fill-opacity="0.15" shape-rendering="crispEdges"/>
<rect x="62" y="62" width="114" height="114" rx="57" stroke="#2D68F8" stroke-width="4" shape-rendering="crispEdges"/>
<g clip-path="url(#clip0_15958_23130)">
<mask id="mask0_15958_23130" style="mask-type:luminance" maskUnits="userSpaceOnUse" x="103" y="79" width="32" height="32">
<path d="M135 79H103V111H135V79Z" fill="white"/>
</mask>
<g mask="url(#mask0_15958_23130)">
<path d="M119 102.667C118.453 102.667 118 102.213 118 101.667V96.3335C118 95.7868 118.453 95.3335 119 95.3335C119.547 95.3335 120 95.7868 120 96.3335V101.667C120 102.213 119.547 102.667 119 102.667Z" fill="#2D68F8"/>
<path d="M121.665 100H116.332C115.785 100 115.332 99.5467 115.332 99C115.332 98.4533 115.785 98 116.332 98H121.665C122.212 98 122.665 98.4533 122.665 99C122.665 99.5467 122.212 100 121.665 100Z" fill="#2D68F8"/>
<path opacity="0.4" d="M128.106 103.773V93.1467C128.106 91.48 126.746 90.1067 125.066 90.1067C124.226 90.1067 123.546 89.4267 123.546 88.5867V87H114.439V88.6C114.439 89.44 113.759 90.12 112.919 90.12C111.252 90.12 109.879 91.48 109.879 93.16V103.787C109.879 106.293 111.932 108.347 114.439 108.347H123.546C126.066 108.333 128.106 106.28 128.106 103.773Z" fill="#2D68F8"/>
<path d="M123.665 81.6667H114.332C113.225 81.6667 112.332 82.5601 112.332 83.6667V85.0001C112.332 86.1067 113.225 87.0001 114.332 87.0001H123.665C124.772 87.0001 125.665 86.1067 125.665 85.0001V83.6667C125.665 82.5601 124.772 81.6667 123.665 81.6667Z" fill="#2D68F8"/>
</g>
</g>
<path d="M82.6741 127C82.5788 127 82.5051 126.974 82.4531 126.922C82.4011 126.861 82.3751 126.788 82.3751 126.701V118.212C82.3751 118.117 82.4011 118.043 82.4531 117.991C82.5051 117.93 82.5788 117.9 82.6741 117.9H85.9761C86.6175 117.9 87.1721 118.004 87.6401 118.212C88.1168 118.42 88.4851 118.732 88.7451 119.148C89.0051 119.555 89.1351 120.067 89.1351 120.682C89.1351 121.297 89.0051 121.809 88.7451 122.216C88.4851 122.623 88.1168 122.931 87.6401 123.139C87.1721 123.347 86.6175 123.451 85.9761 123.451H83.6751V126.701C83.6751 126.788 83.6448 126.861 83.5841 126.922C83.5321 126.974 83.4585 127 83.3631 127H82.6741ZM83.6621 122.359H85.9111C86.5525 122.359 87.0335 122.216 87.3541 121.93C87.6748 121.644 87.8351 121.228 87.8351 120.682C87.8351 120.145 87.6791 119.729 87.3671 119.434C87.0551 119.139 86.5698 118.992 85.9111 118.992H83.6621V122.359ZM90.846 127C90.7593 127 90.6856 126.974 90.625 126.922C90.573 126.861 90.547 126.788 90.547 126.701V120.552C90.547 120.465 90.573 120.392 90.625 120.331C90.6856 120.27 90.7593 120.24 90.846 120.24H91.444C91.5306 120.24 91.6043 120.27 91.665 120.331C91.7256 120.392 91.756 120.465 91.756 120.552V121.124C91.9293 120.829 92.1676 120.608 92.471 120.461C92.7743 120.314 93.1383 120.24 93.563 120.24H94.083C94.1696 120.24 94.239 120.27 94.291 120.331C94.343 120.383 94.369 120.452 94.369 120.539V121.072C94.369 121.159 94.343 121.228 94.291 121.28C94.239 121.332 94.1696 121.358 94.083 121.358H93.303C92.835 121.358 92.4666 121.497 92.198 121.774C91.9293 122.043 91.795 122.411 91.795 122.879V126.701C91.795 126.788 91.7646 126.861 91.704 126.922C91.6433 126.974 91.5696 127 91.483 127H90.846ZM98.0495 127.13C97.1568 127.13 96.4462 126.857 95.9175 126.311C95.3888 125.756 95.0985 125.002 95.0465 124.049C95.0378 123.936 95.0335 123.793 95.0335 123.62C95.0335 123.438 95.0378 123.291 95.0465 123.178C95.0812 122.563 95.2242 122.025 95.4755 121.566C95.7268 121.098 96.0692 120.738 96.5025 120.487C96.9445 120.236 97.4602 120.11 98.0495 120.11C98.7082 120.11 99.2585 120.249 99.7005 120.526C100.151 120.803 100.493 121.198 100.727 121.709C100.961 122.22 101.078 122.818 101.078 123.503V123.724C101.078 123.819 101.048 123.893 100.987 123.945C100.935 123.997 100.866 124.023 100.779 124.023H96.2815C96.2815 124.032 96.2815 124.049 96.2815 124.075C96.2815 124.101 96.2815 124.123 96.2815 124.14C96.2988 124.495 96.3768 124.829 96.5155 125.141C96.6542 125.444 96.8535 125.691 97.1135 125.882C97.3735 126.073 97.6855 126.168 98.0495 126.168C98.3615 126.168 98.6215 126.12 98.8295 126.025C99.0375 125.93 99.2065 125.826 99.3365 125.713C99.4665 125.592 99.5532 125.501 99.5965 125.44C99.6745 125.327 99.7352 125.262 99.7785 125.245C99.8218 125.219 99.8912 125.206 99.9865 125.206H100.61C100.697 125.206 100.766 125.232 100.818 125.284C100.879 125.327 100.905 125.392 100.896 125.479C100.888 125.609 100.818 125.769 100.688 125.96C100.558 126.142 100.372 126.324 100.129 126.506C99.8868 126.688 99.5922 126.84 99.2455 126.961C98.8988 127.074 98.5002 127.13 98.0495 127.13ZM96.2815 123.126H99.8435V123.087C99.8435 122.697 99.7698 122.35 99.6225 122.047C99.4838 121.744 99.2802 121.505 99.0115 121.332C98.7428 121.15 98.4222 121.059 98.0495 121.059C97.6768 121.059 97.3562 121.15 97.0875 121.332C96.8275 121.505 96.6282 121.744 96.4895 122.047C96.3508 122.35 96.2815 122.697 96.2815 123.087V123.126ZM102.932 127C102.845 127 102.772 126.974 102.711 126.922C102.659 126.861 102.633 126.788 102.633 126.701V120.539C102.633 120.452 102.659 120.383 102.711 120.331C102.772 120.27 102.845 120.24 102.932 120.24H103.517C103.604 120.24 103.673 120.27 103.725 120.331C103.786 120.383 103.816 120.452 103.816 120.539V120.994C104.015 120.725 104.267 120.513 104.57 120.357C104.873 120.192 105.237 120.11 105.662 120.11C106.641 120.101 107.335 120.5 107.742 121.306C107.941 120.942 108.232 120.652 108.613 120.435C108.994 120.218 109.428 120.11 109.913 120.11C110.364 120.11 110.771 120.214 111.135 120.422C111.508 120.63 111.798 120.946 112.006 121.371C112.223 121.787 112.331 122.311 112.331 122.944V126.701C112.331 126.788 112.301 126.861 112.24 126.922C112.188 126.974 112.119 127 112.032 127H111.421C111.334 127 111.261 126.974 111.2 126.922C111.148 126.861 111.122 126.788 111.122 126.701V123.061C111.122 122.576 111.053 122.194 110.914 121.917C110.775 121.64 110.589 121.445 110.355 121.332C110.121 121.219 109.865 121.163 109.588 121.163C109.363 121.163 109.133 121.219 108.899 121.332C108.665 121.445 108.47 121.64 108.314 121.917C108.167 122.194 108.093 122.576 108.093 123.061V126.701C108.093 126.788 108.063 126.861 108.002 126.922C107.95 126.974 107.881 127 107.794 127H107.183C107.096 127 107.023 126.974 106.962 126.922C106.91 126.861 106.884 126.788 106.884 126.701V123.061C106.884 122.576 106.81 122.194 106.663 121.917C106.516 121.64 106.325 121.445 106.091 121.332C105.857 121.219 105.61 121.163 105.35 121.163C105.125 121.163 104.895 121.219 104.661 121.332C104.427 121.445 104.232 121.64 104.076 121.917C103.929 122.194 103.855 122.571 103.855 123.048V126.701C103.855 126.788 103.825 126.861 103.764 126.922C103.712 126.974 103.643 127 103.556 127H102.932ZM116.877 127.13C115.984 127.13 115.273 126.857 114.745 126.311C114.216 125.756 113.926 125.002 113.874 124.049C113.865 123.936 113.861 123.793 113.861 123.62C113.861 123.438 113.865 123.291 113.874 123.178C113.908 122.563 114.051 122.025 114.303 121.566C114.554 121.098 114.896 120.738 115.33 120.487C115.772 120.236 116.287 120.11 116.877 120.11C117.535 120.11 118.086 120.249 118.528 120.526C118.978 120.803 119.321 121.198 119.555 121.709C119.789 122.22 119.906 122.818 119.906 123.503V123.724C119.906 123.819 119.875 123.893 119.815 123.945C119.763 123.997 119.693 124.023 119.607 124.023H115.109C115.109 124.032 115.109 124.049 115.109 124.075C115.109 124.101 115.109 124.123 115.109 124.14C115.126 124.495 115.204 124.829 115.343 125.141C115.481 125.444 115.681 125.691 115.941 125.882C116.201 126.073 116.513 126.168 116.877 126.168C117.189 126.168 117.449 126.12 117.657 126.025C117.865 125.93 118.034 125.826 118.164 125.713C118.294 125.592 118.38 125.501 118.424 125.44C118.502 125.327 118.562 125.262 118.606 125.245C118.649 125.219 118.718 125.206 118.814 125.206H119.438C119.524 125.206 119.594 125.232 119.646 125.284C119.706 125.327 119.732 125.392 119.724 125.479C119.715 125.609 119.646 125.769 119.516 125.96C119.386 126.142 119.199 126.324 118.957 126.506C118.714 126.688 118.419 126.84 118.073 126.961C117.726 127.074 117.327 127.13 116.877 127.13ZM115.109 123.126H118.671V123.087C118.671 122.697 118.597 122.35 118.45 122.047C118.311 121.744 118.107 121.505 117.839 121.332C117.57 121.15 117.249 121.059 116.877 121.059C116.504 121.059 116.183 121.15 115.915 121.332C115.655 121.505 115.455 121.744 115.317 122.047C115.178 122.35 115.109 122.697 115.109 123.087V123.126ZM123.93 127.13C123.453 127.13 123.042 127.048 122.695 126.883C122.348 126.71 122.062 126.48 121.837 126.194C121.62 125.899 121.456 125.566 121.343 125.193C121.239 124.82 121.178 124.426 121.161 124.01C121.152 123.871 121.148 123.741 121.148 123.62C121.148 123.499 121.152 123.369 121.161 123.23C121.178 122.823 121.239 122.433 121.343 122.06C121.456 121.687 121.62 121.354 121.837 121.059C122.062 120.764 122.348 120.535 122.695 120.37C123.042 120.197 123.453 120.11 123.93 120.11C124.441 120.11 124.866 120.201 125.204 120.383C125.542 120.565 125.819 120.79 126.036 121.059V118.069C126.036 117.982 126.062 117.913 126.114 117.861C126.175 117.8 126.248 117.77 126.335 117.77H126.959C127.046 117.77 127.115 117.8 127.167 117.861C127.228 117.913 127.258 117.982 127.258 118.069V126.701C127.258 126.788 127.228 126.861 127.167 126.922C127.115 126.974 127.046 127 126.959 127H126.374C126.279 127 126.205 126.974 126.153 126.922C126.101 126.861 126.075 126.788 126.075 126.701V126.155C125.858 126.432 125.577 126.666 125.23 126.857C124.883 127.039 124.45 127.13 123.93 127.13ZM124.203 126.077C124.636 126.077 124.983 125.977 125.243 125.778C125.503 125.579 125.698 125.327 125.828 125.024C125.958 124.712 126.027 124.396 126.036 124.075C126.045 123.936 126.049 123.772 126.049 123.581C126.049 123.382 126.045 123.213 126.036 123.074C126.027 122.771 125.954 122.472 125.815 122.177C125.685 121.882 125.486 121.64 125.217 121.449C124.957 121.258 124.619 121.163 124.203 121.163C123.761 121.163 123.41 121.263 123.15 121.462C122.89 121.653 122.704 121.908 122.591 122.229C122.478 122.541 122.413 122.879 122.396 123.243C122.387 123.494 122.387 123.746 122.396 123.997C122.413 124.361 122.478 124.703 122.591 125.024C122.704 125.336 122.89 125.592 123.15 125.791C123.41 125.982 123.761 126.077 124.203 126.077ZM129.49 127C129.404 127 129.33 126.974 129.269 126.922C129.217 126.861 129.191 126.788 129.191 126.701V120.539C129.191 120.452 129.217 120.383 129.269 120.331C129.33 120.27 129.404 120.24 129.49 120.24H130.114C130.201 120.24 130.27 120.27 130.322 120.331C130.374 120.383 130.4 120.452 130.4 120.539V126.701C130.4 126.788 130.374 126.861 130.322 126.922C130.27 126.974 130.201 127 130.114 127H129.49ZM129.386 118.979C129.3 118.979 129.226 118.953 129.165 118.901C129.113 118.84 129.087 118.767 129.087 118.68V117.978C129.087 117.891 129.113 117.822 129.165 117.77C129.226 117.709 129.3 117.679 129.386 117.679H130.205C130.292 117.679 130.361 117.709 130.413 117.77C130.474 117.822 130.504 117.891 130.504 117.978V118.68C130.504 118.767 130.474 118.84 130.413 118.901C130.361 118.953 130.292 118.979 130.205 118.979H129.386ZM135.07 127.13C134.455 127.13 133.922 127.013 133.471 126.779C133.029 126.536 132.687 126.194 132.444 125.752C132.201 125.301 132.071 124.764 132.054 124.14C132.045 124.01 132.041 123.837 132.041 123.62C132.041 123.403 132.045 123.23 132.054 123.1C132.071 122.476 132.201 121.943 132.444 121.501C132.687 121.05 133.029 120.708 133.471 120.474C133.922 120.231 134.455 120.11 135.07 120.11C135.573 120.11 136.002 120.179 136.357 120.318C136.721 120.457 137.02 120.634 137.254 120.851C137.488 121.068 137.661 121.302 137.774 121.553C137.895 121.804 137.96 122.043 137.969 122.268C137.978 122.355 137.952 122.424 137.891 122.476C137.83 122.528 137.757 122.554 137.67 122.554H137.046C136.959 122.554 136.894 122.537 136.851 122.502C136.808 122.459 136.764 122.389 136.721 122.294C136.565 121.869 136.353 121.57 136.084 121.397C135.815 121.224 135.482 121.137 135.083 121.137C134.563 121.137 134.138 121.297 133.809 121.618C133.488 121.939 133.315 122.454 133.289 123.165C133.28 123.477 133.28 123.78 133.289 124.075C133.315 124.794 133.488 125.314 133.809 125.635C134.138 125.947 134.563 126.103 135.083 126.103C135.482 126.103 135.815 126.016 136.084 125.843C136.353 125.67 136.565 125.371 136.721 124.946C136.764 124.851 136.808 124.786 136.851 124.751C136.894 124.708 136.959 124.686 137.046 124.686H137.67C137.757 124.686 137.83 124.712 137.891 124.764C137.952 124.816 137.978 124.885 137.969 124.972C137.96 125.154 137.921 125.34 137.852 125.531C137.783 125.722 137.67 125.917 137.514 126.116C137.367 126.307 137.18 126.48 136.955 126.636C136.73 126.783 136.457 126.905 136.136 127C135.824 127.087 135.469 127.13 135.07 127.13ZM139.812 127C139.725 127 139.651 126.974 139.591 126.922C139.539 126.861 139.513 126.788 139.513 126.701V120.539C139.513 120.452 139.539 120.383 139.591 120.331C139.651 120.27 139.725 120.24 139.812 120.24H140.436C140.522 120.24 140.592 120.27 140.644 120.331C140.696 120.383 140.722 120.452 140.722 120.539V126.701C140.722 126.788 140.696 126.861 140.644 126.922C140.592 126.974 140.522 127 140.436 127H139.812ZM139.708 118.979C139.621 118.979 139.547 118.953 139.487 118.901C139.435 118.84 139.409 118.767 139.409 118.68V117.978C139.409 117.891 139.435 117.822 139.487 117.77C139.547 117.709 139.621 117.679 139.708 117.679H140.527C140.613 117.679 140.683 117.709 140.735 117.77C140.795 117.822 140.826 117.891 140.826 117.978V118.68C140.826 118.767 140.795 118.84 140.735 118.901C140.683 118.953 140.613 118.979 140.527 118.979H139.708ZM142.96 127C142.874 127 142.8 126.974 142.739 126.922C142.687 126.861 142.661 126.788 142.661 126.701V120.539C142.661 120.452 142.687 120.383 142.739 120.331C142.8 120.27 142.874 120.24 142.96 120.24H143.571C143.658 120.24 143.727 120.27 143.779 120.331C143.84 120.383 143.87 120.452 143.87 120.539V121.111C144.096 120.816 144.377 120.578 144.715 120.396C145.062 120.205 145.504 120.11 146.041 120.11C146.605 120.11 147.081 120.236 147.471 120.487C147.87 120.73 148.169 121.072 148.368 121.514C148.568 121.947 148.667 122.454 148.667 123.035V126.701C148.667 126.788 148.641 126.861 148.589 126.922C148.537 126.974 148.468 127 148.381 127H147.731C147.645 127 147.571 126.974 147.51 126.922C147.458 126.861 147.432 126.788 147.432 126.701V123.1C147.432 122.493 147.285 122.021 146.99 121.683C146.696 121.336 146.262 121.163 145.69 121.163C145.153 121.163 144.72 121.336 144.39 121.683C144.07 122.021 143.909 122.493 143.909 123.1V126.701C143.909 126.788 143.879 126.861 143.818 126.922C143.766 126.974 143.697 127 143.61 127H142.96ZM152.43 127.13C151.997 127.13 151.602 127.043 151.247 126.87C150.892 126.697 150.606 126.463 150.389 126.168C150.172 125.873 150.064 125.54 150.064 125.167C150.064 124.569 150.307 124.092 150.792 123.737C151.277 123.382 151.91 123.148 152.69 123.035L154.627 122.762V122.385C154.627 121.969 154.506 121.644 154.263 121.41C154.029 121.176 153.643 121.059 153.106 121.059C152.716 121.059 152.4 121.137 152.157 121.293C151.923 121.449 151.758 121.648 151.663 121.891C151.611 122.021 151.52 122.086 151.39 122.086H150.805C150.71 122.086 150.636 122.06 150.584 122.008C150.541 121.947 150.519 121.878 150.519 121.8C150.519 121.67 150.567 121.51 150.662 121.319C150.766 121.128 150.922 120.942 151.13 120.76C151.338 120.578 151.602 120.426 151.923 120.305C152.252 120.175 152.651 120.11 153.119 120.11C153.639 120.11 154.077 120.179 154.432 120.318C154.787 120.448 155.065 120.626 155.264 120.851C155.472 121.076 155.619 121.332 155.706 121.618C155.801 121.904 155.849 122.194 155.849 122.489V126.701C155.849 126.788 155.819 126.861 155.758 126.922C155.706 126.974 155.637 127 155.55 127H154.952C154.857 127 154.783 126.974 154.731 126.922C154.679 126.861 154.653 126.788 154.653 126.701V126.142C154.54 126.298 154.389 126.454 154.198 126.61C154.007 126.757 153.769 126.883 153.483 126.987C153.197 127.082 152.846 127.13 152.43 127.13ZM152.703 126.155C153.058 126.155 153.383 126.081 153.678 125.934C153.973 125.778 154.202 125.54 154.367 125.219C154.54 124.898 154.627 124.495 154.627 124.01V123.646L153.119 123.867C152.504 123.954 152.04 124.101 151.728 124.309C151.416 124.508 151.26 124.764 151.26 125.076C151.26 125.319 151.329 125.522 151.468 125.687C151.615 125.843 151.797 125.96 152.014 126.038C152.239 126.116 152.469 126.155 152.703 126.155Z" fill="#EBECEE"/>
<rect x="100.5" y="134" width="37" height="25" rx="12.5" fill="#2D68F8"/>
<path d="M113.342 151.14C112.67 151.14 112.086 151.047 111.592 150.86C111.097 150.664 110.686 150.398 110.36 150.062C110.042 149.726 109.8 149.334 109.632 148.886C109.464 148.438 109.366 147.957 109.338 147.444C109.328 147.192 109.319 146.907 109.31 146.59C109.31 146.263 109.31 145.937 109.31 145.61C109.319 145.274 109.328 144.975 109.338 144.714C109.366 144.201 109.464 143.725 109.632 143.286C109.809 142.838 110.061 142.451 110.388 142.124C110.724 141.788 111.134 141.527 111.62 141.34C112.114 141.153 112.688 141.06 113.342 141.06C114.004 141.06 114.578 141.153 115.064 141.34C115.549 141.527 115.955 141.788 116.282 142.124C116.618 142.451 116.874 142.838 117.052 143.286C117.229 143.725 117.327 144.201 117.346 144.714C117.364 144.975 117.374 145.274 117.374 145.61C117.383 145.937 117.383 146.263 117.374 146.59C117.374 146.907 117.364 147.192 117.346 147.444C117.327 147.957 117.229 148.438 117.052 148.886C116.884 149.334 116.636 149.726 116.31 150.062C115.992 150.398 115.586 150.664 115.092 150.86C114.606 151.047 114.023 151.14 113.342 151.14ZM113.342 149.11C113.827 149.11 114.177 148.956 114.392 148.648C114.616 148.331 114.732 147.906 114.742 147.374C114.76 147.103 114.77 146.819 114.77 146.52C114.779 146.221 114.779 145.923 114.77 145.624C114.77 145.325 114.76 145.05 114.742 144.798C114.732 144.285 114.616 143.869 114.392 143.552C114.177 143.235 113.827 143.071 113.342 143.062C112.856 143.071 112.506 143.235 112.292 143.552C112.077 143.869 111.96 144.285 111.942 144.798C111.932 145.05 111.923 145.325 111.914 145.624C111.914 145.923 111.914 146.221 111.914 146.52C111.923 146.819 111.932 147.103 111.942 147.374C111.96 147.906 112.082 148.331 112.306 148.648C112.53 148.956 112.875 149.11 113.342 149.11ZM119.679 151C119.465 151 119.357 150.907 119.357 150.72C119.357 150.664 119.376 150.613 119.413 150.566L126.329 141.466C126.395 141.382 126.46 141.317 126.525 141.27C126.591 141.223 126.689 141.2 126.819 141.2H127.813C128.028 141.2 128.135 141.293 128.135 141.48C128.135 141.536 128.117 141.587 128.079 141.634L121.163 150.734C121.098 150.818 121.033 150.883 120.967 150.93C120.902 150.977 120.804 151 120.673 151H119.679ZM126.721 151.07C126.087 151.07 125.578 150.902 125.195 150.566C124.822 150.23 124.612 149.782 124.565 149.222C124.556 148.979 124.551 148.765 124.551 148.578C124.551 148.391 124.556 148.167 124.565 147.906C124.603 147.337 124.803 146.884 125.167 146.548C125.541 146.203 126.059 146.03 126.721 146.03C127.393 146.03 127.911 146.203 128.275 146.548C128.639 146.884 128.84 147.337 128.877 147.906C128.896 148.167 128.905 148.391 128.905 148.578C128.905 148.765 128.896 148.979 128.877 149.222C128.84 149.782 128.63 150.23 128.247 150.566C127.865 150.902 127.356 151.07 126.721 151.07ZM126.721 149.838C126.88 149.838 127.001 149.805 127.085 149.74C127.179 149.675 127.249 149.591 127.295 149.488C127.342 149.376 127.365 149.259 127.365 149.138C127.384 148.923 127.393 148.727 127.393 148.55C127.393 148.373 127.384 148.181 127.365 147.976C127.356 147.799 127.305 147.64 127.211 147.5C127.118 147.351 126.955 147.276 126.721 147.276C126.488 147.276 126.325 147.351 126.231 147.5C126.138 147.64 126.087 147.799 126.077 147.976C126.068 148.181 126.063 148.373 126.063 148.55C126.063 148.727 126.068 148.923 126.077 149.138C126.087 149.259 126.11 149.376 126.147 149.488C126.194 149.591 126.264 149.675 126.357 149.74C126.451 149.805 126.572 149.838 126.721 149.838ZM120.799 146.142C120.155 146.142 119.642 145.979 119.259 145.652C118.886 145.316 118.681 144.868 118.643 144.308C118.625 144.065 118.615 143.855 118.615 143.678C118.625 143.491 118.634 143.267 118.643 143.006C118.671 142.437 118.867 141.984 119.231 141.648C119.605 141.303 120.127 141.13 120.799 141.13C121.471 141.13 121.989 141.303 122.353 141.648C122.717 141.984 122.913 142.437 122.941 143.006C122.96 143.267 122.969 143.491 122.969 143.678C122.969 143.855 122.96 144.065 122.941 144.308C122.913 144.868 122.708 145.316 122.325 145.652C121.943 145.979 121.434 146.142 120.799 146.142ZM120.799 144.938C120.949 144.938 121.07 144.905 121.163 144.84C121.257 144.765 121.327 144.677 121.373 144.574C121.42 144.462 121.443 144.35 121.443 144.238C121.462 144.023 121.471 143.827 121.471 143.65C121.471 143.473 121.462 143.281 121.443 143.076C121.434 142.899 121.378 142.74 121.275 142.6C121.182 142.451 121.023 142.376 120.799 142.376C120.566 142.376 120.398 142.451 120.295 142.6C120.202 142.74 120.151 142.899 120.141 143.076C120.132 143.281 120.127 143.473 120.127 143.65C120.127 143.827 120.132 144.023 120.141 144.238C120.151 144.35 120.174 144.462 120.211 144.574C120.258 144.677 120.328 144.765 120.421 144.84C120.515 144.905 120.641 144.938 120.799 144.938Z" fill="#EBECEE"/>
<g filter="url(#filter1_d_15958_23130)">
<rect x="148" y="74" width="32" height="32" rx="16" fill="white"/>
<rect x="147" y="73" width="34" height="34" rx="17" stroke="#1DA534" stroke-width="2"/>
<path opacity="0.4" d="M164 100C169.523 100 174 95.5228 174 90C174 84.4772 169.523 80 164 80C158.477 80 154 84.4772 154 90C154 95.5228 158.477 100 164 100Z" fill="#1DA534"/>
<path d="M162.579 93.5801C162.379 93.5801 162.189 93.5001 162.049 93.3601L159.219 90.5301C158.929 90.2401 158.929 89.7601 159.219 89.4701C159.509 89.1801 159.989 89.1801 160.279 89.4701L162.579 91.7701L167.719 86.6301C168.009 86.3401 168.489 86.3401 168.779 86.6301C169.069 86.9201 169.069 87.4001 168.779 87.6901L163.109 93.3601C162.969 93.5001 162.779 93.5801 162.579 93.5801Z" fill="#1DA534"/>
</g>
</g>
<defs>
<filter id="filter0_d_15958_23130" x="0" y="0" width="242" height="238" filterUnits="userSpaceOnUse" color-interpolation-filters="sRGB">
<feFlood flood-opacity="0" result="BackgroundImageFix"/>
<feColorMatrix in="SourceAlpha" type="matrix" values="0 0 0 0 0 0 0 0 0 0 0 0 0 0 0 0 0 0 127 0" result="hardAlpha"/>
<feOffset/>
<feGaussianBlur stdDeviation="30"/>
<feComposite in2="hardAlpha" operator="out"/>
<feColorMatrix type="matrix" values="0 0 0 0 0.180392 0 0 0 0 0.407843 0 0 0 0 0.960784 0 0 0 1 0"/>
<feBlend mode="normal" in2="BackgroundImageFix" result="effect1_dropShadow_15958_23130"/>
<feBlend mode="normal" in="SourceGraphic" in2="effect1_dropShadow_15958_23130" result="shape"/>
</filter>
<filter id="filter1_d_15958_23130" x="131" y="65" width="66" height="66" filterUnits="userSpaceOnUse" color-interpolation-filters="sRGB">
<feFlood flood-opacity="0" result="BackgroundImageFix"/>
<feColorMatrix in="SourceAlpha" type="matrix" values="0 0 0 0 0 0 0 0 0 0 0 0 0 0 0 0 0 0 127 0" result="hardAlpha"/>
<feOffset dy="8"/>
<feGaussianBlur stdDeviation="7.5"/>
<feColorMatrix type="matrix" values="0 0 0 0 0 0 0 0 0 0 0 0 0 0 0 0 0 0 0.25 0"/>
<feBlend mode="normal" in2="BackgroundImageFix" result="effect1_dropShadow_15958_23130"/>
<feBlend mode="normal" in="SourceGraphic" in2="effect1_dropShadow_15958_23130" result="shape"/>
</filter>
<clipPath id="clip0_15958_23130">
<rect width="32" height="32" fill="white" transform="translate(103 79)"/>
</clipPath>
</defs>
</svg>
