<svg width="351" height="118" viewBox="0 0 351 118" fill="none" xmlns="http://www.w3.org/2000/svg">
<rect x="66" y="2" width="114" height="114" rx="57" fill="#E8F6EB"/>
<rect x="66" y="2" width="114" height="114" rx="57" stroke="#4AB75D" stroke-width="4"/>
<path d="M136.333 18.1665H109.666V36.8332H136.333V18.1665Z" fill="white"/>
<path d="M118.555 18.1665H109.666V36.8332H118.555V18.1665Z" fill="#007D36"/>
<path d="M136.334 18.1665H127.445V36.8332H136.334V18.1665Z" fill="#D80027"/>
<path d="M122.989 30.6617C121.329 30.6617 119.979 29.2436 119.979 27.5004C119.979 27.2511 120.171 27.0488 120.409 27.0488C120.646 27.0488 120.839 27.2511 120.839 27.5004C120.839 28.7454 121.804 29.7585 122.989 29.7585C124.175 29.7585 125.14 28.7454 125.14 27.5004C125.14 27.2511 125.332 27.0488 125.57 27.0488C125.808 27.0488 126 27.2511 126 27.5004C126 29.2436 124.649 30.6617 122.989 30.6617Z" fill="#4BA543"/>
<path d="M122.133 25.2417H122.559C123.272 25.2417 123.849 25.8483 123.849 26.5965V27.9513L123.248 28.4029C122.606 28.4029 122.061 27.9071 121.971 27.2397L122.133 25.2417Z" fill="#966A5B"/>
<path d="M123.85 27.9513H123.249C122.821 27.9513 122.458 27.6208 122.397 27.1758L122.134 25.2417H121.764C121.503 25.2417 121.302 25.4845 121.338 25.7562L121.546 27.3035C121.666 28.1877 122.398 28.8546 123.249 28.8546H123.42C123.658 28.8546 123.85 28.6524 123.85 28.403V27.9513H123.85Z" fill="#785353"/>
<path d="M91.9173 59.5C91.822 59.5 91.7483 59.474 91.6963 59.422C91.6443 59.3613 91.6183 59.2877 91.6183 59.201V50.712C91.6183 50.6167 91.6443 50.543 91.6963 50.491C91.7483 50.4303 91.822 50.4 91.9173 50.4H92.5803C92.6756 50.4 92.7493 50.4303 92.8013 50.491C92.862 50.543 92.8923 50.6167 92.8923 50.712V54.3H97.3643V50.712C97.3643 50.6167 97.3903 50.543 97.4423 50.491C97.503 50.4303 97.5766 50.4 97.6633 50.4H98.3263C98.4216 50.4 98.4953 50.4303 98.5473 50.491C98.608 50.543 98.6383 50.6167 98.6383 50.712V59.201C98.6383 59.2877 98.608 59.3613 98.5473 59.422C98.4953 59.474 98.4216 59.5 98.3263 59.5H97.6633C97.5766 59.5 97.503 59.474 97.4423 59.422C97.3903 59.3613 97.3643 59.2877 97.3643 59.201V55.47H92.8923V59.201C92.8923 59.2877 92.862 59.3613 92.8013 59.422C92.7493 59.474 92.6756 59.5 92.5803 59.5H91.9173ZM101.016 59.5C100.929 59.5 100.856 59.474 100.795 59.422C100.743 59.3613 100.717 59.2877 100.717 59.201V53.039C100.717 52.9523 100.743 52.883 100.795 52.831C100.856 52.7703 100.929 52.74 101.016 52.74H101.64C101.727 52.74 101.796 52.7703 101.848 52.831C101.9 52.883 101.926 52.9523 101.926 53.039V59.201C101.926 59.2877 101.9 59.3613 101.848 59.422C101.796 59.474 101.727 59.5 101.64 59.5H101.016ZM100.912 51.479C100.825 51.479 100.752 51.453 100.691 51.401C100.639 51.3403 100.613 51.2667 100.613 51.18V50.478C100.613 50.3913 100.639 50.322 100.691 50.27C100.752 50.2093 100.825 50.179 100.912 50.179H101.731C101.818 50.179 101.887 50.2093 101.939 50.27C102 50.322 102.03 50.3913 102.03 50.478V51.18C102.03 51.2667 102 51.3403 101.939 51.401C101.887 51.453 101.818 51.479 101.731 51.479H100.912ZM106.205 59.63C105.72 59.63 105.304 59.5693 104.957 59.448C104.611 59.3267 104.329 59.1793 104.112 59.006C103.896 58.8327 103.731 58.6593 103.618 58.486C103.514 58.3127 103.458 58.174 103.449 58.07C103.441 57.9747 103.471 57.901 103.54 57.849C103.61 57.797 103.679 57.771 103.748 57.771H104.32C104.372 57.771 104.411 57.7797 104.437 57.797C104.472 57.8057 104.515 57.8403 104.567 57.901C104.68 58.0223 104.806 58.1437 104.944 58.265C105.083 58.3863 105.252 58.486 105.451 58.564C105.659 58.642 105.915 58.681 106.218 58.681C106.66 58.681 107.024 58.5987 107.31 58.434C107.596 58.2607 107.739 58.0093 107.739 57.68C107.739 57.4633 107.679 57.29 107.557 57.16C107.445 57.03 107.237 56.913 106.933 56.809C106.639 56.705 106.231 56.5967 105.711 56.484C105.191 56.3627 104.78 56.2153 104.476 56.042C104.173 55.86 103.956 55.6477 103.826 55.405C103.696 55.1537 103.631 54.872 103.631 54.56C103.631 54.2393 103.727 53.9317 103.917 53.637C104.108 53.3337 104.385 53.0867 104.749 52.896C105.122 52.7053 105.586 52.61 106.14 52.61C106.591 52.61 106.977 52.6663 107.297 52.779C107.618 52.8917 107.882 53.0347 108.09 53.208C108.298 53.3727 108.454 53.5373 108.558 53.702C108.662 53.8667 108.719 54.0053 108.727 54.118C108.736 54.2047 108.71 54.2783 108.649 54.339C108.589 54.391 108.519 54.417 108.441 54.417H107.895C107.835 54.417 107.783 54.404 107.739 54.378C107.705 54.352 107.67 54.3217 107.635 54.287C107.549 54.1743 107.445 54.0617 107.323 53.949C107.211 53.8363 107.059 53.7453 106.868 53.676C106.686 53.598 106.444 53.559 106.14 53.559C105.707 53.559 105.382 53.65 105.165 53.832C104.949 54.014 104.84 54.2437 104.84 54.521C104.84 54.6857 104.888 54.833 104.983 54.963C105.079 55.093 105.261 55.21 105.529 55.314C105.798 55.418 106.197 55.5307 106.725 55.652C107.297 55.7647 107.748 55.9163 108.077 56.107C108.407 56.2977 108.641 56.5187 108.779 56.77C108.918 57.0213 108.987 57.3117 108.987 57.641C108.987 58.005 108.879 58.3387 108.662 58.642C108.454 58.9453 108.142 59.188 107.726 59.37C107.319 59.5433 106.812 59.63 106.205 59.63ZM113.119 59.5C112.633 59.5 112.239 59.409 111.936 59.227C111.632 59.0363 111.411 58.772 111.273 58.434C111.134 58.0873 111.065 57.68 111.065 57.212V53.78H110.051C109.964 53.78 109.89 53.754 109.83 53.702C109.778 53.6413 109.752 53.5677 109.752 53.481V53.039C109.752 52.9523 109.778 52.883 109.83 52.831C109.89 52.7703 109.964 52.74 110.051 52.74H111.065V50.569C111.065 50.4823 111.091 50.413 111.143 50.361C111.203 50.3003 111.277 50.27 111.364 50.27H111.975C112.061 50.27 112.131 50.3003 112.183 50.361C112.243 50.413 112.274 50.4823 112.274 50.569V52.74H113.886C113.972 52.74 114.042 52.7703 114.094 52.831C114.154 52.883 114.185 52.9523 114.185 53.039V53.481C114.185 53.5677 114.154 53.6413 114.094 53.702C114.042 53.754 113.972 53.78 113.886 53.78H112.274V57.121C112.274 57.5283 112.343 57.849 112.482 58.083C112.62 58.317 112.867 58.434 113.223 58.434H114.016C114.102 58.434 114.172 58.4643 114.224 58.525C114.284 58.577 114.315 58.6463 114.315 58.733V59.201C114.315 59.2877 114.284 59.3613 114.224 59.422C114.172 59.474 114.102 59.5 114.016 59.5H113.119ZM118.327 59.63C117.668 59.63 117.118 59.5043 116.676 59.253C116.234 59.0017 115.896 58.655 115.662 58.213C115.428 57.7623 115.298 57.251 115.272 56.679C115.263 56.5317 115.259 56.3453 115.259 56.12C115.259 55.886 115.263 55.6997 115.272 55.561C115.298 54.9803 115.428 54.469 115.662 54.027C115.904 53.585 116.247 53.2383 116.689 52.987C117.131 52.7357 117.677 52.61 118.327 52.61C118.977 52.61 119.523 52.7357 119.965 52.987C120.407 53.2383 120.745 53.585 120.979 54.027C121.221 54.469 121.356 54.9803 121.382 55.561C121.39 55.6997 121.395 55.886 121.395 56.12C121.395 56.3453 121.39 56.5317 121.382 56.679C121.356 57.251 121.226 57.7623 120.992 58.213C120.758 58.655 120.42 59.0017 119.978 59.253C119.536 59.5043 118.985 59.63 118.327 59.63ZM118.327 58.629C118.864 58.629 119.293 58.46 119.614 58.122C119.934 57.7753 120.108 57.2727 120.134 56.614C120.142 56.484 120.147 56.3193 120.147 56.12C120.147 55.9207 120.142 55.756 120.134 55.626C120.108 54.9673 119.934 54.469 119.614 54.131C119.293 53.7843 118.864 53.611 118.327 53.611C117.789 53.611 117.356 53.7843 117.027 54.131C116.706 54.469 116.537 54.9673 116.52 55.626C116.511 55.756 116.507 55.9207 116.507 56.12C116.507 56.3193 116.511 56.484 116.52 56.614C116.537 57.2727 116.706 57.7753 117.027 58.122C117.356 58.46 117.789 58.629 118.327 58.629ZM123.322 59.5C123.235 59.5 123.161 59.474 123.101 59.422C123.049 59.3613 123.023 59.2877 123.023 59.201V53.052C123.023 52.9653 123.049 52.8917 123.101 52.831C123.161 52.7703 123.235 52.74 123.322 52.74H123.92C124.006 52.74 124.08 52.7703 124.141 52.831C124.201 52.8917 124.232 52.9653 124.232 53.052V53.624C124.405 53.3293 124.643 53.1083 124.947 52.961C125.25 52.8137 125.614 52.74 126.039 52.74H126.559C126.645 52.74 126.715 52.7703 126.767 52.831C126.819 52.883 126.845 52.9523 126.845 53.039V53.572C126.845 53.6587 126.819 53.728 126.767 53.78C126.715 53.832 126.645 53.858 126.559 53.858H125.779C125.311 53.858 124.942 53.9967 124.674 54.274C124.405 54.5427 124.271 54.911 124.271 55.379V59.201C124.271 59.2877 124.24 59.3613 124.18 59.422C124.119 59.474 124.045 59.5 123.959 59.5H123.322ZM128.26 59.5C128.173 59.5 128.1 59.474 128.039 59.422C127.987 59.3613 127.961 59.2877 127.961 59.201V53.039C127.961 52.9523 127.987 52.883 128.039 52.831C128.1 52.7703 128.173 52.74 128.26 52.74H128.884C128.971 52.74 129.04 52.7703 129.092 52.831C129.144 52.883 129.17 52.9523 129.17 53.039V59.201C129.17 59.2877 129.144 59.3613 129.092 59.422C129.04 59.474 128.971 59.5 128.884 59.5H128.26ZM128.156 51.479C128.069 51.479 127.996 51.453 127.935 51.401C127.883 51.3403 127.857 51.2667 127.857 51.18V50.478C127.857 50.3913 127.883 50.322 127.935 50.27C127.996 50.2093 128.069 50.179 128.156 50.179H128.975C129.062 50.179 129.131 50.2093 129.183 50.27C129.244 50.322 129.274 50.3913 129.274 50.478V51.18C129.274 51.2667 129.244 51.3403 129.183 51.401C129.131 51.453 129.062 51.479 128.975 51.479H128.156ZM132.994 59.63C132.561 59.63 132.167 59.5433 131.811 59.37C131.456 59.1967 131.17 58.9627 130.953 58.668C130.737 58.3733 130.628 58.0397 130.628 57.667C130.628 57.069 130.871 56.5923 131.356 56.237C131.842 55.8817 132.474 55.6477 133.254 55.535L135.191 55.262V54.885C135.191 54.469 135.07 54.144 134.827 53.91C134.593 53.676 134.208 53.559 133.67 53.559C133.28 53.559 132.964 53.637 132.721 53.793C132.487 53.949 132.323 54.1483 132.227 54.391C132.175 54.521 132.084 54.586 131.954 54.586H131.369C131.274 54.586 131.2 54.56 131.148 54.508C131.105 54.4473 131.083 54.378 131.083 54.3C131.083 54.17 131.131 54.0097 131.226 53.819C131.33 53.6283 131.486 53.442 131.694 53.26C131.902 53.078 132.167 52.9263 132.487 52.805C132.817 52.675 133.215 52.61 133.683 52.61C134.203 52.61 134.641 52.6793 134.996 52.818C135.352 52.948 135.629 53.1257 135.828 53.351C136.036 53.5763 136.184 53.832 136.27 54.118C136.366 54.404 136.413 54.6943 136.413 54.989V59.201C136.413 59.2877 136.383 59.3613 136.322 59.422C136.27 59.474 136.201 59.5 136.114 59.5H135.516C135.421 59.5 135.347 59.474 135.295 59.422C135.243 59.3613 135.217 59.2877 135.217 59.201V58.642C135.105 58.798 134.953 58.954 134.762 59.11C134.572 59.2573 134.333 59.383 134.047 59.487C133.761 59.5823 133.41 59.63 132.994 59.63ZM133.267 58.655C133.623 58.655 133.948 58.5813 134.242 58.434C134.537 58.278 134.767 58.0397 134.931 57.719C135.105 57.3983 135.191 56.9953 135.191 56.51V56.146L133.683 56.367C133.068 56.4537 132.604 56.601 132.292 56.809C131.98 57.0083 131.824 57.264 131.824 57.576C131.824 57.8187 131.894 58.0223 132.032 58.187C132.18 58.343 132.362 58.46 132.578 58.538C132.804 58.616 133.033 58.655 133.267 58.655ZM143.939 59.63C143.462 59.63 143.051 59.5477 142.704 59.383C142.357 59.2097 142.071 58.98 141.846 58.694C141.629 58.3993 141.465 58.0657 141.352 57.693C141.248 57.3203 141.187 56.926 141.17 56.51C141.161 56.3713 141.157 56.2413 141.157 56.12C141.157 55.9987 141.161 55.8687 141.17 55.73C141.187 55.3227 141.248 54.9327 141.352 54.56C141.465 54.1873 141.629 53.8537 141.846 53.559C142.071 53.2643 142.357 53.0347 142.704 52.87C143.051 52.6967 143.462 52.61 143.939 52.61C144.45 52.61 144.875 52.701 145.213 52.883C145.551 53.065 145.828 53.2903 146.045 53.559V50.569C146.045 50.4823 146.071 50.413 146.123 50.361C146.184 50.3003 146.257 50.27 146.344 50.27H146.968C147.055 50.27 147.124 50.3003 147.176 50.361C147.237 50.413 147.267 50.4823 147.267 50.569V59.201C147.267 59.2877 147.237 59.3613 147.176 59.422C147.124 59.474 147.055 59.5 146.968 59.5H146.383C146.288 59.5 146.214 59.474 146.162 59.422C146.11 59.3613 146.084 59.2877 146.084 59.201V58.655C145.867 58.9323 145.586 59.1663 145.239 59.357C144.892 59.539 144.459 59.63 143.939 59.63ZM144.212 58.577C144.645 58.577 144.992 58.4773 145.252 58.278C145.512 58.0787 145.707 57.8273 145.837 57.524C145.967 57.212 146.036 56.8957 146.045 56.575C146.054 56.4363 146.058 56.2717 146.058 56.081C146.058 55.8817 146.054 55.7127 146.045 55.574C146.036 55.2707 145.963 54.9717 145.824 54.677C145.694 54.3823 145.495 54.1397 145.226 53.949C144.966 53.7583 144.628 53.663 144.212 53.663C143.77 53.663 143.419 53.7627 143.159 53.962C142.899 54.1527 142.713 54.4083 142.6 54.729C142.487 55.041 142.422 55.379 142.405 55.743C142.396 55.9943 142.396 56.2457 142.405 56.497C142.422 56.861 142.487 57.2033 142.6 57.524C142.713 57.836 142.899 58.0917 143.159 58.291C143.419 58.4817 143.77 58.577 144.212 58.577ZM151.891 59.63C150.999 59.63 150.288 59.357 149.759 58.811C149.231 58.2563 148.94 57.5023 148.888 56.549C148.88 56.4363 148.875 56.2933 148.875 56.12C148.875 55.938 148.88 55.7907 148.888 55.678C148.923 55.0627 149.066 54.5253 149.317 54.066C149.569 53.598 149.911 53.2383 150.344 52.987C150.786 52.7357 151.302 52.61 151.891 52.61C152.55 52.61 153.1 52.7487 153.542 53.026C153.993 53.3033 154.335 53.6977 154.569 54.209C154.803 54.7203 154.92 55.3183 154.92 56.003V56.224C154.92 56.3193 154.89 56.393 154.829 56.445C154.777 56.497 154.708 56.523 154.621 56.523H150.123C150.123 56.5317 150.123 56.549 150.123 56.575C150.123 56.601 150.123 56.6227 150.123 56.64C150.141 56.9953 150.219 57.329 150.357 57.641C150.496 57.9443 150.695 58.1913 150.955 58.382C151.215 58.5727 151.527 58.668 151.891 58.668C152.203 58.668 152.463 58.6203 152.671 58.525C152.879 58.4297 153.048 58.3257 153.178 58.213C153.308 58.0917 153.395 58.0007 153.438 57.94C153.516 57.8273 153.577 57.7623 153.62 57.745C153.664 57.719 153.733 57.706 153.828 57.706H154.452C154.539 57.706 154.608 57.732 154.66 57.784C154.721 57.8273 154.747 57.8923 154.738 57.979C154.73 58.109 154.66 58.2693 154.53 58.46C154.4 58.642 154.214 58.824 153.971 59.006C153.729 59.188 153.434 59.3397 153.087 59.461C152.741 59.5737 152.342 59.63 151.891 59.63ZM150.123 55.626H153.685V55.587C153.685 55.197 153.612 54.8503 153.464 54.547C153.326 54.2437 153.122 54.0053 152.853 53.832C152.585 53.65 152.264 53.559 151.891 53.559C151.519 53.559 151.198 53.65 150.929 53.832C150.669 54.0053 150.47 54.2437 150.331 54.547C150.193 54.8503 150.123 55.197 150.123 55.587V55.626ZM103.305 74.5C103.218 74.5 103.145 74.474 103.084 74.422C103.032 74.3613 103.006 74.2877 103.006 74.201V65.712C103.006 65.6167 103.032 65.543 103.084 65.491C103.145 65.4303 103.218 65.4 103.305 65.4H103.955C104.059 65.4 104.137 65.426 104.189 65.478C104.241 65.53 104.271 65.5733 104.28 65.608L107.036 70.86L109.805 65.608C109.822 65.5733 109.853 65.53 109.896 65.478C109.948 65.426 110.026 65.4 110.13 65.4H110.767C110.862 65.4 110.936 65.4303 110.988 65.491C111.049 65.543 111.079 65.6167 111.079 65.712V74.201C111.079 74.2877 111.049 74.3613 110.988 74.422C110.936 74.474 110.862 74.5 110.767 74.5H110.13C110.043 74.5 109.97 74.474 109.909 74.422C109.857 74.3613 109.831 74.2877 109.831 74.201V67.805L107.66 72.043C107.625 72.1297 107.573 72.199 107.504 72.251C107.435 72.2943 107.348 72.316 107.244 72.316H106.841C106.728 72.316 106.637 72.2943 106.568 72.251C106.507 72.199 106.455 72.1297 106.412 72.043L104.241 67.805V74.201C104.241 74.2877 104.211 74.3613 104.15 74.422C104.098 74.474 104.029 74.5 103.942 74.5H103.305ZM115.849 74.63C114.957 74.63 114.246 74.357 113.717 73.811C113.189 73.2563 112.898 72.5023 112.846 71.549C112.838 71.4363 112.833 71.2933 112.833 71.12C112.833 70.938 112.838 70.7907 112.846 70.678C112.881 70.0627 113.024 69.5253 113.275 69.066C113.527 68.598 113.869 68.2383 114.302 67.987C114.744 67.7357 115.26 67.61 115.849 67.61C116.508 67.61 117.058 67.7487 117.5 68.026C117.951 68.3033 118.293 68.6977 118.527 69.209C118.761 69.7203 118.878 70.3183 118.878 71.003V71.224C118.878 71.3193 118.848 71.393 118.787 71.445C118.735 71.497 118.666 71.523 118.579 71.523H114.081C114.081 71.5317 114.081 71.549 114.081 71.575C114.081 71.601 114.081 71.6227 114.081 71.64C114.099 71.9953 114.177 72.329 114.315 72.641C114.454 72.9443 114.653 73.1913 114.913 73.382C115.173 73.5727 115.485 73.668 115.849 73.668C116.161 73.668 116.421 73.6203 116.629 73.525C116.837 73.4297 117.006 73.3257 117.136 73.213C117.266 73.0917 117.353 73.0007 117.396 72.94C117.474 72.8273 117.535 72.7623 117.578 72.745C117.622 72.719 117.691 72.706 117.786 72.706H118.41C118.497 72.706 118.566 72.732 118.618 72.784C118.679 72.8273 118.705 72.8923 118.696 72.979C118.688 73.109 118.618 73.2693 118.488 73.46C118.358 73.642 118.172 73.824 117.929 74.006C117.687 74.188 117.392 74.3397 117.045 74.461C116.699 74.5737 116.3 74.63 115.849 74.63ZM114.081 70.626H117.643V70.587C117.643 70.197 117.57 69.8503 117.422 69.547C117.284 69.2437 117.08 69.0053 116.811 68.832C116.543 68.65 116.222 68.559 115.849 68.559C115.477 68.559 115.156 68.65 114.887 68.832C114.627 69.0053 114.428 69.2437 114.289 69.547C114.151 69.8503 114.081 70.197 114.081 70.587V70.626ZM115.498 66.765C115.36 66.765 115.29 66.6957 115.29 66.557C115.29 66.4877 115.312 66.4313 115.355 66.388L116.33 65.218C116.408 65.1227 116.478 65.062 116.538 65.036C116.599 65.0013 116.69 64.984 116.811 64.984H117.695C117.86 64.984 117.942 65.0663 117.942 65.231C117.942 65.2917 117.921 65.3437 117.877 65.387L116.369 66.622C116.3 66.6827 116.235 66.7217 116.174 66.739C116.114 66.7563 116.036 66.765 115.94 66.765H115.498ZM119.981 74.5C119.912 74.5 119.847 74.474 119.786 74.422C119.734 74.37 119.708 74.305 119.708 74.227C119.708 74.201 119.712 74.1707 119.721 74.136C119.738 74.0927 119.764 74.045 119.799 73.993L122.061 71.042L119.942 68.247C119.907 68.195 119.881 68.1517 119.864 68.117C119.855 68.0823 119.851 68.0477 119.851 68.013C119.851 67.935 119.877 67.87 119.929 67.818C119.981 67.766 120.046 67.74 120.124 67.74H120.787C120.882 67.74 120.952 67.766 120.995 67.818C121.047 67.8613 121.09 67.9047 121.125 67.948L122.854 70.197L124.583 67.961C124.618 67.9177 124.657 67.87 124.7 67.818C124.752 67.766 124.826 67.74 124.921 67.74H125.558C125.636 67.74 125.701 67.766 125.753 67.818C125.805 67.87 125.831 67.935 125.831 68.013C125.831 68.0477 125.822 68.0823 125.805 68.117C125.796 68.1517 125.775 68.195 125.74 68.247L123.595 71.068L125.857 73.993C125.892 74.045 125.913 74.0883 125.922 74.123C125.939 74.1577 125.948 74.1923 125.948 74.227C125.948 74.305 125.922 74.37 125.87 74.422C125.818 74.474 125.753 74.5 125.675 74.5H124.986C124.899 74.5 124.83 74.4783 124.778 74.435C124.726 74.3917 124.683 74.3483 124.648 74.305L122.815 71.926L120.982 74.305C120.947 74.3397 120.904 74.383 120.852 74.435C120.809 74.4783 120.739 74.5 120.644 74.5H119.981ZM127.6 74.5C127.513 74.5 127.44 74.474 127.379 74.422C127.327 74.3613 127.301 74.2877 127.301 74.201V68.039C127.301 67.9523 127.327 67.883 127.379 67.831C127.44 67.7703 127.513 67.74 127.6 67.74H128.224C128.311 67.74 128.38 67.7703 128.432 67.831C128.484 67.883 128.51 67.9523 128.51 68.039V74.201C128.51 74.2877 128.484 74.3613 128.432 74.422C128.38 74.474 128.311 74.5 128.224 74.5H127.6ZM127.496 66.479C127.409 66.479 127.336 66.453 127.275 66.401C127.223 66.3403 127.197 66.2667 127.197 66.18V65.478C127.197 65.3913 127.223 65.322 127.275 65.27C127.336 65.2093 127.409 65.179 127.496 65.179H128.315C128.402 65.179 128.471 65.2093 128.523 65.27C128.584 65.322 128.614 65.3913 128.614 65.478V66.18C128.614 66.2667 128.584 66.3403 128.523 66.401C128.471 66.453 128.402 66.479 128.315 66.479H127.496ZM133.179 74.63C132.564 74.63 132.031 74.513 131.58 74.279C131.138 74.0363 130.796 73.694 130.553 73.252C130.311 72.8013 130.181 72.264 130.163 71.64C130.155 71.51 130.15 71.3367 130.15 71.12C130.15 70.9033 130.155 70.73 130.163 70.6C130.181 69.976 130.311 69.443 130.553 69.001C130.796 68.5503 131.138 68.208 131.58 67.974C132.031 67.7313 132.564 67.61 133.179 67.61C133.682 67.61 134.111 67.6793 134.466 67.818C134.83 67.9567 135.129 68.1343 135.363 68.351C135.597 68.5677 135.771 68.8017 135.883 69.053C136.005 69.3043 136.07 69.5427 136.078 69.768C136.087 69.8547 136.061 69.924 136 69.976C135.94 70.028 135.866 70.054 135.779 70.054H135.155C135.069 70.054 135.004 70.0367 134.96 70.002C134.917 69.9587 134.874 69.8893 134.83 69.794C134.674 69.3693 134.462 69.0703 134.193 68.897C133.925 68.7237 133.591 68.637 133.192 68.637C132.672 68.637 132.248 68.7973 131.918 69.118C131.598 69.4387 131.424 69.9543 131.398 70.665C131.39 70.977 131.39 71.2803 131.398 71.575C131.424 72.2943 131.598 72.8143 131.918 73.135C132.248 73.447 132.672 73.603 133.192 73.603C133.591 73.603 133.925 73.5163 134.193 73.343C134.462 73.1697 134.674 72.8707 134.83 72.446C134.874 72.3507 134.917 72.2857 134.96 72.251C135.004 72.2077 135.069 72.186 135.155 72.186H135.779C135.866 72.186 135.94 72.212 136 72.264C136.061 72.316 136.087 72.3853 136.078 72.472C136.07 72.654 136.031 72.8403 135.961 73.031C135.892 73.2217 135.779 73.4167 135.623 73.616C135.476 73.8067 135.29 73.98 135.064 74.136C134.839 74.2833 134.566 74.4047 134.245 74.5C133.933 74.5867 133.578 74.63 133.179 74.63ZM140.391 74.63C139.732 74.63 139.182 74.5043 138.74 74.253C138.298 74.0017 137.96 73.655 137.726 73.213C137.492 72.7623 137.362 72.251 137.336 71.679C137.327 71.5317 137.323 71.3453 137.323 71.12C137.323 70.886 137.327 70.6997 137.336 70.561C137.362 69.9803 137.492 69.469 137.726 69.027C137.969 68.585 138.311 68.2383 138.753 67.987C139.195 67.7357 139.741 67.61 140.391 67.61C141.041 67.61 141.587 67.7357 142.029 67.987C142.471 68.2383 142.809 68.585 143.043 69.027C143.286 69.469 143.42 69.9803 143.446 70.561C143.455 70.6997 143.459 70.886 143.459 71.12C143.459 71.3453 143.455 71.5317 143.446 71.679C143.42 72.251 143.29 72.7623 143.056 73.213C142.822 73.655 142.484 74.0017 142.042 74.253C141.6 74.5043 141.05 74.63 140.391 74.63ZM140.391 73.629C140.928 73.629 141.357 73.46 141.678 73.122C141.999 72.7753 142.172 72.2727 142.198 71.614C142.207 71.484 142.211 71.3193 142.211 71.12C142.211 70.9207 142.207 70.756 142.198 70.626C142.172 69.9673 141.999 69.469 141.678 69.131C141.357 68.7843 140.928 68.611 140.391 68.611C139.854 68.611 139.42 68.7843 139.091 69.131C138.77 69.469 138.601 69.9673 138.584 70.626C138.575 70.756 138.571 70.9207 138.571 71.12C138.571 71.3193 138.575 71.484 138.584 71.614C138.601 72.2727 138.77 72.7753 139.091 73.122C139.42 73.46 139.854 73.629 140.391 73.629Z" fill="#171B22"/>
<rect x="104.5" y="81.5" width="37" height="25" rx="12.5" fill="#47830E"/>
<path d="M117.342 98.64C116.67 98.64 116.086 98.5467 115.592 98.36C115.097 98.164 114.686 97.898 114.36 97.562C114.042 97.226 113.8 96.834 113.632 96.386C113.464 95.938 113.366 95.4573 113.338 94.944C113.328 94.692 113.319 94.4073 113.31 94.09C113.31 93.7633 113.31 93.4367 113.31 93.11C113.319 92.774 113.328 92.4753 113.338 92.214C113.366 91.7007 113.464 91.2247 113.632 90.786C113.809 90.338 114.061 89.9507 114.388 89.624C114.724 89.288 115.134 89.0267 115.62 88.84C116.114 88.6533 116.688 88.56 117.342 88.56C118.004 88.56 118.578 88.6533 119.064 88.84C119.549 89.0267 119.955 89.288 120.282 89.624C120.618 89.9507 120.874 90.338 121.052 90.786C121.229 91.2247 121.327 91.7007 121.346 92.214C121.364 92.4753 121.374 92.774 121.374 93.11C121.383 93.4367 121.383 93.7633 121.374 94.09C121.374 94.4073 121.364 94.692 121.346 94.944C121.327 95.4573 121.229 95.938 121.052 96.386C120.884 96.834 120.636 97.226 120.31 97.562C119.992 97.898 119.586 98.164 119.092 98.36C118.606 98.5467 118.023 98.64 117.342 98.64ZM117.342 96.61C117.827 96.61 118.177 96.456 118.392 96.148C118.616 95.8307 118.732 95.406 118.742 94.874C118.76 94.6033 118.77 94.3187 118.77 94.02C118.779 93.7213 118.779 93.4227 118.77 93.124C118.77 92.8253 118.76 92.55 118.742 92.298C118.732 91.7847 118.616 91.3693 118.392 91.052C118.177 90.7347 117.827 90.5713 117.342 90.562C116.856 90.5713 116.506 90.7347 116.292 91.052C116.077 91.3693 115.96 91.7847 115.942 92.298C115.932 92.55 115.923 92.8253 115.914 93.124C115.914 93.4227 115.914 93.7213 115.914 94.02C115.923 94.3187 115.932 94.6033 115.942 94.874C115.96 95.406 116.082 95.8307 116.306 96.148C116.53 96.456 116.875 96.61 117.342 96.61ZM123.679 98.5C123.465 98.5 123.357 98.4067 123.357 98.22C123.357 98.164 123.376 98.1127 123.413 98.066L130.329 88.966C130.395 88.882 130.46 88.8167 130.525 88.77C130.591 88.7233 130.689 88.7 130.819 88.7H131.813C132.028 88.7 132.135 88.7933 132.135 88.98C132.135 89.036 132.117 89.0873 132.079 89.134L125.163 98.234C125.098 98.318 125.033 98.3833 124.967 98.43C124.902 98.4767 124.804 98.5 124.673 98.5H123.679ZM130.721 98.57C130.087 98.57 129.578 98.402 129.195 98.066C128.822 97.73 128.612 97.282 128.565 96.722C128.556 96.4793 128.551 96.2647 128.551 96.078C128.551 95.8913 128.556 95.6673 128.565 95.406C128.603 94.8367 128.803 94.384 129.167 94.048C129.541 93.7027 130.059 93.53 130.721 93.53C131.393 93.53 131.911 93.7027 132.275 94.048C132.639 94.384 132.84 94.8367 132.877 95.406C132.896 95.6673 132.905 95.8913 132.905 96.078C132.905 96.2647 132.896 96.4793 132.877 96.722C132.84 97.282 132.63 97.73 132.247 98.066C131.865 98.402 131.356 98.57 130.721 98.57ZM130.721 97.338C130.88 97.338 131.001 97.3053 131.085 97.24C131.179 97.1747 131.249 97.0907 131.295 96.988C131.342 96.876 131.365 96.7593 131.365 96.638C131.384 96.4233 131.393 96.2273 131.393 96.05C131.393 95.8727 131.384 95.6813 131.365 95.476C131.356 95.2987 131.305 95.14 131.211 95C131.118 94.8507 130.955 94.776 130.721 94.776C130.488 94.776 130.325 94.8507 130.231 95C130.138 95.14 130.087 95.2987 130.077 95.476C130.068 95.6813 130.063 95.8727 130.063 96.05C130.063 96.2273 130.068 96.4233 130.077 96.638C130.087 96.7593 130.11 96.876 130.147 96.988C130.194 97.0907 130.264 97.1747 130.357 97.24C130.451 97.3053 130.572 97.338 130.721 97.338ZM124.799 93.642C124.155 93.642 123.642 93.4787 123.259 93.152C122.886 92.816 122.681 92.368 122.643 91.808C122.625 91.5653 122.615 91.3553 122.615 91.178C122.625 90.9913 122.634 90.7673 122.643 90.506C122.671 89.9367 122.867 89.484 123.231 89.148C123.605 88.8027 124.127 88.63 124.799 88.63C125.471 88.63 125.989 88.8027 126.353 89.148C126.717 89.484 126.913 89.9367 126.941 90.506C126.96 90.7673 126.969 90.9913 126.969 91.178C126.969 91.3553 126.96 91.5653 126.941 91.808C126.913 92.368 126.708 92.816 126.325 93.152C125.943 93.4787 125.434 93.642 124.799 93.642ZM124.799 92.438C124.949 92.438 125.07 92.4053 125.163 92.34C125.257 92.2653 125.327 92.1767 125.373 92.074C125.42 91.962 125.443 91.85 125.443 91.738C125.462 91.5233 125.471 91.3273 125.471 91.15C125.471 90.9727 125.462 90.7813 125.443 90.576C125.434 90.3987 125.378 90.24 125.275 90.1C125.182 89.9507 125.023 89.876 124.799 89.876C124.566 89.876 124.398 89.9507 124.295 90.1C124.202 90.24 124.151 90.3987 124.141 90.576C124.132 90.7813 124.127 90.9727 124.127 91.15C124.127 91.3273 124.132 91.5233 124.141 91.738C124.151 91.85 124.174 91.962 124.211 92.074C124.258 92.1767 124.328 92.2653 124.421 92.34C124.515 92.4053 124.641 92.438 124.799 92.438Z" fill="white"/>
<g filter="url(#filter0_d_16167_41091)">
<rect x="152" y="14" width="32" height="32" rx="16" fill="white"/>
<rect x="151" y="13" width="34" height="34" rx="17" stroke="#1DA534" stroke-width="2"/>
<path opacity="0.4" d="M168 40C173.523 40 178 35.5228 178 30C178 24.4772 173.523 20 168 20C162.477 20 158 24.4772 158 30C158 35.5228 162.477 40 168 40Z" fill="#1DA534"/>
<path d="M166.579 33.5801C166.379 33.5801 166.189 33.5001 166.049 33.3601L163.219 30.5301C162.929 30.2401 162.929 29.7601 163.219 29.4701C163.509 29.1801 163.989 29.1801 164.279 29.4701L166.579 31.7701L171.719 26.6301C172.009 26.3401 172.489 26.3401 172.779 26.6301C173.069 26.9201 173.069 27.4001 172.779 27.6901L167.109 33.3601C166.969 33.5001 166.779 33.5801 166.579 33.5801Z" fill="#1DA534"/>
</g>
<defs>
<filter id="filter0_d_16167_41091" x="135" y="5" width="66" height="66" filterUnits="userSpaceOnUse" color-interpolation-filters="sRGB">
<feFlood flood-opacity="0" result="BackgroundImageFix"/>
<feColorMatrix in="SourceAlpha" type="matrix" values="0 0 0 0 0 0 0 0 0 0 0 0 0 0 0 0 0 0 127 0" result="hardAlpha"/>
<feOffset dy="8"/>
<feGaussianBlur stdDeviation="7.5"/>
<feColorMatrix type="matrix" values="0 0 0 0 0 0 0 0 0 0 0 0 0 0 0 0 0 0 0.25 0"/>
<feBlend mode="normal" in2="BackgroundImageFix" result="effect1_dropShadow_16167_41091"/>
<feBlend mode="normal" in="SourceGraphic" in2="effect1_dropShadow_16167_41091" result="shape"/>
</filter>
</defs>
</svg>
