<svg width="351" height="118" viewBox="0 0 351 118" fill="none" xmlns="http://www.w3.org/2000/svg">
<rect x="108" y="2" width="114" height="114" rx="57" fill="#FFFAE6"/>
<rect x="108" y="2" width="114" height="114" rx="57" stroke="#FFD333" stroke-width="4"/>
<path opacity="0.4" d="M164.999 48.1999C172.363 48.1999 178.333 42.2303 178.333 34.8665C178.333 27.5027 172.363 21.5332 164.999 21.5332C157.636 21.5332 151.666 27.5027 151.666 34.8665C151.666 42.2303 157.636 48.1999 164.999 48.1999Z" fill="#E8B600"/>
<path d="M168.014 35L166 34.2933V29.7733H166.48C167.56 29.7733 168.44 30.72 168.44 31.88C168.44 32.4267 168.894 32.88 169.44 32.88C169.987 32.88 170.44 32.4267 170.44 31.88C170.44 29.6133 168.667 27.7733 166.48 27.7733H166V27C166 26.4533 165.547 26 165 26C164.454 26 164 26.4533 164 27V27.7733H163.134C161.16 27.7733 159.547 29.44 159.547 31.48C159.547 33.8667 160.934 34.6267 161.987 35L164 35.7067V40.2133H163.52C162.44 40.2133 161.56 39.2667 161.56 38.1067C161.56 37.56 161.107 37.1067 160.56 37.1067C160.014 37.1067 159.56 37.56 159.56 38.1067C159.56 40.3733 161.334 42.2133 163.52 42.2133H164V43C164 43.5467 164.454 44 165 44C165.547 44 166 43.5467 166 43V42.2267H166.867C168.84 42.2267 170.454 40.56 170.454 38.52C170.44 36.12 169.054 35.36 168.014 35ZM162.654 33.12C161.974 32.88 161.56 32.6533 161.56 31.4933C161.56 30.5467 162.267 29.7867 163.147 29.7867H164.014V33.6L162.654 33.12ZM166.867 40.2267H166V36.4133L167.347 36.88C168.027 37.12 168.44 37.3467 168.44 38.5067C168.44 39.4533 167.734 40.2267 166.867 40.2267Z" fill="#E8B600"/>
<path d="M136.596 67C136.501 67 136.427 66.974 136.375 66.922C136.323 66.8613 136.297 66.7877 136.297 66.701V58.212C136.297 58.1167 136.323 58.043 136.375 57.991C136.427 57.9303 136.501 57.9 136.596 57.9H141.965C142.06 57.9 142.134 57.9303 142.186 57.991C142.238 58.043 142.264 58.1167 142.264 58.212V58.706C142.264 58.8013 142.238 58.875 142.186 58.927C142.134 58.979 142.06 59.005 141.965 59.005H137.545V61.852H141.679C141.774 61.852 141.848 61.8823 141.9 61.943C141.952 61.995 141.978 62.0687 141.978 62.164V62.645C141.978 62.7317 141.952 62.8053 141.9 62.866C141.848 62.918 141.774 62.944 141.679 62.944H137.545V65.895H142.069C142.164 65.895 142.238 65.921 142.29 65.973C142.342 66.025 142.368 66.0987 142.368 66.194V66.701C142.368 66.7877 142.342 66.8613 142.29 66.922C142.238 66.974 142.164 67 142.069 67H136.596ZM146.666 67.13C146.05 67.13 145.517 67.013 145.067 66.779C144.625 66.5363 144.282 66.194 144.04 65.752C143.797 65.3013 143.667 64.764 143.65 64.14C143.641 64.01 143.637 63.8367 143.637 63.62C143.637 63.4033 143.641 63.23 143.65 63.1C143.667 62.476 143.797 61.943 144.04 61.501C144.282 61.0503 144.625 60.708 145.067 60.474C145.517 60.2313 146.05 60.11 146.666 60.11C147.168 60.11 147.597 60.1793 147.953 60.318C148.317 60.4567 148.616 60.6343 148.85 60.851C149.084 61.0677 149.257 61.3017 149.37 61.553C149.491 61.8043 149.556 62.0427 149.565 62.268C149.573 62.3547 149.547 62.424 149.487 62.476C149.426 62.528 149.352 62.554 149.266 62.554H148.642C148.555 62.554 148.49 62.5367 148.447 62.502C148.403 62.4587 148.36 62.3893 148.317 62.294C148.161 61.8693 147.948 61.5703 147.68 61.397C147.411 61.2237 147.077 61.137 146.679 61.137C146.159 61.137 145.734 61.2973 145.405 61.618C145.084 61.9387 144.911 62.4543 144.885 63.165C144.876 63.477 144.876 63.7803 144.885 64.075C144.911 64.7943 145.084 65.3143 145.405 65.635C145.734 65.947 146.159 66.103 146.679 66.103C147.077 66.103 147.411 66.0163 147.68 65.843C147.948 65.6697 148.161 65.3707 148.317 64.946C148.36 64.8507 148.403 64.7857 148.447 64.751C148.49 64.7077 148.555 64.686 148.642 64.686H149.266C149.352 64.686 149.426 64.712 149.487 64.764C149.547 64.816 149.573 64.8853 149.565 64.972C149.556 65.154 149.517 65.3403 149.448 65.531C149.378 65.7217 149.266 65.9167 149.11 66.116C148.962 66.3067 148.776 66.48 148.551 66.636C148.325 66.7833 148.052 66.9047 147.732 67C147.42 67.0867 147.064 67.13 146.666 67.13ZM153.877 67.13C153.219 67.13 152.668 67.0043 152.226 66.753C151.784 66.5017 151.446 66.155 151.212 65.713C150.978 65.2623 150.848 64.751 150.822 64.179C150.814 64.0317 150.809 63.8453 150.809 63.62C150.809 63.386 150.814 63.1997 150.822 63.061C150.848 62.4803 150.978 61.969 151.212 61.527C151.455 61.085 151.797 60.7383 152.239 60.487C152.681 60.2357 153.227 60.11 153.877 60.11C154.527 60.11 155.073 60.2357 155.515 60.487C155.957 60.7383 156.295 61.085 156.529 61.527C156.772 61.969 156.906 62.4803 156.932 63.061C156.941 63.1997 156.945 63.386 156.945 63.62C156.945 63.8453 156.941 64.0317 156.932 64.179C156.906 64.751 156.776 65.2623 156.542 65.713C156.308 66.155 155.97 66.5017 155.528 66.753C155.086 67.0043 154.536 67.13 153.877 67.13ZM153.877 66.129C154.415 66.129 154.844 65.96 155.164 65.622C155.485 65.2753 155.658 64.7727 155.684 64.114C155.693 63.984 155.697 63.8193 155.697 63.62C155.697 63.4207 155.693 63.256 155.684 63.126C155.658 62.4673 155.485 61.969 155.164 61.631C154.844 61.2843 154.415 61.111 153.877 61.111C153.34 61.111 152.907 61.2843 152.577 61.631C152.257 61.969 152.088 62.4673 152.07 63.126C152.062 63.256 152.057 63.4207 152.057 63.62C152.057 63.8193 152.062 63.984 152.07 64.114C152.088 64.7727 152.257 65.2753 152.577 65.622C152.907 65.96 153.34 66.129 153.877 66.129ZM158.872 67C158.786 67 158.712 66.974 158.651 66.922C158.599 66.8613 158.573 66.7877 158.573 66.701V60.539C158.573 60.4523 158.599 60.383 158.651 60.331C158.712 60.2703 158.786 60.24 158.872 60.24H159.483C159.57 60.24 159.639 60.2703 159.691 60.331C159.752 60.383 159.782 60.4523 159.782 60.539V61.111C160.008 60.8163 160.289 60.578 160.627 60.396C160.974 60.2053 161.416 60.11 161.953 60.11C162.517 60.11 162.993 60.2357 163.383 60.487C163.782 60.7297 164.081 61.072 164.28 61.514C164.48 61.9473 164.579 62.4543 164.579 63.035V66.701C164.579 66.7877 164.553 66.8613 164.501 66.922C164.449 66.974 164.38 67 164.293 67H163.643C163.557 67 163.483 66.974 163.422 66.922C163.37 66.8613 163.344 66.7877 163.344 66.701V63.1C163.344 62.4933 163.197 62.021 162.902 61.683C162.608 61.3363 162.174 61.163 161.602 61.163C161.065 61.163 160.632 61.3363 160.302 61.683C159.982 62.021 159.821 62.4933 159.821 63.1V66.701C159.821 66.7877 159.791 66.8613 159.73 66.922C159.678 66.974 159.609 67 159.522 67H158.872ZM169.226 67.13C168.567 67.13 168.017 67.0043 167.575 66.753C167.133 66.5017 166.795 66.155 166.561 65.713C166.327 65.2623 166.197 64.751 166.171 64.179C166.162 64.0317 166.158 63.8453 166.158 63.62C166.158 63.386 166.162 63.1997 166.171 63.061C166.197 62.4803 166.327 61.969 166.561 61.527C166.804 61.085 167.146 60.7383 167.588 60.487C168.03 60.2357 168.576 60.11 169.226 60.11C169.876 60.11 170.422 60.2357 170.864 60.487C171.306 60.7383 171.644 61.085 171.878 61.527C172.121 61.969 172.255 62.4803 172.281 63.061C172.29 63.1997 172.294 63.386 172.294 63.62C172.294 63.8453 172.29 64.0317 172.281 64.179C172.255 64.751 172.125 65.2623 171.891 65.713C171.657 66.155 171.319 66.5017 170.877 66.753C170.435 67.0043 169.885 67.13 169.226 67.13ZM169.226 66.129C169.763 66.129 170.192 65.96 170.513 65.622C170.834 65.2753 171.007 64.7727 171.033 64.114C171.042 63.984 171.046 63.8193 171.046 63.62C171.046 63.4207 171.042 63.256 171.033 63.126C171.007 62.4673 170.834 61.969 170.513 61.631C170.192 61.2843 169.763 61.111 169.226 61.111C168.689 61.111 168.255 61.2843 167.926 61.631C167.605 61.969 167.436 62.4673 167.419 63.126C167.41 63.256 167.406 63.4207 167.406 63.62C167.406 63.8193 167.41 63.984 167.419 64.114C167.436 64.7727 167.605 65.2753 167.926 65.622C168.255 65.96 168.689 66.129 169.226 66.129ZM174.221 67C174.134 67 174.061 66.974 174 66.922C173.948 66.8613 173.922 66.7877 173.922 66.701V60.539C173.922 60.4523 173.948 60.383 174 60.331C174.061 60.2703 174.134 60.24 174.221 60.24H174.806C174.893 60.24 174.962 60.2703 175.014 60.331C175.075 60.383 175.105 60.4523 175.105 60.539V60.994C175.304 60.7253 175.556 60.513 175.859 60.357C176.162 60.1923 176.526 60.11 176.951 60.11C177.93 60.1013 178.624 60.5 179.031 61.306C179.23 60.942 179.521 60.6517 179.902 60.435C180.283 60.2183 180.717 60.11 181.202 60.11C181.653 60.11 182.06 60.214 182.424 60.422C182.797 60.63 183.087 60.9463 183.295 61.371C183.512 61.787 183.62 62.3113 183.62 62.944V66.701C183.62 66.7877 183.59 66.8613 183.529 66.922C183.477 66.974 183.408 67 183.321 67H182.71C182.623 67 182.55 66.974 182.489 66.922C182.437 66.8613 182.411 66.7877 182.411 66.701V63.061C182.411 62.5757 182.342 62.1943 182.203 61.917C182.064 61.6397 181.878 61.4447 181.644 61.332C181.41 61.2193 181.154 61.163 180.877 61.163C180.652 61.163 180.422 61.2193 180.188 61.332C179.954 61.4447 179.759 61.6397 179.603 61.917C179.456 62.1943 179.382 62.5757 179.382 63.061V66.701C179.382 66.7877 179.352 66.8613 179.291 66.922C179.239 66.974 179.17 67 179.083 67H178.472C178.385 67 178.312 66.974 178.251 66.922C178.199 66.8613 178.173 66.7877 178.173 66.701V63.061C178.173 62.5757 178.099 62.1943 177.952 61.917C177.805 61.6397 177.614 61.4447 177.38 61.332C177.146 61.2193 176.899 61.163 176.639 61.163C176.414 61.163 176.184 61.2193 175.95 61.332C175.716 61.4447 175.521 61.6397 175.365 61.917C175.218 62.1943 175.144 62.5713 175.144 63.048V66.701C175.144 66.7877 175.114 66.8613 175.053 66.922C175.001 66.974 174.932 67 174.845 67H174.221ZM185.774 67C185.687 67 185.613 66.974 185.553 66.922C185.501 66.8613 185.475 66.7877 185.475 66.701V60.539C185.475 60.4523 185.501 60.383 185.553 60.331C185.613 60.2703 185.687 60.24 185.774 60.24H186.398C186.484 60.24 186.554 60.2703 186.606 60.331C186.658 60.383 186.684 60.4523 186.684 60.539V66.701C186.684 66.7877 186.658 66.8613 186.606 66.922C186.554 66.974 186.484 67 186.398 67H185.774ZM185.735 59.265C185.596 59.265 185.527 59.1957 185.527 59.057C185.527 58.9877 185.548 58.9313 185.592 58.888L186.567 57.718C186.645 57.6227 186.714 57.562 186.775 57.536C186.835 57.5013 186.926 57.484 187.048 57.484H187.932C188.096 57.484 188.179 57.5663 188.179 57.731C188.179 57.7917 188.157 57.8437 188.114 57.887L186.606 59.122C186.536 59.1827 186.471 59.2217 186.411 59.239C186.35 59.2563 186.272 59.265 186.177 59.265H185.735ZM190.508 67.13C190.075 67.13 189.68 67.0433 189.325 66.87C188.97 66.6967 188.684 66.4627 188.467 66.168C188.25 65.8733 188.142 65.5397 188.142 65.167C188.142 64.569 188.385 64.0923 188.87 63.737C189.355 63.3817 189.988 63.1477 190.768 63.035L192.705 62.762V62.385C192.705 61.969 192.584 61.644 192.341 61.41C192.107 61.176 191.721 61.059 191.184 61.059C190.794 61.059 190.478 61.137 190.235 61.293C190.001 61.449 189.836 61.6483 189.741 61.891C189.689 62.021 189.598 62.086 189.468 62.086H188.883C188.788 62.086 188.714 62.06 188.662 62.008C188.619 61.9473 188.597 61.878 188.597 61.8C188.597 61.67 188.645 61.5097 188.74 61.319C188.844 61.1283 189 60.942 189.208 60.76C189.416 60.578 189.68 60.4263 190.001 60.305C190.33 60.175 190.729 60.11 191.197 60.11C191.717 60.11 192.155 60.1793 192.51 60.318C192.865 60.448 193.143 60.6257 193.342 60.851C193.55 61.0763 193.697 61.332 193.784 61.618C193.879 61.904 193.927 62.1943 193.927 62.489V66.701C193.927 66.7877 193.897 66.8613 193.836 66.922C193.784 66.974 193.715 67 193.628 67H193.03C192.935 67 192.861 66.974 192.809 66.922C192.757 66.8613 192.731 66.7877 192.731 66.701V66.142C192.618 66.298 192.467 66.454 192.276 66.61C192.085 66.7573 191.847 66.883 191.561 66.987C191.275 67.0823 190.924 67.13 190.508 67.13ZM190.781 66.155C191.136 66.155 191.461 66.0813 191.756 65.934C192.051 65.778 192.28 65.5397 192.445 65.219C192.618 64.8983 192.705 64.4953 192.705 64.01V63.646L191.197 63.867C190.582 63.9537 190.118 64.101 189.806 64.309C189.494 64.5083 189.338 64.764 189.338 65.076C189.338 65.3187 189.407 65.5223 189.546 65.687C189.693 65.843 189.875 65.96 190.092 66.038C190.317 66.116 190.547 66.155 190.781 66.155Z" fill="#171B22"/>
<rect x="146.5" y="74" width="37" height="25" rx="12.5" fill="#E8B600"/>
<path d="M159.342 91.14C158.67 91.14 158.086 91.0467 157.592 90.86C157.097 90.664 156.686 90.398 156.36 90.062C156.042 89.726 155.8 89.334 155.632 88.886C155.464 88.438 155.366 87.9573 155.338 87.444C155.328 87.192 155.319 86.9073 155.31 86.59C155.31 86.2633 155.31 85.9367 155.31 85.61C155.319 85.274 155.328 84.9753 155.338 84.714C155.366 84.2007 155.464 83.7247 155.632 83.286C155.809 82.838 156.061 82.4507 156.388 82.124C156.724 81.788 157.134 81.5267 157.62 81.34C158.114 81.1533 158.688 81.06 159.342 81.06C160.004 81.06 160.578 81.1533 161.064 81.34C161.549 81.5267 161.955 81.788 162.282 82.124C162.618 82.4507 162.874 82.838 163.052 83.286C163.229 83.7247 163.327 84.2007 163.346 84.714C163.364 84.9753 163.374 85.274 163.374 85.61C163.383 85.9367 163.383 86.2633 163.374 86.59C163.374 86.9073 163.364 87.192 163.346 87.444C163.327 87.9573 163.229 88.438 163.052 88.886C162.884 89.334 162.636 89.726 162.31 90.062C161.992 90.398 161.586 90.664 161.092 90.86C160.606 91.0467 160.023 91.14 159.342 91.14ZM159.342 89.11C159.827 89.11 160.177 88.956 160.392 88.648C160.616 88.3307 160.732 87.906 160.742 87.374C160.76 87.1033 160.77 86.8187 160.77 86.52C160.779 86.2213 160.779 85.9227 160.77 85.624C160.77 85.3253 160.76 85.05 160.742 84.798C160.732 84.2847 160.616 83.8693 160.392 83.552C160.177 83.2347 159.827 83.0713 159.342 83.062C158.856 83.0713 158.506 83.2347 158.292 83.552C158.077 83.8693 157.96 84.2847 157.942 84.798C157.932 85.05 157.923 85.3253 157.914 85.624C157.914 85.9227 157.914 86.2213 157.914 86.52C157.923 86.8187 157.932 87.1033 157.942 87.374C157.96 87.906 158.082 88.3307 158.306 88.648C158.53 88.956 158.875 89.11 159.342 89.11ZM165.679 91C165.465 91 165.357 90.9067 165.357 90.72C165.357 90.664 165.376 90.6127 165.413 90.566L172.329 81.466C172.395 81.382 172.46 81.3167 172.525 81.27C172.591 81.2233 172.689 81.2 172.819 81.2H173.813C174.028 81.2 174.135 81.2933 174.135 81.48C174.135 81.536 174.117 81.5873 174.079 81.634L167.163 90.734C167.098 90.818 167.033 90.8833 166.967 90.93C166.902 90.9767 166.804 91 166.673 91H165.679ZM172.721 91.07C172.087 91.07 171.578 90.902 171.195 90.566C170.822 90.23 170.612 89.782 170.565 89.222C170.556 88.9793 170.551 88.7647 170.551 88.578C170.551 88.3913 170.556 88.1673 170.565 87.906C170.603 87.3367 170.803 86.884 171.167 86.548C171.541 86.2027 172.059 86.03 172.721 86.03C173.393 86.03 173.911 86.2027 174.275 86.548C174.639 86.884 174.84 87.3367 174.877 87.906C174.896 88.1673 174.905 88.3913 174.905 88.578C174.905 88.7647 174.896 88.9793 174.877 89.222C174.84 89.782 174.63 90.23 174.247 90.566C173.865 90.902 173.356 91.07 172.721 91.07ZM172.721 89.838C172.88 89.838 173.001 89.8053 173.085 89.74C173.179 89.6747 173.249 89.5907 173.295 89.488C173.342 89.376 173.365 89.2593 173.365 89.138C173.384 88.9233 173.393 88.7273 173.393 88.55C173.393 88.3727 173.384 88.1813 173.365 87.976C173.356 87.7987 173.305 87.64 173.211 87.5C173.118 87.3507 172.955 87.276 172.721 87.276C172.488 87.276 172.325 87.3507 172.231 87.5C172.138 87.64 172.087 87.7987 172.077 87.976C172.068 88.1813 172.063 88.3727 172.063 88.55C172.063 88.7273 172.068 88.9233 172.077 89.138C172.087 89.2593 172.11 89.376 172.147 89.488C172.194 89.5907 172.264 89.6747 172.357 89.74C172.451 89.8053 172.572 89.838 172.721 89.838ZM166.799 86.142C166.155 86.142 165.642 85.9787 165.259 85.652C164.886 85.316 164.681 84.868 164.643 84.308C164.625 84.0653 164.615 83.8553 164.615 83.678C164.625 83.4913 164.634 83.2673 164.643 83.006C164.671 82.4367 164.867 81.984 165.231 81.648C165.605 81.3027 166.127 81.13 166.799 81.13C167.471 81.13 167.989 81.3027 168.353 81.648C168.717 81.984 168.913 82.4367 168.941 83.006C168.96 83.2673 168.969 83.4913 168.969 83.678C168.969 83.8553 168.96 84.0653 168.941 84.308C168.913 84.868 168.708 85.316 168.325 85.652C167.943 85.9787 167.434 86.142 166.799 86.142ZM166.799 84.938C166.949 84.938 167.07 84.9053 167.163 84.84C167.257 84.7653 167.327 84.6767 167.373 84.574C167.42 84.462 167.443 84.35 167.443 84.238C167.462 84.0233 167.471 83.8273 167.471 83.65C167.471 83.4727 167.462 83.2813 167.443 83.076C167.434 82.8987 167.378 82.74 167.275 82.6C167.182 82.4507 167.023 82.376 166.799 82.376C166.566 82.376 166.398 82.4507 166.295 82.6C166.202 82.74 166.151 82.8987 166.141 83.076C166.132 83.2813 166.127 83.4727 166.127 83.65C166.127 83.8273 166.132 84.0233 166.141 84.238C166.151 84.35 166.174 84.462 166.211 84.574C166.258 84.6767 166.328 84.7653 166.421 84.84C166.515 84.9053 166.641 84.938 166.799 84.938Z" fill="white"/>
<g filter="url(#filter0_d_16167_41089)">
<rect x="194" y="14" width="32" height="32" rx="16" fill="white"/>
<rect x="193" y="13" width="34" height="34" rx="17" stroke="#1DA534" stroke-width="2"/>
<path opacity="0.4" d="M210 40C215.523 40 220 35.5228 220 30C220 24.4772 215.523 20 210 20C204.477 20 200 24.4772 200 30C200 35.5228 204.477 40 210 40Z" fill="#1DA534"/>
<path d="M208.579 33.5801C208.379 33.5801 208.189 33.5001 208.049 33.3601L205.219 30.5301C204.929 30.2401 204.929 29.7601 205.219 29.4701C205.509 29.1801 205.989 29.1801 206.279 29.4701L208.579 31.7701L213.719 26.6301C214.009 26.3401 214.489 26.3401 214.779 26.6301C215.069 26.9201 215.069 27.4001 214.779 27.6901L209.109 33.3601C208.969 33.5001 208.779 33.5801 208.579 33.5801Z" fill="#1DA534"/>
</g>
<defs>
<filter id="filter0_d_16167_41089" x="177" y="5" width="66" height="66" filterUnits="userSpaceOnUse" color-interpolation-filters="sRGB">
<feFlood flood-opacity="0" result="BackgroundImageFix"/>
<feColorMatrix in="SourceAlpha" type="matrix" values="0 0 0 0 0 0 0 0 0 0 0 0 0 0 0 0 0 0 127 0" result="hardAlpha"/>
<feOffset dy="8"/>
<feGaussianBlur stdDeviation="7.5"/>
<feColorMatrix type="matrix" values="0 0 0 0 0 0 0 0 0 0 0 0 0 0 0 0 0 0 0.25 0"/>
<feBlend mode="normal" in2="BackgroundImageFix" result="effect1_dropShadow_16167_41089"/>
<feBlend mode="normal" in="SourceGraphic" in2="effect1_dropShadow_16167_41089" result="shape"/>
</filter>
</defs>
</svg>
