<svg width="351" height="118" viewBox="0 0 351 118" fill="none" xmlns="http://www.w3.org/2000/svg">
<rect x="156" y="2" width="114" height="114" rx="57" fill="#FCE6E6"/>
<rect x="156" y="2" width="114" height="114" rx="57" stroke="#E53939" stroke-width="4"/>
<path opacity="0.4" d="M222.587 39.8932L221.853 38.0265L222.787 37.6532C224.307 37.0532 225.24 36.2932 225.28 35.6265C225.307 35.0665 224.707 34.3732 223.64 33.7065C223.24 33.4665 222.747 33.2132 222.187 32.9732C219.307 31.7465 215.827 31.1465 211.533 31.1465H210.533V29.1465H211.533C216.093 29.1465 219.84 29.7998 222.973 31.1332C223.613 31.4132 224.187 31.7065 224.68 31.9998C226.92 33.3865 227.333 34.7999 227.28 35.7332C227.213 36.8132 226.52 38.3332 223.533 39.5199L222.6 39.8799L222.587 39.8932Z" fill="#EA5959"/>
<path opacity="0.4" d="M202.96 38.8666L202.067 38.4133C199.187 36.9466 198.653 35.3466 198.72 34.2666C198.84 32.1066 201.28 30.4533 205.613 29.6266L206.6 29.4399L206.973 31.3999L205.987 31.5866C202.413 32.2666 200.76 33.48 200.707 34.3733C200.667 35.0533 201.507 35.8933 202.96 36.6266L203.853 37.08L202.947 38.8666H202.96Z" fill="#EA5959"/>
<path d="M206.907 47.4667C206.187 47.4667 205.627 47.2534 205.214 46.9867C204.72 46.6667 204.094 46.04 203.827 44.7867C203.2 41.8667 204.88 36.7734 208.094 31.8133C211.627 26.3733 216 22.6533 218.96 22.5467C219.534 22.4933 220.187 22.6533 220.76 23C221.76 23.6533 222.774 25.16 222.08 28.72L221.894 29.7067L219.934 29.32L220.12 28.3333C220.48 26.4933 220.32 25.08 219.694 24.68C219.52 24.5733 219.294 24.52 219.094 24.5333C217.134 24.6133 213.24 27.56 209.774 32.8934C206.44 38.0267 205.374 42.4267 205.774 44.36C205.867 44.8267 206.054 45.1334 206.294 45.3067C206.934 45.72 208.294 45.28 209.867 44.16L210.68 43.5734L211.84 45.2L211.027 45.7867C209.267 47.04 207.907 47.4667 206.894 47.4667H206.907Z" fill="#EA5959"/>
<path d="M218.134 48.0534C217.774 48.0534 217.361 48.0001 216.894 47.8401C214.054 46.9201 210.481 42.9201 207.801 37.6534C206.134 34.3868 205.041 31.0668 204.708 28.2935C204.228 24.3201 205.441 22.8135 206.534 22.2535C208.361 21.2935 210.747 22.6668 211.907 23.8268L212.614 24.5335L211.201 25.9468L210.494 25.2401C209.628 24.3735 208.161 23.6668 207.454 24.0268C206.881 24.3201 206.388 25.5201 206.681 28.0535C206.988 30.6001 208.014 33.6801 209.574 36.7468C212.347 42.2001 215.627 45.3334 217.507 45.9334C217.961 46.0801 218.321 46.0801 218.587 45.9468C219.921 45.2668 219.894 40.3734 216.814 33.9601L216.374 33.0534L218.174 32.1868L218.614 33.0934C221.507 39.1068 222.734 46.0668 219.507 47.7201C219.187 47.8801 218.734 48.0401 218.147 48.0401L218.134 48.0534Z" fill="#EA5959"/>
<path opacity="0.4" fill-rule="evenodd" clip-rule="evenodd" d="M211.666 35.0664C211.666 34.3064 212.293 33.6797 213.053 33.6797C213.813 33.6797 214.439 34.3064 214.439 35.0664C214.439 35.8264 213.813 36.453 213.053 36.453C212.293 36.453 211.666 35.8264 211.666 35.0664Z" fill="#EA5959"/>
<path d="M196.949 67C196.853 67 196.78 66.974 196.728 66.922C196.676 66.8613 196.65 66.7877 196.65 66.701V58.212C196.65 58.1167 196.676 58.043 196.728 57.991C196.78 57.9303 196.853 57.9 196.949 57.9H202.253C202.348 57.9 202.422 57.9303 202.474 57.991C202.526 58.043 202.552 58.1167 202.552 58.212V58.732C202.552 58.8273 202.526 58.901 202.474 58.953C202.422 59.005 202.348 59.031 202.253 59.031H197.911V62.06H201.993C202.088 62.06 202.162 62.0903 202.214 62.151C202.266 62.203 202.292 62.2767 202.292 62.372V62.892C202.292 62.9787 202.266 63.0523 202.214 63.113C202.162 63.165 202.088 63.191 201.993 63.191H197.911V66.701C197.911 66.7877 197.88 66.8613 197.82 66.922C197.768 66.974 197.694 67 197.599 67H196.949ZM204.473 67C204.386 67 204.313 66.974 204.252 66.922C204.2 66.8613 204.174 66.7877 204.174 66.701V60.539C204.174 60.4523 204.2 60.383 204.252 60.331C204.313 60.2703 204.386 60.24 204.473 60.24H205.097C205.184 60.24 205.253 60.2703 205.305 60.331C205.357 60.383 205.383 60.4523 205.383 60.539V66.701C205.383 66.7877 205.357 66.8613 205.305 66.922C205.253 66.974 205.184 67 205.097 67H204.473ZM204.434 59.265C204.295 59.265 204.226 59.1957 204.226 59.057C204.226 58.9877 204.248 58.9313 204.291 58.888L205.266 57.718C205.344 57.6227 205.413 57.562 205.474 57.536C205.535 57.5013 205.626 57.484 205.747 57.484H206.631C206.796 57.484 206.878 57.5663 206.878 57.731C206.878 57.7917 206.856 57.8437 206.813 57.887L205.305 59.122C205.236 59.1827 205.171 59.2217 205.11 59.239C205.049 59.2563 204.971 59.265 204.876 59.265H204.434ZM209.662 67.13C209.177 67.13 208.761 67.0693 208.414 66.948C208.068 66.8267 207.786 66.6793 207.569 66.506C207.353 66.3327 207.188 66.1593 207.075 65.986C206.971 65.8127 206.915 65.674 206.906 65.57C206.898 65.4747 206.928 65.401 206.997 65.349C207.067 65.297 207.136 65.271 207.205 65.271H207.777C207.829 65.271 207.868 65.2797 207.894 65.297C207.929 65.3057 207.972 65.3403 208.024 65.401C208.137 65.5223 208.263 65.6437 208.401 65.765C208.54 65.8863 208.709 65.986 208.908 66.064C209.116 66.142 209.372 66.181 209.675 66.181C210.117 66.181 210.481 66.0987 210.767 65.934C211.053 65.7607 211.196 65.5093 211.196 65.18C211.196 64.9633 211.136 64.79 211.014 64.66C210.902 64.53 210.694 64.413 210.39 64.309C210.096 64.205 209.688 64.0967 209.168 63.984C208.648 63.8627 208.237 63.7153 207.933 63.542C207.63 63.36 207.413 63.1477 207.283 62.905C207.153 62.6537 207.088 62.372 207.088 62.06C207.088 61.7393 207.184 61.4317 207.374 61.137C207.565 60.8337 207.842 60.5867 208.206 60.396C208.579 60.2053 209.043 60.11 209.597 60.11C210.048 60.11 210.434 60.1663 210.754 60.279C211.075 60.3917 211.339 60.5347 211.547 60.708C211.755 60.8727 211.911 61.0373 212.015 61.202C212.119 61.3667 212.176 61.5053 212.184 61.618C212.193 61.7047 212.167 61.7783 212.106 61.839C212.046 61.891 211.976 61.917 211.898 61.917H211.352C211.292 61.917 211.24 61.904 211.196 61.878C211.162 61.852 211.127 61.8217 211.092 61.787C211.006 61.6743 210.902 61.5617 210.78 61.449C210.668 61.3363 210.516 61.2453 210.325 61.176C210.143 61.098 209.901 61.059 209.597 61.059C209.164 61.059 208.839 61.15 208.622 61.332C208.406 61.514 208.297 61.7437 208.297 62.021C208.297 62.1857 208.345 62.333 208.44 62.463C208.536 62.593 208.718 62.71 208.986 62.814C209.255 62.918 209.654 63.0307 210.182 63.152C210.754 63.2647 211.205 63.4163 211.534 63.607C211.864 63.7977 212.098 64.0187 212.236 64.27C212.375 64.5213 212.444 64.8117 212.444 65.141C212.444 65.505 212.336 65.8387 212.119 66.142C211.911 66.4453 211.599 66.688 211.183 66.87C210.776 67.0433 210.269 67.13 209.662 67.13ZM214.248 67C214.162 67 214.088 66.974 214.027 66.922C213.975 66.8613 213.949 66.7877 213.949 66.701V60.539C213.949 60.4523 213.975 60.383 214.027 60.331C214.088 60.2703 214.162 60.24 214.248 60.24H214.872C214.959 60.24 215.028 60.2703 215.08 60.331C215.132 60.383 215.158 60.4523 215.158 60.539V66.701C215.158 66.7877 215.132 66.8613 215.08 66.922C215.028 66.974 214.959 67 214.872 67H214.248ZM214.144 58.979C214.058 58.979 213.984 58.953 213.923 58.901C213.871 58.8403 213.845 58.7667 213.845 58.68V57.978C213.845 57.8913 213.871 57.822 213.923 57.77C213.984 57.7093 214.058 57.679 214.144 57.679H214.963C215.05 57.679 215.119 57.7093 215.171 57.77C215.232 57.822 215.262 57.8913 215.262 57.978V58.68C215.262 58.7667 215.232 58.8403 215.171 58.901C215.119 58.953 215.05 58.979 214.963 58.979H214.144ZM219.828 67.13C219.212 67.13 218.679 67.013 218.229 66.779C217.787 66.5363 217.444 66.194 217.202 65.752C216.959 65.3013 216.829 64.764 216.812 64.14C216.803 64.01 216.799 63.8367 216.799 63.62C216.799 63.4033 216.803 63.23 216.812 63.1C216.829 62.476 216.959 61.943 217.202 61.501C217.444 61.0503 217.787 60.708 218.229 60.474C218.679 60.2313 219.212 60.11 219.828 60.11C220.33 60.11 220.759 60.1793 221.115 60.318C221.479 60.4567 221.778 60.6343 222.012 60.851C222.246 61.0677 222.419 61.3017 222.532 61.553C222.653 61.8043 222.718 62.0427 222.727 62.268C222.735 62.3547 222.709 62.424 222.649 62.476C222.588 62.528 222.514 62.554 222.428 62.554H221.804C221.717 62.554 221.652 62.5367 221.609 62.502C221.565 62.4587 221.522 62.3893 221.479 62.294C221.323 61.8693 221.11 61.5703 220.842 61.397C220.573 61.2237 220.239 61.137 219.841 61.137C219.321 61.137 218.896 61.2973 218.567 61.618C218.246 61.9387 218.073 62.4543 218.047 63.165C218.038 63.477 218.038 63.7803 218.047 64.075C218.073 64.7943 218.246 65.3143 218.567 65.635C218.896 65.947 219.321 66.103 219.841 66.103C220.239 66.103 220.573 66.0163 220.842 65.843C221.11 65.6697 221.323 65.3707 221.479 64.946C221.522 64.8507 221.565 64.7857 221.609 64.751C221.652 64.7077 221.717 64.686 221.804 64.686H222.428C222.514 64.686 222.588 64.712 222.649 64.764C222.709 64.816 222.735 64.8853 222.727 64.972C222.718 65.154 222.679 65.3403 222.61 65.531C222.54 65.7217 222.428 65.9167 222.272 66.116C222.124 66.3067 221.938 66.48 221.713 66.636C221.487 66.7833 221.214 66.9047 220.894 67C220.582 67.0867 220.226 67.13 219.828 67.13ZM226.156 67.13C225.722 67.13 225.328 67.0433 224.973 66.87C224.617 66.6967 224.331 66.4627 224.115 66.168C223.898 65.8733 223.79 65.5397 223.79 65.167C223.79 64.569 224.032 64.0923 224.518 63.737C225.003 63.3817 225.636 63.1477 226.416 63.035L228.353 62.762V62.385C228.353 61.969 228.231 61.644 227.989 61.41C227.755 61.176 227.369 61.059 226.832 61.059C226.442 61.059 226.125 61.137 225.883 61.293C225.649 61.449 225.484 61.6483 225.389 61.891C225.337 62.021 225.246 62.086 225.116 62.086H224.531C224.435 62.086 224.362 62.06 224.31 62.008C224.266 61.9473 224.245 61.878 224.245 61.8C224.245 61.67 224.292 61.5097 224.388 61.319C224.492 61.1283 224.648 60.942 224.856 60.76C225.064 60.578 225.328 60.4263 225.649 60.305C225.978 60.175 226.377 60.11 226.845 60.11C227.365 60.11 227.802 60.1793 228.158 60.318C228.513 60.448 228.79 60.6257 228.99 60.851C229.198 61.0763 229.345 61.332 229.432 61.618C229.527 61.904 229.575 62.1943 229.575 62.489V66.701C229.575 66.7877 229.544 66.8613 229.484 66.922C229.432 66.974 229.362 67 229.276 67H228.678C228.582 67 228.509 66.974 228.457 66.922C228.405 66.8613 228.379 66.7877 228.379 66.701V66.142C228.266 66.298 228.114 66.454 227.924 66.61C227.733 66.7573 227.495 66.883 227.209 66.987C226.923 67.0823 226.572 67.13 226.156 67.13ZM226.429 66.155C226.784 66.155 227.109 66.0813 227.404 65.934C227.698 65.778 227.928 65.5397 228.093 65.219C228.266 64.8983 228.353 64.4953 228.353 64.01V63.646L226.845 63.867C226.229 63.9537 225.766 64.101 225.454 64.309C225.142 64.5083 224.986 64.764 224.986 65.076C224.986 65.3187 225.055 65.5223 225.194 65.687C225.341 65.843 225.523 65.96 225.74 66.038C225.965 66.116 226.195 66.155 226.429 66.155Z" fill="#171B22"/>
<rect x="194.5" y="74" width="37" height="25" rx="12.5" fill="#EA5959"/>
<path d="M207.342 91.14C206.67 91.14 206.086 91.0467 205.592 90.86C205.097 90.664 204.686 90.398 204.36 90.062C204.042 89.726 203.8 89.334 203.632 88.886C203.464 88.438 203.366 87.9573 203.338 87.444C203.328 87.192 203.319 86.9073 203.31 86.59C203.31 86.2633 203.31 85.9367 203.31 85.61C203.319 85.274 203.328 84.9753 203.338 84.714C203.366 84.2007 203.464 83.7247 203.632 83.286C203.809 82.838 204.061 82.4507 204.388 82.124C204.724 81.788 205.134 81.5267 205.62 81.34C206.114 81.1533 206.688 81.06 207.342 81.06C208.004 81.06 208.578 81.1533 209.064 81.34C209.549 81.5267 209.955 81.788 210.282 82.124C210.618 82.4507 210.874 82.838 211.052 83.286C211.229 83.7247 211.327 84.2007 211.346 84.714C211.364 84.9753 211.374 85.274 211.374 85.61C211.383 85.9367 211.383 86.2633 211.374 86.59C211.374 86.9073 211.364 87.192 211.346 87.444C211.327 87.9573 211.229 88.438 211.052 88.886C210.884 89.334 210.636 89.726 210.31 90.062C209.992 90.398 209.586 90.664 209.092 90.86C208.606 91.0467 208.023 91.14 207.342 91.14ZM207.342 89.11C207.827 89.11 208.177 88.956 208.392 88.648C208.616 88.3307 208.732 87.906 208.742 87.374C208.76 87.1033 208.77 86.8187 208.77 86.52C208.779 86.2213 208.779 85.9227 208.77 85.624C208.77 85.3253 208.76 85.05 208.742 84.798C208.732 84.2847 208.616 83.8693 208.392 83.552C208.177 83.2347 207.827 83.0713 207.342 83.062C206.856 83.0713 206.506 83.2347 206.292 83.552C206.077 83.8693 205.96 84.2847 205.942 84.798C205.932 85.05 205.923 85.3253 205.914 85.624C205.914 85.9227 205.914 86.2213 205.914 86.52C205.923 86.8187 205.932 87.1033 205.942 87.374C205.96 87.906 206.082 88.3307 206.306 88.648C206.53 88.956 206.875 89.11 207.342 89.11ZM213.679 91C213.465 91 213.357 90.9067 213.357 90.72C213.357 90.664 213.376 90.6127 213.413 90.566L220.329 81.466C220.395 81.382 220.46 81.3167 220.525 81.27C220.591 81.2233 220.689 81.2 220.819 81.2H221.813C222.028 81.2 222.135 81.2933 222.135 81.48C222.135 81.536 222.117 81.5873 222.079 81.634L215.163 90.734C215.098 90.818 215.033 90.8833 214.967 90.93C214.902 90.9767 214.804 91 214.673 91H213.679ZM220.721 91.07C220.087 91.07 219.578 90.902 219.195 90.566C218.822 90.23 218.612 89.782 218.565 89.222C218.556 88.9793 218.551 88.7647 218.551 88.578C218.551 88.3913 218.556 88.1673 218.565 87.906C218.603 87.3367 218.803 86.884 219.167 86.548C219.541 86.2027 220.059 86.03 220.721 86.03C221.393 86.03 221.911 86.2027 222.275 86.548C222.639 86.884 222.84 87.3367 222.877 87.906C222.896 88.1673 222.905 88.3913 222.905 88.578C222.905 88.7647 222.896 88.9793 222.877 89.222C222.84 89.782 222.63 90.23 222.247 90.566C221.865 90.902 221.356 91.07 220.721 91.07ZM220.721 89.838C220.88 89.838 221.001 89.8053 221.085 89.74C221.179 89.6747 221.249 89.5907 221.295 89.488C221.342 89.376 221.365 89.2593 221.365 89.138C221.384 88.9233 221.393 88.7273 221.393 88.55C221.393 88.3727 221.384 88.1813 221.365 87.976C221.356 87.7987 221.305 87.64 221.211 87.5C221.118 87.3507 220.955 87.276 220.721 87.276C220.488 87.276 220.325 87.3507 220.231 87.5C220.138 87.64 220.087 87.7987 220.077 87.976C220.068 88.1813 220.063 88.3727 220.063 88.55C220.063 88.7273 220.068 88.9233 220.077 89.138C220.087 89.2593 220.11 89.376 220.147 89.488C220.194 89.5907 220.264 89.6747 220.357 89.74C220.451 89.8053 220.572 89.838 220.721 89.838ZM214.799 86.142C214.155 86.142 213.642 85.9787 213.259 85.652C212.886 85.316 212.681 84.868 212.643 84.308C212.625 84.0653 212.615 83.8553 212.615 83.678C212.625 83.4913 212.634 83.2673 212.643 83.006C212.671 82.4367 212.867 81.984 213.231 81.648C213.605 81.3027 214.127 81.13 214.799 81.13C215.471 81.13 215.989 81.3027 216.353 81.648C216.717 81.984 216.913 82.4367 216.941 83.006C216.96 83.2673 216.969 83.4913 216.969 83.678C216.969 83.8553 216.96 84.0653 216.941 84.308C216.913 84.868 216.708 85.316 216.325 85.652C215.943 85.9787 215.434 86.142 214.799 86.142ZM214.799 84.938C214.949 84.938 215.07 84.9053 215.163 84.84C215.257 84.7653 215.327 84.6767 215.373 84.574C215.42 84.462 215.443 84.35 215.443 84.238C215.462 84.0233 215.471 83.8273 215.471 83.65C215.471 83.4727 215.462 83.2813 215.443 83.076C215.434 82.8987 215.378 82.74 215.275 82.6C215.182 82.4507 215.023 82.376 214.799 82.376C214.566 82.376 214.398 82.4507 214.295 82.6C214.202 82.74 214.151 82.8987 214.141 83.076C214.132 83.2813 214.127 83.4727 214.127 83.65C214.127 83.8273 214.132 84.0233 214.141 84.238C214.151 84.35 214.174 84.462 214.211 84.574C214.258 84.6767 214.328 84.7653 214.421 84.84C214.515 84.9053 214.641 84.938 214.799 84.938Z" fill="white"/>
<g filter="url(#filter0_d_16167_41087)">
<rect x="242" y="14" width="32" height="32" rx="16" fill="white"/>
<rect x="241" y="13" width="34" height="34" rx="17" stroke="#1DA534" stroke-width="2"/>
<path opacity="0.4" d="M258 40C263.523 40 268 35.5228 268 30C268 24.4772 263.523 20 258 20C252.477 20 248 24.4772 248 30C248 35.5228 252.477 40 258 40Z" fill="#1DA534"/>
<path d="M256.579 33.5801C256.379 33.5801 256.189 33.5001 256.049 33.3601L253.219 30.5301C252.929 30.2401 252.929 29.7601 253.219 29.4701C253.509 29.1801 253.989 29.1801 254.279 29.4701L256.579 31.7701L261.719 26.6301C262.009 26.3401 262.489 26.3401 262.779 26.6301C263.069 26.9201 263.069 27.4001 262.779 27.6901L257.109 33.3601C256.969 33.5001 256.779 33.5801 256.579 33.5801Z" fill="#1DA534"/>
</g>
<defs>
<filter id="filter0_d_16167_41087" x="225" y="5" width="66" height="66" filterUnits="userSpaceOnUse" color-interpolation-filters="sRGB">
<feFlood flood-opacity="0" result="BackgroundImageFix"/>
<feColorMatrix in="SourceAlpha" type="matrix" values="0 0 0 0 0 0 0 0 0 0 0 0 0 0 0 0 0 0 127 0" result="hardAlpha"/>
<feOffset dy="8"/>
<feGaussianBlur stdDeviation="7.5"/>
<feColorMatrix type="matrix" values="0 0 0 0 0 0 0 0 0 0 0 0 0 0 0 0 0 0 0.25 0"/>
<feBlend mode="normal" in2="BackgroundImageFix" result="effect1_dropShadow_16167_41087"/>
<feBlend mode="normal" in="SourceGraphic" in2="effect1_dropShadow_16167_41087" result="shape"/>
</filter>
</defs>
</svg>
