<svg width="358" height="118" viewBox="0 0 358 118" fill="none" xmlns="http://www.w3.org/2000/svg">
<rect x="223" y="2" width="114" height="114" rx="57" fill="#FCE6E6"/>
<rect x="223" y="2" width="114" height="114" rx="57" stroke="#E53939" stroke-width="4"/>
<rect opacity="0.4" x="266.666" y="21.6665" width="26.6667" height="26.6667" rx="5" fill="#E53939"/>
<g clip-path="url(#clip0_16167_41083)">
<path d="M273.801 40.2996C273.801 38.6044 273.796 36.9085 273.806 35.2133C273.808 34.9899 273.759 34.9268 273.53 34.9324C272.844 34.9502 272.157 34.9324 271.471 34.943C271.3 34.9454 271.252 34.8976 271.254 34.726C271.264 34.0598 271.264 33.3935 271.254 32.7281C271.252 32.5557 271.302 32.5095 271.472 32.512C272.168 32.5209 272.865 32.5079 273.56 32.5209C273.763 32.5249 273.806 32.4642 273.806 32.2707C273.797 30.9787 273.8 29.6875 273.802 28.3956C273.804 26.12 275.587 24.3407 277.865 24.3382C278.38 24.3382 278.895 24.3463 279.409 24.3342C279.586 24.3301 279.624 24.3884 279.622 24.5544C279.613 25.2206 279.611 25.8868 279.622 26.5523C279.625 26.7296 279.565 26.7619 279.401 26.7652C278.787 26.7765 278.167 26.6956 277.559 26.8048C276.78 26.9457 276.247 27.5464 276.234 28.3381C276.212 29.6697 276.231 31.0022 276.222 32.3347C276.22 32.5201 276.309 32.5176 276.442 32.5168C277.098 32.5128 277.754 32.5201 278.41 32.512C278.576 32.5104 278.66 32.5233 278.655 32.7314C278.64 33.3968 278.643 34.0638 278.654 34.7293C278.657 34.9065 278.598 34.9438 278.433 34.9413C277.787 34.9324 277.141 34.9503 276.496 34.9308C276.258 34.9235 276.221 35.0004 276.222 35.2166C276.229 38.5971 276.224 41.9785 276.233 45.3591C276.233 45.6173 276.166 45.6732 275.919 45.6651C275.294 45.6457 274.668 45.6497 274.043 45.6635C273.842 45.6675 273.796 45.6092 273.797 45.4141C273.805 43.7085 273.802 42.0028 273.802 40.2971L273.801 40.2996Z" fill="#E53939"/>
<path d="M287.745 36.9985C286.789 38.4014 285.868 39.7582 284.936 41.1077C284.814 41.2833 284.804 41.395 284.93 41.5764C285.802 42.8336 286.66 44.1013 287.522 45.3657C287.577 45.4467 287.629 45.5301 287.713 45.6604H286.995C286.339 45.6604 285.683 45.6515 285.027 45.6661C284.829 45.6701 284.723 45.6037 284.616 45.4418C284.195 44.8047 283.758 44.179 283.303 43.5144C282.857 44.1652 282.422 44.7861 282.005 45.42C281.888 45.5989 281.767 45.6709 281.547 45.6669C280.679 45.6515 279.811 45.6604 278.934 45.6604C278.928 45.5422 279.011 45.4775 279.064 45.3997C279.931 44.1264 280.796 42.8522 281.671 41.5853C281.79 41.4128 281.802 41.2963 281.676 41.1133C280.792 39.8391 279.924 38.5552 279.05 37.2746C278.996 37.1944 278.942 37.1143 278.863 36.9977C279.836 36.9977 280.761 37.0009 281.684 36.9937C281.829 36.9928 281.871 37.0868 281.931 37.175C282.381 37.8307 282.829 38.4872 283.299 39.1761C283.55 38.8143 283.788 38.4702 284.026 38.1246C284.247 37.8008 284.47 37.4769 284.689 37.1515C284.745 37.0665 284.788 36.9928 284.916 36.9937C285.842 36.9993 286.768 36.9969 287.745 36.9969V36.9985Z" fill="#E53939"/>
</g>
<path d="M262.101 67.13C261.304 67.13 260.641 66.9827 260.112 66.688C259.592 66.3933 259.198 65.9817 258.929 65.453C258.661 64.9243 258.513 64.309 258.487 63.607C258.479 63.2517 258.474 62.8703 258.474 62.463C258.474 62.0557 258.479 61.6657 258.487 61.293C258.513 60.591 258.661 59.9757 258.929 59.447C259.198 58.9183 259.592 58.5067 260.112 58.212C260.641 57.9173 261.304 57.77 262.101 57.77C262.699 57.77 263.224 57.8523 263.674 58.017C264.125 58.1817 264.498 58.4027 264.792 58.68C265.096 58.9573 265.325 59.2693 265.481 59.616C265.637 59.954 265.724 60.305 265.741 60.669C265.75 60.747 265.724 60.812 265.663 60.864C265.611 60.916 265.546 60.942 265.468 60.942H264.753C264.675 60.942 264.606 60.9203 264.545 60.877C264.493 60.8337 264.454 60.7557 264.428 60.643C264.281 59.967 264.004 59.5033 263.596 59.252C263.198 59.0007 262.695 58.875 262.088 58.875C261.395 58.875 260.845 59.0743 260.437 59.473C260.03 59.863 259.809 60.4913 259.774 61.358C259.748 62.0687 259.748 62.7967 259.774 63.542C259.809 64.4087 260.03 65.0413 260.437 65.44C260.845 65.83 261.395 66.025 262.088 66.025C262.695 66.025 263.198 65.8993 263.596 65.648C264.004 65.3967 264.281 64.933 264.428 64.257C264.454 64.1443 264.493 64.0663 264.545 64.023C264.606 63.9797 264.675 63.958 264.753 63.958H265.468C265.546 63.958 265.611 63.984 265.663 64.036C265.724 64.088 265.75 64.153 265.741 64.231C265.724 64.595 265.637 64.9503 265.481 65.297C265.325 65.635 265.096 65.9427 264.792 66.22C264.498 66.4973 264.125 66.7183 263.674 66.883C263.224 67.0477 262.699 67.13 262.101 67.13ZM269.2 67.13C268.766 67.13 268.372 67.0433 268.017 66.87C267.661 66.6967 267.375 66.4627 267.159 66.168C266.942 65.8733 266.834 65.5397 266.834 65.167C266.834 64.569 267.076 64.0923 267.562 63.737C268.047 63.3817 268.68 63.1477 269.46 63.035L271.397 62.762V62.385C271.397 61.969 271.275 61.644 271.033 61.41C270.799 61.176 270.413 61.059 269.876 61.059C269.486 61.059 269.169 61.137 268.927 61.293C268.693 61.449 268.528 61.6483 268.433 61.891C268.381 62.021 268.29 62.086 268.16 62.086H267.575C267.479 62.086 267.406 62.06 267.354 62.008C267.31 61.9473 267.289 61.878 267.289 61.8C267.289 61.67 267.336 61.5097 267.432 61.319C267.536 61.1283 267.692 60.942 267.9 60.76C268.108 60.578 268.372 60.4263 268.693 60.305C269.022 60.175 269.421 60.11 269.889 60.11C270.409 60.11 270.846 60.1793 271.202 60.318C271.557 60.448 271.834 60.6257 272.034 60.851C272.242 61.0763 272.389 61.332 272.476 61.618C272.571 61.904 272.619 62.1943 272.619 62.489V66.701C272.619 66.7877 272.588 66.8613 272.528 66.922C272.476 66.974 272.406 67 272.32 67H271.722C271.626 67 271.553 66.974 271.501 66.922C271.449 66.8613 271.423 66.7877 271.423 66.701V66.142C271.31 66.298 271.158 66.454 270.968 66.61C270.777 66.7573 270.539 66.883 270.253 66.987C269.967 67.0823 269.616 67.13 269.2 67.13ZM269.473 66.155C269.828 66.155 270.153 66.0813 270.448 65.934C270.742 65.778 270.972 65.5397 271.137 65.219C271.31 64.8983 271.397 64.4953 271.397 64.01V63.646L269.889 63.867C269.273 63.9537 268.81 64.101 268.498 64.309C268.186 64.5083 268.03 64.764 268.03 65.076C268.03 65.3187 268.099 65.5223 268.238 65.687C268.385 65.843 268.567 65.96 268.784 66.038C269.009 66.116 269.239 66.155 269.473 66.155ZM269.551 59.265C269.412 59.265 269.343 59.1957 269.343 59.057C269.343 58.9877 269.364 58.9313 269.408 58.888L270.383 57.718C270.461 57.6227 270.53 57.562 270.591 57.536C270.651 57.5013 270.742 57.484 270.864 57.484H271.748C271.912 57.484 271.995 57.5663 271.995 57.731C271.995 57.7917 271.973 57.8437 271.93 57.887L270.422 59.122C270.352 59.1827 270.287 59.2217 270.227 59.239C270.166 59.2563 270.088 59.265 269.993 59.265H269.551ZM274.799 67C274.713 67 274.639 66.974 274.578 66.922C274.526 66.8613 274.5 66.7877 274.5 66.701V58.069C274.5 57.9823 274.526 57.913 274.578 57.861C274.639 57.8003 274.713 57.77 274.799 57.77H275.41C275.506 57.77 275.579 57.8003 275.631 57.861C275.683 57.913 275.709 57.9823 275.709 58.069V66.701C275.709 66.7877 275.683 66.8613 275.631 66.922C275.579 66.974 275.506 67 275.41 67H274.799ZM280.379 67.13C279.763 67.13 279.23 67.013 278.78 66.779C278.338 66.5363 277.995 66.194 277.753 65.752C277.51 65.3013 277.38 64.764 277.363 64.14C277.354 64.01 277.35 63.8367 277.35 63.62C277.35 63.4033 277.354 63.23 277.363 63.1C277.38 62.476 277.51 61.943 277.753 61.501C277.995 61.0503 278.338 60.708 278.78 60.474C279.23 60.2313 279.763 60.11 280.379 60.11C280.881 60.11 281.31 60.1793 281.666 60.318C282.03 60.4567 282.329 60.6343 282.563 60.851C282.797 61.0677 282.97 61.3017 283.083 61.553C283.204 61.8043 283.269 62.0427 283.278 62.268C283.286 62.3547 283.26 62.424 283.2 62.476C283.139 62.528 283.065 62.554 282.979 62.554H282.355C282.268 62.554 282.203 62.5367 282.16 62.502C282.116 62.4587 282.073 62.3893 282.03 62.294C281.874 61.8693 281.661 61.5703 281.393 61.397C281.124 61.2237 280.79 61.137 280.392 61.137C279.872 61.137 279.447 61.2973 279.118 61.618C278.797 61.9387 278.624 62.4543 278.598 63.165C278.589 63.477 278.589 63.7803 278.598 64.075C278.624 64.7943 278.797 65.3143 279.118 65.635C279.447 65.947 279.872 66.103 280.392 66.103C280.79 66.103 281.124 66.0163 281.393 65.843C281.661 65.6697 281.874 65.3707 282.03 64.946C282.073 64.8507 282.116 64.7857 282.16 64.751C282.203 64.7077 282.268 64.686 282.355 64.686H282.979C283.065 64.686 283.139 64.712 283.2 64.764C283.26 64.816 283.286 64.8853 283.278 64.972C283.269 65.154 283.23 65.3403 283.161 65.531C283.091 65.7217 282.979 65.9167 282.823 66.116C282.675 66.3067 282.489 66.48 282.264 66.636C282.038 66.7833 281.765 66.9047 281.445 67C281.133 67.0867 280.777 67.13 280.379 67.13ZM287.343 67.13C286.789 67.13 286.316 67.0087 285.926 66.766C285.545 66.5147 285.255 66.168 285.055 65.726C284.856 65.284 284.756 64.777 284.756 64.205V60.539C284.756 60.4523 284.782 60.383 284.834 60.331C284.895 60.2703 284.969 60.24 285.055 60.24H285.705C285.792 60.24 285.861 60.2703 285.913 60.331C285.974 60.383 286.004 60.4523 286.004 60.539V64.14C286.004 65.4313 286.568 66.077 287.694 66.077C288.232 66.077 288.661 65.908 288.981 65.57C289.311 65.2233 289.475 64.7467 289.475 64.14V60.539C289.475 60.4523 289.501 60.383 289.553 60.331C289.614 60.2703 289.688 60.24 289.774 60.24H290.411C290.507 60.24 290.58 60.2703 290.632 60.331C290.684 60.383 290.71 60.4523 290.71 60.539V66.701C290.71 66.7877 290.684 66.8613 290.632 66.922C290.58 66.974 290.507 67 290.411 67H289.813C289.727 67 289.653 66.974 289.592 66.922C289.54 66.8613 289.514 66.7877 289.514 66.701V66.129C289.28 66.4323 288.994 66.675 288.656 66.857C288.327 67.039 287.889 67.13 287.343 67.13ZM292.954 67C292.867 67 292.793 66.974 292.733 66.922C292.681 66.8613 292.655 66.7877 292.655 66.701V58.069C292.655 57.9823 292.681 57.913 292.733 57.861C292.793 57.8003 292.867 57.77 292.954 57.77H293.565C293.66 57.77 293.734 57.8003 293.786 57.861C293.838 57.913 293.864 57.9823 293.864 58.069V66.701C293.864 66.7877 293.838 66.8613 293.786 66.922C293.734 66.974 293.66 67 293.565 67H292.954ZM298.572 67.13C297.913 67.13 297.363 67.0043 296.921 66.753C296.479 66.5017 296.141 66.155 295.907 65.713C295.673 65.2623 295.543 64.751 295.517 64.179C295.508 64.0317 295.504 63.8453 295.504 63.62C295.504 63.386 295.508 63.1997 295.517 63.061C295.543 62.4803 295.673 61.969 295.907 61.527C296.149 61.085 296.492 60.7383 296.934 60.487C297.376 60.2357 297.922 60.11 298.572 60.11C299.222 60.11 299.768 60.2357 300.21 60.487C300.652 60.7383 300.99 61.085 301.224 61.527C301.466 61.969 301.601 62.4803 301.627 63.061C301.635 63.1997 301.64 63.386 301.64 63.62C301.64 63.8453 301.635 64.0317 301.627 64.179C301.601 64.751 301.471 65.2623 301.237 65.713C301.003 66.155 300.665 66.5017 300.223 66.753C299.781 67.0043 299.23 67.13 298.572 67.13ZM298.572 66.129C299.109 66.129 299.538 65.96 299.859 65.622C300.179 65.2753 300.353 64.7727 300.379 64.114C300.387 63.984 300.392 63.8193 300.392 63.62C300.392 63.4207 300.387 63.256 300.379 63.126C300.353 62.4673 300.179 61.969 299.859 61.631C299.538 61.2843 299.109 61.111 298.572 61.111C298.034 61.111 297.601 61.2843 297.272 61.631C296.951 61.969 296.782 62.4673 296.765 63.126C296.756 63.256 296.752 63.4207 296.752 63.62C296.752 63.8193 296.756 63.984 296.765 64.114C296.782 64.7727 296.951 65.2753 297.272 65.622C297.601 65.96 298.034 66.129 298.572 66.129Z" fill="#171B22"/>
<rect x="261.5" y="74" width="37" height="25" rx="12.5" fill="#E53939"/>
<path d="M274.342 91.14C273.67 91.14 273.086 91.0467 272.592 90.86C272.097 90.664 271.686 90.398 271.36 90.062C271.042 89.726 270.8 89.334 270.632 88.886C270.464 88.438 270.366 87.9573 270.338 87.444C270.328 87.192 270.319 86.9073 270.31 86.59C270.31 86.2633 270.31 85.9367 270.31 85.61C270.319 85.274 270.328 84.9753 270.338 84.714C270.366 84.2007 270.464 83.7247 270.632 83.286C270.809 82.838 271.061 82.4507 271.388 82.124C271.724 81.788 272.134 81.5267 272.62 81.34C273.114 81.1533 273.688 81.06 274.342 81.06C275.004 81.06 275.578 81.1533 276.064 81.34C276.549 81.5267 276.955 81.788 277.282 82.124C277.618 82.4507 277.874 82.838 278.052 83.286C278.229 83.7247 278.327 84.2007 278.346 84.714C278.364 84.9753 278.374 85.274 278.374 85.61C278.383 85.9367 278.383 86.2633 278.374 86.59C278.374 86.9073 278.364 87.192 278.346 87.444C278.327 87.9573 278.229 88.438 278.052 88.886C277.884 89.334 277.636 89.726 277.31 90.062C276.992 90.398 276.586 90.664 276.092 90.86C275.606 91.0467 275.023 91.14 274.342 91.14ZM274.342 89.11C274.827 89.11 275.177 88.956 275.392 88.648C275.616 88.3307 275.732 87.906 275.742 87.374C275.76 87.1033 275.77 86.8187 275.77 86.52C275.779 86.2213 275.779 85.9227 275.77 85.624C275.77 85.3253 275.76 85.05 275.742 84.798C275.732 84.2847 275.616 83.8693 275.392 83.552C275.177 83.2347 274.827 83.0713 274.342 83.062C273.856 83.0713 273.506 83.2347 273.292 83.552C273.077 83.8693 272.96 84.2847 272.942 84.798C272.932 85.05 272.923 85.3253 272.914 85.624C272.914 85.9227 272.914 86.2213 272.914 86.52C272.923 86.8187 272.932 87.1033 272.942 87.374C272.96 87.906 273.082 88.3307 273.306 88.648C273.53 88.956 273.875 89.11 274.342 89.11ZM280.679 91C280.465 91 280.357 90.9067 280.357 90.72C280.357 90.664 280.376 90.6127 280.413 90.566L287.329 81.466C287.395 81.382 287.46 81.3167 287.525 81.27C287.591 81.2233 287.689 81.2 287.819 81.2H288.813C289.028 81.2 289.135 81.2933 289.135 81.48C289.135 81.536 289.117 81.5873 289.079 81.634L282.163 90.734C282.098 90.818 282.033 90.8833 281.967 90.93C281.902 90.9767 281.804 91 281.673 91H280.679ZM287.721 91.07C287.087 91.07 286.578 90.902 286.195 90.566C285.822 90.23 285.612 89.782 285.565 89.222C285.556 88.9793 285.551 88.7647 285.551 88.578C285.551 88.3913 285.556 88.1673 285.565 87.906C285.603 87.3367 285.803 86.884 286.167 86.548C286.541 86.2027 287.059 86.03 287.721 86.03C288.393 86.03 288.911 86.2027 289.275 86.548C289.639 86.884 289.84 87.3367 289.877 87.906C289.896 88.1673 289.905 88.3913 289.905 88.578C289.905 88.7647 289.896 88.9793 289.877 89.222C289.84 89.782 289.63 90.23 289.247 90.566C288.865 90.902 288.356 91.07 287.721 91.07ZM287.721 89.838C287.88 89.838 288.001 89.8053 288.085 89.74C288.179 89.6747 288.249 89.5907 288.295 89.488C288.342 89.376 288.365 89.2593 288.365 89.138C288.384 88.9233 288.393 88.7273 288.393 88.55C288.393 88.3727 288.384 88.1813 288.365 87.976C288.356 87.7987 288.305 87.64 288.211 87.5C288.118 87.3507 287.955 87.276 287.721 87.276C287.488 87.276 287.325 87.3507 287.231 87.5C287.138 87.64 287.087 87.7987 287.077 87.976C287.068 88.1813 287.063 88.3727 287.063 88.55C287.063 88.7273 287.068 88.9233 287.077 89.138C287.087 89.2593 287.11 89.376 287.147 89.488C287.194 89.5907 287.264 89.6747 287.357 89.74C287.451 89.8053 287.572 89.838 287.721 89.838ZM281.799 86.142C281.155 86.142 280.642 85.9787 280.259 85.652C279.886 85.316 279.681 84.868 279.643 84.308C279.625 84.0653 279.615 83.8553 279.615 83.678C279.625 83.4913 279.634 83.2673 279.643 83.006C279.671 82.4367 279.867 81.984 280.231 81.648C280.605 81.3027 281.127 81.13 281.799 81.13C282.471 81.13 282.989 81.3027 283.353 81.648C283.717 81.984 283.913 82.4367 283.941 83.006C283.96 83.2673 283.969 83.4913 283.969 83.678C283.969 83.8553 283.96 84.0653 283.941 84.308C283.913 84.868 283.708 85.316 283.325 85.652C282.943 85.9787 282.434 86.142 281.799 86.142ZM281.799 84.938C281.949 84.938 282.07 84.9053 282.163 84.84C282.257 84.7653 282.327 84.6767 282.373 84.574C282.42 84.462 282.443 84.35 282.443 84.238C282.462 84.0233 282.471 83.8273 282.471 83.65C282.471 83.4727 282.462 83.2813 282.443 83.076C282.434 82.8987 282.378 82.74 282.275 82.6C282.182 82.4507 282.023 82.376 281.799 82.376C281.566 82.376 281.398 82.4507 281.295 82.6C281.202 82.74 281.151 82.8987 281.141 83.076C281.132 83.2813 281.127 83.4727 281.127 83.65C281.127 83.8273 281.132 84.0233 281.141 84.238C281.151 84.35 281.174 84.462 281.211 84.574C281.258 84.6767 281.328 84.7653 281.421 84.84C281.515 84.9053 281.641 84.938 281.799 84.938Z" fill="white"/>
<g filter="url(#filter0_d_16167_41083)">
<rect x="309" y="14" width="32" height="32" rx="16" fill="white"/>
<rect x="308" y="13" width="34" height="34" rx="17" stroke="#1DA534" stroke-width="2"/>
<path opacity="0.4" d="M325 40C330.523 40 335 35.5228 335 30C335 24.4772 330.523 20 325 20C319.477 20 315 24.4772 315 30C315 35.5228 319.477 40 325 40Z" fill="#1DA534"/>
<path d="M323.579 33.5801C323.379 33.5801 323.189 33.5001 323.049 33.3601L320.219 30.5301C319.929 30.2401 319.929 29.7601 320.219 29.4701C320.509 29.1801 320.989 29.1801 321.279 29.4701L323.579 31.7701L328.719 26.6301C329.009 26.3401 329.489 26.3401 329.779 26.6301C330.069 26.9201 330.069 27.4001 329.779 27.6901L324.109 33.3601C323.969 33.5001 323.779 33.5801 323.579 33.5801Z" fill="#1DA534"/>
</g>
<defs>
<filter id="filter0_d_16167_41083" x="292" y="5" width="66" height="66" filterUnits="userSpaceOnUse" color-interpolation-filters="sRGB">
<feFlood flood-opacity="0" result="BackgroundImageFix"/>
<feColorMatrix in="SourceAlpha" type="matrix" values="0 0 0 0 0 0 0 0 0 0 0 0 0 0 0 0 0 0 127 0" result="hardAlpha"/>
<feOffset dy="8"/>
<feGaussianBlur stdDeviation="7.5"/>
<feColorMatrix type="matrix" values="0 0 0 0 0 0 0 0 0 0 0 0 0 0 0 0 0 0 0.25 0"/>
<feBlend mode="normal" in2="BackgroundImageFix" result="effect1_dropShadow_16167_41083"/>
<feBlend mode="normal" in="SourceGraphic" in2="effect1_dropShadow_16167_41083" result="shape"/>
</filter>
<clipPath id="clip0_16167_41083">
<rect width="16.4908" height="21.3333" fill="white" transform="translate(271.254 24.3335)"/>
</clipPath>
</defs>
</svg>
