<svg width="381" height="118" viewBox="0 0 381 118" fill="none" xmlns="http://www.w3.org/2000/svg">
<rect x="246" y="2" width="114" height="114" rx="57" fill="#EAF0FE"/>
<rect x="246" y="2" width="114" height="114" rx="57" stroke="#2D68F8" stroke-width="4"/>
<g clip-path="url(#clip0_16167_41081)">
<mask id="mask0_16167_41081" style="mask-type:luminance" maskUnits="userSpaceOnUse" x="287" y="19" width="32" height="32">
<path d="M319 19H287V51H319V19Z" fill="white"/>
</mask>
<g mask="url(#mask0_16167_41081)">
<path d="M303 42.6668C302.453 42.6668 302 42.2135 302 41.6668V36.3335C302 35.7868 302.453 35.3335 303 35.3335C303.547 35.3335 304 35.7868 304 36.3335V41.6668C304 42.2135 303.547 42.6668 303 42.6668Z" fill="#2D68F8"/>
<path d="M305.665 40H300.332C299.785 40 299.332 39.5467 299.332 39C299.332 38.4533 299.785 38 300.332 38H305.665C306.212 38 306.665 38.4533 306.665 39C306.665 39.5467 306.212 40 305.665 40Z" fill="#2D68F8"/>
<path opacity="0.4" d="M312.106 43.7733V33.1467C312.106 31.48 310.746 30.1067 309.066 30.1067C308.226 30.1067 307.546 29.4267 307.546 28.5867V27H298.439V28.6C298.439 29.44 297.759 30.12 296.919 30.12C295.252 30.12 293.879 31.48 293.879 33.16V43.7867C293.879 46.2933 295.932 48.3467 298.439 48.3467H307.546C310.066 48.3333 312.106 46.28 312.106 43.7733Z" fill="#2D68F8"/>
<path d="M307.665 21.6667H298.332C297.225 21.6667 296.332 22.5601 296.332 23.6667V25.0001C296.332 26.1067 297.225 27.0001 298.332 27.0001H307.665C308.772 27.0001 309.665 26.1067 309.665 25.0001V23.6667C309.665 22.5601 308.772 21.6667 307.665 21.6667Z" fill="#2D68F8"/>
</g>
</g>
<path d="M266.674 67C266.579 67 266.505 66.974 266.453 66.922C266.401 66.8613 266.375 66.7877 266.375 66.701V58.212C266.375 58.1167 266.401 58.043 266.453 57.991C266.505 57.9303 266.579 57.9 266.674 57.9H269.976C270.617 57.9 271.172 58.004 271.64 58.212C272.117 58.42 272.485 58.732 272.745 59.148C273.005 59.5553 273.135 60.0667 273.135 60.682C273.135 61.2973 273.005 61.8087 272.745 62.216C272.485 62.6233 272.117 62.931 271.64 63.139C271.172 63.347 270.617 63.451 269.976 63.451H267.675V66.701C267.675 66.7877 267.645 66.8613 267.584 66.922C267.532 66.974 267.458 67 267.363 67H266.674ZM267.662 62.359H269.911C270.552 62.359 271.033 62.216 271.354 61.93C271.675 61.644 271.835 61.228 271.835 60.682C271.835 60.1447 271.679 59.7287 271.367 59.434C271.055 59.1393 270.57 58.992 269.911 58.992H267.662V62.359ZM274.846 67C274.759 67 274.686 66.974 274.625 66.922C274.573 66.8613 274.547 66.7877 274.547 66.701V60.552C274.547 60.4653 274.573 60.3917 274.625 60.331C274.686 60.2703 274.759 60.24 274.846 60.24H275.444C275.531 60.24 275.604 60.2703 275.665 60.331C275.726 60.3917 275.756 60.4653 275.756 60.552V61.124C275.929 60.8293 276.168 60.6083 276.471 60.461C276.774 60.3137 277.138 60.24 277.563 60.24H278.083C278.17 60.24 278.239 60.2703 278.291 60.331C278.343 60.383 278.369 60.4523 278.369 60.539V61.072C278.369 61.1587 278.343 61.228 278.291 61.28C278.239 61.332 278.17 61.358 278.083 61.358H277.303C276.835 61.358 276.467 61.4967 276.198 61.774C275.929 62.0427 275.795 62.411 275.795 62.879V66.701C275.795 66.7877 275.765 66.8613 275.704 66.922C275.643 66.974 275.57 67 275.483 67H274.846ZM282.049 67.13C281.157 67.13 280.446 66.857 279.917 66.311C279.389 65.7563 279.098 65.0023 279.046 64.049C279.038 63.9363 279.033 63.7933 279.033 63.62C279.033 63.438 279.038 63.2907 279.046 63.178C279.081 62.5627 279.224 62.0253 279.475 61.566C279.727 61.098 280.069 60.7383 280.502 60.487C280.944 60.2357 281.46 60.11 282.049 60.11C282.708 60.11 283.258 60.2487 283.7 60.526C284.151 60.8033 284.493 61.1977 284.727 61.709C284.961 62.2203 285.078 62.8183 285.078 63.503V63.724C285.078 63.8193 285.048 63.893 284.987 63.945C284.935 63.997 284.866 64.023 284.779 64.023H280.281C280.281 64.0317 280.281 64.049 280.281 64.075C280.281 64.101 280.281 64.1227 280.281 64.14C280.299 64.4953 280.377 64.829 280.515 65.141C280.654 65.4443 280.853 65.6913 281.113 65.882C281.373 66.0727 281.685 66.168 282.049 66.168C282.361 66.168 282.621 66.1203 282.829 66.025C283.037 65.9297 283.206 65.8257 283.336 65.713C283.466 65.5917 283.553 65.5007 283.596 65.44C283.674 65.3273 283.735 65.2623 283.778 65.245C283.822 65.219 283.891 65.206 283.986 65.206H284.61C284.697 65.206 284.766 65.232 284.818 65.284C284.879 65.3273 284.905 65.3923 284.896 65.479C284.888 65.609 284.818 65.7693 284.688 65.96C284.558 66.142 284.372 66.324 284.129 66.506C283.887 66.688 283.592 66.8397 283.245 66.961C282.899 67.0737 282.5 67.13 282.049 67.13ZM280.281 63.126H283.843V63.087C283.843 62.697 283.77 62.3503 283.622 62.047C283.484 61.7437 283.28 61.5053 283.011 61.332C282.743 61.15 282.422 61.059 282.049 61.059C281.677 61.059 281.356 61.15 281.087 61.332C280.827 61.5053 280.628 61.7437 280.489 62.047C280.351 62.3503 280.281 62.697 280.281 63.087V63.126ZM286.932 67C286.845 67 286.772 66.974 286.711 66.922C286.659 66.8613 286.633 66.7877 286.633 66.701V60.539C286.633 60.4523 286.659 60.383 286.711 60.331C286.772 60.2703 286.845 60.24 286.932 60.24H287.517C287.604 60.24 287.673 60.2703 287.725 60.331C287.786 60.383 287.816 60.4523 287.816 60.539V60.994C288.015 60.7253 288.267 60.513 288.57 60.357C288.873 60.1923 289.237 60.11 289.662 60.11C290.641 60.1013 291.335 60.5 291.742 61.306C291.941 60.942 292.232 60.6517 292.613 60.435C292.994 60.2183 293.428 60.11 293.913 60.11C294.364 60.11 294.771 60.214 295.135 60.422C295.508 60.63 295.798 60.9463 296.006 61.371C296.223 61.787 296.331 62.3113 296.331 62.944V66.701C296.331 66.7877 296.301 66.8613 296.24 66.922C296.188 66.974 296.119 67 296.032 67H295.421C295.334 67 295.261 66.974 295.2 66.922C295.148 66.8613 295.122 66.7877 295.122 66.701V63.061C295.122 62.5757 295.053 62.1943 294.914 61.917C294.775 61.6397 294.589 61.4447 294.355 61.332C294.121 61.2193 293.865 61.163 293.588 61.163C293.363 61.163 293.133 61.2193 292.899 61.332C292.665 61.4447 292.47 61.6397 292.314 61.917C292.167 62.1943 292.093 62.5757 292.093 63.061V66.701C292.093 66.7877 292.063 66.8613 292.002 66.922C291.95 66.974 291.881 67 291.794 67H291.183C291.096 67 291.023 66.974 290.962 66.922C290.91 66.8613 290.884 66.7877 290.884 66.701V63.061C290.884 62.5757 290.81 62.1943 290.663 61.917C290.516 61.6397 290.325 61.4447 290.091 61.332C289.857 61.2193 289.61 61.163 289.35 61.163C289.125 61.163 288.895 61.2193 288.661 61.332C288.427 61.4447 288.232 61.6397 288.076 61.917C287.929 62.1943 287.855 62.5713 287.855 63.048V66.701C287.855 66.7877 287.825 66.8613 287.764 66.922C287.712 66.974 287.643 67 287.556 67H286.932ZM300.877 67.13C299.984 67.13 299.273 66.857 298.745 66.311C298.216 65.7563 297.926 65.0023 297.874 64.049C297.865 63.9363 297.861 63.7933 297.861 63.62C297.861 63.438 297.865 63.2907 297.874 63.178C297.908 62.5627 298.051 62.0253 298.303 61.566C298.554 61.098 298.896 60.7383 299.33 60.487C299.772 60.2357 300.287 60.11 300.877 60.11C301.535 60.11 302.086 60.2487 302.528 60.526C302.978 60.8033 303.321 61.1977 303.555 61.709C303.789 62.2203 303.906 62.8183 303.906 63.503V63.724C303.906 63.8193 303.875 63.893 303.815 63.945C303.763 63.997 303.693 64.023 303.607 64.023H299.109C299.109 64.0317 299.109 64.049 299.109 64.075C299.109 64.101 299.109 64.1227 299.109 64.14C299.126 64.4953 299.204 64.829 299.343 65.141C299.481 65.4443 299.681 65.6913 299.941 65.882C300.201 66.0727 300.513 66.168 300.877 66.168C301.189 66.168 301.449 66.1203 301.657 66.025C301.865 65.9297 302.034 65.8257 302.164 65.713C302.294 65.5917 302.38 65.5007 302.424 65.44C302.502 65.3273 302.562 65.2623 302.606 65.245C302.649 65.219 302.718 65.206 302.814 65.206H303.438C303.524 65.206 303.594 65.232 303.646 65.284C303.706 65.3273 303.732 65.3923 303.724 65.479C303.715 65.609 303.646 65.7693 303.516 65.96C303.386 66.142 303.199 66.324 302.957 66.506C302.714 66.688 302.419 66.8397 302.073 66.961C301.726 67.0737 301.327 67.13 300.877 67.13ZM299.109 63.126H302.671V63.087C302.671 62.697 302.597 62.3503 302.45 62.047C302.311 61.7437 302.107 61.5053 301.839 61.332C301.57 61.15 301.249 61.059 300.877 61.059C300.504 61.059 300.183 61.15 299.915 61.332C299.655 61.5053 299.455 61.7437 299.317 62.047C299.178 62.3503 299.109 62.697 299.109 63.087V63.126ZM307.93 67.13C307.453 67.13 307.042 67.0477 306.695 66.883C306.348 66.7097 306.062 66.48 305.837 66.194C305.62 65.8993 305.456 65.5657 305.343 65.193C305.239 64.8203 305.178 64.426 305.161 64.01C305.152 63.8713 305.148 63.7413 305.148 63.62C305.148 63.4987 305.152 63.3687 305.161 63.23C305.178 62.8227 305.239 62.4327 305.343 62.06C305.456 61.6873 305.62 61.3537 305.837 61.059C306.062 60.7643 306.348 60.5347 306.695 60.37C307.042 60.1967 307.453 60.11 307.93 60.11C308.441 60.11 308.866 60.201 309.204 60.383C309.542 60.565 309.819 60.7903 310.036 61.059V58.069C310.036 57.9823 310.062 57.913 310.114 57.861C310.175 57.8003 310.248 57.77 310.335 57.77H310.959C311.046 57.77 311.115 57.8003 311.167 57.861C311.228 57.913 311.258 57.9823 311.258 58.069V66.701C311.258 66.7877 311.228 66.8613 311.167 66.922C311.115 66.974 311.046 67 310.959 67H310.374C310.279 67 310.205 66.974 310.153 66.922C310.101 66.8613 310.075 66.7877 310.075 66.701V66.155C309.858 66.4323 309.577 66.6663 309.23 66.857C308.883 67.039 308.45 67.13 307.93 67.13ZM308.203 66.077C308.636 66.077 308.983 65.9773 309.243 65.778C309.503 65.5787 309.698 65.3273 309.828 65.024C309.958 64.712 310.027 64.3957 310.036 64.075C310.045 63.9363 310.049 63.7717 310.049 63.581C310.049 63.3817 310.045 63.2127 310.036 63.074C310.027 62.7707 309.954 62.4717 309.815 62.177C309.685 61.8823 309.486 61.6397 309.217 61.449C308.957 61.2583 308.619 61.163 308.203 61.163C307.761 61.163 307.41 61.2627 307.15 61.462C306.89 61.6527 306.704 61.9083 306.591 62.229C306.478 62.541 306.413 62.879 306.396 63.243C306.387 63.4943 306.387 63.7457 306.396 63.997C306.413 64.361 306.478 64.7033 306.591 65.024C306.704 65.336 306.89 65.5917 307.15 65.791C307.41 65.9817 307.761 66.077 308.203 66.077ZM313.49 67C313.404 67 313.33 66.974 313.269 66.922C313.217 66.8613 313.191 66.7877 313.191 66.701V60.539C313.191 60.4523 313.217 60.383 313.269 60.331C313.33 60.2703 313.404 60.24 313.49 60.24H314.114C314.201 60.24 314.27 60.2703 314.322 60.331C314.374 60.383 314.4 60.4523 314.4 60.539V66.701C314.4 66.7877 314.374 66.8613 314.322 66.922C314.27 66.974 314.201 67 314.114 67H313.49ZM313.386 58.979C313.3 58.979 313.226 58.953 313.165 58.901C313.113 58.8403 313.087 58.7667 313.087 58.68V57.978C313.087 57.8913 313.113 57.822 313.165 57.77C313.226 57.7093 313.3 57.679 313.386 57.679H314.205C314.292 57.679 314.361 57.7093 314.413 57.77C314.474 57.822 314.504 57.8913 314.504 57.978V58.68C314.504 58.7667 314.474 58.8403 314.413 58.901C314.361 58.953 314.292 58.979 314.205 58.979H313.386ZM319.07 67.13C318.455 67.13 317.922 67.013 317.471 66.779C317.029 66.5363 316.687 66.194 316.444 65.752C316.201 65.3013 316.071 64.764 316.054 64.14C316.045 64.01 316.041 63.8367 316.041 63.62C316.041 63.4033 316.045 63.23 316.054 63.1C316.071 62.476 316.201 61.943 316.444 61.501C316.687 61.0503 317.029 60.708 317.471 60.474C317.922 60.2313 318.455 60.11 319.07 60.11C319.573 60.11 320.002 60.1793 320.357 60.318C320.721 60.4567 321.02 60.6343 321.254 60.851C321.488 61.0677 321.661 61.3017 321.774 61.553C321.895 61.8043 321.96 62.0427 321.969 62.268C321.978 62.3547 321.952 62.424 321.891 62.476C321.83 62.528 321.757 62.554 321.67 62.554H321.046C320.959 62.554 320.894 62.5367 320.851 62.502C320.808 62.4587 320.764 62.3893 320.721 62.294C320.565 61.8693 320.353 61.5703 320.084 61.397C319.815 61.2237 319.482 61.137 319.083 61.137C318.563 61.137 318.138 61.2973 317.809 61.618C317.488 61.9387 317.315 62.4543 317.289 63.165C317.28 63.477 317.28 63.7803 317.289 64.075C317.315 64.7943 317.488 65.3143 317.809 65.635C318.138 65.947 318.563 66.103 319.083 66.103C319.482 66.103 319.815 66.0163 320.084 65.843C320.353 65.6697 320.565 65.3707 320.721 64.946C320.764 64.8507 320.808 64.7857 320.851 64.751C320.894 64.7077 320.959 64.686 321.046 64.686H321.67C321.757 64.686 321.83 64.712 321.891 64.764C321.952 64.816 321.978 64.8853 321.969 64.972C321.96 65.154 321.921 65.3403 321.852 65.531C321.783 65.7217 321.67 65.9167 321.514 66.116C321.367 66.3067 321.18 66.48 320.955 66.636C320.73 66.7833 320.457 66.9047 320.136 67C319.824 67.0867 319.469 67.13 319.07 67.13ZM323.812 67C323.725 67 323.651 66.974 323.591 66.922C323.539 66.8613 323.513 66.7877 323.513 66.701V60.539C323.513 60.4523 323.539 60.383 323.591 60.331C323.651 60.2703 323.725 60.24 323.812 60.24H324.436C324.522 60.24 324.592 60.2703 324.644 60.331C324.696 60.383 324.722 60.4523 324.722 60.539V66.701C324.722 66.7877 324.696 66.8613 324.644 66.922C324.592 66.974 324.522 67 324.436 67H323.812ZM323.708 58.979C323.621 58.979 323.547 58.953 323.487 58.901C323.435 58.8403 323.409 58.7667 323.409 58.68V57.978C323.409 57.8913 323.435 57.822 323.487 57.77C323.547 57.7093 323.621 57.679 323.708 57.679H324.527C324.613 57.679 324.683 57.7093 324.735 57.77C324.795 57.822 324.826 57.8913 324.826 57.978V58.68C324.826 58.7667 324.795 58.8403 324.735 58.901C324.683 58.953 324.613 58.979 324.527 58.979H323.708ZM326.96 67C326.874 67 326.8 66.974 326.739 66.922C326.687 66.8613 326.661 66.7877 326.661 66.701V60.539C326.661 60.4523 326.687 60.383 326.739 60.331C326.8 60.2703 326.874 60.24 326.96 60.24H327.571C327.658 60.24 327.727 60.2703 327.779 60.331C327.84 60.383 327.87 60.4523 327.87 60.539V61.111C328.096 60.8163 328.377 60.578 328.715 60.396C329.062 60.2053 329.504 60.11 330.041 60.11C330.605 60.11 331.081 60.2357 331.471 60.487C331.87 60.7297 332.169 61.072 332.368 61.514C332.568 61.9473 332.667 62.4543 332.667 63.035V66.701C332.667 66.7877 332.641 66.8613 332.589 66.922C332.537 66.974 332.468 67 332.381 67H331.731C331.645 67 331.571 66.974 331.51 66.922C331.458 66.8613 331.432 66.7877 331.432 66.701V63.1C331.432 62.4933 331.285 62.021 330.99 61.683C330.696 61.3363 330.262 61.163 329.69 61.163C329.153 61.163 328.72 61.3363 328.39 61.683C328.07 62.021 327.909 62.4933 327.909 63.1V66.701C327.909 66.7877 327.879 66.8613 327.818 66.922C327.766 66.974 327.697 67 327.61 67H326.96ZM336.43 67.13C335.997 67.13 335.602 67.0433 335.247 66.87C334.892 66.6967 334.606 66.4627 334.389 66.168C334.172 65.8733 334.064 65.5397 334.064 65.167C334.064 64.569 334.307 64.0923 334.792 63.737C335.277 63.3817 335.91 63.1477 336.69 63.035L338.627 62.762V62.385C338.627 61.969 338.506 61.644 338.263 61.41C338.029 61.176 337.643 61.059 337.106 61.059C336.716 61.059 336.4 61.137 336.157 61.293C335.923 61.449 335.758 61.6483 335.663 61.891C335.611 62.021 335.52 62.086 335.39 62.086H334.805C334.71 62.086 334.636 62.06 334.584 62.008C334.541 61.9473 334.519 61.878 334.519 61.8C334.519 61.67 334.567 61.5097 334.662 61.319C334.766 61.1283 334.922 60.942 335.13 60.76C335.338 60.578 335.602 60.4263 335.923 60.305C336.252 60.175 336.651 60.11 337.119 60.11C337.639 60.11 338.077 60.1793 338.432 60.318C338.787 60.448 339.065 60.6257 339.264 60.851C339.472 61.0763 339.619 61.332 339.706 61.618C339.801 61.904 339.849 62.1943 339.849 62.489V66.701C339.849 66.7877 339.819 66.8613 339.758 66.922C339.706 66.974 339.637 67 339.55 67H338.952C338.857 67 338.783 66.974 338.731 66.922C338.679 66.8613 338.653 66.7877 338.653 66.701V66.142C338.54 66.298 338.389 66.454 338.198 66.61C338.007 66.7573 337.769 66.883 337.483 66.987C337.197 67.0823 336.846 67.13 336.43 67.13ZM336.703 66.155C337.058 66.155 337.383 66.0813 337.678 65.934C337.973 65.778 338.202 65.5397 338.367 65.219C338.54 64.8983 338.627 64.4953 338.627 64.01V63.646L337.119 63.867C336.504 63.9537 336.04 64.101 335.728 64.309C335.416 64.5083 335.26 64.764 335.26 65.076C335.26 65.3187 335.329 65.5223 335.468 65.687C335.615 65.843 335.797 65.96 336.014 66.038C336.239 66.116 336.469 66.155 336.703 66.155Z" fill="#171B22"/>
<rect x="284.5" y="74" width="37" height="25" rx="12.5" fill="#2D68F8"/>
<path d="M297.342 91.14C296.67 91.14 296.086 91.0467 295.592 90.86C295.097 90.664 294.686 90.398 294.36 90.062C294.042 89.726 293.8 89.334 293.632 88.886C293.464 88.438 293.366 87.9573 293.338 87.444C293.328 87.192 293.319 86.9073 293.31 86.59C293.31 86.2633 293.31 85.9367 293.31 85.61C293.319 85.274 293.328 84.9753 293.338 84.714C293.366 84.2007 293.464 83.7247 293.632 83.286C293.809 82.838 294.061 82.4507 294.388 82.124C294.724 81.788 295.134 81.5267 295.62 81.34C296.114 81.1533 296.688 81.06 297.342 81.06C298.004 81.06 298.578 81.1533 299.064 81.34C299.549 81.5267 299.955 81.788 300.282 82.124C300.618 82.4507 300.874 82.838 301.052 83.286C301.229 83.7247 301.327 84.2007 301.346 84.714C301.364 84.9753 301.374 85.274 301.374 85.61C301.383 85.9367 301.383 86.2633 301.374 86.59C301.374 86.9073 301.364 87.192 301.346 87.444C301.327 87.9573 301.229 88.438 301.052 88.886C300.884 89.334 300.636 89.726 300.31 90.062C299.992 90.398 299.586 90.664 299.092 90.86C298.606 91.0467 298.023 91.14 297.342 91.14ZM297.342 89.11C297.827 89.11 298.177 88.956 298.392 88.648C298.616 88.3307 298.732 87.906 298.742 87.374C298.76 87.1033 298.77 86.8187 298.77 86.52C298.779 86.2213 298.779 85.9227 298.77 85.624C298.77 85.3253 298.76 85.05 298.742 84.798C298.732 84.2847 298.616 83.8693 298.392 83.552C298.177 83.2347 297.827 83.0713 297.342 83.062C296.856 83.0713 296.506 83.2347 296.292 83.552C296.077 83.8693 295.96 84.2847 295.942 84.798C295.932 85.05 295.923 85.3253 295.914 85.624C295.914 85.9227 295.914 86.2213 295.914 86.52C295.923 86.8187 295.932 87.1033 295.942 87.374C295.96 87.906 296.082 88.3307 296.306 88.648C296.53 88.956 296.875 89.11 297.342 89.11ZM303.679 91C303.465 91 303.357 90.9067 303.357 90.72C303.357 90.664 303.376 90.6127 303.413 90.566L310.329 81.466C310.395 81.382 310.46 81.3167 310.525 81.27C310.591 81.2233 310.689 81.2 310.819 81.2H311.813C312.028 81.2 312.135 81.2933 312.135 81.48C312.135 81.536 312.117 81.5873 312.079 81.634L305.163 90.734C305.098 90.818 305.033 90.8833 304.967 90.93C304.902 90.9767 304.804 91 304.673 91H303.679ZM310.721 91.07C310.087 91.07 309.578 90.902 309.195 90.566C308.822 90.23 308.612 89.782 308.565 89.222C308.556 88.9793 308.551 88.7647 308.551 88.578C308.551 88.3913 308.556 88.1673 308.565 87.906C308.603 87.3367 308.803 86.884 309.167 86.548C309.541 86.2027 310.059 86.03 310.721 86.03C311.393 86.03 311.911 86.2027 312.275 86.548C312.639 86.884 312.84 87.3367 312.877 87.906C312.896 88.1673 312.905 88.3913 312.905 88.578C312.905 88.7647 312.896 88.9793 312.877 89.222C312.84 89.782 312.63 90.23 312.247 90.566C311.865 90.902 311.356 91.07 310.721 91.07ZM310.721 89.838C310.88 89.838 311.001 89.8053 311.085 89.74C311.179 89.6747 311.249 89.5907 311.295 89.488C311.342 89.376 311.365 89.2593 311.365 89.138C311.384 88.9233 311.393 88.7273 311.393 88.55C311.393 88.3727 311.384 88.1813 311.365 87.976C311.356 87.7987 311.305 87.64 311.211 87.5C311.118 87.3507 310.955 87.276 310.721 87.276C310.488 87.276 310.325 87.3507 310.231 87.5C310.138 87.64 310.087 87.7987 310.077 87.976C310.068 88.1813 310.063 88.3727 310.063 88.55C310.063 88.7273 310.068 88.9233 310.077 89.138C310.087 89.2593 310.11 89.376 310.147 89.488C310.194 89.5907 310.264 89.6747 310.357 89.74C310.451 89.8053 310.572 89.838 310.721 89.838ZM304.799 86.142C304.155 86.142 303.642 85.9787 303.259 85.652C302.886 85.316 302.681 84.868 302.643 84.308C302.625 84.0653 302.615 83.8553 302.615 83.678C302.625 83.4913 302.634 83.2673 302.643 83.006C302.671 82.4367 302.867 81.984 303.231 81.648C303.605 81.3027 304.127 81.13 304.799 81.13C305.471 81.13 305.989 81.3027 306.353 81.648C306.717 81.984 306.913 82.4367 306.941 83.006C306.96 83.2673 306.969 83.4913 306.969 83.678C306.969 83.8553 306.96 84.0653 306.941 84.308C306.913 84.868 306.708 85.316 306.325 85.652C305.943 85.9787 305.434 86.142 304.799 86.142ZM304.799 84.938C304.949 84.938 305.07 84.9053 305.163 84.84C305.257 84.7653 305.327 84.6767 305.373 84.574C305.42 84.462 305.443 84.35 305.443 84.238C305.462 84.0233 305.471 83.8273 305.471 83.65C305.471 83.4727 305.462 83.2813 305.443 83.076C305.434 82.8987 305.378 82.74 305.275 82.6C305.182 82.4507 305.023 82.376 304.799 82.376C304.566 82.376 304.398 82.4507 304.295 82.6C304.202 82.74 304.151 82.8987 304.141 83.076C304.132 83.2813 304.127 83.4727 304.127 83.65C304.127 83.8273 304.132 84.0233 304.141 84.238C304.151 84.35 304.174 84.462 304.211 84.574C304.258 84.6767 304.328 84.7653 304.421 84.84C304.515 84.9053 304.641 84.938 304.799 84.938Z" fill="white"/>
<g filter="url(#filter0_d_16167_41081)">
<rect x="332" y="14" width="32" height="32" rx="16" fill="white"/>
<rect x="331" y="13" width="34" height="34" rx="17" stroke="#1DA534" stroke-width="2"/>
<path opacity="0.4" d="M348 40C353.523 40 358 35.5228 358 30C358 24.4772 353.523 20 348 20C342.477 20 338 24.4772 338 30C338 35.5228 342.477 40 348 40Z" fill="#1DA534"/>
<path d="M346.579 33.5801C346.379 33.5801 346.189 33.5001 346.049 33.3601L343.219 30.5301C342.929 30.2401 342.929 29.7601 343.219 29.4701C343.509 29.1801 343.989 29.1801 344.279 29.4701L346.579 31.7701L351.719 26.6301C352.009 26.3401 352.489 26.3401 352.779 26.6301C353.069 26.9201 353.069 27.4001 352.779 27.6901L347.109 33.3601C346.969 33.5001 346.779 33.5801 346.579 33.5801Z" fill="#1DA534"/>
</g>
<defs>
<filter id="filter0_d_16167_41081" x="315" y="5" width="66" height="66" filterUnits="userSpaceOnUse" color-interpolation-filters="sRGB">
<feFlood flood-opacity="0" result="BackgroundImageFix"/>
<feColorMatrix in="SourceAlpha" type="matrix" values="0 0 0 0 0 0 0 0 0 0 0 0 0 0 0 0 0 0 127 0" result="hardAlpha"/>
<feOffset dy="8"/>
<feGaussianBlur stdDeviation="7.5"/>
<feColorMatrix type="matrix" values="0 0 0 0 0 0 0 0 0 0 0 0 0 0 0 0 0 0 0.25 0"/>
<feBlend mode="normal" in2="BackgroundImageFix" result="effect1_dropShadow_16167_41081"/>
<feBlend mode="normal" in="SourceGraphic" in2="effect1_dropShadow_16167_41081" result="shape"/>
</filter>
<clipPath id="clip0_16167_41081">
<rect width="32" height="32" fill="white" transform="translate(287 19)"/>
</clipPath>
</defs>
</svg>
