<svg width="366" height="118" viewBox="0 0 366 118" fill="none" xmlns="http://www.w3.org/2000/svg">
<rect x="231" y="2" width="114" height="114" rx="57" fill="#FDF6FF"/>
<rect x="231" y="2" width="114" height="114" rx="57" stroke="#EAA7FC" stroke-width="4"/>
<g clip-path="url(#clip0_16167_41079)">
<mask id="mask0_16167_41079" style="mask-type:luminance" maskUnits="userSpaceOnUse" x="272" y="19" width="32" height="32">
<path d="M304 19H272V51H304V19Z" fill="white"/>
</mask>
<g mask="url(#mask0_16167_41079)">
<path opacity="0.4" fill-rule="evenodd" clip-rule="evenodd" d="M286.984 22.5878C285.805 21.6833 284.25 21.4227 282.837 21.9068C281.397 22.4001 280.317 23.5868 279.957 25.0668C279.837 25.6401 279.384 26.0935 278.811 26.2135C277.117 26.5601 275.717 27.7201 275.051 29.3068C274.384 30.9068 274.571 32.7202 275.517 34.1602C275.864 34.6669 275.864 35.3335 275.517 35.8269C274.557 37.2669 274.384 39.0802 275.051 40.6801C275.704 42.2801 277.117 43.4401 278.811 43.7734C279.384 43.8934 279.837 44.3467 279.957 44.9202C280.317 46.4002 281.397 47.5867 282.837 48.0801C284.25 48.5642 285.805 48.3037 286.984 47.3991V22.5878ZM288.984 47.3987C290.163 48.3035 291.717 48.5643 293.131 48.0801C294.571 47.5867 295.651 46.3867 296.011 44.9067C296.131 44.3334 296.584 43.8801 297.157 43.7601C298.851 43.4134 300.251 42.2534 300.917 40.6534C301.571 39.0534 301.397 37.2401 300.437 35.8001C300.091 35.2934 300.091 34.6401 300.437 34.1334C301.397 32.6934 301.571 30.8801 300.917 29.2801C300.251 27.6801 298.851 26.5201 297.157 26.1735C296.584 26.0535 296.131 25.6001 296.011 25.0268C295.651 23.5468 294.571 22.3601 293.131 21.8668C291.717 21.3826 290.163 21.6434 288.984 22.5482V47.3987Z" fill="#A677B3"/>
<path fill-rule="evenodd" clip-rule="evenodd" d="M295.386 38.96C294.298 38.96 293.426 39.8322 293.426 40.92V41.92H291.426V40.92C291.426 38.7277 293.193 36.96 295.386 36.96H296.386V38.96H295.386Z" fill="#A677B3"/>
<path fill-rule="evenodd" clip-rule="evenodd" d="M284.546 28.0801V29.0801C284.546 31.2723 282.778 33.0401 280.586 33.0401H279.586V31.0401H280.586C281.674 31.0401 282.546 30.1678 282.546 29.0801V28.0801H284.546Z" fill="#A677B3"/>
<path fill-rule="evenodd" clip-rule="evenodd" d="M279.586 36.96H280.586C282.778 36.96 284.546 38.7277 284.546 40.92V41.92H282.546V40.92C282.546 39.8322 281.674 38.96 280.586 38.96H279.586V36.96Z" fill="#A677B3"/>
<path fill-rule="evenodd" clip-rule="evenodd" d="M293.426 28.0801V29.0801C293.426 30.1678 294.298 31.0401 295.386 31.0401H296.386V33.0401H295.386C293.193 33.0401 291.426 31.2723 291.426 29.0801V28.0801H293.426Z" fill="#5F6774"/>
</g>
</g>
<path d="M264.039 67C263.944 67 263.87 66.974 263.818 66.922C263.766 66.8613 263.74 66.7877 263.74 66.701V58.212C263.74 58.1167 263.766 58.043 263.818 57.991C263.87 57.9303 263.944 57.9 264.039 57.9H269.343C269.439 57.9 269.512 57.9303 269.564 57.991C269.616 58.043 269.642 58.1167 269.642 58.212V58.732C269.642 58.8273 269.616 58.901 269.564 58.953C269.512 59.005 269.439 59.031 269.343 59.031H265.001V62.06H269.083C269.179 62.06 269.252 62.0903 269.304 62.151C269.356 62.203 269.382 62.2767 269.382 62.372V62.892C269.382 62.9787 269.356 63.0523 269.304 63.113C269.252 63.165 269.179 63.191 269.083 63.191H265.001V66.701C265.001 66.7877 264.971 66.8613 264.91 66.922C264.858 66.974 264.785 67 264.689 67H264.039ZM271.462 67C271.376 67 271.302 66.974 271.241 66.922C271.189 66.8613 271.163 66.7877 271.163 66.701V60.539C271.163 60.4523 271.189 60.383 271.241 60.331C271.302 60.2703 271.376 60.24 271.462 60.24H272.086C272.173 60.24 272.242 60.2703 272.294 60.331C272.346 60.383 272.372 60.4523 272.372 60.539V66.701C272.372 66.7877 272.346 66.8613 272.294 66.922C272.242 66.974 272.173 67 272.086 67H271.462ZM271.358 58.979C271.272 58.979 271.198 58.953 271.137 58.901C271.085 58.8403 271.059 58.7667 271.059 58.68V57.978C271.059 57.8913 271.085 57.822 271.137 57.77C271.198 57.7093 271.272 57.679 271.358 57.679H272.177C272.264 57.679 272.333 57.7093 272.385 57.77C272.446 57.822 272.476 57.8913 272.476 57.978V58.68C272.476 58.7667 272.446 58.8403 272.385 58.901C272.333 58.953 272.264 58.979 272.177 58.979H271.358ZM274.624 67C274.537 67 274.463 66.974 274.403 66.922C274.351 66.8613 274.325 66.7877 274.325 66.701V58.069C274.325 57.9823 274.351 57.913 274.403 57.861C274.463 57.8003 274.537 57.77 274.624 57.77H275.235C275.33 57.77 275.404 57.8003 275.456 57.861C275.508 57.913 275.534 57.9823 275.534 58.069V66.701C275.534 66.7877 275.508 66.8613 275.456 66.922C275.404 66.974 275.33 67 275.235 67H274.624ZM280.242 67.13C279.583 67.13 279.033 67.0043 278.591 66.753C278.149 66.5017 277.811 66.155 277.577 65.713C277.343 65.2623 277.213 64.751 277.187 64.179C277.178 64.0317 277.174 63.8453 277.174 63.62C277.174 63.386 277.178 63.1997 277.187 63.061C277.213 62.4803 277.343 61.969 277.577 61.527C277.819 61.085 278.162 60.7383 278.604 60.487C279.046 60.2357 279.592 60.11 280.242 60.11C280.892 60.11 281.438 60.2357 281.88 60.487C282.322 60.7383 282.66 61.085 282.894 61.527C283.136 61.969 283.271 62.4803 283.297 63.061C283.305 63.1997 283.31 63.386 283.31 63.62C283.31 63.8453 283.305 64.0317 283.297 64.179C283.271 64.751 283.141 65.2623 282.907 65.713C282.673 66.155 282.335 66.5017 281.893 66.753C281.451 67.0043 280.9 67.13 280.242 67.13ZM280.242 66.129C280.779 66.129 281.208 65.96 281.529 65.622C281.849 65.2753 282.023 64.7727 282.049 64.114C282.057 63.984 282.062 63.8193 282.062 63.62C282.062 63.4207 282.057 63.256 282.049 63.126C282.023 62.4673 281.849 61.969 281.529 61.631C281.208 61.2843 280.779 61.111 280.242 61.111C279.704 61.111 279.271 61.2843 278.942 61.631C278.621 61.969 278.452 62.4673 278.435 63.126C278.426 63.256 278.422 63.4207 278.422 63.62C278.422 63.8193 278.426 63.984 278.435 64.114C278.452 64.7727 278.621 65.2753 278.942 65.622C279.271 65.96 279.704 66.129 280.242 66.129ZM287.278 67.13C286.792 67.13 286.376 67.0693 286.03 66.948C285.683 66.8267 285.401 66.6793 285.185 66.506C284.968 66.3327 284.803 66.1593 284.691 65.986C284.587 65.8127 284.53 65.674 284.522 65.57C284.513 65.4747 284.543 65.401 284.613 65.349C284.682 65.297 284.751 65.271 284.821 65.271H285.393C285.445 65.271 285.484 65.2797 285.51 65.297C285.544 65.3057 285.588 65.3403 285.64 65.401C285.752 65.5223 285.878 65.6437 286.017 65.765C286.155 65.8863 286.324 65.986 286.524 66.064C286.732 66.142 286.987 66.181 287.291 66.181C287.733 66.181 288.097 66.0987 288.383 65.934C288.669 65.7607 288.812 65.5093 288.812 65.18C288.812 64.9633 288.751 64.79 288.63 64.66C288.517 64.53 288.309 64.413 288.006 64.309C287.711 64.205 287.304 64.0967 286.784 63.984C286.264 63.8627 285.852 63.7153 285.549 63.542C285.245 63.36 285.029 63.1477 284.899 62.905C284.769 62.6537 284.704 62.372 284.704 62.06C284.704 61.7393 284.799 61.4317 284.99 61.137C285.18 60.8337 285.458 60.5867 285.822 60.396C286.194 60.2053 286.658 60.11 287.213 60.11C287.663 60.11 288.049 60.1663 288.37 60.279C288.69 60.3917 288.955 60.5347 289.163 60.708C289.371 60.8727 289.527 61.0373 289.631 61.202C289.735 61.3667 289.791 61.5053 289.8 61.618C289.808 61.7047 289.782 61.7783 289.722 61.839C289.661 61.891 289.592 61.917 289.514 61.917H288.968C288.907 61.917 288.855 61.904 288.812 61.878C288.777 61.852 288.742 61.8217 288.708 61.787C288.621 61.6743 288.517 61.5617 288.396 61.449C288.283 61.3363 288.131 61.2453 287.941 61.176C287.759 61.098 287.516 61.059 287.213 61.059C286.779 61.059 286.454 61.15 286.238 61.332C286.021 61.514 285.913 61.7437 285.913 62.021C285.913 62.1857 285.96 62.333 286.056 62.463C286.151 62.593 286.333 62.71 286.602 62.814C286.87 62.918 287.269 63.0307 287.798 63.152C288.37 63.2647 288.82 63.4163 289.15 63.607C289.479 63.7977 289.713 64.0187 289.852 64.27C289.99 64.5213 290.06 64.8117 290.06 65.141C290.06 65.505 289.951 65.8387 289.735 66.142C289.527 66.4453 289.215 66.688 288.799 66.87C288.391 67.0433 287.884 67.13 287.278 67.13ZM294.334 67.13C293.675 67.13 293.125 67.0043 292.683 66.753C292.241 66.5017 291.903 66.155 291.669 65.713C291.435 65.2623 291.305 64.751 291.279 64.179C291.27 64.0317 291.266 63.8453 291.266 63.62C291.266 63.386 291.27 63.1997 291.279 63.061C291.305 62.4803 291.435 61.969 291.669 61.527C291.911 61.085 292.254 60.7383 292.696 60.487C293.138 60.2357 293.684 60.11 294.334 60.11C294.984 60.11 295.53 60.2357 295.972 60.487C296.414 60.7383 296.752 61.085 296.986 61.527C297.228 61.969 297.363 62.4803 297.389 63.061C297.397 63.1997 297.402 63.386 297.402 63.62C297.402 63.8453 297.397 64.0317 297.389 64.179C297.363 64.751 297.233 65.2623 296.999 65.713C296.765 66.155 296.427 66.5017 295.985 66.753C295.543 67.0043 294.992 67.13 294.334 67.13ZM294.334 66.129C294.871 66.129 295.3 65.96 295.621 65.622C295.941 65.2753 296.115 64.7727 296.141 64.114C296.149 63.984 296.154 63.8193 296.154 63.62C296.154 63.4207 296.149 63.256 296.141 63.126C296.115 62.4673 295.941 61.969 295.621 61.631C295.3 61.2843 294.871 61.111 294.334 61.111C293.796 61.111 293.363 61.2843 293.034 61.631C292.713 61.969 292.544 62.4673 292.527 63.126C292.518 63.256 292.514 63.4207 292.514 63.62C292.514 63.8193 292.518 63.984 292.527 64.114C292.544 64.7727 292.713 65.2753 293.034 65.622C293.363 65.96 293.796 66.129 294.334 66.129ZM299.928 67C299.842 67 299.768 66.974 299.707 66.922C299.655 66.8613 299.629 66.7877 299.629 66.701V61.28H298.524C298.438 61.28 298.364 61.254 298.303 61.202C298.251 61.1413 298.225 61.0677 298.225 60.981V60.539C298.225 60.4523 298.251 60.383 298.303 60.331C298.364 60.2703 298.438 60.24 298.524 60.24H299.629V59.59C299.629 59.148 299.703 58.7623 299.85 58.433C299.998 58.095 300.232 57.835 300.552 57.653C300.882 57.471 301.319 57.38 301.865 57.38H302.645C302.732 57.38 302.801 57.4103 302.853 57.471C302.905 57.523 302.931 57.5923 302.931 57.679V58.121C302.931 58.2077 302.905 58.2813 302.853 58.342C302.801 58.394 302.732 58.42 302.645 58.42H301.891C301.484 58.42 301.207 58.5283 301.059 58.745C300.912 58.953 300.838 59.2563 300.838 59.655V60.24H302.515C302.602 60.24 302.671 60.2703 302.723 60.331C302.775 60.383 302.801 60.4523 302.801 60.539V60.981C302.801 61.0677 302.775 61.1413 302.723 61.202C302.671 61.254 302.602 61.28 302.515 61.28H300.838V66.701C300.838 66.7877 300.808 66.8613 300.747 66.922C300.695 66.974 300.626 67 300.539 67H299.928ZM304.33 67C304.244 67 304.17 66.974 304.109 66.922C304.057 66.8613 304.031 66.7877 304.031 66.701V60.539C304.031 60.4523 304.057 60.383 304.109 60.331C304.17 60.2703 304.244 60.24 304.33 60.24H304.954C305.041 60.24 305.11 60.2703 305.162 60.331C305.214 60.383 305.24 60.4523 305.24 60.539V66.701C305.24 66.7877 305.214 66.8613 305.162 66.922C305.11 66.974 305.041 67 304.954 67H304.33ZM304.291 59.265C304.153 59.265 304.083 59.1957 304.083 59.057C304.083 58.9877 304.105 58.9313 304.148 58.888L305.123 57.718C305.201 57.6227 305.271 57.562 305.331 57.536C305.392 57.5013 305.483 57.484 305.604 57.484H306.488C306.653 57.484 306.735 57.5663 306.735 57.731C306.735 57.7917 306.714 57.8437 306.67 57.887L305.162 59.122C305.093 59.1827 305.028 59.2217 304.967 59.239C304.907 59.2563 304.829 59.265 304.733 59.265H304.291ZM309.065 67.13C308.631 67.13 308.237 67.0433 307.882 66.87C307.526 66.6967 307.24 66.4627 307.024 66.168C306.807 65.8733 306.699 65.5397 306.699 65.167C306.699 64.569 306.941 64.0923 307.427 63.737C307.912 63.3817 308.545 63.1477 309.325 63.035L311.262 62.762V62.385C311.262 61.969 311.14 61.644 310.898 61.41C310.664 61.176 310.278 61.059 309.741 61.059C309.351 61.059 309.034 61.137 308.792 61.293C308.558 61.449 308.393 61.6483 308.298 61.891C308.246 62.021 308.155 62.086 308.025 62.086H307.44C307.344 62.086 307.271 62.06 307.219 62.008C307.175 61.9473 307.154 61.878 307.154 61.8C307.154 61.67 307.201 61.5097 307.297 61.319C307.401 61.1283 307.557 60.942 307.765 60.76C307.973 60.578 308.237 60.4263 308.558 60.305C308.887 60.175 309.286 60.11 309.754 60.11C310.274 60.11 310.711 60.1793 311.067 60.318C311.422 60.448 311.699 60.6257 311.899 60.851C312.107 61.0763 312.254 61.332 312.341 61.618C312.436 61.904 312.484 62.1943 312.484 62.489V66.701C312.484 66.7877 312.453 66.8613 312.393 66.922C312.341 66.974 312.271 67 312.185 67H311.587C311.491 67 311.418 66.974 311.366 66.922C311.314 66.8613 311.288 66.7877 311.288 66.701V66.142C311.175 66.298 311.023 66.454 310.833 66.61C310.642 66.7573 310.404 66.883 310.118 66.987C309.832 67.0823 309.481 67.13 309.065 67.13ZM309.338 66.155C309.693 66.155 310.018 66.0813 310.313 65.934C310.607 65.778 310.837 65.5397 311.002 65.219C311.175 64.8983 311.262 64.4953 311.262 64.01V63.646L309.754 63.867C309.138 63.9537 308.675 64.101 308.363 64.309C308.051 64.5083 307.895 64.764 307.895 65.076C307.895 65.3187 307.964 65.5223 308.103 65.687C308.25 65.843 308.432 65.96 308.649 66.038C308.874 66.116 309.104 66.155 309.338 66.155Z" fill="#171B22"/>
<rect x="269.5" y="74" width="37" height="25" rx="12.5" fill="#A677B3"/>
<path d="M282.342 91.14C281.67 91.14 281.086 91.0467 280.592 90.86C280.097 90.664 279.686 90.398 279.36 90.062C279.042 89.726 278.8 89.334 278.632 88.886C278.464 88.438 278.366 87.9573 278.338 87.444C278.328 87.192 278.319 86.9073 278.31 86.59C278.31 86.2633 278.31 85.9367 278.31 85.61C278.319 85.274 278.328 84.9753 278.338 84.714C278.366 84.2007 278.464 83.7247 278.632 83.286C278.809 82.838 279.061 82.4507 279.388 82.124C279.724 81.788 280.134 81.5267 280.62 81.34C281.114 81.1533 281.688 81.06 282.342 81.06C283.004 81.06 283.578 81.1533 284.064 81.34C284.549 81.5267 284.955 81.788 285.282 82.124C285.618 82.4507 285.874 82.838 286.052 83.286C286.229 83.7247 286.327 84.2007 286.346 84.714C286.364 84.9753 286.374 85.274 286.374 85.61C286.383 85.9367 286.383 86.2633 286.374 86.59C286.374 86.9073 286.364 87.192 286.346 87.444C286.327 87.9573 286.229 88.438 286.052 88.886C285.884 89.334 285.636 89.726 285.31 90.062C284.992 90.398 284.586 90.664 284.092 90.86C283.606 91.0467 283.023 91.14 282.342 91.14ZM282.342 89.11C282.827 89.11 283.177 88.956 283.392 88.648C283.616 88.3307 283.732 87.906 283.742 87.374C283.76 87.1033 283.77 86.8187 283.77 86.52C283.779 86.2213 283.779 85.9227 283.77 85.624C283.77 85.3253 283.76 85.05 283.742 84.798C283.732 84.2847 283.616 83.8693 283.392 83.552C283.177 83.2347 282.827 83.0713 282.342 83.062C281.856 83.0713 281.506 83.2347 281.292 83.552C281.077 83.8693 280.96 84.2847 280.942 84.798C280.932 85.05 280.923 85.3253 280.914 85.624C280.914 85.9227 280.914 86.2213 280.914 86.52C280.923 86.8187 280.932 87.1033 280.942 87.374C280.96 87.906 281.082 88.3307 281.306 88.648C281.53 88.956 281.875 89.11 282.342 89.11ZM288.679 91C288.465 91 288.357 90.9067 288.357 90.72C288.357 90.664 288.376 90.6127 288.413 90.566L295.329 81.466C295.395 81.382 295.46 81.3167 295.525 81.27C295.591 81.2233 295.689 81.2 295.819 81.2H296.813C297.028 81.2 297.135 81.2933 297.135 81.48C297.135 81.536 297.117 81.5873 297.079 81.634L290.163 90.734C290.098 90.818 290.033 90.8833 289.967 90.93C289.902 90.9767 289.804 91 289.673 91H288.679ZM295.721 91.07C295.087 91.07 294.578 90.902 294.195 90.566C293.822 90.23 293.612 89.782 293.565 89.222C293.556 88.9793 293.551 88.7647 293.551 88.578C293.551 88.3913 293.556 88.1673 293.565 87.906C293.603 87.3367 293.803 86.884 294.167 86.548C294.541 86.2027 295.059 86.03 295.721 86.03C296.393 86.03 296.911 86.2027 297.275 86.548C297.639 86.884 297.84 87.3367 297.877 87.906C297.896 88.1673 297.905 88.3913 297.905 88.578C297.905 88.7647 297.896 88.9793 297.877 89.222C297.84 89.782 297.63 90.23 297.247 90.566C296.865 90.902 296.356 91.07 295.721 91.07ZM295.721 89.838C295.88 89.838 296.001 89.8053 296.085 89.74C296.179 89.6747 296.249 89.5907 296.295 89.488C296.342 89.376 296.365 89.2593 296.365 89.138C296.384 88.9233 296.393 88.7273 296.393 88.55C296.393 88.3727 296.384 88.1813 296.365 87.976C296.356 87.7987 296.305 87.64 296.211 87.5C296.118 87.3507 295.955 87.276 295.721 87.276C295.488 87.276 295.325 87.3507 295.231 87.5C295.138 87.64 295.087 87.7987 295.077 87.976C295.068 88.1813 295.063 88.3727 295.063 88.55C295.063 88.7273 295.068 88.9233 295.077 89.138C295.087 89.2593 295.11 89.376 295.147 89.488C295.194 89.5907 295.264 89.6747 295.357 89.74C295.451 89.8053 295.572 89.838 295.721 89.838ZM289.799 86.142C289.155 86.142 288.642 85.9787 288.259 85.652C287.886 85.316 287.681 84.868 287.643 84.308C287.625 84.0653 287.615 83.8553 287.615 83.678C287.625 83.4913 287.634 83.2673 287.643 83.006C287.671 82.4367 287.867 81.984 288.231 81.648C288.605 81.3027 289.127 81.13 289.799 81.13C290.471 81.13 290.989 81.3027 291.353 81.648C291.717 81.984 291.913 82.4367 291.941 83.006C291.96 83.2673 291.969 83.4913 291.969 83.678C291.969 83.8553 291.96 84.0653 291.941 84.308C291.913 84.868 291.708 85.316 291.325 85.652C290.943 85.9787 290.434 86.142 289.799 86.142ZM289.799 84.938C289.949 84.938 290.07 84.9053 290.163 84.84C290.257 84.7653 290.327 84.6767 290.373 84.574C290.42 84.462 290.443 84.35 290.443 84.238C290.462 84.0233 290.471 83.8273 290.471 83.65C290.471 83.4727 290.462 83.2813 290.443 83.076C290.434 82.8987 290.378 82.74 290.275 82.6C290.182 82.4507 290.023 82.376 289.799 82.376C289.566 82.376 289.398 82.4507 289.295 82.6C289.202 82.74 289.151 82.8987 289.141 83.076C289.132 83.2813 289.127 83.4727 289.127 83.65C289.127 83.8273 289.132 84.0233 289.141 84.238C289.151 84.35 289.174 84.462 289.211 84.574C289.258 84.6767 289.328 84.7653 289.421 84.84C289.515 84.9053 289.641 84.938 289.799 84.938Z" fill="white"/>
<g filter="url(#filter0_d_16167_41079)">
<rect x="317" y="14" width="32" height="32" rx="16" fill="white"/>
<rect x="316" y="13" width="34" height="34" rx="17" stroke="#1DA534" stroke-width="2"/>
<path opacity="0.4" d="M333 40C338.523 40 343 35.5228 343 30C343 24.4772 338.523 20 333 20C327.477 20 323 24.4772 323 30C323 35.5228 327.477 40 333 40Z" fill="#1DA534"/>
<path d="M331.579 33.5801C331.379 33.5801 331.189 33.5001 331.049 33.3601L328.219 30.5301C327.929 30.2401 327.929 29.7601 328.219 29.4701C328.509 29.1801 328.989 29.1801 329.279 29.4701L331.579 31.7701L336.719 26.6301C337.009 26.3401 337.489 26.3401 337.779 26.6301C338.069 26.9201 338.069 27.4001 337.779 27.6901L332.109 33.3601C331.969 33.5001 331.779 33.5801 331.579 33.5801Z" fill="#1DA534"/>
</g>
<defs>
<filter id="filter0_d_16167_41079" x="300" y="5" width="66" height="66" filterUnits="userSpaceOnUse" color-interpolation-filters="sRGB">
<feFlood flood-opacity="0" result="BackgroundImageFix"/>
<feColorMatrix in="SourceAlpha" type="matrix" values="0 0 0 0 0 0 0 0 0 0 0 0 0 0 0 0 0 0 127 0" result="hardAlpha"/>
<feOffset dy="8"/>
<feGaussianBlur stdDeviation="7.5"/>
<feColorMatrix type="matrix" values="0 0 0 0 0 0 0 0 0 0 0 0 0 0 0 0 0 0 0.25 0"/>
<feBlend mode="normal" in2="BackgroundImageFix" result="effect1_dropShadow_16167_41079"/>
<feBlend mode="normal" in="SourceGraphic" in2="effect1_dropShadow_16167_41079" result="shape"/>
</filter>
<clipPath id="clip0_16167_41079">
<rect width="32" height="32" fill="white" transform="translate(272 19)"/>
</clipPath>
</defs>
</svg>
