<svg width="351" height="118" viewBox="0 0 351 118" fill="none" xmlns="http://www.w3.org/2000/svg">
<rect x="209" y="2" width="114" height="114" rx="57" fill="#FEF1EA"/>
<rect x="209" y="2" width="114" height="114" rx="57" stroke="#F27430" stroke-width="4"/>
<g clip-path="url(#clip0_16167_41077)">
<mask id="mask0_16167_41077" style="mask-type:luminance" maskUnits="userSpaceOnUse" x="250" y="19" width="32" height="32">
<path d="M282 19H250V51H282V19Z" fill="white"/>
</mask>
<g mask="url(#mask0_16167_41077)">
<path d="M252.68 49.3333C252.427 49.3333 252.174 49.2399 251.974 49.0399C251.587 48.6533 251.587 48.0133 251.974 47.6266L271.227 28.3733C271.614 27.9866 272.254 27.9866 272.64 28.3733C273.027 28.7599 273.027 29.3999 272.64 29.7866L253.387 49.0399C253.187 49.2399 252.934 49.3333 252.68 49.3333Z" fill="#DC6A2C"/>
<g opacity="0.4">
<path d="M258.412 32.2134L266.826 23.8268C269.692 20.9734 274.319 20.9734 277.186 23.8268C280.052 26.6934 280.052 31.3334 277.186 34.2L268.786 42.5867C267.959 43.4134 266.826 43.88 265.652 43.88H257.119V35.36C257.119 34.1734 257.586 33.0534 258.426 32.2134H258.412Z" fill="#DC6A2C"/>
</g>
</g>
</g>
<path d="M237.59 67C237.494 67 237.421 66.974 237.369 66.922C237.317 66.8613 237.291 66.7877 237.291 66.701V58.199C237.291 58.1123 237.317 58.043 237.369 57.991C237.421 57.9303 237.494 57.9 237.59 57.9H238.279C238.365 57.9 238.435 57.9303 238.487 57.991C238.539 58.043 238.565 58.1123 238.565 58.199V65.869H242.894C242.989 65.869 243.063 65.8993 243.115 65.96C243.167 66.012 243.193 66.0857 243.193 66.181V66.701C243.193 66.7877 243.167 66.8613 243.115 66.922C243.063 66.974 242.989 67 242.894 67H237.59ZM244.746 67C244.659 67 244.586 66.974 244.525 66.922C244.473 66.8613 244.447 66.7877 244.447 66.701V60.539C244.447 60.4523 244.473 60.383 244.525 60.331C244.586 60.2703 244.659 60.24 244.746 60.24H245.37C245.457 60.24 245.526 60.2703 245.578 60.331C245.63 60.383 245.656 60.4523 245.656 60.539V66.701C245.656 66.7877 245.63 66.8613 245.578 66.922C245.526 66.974 245.457 67 245.37 67H244.746ZM244.642 58.979C244.555 58.979 244.482 58.953 244.421 58.901C244.369 58.8403 244.343 58.7667 244.343 58.68V57.978C244.343 57.8913 244.369 57.822 244.421 57.77C244.482 57.7093 244.555 57.679 244.642 57.679H245.461C245.548 57.679 245.617 57.7093 245.669 57.77C245.73 57.822 245.76 57.8913 245.76 57.978V58.68C245.76 58.7667 245.73 58.8403 245.669 58.901C245.617 58.953 245.548 58.979 245.461 58.979H244.642ZM250.234 67C249.749 67 249.355 66.909 249.051 66.727C248.748 66.5363 248.527 66.272 248.388 65.934C248.25 65.5873 248.18 65.18 248.18 64.712V61.28H247.166C247.08 61.28 247.006 61.254 246.945 61.202C246.893 61.1413 246.867 61.0677 246.867 60.981V60.539C246.867 60.4523 246.893 60.383 246.945 60.331C247.006 60.2703 247.08 60.24 247.166 60.24H248.18V58.069C248.18 57.9823 248.206 57.913 248.258 57.861C248.319 57.8003 248.393 57.77 248.479 57.77H249.09C249.177 57.77 249.246 57.8003 249.298 57.861C249.359 57.913 249.389 57.9823 249.389 58.069V60.24H251.001C251.088 60.24 251.157 60.2703 251.209 60.331C251.27 60.383 251.3 60.4523 251.3 60.539V60.981C251.3 61.0677 251.27 61.1413 251.209 61.202C251.157 61.254 251.088 61.28 251.001 61.28H249.389V64.621C249.389 65.0283 249.459 65.349 249.597 65.583C249.736 65.817 249.983 65.934 250.338 65.934H251.131C251.218 65.934 251.287 65.9643 251.339 66.025C251.4 66.077 251.43 66.1463 251.43 66.233V66.701C251.43 66.7877 251.4 66.8613 251.339 66.922C251.287 66.974 251.218 67 251.131 67H250.234ZM255.364 67.13C254.472 67.13 253.761 66.857 253.232 66.311C252.704 65.7563 252.413 65.0023 252.361 64.049C252.353 63.9363 252.348 63.7933 252.348 63.62C252.348 63.438 252.353 63.2907 252.361 63.178C252.396 62.5627 252.539 62.0253 252.79 61.566C253.042 61.098 253.384 60.7383 253.817 60.487C254.259 60.2357 254.775 60.11 255.364 60.11C256.023 60.11 256.573 60.2487 257.015 60.526C257.466 60.8033 257.808 61.1977 258.042 61.709C258.276 62.2203 258.393 62.8183 258.393 63.503V63.724C258.393 63.8193 258.363 63.893 258.302 63.945C258.25 63.997 258.181 64.023 258.094 64.023H253.596C253.596 64.0317 253.596 64.049 253.596 64.075C253.596 64.101 253.596 64.1227 253.596 64.14C253.614 64.4953 253.692 64.829 253.83 65.141C253.969 65.4443 254.168 65.6913 254.428 65.882C254.688 66.0727 255 66.168 255.364 66.168C255.676 66.168 255.936 66.1203 256.144 66.025C256.352 65.9297 256.521 65.8257 256.651 65.713C256.781 65.5917 256.868 65.5007 256.911 65.44C256.989 65.3273 257.05 65.2623 257.093 65.245C257.137 65.219 257.206 65.206 257.301 65.206H257.925C258.012 65.206 258.081 65.232 258.133 65.284C258.194 65.3273 258.22 65.3923 258.211 65.479C258.203 65.609 258.133 65.7693 258.003 65.96C257.873 66.142 257.687 66.324 257.444 66.506C257.202 66.688 256.907 66.8397 256.56 66.961C256.214 67.0737 255.815 67.13 255.364 67.13ZM253.596 63.126H257.158V63.087C257.158 62.697 257.085 62.3503 256.937 62.047C256.799 61.7437 256.595 61.5053 256.326 61.332C256.058 61.15 255.737 61.059 255.364 61.059C254.992 61.059 254.671 61.15 254.402 61.332C254.142 61.5053 253.943 61.7437 253.804 62.047C253.666 62.3503 253.596 62.697 253.596 63.087V63.126ZM260.247 67C260.16 67 260.087 66.974 260.026 66.922C259.974 66.8613 259.948 66.7877 259.948 66.701V60.552C259.948 60.4653 259.974 60.3917 260.026 60.331C260.087 60.2703 260.16 60.24 260.247 60.24H260.845C260.932 60.24 261.005 60.2703 261.066 60.331C261.127 60.3917 261.157 60.4653 261.157 60.552V61.124C261.33 60.8293 261.569 60.6083 261.872 60.461C262.175 60.3137 262.539 60.24 262.964 60.24H263.484C263.571 60.24 263.64 60.2703 263.692 60.331C263.744 60.383 263.77 60.4523 263.77 60.539V61.072C263.77 61.1587 263.744 61.228 263.692 61.28C263.64 61.332 263.571 61.358 263.484 61.358H262.704C262.236 61.358 261.868 61.4967 261.599 61.774C261.33 62.0427 261.196 62.411 261.196 62.879V66.701C261.196 66.7877 261.166 66.8613 261.105 66.922C261.044 66.974 260.971 67 260.884 67H260.247ZM266.67 67.13C266.236 67.13 265.842 67.0433 265.487 66.87C265.131 66.6967 264.845 66.4627 264.629 66.168C264.412 65.8733 264.304 65.5397 264.304 65.167C264.304 64.569 264.546 64.0923 265.032 63.737C265.517 63.3817 266.15 63.1477 266.93 63.035L268.867 62.762V62.385C268.867 61.969 268.745 61.644 268.503 61.41C268.269 61.176 267.883 61.059 267.346 61.059C266.956 61.059 266.639 61.137 266.397 61.293C266.163 61.449 265.998 61.6483 265.903 61.891C265.851 62.021 265.76 62.086 265.63 62.086H265.045C264.949 62.086 264.876 62.06 264.824 62.008C264.78 61.9473 264.759 61.878 264.759 61.8C264.759 61.67 264.806 61.5097 264.902 61.319C265.006 61.1283 265.162 60.942 265.37 60.76C265.578 60.578 265.842 60.4263 266.163 60.305C266.492 60.175 266.891 60.11 267.359 60.11C267.879 60.11 268.316 60.1793 268.672 60.318C269.027 60.448 269.304 60.6257 269.504 60.851C269.712 61.0763 269.859 61.332 269.946 61.618C270.041 61.904 270.089 62.1943 270.089 62.489V66.701C270.089 66.7877 270.058 66.8613 269.998 66.922C269.946 66.974 269.876 67 269.79 67H269.192C269.096 67 269.023 66.974 268.971 66.922C268.919 66.8613 268.893 66.7877 268.893 66.701V66.142C268.78 66.298 268.628 66.454 268.438 66.61C268.247 66.7573 268.009 66.883 267.723 66.987C267.437 67.0823 267.086 67.13 266.67 67.13ZM266.943 66.155C267.298 66.155 267.623 66.0813 267.918 65.934C268.212 65.778 268.442 65.5397 268.607 65.219C268.78 64.8983 268.867 64.4953 268.867 64.01V63.646L267.359 63.867C266.743 63.9537 266.28 64.101 265.968 64.309C265.656 64.5083 265.5 64.764 265.5 65.076C265.5 65.3187 265.569 65.5223 265.708 65.687C265.855 65.843 266.037 65.96 266.254 66.038C266.479 66.116 266.709 66.155 266.943 66.155ZM274.533 67C274.048 67 273.653 66.909 273.35 66.727C273.047 66.5363 272.826 66.272 272.687 65.934C272.548 65.5873 272.479 65.18 272.479 64.712V61.28H271.465C271.378 61.28 271.305 61.254 271.244 61.202C271.192 61.1413 271.166 61.0677 271.166 60.981V60.539C271.166 60.4523 271.192 60.383 271.244 60.331C271.305 60.2703 271.378 60.24 271.465 60.24H272.479V58.069C272.479 57.9823 272.505 57.913 272.557 57.861C272.618 57.8003 272.691 57.77 272.778 57.77H273.389C273.476 57.77 273.545 57.8003 273.597 57.861C273.658 57.913 273.688 57.9823 273.688 58.069V60.24H275.3C275.387 60.24 275.456 60.2703 275.508 60.331C275.569 60.383 275.599 60.4523 275.599 60.539V60.981C275.599 61.0677 275.569 61.1413 275.508 61.202C275.456 61.254 275.387 61.28 275.3 61.28H273.688V64.621C273.688 65.0283 273.757 65.349 273.896 65.583C274.035 65.817 274.282 65.934 274.637 65.934H275.43C275.517 65.934 275.586 65.9643 275.638 66.025C275.699 66.077 275.729 66.1463 275.729 66.233V66.701C275.729 66.7877 275.699 66.8613 275.638 66.922C275.586 66.974 275.517 67 275.43 67H274.533ZM279.494 67.13C278.94 67.13 278.467 67.0087 278.077 66.766C277.696 66.5147 277.406 66.168 277.206 65.726C277.007 65.284 276.907 64.777 276.907 64.205V60.539C276.907 60.4523 276.933 60.383 276.985 60.331C277.046 60.2703 277.12 60.24 277.206 60.24H277.856C277.943 60.24 278.012 60.2703 278.064 60.331C278.125 60.383 278.155 60.4523 278.155 60.539V64.14C278.155 65.4313 278.719 66.077 279.845 66.077C280.383 66.077 280.812 65.908 281.132 65.57C281.462 65.2233 281.626 64.7467 281.626 64.14V60.539C281.626 60.4523 281.652 60.383 281.704 60.331C281.765 60.2703 281.839 60.24 281.925 60.24H282.562C282.658 60.24 282.731 60.2703 282.783 60.331C282.835 60.383 282.861 60.4523 282.861 60.539V66.701C282.861 66.7877 282.835 66.8613 282.783 66.922C282.731 66.974 282.658 67 282.562 67H281.964C281.878 67 281.804 66.974 281.743 66.922C281.691 66.8613 281.665 66.7877 281.665 66.701V66.129C281.431 66.4323 281.145 66.675 280.807 66.857C280.478 67.039 280.04 67.13 279.494 67.13ZM285.092 67C285.005 67 284.931 66.974 284.871 66.922C284.819 66.8613 284.793 66.7877 284.793 66.701V60.552C284.793 60.4653 284.819 60.3917 284.871 60.331C284.931 60.2703 285.005 60.24 285.092 60.24H285.69C285.776 60.24 285.85 60.2703 285.911 60.331C285.971 60.3917 286.002 60.4653 286.002 60.552V61.124C286.175 60.8293 286.413 60.6083 286.717 60.461C287.02 60.3137 287.384 60.24 287.809 60.24H288.329C288.415 60.24 288.485 60.2703 288.537 60.331C288.589 60.383 288.615 60.4523 288.615 60.539V61.072C288.615 61.1587 288.589 61.228 288.537 61.28C288.485 61.332 288.415 61.358 288.329 61.358H287.549C287.081 61.358 286.712 61.4967 286.444 61.774C286.175 62.0427 286.041 62.411 286.041 62.879V66.701C286.041 66.7877 286.01 66.8613 285.95 66.922C285.889 66.974 285.815 67 285.729 67H285.092ZM291.514 67.13C291.081 67.13 290.687 67.0433 290.331 66.87C289.976 66.6967 289.69 66.4627 289.473 66.168C289.257 65.8733 289.148 65.5397 289.148 65.167C289.148 64.569 289.391 64.0923 289.876 63.737C290.362 63.3817 290.994 63.1477 291.774 63.035L293.711 62.762V62.385C293.711 61.969 293.59 61.644 293.347 61.41C293.113 61.176 292.728 61.059 292.19 61.059C291.8 61.059 291.484 61.137 291.241 61.293C291.007 61.449 290.843 61.6483 290.747 61.891C290.695 62.021 290.604 62.086 290.474 62.086H289.889C289.794 62.086 289.72 62.06 289.668 62.008C289.625 61.9473 289.603 61.878 289.603 61.8C289.603 61.67 289.651 61.5097 289.746 61.319C289.85 61.1283 290.006 60.942 290.214 60.76C290.422 60.578 290.687 60.4263 291.007 60.305C291.337 60.175 291.735 60.11 292.203 60.11C292.723 60.11 293.161 60.1793 293.516 60.318C293.872 60.448 294.149 60.6257 294.348 60.851C294.556 61.0763 294.704 61.332 294.79 61.618C294.886 61.904 294.933 62.1943 294.933 62.489V66.701C294.933 66.7877 294.903 66.8613 294.842 66.922C294.79 66.974 294.721 67 294.634 67H294.036C293.941 67 293.867 66.974 293.815 66.922C293.763 66.8613 293.737 66.7877 293.737 66.701V66.142C293.625 66.298 293.473 66.454 293.282 66.61C293.092 66.7573 292.853 66.883 292.567 66.987C292.281 67.0823 291.93 67.13 291.514 67.13ZM291.787 66.155C292.143 66.155 292.468 66.0813 292.762 65.934C293.057 65.778 293.287 65.5397 293.451 65.219C293.625 64.8983 293.711 64.4953 293.711 64.01V63.646L292.203 63.867C291.588 63.9537 291.124 64.101 290.812 64.309C290.5 64.5083 290.344 64.764 290.344 65.076C290.344 65.3187 290.414 65.5223 290.552 65.687C290.7 65.843 290.882 65.96 291.098 66.038C291.324 66.116 291.553 66.155 291.787 66.155Z" fill="#171B22"/>
<rect x="247.5" y="74" width="37" height="25" rx="12.5" fill="#DC6A2C"/>
<path d="M260.342 91.14C259.67 91.14 259.086 91.0467 258.592 90.86C258.097 90.664 257.686 90.398 257.36 90.062C257.042 89.726 256.8 89.334 256.632 88.886C256.464 88.438 256.366 87.9573 256.338 87.444C256.328 87.192 256.319 86.9073 256.31 86.59C256.31 86.2633 256.31 85.9367 256.31 85.61C256.319 85.274 256.328 84.9753 256.338 84.714C256.366 84.2007 256.464 83.7247 256.632 83.286C256.809 82.838 257.061 82.4507 257.388 82.124C257.724 81.788 258.134 81.5267 258.62 81.34C259.114 81.1533 259.688 81.06 260.342 81.06C261.004 81.06 261.578 81.1533 262.064 81.34C262.549 81.5267 262.955 81.788 263.282 82.124C263.618 82.4507 263.874 82.838 264.052 83.286C264.229 83.7247 264.327 84.2007 264.346 84.714C264.364 84.9753 264.374 85.274 264.374 85.61C264.383 85.9367 264.383 86.2633 264.374 86.59C264.374 86.9073 264.364 87.192 264.346 87.444C264.327 87.9573 264.229 88.438 264.052 88.886C263.884 89.334 263.636 89.726 263.31 90.062C262.992 90.398 262.586 90.664 262.092 90.86C261.606 91.0467 261.023 91.14 260.342 91.14ZM260.342 89.11C260.827 89.11 261.177 88.956 261.392 88.648C261.616 88.3307 261.732 87.906 261.742 87.374C261.76 87.1033 261.77 86.8187 261.77 86.52C261.779 86.2213 261.779 85.9227 261.77 85.624C261.77 85.3253 261.76 85.05 261.742 84.798C261.732 84.2847 261.616 83.8693 261.392 83.552C261.177 83.2347 260.827 83.0713 260.342 83.062C259.856 83.0713 259.506 83.2347 259.292 83.552C259.077 83.8693 258.96 84.2847 258.942 84.798C258.932 85.05 258.923 85.3253 258.914 85.624C258.914 85.9227 258.914 86.2213 258.914 86.52C258.923 86.8187 258.932 87.1033 258.942 87.374C258.96 87.906 259.082 88.3307 259.306 88.648C259.53 88.956 259.875 89.11 260.342 89.11ZM266.679 91C266.465 91 266.357 90.9067 266.357 90.72C266.357 90.664 266.376 90.6127 266.413 90.566L273.329 81.466C273.395 81.382 273.46 81.3167 273.525 81.27C273.591 81.2233 273.689 81.2 273.819 81.2H274.813C275.028 81.2 275.135 81.2933 275.135 81.48C275.135 81.536 275.117 81.5873 275.079 81.634L268.163 90.734C268.098 90.818 268.033 90.8833 267.967 90.93C267.902 90.9767 267.804 91 267.673 91H266.679ZM273.721 91.07C273.087 91.07 272.578 90.902 272.195 90.566C271.822 90.23 271.612 89.782 271.565 89.222C271.556 88.9793 271.551 88.7647 271.551 88.578C271.551 88.3913 271.556 88.1673 271.565 87.906C271.603 87.3367 271.803 86.884 272.167 86.548C272.541 86.2027 273.059 86.03 273.721 86.03C274.393 86.03 274.911 86.2027 275.275 86.548C275.639 86.884 275.84 87.3367 275.877 87.906C275.896 88.1673 275.905 88.3913 275.905 88.578C275.905 88.7647 275.896 88.9793 275.877 89.222C275.84 89.782 275.63 90.23 275.247 90.566C274.865 90.902 274.356 91.07 273.721 91.07ZM273.721 89.838C273.88 89.838 274.001 89.8053 274.085 89.74C274.179 89.6747 274.249 89.5907 274.295 89.488C274.342 89.376 274.365 89.2593 274.365 89.138C274.384 88.9233 274.393 88.7273 274.393 88.55C274.393 88.3727 274.384 88.1813 274.365 87.976C274.356 87.7987 274.305 87.64 274.211 87.5C274.118 87.3507 273.955 87.276 273.721 87.276C273.488 87.276 273.325 87.3507 273.231 87.5C273.138 87.64 273.087 87.7987 273.077 87.976C273.068 88.1813 273.063 88.3727 273.063 88.55C273.063 88.7273 273.068 88.9233 273.077 89.138C273.087 89.2593 273.11 89.376 273.147 89.488C273.194 89.5907 273.264 89.6747 273.357 89.74C273.451 89.8053 273.572 89.838 273.721 89.838ZM267.799 86.142C267.155 86.142 266.642 85.9787 266.259 85.652C265.886 85.316 265.681 84.868 265.643 84.308C265.625 84.0653 265.615 83.8553 265.615 83.678C265.625 83.4913 265.634 83.2673 265.643 83.006C265.671 82.4367 265.867 81.984 266.231 81.648C266.605 81.3027 267.127 81.13 267.799 81.13C268.471 81.13 268.989 81.3027 269.353 81.648C269.717 81.984 269.913 82.4367 269.941 83.006C269.96 83.2673 269.969 83.4913 269.969 83.678C269.969 83.8553 269.96 84.0653 269.941 84.308C269.913 84.868 269.708 85.316 269.325 85.652C268.943 85.9787 268.434 86.142 267.799 86.142ZM267.799 84.938C267.949 84.938 268.07 84.9053 268.163 84.84C268.257 84.7653 268.327 84.6767 268.373 84.574C268.42 84.462 268.443 84.35 268.443 84.238C268.462 84.0233 268.471 83.8273 268.471 83.65C268.471 83.4727 268.462 83.2813 268.443 83.076C268.434 82.8987 268.378 82.74 268.275 82.6C268.182 82.4507 268.023 82.376 267.799 82.376C267.566 82.376 267.398 82.4507 267.295 82.6C267.202 82.74 267.151 82.8987 267.141 83.076C267.132 83.2813 267.127 83.4727 267.127 83.65C267.127 83.8273 267.132 84.0233 267.141 84.238C267.151 84.35 267.174 84.462 267.211 84.574C267.258 84.6767 267.328 84.7653 267.421 84.84C267.515 84.9053 267.641 84.938 267.799 84.938Z" fill="white"/>
<g filter="url(#filter0_d_16167_41077)">
<rect x="295" y="14" width="32" height="32" rx="16" fill="white"/>
<rect x="294" y="13" width="34" height="34" rx="17" stroke="#1DA534" stroke-width="2"/>
<path opacity="0.4" d="M311 40C316.523 40 321 35.5228 321 30C321 24.4772 316.523 20 311 20C305.477 20 301 24.4772 301 30C301 35.5228 305.477 40 311 40Z" fill="#1DA534"/>
<path d="M309.579 33.5801C309.379 33.5801 309.189 33.5001 309.049 33.3601L306.219 30.5301C305.929 30.2401 305.929 29.7601 306.219 29.4701C306.509 29.1801 306.989 29.1801 307.279 29.4701L309.579 31.7701L314.719 26.6301C315.009 26.3401 315.489 26.3401 315.779 26.6301C316.069 26.9201 316.069 27.4001 315.779 27.6901L310.109 33.3601C309.969 33.5001 309.779 33.5801 309.579 33.5801Z" fill="#1DA534"/>
</g>
<defs>
<filter id="filter0_d_16167_41077" x="278" y="5" width="66" height="66" filterUnits="userSpaceOnUse" color-interpolation-filters="sRGB">
<feFlood flood-opacity="0" result="BackgroundImageFix"/>
<feColorMatrix in="SourceAlpha" type="matrix" values="0 0 0 0 0 0 0 0 0 0 0 0 0 0 0 0 0 0 127 0" result="hardAlpha"/>
<feOffset dy="8"/>
<feGaussianBlur stdDeviation="7.5"/>
<feColorMatrix type="matrix" values="0 0 0 0 0 0 0 0 0 0 0 0 0 0 0 0 0 0 0.25 0"/>
<feBlend mode="normal" in2="BackgroundImageFix" result="effect1_dropShadow_16167_41077"/>
<feBlend mode="normal" in="SourceGraphic" in2="effect1_dropShadow_16167_41077" result="shape"/>
</filter>
<clipPath id="clip0_16167_41077">
<rect width="32" height="32" fill="white" transform="translate(250 19)"/>
</clipPath>
</defs>
</svg>
