<svg width="352" height="118" viewBox="0 0 352 118" fill="none" xmlns="http://www.w3.org/2000/svg">
<rect x="217" y="2" width="114" height="114" rx="57" fill="#FEF1EA"/>
<rect x="217" y="2" width="114" height="114" rx="57" stroke="#AC5222" stroke-width="4"/>
<g clip-path="url(#clip0_16167_41109)">
<mask id="mask0_16167_41109" style="mask-type:luminance" maskUnits="userSpaceOnUse" x="258" y="19" width="32" height="32">
<path d="M290 19H258V51H290V19Z" fill="white"/>
</mask>
<g mask="url(#mask0_16167_41109)">
<path d="M287.281 35.7734H287.268" stroke="#85401A" stroke-width="1.5" stroke-linecap="round" stroke-linejoin="round"/>
<path d="M260.734 40.333H260.721" stroke="#85401A" stroke-width="1.5" stroke-linecap="round" stroke-linejoin="round"/>
<path d="M288.24 35.5332V35.4932C288.174 35.2265 288.067 34.9865 287.947 34.7998C286.827 32.8932 282.654 25.8265 282.654 25.8265C282.654 25.8132 282.627 25.7998 282.614 25.7865C282.534 25.6665 282.44 25.5732 282.32 25.5065C282.307 25.5065 282.294 25.4798 282.28 25.4665C282.147 25.3998 282 25.3598 281.84 25.3465C281.827 25.3465 281.8 25.3332 281.787 25.3332C281.747 25.3332 281.72 25.3598 281.68 25.3598C281.627 25.3598 281.56 25.3598 281.507 25.3732L273.907 27.5998V23.6665C273.907 23.1198 273.454 22.6665 272.907 22.6665C272.36 22.6665 271.907 23.1198 271.907 23.6665V28.1865L265.96 29.9332C265.707 29.9998 265.52 30.1732 265.387 30.3865V30.4398L260.094 39.3198C259.92 39.5865 259.827 39.8532 259.787 40.0532V40.0798V40.1065C259.707 40.3998 259.667 40.6932 259.694 40.9598C259.894 44.4665 262.707 47.2132 266.294 47.3465C269.814 47.2265 272.614 44.4798 272.8 40.9732C272.814 40.6798 272.8 40.3865 272.72 40.1198V40.0932V40.0532C272.654 39.8398 272.56 39.6132 272.414 39.3598L267.774 31.5065L279.654 28.0265L275.627 34.8398C275.534 35.0265 275.427 35.2398 275.36 35.4932C275.36 35.4932 275.36 35.5065 275.36 35.5198V35.5732C275.36 35.5732 275.36 35.5732 275.36 35.5865C275.294 35.8532 275.267 36.1332 275.28 36.4132C275.467 39.9332 278.28 42.6665 281.88 42.7998C285.4 42.6798 288.2 39.9332 288.387 36.4265C288.4 36.1465 288.374 35.8665 288.294 35.5732L288.24 35.5332ZM262.4 39.3332L266.227 32.8532L270.054 39.3332H262.4ZM281.774 28.2932C282.814 30.0398 284.534 32.9732 285.587 34.7732H277.947L281.774 28.2932Z" fill="#85401A"/>
</g>
</g>
<path d="M249.989 67C249.893 67 249.82 66.974 249.768 66.922C249.716 66.8613 249.69 66.7877 249.69 66.701V58.212C249.69 58.1167 249.716 58.043 249.768 57.991C249.82 57.9303 249.893 57.9 249.989 57.9H252.94C253.832 57.9 254.552 58.0343 255.098 58.303C255.644 58.5717 256.042 58.9703 256.294 59.499C256.545 60.019 256.675 60.6603 256.684 61.423C256.692 61.813 256.697 62.1553 256.697 62.45C256.697 62.7447 256.692 63.0827 256.684 63.464C256.666 64.2613 256.532 64.9243 256.281 65.453C256.038 65.973 255.648 66.363 255.111 66.623C254.582 66.8743 253.88 67 253.005 67H249.989ZM250.964 65.895H252.94C253.538 65.895 254.014 65.8127 254.37 65.648C254.725 65.4833 254.981 65.219 255.137 64.855C255.301 64.491 255.388 64.01 255.397 63.412C255.414 63.152 255.423 62.9267 255.423 62.736C255.423 62.5367 255.423 62.3417 255.423 62.151C255.423 61.9517 255.414 61.7263 255.397 61.475C255.379 60.6343 255.18 60.0147 254.799 59.616C254.417 59.2087 253.776 59.005 252.875 59.005H250.964V65.895ZM261.174 67.13C260.282 67.13 259.571 66.857 259.042 66.311C258.514 65.7563 258.223 65.0023 258.171 64.049C258.163 63.9363 258.158 63.7933 258.158 63.62C258.158 63.438 258.163 63.2907 258.171 63.178C258.206 62.5627 258.349 62.0253 258.6 61.566C258.852 61.098 259.194 60.7383 259.627 60.487C260.069 60.2357 260.585 60.11 261.174 60.11C261.833 60.11 262.383 60.2487 262.825 60.526C263.276 60.8033 263.618 61.1977 263.852 61.709C264.086 62.2203 264.203 62.8183 264.203 63.503V63.724C264.203 63.8193 264.173 63.893 264.112 63.945C264.06 63.997 263.991 64.023 263.904 64.023H259.406C259.406 64.0317 259.406 64.049 259.406 64.075C259.406 64.101 259.406 64.1227 259.406 64.14C259.424 64.4953 259.502 64.829 259.64 65.141C259.779 65.4443 259.978 65.6913 260.238 65.882C260.498 66.0727 260.81 66.168 261.174 66.168C261.486 66.168 261.746 66.1203 261.954 66.025C262.162 65.9297 262.331 65.8257 262.461 65.713C262.591 65.5917 262.678 65.5007 262.721 65.44C262.799 65.3273 262.86 65.2623 262.903 65.245C262.947 65.219 263.016 65.206 263.111 65.206H263.735C263.822 65.206 263.891 65.232 263.943 65.284C264.004 65.3273 264.03 65.3923 264.021 65.479C264.013 65.609 263.943 65.7693 263.813 65.96C263.683 66.142 263.497 66.324 263.254 66.506C263.012 66.688 262.717 66.8397 262.37 66.961C262.024 67.0737 261.625 67.13 261.174 67.13ZM259.406 63.126H262.968V63.087C262.968 62.697 262.895 62.3503 262.747 62.047C262.609 61.7437 262.405 61.5053 262.136 61.332C261.868 61.15 261.547 61.059 261.174 61.059C260.802 61.059 260.481 61.15 260.212 61.332C259.952 61.5053 259.753 61.7437 259.614 62.047C259.476 62.3503 259.406 62.697 259.406 63.087V63.126ZM266.057 67C265.97 67 265.897 66.974 265.836 66.922C265.784 66.8613 265.758 66.7877 265.758 66.701V60.552C265.758 60.4653 265.784 60.3917 265.836 60.331C265.897 60.2703 265.97 60.24 266.057 60.24H266.655C266.742 60.24 266.815 60.2703 266.876 60.331C266.937 60.3917 266.967 60.4653 266.967 60.552V61.124C267.14 60.8293 267.379 60.6083 267.682 60.461C267.985 60.3137 268.349 60.24 268.774 60.24H269.294C269.381 60.24 269.45 60.2703 269.502 60.331C269.554 60.383 269.58 60.4523 269.58 60.539V61.072C269.58 61.1587 269.554 61.228 269.502 61.28C269.45 61.332 269.381 61.358 269.294 61.358H268.514C268.046 61.358 267.678 61.4967 267.409 61.774C267.14 62.0427 267.006 62.411 267.006 62.879V66.701C267.006 66.7877 266.976 66.8613 266.915 66.922C266.854 66.974 266.781 67 266.694 67H266.057ZM273.26 67.13C272.368 67.13 271.657 66.857 271.128 66.311C270.6 65.7563 270.309 65.0023 270.257 64.049C270.249 63.9363 270.244 63.7933 270.244 63.62C270.244 63.438 270.249 63.2907 270.257 63.178C270.292 62.5627 270.435 62.0253 270.686 61.566C270.938 61.098 271.28 60.7383 271.713 60.487C272.155 60.2357 272.671 60.11 273.26 60.11C273.919 60.11 274.469 60.2487 274.911 60.526C275.362 60.8033 275.704 61.1977 275.938 61.709C276.172 62.2203 276.289 62.8183 276.289 63.503V63.724C276.289 63.8193 276.259 63.893 276.198 63.945C276.146 63.997 276.077 64.023 275.99 64.023H271.492C271.492 64.0317 271.492 64.049 271.492 64.075C271.492 64.101 271.492 64.1227 271.492 64.14C271.51 64.4953 271.588 64.829 271.726 65.141C271.865 65.4443 272.064 65.6913 272.324 65.882C272.584 66.0727 272.896 66.168 273.26 66.168C273.572 66.168 273.832 66.1203 274.04 66.025C274.248 65.9297 274.417 65.8257 274.547 65.713C274.677 65.5917 274.764 65.5007 274.807 65.44C274.885 65.3273 274.946 65.2623 274.989 65.245C275.033 65.219 275.102 65.206 275.197 65.206H275.821C275.908 65.206 275.977 65.232 276.029 65.284C276.09 65.3273 276.116 65.3923 276.107 65.479C276.099 65.609 276.029 65.7693 275.899 65.96C275.769 66.142 275.583 66.324 275.34 66.506C275.098 66.688 274.803 66.8397 274.456 66.961C274.11 67.0737 273.711 67.13 273.26 67.13ZM271.492 63.126H275.054V63.087C275.054 62.697 274.981 62.3503 274.833 62.047C274.695 61.7437 274.491 61.5053 274.222 61.332C273.954 61.15 273.633 61.059 273.26 61.059C272.888 61.059 272.567 61.15 272.298 61.332C272.038 61.5053 271.839 61.7437 271.7 62.047C271.562 62.3503 271.492 62.697 271.492 63.087V63.126ZM280.574 67.13C279.959 67.13 279.426 67.013 278.975 66.779C278.533 66.5363 278.191 66.194 277.948 65.752C277.705 65.3013 277.575 64.764 277.558 64.14C277.549 64.01 277.545 63.8367 277.545 63.62C277.545 63.4033 277.549 63.23 277.558 63.1C277.575 62.476 277.705 61.943 277.948 61.501C278.191 61.0503 278.533 60.708 278.975 60.474C279.426 60.2313 279.959 60.11 280.574 60.11C281.077 60.11 281.506 60.1793 281.861 60.318C282.225 60.4567 282.524 60.6343 282.758 60.851C282.992 61.0677 283.165 61.3017 283.278 61.553C283.399 61.8043 283.464 62.0427 283.473 62.268C283.482 62.3547 283.456 62.424 283.395 62.476C283.334 62.528 283.261 62.554 283.174 62.554H282.55C282.463 62.554 282.398 62.5367 282.355 62.502C282.312 62.4587 282.268 62.3893 282.225 62.294C282.069 61.8693 281.857 61.5703 281.588 61.397C281.319 61.2237 280.986 61.137 280.587 61.137C280.067 61.137 279.642 61.2973 279.313 61.618C278.992 61.9387 278.819 62.4543 278.793 63.165C278.784 63.477 278.784 63.7803 278.793 64.075C278.819 64.7943 278.992 65.3143 279.313 65.635C279.642 65.947 280.067 66.103 280.587 66.103C280.986 66.103 281.319 66.0163 281.588 65.843C281.857 65.6697 282.069 65.3707 282.225 64.946C282.268 64.8507 282.312 64.7857 282.355 64.751C282.398 64.7077 282.463 64.686 282.55 64.686H283.174C283.261 64.686 283.334 64.712 283.395 64.764C283.456 64.816 283.482 64.8853 283.473 64.972C283.464 65.154 283.425 65.3403 283.356 65.531C283.287 65.7217 283.174 65.9167 283.018 66.116C282.871 66.3067 282.684 66.48 282.459 66.636C282.234 66.7833 281.961 66.9047 281.64 67C281.328 67.0867 280.973 67.13 280.574 67.13ZM285.329 67C285.242 67 285.168 66.974 285.108 66.922C285.056 66.8613 285.03 66.7877 285.03 66.701V58.069C285.03 57.9823 285.056 57.913 285.108 57.861C285.168 57.8003 285.242 57.77 285.329 57.77H285.979C286.074 57.77 286.148 57.8003 286.2 57.861C286.252 57.913 286.278 57.9823 286.278 58.069V61.098C286.512 60.8033 286.798 60.565 287.136 60.383C287.474 60.201 287.903 60.11 288.423 60.11C288.986 60.11 289.463 60.2357 289.853 60.487C290.251 60.7297 290.55 61.072 290.75 61.514C290.958 61.9473 291.062 62.4543 291.062 63.035V66.701C291.062 66.7877 291.036 66.8613 290.984 66.922C290.932 66.974 290.858 67 290.763 67H290.113C290.026 67 289.952 66.974 289.892 66.922C289.84 66.8613 289.814 66.7877 289.814 66.701V63.1C289.814 62.4933 289.666 62.021 289.372 61.683C289.077 61.3363 288.644 61.163 288.072 61.163C287.534 61.163 287.101 61.3363 286.772 61.683C286.442 62.021 286.278 62.4933 286.278 63.1V66.701C286.278 66.7877 286.252 66.8613 286.2 66.922C286.148 66.974 286.074 67 285.979 67H285.329ZM295.708 67.13C295.049 67.13 294.499 67.0043 294.057 66.753C293.615 66.5017 293.277 66.155 293.043 65.713C292.809 65.2623 292.679 64.751 292.653 64.179C292.644 64.0317 292.64 63.8453 292.64 63.62C292.64 63.386 292.644 63.1997 292.653 63.061C292.679 62.4803 292.809 61.969 293.043 61.527C293.285 61.085 293.628 60.7383 294.07 60.487C294.512 60.2357 295.058 60.11 295.708 60.11C296.358 60.11 296.904 60.2357 297.346 60.487C297.788 60.7383 298.126 61.085 298.36 61.527C298.602 61.969 298.737 62.4803 298.763 63.061C298.771 63.1997 298.776 63.386 298.776 63.62C298.776 63.8453 298.771 64.0317 298.763 64.179C298.737 64.751 298.607 65.2623 298.373 65.713C298.139 66.155 297.801 66.5017 297.359 66.753C296.917 67.0043 296.366 67.13 295.708 67.13ZM295.708 66.129C296.245 66.129 296.674 65.96 296.995 65.622C297.315 65.2753 297.489 64.7727 297.515 64.114C297.523 63.984 297.528 63.8193 297.528 63.62C297.528 63.4207 297.523 63.256 297.515 63.126C297.489 62.4673 297.315 61.969 296.995 61.631C296.674 61.2843 296.245 61.111 295.708 61.111C295.17 61.111 294.737 61.2843 294.408 61.631C294.087 61.969 293.918 62.4673 293.901 63.126C293.892 63.256 293.888 63.4207 293.888 63.62C293.888 63.8193 293.892 63.984 293.901 64.114C293.918 64.7727 294.087 65.2753 294.408 65.622C294.737 65.96 295.17 66.129 295.708 66.129Z" fill="#171B22"/>
<rect x="255.5" y="74" width="37" height="25" rx="12.5" fill="#85401A"/>
<path d="M268.342 91.14C267.67 91.14 267.086 91.0467 266.592 90.86C266.097 90.664 265.686 90.398 265.36 90.062C265.042 89.726 264.8 89.334 264.632 88.886C264.464 88.438 264.366 87.9573 264.338 87.444C264.328 87.192 264.319 86.9073 264.31 86.59C264.31 86.2633 264.31 85.9367 264.31 85.61C264.319 85.274 264.328 84.9753 264.338 84.714C264.366 84.2007 264.464 83.7247 264.632 83.286C264.809 82.838 265.061 82.4507 265.388 82.124C265.724 81.788 266.134 81.5267 266.62 81.34C267.114 81.1533 267.688 81.06 268.342 81.06C269.004 81.06 269.578 81.1533 270.064 81.34C270.549 81.5267 270.955 81.788 271.282 82.124C271.618 82.4507 271.874 82.838 272.052 83.286C272.229 83.7247 272.327 84.2007 272.346 84.714C272.364 84.9753 272.374 85.274 272.374 85.61C272.383 85.9367 272.383 86.2633 272.374 86.59C272.374 86.9073 272.364 87.192 272.346 87.444C272.327 87.9573 272.229 88.438 272.052 88.886C271.884 89.334 271.636 89.726 271.31 90.062C270.992 90.398 270.586 90.664 270.092 90.86C269.606 91.0467 269.023 91.14 268.342 91.14ZM268.342 89.11C268.827 89.11 269.177 88.956 269.392 88.648C269.616 88.3307 269.732 87.906 269.742 87.374C269.76 87.1033 269.77 86.8187 269.77 86.52C269.779 86.2213 269.779 85.9227 269.77 85.624C269.77 85.3253 269.76 85.05 269.742 84.798C269.732 84.2847 269.616 83.8693 269.392 83.552C269.177 83.2347 268.827 83.0713 268.342 83.062C267.856 83.0713 267.506 83.2347 267.292 83.552C267.077 83.8693 266.96 84.2847 266.942 84.798C266.932 85.05 266.923 85.3253 266.914 85.624C266.914 85.9227 266.914 86.2213 266.914 86.52C266.923 86.8187 266.932 87.1033 266.942 87.374C266.96 87.906 267.082 88.3307 267.306 88.648C267.53 88.956 267.875 89.11 268.342 89.11ZM274.679 91C274.465 91 274.357 90.9067 274.357 90.72C274.357 90.664 274.376 90.6127 274.413 90.566L281.329 81.466C281.395 81.382 281.46 81.3167 281.525 81.27C281.591 81.2233 281.689 81.2 281.819 81.2H282.813C283.028 81.2 283.135 81.2933 283.135 81.48C283.135 81.536 283.117 81.5873 283.079 81.634L276.163 90.734C276.098 90.818 276.033 90.8833 275.967 90.93C275.902 90.9767 275.804 91 275.673 91H274.679ZM281.721 91.07C281.087 91.07 280.578 90.902 280.195 90.566C279.822 90.23 279.612 89.782 279.565 89.222C279.556 88.9793 279.551 88.7647 279.551 88.578C279.551 88.3913 279.556 88.1673 279.565 87.906C279.603 87.3367 279.803 86.884 280.167 86.548C280.541 86.2027 281.059 86.03 281.721 86.03C282.393 86.03 282.911 86.2027 283.275 86.548C283.639 86.884 283.84 87.3367 283.877 87.906C283.896 88.1673 283.905 88.3913 283.905 88.578C283.905 88.7647 283.896 88.9793 283.877 89.222C283.84 89.782 283.63 90.23 283.247 90.566C282.865 90.902 282.356 91.07 281.721 91.07ZM281.721 89.838C281.88 89.838 282.001 89.8053 282.085 89.74C282.179 89.6747 282.249 89.5907 282.295 89.488C282.342 89.376 282.365 89.2593 282.365 89.138C282.384 88.9233 282.393 88.7273 282.393 88.55C282.393 88.3727 282.384 88.1813 282.365 87.976C282.356 87.7987 282.305 87.64 282.211 87.5C282.118 87.3507 281.955 87.276 281.721 87.276C281.488 87.276 281.325 87.3507 281.231 87.5C281.138 87.64 281.087 87.7987 281.077 87.976C281.068 88.1813 281.063 88.3727 281.063 88.55C281.063 88.7273 281.068 88.9233 281.077 89.138C281.087 89.2593 281.11 89.376 281.147 89.488C281.194 89.5907 281.264 89.6747 281.357 89.74C281.451 89.8053 281.572 89.838 281.721 89.838ZM275.799 86.142C275.155 86.142 274.642 85.9787 274.259 85.652C273.886 85.316 273.681 84.868 273.643 84.308C273.625 84.0653 273.615 83.8553 273.615 83.678C273.625 83.4913 273.634 83.2673 273.643 83.006C273.671 82.4367 273.867 81.984 274.231 81.648C274.605 81.3027 275.127 81.13 275.799 81.13C276.471 81.13 276.989 81.3027 277.353 81.648C277.717 81.984 277.913 82.4367 277.941 83.006C277.96 83.2673 277.969 83.4913 277.969 83.678C277.969 83.8553 277.96 84.0653 277.941 84.308C277.913 84.868 277.708 85.316 277.325 85.652C276.943 85.9787 276.434 86.142 275.799 86.142ZM275.799 84.938C275.949 84.938 276.07 84.9053 276.163 84.84C276.257 84.7653 276.327 84.6767 276.373 84.574C276.42 84.462 276.443 84.35 276.443 84.238C276.462 84.0233 276.471 83.8273 276.471 83.65C276.471 83.4727 276.462 83.2813 276.443 83.076C276.434 82.8987 276.378 82.74 276.275 82.6C276.182 82.4507 276.023 82.376 275.799 82.376C275.566 82.376 275.398 82.4507 275.295 82.6C275.202 82.74 275.151 82.8987 275.141 83.076C275.132 83.2813 275.127 83.4727 275.127 83.65C275.127 83.8273 275.132 84.0233 275.141 84.238C275.151 84.35 275.174 84.462 275.211 84.574C275.258 84.6767 275.328 84.7653 275.421 84.84C275.515 84.9053 275.641 84.938 275.799 84.938Z" fill="white"/>
<g filter="url(#filter0_d_16167_41109)">
<rect x="303" y="14" width="32" height="32" rx="16" fill="white"/>
<rect x="302" y="13" width="34" height="34" rx="17" stroke="#1DA534" stroke-width="2"/>
<path opacity="0.4" d="M319 40C324.523 40 329 35.5228 329 30C329 24.4772 324.523 20 319 20C313.477 20 309 24.4772 309 30C309 35.5228 313.477 40 319 40Z" fill="#1DA534"/>
<path d="M317.579 33.5801C317.379 33.5801 317.189 33.5001 317.049 33.3601L314.219 30.5301C313.929 30.2401 313.929 29.7601 314.219 29.4701C314.509 29.1801 314.989 29.1801 315.279 29.4701L317.579 31.7701L322.719 26.6301C323.009 26.3401 323.489 26.3401 323.779 26.6301C324.069 26.9201 324.069 27.4001 323.779 27.6901L318.109 33.3601C317.969 33.5001 317.779 33.5801 317.579 33.5801Z" fill="#1DA534"/>
</g>
<defs>
<filter id="filter0_d_16167_41109" x="286" y="5" width="66" height="66" filterUnits="userSpaceOnUse" color-interpolation-filters="sRGB">
<feFlood flood-opacity="0" result="BackgroundImageFix"/>
<feColorMatrix in="SourceAlpha" type="matrix" values="0 0 0 0 0 0 0 0 0 0 0 0 0 0 0 0 0 0 127 0" result="hardAlpha"/>
<feOffset dy="8"/>
<feGaussianBlur stdDeviation="7.5"/>
<feColorMatrix type="matrix" values="0 0 0 0 0 0 0 0 0 0 0 0 0 0 0 0 0 0 0.25 0"/>
<feBlend mode="normal" in2="BackgroundImageFix" result="effect1_dropShadow_16167_41109"/>
<feBlend mode="normal" in="SourceGraphic" in2="effect1_dropShadow_16167_41109" result="shape"/>
</filter>
<clipPath id="clip0_16167_41109">
<rect width="32" height="32" fill="white" transform="translate(258 19)"/>
</clipPath>
</defs>
</svg>
