<svg width="353" height="118" viewBox="0 0 353 118" fill="none" xmlns="http://www.w3.org/2000/svg">
<rect x="218" y="2" width="114" height="114" rx="57" fill="#FEF1EA"/>
<rect x="218" y="2" width="114" height="114" rx="57" stroke="#F27430" stroke-width="4"/>
<g clip-path="url(#clip0_16167_41105)">
<path d="M266.524 37.8593C267.116 36.3798 267.696 34.9356 268.273 33.4905C269.348 30.8007 270.424 28.1109 271.494 25.4193C271.615 25.1148 271.798 24.9771 272.141 24.9771C277.328 24.985 282.516 24.9823 287.703 24.9823C288.192 24.9823 288.332 25.1254 288.332 25.6188C288.332 26.2341 288.332 26.8485 288.332 27.4638C288.332 27.9343 288.187 28.08 287.71 28.08C283.177 28.08 278.644 28.0826 274.112 28.0747C273.868 28.0747 273.76 28.1435 273.668 28.3748C271.558 33.6679 269.438 38.9566 267.322 44.247C267.239 44.4527 267.162 44.6575 266.923 44.7272C266.674 44.8005 266.457 44.6831 266.31 44.3882C265.576 42.9246 264.844 41.4592 264.112 39.9947C263.679 39.1305 263.241 38.2689 262.821 37.3976C262.734 37.2149 262.635 37.1434 262.441 37.1681C262.334 37.1813 262.22 37.1822 262.115 37.1619C261.858 37.1133 261.674 36.9774 261.672 36.6896C261.667 35.9658 261.666 35.2419 261.673 34.518C261.675 34.2399 261.871 34.0528 262.179 34.0484C262.883 34.0378 263.587 34.0431 264.291 34.0457C264.551 34.0466 264.701 34.2002 264.81 34.4218C265.37 35.5517 265.936 36.679 266.524 37.8593H266.524Z" fill="#F27430"/>
<path opacity="0.4" d="M281.296 38.8207C281.897 39.4201 282.493 40.0133 283.088 40.6074C283.454 40.9737 283.454 41.1953 283.092 41.5573C282.657 41.9916 282.224 42.4277 281.787 42.8585C281.475 43.1657 281.255 43.1657 280.948 42.8611C280.4 42.3164 279.848 41.7735 279.311 41.2183C279.158 41.0603 279.07 41.0294 278.901 41.2077C278.373 41.7594 277.825 42.2908 277.283 42.8276C276.932 43.1754 276.728 43.1745 276.379 42.8276C275.937 42.3862 275.494 41.9457 275.055 41.5025C274.751 41.1962 274.752 40.979 275.061 40.6674C275.626 40.0963 276.189 39.5242 276.763 38.9628C276.883 38.8445 276.881 38.7862 276.762 38.6697C276.194 38.1153 275.637 37.5521 275.077 36.9898C274.746 36.6579 274.747 36.4469 275.08 36.1115C275.519 35.6674 275.959 35.2243 276.4 34.7829C276.714 34.4695 276.947 34.4686 277.263 34.7829C277.827 35.3417 278.391 35.8987 278.942 36.4681C279.075 36.604 279.14 36.5934 279.266 36.4637C279.818 35.8952 280.381 35.3364 280.942 34.7758C281.247 34.4713 281.48 34.4686 281.783 34.7679C282.227 35.2075 282.667 35.6507 283.108 36.0929C283.448 36.4337 283.451 36.6614 283.115 36.9986C282.514 37.6025 281.911 38.2045 281.296 38.8198V38.8207Z" fill="#F27430"/>
</g>
<path d="M252.199 67C252.129 67 252.069 66.974 252.017 66.922C251.965 66.87 251.939 66.8093 251.939 66.74C251.939 66.6967 251.943 66.649 251.952 66.597L255.176 58.186C255.21 58.0993 255.258 58.03 255.319 57.978C255.379 57.926 255.47 57.9 255.592 57.9H256.476C256.588 57.9 256.675 57.926 256.736 57.978C256.805 58.03 256.857 58.0993 256.892 58.186L260.103 66.597C260.12 66.649 260.129 66.6967 260.129 66.74C260.129 66.8093 260.103 66.87 260.051 66.922C259.999 66.974 259.938 67 259.869 67H259.206C259.102 67 259.024 66.974 258.972 66.922C258.928 66.87 258.898 66.8223 258.881 66.779L258.166 64.933H253.902L253.187 66.779C253.178 66.8223 253.148 66.87 253.096 66.922C253.044 66.974 252.966 67 252.862 67H252.199ZM254.279 63.815H257.789L256.034 59.2L254.279 63.815ZM255.683 57.25C255.544 57.25 255.475 57.1807 255.475 57.042C255.475 56.9727 255.496 56.9163 255.54 56.873L256.515 55.703C256.593 55.6077 256.662 55.547 256.723 55.521C256.783 55.4863 256.874 55.469 256.996 55.469H257.958C258.122 55.469 258.205 55.5513 258.205 55.716C258.205 55.7767 258.183 55.8287 258.14 55.872L256.632 57.107C256.562 57.1677 256.497 57.2067 256.437 57.224C256.376 57.2413 256.298 57.25 256.203 57.25H255.683ZM261.662 67C261.575 67 261.501 66.974 261.441 66.922C261.389 66.8613 261.363 66.7877 261.363 66.701V58.069C261.363 57.9823 261.389 57.913 261.441 57.861C261.501 57.8003 261.575 57.77 261.662 57.77H262.273C262.368 57.77 262.442 57.8003 262.494 57.861C262.546 57.913 262.572 57.9823 262.572 58.069V66.701C262.572 66.7877 262.546 66.8613 262.494 66.922C262.442 66.974 262.368 67 262.273 67H261.662ZM267.28 69.86C266.69 69.86 266.205 69.782 265.824 69.626C265.451 69.47 265.156 69.2793 264.94 69.054C264.732 68.8373 264.58 68.6163 264.485 68.391C264.398 68.1743 264.35 68.001 264.342 67.871C264.333 67.7843 264.359 67.7107 264.42 67.65C264.489 67.5893 264.563 67.559 264.641 67.559H265.265C265.343 67.559 265.408 67.5763 265.46 67.611C265.512 67.6457 265.555 67.7193 265.59 67.832C265.642 67.962 265.72 68.105 265.824 68.261C265.928 68.4257 266.088 68.5643 266.305 68.677C266.521 68.7983 266.825 68.859 267.215 68.859C267.622 68.859 267.964 68.8027 268.242 68.69C268.519 68.586 268.727 68.3953 268.866 68.118C269.013 67.8493 269.087 67.4767 269.087 67V66.116C268.879 66.3847 268.606 66.61 268.268 66.792C267.93 66.9653 267.505 67.052 266.994 67.052C266.508 67.052 266.092 66.9697 265.746 66.805C265.399 66.6317 265.113 66.402 264.888 66.116C264.671 65.8213 264.506 65.4877 264.394 65.115C264.29 64.7423 264.229 64.3523 264.212 63.945C264.203 63.7023 264.203 63.464 264.212 63.23C264.229 62.8227 264.29 62.4327 264.394 62.06C264.506 61.6873 264.671 61.3537 264.888 61.059C265.113 60.7643 265.399 60.5347 265.746 60.37C266.092 60.1967 266.508 60.11 266.994 60.11C267.514 60.11 267.943 60.2097 268.281 60.409C268.627 60.5997 268.909 60.8337 269.126 61.111V60.552C269.126 60.4653 269.152 60.3917 269.204 60.331C269.264 60.2703 269.338 60.24 269.425 60.24H270.023C270.109 60.24 270.183 60.2703 270.244 60.331C270.304 60.3917 270.335 60.4653 270.335 60.552V66.857C270.335 67.4377 270.235 67.9533 270.036 68.404C269.845 68.8547 269.524 69.21 269.074 69.47C268.632 69.73 268.034 69.86 267.28 69.86ZM267.254 66.012C267.687 66.012 268.034 65.9123 268.294 65.713C268.562 65.5137 268.757 65.2623 268.879 64.959C269.009 64.6557 269.078 64.348 269.087 64.036C269.095 63.9147 269.1 63.7673 269.1 63.594C269.1 63.412 269.095 63.2603 269.087 63.139C269.078 62.827 269.009 62.5193 268.879 62.216C268.757 61.9127 268.562 61.6613 268.294 61.462C268.034 61.2627 267.687 61.163 267.254 61.163C266.82 61.163 266.474 61.2627 266.214 61.462C265.954 61.6527 265.767 61.9083 265.655 62.229C265.542 62.541 265.477 62.879 265.46 63.243C265.451 63.4683 265.451 63.698 265.46 63.932C265.477 64.296 265.542 64.6383 265.655 64.959C265.767 65.271 265.954 65.5267 266.214 65.726C266.474 65.9167 266.82 66.012 267.254 66.012ZM274.959 67.13C274.066 67.13 273.355 66.857 272.827 66.311C272.298 65.7563 272.008 65.0023 271.956 64.049C271.947 63.9363 271.943 63.7933 271.943 63.62C271.943 63.438 271.947 63.2907 271.956 63.178C271.99 62.5627 272.133 62.0253 272.385 61.566C272.636 61.098 272.978 60.7383 273.412 60.487C273.854 60.2357 274.369 60.11 274.959 60.11C275.617 60.11 276.168 60.2487 276.61 60.526C277.06 60.8033 277.403 61.1977 277.637 61.709C277.871 62.2203 277.988 62.8183 277.988 63.503V63.724C277.988 63.8193 277.957 63.893 277.897 63.945C277.845 63.997 277.775 64.023 277.689 64.023H273.191C273.191 64.0317 273.191 64.049 273.191 64.075C273.191 64.101 273.191 64.1227 273.191 64.14C273.208 64.4953 273.286 64.829 273.425 65.141C273.563 65.4443 273.763 65.6913 274.023 65.882C274.283 66.0727 274.595 66.168 274.959 66.168C275.271 66.168 275.531 66.1203 275.739 66.025C275.947 65.9297 276.116 65.8257 276.246 65.713C276.376 65.5917 276.462 65.5007 276.506 65.44C276.584 65.3273 276.644 65.2623 276.688 65.245C276.731 65.219 276.8 65.206 276.896 65.206H277.52C277.606 65.206 277.676 65.232 277.728 65.284C277.788 65.3273 277.814 65.3923 277.806 65.479C277.797 65.609 277.728 65.7693 277.598 65.96C277.468 66.142 277.281 66.324 277.039 66.506C276.796 66.688 276.501 66.8397 276.155 66.961C275.808 67.0737 275.409 67.13 274.959 67.13ZM273.191 63.126H276.753V63.087C276.753 62.697 276.679 62.3503 276.532 62.047C276.393 61.7437 276.189 61.5053 275.921 61.332C275.652 61.15 275.331 61.059 274.959 61.059C274.586 61.059 274.265 61.15 273.997 61.332C273.737 61.5053 273.537 61.7437 273.399 62.047C273.26 62.3503 273.191 62.697 273.191 63.087V63.126ZM282.883 67.13C282.363 67.13 281.93 67.039 281.583 66.857C281.236 66.6663 280.959 66.4323 280.751 66.155V66.701C280.751 66.7877 280.721 66.8613 280.66 66.922C280.608 66.974 280.539 67 280.452 67H279.854C279.767 67 279.694 66.974 279.633 66.922C279.581 66.8613 279.555 66.7877 279.555 66.701V58.069C279.555 57.9823 279.581 57.913 279.633 57.861C279.694 57.8003 279.767 57.77 279.854 57.77H280.478C280.573 57.77 280.647 57.8003 280.699 57.861C280.751 57.913 280.777 57.9823 280.777 58.069V61.059C280.994 60.7903 281.271 60.565 281.609 60.383C281.956 60.201 282.38 60.11 282.883 60.11C283.368 60.11 283.78 60.1967 284.118 60.37C284.465 60.5347 284.746 60.7643 284.963 61.059C285.188 61.3537 285.357 61.6873 285.47 62.06C285.583 62.4327 285.643 62.8227 285.652 63.23C285.661 63.3687 285.665 63.4987 285.665 63.62C285.665 63.7413 285.661 63.8713 285.652 64.01C285.643 64.426 285.583 64.8203 285.47 65.193C285.357 65.5657 285.188 65.8993 284.963 66.194C284.746 66.48 284.465 66.7097 284.118 66.883C283.78 67.0477 283.368 67.13 282.883 67.13ZM282.61 66.077C283.061 66.077 283.412 65.9817 283.663 65.791C283.923 65.5917 284.109 65.336 284.222 65.024C284.335 64.7033 284.4 64.361 284.417 63.997C284.426 63.7457 284.426 63.4943 284.417 63.243C284.4 62.879 284.335 62.541 284.222 62.229C284.109 61.9083 283.923 61.6527 283.663 61.462C283.412 61.2627 283.061 61.163 282.61 61.163C282.203 61.163 281.865 61.2583 281.596 61.449C281.327 61.6397 281.124 61.8823 280.985 62.177C280.855 62.4717 280.786 62.7707 280.777 63.074C280.768 63.2127 280.764 63.3817 280.764 63.581C280.764 63.7717 280.768 63.9363 280.777 64.075C280.794 64.3957 280.864 64.712 280.985 65.024C281.115 65.3273 281.31 65.5787 281.57 65.778C281.839 65.9773 282.185 66.077 282.61 66.077ZM287.573 67C287.486 67 287.412 66.974 287.352 66.922C287.3 66.8613 287.274 66.7877 287.274 66.701V60.552C287.274 60.4653 287.3 60.3917 287.352 60.331C287.412 60.2703 287.486 60.24 287.573 60.24H288.171C288.257 60.24 288.331 60.2703 288.392 60.331C288.452 60.3917 288.483 60.4653 288.483 60.552V61.124C288.656 60.8293 288.894 60.6083 289.198 60.461C289.501 60.3137 289.865 60.24 290.29 60.24H290.81C290.896 60.24 290.966 60.2703 291.018 60.331C291.07 60.383 291.096 60.4523 291.096 60.539V61.072C291.096 61.1587 291.07 61.228 291.018 61.28C290.966 61.332 290.896 61.358 290.81 61.358H290.03C289.562 61.358 289.193 61.4967 288.925 61.774C288.656 62.0427 288.522 62.411 288.522 62.879V66.701C288.522 66.7877 288.491 66.8613 288.431 66.922C288.37 66.974 288.296 67 288.21 67H287.573ZM293.995 67.13C293.562 67.13 293.168 67.0433 292.812 66.87C292.457 66.6967 292.171 66.4627 291.954 66.168C291.738 65.8733 291.629 65.5397 291.629 65.167C291.629 64.569 291.872 64.0923 292.357 63.737C292.843 63.3817 293.475 63.1477 294.255 63.035L296.192 62.762V62.385C296.192 61.969 296.071 61.644 295.828 61.41C295.594 61.176 295.209 61.059 294.671 61.059C294.281 61.059 293.965 61.137 293.722 61.293C293.488 61.449 293.324 61.6483 293.228 61.891C293.176 62.021 293.085 62.086 292.955 62.086H292.37C292.275 62.086 292.201 62.06 292.149 62.008C292.106 61.9473 292.084 61.878 292.084 61.8C292.084 61.67 292.132 61.5097 292.227 61.319C292.331 61.1283 292.487 60.942 292.695 60.76C292.903 60.578 293.168 60.4263 293.488 60.305C293.818 60.175 294.216 60.11 294.684 60.11C295.204 60.11 295.642 60.1793 295.997 60.318C296.353 60.448 296.63 60.6257 296.829 60.851C297.037 61.0763 297.185 61.332 297.271 61.618C297.367 61.904 297.414 62.1943 297.414 62.489V66.701C297.414 66.7877 297.384 66.8613 297.323 66.922C297.271 66.974 297.202 67 297.115 67H296.517C296.422 67 296.348 66.974 296.296 66.922C296.244 66.8613 296.218 66.7877 296.218 66.701V66.142C296.106 66.298 295.954 66.454 295.763 66.61C295.573 66.7573 295.334 66.883 295.048 66.987C294.762 67.0823 294.411 67.13 293.995 67.13ZM294.268 66.155C294.624 66.155 294.949 66.0813 295.243 65.934C295.538 65.778 295.768 65.5397 295.932 65.219C296.106 64.8983 296.192 64.4953 296.192 64.01V63.646L294.684 63.867C294.069 63.9537 293.605 64.101 293.293 64.309C292.981 64.5083 292.825 64.764 292.825 65.076C292.825 65.3187 292.895 65.5223 293.033 65.687C293.181 65.843 293.363 65.96 293.579 66.038C293.805 66.116 294.034 66.155 294.268 66.155Z" fill="#171B22"/>
<rect x="256.5" y="74" width="37" height="25" rx="12.5" fill="#F27430"/>
<path d="M269.342 91.14C268.67 91.14 268.086 91.0467 267.592 90.86C267.097 90.664 266.686 90.398 266.36 90.062C266.042 89.726 265.8 89.334 265.632 88.886C265.464 88.438 265.366 87.9573 265.338 87.444C265.328 87.192 265.319 86.9073 265.31 86.59C265.31 86.2633 265.31 85.9367 265.31 85.61C265.319 85.274 265.328 84.9753 265.338 84.714C265.366 84.2007 265.464 83.7247 265.632 83.286C265.809 82.838 266.061 82.4507 266.388 82.124C266.724 81.788 267.134 81.5267 267.62 81.34C268.114 81.1533 268.688 81.06 269.342 81.06C270.004 81.06 270.578 81.1533 271.064 81.34C271.549 81.5267 271.955 81.788 272.282 82.124C272.618 82.4507 272.874 82.838 273.052 83.286C273.229 83.7247 273.327 84.2007 273.346 84.714C273.364 84.9753 273.374 85.274 273.374 85.61C273.383 85.9367 273.383 86.2633 273.374 86.59C273.374 86.9073 273.364 87.192 273.346 87.444C273.327 87.9573 273.229 88.438 273.052 88.886C272.884 89.334 272.636 89.726 272.31 90.062C271.992 90.398 271.586 90.664 271.092 90.86C270.606 91.0467 270.023 91.14 269.342 91.14ZM269.342 89.11C269.827 89.11 270.177 88.956 270.392 88.648C270.616 88.3307 270.732 87.906 270.742 87.374C270.76 87.1033 270.77 86.8187 270.77 86.52C270.779 86.2213 270.779 85.9227 270.77 85.624C270.77 85.3253 270.76 85.05 270.742 84.798C270.732 84.2847 270.616 83.8693 270.392 83.552C270.177 83.2347 269.827 83.0713 269.342 83.062C268.856 83.0713 268.506 83.2347 268.292 83.552C268.077 83.8693 267.96 84.2847 267.942 84.798C267.932 85.05 267.923 85.3253 267.914 85.624C267.914 85.9227 267.914 86.2213 267.914 86.52C267.923 86.8187 267.932 87.1033 267.942 87.374C267.96 87.906 268.082 88.3307 268.306 88.648C268.53 88.956 268.875 89.11 269.342 89.11ZM275.679 91C275.465 91 275.357 90.9067 275.357 90.72C275.357 90.664 275.376 90.6127 275.413 90.566L282.329 81.466C282.395 81.382 282.46 81.3167 282.525 81.27C282.591 81.2233 282.689 81.2 282.819 81.2H283.813C284.028 81.2 284.135 81.2933 284.135 81.48C284.135 81.536 284.117 81.5873 284.079 81.634L277.163 90.734C277.098 90.818 277.033 90.8833 276.967 90.93C276.902 90.9767 276.804 91 276.673 91H275.679ZM282.721 91.07C282.087 91.07 281.578 90.902 281.195 90.566C280.822 90.23 280.612 89.782 280.565 89.222C280.556 88.9793 280.551 88.7647 280.551 88.578C280.551 88.3913 280.556 88.1673 280.565 87.906C280.603 87.3367 280.803 86.884 281.167 86.548C281.541 86.2027 282.059 86.03 282.721 86.03C283.393 86.03 283.911 86.2027 284.275 86.548C284.639 86.884 284.84 87.3367 284.877 87.906C284.896 88.1673 284.905 88.3913 284.905 88.578C284.905 88.7647 284.896 88.9793 284.877 89.222C284.84 89.782 284.63 90.23 284.247 90.566C283.865 90.902 283.356 91.07 282.721 91.07ZM282.721 89.838C282.88 89.838 283.001 89.8053 283.085 89.74C283.179 89.6747 283.249 89.5907 283.295 89.488C283.342 89.376 283.365 89.2593 283.365 89.138C283.384 88.9233 283.393 88.7273 283.393 88.55C283.393 88.3727 283.384 88.1813 283.365 87.976C283.356 87.7987 283.305 87.64 283.211 87.5C283.118 87.3507 282.955 87.276 282.721 87.276C282.488 87.276 282.325 87.3507 282.231 87.5C282.138 87.64 282.087 87.7987 282.077 87.976C282.068 88.1813 282.063 88.3727 282.063 88.55C282.063 88.7273 282.068 88.9233 282.077 89.138C282.087 89.2593 282.11 89.376 282.147 89.488C282.194 89.5907 282.264 89.6747 282.357 89.74C282.451 89.8053 282.572 89.838 282.721 89.838ZM276.799 86.142C276.155 86.142 275.642 85.9787 275.259 85.652C274.886 85.316 274.681 84.868 274.643 84.308C274.625 84.0653 274.615 83.8553 274.615 83.678C274.625 83.4913 274.634 83.2673 274.643 83.006C274.671 82.4367 274.867 81.984 275.231 81.648C275.605 81.3027 276.127 81.13 276.799 81.13C277.471 81.13 277.989 81.3027 278.353 81.648C278.717 81.984 278.913 82.4367 278.941 83.006C278.96 83.2673 278.969 83.4913 278.969 83.678C278.969 83.8553 278.96 84.0653 278.941 84.308C278.913 84.868 278.708 85.316 278.325 85.652C277.943 85.9787 277.434 86.142 276.799 86.142ZM276.799 84.938C276.949 84.938 277.07 84.9053 277.163 84.84C277.257 84.7653 277.327 84.6767 277.373 84.574C277.42 84.462 277.443 84.35 277.443 84.238C277.462 84.0233 277.471 83.8273 277.471 83.65C277.471 83.4727 277.462 83.2813 277.443 83.076C277.434 82.8987 277.378 82.74 277.275 82.6C277.182 82.4507 277.023 82.376 276.799 82.376C276.566 82.376 276.398 82.4507 276.295 82.6C276.202 82.74 276.151 82.8987 276.141 83.076C276.132 83.2813 276.127 83.4727 276.127 83.65C276.127 83.8273 276.132 84.0233 276.141 84.238C276.151 84.35 276.174 84.462 276.211 84.574C276.258 84.6767 276.328 84.7653 276.421 84.84C276.515 84.9053 276.641 84.938 276.799 84.938Z" fill="white"/>
<g filter="url(#filter0_d_16167_41105)">
<rect x="304" y="14" width="32" height="32" rx="16" fill="white"/>
<rect x="303" y="13" width="34" height="34" rx="17" stroke="#1DA534" stroke-width="2"/>
<path opacity="0.4" d="M320 40C325.523 40 330 35.5228 330 30C330 24.4772 325.523 20 320 20C314.477 20 310 24.4772 310 30C310 35.5228 314.477 40 320 40Z" fill="#1DA534"/>
<path d="M318.579 33.5801C318.379 33.5801 318.189 33.5001 318.049 33.3601L315.219 30.5301C314.929 30.2401 314.929 29.7601 315.219 29.4701C315.509 29.1801 315.989 29.1801 316.279 29.4701L318.579 31.7701L323.719 26.6301C324.009 26.3401 324.489 26.3401 324.779 26.6301C325.069 26.9201 325.069 27.4001 324.779 27.6901L319.109 33.3601C318.969 33.5001 318.779 33.5801 318.579 33.5801Z" fill="#1DA534"/>
</g>
<defs>
<filter id="filter0_d_16167_41105" x="287" y="5" width="66" height="66" filterUnits="userSpaceOnUse" color-interpolation-filters="sRGB">
<feFlood flood-opacity="0" result="BackgroundImageFix"/>
<feColorMatrix in="SourceAlpha" type="matrix" values="0 0 0 0 0 0 0 0 0 0 0 0 0 0 0 0 0 0 127 0" result="hardAlpha"/>
<feOffset dy="8"/>
<feGaussianBlur stdDeviation="7.5"/>
<feColorMatrix type="matrix" values="0 0 0 0 0 0 0 0 0 0 0 0 0 0 0 0 0 0 0.25 0"/>
<feBlend mode="normal" in2="BackgroundImageFix" result="effect1_dropShadow_16167_41105"/>
<feBlend mode="normal" in="SourceGraphic" in2="effect1_dropShadow_16167_41105" result="shape"/>
</filter>
<clipPath id="clip0_16167_41105">
<rect width="26.6667" height="19.7714" fill="white" transform="translate(261.666 24.9771)"/>
</clipPath>
</defs>
</svg>
