<svg width="351" height="118" viewBox="0 0 351 118" fill="none" xmlns="http://www.w3.org/2000/svg">
<rect x="90" y="2" width="114" height="114" rx="57" fill="#FCE6E6"/>
<rect x="90" y="2" width="114" height="114" rx="57" stroke="#E53939" stroke-width="4"/>
<g clip-path="url(#clip0_16167_41099)">
<path d="M140.882 35.7828C142.429 35.8114 143.624 35.1638 144.622 34.1041C145.339 33.3427 145.837 32.454 146.1 31.4349C146.312 30.6194 146.872 30.1937 147.723 30.1921C150.665 30.189 153.606 30.1921 156.549 30.1866C156.75 30.1866 156.834 30.2263 156.817 30.4443C156.798 30.6806 156.806 30.9201 156.817 31.158C156.829 31.4436 157.018 31.6194 157.292 31.6186C157.563 31.6178 157.773 31.4364 157.767 31.158C157.74 29.85 157.872 28.5397 157.705 27.2357C157.621 26.5746 157.384 25.9572 157.1 25.3549C156.996 25.1369 156.874 25.2611 156.765 25.312C155.529 25.8912 154.255 26.3661 152.945 26.748C151.365 27.2079 149.757 27.5245 148.119 27.6948C146.334 27.8809 144.551 27.8881 142.767 27.7035C142.633 27.69 142.58 27.7091 142.556 27.8603C142.401 28.8142 142.365 29.7721 142.448 30.7339C142.467 30.9559 142.432 31.1636 142.361 31.3736C141.869 32.8303 141.382 34.2878 140.881 35.7844L140.882 35.7828Z" fill="#E53939"/>
<path d="M142.79 26.7745C147.605 27.2328 152.165 26.4189 156.535 24.3861C155.985 23.5945 155.28 22.997 154.499 22.4735C151.759 20.6373 148.221 20.6278 145.655 22.4735C144.168 23.542 143.303 25.029 142.791 26.7753L142.79 26.7745Z" fill="#E53939"/>
<path opacity="0.4" d="M148.234 14.546C148.314 15.3185 148.391 16.0767 148.471 16.8341C148.584 17.897 148.705 18.9591 148.804 20.0228C148.824 20.2344 148.909 20.2543 149.082 20.2336C150.424 20.0721 151.731 20.2265 152.999 20.6887C153.177 20.754 153.235 20.6999 153.309 20.5487C154.168 18.796 155.033 17.0441 155.904 15.2962C155.985 15.1339 155.977 15.0726 155.796 15.0114C153.749 14.3272 151.655 14.04 149.501 14.2182C149.135 14.2484 148.772 14.2938 148.408 14.3367C148.239 14.3566 148.208 14.421 148.234 14.546Z" fill="#E53939"/>
<path d="M156.757 39.0492C156.757 38.544 156.748 38.038 156.762 37.5328C156.766 37.3458 156.71 37.2265 156.564 37.1088C155.365 36.1469 154.175 35.1731 152.975 34.2136C152.738 34.0242 152.624 33.8206 152.633 33.5087C152.652 32.7959 152.633 32.0814 152.643 31.3678C152.645 31.1872 152.601 31.1315 152.413 31.1339C151.648 31.145 150.883 31.1394 150.118 31.137C149.992 31.137 149.893 31.1251 149.897 31.3121C149.925 32.4203 149.865 33.5286 150.008 34.6361C150.229 36.3633 151.065 37.7325 152.338 38.8782C153.536 39.957 154.94 40.5783 156.525 40.8242C156.698 40.8512 156.77 40.8289 156.763 40.6261C156.748 40.101 156.758 39.5751 156.759 39.05L156.757 39.0492Z" fill="#E53939"/>
<path opacity="0.4" d="M147.866 20.0477C147.74 18.8606 147.608 17.6108 147.476 16.3609C147.424 15.8589 147.369 15.3568 147.33 14.854C147.312 14.6241 147.261 14.5636 147.005 14.6273C144.548 15.2391 142.376 16.3839 140.476 18.0499C140.336 18.1724 140.304 18.2353 140.462 18.3809C141.769 19.583 143.071 20.7931 144.366 22.0088C144.512 22.1456 144.591 22.1186 144.725 22.0056C145.57 21.2959 146.531 20.8027 147.591 20.4972C147.885 20.4128 147.885 20.4136 147.866 20.0477Z" fill="#E53939"/>
<path opacity="0.4" d="M141.844 26.6858C140.949 26.5219 140.064 26.3588 139.179 26.1997C138.128 26.0095 137.073 25.8313 136.024 25.6276C135.822 25.5887 135.77 25.6436 135.726 25.8186C135.249 27.689 135.102 29.5825 135.281 31.5039C135.296 31.6622 135.339 31.6694 135.481 31.6391C137.405 31.2246 139.33 30.8165 141.257 30.4092C141.421 30.3741 141.495 30.3113 141.487 30.1188C141.433 28.9651 141.552 27.8267 141.844 26.685V26.6858Z" fill="#E53939"/>
<path opacity="0.4" d="M141.979 25.7553C142.143 25.8078 142.158 25.6917 142.185 25.6185C142.548 24.6335 143.075 23.7457 143.763 22.9541C143.903 22.7933 143.788 22.7408 143.7 22.6597C142.718 21.7479 141.735 20.8362 140.752 19.9252C140.424 19.6213 140.093 19.3214 139.77 19.0127C139.666 18.9124 139.609 18.8894 139.495 19.0167C138.059 20.6277 136.895 22.4035 136.155 24.4418C136.084 24.6359 136.1 24.7036 136.312 24.741C138.017 25.0409 139.721 25.3504 141.425 25.6567C141.62 25.6917 141.815 25.7259 141.978 25.7553H141.979Z" fill="#E53939"/>
</g>
<path d="M125.013 59.5C124.918 59.5 124.844 59.474 124.792 59.422C124.74 59.3613 124.714 59.2877 124.714 59.201V50.712C124.714 50.6167 124.74 50.543 124.792 50.491C124.844 50.4303 124.918 50.4 125.013 50.4H125.676C125.772 50.4 125.845 50.4303 125.897 50.491C125.958 50.543 125.988 50.6167 125.988 50.712V54.3H130.46V50.712C130.46 50.6167 130.486 50.543 130.538 50.491C130.599 50.4303 130.673 50.4 130.759 50.4H131.422C131.518 50.4 131.591 50.4303 131.643 50.491C131.704 50.543 131.734 50.6167 131.734 50.712V59.201C131.734 59.2877 131.704 59.3613 131.643 59.422C131.591 59.474 131.518 59.5 131.422 59.5H130.759C130.673 59.5 130.599 59.474 130.538 59.422C130.486 59.3613 130.46 59.2877 130.46 59.201V55.47H125.988V59.201C125.988 59.2877 125.958 59.3613 125.897 59.422C125.845 59.474 125.772 59.5 125.676 59.5H125.013ZM134.112 59.5C134.025 59.5 133.952 59.474 133.891 59.422C133.839 59.3613 133.813 59.2877 133.813 59.201V53.039C133.813 52.9523 133.839 52.883 133.891 52.831C133.952 52.7703 134.025 52.74 134.112 52.74H134.736C134.823 52.74 134.892 52.7703 134.944 52.831C134.996 52.883 135.022 52.9523 135.022 53.039V59.201C135.022 59.2877 134.996 59.3613 134.944 59.422C134.892 59.474 134.823 59.5 134.736 59.5H134.112ZM134.008 51.479C133.921 51.479 133.848 51.453 133.787 51.401C133.735 51.3403 133.709 51.2667 133.709 51.18V50.478C133.709 50.3913 133.735 50.322 133.787 50.27C133.848 50.2093 133.921 50.179 134.008 50.179H134.827C134.914 50.179 134.983 50.2093 135.035 50.27C135.096 50.322 135.126 50.3913 135.126 50.478V51.18C135.126 51.2667 135.096 51.3403 135.035 51.401C134.983 51.453 134.914 51.479 134.827 51.479H134.008ZM139.302 59.63C138.816 59.63 138.4 59.5693 138.054 59.448C137.707 59.3267 137.425 59.1793 137.209 59.006C136.992 58.8327 136.827 58.6593 136.715 58.486C136.611 58.3127 136.554 58.174 136.546 58.07C136.537 57.9747 136.567 57.901 136.637 57.849C136.706 57.797 136.775 57.771 136.845 57.771H137.417C137.469 57.771 137.508 57.7797 137.534 57.797C137.568 57.8057 137.612 57.8403 137.664 57.901C137.776 58.0223 137.902 58.1437 138.041 58.265C138.179 58.3863 138.348 58.486 138.548 58.564C138.756 58.642 139.011 58.681 139.315 58.681C139.757 58.681 140.121 58.5987 140.407 58.434C140.693 58.2607 140.836 58.0093 140.836 57.68C140.836 57.4633 140.775 57.29 140.654 57.16C140.541 57.03 140.333 56.913 140.03 56.809C139.735 56.705 139.328 56.5967 138.808 56.484C138.288 56.3627 137.876 56.2153 137.573 56.042C137.269 55.86 137.053 55.6477 136.923 55.405C136.793 55.1537 136.728 54.872 136.728 54.56C136.728 54.2393 136.823 53.9317 137.014 53.637C137.204 53.3337 137.482 53.0867 137.846 52.896C138.218 52.7053 138.682 52.61 139.237 52.61C139.687 52.61 140.073 52.6663 140.394 52.779C140.714 52.8917 140.979 53.0347 141.187 53.208C141.395 53.3727 141.551 53.5373 141.655 53.702C141.759 53.8667 141.815 54.0053 141.824 54.118C141.832 54.2047 141.806 54.2783 141.746 54.339C141.685 54.391 141.616 54.417 141.538 54.417H140.992C140.931 54.417 140.879 54.404 140.836 54.378C140.801 54.352 140.766 54.3217 140.732 54.287C140.645 54.1743 140.541 54.0617 140.42 53.949C140.307 53.8363 140.155 53.7453 139.965 53.676C139.783 53.598 139.54 53.559 139.237 53.559C138.803 53.559 138.478 53.65 138.262 53.832C138.045 54.014 137.937 54.2437 137.937 54.521C137.937 54.6857 137.984 54.833 138.08 54.963C138.175 55.093 138.357 55.21 138.626 55.314C138.894 55.418 139.293 55.5307 139.822 55.652C140.394 55.7647 140.844 55.9163 141.174 56.107C141.503 56.2977 141.737 56.5187 141.876 56.77C142.014 57.0213 142.084 57.3117 142.084 57.641C142.084 58.005 141.975 58.3387 141.759 58.642C141.551 58.9453 141.239 59.188 140.823 59.37C140.415 59.5433 139.908 59.63 139.302 59.63ZM146.215 59.5C145.729 59.5 145.335 59.409 145.032 59.227C144.728 59.0363 144.507 58.772 144.369 58.434C144.23 58.0873 144.161 57.68 144.161 57.212V53.78H143.147C143.06 53.78 142.986 53.754 142.926 53.702C142.874 53.6413 142.848 53.5677 142.848 53.481V53.039C142.848 52.9523 142.874 52.883 142.926 52.831C142.986 52.7703 143.06 52.74 143.147 52.74H144.161V50.569C144.161 50.4823 144.187 50.413 144.239 50.361C144.299 50.3003 144.373 50.27 144.46 50.27H145.071C145.157 50.27 145.227 50.3003 145.279 50.361C145.339 50.413 145.37 50.4823 145.37 50.569V52.74H146.982C147.068 52.74 147.138 52.7703 147.19 52.831C147.25 52.883 147.281 52.9523 147.281 53.039V53.481C147.281 53.5677 147.25 53.6413 147.19 53.702C147.138 53.754 147.068 53.78 146.982 53.78H145.37V57.121C145.37 57.5283 145.439 57.849 145.578 58.083C145.716 58.317 145.963 58.434 146.319 58.434H147.112C147.198 58.434 147.268 58.4643 147.32 58.525C147.38 58.577 147.411 58.6463 147.411 58.733V59.201C147.411 59.2877 147.38 59.3613 147.32 59.422C147.268 59.474 147.198 59.5 147.112 59.5H146.215ZM151.423 59.63C150.764 59.63 150.214 59.5043 149.772 59.253C149.33 59.0017 148.992 58.655 148.758 58.213C148.524 57.7623 148.394 57.251 148.368 56.679C148.359 56.5317 148.355 56.3453 148.355 56.12C148.355 55.886 148.359 55.6997 148.368 55.561C148.394 54.9803 148.524 54.469 148.758 54.027C149.001 53.585 149.343 53.2383 149.785 52.987C150.227 52.7357 150.773 52.61 151.423 52.61C152.073 52.61 152.619 52.7357 153.061 52.987C153.503 53.2383 153.841 53.585 154.075 54.027C154.318 54.469 154.452 54.9803 154.478 55.561C154.487 55.6997 154.491 55.886 154.491 56.12C154.491 56.3453 154.487 56.5317 154.478 56.679C154.452 57.251 154.322 57.7623 154.088 58.213C153.854 58.655 153.516 59.0017 153.074 59.253C152.632 59.5043 152.082 59.63 151.423 59.63ZM151.423 58.629C151.96 58.629 152.389 58.46 152.71 58.122C153.031 57.7753 153.204 57.2727 153.23 56.614C153.239 56.484 153.243 56.3193 153.243 56.12C153.243 55.9207 153.239 55.756 153.23 55.626C153.204 54.9673 153.031 54.469 152.71 54.131C152.389 53.7843 151.96 53.611 151.423 53.611C150.886 53.611 150.452 53.7843 150.123 54.131C149.802 54.469 149.633 54.9673 149.616 55.626C149.607 55.756 149.603 55.9207 149.603 56.12C149.603 56.3193 149.607 56.484 149.616 56.614C149.633 57.2727 149.802 57.7753 150.123 58.122C150.452 58.46 150.886 58.629 151.423 58.629ZM156.418 59.5C156.331 59.5 156.257 59.474 156.197 59.422C156.145 59.3613 156.119 59.2877 156.119 59.201V53.052C156.119 52.9653 156.145 52.8917 156.197 52.831C156.257 52.7703 156.331 52.74 156.418 52.74H157.016C157.102 52.74 157.176 52.7703 157.237 52.831C157.297 52.8917 157.328 52.9653 157.328 53.052V53.624C157.501 53.3293 157.739 53.1083 158.043 52.961C158.346 52.8137 158.71 52.74 159.135 52.74H159.655C159.741 52.74 159.811 52.7703 159.863 52.831C159.915 52.883 159.941 52.9523 159.941 53.039V53.572C159.941 53.6587 159.915 53.728 159.863 53.78C159.811 53.832 159.741 53.858 159.655 53.858H158.875C158.407 53.858 158.038 53.9967 157.77 54.274C157.501 54.5427 157.367 54.911 157.367 55.379V59.201C157.367 59.2877 157.336 59.3613 157.276 59.422C157.215 59.474 157.141 59.5 157.055 59.5H156.418ZM161.356 59.5C161.27 59.5 161.196 59.474 161.135 59.422C161.083 59.3613 161.057 59.2877 161.057 59.201V53.039C161.057 52.9523 161.083 52.883 161.135 52.831C161.196 52.7703 161.27 52.74 161.356 52.74H161.98C162.067 52.74 162.136 52.7703 162.188 52.831C162.24 52.883 162.266 52.9523 162.266 53.039V59.201C162.266 59.2877 162.24 59.3613 162.188 59.422C162.136 59.474 162.067 59.5 161.98 59.5H161.356ZM161.252 51.479C161.166 51.479 161.092 51.453 161.031 51.401C160.979 51.3403 160.953 51.2667 160.953 51.18V50.478C160.953 50.3913 160.979 50.322 161.031 50.27C161.092 50.2093 161.166 50.179 161.252 50.179H162.071C162.158 50.179 162.227 50.2093 162.279 50.27C162.34 50.322 162.37 50.3913 162.37 50.478V51.18C162.37 51.2667 162.34 51.3403 162.279 51.401C162.227 51.453 162.158 51.479 162.071 51.479H161.252ZM166.091 59.63C165.657 59.63 165.263 59.5433 164.908 59.37C164.552 59.1967 164.266 58.9627 164.05 58.668C163.833 58.3733 163.725 58.0397 163.725 57.667C163.725 57.069 163.967 56.5923 164.453 56.237C164.938 55.8817 165.571 55.6477 166.351 55.535L168.288 55.262V54.885C168.288 54.469 168.166 54.144 167.924 53.91C167.69 53.676 167.304 53.559 166.767 53.559C166.377 53.559 166.06 53.637 165.818 53.793C165.584 53.949 165.419 54.1483 165.324 54.391C165.272 54.521 165.181 54.586 165.051 54.586H164.466C164.37 54.586 164.297 54.56 164.245 54.508C164.201 54.4473 164.18 54.378 164.18 54.3C164.18 54.17 164.227 54.0097 164.323 53.819C164.427 53.6283 164.583 53.442 164.791 53.26C164.999 53.078 165.263 52.9263 165.584 52.805C165.913 52.675 166.312 52.61 166.78 52.61C167.3 52.61 167.737 52.6793 168.093 52.818C168.448 52.948 168.725 53.1257 168.925 53.351C169.133 53.5763 169.28 53.832 169.367 54.118C169.462 54.404 169.51 54.6943 169.51 54.989V59.201C169.51 59.2877 169.479 59.3613 169.419 59.422C169.367 59.474 169.297 59.5 169.211 59.5H168.613C168.517 59.5 168.444 59.474 168.392 59.422C168.34 59.3613 168.314 59.2877 168.314 59.201V58.642C168.201 58.798 168.049 58.954 167.859 59.11C167.668 59.2573 167.43 59.383 167.144 59.487C166.858 59.5823 166.507 59.63 166.091 59.63ZM166.364 58.655C166.719 58.655 167.044 58.5813 167.339 58.434C167.633 58.278 167.863 58.0397 168.028 57.719C168.201 57.3983 168.288 56.9953 168.288 56.51V56.146L166.78 56.367C166.164 56.4537 165.701 56.601 165.389 56.809C165.077 57.0083 164.921 57.264 164.921 57.576C164.921 57.8187 164.99 58.0223 165.129 58.187C165.276 58.343 165.458 58.46 165.675 58.538C165.9 58.616 166.13 58.655 166.364 58.655ZM123.424 74.63C122.696 74.63 122.068 74.5 121.539 74.24C121.019 73.98 120.616 73.5857 120.33 73.057C120.053 72.5197 119.914 71.8307 119.914 70.99V65.712C119.914 65.6167 119.94 65.543 119.992 65.491C120.044 65.4303 120.118 65.4 120.213 65.4H120.876C120.971 65.4 121.045 65.4303 121.097 65.491C121.158 65.543 121.188 65.6167 121.188 65.712V71.016C121.188 71.8653 121.387 72.4937 121.786 72.901C122.185 73.3083 122.731 73.512 123.424 73.512C124.109 73.512 124.65 73.3083 125.049 72.901C125.456 72.4937 125.66 71.8653 125.66 71.016V65.712C125.66 65.6167 125.686 65.543 125.738 65.491C125.799 65.4303 125.872 65.4 125.959 65.4H126.635C126.722 65.4 126.791 65.4303 126.843 65.491C126.904 65.543 126.934 65.6167 126.934 65.712V70.99C126.934 71.8307 126.791 72.5197 126.505 73.057C126.228 73.5857 125.829 73.98 125.309 74.24C124.789 74.5 124.161 74.63 123.424 74.63ZM129.237 74.5C129.15 74.5 129.077 74.474 129.016 74.422C128.964 74.3613 128.938 74.2877 128.938 74.201V68.039C128.938 67.9523 128.964 67.883 129.016 67.831C129.077 67.7703 129.15 67.74 129.237 67.74H129.848C129.935 67.74 130.004 67.7703 130.056 67.831C130.117 67.883 130.147 67.9523 130.147 68.039V68.611C130.372 68.3163 130.654 68.078 130.992 67.896C131.339 67.7053 131.781 67.61 132.318 67.61C132.881 67.61 133.358 67.7357 133.748 67.987C134.147 68.2297 134.446 68.572 134.645 69.014C134.844 69.4473 134.944 69.9543 134.944 70.535V74.201C134.944 74.2877 134.918 74.3613 134.866 74.422C134.814 74.474 134.745 74.5 134.658 74.5H134.008C133.921 74.5 133.848 74.474 133.787 74.422C133.735 74.3613 133.709 74.2877 133.709 74.201V70.6C133.709 69.9933 133.562 69.521 133.267 69.183C132.972 68.8363 132.539 68.663 131.967 68.663C131.43 68.663 130.996 68.8363 130.667 69.183C130.346 69.521 130.186 69.9933 130.186 70.6V74.201C130.186 74.2877 130.156 74.3613 130.095 74.422C130.043 74.474 129.974 74.5 129.887 74.5H129.237ZM137.121 74.5C137.034 74.5 136.961 74.474 136.9 74.422C136.848 74.3613 136.822 74.2877 136.822 74.201V68.039C136.822 67.9523 136.848 67.883 136.9 67.831C136.961 67.7703 137.034 67.74 137.121 67.74H137.745C137.832 67.74 137.901 67.7703 137.953 67.831C138.005 67.883 138.031 67.9523 138.031 68.039V74.201C138.031 74.2877 138.005 74.3613 137.953 74.422C137.901 74.474 137.832 74.5 137.745 74.5H137.121ZM137.017 66.479C136.93 66.479 136.857 66.453 136.796 66.401C136.744 66.3403 136.718 66.2667 136.718 66.18V65.478C136.718 65.3913 136.744 65.322 136.796 65.27C136.857 65.2093 136.93 65.179 137.017 65.179H137.836C137.923 65.179 137.992 65.2093 138.044 65.27C138.105 65.322 138.135 65.3913 138.135 65.478V66.18C138.135 66.2667 138.105 66.3403 138.044 66.401C137.992 66.453 137.923 66.479 137.836 66.479H137.017ZM142.323 74.5C142.193 74.5 142.089 74.4697 142.011 74.409C141.942 74.3483 141.886 74.2703 141.842 74.175L139.437 68.143C139.42 68.0997 139.411 68.0563 139.411 68.013C139.411 67.935 139.437 67.87 139.489 67.818C139.541 67.766 139.606 67.74 139.684 67.74H140.308C140.404 67.74 140.477 67.766 140.529 67.818C140.581 67.87 140.612 67.9177 140.62 67.961L142.609 73.083L144.585 67.961C144.603 67.9177 144.633 67.87 144.676 67.818C144.728 67.766 144.802 67.74 144.897 67.74H145.534C145.604 67.74 145.664 67.766 145.716 67.818C145.777 67.87 145.807 67.935 145.807 68.013C145.807 68.0563 145.799 68.0997 145.781 68.143L143.363 74.175C143.329 74.2703 143.272 74.3483 143.194 74.409C143.125 74.4697 143.021 74.5 142.882 74.5H142.323ZM149.618 74.63C148.726 74.63 148.015 74.357 147.486 73.811C146.958 73.2563 146.667 72.5023 146.615 71.549C146.607 71.4363 146.602 71.2933 146.602 71.12C146.602 70.938 146.607 70.7907 146.615 70.678C146.65 70.0627 146.793 69.5253 147.044 69.066C147.296 68.598 147.638 68.2383 148.071 67.987C148.513 67.7357 149.029 67.61 149.618 67.61C150.277 67.61 150.827 67.7487 151.269 68.026C151.72 68.3033 152.062 68.6977 152.296 69.209C152.53 69.7203 152.647 70.3183 152.647 71.003V71.224C152.647 71.3193 152.617 71.393 152.556 71.445C152.504 71.497 152.435 71.523 152.348 71.523H147.85C147.85 71.5317 147.85 71.549 147.85 71.575C147.85 71.601 147.85 71.6227 147.85 71.64C147.868 71.9953 147.946 72.329 148.084 72.641C148.223 72.9443 148.422 73.1913 148.682 73.382C148.942 73.5727 149.254 73.668 149.618 73.668C149.93 73.668 150.19 73.6203 150.398 73.525C150.606 73.4297 150.775 73.3257 150.905 73.213C151.035 73.0917 151.122 73.0007 151.165 72.94C151.243 72.8273 151.304 72.7623 151.347 72.745C151.391 72.719 151.46 72.706 151.555 72.706H152.179C152.266 72.706 152.335 72.732 152.387 72.784C152.448 72.8273 152.474 72.8923 152.465 72.979C152.457 73.109 152.387 73.2693 152.257 73.46C152.127 73.642 151.941 73.824 151.698 74.006C151.456 74.188 151.161 74.3397 150.814 74.461C150.468 74.5737 150.069 74.63 149.618 74.63ZM147.85 70.626H151.412V70.587C151.412 70.197 151.339 69.8503 151.191 69.547C151.053 69.2437 150.849 69.0053 150.58 68.832C150.312 68.65 149.991 68.559 149.618 68.559C149.246 68.559 148.925 68.65 148.656 68.832C148.396 69.0053 148.197 69.2437 148.058 69.547C147.92 69.8503 147.85 70.197 147.85 70.587V70.626ZM154.501 74.5C154.414 74.5 154.34 74.474 154.28 74.422C154.228 74.3613 154.202 74.2877 154.202 74.201V68.052C154.202 67.9653 154.228 67.8917 154.28 67.831C154.34 67.7703 154.414 67.74 154.501 67.74H155.099C155.185 67.74 155.259 67.7703 155.32 67.831C155.38 67.8917 155.411 67.9653 155.411 68.052V68.624C155.584 68.3293 155.822 68.1083 156.126 67.961C156.429 67.8137 156.793 67.74 157.218 67.74H157.738C157.824 67.74 157.894 67.7703 157.946 67.831C157.998 67.883 158.024 67.9523 158.024 68.039V68.572C158.024 68.6587 157.998 68.728 157.946 68.78C157.894 68.832 157.824 68.858 157.738 68.858H156.958C156.49 68.858 156.121 68.9967 155.853 69.274C155.584 69.5427 155.45 69.911 155.45 70.379V74.201C155.45 74.2877 155.419 74.3613 155.359 74.422C155.298 74.474 155.224 74.5 155.138 74.5H154.501ZM161.48 74.63C160.995 74.63 160.579 74.5693 160.232 74.448C159.886 74.3267 159.604 74.1793 159.387 74.006C159.171 73.8327 159.006 73.6593 158.893 73.486C158.789 73.3127 158.733 73.174 158.724 73.07C158.716 72.9747 158.746 72.901 158.815 72.849C158.885 72.797 158.954 72.771 159.023 72.771H159.595C159.647 72.771 159.686 72.7797 159.712 72.797C159.747 72.8057 159.79 72.8403 159.842 72.901C159.955 73.0223 160.081 73.1437 160.219 73.265C160.358 73.3863 160.527 73.486 160.726 73.564C160.934 73.642 161.19 73.681 161.493 73.681C161.935 73.681 162.299 73.5987 162.585 73.434C162.871 73.2607 163.014 73.0093 163.014 72.68C163.014 72.4633 162.954 72.29 162.832 72.16C162.72 72.03 162.512 71.913 162.208 71.809C161.914 71.705 161.506 71.5967 160.986 71.484C160.466 71.3627 160.055 71.2153 159.751 71.042C159.448 70.86 159.231 70.6477 159.101 70.405C158.971 70.1537 158.906 69.872 158.906 69.56C158.906 69.2393 159.002 68.9317 159.192 68.637C159.383 68.3337 159.66 68.0867 160.024 67.896C160.397 67.7053 160.861 67.61 161.415 67.61C161.866 67.61 162.252 67.6663 162.572 67.779C162.893 67.8917 163.157 68.0347 163.365 68.208C163.573 68.3727 163.729 68.5373 163.833 68.702C163.937 68.8667 163.994 69.0053 164.002 69.118C164.011 69.2047 163.985 69.2783 163.924 69.339C163.864 69.391 163.794 69.417 163.716 69.417H163.17C163.11 69.417 163.058 69.404 163.014 69.378C162.98 69.352 162.945 69.3217 162.91 69.287C162.824 69.1743 162.72 69.0617 162.598 68.949C162.486 68.8363 162.334 68.7453 162.143 68.676C161.961 68.598 161.719 68.559 161.415 68.559C160.982 68.559 160.657 68.65 160.44 68.832C160.224 69.014 160.115 69.2437 160.115 69.521C160.115 69.6857 160.163 69.833 160.258 69.963C160.354 70.093 160.536 70.21 160.804 70.314C161.073 70.418 161.472 70.5307 162 70.652C162.572 70.7647 163.023 70.9163 163.352 71.107C163.682 71.2977 163.916 71.5187 164.054 71.77C164.193 72.0213 164.262 72.3117 164.262 72.641C164.262 73.005 164.154 73.3387 163.937 73.642C163.729 73.9453 163.417 74.188 163.001 74.37C162.594 74.5433 162.087 74.63 161.48 74.63ZM167.652 74.63C167.219 74.63 166.825 74.5433 166.469 74.37C166.114 74.1967 165.828 73.9627 165.611 73.668C165.395 73.3733 165.286 73.0397 165.286 72.667C165.286 72.069 165.529 71.5923 166.014 71.237C166.5 70.8817 167.132 70.6477 167.912 70.535L169.849 70.262V69.885C169.849 69.469 169.728 69.144 169.485 68.91C169.251 68.676 168.866 68.559 168.328 68.559C167.938 68.559 167.622 68.637 167.379 68.793C167.145 68.949 166.981 69.1483 166.885 69.391C166.833 69.521 166.742 69.586 166.612 69.586H166.027C165.932 69.586 165.858 69.56 165.806 69.508C165.763 69.4473 165.741 69.378 165.741 69.3C165.741 69.17 165.789 69.0097 165.884 68.819C165.988 68.6283 166.144 68.442 166.352 68.26C166.56 68.078 166.825 67.9263 167.145 67.805C167.475 67.675 167.873 67.61 168.341 67.61C168.861 67.61 169.299 67.6793 169.654 67.818C170.01 67.948 170.287 68.1257 170.486 68.351C170.694 68.5763 170.842 68.832 170.928 69.118C171.024 69.404 171.071 69.6943 171.071 69.989V74.201C171.071 74.2877 171.041 74.3613 170.98 74.422C170.928 74.474 170.859 74.5 170.772 74.5H170.174C170.079 74.5 170.005 74.474 169.953 74.422C169.901 74.3613 169.875 74.2877 169.875 74.201V73.642C169.763 73.798 169.611 73.954 169.42 74.11C169.23 74.2573 168.991 74.383 168.705 74.487C168.419 74.5823 168.068 74.63 167.652 74.63ZM167.925 73.655C168.281 73.655 168.606 73.5813 168.9 73.434C169.195 73.278 169.425 73.0397 169.589 72.719C169.763 72.3983 169.849 71.9953 169.849 71.51V71.146L168.341 71.367C167.726 71.4537 167.262 71.601 166.95 71.809C166.638 72.0083 166.482 72.264 166.482 72.576C166.482 72.8187 166.552 73.0223 166.69 73.187C166.838 73.343 167.02 73.46 167.236 73.538C167.462 73.616 167.691 73.655 167.925 73.655ZM173.252 74.5C173.165 74.5 173.092 74.474 173.031 74.422C172.979 74.3613 172.953 74.2877 172.953 74.201V65.569C172.953 65.4823 172.979 65.413 173.031 65.361C173.092 65.3003 173.165 65.27 173.252 65.27H173.863C173.958 65.27 174.032 65.3003 174.084 65.361C174.136 65.413 174.162 65.4823 174.162 65.569V74.201C174.162 74.2877 174.136 74.3613 174.084 74.422C174.032 74.474 173.958 74.5 173.863 74.5H173.252Z" fill="#171B22"/>
<rect x="128.5" y="81.5" width="37" height="25" rx="12.5" fill="#E53939"/>
<path d="M141.342 98.64C140.67 98.64 140.086 98.5467 139.592 98.36C139.097 98.164 138.686 97.898 138.36 97.562C138.042 97.226 137.8 96.834 137.632 96.386C137.464 95.938 137.366 95.4573 137.338 94.944C137.328 94.692 137.319 94.4073 137.31 94.09C137.31 93.7633 137.31 93.4367 137.31 93.11C137.319 92.774 137.328 92.4753 137.338 92.214C137.366 91.7007 137.464 91.2247 137.632 90.786C137.809 90.338 138.061 89.9507 138.388 89.624C138.724 89.288 139.134 89.0267 139.62 88.84C140.114 88.6533 140.688 88.56 141.342 88.56C142.004 88.56 142.578 88.6533 143.064 88.84C143.549 89.0267 143.955 89.288 144.282 89.624C144.618 89.9507 144.874 90.338 145.052 90.786C145.229 91.2247 145.327 91.7007 145.346 92.214C145.364 92.4753 145.374 92.774 145.374 93.11C145.383 93.4367 145.383 93.7633 145.374 94.09C145.374 94.4073 145.364 94.692 145.346 94.944C145.327 95.4573 145.229 95.938 145.052 96.386C144.884 96.834 144.636 97.226 144.31 97.562C143.992 97.898 143.586 98.164 143.092 98.36C142.606 98.5467 142.023 98.64 141.342 98.64ZM141.342 96.61C141.827 96.61 142.177 96.456 142.392 96.148C142.616 95.8307 142.732 95.406 142.742 94.874C142.76 94.6033 142.77 94.3187 142.77 94.02C142.779 93.7213 142.779 93.4227 142.77 93.124C142.77 92.8253 142.76 92.55 142.742 92.298C142.732 91.7847 142.616 91.3693 142.392 91.052C142.177 90.7347 141.827 90.5713 141.342 90.562C140.856 90.5713 140.506 90.7347 140.292 91.052C140.077 91.3693 139.96 91.7847 139.942 92.298C139.932 92.55 139.923 92.8253 139.914 93.124C139.914 93.4227 139.914 93.7213 139.914 94.02C139.923 94.3187 139.932 94.6033 139.942 94.874C139.96 95.406 140.082 95.8307 140.306 96.148C140.53 96.456 140.875 96.61 141.342 96.61ZM147.679 98.5C147.465 98.5 147.357 98.4067 147.357 98.22C147.357 98.164 147.376 98.1127 147.413 98.066L154.329 88.966C154.395 88.882 154.46 88.8167 154.525 88.77C154.591 88.7233 154.689 88.7 154.819 88.7H155.813C156.028 88.7 156.135 88.7933 156.135 88.98C156.135 89.036 156.117 89.0873 156.079 89.134L149.163 98.234C149.098 98.318 149.033 98.3833 148.967 98.43C148.902 98.4767 148.804 98.5 148.673 98.5H147.679ZM154.721 98.57C154.087 98.57 153.578 98.402 153.195 98.066C152.822 97.73 152.612 97.282 152.565 96.722C152.556 96.4793 152.551 96.2647 152.551 96.078C152.551 95.8913 152.556 95.6673 152.565 95.406C152.603 94.8367 152.803 94.384 153.167 94.048C153.541 93.7027 154.059 93.53 154.721 93.53C155.393 93.53 155.911 93.7027 156.275 94.048C156.639 94.384 156.84 94.8367 156.877 95.406C156.896 95.6673 156.905 95.8913 156.905 96.078C156.905 96.2647 156.896 96.4793 156.877 96.722C156.84 97.282 156.63 97.73 156.247 98.066C155.865 98.402 155.356 98.57 154.721 98.57ZM154.721 97.338C154.88 97.338 155.001 97.3053 155.085 97.24C155.179 97.1747 155.249 97.0907 155.295 96.988C155.342 96.876 155.365 96.7593 155.365 96.638C155.384 96.4233 155.393 96.2273 155.393 96.05C155.393 95.8727 155.384 95.6813 155.365 95.476C155.356 95.2987 155.305 95.14 155.211 95C155.118 94.8507 154.955 94.776 154.721 94.776C154.488 94.776 154.325 94.8507 154.231 95C154.138 95.14 154.087 95.2987 154.077 95.476C154.068 95.6813 154.063 95.8727 154.063 96.05C154.063 96.2273 154.068 96.4233 154.077 96.638C154.087 96.7593 154.11 96.876 154.147 96.988C154.194 97.0907 154.264 97.1747 154.357 97.24C154.451 97.3053 154.572 97.338 154.721 97.338ZM148.799 93.642C148.155 93.642 147.642 93.4787 147.259 93.152C146.886 92.816 146.681 92.368 146.643 91.808C146.625 91.5653 146.615 91.3553 146.615 91.178C146.625 90.9913 146.634 90.7673 146.643 90.506C146.671 89.9367 146.867 89.484 147.231 89.148C147.605 88.8027 148.127 88.63 148.799 88.63C149.471 88.63 149.989 88.8027 150.353 89.148C150.717 89.484 150.913 89.9367 150.941 90.506C150.96 90.7673 150.969 90.9913 150.969 91.178C150.969 91.3553 150.96 91.5653 150.941 91.808C150.913 92.368 150.708 92.816 150.325 93.152C149.943 93.4787 149.434 93.642 148.799 93.642ZM148.799 92.438C148.949 92.438 149.07 92.4053 149.163 92.34C149.257 92.2653 149.327 92.1767 149.373 92.074C149.42 91.962 149.443 91.85 149.443 91.738C149.462 91.5233 149.471 91.3273 149.471 91.15C149.471 90.9727 149.462 90.7813 149.443 90.576C149.434 90.3987 149.378 90.24 149.275 90.1C149.182 89.9507 149.023 89.876 148.799 89.876C148.566 89.876 148.398 89.9507 148.295 90.1C148.202 90.24 148.151 90.3987 148.141 90.576C148.132 90.7813 148.127 90.9727 148.127 91.15C148.127 91.3273 148.132 91.5233 148.141 91.738C148.151 91.85 148.174 91.962 148.211 92.074C148.258 92.1767 148.328 92.2653 148.421 92.34C148.515 92.4053 148.641 92.438 148.799 92.438Z" fill="white"/>
<g filter="url(#filter0_d_16167_41099)">
<rect x="176" y="14" width="32" height="32" rx="16" fill="white"/>
<rect x="175" y="13" width="34" height="34" rx="17" stroke="#1DA534" stroke-width="2"/>
<path opacity="0.4" d="M192 40C197.523 40 202 35.5228 202 30C202 24.4772 197.523 20 192 20C186.477 20 182 24.4772 182 30C182 35.5228 186.477 40 192 40Z" fill="#1DA534"/>
<path d="M190.579 33.5801C190.379 33.5801 190.189 33.5001 190.049 33.3601L187.219 30.5301C186.929 30.2401 186.929 29.7601 187.219 29.4701C187.509 29.1801 187.989 29.1801 188.279 29.4701L190.579 31.7701L195.719 26.6301C196.009 26.3401 196.489 26.3401 196.779 26.6301C197.069 26.9201 197.069 27.4001 196.779 27.6901L191.109 33.3601C190.969 33.5001 190.779 33.5801 190.579 33.5801Z" fill="#1DA534"/>
</g>
<defs>
<filter id="filter0_d_16167_41099" x="159" y="5" width="66" height="66" filterUnits="userSpaceOnUse" color-interpolation-filters="sRGB">
<feFlood flood-opacity="0" result="BackgroundImageFix"/>
<feColorMatrix in="SourceAlpha" type="matrix" values="0 0 0 0 0 0 0 0 0 0 0 0 0 0 0 0 0 0 127 0" result="hardAlpha"/>
<feOffset dy="8"/>
<feGaussianBlur stdDeviation="7.5"/>
<feColorMatrix type="matrix" values="0 0 0 0 0 0 0 0 0 0 0 0 0 0 0 0 0 0 0.25 0"/>
<feBlend mode="normal" in2="BackgroundImageFix" result="effect1_dropShadow_16167_41099"/>
<feBlend mode="normal" in="SourceGraphic" in2="effect1_dropShadow_16167_41099" result="shape"/>
</filter>
<clipPath id="clip0_16167_41099">
<rect width="22.5829" height="26.6667" fill="white" transform="matrix(-1 0 0 1 157.791 14.1665)"/>
</clipPath>
</defs>
</svg>
