<svg width="137" height="118" viewBox="0 0 137 118" fill="none" xmlns="http://www.w3.org/2000/svg">
<rect x="2" y="2" width="114" height="114" rx="57" fill="#E8F6EB"/>
<rect x="2" y="2" width="114" height="114" rx="57" stroke="#4AB75D" stroke-width="4"/>
<path d="M72.3327 18.1665H45.666V36.8332H72.3327V18.1665Z" fill="white"/>
<path d="M54.5547 18.1665H45.666V36.8332H54.5547V18.1665Z" fill="#007D36"/>
<path d="M72.334 18.1665H63.4453V36.8332H72.334V18.1665Z" fill="#D80027"/>
<path d="M58.9892 30.6617C57.3293 30.6617 55.9785 29.2436 55.9785 27.5004C55.9785 27.2511 56.1709 27.0488 56.4086 27.0488C56.6463 27.0488 56.8387 27.2511 56.8387 27.5004C56.8387 28.7454 57.8035 29.7585 58.9892 29.7585C60.175 29.7585 61.1398 28.7454 61.1398 27.5004C61.1398 27.2511 61.3322 27.0488 61.5699 27.0488C61.8076 27.0488 62 27.2511 62 27.5004C62 29.2436 60.6492 30.6617 58.9892 30.6617Z" fill="#4BA543"/>
<path d="M58.1335 25.2417H58.5591C59.2717 25.2417 59.8494 25.8483 59.8494 26.5965V27.9513L59.248 28.4029C58.6059 28.4029 58.0615 27.9071 57.9707 27.2397L58.1335 25.2417Z" fill="#966A5B"/>
<path d="M59.8503 27.9513H59.249C58.8209 27.9513 58.4579 27.6208 58.3974 27.1758L58.1343 25.2417H57.7642C57.5028 25.2417 57.3018 25.4845 57.3383 25.7562L57.5456 27.3035C57.6657 28.1877 58.3983 28.8546 59.2488 28.8546H59.4202C59.6577 28.8546 59.8503 28.6524 59.8503 28.403V27.9513H59.8503Z" fill="#785353"/>
<path d="M27.9173 59.5C27.822 59.5 27.7483 59.474 27.6963 59.422C27.6443 59.3613 27.6183 59.2877 27.6183 59.201V50.712C27.6183 50.6167 27.6443 50.543 27.6963 50.491C27.7483 50.4303 27.822 50.4 27.9173 50.4H28.5803C28.6756 50.4 28.7493 50.4303 28.8013 50.491C28.862 50.543 28.8923 50.6167 28.8923 50.712V54.3H33.3643V50.712C33.3643 50.6167 33.3903 50.543 33.4423 50.491C33.503 50.4303 33.5766 50.4 33.6633 50.4H34.3263C34.4216 50.4 34.4953 50.4303 34.5473 50.491C34.608 50.543 34.6383 50.6167 34.6383 50.712V59.201C34.6383 59.2877 34.608 59.3613 34.5473 59.422C34.4953 59.474 34.4216 59.5 34.3263 59.5H33.6633C33.5766 59.5 33.503 59.474 33.4423 59.422C33.3903 59.3613 33.3643 59.2877 33.3643 59.201V55.47H28.8923V59.201C28.8923 59.2877 28.862 59.3613 28.8013 59.422C28.7493 59.474 28.6756 59.5 28.5803 59.5H27.9173ZM37.0159 59.5C36.9292 59.5 36.8555 59.474 36.7949 59.422C36.7429 59.3613 36.7169 59.2877 36.7169 59.201V53.039C36.7169 52.9523 36.7429 52.883 36.7949 52.831C36.8555 52.7703 36.9292 52.74 37.0159 52.74H37.6399C37.7265 52.74 37.7959 52.7703 37.8479 52.831C37.8999 52.883 37.9259 52.9523 37.9259 53.039V59.201C37.9259 59.2877 37.8999 59.3613 37.8479 59.422C37.7959 59.474 37.7265 59.5 37.6399 59.5H37.0159ZM36.9119 51.479C36.8252 51.479 36.7515 51.453 36.6909 51.401C36.6389 51.3403 36.6129 51.2667 36.6129 51.18V50.478C36.6129 50.3913 36.6389 50.322 36.6909 50.27C36.7515 50.2093 36.8252 50.179 36.9119 50.179H37.7309C37.8175 50.179 37.8869 50.2093 37.9389 50.27C37.9995 50.322 38.0299 50.3913 38.0299 50.478V51.18C38.0299 51.2667 37.9995 51.3403 37.9389 51.401C37.8869 51.453 37.8175 51.479 37.7309 51.479H36.9119ZM42.2053 59.63C41.72 59.63 41.304 59.5693 40.9573 59.448C40.6107 59.3267 40.329 59.1793 40.1123 59.006C39.8957 58.8327 39.731 58.6593 39.6183 58.486C39.5143 58.3127 39.458 58.174 39.4493 58.07C39.4407 57.9747 39.471 57.901 39.5403 57.849C39.6097 57.797 39.679 57.771 39.7483 57.771H40.3203C40.3723 57.771 40.4113 57.7797 40.4373 57.797C40.472 57.8057 40.5153 57.8403 40.5673 57.901C40.68 58.0223 40.8057 58.1437 40.9443 58.265C41.083 58.3863 41.252 58.486 41.4513 58.564C41.6593 58.642 41.915 58.681 42.2183 58.681C42.6603 58.681 43.0243 58.5987 43.3103 58.434C43.5963 58.2607 43.7393 58.0093 43.7393 57.68C43.7393 57.4633 43.6787 57.29 43.5573 57.16C43.4447 57.03 43.2367 56.913 42.9333 56.809C42.6387 56.705 42.2313 56.5967 41.7113 56.484C41.1913 56.3627 40.7797 56.2153 40.4763 56.042C40.173 55.86 39.9563 55.6477 39.8263 55.405C39.6963 55.1537 39.6313 54.872 39.6313 54.56C39.6313 54.2393 39.7267 53.9317 39.9173 53.637C40.108 53.3337 40.3853 53.0867 40.7493 52.896C41.122 52.7053 41.5857 52.61 42.1403 52.61C42.591 52.61 42.9767 52.6663 43.2973 52.779C43.618 52.8917 43.8823 53.0347 44.0903 53.208C44.2983 53.3727 44.4543 53.5373 44.5583 53.702C44.6623 53.8667 44.7187 54.0053 44.7273 54.118C44.736 54.2047 44.71 54.2783 44.6493 54.339C44.5887 54.391 44.5193 54.417 44.4413 54.417H43.8953C43.8347 54.417 43.7827 54.404 43.7393 54.378C43.7047 54.352 43.67 54.3217 43.6353 54.287C43.5487 54.1743 43.4447 54.0617 43.3233 53.949C43.2107 53.8363 43.059 53.7453 42.8683 53.676C42.6863 53.598 42.4437 53.559 42.1403 53.559C41.707 53.559 41.382 53.65 41.1653 53.832C40.9487 54.014 40.8403 54.2437 40.8403 54.521C40.8403 54.6857 40.888 54.833 40.9833 54.963C41.0787 55.093 41.2607 55.21 41.5293 55.314C41.798 55.418 42.1967 55.5307 42.7253 55.652C43.2973 55.7647 43.748 55.9163 44.0773 56.107C44.4067 56.2977 44.6407 56.5187 44.7793 56.77C44.918 57.0213 44.9873 57.3117 44.9873 57.641C44.9873 58.005 44.879 58.3387 44.6623 58.642C44.4543 58.9453 44.1423 59.188 43.7263 59.37C43.319 59.5433 42.812 59.63 42.2053 59.63ZM49.1186 59.5C48.6332 59.5 48.2389 59.409 47.9356 59.227C47.6322 59.0363 47.4112 58.772 47.2726 58.434C47.1339 58.0873 47.0646 57.68 47.0646 57.212V53.78H46.0506C45.9639 53.78 45.8902 53.754 45.8296 53.702C45.7776 53.6413 45.7516 53.5677 45.7516 53.481V53.039C45.7516 52.9523 45.7776 52.883 45.8296 52.831C45.8902 52.7703 45.9639 52.74 46.0506 52.74H47.0646V50.569C47.0646 50.4823 47.0906 50.413 47.1426 50.361C47.2032 50.3003 47.2769 50.27 47.3636 50.27H47.9746C48.0612 50.27 48.1306 50.3003 48.1826 50.361C48.2432 50.413 48.2736 50.4823 48.2736 50.569V52.74H49.8856C49.9722 52.74 50.0416 52.7703 50.0936 52.831C50.1542 52.883 50.1846 52.9523 50.1846 53.039V53.481C50.1846 53.5677 50.1542 53.6413 50.0936 53.702C50.0416 53.754 49.9722 53.78 49.8856 53.78H48.2736V57.121C48.2736 57.5283 48.3429 57.849 48.4816 58.083C48.6202 58.317 48.8672 58.434 49.2226 58.434H50.0156C50.1022 58.434 50.1716 58.4643 50.2236 58.525C50.2842 58.577 50.3146 58.6463 50.3146 58.733V59.201C50.3146 59.2877 50.2842 59.3613 50.2236 59.422C50.1716 59.474 50.1022 59.5 50.0156 59.5H49.1186ZM54.3267 59.63C53.668 59.63 53.1177 59.5043 52.6757 59.253C52.2337 59.0017 51.8957 58.655 51.6617 58.213C51.4277 57.7623 51.2977 57.251 51.2717 56.679C51.263 56.5317 51.2587 56.3453 51.2587 56.12C51.2587 55.886 51.263 55.6997 51.2717 55.561C51.2977 54.9803 51.4277 54.469 51.6617 54.027C51.9044 53.585 52.2467 53.2383 52.6887 52.987C53.1307 52.7357 53.6767 52.61 54.3267 52.61C54.9767 52.61 55.5227 52.7357 55.9647 52.987C56.4067 53.2383 56.7447 53.585 56.9787 54.027C57.2214 54.469 57.3557 54.9803 57.3817 55.561C57.3904 55.6997 57.3947 55.886 57.3947 56.12C57.3947 56.3453 57.3904 56.5317 57.3817 56.679C57.3557 57.251 57.2257 57.7623 56.9917 58.213C56.7577 58.655 56.4197 59.0017 55.9777 59.253C55.5357 59.5043 54.9854 59.63 54.3267 59.63ZM54.3267 58.629C54.864 58.629 55.293 58.46 55.6137 58.122C55.9344 57.7753 56.1077 57.2727 56.1337 56.614C56.1424 56.484 56.1467 56.3193 56.1467 56.12C56.1467 55.9207 56.1424 55.756 56.1337 55.626C56.1077 54.9673 55.9344 54.469 55.6137 54.131C55.293 53.7843 54.864 53.611 54.3267 53.611C53.7894 53.611 53.356 53.7843 53.0267 54.131C52.706 54.469 52.537 54.9673 52.5197 55.626C52.511 55.756 52.5067 55.9207 52.5067 56.12C52.5067 56.3193 52.511 56.484 52.5197 56.614C52.537 57.2727 52.706 57.7753 53.0267 58.122C53.356 58.46 53.7894 58.629 54.3267 58.629ZM59.3215 59.5C59.2349 59.5 59.1612 59.474 59.1005 59.422C59.0485 59.3613 59.0225 59.2877 59.0225 59.201V53.052C59.0225 52.9653 59.0485 52.8917 59.1005 52.831C59.1612 52.7703 59.2349 52.74 59.3215 52.74H59.9195C60.0062 52.74 60.0799 52.7703 60.1405 52.831C60.2012 52.8917 60.2315 52.9653 60.2315 53.052V53.624C60.4049 53.3293 60.6432 53.1083 60.9465 52.961C61.2499 52.8137 61.6139 52.74 62.0385 52.74H62.5585C62.6452 52.74 62.7145 52.7703 62.7665 52.831C62.8185 52.883 62.8445 52.9523 62.8445 53.039V53.572C62.8445 53.6587 62.8185 53.728 62.7665 53.78C62.7145 53.832 62.6452 53.858 62.5585 53.858H61.7785C61.3105 53.858 60.9422 53.9967 60.6735 54.274C60.4049 54.5427 60.2705 54.911 60.2705 55.379V59.201C60.2705 59.2877 60.2402 59.3613 60.1795 59.422C60.1189 59.474 60.0452 59.5 59.9585 59.5H59.3215ZM64.26 59.5C64.1734 59.5 64.0997 59.474 64.039 59.422C63.987 59.3613 63.961 59.2877 63.961 59.201V53.039C63.961 52.9523 63.987 52.883 64.039 52.831C64.0997 52.7703 64.1734 52.74 64.26 52.74H64.884C64.9707 52.74 65.04 52.7703 65.092 52.831C65.144 52.883 65.17 52.9523 65.17 53.039V59.201C65.17 59.2877 65.144 59.3613 65.092 59.422C65.04 59.474 64.9707 59.5 64.884 59.5H64.26ZM64.156 51.479C64.0694 51.479 63.9957 51.453 63.935 51.401C63.883 51.3403 63.857 51.2667 63.857 51.18V50.478C63.857 50.3913 63.883 50.322 63.935 50.27C63.9957 50.2093 64.0694 50.179 64.156 50.179H64.975C65.0617 50.179 65.131 50.2093 65.183 50.27C65.2437 50.322 65.274 50.3913 65.274 50.478V51.18C65.274 51.2667 65.2437 51.3403 65.183 51.401C65.131 51.453 65.0617 51.479 64.975 51.479H64.156ZM68.9945 59.63C68.5611 59.63 68.1668 59.5433 67.8115 59.37C67.4561 59.1967 67.1701 58.9627 66.9535 58.668C66.7368 58.3733 66.6285 58.0397 66.6285 57.667C66.6285 57.069 66.8711 56.5923 67.3565 56.237C67.8418 55.8817 68.4745 55.6477 69.2545 55.535L71.1915 55.262V54.885C71.1915 54.469 71.0701 54.144 70.8275 53.91C70.5935 53.676 70.2078 53.559 69.6705 53.559C69.2805 53.559 68.9641 53.637 68.7215 53.793C68.4875 53.949 68.3228 54.1483 68.2275 54.391C68.1755 54.521 68.0845 54.586 67.9545 54.586H67.3695C67.2741 54.586 67.2005 54.56 67.1485 54.508C67.1051 54.4473 67.0835 54.378 67.0835 54.3C67.0835 54.17 67.1311 54.0097 67.2265 53.819C67.3305 53.6283 67.4865 53.442 67.6945 53.26C67.9025 53.078 68.1668 52.9263 68.4875 52.805C68.8168 52.675 69.2155 52.61 69.6835 52.61C70.2035 52.61 70.6411 52.6793 70.9965 52.818C71.3518 52.948 71.6291 53.1257 71.8285 53.351C72.0365 53.5763 72.1838 53.832 72.2705 54.118C72.3658 54.404 72.4135 54.6943 72.4135 54.989V59.201C72.4135 59.2877 72.3831 59.3613 72.3225 59.422C72.2705 59.474 72.2011 59.5 72.1145 59.5H71.5165C71.4211 59.5 71.3475 59.474 71.2955 59.422C71.2435 59.3613 71.2175 59.2877 71.2175 59.201V58.642C71.1048 58.798 70.9531 58.954 70.7625 59.11C70.5718 59.2573 70.3335 59.383 70.0475 59.487C69.7615 59.5823 69.4105 59.63 68.9945 59.63ZM69.2675 58.655C69.6228 58.655 69.9478 58.5813 70.2425 58.434C70.5371 58.278 70.7668 58.0397 70.9315 57.719C71.1048 57.3983 71.1915 56.9953 71.1915 56.51V56.146L69.6835 56.367C69.0681 56.4537 68.6045 56.601 68.2925 56.809C67.9805 57.0083 67.8245 57.264 67.8245 57.576C67.8245 57.8187 67.8938 58.0223 68.0325 58.187C68.1798 58.343 68.3618 58.46 68.5785 58.538C68.8038 58.616 69.0335 58.655 69.2675 58.655ZM79.9388 59.63C79.4622 59.63 79.0505 59.5477 78.7038 59.383C78.3572 59.2097 78.0712 58.98 77.8458 58.694C77.6292 58.3993 77.4645 58.0657 77.3518 57.693C77.2478 57.3203 77.1872 56.926 77.1698 56.51C77.1612 56.3713 77.1568 56.2413 77.1568 56.12C77.1568 55.9987 77.1612 55.8687 77.1698 55.73C77.1872 55.3227 77.2478 54.9327 77.3518 54.56C77.4645 54.1873 77.6292 53.8537 77.8458 53.559C78.0712 53.2643 78.3572 53.0347 78.7038 52.87C79.0505 52.6967 79.4622 52.61 79.9388 52.61C80.4502 52.61 80.8748 52.701 81.2128 52.883C81.5508 53.065 81.8282 53.2903 82.0448 53.559V50.569C82.0448 50.4823 82.0708 50.413 82.1228 50.361C82.1835 50.3003 82.2572 50.27 82.3438 50.27H82.9678C83.0545 50.27 83.1238 50.3003 83.1758 50.361C83.2365 50.413 83.2668 50.4823 83.2668 50.569V59.201C83.2668 59.2877 83.2365 59.3613 83.1758 59.422C83.1238 59.474 83.0545 59.5 82.9678 59.5H82.3828C82.2875 59.5 82.2138 59.474 82.1618 59.422C82.1098 59.3613 82.0838 59.2877 82.0838 59.201V58.655C81.8672 58.9323 81.5855 59.1663 81.2388 59.357C80.8922 59.539 80.4588 59.63 79.9388 59.63ZM80.2118 58.577C80.6452 58.577 80.9918 58.4773 81.2518 58.278C81.5118 58.0787 81.7068 57.8273 81.8368 57.524C81.9668 57.212 82.0362 56.8957 82.0448 56.575C82.0535 56.4363 82.0578 56.2717 82.0578 56.081C82.0578 55.8817 82.0535 55.7127 82.0448 55.574C82.0362 55.2707 81.9625 54.9717 81.8238 54.677C81.6938 54.3823 81.4945 54.1397 81.2258 53.949C80.9658 53.7583 80.6278 53.663 80.2118 53.663C79.7698 53.663 79.4188 53.7627 79.1588 53.962C78.8988 54.1527 78.7125 54.4083 78.5998 54.729C78.4872 55.041 78.4222 55.379 78.4048 55.743C78.3962 55.9943 78.3962 56.2457 78.4048 56.497C78.4222 56.861 78.4872 57.2033 78.5998 57.524C78.7125 57.836 78.8988 58.0917 79.1588 58.291C79.4188 58.4817 79.7698 58.577 80.2118 58.577ZM87.8913 59.63C86.9986 59.63 86.2879 59.357 85.7593 58.811C85.2306 58.2563 84.9403 57.5023 84.8883 56.549C84.8796 56.4363 84.8753 56.2933 84.8753 56.12C84.8753 55.938 84.8796 55.7907 84.8883 55.678C84.9229 55.0627 85.0659 54.5253 85.3173 54.066C85.5686 53.598 85.9109 53.2383 86.3443 52.987C86.7863 52.7357 87.3019 52.61 87.8913 52.61C88.5499 52.61 89.1003 52.7487 89.5423 53.026C89.9929 53.3033 90.3353 53.6977 90.5693 54.209C90.8033 54.7203 90.9203 55.3183 90.9203 56.003V56.224C90.9203 56.3193 90.8899 56.393 90.8293 56.445C90.7773 56.497 90.7079 56.523 90.6213 56.523H86.1233C86.1233 56.5317 86.1233 56.549 86.1233 56.575C86.1233 56.601 86.1233 56.6227 86.1233 56.64C86.1406 56.9953 86.2186 57.329 86.3573 57.641C86.4959 57.9443 86.6953 58.1913 86.9553 58.382C87.2153 58.5727 87.5273 58.668 87.8913 58.668C88.2033 58.668 88.4633 58.6203 88.6713 58.525C88.8793 58.4297 89.0483 58.3257 89.1783 58.213C89.3083 58.0917 89.3949 58.0007 89.4383 57.94C89.5163 57.8273 89.5769 57.7623 89.6203 57.745C89.6636 57.719 89.7329 57.706 89.8283 57.706H90.4523C90.5389 57.706 90.6083 57.732 90.6603 57.784C90.7209 57.8273 90.7469 57.8923 90.7383 57.979C90.7296 58.109 90.6603 58.2693 90.5303 58.46C90.4003 58.642 90.2139 58.824 89.9713 59.006C89.7286 59.188 89.4339 59.3397 89.0873 59.461C88.7406 59.5737 88.3419 59.63 87.8913 59.63ZM86.1233 55.626H89.6853V55.587C89.6853 55.197 89.6116 54.8503 89.4643 54.547C89.3256 54.2437 89.1219 54.0053 88.8533 53.832C88.5846 53.65 88.2639 53.559 87.8913 53.559C87.5186 53.559 87.1979 53.65 86.9293 53.832C86.6693 54.0053 86.4699 54.2437 86.3313 54.547C86.1926 54.8503 86.1233 55.197 86.1233 55.587V55.626ZM39.305 74.5C39.2183 74.5 39.1447 74.474 39.084 74.422C39.032 74.3613 39.006 74.2877 39.006 74.201V65.712C39.006 65.6167 39.032 65.543 39.084 65.491C39.1447 65.4303 39.2183 65.4 39.305 65.4H39.955C40.059 65.4 40.137 65.426 40.189 65.478C40.241 65.53 40.2713 65.5733 40.28 65.608L43.036 70.86L45.805 65.608C45.8223 65.5733 45.8527 65.53 45.896 65.478C45.948 65.426 46.026 65.4 46.13 65.4H46.767C46.8623 65.4 46.936 65.4303 46.988 65.491C47.0487 65.543 47.079 65.6167 47.079 65.712V74.201C47.079 74.2877 47.0487 74.3613 46.988 74.422C46.936 74.474 46.8623 74.5 46.767 74.5H46.13C46.0433 74.5 45.9697 74.474 45.909 74.422C45.857 74.3613 45.831 74.2877 45.831 74.201V67.805L43.66 72.043C43.6253 72.1297 43.5733 72.199 43.504 72.251C43.4347 72.2943 43.348 72.316 43.244 72.316H42.841C42.7283 72.316 42.6373 72.2943 42.568 72.251C42.5073 72.199 42.4553 72.1297 42.412 72.043L40.241 67.805V74.201C40.241 74.2877 40.2107 74.3613 40.15 74.422C40.098 74.474 40.0287 74.5 39.942 74.5H39.305ZM51.8493 74.63C50.9566 74.63 50.246 74.357 49.7173 73.811C49.1886 73.2563 48.8983 72.5023 48.8463 71.549C48.8376 71.4363 48.8333 71.2933 48.8333 71.12C48.8333 70.938 48.8376 70.7907 48.8463 70.678C48.881 70.0627 49.024 69.5253 49.2753 69.066C49.5266 68.598 49.869 68.2383 50.3023 67.987C50.7443 67.7357 51.26 67.61 51.8493 67.61C52.508 67.61 53.0583 67.7487 53.5003 68.026C53.951 68.3033 54.2933 68.6977 54.5273 69.209C54.7613 69.7203 54.8783 70.3183 54.8783 71.003V71.224C54.8783 71.3193 54.848 71.393 54.7873 71.445C54.7353 71.497 54.666 71.523 54.5793 71.523H50.0813C50.0813 71.5317 50.0813 71.549 50.0813 71.575C50.0813 71.601 50.0813 71.6227 50.0813 71.64C50.0986 71.9953 50.1766 72.329 50.3153 72.641C50.454 72.9443 50.6533 73.1913 50.9133 73.382C51.1733 73.5727 51.4853 73.668 51.8493 73.668C52.1613 73.668 52.4213 73.6203 52.6293 73.525C52.8373 73.4297 53.0063 73.3257 53.1363 73.213C53.2663 73.0917 53.353 73.0007 53.3963 72.94C53.4743 72.8273 53.535 72.7623 53.5783 72.745C53.6216 72.719 53.691 72.706 53.7863 72.706H54.4103C54.497 72.706 54.5663 72.732 54.6183 72.784C54.679 72.8273 54.705 72.8923 54.6963 72.979C54.6876 73.109 54.6183 73.2693 54.4883 73.46C54.3583 73.642 54.172 73.824 53.9293 74.006C53.6866 74.188 53.392 74.3397 53.0453 74.461C52.6986 74.5737 52.3 74.63 51.8493 74.63ZM50.0813 70.626H53.6433V70.587C53.6433 70.197 53.5696 69.8503 53.4223 69.547C53.2836 69.2437 53.08 69.0053 52.8113 68.832C52.5426 68.65 52.222 68.559 51.8493 68.559C51.4766 68.559 51.156 68.65 50.8873 68.832C50.6273 69.0053 50.428 69.2437 50.2893 69.547C50.1506 69.8503 50.0813 70.197 50.0813 70.587V70.626ZM51.4983 66.765C51.3596 66.765 51.2903 66.6957 51.2903 66.557C51.2903 66.4877 51.312 66.4313 51.3553 66.388L52.3303 65.218C52.4083 65.1227 52.4776 65.062 52.5383 65.036C52.599 65.0013 52.69 64.984 52.8113 64.984H53.6953C53.86 64.984 53.9423 65.0663 53.9423 65.231C53.9423 65.2917 53.9206 65.3437 53.8773 65.387L52.3693 66.622C52.3 66.6827 52.235 66.7217 52.1743 66.739C52.1136 66.7563 52.0356 66.765 51.9403 66.765H51.4983ZM55.9811 74.5C55.9117 74.5 55.8467 74.474 55.7861 74.422C55.7341 74.37 55.7081 74.305 55.7081 74.227C55.7081 74.201 55.7124 74.1707 55.7211 74.136C55.7384 74.0927 55.7644 74.045 55.7991 73.993L58.0611 71.042L55.9421 68.247C55.9074 68.195 55.8814 68.1517 55.8641 68.117C55.8554 68.0823 55.8511 68.0477 55.8511 68.013C55.8511 67.935 55.8771 67.87 55.9291 67.818C55.9811 67.766 56.0461 67.74 56.1241 67.74H56.7871C56.8824 67.74 56.9517 67.766 56.9951 67.818C57.0471 67.8613 57.0904 67.9047 57.1251 67.948L58.8541 70.197L60.5831 67.961C60.6177 67.9177 60.6567 67.87 60.7001 67.818C60.7521 67.766 60.8257 67.74 60.9211 67.74H61.5581C61.6361 67.74 61.7011 67.766 61.7531 67.818C61.8051 67.87 61.8311 67.935 61.8311 68.013C61.8311 68.0477 61.8224 68.0823 61.8051 68.117C61.7964 68.1517 61.7747 68.195 61.7401 68.247L59.5951 71.068L61.8571 73.993C61.8917 74.045 61.9134 74.0883 61.9221 74.123C61.9394 74.1577 61.9481 74.1923 61.9481 74.227C61.9481 74.305 61.9221 74.37 61.8701 74.422C61.8181 74.474 61.7531 74.5 61.6751 74.5H60.9861C60.8994 74.5 60.8301 74.4783 60.7781 74.435C60.7261 74.3917 60.6827 74.3483 60.6481 74.305L58.8151 71.926L56.9821 74.305C56.9474 74.3397 56.9041 74.383 56.8521 74.435C56.8087 74.4783 56.7394 74.5 56.6441 74.5H55.9811ZM63.5999 74.5C63.5132 74.5 63.4395 74.474 63.3789 74.422C63.3269 74.3613 63.3009 74.2877 63.3009 74.201V68.039C63.3009 67.9523 63.3269 67.883 63.3789 67.831C63.4395 67.7703 63.5132 67.74 63.5999 67.74H64.2239C64.3105 67.74 64.3799 67.7703 64.4319 67.831C64.4839 67.883 64.5099 67.9523 64.5099 68.039V74.201C64.5099 74.2877 64.4839 74.3613 64.4319 74.422C64.3799 74.474 64.3105 74.5 64.2239 74.5H63.5999ZM63.4959 66.479C63.4092 66.479 63.3355 66.453 63.2749 66.401C63.2229 66.3403 63.1969 66.2667 63.1969 66.18V65.478C63.1969 65.3913 63.2229 65.322 63.2749 65.27C63.3355 65.2093 63.4092 65.179 63.4959 65.179H64.3149C64.4015 65.179 64.4709 65.2093 64.5229 65.27C64.5835 65.322 64.6139 65.3913 64.6139 65.478V66.18C64.6139 66.2667 64.5835 66.3403 64.5229 66.401C64.4709 66.453 64.4015 66.479 64.3149 66.479H63.4959ZM69.1793 74.63C68.564 74.63 68.031 74.513 67.5803 74.279C67.1383 74.0363 66.796 73.694 66.5533 73.252C66.3106 72.8013 66.1806 72.264 66.1633 71.64C66.1546 71.51 66.1503 71.3367 66.1503 71.12C66.1503 70.9033 66.1546 70.73 66.1633 70.6C66.1806 69.976 66.3106 69.443 66.5533 69.001C66.796 68.5503 67.1383 68.208 67.5803 67.974C68.031 67.7313 68.564 67.61 69.1793 67.61C69.682 67.61 70.111 67.6793 70.4663 67.818C70.8303 67.9567 71.1293 68.1343 71.3633 68.351C71.5973 68.5677 71.7706 68.8017 71.8833 69.053C72.0046 69.3043 72.0696 69.5427 72.0783 69.768C72.087 69.8547 72.061 69.924 72.0003 69.976C71.9396 70.028 71.866 70.054 71.7793 70.054H71.1553C71.0686 70.054 71.0036 70.0367 70.9603 70.002C70.917 69.9587 70.8736 69.8893 70.8303 69.794C70.6743 69.3693 70.462 69.0703 70.1933 68.897C69.9246 68.7237 69.591 68.637 69.1923 68.637C68.6723 68.637 68.2476 68.7973 67.9183 69.118C67.5976 69.4387 67.4243 69.9543 67.3983 70.665C67.3896 70.977 67.3896 71.2803 67.3983 71.575C67.4243 72.2943 67.5976 72.8143 67.9183 73.135C68.2476 73.447 68.6723 73.603 69.1923 73.603C69.591 73.603 69.9246 73.5163 70.1933 73.343C70.462 73.1697 70.6743 72.8707 70.8303 72.446C70.8736 72.3507 70.917 72.2857 70.9603 72.251C71.0036 72.2077 71.0686 72.186 71.1553 72.186H71.7793C71.866 72.186 71.9396 72.212 72.0003 72.264C72.061 72.316 72.087 72.3853 72.0783 72.472C72.0696 72.654 72.0306 72.8403 71.9613 73.031C71.892 73.2217 71.7793 73.4167 71.6233 73.616C71.476 73.8067 71.2896 73.98 71.0643 74.136C70.839 74.2833 70.566 74.4047 70.2453 74.5C69.9333 74.5867 69.578 74.63 69.1793 74.63ZM76.3912 74.63C75.7325 74.63 75.1822 74.5043 74.7402 74.253C74.2982 74.0017 73.9602 73.655 73.7262 73.213C73.4922 72.7623 73.3622 72.251 73.3362 71.679C73.3275 71.5317 73.3232 71.3453 73.3232 71.12C73.3232 70.886 73.3275 70.6997 73.3362 70.561C73.3622 69.9803 73.4922 69.469 73.7262 69.027C73.9688 68.585 74.3112 68.2383 74.7532 67.987C75.1952 67.7357 75.7412 67.61 76.3912 67.61C77.0412 67.61 77.5872 67.7357 78.0292 67.987C78.4712 68.2383 78.8092 68.585 79.0432 69.027C79.2858 69.469 79.4202 69.9803 79.4462 70.561C79.4548 70.6997 79.4592 70.886 79.4592 71.12C79.4592 71.3453 79.4548 71.5317 79.4462 71.679C79.4202 72.251 79.2902 72.7623 79.0562 73.213C78.8222 73.655 78.4842 74.0017 78.0422 74.253C77.6002 74.5043 77.0498 74.63 76.3912 74.63ZM76.3912 73.629C76.9285 73.629 77.3575 73.46 77.6782 73.122C77.9988 72.7753 78.1722 72.2727 78.1982 71.614C78.2068 71.484 78.2112 71.3193 78.2112 71.12C78.2112 70.9207 78.2068 70.756 78.1982 70.626C78.1722 69.9673 77.9988 69.469 77.6782 69.131C77.3575 68.7843 76.9285 68.611 76.3912 68.611C75.8538 68.611 75.4205 68.7843 75.0912 69.131C74.7705 69.469 74.6015 69.9673 74.5842 70.626C74.5755 70.756 74.5712 70.9207 74.5712 71.12C74.5712 71.3193 74.5755 71.484 74.5842 71.614C74.6015 72.2727 74.7705 72.7753 75.0912 73.122C75.4205 73.46 75.8538 73.629 76.3912 73.629Z" fill="#171B22"/>
<rect x="40.5" y="81.5" width="37" height="25" rx="12.5" fill="#47830E"/>
<path d="M53.3417 98.64C52.6697 98.64 52.0864 98.5467 51.5917 98.36C51.097 98.164 50.6864 97.898 50.3597 97.562C50.0424 97.226 49.7997 96.834 49.6317 96.386C49.4637 95.938 49.3657 95.4573 49.3377 94.944C49.3284 94.692 49.319 94.4073 49.3097 94.09C49.3097 93.7633 49.3097 93.4367 49.3097 93.11C49.319 92.774 49.3284 92.4753 49.3377 92.214C49.3657 91.7007 49.4637 91.2247 49.6317 90.786C49.809 90.338 50.061 89.9507 50.3877 89.624C50.7237 89.288 51.1344 89.0267 51.6197 88.84C52.1144 88.6533 52.6884 88.56 53.3417 88.56C54.0044 88.56 54.5784 88.6533 55.0637 88.84C55.549 89.0267 55.955 89.288 56.2817 89.624C56.6177 89.9507 56.8744 90.338 57.0517 90.786C57.229 91.2247 57.327 91.7007 57.3457 92.214C57.3644 92.4753 57.3737 92.774 57.3737 93.11C57.383 93.4367 57.383 93.7633 57.3737 94.09C57.3737 94.4073 57.3644 94.692 57.3457 94.944C57.327 95.4573 57.229 95.938 57.0517 96.386C56.8837 96.834 56.6364 97.226 56.3097 97.562C55.9924 97.898 55.5864 98.164 55.0917 98.36C54.6064 98.5467 54.023 98.64 53.3417 98.64ZM53.3417 96.61C53.827 96.61 54.177 96.456 54.3917 96.148C54.6157 95.8307 54.7324 95.406 54.7417 94.874C54.7604 94.6033 54.7697 94.3187 54.7697 94.02C54.779 93.7213 54.779 93.4227 54.7697 93.124C54.7697 92.8253 54.7604 92.55 54.7417 92.298C54.7324 91.7847 54.6157 91.3693 54.3917 91.052C54.177 90.7347 53.827 90.5713 53.3417 90.562C52.8564 90.5713 52.5064 90.7347 52.2917 91.052C52.077 91.3693 51.9604 91.7847 51.9417 92.298C51.9324 92.55 51.923 92.8253 51.9137 93.124C51.9137 93.4227 51.9137 93.7213 51.9137 94.02C51.923 94.3187 51.9324 94.6033 51.9417 94.874C51.9604 95.406 52.0817 95.8307 52.3057 96.148C52.5297 96.456 52.875 96.61 53.3417 96.61ZM59.6793 98.5C59.4647 98.5 59.3573 98.4067 59.3573 98.22C59.3573 98.164 59.376 98.1127 59.4133 98.066L66.3293 88.966C66.3947 88.882 66.46 88.8167 66.5253 88.77C66.5907 88.7233 66.6887 88.7 66.8193 88.7H67.8133C68.028 88.7 68.1353 88.7933 68.1353 88.98C68.1353 89.036 68.1167 89.0873 68.0793 89.134L61.1633 98.234C61.098 98.318 61.0327 98.3833 60.9673 98.43C60.902 98.4767 60.804 98.5 60.6733 98.5H59.6793ZM66.7213 98.57C66.0867 98.57 65.578 98.402 65.1953 98.066C64.822 97.73 64.612 97.282 64.5653 96.722C64.556 96.4793 64.5513 96.2647 64.5513 96.078C64.5513 95.8913 64.556 95.6673 64.5653 95.406C64.6027 94.8367 64.8033 94.384 65.1673 94.048C65.5407 93.7027 66.0587 93.53 66.7213 93.53C67.3933 93.53 67.9113 93.7027 68.2753 94.048C68.6393 94.384 68.84 94.8367 68.8773 95.406C68.896 95.6673 68.9053 95.8913 68.9053 96.078C68.9053 96.2647 68.896 96.4793 68.8773 96.722C68.84 97.282 68.63 97.73 68.2473 98.066C67.8647 98.402 67.356 98.57 66.7213 98.57ZM66.7213 97.338C66.88 97.338 67.0013 97.3053 67.0853 97.24C67.1787 97.1747 67.2487 97.0907 67.2953 96.988C67.342 96.876 67.3653 96.7593 67.3653 96.638C67.384 96.4233 67.3933 96.2273 67.3933 96.05C67.3933 95.8727 67.384 95.6813 67.3653 95.476C67.356 95.2987 67.3047 95.14 67.2113 95C67.118 94.8507 66.9547 94.776 66.7213 94.776C66.488 94.776 66.3247 94.8507 66.2313 95C66.138 95.14 66.0867 95.2987 66.0773 95.476C66.068 95.6813 66.0633 95.8727 66.0633 96.05C66.0633 96.2273 66.068 96.4233 66.0773 96.638C66.0867 96.7593 66.11 96.876 66.1473 96.988C66.194 97.0907 66.264 97.1747 66.3573 97.24C66.4507 97.3053 66.572 97.338 66.7213 97.338ZM60.7993 93.642C60.1553 93.642 59.642 93.4787 59.2593 93.152C58.886 92.816 58.6807 92.368 58.6433 91.808C58.6247 91.5653 58.6153 91.3553 58.6153 91.178C58.6247 90.9913 58.634 90.7673 58.6433 90.506C58.6713 89.9367 58.8673 89.484 59.2313 89.148C59.6047 88.8027 60.1273 88.63 60.7993 88.63C61.4713 88.63 61.9893 88.8027 62.3533 89.148C62.7173 89.484 62.9133 89.9367 62.9413 90.506C62.96 90.7673 62.9693 90.9913 62.9693 91.178C62.9693 91.3553 62.96 91.5653 62.9413 91.808C62.9133 92.368 62.708 92.816 62.3253 93.152C61.9427 93.4787 61.434 93.642 60.7993 93.642ZM60.7993 92.438C60.9487 92.438 61.07 92.4053 61.1633 92.34C61.2567 92.2653 61.3267 92.1767 61.3733 92.074C61.42 91.962 61.4433 91.85 61.4433 91.738C61.462 91.5233 61.4713 91.3273 61.4713 91.15C61.4713 90.9727 61.462 90.7813 61.4433 90.576C61.434 90.3987 61.378 90.24 61.2753 90.1C61.182 89.9507 61.0233 89.876 60.7993 89.876C60.566 89.876 60.398 89.9507 60.2953 90.1C60.202 90.24 60.1507 90.3987 60.1413 90.576C60.132 90.7813 60.1273 90.9727 60.1273 91.15C60.1273 91.3273 60.132 91.5233 60.1413 91.738C60.1507 91.85 60.174 91.962 60.2113 92.074C60.258 92.1767 60.328 92.2653 60.4213 92.34C60.5147 92.4053 60.6407 92.438 60.7993 92.438Z" fill="white"/>
<g filter="url(#filter0_d_16167_41092)">
<rect x="88" y="14" width="32" height="32" rx="16" fill="white"/>
<rect x="87" y="13" width="34" height="34" rx="17" stroke="#1DA534" stroke-width="2"/>
<path opacity="0.4" d="M104 40C109.523 40 114 35.5228 114 30C114 24.4772 109.523 20 104 20C98.4772 20 94 24.4772 94 30C94 35.5228 98.4772 40 104 40Z" fill="#1DA534"/>
<path d="M102.579 33.5801C102.379 33.5801 102.189 33.5001 102.049 33.3601L99.2195 30.5301C98.9295 30.2401 98.9295 29.7601 99.2195 29.4701C99.5095 29.1801 99.9895 29.1801 100.279 29.4701L102.579 31.7701L107.719 26.6301C108.009 26.3401 108.489 26.3401 108.779 26.6301C109.069 26.9201 109.069 27.4001 108.779 27.6901L103.109 33.3601C102.969 33.5001 102.779 33.5801 102.579 33.5801Z" fill="#1DA534"/>
</g>
<defs>
<filter id="filter0_d_16167_41092" x="71" y="5" width="66" height="66" filterUnits="userSpaceOnUse" color-interpolation-filters="sRGB">
<feFlood flood-opacity="0" result="BackgroundImageFix"/>
<feColorMatrix in="SourceAlpha" type="matrix" values="0 0 0 0 0 0 0 0 0 0 0 0 0 0 0 0 0 0 127 0" result="hardAlpha"/>
<feOffset dy="8"/>
<feGaussianBlur stdDeviation="7.5"/>
<feColorMatrix type="matrix" values="0 0 0 0 0 0 0 0 0 0 0 0 0 0 0 0 0 0 0.25 0"/>
<feBlend mode="normal" in2="BackgroundImageFix" result="effect1_dropShadow_16167_41092"/>
<feBlend mode="normal" in="SourceGraphic" in2="effect1_dropShadow_16167_41092" result="shape"/>
</filter>
</defs>
</svg>
