<svg width="137" height="118" viewBox="0 0 137 118" fill="none" xmlns="http://www.w3.org/2000/svg">
<rect x="2" y="2" width="114" height="114" rx="57" fill="#E6F7F6"/>
<rect x="2" y="2" width="114" height="114" rx="57" stroke="#02AAA4" stroke-width="4"/>
<g clip-path="url(#clip0_16167_41094)">
<path opacity="0.4" d="M57.8917 14.1665H58.3592C58.4808 14.2096 58.6017 14.2096 58.7232 14.1665H59.971C60.1627 14.2339 60.3635 14.1943 60.5594 14.211C62.5539 14.3777 64.3595 15.0828 66.0553 16.1152C66.8889 16.6223 67.6503 17.2267 68.3402 17.9089C69.5337 19.0886 70.491 20.4412 71.1837 21.9786C71.6971 23.1179 72.0451 24.3038 72.223 25.539C72.3605 26.4949 72.3202 27.4592 72.3084 28.4214C72.298 29.2585 72.1472 30.0769 71.934 30.8835C71.3726 33.0016 70.3611 34.8725 68.8953 36.5037C67.7615 37.7653 66.4311 38.7601 64.9229 39.5174C63.6682 40.1475 62.3406 40.5643 60.9477 40.7616C60.624 40.8075 60.2947 40.7797 59.9716 40.8339H59.6597C59.5729 40.7915 59.4867 40.7915 59.3999 40.8339H58.2564C58.2217 40.8012 58.1869 40.8012 58.1522 40.8339H57.8924C57.4672 40.7713 57.0351 40.7811 56.6106 40.6998C54.8995 40.3733 53.3017 39.7633 51.8282 38.8282C50.9911 38.2968 50.2088 37.6931 49.5183 36.9851C47.4675 34.8822 46.1864 32.384 45.7487 29.4662C45.7077 29.1939 45.7341 28.916 45.6758 28.6458V28.2289C45.7182 28.1247 45.7182 28.0205 45.6758 27.9163V27.0306C45.7182 26.9264 45.7182 26.8221 45.6758 26.7179V26.4053C45.7348 26.1003 45.707 25.7877 45.7543 25.4806C46.1364 23.0234 47.1194 20.8399 48.6999 18.9218C49.8976 17.4678 51.3509 16.3368 53.0245 15.4941C54.2854 14.8605 55.6186 14.434 57.0205 14.2388C57.3095 14.1985 57.6041 14.2228 57.8917 14.1665Z" fill="#017974"/>
<path d="M62.2937 20.1709C62.152 20.1758 62.0242 20.1292 61.8936 20.0785C61.2558 19.8277 60.616 20.1542 60.4875 20.8302C60.2964 21.832 60.1408 22.8407 59.9727 23.8473C59.7205 25.357 59.4711 26.8666 59.2203 28.3762C58.9862 29.7837 58.7548 31.1912 58.5158 32.5973C58.4172 33.176 58.37 33.7672 58.1984 34.3299C57.7364 35.8451 56.0308 36.6232 54.5886 35.991C54.0919 35.7735 53.887 35.3296 54.0745 34.8787C54.2607 34.4313 54.7185 34.2667 55.2215 34.4654C55.9002 34.7335 56.5505 34.3751 56.679 33.6407C56.8499 32.6695 57.0007 31.6955 57.1612 30.7229C57.4106 29.2126 57.66 27.703 57.9107 26.1927C58.1629 24.6747 58.4158 23.1561 58.6694 21.6381C58.7347 21.2463 58.7923 20.8517 58.8743 20.4634C59.2279 18.7933 61.0689 17.8721 62.6084 18.5897C63.217 18.8732 63.3087 19.6429 62.78 20.0264C62.6355 20.1313 62.4723 20.1799 62.2937 20.1716V20.1709Z" fill="#017974"/>
</g>
<path d="M41.1013 59.63C40.304 59.63 39.641 59.4827 39.1123 59.188C38.5923 58.8933 38.198 58.4817 37.9293 57.953C37.6607 57.4243 37.5133 56.809 37.4873 56.107C37.4787 55.7517 37.4743 55.3703 37.4743 54.963C37.4743 54.5557 37.4787 54.1657 37.4873 53.793C37.5133 53.091 37.6607 52.4757 37.9293 51.947C38.198 51.4183 38.5923 51.0067 39.1123 50.712C39.641 50.4173 40.304 50.27 41.1013 50.27C41.6993 50.27 42.2237 50.3523 42.6743 50.517C43.125 50.6817 43.4977 50.9027 43.7923 51.18C44.0957 51.4573 44.3253 51.7693 44.4813 52.116C44.6373 52.454 44.724 52.805 44.7413 53.169C44.75 53.247 44.724 53.312 44.6633 53.364C44.6113 53.416 44.5463 53.442 44.4683 53.442H43.7533C43.6753 53.442 43.606 53.4203 43.5453 53.377C43.4933 53.3337 43.4543 53.2557 43.4283 53.143C43.281 52.467 43.0037 52.0033 42.5963 51.752C42.1977 51.5007 41.695 51.375 41.0883 51.375C40.395 51.375 39.8447 51.5743 39.4373 51.973C39.03 52.363 38.809 52.9913 38.7743 53.858C38.7483 54.5687 38.7483 55.2967 38.7743 56.042C38.809 56.9087 39.03 57.5413 39.4373 57.94C39.8447 58.33 40.395 58.525 41.0883 58.525C41.695 58.525 42.1977 58.3993 42.5963 58.148C43.0037 57.8967 43.281 57.433 43.4283 56.757C43.4543 56.6443 43.4933 56.5663 43.5453 56.523C43.606 56.4797 43.6753 56.458 43.7533 56.458H44.4683C44.5463 56.458 44.6113 56.484 44.6633 56.536C44.724 56.588 44.75 56.653 44.7413 56.731C44.724 57.095 44.6373 57.4503 44.4813 57.797C44.3253 58.135 44.0957 58.4427 43.7923 58.72C43.4977 58.9973 43.125 59.2183 42.6743 59.383C42.2237 59.5477 41.6993 59.63 41.1013 59.63ZM48.1995 59.63C47.7662 59.63 47.3719 59.5433 47.0165 59.37C46.6612 59.1967 46.3752 58.9627 46.1585 58.668C45.9419 58.3733 45.8335 58.0397 45.8335 57.667C45.8335 57.069 46.0762 56.5923 46.5615 56.237C47.0469 55.8817 47.6795 55.6477 48.4595 55.535L50.3965 55.262V54.885C50.3965 54.469 50.2752 54.144 50.0325 53.91C49.7985 53.676 49.4129 53.559 48.8755 53.559C48.4855 53.559 48.1692 53.637 47.9265 53.793C47.6925 53.949 47.5279 54.1483 47.4325 54.391C47.3805 54.521 47.2895 54.586 47.1595 54.586H46.5745C46.4792 54.586 46.4055 54.56 46.3535 54.508C46.3102 54.4473 46.2885 54.378 46.2885 54.3C46.2885 54.17 46.3362 54.0097 46.4315 53.819C46.5355 53.6283 46.6915 53.442 46.8995 53.26C47.1075 53.078 47.3719 52.9263 47.6925 52.805C48.0219 52.675 48.4205 52.61 48.8885 52.61C49.4085 52.61 49.8462 52.6793 50.2015 52.818C50.5569 52.948 50.8342 53.1257 51.0335 53.351C51.2415 53.5763 51.3889 53.832 51.4755 54.118C51.5709 54.404 51.6185 54.6943 51.6185 54.989V59.201C51.6185 59.2877 51.5882 59.3613 51.5275 59.422C51.4755 59.474 51.4062 59.5 51.3195 59.5H50.7215C50.6262 59.5 50.5525 59.474 50.5005 59.422C50.4485 59.3613 50.4225 59.2877 50.4225 59.201V58.642C50.3099 58.798 50.1582 58.954 49.9675 59.11C49.7769 59.2573 49.5385 59.383 49.2525 59.487C48.9665 59.5823 48.6155 59.63 48.1995 59.63ZM48.4725 58.655C48.8279 58.655 49.1529 58.5813 49.4475 58.434C49.7422 58.278 49.9719 58.0397 50.1365 57.719C50.3099 57.3983 50.3965 56.9953 50.3965 56.51V56.146L48.8885 56.367C48.2732 56.4537 47.8095 56.601 47.4975 56.809C47.1855 57.0083 47.0295 57.264 47.0295 57.576C47.0295 57.8187 47.0989 58.0223 47.2375 58.187C47.3849 58.343 47.5669 58.46 47.7835 58.538C48.0089 58.616 48.2385 58.655 48.4725 58.655ZM48.5505 51.765C48.4119 51.765 48.3425 51.6957 48.3425 51.557C48.3425 51.4877 48.3642 51.4313 48.4075 51.388L49.3825 50.218C49.4605 50.1227 49.5299 50.062 49.5905 50.036C49.6512 50.0013 49.7422 49.984 49.8635 49.984H50.7475C50.9122 49.984 50.9945 50.0663 50.9945 50.231C50.9945 50.2917 50.9729 50.3437 50.9295 50.387L49.4215 51.622C49.3522 51.6827 49.2872 51.7217 49.2265 51.739C49.1659 51.7563 49.0879 51.765 48.9925 51.765H48.5505ZM53.7994 59.5C53.7127 59.5 53.6391 59.474 53.5784 59.422C53.5264 59.3613 53.5004 59.2877 53.5004 59.201V50.569C53.5004 50.4823 53.5264 50.413 53.5784 50.361C53.6391 50.3003 53.7127 50.27 53.7994 50.27H54.4104C54.5057 50.27 54.5794 50.3003 54.6314 50.361C54.6834 50.413 54.7094 50.4823 54.7094 50.569V59.201C54.7094 59.2877 54.6834 59.3613 54.6314 59.422C54.5794 59.474 54.5057 59.5 54.4104 59.5H53.7994ZM59.3785 59.63C58.7632 59.63 58.2302 59.513 57.7795 59.279C57.3375 59.0363 56.9952 58.694 56.7525 58.252C56.5099 57.8013 56.3799 57.264 56.3625 56.64C56.3539 56.51 56.3495 56.3367 56.3495 56.12C56.3495 55.9033 56.3539 55.73 56.3625 55.6C56.3799 54.976 56.5099 54.443 56.7525 54.001C56.9952 53.5503 57.3375 53.208 57.7795 52.974C58.2302 52.7313 58.7632 52.61 59.3785 52.61C59.8812 52.61 60.3102 52.6793 60.6655 52.818C61.0295 52.9567 61.3285 53.1343 61.5625 53.351C61.7965 53.5677 61.9699 53.8017 62.0825 54.053C62.2039 54.3043 62.2689 54.5427 62.2775 54.768C62.2862 54.8547 62.2602 54.924 62.1995 54.976C62.1389 55.028 62.0652 55.054 61.9785 55.054H61.3545C61.2679 55.054 61.2029 55.0367 61.1595 55.002C61.1162 54.9587 61.0729 54.8893 61.0295 54.794C60.8735 54.3693 60.6612 54.0703 60.3925 53.897C60.1239 53.7237 59.7902 53.637 59.3915 53.637C58.8715 53.637 58.4469 53.7973 58.1175 54.118C57.7969 54.4387 57.6235 54.9543 57.5975 55.665C57.5889 55.977 57.5889 56.2803 57.5975 56.575C57.6235 57.2943 57.7969 57.8143 58.1175 58.135C58.4469 58.447 58.8715 58.603 59.3915 58.603C59.7902 58.603 60.1239 58.5163 60.3925 58.343C60.6612 58.1697 60.8735 57.8707 61.0295 57.446C61.0729 57.3507 61.1162 57.2857 61.1595 57.251C61.2029 57.2077 61.2679 57.186 61.3545 57.186H61.9785C62.0652 57.186 62.1389 57.212 62.1995 57.264C62.2602 57.316 62.2862 57.3853 62.2775 57.472C62.2689 57.654 62.2299 57.8403 62.1605 58.031C62.0912 58.2217 61.9785 58.4167 61.8225 58.616C61.6752 58.8067 61.4889 58.98 61.2635 59.136C61.0382 59.2833 60.7652 59.4047 60.4445 59.5C60.1325 59.5867 59.7772 59.63 59.3785 59.63ZM66.3434 59.63C65.7887 59.63 65.3164 59.5087 64.9264 59.266C64.545 59.0147 64.2547 58.668 64.0554 58.226C63.856 57.784 63.7564 57.277 63.7564 56.705V53.039C63.7564 52.9523 63.7824 52.883 63.8344 52.831C63.895 52.7703 63.9687 52.74 64.0554 52.74H64.7054C64.792 52.74 64.8614 52.7703 64.9134 52.831C64.974 52.883 65.0044 52.9523 65.0044 53.039V56.64C65.0044 57.9313 65.5677 58.577 66.6944 58.577C67.2317 58.577 67.6607 58.408 67.9814 58.07C68.3107 57.7233 68.4754 57.2467 68.4754 56.64V53.039C68.4754 52.9523 68.5014 52.883 68.5534 52.831C68.614 52.7703 68.6877 52.74 68.7744 52.74H69.4114C69.5067 52.74 69.5804 52.7703 69.6324 52.831C69.6844 52.883 69.7104 52.9523 69.7104 53.039V59.201C69.7104 59.2877 69.6844 59.3613 69.6324 59.422C69.5804 59.474 69.5067 59.5 69.4114 59.5H68.8134C68.7267 59.5 68.653 59.474 68.5924 59.422C68.5404 59.3613 68.5144 59.2877 68.5144 59.201V58.629C68.2804 58.9323 67.9944 59.175 67.6564 59.357C67.327 59.539 66.8894 59.63 66.3434 59.63ZM71.9537 59.5C71.867 59.5 71.7934 59.474 71.7327 59.422C71.6807 59.3613 71.6547 59.2877 71.6547 59.201V50.569C71.6547 50.4823 71.6807 50.413 71.7327 50.361C71.7934 50.3003 71.867 50.27 71.9537 50.27H72.5647C72.66 50.27 72.7337 50.3003 72.7857 50.361C72.8377 50.413 72.8637 50.4823 72.8637 50.569V59.201C72.8637 59.2877 72.8377 59.3613 72.7857 59.422C72.7337 59.474 72.66 59.5 72.5647 59.5H71.9537ZM77.5718 59.63C76.9132 59.63 76.3628 59.5043 75.9208 59.253C75.4788 59.0017 75.1408 58.655 74.9068 58.213C74.6728 57.7623 74.5428 57.251 74.5168 56.679C74.5082 56.5317 74.5038 56.3453 74.5038 56.12C74.5038 55.886 74.5082 55.6997 74.5168 55.561C74.5428 54.9803 74.6728 54.469 74.9068 54.027C75.1495 53.585 75.4918 53.2383 75.9338 52.987C76.3758 52.7357 76.9218 52.61 77.5718 52.61C78.2218 52.61 78.7678 52.7357 79.2098 52.987C79.6518 53.2383 79.9898 53.585 80.2238 54.027C80.4665 54.469 80.6008 54.9803 80.6268 55.561C80.6355 55.6997 80.6398 55.886 80.6398 56.12C80.6398 56.3453 80.6355 56.5317 80.6268 56.679C80.6008 57.251 80.4708 57.7623 80.2368 58.213C80.0028 58.655 79.6648 59.0017 79.2228 59.253C78.7808 59.5043 78.2305 59.63 77.5718 59.63ZM77.5718 58.629C78.1092 58.629 78.5382 58.46 78.8588 58.122C79.1795 57.7753 79.3528 57.2727 79.3788 56.614C79.3875 56.484 79.3918 56.3193 79.3918 56.12C79.3918 55.9207 79.3875 55.756 79.3788 55.626C79.3528 54.9673 79.1795 54.469 78.8588 54.131C78.5382 53.7843 78.1092 53.611 77.5718 53.611C77.0345 53.611 76.6012 53.7843 76.2718 54.131C75.9512 54.469 75.7822 54.9673 75.7648 55.626C75.7562 55.756 75.7518 55.9207 75.7518 56.12C75.7518 56.3193 75.7562 56.484 75.7648 56.614C75.7822 57.2727 75.9512 57.7753 76.2718 58.122C76.6012 58.46 77.0345 58.629 77.5718 58.629ZM37.1151 74.5C37.0197 74.5 36.9461 74.474 36.8941 74.422C36.8421 74.3613 36.8161 74.2877 36.8161 74.201V65.699C36.8161 65.6123 36.8421 65.543 36.8941 65.491C36.9461 65.4303 37.0197 65.4 37.1151 65.4H37.8041C37.8907 65.4 37.9601 65.4303 38.0121 65.491C38.0727 65.543 38.1031 65.6123 38.1031 65.699V74.201C38.1031 74.2877 38.0727 74.3613 38.0121 74.422C37.9601 74.474 37.8907 74.5 37.8041 74.5H37.1151ZM40.5007 74.5C40.4141 74.5 40.3404 74.474 40.2797 74.422C40.2277 74.3613 40.2017 74.2877 40.2017 74.201V68.039C40.2017 67.9523 40.2277 67.883 40.2797 67.831C40.3404 67.7703 40.4141 67.74 40.5007 67.74H41.1117C41.1984 67.74 41.2677 67.7703 41.3197 67.831C41.3804 67.883 41.4107 67.9523 41.4107 68.039V68.611C41.6361 68.3163 41.9177 68.078 42.2557 67.896C42.6024 67.7053 43.0444 67.61 43.5817 67.61C44.1451 67.61 44.6217 67.7357 45.0117 67.987C45.4104 68.2297 45.7094 68.572 45.9087 69.014C46.1081 69.4473 46.2077 69.9543 46.2077 70.535V74.201C46.2077 74.2877 46.1817 74.3613 46.1297 74.422C46.0777 74.474 46.0084 74.5 45.9217 74.5H45.2717C45.1851 74.5 45.1114 74.474 45.0507 74.422C44.9987 74.3613 44.9727 74.2877 44.9727 74.201V70.6C44.9727 69.9933 44.8254 69.521 44.5307 69.183C44.2361 68.8363 43.8027 68.663 43.2307 68.663C42.6934 68.663 42.2601 68.8363 41.9307 69.183C41.6101 69.521 41.4497 69.9933 41.4497 70.6V74.201C41.4497 74.2877 41.4194 74.3613 41.3587 74.422C41.3067 74.474 41.2374 74.5 41.1507 74.5H40.5007ZM50.6357 74.5C50.1503 74.5 49.756 74.409 49.4527 74.227C49.1493 74.0363 48.9283 73.772 48.7897 73.434C48.651 73.0873 48.5817 72.68 48.5817 72.212V68.78H47.5677C47.481 68.78 47.4073 68.754 47.3467 68.702C47.2947 68.6413 47.2687 68.5677 47.2687 68.481V68.039C47.2687 67.9523 47.2947 67.883 47.3467 67.831C47.4073 67.7703 47.481 67.74 47.5677 67.74H48.5817V65.569C48.5817 65.4823 48.6077 65.413 48.6597 65.361C48.7203 65.3003 48.794 65.27 48.8807 65.27H49.4917C49.5783 65.27 49.6477 65.3003 49.6997 65.361C49.7603 65.413 49.7907 65.4823 49.7907 65.569V67.74H51.4027C51.4893 67.74 51.5587 67.7703 51.6107 67.831C51.6713 67.883 51.7017 67.9523 51.7017 68.039V68.481C51.7017 68.5677 51.6713 68.6413 51.6107 68.702C51.5587 68.754 51.4893 68.78 51.4027 68.78H49.7907V72.121C49.7907 72.5283 49.86 72.849 49.9987 73.083C50.1373 73.317 50.3843 73.434 50.7397 73.434H51.5327C51.6193 73.434 51.6887 73.4643 51.7407 73.525C51.8013 73.577 51.8317 73.6463 51.8317 73.733V74.201C51.8317 74.2877 51.8013 74.3613 51.7407 74.422C51.6887 74.474 51.6193 74.5 51.5327 74.5H50.6357ZM55.7658 74.63C54.8731 74.63 54.1625 74.357 53.6338 73.811C53.1051 73.2563 52.8148 72.5023 52.7628 71.549C52.7541 71.4363 52.7498 71.2933 52.7498 71.12C52.7498 70.938 52.7541 70.7907 52.7628 70.678C52.7975 70.0627 52.9405 69.5253 53.1918 69.066C53.4431 68.598 53.7855 68.2383 54.2188 67.987C54.6608 67.7357 55.1765 67.61 55.7658 67.61C56.4245 67.61 56.9748 67.7487 57.4168 68.026C57.8675 68.3033 58.2098 68.6977 58.4438 69.209C58.6778 69.7203 58.7948 70.3183 58.7948 71.003V71.224C58.7948 71.3193 58.7645 71.393 58.7038 71.445C58.6518 71.497 58.5825 71.523 58.4958 71.523H53.9978C53.9978 71.5317 53.9978 71.549 53.9978 71.575C53.9978 71.601 53.9978 71.6227 53.9978 71.64C54.0151 71.9953 54.0931 72.329 54.2318 72.641C54.3705 72.9443 54.5698 73.1913 54.8298 73.382C55.0898 73.5727 55.4018 73.668 55.7658 73.668C56.0778 73.668 56.3378 73.6203 56.5458 73.525C56.7538 73.4297 56.9228 73.3257 57.0528 73.213C57.1828 73.0917 57.2695 73.0007 57.3128 72.94C57.3908 72.8273 57.4515 72.7623 57.4948 72.745C57.5381 72.719 57.6075 72.706 57.7028 72.706H58.3268C58.4135 72.706 58.4828 72.732 58.5348 72.784C58.5955 72.8273 58.6215 72.8923 58.6128 72.979C58.6041 73.109 58.5348 73.2693 58.4048 73.46C58.2748 73.642 58.0885 73.824 57.8458 74.006C57.6031 74.188 57.3085 74.3397 56.9618 74.461C56.6151 74.5737 56.2165 74.63 55.7658 74.63ZM53.9978 70.626H57.5598V70.587C57.5598 70.197 57.4861 69.8503 57.3388 69.547C57.2001 69.2437 56.9965 69.0053 56.7278 68.832C56.4591 68.65 56.1385 68.559 55.7658 68.559C55.3931 68.559 55.0725 68.65 54.8038 68.832C54.5438 69.0053 54.3445 69.2437 54.2058 69.547C54.0671 69.8503 53.9978 70.197 53.9978 70.587V70.626ZM63.1182 77.36C62.5289 77.36 62.0435 77.282 61.6622 77.126C61.2895 76.97 60.9949 76.7793 60.7782 76.554C60.5702 76.3373 60.4185 76.1163 60.3232 75.891C60.2365 75.6743 60.1889 75.501 60.1802 75.371C60.1715 75.2843 60.1975 75.2107 60.2582 75.15C60.3275 75.0893 60.4012 75.059 60.4792 75.059H61.1032C61.1812 75.059 61.2462 75.0763 61.2982 75.111C61.3502 75.1457 61.3935 75.2193 61.4282 75.332C61.4802 75.462 61.5582 75.605 61.6622 75.761C61.7662 75.9257 61.9265 76.0643 62.1432 76.177C62.3599 76.2983 62.6632 76.359 63.0532 76.359C63.4605 76.359 63.8029 76.3027 64.0802 76.19C64.3575 76.086 64.5655 75.8953 64.7042 75.618C64.8515 75.3493 64.9252 74.9767 64.9252 74.5V73.616C64.7172 73.8847 64.4442 74.11 64.1062 74.292C63.7682 74.4653 63.3435 74.552 62.8322 74.552C62.3469 74.552 61.9309 74.4697 61.5842 74.305C61.2375 74.1317 60.9515 73.902 60.7262 73.616C60.5095 73.3213 60.3449 72.9877 60.2322 72.615C60.1282 72.2423 60.0675 71.8523 60.0502 71.445C60.0415 71.2023 60.0415 70.964 60.0502 70.73C60.0675 70.3227 60.1282 69.9327 60.2322 69.56C60.3449 69.1873 60.5095 68.8537 60.7262 68.559C60.9515 68.2643 61.2375 68.0347 61.5842 67.87C61.9309 67.6967 62.3469 67.61 62.8322 67.61C63.3522 67.61 63.7812 67.7097 64.1192 67.909C64.4659 68.0997 64.7475 68.3337 64.9642 68.611V68.052C64.9642 67.9653 64.9902 67.8917 65.0422 67.831C65.1029 67.7703 65.1765 67.74 65.2632 67.74H65.8612C65.9479 67.74 66.0215 67.7703 66.0822 67.831C66.1429 67.8917 66.1732 67.9653 66.1732 68.052V74.357C66.1732 74.9377 66.0735 75.4533 65.8742 75.904C65.6835 76.3547 65.3629 76.71 64.9122 76.97C64.4702 77.23 63.8722 77.36 63.1182 77.36ZM63.0922 73.512C63.5255 73.512 63.8722 73.4123 64.1322 73.213C64.4009 73.0137 64.5959 72.7623 64.7172 72.459C64.8472 72.1557 64.9165 71.848 64.9252 71.536C64.9339 71.4147 64.9382 71.2673 64.9382 71.094C64.9382 70.912 64.9339 70.7603 64.9252 70.639C64.9165 70.327 64.8472 70.0193 64.7172 69.716C64.5959 69.4127 64.4009 69.1613 64.1322 68.962C63.8722 68.7627 63.5255 68.663 63.0922 68.663C62.6589 68.663 62.3122 68.7627 62.0522 68.962C61.7922 69.1527 61.6059 69.4083 61.4932 69.729C61.3805 70.041 61.3155 70.379 61.2982 70.743C61.2895 70.9683 61.2895 71.198 61.2982 71.432C61.3155 71.796 61.3805 72.1383 61.4932 72.459C61.6059 72.771 61.7922 73.0267 62.0522 73.226C62.3122 73.4167 62.6589 73.512 63.0922 73.512ZM68.405 74.5C68.3184 74.5 68.2447 74.474 68.184 74.422C68.132 74.3613 68.106 74.2877 68.106 74.201V68.052C68.106 67.9653 68.132 67.8917 68.184 67.831C68.2447 67.7703 68.3184 67.74 68.405 67.74H69.003C69.0897 67.74 69.1634 67.7703 69.224 67.831C69.2847 67.8917 69.315 67.9653 69.315 68.052V68.624C69.4884 68.3293 69.7267 68.1083 70.03 67.961C70.3334 67.8137 70.6974 67.74 71.122 67.74H71.642C71.7287 67.74 71.798 67.7703 71.85 67.831C71.902 67.883 71.928 67.9523 71.928 68.039V68.572C71.928 68.6587 71.902 68.728 71.85 68.78C71.798 68.832 71.7287 68.858 71.642 68.858H70.862C70.394 68.858 70.0257 68.9967 69.757 69.274C69.4884 69.5427 69.354 69.911 69.354 70.379V74.201C69.354 74.2877 69.3237 74.3613 69.263 74.422C69.2024 74.474 69.1287 74.5 69.042 74.5H68.405ZM74.828 74.63C74.3946 74.63 74.0003 74.5433 73.645 74.37C73.2896 74.1967 73.0036 73.9627 72.787 73.668C72.5703 73.3733 72.462 73.0397 72.462 72.667C72.462 72.069 72.7046 71.5923 73.19 71.237C73.6753 70.8817 74.308 70.6477 75.088 70.535L77.025 70.262V69.885C77.025 69.469 76.9036 69.144 76.661 68.91C76.427 68.676 76.0413 68.559 75.504 68.559C75.114 68.559 74.7976 68.637 74.555 68.793C74.321 68.949 74.1563 69.1483 74.061 69.391C74.009 69.521 73.918 69.586 73.788 69.586H73.203C73.1076 69.586 73.034 69.56 72.982 69.508C72.9386 69.4473 72.917 69.378 72.917 69.3C72.917 69.17 72.9646 69.0097 73.06 68.819C73.164 68.6283 73.32 68.442 73.528 68.26C73.736 68.078 74.0003 67.9263 74.321 67.805C74.6503 67.675 75.049 67.61 75.517 67.61C76.037 67.61 76.4746 67.6793 76.83 67.818C77.1853 67.948 77.4626 68.1257 77.662 68.351C77.87 68.5763 78.0173 68.832 78.104 69.118C78.1993 69.404 78.247 69.6943 78.247 69.989V74.201C78.247 74.2877 78.2166 74.3613 78.156 74.422C78.104 74.474 78.0346 74.5 77.948 74.5H77.35C77.2546 74.5 77.181 74.474 77.129 74.422C77.077 74.3613 77.051 74.2877 77.051 74.201V73.642C76.9383 73.798 76.7866 73.954 76.596 74.11C76.4053 74.2573 76.167 74.383 75.881 74.487C75.595 74.5823 75.244 74.63 74.828 74.63ZM75.101 73.655C75.4563 73.655 75.7813 73.5813 76.076 73.434C76.3706 73.278 76.6003 73.0397 76.765 72.719C76.9383 72.3983 77.025 71.9953 77.025 71.51V71.146L75.517 71.367C74.9016 71.4537 74.438 71.601 74.126 71.809C73.814 72.0083 73.658 72.264 73.658 72.576C73.658 72.8187 73.7273 73.0223 73.866 73.187C74.0133 73.343 74.1953 73.46 74.412 73.538C74.6373 73.616 74.867 73.655 75.101 73.655ZM80.4278 74.5C80.3411 74.5 80.2675 74.474 80.2068 74.422C80.1548 74.3613 80.1288 74.2877 80.1288 74.201V65.569C80.1288 65.4823 80.1548 65.413 80.2068 65.361C80.2675 65.3003 80.3411 65.27 80.4278 65.27H81.0388C81.1341 65.27 81.2078 65.3003 81.2598 65.361C81.3118 65.413 81.3378 65.4823 81.3378 65.569V74.201C81.3378 74.2877 81.3118 74.3613 81.2598 74.422C81.2078 74.474 81.1341 74.5 81.0388 74.5H80.4278Z" fill="#171B22"/>
<rect x="40.5" y="81.5" width="37" height="25" rx="12.5" fill="#017974"/>
<path d="M53.3417 98.64C52.6697 98.64 52.0864 98.5467 51.5917 98.36C51.097 98.164 50.6864 97.898 50.3597 97.562C50.0424 97.226 49.7997 96.834 49.6317 96.386C49.4637 95.938 49.3657 95.4573 49.3377 94.944C49.3284 94.692 49.319 94.4073 49.3097 94.09C49.3097 93.7633 49.3097 93.4367 49.3097 93.11C49.319 92.774 49.3284 92.4753 49.3377 92.214C49.3657 91.7007 49.4637 91.2247 49.6317 90.786C49.809 90.338 50.061 89.9507 50.3877 89.624C50.7237 89.288 51.1344 89.0267 51.6197 88.84C52.1144 88.6533 52.6884 88.56 53.3417 88.56C54.0044 88.56 54.5784 88.6533 55.0637 88.84C55.549 89.0267 55.955 89.288 56.2817 89.624C56.6177 89.9507 56.8744 90.338 57.0517 90.786C57.229 91.2247 57.327 91.7007 57.3457 92.214C57.3644 92.4753 57.3737 92.774 57.3737 93.11C57.383 93.4367 57.383 93.7633 57.3737 94.09C57.3737 94.4073 57.3644 94.692 57.3457 94.944C57.327 95.4573 57.229 95.938 57.0517 96.386C56.8837 96.834 56.6364 97.226 56.3097 97.562C55.9924 97.898 55.5864 98.164 55.0917 98.36C54.6064 98.5467 54.023 98.64 53.3417 98.64ZM53.3417 96.61C53.827 96.61 54.177 96.456 54.3917 96.148C54.6157 95.8307 54.7324 95.406 54.7417 94.874C54.7604 94.6033 54.7697 94.3187 54.7697 94.02C54.779 93.7213 54.779 93.4227 54.7697 93.124C54.7697 92.8253 54.7604 92.55 54.7417 92.298C54.7324 91.7847 54.6157 91.3693 54.3917 91.052C54.177 90.7347 53.827 90.5713 53.3417 90.562C52.8564 90.5713 52.5064 90.7347 52.2917 91.052C52.077 91.3693 51.9604 91.7847 51.9417 92.298C51.9324 92.55 51.923 92.8253 51.9137 93.124C51.9137 93.4227 51.9137 93.7213 51.9137 94.02C51.923 94.3187 51.9324 94.6033 51.9417 94.874C51.9604 95.406 52.0817 95.8307 52.3057 96.148C52.5297 96.456 52.875 96.61 53.3417 96.61ZM59.6793 98.5C59.4647 98.5 59.3573 98.4067 59.3573 98.22C59.3573 98.164 59.376 98.1127 59.4133 98.066L66.3293 88.966C66.3947 88.882 66.46 88.8167 66.5253 88.77C66.5907 88.7233 66.6887 88.7 66.8193 88.7H67.8133C68.028 88.7 68.1353 88.7933 68.1353 88.98C68.1353 89.036 68.1167 89.0873 68.0793 89.134L61.1633 98.234C61.098 98.318 61.0327 98.3833 60.9673 98.43C60.902 98.4767 60.804 98.5 60.6733 98.5H59.6793ZM66.7213 98.57C66.0867 98.57 65.578 98.402 65.1953 98.066C64.822 97.73 64.612 97.282 64.5653 96.722C64.556 96.4793 64.5513 96.2647 64.5513 96.078C64.5513 95.8913 64.556 95.6673 64.5653 95.406C64.6027 94.8367 64.8033 94.384 65.1673 94.048C65.5407 93.7027 66.0587 93.53 66.7213 93.53C67.3933 93.53 67.9113 93.7027 68.2753 94.048C68.6393 94.384 68.84 94.8367 68.8773 95.406C68.896 95.6673 68.9053 95.8913 68.9053 96.078C68.9053 96.2647 68.896 96.4793 68.8773 96.722C68.84 97.282 68.63 97.73 68.2473 98.066C67.8647 98.402 67.356 98.57 66.7213 98.57ZM66.7213 97.338C66.88 97.338 67.0013 97.3053 67.0853 97.24C67.1787 97.1747 67.2487 97.0907 67.2953 96.988C67.342 96.876 67.3653 96.7593 67.3653 96.638C67.384 96.4233 67.3933 96.2273 67.3933 96.05C67.3933 95.8727 67.384 95.6813 67.3653 95.476C67.356 95.2987 67.3047 95.14 67.2113 95C67.118 94.8507 66.9547 94.776 66.7213 94.776C66.488 94.776 66.3247 94.8507 66.2313 95C66.138 95.14 66.0867 95.2987 66.0773 95.476C66.068 95.6813 66.0633 95.8727 66.0633 96.05C66.0633 96.2273 66.068 96.4233 66.0773 96.638C66.0867 96.7593 66.11 96.876 66.1473 96.988C66.194 97.0907 66.264 97.1747 66.3573 97.24C66.4507 97.3053 66.572 97.338 66.7213 97.338ZM60.7993 93.642C60.1553 93.642 59.642 93.4787 59.2593 93.152C58.886 92.816 58.6807 92.368 58.6433 91.808C58.6247 91.5653 58.6153 91.3553 58.6153 91.178C58.6247 90.9913 58.634 90.7673 58.6433 90.506C58.6713 89.9367 58.8673 89.484 59.2313 89.148C59.6047 88.8027 60.1273 88.63 60.7993 88.63C61.4713 88.63 61.9893 88.8027 62.3533 89.148C62.7173 89.484 62.9133 89.9367 62.9413 90.506C62.96 90.7673 62.9693 90.9913 62.9693 91.178C62.9693 91.3553 62.96 91.5653 62.9413 91.808C62.9133 92.368 62.708 92.816 62.3253 93.152C61.9427 93.4787 61.434 93.642 60.7993 93.642ZM60.7993 92.438C60.9487 92.438 61.07 92.4053 61.1633 92.34C61.2567 92.2653 61.3267 92.1767 61.3733 92.074C61.42 91.962 61.4433 91.85 61.4433 91.738C61.462 91.5233 61.4713 91.3273 61.4713 91.15C61.4713 90.9727 61.462 90.7813 61.4433 90.576C61.434 90.3987 61.378 90.24 61.2753 90.1C61.182 89.9507 61.0233 89.876 60.7993 89.876C60.566 89.876 60.398 89.9507 60.2953 90.1C60.202 90.24 60.1507 90.3987 60.1413 90.576C60.132 90.7813 60.1273 90.9727 60.1273 91.15C60.1273 91.3273 60.132 91.5233 60.1413 91.738C60.1507 91.85 60.174 91.962 60.2113 92.074C60.258 92.1767 60.328 92.2653 60.4213 92.34C60.5147 92.4053 60.6407 92.438 60.7993 92.438Z" fill="white"/>
<g filter="url(#filter0_d_16167_41094)">
<rect x="88" y="14" width="32" height="32" rx="16" fill="white"/>
<rect x="87" y="13" width="34" height="34" rx="17" stroke="#1DA534" stroke-width="2"/>
<path opacity="0.4" d="M104 40C109.523 40 114 35.5228 114 30C114 24.4772 109.523 20 104 20C98.4772 20 94 24.4772 94 30C94 35.5228 98.4772 40 104 40Z" fill="#1DA534"/>
<path d="M102.579 33.5801C102.379 33.5801 102.189 33.5001 102.049 33.3601L99.2195 30.5301C98.9295 30.2401 98.9295 29.7601 99.2195 29.4701C99.5095 29.1801 99.9895 29.1801 100.279 29.4701L102.579 31.7701L107.719 26.6301C108.009 26.3401 108.489 26.3401 108.779 26.6301C109.069 26.9201 109.069 27.4001 108.779 27.6901L103.109 33.3601C102.969 33.5001 102.779 33.5801 102.579 33.5801Z" fill="#1DA534"/>
</g>
<defs>
<filter id="filter0_d_16167_41094" x="71" y="5" width="66" height="66" filterUnits="userSpaceOnUse" color-interpolation-filters="sRGB">
<feFlood flood-opacity="0" result="BackgroundImageFix"/>
<feColorMatrix in="SourceAlpha" type="matrix" values="0 0 0 0 0 0 0 0 0 0 0 0 0 0 0 0 0 0 127 0" result="hardAlpha"/>
<feOffset dy="8"/>
<feGaussianBlur stdDeviation="7.5"/>
<feColorMatrix type="matrix" values="0 0 0 0 0 0 0 0 0 0 0 0 0 0 0 0 0 0 0.25 0"/>
<feBlend mode="normal" in2="BackgroundImageFix" result="effect1_dropShadow_16167_41094"/>
<feBlend mode="normal" in="SourceGraphic" in2="effect1_dropShadow_16167_41094" result="shape"/>
</filter>
<clipPath id="clip0_16167_41094">
<rect width="26.6472" height="26.6667" fill="white" transform="translate(45.6758 14.1665)"/>
</clipPath>
</defs>
</svg>
