<svg width="137" height="118" viewBox="0 0 137 118" fill="none" xmlns="http://www.w3.org/2000/svg">
<rect x="2" y="2" width="114" height="114" rx="57" fill="#FEF1EA"/>
<rect x="2" y="2" width="114" height="114" rx="57" stroke="#F27430" stroke-width="4"/>
<g clip-path="url(#clip0_34428_7945)">
<path d="M50.5235 37.8593C51.1159 36.3798 51.6958 34.9356 52.2732 33.4905C53.3484 30.8007 54.4245 28.1109 55.4944 25.4193C55.6153 25.1148 55.7981 24.9771 56.1406 24.9771C61.3277 24.985 66.5158 24.9823 71.7029 24.9823C72.192 24.9823 72.3323 25.1254 72.3323 25.6188C72.3323 26.2341 72.3323 26.8485 72.3323 27.4638C72.3323 27.9343 72.1867 28.08 71.71 28.08C67.177 28.08 62.6439 28.0826 58.1118 28.0747C57.8682 28.0747 57.7596 28.1435 57.6678 28.3748C55.558 33.6679 53.4375 38.9566 51.3216 44.247C51.2395 44.4527 51.1618 44.6575 50.9234 44.7272C50.6736 44.8005 50.4573 44.6831 50.3099 44.3882C49.5763 42.9246 48.8436 41.4592 48.1118 39.9947C47.6793 39.1305 47.2405 38.2689 46.8212 37.3976C46.7338 37.2149 46.6349 37.1434 46.4407 37.1681C46.3339 37.1813 46.22 37.1822 46.115 37.1619C45.8581 37.1133 45.6736 36.9774 45.6718 36.6896C45.6674 35.9658 45.6657 35.2419 45.6727 34.518C45.6754 34.2399 45.8713 34.0528 46.1785 34.0484C46.883 34.0378 47.5866 34.0431 48.291 34.0457C48.5505 34.0466 48.7006 34.2002 48.8101 34.4218C49.3698 35.5517 49.9356 36.679 50.5244 37.8593H50.5235Z" fill="#F27430"/>
<path opacity="0.4" d="M65.296 38.8207C65.8971 39.4201 66.493 40.0133 67.088 40.6074C67.4543 40.9737 67.4543 41.1953 67.0924 41.5573C66.6572 41.9916 66.2237 42.4277 65.7868 42.8585C65.4752 43.1657 65.2553 43.1657 64.9481 42.8611C64.3999 42.3164 63.8482 41.7735 63.3106 41.2183C63.1579 41.0603 63.0705 41.0294 62.901 41.2077C62.3731 41.7594 61.8249 42.2908 61.2829 42.8276C60.9315 43.1754 60.7276 43.1745 60.3789 42.8276C59.9367 42.3862 59.4944 41.9457 59.0548 41.5025C58.7511 41.1962 58.752 40.979 59.061 40.6674C59.6259 40.0963 60.1891 39.5242 60.7629 38.9628C60.883 38.8445 60.8812 38.7862 60.7621 38.6697C60.1944 38.1153 59.6374 37.5521 59.0769 36.9898C58.7458 36.6579 58.7467 36.4469 59.0795 36.1115C59.5191 35.6674 59.9587 35.2243 60.4001 34.7829C60.7144 34.4695 60.9466 34.4686 61.2635 34.7829C61.8267 35.3417 62.3908 35.8987 62.9425 36.4681C63.0749 36.604 63.1402 36.5934 63.2656 36.4637C63.8182 35.8952 64.3805 35.3364 64.942 34.7758C65.2474 34.4713 65.4805 34.4686 65.7832 34.7679C66.2273 35.2075 66.6669 35.6507 67.1083 36.0929C67.4481 36.4337 67.4508 36.6614 67.1153 36.9986C66.5142 37.6025 65.9112 38.2045 65.296 38.8198V38.8207Z" fill="#F27430"/>
</g>
<path d="M37.7796 64.946L37.1036 66.675C37.0256 66.8917 36.8566 67 36.5966 67H36.1156C36.0376 67 35.9682 66.974 35.9076 66.922C35.8556 66.8613 35.8296 66.792 35.8296 66.714C35.8296 66.6707 35.8469 66.61 35.8816 66.532L39.0666 58.329C39.1792 58.043 39.3742 57.9 39.6516 57.9H40.4316C40.7089 57.9 40.9039 58.043 41.0166 58.329L44.1886 66.532C44.2232 66.61 44.2406 66.6707 44.2406 66.714C44.2406 66.792 44.2102 66.8613 44.1496 66.922C44.0976 66.974 44.0326 67 43.9546 67H43.4736C43.2136 67 43.0446 66.8917 42.9666 66.675L42.2906 64.946H37.7796ZM41.8356 63.776L40.0416 59.135L38.2346 63.776H41.8356ZM40.4576 55.677C40.5529 55.573 40.6309 55.508 40.6916 55.482C40.7522 55.4473 40.8346 55.43 40.9386 55.43H41.9656C42.0436 55.43 42.1042 55.456 42.1476 55.508C42.1909 55.5513 42.2126 55.612 42.2126 55.69C42.2126 55.7507 42.1909 55.8027 42.1476 55.846L40.7046 57.029C40.6092 57.107 40.5226 57.1633 40.4446 57.198C40.3752 57.2327 40.2799 57.25 40.1586 57.25H39.6126C39.4739 57.25 39.4046 57.1807 39.4046 57.042C39.4046 56.9727 39.4262 56.9163 39.4696 56.873L40.4576 55.677ZM46.6155 66.649C46.6155 66.7443 46.5809 66.8267 46.5115 66.896C46.4422 66.9653 46.3599 67 46.2645 67H45.7835C45.6882 67 45.6059 66.9653 45.5365 66.896C45.4672 66.8267 45.4325 66.7443 45.4325 66.649V58.121C45.4325 58.0257 45.4672 57.9433 45.5365 57.874C45.6059 57.8047 45.6882 57.77 45.7835 57.77H46.2645C46.3599 57.77 46.4422 57.8047 46.5115 57.874C46.5809 57.9433 46.6155 58.0257 46.6155 58.121V66.649ZM51.1943 60.11C51.6796 60.11 52.0869 60.1967 52.4163 60.37C52.7543 60.5347 53.0186 60.7427 53.2093 60.994V60.591C53.2093 60.4957 53.2439 60.4133 53.3133 60.344C53.3826 60.2747 53.4649 60.24 53.5603 60.24H54.0413C54.1366 60.24 54.2189 60.2747 54.2883 60.344C54.3576 60.4133 54.3923 60.4957 54.3923 60.591V66.909C54.3923 67.8277 54.1323 68.547 53.6123 69.067C53.0923 69.5957 52.3296 69.86 51.3243 69.86C50.6743 69.86 50.1283 69.7603 49.6863 69.561C49.2443 69.3617 48.9149 69.1147 48.6983 68.82C48.4903 68.5253 48.3776 68.2263 48.3603 67.923C48.3516 67.8277 48.3819 67.7453 48.4513 67.676C48.5293 67.6067 48.6159 67.572 48.7113 67.572H49.1013C49.2053 67.572 49.2876 67.598 49.3483 67.65C49.4089 67.702 49.4696 67.793 49.5303 67.923C49.6169 68.1223 49.7816 68.3087 50.0243 68.482C50.2669 68.6553 50.6569 68.742 51.1943 68.742C52.5376 68.742 53.2093 68.183 53.2093 67.065V66.246C52.7673 66.8353 52.0956 67.13 51.1943 67.13C50.6569 67.13 50.1673 67.0043 49.7253 66.753C49.2919 66.5017 48.9409 66.1463 48.6723 65.687C48.4123 65.219 48.2693 64.673 48.2433 64.049L48.2303 63.62L48.2433 63.191C48.2693 62.567 48.4123 62.0253 48.6723 61.566C48.9409 61.098 49.2919 60.7383 49.7253 60.487C50.1586 60.2357 50.6483 60.11 51.1943 60.11ZM51.3243 61.228C50.7609 61.228 50.3103 61.41 49.9723 61.774C49.6429 62.138 49.4609 62.632 49.4263 63.256L49.4133 63.62L49.4263 63.984C49.4609 64.608 49.6429 65.102 49.9723 65.466C50.3103 65.83 50.7609 66.012 51.3243 66.012C51.8789 66.012 52.3253 65.843 52.6633 65.505C53.0013 65.1583 53.1833 64.686 53.2093 64.088C53.2179 64.0013 53.2223 63.8453 53.2223 63.62C53.2223 63.3947 53.2179 63.2387 53.2093 63.152C53.1833 62.5453 53.0013 62.073 52.6633 61.735C52.3253 61.397 51.8789 61.228 51.3243 61.228ZM59.0028 60.11C59.9301 60.11 60.6625 60.4047 61.1998 60.994C61.7371 61.5833 62.0058 62.385 62.0058 63.399V63.75C62.0058 63.8453 61.9711 63.9277 61.9018 63.997C61.8325 64.0663 61.7501 64.101 61.6548 64.101H57.1828V64.179C57.2001 64.751 57.3735 65.2017 57.7028 65.531C58.0408 65.8517 58.4741 66.012 59.0028 66.012C59.4361 66.012 59.7698 65.9557 60.0038 65.843C60.2465 65.7303 60.4631 65.57 60.6538 65.362C60.7231 65.2927 60.7838 65.245 60.8358 65.219C60.8965 65.193 60.9745 65.18 61.0698 65.18H61.4598C61.5638 65.18 61.6505 65.2147 61.7198 65.284C61.7891 65.3533 61.8195 65.4357 61.8108 65.531C61.7761 65.765 61.6461 66.0077 61.4208 66.259C61.2041 66.5017 60.8878 66.7097 60.4718 66.883C60.0645 67.0477 59.5748 67.13 59.0028 67.13C58.4481 67.13 57.9541 67.0043 57.5208 66.753C57.0875 66.493 56.7408 66.1377 56.4808 65.687C56.2295 65.2363 56.0778 64.7293 56.0258 64.166C56.0085 63.906 55.9998 63.7067 55.9998 63.568C55.9998 63.4293 56.0085 63.23 56.0258 62.97C56.0778 62.4327 56.2295 61.9473 56.4808 61.514C56.7408 61.0807 57.0831 60.7383 57.5078 60.487C57.9411 60.2357 58.4395 60.11 59.0028 60.11ZM60.8358 63.009V62.97C60.8358 62.4413 60.6668 62.021 60.3288 61.709C59.9995 61.3883 59.5575 61.228 59.0028 61.228C58.5001 61.228 58.0711 61.3883 57.7158 61.709C57.3691 62.0297 57.1915 62.45 57.1828 62.97V63.009H60.8358ZM69.7231 63.191C69.7318 63.2777 69.7361 63.4163 69.7361 63.607C69.7361 63.8063 69.7318 63.9493 69.7231 64.036C69.6971 64.66 69.5498 65.206 69.2811 65.674C69.0211 66.142 68.6701 66.5017 68.2281 66.753C67.7948 67.0043 67.3095 67.13 66.7721 67.13C65.8708 67.13 65.1991 66.8353 64.7571 66.246V66.649C64.7571 66.7443 64.7225 66.8267 64.6531 66.896C64.5838 66.9653 64.5015 67 64.4061 67H63.9251C63.8298 67 63.7475 66.9653 63.6781 66.896C63.6088 66.8267 63.5741 66.7443 63.5741 66.649V58.121C63.5741 58.0257 63.6088 57.9433 63.6781 57.874C63.7475 57.8047 63.8298 57.77 63.9251 57.77H64.4061C64.5015 57.77 64.5838 57.8047 64.6531 57.874C64.7225 57.9433 64.7571 58.0257 64.7571 58.121V60.994C64.9478 60.7427 65.2078 60.5347 65.5371 60.37C65.8751 60.1967 66.2868 60.11 66.7721 60.11C67.3181 60.11 67.8078 60.2357 68.2411 60.487C68.6745 60.7383 69.0211 61.098 69.2811 61.566C69.5498 62.0253 69.6971 62.567 69.7231 63.191ZM66.6421 66.012C67.2055 66.012 67.6518 65.8343 67.9811 65.479C68.3105 65.115 68.4968 64.6167 68.5401 63.984C68.5488 63.8973 68.5531 63.776 68.5531 63.62C68.5531 62.8833 68.3841 62.3027 68.0461 61.878C67.7168 61.4447 67.2488 61.228 66.6421 61.228C66.0961 61.228 65.6585 61.397 65.3291 61.735C64.9998 62.073 64.8091 62.5453 64.7571 63.152C64.7485 63.2387 64.7441 63.4077 64.7441 63.659C64.7441 63.919 64.7485 64.0923 64.7571 64.179C64.8005 64.7423 64.9911 65.1887 65.3291 65.518C65.6758 65.8473 66.1135 66.012 66.6421 66.012ZM74.7757 60.24C74.871 60.24 74.9533 60.2747 75.0227 60.344C75.092 60.4133 75.1267 60.4957 75.1267 60.591V61.007C75.1267 61.1023 75.092 61.1847 75.0227 61.254C74.9533 61.3233 74.871 61.358 74.7757 61.358H74.0217C73.5363 61.358 73.1637 61.488 72.9037 61.748C72.6523 61.9993 72.5267 62.3677 72.5267 62.853V66.649C72.5267 66.7443 72.492 66.8267 72.4227 66.896C72.3533 66.9653 72.271 67 72.1757 67H71.6947C71.5993 67 71.517 66.9653 71.4477 66.896C71.3783 66.8267 71.3437 66.7443 71.3437 66.649V60.591C71.3437 60.4957 71.3783 60.4133 71.4477 60.344C71.517 60.2747 71.5993 60.24 71.6947 60.24H72.1757C72.271 60.24 72.3533 60.2747 72.4227 60.344C72.492 60.4133 72.5267 60.4957 72.5267 60.591V60.994C72.7 60.734 72.908 60.5433 73.1507 60.422C73.3933 60.3007 73.7097 60.24 74.0997 60.24H74.7757ZM80.2737 62.723V62.554C80.2737 62.1293 80.1307 61.8043 79.8447 61.579C79.5674 61.345 79.2034 61.228 78.7527 61.228C78.4061 61.228 78.1331 61.2887 77.9337 61.41C77.7431 61.5227 77.5611 61.696 77.3877 61.93C77.3357 61.9993 77.2794 62.047 77.2187 62.073C77.1581 62.099 77.0757 62.112 76.9717 62.112H76.5817C76.4864 62.112 76.3997 62.0773 76.3217 62.008C76.2524 61.9387 76.2221 61.8563 76.2307 61.761C76.2567 61.501 76.3824 61.2453 76.6077 60.994C76.8417 60.734 77.1494 60.5217 77.5307 60.357C77.9121 60.1923 78.3194 60.11 78.7527 60.11C79.5587 60.11 80.2087 60.3353 80.7027 60.786C81.2054 61.2367 81.4567 61.8693 81.4567 62.684V66.649C81.4567 66.7443 81.4221 66.8267 81.3527 66.896C81.2834 66.9653 81.2011 67 81.1057 67H80.6247C80.5294 67 80.4471 66.9653 80.3777 66.896C80.3084 66.8267 80.2737 66.7443 80.2737 66.649V66.116C80.1351 66.428 79.8404 66.675 79.3897 66.857C78.9391 67.039 78.4884 67.13 78.0377 67.13C77.5957 67.13 77.2014 67.052 76.8547 66.896C76.5081 66.7313 76.2394 66.5103 76.0487 66.233C75.8667 65.9557 75.7757 65.6437 75.7757 65.297C75.7757 64.647 76.0184 64.14 76.5037 63.776C76.9891 63.4033 77.6347 63.152 78.4407 63.022L80.2737 62.723ZM80.2737 63.763L78.7397 64.01C78.1764 64.0967 77.7387 64.2397 77.4267 64.439C77.1147 64.6297 76.9587 64.8723 76.9587 65.167C76.9587 65.3837 77.0584 65.5787 77.2577 65.752C77.4571 65.9253 77.7604 66.012 78.1677 66.012C78.7917 66.012 79.2987 65.8343 79.6887 65.479C80.0787 65.1237 80.2737 64.66 80.2737 64.088V63.763Z" fill="#171B22"/>
<rect x="40" y="74" width="38" height="25" rx="12.5" fill="#F27430"/>
<path d="M57.1579 84.854C57.1766 85.1153 57.1859 85.5353 57.1859 86.114C57.1859 86.6833 57.1766 87.094 57.1579 87.346C57.0926 88.4567 56.7239 89.3667 56.0519 90.076C55.3892 90.7853 54.3952 91.14 53.0699 91.14C51.7446 91.14 50.7459 90.7853 50.0739 90.076C49.4112 89.3667 49.0472 88.4567 48.9819 87.346C48.9632 86.842 48.9539 86.4313 48.9539 86.114C48.9539 85.7967 48.9632 85.3767 48.9819 84.854C49.0472 83.7433 49.4112 82.8333 50.0739 82.124C50.7459 81.4147 51.7446 81.06 53.0699 81.06C54.3952 81.06 55.3892 81.4147 56.0519 82.124C56.7239 82.8333 57.0926 83.7433 57.1579 84.854ZM54.5679 84.924C54.5399 84.4107 54.4139 84.014 54.1899 83.734C53.9659 83.4447 53.5926 83.3 53.0699 83.3C52.5472 83.3 52.1739 83.4447 51.9499 83.734C51.7259 84.014 51.5999 84.4107 51.5719 84.924C51.5532 85.428 51.5439 85.8153 51.5439 86.086C51.5439 86.338 51.5532 86.7347 51.5719 87.276C51.5906 87.7893 51.7119 88.1907 51.9359 88.48C52.1692 88.76 52.5472 88.9 53.0699 88.9C53.5926 88.9 53.9659 88.76 54.1899 88.48C54.4232 88.1907 54.5492 87.7893 54.5679 87.276C54.5866 87.0053 54.5959 86.6087 54.5959 86.086C54.5959 85.5633 54.5866 85.176 54.5679 84.924ZM62.7646 84.182C62.7366 84.77 62.5359 85.2507 62.1626 85.624C61.7986 85.988 61.2666 86.17 60.5666 86.17C59.8666 86.17 59.3346 85.988 58.9706 85.624C58.6159 85.26 58.4152 84.7793 58.3686 84.182C58.3592 84.0607 58.3546 83.888 58.3546 83.664C58.3546 83.4307 58.3592 83.2487 58.3686 83.118C58.4152 82.5207 58.6159 82.04 58.9706 81.676C59.3346 81.312 59.8666 81.13 60.5666 81.13C61.2666 81.13 61.7939 81.312 62.1486 81.676C62.5126 82.04 62.7179 82.5207 62.7646 83.118C62.7832 83.3793 62.7926 83.5613 62.7926 83.664C62.7926 83.7667 62.7832 83.9393 62.7646 84.182ZM66.2646 81.466C66.3392 81.3727 66.4092 81.3073 66.4746 81.27C66.5492 81.2233 66.6472 81.2 66.7686 81.2H67.9166C68.0192 81.2 68.0986 81.228 68.1546 81.284C68.2199 81.3307 68.2526 81.396 68.2526 81.48C68.2526 81.536 68.2339 81.5873 68.1966 81.634L61.2806 90.734C61.2059 90.8273 61.1312 90.8973 61.0566 90.944C60.9912 90.9813 60.8979 91 60.7766 91H59.6286C59.5259 91 59.4419 90.9767 59.3766 90.93C59.3206 90.874 59.2926 90.804 59.2926 90.72C59.2926 90.664 59.3112 90.6127 59.3486 90.566L66.2646 81.466ZM60.5666 84.84C60.7626 84.84 60.9026 84.784 60.9866 84.672C61.0706 84.56 61.1219 84.3733 61.1406 84.112C61.1592 83.888 61.1686 83.734 61.1686 83.65C61.1686 83.5473 61.1592 83.3933 61.1406 83.188C61.1219 82.9267 61.0706 82.74 60.9866 82.628C60.9026 82.516 60.7626 82.46 60.5666 82.46C60.3706 82.46 60.2306 82.516 60.1466 82.628C60.0626 82.74 60.0112 82.9267 59.9926 83.188C59.9832 83.2907 59.9786 83.4447 59.9786 83.65C59.9786 83.846 59.9832 84 59.9926 84.112C60.0112 84.3733 60.0626 84.56 60.1466 84.672C60.2306 84.784 60.3706 84.84 60.5666 84.84ZM69.2606 89.082C69.2326 89.67 69.0319 90.1507 68.6586 90.524C68.2946 90.888 67.7626 91.07 67.0626 91.07C66.3626 91.07 65.8306 90.888 65.4666 90.524C65.1119 90.16 64.9112 89.6793 64.8646 89.082C64.8552 88.9607 64.8506 88.788 64.8506 88.564C64.8506 88.3307 64.8552 88.1487 64.8646 88.018C64.9112 87.4207 65.1119 86.94 65.4666 86.576C65.8306 86.212 66.3626 86.03 67.0626 86.03C67.7626 86.03 68.2899 86.212 68.6446 86.576C69.0086 86.94 69.2139 87.4207 69.2606 88.018C69.2792 88.2793 69.2886 88.4613 69.2886 88.564C69.2886 88.6667 69.2792 88.8393 69.2606 89.082ZM67.0626 89.74C67.2586 89.74 67.3986 89.684 67.4826 89.572C67.5666 89.46 67.6179 89.2733 67.6366 89.012C67.6552 88.788 67.6646 88.634 67.6646 88.55C67.6646 88.4473 67.6552 88.2933 67.6366 88.088C67.6179 87.8267 67.5666 87.64 67.4826 87.528C67.3986 87.416 67.2586 87.36 67.0626 87.36C66.8666 87.36 66.7266 87.416 66.6426 87.528C66.5586 87.64 66.5072 87.8267 66.4886 88.088C66.4792 88.1907 66.4746 88.3447 66.4746 88.55C66.4746 88.746 66.4792 88.9 66.4886 89.012C66.5072 89.2733 66.5586 89.46 66.6426 89.572C66.7266 89.684 66.8666 89.74 67.0626 89.74Z" fill="white"/>
<g filter="url(#filter0_d_34428_7945)">
<rect x="88" y="14" width="32" height="32" rx="16" fill="white"/>
<rect x="87" y="13" width="34" height="34" rx="17" stroke="#1DA534" stroke-width="2"/>
<path opacity="0.4" d="M104 40C109.523 40 114 35.5228 114 30C114 24.4772 109.523 20 104 20C98.4772 20 94 24.4772 94 30C94 35.5228 98.4772 40 104 40Z" fill="#1DA534"/>
<path d="M102.579 33.5801C102.379 33.5801 102.189 33.5001 102.049 33.3601L99.2195 30.5301C98.9295 30.2401 98.9295 29.7601 99.2195 29.4701C99.5095 29.1801 99.9895 29.1801 100.279 29.4701L102.579 31.7701L107.719 26.6301C108.009 26.3401 108.489 26.3401 108.779 26.6301C109.069 26.9201 109.069 27.4001 108.779 27.6901L103.109 33.3601C102.969 33.5001 102.779 33.5801 102.579 33.5801Z" fill="#1DA534"/>
</g>
<defs>
<filter id="filter0_d_34428_7945" x="71" y="5" width="66" height="66" filterUnits="userSpaceOnUse" color-interpolation-filters="sRGB">
<feFlood flood-opacity="0" result="BackgroundImageFix"/>
<feColorMatrix in="SourceAlpha" type="matrix" values="0 0 0 0 0 0 0 0 0 0 0 0 0 0 0 0 0 0 127 0" result="hardAlpha"/>
<feOffset dy="8"/>
<feGaussianBlur stdDeviation="7.5"/>
<feColorMatrix type="matrix" values="0 0 0 0 0 0 0 0 0 0 0 0 0 0 0 0 0 0 0.25 0"/>
<feBlend mode="normal" in2="BackgroundImageFix" result="effect1_dropShadow_34428_7945"/>
<feBlend mode="normal" in="SourceGraphic" in2="effect1_dropShadow_34428_7945" result="shape"/>
</filter>
<clipPath id="clip0_34428_7945">
<rect width="26.6667" height="19.7714" fill="white" transform="translate(45.666 24.9771)"/>
</clipPath>
</defs>
</svg>
