<svg width="137" height="118" viewBox="0 0 137 118" fill="none" xmlns="http://www.w3.org/2000/svg">
<rect x="2" y="2" width="114" height="114" rx="57" fill="#F3EDFE"/>
<rect x="2" y="2" width="114" height="114" rx="57" stroke="#8646F4" stroke-width="4"/>
<g clip-path="url(#clip0_16167_41098)">
<mask id="mask0_16167_41098" style="mask-type:luminance" maskUnits="userSpaceOnUse" x="43" y="19" width="32" height="32">
<path d="M75 19H43V51H75V19Z" fill="white"/>
</mask>
<g mask="url(#mask0_16167_41098)">
<path opacity="0.4" d="M66.1328 48.3331H51.8796C48.4662 48.3331 46.9995 45.8797 48.6128 42.8797L49.9595 40.3731L51.0262 38.4131L55.2928 30.493C55.7195 29.7197 55.9063 28.373 55.7463 27.5197L54.9063 23.3597C54.7329 22.493 55.3995 21.6797 56.2795 21.6797H61.7595C62.6395 21.6797 63.3062 22.493 63.1328 23.3597L62.2928 27.5197C62.1195 28.373 62.3196 29.7197 62.7463 30.493L69.4262 42.8797C71.0128 45.8797 69.5462 48.3331 66.1328 48.3331Z" fill="#8646F4"/>
<path d="M60.052 39.4532C60.052 40.0266 59.572 40.5066 58.9987 40.5066H50.452C50.2653 40.5066 50.1053 40.4666 49.9453 40.3599L51.012 38.3999H58.9987C59.572 38.3999 60.052 38.8532 60.052 39.4532Z" fill="#8646F4"/>
</g>
</g>
<path d="M41.5873 67.845C41.4746 67.845 41.3836 67.806 41.3143 67.728C41.2449 67.6587 41.1886 67.598 41.1453 67.546L40.6123 66.818C40.1443 67.026 39.6026 67.13 38.9873 67.13C38.2419 67.13 37.6049 67.0043 37.0763 66.753C36.5563 66.493 36.1489 66.0987 35.8543 65.57C35.5683 65.0327 35.4123 64.361 35.3863 63.555C35.3776 63.1737 35.3733 62.8097 35.3733 62.463C35.3733 62.1077 35.3776 61.7393 35.3863 61.358C35.4123 60.5607 35.5769 59.8977 35.8803 59.369C36.1836 58.8317 36.5996 58.433 37.1283 58.173C37.6656 57.9043 38.2853 57.77 38.9873 57.77C39.6979 57.77 40.3176 57.9043 40.8463 58.173C41.3836 58.433 41.8039 58.8317 42.1073 59.369C42.4106 59.8977 42.5709 60.5607 42.5883 61.358C42.6056 61.7393 42.6143 62.1077 42.6143 62.463C42.6143 62.8097 42.6056 63.1737 42.5883 63.555C42.5449 64.751 42.2329 65.6393 41.6523 66.22L42.5103 67.442C42.5189 67.4507 42.5276 67.4637 42.5363 67.481C42.5449 67.507 42.5493 67.5417 42.5493 67.585C42.5579 67.6543 42.5363 67.715 42.4843 67.767C42.4323 67.819 42.3673 67.845 42.2893 67.845H41.5873ZM38.9873 66.025C39.6459 66.025 40.1876 65.8257 40.6123 65.427C41.0369 65.0283 41.2666 64.3827 41.3013 63.49C41.3186 63.1 41.3273 62.7533 41.3273 62.45C41.3273 62.138 41.3186 61.7913 41.3013 61.41C41.2839 60.812 41.1713 60.3267 40.9633 59.954C40.7639 59.5813 40.4953 59.3083 40.1573 59.135C39.8193 58.9617 39.4293 58.875 38.9873 58.875C38.5626 58.875 38.1769 58.9617 37.8303 59.135C37.4923 59.3083 37.2236 59.5813 37.0243 59.954C36.8249 60.3267 36.7123 60.812 36.6863 61.41C36.6776 61.7913 36.6733 62.138 36.6733 62.45C36.6733 62.7533 36.6776 63.1 36.6863 63.49C36.7209 64.3827 36.9506 65.0283 37.3753 65.427C37.7999 65.8257 38.3373 66.025 38.9873 66.025ZM46.8751 67.13C46.3204 67.13 45.8481 67.0087 45.4581 66.766C45.0768 66.5147 44.7864 66.168 44.5871 65.726C44.3878 65.284 44.2881 64.777 44.2881 64.205V60.539C44.2881 60.4523 44.3141 60.383 44.3661 60.331C44.4268 60.2703 44.5004 60.24 44.5871 60.24H45.2371C45.3238 60.24 45.3931 60.2703 45.4451 60.331C45.5058 60.383 45.5361 60.4523 45.5361 60.539V64.14C45.5361 65.4313 46.0994 66.077 47.2261 66.077C47.7634 66.077 48.1924 65.908 48.5131 65.57C48.8424 65.2233 49.0071 64.7467 49.0071 64.14V60.539C49.0071 60.4523 49.0331 60.383 49.0851 60.331C49.1458 60.2703 49.2194 60.24 49.3061 60.24H49.9431C50.0384 60.24 50.1121 60.2703 50.1641 60.331C50.2161 60.383 50.2421 60.4523 50.2421 60.539V66.701C50.2421 66.7877 50.2161 66.8613 50.1641 66.922C50.1121 66.974 50.0384 67 49.9431 67H49.3451C49.2584 67 49.1848 66.974 49.1241 66.922C49.0721 66.8613 49.0461 66.7877 49.0461 66.701V66.129C48.8121 66.4323 48.5261 66.675 48.1881 66.857C47.8588 67.039 47.4211 67.13 46.8751 67.13ZM52.4724 67C52.3858 67 52.3121 66.974 52.2514 66.922C52.1994 66.8613 52.1734 66.7877 52.1734 66.701V60.539C52.1734 60.4523 52.1994 60.383 52.2514 60.331C52.3121 60.2703 52.3858 60.24 52.4724 60.24H53.0964C53.1831 60.24 53.2524 60.2703 53.3044 60.331C53.3564 60.383 53.3824 60.4523 53.3824 60.539V66.701C53.3824 66.7877 53.3564 66.8613 53.3044 66.922C53.2524 66.974 53.1831 67 53.0964 67H52.4724ZM52.4334 59.265C52.2948 59.265 52.2254 59.1957 52.2254 59.057C52.2254 58.9877 52.2471 58.9313 52.2904 58.888L53.2654 57.718C53.3434 57.6227 53.4128 57.562 53.4734 57.536C53.5341 57.5013 53.6251 57.484 53.7464 57.484H54.6304C54.7951 57.484 54.8774 57.5663 54.8774 57.731C54.8774 57.7917 54.8558 57.8437 54.8124 57.887L53.3044 59.122C53.2351 59.1827 53.1701 59.2217 53.1094 59.239C53.0488 59.2563 52.9708 59.265 52.8754 59.265H52.4334ZM55.6209 67C55.5342 67 55.4605 66.974 55.3999 66.922C55.3479 66.8613 55.3219 66.7877 55.3219 66.701V60.539C55.3219 60.4523 55.3479 60.383 55.3999 60.331C55.4605 60.2703 55.5342 60.24 55.6209 60.24H56.2059C56.2925 60.24 56.3619 60.2703 56.4139 60.331C56.4745 60.383 56.5049 60.4523 56.5049 60.539V60.994C56.7042 60.7253 56.9555 60.513 57.2589 60.357C57.5622 60.1923 57.9262 60.11 58.3509 60.11C59.3302 60.1013 60.0235 60.5 60.4309 61.306C60.6302 60.942 60.9205 60.6517 61.3019 60.435C61.6832 60.2183 62.1165 60.11 62.6019 60.11C63.0525 60.11 63.4599 60.214 63.8239 60.422C64.1965 60.63 64.4869 60.9463 64.6949 61.371C64.9115 61.787 65.0199 62.3113 65.0199 62.944V66.701C65.0199 66.7877 64.9895 66.8613 64.9289 66.922C64.8769 66.974 64.8075 67 64.7209 67H64.1099C64.0232 67 63.9495 66.974 63.8889 66.922C63.8369 66.8613 63.8109 66.7877 63.8109 66.701V63.061C63.8109 62.5757 63.7415 62.1943 63.6029 61.917C63.4642 61.6397 63.2779 61.4447 63.0439 61.332C62.8099 61.2193 62.5542 61.163 62.2769 61.163C62.0515 61.163 61.8219 61.2193 61.5879 61.332C61.3539 61.4447 61.1589 61.6397 61.0029 61.917C60.8555 62.1943 60.7819 62.5757 60.7819 63.061V66.701C60.7819 66.7877 60.7515 66.8613 60.6909 66.922C60.6389 66.974 60.5695 67 60.4829 67H59.8719C59.7852 67 59.7115 66.974 59.6509 66.922C59.5989 66.8613 59.5729 66.7877 59.5729 66.701V63.061C59.5729 62.5757 59.4992 62.1943 59.3519 61.917C59.2045 61.6397 59.0139 61.4447 58.7799 61.332C58.5459 61.2193 58.2989 61.163 58.0389 61.163C57.8135 61.163 57.5839 61.2193 57.3499 61.332C57.1159 61.4447 56.9209 61.6397 56.7649 61.917C56.6175 62.1943 56.5439 62.5713 56.5439 63.048V66.701C56.5439 66.7877 56.5135 66.8613 56.4529 66.922C56.4009 66.974 56.3315 67 56.2449 67H55.6209ZM67.1736 67C67.0869 67 67.0133 66.974 66.9526 66.922C66.9006 66.8613 66.8746 66.7877 66.8746 66.701V60.539C66.8746 60.4523 66.9006 60.383 66.9526 60.331C67.0133 60.2703 67.0869 60.24 67.1736 60.24H67.7976C67.8843 60.24 67.9536 60.2703 68.0056 60.331C68.0576 60.383 68.0836 60.4523 68.0836 60.539V66.701C68.0836 66.7877 68.0576 66.8613 68.0056 66.922C67.9536 66.974 67.8843 67 67.7976 67H67.1736ZM67.0696 58.979C66.9829 58.979 66.9093 58.953 66.8486 58.901C66.7966 58.8403 66.7706 58.7667 66.7706 58.68V57.978C66.7706 57.8913 66.7966 57.822 66.8486 57.77C66.9093 57.7093 66.9829 57.679 67.0696 57.679H67.8886C67.9753 57.679 68.0446 57.7093 68.0966 57.77C68.1573 57.822 68.1876 57.8913 68.1876 57.978V58.68C68.1876 58.7667 68.1573 58.8403 68.0966 58.901C68.0446 58.953 67.9753 58.979 67.8886 58.979H67.0696ZM72.753 67.13C72.1377 67.13 71.6047 67.013 71.154 66.779C70.712 66.5363 70.3697 66.194 70.127 65.752C69.8844 65.3013 69.7544 64.764 69.737 64.14C69.7284 64.01 69.724 63.8367 69.724 63.62C69.724 63.4033 69.7284 63.23 69.737 63.1C69.7544 62.476 69.8844 61.943 70.127 61.501C70.3697 61.0503 70.712 60.708 71.154 60.474C71.6047 60.2313 72.1377 60.11 72.753 60.11C73.2557 60.11 73.6847 60.1793 74.04 60.318C74.404 60.4567 74.703 60.6343 74.937 60.851C75.171 61.0677 75.3444 61.3017 75.457 61.553C75.5784 61.8043 75.6434 62.0427 75.652 62.268C75.6607 62.3547 75.6347 62.424 75.574 62.476C75.5134 62.528 75.4397 62.554 75.353 62.554H74.729C74.6424 62.554 74.5774 62.5367 74.534 62.502C74.4907 62.4587 74.4474 62.3893 74.404 62.294C74.248 61.8693 74.0357 61.5703 73.767 61.397C73.4984 61.2237 73.1647 61.137 72.766 61.137C72.246 61.137 71.8214 61.2973 71.492 61.618C71.1714 61.9387 70.998 62.4543 70.972 63.165C70.9634 63.477 70.9634 63.7803 70.972 64.075C70.998 64.7943 71.1714 65.3143 71.492 65.635C71.8214 65.947 72.246 66.103 72.766 66.103C73.1647 66.103 73.4984 66.0163 73.767 65.843C74.0357 65.6697 74.248 65.3707 74.404 64.946C74.4474 64.8507 74.4907 64.7857 74.534 64.751C74.5774 64.7077 74.6424 64.686 74.729 64.686H75.353C75.4397 64.686 75.5134 64.712 75.574 64.764C75.6347 64.816 75.6607 64.8853 75.652 64.972C75.6434 65.154 75.6044 65.3403 75.535 65.531C75.4657 65.7217 75.353 65.9167 75.197 66.116C75.0497 66.3067 74.8634 66.48 74.638 66.636C74.4127 66.7833 74.1397 66.9047 73.819 67C73.507 67.0867 73.1517 67.13 72.753 67.13ZM79.0809 67.13C78.6476 67.13 78.2532 67.0433 77.8979 66.87C77.5426 66.6967 77.2566 66.4627 77.0399 66.168C76.8232 65.8733 76.7149 65.5397 76.7149 65.167C76.7149 64.569 76.9576 64.0923 77.4429 63.737C77.9282 63.3817 78.5609 63.1477 79.3409 63.035L81.2779 62.762V62.385C81.2779 61.969 81.1566 61.644 80.9139 61.41C80.6799 61.176 80.2942 61.059 79.7569 61.059C79.3669 61.059 79.0506 61.137 78.8079 61.293C78.5739 61.449 78.4092 61.6483 78.3139 61.891C78.2619 62.021 78.1709 62.086 78.0409 62.086H77.4559C77.3606 62.086 77.2869 62.06 77.2349 62.008C77.1916 61.9473 77.1699 61.878 77.1699 61.8C77.1699 61.67 77.2176 61.5097 77.3129 61.319C77.4169 61.1283 77.5729 60.942 77.7809 60.76C77.9889 60.578 78.2532 60.4263 78.5739 60.305C78.9032 60.175 79.3019 60.11 79.7699 60.11C80.2899 60.11 80.7276 60.1793 81.0829 60.318C81.4382 60.448 81.7156 60.6257 81.9149 60.851C82.1229 61.0763 82.2702 61.332 82.3569 61.618C82.4522 61.904 82.4999 62.1943 82.4999 62.489V66.701C82.4999 66.7877 82.4696 66.8613 82.4089 66.922C82.3569 66.974 82.2876 67 82.2009 67H81.6029C81.5076 67 81.4339 66.974 81.3819 66.922C81.3299 66.8613 81.3039 66.7877 81.3039 66.701V66.142C81.1912 66.298 81.0396 66.454 80.8489 66.61C80.6582 66.7573 80.4199 66.883 80.1339 66.987C79.8479 67.0823 79.4969 67.13 79.0809 67.13ZM79.3539 66.155C79.7092 66.155 80.0342 66.0813 80.3289 65.934C80.6236 65.778 80.8532 65.5397 81.0179 65.219C81.1912 64.8983 81.2779 64.4953 81.2779 64.01V63.646L79.7699 63.867C79.1546 63.9537 78.6909 64.101 78.3789 64.309C78.0669 64.5083 77.9109 64.764 77.9109 65.076C77.9109 65.3187 77.9802 65.5223 78.1189 65.687C78.2662 65.843 78.4482 65.96 78.6649 66.038C78.8902 66.116 79.1199 66.155 79.3539 66.155Z" fill="#171B22"/>
<rect x="40.5" y="74" width="37" height="25" rx="12.5" fill="#8646F4"/>
<path d="M53.3417 91.14C52.6697 91.14 52.0864 91.0467 51.5917 90.86C51.097 90.664 50.6864 90.398 50.3597 90.062C50.0424 89.726 49.7997 89.334 49.6317 88.886C49.4637 88.438 49.3657 87.9573 49.3377 87.444C49.3284 87.192 49.319 86.9073 49.3097 86.59C49.3097 86.2633 49.3097 85.9367 49.3097 85.61C49.319 85.274 49.3284 84.9753 49.3377 84.714C49.3657 84.2007 49.4637 83.7247 49.6317 83.286C49.809 82.838 50.061 82.4507 50.3877 82.124C50.7237 81.788 51.1344 81.5267 51.6197 81.34C52.1144 81.1533 52.6884 81.06 53.3417 81.06C54.0044 81.06 54.5784 81.1533 55.0637 81.34C55.549 81.5267 55.955 81.788 56.2817 82.124C56.6177 82.4507 56.8744 82.838 57.0517 83.286C57.229 83.7247 57.327 84.2007 57.3457 84.714C57.3644 84.9753 57.3737 85.274 57.3737 85.61C57.383 85.9367 57.383 86.2633 57.3737 86.59C57.3737 86.9073 57.3644 87.192 57.3457 87.444C57.327 87.9573 57.229 88.438 57.0517 88.886C56.8837 89.334 56.6364 89.726 56.3097 90.062C55.9924 90.398 55.5864 90.664 55.0917 90.86C54.6064 91.0467 54.023 91.14 53.3417 91.14ZM53.3417 89.11C53.827 89.11 54.177 88.956 54.3917 88.648C54.6157 88.3307 54.7324 87.906 54.7417 87.374C54.7604 87.1033 54.7697 86.8187 54.7697 86.52C54.779 86.2213 54.779 85.9227 54.7697 85.624C54.7697 85.3253 54.7604 85.05 54.7417 84.798C54.7324 84.2847 54.6157 83.8693 54.3917 83.552C54.177 83.2347 53.827 83.0713 53.3417 83.062C52.8564 83.0713 52.5064 83.2347 52.2917 83.552C52.077 83.8693 51.9604 84.2847 51.9417 84.798C51.9324 85.05 51.923 85.3253 51.9137 85.624C51.9137 85.9227 51.9137 86.2213 51.9137 86.52C51.923 86.8187 51.9324 87.1033 51.9417 87.374C51.9604 87.906 52.0817 88.3307 52.3057 88.648C52.5297 88.956 52.875 89.11 53.3417 89.11ZM59.6793 91C59.4647 91 59.3573 90.9067 59.3573 90.72C59.3573 90.664 59.376 90.6127 59.4133 90.566L66.3293 81.466C66.3947 81.382 66.46 81.3167 66.5253 81.27C66.5907 81.2233 66.6887 81.2 66.8193 81.2H67.8133C68.028 81.2 68.1353 81.2933 68.1353 81.48C68.1353 81.536 68.1167 81.5873 68.0793 81.634L61.1633 90.734C61.098 90.818 61.0327 90.8833 60.9673 90.93C60.902 90.9767 60.804 91 60.6733 91H59.6793ZM66.7213 91.07C66.0867 91.07 65.578 90.902 65.1953 90.566C64.822 90.23 64.612 89.782 64.5653 89.222C64.556 88.9793 64.5513 88.7647 64.5513 88.578C64.5513 88.3913 64.556 88.1673 64.5653 87.906C64.6027 87.3367 64.8033 86.884 65.1673 86.548C65.5407 86.2027 66.0587 86.03 66.7213 86.03C67.3933 86.03 67.9113 86.2027 68.2753 86.548C68.6393 86.884 68.84 87.3367 68.8773 87.906C68.896 88.1673 68.9053 88.3913 68.9053 88.578C68.9053 88.7647 68.896 88.9793 68.8773 89.222C68.84 89.782 68.63 90.23 68.2473 90.566C67.8647 90.902 67.356 91.07 66.7213 91.07ZM66.7213 89.838C66.88 89.838 67.0013 89.8053 67.0853 89.74C67.1787 89.6747 67.2487 89.5907 67.2953 89.488C67.342 89.376 67.3653 89.2593 67.3653 89.138C67.384 88.9233 67.3933 88.7273 67.3933 88.55C67.3933 88.3727 67.384 88.1813 67.3653 87.976C67.356 87.7987 67.3047 87.64 67.2113 87.5C67.118 87.3507 66.9547 87.276 66.7213 87.276C66.488 87.276 66.3247 87.3507 66.2313 87.5C66.138 87.64 66.0867 87.7987 66.0773 87.976C66.068 88.1813 66.0633 88.3727 66.0633 88.55C66.0633 88.7273 66.068 88.9233 66.0773 89.138C66.0867 89.2593 66.11 89.376 66.1473 89.488C66.194 89.5907 66.264 89.6747 66.3573 89.74C66.4507 89.8053 66.572 89.838 66.7213 89.838ZM60.7993 86.142C60.1553 86.142 59.642 85.9787 59.2593 85.652C58.886 85.316 58.6807 84.868 58.6433 84.308C58.6247 84.0653 58.6153 83.8553 58.6153 83.678C58.6247 83.4913 58.634 83.2673 58.6433 83.006C58.6713 82.4367 58.8673 81.984 59.2313 81.648C59.6047 81.3027 60.1273 81.13 60.7993 81.13C61.4713 81.13 61.9893 81.3027 62.3533 81.648C62.7173 81.984 62.9133 82.4367 62.9413 83.006C62.96 83.2673 62.9693 83.4913 62.9693 83.678C62.9693 83.8553 62.96 84.0653 62.9413 84.308C62.9133 84.868 62.708 85.316 62.3253 85.652C61.9427 85.9787 61.434 86.142 60.7993 86.142ZM60.7993 84.938C60.9487 84.938 61.07 84.9053 61.1633 84.84C61.2567 84.7653 61.3267 84.6767 61.3733 84.574C61.42 84.462 61.4433 84.35 61.4433 84.238C61.462 84.0233 61.4713 83.8273 61.4713 83.65C61.4713 83.4727 61.462 83.2813 61.4433 83.076C61.434 82.8987 61.378 82.74 61.2753 82.6C61.182 82.4507 61.0233 82.376 60.7993 82.376C60.566 82.376 60.398 82.4507 60.2953 82.6C60.202 82.74 60.1507 82.8987 60.1413 83.076C60.132 83.2813 60.1273 83.4727 60.1273 83.65C60.1273 83.8273 60.132 84.0233 60.1413 84.238C60.1507 84.35 60.174 84.462 60.2113 84.574C60.258 84.6767 60.328 84.7653 60.4213 84.84C60.5147 84.9053 60.6407 84.938 60.7993 84.938Z" fill="white"/>
<g filter="url(#filter0_d_16167_41098)">
<rect x="88" y="14" width="32" height="32" rx="16" fill="white"/>
<rect x="87" y="13" width="34" height="34" rx="17" stroke="#1DA534" stroke-width="2"/>
<path opacity="0.4" d="M104 40C109.523 40 114 35.5228 114 30C114 24.4772 109.523 20 104 20C98.4772 20 94 24.4772 94 30C94 35.5228 98.4772 40 104 40Z" fill="#1DA534"/>
<path d="M102.579 33.5801C102.379 33.5801 102.189 33.5001 102.049 33.3601L99.2195 30.5301C98.9295 30.2401 98.9295 29.7601 99.2195 29.4701C99.5095 29.1801 99.9895 29.1801 100.279 29.4701L102.579 31.7701L107.719 26.6301C108.009 26.3401 108.489 26.3401 108.779 26.6301C109.069 26.9201 109.069 27.4001 108.779 27.6901L103.109 33.3601C102.969 33.5001 102.779 33.5801 102.579 33.5801Z" fill="#1DA534"/>
</g>
<defs>
<filter id="filter0_d_16167_41098" x="71" y="5" width="66" height="66" filterUnits="userSpaceOnUse" color-interpolation-filters="sRGB">
<feFlood flood-opacity="0" result="BackgroundImageFix"/>
<feColorMatrix in="SourceAlpha" type="matrix" values="0 0 0 0 0 0 0 0 0 0 0 0 0 0 0 0 0 0 127 0" result="hardAlpha"/>
<feOffset dy="8"/>
<feGaussianBlur stdDeviation="7.5"/>
<feColorMatrix type="matrix" values="0 0 0 0 0 0 0 0 0 0 0 0 0 0 0 0 0 0 0.25 0"/>
<feBlend mode="normal" in2="BackgroundImageFix" result="effect1_dropShadow_16167_41098"/>
<feBlend mode="normal" in="SourceGraphic" in2="effect1_dropShadow_16167_41098" result="shape"/>
</filter>
<clipPath id="clip0_16167_41098">
<rect width="32" height="32" fill="white" transform="translate(43 19)"/>
</clipPath>
</defs>
</svg>
