<svg width="137" height="118" viewBox="0 0 137 118" fill="none" xmlns="http://www.w3.org/2000/svg">
<rect x="2" y="2" width="114" height="114" rx="57" fill="#FCE6E6"/>
<rect x="2" y="2" width="114" height="114" rx="57" stroke="#E53939" stroke-width="4"/>
<g clip-path="url(#clip0_16167_41100)">
<path d="M52.8818 35.7828C54.4292 35.8114 55.6242 35.1638 56.6218 34.1041C57.3387 33.3427 57.8367 32.454 58.1 31.4349C58.3117 30.6194 58.8718 30.1937 59.7231 30.1921C62.6652 30.189 65.6065 30.1921 68.5486 30.1866C68.7498 30.1866 68.8342 30.2263 68.8167 30.4443C68.7976 30.6806 68.8063 30.9201 68.8167 31.158C68.8294 31.4436 69.018 31.6194 69.2916 31.6186C69.5629 31.6178 69.773 31.4364 69.7674 31.158C69.7396 29.85 69.8716 28.5397 69.7054 27.2357C69.621 26.5746 69.3839 25.9572 69.0999 25.3549C68.9965 25.1369 68.874 25.2611 68.765 25.312C67.5294 25.8912 66.2549 26.3661 64.9453 26.748C63.3653 27.2079 61.7574 27.5245 60.1193 27.6948C58.3339 27.8809 56.551 27.8881 54.7665 27.7035C54.6329 27.69 54.5803 27.7091 54.5557 27.8603C54.4005 28.8142 54.3647 29.7721 54.4483 30.7339C54.4674 30.9559 54.4316 31.1636 54.3608 31.3736C53.8691 32.8303 53.3822 34.2878 52.881 35.7844L52.8818 35.7828Z" fill="#E53939"/>
<path d="M54.7897 26.7745C59.6046 27.2328 64.165 26.4189 68.5352 24.3861C67.9846 23.5945 67.2797 22.997 66.4992 22.4735C63.7592 20.6373 60.2212 20.6278 57.6546 22.4735C56.1685 23.542 55.3029 25.029 54.7905 26.7753L54.7897 26.7745Z" fill="#E53939"/>
<path opacity="0.4" d="M60.2335 14.546C60.3139 15.3185 60.3911 16.0767 60.4714 16.8341C60.5836 17.897 60.7045 18.9591 60.804 20.0228C60.8239 20.2344 60.909 20.2543 61.0824 20.2336C62.4238 20.0721 63.7309 20.2265 64.9991 20.6887C65.1773 20.754 65.2354 20.6999 65.3094 20.5487C66.1678 18.796 67.0327 17.0441 67.9038 15.2962C67.985 15.1339 67.977 15.0726 67.7956 15.0114C65.7494 14.3272 63.6554 14.04 61.5009 14.2182C61.1349 14.2484 60.7721 14.2938 60.4078 14.3367C60.2391 14.3566 60.2081 14.421 60.2335 14.546Z" fill="#E53939"/>
<path d="M68.7569 39.0492C68.7569 38.544 68.7482 38.038 68.7617 37.5328C68.7665 37.3458 68.71 37.2265 68.5636 37.1088C67.3646 36.1469 66.1752 35.1731 64.9747 34.2136C64.7376 34.0242 64.6238 33.8206 64.6326 33.5087C64.6525 32.7959 64.6326 32.0814 64.6429 31.3678C64.6453 31.1872 64.6007 31.1315 64.413 31.1339C63.6484 31.145 62.8831 31.1394 62.1185 31.137C61.992 31.137 61.8925 31.1251 61.8973 31.3121C61.9252 32.4203 61.8655 33.5286 62.0079 34.6361C62.2291 36.3633 63.0653 37.7325 64.3382 38.8782C65.5364 39.957 66.9398 40.5783 68.5246 40.8242C68.698 40.8512 68.7696 40.8289 68.7633 40.6261C68.7482 40.101 68.7577 39.5751 68.7585 39.05L68.7569 39.0492Z" fill="#E53939"/>
<path opacity="0.4" d="M59.8661 20.0477C59.7404 18.8606 59.6075 17.6108 59.4762 16.3609C59.4237 15.8589 59.3688 15.3568 59.3299 14.854C59.3123 14.6241 59.2614 14.5636 59.0053 14.6273C56.5477 15.2391 54.3765 16.3839 52.4758 18.0499C52.3358 18.1724 52.304 18.2353 52.4615 18.3809C53.7695 19.583 55.071 20.7931 56.3663 22.0088C56.5119 22.1456 56.5906 22.1186 56.7251 22.0056C57.57 21.2959 58.5311 20.8027 59.5908 20.4972C59.8852 20.4128 59.8852 20.4136 59.8661 20.0477Z" fill="#E53939"/>
<path opacity="0.4" d="M53.8438 26.6858C52.9487 26.5219 52.064 26.3588 51.1793 26.1997C50.1275 26.0095 49.0734 25.8313 48.024 25.6276C47.8219 25.5887 47.7702 25.6436 47.7256 25.8186C47.2491 27.689 47.1019 29.5825 47.2809 31.5039C47.296 31.6622 47.339 31.6694 47.4806 31.6391C49.4051 31.2246 51.3305 30.8165 53.2566 30.4092C53.4213 30.3741 53.4953 30.3113 53.4865 30.1188C53.4332 28.9651 53.5518 27.8267 53.8438 26.685V26.6858Z" fill="#E53939"/>
<path opacity="0.4" d="M53.9788 25.7553C54.1435 25.8078 54.1578 25.6917 54.1849 25.6185C54.5477 24.6335 55.0751 23.7457 55.7625 22.9541C55.9025 22.7933 55.788 22.7408 55.7005 22.6597C54.7179 21.7479 53.7354 20.8362 52.752 19.9252C52.4242 19.6213 52.0932 19.3214 51.7702 19.0127C51.666 18.9124 51.6087 18.8894 51.495 19.0167C50.0589 20.6277 48.895 22.4035 48.1551 24.4418C48.0843 24.6359 48.1002 24.7036 48.3118 24.741C50.0168 25.0409 51.7209 25.3504 53.4251 25.6567C53.62 25.6917 53.8149 25.7259 53.978 25.7553H53.9788Z" fill="#E53939"/>
</g>
<path d="M37.0135 59.5C36.9182 59.5 36.8445 59.474 36.7925 59.422C36.7405 59.3613 36.7145 59.2877 36.7145 59.201V50.712C36.7145 50.6167 36.7405 50.543 36.7925 50.491C36.8445 50.4303 36.9182 50.4 37.0135 50.4H37.6765C37.7718 50.4 37.8455 50.4303 37.8975 50.491C37.9582 50.543 37.9885 50.6167 37.9885 50.712V54.3H42.4605V50.712C42.4605 50.6167 42.4865 50.543 42.5385 50.491C42.5992 50.4303 42.6728 50.4 42.7595 50.4H43.4225C43.5178 50.4 43.5915 50.4303 43.6435 50.491C43.7042 50.543 43.7345 50.6167 43.7345 50.712V59.201C43.7345 59.2877 43.7042 59.3613 43.6435 59.422C43.5915 59.474 43.5178 59.5 43.4225 59.5H42.7595C42.6728 59.5 42.5992 59.474 42.5385 59.422C42.4865 59.3613 42.4605 59.2877 42.4605 59.201V55.47H37.9885V59.201C37.9885 59.2877 37.9582 59.3613 37.8975 59.422C37.8455 59.474 37.7718 59.5 37.6765 59.5H37.0135ZM46.1121 59.5C46.0254 59.5 45.9517 59.474 45.8911 59.422C45.8391 59.3613 45.8131 59.2877 45.8131 59.201V53.039C45.8131 52.9523 45.8391 52.883 45.8911 52.831C45.9517 52.7703 46.0254 52.74 46.1121 52.74H46.7361C46.8227 52.74 46.8921 52.7703 46.9441 52.831C46.9961 52.883 47.0221 52.9523 47.0221 53.039V59.201C47.0221 59.2877 46.9961 59.3613 46.9441 59.422C46.8921 59.474 46.8227 59.5 46.7361 59.5H46.1121ZM46.0081 51.479C45.9214 51.479 45.8477 51.453 45.7871 51.401C45.7351 51.3403 45.7091 51.2667 45.7091 51.18V50.478C45.7091 50.3913 45.7351 50.322 45.7871 50.27C45.8477 50.2093 45.9214 50.179 46.0081 50.179H46.8271C46.9137 50.179 46.9831 50.2093 47.0351 50.27C47.0957 50.322 47.1261 50.3913 47.1261 50.478V51.18C47.1261 51.2667 47.0957 51.3403 47.0351 51.401C46.9831 51.453 46.9137 51.479 46.8271 51.479H46.0081ZM51.3015 59.63C50.8162 59.63 50.4002 59.5693 50.0535 59.448C49.7068 59.3267 49.4252 59.1793 49.2085 59.006C48.9918 58.8327 48.8272 58.6593 48.7145 58.486C48.6105 58.3127 48.5542 58.174 48.5455 58.07C48.5368 57.9747 48.5672 57.901 48.6365 57.849C48.7058 57.797 48.7752 57.771 48.8445 57.771H49.4165C49.4685 57.771 49.5075 57.7797 49.5335 57.797C49.5682 57.8057 49.6115 57.8403 49.6635 57.901C49.7762 58.0223 49.9018 58.1437 50.0405 58.265C50.1792 58.3863 50.3482 58.486 50.5475 58.564C50.7555 58.642 51.0112 58.681 51.3145 58.681C51.7565 58.681 52.1205 58.5987 52.4065 58.434C52.6925 58.2607 52.8355 58.0093 52.8355 57.68C52.8355 57.4633 52.7748 57.29 52.6535 57.16C52.5408 57.03 52.3328 56.913 52.0295 56.809C51.7348 56.705 51.3275 56.5967 50.8075 56.484C50.2875 56.3627 49.8758 56.2153 49.5725 56.042C49.2692 55.86 49.0525 55.6477 48.9225 55.405C48.7925 55.1537 48.7275 54.872 48.7275 54.56C48.7275 54.2393 48.8228 53.9317 49.0135 53.637C49.2042 53.3337 49.4815 53.0867 49.8455 52.896C50.2182 52.7053 50.6818 52.61 51.2365 52.61C51.6872 52.61 52.0728 52.6663 52.3935 52.779C52.7142 52.8917 52.9785 53.0347 53.1865 53.208C53.3945 53.3727 53.5505 53.5373 53.6545 53.702C53.7585 53.8667 53.8148 54.0053 53.8235 54.118C53.8322 54.2047 53.8062 54.2783 53.7455 54.339C53.6848 54.391 53.6155 54.417 53.5375 54.417H52.9915C52.9308 54.417 52.8788 54.404 52.8355 54.378C52.8008 54.352 52.7662 54.3217 52.7315 54.287C52.6448 54.1743 52.5408 54.0617 52.4195 53.949C52.3068 53.8363 52.1552 53.7453 51.9645 53.676C51.7825 53.598 51.5398 53.559 51.2365 53.559C50.8032 53.559 50.4782 53.65 50.2615 53.832C50.0448 54.014 49.9365 54.2437 49.9365 54.521C49.9365 54.6857 49.9842 54.833 50.0795 54.963C50.1748 55.093 50.3568 55.21 50.6255 55.314C50.8942 55.418 51.2928 55.5307 51.8215 55.652C52.3935 55.7647 52.8442 55.9163 53.1735 56.107C53.5028 56.2977 53.7368 56.5187 53.8755 56.77C54.0142 57.0213 54.0835 57.3117 54.0835 57.641C54.0835 58.005 53.9752 58.3387 53.7585 58.642C53.5505 58.9453 53.2385 59.188 52.8225 59.37C52.4152 59.5433 51.9082 59.63 51.3015 59.63ZM58.2148 59.5C57.7294 59.5 57.3351 59.409 57.0318 59.227C56.7284 59.0363 56.5074 58.772 56.3688 58.434C56.2301 58.0873 56.1608 57.68 56.1608 57.212V53.78H55.1468C55.0601 53.78 54.9864 53.754 54.9258 53.702C54.8738 53.6413 54.8478 53.5677 54.8478 53.481V53.039C54.8478 52.9523 54.8738 52.883 54.9258 52.831C54.9864 52.7703 55.0601 52.74 55.1468 52.74H56.1608V50.569C56.1608 50.4823 56.1868 50.413 56.2388 50.361C56.2994 50.3003 56.3731 50.27 56.4598 50.27H57.0708C57.1574 50.27 57.2268 50.3003 57.2788 50.361C57.3394 50.413 57.3698 50.4823 57.3698 50.569V52.74H58.9818C59.0684 52.74 59.1378 52.7703 59.1898 52.831C59.2504 52.883 59.2808 52.9523 59.2808 53.039V53.481C59.2808 53.5677 59.2504 53.6413 59.1898 53.702C59.1378 53.754 59.0684 53.78 58.9818 53.78H57.3698V57.121C57.3698 57.5283 57.4391 57.849 57.5778 58.083C57.7164 58.317 57.9634 58.434 58.3188 58.434H59.1118C59.1984 58.434 59.2678 58.4643 59.3198 58.525C59.3804 58.577 59.4108 58.6463 59.4108 58.733V59.201C59.4108 59.2877 59.3804 59.3613 59.3198 59.422C59.2678 59.474 59.1984 59.5 59.1118 59.5H58.2148ZM63.4229 59.63C62.7642 59.63 62.2139 59.5043 61.7719 59.253C61.3299 59.0017 60.9919 58.655 60.7579 58.213C60.5239 57.7623 60.3939 57.251 60.3679 56.679C60.3592 56.5317 60.3549 56.3453 60.3549 56.12C60.3549 55.886 60.3592 55.6997 60.3679 55.561C60.3939 54.9803 60.5239 54.469 60.7579 54.027C61.0006 53.585 61.3429 53.2383 61.7849 52.987C62.2269 52.7357 62.7729 52.61 63.4229 52.61C64.0729 52.61 64.6189 52.7357 65.0609 52.987C65.5029 53.2383 65.8409 53.585 66.0749 54.027C66.3176 54.469 66.4519 54.9803 66.4779 55.561C66.4866 55.6997 66.4909 55.886 66.4909 56.12C66.4909 56.3453 66.4866 56.5317 66.4779 56.679C66.4519 57.251 66.3219 57.7623 66.0879 58.213C65.8539 58.655 65.5159 59.0017 65.0739 59.253C64.6319 59.5043 64.0816 59.63 63.4229 59.63ZM63.4229 58.629C63.9602 58.629 64.3892 58.46 64.7099 58.122C65.0306 57.7753 65.2039 57.2727 65.2299 56.614C65.2386 56.484 65.2429 56.3193 65.2429 56.12C65.2429 55.9207 65.2386 55.756 65.2299 55.626C65.2039 54.9673 65.0306 54.469 64.7099 54.131C64.3892 53.7843 63.9602 53.611 63.4229 53.611C62.8856 53.611 62.4522 53.7843 62.1229 54.131C61.8022 54.469 61.6332 54.9673 61.6159 55.626C61.6072 55.756 61.6029 55.9207 61.6029 56.12C61.6029 56.3193 61.6072 56.484 61.6159 56.614C61.6332 57.2727 61.8022 57.7753 62.1229 58.122C62.4522 58.46 62.8856 58.629 63.4229 58.629ZM68.4177 59.5C68.3311 59.5 68.2574 59.474 68.1967 59.422C68.1447 59.3613 68.1187 59.2877 68.1187 59.201V53.052C68.1187 52.9653 68.1447 52.8917 68.1967 52.831C68.2574 52.7703 68.3311 52.74 68.4177 52.74H69.0157C69.1024 52.74 69.1761 52.7703 69.2367 52.831C69.2974 52.8917 69.3277 52.9653 69.3277 53.052V53.624C69.5011 53.3293 69.7394 53.1083 70.0427 52.961C70.3461 52.8137 70.7101 52.74 71.1347 52.74H71.6547C71.7414 52.74 71.8107 52.7703 71.8627 52.831C71.9147 52.883 71.9407 52.9523 71.9407 53.039V53.572C71.9407 53.6587 71.9147 53.728 71.8627 53.78C71.8107 53.832 71.7414 53.858 71.6547 53.858H70.8747C70.4067 53.858 70.0384 53.9967 69.7697 54.274C69.5011 54.5427 69.3667 54.911 69.3667 55.379V59.201C69.3667 59.2877 69.3364 59.3613 69.2757 59.422C69.2151 59.474 69.1414 59.5 69.0547 59.5H68.4177ZM73.3562 59.5C73.2695 59.5 73.1959 59.474 73.1352 59.422C73.0832 59.3613 73.0572 59.2877 73.0572 59.201V53.039C73.0572 52.9523 73.0832 52.883 73.1352 52.831C73.1959 52.7703 73.2695 52.74 73.3562 52.74H73.9802C74.0669 52.74 74.1362 52.7703 74.1882 52.831C74.2402 52.883 74.2662 52.9523 74.2662 53.039V59.201C74.2662 59.2877 74.2402 59.3613 74.1882 59.422C74.1362 59.474 74.0669 59.5 73.9802 59.5H73.3562ZM73.2522 51.479C73.1655 51.479 73.0919 51.453 73.0312 51.401C72.9792 51.3403 72.9532 51.2667 72.9532 51.18V50.478C72.9532 50.3913 72.9792 50.322 73.0312 50.27C73.0919 50.2093 73.1655 50.179 73.2522 50.179H74.0712C74.1579 50.179 74.2272 50.2093 74.2792 50.27C74.3399 50.322 74.3702 50.3913 74.3702 50.478V51.18C74.3702 51.2667 74.3399 51.3403 74.2792 51.401C74.2272 51.453 74.1579 51.479 74.0712 51.479H73.2522ZM78.0907 59.63C77.6573 59.63 77.263 59.5433 76.9077 59.37C76.5523 59.1967 76.2663 58.9627 76.0497 58.668C75.833 58.3733 75.7247 58.0397 75.7247 57.667C75.7247 57.069 75.9673 56.5923 76.4527 56.237C76.938 55.8817 77.5707 55.6477 78.3507 55.535L80.2877 55.262V54.885C80.2877 54.469 80.1663 54.144 79.9237 53.91C79.6897 53.676 79.304 53.559 78.7667 53.559C78.3767 53.559 78.0603 53.637 77.8177 53.793C77.5837 53.949 77.419 54.1483 77.3237 54.391C77.2717 54.521 77.1807 54.586 77.0507 54.586H76.4657C76.3703 54.586 76.2967 54.56 76.2447 54.508C76.2013 54.4473 76.1797 54.378 76.1797 54.3C76.1797 54.17 76.2273 54.0097 76.3227 53.819C76.4267 53.6283 76.5827 53.442 76.7907 53.26C76.9987 53.078 77.263 52.9263 77.5837 52.805C77.913 52.675 78.3117 52.61 78.7797 52.61C79.2997 52.61 79.7373 52.6793 80.0927 52.818C80.448 52.948 80.7253 53.1257 80.9247 53.351C81.1327 53.5763 81.28 53.832 81.3667 54.118C81.462 54.404 81.5097 54.6943 81.5097 54.989V59.201C81.5097 59.2877 81.4793 59.3613 81.4187 59.422C81.3667 59.474 81.2973 59.5 81.2107 59.5H80.6127C80.5173 59.5 80.4437 59.474 80.3917 59.422C80.3397 59.3613 80.3137 59.2877 80.3137 59.201V58.642C80.201 58.798 80.0493 58.954 79.8587 59.11C79.668 59.2573 79.4297 59.383 79.1437 59.487C78.8577 59.5823 78.5067 59.63 78.0907 59.63ZM78.3637 58.655C78.719 58.655 79.044 58.5813 79.3387 58.434C79.6333 58.278 79.863 58.0397 80.0277 57.719C80.201 57.3983 80.2877 56.9953 80.2877 56.51V56.146L78.7797 56.367C78.1643 56.4537 77.7007 56.601 77.3887 56.809C77.0767 57.0083 76.9207 57.264 76.9207 57.576C76.9207 57.8187 76.99 58.0223 77.1287 58.187C77.276 58.343 77.458 58.46 77.6747 58.538C77.9 58.616 78.1297 58.655 78.3637 58.655ZM35.4238 74.63C34.6958 74.63 34.0675 74.5 33.5388 74.24C33.0188 73.98 32.6158 73.5857 32.3298 73.057C32.0525 72.5197 31.9138 71.8307 31.9138 70.99V65.712C31.9138 65.6167 31.9398 65.543 31.9918 65.491C32.0438 65.4303 32.1175 65.4 32.2128 65.4H32.8758C32.9712 65.4 33.0448 65.4303 33.0968 65.491C33.1575 65.543 33.1878 65.6167 33.1878 65.712V71.016C33.1878 71.8653 33.3872 72.4937 33.7858 72.901C34.1845 73.3083 34.7305 73.512 35.4238 73.512C36.1085 73.512 36.6502 73.3083 37.0488 72.901C37.4562 72.4937 37.6598 71.8653 37.6598 71.016V65.712C37.6598 65.6167 37.6858 65.543 37.7378 65.491C37.7985 65.4303 37.8722 65.4 37.9588 65.4H38.6348C38.7215 65.4 38.7908 65.4303 38.8428 65.491C38.9035 65.543 38.9338 65.6167 38.9338 65.712V70.99C38.9338 71.8307 38.7908 72.5197 38.5048 73.057C38.2275 73.5857 37.8288 73.98 37.3088 74.24C36.7888 74.5 36.1605 74.63 35.4238 74.63ZM41.2371 74.5C41.1504 74.5 41.0767 74.474 41.0161 74.422C40.9641 74.3613 40.9381 74.2877 40.9381 74.201V68.039C40.9381 67.9523 40.9641 67.883 41.0161 67.831C41.0767 67.7703 41.1504 67.74 41.2371 67.74H41.8481C41.9347 67.74 42.0041 67.7703 42.0561 67.831C42.1167 67.883 42.1471 67.9523 42.1471 68.039V68.611C42.3724 68.3163 42.6541 68.078 42.9921 67.896C43.3387 67.7053 43.7807 67.61 44.3181 67.61C44.8814 67.61 45.3581 67.7357 45.7481 67.987C46.1467 68.2297 46.4457 68.572 46.6451 69.014C46.8444 69.4473 46.9441 69.9543 46.9441 70.535V74.201C46.9441 74.2877 46.9181 74.3613 46.8661 74.422C46.8141 74.474 46.7447 74.5 46.6581 74.5H46.0081C45.9214 74.5 45.8477 74.474 45.7871 74.422C45.7351 74.3613 45.7091 74.2877 45.7091 74.201V70.6C45.7091 69.9933 45.5617 69.521 45.2671 69.183C44.9724 68.8363 44.5391 68.663 43.9671 68.663C43.4297 68.663 42.9964 68.8363 42.6671 69.183C42.3464 69.521 42.1861 69.9933 42.1861 70.6V74.201C42.1861 74.2877 42.1557 74.3613 42.0951 74.422C42.0431 74.474 41.9737 74.5 41.8871 74.5H41.2371ZM49.1209 74.5C49.0342 74.5 48.9605 74.474 48.8999 74.422C48.8479 74.3613 48.8219 74.2877 48.8219 74.201V68.039C48.8219 67.9523 48.8479 67.883 48.8999 67.831C48.9605 67.7703 49.0342 67.74 49.1209 67.74H49.7449C49.8315 67.74 49.9009 67.7703 49.9529 67.831C50.0049 67.883 50.0309 67.9523 50.0309 68.039V74.201C50.0309 74.2877 50.0049 74.3613 49.9529 74.422C49.9009 74.474 49.8315 74.5 49.7449 74.5H49.1209ZM49.0169 66.479C48.9302 66.479 48.8565 66.453 48.7959 66.401C48.7439 66.3403 48.7179 66.2667 48.7179 66.18V65.478C48.7179 65.3913 48.7439 65.322 48.7959 65.27C48.8565 65.2093 48.9302 65.179 49.0169 65.179H49.8359C49.9225 65.179 49.9919 65.2093 50.0439 65.27C50.1045 65.322 50.1349 65.3913 50.1349 65.478V66.18C50.1349 66.2667 50.1045 66.3403 50.0439 66.401C49.9919 66.453 49.9225 66.479 49.8359 66.479H49.0169ZM54.3233 74.5C54.1933 74.5 54.0893 74.4697 54.0113 74.409C53.942 74.3483 53.8856 74.2703 53.8423 74.175L51.4373 68.143C51.42 68.0997 51.4113 68.0563 51.4113 68.013C51.4113 67.935 51.4373 67.87 51.4893 67.818C51.5413 67.766 51.6063 67.74 51.6843 67.74H52.3083C52.4036 67.74 52.4773 67.766 52.5293 67.818C52.5813 67.87 52.6116 67.9177 52.6203 67.961L54.6093 73.083L56.5853 67.961C56.6026 67.9177 56.633 67.87 56.6763 67.818C56.7283 67.766 56.802 67.74 56.8973 67.74H57.5343C57.6036 67.74 57.6643 67.766 57.7163 67.818C57.777 67.87 57.8073 67.935 57.8073 68.013C57.8073 68.0563 57.7986 68.0997 57.7813 68.143L55.3633 74.175C55.3286 74.2703 55.2723 74.3483 55.1943 74.409C55.125 74.4697 55.021 74.5 54.8823 74.5H54.3233ZM61.6183 74.63C60.7257 74.63 60.015 74.357 59.4863 73.811C58.9577 73.2563 58.6673 72.5023 58.6153 71.549C58.6067 71.4363 58.6023 71.2933 58.6023 71.12C58.6023 70.938 58.6067 70.7907 58.6153 70.678C58.65 70.0627 58.793 69.5253 59.0443 69.066C59.2957 68.598 59.638 68.2383 60.0713 67.987C60.5133 67.7357 61.029 67.61 61.6183 67.61C62.277 67.61 62.8273 67.7487 63.2693 68.026C63.72 68.3033 64.0623 68.6977 64.2963 69.209C64.5303 69.7203 64.6473 70.3183 64.6473 71.003V71.224C64.6473 71.3193 64.617 71.393 64.5563 71.445C64.5043 71.497 64.435 71.523 64.3483 71.523H59.8503C59.8503 71.5317 59.8503 71.549 59.8503 71.575C59.8503 71.601 59.8503 71.6227 59.8503 71.64C59.8677 71.9953 59.9457 72.329 60.0843 72.641C60.223 72.9443 60.4223 73.1913 60.6823 73.382C60.9423 73.5727 61.2543 73.668 61.6183 73.668C61.9303 73.668 62.1903 73.6203 62.3983 73.525C62.6063 73.4297 62.7753 73.3257 62.9053 73.213C63.0353 73.0917 63.122 73.0007 63.1653 72.94C63.2433 72.8273 63.304 72.7623 63.3473 72.745C63.3907 72.719 63.46 72.706 63.5553 72.706H64.1793C64.266 72.706 64.3353 72.732 64.3873 72.784C64.448 72.8273 64.474 72.8923 64.4653 72.979C64.4567 73.109 64.3873 73.2693 64.2573 73.46C64.1273 73.642 63.941 73.824 63.6983 74.006C63.4557 74.188 63.161 74.3397 62.8143 74.461C62.4677 74.5737 62.069 74.63 61.6183 74.63ZM59.8503 70.626H63.4123V70.587C63.4123 70.197 63.3387 69.8503 63.1913 69.547C63.0527 69.2437 62.849 69.0053 62.5803 68.832C62.3117 68.65 61.991 68.559 61.6183 68.559C61.2457 68.559 60.925 68.65 60.6563 68.832C60.3963 69.0053 60.197 69.2437 60.0583 69.547C59.9197 69.8503 59.8503 70.197 59.8503 70.587V70.626ZM66.5007 74.5C66.4141 74.5 66.3404 74.474 66.2797 74.422C66.2277 74.3613 66.2017 74.2877 66.2017 74.201V68.052C66.2017 67.9653 66.2277 67.8917 66.2797 67.831C66.3404 67.7703 66.4141 67.74 66.5007 67.74H67.0987C67.1854 67.74 67.2591 67.7703 67.3197 67.831C67.3804 67.8917 67.4107 67.9653 67.4107 68.052V68.624C67.5841 68.3293 67.8224 68.1083 68.1257 67.961C68.4291 67.8137 68.7931 67.74 69.2177 67.74H69.7377C69.8244 67.74 69.8937 67.7703 69.9457 67.831C69.9977 67.883 70.0237 67.9523 70.0237 68.039V68.572C70.0237 68.6587 69.9977 68.728 69.9457 68.78C69.8937 68.832 69.8244 68.858 69.7377 68.858H68.9577C68.4897 68.858 68.1214 68.9967 67.8527 69.274C67.5841 69.5427 67.4497 69.911 67.4497 70.379V74.201C67.4497 74.2877 67.4194 74.3613 67.3587 74.422C67.2981 74.474 67.2244 74.5 67.1377 74.5H66.5007ZM73.4802 74.63C72.9949 74.63 72.5789 74.5693 72.2322 74.448C71.8856 74.3267 71.6039 74.1793 71.3872 74.006C71.1706 73.8327 71.0059 73.6593 70.8932 73.486C70.7892 73.3127 70.7329 73.174 70.7242 73.07C70.7156 72.9747 70.7459 72.901 70.8152 72.849C70.8846 72.797 70.9539 72.771 71.0232 72.771H71.5952C71.6472 72.771 71.6862 72.7797 71.7122 72.797C71.7469 72.8057 71.7902 72.8403 71.8422 72.901C71.9549 73.0223 72.0806 73.1437 72.2192 73.265C72.3579 73.3863 72.5269 73.486 72.7262 73.564C72.9342 73.642 73.1899 73.681 73.4932 73.681C73.9352 73.681 74.2992 73.5987 74.5852 73.434C74.8712 73.2607 75.0142 73.0093 75.0142 72.68C75.0142 72.4633 74.9536 72.29 74.8322 72.16C74.7196 72.03 74.5116 71.913 74.2082 71.809C73.9136 71.705 73.5062 71.5967 72.9862 71.484C72.4662 71.3627 72.0546 71.2153 71.7512 71.042C71.4479 70.86 71.2312 70.6477 71.1012 70.405C70.9712 70.1537 70.9062 69.872 70.9062 69.56C70.9062 69.2393 71.0016 68.9317 71.1922 68.637C71.3829 68.3337 71.6602 68.0867 72.0242 67.896C72.3969 67.7053 72.8606 67.61 73.4152 67.61C73.8659 67.61 74.2516 67.6663 74.5722 67.779C74.8929 67.8917 75.1572 68.0347 75.3652 68.208C75.5732 68.3727 75.7292 68.5373 75.8332 68.702C75.9372 68.8667 75.9936 69.0053 76.0022 69.118C76.0109 69.2047 75.9849 69.2783 75.9242 69.339C75.8636 69.391 75.7942 69.417 75.7162 69.417H75.1702C75.1096 69.417 75.0576 69.404 75.0142 69.378C74.9796 69.352 74.9449 69.3217 74.9102 69.287C74.8236 69.1743 74.7196 69.0617 74.5982 68.949C74.4856 68.8363 74.3339 68.7453 74.1432 68.676C73.9612 68.598 73.7186 68.559 73.4152 68.559C72.9819 68.559 72.6569 68.65 72.4402 68.832C72.2236 69.014 72.1152 69.2437 72.1152 69.521C72.1152 69.6857 72.1629 69.833 72.2582 69.963C72.3536 70.093 72.5356 70.21 72.8042 70.314C73.0729 70.418 73.4716 70.5307 74.0002 70.652C74.5722 70.7647 75.0229 70.9163 75.3522 71.107C75.6816 71.2977 75.9156 71.5187 76.0542 71.77C76.1929 72.0213 76.2622 72.3117 76.2622 72.641C76.2622 73.005 76.1539 73.3387 75.9372 73.642C75.7292 73.9453 75.4172 74.188 75.0012 74.37C74.5939 74.5433 74.0869 74.63 73.4802 74.63ZM79.6522 74.63C79.2188 74.63 78.8245 74.5433 78.4692 74.37C78.1138 74.1967 77.8278 73.9627 77.6112 73.668C77.3945 73.3733 77.2862 73.0397 77.2862 72.667C77.2862 72.069 77.5288 71.5923 78.0142 71.237C78.4995 70.8817 79.1322 70.6477 79.9122 70.535L81.8492 70.262V69.885C81.8492 69.469 81.7278 69.144 81.4852 68.91C81.2512 68.676 80.8655 68.559 80.3282 68.559C79.9382 68.559 79.6218 68.637 79.3792 68.793C79.1452 68.949 78.9805 69.1483 78.8852 69.391C78.8332 69.521 78.7422 69.586 78.6122 69.586H78.0272C77.9318 69.586 77.8582 69.56 77.8062 69.508C77.7628 69.4473 77.7412 69.378 77.7412 69.3C77.7412 69.17 77.7888 69.0097 77.8842 68.819C77.9882 68.6283 78.1442 68.442 78.3522 68.26C78.5602 68.078 78.8245 67.9263 79.1452 67.805C79.4745 67.675 79.8732 67.61 80.3412 67.61C80.8612 67.61 81.2988 67.6793 81.6542 67.818C82.0095 67.948 82.2868 68.1257 82.4862 68.351C82.6942 68.5763 82.8415 68.832 82.9282 69.118C83.0235 69.404 83.0712 69.6943 83.0712 69.989V74.201C83.0712 74.2877 83.0408 74.3613 82.9802 74.422C82.9282 74.474 82.8588 74.5 82.7722 74.5H82.1742C82.0788 74.5 82.0052 74.474 81.9532 74.422C81.9012 74.3613 81.8752 74.2877 81.8752 74.201V73.642C81.7625 73.798 81.6108 73.954 81.4202 74.11C81.2295 74.2573 80.9912 74.383 80.7052 74.487C80.4192 74.5823 80.0682 74.63 79.6522 74.63ZM79.9252 73.655C80.2805 73.655 80.6055 73.5813 80.9002 73.434C81.1948 73.278 81.4245 73.0397 81.5892 72.719C81.7625 72.3983 81.8492 71.9953 81.8492 71.51V71.146L80.3412 71.367C79.7258 71.4537 79.2622 71.601 78.9502 71.809C78.6382 72.0083 78.4822 72.264 78.4822 72.576C78.4822 72.8187 78.5515 73.0223 78.6902 73.187C78.8375 73.343 79.0195 73.46 79.2362 73.538C79.4615 73.616 79.6912 73.655 79.9252 73.655ZM85.252 74.5C85.1654 74.5 85.0917 74.474 85.031 74.422C84.979 74.3613 84.953 74.2877 84.953 74.201V65.569C84.953 65.4823 84.979 65.413 85.031 65.361C85.0917 65.3003 85.1654 65.27 85.252 65.27H85.863C85.9584 65.27 86.032 65.3003 86.084 65.361C86.136 65.413 86.162 65.4823 86.162 65.569V74.201C86.162 74.2877 86.136 74.3613 86.084 74.422C86.032 74.474 85.9584 74.5 85.863 74.5H85.252Z" fill="#171B22"/>
<rect x="40.5" y="81.5" width="37" height="25" rx="12.5" fill="#E53939"/>
<path d="M53.3417 98.64C52.6697 98.64 52.0864 98.5467 51.5917 98.36C51.097 98.164 50.6864 97.898 50.3597 97.562C50.0424 97.226 49.7997 96.834 49.6317 96.386C49.4637 95.938 49.3657 95.4573 49.3377 94.944C49.3284 94.692 49.319 94.4073 49.3097 94.09C49.3097 93.7633 49.3097 93.4367 49.3097 93.11C49.319 92.774 49.3284 92.4753 49.3377 92.214C49.3657 91.7007 49.4637 91.2247 49.6317 90.786C49.809 90.338 50.061 89.9507 50.3877 89.624C50.7237 89.288 51.1344 89.0267 51.6197 88.84C52.1144 88.6533 52.6884 88.56 53.3417 88.56C54.0044 88.56 54.5784 88.6533 55.0637 88.84C55.549 89.0267 55.955 89.288 56.2817 89.624C56.6177 89.9507 56.8744 90.338 57.0517 90.786C57.229 91.2247 57.327 91.7007 57.3457 92.214C57.3644 92.4753 57.3737 92.774 57.3737 93.11C57.383 93.4367 57.383 93.7633 57.3737 94.09C57.3737 94.4073 57.3644 94.692 57.3457 94.944C57.327 95.4573 57.229 95.938 57.0517 96.386C56.8837 96.834 56.6364 97.226 56.3097 97.562C55.9924 97.898 55.5864 98.164 55.0917 98.36C54.6064 98.5467 54.023 98.64 53.3417 98.64ZM53.3417 96.61C53.827 96.61 54.177 96.456 54.3917 96.148C54.6157 95.8307 54.7324 95.406 54.7417 94.874C54.7604 94.6033 54.7697 94.3187 54.7697 94.02C54.779 93.7213 54.779 93.4227 54.7697 93.124C54.7697 92.8253 54.7604 92.55 54.7417 92.298C54.7324 91.7847 54.6157 91.3693 54.3917 91.052C54.177 90.7347 53.827 90.5713 53.3417 90.562C52.8564 90.5713 52.5064 90.7347 52.2917 91.052C52.077 91.3693 51.9604 91.7847 51.9417 92.298C51.9324 92.55 51.923 92.8253 51.9137 93.124C51.9137 93.4227 51.9137 93.7213 51.9137 94.02C51.923 94.3187 51.9324 94.6033 51.9417 94.874C51.9604 95.406 52.0817 95.8307 52.3057 96.148C52.5297 96.456 52.875 96.61 53.3417 96.61ZM59.6793 98.5C59.4647 98.5 59.3573 98.4067 59.3573 98.22C59.3573 98.164 59.376 98.1127 59.4133 98.066L66.3293 88.966C66.3947 88.882 66.46 88.8167 66.5253 88.77C66.5907 88.7233 66.6887 88.7 66.8193 88.7H67.8133C68.028 88.7 68.1353 88.7933 68.1353 88.98C68.1353 89.036 68.1167 89.0873 68.0793 89.134L61.1633 98.234C61.098 98.318 61.0327 98.3833 60.9673 98.43C60.902 98.4767 60.804 98.5 60.6733 98.5H59.6793ZM66.7213 98.57C66.0867 98.57 65.578 98.402 65.1953 98.066C64.822 97.73 64.612 97.282 64.5653 96.722C64.556 96.4793 64.5513 96.2647 64.5513 96.078C64.5513 95.8913 64.556 95.6673 64.5653 95.406C64.6027 94.8367 64.8033 94.384 65.1673 94.048C65.5407 93.7027 66.0587 93.53 66.7213 93.53C67.3933 93.53 67.9113 93.7027 68.2753 94.048C68.6393 94.384 68.84 94.8367 68.8773 95.406C68.896 95.6673 68.9053 95.8913 68.9053 96.078C68.9053 96.2647 68.896 96.4793 68.8773 96.722C68.84 97.282 68.63 97.73 68.2473 98.066C67.8647 98.402 67.356 98.57 66.7213 98.57ZM66.7213 97.338C66.88 97.338 67.0013 97.3053 67.0853 97.24C67.1787 97.1747 67.2487 97.0907 67.2953 96.988C67.342 96.876 67.3653 96.7593 67.3653 96.638C67.384 96.4233 67.3933 96.2273 67.3933 96.05C67.3933 95.8727 67.384 95.6813 67.3653 95.476C67.356 95.2987 67.3047 95.14 67.2113 95C67.118 94.8507 66.9547 94.776 66.7213 94.776C66.488 94.776 66.3247 94.8507 66.2313 95C66.138 95.14 66.0867 95.2987 66.0773 95.476C66.068 95.6813 66.0633 95.8727 66.0633 96.05C66.0633 96.2273 66.068 96.4233 66.0773 96.638C66.0867 96.7593 66.11 96.876 66.1473 96.988C66.194 97.0907 66.264 97.1747 66.3573 97.24C66.4507 97.3053 66.572 97.338 66.7213 97.338ZM60.7993 93.642C60.1553 93.642 59.642 93.4787 59.2593 93.152C58.886 92.816 58.6807 92.368 58.6433 91.808C58.6247 91.5653 58.6153 91.3553 58.6153 91.178C58.6247 90.9913 58.634 90.7673 58.6433 90.506C58.6713 89.9367 58.8673 89.484 59.2313 89.148C59.6047 88.8027 60.1273 88.63 60.7993 88.63C61.4713 88.63 61.9893 88.8027 62.3533 89.148C62.7173 89.484 62.9133 89.9367 62.9413 90.506C62.96 90.7673 62.9693 90.9913 62.9693 91.178C62.9693 91.3553 62.96 91.5653 62.9413 91.808C62.9133 92.368 62.708 92.816 62.3253 93.152C61.9427 93.4787 61.434 93.642 60.7993 93.642ZM60.7993 92.438C60.9487 92.438 61.07 92.4053 61.1633 92.34C61.2567 92.2653 61.3267 92.1767 61.3733 92.074C61.42 91.962 61.4433 91.85 61.4433 91.738C61.462 91.5233 61.4713 91.3273 61.4713 91.15C61.4713 90.9727 61.462 90.7813 61.4433 90.576C61.434 90.3987 61.378 90.24 61.2753 90.1C61.182 89.9507 61.0233 89.876 60.7993 89.876C60.566 89.876 60.398 89.9507 60.2953 90.1C60.202 90.24 60.1507 90.3987 60.1413 90.576C60.132 90.7813 60.1273 90.9727 60.1273 91.15C60.1273 91.3273 60.132 91.5233 60.1413 91.738C60.1507 91.85 60.174 91.962 60.2113 92.074C60.258 92.1767 60.328 92.2653 60.4213 92.34C60.5147 92.4053 60.6407 92.438 60.7993 92.438Z" fill="white"/>
<g filter="url(#filter0_d_16167_41100)">
<rect x="88" y="14" width="32" height="32" rx="16" fill="white"/>
<rect x="87" y="13" width="34" height="34" rx="17" stroke="#1DA534" stroke-width="2"/>
<path opacity="0.4" d="M104 40C109.523 40 114 35.5228 114 30C114 24.4772 109.523 20 104 20C98.4772 20 94 24.4772 94 30C94 35.5228 98.4772 40 104 40Z" fill="#1DA534"/>
<path d="M102.579 33.5801C102.379 33.5801 102.189 33.5001 102.049 33.3601L99.2195 30.5301C98.9295 30.2401 98.9295 29.7601 99.2195 29.4701C99.5095 29.1801 99.9895 29.1801 100.279 29.4701L102.579 31.7701L107.719 26.6301C108.009 26.3401 108.489 26.3401 108.779 26.6301C109.069 26.9201 109.069 27.4001 108.779 27.6901L103.109 33.3601C102.969 33.5001 102.779 33.5801 102.579 33.5801Z" fill="#1DA534"/>
</g>
<defs>
<filter id="filter0_d_16167_41100" x="71" y="5" width="66" height="66" filterUnits="userSpaceOnUse" color-interpolation-filters="sRGB">
<feFlood flood-opacity="0" result="BackgroundImageFix"/>
<feColorMatrix in="SourceAlpha" type="matrix" values="0 0 0 0 0 0 0 0 0 0 0 0 0 0 0 0 0 0 127 0" result="hardAlpha"/>
<feOffset dy="8"/>
<feGaussianBlur stdDeviation="7.5"/>
<feColorMatrix type="matrix" values="0 0 0 0 0 0 0 0 0 0 0 0 0 0 0 0 0 0 0.25 0"/>
<feBlend mode="normal" in2="BackgroundImageFix" result="effect1_dropShadow_16167_41100"/>
<feBlend mode="normal" in="SourceGraphic" in2="effect1_dropShadow_16167_41100" result="shape"/>
</filter>
<clipPath id="clip0_16167_41100">
<rect width="22.5829" height="26.6667" fill="white" transform="matrix(-1 0 0 1 69.791 14.1665)"/>
</clipPath>
</defs>
</svg>
