<svg width="137" height="118" viewBox="0 0 137 118" fill="none" xmlns="http://www.w3.org/2000/svg">
<rect x="2" y="2" width="114" height="114" rx="57" fill="white"/>
<rect x="2" y="2" width="114" height="114" rx="57" stroke="#DEE2E6" stroke-width="4"/>
<g clip-path="url(#clip0_15958_19600)">
<mask id="mask0_15958_19600" style="mask-type:luminance" maskUnits="userSpaceOnUse" x="43" y="19" width="32" height="32">
<path d="M75 19H43V51H75V19Z" fill="white"/>
</mask>
<g mask="url(#mask0_15958_19600)">
<path opacity="0.4" d="M53.6667 48.3332H64.3333C68.0133 48.3332 71 45.3465 71 41.6665V28.3332C71 24.6532 68.0133 21.6665 64.3333 21.6665H53.6667C49.9867 21.6665 47 24.6532 47 28.3332V41.6665C47 45.3465 49.9867 48.3332 53.6667 48.3332Z" fill="#E8B600"/>
<path d="M63.0008 26.6143H55.0008C53.6275 26.6143 52.4941 27.7343 52.4941 29.1209V30.4543C52.4941 31.8276 53.6141 32.9609 55.0008 32.9609H63.0008C64.3741 32.9609 65.5074 31.8409 65.5074 30.4543V29.1209C65.5074 27.7343 64.3874 26.6143 63.0008 26.6143Z" fill="#E8B600"/>
<path d="M53.8799 38.8944C53.6932 38.8944 53.5199 38.8544 53.3599 38.7877C53.1999 38.7211 53.0532 38.6277 52.9332 38.5077C52.6799 38.2544 52.5332 37.9211 52.5332 37.5611C52.5332 37.3877 52.5732 37.2144 52.6399 37.0544C52.7065 36.8811 52.7999 36.7477 52.9332 36.6144C53.2399 36.3077 53.7065 36.1611 54.1332 36.2544C54.2132 36.2677 54.3065 36.2944 54.3865 36.3344C54.4665 36.3611 54.5465 36.4011 54.6132 36.4544C54.6932 36.4944 54.7599 36.5611 54.8132 36.6144C54.9332 36.7477 55.0399 36.8811 55.1065 37.0544C55.1732 37.2144 55.1999 37.3877 55.1999 37.5611C55.1999 37.9211 55.0665 38.2544 54.8132 38.5077C54.5599 38.7611 54.2265 38.8944 53.8799 38.8944Z" fill="#E8B600"/>
<path d="M59.2005 38.8922C58.8539 38.8922 58.5205 38.7589 58.2672 38.5055C58.0139 38.2522 57.8672 37.9189 57.8672 37.5589C57.8672 37.2122 58.0139 36.8655 58.2672 36.6122C58.7605 36.1189 59.6539 36.1189 60.1472 36.6122C60.2672 36.7455 60.3739 36.8789 60.4405 37.0522C60.5072 37.2122 60.5339 37.3855 60.5339 37.5589C60.5339 37.9189 60.4005 38.2522 60.1472 38.5055C59.8939 38.7589 59.5605 38.8922 59.2005 38.8922Z" fill="#E8B600"/>
<path d="M64.5326 38.8922C64.1859 38.8922 63.8526 38.7589 63.5992 38.5055C63.3459 38.2522 63.1992 37.9189 63.1992 37.5589C63.1992 37.2122 63.3459 36.8655 63.5992 36.6122C64.0926 36.1189 64.9859 36.1189 65.4792 36.6122C65.7326 36.8655 65.8792 37.2122 65.8792 37.5589C65.8792 37.7322 65.8392 37.9055 65.7726 38.0655C65.7059 38.2255 65.6126 38.3722 65.4792 38.5055C65.2259 38.7589 64.8926 38.8922 64.5326 38.8922Z" fill="#E8B600"/>
<path d="M53.8799 44.2274C53.5199 44.2274 53.1865 44.0941 52.9332 43.8407C52.6799 43.5874 52.5332 43.254 52.5332 42.894C52.5332 42.5474 52.6799 42.2007 52.9332 41.9474C53.0532 41.8274 53.1999 41.734 53.3599 41.6674C53.6932 41.534 54.0532 41.534 54.3865 41.6674C54.4665 41.694 54.5465 41.734 54.6132 41.7874C54.6932 41.8274 54.7599 41.8941 54.8132 41.9474C55.0665 42.2007 55.2132 42.5474 55.2132 42.894C55.2132 43.254 55.0665 43.5874 54.8132 43.8407C54.5599 44.0941 54.2265 44.2274 53.8799 44.2274Z" fill="#E8B600"/>
<path d="M59.2005 44.2266C58.8539 44.2266 58.5205 44.0933 58.2672 43.84C58.0139 43.5866 57.8672 43.2533 57.8672 42.8933C57.8672 42.8 57.8805 42.72 57.8939 42.6266C57.9205 42.5466 57.9472 42.4666 57.9739 42.3866C58.0139 42.3066 58.0539 42.2266 58.0939 42.1466C58.1472 42.08 58.2005 42.0133 58.2672 41.9466C58.3872 41.8266 58.5339 41.7333 58.6939 41.6666C59.1872 41.4666 59.7739 41.5733 60.1472 41.9466C60.4005 42.2 60.5339 42.5466 60.5339 42.8933C60.5339 43.2533 60.4005 43.5866 60.1472 43.84C60.0272 43.96 59.8805 44.0533 59.7205 44.12C59.5605 44.1866 59.3872 44.2266 59.2005 44.2266Z" fill="#E8B600"/>
<path d="M64.5329 44.2266C64.3596 44.2266 64.1862 44.1866 64.0262 44.12C63.8662 44.0533 63.7196 43.96 63.5996 43.84C63.3462 43.5866 63.2129 43.2533 63.2129 42.8933C63.2129 42.5466 63.3462 42.2 63.5996 41.9466C63.9596 41.5733 64.5596 41.4666 65.0529 41.6666C65.2129 41.7333 65.3596 41.8266 65.4796 41.9466C65.7329 42.2 65.8662 42.5466 65.8662 42.8933C65.8662 43.2533 65.7329 43.5866 65.4796 43.84C65.2262 44.0933 64.8929 44.2266 64.5329 44.2266Z" fill="#E8B600"/>
</g>
</g>
<path d="M33.3826 67C33.2873 67 33.2136 66.974 33.1616 66.922C33.1096 66.8613 33.0836 66.7877 33.0836 66.701V58.212C33.0836 58.1167 33.1096 58.043 33.1616 57.991C33.2136 57.9303 33.2873 57.9 33.3826 57.9H38.6866C38.782 57.9 38.8556 57.9303 38.9076 57.991C38.9596 58.043 38.9856 58.1167 38.9856 58.212V58.732C38.9856 58.8273 38.9596 58.901 38.9076 58.953C38.8556 59.005 38.782 59.031 38.6866 59.031H34.3446V62.06H38.4266C38.522 62.06 38.5956 62.0903 38.6476 62.151C38.6996 62.203 38.7256 62.2767 38.7256 62.372V62.892C38.7256 62.9787 38.6996 63.0523 38.6476 63.113C38.5956 63.165 38.522 63.191 38.4266 63.191H34.3446V66.701C34.3446 66.7877 34.3143 66.8613 34.2536 66.922C34.2016 66.974 34.128 67 34.0326 67H33.3826ZM40.8054 67C40.7188 67 40.6451 66.974 40.5844 66.922C40.5324 66.8613 40.5064 66.7877 40.5064 66.701V60.539C40.5064 60.4523 40.5324 60.383 40.5844 60.331C40.6451 60.2703 40.7188 60.24 40.8054 60.24H41.4294C41.5161 60.24 41.5854 60.2703 41.6374 60.331C41.6894 60.383 41.7154 60.4523 41.7154 60.539V66.701C41.7154 66.7877 41.6894 66.8613 41.6374 66.922C41.5854 66.974 41.5161 67 41.4294 67H40.8054ZM40.7014 58.979C40.6148 58.979 40.5411 58.953 40.4804 58.901C40.4284 58.8403 40.4024 58.7667 40.4024 58.68V57.978C40.4024 57.8913 40.4284 57.822 40.4804 57.77C40.5411 57.7093 40.6148 57.679 40.7014 57.679H41.5204C41.6071 57.679 41.6764 57.7093 41.7284 57.77C41.7891 57.822 41.8194 57.8913 41.8194 57.978V58.68C41.8194 58.7667 41.7891 58.8403 41.7284 58.901C41.6764 58.953 41.6071 58.979 41.5204 58.979H40.7014ZM43.9539 67C43.8672 67 43.7935 66.974 43.7329 66.922C43.6809 66.8613 43.6549 66.7877 43.6549 66.701V60.539C43.6549 60.4523 43.6809 60.383 43.7329 60.331C43.7935 60.2703 43.8672 60.24 43.9539 60.24H44.5649C44.6515 60.24 44.7209 60.2703 44.7729 60.331C44.8335 60.383 44.8639 60.4523 44.8639 60.539V61.111C45.0892 60.8163 45.3709 60.578 45.7089 60.396C46.0555 60.2053 46.4975 60.11 47.0349 60.11C47.5982 60.11 48.0749 60.2357 48.4649 60.487C48.8635 60.7297 49.1625 61.072 49.3619 61.514C49.5612 61.9473 49.6609 62.4543 49.6609 63.035V66.701C49.6609 66.7877 49.6349 66.8613 49.5829 66.922C49.5309 66.974 49.4615 67 49.3749 67H48.7249C48.6382 67 48.5645 66.974 48.5039 66.922C48.4519 66.8613 48.4259 66.7877 48.4259 66.701V63.1C48.4259 62.4933 48.2785 62.021 47.9839 61.683C47.6892 61.3363 47.2559 61.163 46.6839 61.163C46.1465 61.163 45.7132 61.3363 45.3839 61.683C45.0632 62.021 44.9029 62.4933 44.9029 63.1V66.701C44.9029 66.7877 44.8725 66.8613 44.8119 66.922C44.7599 66.974 44.6905 67 44.6039 67H43.9539ZM53.4237 67.13C52.9903 67.13 52.596 67.0433 52.2407 66.87C51.8853 66.6967 51.5993 66.4627 51.3827 66.168C51.166 65.8733 51.0577 65.5397 51.0577 65.167C51.0577 64.569 51.3003 64.0923 51.7857 63.737C52.271 63.3817 52.9037 63.1477 53.6837 63.035L55.6207 62.762V62.385C55.6207 61.969 55.4993 61.644 55.2567 61.41C55.0227 61.176 54.637 61.059 54.0997 61.059C53.7097 61.059 53.3933 61.137 53.1507 61.293C52.9167 61.449 52.752 61.6483 52.6567 61.891C52.6047 62.021 52.5137 62.086 52.3837 62.086H51.7987C51.7033 62.086 51.6297 62.06 51.5777 62.008C51.5343 61.9473 51.5127 61.878 51.5127 61.8C51.5127 61.67 51.5603 61.5097 51.6557 61.319C51.7597 61.1283 51.9157 60.942 52.1237 60.76C52.3317 60.578 52.596 60.4263 52.9167 60.305C53.246 60.175 53.6447 60.11 54.1127 60.11C54.6327 60.11 55.0703 60.1793 55.4257 60.318C55.781 60.448 56.0583 60.6257 56.2577 60.851C56.4657 61.0763 56.613 61.332 56.6997 61.618C56.795 61.904 56.8427 62.1943 56.8427 62.489V66.701C56.8427 66.7877 56.8123 66.8613 56.7517 66.922C56.6997 66.974 56.6303 67 56.5437 67H55.9457C55.8503 67 55.7767 66.974 55.7247 66.922C55.6727 66.8613 55.6467 66.7877 55.6467 66.701V66.142C55.534 66.298 55.3823 66.454 55.1917 66.61C55.001 66.7573 54.7627 66.883 54.4767 66.987C54.1907 67.0823 53.8397 67.13 53.4237 67.13ZM53.6967 66.155C54.052 66.155 54.377 66.0813 54.6717 65.934C54.9663 65.778 55.196 65.5397 55.3607 65.219C55.534 64.8983 55.6207 64.4953 55.6207 64.01V63.646L54.1127 63.867C53.4973 63.9537 53.0337 64.101 52.7217 64.309C52.4097 64.5083 52.2537 64.764 52.2537 65.076C52.2537 65.3187 52.323 65.5223 52.4617 65.687C52.609 65.843 52.791 65.96 53.0077 66.038C53.233 66.116 53.4627 66.155 53.6967 66.155ZM59.0105 67C58.9238 67 58.8502 66.974 58.7895 66.922C58.7375 66.8613 58.7115 66.7877 58.7115 66.701V60.539C58.7115 60.4523 58.7375 60.383 58.7895 60.331C58.8502 60.2703 58.9238 60.24 59.0105 60.24H59.6215C59.7082 60.24 59.7775 60.2703 59.8295 60.331C59.8902 60.383 59.9205 60.4523 59.9205 60.539V61.111C60.1458 60.8163 60.4275 60.578 60.7655 60.396C61.1122 60.2053 61.5542 60.11 62.0915 60.11C62.6548 60.11 63.1315 60.2357 63.5215 60.487C63.9202 60.7297 64.2192 61.072 64.4185 61.514C64.6178 61.9473 64.7175 62.4543 64.7175 63.035V66.701C64.7175 66.7877 64.6915 66.8613 64.6395 66.922C64.5875 66.974 64.5182 67 64.4315 67H63.7815C63.6948 67 63.6212 66.974 63.5605 66.922C63.5085 66.8613 63.4825 66.7877 63.4825 66.701V63.1C63.4825 62.4933 63.3352 62.021 63.0405 61.683C62.7458 61.3363 62.3125 61.163 61.7405 61.163C61.2032 61.163 60.7698 61.3363 60.4405 61.683C60.1198 62.021 59.9595 62.4933 59.9595 63.1V66.701C59.9595 66.7877 59.9292 66.8613 59.8685 66.922C59.8165 66.974 59.7472 67 59.6605 67H59.0105ZM66.4653 67C66.3786 67 66.305 66.974 66.2443 66.922C66.1923 66.8613 66.1663 66.7877 66.1663 66.701V66.246C66.1663 66.168 66.1836 66.0943 66.2183 66.025C66.2616 65.9557 66.305 65.8907 66.3483 65.83L69.9363 61.267H66.5823C66.4956 61.267 66.422 61.241 66.3613 61.189C66.3093 61.137 66.2833 61.0633 66.2833 60.968V60.539C66.2833 60.4523 66.3093 60.383 66.3613 60.331C66.422 60.2703 66.4956 60.24 66.5823 60.24H71.2103C71.297 60.24 71.3663 60.2703 71.4183 60.331C71.479 60.383 71.5093 60.4523 71.5093 60.539V61.02C71.5093 61.098 71.4876 61.1673 71.4443 61.228C71.4096 61.2887 71.3706 61.3537 71.3273 61.423L67.7783 65.973H71.4703C71.557 65.973 71.6263 65.999 71.6783 66.051C71.739 66.103 71.7693 66.1767 71.7693 66.272V66.701C71.7693 66.7877 71.739 66.8613 71.6783 66.922C71.6263 66.974 71.557 67 71.4703 67H66.4653ZM75.0946 67.13C74.6612 67.13 74.2669 67.0433 73.9116 66.87C73.5562 66.6967 73.2702 66.4627 73.0536 66.168C72.8369 65.8733 72.7286 65.5397 72.7286 65.167C72.7286 64.569 72.9712 64.0923 73.4566 63.737C73.9419 63.3817 74.5746 63.1477 75.3546 63.035L77.2916 62.762V62.385C77.2916 61.969 77.1702 61.644 76.9276 61.41C76.6936 61.176 76.3079 61.059 75.7706 61.059C75.3806 61.059 75.0642 61.137 74.8216 61.293C74.5876 61.449 74.4229 61.6483 74.3276 61.891C74.2756 62.021 74.1846 62.086 74.0546 62.086H73.4696C73.3742 62.086 73.3006 62.06 73.2486 62.008C73.2052 61.9473 73.1836 61.878 73.1836 61.8C73.1836 61.67 73.2312 61.5097 73.3266 61.319C73.4306 61.1283 73.5866 60.942 73.7946 60.76C74.0026 60.578 74.2669 60.4263 74.5876 60.305C74.9169 60.175 75.3156 60.11 75.7836 60.11C76.3036 60.11 76.7412 60.1793 77.0966 60.318C77.4519 60.448 77.7292 60.6257 77.9286 60.851C78.1366 61.0763 78.2839 61.332 78.3706 61.618C78.4659 61.904 78.5136 62.1943 78.5136 62.489V66.701C78.5136 66.7877 78.4832 66.8613 78.4226 66.922C78.3706 66.974 78.3012 67 78.2146 67H77.6166C77.5212 67 77.4476 66.974 77.3956 66.922C77.3436 66.8613 77.3176 66.7877 77.3176 66.701V66.142C77.2049 66.298 77.0532 66.454 76.8626 66.61C76.6719 66.7573 76.4336 66.883 76.1476 66.987C75.8616 67.0823 75.5106 67.13 75.0946 67.13ZM75.3676 66.155C75.7229 66.155 76.0479 66.0813 76.3426 65.934C76.6372 65.778 76.8669 65.5397 77.0316 65.219C77.2049 64.8983 77.2916 64.4953 77.2916 64.01V63.646L75.7836 63.867C75.1682 63.9537 74.7046 64.101 74.3926 64.309C74.0806 64.5083 73.9246 64.764 73.9246 65.076C73.9246 65.3187 73.9939 65.5223 74.1326 65.687C74.2799 65.843 74.4619 65.96 74.6786 66.038C74.9039 66.116 75.1336 66.155 75.3676 66.155ZM82.7224 67.13C82.2371 67.13 81.8211 67.0693 81.4744 66.948C81.1277 66.8267 80.8461 66.6793 80.6294 66.506C80.4127 66.3327 80.2481 66.1593 80.1354 65.986C80.0314 65.8127 79.9751 65.674 79.9664 65.57C79.9577 65.4747 79.9881 65.401 80.0574 65.349C80.1267 65.297 80.1961 65.271 80.2654 65.271H80.8374C80.8894 65.271 80.9284 65.2797 80.9544 65.297C80.9891 65.3057 81.0324 65.3403 81.0844 65.401C81.1971 65.5223 81.3227 65.6437 81.4614 65.765C81.6001 65.8863 81.7691 65.986 81.9684 66.064C82.1764 66.142 82.4321 66.181 82.7354 66.181C83.1774 66.181 83.5414 66.0987 83.8274 65.934C84.1134 65.7607 84.2564 65.5093 84.2564 65.18C84.2564 64.9633 84.1957 64.79 84.0744 64.66C83.9617 64.53 83.7537 64.413 83.4504 64.309C83.1557 64.205 82.7484 64.0967 82.2284 63.984C81.7084 63.8627 81.2967 63.7153 80.9934 63.542C80.6901 63.36 80.4734 63.1477 80.3434 62.905C80.2134 62.6537 80.1484 62.372 80.1484 62.06C80.1484 61.7393 80.2437 61.4317 80.4344 61.137C80.6251 60.8337 80.9024 60.5867 81.2664 60.396C81.6391 60.2053 82.1027 60.11 82.6574 60.11C83.1081 60.11 83.4937 60.1663 83.8144 60.279C84.1351 60.3917 84.3994 60.5347 84.6074 60.708C84.8154 60.8727 84.9714 61.0373 85.0754 61.202C85.1794 61.3667 85.2357 61.5053 85.2444 61.618C85.2531 61.7047 85.2271 61.7783 85.1664 61.839C85.1057 61.891 85.0364 61.917 84.9584 61.917H84.4124C84.3517 61.917 84.2997 61.904 84.2564 61.878C84.2217 61.852 84.1871 61.8217 84.1524 61.787C84.0657 61.6743 83.9617 61.5617 83.8404 61.449C83.7277 61.3363 83.5761 61.2453 83.3854 61.176C83.2034 61.098 82.9607 61.059 82.6574 61.059C82.2241 61.059 81.8991 61.15 81.6824 61.332C81.4657 61.514 81.3574 61.7437 81.3574 62.021C81.3574 62.1857 81.4051 62.333 81.5004 62.463C81.5957 62.593 81.7777 62.71 82.0464 62.814C82.3151 62.918 82.7137 63.0307 83.2424 63.152C83.8144 63.2647 84.2651 63.4163 84.5944 63.607C84.9237 63.7977 85.1577 64.0187 85.2964 64.27C85.4351 64.5213 85.5044 64.8117 85.5044 65.141C85.5044 65.505 85.3961 65.8387 85.1794 66.142C84.9714 66.4453 84.6594 66.688 84.2434 66.87C83.8361 67.0433 83.3291 67.13 82.7224 67.13Z" fill="#171B22"/>
<rect x="40.5" y="74" width="37" height="25" rx="12.5" fill="#E8B600"/>
<path d="M53.3417 91.14C52.6697 91.14 52.0864 91.0467 51.5917 90.86C51.097 90.664 50.6864 90.398 50.3597 90.062C50.0424 89.726 49.7997 89.334 49.6317 88.886C49.4637 88.438 49.3657 87.9573 49.3377 87.444C49.3284 87.192 49.319 86.9073 49.3097 86.59C49.3097 86.2633 49.3097 85.9367 49.3097 85.61C49.319 85.274 49.3284 84.9753 49.3377 84.714C49.3657 84.2007 49.4637 83.7247 49.6317 83.286C49.809 82.838 50.061 82.4507 50.3877 82.124C50.7237 81.788 51.1344 81.5267 51.6197 81.34C52.1144 81.1533 52.6884 81.06 53.3417 81.06C54.0044 81.06 54.5784 81.1533 55.0637 81.34C55.549 81.5267 55.955 81.788 56.2817 82.124C56.6177 82.4507 56.8744 82.838 57.0517 83.286C57.229 83.7247 57.327 84.2007 57.3457 84.714C57.3644 84.9753 57.3737 85.274 57.3737 85.61C57.383 85.9367 57.383 86.2633 57.3737 86.59C57.3737 86.9073 57.3644 87.192 57.3457 87.444C57.327 87.9573 57.229 88.438 57.0517 88.886C56.8837 89.334 56.6364 89.726 56.3097 90.062C55.9924 90.398 55.5864 90.664 55.0917 90.86C54.6064 91.0467 54.023 91.14 53.3417 91.14ZM53.3417 89.11C53.827 89.11 54.177 88.956 54.3917 88.648C54.6157 88.3307 54.7324 87.906 54.7417 87.374C54.7604 87.1033 54.7697 86.8187 54.7697 86.52C54.779 86.2213 54.779 85.9227 54.7697 85.624C54.7697 85.3253 54.7604 85.05 54.7417 84.798C54.7324 84.2847 54.6157 83.8693 54.3917 83.552C54.177 83.2347 53.827 83.0713 53.3417 83.062C52.8564 83.0713 52.5064 83.2347 52.2917 83.552C52.077 83.8693 51.9604 84.2847 51.9417 84.798C51.9324 85.05 51.923 85.3253 51.9137 85.624C51.9137 85.9227 51.9137 86.2213 51.9137 86.52C51.923 86.8187 51.9324 87.1033 51.9417 87.374C51.9604 87.906 52.0817 88.3307 52.3057 88.648C52.5297 88.956 52.875 89.11 53.3417 89.11ZM59.6793 91C59.4647 91 59.3573 90.9067 59.3573 90.72C59.3573 90.664 59.376 90.6127 59.4133 90.566L66.3293 81.466C66.3947 81.382 66.46 81.3167 66.5253 81.27C66.5907 81.2233 66.6887 81.2 66.8193 81.2H67.8133C68.028 81.2 68.1353 81.2933 68.1353 81.48C68.1353 81.536 68.1167 81.5873 68.0793 81.634L61.1633 90.734C61.098 90.818 61.0327 90.8833 60.9673 90.93C60.902 90.9767 60.804 91 60.6733 91H59.6793ZM66.7213 91.07C66.0867 91.07 65.578 90.902 65.1953 90.566C64.822 90.23 64.612 89.782 64.5653 89.222C64.556 88.9793 64.5513 88.7647 64.5513 88.578C64.5513 88.3913 64.556 88.1673 64.5653 87.906C64.6027 87.3367 64.8033 86.884 65.1673 86.548C65.5407 86.2027 66.0587 86.03 66.7213 86.03C67.3933 86.03 67.9113 86.2027 68.2753 86.548C68.6393 86.884 68.84 87.3367 68.8773 87.906C68.896 88.1673 68.9053 88.3913 68.9053 88.578C68.9053 88.7647 68.896 88.9793 68.8773 89.222C68.84 89.782 68.63 90.23 68.2473 90.566C67.8647 90.902 67.356 91.07 66.7213 91.07ZM66.7213 89.838C66.88 89.838 67.0013 89.8053 67.0853 89.74C67.1787 89.6747 67.2487 89.5907 67.2953 89.488C67.342 89.376 67.3653 89.2593 67.3653 89.138C67.384 88.9233 67.3933 88.7273 67.3933 88.55C67.3933 88.3727 67.384 88.1813 67.3653 87.976C67.356 87.7987 67.3047 87.64 67.2113 87.5C67.118 87.3507 66.9547 87.276 66.7213 87.276C66.488 87.276 66.3247 87.3507 66.2313 87.5C66.138 87.64 66.0867 87.7987 66.0773 87.976C66.068 88.1813 66.0633 88.3727 66.0633 88.55C66.0633 88.7273 66.068 88.9233 66.0773 89.138C66.0867 89.2593 66.11 89.376 66.1473 89.488C66.194 89.5907 66.264 89.6747 66.3573 89.74C66.4507 89.8053 66.572 89.838 66.7213 89.838ZM60.7993 86.142C60.1553 86.142 59.642 85.9787 59.2593 85.652C58.886 85.316 58.6807 84.868 58.6433 84.308C58.6247 84.0653 58.6153 83.8553 58.6153 83.678C58.6247 83.4913 58.634 83.2673 58.6433 83.006C58.6713 82.4367 58.8673 81.984 59.2313 81.648C59.6047 81.3027 60.1273 81.13 60.7993 81.13C61.4713 81.13 61.9893 81.3027 62.3533 81.648C62.7173 81.984 62.9133 82.4367 62.9413 83.006C62.96 83.2673 62.9693 83.4913 62.9693 83.678C62.9693 83.8553 62.96 84.0653 62.9413 84.308C62.9133 84.868 62.708 85.316 62.3253 85.652C61.9427 85.9787 61.434 86.142 60.7993 86.142ZM60.7993 84.938C60.9487 84.938 61.07 84.9053 61.1633 84.84C61.2567 84.7653 61.3267 84.6767 61.3733 84.574C61.42 84.462 61.4433 84.35 61.4433 84.238C61.462 84.0233 61.4713 83.8273 61.4713 83.65C61.4713 83.4727 61.462 83.2813 61.4433 83.076C61.434 82.8987 61.378 82.74 61.2753 82.6C61.182 82.4507 61.0233 82.376 60.7993 82.376C60.566 82.376 60.398 82.4507 60.2953 82.6C60.202 82.74 60.1507 82.8987 60.1413 83.076C60.132 83.2813 60.1273 83.4727 60.1273 83.65C60.1273 83.8273 60.132 84.0233 60.1413 84.238C60.1507 84.35 60.174 84.462 60.2113 84.574C60.258 84.6767 60.328 84.7653 60.4213 84.84C60.5147 84.9053 60.6407 84.938 60.7993 84.938Z" fill="white"/>
<g filter="url(#filter0_d_15958_19600)">
<rect x="88" y="14" width="32" height="32" rx="16" fill="white"/>
<rect x="87" y="13" width="34" height="34" rx="17" stroke="#1DA534" stroke-width="2"/>
<path opacity="0.4" d="M103.999 32.8398C104.485 32.8398 104.879 33.2338 104.879 33.7197C104.879 34.2057 104.485 34.5996 103.999 34.5996C103.513 34.5995 103.119 34.2057 103.119 33.7197C103.119 33.2338 103.513 32.8399 103.999 32.8398Z" fill="#1DA534" stroke="#1DA534" stroke-width="1.5"/>
<path d="M99.3496 28.1899H108.65C110.674 28.19 111.735 28.5109 112.332 29.1079C112.929 29.7049 113.25 30.7662 113.25 32.7896V34.6499C113.25 36.6735 112.929 37.7355 112.332 38.3325C111.735 38.9294 110.673 39.2495 108.65 39.2495H99.3496C97.3266 39.2495 96.265 38.9294 95.668 38.3325C95.0709 37.7355 94.75 36.6735 94.75 34.6499V32.7896C94.75 30.7662 95.0709 29.7049 95.668 29.1079C96.265 28.5109 97.3263 28.19 99.3496 28.1899ZM104 29.9497C101.914 29.9497 100.23 31.6476 100.23 33.7202C100.231 35.7927 101.914 37.4897 104 37.4897C106.086 37.4897 107.769 35.7927 107.77 33.7202C107.77 31.6476 106.086 29.9497 104 29.9497Z" fill="#1DA534" stroke="#1DA534" stroke-width="1.5"/>
<g opacity="0.4">
<mask id="path-18-inside-1_15958_19600" fill="white">
<path d="M99.1207 27.45V26.28C99.1207 23.35 99.9507 21.4 104.001 21.4C108.051 21.4 108.881 23.35 108.881 26.28V27.45C109.391 27.46 109.851 27.48 110.281 27.54V26.28C110.281 23.58 109.631 20 104.001 20C98.3707 20 97.7207 23.58 97.7207 26.28V27.53C98.1407 27.48 98.6107 27.45 99.1207 27.45Z"/>
</mask>
<path d="M99.1207 27.45V26.28C99.1207 23.35 99.9507 21.4 104.001 21.4C108.051 21.4 108.881 23.35 108.881 26.28V27.45C109.391 27.46 109.851 27.48 110.281 27.54V26.28C110.281 23.58 109.631 20 104.001 20C98.3707 20 97.7207 23.58 97.7207 26.28V27.53C98.1407 27.48 98.6107 27.45 99.1207 27.45Z" fill="#1DA534"/>
<path d="M99.1207 27.45V28.95H100.621V27.45H99.1207ZM108.881 27.45H107.381V28.9209L108.851 28.9497L108.881 27.45ZM110.281 27.54L110.073 29.0256L111.781 29.2638V27.54H110.281ZM110.281 26.28H108.781H110.281ZM97.7207 27.53H96.2207V29.2192L97.898 29.0195L97.7207 27.53ZM99.1207 27.45H100.621V26.28H99.1207H97.6207V27.45H99.1207ZM99.1207 26.28H100.621C100.621 24.8831 100.837 24.1294 101.193 23.7033C101.498 23.3385 102.182 22.9 104.001 22.9V21.4V19.9C101.769 19.9 100.014 20.4365 98.8911 21.7792C97.8198 23.0606 97.6207 24.7469 97.6207 26.28H99.1207ZM104.001 21.4V22.9C105.819 22.9 106.504 23.3385 106.809 23.7033C107.165 24.1294 107.381 24.8831 107.381 26.28H108.881H110.381C110.381 24.7469 110.182 23.0606 109.11 21.7792C107.988 20.4365 106.232 19.9 104.001 19.9V21.4ZM108.881 26.28H107.381V27.45H108.881H110.381V26.28H108.881ZM108.881 27.45L108.851 28.9497C109.349 28.9595 109.735 28.9785 110.073 29.0256L110.281 27.54L110.488 26.0544C109.966 25.9815 109.433 25.9605 108.91 25.9503L108.881 27.45ZM110.281 27.54H111.781V26.28H110.281H108.781V27.54H110.281ZM110.281 26.28H111.781C111.781 24.8668 111.625 22.8955 110.479 21.265C109.257 19.5254 107.156 18.5 104.001 18.5V20V21.5C106.475 21.5 107.515 22.2646 108.025 22.99C108.611 23.8245 108.781 24.9932 108.781 26.28H110.281ZM104.001 20V18.5C100.845 18.5 98.7449 19.5254 97.5222 21.265C96.3762 22.8955 96.2207 24.8668 96.2207 26.28H97.7207H99.2207C99.2207 24.9932 99.3902 23.8245 99.9767 22.99C100.487 22.2646 101.526 21.5 104.001 21.5V20ZM97.7207 26.28H96.2207V27.53H97.7207H99.2207V26.28H97.7207ZM97.7207 27.53L97.898 29.0195C98.2582 28.9766 98.669 28.95 99.1207 28.95V27.45V25.95C98.5524 25.95 98.0232 25.9834 97.5434 26.0405L97.7207 27.53Z" fill="#1DA534" mask="url(#path-18-inside-1_15958_19600)"/>
</g>
</g>
<defs>
<filter id="filter0_d_15958_19600" x="71" y="5" width="66" height="66" filterUnits="userSpaceOnUse" color-interpolation-filters="sRGB">
<feFlood flood-opacity="0" result="BackgroundImageFix"/>
<feColorMatrix in="SourceAlpha" type="matrix" values="0 0 0 0 0 0 0 0 0 0 0 0 0 0 0 0 0 0 127 0" result="hardAlpha"/>
<feOffset dy="8"/>
<feGaussianBlur stdDeviation="7.5"/>
<feColorMatrix type="matrix" values="0 0 0 0 0 0 0 0 0 0 0 0 0 0 0 0 0 0 0.25 0"/>
<feBlend mode="normal" in2="BackgroundImageFix" result="effect1_dropShadow_15958_19600"/>
<feBlend mode="normal" in="SourceGraphic" in2="effect1_dropShadow_15958_19600" result="shape"/>
</filter>
<clipPath id="clip0_15958_19600">
<rect width="32" height="32" fill="white" transform="translate(43 19)"/>
</clipPath>
</defs>
</svg>
