<svg width="137" height="118" viewBox="0 0 137 118" fill="none" xmlns="http://www.w3.org/2000/svg">
<rect x="2" y="2" width="114" height="114" rx="57" fill="#E8F6EB"/>
<rect x="2" y="2" width="114" height="114" rx="57" stroke="#4AB75D" stroke-width="4"/>
<g clip-path="url(#clip0_16167_41086)">
<mask id="mask0_16167_41086" style="mask-type:luminance" maskUnits="userSpaceOnUse" x="43" y="19" width="32" height="32">
<path d="M75 19H43V51H75V19Z" fill="white"/>
</mask>
<g mask="url(#mask0_16167_41086)">
<path opacity="0.4" d="M65.8793 40.2802C65.786 40.3736 65.6925 40.4536 65.6125 40.5469C56.7192 49.1736 43.4792 35.9336 52.1059 27.0403C52.1992 26.947 52.2793 26.867 52.3726 26.7736C57.9727 21.1736 69.2659 23.4003 69.2659 23.4003C69.2659 23.4003 71.4793 34.6802 65.8793 40.2802Z" fill="#1DA534"/>
<path d="M58.9733 33.6665C48.48 39.7332 48.3066 47.0532 48.3066 47.0532L58.9733 33.6665Z" fill="#1DA534"/>
<path d="M58.9733 33.6665C48.48 39.7332 48.3066 47.0532 48.3066 47.0532" stroke="#1DA534" stroke-width="1.5" stroke-miterlimit="10" stroke-linecap="round"/>
</g>
</g>
<path d="M36.4295 67C36.3342 67 36.2605 66.974 36.2085 66.922C36.1565 66.8613 36.1305 66.7877 36.1305 66.701V58.212C36.1305 58.1167 36.1565 58.043 36.2085 57.991C36.2605 57.9303 36.3342 57.9 36.4295 57.9H39.9915C40.6415 57.9 41.1702 58.0083 41.5775 58.225C41.9935 58.433 42.2968 58.719 42.4875 59.083C42.6868 59.447 42.7865 59.8543 42.7865 60.305C42.7865 60.6603 42.7258 60.968 42.6045 61.228C42.4918 61.4793 42.3488 61.6873 42.1755 61.852C42.0022 62.008 41.8332 62.1293 41.6685 62.216C42.0065 62.3807 42.3055 62.6493 42.5655 63.022C42.8342 63.3947 42.9685 63.8453 42.9685 64.374C42.9685 64.8507 42.8602 65.2883 42.6435 65.687C42.4268 66.0857 42.1018 66.4063 41.6685 66.649C41.2438 66.883 40.7152 67 40.0825 67H36.4295ZM37.4045 65.947H39.9135C40.4768 65.947 40.9102 65.7953 41.2135 65.492C41.5168 65.1887 41.6685 64.816 41.6685 64.374C41.6685 63.9147 41.5168 63.5377 41.2135 63.243C40.9102 62.9397 40.4768 62.788 39.9135 62.788H37.4045V65.947ZM37.4045 61.748H39.7965C40.3512 61.748 40.7715 61.6223 41.0575 61.371C41.3435 61.111 41.4865 60.76 41.4865 60.318C41.4865 59.876 41.3435 59.538 41.0575 59.304C40.7715 59.07 40.3512 58.953 39.7965 58.953H37.4045V61.748ZM44.9441 67C44.8574 67 44.7838 66.974 44.7231 66.922C44.6711 66.8613 44.6451 66.7877 44.6451 66.701V60.539C44.6451 60.4523 44.6711 60.383 44.7231 60.331C44.7838 60.2703 44.8574 60.24 44.9441 60.24H45.5681C45.6548 60.24 45.7241 60.2703 45.7761 60.331C45.8281 60.383 45.8541 60.4523 45.8541 60.539V66.701C45.8541 66.7877 45.8281 66.8613 45.7761 66.922C45.7241 66.974 45.6548 67 45.5681 67H44.9441ZM44.8401 58.979C44.7534 58.979 44.6798 58.953 44.6191 58.901C44.5671 58.8403 44.5411 58.7667 44.5411 58.68V57.978C44.5411 57.8913 44.5671 57.822 44.6191 57.77C44.6798 57.7093 44.7534 57.679 44.8401 57.679H45.6591C45.7458 57.679 45.8151 57.7093 45.8671 57.77C45.9278 57.822 45.9581 57.8913 45.9581 57.978V58.68C45.9581 58.7667 45.9278 58.8403 45.8671 58.901C45.8151 58.953 45.7458 58.979 45.6591 58.979H44.8401ZM50.5625 67.13C49.9039 67.13 49.3535 67.0043 48.9115 66.753C48.4695 66.5017 48.1315 66.155 47.8975 65.713C47.6635 65.2623 47.5335 64.751 47.5075 64.179C47.4989 64.0317 47.4945 63.8453 47.4945 63.62C47.4945 63.386 47.4989 63.1997 47.5075 63.061C47.5335 62.4803 47.6635 61.969 47.8975 61.527C48.1402 61.085 48.4825 60.7383 48.9245 60.487C49.3665 60.2357 49.9125 60.11 50.5625 60.11C51.2125 60.11 51.7585 60.2357 52.2005 60.487C52.6425 60.7383 52.9805 61.085 53.2145 61.527C53.4572 61.969 53.5915 62.4803 53.6175 63.061C53.6262 63.1997 53.6305 63.386 53.6305 63.62C53.6305 63.8453 53.6262 64.0317 53.6175 64.179C53.5915 64.751 53.4615 65.2623 53.2275 65.713C52.9935 66.155 52.6555 66.5017 52.2135 66.753C51.7715 67.0043 51.2212 67.13 50.5625 67.13ZM50.5625 66.129C51.0999 66.129 51.5289 65.96 51.8495 65.622C52.1702 65.2753 52.3435 64.7727 52.3695 64.114C52.3782 63.984 52.3825 63.8193 52.3825 63.62C52.3825 63.4207 52.3782 63.256 52.3695 63.126C52.3435 62.4673 52.1702 61.969 51.8495 61.631C51.5289 61.2843 51.0999 61.111 50.5625 61.111C50.0252 61.111 49.5919 61.2843 49.2625 61.631C48.9419 61.969 48.7729 62.4673 48.7555 63.126C48.7469 63.256 48.7425 63.4207 48.7425 63.62C48.7425 63.8193 48.7469 63.984 48.7555 64.114C48.7729 64.7727 48.9419 65.2753 49.2625 65.622C49.5919 65.96 50.0252 66.129 50.5625 66.129ZM55.5704 67C55.4837 67 55.4101 66.974 55.3494 66.922C55.2974 66.8613 55.2714 66.7877 55.2714 66.701V58.069C55.2714 57.9823 55.2974 57.913 55.3494 57.861C55.4101 57.8003 55.4837 57.77 55.5704 57.77H56.1814C56.2767 57.77 56.3504 57.8003 56.4024 57.861C56.4544 57.913 56.4804 57.9823 56.4804 58.069V66.701C56.4804 66.7877 56.4544 66.8613 56.4024 66.922C56.3504 66.974 56.2767 67 56.1814 67H55.5704ZM61.1885 67.13C60.5299 67.13 59.9795 67.0043 59.5375 66.753C59.0955 66.5017 58.7575 66.155 58.5235 65.713C58.2895 65.2623 58.1595 64.751 58.1335 64.179C58.1249 64.0317 58.1205 63.8453 58.1205 63.62C58.1205 63.386 58.1249 63.1997 58.1335 63.061C58.1595 62.4803 58.2895 61.969 58.5235 61.527C58.7662 61.085 59.1085 60.7383 59.5505 60.487C59.9925 60.2357 60.5385 60.11 61.1885 60.11C61.8385 60.11 62.3845 60.2357 62.8265 60.487C63.2685 60.7383 63.6065 61.085 63.8405 61.527C64.0832 61.969 64.2175 62.4803 64.2435 63.061C64.2522 63.1997 64.2565 63.386 64.2565 63.62C64.2565 63.8453 64.2522 64.0317 64.2435 64.179C64.2175 64.751 64.0875 65.2623 63.8535 65.713C63.6195 66.155 63.2815 66.5017 62.8395 66.753C62.3975 67.0043 61.8472 67.13 61.1885 67.13ZM61.1885 66.129C61.7259 66.129 62.1549 65.96 62.4755 65.622C62.7962 65.2753 62.9695 64.7727 62.9955 64.114C63.0042 63.984 63.0085 63.8193 63.0085 63.62C63.0085 63.4207 63.0042 63.256 62.9955 63.126C62.9695 62.4673 62.7962 61.969 62.4755 61.631C62.1549 61.2843 61.7259 61.111 61.1885 61.111C60.6512 61.111 60.2179 61.2843 59.8885 61.631C59.5679 61.969 59.3989 62.4673 59.3815 63.126C59.3729 63.256 59.3685 63.4207 59.3685 63.62C59.3685 63.8193 59.3729 63.984 59.3815 64.114C59.3989 64.7727 59.5679 65.2753 59.8885 65.622C60.2179 65.96 60.6512 66.129 61.1885 66.129ZM68.6534 69.86C68.064 69.86 67.5787 69.782 67.1974 69.626C66.8247 69.47 66.53 69.2793 66.3134 69.054C66.1054 68.8373 65.9537 68.6163 65.8584 68.391C65.7717 68.1743 65.724 68.001 65.7154 67.871C65.7067 67.7843 65.7327 67.7107 65.7934 67.65C65.8627 67.5893 65.9364 67.559 66.0144 67.559H66.6384C66.7164 67.559 66.7814 67.5763 66.8334 67.611C66.8854 67.6457 66.9287 67.7193 66.9634 67.832C67.0154 67.962 67.0934 68.105 67.1974 68.261C67.3014 68.4257 67.4617 68.5643 67.6784 68.677C67.895 68.7983 68.1984 68.859 68.5884 68.859C68.9957 68.859 69.338 68.8027 69.6154 68.69C69.8927 68.586 70.1007 68.3953 70.2394 68.118C70.3867 67.8493 70.4604 67.4767 70.4604 67V66.116C70.2524 66.3847 69.9794 66.61 69.6414 66.792C69.3034 66.9653 68.8787 67.052 68.3674 67.052C67.882 67.052 67.466 66.9697 67.1194 66.805C66.7727 66.6317 66.4867 66.402 66.2614 66.116C66.0447 65.8213 65.88 65.4877 65.7674 65.115C65.6634 64.7423 65.6027 64.3523 65.5854 63.945C65.5767 63.7023 65.5767 63.464 65.5854 63.23C65.6027 62.8227 65.6634 62.4327 65.7674 62.06C65.88 61.6873 66.0447 61.3537 66.2614 61.059C66.4867 60.7643 66.7727 60.5347 67.1194 60.37C67.466 60.1967 67.882 60.11 68.3674 60.11C68.8874 60.11 69.3164 60.2097 69.6544 60.409C70.001 60.5997 70.2827 60.8337 70.4994 61.111V60.552C70.4994 60.4653 70.5254 60.3917 70.5774 60.331C70.638 60.2703 70.7117 60.24 70.7984 60.24H71.3964C71.483 60.24 71.5567 60.2703 71.6174 60.331C71.678 60.3917 71.7084 60.4653 71.7084 60.552V66.857C71.7084 67.4377 71.6087 67.9533 71.4094 68.404C71.2187 68.8547 70.898 69.21 70.4474 69.47C70.0054 69.73 69.4074 69.86 68.6534 69.86ZM68.6274 66.012C69.0607 66.012 69.4074 65.9123 69.6674 65.713C69.936 65.5137 70.131 65.2623 70.2524 64.959C70.3824 64.6557 70.4517 64.348 70.4604 64.036C70.469 63.9147 70.4734 63.7673 70.4734 63.594C70.4734 63.412 70.469 63.2603 70.4604 63.139C70.4517 62.827 70.3824 62.5193 70.2524 62.216C70.131 61.9127 69.936 61.6613 69.6674 61.462C69.4074 61.2627 69.0607 61.163 68.6274 61.163C68.194 61.163 67.8474 61.2627 67.5874 61.462C67.3274 61.6527 67.141 61.9083 67.0284 62.229C66.9157 62.541 66.8507 62.879 66.8334 63.243C66.8247 63.4683 66.8247 63.698 66.8334 63.932C66.8507 64.296 66.9157 64.6383 67.0284 64.959C67.141 65.271 67.3274 65.5267 67.5874 65.726C67.8474 65.9167 68.194 66.012 68.6274 66.012ZM73.9402 67C73.8535 67 73.7799 66.974 73.7192 66.922C73.6672 66.8613 73.6412 66.7877 73.6412 66.701V60.539C73.6412 60.4523 73.6672 60.383 73.7192 60.331C73.7799 60.2703 73.8535 60.24 73.9402 60.24H74.5642C74.6509 60.24 74.7202 60.2703 74.7722 60.331C74.8242 60.383 74.8502 60.4523 74.8502 60.539V66.701C74.8502 66.7877 74.8242 66.8613 74.7722 66.922C74.7202 66.974 74.6509 67 74.5642 67H73.9402ZM73.9012 59.265C73.7625 59.265 73.6932 59.1957 73.6932 59.057C73.6932 58.9877 73.7149 58.9313 73.7582 58.888L74.7332 57.718C74.8112 57.6227 74.8805 57.562 74.9412 57.536C75.0019 57.5013 75.0929 57.484 75.2142 57.484H76.0982C76.2629 57.484 76.3452 57.5663 76.3452 57.731C76.3452 57.7917 76.3235 57.8437 76.2802 57.887L74.7722 59.122C74.7029 59.1827 74.6379 59.2217 74.5772 59.239C74.5165 59.2563 74.4385 59.265 74.3432 59.265H73.9012ZM78.6746 67.13C78.2413 67.13 77.847 67.0433 77.4916 66.87C77.1363 66.6967 76.8503 66.4627 76.6336 66.168C76.417 65.8733 76.3086 65.5397 76.3086 65.167C76.3086 64.569 76.5513 64.0923 77.0366 63.737C77.522 63.3817 78.1546 63.1477 78.9346 63.035L80.8716 62.762V62.385C80.8716 61.969 80.7503 61.644 80.5076 61.41C80.2736 61.176 79.888 61.059 79.3506 61.059C78.9606 61.059 78.6443 61.137 78.4016 61.293C78.1676 61.449 78.003 61.6483 77.9076 61.891C77.8556 62.021 77.7646 62.086 77.6346 62.086H77.0496C76.9543 62.086 76.8806 62.06 76.8286 62.008C76.7853 61.9473 76.7636 61.878 76.7636 61.8C76.7636 61.67 76.8113 61.5097 76.9066 61.319C77.0106 61.1283 77.1666 60.942 77.3746 60.76C77.5826 60.578 77.847 60.4263 78.1676 60.305C78.497 60.175 78.8956 60.11 79.3636 60.11C79.8836 60.11 80.3213 60.1793 80.6766 60.318C81.032 60.448 81.3093 60.6257 81.5086 60.851C81.7166 61.0763 81.864 61.332 81.9506 61.618C82.046 61.904 82.0936 62.1943 82.0936 62.489V66.701C82.0936 66.7877 82.0633 66.8613 82.0026 66.922C81.9506 66.974 81.8813 67 81.7946 67H81.1966C81.1013 67 81.0276 66.974 80.9756 66.922C80.9236 66.8613 80.8976 66.7877 80.8976 66.701V66.142C80.785 66.298 80.6333 66.454 80.4426 66.61C80.252 66.7573 80.0136 66.883 79.7276 66.987C79.4416 67.0823 79.0906 67.13 78.6746 67.13ZM78.9476 66.155C79.303 66.155 79.628 66.0813 79.9226 65.934C80.2173 65.778 80.447 65.5397 80.6116 65.219C80.785 64.8983 80.8716 64.4953 80.8716 64.01V63.646L79.3636 63.867C78.7483 63.9537 78.2846 64.101 77.9726 64.309C77.6606 64.5083 77.5046 64.764 77.5046 65.076C77.5046 65.3187 77.574 65.5223 77.7126 65.687C77.86 65.843 78.042 65.96 78.2586 66.038C78.484 66.116 78.7136 66.155 78.9476 66.155Z" fill="#171B22"/>
<rect x="40.5" y="74" width="37" height="25" rx="12.5" fill="#1DA534"/>
<path d="M53.3417 91.14C52.6697 91.14 52.0864 91.0467 51.5917 90.86C51.097 90.664 50.6864 90.398 50.3597 90.062C50.0424 89.726 49.7997 89.334 49.6317 88.886C49.4637 88.438 49.3657 87.9573 49.3377 87.444C49.3284 87.192 49.319 86.9073 49.3097 86.59C49.3097 86.2633 49.3097 85.9367 49.3097 85.61C49.319 85.274 49.3284 84.9753 49.3377 84.714C49.3657 84.2007 49.4637 83.7247 49.6317 83.286C49.809 82.838 50.061 82.4507 50.3877 82.124C50.7237 81.788 51.1344 81.5267 51.6197 81.34C52.1144 81.1533 52.6884 81.06 53.3417 81.06C54.0044 81.06 54.5784 81.1533 55.0637 81.34C55.549 81.5267 55.955 81.788 56.2817 82.124C56.6177 82.4507 56.8744 82.838 57.0517 83.286C57.229 83.7247 57.327 84.2007 57.3457 84.714C57.3644 84.9753 57.3737 85.274 57.3737 85.61C57.383 85.9367 57.383 86.2633 57.3737 86.59C57.3737 86.9073 57.3644 87.192 57.3457 87.444C57.327 87.9573 57.229 88.438 57.0517 88.886C56.8837 89.334 56.6364 89.726 56.3097 90.062C55.9924 90.398 55.5864 90.664 55.0917 90.86C54.6064 91.0467 54.023 91.14 53.3417 91.14ZM53.3417 89.11C53.827 89.11 54.177 88.956 54.3917 88.648C54.6157 88.3307 54.7324 87.906 54.7417 87.374C54.7604 87.1033 54.7697 86.8187 54.7697 86.52C54.779 86.2213 54.779 85.9227 54.7697 85.624C54.7697 85.3253 54.7604 85.05 54.7417 84.798C54.7324 84.2847 54.6157 83.8693 54.3917 83.552C54.177 83.2347 53.827 83.0713 53.3417 83.062C52.8564 83.0713 52.5064 83.2347 52.2917 83.552C52.077 83.8693 51.9604 84.2847 51.9417 84.798C51.9324 85.05 51.923 85.3253 51.9137 85.624C51.9137 85.9227 51.9137 86.2213 51.9137 86.52C51.923 86.8187 51.9324 87.1033 51.9417 87.374C51.9604 87.906 52.0817 88.3307 52.3057 88.648C52.5297 88.956 52.875 89.11 53.3417 89.11ZM59.6793 91C59.4647 91 59.3573 90.9067 59.3573 90.72C59.3573 90.664 59.376 90.6127 59.4133 90.566L66.3293 81.466C66.3947 81.382 66.46 81.3167 66.5253 81.27C66.5907 81.2233 66.6887 81.2 66.8193 81.2H67.8133C68.028 81.2 68.1353 81.2933 68.1353 81.48C68.1353 81.536 68.1167 81.5873 68.0793 81.634L61.1633 90.734C61.098 90.818 61.0327 90.8833 60.9673 90.93C60.902 90.9767 60.804 91 60.6733 91H59.6793ZM66.7213 91.07C66.0867 91.07 65.578 90.902 65.1953 90.566C64.822 90.23 64.612 89.782 64.5653 89.222C64.556 88.9793 64.5513 88.7647 64.5513 88.578C64.5513 88.3913 64.556 88.1673 64.5653 87.906C64.6027 87.3367 64.8033 86.884 65.1673 86.548C65.5407 86.2027 66.0587 86.03 66.7213 86.03C67.3933 86.03 67.9113 86.2027 68.2753 86.548C68.6393 86.884 68.84 87.3367 68.8773 87.906C68.896 88.1673 68.9053 88.3913 68.9053 88.578C68.9053 88.7647 68.896 88.9793 68.8773 89.222C68.84 89.782 68.63 90.23 68.2473 90.566C67.8647 90.902 67.356 91.07 66.7213 91.07ZM66.7213 89.838C66.88 89.838 67.0013 89.8053 67.0853 89.74C67.1787 89.6747 67.2487 89.5907 67.2953 89.488C67.342 89.376 67.3653 89.2593 67.3653 89.138C67.384 88.9233 67.3933 88.7273 67.3933 88.55C67.3933 88.3727 67.384 88.1813 67.3653 87.976C67.356 87.7987 67.3047 87.64 67.2113 87.5C67.118 87.3507 66.9547 87.276 66.7213 87.276C66.488 87.276 66.3247 87.3507 66.2313 87.5C66.138 87.64 66.0867 87.7987 66.0773 87.976C66.068 88.1813 66.0633 88.3727 66.0633 88.55C66.0633 88.7273 66.068 88.9233 66.0773 89.138C66.0867 89.2593 66.11 89.376 66.1473 89.488C66.194 89.5907 66.264 89.6747 66.3573 89.74C66.4507 89.8053 66.572 89.838 66.7213 89.838ZM60.7993 86.142C60.1553 86.142 59.642 85.9787 59.2593 85.652C58.886 85.316 58.6807 84.868 58.6433 84.308C58.6247 84.0653 58.6153 83.8553 58.6153 83.678C58.6247 83.4913 58.634 83.2673 58.6433 83.006C58.6713 82.4367 58.8673 81.984 59.2313 81.648C59.6047 81.3027 60.1273 81.13 60.7993 81.13C61.4713 81.13 61.9893 81.3027 62.3533 81.648C62.7173 81.984 62.9133 82.4367 62.9413 83.006C62.96 83.2673 62.9693 83.4913 62.9693 83.678C62.9693 83.8553 62.96 84.0653 62.9413 84.308C62.9133 84.868 62.708 85.316 62.3253 85.652C61.9427 85.9787 61.434 86.142 60.7993 86.142ZM60.7993 84.938C60.9487 84.938 61.07 84.9053 61.1633 84.84C61.2567 84.7653 61.3267 84.6767 61.3733 84.574C61.42 84.462 61.4433 84.35 61.4433 84.238C61.462 84.0233 61.4713 83.8273 61.4713 83.65C61.4713 83.4727 61.462 83.2813 61.4433 83.076C61.434 82.8987 61.378 82.74 61.2753 82.6C61.182 82.4507 61.0233 82.376 60.7993 82.376C60.566 82.376 60.398 82.4507 60.2953 82.6C60.202 82.74 60.1507 82.8987 60.1413 83.076C60.132 83.2813 60.1273 83.4727 60.1273 83.65C60.1273 83.8273 60.132 84.0233 60.1413 84.238C60.1507 84.35 60.174 84.462 60.2113 84.574C60.258 84.6767 60.328 84.7653 60.4213 84.84C60.5147 84.9053 60.6407 84.938 60.7993 84.938Z" fill="white"/>
<g filter="url(#filter0_d_16167_41086)">
<rect x="88" y="14" width="32" height="32" rx="16" fill="white"/>
<rect x="87" y="13" width="34" height="34" rx="17" stroke="#1DA534" stroke-width="2"/>
<path opacity="0.4" d="M104 40C109.523 40 114 35.5228 114 30C114 24.4772 109.523 20 104 20C98.4772 20 94 24.4772 94 30C94 35.5228 98.4772 40 104 40Z" fill="#1DA534"/>
<path d="M102.579 33.5801C102.379 33.5801 102.189 33.5001 102.049 33.3601L99.2195 30.5301C98.9295 30.2401 98.9295 29.7601 99.2195 29.4701C99.5095 29.1801 99.9895 29.1801 100.279 29.4701L102.579 31.7701L107.719 26.6301C108.009 26.3401 108.489 26.3401 108.779 26.6301C109.069 26.9201 109.069 27.4001 108.779 27.6901L103.109 33.3601C102.969 33.5001 102.779 33.5801 102.579 33.5801Z" fill="#1DA534"/>
</g>
<defs>
<filter id="filter0_d_16167_41086" x="71" y="5" width="66" height="66" filterUnits="userSpaceOnUse" color-interpolation-filters="sRGB">
<feFlood flood-opacity="0" result="BackgroundImageFix"/>
<feColorMatrix in="SourceAlpha" type="matrix" values="0 0 0 0 0 0 0 0 0 0 0 0 0 0 0 0 0 0 127 0" result="hardAlpha"/>
<feOffset dy="8"/>
<feGaussianBlur stdDeviation="7.5"/>
<feColorMatrix type="matrix" values="0 0 0 0 0 0 0 0 0 0 0 0 0 0 0 0 0 0 0.25 0"/>
<feBlend mode="normal" in2="BackgroundImageFix" result="effect1_dropShadow_16167_41086"/>
<feBlend mode="normal" in="SourceGraphic" in2="effect1_dropShadow_16167_41086" result="shape"/>
</filter>
<clipPath id="clip0_16167_41086">
<rect width="32" height="32" fill="white" transform="translate(43 19)"/>
</clipPath>
</defs>
</svg>
