<svg width="137" height="118" viewBox="0 0 137 118" fill="none" xmlns="http://www.w3.org/2000/svg">
<rect x="2" y="2" width="114" height="114" rx="57" fill="#FEF1EA"/>
<rect x="2" y="2" width="114" height="114" rx="57" stroke="#F27430" stroke-width="4"/>
<g clip-path="url(#clip0_34428_7915)">
<mask id="mask0_34428_7915" style="mask-type:luminance" maskUnits="userSpaceOnUse" x="43" y="19" width="32" height="32">
<path d="M75 19H43V51H75V19Z" fill="white"/>
</mask>
<g mask="url(#mask0_34428_7915)">
<path d="M45.6803 49.3335C45.4269 49.3335 45.1736 49.2402 44.9736 49.0402C44.5869 48.6535 44.5869 48.0135 44.9736 47.6268L64.2269 28.3735C64.6136 27.9868 65.2536 27.9868 65.6403 28.3735C66.0269 28.7602 66.0269 29.4002 65.6403 29.7868L46.3869 49.0402C46.1869 49.2402 45.9336 49.3335 45.6803 49.3335Z" fill="#DC6A2C"/>
<g opacity="0.4">
<path d="M51.4125 32.2137L59.8258 23.827C62.6924 20.9737 67.3191 20.9737 70.1858 23.827C73.0524 26.6937 73.0524 31.3337 70.1858 34.2003L61.7858 42.587C60.9591 43.4136 59.8258 43.8803 58.6524 43.8803H50.1191V35.3603C50.1191 34.1736 50.5858 33.0536 51.4258 32.2137H51.4125Z" fill="#DC6A2C"/>
</g>
</g>
</g>
<path d="M35.7991 65.83C35.8944 65.83 35.9767 65.8647 36.0461 65.934C36.1154 66.0033 36.1501 66.0857 36.1501 66.181V66.649C36.1501 66.7443 36.1154 66.8267 36.0461 66.896C35.9767 66.9653 35.8944 67 35.7991 67H30.5081C30.4127 67 30.3304 66.9653 30.2611 66.896C30.1917 66.8267 30.1571 66.7443 30.1571 66.649V58.251C30.1571 58.1557 30.1917 58.0733 30.2611 58.004C30.3304 57.9347 30.4127 57.9 30.5081 57.9H31.0411C31.1364 57.9 31.2187 57.9347 31.2881 58.004C31.3574 58.0733 31.3921 58.1557 31.3921 58.251V65.83H35.7991ZM38.6903 58.862C38.6903 58.9573 38.6557 59.0397 38.5863 59.109C38.517 59.1783 38.4347 59.213 38.3393 59.213H37.5983C37.503 59.213 37.4207 59.1783 37.3513 59.109C37.282 59.0397 37.2473 58.9573 37.2473 58.862V58.121C37.2473 58.0257 37.282 57.9433 37.3513 57.874C37.4207 57.8047 37.503 57.77 37.5983 57.77H38.3393C38.4347 57.77 38.517 57.8047 38.5863 57.874C38.6557 57.9433 38.6903 58.0257 38.6903 58.121V58.862ZM38.5603 66.649C38.5603 66.7443 38.5257 66.8267 38.4563 66.896C38.387 66.9653 38.3047 67 38.2093 67H37.7283C37.633 67 37.5507 66.9653 37.4813 66.896C37.412 66.8267 37.3773 66.7443 37.3773 66.649V60.591C37.3773 60.4957 37.412 60.4133 37.4813 60.344C37.5507 60.2747 37.633 60.24 37.7283 60.24H38.2093C38.3047 60.24 38.387 60.2747 38.4563 60.344C38.5257 60.4133 38.5603 60.4957 38.5603 60.591V66.649ZM42.2811 64.725C42.2811 65.0977 42.3548 65.3837 42.5021 65.583C42.6581 65.7823 42.9484 65.882 43.3731 65.882H44.0621C44.1574 65.882 44.2398 65.9167 44.3091 65.986C44.3784 66.0553 44.4131 66.1377 44.4131 66.233V66.649C44.4131 66.7443 44.3784 66.8267 44.3091 66.896C44.2398 66.9653 44.1574 67 44.0621 67H43.2431C42.5064 67 41.9648 66.8093 41.6181 66.428C41.2714 66.038 41.0981 65.4703 41.0981 64.725V61.358H40.1361C40.0408 61.358 39.9584 61.3233 39.8891 61.254C39.8198 61.1847 39.7851 61.1023 39.7851 61.007V60.591C39.7851 60.4957 39.8198 60.4133 39.8891 60.344C39.9584 60.2747 40.0408 60.24 40.1361 60.24H41.0981V58.121C41.0981 58.0257 41.1328 57.9433 41.2021 57.874C41.2714 57.8047 41.3538 57.77 41.4491 57.77H41.9301C42.0254 57.77 42.1078 57.8047 42.1771 57.874C42.2464 57.9433 42.2811 58.0257 42.2811 58.121V60.24H43.9321C44.0274 60.24 44.1098 60.2747 44.1791 60.344C44.2484 60.4133 44.2831 60.4957 44.2831 60.591V61.007C44.2831 61.1023 44.2484 61.1847 44.1791 61.254C44.1098 61.3233 44.0274 61.358 43.9321 61.358H42.2811V64.725ZM48.3832 60.11C49.3105 60.11 50.0428 60.4047 50.5802 60.994C51.1175 61.5833 51.3862 62.385 51.3862 63.399V63.75C51.3862 63.8453 51.3515 63.9277 51.2822 63.997C51.2128 64.0663 51.1305 64.101 51.0352 64.101H46.5632V64.179C46.5805 64.751 46.7538 65.2017 47.0832 65.531C47.4212 65.8517 47.8545 66.012 48.3832 66.012C48.8165 66.012 49.1502 65.9557 49.3842 65.843C49.6268 65.7303 49.8435 65.57 50.0342 65.362C50.1035 65.2927 50.1642 65.245 50.2162 65.219C50.2768 65.193 50.3548 65.18 50.4502 65.18H50.8402C50.9442 65.18 51.0308 65.2147 51.1002 65.284C51.1695 65.3533 51.1998 65.4357 51.1912 65.531C51.1565 65.765 51.0265 66.0077 50.8012 66.259C50.5845 66.5017 50.2682 66.7097 49.8522 66.883C49.4448 67.0477 48.9552 67.13 48.3832 67.13C47.8285 67.13 47.3345 67.0043 46.9012 66.753C46.4678 66.493 46.1212 66.1377 45.8612 65.687C45.6098 65.2363 45.4582 64.7293 45.4062 64.166C45.3888 63.906 45.3802 63.7067 45.3802 63.568C45.3802 63.4293 45.3888 63.23 45.4062 62.97C45.4582 62.4327 45.6098 61.9473 45.8612 61.514C46.1212 61.0807 46.4635 60.7383 46.8882 60.487C47.3215 60.2357 47.8198 60.11 48.3832 60.11ZM50.2162 63.009V62.97C50.2162 62.4413 50.0472 62.021 49.7092 61.709C49.3798 61.3883 48.9378 61.228 48.3832 61.228C47.8805 61.228 47.4515 61.3883 47.0962 61.709C46.7495 62.0297 46.5718 62.45 46.5632 62.97V63.009H50.2162ZM56.3865 60.24C56.4818 60.24 56.5642 60.2747 56.6335 60.344C56.7028 60.4133 56.7375 60.4957 56.7375 60.591V61.007C56.7375 61.1023 56.7028 61.1847 56.6335 61.254C56.5642 61.3233 56.4818 61.358 56.3865 61.358H55.6325C55.1472 61.358 54.7745 61.488 54.5145 61.748C54.2632 61.9993 54.1375 62.3677 54.1375 62.853V66.649C54.1375 66.7443 54.1028 66.8267 54.0335 66.896C53.9642 66.9653 53.8818 67 53.7865 67H53.3055C53.2102 67 53.1278 66.9653 53.0585 66.896C52.9892 66.8267 52.9545 66.7443 52.9545 66.649V60.591C52.9545 60.4957 52.9892 60.4133 53.0585 60.344C53.1278 60.2747 53.2102 60.24 53.3055 60.24H53.7865C53.8818 60.24 53.9642 60.2747 54.0335 60.344C54.1028 60.4133 54.1375 60.4957 54.1375 60.591V60.994C54.3108 60.734 54.5188 60.5433 54.7615 60.422C55.0042 60.3007 55.3205 60.24 55.7105 60.24H56.3865ZM61.8846 62.723V62.554C61.8846 62.1293 61.7416 61.8043 61.4556 61.579C61.1782 61.345 60.8142 61.228 60.3636 61.228C60.0169 61.228 59.7439 61.2887 59.5446 61.41C59.3539 61.5227 59.1719 61.696 58.9986 61.93C58.9466 61.9993 58.8902 62.047 58.8296 62.073C58.7689 62.099 58.6866 62.112 58.5826 62.112H58.1926C58.0972 62.112 58.0106 62.0773 57.9326 62.008C57.8632 61.9387 57.8329 61.8563 57.8416 61.761C57.8676 61.501 57.9932 61.2453 58.2186 60.994C58.4526 60.734 58.7602 60.5217 59.1416 60.357C59.5229 60.1923 59.9302 60.11 60.3636 60.11C61.1696 60.11 61.8196 60.3353 62.3136 60.786C62.8162 61.2367 63.0676 61.8693 63.0676 62.684V66.649C63.0676 66.7443 63.0329 66.8267 62.9636 66.896C62.8942 66.9653 62.8119 67 62.7166 67H62.2356C62.1402 67 62.0579 66.9653 61.9886 66.896C61.9192 66.8267 61.8846 66.7443 61.8846 66.649V66.116C61.7459 66.428 61.4512 66.675 61.0006 66.857C60.5499 67.039 60.0992 67.13 59.6486 67.13C59.2066 67.13 58.8122 67.052 58.4656 66.896C58.1189 66.7313 57.8502 66.5103 57.6596 66.233C57.4776 65.9557 57.3866 65.6437 57.3866 65.297C57.3866 64.647 57.6292 64.14 58.1146 63.776C58.5999 63.4033 59.2456 63.152 60.0516 63.022L61.8846 62.723ZM61.8846 63.763L60.3506 64.01C59.7872 64.0967 59.3496 64.2397 59.0376 64.439C58.7256 64.6297 58.5696 64.8723 58.5696 65.167C58.5696 65.3837 58.6692 65.5787 58.8686 65.752C59.0679 65.9253 59.3712 66.012 59.7786 66.012C60.4026 66.012 60.9096 65.8343 61.2996 65.479C61.6896 65.1237 61.8846 64.66 61.8846 64.088V63.763ZM66.7323 64.725C66.7323 65.0977 66.8059 65.3837 66.9533 65.583C67.1093 65.7823 67.3996 65.882 67.8243 65.882H68.5133C68.6086 65.882 68.6909 65.9167 68.7603 65.986C68.8296 66.0553 68.8643 66.1377 68.8643 66.233V66.649C68.8643 66.7443 68.8296 66.8267 68.7603 66.896C68.6909 66.9653 68.6086 67 68.5133 67H67.6943C66.9576 67 66.4159 66.8093 66.0693 66.428C65.7226 66.038 65.5493 65.4703 65.5493 64.725V61.358H64.5873C64.4919 61.358 64.4096 61.3233 64.3403 61.254C64.2709 61.1847 64.2363 61.1023 64.2363 61.007V60.591C64.2363 60.4957 64.2709 60.4133 64.3403 60.344C64.4096 60.2747 64.4919 60.24 64.5873 60.24H65.5493V58.121C65.5493 58.0257 65.5839 57.9433 65.6533 57.874C65.7226 57.8047 65.8049 57.77 65.9003 57.77H66.3813C66.4766 57.77 66.5589 57.8047 66.6283 57.874C66.6976 57.9433 66.7323 58.0257 66.7323 58.121V60.24H68.3833C68.4786 60.24 68.5609 60.2747 68.6303 60.344C68.6996 60.4133 68.7343 60.4957 68.7343 60.591V61.007C68.7343 61.1023 68.6996 61.1847 68.6303 61.254C68.5609 61.3233 68.4786 61.358 68.3833 61.358H66.7323V64.725ZM70.1043 60.591C70.1043 60.4957 70.139 60.4133 70.2083 60.344C70.2777 60.2747 70.36 60.24 70.4553 60.24H70.9363C71.0317 60.24 71.114 60.2747 71.1833 60.344C71.2527 60.4133 71.2873 60.4957 71.2873 60.591V64.023C71.2873 64.6817 71.4347 65.18 71.7293 65.518C72.0327 65.8473 72.4703 66.012 73.0423 66.012C73.597 66.012 74.026 65.843 74.3293 65.505C74.6413 65.167 74.7973 64.673 74.7973 64.023V60.591C74.7973 60.4957 74.832 60.4133 74.9013 60.344C74.9707 60.2747 75.053 60.24 75.1483 60.24H75.6293C75.7247 60.24 75.807 60.2747 75.8763 60.344C75.9457 60.4133 75.9803 60.4957 75.9803 60.591V66.649C75.9803 66.7443 75.9457 66.8267 75.8763 66.896C75.807 66.9653 75.7247 67 75.6293 67H75.1483C75.053 67 74.9707 66.9653 74.9013 66.896C74.832 66.8267 74.7973 66.7443 74.7973 66.649V66.246C74.3467 66.8353 73.6967 67.13 72.8473 67.13C72.0153 67.13 71.348 66.87 70.8453 66.35C70.3513 65.83 70.1043 65.1193 70.1043 64.218V60.591ZM81.3582 60.24C81.4535 60.24 81.5358 60.2747 81.6052 60.344C81.6745 60.4133 81.7092 60.4957 81.7092 60.591V61.007C81.7092 61.1023 81.6745 61.1847 81.6052 61.254C81.5358 61.3233 81.4535 61.358 81.3582 61.358H80.6042C80.1188 61.358 79.7462 61.488 79.4862 61.748C79.2348 61.9993 79.1092 62.3677 79.1092 62.853V66.649C79.1092 66.7443 79.0745 66.8267 79.0052 66.896C78.9358 66.9653 78.8535 67 78.7582 67H78.2772C78.1818 67 78.0995 66.9653 78.0302 66.896C77.9608 66.8267 77.9262 66.7443 77.9262 66.649V60.591C77.9262 60.4957 77.9608 60.4133 78.0302 60.344C78.0995 60.2747 78.1818 60.24 78.2772 60.24H78.7582C78.8535 60.24 78.9358 60.2747 79.0052 60.344C79.0745 60.4133 79.1092 60.4957 79.1092 60.591V60.994C79.2825 60.734 79.4905 60.5433 79.7332 60.422C79.9758 60.3007 80.2922 60.24 80.6822 60.24H81.3582ZM86.8563 62.723V62.554C86.8563 62.1293 86.7133 61.8043 86.4273 61.579C86.1499 61.345 85.7859 61.228 85.3353 61.228C84.9886 61.228 84.7156 61.2887 84.5163 61.41C84.3256 61.5227 84.1436 61.696 83.9703 61.93C83.9183 61.9993 83.8619 62.047 83.8013 62.073C83.7406 62.099 83.6583 62.112 83.5543 62.112H83.1643C83.0689 62.112 82.9823 62.0773 82.9043 62.008C82.8349 61.9387 82.8046 61.8563 82.8133 61.761C82.8393 61.501 82.9649 61.2453 83.1903 60.994C83.4243 60.734 83.7319 60.5217 84.1133 60.357C84.4946 60.1923 84.9019 60.11 85.3353 60.11C86.1413 60.11 86.7913 60.3353 87.2853 60.786C87.7879 61.2367 88.0393 61.8693 88.0393 62.684V66.649C88.0393 66.7443 88.0046 66.8267 87.9353 66.896C87.8659 66.9653 87.7836 67 87.6883 67H87.2073C87.1119 67 87.0296 66.9653 86.9603 66.896C86.8909 66.8267 86.8563 66.7443 86.8563 66.649V66.116C86.7176 66.428 86.4229 66.675 85.9723 66.857C85.5216 67.039 85.0709 67.13 84.6203 67.13C84.1783 67.13 83.7839 67.052 83.4373 66.896C83.0906 66.7313 82.8219 66.5103 82.6313 66.233C82.4493 65.9557 82.3583 65.6437 82.3583 65.297C82.3583 64.647 82.6009 64.14 83.0863 63.776C83.5716 63.4033 84.2173 63.152 85.0233 63.022L86.8563 62.723ZM86.8563 63.763L85.3223 64.01C84.7589 64.0967 84.3213 64.2397 84.0093 64.439C83.6973 64.6297 83.5413 64.8723 83.5413 65.167C83.5413 65.3837 83.6409 65.5787 83.8403 65.752C84.0396 65.9253 84.3429 66.012 84.7503 66.012C85.3743 66.012 85.8813 65.8343 86.2713 65.479C86.6613 65.1237 86.8563 64.66 86.8563 64.088V63.763Z" fill="#171B22"/>
<rect x="40" y="74" width="38" height="25" rx="12.5" fill="#DC6A2C"/>
<path d="M57.1579 84.854C57.1766 85.1153 57.1859 85.5353 57.1859 86.114C57.1859 86.6833 57.1766 87.094 57.1579 87.346C57.0926 88.4567 56.7239 89.3667 56.0519 90.076C55.3892 90.7853 54.3952 91.14 53.0699 91.14C51.7446 91.14 50.7459 90.7853 50.0739 90.076C49.4112 89.3667 49.0472 88.4567 48.9819 87.346C48.9632 86.842 48.9539 86.4313 48.9539 86.114C48.9539 85.7967 48.9632 85.3767 48.9819 84.854C49.0472 83.7433 49.4112 82.8333 50.0739 82.124C50.7459 81.4147 51.7446 81.06 53.0699 81.06C54.3952 81.06 55.3892 81.4147 56.0519 82.124C56.7239 82.8333 57.0926 83.7433 57.1579 84.854ZM54.5679 84.924C54.5399 84.4107 54.4139 84.014 54.1899 83.734C53.9659 83.4447 53.5926 83.3 53.0699 83.3C52.5472 83.3 52.1739 83.4447 51.9499 83.734C51.7259 84.014 51.5999 84.4107 51.5719 84.924C51.5532 85.428 51.5439 85.8153 51.5439 86.086C51.5439 86.338 51.5532 86.7347 51.5719 87.276C51.5906 87.7893 51.7119 88.1907 51.9359 88.48C52.1692 88.76 52.5472 88.9 53.0699 88.9C53.5926 88.9 53.9659 88.76 54.1899 88.48C54.4232 88.1907 54.5492 87.7893 54.5679 87.276C54.5866 87.0053 54.5959 86.6087 54.5959 86.086C54.5959 85.5633 54.5866 85.176 54.5679 84.924ZM62.7646 84.182C62.7366 84.77 62.5359 85.2507 62.1626 85.624C61.7986 85.988 61.2666 86.17 60.5666 86.17C59.8666 86.17 59.3346 85.988 58.9706 85.624C58.6159 85.26 58.4152 84.7793 58.3686 84.182C58.3592 84.0607 58.3546 83.888 58.3546 83.664C58.3546 83.4307 58.3592 83.2487 58.3686 83.118C58.4152 82.5207 58.6159 82.04 58.9706 81.676C59.3346 81.312 59.8666 81.13 60.5666 81.13C61.2666 81.13 61.7939 81.312 62.1486 81.676C62.5126 82.04 62.7179 82.5207 62.7646 83.118C62.7832 83.3793 62.7926 83.5613 62.7926 83.664C62.7926 83.7667 62.7832 83.9393 62.7646 84.182ZM66.2646 81.466C66.3392 81.3727 66.4092 81.3073 66.4746 81.27C66.5492 81.2233 66.6472 81.2 66.7686 81.2H67.9166C68.0192 81.2 68.0986 81.228 68.1546 81.284C68.2199 81.3307 68.2526 81.396 68.2526 81.48C68.2526 81.536 68.2339 81.5873 68.1966 81.634L61.2806 90.734C61.2059 90.8273 61.1312 90.8973 61.0566 90.944C60.9912 90.9813 60.8979 91 60.7766 91H59.6286C59.5259 91 59.4419 90.9767 59.3766 90.93C59.3206 90.874 59.2926 90.804 59.2926 90.72C59.2926 90.664 59.3112 90.6127 59.3486 90.566L66.2646 81.466ZM60.5666 84.84C60.7626 84.84 60.9026 84.784 60.9866 84.672C61.0706 84.56 61.1219 84.3733 61.1406 84.112C61.1592 83.888 61.1686 83.734 61.1686 83.65C61.1686 83.5473 61.1592 83.3933 61.1406 83.188C61.1219 82.9267 61.0706 82.74 60.9866 82.628C60.9026 82.516 60.7626 82.46 60.5666 82.46C60.3706 82.46 60.2306 82.516 60.1466 82.628C60.0626 82.74 60.0112 82.9267 59.9926 83.188C59.9832 83.2907 59.9786 83.4447 59.9786 83.65C59.9786 83.846 59.9832 84 59.9926 84.112C60.0112 84.3733 60.0626 84.56 60.1466 84.672C60.2306 84.784 60.3706 84.84 60.5666 84.84ZM69.2606 89.082C69.2326 89.67 69.0319 90.1507 68.6586 90.524C68.2946 90.888 67.7626 91.07 67.0626 91.07C66.3626 91.07 65.8306 90.888 65.4666 90.524C65.1119 90.16 64.9112 89.6793 64.8646 89.082C64.8552 88.9607 64.8506 88.788 64.8506 88.564C64.8506 88.3307 64.8552 88.1487 64.8646 88.018C64.9112 87.4207 65.1119 86.94 65.4666 86.576C65.8306 86.212 66.3626 86.03 67.0626 86.03C67.7626 86.03 68.2899 86.212 68.6446 86.576C69.0086 86.94 69.2139 87.4207 69.2606 88.018C69.2792 88.2793 69.2886 88.4613 69.2886 88.564C69.2886 88.6667 69.2792 88.8393 69.2606 89.082ZM67.0626 89.74C67.2586 89.74 67.3986 89.684 67.4826 89.572C67.5666 89.46 67.6179 89.2733 67.6366 89.012C67.6552 88.788 67.6646 88.634 67.6646 88.55C67.6646 88.4473 67.6552 88.2933 67.6366 88.088C67.6179 87.8267 67.5666 87.64 67.4826 87.528C67.3986 87.416 67.2586 87.36 67.0626 87.36C66.8666 87.36 66.7266 87.416 66.6426 87.528C66.5586 87.64 66.5072 87.8267 66.4886 88.088C66.4792 88.1907 66.4746 88.3447 66.4746 88.55C66.4746 88.746 66.4792 88.9 66.4886 89.012C66.5072 89.2733 66.5586 89.46 66.6426 89.572C66.7266 89.684 66.8666 89.74 67.0626 89.74Z" fill="white"/>
<g filter="url(#filter0_d_34428_7915)">
<rect x="88" y="14" width="32" height="32" rx="16" fill="white"/>
<rect x="87" y="13" width="34" height="34" rx="17" stroke="#1DA534" stroke-width="2"/>
<path opacity="0.4" d="M104 40C109.523 40 114 35.5228 114 30C114 24.4772 109.523 20 104 20C98.4772 20 94 24.4772 94 30C94 35.5228 98.4772 40 104 40Z" fill="#1DA534"/>
<path d="M102.579 33.5801C102.379 33.5801 102.189 33.5001 102.049 33.3601L99.2195 30.5301C98.9295 30.2401 98.9295 29.7601 99.2195 29.4701C99.5095 29.1801 99.9895 29.1801 100.279 29.4701L102.579 31.7701L107.719 26.6301C108.009 26.3401 108.489 26.3401 108.779 26.6301C109.069 26.9201 109.069 27.4001 108.779 27.6901L103.109 33.3601C102.969 33.5001 102.779 33.5801 102.579 33.5801Z" fill="#1DA534"/>
</g>
<defs>
<filter id="filter0_d_34428_7915" x="71" y="5" width="66" height="66" filterUnits="userSpaceOnUse" color-interpolation-filters="sRGB">
<feFlood flood-opacity="0" result="BackgroundImageFix"/>
<feColorMatrix in="SourceAlpha" type="matrix" values="0 0 0 0 0 0 0 0 0 0 0 0 0 0 0 0 0 0 127 0" result="hardAlpha"/>
<feOffset dy="8"/>
<feGaussianBlur stdDeviation="7.5"/>
<feColorMatrix type="matrix" values="0 0 0 0 0 0 0 0 0 0 0 0 0 0 0 0 0 0 0.25 0"/>
<feBlend mode="normal" in2="BackgroundImageFix" result="effect1_dropShadow_34428_7915"/>
<feBlend mode="normal" in="SourceGraphic" in2="effect1_dropShadow_34428_7915" result="shape"/>
</filter>
<clipPath id="clip0_34428_7915">
<rect width="32" height="32" fill="white" transform="translate(43 19)"/>
</clipPath>
</defs>
</svg>
