<svg width="137" height="118" viewBox="0 0 137 118" fill="none" xmlns="http://www.w3.org/2000/svg">
<rect x="2" y="2" width="114" height="114" rx="57" fill="#E6F7F6"/>
<rect x="2" y="2" width="114" height="114" rx="57" stroke="#01A9DB" stroke-width="4"/>
<path opacity="0.4" d="M64.586 21.667H53.4127C48.5593 21.667 45.666 24.5603 45.666 29.4137V40.5737C45.666 45.4403 48.5593 48.3337 53.4127 48.3337H64.5727C69.426 48.3337 72.3193 45.4403 72.3193 40.587V29.4137C72.3327 24.5603 69.4394 21.667 64.586 21.667Z" fill="#02AAA4"/>
<path d="M64.8938 29.4129V40.5862C64.8938 41.4395 64.2004 42.1329 63.3471 42.1329C62.4804 42.1329 61.7871 41.4395 61.7871 40.5862V29.4129C61.7871 28.5595 62.4804 27.8662 63.3471 27.8662C64.2004 27.8662 64.8938 28.5595 64.8938 29.4129Z" fill="#02AAA4"/>
<path d="M56.2141 36.24V40.5867C56.2141 41.44 55.5208 42.1334 54.6541 42.1334C53.8008 42.1334 53.1074 41.44 53.1074 40.5867V36.24C53.1074 35.3867 53.8008 34.6934 54.6541 34.6934C55.5208 34.6934 56.2141 35.3867 56.2141 36.24Z" fill="#02AAA4"/>
<path d="M28.0024 62.983V65.83H32.3704C32.4657 65.83 32.5481 65.8647 32.6174 65.934C32.6867 66.0033 32.7214 66.0857 32.7214 66.181V66.649C32.7214 66.7443 32.6867 66.8267 32.6174 66.896C32.5481 66.9653 32.4657 67 32.3704 67H27.1184C27.0231 67 26.9407 66.9653 26.8714 66.896C26.8021 66.8267 26.7674 66.7443 26.7674 66.649V58.251C26.7674 58.1557 26.8021 58.0733 26.8714 58.004C26.9407 57.9347 27.0231 57.9 27.1184 57.9H32.2664C32.3617 57.9 32.4441 57.9347 32.5134 58.004C32.5827 58.0733 32.6174 58.1557 32.6174 58.251V58.719C32.6174 58.8143 32.5827 58.8967 32.5134 58.966C32.4441 59.0353 32.3617 59.07 32.2664 59.07H28.0024V61.813H31.9804C32.0757 61.813 32.1581 61.8477 32.2274 61.917C32.2967 61.9863 32.3314 62.0687 32.3314 62.164V62.632C32.3314 62.7273 32.2967 62.8097 32.2274 62.879C32.1581 62.9483 32.0757 62.983 31.9804 62.983H28.0024ZM35.9428 63.997C34.6774 63.7283 34.0448 63.0827 34.0448 62.06C34.0448 61.7047 34.1401 61.3797 34.3308 61.085C34.5214 60.7903 34.8031 60.5563 35.1758 60.383C35.5571 60.201 36.0208 60.11 36.5668 60.11C37.1041 60.11 37.5678 60.188 37.9578 60.344C38.3478 60.5 38.6424 60.695 38.8418 60.929C39.0498 61.163 39.1538 61.3883 39.1538 61.605C39.1538 61.6917 39.1191 61.7697 39.0498 61.839C38.9804 61.8997 38.8981 61.93 38.8028 61.93H38.3738C38.2091 61.93 38.0791 61.8693 37.9838 61.748C37.7151 61.4013 37.2428 61.228 36.5668 61.228C36.1681 61.228 35.8431 61.3017 35.5918 61.449C35.3491 61.5963 35.2278 61.8 35.2278 62.06C35.2278 62.2767 35.2884 62.4413 35.4098 62.554C35.5311 62.6667 35.7131 62.7577 35.9558 62.827C36.1984 62.8963 36.6274 63.0003 37.2428 63.139C38.0054 63.3037 38.5471 63.555 38.8678 63.893C39.1884 64.231 39.3488 64.6427 39.3488 65.128C39.3488 65.4833 39.2361 65.8127 39.0108 66.116C38.7941 66.4193 38.4778 66.6663 38.0618 66.857C37.6544 67.039 37.1778 67.13 36.6318 67.13C36.0944 67.13 35.6178 67.0477 35.2018 66.883C34.7944 66.7097 34.4781 66.5017 34.2528 66.259C34.0274 66.0163 33.9148 65.7867 33.9148 65.57C33.9148 65.4833 33.9494 65.4097 34.0188 65.349C34.0881 65.2797 34.1704 65.245 34.2658 65.245H34.7338C34.8118 65.245 34.8811 65.2537 34.9418 65.271C35.0024 65.2883 35.0588 65.336 35.1108 65.414C35.3968 65.8127 35.9038 66.012 36.6318 66.012C37.0391 66.012 37.3944 65.9297 37.6978 65.765C38.0098 65.5917 38.1658 65.3793 38.1658 65.128C38.1658 64.92 38.0878 64.7553 37.9318 64.634C37.7844 64.504 37.5678 64.4 37.2818 64.322C36.9958 64.2353 36.5494 64.127 35.9428 63.997ZM42.6619 64.725C42.6619 65.0977 42.7356 65.3837 42.8829 65.583C43.0389 65.7823 43.3293 65.882 43.7539 65.882H44.4429C44.5383 65.882 44.6206 65.9167 44.6899 65.986C44.7593 66.0553 44.7939 66.1377 44.7939 66.233V66.649C44.7939 66.7443 44.7593 66.8267 44.6899 66.896C44.6206 66.9653 44.5383 67 44.4429 67H43.6239C42.8873 67 42.3456 66.8093 41.9989 66.428C41.6523 66.038 41.4789 65.4703 41.4789 64.725V61.358H40.5169C40.4216 61.358 40.3393 61.3233 40.2699 61.254C40.2006 61.1847 40.1659 61.1023 40.1659 61.007V60.591C40.1659 60.4957 40.2006 60.4133 40.2699 60.344C40.3393 60.2747 40.4216 60.24 40.5169 60.24H41.4789V58.121C41.4789 58.0257 41.5136 57.9433 41.5829 57.874C41.6523 57.8047 41.7346 57.77 41.8299 57.77H42.3109C42.4063 57.77 42.4886 57.8047 42.5579 57.874C42.6273 57.9433 42.6619 58.0257 42.6619 58.121V60.24H44.3129C44.4083 60.24 44.4906 60.2747 44.5599 60.344C44.6293 60.4133 44.6639 60.4957 44.6639 60.591V61.007C44.6639 61.1023 44.6293 61.1847 44.5599 61.254C44.4906 61.3233 44.4083 61.358 44.3129 61.358H42.6619V64.725ZM50.116 62.723V62.554C50.116 62.1293 49.973 61.8043 49.687 61.579C49.4097 61.345 49.0457 61.228 48.595 61.228C48.2484 61.228 47.9754 61.2887 47.776 61.41C47.5854 61.5227 47.4034 61.696 47.23 61.93C47.178 61.9993 47.1217 62.047 47.061 62.073C47.0004 62.099 46.918 62.112 46.814 62.112H46.424C46.3287 62.112 46.242 62.0773 46.164 62.008C46.0947 61.9387 46.0644 61.8563 46.073 61.761C46.099 61.501 46.2247 61.2453 46.45 60.994C46.684 60.734 46.9917 60.5217 47.373 60.357C47.7544 60.1923 48.1617 60.11 48.595 60.11C49.401 60.11 50.051 60.3353 50.545 60.786C51.0477 61.2367 51.299 61.8693 51.299 62.684V66.649C51.299 66.7443 51.2644 66.8267 51.195 66.896C51.1257 66.9653 51.0434 67 50.948 67H50.467C50.3717 67 50.2894 66.9653 50.22 66.896C50.1507 66.8267 50.116 66.7443 50.116 66.649V66.116C49.9774 66.428 49.6827 66.675 49.232 66.857C48.7814 67.039 48.3307 67.13 47.88 67.13C47.438 67.13 47.0437 67.052 46.697 66.896C46.3504 66.7313 46.0817 66.5103 45.891 66.233C45.709 65.9557 45.618 65.6437 45.618 65.297C45.618 64.647 45.8607 64.14 46.346 63.776C46.8314 63.4033 47.477 63.152 48.283 63.022L50.116 62.723ZM50.116 63.763L48.582 64.01C48.0187 64.0967 47.581 64.2397 47.269 64.439C46.957 64.6297 46.801 64.8723 46.801 65.167C46.801 65.3837 46.9007 65.5787 47.1 65.752C47.2994 65.9253 47.6027 66.012 48.01 66.012C48.634 66.012 49.141 65.8343 49.531 65.479C49.921 65.1237 50.116 64.66 50.116 64.088V63.763ZM57.8367 58.121C57.8367 58.0257 57.8714 57.9433 57.9407 57.874C58.01 57.8047 58.0924 57.77 58.1877 57.77H58.6687C58.764 57.77 58.8464 57.8047 58.9157 57.874C58.985 57.9433 59.0197 58.0257 59.0197 58.121V66.649C59.0197 66.7443 58.985 66.8267 58.9157 66.896C58.8464 66.9653 58.764 67 58.6687 67H58.1877C58.0924 67 58.01 66.9653 57.9407 66.896C57.8714 66.8267 57.8367 66.7443 57.8367 66.649V66.246C57.3947 66.8353 56.723 67.13 55.8217 67.13C55.2844 67.13 54.7947 67.0043 54.3527 66.753C53.9194 66.5017 53.5684 66.142 53.2997 65.674C53.0397 65.206 52.8967 64.66 52.8707 64.036L52.8577 63.607L52.8707 63.191C52.8967 62.567 53.0397 62.0253 53.2997 61.566C53.5684 61.098 53.9194 60.7383 54.3527 60.487C54.786 60.2357 55.2757 60.11 55.8217 60.11C56.307 60.11 56.7144 60.1967 57.0437 60.37C57.3817 60.5347 57.646 60.7427 57.8367 60.994V58.121ZM57.8367 63.152C57.8107 62.5453 57.6287 62.073 57.2907 61.735C56.9527 61.397 56.5064 61.228 55.9517 61.228C55.3884 61.228 54.9377 61.41 54.5997 61.774C54.2704 62.138 54.0884 62.632 54.0537 63.256L54.0407 63.62L54.0537 63.984C54.0884 64.608 54.2704 65.102 54.5997 65.466C54.9377 65.83 55.3884 66.012 55.9517 66.012C56.489 66.012 56.931 65.8473 57.2777 65.518C57.6244 65.18 57.8107 64.7337 57.8367 64.179C57.8454 64.0923 57.8497 63.919 57.8497 63.659C57.8497 63.4077 57.8454 63.2387 57.8367 63.152ZM62.1482 66.649C62.1482 66.7443 62.1136 66.8267 62.0442 66.896C61.9749 66.9653 61.8926 67 61.7972 67H61.3162C61.2209 67 61.1386 66.9653 61.0692 66.896C60.9999 66.8267 60.9652 66.7443 60.9652 66.649V60.591C60.9652 60.4957 60.9999 60.4133 61.0692 60.344C61.1386 60.2747 61.2209 60.24 61.3162 60.24H61.7972C61.8926 60.24 61.9749 60.2747 62.0442 60.344C62.1136 60.4133 62.1482 60.4957 62.1482 60.591V66.649ZM61.9402 57.692C62.0356 57.588 62.1136 57.523 62.1742 57.497C62.2349 57.4623 62.3172 57.445 62.4212 57.445H63.3832C63.4612 57.445 63.5219 57.471 63.5652 57.523C63.6086 57.5663 63.6302 57.627 63.6302 57.705C63.6302 57.7657 63.6086 57.8177 63.5652 57.861L62.1222 59.044C62.0269 59.122 61.9402 59.1783 61.8622 59.213C61.7929 59.2477 61.6976 59.265 61.5762 59.265H61.0952C60.9566 59.265 60.8872 59.1957 60.8872 59.057C60.8872 58.9877 60.9089 58.9313 60.9522 58.888L61.9402 57.692ZM65.726 63.997C64.4606 63.7283 63.828 63.0827 63.828 62.06C63.828 61.7047 63.9233 61.3797 64.114 61.085C64.3046 60.7903 64.5863 60.5563 64.959 60.383C65.3403 60.201 65.804 60.11 66.35 60.11C66.8873 60.11 67.351 60.188 67.741 60.344C68.131 60.5 68.4256 60.695 68.625 60.929C68.833 61.163 68.937 61.3883 68.937 61.605C68.937 61.6917 68.9023 61.7697 68.833 61.839C68.7636 61.8997 68.6813 61.93 68.586 61.93H68.157C67.9923 61.93 67.8623 61.8693 67.767 61.748C67.4983 61.4013 67.026 61.228 66.35 61.228C65.9513 61.228 65.6263 61.3017 65.375 61.449C65.1323 61.5963 65.011 61.8 65.011 62.06C65.011 62.2767 65.0716 62.4413 65.193 62.554C65.3143 62.6667 65.4963 62.7577 65.739 62.827C65.9816 62.8963 66.4106 63.0003 67.026 63.139C67.7886 63.3037 68.3303 63.555 68.651 63.893C68.9716 64.231 69.132 64.6427 69.132 65.128C69.132 65.4833 69.0193 65.8127 68.794 66.116C68.5773 66.4193 68.261 66.6663 67.845 66.857C67.4376 67.039 66.961 67.13 66.415 67.13C65.8776 67.13 65.401 67.0477 64.985 66.883C64.5776 66.7097 64.2613 66.5017 64.036 66.259C63.8106 66.0163 63.698 65.7867 63.698 65.57C63.698 65.4833 63.7326 65.4097 63.802 65.349C63.8713 65.2797 63.9536 65.245 64.049 65.245H64.517C64.595 65.245 64.6643 65.2537 64.725 65.271C64.7856 65.2883 64.842 65.336 64.894 65.414C65.18 65.8127 65.687 66.012 66.415 66.012C66.8223 66.012 67.1776 65.9297 67.481 65.765C67.793 65.5917 67.949 65.3793 67.949 65.128C67.949 64.92 67.871 64.7553 67.715 64.634C67.5676 64.504 67.351 64.4 67.065 64.322C66.779 64.2353 66.3326 64.127 65.726 63.997ZM72.4451 64.725C72.4451 65.0977 72.5188 65.3837 72.6661 65.583C72.8221 65.7823 73.1125 65.882 73.5371 65.882H74.2261C74.3215 65.882 74.4038 65.9167 74.4731 65.986C74.5425 66.0553 74.5771 66.1377 74.5771 66.233V66.649C74.5771 66.7443 74.5425 66.8267 74.4731 66.896C74.4038 66.9653 74.3215 67 74.2261 67H73.4071C72.6705 67 72.1288 66.8093 71.7821 66.428C71.4355 66.038 71.2621 65.4703 71.2621 64.725V61.358H70.3001C70.2048 61.358 70.1225 61.3233 70.0531 61.254C69.9838 61.1847 69.9491 61.1023 69.9491 61.007V60.591C69.9491 60.4957 69.9838 60.4133 70.0531 60.344C70.1225 60.2747 70.2048 60.24 70.3001 60.24H71.2621V58.121C71.2621 58.0257 71.2968 57.9433 71.3661 57.874C71.4355 57.8047 71.5178 57.77 71.6131 57.77H72.0941C72.1895 57.77 72.2718 57.8047 72.3411 57.874C72.4105 57.9433 72.4451 58.0257 72.4451 58.121V60.24H74.0961C74.1915 60.24 74.2738 60.2747 74.3431 60.344C74.4125 60.4133 74.4471 60.4957 74.4471 60.591V61.007C74.4471 61.1023 74.4125 61.1847 74.3431 61.254C74.2738 61.3233 74.1915 61.358 74.0961 61.358H72.4451V64.725ZM77.1952 58.862C77.1952 58.9573 77.1606 59.0397 77.0912 59.109C77.0219 59.1783 76.9396 59.213 76.8442 59.213H76.1032C76.0079 59.213 75.9256 59.1783 75.8562 59.109C75.7869 59.0397 75.7522 58.9573 75.7522 58.862V58.121C75.7522 58.0257 75.7869 57.9433 75.8562 57.874C75.9256 57.8047 76.0079 57.77 76.1032 57.77H76.8442C76.9396 57.77 77.0219 57.8047 77.0912 57.874C77.1606 57.9433 77.1952 58.0257 77.1952 58.121V58.862ZM77.0652 66.649C77.0652 66.7443 77.0306 66.8267 76.9612 66.896C76.8919 66.9653 76.8096 67 76.7142 67H76.2332C76.1379 67 76.0556 66.9653 75.9862 66.896C75.9169 66.8267 75.8822 66.7443 75.8822 66.649V60.591C75.8822 60.4957 75.9169 60.4133 75.9862 60.344C76.0556 60.2747 76.1379 60.24 76.2332 60.24H76.7142C76.8096 60.24 76.8919 60.2747 76.9612 60.344C77.0306 60.4133 77.0652 60.4957 77.0652 60.591V66.649ZM81.748 66.012C82.6146 66.012 83.1996 65.674 83.503 64.998C83.5636 64.868 83.6243 64.777 83.685 64.725C83.7456 64.673 83.828 64.647 83.932 64.647H84.322C84.4173 64.647 84.4996 64.6817 84.569 64.751C84.6383 64.8117 84.673 64.8853 84.673 64.972C84.673 65.2667 84.556 65.583 84.322 65.921C84.088 66.259 83.75 66.545 83.308 66.779C82.866 67.013 82.346 67.13 81.748 67.13C81.1326 67.13 80.5996 67 80.149 66.74C79.6983 66.48 79.3516 66.1247 79.109 65.674C78.8663 65.2147 78.732 64.7033 78.706 64.14C78.6973 64.036 78.693 63.8367 78.693 63.542C78.693 63.334 78.6973 63.1867 78.706 63.1C78.784 62.216 79.083 61.4967 79.603 60.942C80.123 60.3873 80.838 60.11 81.748 60.11C82.346 60.11 82.8616 60.227 83.295 60.461C83.737 60.6863 84.0706 60.968 84.296 61.306C84.53 61.6353 84.6556 61.9473 84.673 62.242C84.6816 62.3373 84.647 62.4197 84.569 62.489C84.4996 62.5583 84.4173 62.593 84.322 62.593H83.932C83.828 62.593 83.7456 62.567 83.685 62.515C83.6243 62.463 83.5636 62.372 83.503 62.242C83.1996 61.566 82.6146 61.228 81.748 61.228C81.2713 61.228 80.8553 61.3883 80.5 61.709C80.1446 62.0297 79.941 62.515 79.889 63.165C79.8803 63.2603 79.876 63.4163 79.876 63.633C79.876 63.8323 79.8803 63.9797 79.889 64.075C79.9496 64.725 80.1533 65.2103 80.5 65.531C80.8553 65.8517 81.2713 66.012 81.748 66.012ZM90.2459 62.723V62.554C90.2459 62.1293 90.1029 61.8043 89.8169 61.579C89.5396 61.345 89.1756 61.228 88.7249 61.228C88.3782 61.228 88.1052 61.2887 87.9059 61.41C87.7152 61.5227 87.5332 61.696 87.3599 61.93C87.3079 61.9993 87.2516 62.047 87.1909 62.073C87.1302 62.099 87.0479 62.112 86.9439 62.112H86.5539C86.4586 62.112 86.3719 62.0773 86.2939 62.008C86.2246 61.9387 86.1942 61.8563 86.2029 61.761C86.2289 61.501 86.3546 61.2453 86.5799 60.994C86.8139 60.734 87.1216 60.5217 87.5029 60.357C87.8842 60.1923 88.2916 60.11 88.7249 60.11C89.5309 60.11 90.1809 60.3353 90.6749 60.786C91.1776 61.2367 91.4289 61.8693 91.4289 62.684V66.649C91.4289 66.7443 91.3942 66.8267 91.3249 66.896C91.2556 66.9653 91.1732 67 91.0779 67H90.5969C90.5016 67 90.4192 66.9653 90.3499 66.896C90.2806 66.8267 90.2459 66.7443 90.2459 66.649V66.116C90.1072 66.428 89.8126 66.675 89.3619 66.857C88.9112 67.039 88.4606 67.13 88.0099 67.13C87.5679 67.13 87.1736 67.052 86.8269 66.896C86.4802 66.7313 86.2116 66.5103 86.0209 66.233C85.8389 65.9557 85.7479 65.6437 85.7479 65.297C85.7479 64.647 85.9906 64.14 86.4759 63.776C86.9612 63.4033 87.6069 63.152 88.4129 63.022L90.2459 62.723ZM90.2459 63.763L88.7119 64.01C88.1486 64.0967 87.7109 64.2397 87.3989 64.439C87.0869 64.6297 86.9309 64.8723 86.9309 65.167C86.9309 65.3837 87.0306 65.5787 87.2299 65.752C87.4292 65.9253 87.7326 66.012 88.1399 66.012C88.7639 66.012 89.2709 65.8343 89.6609 65.479C90.0509 65.1237 90.2459 64.66 90.2459 64.088V63.763Z" fill="#171B22"/>
<rect x="40" y="74" width="38" height="25" rx="12.5" fill="#02AAA4"/>
<path d="M57.1579 84.854C57.1766 85.1153 57.1859 85.5353 57.1859 86.114C57.1859 86.6833 57.1766 87.094 57.1579 87.346C57.0926 88.4567 56.7239 89.3667 56.0519 90.076C55.3892 90.7853 54.3952 91.14 53.0699 91.14C51.7446 91.14 50.7459 90.7853 50.0739 90.076C49.4112 89.3667 49.0472 88.4567 48.9819 87.346C48.9632 86.842 48.9539 86.4313 48.9539 86.114C48.9539 85.7967 48.9632 85.3767 48.9819 84.854C49.0472 83.7433 49.4112 82.8333 50.0739 82.124C50.7459 81.4147 51.7446 81.06 53.0699 81.06C54.3952 81.06 55.3892 81.4147 56.0519 82.124C56.7239 82.8333 57.0926 83.7433 57.1579 84.854ZM54.5679 84.924C54.5399 84.4107 54.4139 84.014 54.1899 83.734C53.9659 83.4447 53.5926 83.3 53.0699 83.3C52.5472 83.3 52.1739 83.4447 51.9499 83.734C51.7259 84.014 51.5999 84.4107 51.5719 84.924C51.5532 85.428 51.5439 85.8153 51.5439 86.086C51.5439 86.338 51.5532 86.7347 51.5719 87.276C51.5906 87.7893 51.7119 88.1907 51.9359 88.48C52.1692 88.76 52.5472 88.9 53.0699 88.9C53.5926 88.9 53.9659 88.76 54.1899 88.48C54.4232 88.1907 54.5492 87.7893 54.5679 87.276C54.5866 87.0053 54.5959 86.6087 54.5959 86.086C54.5959 85.5633 54.5866 85.176 54.5679 84.924ZM62.7646 84.182C62.7366 84.77 62.5359 85.2507 62.1626 85.624C61.7986 85.988 61.2666 86.17 60.5666 86.17C59.8666 86.17 59.3346 85.988 58.9706 85.624C58.6159 85.26 58.4152 84.7793 58.3686 84.182C58.3592 84.0607 58.3546 83.888 58.3546 83.664C58.3546 83.4307 58.3592 83.2487 58.3686 83.118C58.4152 82.5207 58.6159 82.04 58.9706 81.676C59.3346 81.312 59.8666 81.13 60.5666 81.13C61.2666 81.13 61.7939 81.312 62.1486 81.676C62.5126 82.04 62.7179 82.5207 62.7646 83.118C62.7832 83.3793 62.7926 83.5613 62.7926 83.664C62.7926 83.7667 62.7832 83.9393 62.7646 84.182ZM66.2646 81.466C66.3392 81.3727 66.4092 81.3073 66.4746 81.27C66.5492 81.2233 66.6472 81.2 66.7686 81.2H67.9166C68.0192 81.2 68.0986 81.228 68.1546 81.284C68.2199 81.3307 68.2526 81.396 68.2526 81.48C68.2526 81.536 68.2339 81.5873 68.1966 81.634L61.2806 90.734C61.2059 90.8273 61.1312 90.8973 61.0566 90.944C60.9912 90.9813 60.8979 91 60.7766 91H59.6286C59.5259 91 59.4419 90.9767 59.3766 90.93C59.3206 90.874 59.2926 90.804 59.2926 90.72C59.2926 90.664 59.3112 90.6127 59.3486 90.566L66.2646 81.466ZM60.5666 84.84C60.7626 84.84 60.9026 84.784 60.9866 84.672C61.0706 84.56 61.1219 84.3733 61.1406 84.112C61.1592 83.888 61.1686 83.734 61.1686 83.65C61.1686 83.5473 61.1592 83.3933 61.1406 83.188C61.1219 82.9267 61.0706 82.74 60.9866 82.628C60.9026 82.516 60.7626 82.46 60.5666 82.46C60.3706 82.46 60.2306 82.516 60.1466 82.628C60.0626 82.74 60.0112 82.9267 59.9926 83.188C59.9832 83.2907 59.9786 83.4447 59.9786 83.65C59.9786 83.846 59.9832 84 59.9926 84.112C60.0112 84.3733 60.0626 84.56 60.1466 84.672C60.2306 84.784 60.3706 84.84 60.5666 84.84ZM69.2606 89.082C69.2326 89.67 69.0319 90.1507 68.6586 90.524C68.2946 90.888 67.7626 91.07 67.0626 91.07C66.3626 91.07 65.8306 90.888 65.4666 90.524C65.1119 90.16 64.9112 89.6793 64.8646 89.082C64.8552 88.9607 64.8506 88.788 64.8506 88.564C64.8506 88.3307 64.8552 88.1487 64.8646 88.018C64.9112 87.4207 65.1119 86.94 65.4666 86.576C65.8306 86.212 66.3626 86.03 67.0626 86.03C67.7626 86.03 68.2899 86.212 68.6446 86.576C69.0086 86.94 69.2139 87.4207 69.2606 88.018C69.2792 88.2793 69.2886 88.4613 69.2886 88.564C69.2886 88.6667 69.2792 88.8393 69.2606 89.082ZM67.0626 89.74C67.2586 89.74 67.3986 89.684 67.4826 89.572C67.5666 89.46 67.6179 89.2733 67.6366 89.012C67.6552 88.788 67.6646 88.634 67.6646 88.55C67.6646 88.4473 67.6552 88.2933 67.6366 88.088C67.6179 87.8267 67.5666 87.64 67.4826 87.528C67.3986 87.416 67.2586 87.36 67.0626 87.36C66.8666 87.36 66.7266 87.416 66.6426 87.528C66.5586 87.64 66.5072 87.8267 66.4886 88.088C66.4792 88.1907 66.4746 88.3447 66.4746 88.55C66.4746 88.746 66.4792 88.9 66.4886 89.012C66.5072 89.2733 66.5586 89.46 66.6426 89.572C66.7266 89.684 66.8666 89.74 67.0626 89.74Z" fill="white"/>
<g filter="url(#filter0_d_34428_7951)">
<rect x="88" y="14" width="32" height="32" rx="16" fill="white"/>
<rect x="87" y="13" width="34" height="34" rx="17" stroke="#1DA534" stroke-width="2"/>
<path opacity="0.4" d="M104 40C109.523 40 114 35.5228 114 30C114 24.4772 109.523 20 104 20C98.4772 20 94 24.4772 94 30C94 35.5228 98.4772 40 104 40Z" fill="#1DA534"/>
<path d="M102.579 33.5796C102.379 33.5796 102.189 33.4996 102.049 33.3596L99.2195 30.5296C98.9295 30.2396 98.9295 29.7596 99.2195 29.4696C99.5095 29.1796 99.9895 29.1796 100.279 29.4696L102.579 31.7696L107.719 26.6296C108.009 26.3396 108.489 26.3396 108.779 26.6296C109.069 26.9196 109.069 27.3996 108.779 27.6896L103.109 33.3596C102.969 33.4996 102.779 33.5796 102.579 33.5796Z" fill="#1DA534"/>
</g>
<defs>
<filter id="filter0_d_34428_7951" x="71" y="5" width="66" height="66" filterUnits="userSpaceOnUse" color-interpolation-filters="sRGB">
<feFlood flood-opacity="0" result="BackgroundImageFix"/>
<feColorMatrix in="SourceAlpha" type="matrix" values="0 0 0 0 0 0 0 0 0 0 0 0 0 0 0 0 0 0 127 0" result="hardAlpha"/>
<feOffset dy="8"/>
<feGaussianBlur stdDeviation="7.5"/>
<feColorMatrix type="matrix" values="0 0 0 0 0 0 0 0 0 0 0 0 0 0 0 0 0 0 0.25 0"/>
<feBlend mode="normal" in2="BackgroundImageFix" result="effect1_dropShadow_34428_7951"/>
<feBlend mode="normal" in="SourceGraphic" in2="effect1_dropShadow_34428_7951" result="shape"/>
</filter>
</defs>
</svg>
