<svg width="137" height="118" viewBox="0 0 137 118" fill="none" xmlns="http://www.w3.org/2000/svg">
<rect x="2" y="2" width="114" height="114" rx="57" fill="#E6F7F6"/>
<rect x="2" y="2" width="114" height="114" rx="57" stroke="#01A9DB" stroke-width="4"/>
<path opacity="0.4" d="M64.586 21.6665H53.4127C48.5593 21.6665 45.666 24.5598 45.666 29.4132V40.5732C45.666 45.4398 48.5593 48.3332 53.4127 48.3332H64.5727C69.426 48.3332 72.3193 45.4398 72.3193 40.5865V29.4132C72.3327 24.5598 69.4394 21.6665 64.586 21.6665Z" fill="#02AAA4"/>
<path d="M64.8938 29.4134V40.5867C64.8938 41.44 64.2004 42.1334 63.3471 42.1334C62.4804 42.1334 61.7871 41.44 61.7871 40.5867V29.4134C61.7871 28.56 62.4804 27.8667 63.3471 27.8667C64.2004 27.8667 64.8938 28.56 64.8938 29.4134Z" fill="#02AAA4"/>
<path d="M56.2141 36.24V40.5867C56.2141 41.44 55.5208 42.1334 54.6541 42.1334C53.8008 42.1334 53.1074 41.44 53.1074 40.5867V36.24C53.1074 35.3867 53.8008 34.6934 54.6541 34.6934C55.5208 34.6934 56.2141 35.3867 56.2141 36.24Z" fill="#02AAA4"/>
<path d="M27.0223 67C26.927 67 26.8533 66.974 26.8013 66.922C26.7493 66.8613 26.7233 66.7877 26.7233 66.701V58.212C26.7233 58.1167 26.7493 58.043 26.8013 57.991C26.8533 57.9303 26.927 57.9 27.0223 57.9H32.3913C32.4866 57.9 32.5603 57.9303 32.6123 57.991C32.6643 58.043 32.6903 58.1167 32.6903 58.212V58.706C32.6903 58.8013 32.6643 58.875 32.6123 58.927C32.5603 58.979 32.4866 59.005 32.3913 59.005H27.9713V61.852H32.1053C32.2006 61.852 32.2743 61.8823 32.3263 61.943C32.3783 61.995 32.4043 62.0687 32.4043 62.164V62.645C32.4043 62.7317 32.3783 62.8053 32.3263 62.866C32.2743 62.918 32.2006 62.944 32.1053 62.944H27.9713V65.895H32.4953C32.5906 65.895 32.6643 65.921 32.7163 65.973C32.7683 66.025 32.7943 66.0987 32.7943 66.194V66.701C32.7943 66.7877 32.7683 66.8613 32.7163 66.922C32.6643 66.974 32.5906 67 32.4953 67H27.0223ZM36.7781 67.13C36.2927 67.13 35.8767 67.0693 35.5301 66.948C35.1834 66.8267 34.9017 66.6793 34.6851 66.506C34.4684 66.3327 34.3037 66.1593 34.1911 65.986C34.0871 65.8127 34.0307 65.674 34.0221 65.57C34.0134 65.4747 34.0437 65.401 34.1131 65.349C34.1824 65.297 34.2517 65.271 34.3211 65.271H34.8931C34.9451 65.271 34.9841 65.2797 35.0101 65.297C35.0447 65.3057 35.0881 65.3403 35.1401 65.401C35.2527 65.5223 35.3784 65.6437 35.5171 65.765C35.6557 65.8863 35.8247 65.986 36.0241 66.064C36.2321 66.142 36.4877 66.181 36.7911 66.181C37.2331 66.181 37.5971 66.0987 37.8831 65.934C38.1691 65.7607 38.3121 65.5093 38.3121 65.18C38.3121 64.9633 38.2514 64.79 38.1301 64.66C38.0174 64.53 37.8094 64.413 37.5061 64.309C37.2114 64.205 36.8041 64.0967 36.2841 63.984C35.7641 63.8627 35.3524 63.7153 35.0491 63.542C34.7457 63.36 34.5291 63.1477 34.3991 62.905C34.2691 62.6537 34.2041 62.372 34.2041 62.06C34.2041 61.7393 34.2994 61.4317 34.4901 61.137C34.6807 60.8337 34.9581 60.5867 35.3221 60.396C35.6947 60.2053 36.1584 60.11 36.7131 60.11C37.1637 60.11 37.5494 60.1663 37.8701 60.279C38.1907 60.3917 38.4551 60.5347 38.6631 60.708C38.8711 60.8727 39.0271 61.0373 39.1311 61.202C39.2351 61.3667 39.2914 61.5053 39.3001 61.618C39.3087 61.7047 39.2827 61.7783 39.2221 61.839C39.1614 61.891 39.0921 61.917 39.0141 61.917H38.4681C38.4074 61.917 38.3554 61.904 38.3121 61.878C38.2774 61.852 38.2427 61.8217 38.2081 61.787C38.1214 61.6743 38.0174 61.5617 37.8961 61.449C37.7834 61.3363 37.6317 61.2453 37.4411 61.176C37.2591 61.098 37.0164 61.059 36.7131 61.059C36.2797 61.059 35.9547 61.15 35.7381 61.332C35.5214 61.514 35.4131 61.7437 35.4131 62.021C35.4131 62.1857 35.4607 62.333 35.5561 62.463C35.6514 62.593 35.8334 62.71 36.1021 62.814C36.3707 62.918 36.7694 63.0307 37.2981 63.152C37.8701 63.2647 38.3207 63.4163 38.6501 63.607C38.9794 63.7977 39.2134 64.0187 39.3521 64.27C39.4907 64.5213 39.5601 64.8117 39.5601 65.141C39.5601 65.505 39.4517 65.8387 39.2351 66.142C39.0271 66.4453 38.7151 66.688 38.2991 66.87C37.8917 67.0433 37.3847 67.13 36.7781 67.13ZM43.6913 67C43.206 67 42.8117 66.909 42.5083 66.727C42.205 66.5363 41.984 66.272 41.8453 65.934C41.7067 65.5873 41.6373 65.18 41.6373 64.712V61.28H40.6233C40.5367 61.28 40.463 61.254 40.4023 61.202C40.3503 61.1413 40.3243 61.0677 40.3243 60.981V60.539C40.3243 60.4523 40.3503 60.383 40.4023 60.331C40.463 60.2703 40.5367 60.24 40.6233 60.24H41.6373V58.069C41.6373 57.9823 41.6633 57.913 41.7153 57.861C41.776 57.8003 41.8497 57.77 41.9363 57.77H42.5473C42.634 57.77 42.7033 57.8003 42.7553 57.861C42.816 57.913 42.8463 57.9823 42.8463 58.069V60.24H44.4583C44.545 60.24 44.6143 60.2703 44.6663 60.331C44.727 60.383 44.7573 60.4523 44.7573 60.539V60.981C44.7573 61.0677 44.727 61.1413 44.6663 61.202C44.6143 61.254 44.545 61.28 44.4583 61.28H42.8463V64.621C42.8463 65.0283 42.9157 65.349 43.0543 65.583C43.193 65.817 43.44 65.934 43.7953 65.934H44.5883C44.675 65.934 44.7443 65.9643 44.7963 66.025C44.857 66.077 44.8873 66.1463 44.8873 66.233V66.701C44.8873 66.7877 44.857 66.8613 44.7963 66.922C44.7443 66.974 44.675 67 44.5883 67H43.6913ZM48.0155 67.13C47.5821 67.13 47.1878 67.0433 46.8325 66.87C46.4771 66.6967 46.1911 66.4627 45.9745 66.168C45.7578 65.8733 45.6495 65.5397 45.6495 65.167C45.6495 64.569 45.8921 64.0923 46.3775 63.737C46.8628 63.3817 47.4955 63.1477 48.2755 63.035L50.2125 62.762V62.385C50.2125 61.969 50.0911 61.644 49.8485 61.41C49.6145 61.176 49.2288 61.059 48.6915 61.059C48.3015 61.059 47.9851 61.137 47.7425 61.293C47.5085 61.449 47.3438 61.6483 47.2485 61.891C47.1965 62.021 47.1055 62.086 46.9755 62.086H46.3905C46.2951 62.086 46.2215 62.06 46.1695 62.008C46.1261 61.9473 46.1045 61.878 46.1045 61.8C46.1045 61.67 46.1521 61.5097 46.2475 61.319C46.3515 61.1283 46.5075 60.942 46.7155 60.76C46.9235 60.578 47.1878 60.4263 47.5085 60.305C47.8378 60.175 48.2365 60.11 48.7045 60.11C49.2245 60.11 49.6621 60.1793 50.0175 60.318C50.3728 60.448 50.6501 60.6257 50.8495 60.851C51.0575 61.0763 51.2048 61.332 51.2915 61.618C51.3868 61.904 51.4345 62.1943 51.4345 62.489V66.701C51.4345 66.7877 51.4041 66.8613 51.3435 66.922C51.2915 66.974 51.2221 67 51.1355 67H50.5375C50.4421 67 50.3685 66.974 50.3165 66.922C50.2645 66.8613 50.2385 66.7877 50.2385 66.701V66.142C50.1258 66.298 49.9741 66.454 49.7835 66.61C49.5928 66.7573 49.3545 66.883 49.0685 66.987C48.7825 67.0823 48.4315 67.13 48.0155 67.13ZM48.2885 66.155C48.6438 66.155 48.9688 66.0813 49.2635 65.934C49.5581 65.778 49.7878 65.5397 49.9525 65.219C50.1258 64.8983 50.2125 64.4953 50.2125 64.01V63.646L48.7045 63.867C48.0891 63.9537 47.6255 64.101 47.3135 64.309C47.0015 64.5083 46.8455 64.764 46.8455 65.076C46.8455 65.3187 46.9148 65.5223 47.0535 65.687C47.2008 65.843 47.3828 65.96 47.5995 66.038C47.8248 66.116 48.0545 66.155 48.2885 66.155ZM55.7733 67.13C55.2966 67.13 54.885 67.0477 54.5383 66.883C54.1916 66.7097 53.9056 66.48 53.6803 66.194C53.4636 65.8993 53.299 65.5657 53.1863 65.193C53.0823 64.8203 53.0216 64.426 53.0043 64.01C52.9956 63.8713 52.9913 63.7413 52.9913 63.62C52.9913 63.4987 52.9956 63.3687 53.0043 63.23C53.0216 62.8227 53.0823 62.4327 53.1863 62.06C53.299 61.6873 53.4636 61.3537 53.6803 61.059C53.9056 60.7643 54.1916 60.5347 54.5383 60.37C54.885 60.1967 55.2966 60.11 55.7733 60.11C56.2846 60.11 56.7093 60.201 57.0473 60.383C57.3853 60.565 57.6626 60.7903 57.8793 61.059V58.069C57.8793 57.9823 57.9053 57.913 57.9573 57.861C58.018 57.8003 58.0916 57.77 58.1783 57.77H58.8023C58.889 57.77 58.9583 57.8003 59.0103 57.861C59.071 57.913 59.1013 57.9823 59.1013 58.069V66.701C59.1013 66.7877 59.071 66.8613 59.0103 66.922C58.9583 66.974 58.889 67 58.8023 67H58.2173C58.122 67 58.0483 66.974 57.9963 66.922C57.9443 66.8613 57.9183 66.7877 57.9183 66.701V66.155C57.7016 66.4323 57.42 66.6663 57.0733 66.857C56.7266 67.039 56.2933 67.13 55.7733 67.13ZM56.0463 66.077C56.4796 66.077 56.8263 65.9773 57.0863 65.778C57.3463 65.5787 57.5413 65.3273 57.6713 65.024C57.8013 64.712 57.8706 64.3957 57.8793 64.075C57.888 63.9363 57.8923 63.7717 57.8923 63.581C57.8923 63.3817 57.888 63.2127 57.8793 63.074C57.8706 62.7707 57.797 62.4717 57.6583 62.177C57.5283 61.8823 57.329 61.6397 57.0603 61.449C56.8003 61.2583 56.4623 61.163 56.0463 61.163C55.6043 61.163 55.2533 61.2627 54.9933 61.462C54.7333 61.6527 54.547 61.9083 54.4343 62.229C54.3216 62.541 54.2566 62.879 54.2393 63.243C54.2306 63.4943 54.2306 63.7457 54.2393 63.997C54.2566 64.361 54.3216 64.7033 54.4343 65.024C54.547 65.336 54.7333 65.5917 54.9933 65.791C55.2533 65.9817 55.6043 66.077 56.0463 66.077ZM61.3338 67C61.2471 67 61.1734 66.974 61.1128 66.922C61.0608 66.8613 61.0348 66.7877 61.0348 66.701V60.539C61.0348 60.4523 61.0608 60.383 61.1128 60.331C61.1734 60.2703 61.2471 60.24 61.3338 60.24H61.9578C62.0444 60.24 62.1138 60.2703 62.1658 60.331C62.2178 60.383 62.2438 60.4523 62.2438 60.539V66.701C62.2438 66.7877 62.2178 66.8613 62.1658 66.922C62.1138 66.974 62.0444 67 61.9578 67H61.3338ZM61.2948 59.265C61.1561 59.265 61.0868 59.1957 61.0868 59.057C61.0868 58.9877 61.1084 58.9313 61.1518 58.888L62.1268 57.718C62.2048 57.6227 62.2741 57.562 62.3348 57.536C62.3954 57.5013 62.4864 57.484 62.6078 57.484H63.4918C63.6564 57.484 63.7388 57.5663 63.7388 57.731C63.7388 57.7917 63.7171 57.8437 63.6738 57.887L62.1658 59.122C62.0964 59.1827 62.0314 59.2217 61.9708 59.239C61.9101 59.2563 61.8321 59.265 61.7368 59.265H61.2948ZM66.5232 67.13C66.0379 67.13 65.6219 67.0693 65.2752 66.948C64.9285 66.8267 64.6469 66.6793 64.4302 66.506C64.2135 66.3327 64.0489 66.1593 63.9362 65.986C63.8322 65.8127 63.7759 65.674 63.7672 65.57C63.7585 65.4747 63.7889 65.401 63.8582 65.349C63.9275 65.297 63.9969 65.271 64.0662 65.271H64.6382C64.6902 65.271 64.7292 65.2797 64.7552 65.297C64.7899 65.3057 64.8332 65.3403 64.8852 65.401C64.9979 65.5223 65.1235 65.6437 65.2622 65.765C65.4009 65.8863 65.5699 65.986 65.7692 66.064C65.9772 66.142 66.2329 66.181 66.5362 66.181C66.9782 66.181 67.3422 66.0987 67.6282 65.934C67.9142 65.7607 68.0572 65.5093 68.0572 65.18C68.0572 64.9633 67.9965 64.79 67.8752 64.66C67.7625 64.53 67.5545 64.413 67.2512 64.309C66.9565 64.205 66.5492 64.0967 66.0292 63.984C65.5092 63.8627 65.0975 63.7153 64.7942 63.542C64.4909 63.36 64.2742 63.1477 64.1442 62.905C64.0142 62.6537 63.9492 62.372 63.9492 62.06C63.9492 61.7393 64.0445 61.4317 64.2352 61.137C64.4259 60.8337 64.7032 60.5867 65.0672 60.396C65.4399 60.2053 65.9035 60.11 66.4582 60.11C66.9089 60.11 67.2945 60.1663 67.6152 60.279C67.9359 60.3917 68.2002 60.5347 68.4082 60.708C68.6162 60.8727 68.7722 61.0373 68.8762 61.202C68.9802 61.3667 69.0365 61.5053 69.0452 61.618C69.0539 61.7047 69.0279 61.7783 68.9672 61.839C68.9065 61.891 68.8372 61.917 68.7592 61.917H68.2132C68.1525 61.917 68.1005 61.904 68.0572 61.878C68.0225 61.852 67.9879 61.8217 67.9532 61.787C67.8665 61.6743 67.7625 61.5617 67.6412 61.449C67.5285 61.3363 67.3769 61.2453 67.1862 61.176C67.0042 61.098 66.7615 61.059 66.4582 61.059C66.0249 61.059 65.6999 61.15 65.4832 61.332C65.2665 61.514 65.1582 61.7437 65.1582 62.021C65.1582 62.1857 65.2059 62.333 65.3012 62.463C65.3965 62.593 65.5785 62.71 65.8472 62.814C66.1159 62.918 66.5145 63.0307 67.0432 63.152C67.6152 63.2647 68.0659 63.4163 68.3952 63.607C68.7245 63.7977 68.9585 64.0187 69.0972 64.27C69.2359 64.5213 69.3052 64.8117 69.3052 65.141C69.3052 65.505 69.1969 65.8387 68.9802 66.142C68.7722 66.4453 68.4602 66.688 68.0442 66.87C67.6369 67.0433 67.1299 67.13 66.5232 67.13ZM73.4364 67C72.9511 67 72.5568 66.909 72.2534 66.727C71.9501 66.5363 71.7291 66.272 71.5904 65.934C71.4518 65.5873 71.3824 65.18 71.3824 64.712V61.28H70.3684C70.2818 61.28 70.2081 61.254 70.1474 61.202C70.0954 61.1413 70.0694 61.0677 70.0694 60.981V60.539C70.0694 60.4523 70.0954 60.383 70.1474 60.331C70.2081 60.2703 70.2818 60.24 70.3684 60.24H71.3824V58.069C71.3824 57.9823 71.4084 57.913 71.4604 57.861C71.5211 57.8003 71.5948 57.77 71.6814 57.77H72.2924C72.3791 57.77 72.4484 57.8003 72.5004 57.861C72.5611 57.913 72.5914 57.9823 72.5914 58.069V60.24H74.2034C74.2901 60.24 74.3594 60.2703 74.4114 60.331C74.4721 60.383 74.5024 60.4523 74.5024 60.539V60.981C74.5024 61.0677 74.4721 61.1413 74.4114 61.202C74.3594 61.254 74.2901 61.28 74.2034 61.28H72.5914V64.621C72.5914 65.0283 72.6608 65.349 72.7994 65.583C72.9381 65.817 73.1851 65.934 73.5404 65.934H74.3334C74.4201 65.934 74.4894 65.9643 74.5414 66.025C74.6021 66.077 74.6324 66.1463 74.6324 66.233V66.701C74.6324 66.7877 74.6021 66.8613 74.5414 66.922C74.4894 66.974 74.4201 67 74.3334 67H73.4364ZM76.1746 67C76.0879 67 76.0142 66.974 75.9536 66.922C75.9016 66.8613 75.8756 66.7877 75.8756 66.701V60.539C75.8756 60.4523 75.9016 60.383 75.9536 60.331C76.0142 60.2703 76.0879 60.24 76.1746 60.24H76.7986C76.8852 60.24 76.9546 60.2703 77.0066 60.331C77.0586 60.383 77.0846 60.4523 77.0846 60.539V66.701C77.0846 66.7877 77.0586 66.8613 77.0066 66.922C76.9546 66.974 76.8852 67 76.7986 67H76.1746ZM76.0706 58.979C75.9839 58.979 75.9102 58.953 75.8496 58.901C75.7976 58.8403 75.7716 58.7667 75.7716 58.68V57.978C75.7716 57.8913 75.7976 57.822 75.8496 57.77C75.9102 57.7093 75.9839 57.679 76.0706 57.679H76.8896C76.9762 57.679 77.0456 57.7093 77.0976 57.77C77.1582 57.822 77.1886 57.8913 77.1886 57.978V58.68C77.1886 58.7667 77.1582 58.8403 77.0976 58.901C77.0456 58.953 76.9762 58.979 76.8896 58.979H76.0706ZM81.754 67.13C81.1387 67.13 80.6057 67.013 80.155 66.779C79.713 66.5363 79.3707 66.194 79.128 65.752C78.8853 65.3013 78.7553 64.764 78.738 64.14C78.7293 64.01 78.725 63.8367 78.725 63.62C78.725 63.4033 78.7293 63.23 78.738 63.1C78.7553 62.476 78.8853 61.943 79.128 61.501C79.3707 61.0503 79.713 60.708 80.155 60.474C80.6057 60.2313 81.1387 60.11 81.754 60.11C82.2567 60.11 82.6857 60.1793 83.041 60.318C83.405 60.4567 83.704 60.6343 83.938 60.851C84.172 61.0677 84.3453 61.3017 84.458 61.553C84.5793 61.8043 84.6443 62.0427 84.653 62.268C84.6617 62.3547 84.6357 62.424 84.575 62.476C84.5143 62.528 84.4407 62.554 84.354 62.554H83.73C83.6433 62.554 83.5783 62.5367 83.535 62.502C83.4917 62.4587 83.4483 62.3893 83.405 62.294C83.249 61.8693 83.0367 61.5703 82.768 61.397C82.4993 61.2237 82.1657 61.137 81.767 61.137C81.247 61.137 80.8223 61.2973 80.493 61.618C80.1723 61.9387 79.999 62.4543 79.973 63.165C79.9643 63.477 79.9643 63.7803 79.973 64.075C79.999 64.7943 80.1723 65.3143 80.493 65.635C80.8223 65.947 81.247 66.103 81.767 66.103C82.1657 66.103 82.4993 66.0163 82.768 65.843C83.0367 65.6697 83.249 65.3707 83.405 64.946C83.4483 64.8507 83.4917 64.7857 83.535 64.751C83.5783 64.7077 83.6433 64.686 83.73 64.686H84.354C84.4407 64.686 84.5143 64.712 84.575 64.764C84.6357 64.816 84.6617 64.8853 84.653 64.972C84.6443 65.154 84.6053 65.3403 84.536 65.531C84.4667 65.7217 84.354 65.9167 84.198 66.116C84.0507 66.3067 83.8643 66.48 83.639 66.636C83.4137 66.7833 83.1407 66.9047 82.82 67C82.508 67.0867 82.1527 67.13 81.754 67.13ZM88.0819 67.13C87.6485 67.13 87.2542 67.0433 86.8989 66.87C86.5435 66.6967 86.2575 66.4627 86.0409 66.168C85.8242 65.8733 85.7159 65.5397 85.7159 65.167C85.7159 64.569 85.9585 64.0923 86.4439 63.737C86.9292 63.3817 87.5619 63.1477 88.3419 63.035L90.2789 62.762V62.385C90.2789 61.969 90.1575 61.644 89.9149 61.41C89.6809 61.176 89.2952 61.059 88.7579 61.059C88.3679 61.059 88.0515 61.137 87.8089 61.293C87.5749 61.449 87.4102 61.6483 87.3149 61.891C87.2629 62.021 87.1719 62.086 87.0419 62.086H86.4569C86.3615 62.086 86.2879 62.06 86.2359 62.008C86.1925 61.9473 86.1709 61.878 86.1709 61.8C86.1709 61.67 86.2185 61.5097 86.3139 61.319C86.4179 61.1283 86.5739 60.942 86.7819 60.76C86.9899 60.578 87.2542 60.4263 87.5749 60.305C87.9042 60.175 88.3029 60.11 88.7709 60.11C89.2909 60.11 89.7285 60.1793 90.0839 60.318C90.4392 60.448 90.7165 60.6257 90.9159 60.851C91.1239 61.0763 91.2712 61.332 91.3579 61.618C91.4532 61.904 91.5009 62.1943 91.5009 62.489V66.701C91.5009 66.7877 91.4705 66.8613 91.4099 66.922C91.3579 66.974 91.2885 67 91.2019 67H90.6039C90.5085 67 90.4349 66.974 90.3829 66.922C90.3309 66.8613 90.3049 66.7877 90.3049 66.701V66.142C90.1922 66.298 90.0405 66.454 89.8499 66.61C89.6592 66.7573 89.4209 66.883 89.1349 66.987C88.8489 67.0823 88.4979 67.13 88.0819 67.13ZM88.3549 66.155C88.7102 66.155 89.0352 66.0813 89.3299 65.934C89.6245 65.778 89.8542 65.5397 90.0189 65.219C90.1922 64.8983 90.2789 64.4953 90.2789 64.01V63.646L88.7709 63.867C88.1555 63.9537 87.6919 64.101 87.3799 64.309C87.0679 64.5083 86.9119 64.764 86.9119 65.076C86.9119 65.3187 86.9812 65.5223 87.1199 65.687C87.2672 65.843 87.4492 65.96 87.6659 66.038C87.8912 66.116 88.1209 66.155 88.3549 66.155Z" fill="#171B22"/>
<rect x="40.5" y="74" width="37" height="25" rx="12.5" fill="#02AAA4"/>
<path d="M53.3417 91.14C52.6697 91.14 52.0864 91.0467 51.5917 90.86C51.097 90.664 50.6864 90.398 50.3597 90.062C50.0424 89.726 49.7997 89.334 49.6317 88.886C49.4637 88.438 49.3657 87.9573 49.3377 87.444C49.3284 87.192 49.319 86.9073 49.3097 86.59C49.3097 86.2633 49.3097 85.9367 49.3097 85.61C49.319 85.274 49.3284 84.9753 49.3377 84.714C49.3657 84.2007 49.4637 83.7247 49.6317 83.286C49.809 82.838 50.061 82.4507 50.3877 82.124C50.7237 81.788 51.1344 81.5267 51.6197 81.34C52.1144 81.1533 52.6884 81.06 53.3417 81.06C54.0044 81.06 54.5784 81.1533 55.0637 81.34C55.549 81.5267 55.955 81.788 56.2817 82.124C56.6177 82.4507 56.8744 82.838 57.0517 83.286C57.229 83.7247 57.327 84.2007 57.3457 84.714C57.3644 84.9753 57.3737 85.274 57.3737 85.61C57.383 85.9367 57.383 86.2633 57.3737 86.59C57.3737 86.9073 57.3644 87.192 57.3457 87.444C57.327 87.9573 57.229 88.438 57.0517 88.886C56.8837 89.334 56.6364 89.726 56.3097 90.062C55.9924 90.398 55.5864 90.664 55.0917 90.86C54.6064 91.0467 54.023 91.14 53.3417 91.14ZM53.3417 89.11C53.827 89.11 54.177 88.956 54.3917 88.648C54.6157 88.3307 54.7324 87.906 54.7417 87.374C54.7604 87.1033 54.7697 86.8187 54.7697 86.52C54.779 86.2213 54.779 85.9227 54.7697 85.624C54.7697 85.3253 54.7604 85.05 54.7417 84.798C54.7324 84.2847 54.6157 83.8693 54.3917 83.552C54.177 83.2347 53.827 83.0713 53.3417 83.062C52.8564 83.0713 52.5064 83.2347 52.2917 83.552C52.077 83.8693 51.9604 84.2847 51.9417 84.798C51.9324 85.05 51.923 85.3253 51.9137 85.624C51.9137 85.9227 51.9137 86.2213 51.9137 86.52C51.923 86.8187 51.9324 87.1033 51.9417 87.374C51.9604 87.906 52.0817 88.3307 52.3057 88.648C52.5297 88.956 52.875 89.11 53.3417 89.11ZM59.6793 91C59.4647 91 59.3573 90.9067 59.3573 90.72C59.3573 90.664 59.376 90.6127 59.4133 90.566L66.3293 81.466C66.3947 81.382 66.46 81.3167 66.5253 81.27C66.5907 81.2233 66.6887 81.2 66.8193 81.2H67.8133C68.028 81.2 68.1353 81.2933 68.1353 81.48C68.1353 81.536 68.1167 81.5873 68.0793 81.634L61.1633 90.734C61.098 90.818 61.0327 90.8833 60.9673 90.93C60.902 90.9767 60.804 91 60.6733 91H59.6793ZM66.7213 91.07C66.0867 91.07 65.578 90.902 65.1953 90.566C64.822 90.23 64.612 89.782 64.5653 89.222C64.556 88.9793 64.5513 88.7647 64.5513 88.578C64.5513 88.3913 64.556 88.1673 64.5653 87.906C64.6027 87.3367 64.8033 86.884 65.1673 86.548C65.5407 86.2027 66.0587 86.03 66.7213 86.03C67.3933 86.03 67.9113 86.2027 68.2753 86.548C68.6393 86.884 68.84 87.3367 68.8773 87.906C68.896 88.1673 68.9053 88.3913 68.9053 88.578C68.9053 88.7647 68.896 88.9793 68.8773 89.222C68.84 89.782 68.63 90.23 68.2473 90.566C67.8647 90.902 67.356 91.07 66.7213 91.07ZM66.7213 89.838C66.88 89.838 67.0013 89.8053 67.0853 89.74C67.1787 89.6747 67.2487 89.5907 67.2953 89.488C67.342 89.376 67.3653 89.2593 67.3653 89.138C67.384 88.9233 67.3933 88.7273 67.3933 88.55C67.3933 88.3727 67.384 88.1813 67.3653 87.976C67.356 87.7987 67.3047 87.64 67.2113 87.5C67.118 87.3507 66.9547 87.276 66.7213 87.276C66.488 87.276 66.3247 87.3507 66.2313 87.5C66.138 87.64 66.0867 87.7987 66.0773 87.976C66.068 88.1813 66.0633 88.3727 66.0633 88.55C66.0633 88.7273 66.068 88.9233 66.0773 89.138C66.0867 89.2593 66.11 89.376 66.1473 89.488C66.194 89.5907 66.264 89.6747 66.3573 89.74C66.4507 89.8053 66.572 89.838 66.7213 89.838ZM60.7993 86.142C60.1553 86.142 59.642 85.9787 59.2593 85.652C58.886 85.316 58.6807 84.868 58.6433 84.308C58.6247 84.0653 58.6153 83.8553 58.6153 83.678C58.6247 83.4913 58.634 83.2673 58.6433 83.006C58.6713 82.4367 58.8673 81.984 59.2313 81.648C59.6047 81.3027 60.1273 81.13 60.7993 81.13C61.4713 81.13 61.9893 81.3027 62.3533 81.648C62.7173 81.984 62.9133 82.4367 62.9413 83.006C62.96 83.2673 62.9693 83.4913 62.9693 83.678C62.9693 83.8553 62.96 84.0653 62.9413 84.308C62.9133 84.868 62.708 85.316 62.3253 85.652C61.9427 85.9787 61.434 86.142 60.7993 86.142ZM60.7993 84.938C60.9487 84.938 61.07 84.9053 61.1633 84.84C61.2567 84.7653 61.3267 84.6767 61.3733 84.574C61.42 84.462 61.4433 84.35 61.4433 84.238C61.462 84.0233 61.4713 83.8273 61.4713 83.65C61.4713 83.4727 61.462 83.2813 61.4433 83.076C61.434 82.8987 61.378 82.74 61.2753 82.6C61.182 82.4507 61.0233 82.376 60.7993 82.376C60.566 82.376 60.398 82.4507 60.2953 82.6C60.202 82.74 60.1507 82.8987 60.1413 83.076C60.132 83.2813 60.1273 83.4727 60.1273 83.65C60.1273 83.8273 60.132 84.0233 60.1413 84.238C60.1507 84.35 60.174 84.462 60.2113 84.574C60.258 84.6767 60.328 84.7653 60.4213 84.84C60.5147 84.9053 60.6407 84.938 60.7993 84.938Z" fill="white"/>
<g filter="url(#filter0_d_16167_41112)">
<rect x="88" y="14" width="32" height="32" rx="16" fill="white"/>
<rect x="87" y="13" width="34" height="34" rx="17" stroke="#1DA534" stroke-width="2"/>
<path opacity="0.4" d="M104 40C109.523 40 114 35.5228 114 30C114 24.4772 109.523 20 104 20C98.4772 20 94 24.4772 94 30C94 35.5228 98.4772 40 104 40Z" fill="#1DA534"/>
<path d="M102.579 33.5801C102.379 33.5801 102.189 33.5001 102.049 33.3601L99.2195 30.5301C98.9295 30.2401 98.9295 29.7601 99.2195 29.4701C99.5095 29.1801 99.9895 29.1801 100.279 29.4701L102.579 31.7701L107.719 26.6301C108.009 26.3401 108.489 26.3401 108.779 26.6301C109.069 26.9201 109.069 27.4001 108.779 27.6901L103.109 33.3601C102.969 33.5001 102.779 33.5801 102.579 33.5801Z" fill="#1DA534"/>
</g>
<defs>
<filter id="filter0_d_16167_41112" x="71" y="5" width="66" height="66" filterUnits="userSpaceOnUse" color-interpolation-filters="sRGB">
<feFlood flood-opacity="0" result="BackgroundImageFix"/>
<feColorMatrix in="SourceAlpha" type="matrix" values="0 0 0 0 0 0 0 0 0 0 0 0 0 0 0 0 0 0 127 0" result="hardAlpha"/>
<feOffset dy="8"/>
<feGaussianBlur stdDeviation="7.5"/>
<feColorMatrix type="matrix" values="0 0 0 0 0 0 0 0 0 0 0 0 0 0 0 0 0 0 0.25 0"/>
<feBlend mode="normal" in2="BackgroundImageFix" result="effect1_dropShadow_16167_41112"/>
<feBlend mode="normal" in="SourceGraphic" in2="effect1_dropShadow_16167_41112" result="shape"/>
</filter>
</defs>
</svg>
