<svg width="137" height="118" viewBox="0 0 137 118" fill="none" xmlns="http://www.w3.org/2000/svg">
<rect x="2" y="2" width="114" height="114" rx="57" fill="#FEF1EA"/>
<rect x="2" y="2" width="114" height="114" rx="57" stroke="#F27430" stroke-width="4"/>
<path opacity="0.4" d="M63.6023 14.5H53.7977C49.5389 14.5 47 17.321 47 22.053V32.947C47 37.679 49.5389 40.5 53.7977 40.5H63.6023C67.8611 40.5 70.4 37.679 70.4 32.947V22.053C70.4 17.321 67.8611 14.5 63.6023 14.5Z" fill="#F27430"/>
<path d="M59.9996 26.1999C59.9996 26.9106 59.4912 27.4999 58.8441 27.4999H50.7552C50.1235 27.4999 49.5996 26.9106 49.5996 26.1999C49.5996 25.4892 50.1235 24.8999 50.7552 24.8999H58.8441C59.4912 24.8999 59.9996 25.4892 59.9996 26.1999Z" fill="#F27430"/>
<path d="M62.5996 21.0002C62.5996 21.7109 61.9641 22.3002 61.1552 22.3002H51.0441C50.2544 22.3002 49.5996 21.7109 49.5996 21.0002C49.5996 20.2895 50.2544 19.7002 51.0441 19.7002H61.1552C61.9641 19.7002 62.5996 20.2895 62.5996 21.0002Z" fill="#F27430"/>
<path d="M67.2566 22.7427C68.0238 23.185 67.9532 23.3074 67.3746 24.3113L60.2332 36.7004C59.6683 37.6803 58.1676 38.5106 58.1676 38.5106C58.1676 38.5106 58.1339 36.7958 58.6988 35.8159L65.8402 23.4267C66.4189 22.4228 66.4894 22.3005 67.2566 22.7427Z" fill="#F27430"/>
<rect x="58.6992" y="35.8154" width="1.3" height="1.77107" transform="rotate(-60.0398 58.6992 35.8154)" fill="#DEE2E6"/>
<rect x="65.1914" y="24.5527" width="1.3" height="1.77107" transform="rotate(-60.0398 65.1914 24.5527)" fill="#DEE2E6"/>
<path d="M57.3996 31.4001C57.3996 32.1108 57.0183 32.7001 56.5329 32.7001H50.4663C49.9925 32.7001 49.5996 32.1108 49.5996 31.4001C49.5996 30.6894 49.9925 30.1001 50.4663 30.1001H56.5329C57.0183 30.1001 57.3996 30.6894 57.3996 31.4001Z" fill="#F27430"/>
<path d="M31.8513 50.4C32.7613 50.4 33.511 50.6253 34.1003 51.076C34.6897 51.518 34.9843 52.1897 34.9843 53.091C34.9843 53.767 34.8153 54.3173 34.4773 54.742C34.1393 55.1667 33.6843 55.47 33.1123 55.652L35.0753 59.071C35.1013 59.123 35.1143 59.1707 35.1143 59.214C35.1143 59.292 35.084 59.3613 35.0233 59.422C34.9713 59.474 34.9063 59.5 34.8283 59.5H34.2693C34.0267 59.5 33.8403 59.383 33.7103 59.149L31.8253 55.834H29.5893V59.149C29.5893 59.2443 29.5547 59.3267 29.4853 59.396C29.416 59.4653 29.3337 59.5 29.2383 59.5H28.7053C28.61 59.5 28.5277 59.4653 28.4583 59.396C28.389 59.3267 28.3543 59.2443 28.3543 59.149V50.751C28.3543 50.6557 28.389 50.5733 28.4583 50.504C28.5277 50.4347 28.61 50.4 28.7053 50.4H31.8513ZM31.7863 54.664C33.095 54.664 33.7493 54.1397 33.7493 53.091C33.7493 52.5537 33.5847 52.168 33.2553 51.934C32.926 51.6913 32.4363 51.57 31.7863 51.57H29.5893V54.664H31.7863ZM39.3441 52.61C40.2714 52.61 41.0038 52.9047 41.5411 53.494C42.0784 54.0833 42.3471 54.885 42.3471 55.899V56.25C42.3471 56.3453 42.3124 56.4277 42.2431 56.497C42.1738 56.5663 42.0914 56.601 41.9961 56.601H37.5241V56.679C37.5414 57.251 37.7148 57.7017 38.0441 58.031C38.3821 58.3517 38.8154 58.512 39.3441 58.512C39.7774 58.512 40.1111 58.4557 40.3451 58.343C40.5878 58.2303 40.8044 58.07 40.9951 57.862C41.0644 57.7927 41.1251 57.745 41.1771 57.719C41.2378 57.693 41.3158 57.68 41.4111 57.68H41.8011C41.9051 57.68 41.9918 57.7147 42.0611 57.784C42.1304 57.8533 42.1608 57.9357 42.1521 58.031C42.1174 58.265 41.9874 58.5077 41.7621 58.759C41.5454 59.0017 41.2291 59.2097 40.8131 59.383C40.4058 59.5477 39.9161 59.63 39.3441 59.63C38.7894 59.63 38.2954 59.5043 37.8621 59.253C37.4288 58.993 37.0821 58.6377 36.8221 58.187C36.5708 57.7363 36.4191 57.2293 36.3671 56.666C36.3498 56.406 36.3411 56.2067 36.3411 56.068C36.3411 55.9293 36.3498 55.73 36.3671 55.47C36.4191 54.9327 36.5708 54.4473 36.8221 54.014C37.0821 53.5807 37.4244 53.2383 37.8491 52.987C38.2824 52.7357 38.7808 52.61 39.3441 52.61ZM41.1771 55.509V55.47C41.1771 54.9413 41.0081 54.521 40.6701 54.209C40.3408 53.8883 39.8988 53.728 39.3441 53.728C38.8414 53.728 38.4124 53.8883 38.0571 54.209C37.7104 54.5297 37.5328 54.95 37.5241 55.47V55.509H41.1771ZM48.5564 50.621C48.5564 50.5257 48.5911 50.4433 48.6604 50.374C48.7298 50.3047 48.8121 50.27 48.9074 50.27H49.3884C49.4838 50.27 49.5661 50.3047 49.6354 50.374C49.7048 50.4433 49.7394 50.5257 49.7394 50.621V59.149C49.7394 59.2443 49.7048 59.3267 49.6354 59.396C49.5661 59.4653 49.4838 59.5 49.3884 59.5H48.9074C48.8121 59.5 48.7298 59.4653 48.6604 59.396C48.5911 59.3267 48.5564 59.2443 48.5564 59.149V58.746C48.1144 59.3353 47.4428 59.63 46.5414 59.63C46.0041 59.63 45.5144 59.5043 45.0724 59.253C44.6391 59.0017 44.2881 58.642 44.0194 58.174C43.7594 57.706 43.6164 57.16 43.5904 56.536L43.5774 56.107L43.5904 55.691C43.6164 55.067 43.7594 54.5253 44.0194 54.066C44.2881 53.598 44.6391 53.2383 45.0724 52.987C45.5058 52.7357 45.9954 52.61 46.5414 52.61C47.0268 52.61 47.4341 52.6967 47.7634 52.87C48.1014 53.0347 48.3658 53.2427 48.5564 53.494V50.621ZM48.5564 55.652C48.5304 55.0453 48.3484 54.573 48.0104 54.235C47.6724 53.897 47.2261 53.728 46.6714 53.728C46.1081 53.728 45.6574 53.91 45.3194 54.274C44.9901 54.638 44.8081 55.132 44.7734 55.756L44.7604 56.12L44.7734 56.484C44.8081 57.108 44.9901 57.602 45.3194 57.966C45.6574 58.33 46.1081 58.512 46.6714 58.512C47.2088 58.512 47.6508 58.3473 47.9974 58.018C48.3441 57.68 48.5304 57.2337 48.5564 56.679C48.5651 56.5923 48.5694 56.419 48.5694 56.159C48.5694 55.9077 48.5651 55.7387 48.5564 55.652ZM55.702 55.223V55.054C55.702 54.6293 55.559 54.3043 55.273 54.079C54.9956 53.845 54.6316 53.728 54.181 53.728C53.8343 53.728 53.5613 53.7887 53.362 53.91C53.1713 54.0227 52.9893 54.196 52.816 54.43C52.764 54.4993 52.7076 54.547 52.647 54.573C52.5863 54.599 52.504 54.612 52.4 54.612H52.01C51.9146 54.612 51.828 54.5773 51.75 54.508C51.6806 54.4387 51.6503 54.3563 51.659 54.261C51.685 54.001 51.8106 53.7453 52.036 53.494C52.27 53.234 52.5776 53.0217 52.959 52.857C53.3403 52.6923 53.7476 52.61 54.181 52.61C54.987 52.61 55.637 52.8353 56.131 53.286C56.6336 53.7367 56.885 54.3693 56.885 55.184V59.149C56.885 59.2443 56.8503 59.3267 56.781 59.396C56.7116 59.4653 56.6293 59.5 56.534 59.5H56.053C55.9576 59.5 55.8753 59.4653 55.806 59.396C55.7366 59.3267 55.702 59.2443 55.702 59.149V58.616C55.5633 58.928 55.2686 59.175 54.818 59.357C54.3673 59.539 53.9166 59.63 53.466 59.63C53.024 59.63 52.6296 59.552 52.283 59.396C51.9363 59.2313 51.6676 59.0103 51.477 58.733C51.295 58.4557 51.204 58.1437 51.204 57.797C51.204 57.147 51.4466 56.64 51.932 56.276C52.4173 55.9033 53.063 55.652 53.869 55.522L55.702 55.223ZM55.702 56.263L54.168 56.51C53.6046 56.5967 53.167 56.7397 52.855 56.939C52.543 57.1297 52.387 57.3723 52.387 57.667C52.387 57.8837 52.4866 58.0787 52.686 58.252C52.8853 58.4253 53.1886 58.512 53.596 58.512C54.22 58.512 54.727 58.3343 55.117 57.979C55.507 57.6237 55.702 57.16 55.702 56.588V56.263ZM61.5116 58.512C62.3783 58.512 62.9633 58.174 63.2666 57.498C63.3273 57.368 63.388 57.277 63.4486 57.225C63.5093 57.173 63.5916 57.147 63.6956 57.147H64.0856C64.181 57.147 64.2633 57.1817 64.3326 57.251C64.402 57.3117 64.4366 57.3853 64.4366 57.472C64.4366 57.7667 64.3196 58.083 64.0856 58.421C63.8516 58.759 63.5136 59.045 63.0716 59.279C62.6296 59.513 62.1096 59.63 61.5116 59.63C60.8963 59.63 60.3633 59.5 59.9126 59.24C59.462 58.98 59.1153 58.6247 58.8726 58.174C58.63 57.7147 58.4956 57.2033 58.4696 56.64C58.461 56.536 58.4566 56.3367 58.4566 56.042C58.4566 55.834 58.461 55.6867 58.4696 55.6C58.5476 54.716 58.8466 53.9967 59.3666 53.442C59.8866 52.8873 60.6016 52.61 61.5116 52.61C62.1096 52.61 62.6253 52.727 63.0586 52.961C63.5006 53.1863 63.8343 53.468 64.0596 53.806C64.2936 54.1353 64.4193 54.4473 64.4366 54.742C64.4453 54.8373 64.4106 54.9197 64.3326 54.989C64.2633 55.0583 64.181 55.093 64.0856 55.093H63.6956C63.5916 55.093 63.5093 55.067 63.4486 55.015C63.388 54.963 63.3273 54.872 63.2666 54.742C62.9633 54.066 62.3783 53.728 61.5116 53.728C61.035 53.728 60.619 53.8883 60.2636 54.209C59.9083 54.5297 59.7046 55.015 59.6526 55.665C59.644 55.7603 59.6396 55.9163 59.6396 56.133C59.6396 56.3323 59.644 56.4797 59.6526 56.575C59.7133 57.225 59.917 57.7103 60.2636 58.031C60.619 58.3517 61.035 58.512 61.5116 58.512ZM68.7226 58.512C69.5892 58.512 70.1742 58.174 70.4776 57.498C70.5382 57.368 70.5989 57.277 70.6596 57.225C70.7202 57.173 70.8026 57.147 70.9066 57.147H71.2966C71.3919 57.147 71.4742 57.1817 71.5436 57.251C71.6129 57.3117 71.6476 57.3853 71.6476 57.472C71.6476 57.7667 71.5306 58.083 71.2966 58.421C71.0626 58.759 70.7246 59.045 70.2826 59.279C69.8406 59.513 69.3206 59.63 68.7226 59.63C68.1072 59.63 67.5742 59.5 67.1236 59.24C66.6729 58.98 66.3262 58.6247 66.0836 58.174C65.8409 57.7147 65.7066 57.2033 65.6806 56.64C65.6719 56.536 65.6676 56.3367 65.6676 56.042C65.6676 55.834 65.6719 55.6867 65.6806 55.6C65.7586 54.716 66.0576 53.9967 66.5776 53.442C67.0976 52.8873 67.8126 52.61 68.7226 52.61C69.3206 52.61 69.8362 52.727 70.2696 52.961C70.7116 53.1863 71.0452 53.468 71.2706 53.806C71.5046 54.1353 71.6302 54.4473 71.6476 54.742C71.6562 54.8373 71.6216 54.9197 71.5436 54.989C71.4742 55.0583 71.3919 55.093 71.2966 55.093H70.9066C70.8026 55.093 70.7202 55.067 70.6596 55.015C70.5989 54.963 70.5382 54.872 70.4776 54.742C70.1742 54.066 69.5892 53.728 68.7226 53.728C68.2459 53.728 67.8299 53.8883 67.4746 54.209C67.1192 54.5297 66.9156 55.015 66.8636 55.665C66.8549 55.7603 66.8506 55.9163 66.8506 56.133C66.8506 56.3323 66.8549 56.4797 66.8636 56.575C66.9242 57.225 67.1279 57.7103 67.4746 58.031C67.8299 58.3517 68.2459 58.512 68.7226 58.512ZM74.5165 51.362C74.5165 51.4573 74.4818 51.5397 74.4125 51.609C74.3432 51.6783 74.2608 51.713 74.1655 51.713H73.4245C73.3292 51.713 73.2468 51.6783 73.1775 51.609C73.1082 51.5397 73.0735 51.4573 73.0735 51.362V50.621C73.0735 50.5257 73.1082 50.4433 73.1775 50.374C73.2468 50.3047 73.3292 50.27 73.4245 50.27H74.1655C74.2608 50.27 74.3432 50.3047 74.4125 50.374C74.4818 50.4433 74.5165 50.5257 74.5165 50.621V51.362ZM74.3865 59.149C74.3865 59.2443 74.3518 59.3267 74.2825 59.396C74.2132 59.4653 74.1308 59.5 74.0355 59.5H73.5545C73.4592 59.5 73.3768 59.4653 73.3075 59.396C73.2382 59.3267 73.2035 59.2443 73.2035 59.149V53.091C73.2035 52.9957 73.2382 52.9133 73.3075 52.844C73.3768 52.7747 73.4592 52.74 73.5545 52.74H74.0355C74.1308 52.74 74.2132 52.7747 74.2825 52.844C74.3518 52.9133 74.3865 52.9957 74.3865 53.091V59.149ZM82.1893 55.509C82.2066 55.6997 82.2153 55.9077 82.2153 56.133C82.2153 56.341 82.2066 56.5403 82.1893 56.731C82.1113 57.615 81.8036 58.3213 81.2663 58.85C80.7376 59.37 80.0183 59.63 79.1083 59.63C78.1983 59.63 77.4746 59.37 76.9373 58.85C76.4086 58.3213 76.1053 57.615 76.0273 56.731C76.0186 56.6357 76.0143 56.4363 76.0143 56.133C76.0143 55.8123 76.0186 55.6043 76.0273 55.509C76.0966 54.625 76.3999 53.923 76.9373 53.403C77.4746 52.8743 78.1983 52.61 79.1083 52.61C80.0183 52.61 80.7419 52.8743 81.2793 53.403C81.8166 53.923 82.1199 54.625 82.1893 55.509ZM81.0063 55.574C80.9543 55.0193 80.7679 54.573 80.4473 54.235C80.1353 53.897 79.6889 53.728 79.1083 53.728C78.5276 53.728 78.0769 53.897 77.7563 54.235C77.4443 54.573 77.2623 55.0193 77.2103 55.574C77.2016 55.678 77.1973 55.8643 77.1973 56.133C77.1973 56.393 77.2016 56.5707 77.2103 56.666C77.2623 57.2207 77.4443 57.667 77.7563 58.005C78.0769 58.343 78.5276 58.512 79.1083 58.512C79.6889 58.512 80.1353 58.343 80.4473 58.005C80.7679 57.667 80.9543 57.2207 81.0063 56.666C81.0236 56.4753 81.0323 56.2977 81.0323 56.133C81.0323 55.9683 81.0236 55.782 81.0063 55.574ZM79.4983 50.192C79.5936 50.088 79.6716 50.023 79.7323 49.997C79.7929 49.9623 79.8753 49.945 79.9793 49.945H80.9413C81.0193 49.945 81.0799 49.971 81.1233 50.023C81.1666 50.0663 81.1883 50.127 81.1883 50.205C81.1883 50.2657 81.1666 50.3177 81.1233 50.361L79.6803 51.544C79.5849 51.622 79.4983 51.6783 79.4203 51.713C79.3509 51.7477 79.2556 51.765 79.1343 51.765H78.6533C78.5146 51.765 78.4453 51.6957 78.4453 51.557C78.4453 51.4877 78.4669 51.4313 78.5103 51.388L79.4983 50.192ZM89.8482 59.149C89.8482 59.2443 89.8135 59.3267 89.7442 59.396C89.6749 59.4653 89.5925 59.5 89.4972 59.5H89.0162C88.9209 59.5 88.8385 59.4653 88.7692 59.396C88.6999 59.3267 88.6652 59.2443 88.6652 59.149V55.717C88.6652 55.067 88.5049 54.573 88.1842 54.235C87.8635 53.897 87.4172 53.728 86.8452 53.728C86.2819 53.728 85.8355 53.897 85.5062 54.235C85.1855 54.573 85.0252 55.067 85.0252 55.717V59.149C85.0252 59.2443 84.9905 59.3267 84.9212 59.396C84.8519 59.4653 84.7695 59.5 84.6742 59.5H84.1932C84.0979 59.5 84.0155 59.4653 83.9462 59.396C83.8769 59.3267 83.8422 59.2443 83.8422 59.149V53.091C83.8422 52.9957 83.8769 52.9133 83.9462 52.844C84.0155 52.7747 84.0979 52.74 84.1932 52.74H84.6742C84.7695 52.74 84.8519 52.7747 84.9212 52.844C84.9905 52.9133 85.0252 52.9957 85.0252 53.091V53.494C85.2159 53.2427 85.4759 53.0347 85.8052 52.87C86.1432 52.6967 86.5549 52.61 87.0402 52.61C87.5862 52.61 88.0715 52.727 88.4962 52.961C88.9209 53.195 89.2502 53.533 89.4842 53.975C89.7269 54.4083 89.8482 54.924 89.8482 55.522V59.149ZM34.4882 66.362C34.4882 66.4573 34.4535 66.5397 34.3842 66.609C34.3149 66.6783 34.2325 66.713 34.1372 66.713H33.3962C33.3009 66.713 33.2185 66.6783 33.1492 66.609C33.0799 66.5397 33.0452 66.4573 33.0452 66.362V65.621C33.0452 65.5257 33.0799 65.4433 33.1492 65.374C33.2185 65.3047 33.3009 65.27 33.3962 65.27H34.1372C34.2325 65.27 34.3149 65.3047 34.3842 65.374C34.4535 65.4433 34.4882 65.5257 34.4882 65.621V66.362ZM34.3582 74.149C34.3582 74.2443 34.3235 74.3267 34.2542 74.396C34.1849 74.4653 34.1025 74.5 34.0072 74.5H33.5262C33.4309 74.5 33.3485 74.4653 33.2792 74.396C33.2099 74.3267 33.1752 74.2443 33.1752 74.149V68.091C33.1752 67.9957 33.2099 67.9133 33.2792 67.844C33.3485 67.7747 33.4309 67.74 33.5262 67.74H34.0072C34.1025 67.74 34.1849 67.7747 34.2542 67.844C34.3235 67.9133 34.3582 67.9957 34.3582 68.091V74.149ZM42.3169 74.149C42.3169 74.2443 42.2823 74.3267 42.2129 74.396C42.1436 74.4653 42.0613 74.5 41.9659 74.5H41.4849C41.3896 74.5 41.3073 74.4653 41.2379 74.396C41.1686 74.3267 41.1339 74.2443 41.1339 74.149V70.717C41.1339 70.067 40.9736 69.573 40.6529 69.235C40.3323 68.897 39.8859 68.728 39.3139 68.728C38.7506 68.728 38.3043 68.897 37.9749 69.235C37.6543 69.573 37.4939 70.067 37.4939 70.717V74.149C37.4939 74.2443 37.4593 74.3267 37.3899 74.396C37.3206 74.4653 37.2383 74.5 37.1429 74.5H36.6619C36.5666 74.5 36.4843 74.4653 36.4149 74.396C36.3456 74.3267 36.3109 74.2443 36.3109 74.149V68.091C36.3109 67.9957 36.3456 67.9133 36.4149 67.844C36.4843 67.7747 36.5666 67.74 36.6619 67.74H37.1429C37.2383 67.74 37.3206 67.7747 37.3899 67.844C37.4593 67.9133 37.4939 67.9957 37.4939 68.091V68.494C37.6846 68.2427 37.9446 68.0347 38.2739 67.87C38.6119 67.6967 39.0236 67.61 39.5089 67.61C40.0549 67.61 40.5403 67.727 40.9649 67.961C41.3896 68.195 41.7189 68.533 41.9529 68.975C42.1956 69.4083 42.3169 69.924 42.3169 70.522V74.149ZM48.8484 65.621C48.8484 65.5257 48.8831 65.4433 48.9524 65.374C49.0218 65.3047 49.1041 65.27 49.1994 65.27H49.6804C49.7758 65.27 49.8581 65.3047 49.9274 65.374C49.9968 65.4433 50.0314 65.5257 50.0314 65.621V74.149C50.0314 74.2443 49.9968 74.3267 49.9274 74.396C49.8581 74.4653 49.7758 74.5 49.6804 74.5H49.1994C49.1041 74.5 49.0218 74.4653 48.9524 74.396C48.8831 74.3267 48.8484 74.2443 48.8484 74.149V73.746C48.4064 74.3353 47.7348 74.63 46.8334 74.63C46.2961 74.63 45.8064 74.5043 45.3644 74.253C44.9311 74.0017 44.5801 73.642 44.3114 73.174C44.0514 72.706 43.9084 72.16 43.8824 71.536L43.8694 71.107L43.8824 70.691C43.9084 70.067 44.0514 69.5253 44.3114 69.066C44.5801 68.598 44.9311 68.2383 45.3644 67.987C45.7978 67.7357 46.2874 67.61 46.8334 67.61C47.3188 67.61 47.7261 67.6967 48.0554 67.87C48.3934 68.0347 48.6578 68.2427 48.8484 68.494V65.621ZM48.8484 70.652C48.8224 70.0453 48.6404 69.573 48.3024 69.235C47.9644 68.897 47.5181 68.728 46.9634 68.728C46.4001 68.728 45.9494 68.91 45.6114 69.274C45.2821 69.638 45.1001 70.132 45.0654 70.756L45.0524 71.12L45.0654 71.484C45.1001 72.108 45.2821 72.602 45.6114 72.966C45.9494 73.33 46.4001 73.512 46.9634 73.512C47.5008 73.512 47.9428 73.3473 48.2894 73.018C48.6361 72.68 48.8224 72.2337 48.8484 71.679C48.8571 71.5923 48.8614 71.419 48.8614 71.159C48.8614 70.9077 48.8571 70.7387 48.8484 70.652ZM53.29 66.362C53.29 66.4573 53.2553 66.5397 53.186 66.609C53.1166 66.6783 53.0343 66.713 52.939 66.713H52.198C52.1026 66.713 52.0203 66.6783 51.951 66.609C51.8816 66.5397 51.847 66.4573 51.847 66.362V65.621C51.847 65.5257 51.8816 65.4433 51.951 65.374C52.0203 65.3047 52.1026 65.27 52.198 65.27H52.939C53.0343 65.27 53.1166 65.3047 53.186 65.374C53.2553 65.4433 53.29 65.5257 53.29 65.621V66.362ZM53.16 74.149C53.16 74.2443 53.1253 74.3267 53.056 74.396C52.9866 74.4653 52.9043 74.5 52.809 74.5H52.328C52.2326 74.5 52.1503 74.4653 52.081 74.396C52.0116 74.3267 51.977 74.2443 51.977 74.149V68.091C51.977 67.9957 52.0116 67.9133 52.081 67.844C52.1503 67.7747 52.2326 67.74 52.328 67.74H52.809C52.9043 67.74 52.9866 67.7747 53.056 67.844C53.1253 67.9133 53.16 67.9957 53.16 68.091V74.149ZM58.5447 67.74C58.64 67.74 58.7224 67.7747 58.7917 67.844C58.861 67.9133 58.8957 67.9957 58.8957 68.091V68.507C58.8957 68.6023 58.861 68.6847 58.7917 68.754C58.7224 68.8233 58.64 68.858 58.5447 68.858H57.7907C57.3054 68.858 56.9327 68.988 56.6727 69.248C56.4214 69.4993 56.2957 69.8677 56.2957 70.353V74.149C56.2957 74.2443 56.261 74.3267 56.1917 74.396C56.1224 74.4653 56.04 74.5 55.9447 74.5H55.4637C55.3684 74.5 55.286 74.4653 55.2167 74.396C55.1474 74.3267 55.1127 74.2443 55.1127 74.149V68.091C55.1127 67.9957 55.1474 67.9133 55.2167 67.844C55.286 67.7747 55.3684 67.74 55.4637 67.74H55.9447C56.04 67.74 56.1224 67.7747 56.1917 67.844C56.261 67.9133 56.2957 67.9957 56.2957 68.091V68.494C56.469 68.234 56.677 68.0433 56.9197 67.922C57.1624 67.8007 57.4787 67.74 57.8687 67.74H58.5447ZM62.6908 67.61C63.6181 67.61 64.3504 67.9047 64.8878 68.494C65.4251 69.0833 65.6938 69.885 65.6938 70.899V71.25C65.6938 71.3453 65.6591 71.4277 65.5898 71.497C65.5204 71.5663 65.4381 71.601 65.3428 71.601H60.8708V71.679C60.8881 72.251 61.0614 72.7017 61.3908 73.031C61.7288 73.3517 62.1621 73.512 62.6908 73.512C63.1241 73.512 63.4578 73.4557 63.6918 73.343C63.9344 73.2303 64.1511 73.07 64.3418 72.862C64.4111 72.7927 64.4718 72.745 64.5238 72.719C64.5844 72.693 64.6624 72.68 64.7578 72.68H65.1478C65.2518 72.68 65.3384 72.7147 65.4078 72.784C65.4771 72.8533 65.5074 72.9357 65.4988 73.031C65.4641 73.265 65.3341 73.5077 65.1088 73.759C64.8921 74.0017 64.5758 74.2097 64.1598 74.383C63.7524 74.5477 63.2628 74.63 62.6908 74.63C62.1361 74.63 61.6421 74.5043 61.2088 74.253C60.7754 73.993 60.4288 73.6377 60.1688 73.187C59.9174 72.7363 59.7658 72.2293 59.7138 71.666C59.6964 71.406 59.6878 71.2067 59.6878 71.068C59.6878 70.9293 59.6964 70.73 59.7138 70.47C59.7658 69.9327 59.9174 69.4473 60.1688 69.014C60.4288 68.5807 60.7711 68.2383 61.1958 67.987C61.6291 67.7357 62.1274 67.61 62.6908 67.61ZM64.5238 70.509V70.47C64.5238 69.9413 64.3548 69.521 64.0168 69.209C63.6874 68.8883 63.2454 68.728 62.6908 68.728C62.1881 68.728 61.7591 68.8883 61.4038 69.209C61.0571 69.5297 60.8794 69.95 60.8708 70.47V70.509H64.5238ZM69.9921 73.512C70.8588 73.512 71.4438 73.174 71.7471 72.498C71.8078 72.368 71.8684 72.277 71.9291 72.225C71.9898 72.173 72.0721 72.147 72.1761 72.147H72.5661C72.6614 72.147 72.7438 72.1817 72.8131 72.251C72.8824 72.3117 72.9171 72.3853 72.9171 72.472C72.9171 72.7667 72.8001 73.083 72.5661 73.421C72.3321 73.759 71.9941 74.045 71.5521 74.279C71.1101 74.513 70.5901 74.63 69.9921 74.63C69.3768 74.63 68.8438 74.5 68.3931 74.24C67.9424 73.98 67.5958 73.6247 67.3531 73.174C67.1104 72.7147 66.9761 72.2033 66.9501 71.64C66.9414 71.536 66.9371 71.3367 66.9371 71.042C66.9371 70.834 66.9414 70.6867 66.9501 70.6C67.0281 69.716 67.3271 68.9967 67.8471 68.442C68.3671 67.8873 69.0821 67.61 69.9921 67.61C70.5901 67.61 71.1058 67.727 71.5391 67.961C71.9811 68.1863 72.3148 68.468 72.5401 68.806C72.7741 69.1353 72.8998 69.4473 72.9171 69.742C72.9258 69.8373 72.8911 69.9197 72.8131 69.989C72.7438 70.0583 72.6614 70.093 72.5661 70.093H72.1761C72.0721 70.093 71.9898 70.067 71.9291 70.015C71.8684 69.963 71.8078 69.872 71.7471 69.742C71.4438 69.066 70.8588 68.728 69.9921 68.728C69.5154 68.728 69.0994 68.8883 68.7441 69.209C68.3888 69.5297 68.1851 70.015 68.1331 70.665C68.1244 70.7603 68.1201 70.9163 68.1201 71.133C68.1201 71.3323 68.1244 71.4797 68.1331 71.575C68.1938 72.225 68.3974 72.7103 68.7441 73.031C69.0994 73.3517 69.5154 73.512 69.9921 73.512ZM76.241 72.225C76.241 72.5977 76.3147 72.8837 76.462 73.083C76.618 73.2823 76.9084 73.382 77.333 73.382H78.022C78.1174 73.382 78.1997 73.4167 78.269 73.486C78.3384 73.5553 78.373 73.6377 78.373 73.733V74.149C78.373 74.2443 78.3384 74.3267 78.269 74.396C78.1997 74.4653 78.1174 74.5 78.022 74.5H77.203C76.4664 74.5 75.9247 74.3093 75.578 73.928C75.2314 73.538 75.058 72.9703 75.058 72.225V68.858H74.096C74.0007 68.858 73.9184 68.8233 73.849 68.754C73.7797 68.6847 73.745 68.6023 73.745 68.507V68.091C73.745 67.9957 73.7797 67.9133 73.849 67.844C73.9184 67.7747 74.0007 67.74 74.096 67.74H75.058V65.621C75.058 65.5257 75.0927 65.4433 75.162 65.374C75.2314 65.3047 75.3137 65.27 75.409 65.27H75.89C75.9854 65.27 76.0677 65.3047 76.137 65.374C76.2064 65.4433 76.241 65.5257 76.241 65.621V67.74H77.892C77.9874 67.74 78.0697 67.7747 78.139 67.844C78.2084 67.9133 78.243 67.9957 78.243 68.091V68.507C78.243 68.6023 78.2084 68.6847 78.139 68.754C78.0697 68.8233 77.9874 68.858 77.892 68.858H76.241V72.225ZM83.6951 70.223V70.054C83.6951 69.6293 83.5521 69.3043 83.2661 69.079C82.9888 68.845 82.6248 68.728 82.1741 68.728C81.8275 68.728 81.5545 68.7887 81.3551 68.91C81.1645 69.0227 80.9825 69.196 80.8091 69.43C80.7571 69.4993 80.7008 69.547 80.6401 69.573C80.5795 69.599 80.4971 69.612 80.3931 69.612H80.0031C79.9078 69.612 79.8211 69.5773 79.7431 69.508C79.6738 69.4387 79.6435 69.3563 79.6521 69.261C79.6781 69.001 79.8038 68.7453 80.0291 68.494C80.2631 68.234 80.5708 68.0217 80.9521 67.857C81.3335 67.6923 81.7408 67.61 82.1741 67.61C82.9801 67.61 83.6301 67.8353 84.1241 68.286C84.6268 68.7367 84.8781 69.3693 84.8781 70.184V74.149C84.8781 74.2443 84.8435 74.3267 84.7741 74.396C84.7048 74.4653 84.6225 74.5 84.5271 74.5H84.0461C83.9508 74.5 83.8685 74.4653 83.7991 74.396C83.7298 74.3267 83.6951 74.2443 83.6951 74.149V73.616C83.5565 73.928 83.2618 74.175 82.8111 74.357C82.3605 74.539 81.9098 74.63 81.4591 74.63C81.0171 74.63 80.6228 74.552 80.2761 74.396C79.9295 74.2313 79.6608 74.0103 79.4701 73.733C79.2881 73.4557 79.1971 73.1437 79.1971 72.797C79.1971 72.147 79.4398 71.64 79.9251 71.276C80.4105 70.9033 81.0561 70.652 81.8621 70.522L83.6951 70.223ZM83.6951 71.263L82.1611 71.51C81.5978 71.5967 81.1601 71.7397 80.8481 71.939C80.5361 72.1297 80.3801 72.3723 80.3801 72.667C80.3801 72.8837 80.4798 73.0787 80.6791 73.252C80.8785 73.4253 81.1818 73.512 81.5891 73.512C82.2131 73.512 82.7201 73.3343 83.1101 72.979C83.5001 72.6237 83.6951 72.16 83.6951 71.588V71.263Z" fill="#171B22"/>
<rect x="40" y="81.5" width="38" height="25" rx="12.5" fill="#F27430"/>
<path d="M57.1579 92.354C57.1766 92.6153 57.1859 93.0353 57.1859 93.614C57.1859 94.1833 57.1766 94.594 57.1579 94.846C57.0926 95.9567 56.7239 96.8667 56.0519 97.576C55.3892 98.2853 54.3952 98.64 53.0699 98.64C51.7446 98.64 50.7459 98.2853 50.0739 97.576C49.4112 96.8667 49.0472 95.9567 48.9819 94.846C48.9632 94.342 48.9539 93.9313 48.9539 93.614C48.9539 93.2967 48.9632 92.8767 48.9819 92.354C49.0472 91.2433 49.4112 90.3333 50.0739 89.624C50.7459 88.9147 51.7446 88.56 53.0699 88.56C54.3952 88.56 55.3892 88.9147 56.0519 89.624C56.7239 90.3333 57.0926 91.2433 57.1579 92.354ZM54.5679 92.424C54.5399 91.9107 54.4139 91.514 54.1899 91.234C53.9659 90.9447 53.5926 90.8 53.0699 90.8C52.5472 90.8 52.1739 90.9447 51.9499 91.234C51.7259 91.514 51.5999 91.9107 51.5719 92.424C51.5532 92.928 51.5439 93.3153 51.5439 93.586C51.5439 93.838 51.5532 94.2347 51.5719 94.776C51.5906 95.2893 51.7119 95.6907 51.9359 95.98C52.1692 96.26 52.5472 96.4 53.0699 96.4C53.5926 96.4 53.9659 96.26 54.1899 95.98C54.4232 95.6907 54.5492 95.2893 54.5679 94.776C54.5866 94.5053 54.5959 94.1087 54.5959 93.586C54.5959 93.0633 54.5866 92.676 54.5679 92.424ZM62.7646 91.682C62.7366 92.27 62.5359 92.7507 62.1626 93.124C61.7986 93.488 61.2666 93.67 60.5666 93.67C59.8666 93.67 59.3346 93.488 58.9706 93.124C58.6159 92.76 58.4152 92.2793 58.3686 91.682C58.3592 91.5607 58.3546 91.388 58.3546 91.164C58.3546 90.9307 58.3592 90.7487 58.3686 90.618C58.4152 90.0207 58.6159 89.54 58.9706 89.176C59.3346 88.812 59.8666 88.63 60.5666 88.63C61.2666 88.63 61.7939 88.812 62.1486 89.176C62.5126 89.54 62.7179 90.0207 62.7646 90.618C62.7832 90.8793 62.7926 91.0613 62.7926 91.164C62.7926 91.2667 62.7832 91.4393 62.7646 91.682ZM66.2646 88.966C66.3392 88.8727 66.4092 88.8073 66.4746 88.77C66.5492 88.7233 66.6472 88.7 66.7686 88.7H67.9166C68.0192 88.7 68.0986 88.728 68.1546 88.784C68.2199 88.8307 68.2526 88.896 68.2526 88.98C68.2526 89.036 68.2339 89.0873 68.1966 89.134L61.2806 98.234C61.2059 98.3273 61.1312 98.3973 61.0566 98.444C60.9912 98.4813 60.8979 98.5 60.7766 98.5H59.6286C59.5259 98.5 59.4419 98.4767 59.3766 98.43C59.3206 98.374 59.2926 98.304 59.2926 98.22C59.2926 98.164 59.3112 98.1127 59.3486 98.066L66.2646 88.966ZM60.5666 92.34C60.7626 92.34 60.9026 92.284 60.9866 92.172C61.0706 92.06 61.1219 91.8733 61.1406 91.612C61.1592 91.388 61.1686 91.234 61.1686 91.15C61.1686 91.0473 61.1592 90.8933 61.1406 90.688C61.1219 90.4267 61.0706 90.24 60.9866 90.128C60.9026 90.016 60.7626 89.96 60.5666 89.96C60.3706 89.96 60.2306 90.016 60.1466 90.128C60.0626 90.24 60.0112 90.4267 59.9926 90.688C59.9832 90.7907 59.9786 90.9447 59.9786 91.15C59.9786 91.346 59.9832 91.5 59.9926 91.612C60.0112 91.8733 60.0626 92.06 60.1466 92.172C60.2306 92.284 60.3706 92.34 60.5666 92.34ZM69.2606 96.582C69.2326 97.17 69.0319 97.6507 68.6586 98.024C68.2946 98.388 67.7626 98.57 67.0626 98.57C66.3626 98.57 65.8306 98.388 65.4666 98.024C65.1119 97.66 64.9112 97.1793 64.8646 96.582C64.8552 96.4607 64.8506 96.288 64.8506 96.064C64.8506 95.8307 64.8552 95.6487 64.8646 95.518C64.9112 94.9207 65.1119 94.44 65.4666 94.076C65.8306 93.712 66.3626 93.53 67.0626 93.53C67.7626 93.53 68.2899 93.712 68.6446 94.076C69.0086 94.44 69.2139 94.9207 69.2606 95.518C69.2792 95.7793 69.2886 95.9613 69.2886 96.064C69.2886 96.1667 69.2792 96.3393 69.2606 96.582ZM67.0626 97.24C67.2586 97.24 67.3986 97.184 67.4826 97.072C67.5666 96.96 67.6179 96.7733 67.6366 96.512C67.6552 96.288 67.6646 96.134 67.6646 96.05C67.6646 95.9473 67.6552 95.7933 67.6366 95.588C67.6179 95.3267 67.5666 95.14 67.4826 95.028C67.3986 94.916 67.2586 94.86 67.0626 94.86C66.8666 94.86 66.7266 94.916 66.6426 95.028C66.5586 95.14 66.5072 95.3267 66.4886 95.588C66.4792 95.6907 66.4746 95.8447 66.4746 96.05C66.4746 96.246 66.4792 96.4 66.4886 96.512C66.5072 96.7733 66.5586 96.96 66.6426 97.072C66.7266 97.184 66.8666 97.24 67.0626 97.24Z" fill="white"/>
<g filter="url(#filter0_d_34392_40187)">
<rect x="88" y="14" width="32" height="32" rx="16" fill="white"/>
<rect x="87" y="13" width="34" height="34" rx="17" stroke="#1DA534" stroke-width="2"/>
<path opacity="0.4" d="M104 40C109.523 40 114 35.5228 114 30C114 24.4772 109.523 20 104 20C98.4772 20 94 24.4772 94 30C94 35.5228 98.4772 40 104 40Z" fill="#1DA534"/>
<path d="M102.579 33.5801C102.379 33.5801 102.189 33.5001 102.049 33.3601L99.2195 30.5301C98.9295 30.2401 98.9295 29.7601 99.2195 29.4701C99.5095 29.1801 99.9895 29.1801 100.279 29.4701L102.579 31.7701L107.719 26.6301C108.009 26.3401 108.489 26.3401 108.779 26.6301C109.069 26.9201 109.069 27.4001 108.779 27.6901L103.109 33.3601C102.969 33.5001 102.779 33.5801 102.579 33.5801Z" fill="#1DA534"/>
</g>
<defs>
<filter id="filter0_d_34392_40187" x="71" y="5" width="66" height="66" filterUnits="userSpaceOnUse" color-interpolation-filters="sRGB">
<feFlood flood-opacity="0" result="BackgroundImageFix"/>
<feColorMatrix in="SourceAlpha" type="matrix" values="0 0 0 0 0 0 0 0 0 0 0 0 0 0 0 0 0 0 127 0" result="hardAlpha"/>
<feOffset dy="8"/>
<feGaussianBlur stdDeviation="7.5"/>
<feColorMatrix type="matrix" values="0 0 0 0 0 0 0 0 0 0 0 0 0 0 0 0 0 0 0.25 0"/>
<feBlend mode="normal" in2="BackgroundImageFix" result="effect1_dropShadow_34392_40187"/>
<feBlend mode="normal" in="SourceGraphic" in2="effect1_dropShadow_34392_40187" result="shape"/>
</filter>
</defs>
</svg>
