<svg width="137" height="118" viewBox="0 0 137 118" fill="none" xmlns="http://www.w3.org/2000/svg">
<rect x="2" y="2" width="114" height="114" rx="57" fill="#FFFAE6"/>
<rect x="2" y="2" width="114" height="114" rx="57" stroke="#FFD333" stroke-width="4"/>
<g clip-path="url(#clip0_34428_7947)">
<mask id="mask0_34428_7947" style="mask-type:luminance" maskUnits="userSpaceOnUse" x="43" y="19" width="32" height="32">
<path d="M75 19H43V51H75V19Z" fill="white"/>
</mask>
<g mask="url(#mask0_34428_7947)">
<path opacity="0.4" d="M53.6667 48.3332H64.3333C68.0133 48.3332 71 45.3465 71 41.6665V28.3332C71 24.6532 68.0133 21.6665 64.3333 21.6665H53.6667C49.9867 21.6665 47 24.6532 47 28.3332V41.6665C47 45.3465 49.9867 48.3332 53.6667 48.3332Z" fill="#E8B600"/>
<path d="M63.0008 26.6143H55.0008C53.6275 26.6143 52.4941 27.7343 52.4941 29.1209V30.4543C52.4941 31.8276 53.6141 32.9609 55.0008 32.9609H63.0008C64.3741 32.9609 65.5074 31.8409 65.5074 30.4543V29.1209C65.5074 27.7343 64.3874 26.6143 63.0008 26.6143Z" fill="#E8B600"/>
<path d="M53.8799 38.8944C53.6932 38.8944 53.5199 38.8544 53.3599 38.7877C53.1999 38.7211 53.0532 38.6277 52.9332 38.5077C52.6799 38.2544 52.5332 37.9211 52.5332 37.5611C52.5332 37.3877 52.5732 37.2144 52.6399 37.0544C52.7065 36.8811 52.7999 36.7477 52.9332 36.6144C53.2399 36.3077 53.7065 36.1611 54.1332 36.2544C54.2132 36.2677 54.3065 36.2944 54.3865 36.3344C54.4665 36.3611 54.5465 36.4011 54.6132 36.4544C54.6932 36.4944 54.7599 36.5611 54.8132 36.6144C54.9332 36.7477 55.0399 36.8811 55.1065 37.0544C55.1732 37.2144 55.1999 37.3877 55.1999 37.5611C55.1999 37.9211 55.0665 38.2544 54.8132 38.5077C54.5599 38.7611 54.2265 38.8944 53.8799 38.8944Z" fill="#E8B600"/>
<path d="M59.2005 38.8922C58.8539 38.8922 58.5205 38.7589 58.2672 38.5055C58.0139 38.2522 57.8672 37.9189 57.8672 37.5589C57.8672 37.2122 58.0139 36.8655 58.2672 36.6122C58.7605 36.1189 59.6539 36.1189 60.1472 36.6122C60.2672 36.7455 60.3739 36.8789 60.4405 37.0522C60.5072 37.2122 60.5339 37.3855 60.5339 37.5589C60.5339 37.9189 60.4005 38.2522 60.1472 38.5055C59.8939 38.7589 59.5605 38.8922 59.2005 38.8922Z" fill="#E8B600"/>
<path d="M64.5326 38.8922C64.1859 38.8922 63.8526 38.7589 63.5992 38.5055C63.3459 38.2522 63.1992 37.9189 63.1992 37.5589C63.1992 37.2122 63.3459 36.8655 63.5992 36.6122C64.0926 36.1189 64.9859 36.1189 65.4792 36.6122C65.7326 36.8655 65.8792 37.2122 65.8792 37.5589C65.8792 37.7322 65.8392 37.9055 65.7726 38.0655C65.7059 38.2255 65.6126 38.3722 65.4792 38.5055C65.2259 38.7589 64.8926 38.8922 64.5326 38.8922Z" fill="#E8B600"/>
<path d="M53.8799 44.2274C53.5199 44.2274 53.1865 44.0941 52.9332 43.8407C52.6799 43.5874 52.5332 43.254 52.5332 42.894C52.5332 42.5474 52.6799 42.2007 52.9332 41.9474C53.0532 41.8274 53.1999 41.734 53.3599 41.6674C53.6932 41.534 54.0532 41.534 54.3865 41.6674C54.4665 41.694 54.5465 41.734 54.6132 41.7874C54.6932 41.8274 54.7599 41.8941 54.8132 41.9474C55.0665 42.2007 55.2132 42.5474 55.2132 42.894C55.2132 43.254 55.0665 43.5874 54.8132 43.8407C54.5599 44.0941 54.2265 44.2274 53.8799 44.2274Z" fill="#E8B600"/>
<path d="M59.2005 44.2266C58.8539 44.2266 58.5205 44.0933 58.2672 43.84C58.0139 43.5866 57.8672 43.2533 57.8672 42.8933C57.8672 42.8 57.8805 42.72 57.8939 42.6266C57.9205 42.5466 57.9472 42.4666 57.9739 42.3866C58.0139 42.3066 58.0539 42.2266 58.0939 42.1466C58.1472 42.08 58.2005 42.0133 58.2672 41.9466C58.3872 41.8266 58.5339 41.7333 58.6939 41.6666C59.1872 41.4666 59.7739 41.5733 60.1472 41.9466C60.4005 42.2 60.5339 42.5466 60.5339 42.8933C60.5339 43.2533 60.4005 43.5866 60.1472 43.84C60.0272 43.96 59.8805 44.0533 59.7205 44.12C59.5605 44.1866 59.3872 44.2266 59.2005 44.2266Z" fill="#E8B600"/>
<path d="M64.5329 44.2266C64.3596 44.2266 64.1862 44.1866 64.0262 44.12C63.8662 44.0533 63.7196 43.96 63.5996 43.84C63.3462 43.5866 63.2129 43.2533 63.2129 42.8933C63.2129 42.5466 63.3462 42.2 63.5996 41.9466C63.9596 41.5733 64.5596 41.4666 65.0529 41.6666C65.2129 41.7333 65.3596 41.8266 65.4796 41.9466C65.7329 42.2 65.8662 42.5466 65.8662 42.8933C65.8662 43.2533 65.7329 43.5866 65.4796 43.84C65.2262 44.0933 64.8929 44.2266 64.5329 44.2266Z" fill="#E8B600"/>
</g>
</g>
<path d="M38.7096 57.9C38.8049 57.9 38.8873 57.9347 38.9566 58.004C39.0259 58.0733 39.0606 58.1557 39.0606 58.251V58.719C39.0606 58.8143 39.0259 58.8967 38.9566 58.966C38.8873 59.0353 38.8049 59.07 38.7096 59.07H34.4326V62.073H38.4496C38.5449 62.073 38.6273 62.1077 38.6966 62.177C38.7659 62.2463 38.8006 62.3287 38.8006 62.424V62.892C38.8006 62.9873 38.7659 63.0697 38.6966 63.139C38.6273 63.2083 38.5449 63.243 38.4496 63.243H34.4326V66.649C34.4326 66.7443 34.3979 66.8267 34.3286 66.896C34.2593 66.9653 34.1769 67 34.0816 67H33.5486C33.4533 67 33.3709 66.9653 33.3016 66.896C33.2323 66.8267 33.1976 66.7443 33.1976 66.649V58.251C33.1976 58.1557 33.2323 58.0733 33.3016 58.004C33.3709 57.9347 33.4533 57.9 33.5486 57.9H38.7096ZM41.8705 58.862C41.8705 58.9573 41.8359 59.0397 41.7665 59.109C41.6972 59.1783 41.6149 59.213 41.5195 59.213H40.7785C40.6832 59.213 40.6009 59.1783 40.5315 59.109C40.4622 59.0397 40.4275 58.9573 40.4275 58.862V58.121C40.4275 58.0257 40.4622 57.9433 40.5315 57.874C40.6009 57.8047 40.6832 57.77 40.7785 57.77H41.5195C41.6149 57.77 41.6972 57.8047 41.7665 57.874C41.8359 57.9433 41.8705 58.0257 41.8705 58.121V58.862ZM41.7405 66.649C41.7405 66.7443 41.7059 66.8267 41.6365 66.896C41.5672 66.9653 41.4849 67 41.3895 67H40.9085C40.8132 67 40.7309 66.9653 40.6615 66.896C40.5922 66.8267 40.5575 66.7443 40.5575 66.649V60.591C40.5575 60.4957 40.5922 60.4133 40.6615 60.344C40.7309 60.2747 40.8132 60.24 40.9085 60.24H41.3895C41.4849 60.24 41.5672 60.2747 41.6365 60.344C41.7059 60.4133 41.7405 60.4957 41.7405 60.591V66.649ZM49.6993 66.649C49.6993 66.7443 49.6646 66.8267 49.5953 66.896C49.5259 66.9653 49.4436 67 49.3483 67H48.8673C48.7719 67 48.6896 66.9653 48.6203 66.896C48.5509 66.8267 48.5163 66.7443 48.5163 66.649V63.217C48.5163 62.567 48.3559 62.073 48.0353 61.735C47.7146 61.397 47.2683 61.228 46.6963 61.228C46.1329 61.228 45.6866 61.397 45.3573 61.735C45.0366 62.073 44.8763 62.567 44.8763 63.217V66.649C44.8763 66.7443 44.8416 66.8267 44.7723 66.896C44.7029 66.9653 44.6206 67 44.5253 67H44.0443C43.9489 67 43.8666 66.9653 43.7973 66.896C43.7279 66.8267 43.6933 66.7443 43.6933 66.649V60.591C43.6933 60.4957 43.7279 60.4133 43.7973 60.344C43.8666 60.2747 43.9489 60.24 44.0443 60.24H44.5253C44.6206 60.24 44.7029 60.2747 44.7723 60.344C44.8416 60.4133 44.8763 60.4957 44.8763 60.591V60.994C45.0669 60.7427 45.3269 60.5347 45.6563 60.37C45.9943 60.1967 46.4059 60.11 46.8913 60.11C47.4373 60.11 47.9226 60.227 48.3473 60.461C48.7719 60.695 49.1013 61.033 49.3353 61.475C49.5779 61.9083 49.6993 62.424 49.6993 63.022V66.649ZM55.6067 62.723V62.554C55.6067 62.1293 55.4637 61.8043 55.1777 61.579C54.9004 61.345 54.5364 61.228 54.0857 61.228C53.7391 61.228 53.4661 61.2887 53.2667 61.41C53.0761 61.5227 52.8941 61.696 52.7207 61.93C52.6687 61.9993 52.6124 62.047 52.5517 62.073C52.4911 62.099 52.4087 62.112 52.3047 62.112H51.9147C51.8194 62.112 51.7327 62.0773 51.6547 62.008C51.5854 61.9387 51.5551 61.8563 51.5637 61.761C51.5897 61.501 51.7154 61.2453 51.9407 60.994C52.1747 60.734 52.4824 60.5217 52.8637 60.357C53.2451 60.1923 53.6524 60.11 54.0857 60.11C54.8917 60.11 55.5417 60.3353 56.0357 60.786C56.5384 61.2367 56.7897 61.8693 56.7897 62.684V66.649C56.7897 66.7443 56.7551 66.8267 56.6857 66.896C56.6164 66.9653 56.5341 67 56.4387 67H55.9577C55.8624 67 55.7801 66.9653 55.7107 66.896C55.6414 66.8267 55.6067 66.7443 55.6067 66.649V66.116C55.4681 66.428 55.1734 66.675 54.7227 66.857C54.2721 67.039 53.8214 67.13 53.3707 67.13C52.9287 67.13 52.5344 67.052 52.1877 66.896C51.8411 66.7313 51.5724 66.5103 51.3817 66.233C51.1997 65.9557 51.1087 65.6437 51.1087 65.297C51.1087 64.647 51.3514 64.14 51.8367 63.776C52.3221 63.4033 52.9677 63.152 53.7737 63.022L55.6067 62.723ZM55.6067 63.763L54.0727 64.01C53.5094 64.0967 53.0717 64.2397 52.7597 64.439C52.4477 64.6297 52.2917 64.8723 52.2917 65.167C52.2917 65.3837 52.3914 65.5787 52.5907 65.752C52.7901 65.9253 53.0934 66.012 53.5007 66.012C54.1247 66.012 54.6317 65.8343 55.0217 65.479C55.4117 65.1237 55.6067 64.66 55.6067 64.088V63.763ZM64.6924 66.649C64.6924 66.7443 64.6578 66.8267 64.5884 66.896C64.5191 66.9653 64.4368 67 64.3414 67H63.8604C63.7651 67 63.6828 66.9653 63.6134 66.896C63.5441 66.8267 63.5094 66.7443 63.5094 66.649V63.217C63.5094 62.567 63.3491 62.073 63.0284 61.735C62.7078 61.397 62.2614 61.228 61.6894 61.228C61.1261 61.228 60.6798 61.397 60.3504 61.735C60.0298 62.073 59.8694 62.567 59.8694 63.217V66.649C59.8694 66.7443 59.8348 66.8267 59.7654 66.896C59.6961 66.9653 59.6138 67 59.5184 67H59.0374C58.9421 67 58.8598 66.9653 58.7904 66.896C58.7211 66.8267 58.6864 66.7443 58.6864 66.649V60.591C58.6864 60.4957 58.7211 60.4133 58.7904 60.344C58.8598 60.2747 58.9421 60.24 59.0374 60.24H59.5184C59.6138 60.24 59.6961 60.2747 59.7654 60.344C59.8348 60.4133 59.8694 60.4957 59.8694 60.591V60.994C60.0601 60.7427 60.3201 60.5347 60.6494 60.37C60.9874 60.1967 61.3991 60.11 61.8844 60.11C62.4304 60.11 62.9158 60.227 63.3404 60.461C63.7651 60.695 64.0944 61.033 64.3284 61.475C64.5711 61.9083 64.6924 62.424 64.6924 63.022V66.649ZM71.4189 65.882C71.5142 65.882 71.5966 65.9167 71.6659 65.986C71.7352 66.0553 71.7699 66.1377 71.7699 66.233V66.649C71.7699 66.7443 71.7352 66.8267 71.6659 66.896C71.5966 66.9653 71.5142 67 71.4189 67H66.5049C66.4096 67 66.3272 66.9653 66.2579 66.896C66.1886 66.8267 66.1539 66.7443 66.1539 66.649V66.142C66.1539 66.038 66.2146 65.9123 66.3359 65.765L69.9109 61.358H66.6349C66.5396 61.358 66.4572 61.3233 66.3879 61.254C66.3186 61.1847 66.2839 61.1023 66.2839 61.007V60.591C66.2839 60.4957 66.3186 60.4133 66.3879 60.344C66.4572 60.2747 66.5396 60.24 66.6349 60.24H71.1589C71.2542 60.24 71.3366 60.2747 71.4059 60.344C71.4752 60.4133 71.5099 60.4957 71.5099 60.591V61.098C71.5099 61.1847 71.4839 61.2627 71.4319 61.332C71.3799 61.4013 71.3452 61.449 71.3279 61.475L67.7269 65.882H71.4189ZM77.2396 62.723V62.554C77.2396 62.1293 77.0966 61.8043 76.8106 61.579C76.5332 61.345 76.1692 61.228 75.7186 61.228C75.3719 61.228 75.0989 61.2887 74.8996 61.41C74.7089 61.5227 74.5269 61.696 74.3536 61.93C74.3016 61.9993 74.2452 62.047 74.1846 62.073C74.1239 62.099 74.0416 62.112 73.9376 62.112H73.5476C73.4522 62.112 73.3656 62.0773 73.2876 62.008C73.2182 61.9387 73.1879 61.8563 73.1966 61.761C73.2226 61.501 73.3482 61.2453 73.5736 60.994C73.8076 60.734 74.1152 60.5217 74.4966 60.357C74.8779 60.1923 75.2852 60.11 75.7186 60.11C76.5246 60.11 77.1746 60.3353 77.6686 60.786C78.1712 61.2367 78.4226 61.8693 78.4226 62.684V66.649C78.4226 66.7443 78.3879 66.8267 78.3186 66.896C78.2492 66.9653 78.1669 67 78.0716 67H77.5906C77.4952 67 77.4129 66.9653 77.3436 66.896C77.2742 66.8267 77.2396 66.7443 77.2396 66.649V66.116C77.1009 66.428 76.8062 66.675 76.3556 66.857C75.9049 67.039 75.4542 67.13 75.0036 67.13C74.5616 67.13 74.1672 67.052 73.8206 66.896C73.4739 66.7313 73.2052 66.5103 73.0146 66.233C72.8326 65.9557 72.7416 65.6437 72.7416 65.297C72.7416 64.647 72.9842 64.14 73.4696 63.776C73.9549 63.4033 74.6006 63.152 75.4066 63.022L77.2396 62.723ZM77.2396 63.763L75.7056 64.01C75.1422 64.0967 74.7046 64.2397 74.3926 64.439C74.0806 64.6297 73.9246 64.8723 73.9246 65.167C73.9246 65.3837 74.0242 65.5787 74.2236 65.752C74.4229 65.9253 74.7262 66.012 75.1336 66.012C75.7576 66.012 76.2646 65.8343 76.6546 65.479C77.0446 65.1237 77.2396 64.66 77.2396 64.088V63.763ZM81.9442 63.997C80.6789 63.7283 80.0462 63.0827 80.0462 62.06C80.0462 61.7047 80.1416 61.3797 80.3322 61.085C80.5229 60.7903 80.8046 60.5563 81.1772 60.383C81.5586 60.201 82.0222 60.11 82.5682 60.11C83.1056 60.11 83.5692 60.188 83.9592 60.344C84.3492 60.5 84.6439 60.695 84.8432 60.929C85.0512 61.163 85.1552 61.3883 85.1552 61.605C85.1552 61.6917 85.1206 61.7697 85.0512 61.839C84.9819 61.8997 84.8996 61.93 84.8042 61.93H84.3752C84.2106 61.93 84.0806 61.8693 83.9852 61.748C83.7166 61.4013 83.2442 61.228 82.5682 61.228C82.1696 61.228 81.8446 61.3017 81.5932 61.449C81.3506 61.5963 81.2292 61.8 81.2292 62.06C81.2292 62.2767 81.2899 62.4413 81.4112 62.554C81.5326 62.6667 81.7146 62.7577 81.9572 62.827C82.1999 62.8963 82.6289 63.0003 83.2442 63.139C84.0069 63.3037 84.5486 63.555 84.8692 63.893C85.1899 64.231 85.3502 64.6427 85.3502 65.128C85.3502 65.4833 85.2376 65.8127 85.0122 66.116C84.7956 66.4193 84.4792 66.6663 84.0632 66.857C83.6559 67.039 83.1792 67.13 82.6332 67.13C82.0959 67.13 81.6192 67.0477 81.2032 66.883C80.7959 66.7097 80.4796 66.5017 80.2542 66.259C80.0289 66.0163 79.9162 65.7867 79.9162 65.57C79.9162 65.4833 79.9509 65.4097 80.0202 65.349C80.0896 65.2797 80.1719 65.245 80.2672 65.245H80.7352C80.8132 65.245 80.8826 65.2537 80.9432 65.271C81.0039 65.2883 81.0602 65.336 81.1122 65.414C81.3982 65.8127 81.9052 66.012 82.6332 66.012C83.0406 66.012 83.3959 65.9297 83.6992 65.765C84.0112 65.5917 84.1672 65.3793 84.1672 65.128C84.1672 64.92 84.0892 64.7553 83.9332 64.634C83.7859 64.504 83.5692 64.4 83.2832 64.322C82.9972 64.2353 82.5509 64.127 81.9442 63.997Z" fill="#171B22"/>
<rect x="40" y="74" width="38" height="25" rx="12.5" fill="#E8B600"/>
<path d="M57.1579 84.854C57.1766 85.1153 57.1859 85.5353 57.1859 86.114C57.1859 86.6833 57.1766 87.094 57.1579 87.346C57.0926 88.4567 56.7239 89.3667 56.0519 90.076C55.3892 90.7853 54.3952 91.14 53.0699 91.14C51.7446 91.14 50.7459 90.7853 50.0739 90.076C49.4112 89.3667 49.0472 88.4567 48.9819 87.346C48.9632 86.842 48.9539 86.4313 48.9539 86.114C48.9539 85.7967 48.9632 85.3767 48.9819 84.854C49.0472 83.7433 49.4112 82.8333 50.0739 82.124C50.7459 81.4147 51.7446 81.06 53.0699 81.06C54.3952 81.06 55.3892 81.4147 56.0519 82.124C56.7239 82.8333 57.0926 83.7433 57.1579 84.854ZM54.5679 84.924C54.5399 84.4107 54.4139 84.014 54.1899 83.734C53.9659 83.4447 53.5926 83.3 53.0699 83.3C52.5472 83.3 52.1739 83.4447 51.9499 83.734C51.7259 84.014 51.5999 84.4107 51.5719 84.924C51.5532 85.428 51.5439 85.8153 51.5439 86.086C51.5439 86.338 51.5532 86.7347 51.5719 87.276C51.5906 87.7893 51.7119 88.1907 51.9359 88.48C52.1692 88.76 52.5472 88.9 53.0699 88.9C53.5926 88.9 53.9659 88.76 54.1899 88.48C54.4232 88.1907 54.5492 87.7893 54.5679 87.276C54.5866 87.0053 54.5959 86.6087 54.5959 86.086C54.5959 85.5633 54.5866 85.176 54.5679 84.924ZM62.7646 84.182C62.7366 84.77 62.5359 85.2507 62.1626 85.624C61.7986 85.988 61.2666 86.17 60.5666 86.17C59.8666 86.17 59.3346 85.988 58.9706 85.624C58.6159 85.26 58.4152 84.7793 58.3686 84.182C58.3592 84.0607 58.3546 83.888 58.3546 83.664C58.3546 83.4307 58.3592 83.2487 58.3686 83.118C58.4152 82.5207 58.6159 82.04 58.9706 81.676C59.3346 81.312 59.8666 81.13 60.5666 81.13C61.2666 81.13 61.7939 81.312 62.1486 81.676C62.5126 82.04 62.7179 82.5207 62.7646 83.118C62.7832 83.3793 62.7926 83.5613 62.7926 83.664C62.7926 83.7667 62.7832 83.9393 62.7646 84.182ZM66.2646 81.466C66.3392 81.3727 66.4092 81.3073 66.4746 81.27C66.5492 81.2233 66.6472 81.2 66.7686 81.2H67.9166C68.0192 81.2 68.0986 81.228 68.1546 81.284C68.2199 81.3307 68.2526 81.396 68.2526 81.48C68.2526 81.536 68.2339 81.5873 68.1966 81.634L61.2806 90.734C61.2059 90.8273 61.1312 90.8973 61.0566 90.944C60.9912 90.9813 60.8979 91 60.7766 91H59.6286C59.5259 91 59.4419 90.9767 59.3766 90.93C59.3206 90.874 59.2926 90.804 59.2926 90.72C59.2926 90.664 59.3112 90.6127 59.3486 90.566L66.2646 81.466ZM60.5666 84.84C60.7626 84.84 60.9026 84.784 60.9866 84.672C61.0706 84.56 61.1219 84.3733 61.1406 84.112C61.1592 83.888 61.1686 83.734 61.1686 83.65C61.1686 83.5473 61.1592 83.3933 61.1406 83.188C61.1219 82.9267 61.0706 82.74 60.9866 82.628C60.9026 82.516 60.7626 82.46 60.5666 82.46C60.3706 82.46 60.2306 82.516 60.1466 82.628C60.0626 82.74 60.0112 82.9267 59.9926 83.188C59.9832 83.2907 59.9786 83.4447 59.9786 83.65C59.9786 83.846 59.9832 84 59.9926 84.112C60.0112 84.3733 60.0626 84.56 60.1466 84.672C60.2306 84.784 60.3706 84.84 60.5666 84.84ZM69.2606 89.082C69.2326 89.67 69.0319 90.1507 68.6586 90.524C68.2946 90.888 67.7626 91.07 67.0626 91.07C66.3626 91.07 65.8306 90.888 65.4666 90.524C65.1119 90.16 64.9112 89.6793 64.8646 89.082C64.8552 88.9607 64.8506 88.788 64.8506 88.564C64.8506 88.3307 64.8552 88.1487 64.8646 88.018C64.9112 87.4207 65.1119 86.94 65.4666 86.576C65.8306 86.212 66.3626 86.03 67.0626 86.03C67.7626 86.03 68.2899 86.212 68.6446 86.576C69.0086 86.94 69.2139 87.4207 69.2606 88.018C69.2792 88.2793 69.2886 88.4613 69.2886 88.564C69.2886 88.6667 69.2792 88.8393 69.2606 89.082ZM67.0626 89.74C67.2586 89.74 67.3986 89.684 67.4826 89.572C67.5666 89.46 67.6179 89.2733 67.6366 89.012C67.6552 88.788 67.6646 88.634 67.6646 88.55C67.6646 88.4473 67.6552 88.2933 67.6366 88.088C67.6179 87.8267 67.5666 87.64 67.4826 87.528C67.3986 87.416 67.2586 87.36 67.0626 87.36C66.8666 87.36 66.7266 87.416 66.6426 87.528C66.5586 87.64 66.5072 87.8267 66.4886 88.088C66.4792 88.1907 66.4746 88.3447 66.4746 88.55C66.4746 88.746 66.4792 88.9 66.4886 89.012C66.5072 89.2733 66.5586 89.46 66.6426 89.572C66.7266 89.684 66.8666 89.74 67.0626 89.74Z" fill="white"/>
<g filter="url(#filter0_d_34428_7947)">
<rect x="88" y="14" width="32" height="32" rx="16" fill="white"/>
<rect x="87" y="13" width="34" height="34" rx="17" stroke="#1DA534" stroke-width="2"/>
<path opacity="0.4" d="M104 40C109.523 40 114 35.5228 114 30C114 24.4772 109.523 20 104 20C98.4772 20 94 24.4772 94 30C94 35.5228 98.4772 40 104 40Z" fill="#1DA534"/>
<path d="M102.579 33.5801C102.379 33.5801 102.189 33.5001 102.049 33.3601L99.2195 30.5301C98.9295 30.2401 98.9295 29.7601 99.2195 29.4701C99.5095 29.1801 99.9895 29.1801 100.279 29.4701L102.579 31.7701L107.719 26.6301C108.009 26.3401 108.489 26.3401 108.779 26.6301C109.069 26.9201 109.069 27.4001 108.779 27.6901L103.109 33.3601C102.969 33.5001 102.779 33.5801 102.579 33.5801Z" fill="#1DA534"/>
</g>
<defs>
<filter id="filter0_d_34428_7947" x="71" y="5" width="66" height="66" filterUnits="userSpaceOnUse" color-interpolation-filters="sRGB">
<feFlood flood-opacity="0" result="BackgroundImageFix"/>
<feColorMatrix in="SourceAlpha" type="matrix" values="0 0 0 0 0 0 0 0 0 0 0 0 0 0 0 0 0 0 127 0" result="hardAlpha"/>
<feOffset dy="8"/>
<feGaussianBlur stdDeviation="7.5"/>
<feColorMatrix type="matrix" values="0 0 0 0 0 0 0 0 0 0 0 0 0 0 0 0 0 0 0.25 0"/>
<feBlend mode="normal" in2="BackgroundImageFix" result="effect1_dropShadow_34428_7947"/>
<feBlend mode="normal" in="SourceGraphic" in2="effect1_dropShadow_34428_7947" result="shape"/>
</filter>
<clipPath id="clip0_34428_7947">
<rect width="32" height="32" fill="white" transform="translate(43 19)"/>
</clipPath>
</defs>
</svg>
