<svg width="137" height="118" viewBox="0 0 137 118" fill="none" xmlns="http://www.w3.org/2000/svg">
<rect x="2" y="2" width="114" height="114" rx="57" fill="#FFFAE6"/>
<rect x="2" y="2" width="114" height="114" rx="57" stroke="#FFD333" stroke-width="4"/>
<path opacity="0.4" d="M58.9993 48.1999C66.3631 48.1999 72.3327 42.2303 72.3327 34.8665C72.3327 27.5027 66.3631 21.5332 58.9993 21.5332C51.6356 21.5332 45.666 27.5027 45.666 34.8665C45.666 42.2303 51.6356 48.1999 58.9993 48.1999Z" fill="#E8B600"/>
<path d="M62.0135 35L60.0002 34.2933V29.7733H60.4802C61.5602 29.7733 62.4402 30.72 62.4402 31.88C62.4402 32.4267 62.8935 32.88 63.4402 32.88C63.9869 32.88 64.4402 32.4267 64.4402 31.88C64.4402 29.6133 62.6669 27.7733 60.4802 27.7733H60.0002V27C60.0002 26.4533 59.5469 26 59.0002 26C58.4535 26 58.0002 26.4533 58.0002 27V27.7733H57.1335C55.1602 27.7733 53.5469 29.44 53.5469 31.48C53.5469 33.8667 54.9335 34.6267 55.9869 35L58.0002 35.7067V40.2133H57.5202C56.4402 40.2133 55.5602 39.2667 55.5602 38.1067C55.5602 37.56 55.1069 37.1067 54.5602 37.1067C54.0135 37.1067 53.5602 37.56 53.5602 38.1067C53.5602 40.3733 55.3335 42.2133 57.5202 42.2133H58.0002V43C58.0002 43.5467 58.4535 44 59.0002 44C59.5469 44 60.0002 43.5467 60.0002 43V42.2267H60.8669C62.8402 42.2267 64.4535 40.56 64.4535 38.52C64.4402 36.12 63.0535 35.36 62.0135 35ZM56.6535 33.12C55.9735 32.88 55.5602 32.6533 55.5602 31.4933C55.5602 30.5467 56.2669 29.7867 57.1469 29.7867H58.0135V33.6L56.6535 33.12ZM60.8669 40.2267H60.0002V36.4133L61.3469 36.88C62.0269 37.12 62.4402 37.3467 62.4402 38.5067C62.4402 39.4533 61.7335 40.2267 60.8669 40.2267Z" fill="#E8B600"/>
<path d="M30.596 67C30.5007 67 30.427 66.974 30.375 66.922C30.323 66.8613 30.297 66.7877 30.297 66.701V58.212C30.297 58.1167 30.323 58.043 30.375 57.991C30.427 57.9303 30.5007 57.9 30.596 57.9H35.965C36.0603 57.9 36.134 57.9303 36.186 57.991C36.238 58.043 36.264 58.1167 36.264 58.212V58.706C36.264 58.8013 36.238 58.875 36.186 58.927C36.134 58.979 36.0603 59.005 35.965 59.005H31.545V61.852H35.679C35.7743 61.852 35.848 61.8823 35.9 61.943C35.952 61.995 35.978 62.0687 35.978 62.164V62.645C35.978 62.7317 35.952 62.8053 35.9 62.866C35.848 62.918 35.7743 62.944 35.679 62.944H31.545V65.895H36.069C36.1643 65.895 36.238 65.921 36.29 65.973C36.342 66.025 36.368 66.0987 36.368 66.194V66.701C36.368 66.7877 36.342 66.8613 36.29 66.922C36.238 66.974 36.1643 67 36.069 67H30.596ZM40.6656 67.13C40.0503 67.13 39.5173 67.013 39.0666 66.779C38.6246 66.5363 38.2823 66.194 38.0396 65.752C37.797 65.3013 37.667 64.764 37.6496 64.14C37.641 64.01 37.6366 63.8367 37.6366 63.62C37.6366 63.4033 37.641 63.23 37.6496 63.1C37.667 62.476 37.797 61.943 38.0396 61.501C38.2823 61.0503 38.6246 60.708 39.0666 60.474C39.5173 60.2313 40.0503 60.11 40.6656 60.11C41.1683 60.11 41.5973 60.1793 41.9526 60.318C42.3166 60.4567 42.6156 60.6343 42.8496 60.851C43.0836 61.0677 43.257 61.3017 43.3696 61.553C43.491 61.8043 43.556 62.0427 43.5646 62.268C43.5733 62.3547 43.5473 62.424 43.4866 62.476C43.426 62.528 43.3523 62.554 43.2656 62.554H42.6416C42.555 62.554 42.49 62.5367 42.4466 62.502C42.4033 62.4587 42.36 62.3893 42.3166 62.294C42.1606 61.8693 41.9483 61.5703 41.6796 61.397C41.411 61.2237 41.0773 61.137 40.6786 61.137C40.1586 61.137 39.734 61.2973 39.4046 61.618C39.084 61.9387 38.9106 62.4543 38.8846 63.165C38.876 63.477 38.876 63.7803 38.8846 64.075C38.9106 64.7943 39.084 65.3143 39.4046 65.635C39.734 65.947 40.1586 66.103 40.6786 66.103C41.0773 66.103 41.411 66.0163 41.6796 65.843C41.9483 65.6697 42.1606 65.3707 42.3166 64.946C42.36 64.8507 42.4033 64.7857 42.4466 64.751C42.49 64.7077 42.555 64.686 42.6416 64.686H43.2656C43.3523 64.686 43.426 64.712 43.4866 64.764C43.5473 64.816 43.5733 64.8853 43.5646 64.972C43.556 65.154 43.517 65.3403 43.4476 65.531C43.3783 65.7217 43.2656 65.9167 43.1096 66.116C42.9623 66.3067 42.776 66.48 42.5506 66.636C42.3253 66.7833 42.0523 66.9047 41.7316 67C41.4196 67.0867 41.0643 67.13 40.6656 67.13ZM47.8775 67.13C47.2188 67.13 46.6685 67.0043 46.2265 66.753C45.7845 66.5017 45.4465 66.155 45.2125 65.713C44.9785 65.2623 44.8485 64.751 44.8225 64.179C44.8138 64.0317 44.8095 63.8453 44.8095 63.62C44.8095 63.386 44.8138 63.1997 44.8225 63.061C44.8485 62.4803 44.9785 61.969 45.2125 61.527C45.4552 61.085 45.7975 60.7383 46.2395 60.487C46.6815 60.2357 47.2275 60.11 47.8775 60.11C48.5275 60.11 49.0735 60.2357 49.5155 60.487C49.9575 60.7383 50.2955 61.085 50.5295 61.527C50.7722 61.969 50.9065 62.4803 50.9325 63.061C50.9412 63.1997 50.9455 63.386 50.9455 63.62C50.9455 63.8453 50.9412 64.0317 50.9325 64.179C50.9065 64.751 50.7765 65.2623 50.5425 65.713C50.3085 66.155 49.9705 66.5017 49.5285 66.753C49.0865 67.0043 48.5362 67.13 47.8775 67.13ZM47.8775 66.129C48.4148 66.129 48.8438 65.96 49.1645 65.622C49.4852 65.2753 49.6585 64.7727 49.6845 64.114C49.6932 63.984 49.6975 63.8193 49.6975 63.62C49.6975 63.4207 49.6932 63.256 49.6845 63.126C49.6585 62.4673 49.4852 61.969 49.1645 61.631C48.8438 61.2843 48.4148 61.111 47.8775 61.111C47.3402 61.111 46.9068 61.2843 46.5775 61.631C46.2568 61.969 46.0878 62.4673 46.0705 63.126C46.0618 63.256 46.0575 63.4207 46.0575 63.62C46.0575 63.8193 46.0618 63.984 46.0705 64.114C46.0878 64.7727 46.2568 65.2753 46.5775 65.622C46.9068 65.96 47.3402 66.129 47.8775 66.129ZM52.8723 67C52.7857 67 52.712 66.974 52.6513 66.922C52.5993 66.8613 52.5733 66.7877 52.5733 66.701V60.539C52.5733 60.4523 52.5993 60.383 52.6513 60.331C52.712 60.2703 52.7857 60.24 52.8723 60.24H53.4833C53.57 60.24 53.6393 60.2703 53.6913 60.331C53.752 60.383 53.7823 60.4523 53.7823 60.539V61.111C54.0077 60.8163 54.2893 60.578 54.6273 60.396C54.974 60.2053 55.416 60.11 55.9533 60.11C56.5167 60.11 56.9933 60.2357 57.3833 60.487C57.782 60.7297 58.081 61.072 58.2803 61.514C58.4797 61.9473 58.5793 62.4543 58.5793 63.035V66.701C58.5793 66.7877 58.5533 66.8613 58.5013 66.922C58.4493 66.974 58.38 67 58.2933 67H57.6433C57.5567 67 57.483 66.974 57.4223 66.922C57.3703 66.8613 57.3443 66.7877 57.3443 66.701V63.1C57.3443 62.4933 57.197 62.021 56.9023 61.683C56.6077 61.3363 56.1743 61.163 55.6023 61.163C55.065 61.163 54.6317 61.3363 54.3023 61.683C53.9817 62.021 53.8213 62.4933 53.8213 63.1V66.701C53.8213 66.7877 53.791 66.8613 53.7303 66.922C53.6783 66.974 53.609 67 53.5223 67H52.8723ZM63.2261 67.13C62.5675 67.13 62.0171 67.0043 61.5751 66.753C61.1331 66.5017 60.7951 66.155 60.5611 65.713C60.3271 65.2623 60.1971 64.751 60.1711 64.179C60.1625 64.0317 60.1581 63.8453 60.1581 63.62C60.1581 63.386 60.1625 63.1997 60.1711 63.061C60.1971 62.4803 60.3271 61.969 60.5611 61.527C60.8038 61.085 61.1461 60.7383 61.5881 60.487C62.0301 60.2357 62.5761 60.11 63.2261 60.11C63.8761 60.11 64.4221 60.2357 64.8641 60.487C65.3061 60.7383 65.6441 61.085 65.8781 61.527C66.1208 61.969 66.2551 62.4803 66.2811 63.061C66.2898 63.1997 66.2941 63.386 66.2941 63.62C66.2941 63.8453 66.2898 64.0317 66.2811 64.179C66.2551 64.751 66.1251 65.2623 65.8911 65.713C65.6571 66.155 65.3191 66.5017 64.8771 66.753C64.4351 67.0043 63.8848 67.13 63.2261 67.13ZM63.2261 66.129C63.7635 66.129 64.1925 65.96 64.5131 65.622C64.8338 65.2753 65.0071 64.7727 65.0331 64.114C65.0418 63.984 65.0461 63.8193 65.0461 63.62C65.0461 63.4207 65.0418 63.256 65.0331 63.126C65.0071 62.4673 64.8338 61.969 64.5131 61.631C64.1925 61.2843 63.7635 61.111 63.2261 61.111C62.6888 61.111 62.2555 61.2843 61.9261 61.631C61.6055 61.969 61.4365 62.4673 61.4191 63.126C61.4105 63.256 61.4061 63.4207 61.4061 63.62C61.4061 63.8193 61.4105 63.984 61.4191 64.114C61.4365 64.7727 61.6055 65.2753 61.9261 65.622C62.2555 65.96 62.6888 66.129 63.2261 66.129ZM68.221 67C68.1343 67 68.0606 66.974 68 66.922C67.948 66.8613 67.922 66.7877 67.922 66.701V60.539C67.922 60.4523 67.948 60.383 68 60.331C68.0606 60.2703 68.1343 60.24 68.221 60.24H68.806C68.8926 60.24 68.962 60.2703 69.014 60.331C69.0746 60.383 69.105 60.4523 69.105 60.539V60.994C69.3043 60.7253 69.5556 60.513 69.859 60.357C70.1623 60.1923 70.5263 60.11 70.951 60.11C71.9303 60.1013 72.6236 60.5 73.031 61.306C73.2303 60.942 73.5206 60.6517 73.902 60.435C74.2833 60.2183 74.7166 60.11 75.202 60.11C75.6526 60.11 76.06 60.214 76.424 60.422C76.7966 60.63 77.087 60.9463 77.295 61.371C77.5116 61.787 77.62 62.3113 77.62 62.944V66.701C77.62 66.7877 77.5896 66.8613 77.529 66.922C77.477 66.974 77.4076 67 77.321 67H76.71C76.6233 67 76.5496 66.974 76.489 66.922C76.437 66.8613 76.411 66.7877 76.411 66.701V63.061C76.411 62.5757 76.3416 62.1943 76.203 61.917C76.0643 61.6397 75.878 61.4447 75.644 61.332C75.41 61.2193 75.1543 61.163 74.877 61.163C74.6516 61.163 74.422 61.2193 74.188 61.332C73.954 61.4447 73.759 61.6397 73.603 61.917C73.4556 62.1943 73.382 62.5757 73.382 63.061V66.701C73.382 66.7877 73.3516 66.8613 73.291 66.922C73.239 66.974 73.1696 67 73.083 67H72.472C72.3853 67 72.3116 66.974 72.251 66.922C72.199 66.8613 72.173 66.7877 72.173 66.701V63.061C72.173 62.5757 72.0993 62.1943 71.952 61.917C71.8046 61.6397 71.614 61.4447 71.38 61.332C71.146 61.2193 70.899 61.163 70.639 61.163C70.4136 61.163 70.184 61.2193 69.95 61.332C69.716 61.4447 69.521 61.6397 69.365 61.917C69.2176 62.1943 69.144 62.5713 69.144 63.048V66.701C69.144 66.7877 69.1136 66.8613 69.053 66.922C69.001 66.974 68.9316 67 68.845 67H68.221ZM79.7737 67C79.687 67 79.6134 66.974 79.5527 66.922C79.5007 66.8613 79.4747 66.7877 79.4747 66.701V60.539C79.4747 60.4523 79.5007 60.383 79.5527 60.331C79.6134 60.2703 79.687 60.24 79.7737 60.24H80.3977C80.4844 60.24 80.5537 60.2703 80.6057 60.331C80.6577 60.383 80.6837 60.4523 80.6837 60.539V66.701C80.6837 66.7877 80.6577 66.8613 80.6057 66.922C80.5537 66.974 80.4844 67 80.3977 67H79.7737ZM79.7347 59.265C79.596 59.265 79.5267 59.1957 79.5267 59.057C79.5267 58.9877 79.5484 58.9313 79.5917 58.888L80.5667 57.718C80.6447 57.6227 80.714 57.562 80.7747 57.536C80.8354 57.5013 80.9264 57.484 81.0477 57.484H81.9317C82.0964 57.484 82.1787 57.5663 82.1787 57.731C82.1787 57.7917 82.157 57.8437 82.1137 57.887L80.6057 59.122C80.5364 59.1827 80.4714 59.2217 80.4107 59.239C80.35 59.2563 80.272 59.265 80.1767 59.265H79.7347ZM84.5081 67.13C84.0748 67.13 83.6805 67.0433 83.3251 66.87C82.9698 66.6967 82.6838 66.4627 82.4671 66.168C82.2505 65.8733 82.1421 65.5397 82.1421 65.167C82.1421 64.569 82.3848 64.0923 82.8701 63.737C83.3555 63.3817 83.9881 63.1477 84.7681 63.035L86.7051 62.762V62.385C86.7051 61.969 86.5838 61.644 86.3411 61.41C86.1071 61.176 85.7215 61.059 85.1841 61.059C84.7941 61.059 84.4778 61.137 84.2351 61.293C84.0011 61.449 83.8365 61.6483 83.7411 61.891C83.6891 62.021 83.5981 62.086 83.4681 62.086H82.8831C82.7878 62.086 82.7141 62.06 82.6621 62.008C82.6188 61.9473 82.5971 61.878 82.5971 61.8C82.5971 61.67 82.6448 61.5097 82.7401 61.319C82.8441 61.1283 83.0001 60.942 83.2081 60.76C83.4161 60.578 83.6805 60.4263 84.0011 60.305C84.3305 60.175 84.7291 60.11 85.1971 60.11C85.7171 60.11 86.1548 60.1793 86.5101 60.318C86.8655 60.448 87.1428 60.6257 87.3421 60.851C87.5501 61.0763 87.6975 61.332 87.7841 61.618C87.8795 61.904 87.9271 62.1943 87.9271 62.489V66.701C87.9271 66.7877 87.8968 66.8613 87.8361 66.922C87.7841 66.974 87.7148 67 87.6281 67H87.0301C86.9348 67 86.8611 66.974 86.8091 66.922C86.7571 66.8613 86.7311 66.7877 86.7311 66.701V66.142C86.6185 66.298 86.4668 66.454 86.2761 66.61C86.0855 66.7573 85.8471 66.883 85.5611 66.987C85.2751 67.0823 84.9241 67.13 84.5081 67.13ZM84.7811 66.155C85.1365 66.155 85.4615 66.0813 85.7561 65.934C86.0508 65.778 86.2805 65.5397 86.4451 65.219C86.6185 64.8983 86.7051 64.4953 86.7051 64.01V63.646L85.1971 63.867C84.5818 63.9537 84.1181 64.101 83.8061 64.309C83.4941 64.5083 83.3381 64.764 83.3381 65.076C83.3381 65.3187 83.4075 65.5223 83.5461 65.687C83.6935 65.843 83.8755 65.96 84.0921 66.038C84.3175 66.116 84.5471 66.155 84.7811 66.155Z" fill="#171B22"/>
<rect x="40.5" y="74" width="37" height="25" rx="12.5" fill="#E8B600"/>
<path d="M53.3417 91.14C52.6697 91.14 52.0864 91.0467 51.5917 90.86C51.097 90.664 50.6864 90.398 50.3597 90.062C50.0424 89.726 49.7997 89.334 49.6317 88.886C49.4637 88.438 49.3657 87.9573 49.3377 87.444C49.3284 87.192 49.319 86.9073 49.3097 86.59C49.3097 86.2633 49.3097 85.9367 49.3097 85.61C49.319 85.274 49.3284 84.9753 49.3377 84.714C49.3657 84.2007 49.4637 83.7247 49.6317 83.286C49.809 82.838 50.061 82.4507 50.3877 82.124C50.7237 81.788 51.1344 81.5267 51.6197 81.34C52.1144 81.1533 52.6884 81.06 53.3417 81.06C54.0044 81.06 54.5784 81.1533 55.0637 81.34C55.549 81.5267 55.955 81.788 56.2817 82.124C56.6177 82.4507 56.8744 82.838 57.0517 83.286C57.229 83.7247 57.327 84.2007 57.3457 84.714C57.3644 84.9753 57.3737 85.274 57.3737 85.61C57.383 85.9367 57.383 86.2633 57.3737 86.59C57.3737 86.9073 57.3644 87.192 57.3457 87.444C57.327 87.9573 57.229 88.438 57.0517 88.886C56.8837 89.334 56.6364 89.726 56.3097 90.062C55.9924 90.398 55.5864 90.664 55.0917 90.86C54.6064 91.0467 54.023 91.14 53.3417 91.14ZM53.3417 89.11C53.827 89.11 54.177 88.956 54.3917 88.648C54.6157 88.3307 54.7324 87.906 54.7417 87.374C54.7604 87.1033 54.7697 86.8187 54.7697 86.52C54.779 86.2213 54.779 85.9227 54.7697 85.624C54.7697 85.3253 54.7604 85.05 54.7417 84.798C54.7324 84.2847 54.6157 83.8693 54.3917 83.552C54.177 83.2347 53.827 83.0713 53.3417 83.062C52.8564 83.0713 52.5064 83.2347 52.2917 83.552C52.077 83.8693 51.9604 84.2847 51.9417 84.798C51.9324 85.05 51.923 85.3253 51.9137 85.624C51.9137 85.9227 51.9137 86.2213 51.9137 86.52C51.923 86.8187 51.9324 87.1033 51.9417 87.374C51.9604 87.906 52.0817 88.3307 52.3057 88.648C52.5297 88.956 52.875 89.11 53.3417 89.11ZM59.6793 91C59.4647 91 59.3573 90.9067 59.3573 90.72C59.3573 90.664 59.376 90.6127 59.4133 90.566L66.3293 81.466C66.3947 81.382 66.46 81.3167 66.5253 81.27C66.5907 81.2233 66.6887 81.2 66.8193 81.2H67.8133C68.028 81.2 68.1353 81.2933 68.1353 81.48C68.1353 81.536 68.1167 81.5873 68.0793 81.634L61.1633 90.734C61.098 90.818 61.0327 90.8833 60.9673 90.93C60.902 90.9767 60.804 91 60.6733 91H59.6793ZM66.7213 91.07C66.0867 91.07 65.578 90.902 65.1953 90.566C64.822 90.23 64.612 89.782 64.5653 89.222C64.556 88.9793 64.5513 88.7647 64.5513 88.578C64.5513 88.3913 64.556 88.1673 64.5653 87.906C64.6027 87.3367 64.8033 86.884 65.1673 86.548C65.5407 86.2027 66.0587 86.03 66.7213 86.03C67.3933 86.03 67.9113 86.2027 68.2753 86.548C68.6393 86.884 68.84 87.3367 68.8773 87.906C68.896 88.1673 68.9053 88.3913 68.9053 88.578C68.9053 88.7647 68.896 88.9793 68.8773 89.222C68.84 89.782 68.63 90.23 68.2473 90.566C67.8647 90.902 67.356 91.07 66.7213 91.07ZM66.7213 89.838C66.88 89.838 67.0013 89.8053 67.0853 89.74C67.1787 89.6747 67.2487 89.5907 67.2953 89.488C67.342 89.376 67.3653 89.2593 67.3653 89.138C67.384 88.9233 67.3933 88.7273 67.3933 88.55C67.3933 88.3727 67.384 88.1813 67.3653 87.976C67.356 87.7987 67.3047 87.64 67.2113 87.5C67.118 87.3507 66.9547 87.276 66.7213 87.276C66.488 87.276 66.3247 87.3507 66.2313 87.5C66.138 87.64 66.0867 87.7987 66.0773 87.976C66.068 88.1813 66.0633 88.3727 66.0633 88.55C66.0633 88.7273 66.068 88.9233 66.0773 89.138C66.0867 89.2593 66.11 89.376 66.1473 89.488C66.194 89.5907 66.264 89.6747 66.3573 89.74C66.4507 89.8053 66.572 89.838 66.7213 89.838ZM60.7993 86.142C60.1553 86.142 59.642 85.9787 59.2593 85.652C58.886 85.316 58.6807 84.868 58.6433 84.308C58.6247 84.0653 58.6153 83.8553 58.6153 83.678C58.6247 83.4913 58.634 83.2673 58.6433 83.006C58.6713 82.4367 58.8673 81.984 59.2313 81.648C59.6047 81.3027 60.1273 81.13 60.7993 81.13C61.4713 81.13 61.9893 81.3027 62.3533 81.648C62.7173 81.984 62.9133 82.4367 62.9413 83.006C62.96 83.2673 62.9693 83.4913 62.9693 83.678C62.9693 83.8553 62.96 84.0653 62.9413 84.308C62.9133 84.868 62.708 85.316 62.3253 85.652C61.9427 85.9787 61.434 86.142 60.7993 86.142ZM60.7993 84.938C60.9487 84.938 61.07 84.9053 61.1633 84.84C61.2567 84.7653 61.3267 84.6767 61.3733 84.574C61.42 84.462 61.4433 84.35 61.4433 84.238C61.462 84.0233 61.4713 83.8273 61.4713 83.65C61.4713 83.4727 61.462 83.2813 61.4433 83.076C61.434 82.8987 61.378 82.74 61.2753 82.6C61.182 82.4507 61.0233 82.376 60.7993 82.376C60.566 82.376 60.398 82.4507 60.2953 82.6C60.202 82.74 60.1507 82.8987 60.1413 83.076C60.132 83.2813 60.1273 83.4727 60.1273 83.65C60.1273 83.8273 60.132 84.0233 60.1413 84.238C60.1507 84.35 60.174 84.462 60.2113 84.574C60.258 84.6767 60.328 84.7653 60.4213 84.84C60.5147 84.9053 60.6407 84.938 60.7993 84.938Z" fill="white"/>
<g filter="url(#filter0_d_16167_41090)">
<rect x="88" y="14" width="32" height="32" rx="16" fill="white"/>
<rect x="87" y="13" width="34" height="34" rx="17" stroke="#1DA534" stroke-width="2"/>
<path opacity="0.4" d="M104 40C109.523 40 114 35.5228 114 30C114 24.4772 109.523 20 104 20C98.4772 20 94 24.4772 94 30C94 35.5228 98.4772 40 104 40Z" fill="#1DA534"/>
<path d="M102.579 33.5801C102.379 33.5801 102.189 33.5001 102.049 33.3601L99.2195 30.5301C98.9295 30.2401 98.9295 29.7601 99.2195 29.4701C99.5095 29.1801 99.9895 29.1801 100.279 29.4701L102.579 31.7701L107.719 26.6301C108.009 26.3401 108.489 26.3401 108.779 26.6301C109.069 26.9201 109.069 27.4001 108.779 27.6901L103.109 33.3601C102.969 33.5001 102.779 33.5801 102.579 33.5801Z" fill="#1DA534"/>
</g>
<defs>
<filter id="filter0_d_16167_41090" x="71" y="5" width="66" height="66" filterUnits="userSpaceOnUse" color-interpolation-filters="sRGB">
<feFlood flood-opacity="0" result="BackgroundImageFix"/>
<feColorMatrix in="SourceAlpha" type="matrix" values="0 0 0 0 0 0 0 0 0 0 0 0 0 0 0 0 0 0 127 0" result="hardAlpha"/>
<feOffset dy="8"/>
<feGaussianBlur stdDeviation="7.5"/>
<feColorMatrix type="matrix" values="0 0 0 0 0 0 0 0 0 0 0 0 0 0 0 0 0 0 0.25 0"/>
<feBlend mode="normal" in2="BackgroundImageFix" result="effect1_dropShadow_16167_41090"/>
<feBlend mode="normal" in="SourceGraphic" in2="effect1_dropShadow_16167_41090" result="shape"/>
</filter>
</defs>
</svg>
