<svg width="137" height="118" viewBox="0 0 137 118" fill="none" xmlns="http://www.w3.org/2000/svg">
<rect x="2" y="2" width="114" height="114" rx="57" fill="#F3EDFE"/>
<rect x="2" y="2" width="114" height="114" rx="57" stroke="#8646F4" stroke-width="4"/>
<g clip-path="url(#clip0_34428_7937)">
<mask id="mask0_34428_7937" style="mask-type:luminance" maskUnits="userSpaceOnUse" x="43" y="19" width="32" height="32">
<path d="M75 19H43V51H75V19Z" fill="white"/>
</mask>
<g mask="url(#mask0_34428_7937)">
<path opacity="0.4" d="M66.1328 48.3331H51.8796C48.4662 48.3331 46.9995 45.8797 48.6128 42.8797L49.9595 40.3731L51.0262 38.4131L55.2928 30.493C55.7195 29.7197 55.9063 28.373 55.7463 27.5197L54.9063 23.3597C54.7329 22.493 55.3995 21.6797 56.2795 21.6797H61.7595C62.6395 21.6797 63.3062 22.493 63.1328 23.3597L62.2928 27.5197C62.1195 28.373 62.3196 29.7197 62.7463 30.493L69.4262 42.8797C71.0128 45.8797 69.5462 48.3331 66.1328 48.3331Z" fill="#8646F4"/>
<path d="M60.052 39.4532C60.052 40.0266 59.572 40.5066 58.9987 40.5066H50.452C50.2653 40.5066 50.1053 40.4666 49.9453 40.3599L51.012 38.3999H58.9987C59.572 38.3999 60.052 38.8532 60.052 39.4532Z" fill="#8646F4"/>
</g>
</g>
<path d="M39.0501 57.77C39.7868 57.77 40.4238 57.926 40.9611 58.238C41.4985 58.55 41.9058 58.9747 42.1831 59.512C42.4691 60.0407 42.6208 60.6343 42.6381 61.293C42.6555 61.813 42.6641 62.1987 42.6641 62.45C42.6641 62.7013 42.6555 63.087 42.6381 63.607C42.6208 64.1097 42.5255 64.5777 42.3521 65.011C42.1875 65.4443 41.9491 65.817 41.6371 66.129L42.5991 67.442C42.6251 67.494 42.6381 67.5373 42.6381 67.572C42.6381 67.65 42.6121 67.715 42.5601 67.767C42.5168 67.819 42.4561 67.845 42.3781 67.845H41.7671C41.6285 67.845 41.5158 67.8147 41.4291 67.754C41.3511 67.702 41.2818 67.6327 41.2211 67.546L40.6751 66.805C40.1985 67.0217 39.6568 67.13 39.0501 67.13C38.3135 67.13 37.6765 66.974 37.1391 66.662C36.6105 66.35 36.2031 65.9297 35.9171 65.401C35.6398 64.8637 35.4881 64.2657 35.4621 63.607C35.4535 63.347 35.4491 62.9613 35.4491 62.45C35.4491 61.9387 35.4535 61.553 35.4621 61.293C35.4795 60.6343 35.6268 60.0407 35.9041 59.512C36.1901 58.9747 36.6018 58.55 37.1391 58.238C37.6765 57.926 38.3135 57.77 39.0501 57.77ZM39.0501 58.94C38.3568 58.94 37.7978 59.1437 37.3731 59.551C36.9485 59.9583 36.7231 60.5607 36.6971 61.358C36.6885 61.618 36.6841 61.982 36.6841 62.45C36.6841 62.918 36.6885 63.282 36.6971 63.542C36.7231 64.3393 36.9485 64.9417 37.3731 65.349C37.7978 65.7563 38.3568 65.96 39.0501 65.96C39.7435 65.96 40.3025 65.7563 40.7271 65.349C41.1518 64.9417 41.3771 64.3393 41.4031 63.542C41.4205 63.022 41.4291 62.658 41.4291 62.45C41.4291 62.242 41.4205 61.878 41.4031 61.358C41.3771 60.5607 41.1518 59.9583 40.7271 59.551C40.3025 59.1437 39.7435 58.94 39.0501 58.94ZM44.3265 60.591C44.3265 60.4957 44.3612 60.4133 44.4305 60.344C44.4998 60.2747 44.5822 60.24 44.6775 60.24H45.1585C45.2538 60.24 45.3362 60.2747 45.4055 60.344C45.4748 60.4133 45.5095 60.4957 45.5095 60.591V64.023C45.5095 64.6817 45.6568 65.18 45.9515 65.518C46.2548 65.8473 46.6925 66.012 47.2645 66.012C47.8192 66.012 48.2482 65.843 48.5515 65.505C48.8635 65.167 49.0195 64.673 49.0195 64.023V60.591C49.0195 60.4957 49.0542 60.4133 49.1235 60.344C49.1928 60.2747 49.2752 60.24 49.3705 60.24H49.8515C49.9468 60.24 50.0292 60.2747 50.0985 60.344C50.1678 60.4133 50.2025 60.4957 50.2025 60.591V66.649C50.2025 66.7443 50.1678 66.8267 50.0985 66.896C50.0292 66.9653 49.9468 67 49.8515 67H49.3705C49.2752 67 49.1928 66.9653 49.1235 66.896C49.0542 66.8267 49.0195 66.7443 49.0195 66.649V66.246C48.5688 66.8353 47.9188 67.13 47.0695 67.13C46.2375 67.13 45.5702 66.87 45.0675 66.35C44.5735 65.83 44.3265 65.1193 44.3265 64.218V60.591ZM53.3313 66.649C53.3313 66.7443 53.2967 66.8267 53.2273 66.896C53.158 66.9653 53.0757 67 52.9803 67H52.4993C52.404 67 52.3217 66.9653 52.2523 66.896C52.183 66.8267 52.1483 66.7443 52.1483 66.649V60.591C52.1483 60.4957 52.183 60.4133 52.2523 60.344C52.3217 60.2747 52.404 60.24 52.4993 60.24H52.9803C53.0757 60.24 53.158 60.2747 53.2273 60.344C53.2967 60.4133 53.3313 60.4957 53.3313 60.591V66.649ZM53.1233 57.692C53.2187 57.588 53.2967 57.523 53.3573 57.497C53.418 57.4623 53.5003 57.445 53.6043 57.445H54.5663C54.6443 57.445 54.705 57.471 54.7483 57.523C54.7917 57.5663 54.8133 57.627 54.8133 57.705C54.8133 57.7657 54.7917 57.8177 54.7483 57.861L53.3053 59.044C53.21 59.122 53.1233 59.1783 53.0453 59.213C52.976 59.2477 52.8807 59.265 52.7593 59.265H52.2783C52.1397 59.265 52.0703 59.1957 52.0703 59.057C52.0703 58.9877 52.092 58.9313 52.1353 58.888L53.1233 57.692ZM56.4671 60.994C56.6751 60.7253 56.9091 60.513 57.1691 60.357C57.4291 60.1923 57.7757 60.11 58.2091 60.11C59.2231 60.11 59.9337 60.487 60.3411 61.241C60.5924 60.877 60.8784 60.5997 61.1991 60.409C61.5197 60.2097 61.9401 60.11 62.4601 60.11C63.3094 60.11 63.9377 60.3657 64.3451 60.877C64.7611 61.3883 64.9691 62.112 64.9691 63.048V66.649C64.9691 66.7443 64.9344 66.8267 64.8651 66.896C64.7957 66.9653 64.7134 67 64.6181 67H64.1371C64.0417 67 63.9594 66.9653 63.8901 66.896C63.8207 66.8267 63.7861 66.7443 63.7861 66.649V63.178C63.7861 61.878 63.2747 61.228 62.2521 61.228C61.7841 61.228 61.4114 61.384 61.1341 61.696C60.8567 62.008 60.7181 62.4717 60.7181 63.087V66.649C60.7181 66.7443 60.6834 66.8267 60.6141 66.896C60.5447 66.9653 60.4624 67 60.3671 67H59.8861C59.7907 67 59.7084 66.9653 59.6391 66.896C59.5697 66.8267 59.5351 66.7443 59.5351 66.649V63.178C59.5351 61.878 59.0237 61.228 58.0011 61.228C57.5331 61.228 57.1604 61.384 56.8831 61.696C56.6057 62.008 56.4671 62.4717 56.4671 63.087V66.649C56.4671 66.7443 56.4324 66.8267 56.3631 66.896C56.2937 66.9653 56.2114 67 56.1161 67H55.6351C55.5397 67 55.4574 66.9653 55.3881 66.896C55.3187 66.8267 55.2841 66.7443 55.2841 66.649V60.591C55.2841 60.4957 55.3187 60.4133 55.3881 60.344C55.4574 60.2747 55.5397 60.24 55.6351 60.24H56.1161C56.2114 60.24 56.2937 60.2747 56.3631 60.344C56.4324 60.4133 56.4671 60.4957 56.4671 60.591V60.994ZM68.1625 58.862C68.1625 58.9573 68.1278 59.0397 68.0585 59.109C67.9892 59.1783 67.9068 59.213 67.8115 59.213H67.0705C66.9752 59.213 66.8928 59.1783 66.8235 59.109C66.7542 59.0397 66.7195 58.9573 66.7195 58.862V58.121C66.7195 58.0257 66.7542 57.9433 66.8235 57.874C66.8928 57.8047 66.9752 57.77 67.0705 57.77H67.8115C67.9068 57.77 67.9892 57.8047 68.0585 57.874C68.1278 57.9433 68.1625 58.0257 68.1625 58.121V58.862ZM68.0325 66.649C68.0325 66.7443 67.9978 66.8267 67.9285 66.896C67.8592 66.9653 67.7768 67 67.6815 67H67.2005C67.1052 67 67.0228 66.9653 66.9535 66.896C66.8842 66.8267 66.8495 66.7443 66.8495 66.649V60.591C66.8495 60.4957 66.8842 60.4133 66.9535 60.344C67.0228 60.2747 67.1052 60.24 67.2005 60.24H67.6815C67.7768 60.24 67.8592 60.2747 67.9285 60.344C67.9978 60.4133 68.0325 60.4957 68.0325 60.591V66.649ZM72.7153 66.012C73.5819 66.012 74.1669 65.674 74.4703 64.998C74.5309 64.868 74.5916 64.777 74.6523 64.725C74.7129 64.673 74.7953 64.647 74.8993 64.647H75.2893C75.3846 64.647 75.4669 64.6817 75.5363 64.751C75.6056 64.8117 75.6403 64.8853 75.6403 64.972C75.6403 65.2667 75.5233 65.583 75.2893 65.921C75.0553 66.259 74.7173 66.545 74.2753 66.779C73.8333 67.013 73.3133 67.13 72.7153 67.13C72.0999 67.13 71.5669 67 71.1163 66.74C70.6656 66.48 70.3189 66.1247 70.0763 65.674C69.8336 65.2147 69.6993 64.7033 69.6733 64.14C69.6646 64.036 69.6603 63.8367 69.6603 63.542C69.6603 63.334 69.6646 63.1867 69.6733 63.1C69.7513 62.216 70.0503 61.4967 70.5703 60.942C71.0903 60.3873 71.8053 60.11 72.7153 60.11C73.3133 60.11 73.8289 60.227 74.2623 60.461C74.7043 60.6863 75.0379 60.968 75.2633 61.306C75.4973 61.6353 75.6229 61.9473 75.6403 62.242C75.6489 62.3373 75.6143 62.4197 75.5363 62.489C75.4669 62.5583 75.3846 62.593 75.2893 62.593H74.8993C74.7953 62.593 74.7129 62.567 74.6523 62.515C74.5916 62.463 74.5309 62.372 74.4703 62.242C74.1669 61.566 73.5819 61.228 72.7153 61.228C72.2386 61.228 71.8226 61.3883 71.4673 61.709C71.1119 62.0297 70.9083 62.515 70.8563 63.165C70.8476 63.2603 70.8433 63.4163 70.8433 63.633C70.8433 63.8323 70.8476 63.9797 70.8563 64.075C70.9169 64.725 71.1206 65.2103 71.4673 65.531C71.8226 65.8517 72.2386 66.012 72.7153 66.012ZM81.2132 62.723V62.554C81.2132 62.1293 81.0702 61.8043 80.7842 61.579C80.5069 61.345 80.1429 61.228 79.6922 61.228C79.3455 61.228 79.0725 61.2887 78.8732 61.41C78.6825 61.5227 78.5005 61.696 78.3272 61.93C78.2752 61.9993 78.2189 62.047 78.1582 62.073C78.0975 62.099 78.0152 62.112 77.9112 62.112H77.5212C77.4259 62.112 77.3392 62.0773 77.2612 62.008C77.1919 61.9387 77.1615 61.8563 77.1702 61.761C77.1962 61.501 77.3219 61.2453 77.5472 60.994C77.7812 60.734 78.0889 60.5217 78.4702 60.357C78.8515 60.1923 79.2589 60.11 79.6922 60.11C80.4982 60.11 81.1482 60.3353 81.6422 60.786C82.1449 61.2367 82.3962 61.8693 82.3962 62.684V66.649C82.3962 66.7443 82.3615 66.8267 82.2922 66.896C82.2229 66.9653 82.1405 67 82.0452 67H81.5642C81.4689 67 81.3865 66.9653 81.3172 66.896C81.2479 66.8267 81.2132 66.7443 81.2132 66.649V66.116C81.0745 66.428 80.7799 66.675 80.3292 66.857C79.8785 67.039 79.4279 67.13 78.9772 67.13C78.5352 67.13 78.1409 67.052 77.7942 66.896C77.4475 66.7313 77.1789 66.5103 76.9882 66.233C76.8062 65.9557 76.7152 65.6437 76.7152 65.297C76.7152 64.647 76.9579 64.14 77.4432 63.776C77.9285 63.4033 78.5742 63.152 79.3802 63.022L81.2132 62.723ZM81.2132 63.763L79.6792 64.01C79.1159 64.0967 78.6782 64.2397 78.3662 64.439C78.0542 64.6297 77.8982 64.8723 77.8982 65.167C77.8982 65.3837 77.9979 65.5787 78.1972 65.752C78.3965 65.9253 78.6999 66.012 79.1072 66.012C79.7312 66.012 80.2382 65.8343 80.6282 65.479C81.0182 65.1237 81.2132 64.66 81.2132 64.088V63.763Z" fill="#171B22"/>
<rect x="40" y="74" width="38" height="25" rx="12.5" fill="#8646F4"/>
<path d="M57.1579 84.854C57.1766 85.1153 57.1859 85.5353 57.1859 86.114C57.1859 86.6833 57.1766 87.094 57.1579 87.346C57.0926 88.4567 56.7239 89.3667 56.0519 90.076C55.3892 90.7853 54.3952 91.14 53.0699 91.14C51.7446 91.14 50.7459 90.7853 50.0739 90.076C49.4112 89.3667 49.0472 88.4567 48.9819 87.346C48.9632 86.842 48.9539 86.4313 48.9539 86.114C48.9539 85.7967 48.9632 85.3767 48.9819 84.854C49.0472 83.7433 49.4112 82.8333 50.0739 82.124C50.7459 81.4147 51.7446 81.06 53.0699 81.06C54.3952 81.06 55.3892 81.4147 56.0519 82.124C56.7239 82.8333 57.0926 83.7433 57.1579 84.854ZM54.5679 84.924C54.5399 84.4107 54.4139 84.014 54.1899 83.734C53.9659 83.4447 53.5926 83.3 53.0699 83.3C52.5472 83.3 52.1739 83.4447 51.9499 83.734C51.7259 84.014 51.5999 84.4107 51.5719 84.924C51.5532 85.428 51.5439 85.8153 51.5439 86.086C51.5439 86.338 51.5532 86.7347 51.5719 87.276C51.5906 87.7893 51.7119 88.1907 51.9359 88.48C52.1692 88.76 52.5472 88.9 53.0699 88.9C53.5926 88.9 53.9659 88.76 54.1899 88.48C54.4232 88.1907 54.5492 87.7893 54.5679 87.276C54.5866 87.0053 54.5959 86.6087 54.5959 86.086C54.5959 85.5633 54.5866 85.176 54.5679 84.924ZM62.7646 84.182C62.7366 84.77 62.5359 85.2507 62.1626 85.624C61.7986 85.988 61.2666 86.17 60.5666 86.17C59.8666 86.17 59.3346 85.988 58.9706 85.624C58.6159 85.26 58.4152 84.7793 58.3686 84.182C58.3592 84.0607 58.3546 83.888 58.3546 83.664C58.3546 83.4307 58.3592 83.2487 58.3686 83.118C58.4152 82.5207 58.6159 82.04 58.9706 81.676C59.3346 81.312 59.8666 81.13 60.5666 81.13C61.2666 81.13 61.7939 81.312 62.1486 81.676C62.5126 82.04 62.7179 82.5207 62.7646 83.118C62.7832 83.3793 62.7926 83.5613 62.7926 83.664C62.7926 83.7667 62.7832 83.9393 62.7646 84.182ZM66.2646 81.466C66.3392 81.3727 66.4092 81.3073 66.4746 81.27C66.5492 81.2233 66.6472 81.2 66.7686 81.2H67.9166C68.0192 81.2 68.0986 81.228 68.1546 81.284C68.2199 81.3307 68.2526 81.396 68.2526 81.48C68.2526 81.536 68.2339 81.5873 68.1966 81.634L61.2806 90.734C61.2059 90.8273 61.1312 90.8973 61.0566 90.944C60.9912 90.9813 60.8979 91 60.7766 91H59.6286C59.5259 91 59.4419 90.9767 59.3766 90.93C59.3206 90.874 59.2926 90.804 59.2926 90.72C59.2926 90.664 59.3112 90.6127 59.3486 90.566L66.2646 81.466ZM60.5666 84.84C60.7626 84.84 60.9026 84.784 60.9866 84.672C61.0706 84.56 61.1219 84.3733 61.1406 84.112C61.1592 83.888 61.1686 83.734 61.1686 83.65C61.1686 83.5473 61.1592 83.3933 61.1406 83.188C61.1219 82.9267 61.0706 82.74 60.9866 82.628C60.9026 82.516 60.7626 82.46 60.5666 82.46C60.3706 82.46 60.2306 82.516 60.1466 82.628C60.0626 82.74 60.0112 82.9267 59.9926 83.188C59.9832 83.2907 59.9786 83.4447 59.9786 83.65C59.9786 83.846 59.9832 84 59.9926 84.112C60.0112 84.3733 60.0626 84.56 60.1466 84.672C60.2306 84.784 60.3706 84.84 60.5666 84.84ZM69.2606 89.082C69.2326 89.67 69.0319 90.1507 68.6586 90.524C68.2946 90.888 67.7626 91.07 67.0626 91.07C66.3626 91.07 65.8306 90.888 65.4666 90.524C65.1119 90.16 64.9112 89.6793 64.8646 89.082C64.8552 88.9607 64.8506 88.788 64.8506 88.564C64.8506 88.3307 64.8552 88.1487 64.8646 88.018C64.9112 87.4207 65.1119 86.94 65.4666 86.576C65.8306 86.212 66.3626 86.03 67.0626 86.03C67.7626 86.03 68.2899 86.212 68.6446 86.576C69.0086 86.94 69.2139 87.4207 69.2606 88.018C69.2792 88.2793 69.2886 88.4613 69.2886 88.564C69.2886 88.6667 69.2792 88.8393 69.2606 89.082ZM67.0626 89.74C67.2586 89.74 67.3986 89.684 67.4826 89.572C67.5666 89.46 67.6179 89.2733 67.6366 89.012C67.6552 88.788 67.6646 88.634 67.6646 88.55C67.6646 88.4473 67.6552 88.2933 67.6366 88.088C67.6179 87.8267 67.5666 87.64 67.4826 87.528C67.3986 87.416 67.2586 87.36 67.0626 87.36C66.8666 87.36 66.7266 87.416 66.6426 87.528C66.5586 87.64 66.5072 87.8267 66.4886 88.088C66.4792 88.1907 66.4746 88.3447 66.4746 88.55C66.4746 88.746 66.4792 88.9 66.4886 89.012C66.5072 89.2733 66.5586 89.46 66.6426 89.572C66.7266 89.684 66.8666 89.74 67.0626 89.74Z" fill="white"/>
<g filter="url(#filter0_d_34428_7937)">
<rect x="88" y="14" width="32" height="32" rx="16" fill="white"/>
<rect x="87" y="13" width="34" height="34" rx="17" stroke="#1DA534" stroke-width="2"/>
<path opacity="0.4" d="M104 40C109.523 40 114 35.5228 114 30C114 24.4772 109.523 20 104 20C98.4772 20 94 24.4772 94 30C94 35.5228 98.4772 40 104 40Z" fill="#1DA534"/>
<path d="M102.579 33.5801C102.379 33.5801 102.189 33.5001 102.049 33.3601L99.2195 30.5301C98.9295 30.2401 98.9295 29.7601 99.2195 29.4701C99.5095 29.1801 99.9895 29.1801 100.279 29.4701L102.579 31.7701L107.719 26.6301C108.009 26.3401 108.489 26.3401 108.779 26.6301C109.069 26.9201 109.069 27.4001 108.779 27.6901L103.109 33.3601C102.969 33.5001 102.779 33.5801 102.579 33.5801Z" fill="#1DA534"/>
</g>
<defs>
<filter id="filter0_d_34428_7937" x="71" y="5" width="66" height="66" filterUnits="userSpaceOnUse" color-interpolation-filters="sRGB">
<feFlood flood-opacity="0" result="BackgroundImageFix"/>
<feColorMatrix in="SourceAlpha" type="matrix" values="0 0 0 0 0 0 0 0 0 0 0 0 0 0 0 0 0 0 127 0" result="hardAlpha"/>
<feOffset dy="8"/>
<feGaussianBlur stdDeviation="7.5"/>
<feColorMatrix type="matrix" values="0 0 0 0 0 0 0 0 0 0 0 0 0 0 0 0 0 0 0.25 0"/>
<feBlend mode="normal" in2="BackgroundImageFix" result="effect1_dropShadow_34428_7937"/>
<feBlend mode="normal" in="SourceGraphic" in2="effect1_dropShadow_34428_7937" result="shape"/>
</filter>
<clipPath id="clip0_34428_7937">
<rect width="32" height="32" fill="white" transform="translate(43 19)"/>
</clipPath>
</defs>
</svg>
