<svg width="137" height="118" viewBox="0 0 137 118" fill="none" xmlns="http://www.w3.org/2000/svg">
<rect x="2" y="2" width="114" height="114" rx="57" fill="white"/>
<rect x="2" y="2" width="114" height="114" rx="57" stroke="#DEE2E6" stroke-width="4"/>
<g clip-path="url(#clip0_15958_19572)">
<mask id="mask0_15958_19572" style="mask-type:luminance" maskUnits="userSpaceOnUse" x="43" y="19" width="32" height="32">
<path d="M75 19H43V51H75V19Z" fill="white"/>
</mask>
<g mask="url(#mask0_15958_19572)">
<path opacity="0.4" fill-rule="evenodd" clip-rule="evenodd" d="M57.9837 22.5878C56.8047 21.6833 55.2504 21.4227 53.8373 21.9068C52.3973 22.4001 51.3173 23.5868 50.9573 25.0668C50.8373 25.6401 50.3839 26.0935 49.8106 26.2135C48.1173 26.5601 46.7173 27.7201 46.0506 29.3068C45.3839 30.9068 45.5706 32.7202 46.5173 34.1602C46.864 34.6669 46.864 35.3335 46.5173 35.8269C45.5573 37.2669 45.3839 39.0802 46.0506 40.6801C46.7039 42.2801 48.1173 43.4401 49.8106 43.7734C50.3839 43.8934 50.8373 44.3467 50.9573 44.9202C51.3173 46.4002 52.3973 47.5867 53.8373 48.0801C55.2504 48.5642 56.8047 48.3037 57.9837 47.3991V22.5878ZM59.9837 47.3987C61.1628 48.3035 62.7173 48.5643 64.1305 48.0801C65.5705 47.5867 66.6507 46.3867 67.0107 44.9067C67.1307 44.3334 67.584 43.8801 68.1573 43.7601C69.8507 43.4134 71.2507 42.2534 71.9173 40.6534C72.5707 39.0534 72.3973 37.2401 71.4373 35.8001C71.0907 35.2934 71.0907 34.6401 71.4373 34.1334C72.3973 32.6934 72.5707 30.8801 71.9173 29.2801C71.2507 27.6801 69.8507 26.5201 68.1573 26.1735C67.584 26.0535 67.1307 25.6001 67.0107 25.0268C66.6507 23.5468 65.5705 22.3601 64.1305 21.8668C62.7173 21.3826 61.1628 21.6434 59.9837 22.5482V47.3987Z" fill="#A677B3"/>
<path fill-rule="evenodd" clip-rule="evenodd" d="M66.3857 38.96C65.2981 38.96 64.4258 39.8322 64.4258 40.92V41.92H62.4258V40.92C62.4258 38.7277 64.1934 36.96 66.3857 36.96H67.3857V38.96H66.3857Z" fill="#A677B3"/>
<path fill-rule="evenodd" clip-rule="evenodd" d="M55.5459 28.0801V29.0801C55.5459 31.2723 53.7782 33.0401 51.5859 33.0401H50.5859V31.0401H51.5859C52.6736 31.0401 53.5459 30.1678 53.5459 29.0801V28.0801H55.5459Z" fill="#A677B3"/>
<path fill-rule="evenodd" clip-rule="evenodd" d="M50.5859 36.96H51.5859C53.7782 36.96 55.5459 38.7277 55.5459 40.92V41.92H53.5459V40.92C53.5459 39.8322 52.6736 38.96 51.5859 38.96H50.5859V36.96Z" fill="#A677B3"/>
<path fill-rule="evenodd" clip-rule="evenodd" d="M64.4258 28.0801V29.0801C64.4258 30.1678 65.2981 31.0401 66.3857 31.0401H67.3857V33.0401H66.3857C64.1934 33.0401 62.4258 31.2723 62.4258 29.0801V28.0801H64.4258Z" fill="#5F6774"/>
</g>
</g>
<path d="M35.0394 67C34.944 67 34.8704 66.974 34.8184 66.922C34.7664 66.8613 34.7404 66.7877 34.7404 66.701V58.212C34.7404 58.1167 34.7664 58.043 34.8184 57.991C34.8704 57.9303 34.944 57.9 35.0394 57.9H40.3434C40.4387 57.9 40.5124 57.9303 40.5644 57.991C40.6164 58.043 40.6424 58.1167 40.6424 58.212V58.732C40.6424 58.8273 40.6164 58.901 40.5644 58.953C40.5124 59.005 40.4387 59.031 40.3434 59.031H36.0014V62.06H40.0834C40.1787 62.06 40.2524 62.0903 40.3044 62.151C40.3564 62.203 40.3824 62.2767 40.3824 62.372V62.892C40.3824 62.9787 40.3564 63.0523 40.3044 63.113C40.2524 63.165 40.1787 63.191 40.0834 63.191H36.0014V66.701C36.0014 66.7877 35.971 66.8613 35.9104 66.922C35.8584 66.974 35.7847 67 35.6894 67H35.0394ZM42.4622 67C42.3755 67 42.3018 66.974 42.2412 66.922C42.1892 66.8613 42.1632 66.7877 42.1632 66.701V60.539C42.1632 60.4523 42.1892 60.383 42.2412 60.331C42.3018 60.2703 42.3755 60.24 42.4622 60.24H43.0862C43.1728 60.24 43.2422 60.2703 43.2942 60.331C43.3462 60.383 43.3722 60.4523 43.3722 60.539V66.701C43.3722 66.7877 43.3462 66.8613 43.2942 66.922C43.2422 66.974 43.1728 67 43.0862 67H42.4622ZM42.3582 58.979C42.2715 58.979 42.1978 58.953 42.1372 58.901C42.0852 58.8403 42.0592 58.7667 42.0592 58.68V57.978C42.0592 57.8913 42.0852 57.822 42.1372 57.77C42.1978 57.7093 42.2715 57.679 42.3582 57.679H43.1772C43.2638 57.679 43.3332 57.7093 43.3852 57.77C43.4458 57.822 43.4762 57.8913 43.4762 57.978V58.68C43.4762 58.7667 43.4458 58.8403 43.3852 58.901C43.3332 58.953 43.2638 58.979 43.1772 58.979H42.3582ZM45.6236 67C45.5369 67 45.4633 66.974 45.4026 66.922C45.3506 66.8613 45.3246 66.7877 45.3246 66.701V58.069C45.3246 57.9823 45.3506 57.913 45.4026 57.861C45.4633 57.8003 45.5369 57.77 45.6236 57.77H46.2346C46.3299 57.77 46.4036 57.8003 46.4556 57.861C46.5076 57.913 46.5336 57.9823 46.5336 58.069V66.701C46.5336 66.7877 46.5076 66.8613 46.4556 66.922C46.4036 66.974 46.3299 67 46.2346 67H45.6236ZM51.2417 67.13C50.5831 67.13 50.0327 67.0043 49.5907 66.753C49.1487 66.5017 48.8107 66.155 48.5767 65.713C48.3427 65.2623 48.2127 64.751 48.1867 64.179C48.1781 64.0317 48.1737 63.8453 48.1737 63.62C48.1737 63.386 48.1781 63.1997 48.1867 63.061C48.2127 62.4803 48.3427 61.969 48.5767 61.527C48.8194 61.085 49.1617 60.7383 49.6037 60.487C50.0457 60.2357 50.5917 60.11 51.2417 60.11C51.8917 60.11 52.4377 60.2357 52.8797 60.487C53.3217 60.7383 53.6597 61.085 53.8937 61.527C54.1364 61.969 54.2707 62.4803 54.2967 63.061C54.3054 63.1997 54.3097 63.386 54.3097 63.62C54.3097 63.8453 54.3054 64.0317 54.2967 64.179C54.2707 64.751 54.1407 65.2623 53.9067 65.713C53.6727 66.155 53.3347 66.5017 52.8927 66.753C52.4507 67.0043 51.9004 67.13 51.2417 67.13ZM51.2417 66.129C51.7791 66.129 52.2081 65.96 52.5287 65.622C52.8494 65.2753 53.0227 64.7727 53.0487 64.114C53.0574 63.984 53.0617 63.8193 53.0617 63.62C53.0617 63.4207 53.0574 63.256 53.0487 63.126C53.0227 62.4673 52.8494 61.969 52.5287 61.631C52.2081 61.2843 51.7791 61.111 51.2417 61.111C50.7044 61.111 50.2711 61.2843 49.9417 61.631C49.6211 61.969 49.4521 62.4673 49.4347 63.126C49.4261 63.256 49.4217 63.4207 49.4217 63.62C49.4217 63.8193 49.4261 63.984 49.4347 64.114C49.4521 64.7727 49.6211 65.2753 49.9417 65.622C50.2711 65.96 50.7044 66.129 51.2417 66.129ZM58.2776 67.13C57.7923 67.13 57.3763 67.0693 57.0296 66.948C56.6829 66.8267 56.4013 66.6793 56.1846 66.506C55.9679 66.3327 55.8033 66.1593 55.6906 65.986C55.5866 65.8127 55.5303 65.674 55.5216 65.57C55.5129 65.4747 55.5433 65.401 55.6126 65.349C55.6819 65.297 55.7513 65.271 55.8206 65.271H56.3926C56.4446 65.271 56.4836 65.2797 56.5096 65.297C56.5443 65.3057 56.5876 65.3403 56.6396 65.401C56.7523 65.5223 56.8779 65.6437 57.0166 65.765C57.1553 65.8863 57.3243 65.986 57.5236 66.064C57.7316 66.142 57.9873 66.181 58.2906 66.181C58.7326 66.181 59.0966 66.0987 59.3826 65.934C59.6686 65.7607 59.8116 65.5093 59.8116 65.18C59.8116 64.9633 59.7509 64.79 59.6296 64.66C59.5169 64.53 59.3089 64.413 59.0056 64.309C58.7109 64.205 58.3036 64.0967 57.7836 63.984C57.2636 63.8627 56.8519 63.7153 56.5486 63.542C56.2453 63.36 56.0286 63.1477 55.8986 62.905C55.7686 62.6537 55.7036 62.372 55.7036 62.06C55.7036 61.7393 55.7989 61.4317 55.9896 61.137C56.1803 60.8337 56.4576 60.5867 56.8216 60.396C57.1943 60.2053 57.6579 60.11 58.2126 60.11C58.6633 60.11 59.0489 60.1663 59.3696 60.279C59.6903 60.3917 59.9546 60.5347 60.1626 60.708C60.3706 60.8727 60.5266 61.0373 60.6306 61.202C60.7346 61.3667 60.7909 61.5053 60.7996 61.618C60.8083 61.7047 60.7823 61.7783 60.7216 61.839C60.6609 61.891 60.5916 61.917 60.5136 61.917H59.9676C59.9069 61.917 59.8549 61.904 59.8116 61.878C59.7769 61.852 59.7423 61.8217 59.7076 61.787C59.6209 61.6743 59.5169 61.5617 59.3956 61.449C59.2829 61.3363 59.1313 61.2453 58.9406 61.176C58.7586 61.098 58.5159 61.059 58.2126 61.059C57.7793 61.059 57.4543 61.15 57.2376 61.332C57.0209 61.514 56.9126 61.7437 56.9126 62.021C56.9126 62.1857 56.9603 62.333 57.0556 62.463C57.1509 62.593 57.3329 62.71 57.6016 62.814C57.8703 62.918 58.2689 63.0307 58.7976 63.152C59.3696 63.2647 59.8203 63.4163 60.1496 63.607C60.4789 63.7977 60.7129 64.0187 60.8516 64.27C60.9903 64.5213 61.0596 64.8117 61.0596 65.141C61.0596 65.505 60.9513 65.8387 60.7346 66.142C60.5266 66.4453 60.2146 66.688 59.7986 66.87C59.3913 67.0433 58.8843 67.13 58.2776 67.13ZM65.3335 67.13C64.6749 67.13 64.1245 67.0043 63.6825 66.753C63.2405 66.5017 62.9025 66.155 62.6685 65.713C62.4345 65.2623 62.3045 64.751 62.2785 64.179C62.2699 64.0317 62.2655 63.8453 62.2655 63.62C62.2655 63.386 62.2699 63.1997 62.2785 63.061C62.3045 62.4803 62.4345 61.969 62.6685 61.527C62.9112 61.085 63.2535 60.7383 63.6955 60.487C64.1375 60.2357 64.6835 60.11 65.3335 60.11C65.9835 60.11 66.5295 60.2357 66.9715 60.487C67.4135 60.7383 67.7515 61.085 67.9855 61.527C68.2282 61.969 68.3625 62.4803 68.3885 63.061C68.3972 63.1997 68.4015 63.386 68.4015 63.62C68.4015 63.8453 68.3972 64.0317 68.3885 64.179C68.3625 64.751 68.2325 65.2623 67.9985 65.713C67.7645 66.155 67.4265 66.5017 66.9845 66.753C66.5425 67.0043 65.9922 67.13 65.3335 67.13ZM65.3335 66.129C65.8709 66.129 66.2999 65.96 66.6205 65.622C66.9412 65.2753 67.1145 64.7727 67.1405 64.114C67.1492 63.984 67.1535 63.8193 67.1535 63.62C67.1535 63.4207 67.1492 63.256 67.1405 63.126C67.1145 62.4673 66.9412 61.969 66.6205 61.631C66.2999 61.2843 65.8709 61.111 65.3335 61.111C64.7962 61.111 64.3629 61.2843 64.0335 61.631C63.7129 61.969 63.5439 62.4673 63.5265 63.126C63.5179 63.256 63.5135 63.4207 63.5135 63.62C63.5135 63.8193 63.5179 63.984 63.5265 64.114C63.5439 64.7727 63.7129 65.2753 64.0335 65.622C64.3629 65.96 64.7962 66.129 65.3335 66.129ZM70.9282 67C70.8415 67 70.7679 66.974 70.7072 66.922C70.6552 66.8613 70.6292 66.7877 70.6292 66.701V61.28H69.5242C69.4375 61.28 69.3639 61.254 69.3032 61.202C69.2512 61.1413 69.2252 61.0677 69.2252 60.981V60.539C69.2252 60.4523 69.2512 60.383 69.3032 60.331C69.3639 60.2703 69.4375 60.24 69.5242 60.24H70.6292V59.59C70.6292 59.148 70.7029 58.7623 70.8502 58.433C70.9975 58.095 71.2315 57.835 71.5522 57.653C71.8815 57.471 72.3192 57.38 72.8652 57.38H73.6452C73.7319 57.38 73.8012 57.4103 73.8532 57.471C73.9052 57.523 73.9312 57.5923 73.9312 57.679V58.121C73.9312 58.2077 73.9052 58.2813 73.8532 58.342C73.8012 58.394 73.7319 58.42 73.6452 58.42H72.8912C72.4839 58.42 72.2065 58.5283 72.0592 58.745C71.9119 58.953 71.8382 59.2563 71.8382 59.655V60.24H73.5152C73.6019 60.24 73.6712 60.2703 73.7232 60.331C73.7752 60.383 73.8012 60.4523 73.8012 60.539V60.981C73.8012 61.0677 73.7752 61.1413 73.7232 61.202C73.6712 61.254 73.6019 61.28 73.5152 61.28H71.8382V66.701C71.8382 66.7877 71.8079 66.8613 71.7472 66.922C71.6952 66.974 71.6259 67 71.5392 67H70.9282ZM75.3303 67C75.2437 67 75.17 66.974 75.1093 66.922C75.0573 66.8613 75.0313 66.7877 75.0313 66.701V60.539C75.0313 60.4523 75.0573 60.383 75.1093 60.331C75.17 60.2703 75.2437 60.24 75.3303 60.24H75.9543C76.041 60.24 76.1103 60.2703 76.1623 60.331C76.2143 60.383 76.2403 60.4523 76.2403 60.539V66.701C76.2403 66.7877 76.2143 66.8613 76.1623 66.922C76.1103 66.974 76.041 67 75.9543 67H75.3303ZM75.2913 59.265C75.1527 59.265 75.0833 59.1957 75.0833 59.057C75.0833 58.9877 75.105 58.9313 75.1483 58.888L76.1233 57.718C76.2013 57.6227 76.2707 57.562 76.3313 57.536C76.392 57.5013 76.483 57.484 76.6043 57.484H77.4883C77.653 57.484 77.7353 57.5663 77.7353 57.731C77.7353 57.7917 77.7137 57.8437 77.6703 57.887L76.1623 59.122C76.093 59.1827 76.028 59.2217 75.9673 59.239C75.9067 59.2563 75.8287 59.265 75.7333 59.265H75.2913ZM80.0648 67.13C79.6314 67.13 79.2371 67.0433 78.8818 66.87C78.5264 66.6967 78.2404 66.4627 78.0238 66.168C77.8071 65.8733 77.6988 65.5397 77.6988 65.167C77.6988 64.569 77.9414 64.0923 78.4268 63.737C78.9121 63.3817 79.5448 63.1477 80.3248 63.035L82.2618 62.762V62.385C82.2618 61.969 82.1404 61.644 81.8978 61.41C81.6638 61.176 81.2781 61.059 80.7408 61.059C80.3508 61.059 80.0344 61.137 79.7918 61.293C79.5578 61.449 79.3931 61.6483 79.2978 61.891C79.2458 62.021 79.1548 62.086 79.0248 62.086H78.4398C78.3444 62.086 78.2708 62.06 78.2188 62.008C78.1754 61.9473 78.1538 61.878 78.1538 61.8C78.1538 61.67 78.2014 61.5097 78.2968 61.319C78.4008 61.1283 78.5568 60.942 78.7648 60.76C78.9728 60.578 79.2371 60.4263 79.5578 60.305C79.8871 60.175 80.2858 60.11 80.7538 60.11C81.2738 60.11 81.7114 60.1793 82.0668 60.318C82.4221 60.448 82.6994 60.6257 82.8988 60.851C83.1068 61.0763 83.2541 61.332 83.3408 61.618C83.4361 61.904 83.4838 62.1943 83.4838 62.489V66.701C83.4838 66.7877 83.4534 66.8613 83.3928 66.922C83.3408 66.974 83.2714 67 83.1848 67H82.5868C82.4914 67 82.4178 66.974 82.3658 66.922C82.3138 66.8613 82.2878 66.7877 82.2878 66.701V66.142C82.1751 66.298 82.0234 66.454 81.8328 66.61C81.6421 66.7573 81.4038 66.883 81.1178 66.987C80.8318 67.0823 80.4808 67.13 80.0648 67.13ZM80.3378 66.155C80.6931 66.155 81.0181 66.0813 81.3128 65.934C81.6074 65.778 81.8371 65.5397 82.0018 65.219C82.1751 64.8983 82.2618 64.4953 82.2618 64.01V63.646L80.7538 63.867C80.1384 63.9537 79.6748 64.101 79.3628 64.309C79.0508 64.5083 78.8948 64.764 78.8948 65.076C78.8948 65.3187 78.9641 65.5223 79.1028 65.687C79.2501 65.843 79.4321 65.96 79.6488 66.038C79.8741 66.116 80.1038 66.155 80.3378 66.155Z" fill="#171B22"/>
<rect x="40.5" y="74" width="37" height="25" rx="12.5" fill="#A677B3"/>
<path d="M53.3417 91.14C52.6697 91.14 52.0864 91.0467 51.5917 90.86C51.097 90.664 50.6864 90.398 50.3597 90.062C50.0424 89.726 49.7997 89.334 49.6317 88.886C49.4637 88.438 49.3657 87.9573 49.3377 87.444C49.3284 87.192 49.319 86.9073 49.3097 86.59C49.3097 86.2633 49.3097 85.9367 49.3097 85.61C49.319 85.274 49.3284 84.9753 49.3377 84.714C49.3657 84.2007 49.4637 83.7247 49.6317 83.286C49.809 82.838 50.061 82.4507 50.3877 82.124C50.7237 81.788 51.1344 81.5267 51.6197 81.34C52.1144 81.1533 52.6884 81.06 53.3417 81.06C54.0044 81.06 54.5784 81.1533 55.0637 81.34C55.549 81.5267 55.955 81.788 56.2817 82.124C56.6177 82.4507 56.8744 82.838 57.0517 83.286C57.229 83.7247 57.327 84.2007 57.3457 84.714C57.3644 84.9753 57.3737 85.274 57.3737 85.61C57.383 85.9367 57.383 86.2633 57.3737 86.59C57.3737 86.9073 57.3644 87.192 57.3457 87.444C57.327 87.9573 57.229 88.438 57.0517 88.886C56.8837 89.334 56.6364 89.726 56.3097 90.062C55.9924 90.398 55.5864 90.664 55.0917 90.86C54.6064 91.0467 54.023 91.14 53.3417 91.14ZM53.3417 89.11C53.827 89.11 54.177 88.956 54.3917 88.648C54.6157 88.3307 54.7324 87.906 54.7417 87.374C54.7604 87.1033 54.7697 86.8187 54.7697 86.52C54.779 86.2213 54.779 85.9227 54.7697 85.624C54.7697 85.3253 54.7604 85.05 54.7417 84.798C54.7324 84.2847 54.6157 83.8693 54.3917 83.552C54.177 83.2347 53.827 83.0713 53.3417 83.062C52.8564 83.0713 52.5064 83.2347 52.2917 83.552C52.077 83.8693 51.9604 84.2847 51.9417 84.798C51.9324 85.05 51.923 85.3253 51.9137 85.624C51.9137 85.9227 51.9137 86.2213 51.9137 86.52C51.923 86.8187 51.9324 87.1033 51.9417 87.374C51.9604 87.906 52.0817 88.3307 52.3057 88.648C52.5297 88.956 52.875 89.11 53.3417 89.11ZM59.6793 91C59.4647 91 59.3573 90.9067 59.3573 90.72C59.3573 90.664 59.376 90.6127 59.4133 90.566L66.3293 81.466C66.3947 81.382 66.46 81.3167 66.5253 81.27C66.5907 81.2233 66.6887 81.2 66.8193 81.2H67.8133C68.028 81.2 68.1353 81.2933 68.1353 81.48C68.1353 81.536 68.1167 81.5873 68.0793 81.634L61.1633 90.734C61.098 90.818 61.0327 90.8833 60.9673 90.93C60.902 90.9767 60.804 91 60.6733 91H59.6793ZM66.7213 91.07C66.0867 91.07 65.578 90.902 65.1953 90.566C64.822 90.23 64.612 89.782 64.5653 89.222C64.556 88.9793 64.5513 88.7647 64.5513 88.578C64.5513 88.3913 64.556 88.1673 64.5653 87.906C64.6027 87.3367 64.8033 86.884 65.1673 86.548C65.5407 86.2027 66.0587 86.03 66.7213 86.03C67.3933 86.03 67.9113 86.2027 68.2753 86.548C68.6393 86.884 68.84 87.3367 68.8773 87.906C68.896 88.1673 68.9053 88.3913 68.9053 88.578C68.9053 88.7647 68.896 88.9793 68.8773 89.222C68.84 89.782 68.63 90.23 68.2473 90.566C67.8647 90.902 67.356 91.07 66.7213 91.07ZM66.7213 89.838C66.88 89.838 67.0013 89.8053 67.0853 89.74C67.1787 89.6747 67.2487 89.5907 67.2953 89.488C67.342 89.376 67.3653 89.2593 67.3653 89.138C67.384 88.9233 67.3933 88.7273 67.3933 88.55C67.3933 88.3727 67.384 88.1813 67.3653 87.976C67.356 87.7987 67.3047 87.64 67.2113 87.5C67.118 87.3507 66.9547 87.276 66.7213 87.276C66.488 87.276 66.3247 87.3507 66.2313 87.5C66.138 87.64 66.0867 87.7987 66.0773 87.976C66.068 88.1813 66.0633 88.3727 66.0633 88.55C66.0633 88.7273 66.068 88.9233 66.0773 89.138C66.0867 89.2593 66.11 89.376 66.1473 89.488C66.194 89.5907 66.264 89.6747 66.3573 89.74C66.4507 89.8053 66.572 89.838 66.7213 89.838ZM60.7993 86.142C60.1553 86.142 59.642 85.9787 59.2593 85.652C58.886 85.316 58.6807 84.868 58.6433 84.308C58.6247 84.0653 58.6153 83.8553 58.6153 83.678C58.6247 83.4913 58.634 83.2673 58.6433 83.006C58.6713 82.4367 58.8673 81.984 59.2313 81.648C59.6047 81.3027 60.1273 81.13 60.7993 81.13C61.4713 81.13 61.9893 81.3027 62.3533 81.648C62.7173 81.984 62.9133 82.4367 62.9413 83.006C62.96 83.2673 62.9693 83.4913 62.9693 83.678C62.9693 83.8553 62.96 84.0653 62.9413 84.308C62.9133 84.868 62.708 85.316 62.3253 85.652C61.9427 85.9787 61.434 86.142 60.7993 86.142ZM60.7993 84.938C60.9487 84.938 61.07 84.9053 61.1633 84.84C61.2567 84.7653 61.3267 84.6767 61.3733 84.574C61.42 84.462 61.4433 84.35 61.4433 84.238C61.462 84.0233 61.4713 83.8273 61.4713 83.65C61.4713 83.4727 61.462 83.2813 61.4433 83.076C61.434 82.8987 61.378 82.74 61.2753 82.6C61.182 82.4507 61.0233 82.376 60.7993 82.376C60.566 82.376 60.398 82.4507 60.2953 82.6C60.202 82.74 60.1507 82.8987 60.1413 83.076C60.132 83.2813 60.1273 83.4727 60.1273 83.65C60.1273 83.8273 60.132 84.0233 60.1413 84.238C60.1507 84.35 60.174 84.462 60.2113 84.574C60.258 84.6767 60.328 84.7653 60.4213 84.84C60.5147 84.9053 60.6407 84.938 60.7993 84.938Z" fill="white"/>
<g filter="url(#filter0_d_15958_19572)">
<rect x="88" y="14" width="32" height="32" rx="16" fill="white"/>
<rect x="87" y="13" width="34" height="34" rx="17" stroke="#1DA534" stroke-width="2"/>
<path opacity="0.4" d="M103.999 32.8401C104.485 32.8401 104.879 33.234 104.879 33.72C104.879 34.206 104.485 34.5999 103.999 34.5999C103.513 34.5998 103.119 34.2059 103.119 33.72C103.119 33.2341 103.513 32.8402 103.999 32.8401Z" fill="#1DA534" stroke="#1DA534" stroke-width="1.5"/>
<path d="M99.3496 28.1899H108.65C110.674 28.19 111.735 28.5109 112.332 29.1079C112.929 29.7049 113.25 30.7662 113.25 32.7896V34.6499C113.25 36.6735 112.929 37.7355 112.332 38.3325C111.735 38.9294 110.673 39.2495 108.65 39.2495H99.3496C97.3266 39.2495 96.265 38.9294 95.668 38.3325C95.0709 37.7355 94.75 36.6735 94.75 34.6499V32.7896C94.75 30.7662 95.0709 29.7049 95.668 29.1079C96.265 28.5109 97.3263 28.19 99.3496 28.1899ZM104 29.9497C101.914 29.9497 100.23 31.6476 100.23 33.7202C100.231 35.7927 101.914 37.4897 104 37.4897C106.086 37.4897 107.769 35.7927 107.77 33.7202C107.77 31.6476 106.086 29.9497 104 29.9497Z" fill="#1DA534" stroke="#1DA534" stroke-width="1.5"/>
<g opacity="0.4">
<mask id="path-15-inside-1_15958_19572" fill="white">
<path d="M99.1207 27.45V26.28C99.1207 23.35 99.9507 21.4 104.001 21.4C108.051 21.4 108.881 23.35 108.881 26.28V27.45C109.391 27.46 109.851 27.48 110.281 27.54V26.28C110.281 23.58 109.631 20 104.001 20C98.3707 20 97.7207 23.58 97.7207 26.28V27.53C98.1407 27.48 98.6107 27.45 99.1207 27.45Z"/>
</mask>
<path d="M99.1207 27.45V26.28C99.1207 23.35 99.9507 21.4 104.001 21.4C108.051 21.4 108.881 23.35 108.881 26.28V27.45C109.391 27.46 109.851 27.48 110.281 27.54V26.28C110.281 23.58 109.631 20 104.001 20C98.3707 20 97.7207 23.58 97.7207 26.28V27.53C98.1407 27.48 98.6107 27.45 99.1207 27.45Z" fill="#1DA534"/>
<path d="M99.1207 27.45V28.95H100.621V27.45H99.1207ZM108.881 27.45H107.381V28.9209L108.851 28.9497L108.881 27.45ZM110.281 27.54L110.073 29.0256L111.781 29.2638V27.54H110.281ZM110.281 26.28H108.781H110.281ZM97.7207 27.53H96.2207V29.2192L97.898 29.0195L97.7207 27.53ZM99.1207 27.45H100.621V26.28H99.1207H97.6207V27.45H99.1207ZM99.1207 26.28H100.621C100.621 24.8831 100.837 24.1294 101.193 23.7033C101.498 23.3385 102.182 22.9 104.001 22.9V21.4V19.9C101.769 19.9 100.014 20.4365 98.8911 21.7792C97.8198 23.0606 97.6207 24.7469 97.6207 26.28H99.1207ZM104.001 21.4V22.9C105.819 22.9 106.504 23.3385 106.809 23.7033C107.165 24.1294 107.381 24.8831 107.381 26.28H108.881H110.381C110.381 24.7469 110.182 23.0606 109.11 21.7792C107.988 20.4365 106.232 19.9 104.001 19.9V21.4ZM108.881 26.28H107.381V27.45H108.881H110.381V26.28H108.881ZM108.881 27.45L108.851 28.9497C109.349 28.9595 109.735 28.9785 110.073 29.0256L110.281 27.54L110.488 26.0544C109.966 25.9815 109.433 25.9605 108.91 25.9503L108.881 27.45ZM110.281 27.54H111.781V26.28H110.281H108.781V27.54H110.281ZM110.281 26.28H111.781C111.781 24.8668 111.625 22.8955 110.479 21.265C109.257 19.5254 107.156 18.5 104.001 18.5V20V21.5C106.475 21.5 107.515 22.2646 108.025 22.99C108.611 23.8245 108.781 24.9932 108.781 26.28H110.281ZM104.001 20V18.5C100.845 18.5 98.7449 19.5254 97.5222 21.265C96.3762 22.8955 96.2207 24.8668 96.2207 26.28H97.7207H99.2207C99.2207 24.9932 99.3902 23.8245 99.9767 22.99C100.487 22.2646 101.526 21.5 104.001 21.5V20ZM97.7207 26.28H96.2207V27.53H97.7207H99.2207V26.28H97.7207ZM97.7207 27.53L97.898 29.0195C98.2582 28.9766 98.669 28.95 99.1207 28.95V27.45V25.95C98.5524 25.95 98.0232 25.9834 97.5434 26.0405L97.7207 27.53Z" fill="#1DA534" mask="url(#path-15-inside-1_15958_19572)"/>
</g>
</g>
<defs>
<filter id="filter0_d_15958_19572" x="71" y="5" width="66" height="66" filterUnits="userSpaceOnUse" color-interpolation-filters="sRGB">
<feFlood flood-opacity="0" result="BackgroundImageFix"/>
<feColorMatrix in="SourceAlpha" type="matrix" values="0 0 0 0 0 0 0 0 0 0 0 0 0 0 0 0 0 0 127 0" result="hardAlpha"/>
<feOffset dy="8"/>
<feGaussianBlur stdDeviation="7.5"/>
<feColorMatrix type="matrix" values="0 0 0 0 0 0 0 0 0 0 0 0 0 0 0 0 0 0 0.25 0"/>
<feBlend mode="normal" in2="BackgroundImageFix" result="effect1_dropShadow_15958_19572"/>
<feBlend mode="normal" in="SourceGraphic" in2="effect1_dropShadow_15958_19572" result="shape"/>
</filter>
<clipPath id="clip0_15958_19572">
<rect width="32" height="32" fill="white" transform="translate(43 19)"/>
</clipPath>
</defs>
</svg>
