<svg width="137" height="118" viewBox="0 0 137 118" fill="none" xmlns="http://www.w3.org/2000/svg">
<rect x="2" y="2" width="114" height="114" rx="57" fill="#E6F7F6"/>
<rect x="2" y="2" width="114" height="114" rx="57" stroke="#02AAA4" stroke-width="4"/>
<g clip-path="url(#clip0_34428_7931)">
<path opacity="0.4" d="M57.8917 14.1665H58.3592C58.4808 14.2096 58.6017 14.2096 58.7232 14.1665H59.971C60.1627 14.2339 60.3635 14.1943 60.5594 14.211C62.5539 14.3777 64.3595 15.0828 66.0553 16.1152C66.8889 16.6223 67.6503 17.2267 68.3402 17.9089C69.5337 19.0886 70.491 20.4412 71.1837 21.9786C71.6971 23.1179 72.0451 24.3038 72.223 25.539C72.3605 26.4949 72.3202 27.4592 72.3084 28.4214C72.298 29.2585 72.1472 30.0769 71.934 30.8835C71.3726 33.0016 70.3611 34.8725 68.8953 36.5037C67.7615 37.7653 66.4311 38.7601 64.9229 39.5174C63.6682 40.1475 62.3406 40.5643 60.9477 40.7616C60.624 40.8075 60.2947 40.7797 59.9716 40.8339H59.6597C59.5729 40.7915 59.4867 40.7915 59.3999 40.8339H58.2564C58.2217 40.8012 58.1869 40.8012 58.1522 40.8339H57.8924C57.4672 40.7713 57.0351 40.7811 56.6106 40.6998C54.8995 40.3733 53.3017 39.7633 51.8282 38.8282C50.9911 38.2968 50.2088 37.6931 49.5183 36.9851C47.4675 34.8822 46.1864 32.384 45.7487 29.4662C45.7077 29.1939 45.7341 28.916 45.6758 28.6458V28.2289C45.7182 28.1247 45.7182 28.0205 45.6758 27.9163V27.0306C45.7182 26.9263 45.7182 26.8221 45.6758 26.7179V26.4053C45.7348 26.1003 45.707 25.7877 45.7543 25.4806C46.1364 23.0234 47.1194 20.8399 48.6999 18.9218C49.8976 17.4678 51.3509 16.3368 53.0245 15.4941C54.2854 14.8605 55.6186 14.434 57.0205 14.2388C57.3095 14.1985 57.6041 14.2228 57.8917 14.1665Z" fill="#017974"/>
<path d="M62.2937 20.1709C62.152 20.1758 62.0242 20.1292 61.8936 20.0785C61.2558 19.8277 60.616 20.1542 60.4875 20.8302C60.2964 21.832 60.1408 22.8407 59.9727 23.8473C59.7205 25.357 59.4711 26.8666 59.2203 28.3762C58.9862 29.7837 58.7548 31.1912 58.5158 32.5973C58.4172 33.176 58.37 33.7672 58.1984 34.3299C57.7364 35.8451 56.0308 36.6232 54.5886 35.991C54.0919 35.7735 53.887 35.3296 54.0745 34.8787C54.2607 34.4313 54.7185 34.2667 55.2215 34.4654C55.9002 34.7335 56.5505 34.3751 56.679 33.6407C56.8499 32.6695 57.0007 31.6955 57.1612 30.7229C57.4106 29.2126 57.66 27.703 57.9107 26.1927C58.1629 24.6747 58.4158 23.1561 58.6694 21.6381C58.7347 21.2463 58.7923 20.8517 58.8743 20.4634C59.2279 18.7933 61.0689 17.8721 62.6084 18.5897C63.217 18.8732 63.3087 19.6429 62.78 20.0264C62.6355 20.1313 62.4723 20.1799 62.2937 20.1716V20.1709Z" fill="#017974"/>
</g>
<path d="M38.7601 56.042C38.7861 56.7787 39.0071 57.368 39.4231 57.81C39.8478 58.2433 40.4371 58.46 41.1911 58.46C41.9538 58.46 42.5171 58.2953 42.8811 57.966C43.2451 57.6367 43.4878 57.212 43.6091 56.692C43.6265 56.6053 43.6655 56.536 43.7261 56.484C43.7955 56.432 43.8691 56.406 43.9471 56.406H44.5451C44.6231 56.406 44.6881 56.4363 44.7401 56.497C44.8008 56.549 44.8311 56.614 44.8311 56.692C44.8138 57.1167 44.6751 57.5587 44.4151 58.018C44.1551 58.4687 43.7521 58.85 43.2061 59.162C42.6688 59.474 41.9971 59.63 41.1911 59.63C40.4631 59.63 39.8261 59.4783 39.2801 59.175C38.7341 58.8717 38.3095 58.4557 38.0061 57.927C37.7115 57.3897 37.5511 56.783 37.5251 56.107C37.5165 55.847 37.5121 55.4613 37.5121 54.95C37.5121 54.4387 37.5165 54.053 37.5251 53.793C37.5511 53.117 37.7115 52.5147 38.0061 51.986C38.3095 51.4487 38.7341 51.0283 39.2801 50.725C39.8261 50.4217 40.4631 50.27 41.1911 50.27C41.9971 50.27 42.6688 50.426 43.2061 50.738C43.7521 51.05 44.1551 51.4357 44.4151 51.895C44.6751 52.3457 44.8138 52.7833 44.8311 53.208C44.8311 53.286 44.8008 53.3553 44.7401 53.416C44.6881 53.468 44.6231 53.494 44.5451 53.494H43.9471C43.8691 53.494 43.7955 53.468 43.7261 53.416C43.6655 53.364 43.6265 53.2947 43.6091 53.208C43.4878 52.688 43.2451 52.2633 42.8811 51.934C42.5171 51.6047 41.9538 51.44 41.1911 51.44C40.4371 51.44 39.8478 51.661 39.4231 52.103C39.0071 52.5363 38.7861 53.1213 38.7601 53.858C38.7515 54.118 38.7471 54.482 38.7471 54.95C38.7471 55.418 38.7515 55.782 38.7601 56.042ZM50.408 55.223V55.054C50.408 54.6293 50.265 54.3043 49.979 54.079C49.7017 53.845 49.3377 53.728 48.887 53.728C48.5403 53.728 48.2673 53.7887 48.068 53.91C47.8773 54.0227 47.6953 54.196 47.522 54.43C47.47 54.4993 47.4137 54.547 47.353 54.573C47.2923 54.599 47.21 54.612 47.106 54.612H46.716C46.6207 54.612 46.534 54.5773 46.456 54.508C46.3867 54.4387 46.3563 54.3563 46.365 54.261C46.391 54.001 46.5167 53.7453 46.742 53.494C46.976 53.234 47.2837 53.0217 47.665 52.857C48.0463 52.6923 48.4537 52.61 48.887 52.61C49.693 52.61 50.343 52.8353 50.837 53.286C51.3397 53.7367 51.591 54.3693 51.591 55.184V59.149C51.591 59.2443 51.5563 59.3267 51.487 59.396C51.4177 59.4653 51.3353 59.5 51.24 59.5H50.759C50.6637 59.5 50.5813 59.4653 50.512 59.396C50.4427 59.3267 50.408 59.2443 50.408 59.149V58.616C50.2693 58.928 49.9747 59.175 49.524 59.357C49.0733 59.539 48.6227 59.63 48.172 59.63C47.73 59.63 47.3357 59.552 46.989 59.396C46.6423 59.2313 46.3737 59.0103 46.183 58.733C46.001 58.4557 45.91 58.1437 45.91 57.797C45.91 57.147 46.1527 56.64 46.638 56.276C47.1233 55.9033 47.769 55.652 48.575 55.522L50.408 55.223ZM50.408 56.263L48.874 56.51C48.3107 56.5967 47.873 56.7397 47.561 56.939C47.249 57.1297 47.093 57.3723 47.093 57.667C47.093 57.8837 47.1927 58.0787 47.392 58.252C47.5913 58.4253 47.8947 58.512 48.302 58.512C48.926 58.512 49.433 58.3343 49.823 57.979C50.213 57.6237 50.408 57.16 50.408 56.588V56.263ZM49.29 50.192C49.3853 50.088 49.4633 50.023 49.524 49.997C49.5847 49.9623 49.667 49.945 49.771 49.945H50.733C50.811 49.945 50.8717 49.971 50.915 50.023C50.9583 50.0663 50.98 50.127 50.98 50.205C50.98 50.2657 50.9583 50.3177 50.915 50.361L49.472 51.544C49.3767 51.622 49.29 51.6783 49.212 51.713C49.1427 51.7477 49.0473 51.765 48.926 51.765H48.445C48.3063 51.765 48.237 51.6957 48.237 51.557C48.237 51.4877 48.2587 51.4313 48.302 51.388L49.29 50.192ZM54.6707 59.149C54.6707 59.2443 54.636 59.3267 54.5667 59.396C54.4974 59.4653 54.415 59.5 54.3197 59.5H53.8387C53.7434 59.5 53.661 59.4653 53.5917 59.396C53.5224 59.3267 53.4877 59.2443 53.4877 59.149V50.621C53.4877 50.5257 53.5224 50.4433 53.5917 50.374C53.661 50.3047 53.7434 50.27 53.8387 50.27H54.3197C54.415 50.27 54.4974 50.3047 54.5667 50.374C54.636 50.4433 54.6707 50.5257 54.6707 50.621V59.149ZM59.3534 58.512C60.2201 58.512 60.8051 58.174 61.1084 57.498C61.1691 57.368 61.2298 57.277 61.2904 57.225C61.3511 57.173 61.4334 57.147 61.5374 57.147H61.9274C62.0228 57.147 62.1051 57.1817 62.1744 57.251C62.2438 57.3117 62.2784 57.3853 62.2784 57.472C62.2784 57.7667 62.1614 58.083 61.9274 58.421C61.6934 58.759 61.3554 59.045 60.9134 59.279C60.4714 59.513 59.9514 59.63 59.3534 59.63C58.7381 59.63 58.2051 59.5 57.7544 59.24C57.3038 58.98 56.9571 58.6247 56.7144 58.174C56.4718 57.7147 56.3374 57.2033 56.3114 56.64C56.3028 56.536 56.2984 56.3367 56.2984 56.042C56.2984 55.834 56.3028 55.6867 56.3114 55.6C56.3894 54.716 56.6884 53.9967 57.2084 53.442C57.7284 52.8873 58.4434 52.61 59.3534 52.61C59.9514 52.61 60.4671 52.727 60.9004 52.961C61.3424 53.1863 61.6761 53.468 61.9014 53.806C62.1354 54.1353 62.2611 54.4473 62.2784 54.742C62.2871 54.8373 62.2524 54.9197 62.1744 54.989C62.1051 55.0583 62.0228 55.093 61.9274 55.093H61.5374C61.4334 55.093 61.3511 55.067 61.2904 55.015C61.2298 54.963 61.1691 54.872 61.1084 54.742C60.8051 54.066 60.2201 53.728 59.3534 53.728C58.8768 53.728 58.4608 53.8883 58.1054 54.209C57.7501 54.5297 57.5464 55.015 57.4944 55.665C57.4858 55.7603 57.4814 55.9163 57.4814 56.133C57.4814 56.3323 57.4858 56.4797 57.4944 56.575C57.5551 57.225 57.7588 57.7103 58.1054 58.031C58.4608 58.3517 58.8768 58.512 59.3534 58.512ZM63.7694 53.091C63.7694 52.9957 63.804 52.9133 63.8734 52.844C63.9427 52.7747 64.025 52.74 64.1204 52.74H64.6014C64.6967 52.74 64.779 52.7747 64.8484 52.844C64.9177 52.9133 64.9524 52.9957 64.9524 53.091V56.523C64.9524 57.1817 65.0997 57.68 65.3944 58.018C65.6977 58.3473 66.1354 58.512 66.7074 58.512C67.262 58.512 67.691 58.343 67.9944 58.005C68.3064 57.667 68.4624 57.173 68.4624 56.523V53.091C68.4624 52.9957 68.497 52.9133 68.5664 52.844C68.6357 52.7747 68.718 52.74 68.8134 52.74H69.2944C69.3897 52.74 69.472 52.7747 69.5414 52.844C69.6107 52.9133 69.6454 52.9957 69.6454 53.091V59.149C69.6454 59.2443 69.6107 59.3267 69.5414 59.396C69.472 59.4653 69.3897 59.5 69.2944 59.5H68.8134C68.718 59.5 68.6357 59.4653 68.5664 59.396C68.497 59.3267 68.4624 59.2443 68.4624 59.149V58.746C68.0117 59.3353 67.3617 59.63 66.5124 59.63C65.6804 59.63 65.013 59.37 64.5104 58.85C64.0164 58.33 63.7694 57.6193 63.7694 56.718V53.091ZM72.7742 59.149C72.7742 59.2443 72.7395 59.3267 72.6702 59.396C72.6009 59.4653 72.5185 59.5 72.4232 59.5H71.9422C71.8469 59.5 71.7645 59.4653 71.6952 59.396C71.6259 59.3267 71.5912 59.2443 71.5912 59.149V50.621C71.5912 50.5257 71.6259 50.4433 71.6952 50.374C71.7645 50.3047 71.8469 50.27 71.9422 50.27H72.4232C72.5185 50.27 72.6009 50.3047 72.6702 50.374C72.7395 50.4433 72.7742 50.5257 72.7742 50.621V59.149ZM80.577 55.509C80.5943 55.6997 80.603 55.9077 80.603 56.133C80.603 56.341 80.5943 56.5403 80.577 56.731C80.499 57.615 80.1913 58.3213 79.654 58.85C79.1253 59.37 78.406 59.63 77.496 59.63C76.586 59.63 75.8623 59.37 75.325 58.85C74.7963 58.3213 74.493 57.615 74.415 56.731C74.4063 56.6357 74.402 56.4363 74.402 56.133C74.402 55.8123 74.4063 55.6043 74.415 55.509C74.4843 54.625 74.7876 53.923 75.325 53.403C75.8623 52.8743 76.586 52.61 77.496 52.61C78.406 52.61 79.1296 52.8743 79.667 53.403C80.2043 53.923 80.5076 54.625 80.577 55.509ZM79.394 55.574C79.342 55.0193 79.1556 54.573 78.835 54.235C78.523 53.897 78.0766 53.728 77.496 53.728C76.9153 53.728 76.4646 53.897 76.144 54.235C75.832 54.573 75.65 55.0193 75.598 55.574C75.5893 55.678 75.585 55.8643 75.585 56.133C75.585 56.393 75.5893 56.5707 75.598 56.666C75.65 57.2207 75.832 57.667 76.144 58.005C76.4646 58.343 76.9153 58.512 77.496 58.512C78.0766 58.512 78.523 58.343 78.835 58.005C79.1556 57.667 79.342 57.2207 79.394 56.666C79.4113 56.4753 79.42 56.2977 79.42 56.133C79.42 55.9683 79.4113 55.782 79.394 55.574ZM37.1096 74.5C37.0143 74.5 36.932 74.4653 36.8626 74.396C36.7933 74.3267 36.7586 74.2443 36.7586 74.149V65.751C36.7586 65.6557 36.7933 65.5733 36.8626 65.504C36.932 65.4347 37.0143 65.4 37.1096 65.4H37.6426C37.738 65.4 37.8203 65.4347 37.8896 65.504C37.959 65.5733 37.9936 65.6557 37.9936 65.751V74.149C37.9936 74.2443 37.959 74.3267 37.8896 74.396C37.8203 74.4653 37.738 74.5 37.6426 74.5H37.1096ZM46.0874 74.149C46.0874 74.2443 46.0528 74.3267 45.9834 74.396C45.9141 74.4653 45.8318 74.5 45.7364 74.5H45.2554C45.1601 74.5 45.0778 74.4653 45.0084 74.396C44.9391 74.3267 44.9044 74.2443 44.9044 74.149V70.717C44.9044 70.067 44.7441 69.573 44.4234 69.235C44.1028 68.897 43.6564 68.728 43.0844 68.728C42.5211 68.728 42.0748 68.897 41.7454 69.235C41.4248 69.573 41.2644 70.067 41.2644 70.717V74.149C41.2644 74.2443 41.2298 74.3267 41.1604 74.396C41.0911 74.4653 41.0088 74.5 40.9134 74.5H40.4324C40.3371 74.5 40.2548 74.4653 40.1854 74.396C40.1161 74.3267 40.0814 74.2443 40.0814 74.149V68.091C40.0814 67.9957 40.1161 67.9133 40.1854 67.844C40.2548 67.7747 40.3371 67.74 40.4324 67.74H40.9134C41.0088 67.74 41.0911 67.7747 41.1604 67.844C41.2298 67.9133 41.2644 67.9957 41.2644 68.091V68.494C41.4551 68.2427 41.7151 68.0347 42.0444 67.87C42.3824 67.6967 42.7941 67.61 43.2794 67.61C43.8254 67.61 44.3108 67.727 44.7354 67.961C45.1601 68.195 45.4894 68.533 45.7234 68.975C45.9661 69.4083 46.0874 69.924 46.0874 70.522V74.149ZM49.7459 72.225C49.7459 72.5977 49.8196 72.8837 49.9669 73.083C50.1229 73.2823 50.4133 73.382 50.8379 73.382H51.5269C51.6223 73.382 51.7046 73.4167 51.7739 73.486C51.8433 73.5553 51.8779 73.6377 51.8779 73.733V74.149C51.8779 74.2443 51.8433 74.3267 51.7739 74.396C51.7046 74.4653 51.6223 74.5 51.5269 74.5H50.7079C49.9713 74.5 49.4296 74.3093 49.0829 73.928C48.7363 73.538 48.5629 72.9703 48.5629 72.225V68.858H47.6009C47.5056 68.858 47.4233 68.8233 47.3539 68.754C47.2846 68.6847 47.2499 68.6023 47.2499 68.507V68.091C47.2499 67.9957 47.2846 67.9133 47.3539 67.844C47.4233 67.7747 47.5056 67.74 47.6009 67.74H48.5629V65.621C48.5629 65.5257 48.5976 65.4433 48.6669 65.374C48.7363 65.3047 48.8186 65.27 48.9139 65.27H49.3949C49.4903 65.27 49.5726 65.3047 49.6419 65.374C49.7113 65.4433 49.7459 65.5257 49.7459 65.621V67.74H51.3969C51.4923 67.74 51.5746 67.7747 51.6439 67.844C51.7133 67.9133 51.7479 67.9957 51.7479 68.091V68.507C51.7479 68.6023 51.7133 68.6847 51.6439 68.754C51.5746 68.8233 51.4923 68.858 51.3969 68.858H49.7459V72.225ZM55.848 67.61C56.7753 67.61 57.5077 67.9047 58.045 68.494C58.5823 69.0833 58.851 69.885 58.851 70.899V71.25C58.851 71.3453 58.8163 71.4277 58.747 71.497C58.6777 71.5663 58.5953 71.601 58.5 71.601H54.028V71.679C54.0453 72.251 54.2187 72.7017 54.548 73.031C54.886 73.3517 55.3193 73.512 55.848 73.512C56.2813 73.512 56.615 73.4557 56.849 73.343C57.0917 73.2303 57.3083 73.07 57.499 72.862C57.5683 72.7927 57.629 72.745 57.681 72.719C57.7417 72.693 57.8197 72.68 57.915 72.68H58.305C58.409 72.68 58.4957 72.7147 58.565 72.784C58.6343 72.8533 58.6647 72.9357 58.656 73.031C58.6213 73.265 58.4913 73.5077 58.266 73.759C58.0493 74.0017 57.733 74.2097 57.317 74.383C56.9097 74.5477 56.42 74.63 55.848 74.63C55.2933 74.63 54.7993 74.5043 54.366 74.253C53.9327 73.993 53.586 73.6377 53.326 73.187C53.0747 72.7363 52.923 72.2293 52.871 71.666C52.8537 71.406 52.845 71.2067 52.845 71.068C52.845 70.9293 52.8537 70.73 52.871 70.47C52.923 69.9327 53.0747 69.4473 53.326 69.014C53.586 68.5807 53.9283 68.2383 54.353 67.987C54.7863 67.7357 55.2847 67.61 55.848 67.61ZM57.681 70.509V70.47C57.681 69.9413 57.512 69.521 57.174 69.209C56.8447 68.8883 56.4027 68.728 55.848 68.728C55.3453 68.728 54.9163 68.8883 54.561 69.209C54.2143 69.5297 54.0367 69.95 54.028 70.47V70.509H57.681ZM63.0453 67.61C63.5307 67.61 63.938 67.6967 64.2673 67.87C64.6053 68.0347 64.8697 68.2427 65.0603 68.494V68.091C65.0603 67.9957 65.095 67.9133 65.1643 67.844C65.2337 67.7747 65.316 67.74 65.4113 67.74H65.8923C65.9877 67.74 66.07 67.7747 66.1393 67.844C66.2087 67.9133 66.2433 67.9957 66.2433 68.091V74.409C66.2433 75.3277 65.9833 76.047 65.4633 76.567C64.9433 77.0957 64.1807 77.36 63.1753 77.36C62.5253 77.36 61.9793 77.2603 61.5373 77.061C61.0953 76.8617 60.766 76.6147 60.5493 76.32C60.3413 76.0253 60.2287 75.7263 60.2113 75.423C60.2027 75.3277 60.233 75.2453 60.3023 75.176C60.3803 75.1067 60.467 75.072 60.5623 75.072H60.9523C61.0563 75.072 61.1387 75.098 61.1993 75.15C61.26 75.202 61.3207 75.293 61.3813 75.423C61.468 75.6223 61.6327 75.8087 61.8753 75.982C62.118 76.1553 62.508 76.242 63.0453 76.242C64.3887 76.242 65.0603 75.683 65.0603 74.565V73.746C64.6183 74.3353 63.9467 74.63 63.0453 74.63C62.508 74.63 62.0183 74.5043 61.5763 74.253C61.143 74.0017 60.792 73.6463 60.5233 73.187C60.2633 72.719 60.1203 72.173 60.0943 71.549L60.0813 71.12L60.0943 70.691C60.1203 70.067 60.2633 69.5253 60.5233 69.066C60.792 68.598 61.143 68.2383 61.5763 67.987C62.0097 67.7357 62.4993 67.61 63.0453 67.61ZM63.1753 68.728C62.612 68.728 62.1613 68.91 61.8233 69.274C61.494 69.638 61.312 70.132 61.2773 70.756L61.2643 71.12L61.2773 71.484C61.312 72.108 61.494 72.602 61.8233 72.966C62.1613 73.33 62.612 73.512 63.1753 73.512C63.73 73.512 64.1763 73.343 64.5143 73.005C64.8523 72.6583 65.0343 72.186 65.0603 71.588C65.069 71.5013 65.0733 71.3453 65.0733 71.12C65.0733 70.8947 65.069 70.7387 65.0603 70.652C65.0343 70.0453 64.8523 69.573 64.5143 69.235C64.1763 68.897 63.73 68.728 63.1753 68.728ZM71.6209 67.74C71.7162 67.74 71.7985 67.7747 71.8679 67.844C71.9372 67.9133 71.9719 67.9957 71.9719 68.091V68.507C71.9719 68.6023 71.9372 68.6847 71.8679 68.754C71.7985 68.8233 71.7162 68.858 71.6209 68.858H70.8669C70.3815 68.858 70.0089 68.988 69.7489 69.248C69.4975 69.4993 69.3719 69.8677 69.3719 70.353V74.149C69.3719 74.2443 69.3372 74.3267 69.2679 74.396C69.1985 74.4653 69.1162 74.5 69.0209 74.5H68.5399C68.4445 74.5 68.3622 74.4653 68.2929 74.396C68.2235 74.3267 68.1889 74.2443 68.1889 74.149V68.091C68.1889 67.9957 68.2235 67.9133 68.2929 67.844C68.3622 67.7747 68.4445 67.74 68.5399 67.74H69.0209C69.1162 67.74 69.1985 67.7747 69.2679 67.844C69.3372 67.9133 69.3719 67.9957 69.3719 68.091V68.494C69.5452 68.234 69.7532 68.0433 69.9959 67.922C70.2385 67.8007 70.5549 67.74 70.9449 67.74H71.6209ZM77.119 70.223V70.054C77.119 69.6293 76.976 69.3043 76.69 69.079C76.4126 68.845 76.0486 68.728 75.598 68.728C75.2513 68.728 74.9783 68.7887 74.779 68.91C74.5883 69.0227 74.4063 69.196 74.233 69.43C74.181 69.4993 74.1246 69.547 74.064 69.573C74.0033 69.599 73.921 69.612 73.817 69.612H73.427C73.3316 69.612 73.245 69.5773 73.167 69.508C73.0976 69.4387 73.0673 69.3563 73.076 69.261C73.102 69.001 73.2276 68.7453 73.453 68.494C73.687 68.234 73.9946 68.0217 74.376 67.857C74.7573 67.6923 75.1646 67.61 75.598 67.61C76.404 67.61 77.054 67.8353 77.548 68.286C78.0506 68.7367 78.302 69.3693 78.302 70.184V74.149C78.302 74.2443 78.2673 74.3267 78.198 74.396C78.1286 74.4653 78.0463 74.5 77.951 74.5H77.47C77.3746 74.5 77.2923 74.4653 77.223 74.396C77.1536 74.3267 77.119 74.2443 77.119 74.149V73.616C76.9803 73.928 76.6856 74.175 76.235 74.357C75.7843 74.539 75.3336 74.63 74.883 74.63C74.441 74.63 74.0466 74.552 73.7 74.396C73.3533 74.2313 73.0846 74.0103 72.894 73.733C72.712 73.4557 72.621 73.1437 72.621 72.797C72.621 72.147 72.8636 71.64 73.349 71.276C73.8343 70.9033 74.48 70.652 75.286 70.522L77.119 70.223ZM77.119 71.263L75.585 71.51C75.0216 71.5967 74.584 71.7397 74.272 71.939C73.96 72.1297 73.804 72.3723 73.804 72.667C73.804 72.8837 73.9036 73.0787 74.103 73.252C74.3023 73.4253 74.6056 73.512 75.013 73.512C75.637 73.512 76.144 73.3343 76.534 72.979C76.924 72.6237 77.119 72.16 77.119 71.588V71.263ZM81.3816 74.149C81.3816 74.2443 81.347 74.3267 81.2776 74.396C81.2083 74.4653 81.126 74.5 81.0306 74.5H80.5496C80.4543 74.5 80.372 74.4653 80.3026 74.396C80.2333 74.3267 80.1986 74.2443 80.1986 74.149V65.621C80.1986 65.5257 80.2333 65.4433 80.3026 65.374C80.372 65.3047 80.4543 65.27 80.5496 65.27H81.0306C81.126 65.27 81.2083 65.3047 81.2776 65.374C81.347 65.4433 81.3816 65.5257 81.3816 65.621V74.149Z" fill="#171B22"/>
<rect x="40" y="81.5" width="38" height="25" rx="12.5" fill="#017974"/>
<path d="M57.1579 92.354C57.1766 92.6153 57.1859 93.0353 57.1859 93.614C57.1859 94.1833 57.1766 94.594 57.1579 94.846C57.0926 95.9567 56.7239 96.8667 56.0519 97.576C55.3892 98.2853 54.3952 98.64 53.0699 98.64C51.7446 98.64 50.7459 98.2853 50.0739 97.576C49.4112 96.8667 49.0472 95.9567 48.9819 94.846C48.9632 94.342 48.9539 93.9313 48.9539 93.614C48.9539 93.2967 48.9632 92.8767 48.9819 92.354C49.0472 91.2433 49.4112 90.3333 50.0739 89.624C50.7459 88.9147 51.7446 88.56 53.0699 88.56C54.3952 88.56 55.3892 88.9147 56.0519 89.624C56.7239 90.3333 57.0926 91.2433 57.1579 92.354ZM54.5679 92.424C54.5399 91.9107 54.4139 91.514 54.1899 91.234C53.9659 90.9447 53.5926 90.8 53.0699 90.8C52.5472 90.8 52.1739 90.9447 51.9499 91.234C51.7259 91.514 51.5999 91.9107 51.5719 92.424C51.5532 92.928 51.5439 93.3153 51.5439 93.586C51.5439 93.838 51.5532 94.2347 51.5719 94.776C51.5906 95.2893 51.7119 95.6907 51.9359 95.98C52.1692 96.26 52.5472 96.4 53.0699 96.4C53.5926 96.4 53.9659 96.26 54.1899 95.98C54.4232 95.6907 54.5492 95.2893 54.5679 94.776C54.5866 94.5053 54.5959 94.1087 54.5959 93.586C54.5959 93.0633 54.5866 92.676 54.5679 92.424ZM62.7646 91.682C62.7366 92.27 62.5359 92.7507 62.1626 93.124C61.7986 93.488 61.2666 93.67 60.5666 93.67C59.8666 93.67 59.3346 93.488 58.9706 93.124C58.6159 92.76 58.4152 92.2793 58.3686 91.682C58.3592 91.5607 58.3546 91.388 58.3546 91.164C58.3546 90.9307 58.3592 90.7487 58.3686 90.618C58.4152 90.0207 58.6159 89.54 58.9706 89.176C59.3346 88.812 59.8666 88.63 60.5666 88.63C61.2666 88.63 61.7939 88.812 62.1486 89.176C62.5126 89.54 62.7179 90.0207 62.7646 90.618C62.7832 90.8793 62.7926 91.0613 62.7926 91.164C62.7926 91.2667 62.7832 91.4393 62.7646 91.682ZM66.2646 88.966C66.3392 88.8727 66.4092 88.8073 66.4746 88.77C66.5492 88.7233 66.6472 88.7 66.7686 88.7H67.9166C68.0192 88.7 68.0986 88.728 68.1546 88.784C68.2199 88.8307 68.2526 88.896 68.2526 88.98C68.2526 89.036 68.2339 89.0873 68.1966 89.134L61.2806 98.234C61.2059 98.3273 61.1312 98.3973 61.0566 98.444C60.9912 98.4813 60.8979 98.5 60.7766 98.5H59.6286C59.5259 98.5 59.4419 98.4767 59.3766 98.43C59.3206 98.374 59.2926 98.304 59.2926 98.22C59.2926 98.164 59.3112 98.1127 59.3486 98.066L66.2646 88.966ZM60.5666 92.34C60.7626 92.34 60.9026 92.284 60.9866 92.172C61.0706 92.06 61.1219 91.8733 61.1406 91.612C61.1592 91.388 61.1686 91.234 61.1686 91.15C61.1686 91.0473 61.1592 90.8933 61.1406 90.688C61.1219 90.4267 61.0706 90.24 60.9866 90.128C60.9026 90.016 60.7626 89.96 60.5666 89.96C60.3706 89.96 60.2306 90.016 60.1466 90.128C60.0626 90.24 60.0112 90.4267 59.9926 90.688C59.9832 90.7907 59.9786 90.9447 59.9786 91.15C59.9786 91.346 59.9832 91.5 59.9926 91.612C60.0112 91.8733 60.0626 92.06 60.1466 92.172C60.2306 92.284 60.3706 92.34 60.5666 92.34ZM69.2606 96.582C69.2326 97.17 69.0319 97.6507 68.6586 98.024C68.2946 98.388 67.7626 98.57 67.0626 98.57C66.3626 98.57 65.8306 98.388 65.4666 98.024C65.1119 97.66 64.9112 97.1793 64.8646 96.582C64.8552 96.4607 64.8506 96.288 64.8506 96.064C64.8506 95.8307 64.8552 95.6487 64.8646 95.518C64.9112 94.9207 65.1119 94.44 65.4666 94.076C65.8306 93.712 66.3626 93.53 67.0626 93.53C67.7626 93.53 68.2899 93.712 68.6446 94.076C69.0086 94.44 69.2139 94.9207 69.2606 95.518C69.2792 95.7793 69.2886 95.9613 69.2886 96.064C69.2886 96.1667 69.2792 96.3393 69.2606 96.582ZM67.0626 97.24C67.2586 97.24 67.3986 97.184 67.4826 97.072C67.5666 96.96 67.6179 96.7733 67.6366 96.512C67.6552 96.288 67.6646 96.134 67.6646 96.05C67.6646 95.9473 67.6552 95.7933 67.6366 95.588C67.6179 95.3267 67.5666 95.14 67.4826 95.028C67.3986 94.916 67.2586 94.86 67.0626 94.86C66.8666 94.86 66.7266 94.916 66.6426 95.028C66.5586 95.14 66.5072 95.3267 66.4886 95.588C66.4792 95.6907 66.4746 95.8447 66.4746 96.05C66.4746 96.246 66.4792 96.4 66.4886 96.512C66.5072 96.7733 66.5586 96.96 66.6426 97.072C66.7266 97.184 66.8666 97.24 67.0626 97.24Z" fill="white"/>
<g filter="url(#filter0_d_34428_7931)">
<rect x="88" y="14" width="32" height="32" rx="16" fill="white"/>
<rect x="87" y="13" width="34" height="34" rx="17" stroke="#1DA534" stroke-width="2"/>
<path opacity="0.4" d="M104 40C109.523 40 114 35.5228 114 30C114 24.4772 109.523 20 104 20C98.4772 20 94 24.4772 94 30C94 35.5228 98.4772 40 104 40Z" fill="#1DA534"/>
<path d="M102.579 33.5801C102.379 33.5801 102.189 33.5001 102.049 33.3601L99.2195 30.5301C98.9295 30.2401 98.9295 29.7601 99.2195 29.4701C99.5095 29.1801 99.9895 29.1801 100.279 29.4701L102.579 31.7701L107.719 26.6301C108.009 26.3401 108.489 26.3401 108.779 26.6301C109.069 26.9201 109.069 27.4001 108.779 27.6901L103.109 33.3601C102.969 33.5001 102.779 33.5801 102.579 33.5801Z" fill="#1DA534"/>
</g>
<defs>
<filter id="filter0_d_34428_7931" x="71" y="5" width="66" height="66" filterUnits="userSpaceOnUse" color-interpolation-filters="sRGB">
<feFlood flood-opacity="0" result="BackgroundImageFix"/>
<feColorMatrix in="SourceAlpha" type="matrix" values="0 0 0 0 0 0 0 0 0 0 0 0 0 0 0 0 0 0 127 0" result="hardAlpha"/>
<feOffset dy="8"/>
<feGaussianBlur stdDeviation="7.5"/>
<feColorMatrix type="matrix" values="0 0 0 0 0 0 0 0 0 0 0 0 0 0 0 0 0 0 0.25 0"/>
<feBlend mode="normal" in2="BackgroundImageFix" result="effect1_dropShadow_34428_7931"/>
<feBlend mode="normal" in="SourceGraphic" in2="effect1_dropShadow_34428_7931" result="shape"/>
</filter>
<clipPath id="clip0_34428_7931">
<rect width="26.6472" height="26.6667" fill="white" transform="translate(45.6758 14.1665)"/>
</clipPath>
</defs>
</svg>
