<svg width="133" height="118" viewBox="0 0 133 118" fill="none" xmlns="http://www.w3.org/2000/svg">
<rect x="2" y="2" width="114" height="114" rx="57" fill="#1E242D"/>
<rect x="2" y="2" width="114" height="114" rx="57" stroke="#374151" stroke-width="4"/>
<path opacity="0.4" d="M63.6023 14.5H53.7977C49.5389 14.5 47 17.321 47 22.053V32.947C47 37.679 49.5389 40.5 53.7977 40.5H63.6023C67.8611 40.5 70.4 37.679 70.4 32.947V22.053C70.4 17.321 67.8611 14.5 63.6023 14.5Z" fill="#5F6774"/>
<path d="M59.9996 26.1999C59.9996 26.9106 59.4912 27.4999 58.8441 27.4999H50.7552C50.1235 27.4999 49.5996 26.9106 49.5996 26.1999C49.5996 25.4892 50.1235 24.8999 50.7552 24.8999H58.8441C59.4912 24.8999 59.9996 25.4892 59.9996 26.1999Z" fill="#5F6774"/>
<path d="M62.5996 21.0002C62.5996 21.7109 61.9641 22.3002 61.1552 22.3002H51.0441C50.2544 22.3002 49.5996 21.7109 49.5996 21.0002C49.5996 20.2895 50.2544 19.7002 51.0441 19.7002H61.1552C61.9641 19.7002 62.5996 20.2895 62.5996 21.0002Z" fill="#5F6774"/>
<path d="M67.2566 22.7427C68.0238 23.185 67.9532 23.3074 67.3746 24.3113L60.2332 36.7004C59.6683 37.6803 58.1676 38.5106 58.1676 38.5106C58.1676 38.5106 58.1339 36.7958 58.6988 35.8159L65.8402 23.4267C66.4189 22.4228 66.4894 22.3005 67.2566 22.7427Z" fill="#5F6774"/>
<rect x="58.6992" y="35.8154" width="1.3" height="1.77107" transform="rotate(-60.0398 58.6992 35.8154)" fill="#DEE2E6"/>
<rect x="65.1914" y="24.5527" width="1.3" height="1.77107" transform="rotate(-60.0398 65.1914 24.5527)" fill="#DEE2E6"/>
<path d="M57.3996 31.4001C57.3996 32.1108 57.0183 32.7001 56.5329 32.7001H50.4663C49.9925 32.7001 49.5996 32.1108 49.5996 31.4001C49.5996 30.6894 49.9925 30.1001 50.4663 30.1001H56.5329C57.0183 30.1001 57.3996 30.6894 57.3996 31.4001Z" fill="#5F6774"/>
<path d="M30.2644 50.4C31.1744 50.4 31.9241 50.6253 32.5134 51.076C33.1027 51.518 33.3974 52.1897 33.3974 53.091C33.3974 53.767 33.2284 54.3173 32.8904 54.742C32.5524 55.1667 32.0974 55.47 31.5254 55.652L33.4884 59.071C33.5144 59.123 33.5274 59.1707 33.5274 59.214C33.5274 59.292 33.4971 59.3613 33.4364 59.422C33.3844 59.474 33.3194 59.5 33.2414 59.5H32.6824C32.4397 59.5 32.2534 59.383 32.1234 59.149L30.2384 55.834H28.0024V59.149C28.0024 59.2443 27.9677 59.3267 27.8984 59.396C27.8291 59.4653 27.7467 59.5 27.6514 59.5H27.1184C27.0231 59.5 26.9407 59.4653 26.8714 59.396C26.8021 59.3267 26.7674 59.2443 26.7674 59.149V50.751C26.7674 50.6557 26.8021 50.5733 26.8714 50.504C26.9407 50.4347 27.0231 50.4 27.1184 50.4H30.2644ZM30.1994 54.664C31.5081 54.664 32.1624 54.1397 32.1624 53.091C32.1624 52.5537 31.9977 52.168 31.6684 51.934C31.3391 51.6913 30.8494 51.57 30.1994 51.57H28.0024V54.664H30.1994ZM37.7572 52.61C38.6845 52.61 39.4169 52.9047 39.9542 53.494C40.4915 54.0833 40.7602 54.885 40.7602 55.899V56.25C40.7602 56.3453 40.7255 56.4277 40.6562 56.497C40.5869 56.5663 40.5045 56.601 40.4092 56.601H35.9372V56.679C35.9545 57.251 36.1279 57.7017 36.4572 58.031C36.7952 58.3517 37.2285 58.512 37.7572 58.512C38.1905 58.512 38.5242 58.4557 38.7582 58.343C39.0009 58.2303 39.2175 58.07 39.4082 57.862C39.4775 57.7927 39.5382 57.745 39.5902 57.719C39.6509 57.693 39.7289 57.68 39.8242 57.68H40.2142C40.3182 57.68 40.4049 57.7147 40.4742 57.784C40.5435 57.8533 40.5739 57.9357 40.5652 58.031C40.5305 58.265 40.4005 58.5077 40.1752 58.759C39.9585 59.0017 39.6422 59.2097 39.2262 59.383C38.8189 59.5477 38.3292 59.63 37.7572 59.63C37.2025 59.63 36.7085 59.5043 36.2752 59.253C35.8419 58.993 35.4952 58.6377 35.2352 58.187C34.9839 57.7363 34.8322 57.2293 34.7802 56.666C34.7629 56.406 34.7542 56.2067 34.7542 56.068C34.7542 55.9293 34.7629 55.73 34.7802 55.47C34.8322 54.9327 34.9839 54.4473 35.2352 54.014C35.4952 53.5807 35.8375 53.2383 36.2622 52.987C36.6955 52.7357 37.1939 52.61 37.7572 52.61ZM39.5902 55.509V55.47C39.5902 54.9413 39.4212 54.521 39.0832 54.209C38.7539 53.8883 38.3119 53.728 37.7572 53.728C37.2545 53.728 36.8255 53.8883 36.4702 54.209C36.1235 54.5297 35.9459 54.95 35.9372 55.47V55.509H39.5902ZM46.9695 50.621C46.9695 50.5257 47.0042 50.4433 47.0735 50.374C47.1428 50.3047 47.2252 50.27 47.3205 50.27H47.8015C47.8968 50.27 47.9792 50.3047 48.0485 50.374C48.1178 50.4433 48.1525 50.5257 48.1525 50.621V59.149C48.1525 59.2443 48.1178 59.3267 48.0485 59.396C47.9792 59.4653 47.8968 59.5 47.8015 59.5H47.3205C47.2252 59.5 47.1428 59.4653 47.0735 59.396C47.0042 59.3267 46.9695 59.2443 46.9695 59.149V58.746C46.5275 59.3353 45.8558 59.63 44.9545 59.63C44.4172 59.63 43.9275 59.5043 43.4855 59.253C43.0522 59.0017 42.7012 58.642 42.4325 58.174C42.1725 57.706 42.0295 57.16 42.0035 56.536L41.9905 56.107L42.0035 55.691C42.0295 55.067 42.1725 54.5253 42.4325 54.066C42.7012 53.598 43.0522 53.2383 43.4855 52.987C43.9188 52.7357 44.4085 52.61 44.9545 52.61C45.4398 52.61 45.8472 52.6967 46.1765 52.87C46.5145 53.0347 46.7788 53.2427 46.9695 53.494V50.621ZM46.9695 55.652C46.9435 55.0453 46.7615 54.573 46.4235 54.235C46.0855 53.897 45.6392 53.728 45.0845 53.728C44.5212 53.728 44.0705 53.91 43.7325 54.274C43.4032 54.638 43.2212 55.132 43.1865 55.756L43.1735 56.12L43.1865 56.484C43.2212 57.108 43.4032 57.602 43.7325 57.966C44.0705 58.33 44.5212 58.512 45.0845 58.512C45.6218 58.512 46.0638 58.3473 46.4105 58.018C46.7572 57.68 46.9435 57.2337 46.9695 56.679C46.9782 56.5923 46.9825 56.419 46.9825 56.159C46.9825 55.9077 46.9782 55.7387 46.9695 55.652ZM54.115 55.223V55.054C54.115 54.6293 53.972 54.3043 53.686 54.079C53.4087 53.845 53.0447 53.728 52.594 53.728C52.2474 53.728 51.9744 53.7887 51.775 53.91C51.5844 54.0227 51.4024 54.196 51.229 54.43C51.177 54.4993 51.1207 54.547 51.06 54.573C50.9994 54.599 50.917 54.612 50.813 54.612H50.423C50.3277 54.612 50.241 54.5773 50.163 54.508C50.0937 54.4387 50.0634 54.3563 50.072 54.261C50.098 54.001 50.2237 53.7453 50.449 53.494C50.683 53.234 50.9907 53.0217 51.372 52.857C51.7534 52.6923 52.1607 52.61 52.594 52.61C53.4 52.61 54.05 52.8353 54.544 53.286C55.0467 53.7367 55.298 54.3693 55.298 55.184V59.149C55.298 59.2443 55.2634 59.3267 55.194 59.396C55.1247 59.4653 55.0424 59.5 54.947 59.5H54.466C54.3707 59.5 54.2884 59.4653 54.219 59.396C54.1497 59.3267 54.115 59.2443 54.115 59.149V58.616C53.9764 58.928 53.6817 59.175 53.231 59.357C52.7804 59.539 52.3297 59.63 51.879 59.63C51.437 59.63 51.0427 59.552 50.696 59.396C50.3494 59.2313 50.0807 59.0103 49.89 58.733C49.708 58.4557 49.617 58.1437 49.617 57.797C49.617 57.147 49.8597 56.64 50.345 56.276C50.8304 55.9033 51.476 55.652 52.282 55.522L54.115 55.223ZM54.115 56.263L52.581 56.51C52.0177 56.5967 51.58 56.7397 51.268 56.939C50.956 57.1297 50.8 57.3723 50.8 57.667C50.8 57.8837 50.8997 58.0787 51.099 58.252C51.2984 58.4253 51.6017 58.512 52.009 58.512C52.633 58.512 53.14 58.3343 53.53 57.979C53.92 57.6237 54.115 57.16 54.115 56.588V56.263ZM59.9247 58.512C60.7914 58.512 61.3764 58.174 61.6797 57.498C61.7404 57.368 61.8011 57.277 61.8617 57.225C61.9224 57.173 62.0047 57.147 62.1087 57.147H62.4987C62.5941 57.147 62.6764 57.1817 62.7457 57.251C62.8151 57.3117 62.8497 57.3853 62.8497 57.472C62.8497 57.7667 62.7327 58.083 62.4987 58.421C62.2647 58.759 61.9267 59.045 61.4847 59.279C61.0427 59.513 60.5227 59.63 59.9247 59.63C59.3094 59.63 58.7764 59.5 58.3257 59.24C57.8751 58.98 57.5284 58.6247 57.2857 58.174C57.0431 57.7147 56.9087 57.2033 56.8827 56.64C56.8741 56.536 56.8697 56.3367 56.8697 56.042C56.8697 55.834 56.8741 55.6867 56.8827 55.6C56.9607 54.716 57.2597 53.9967 57.7797 53.442C58.2997 52.8873 59.0147 52.61 59.9247 52.61C60.5227 52.61 61.0384 52.727 61.4717 52.961C61.9137 53.1863 62.2474 53.468 62.4727 53.806C62.7067 54.1353 62.8324 54.4473 62.8497 54.742C62.8584 54.8373 62.8237 54.9197 62.7457 54.989C62.6764 55.0583 62.5941 55.093 62.4987 55.093H62.1087C62.0047 55.093 61.9224 55.067 61.8617 55.015C61.8011 54.963 61.7404 54.872 61.6797 54.742C61.3764 54.066 60.7914 53.728 59.9247 53.728C59.4481 53.728 59.0321 53.8883 58.6767 54.209C58.3214 54.5297 58.1177 55.015 58.0657 55.665C58.0571 55.7603 58.0527 55.9163 58.0527 56.133C58.0527 56.3323 58.0571 56.4797 58.0657 56.575C58.1264 57.225 58.3301 57.7103 58.6767 58.031C59.0321 58.3517 59.4481 58.512 59.9247 58.512ZM67.1357 58.512C68.0023 58.512 68.5873 58.174 68.8907 57.498C68.9513 57.368 69.012 57.277 69.0727 57.225C69.1333 57.173 69.2157 57.147 69.3197 57.147H69.7097C69.805 57.147 69.8873 57.1817 69.9567 57.251C70.026 57.3117 70.0607 57.3853 70.0607 57.472C70.0607 57.7667 69.9437 58.083 69.7097 58.421C69.4757 58.759 69.1377 59.045 68.6957 59.279C68.2537 59.513 67.7337 59.63 67.1357 59.63C66.5203 59.63 65.9873 59.5 65.5367 59.24C65.086 58.98 64.7393 58.6247 64.4967 58.174C64.254 57.7147 64.1197 57.2033 64.0937 56.64C64.085 56.536 64.0807 56.3367 64.0807 56.042C64.0807 55.834 64.085 55.6867 64.0937 55.6C64.1717 54.716 64.4707 53.9967 64.9907 53.442C65.5107 52.8873 66.2257 52.61 67.1357 52.61C67.7337 52.61 68.2493 52.727 68.6827 52.961C69.1247 53.1863 69.4583 53.468 69.6837 53.806C69.9177 54.1353 70.0433 54.4473 70.0607 54.742C70.0693 54.8373 70.0347 54.9197 69.9567 54.989C69.8873 55.0583 69.805 55.093 69.7097 55.093H69.3197C69.2157 55.093 69.1333 55.067 69.0727 55.015C69.012 54.963 68.9513 54.872 68.8907 54.742C68.5873 54.066 68.0023 53.728 67.1357 53.728C66.659 53.728 66.243 53.8883 65.8877 54.209C65.5323 54.5297 65.3287 55.015 65.2767 55.665C65.268 55.7603 65.2637 55.9163 65.2637 56.133C65.2637 56.3323 65.268 56.4797 65.2767 56.575C65.3373 57.225 65.541 57.7103 65.8877 58.031C66.243 58.3517 66.659 58.512 67.1357 58.512ZM72.9296 51.362C72.9296 51.4573 72.8949 51.5397 72.8256 51.609C72.7563 51.6783 72.6739 51.713 72.5786 51.713H71.8376C71.7423 51.713 71.6599 51.6783 71.5906 51.609C71.5213 51.5397 71.4866 51.4573 71.4866 51.362V50.621C71.4866 50.5257 71.5213 50.4433 71.5906 50.374C71.6599 50.3047 71.7423 50.27 71.8376 50.27H72.5786C72.6739 50.27 72.7563 50.3047 72.8256 50.374C72.8949 50.4433 72.9296 50.5257 72.9296 50.621V51.362ZM72.7996 59.149C72.7996 59.2443 72.7649 59.3267 72.6956 59.396C72.6263 59.4653 72.5439 59.5 72.4486 59.5H71.9676C71.8723 59.5 71.7899 59.4653 71.7206 59.396C71.6513 59.3267 71.6166 59.2443 71.6166 59.149V53.091C71.6166 52.9957 71.6513 52.9133 71.7206 52.844C71.7899 52.7747 71.8723 52.74 71.9676 52.74H72.4486C72.5439 52.74 72.6263 52.7747 72.6956 52.844C72.7649 52.9133 72.7996 52.9957 72.7996 53.091V59.149ZM80.6023 55.509C80.6197 55.6997 80.6283 55.9077 80.6283 56.133C80.6283 56.341 80.6197 56.5403 80.6023 56.731C80.5243 57.615 80.2167 58.3213 79.6793 58.85C79.1507 59.37 78.4313 59.63 77.5213 59.63C76.6113 59.63 75.8877 59.37 75.3503 58.85C74.8217 58.3213 74.5183 57.615 74.4403 56.731C74.4317 56.6357 74.4273 56.4363 74.4273 56.133C74.4273 55.8123 74.4317 55.6043 74.4403 55.509C74.5097 54.625 74.813 53.923 75.3503 53.403C75.8877 52.8743 76.6113 52.61 77.5213 52.61C78.4313 52.61 79.155 52.8743 79.6923 53.403C80.2297 53.923 80.533 54.625 80.6023 55.509ZM79.4193 55.574C79.3673 55.0193 79.181 54.573 78.8603 54.235C78.5483 53.897 78.102 53.728 77.5213 53.728C76.9407 53.728 76.49 53.897 76.1693 54.235C75.8573 54.573 75.6753 55.0193 75.6233 55.574C75.6147 55.678 75.6103 55.8643 75.6103 56.133C75.6103 56.393 75.6147 56.5707 75.6233 56.666C75.6753 57.2207 75.8573 57.667 76.1693 58.005C76.49 58.343 76.9407 58.512 77.5213 58.512C78.102 58.512 78.5483 58.343 78.8603 58.005C79.181 57.667 79.3673 57.2207 79.4193 56.666C79.4367 56.4753 79.4453 56.2977 79.4453 56.133C79.4453 55.9683 79.4367 55.782 79.4193 55.574ZM77.9113 50.192C78.0067 50.088 78.0847 50.023 78.1453 49.997C78.206 49.9623 78.2883 49.945 78.3923 49.945H79.3543C79.4323 49.945 79.493 49.971 79.5363 50.023C79.5797 50.0663 79.6013 50.127 79.6013 50.205C79.6013 50.2657 79.5797 50.3177 79.5363 50.361L78.0933 51.544C77.998 51.622 77.9113 51.6783 77.8333 51.713C77.764 51.7477 77.6687 51.765 77.5473 51.765H77.0663C76.9277 51.765 76.8583 51.6957 76.8583 51.557C76.8583 51.4877 76.88 51.4313 76.9233 51.388L77.9113 50.192ZM88.2613 59.149C88.2613 59.2443 88.2266 59.3267 88.1573 59.396C88.0879 59.4653 88.0056 59.5 87.9103 59.5H87.4293C87.3339 59.5 87.2516 59.4653 87.1823 59.396C87.1129 59.3267 87.0783 59.2443 87.0783 59.149V55.717C87.0783 55.067 86.9179 54.573 86.5973 54.235C86.2766 53.897 85.8303 53.728 85.2583 53.728C84.6949 53.728 84.2486 53.897 83.9193 54.235C83.5986 54.573 83.4383 55.067 83.4383 55.717V59.149C83.4383 59.2443 83.4036 59.3267 83.3343 59.396C83.2649 59.4653 83.1826 59.5 83.0873 59.5H82.6063C82.5109 59.5 82.4286 59.4653 82.3593 59.396C82.2899 59.3267 82.2553 59.2443 82.2553 59.149V53.091C82.2553 52.9957 82.2899 52.9133 82.3593 52.844C82.4286 52.7747 82.5109 52.74 82.6063 52.74H83.0873C83.1826 52.74 83.2649 52.7747 83.3343 52.844C83.4036 52.9133 83.4383 52.9957 83.4383 53.091V53.494C83.6289 53.2427 83.8889 53.0347 84.2183 52.87C84.5563 52.6967 84.9679 52.61 85.4533 52.61C85.9993 52.61 86.4846 52.727 86.9093 52.961C87.3339 53.195 87.6633 53.533 87.8973 53.975C88.1399 54.4083 88.2613 54.924 88.2613 55.522V59.149ZM34.4882 66.362C34.4882 66.4573 34.4535 66.5397 34.3842 66.609C34.3149 66.6783 34.2325 66.713 34.1372 66.713H33.3962C33.3009 66.713 33.2185 66.6783 33.1492 66.609C33.0799 66.5397 33.0452 66.4573 33.0452 66.362V65.621C33.0452 65.5257 33.0799 65.4433 33.1492 65.374C33.2185 65.3047 33.3009 65.27 33.3962 65.27H34.1372C34.2325 65.27 34.3149 65.3047 34.3842 65.374C34.4535 65.4433 34.4882 65.5257 34.4882 65.621V66.362ZM34.3582 74.149C34.3582 74.2443 34.3235 74.3267 34.2542 74.396C34.1849 74.4653 34.1025 74.5 34.0072 74.5H33.5262C33.4309 74.5 33.3485 74.4653 33.2792 74.396C33.2099 74.3267 33.1752 74.2443 33.1752 74.149V68.091C33.1752 67.9957 33.2099 67.9133 33.2792 67.844C33.3485 67.7747 33.4309 67.74 33.5262 67.74H34.0072C34.1025 67.74 34.1849 67.7747 34.2542 67.844C34.3235 67.9133 34.3582 67.9957 34.3582 68.091V74.149ZM42.3169 74.149C42.3169 74.2443 42.2823 74.3267 42.2129 74.396C42.1436 74.4653 42.0613 74.5 41.9659 74.5H41.4849C41.3896 74.5 41.3073 74.4653 41.2379 74.396C41.1686 74.3267 41.1339 74.2443 41.1339 74.149V70.717C41.1339 70.067 40.9736 69.573 40.6529 69.235C40.3323 68.897 39.8859 68.728 39.3139 68.728C38.7506 68.728 38.3043 68.897 37.9749 69.235C37.6543 69.573 37.4939 70.067 37.4939 70.717V74.149C37.4939 74.2443 37.4593 74.3267 37.3899 74.396C37.3206 74.4653 37.2383 74.5 37.1429 74.5H36.6619C36.5666 74.5 36.4843 74.4653 36.4149 74.396C36.3456 74.3267 36.3109 74.2443 36.3109 74.149V68.091C36.3109 67.9957 36.3456 67.9133 36.4149 67.844C36.4843 67.7747 36.5666 67.74 36.6619 67.74H37.1429C37.2383 67.74 37.3206 67.7747 37.3899 67.844C37.4593 67.9133 37.4939 67.9957 37.4939 68.091V68.494C37.6846 68.2427 37.9446 68.0347 38.2739 67.87C38.6119 67.6967 39.0236 67.61 39.5089 67.61C40.0549 67.61 40.5403 67.727 40.9649 67.961C41.3896 68.195 41.7189 68.533 41.9529 68.975C42.1956 69.4083 42.3169 69.924 42.3169 70.522V74.149ZM48.8484 65.621C48.8484 65.5257 48.8831 65.4433 48.9524 65.374C49.0218 65.3047 49.1041 65.27 49.1994 65.27H49.6804C49.7758 65.27 49.8581 65.3047 49.9274 65.374C49.9968 65.4433 50.0314 65.5257 50.0314 65.621V74.149C50.0314 74.2443 49.9968 74.3267 49.9274 74.396C49.8581 74.4653 49.7758 74.5 49.6804 74.5H49.1994C49.1041 74.5 49.0218 74.4653 48.9524 74.396C48.8831 74.3267 48.8484 74.2443 48.8484 74.149V73.746C48.4064 74.3353 47.7348 74.63 46.8334 74.63C46.2961 74.63 45.8064 74.5043 45.3644 74.253C44.9311 74.0017 44.5801 73.642 44.3114 73.174C44.0514 72.706 43.9084 72.16 43.8824 71.536L43.8694 71.107L43.8824 70.691C43.9084 70.067 44.0514 69.5253 44.3114 69.066C44.5801 68.598 44.9311 68.2383 45.3644 67.987C45.7978 67.7357 46.2874 67.61 46.8334 67.61C47.3188 67.61 47.7261 67.6967 48.0554 67.87C48.3934 68.0347 48.6578 68.2427 48.8484 68.494V65.621ZM48.8484 70.652C48.8224 70.0453 48.6404 69.573 48.3024 69.235C47.9644 68.897 47.5181 68.728 46.9634 68.728C46.4001 68.728 45.9494 68.91 45.6114 69.274C45.2821 69.638 45.1001 70.132 45.0654 70.756L45.0524 71.12L45.0654 71.484C45.1001 72.108 45.2821 72.602 45.6114 72.966C45.9494 73.33 46.4001 73.512 46.9634 73.512C47.5008 73.512 47.9428 73.3473 48.2894 73.018C48.6361 72.68 48.8224 72.2337 48.8484 71.679C48.8571 71.5923 48.8614 71.419 48.8614 71.159C48.8614 70.9077 48.8571 70.7387 48.8484 70.652ZM53.29 66.362C53.29 66.4573 53.2553 66.5397 53.186 66.609C53.1166 66.6783 53.0343 66.713 52.939 66.713H52.198C52.1026 66.713 52.0203 66.6783 51.951 66.609C51.8816 66.5397 51.847 66.4573 51.847 66.362V65.621C51.847 65.5257 51.8816 65.4433 51.951 65.374C52.0203 65.3047 52.1026 65.27 52.198 65.27H52.939C53.0343 65.27 53.1166 65.3047 53.186 65.374C53.2553 65.4433 53.29 65.5257 53.29 65.621V66.362ZM53.16 74.149C53.16 74.2443 53.1253 74.3267 53.056 74.396C52.9866 74.4653 52.9043 74.5 52.809 74.5H52.328C52.2326 74.5 52.1503 74.4653 52.081 74.396C52.0116 74.3267 51.977 74.2443 51.977 74.149V68.091C51.977 67.9957 52.0116 67.9133 52.081 67.844C52.1503 67.7747 52.2326 67.74 52.328 67.74H52.809C52.9043 67.74 52.9866 67.7747 53.056 67.844C53.1253 67.9133 53.16 67.9957 53.16 68.091V74.149ZM58.5447 67.74C58.64 67.74 58.7224 67.7747 58.7917 67.844C58.861 67.9133 58.8957 67.9957 58.8957 68.091V68.507C58.8957 68.6023 58.861 68.6847 58.7917 68.754C58.7224 68.8233 58.64 68.858 58.5447 68.858H57.7907C57.3054 68.858 56.9327 68.988 56.6727 69.248C56.4214 69.4993 56.2957 69.8677 56.2957 70.353V74.149C56.2957 74.2443 56.261 74.3267 56.1917 74.396C56.1224 74.4653 56.04 74.5 55.9447 74.5H55.4637C55.3684 74.5 55.286 74.4653 55.2167 74.396C55.1474 74.3267 55.1127 74.2443 55.1127 74.149V68.091C55.1127 67.9957 55.1474 67.9133 55.2167 67.844C55.286 67.7747 55.3684 67.74 55.4637 67.74H55.9447C56.04 67.74 56.1224 67.7747 56.1917 67.844C56.261 67.9133 56.2957 67.9957 56.2957 68.091V68.494C56.469 68.234 56.677 68.0433 56.9197 67.922C57.1624 67.8007 57.4787 67.74 57.8687 67.74H58.5447ZM62.6908 67.61C63.6181 67.61 64.3504 67.9047 64.8878 68.494C65.4251 69.0833 65.6938 69.885 65.6938 70.899V71.25C65.6938 71.3453 65.6591 71.4277 65.5898 71.497C65.5204 71.5663 65.4381 71.601 65.3428 71.601H60.8708V71.679C60.8881 72.251 61.0614 72.7017 61.3908 73.031C61.7288 73.3517 62.1621 73.512 62.6908 73.512C63.1241 73.512 63.4578 73.4557 63.6918 73.343C63.9344 73.2303 64.1511 73.07 64.3418 72.862C64.4111 72.7927 64.4718 72.745 64.5238 72.719C64.5844 72.693 64.6624 72.68 64.7578 72.68H65.1478C65.2518 72.68 65.3384 72.7147 65.4078 72.784C65.4771 72.8533 65.5074 72.9357 65.4988 73.031C65.4641 73.265 65.3341 73.5077 65.1088 73.759C64.8921 74.0017 64.5758 74.2097 64.1598 74.383C63.7524 74.5477 63.2628 74.63 62.6908 74.63C62.1361 74.63 61.6421 74.5043 61.2088 74.253C60.7754 73.993 60.4288 73.6377 60.1688 73.187C59.9174 72.7363 59.7658 72.2293 59.7138 71.666C59.6964 71.406 59.6878 71.2067 59.6878 71.068C59.6878 70.9293 59.6964 70.73 59.7138 70.47C59.7658 69.9327 59.9174 69.4473 60.1688 69.014C60.4288 68.5807 60.7711 68.2383 61.1958 67.987C61.6291 67.7357 62.1274 67.61 62.6908 67.61ZM64.5238 70.509V70.47C64.5238 69.9413 64.3548 69.521 64.0168 69.209C63.6874 68.8883 63.2454 68.728 62.6908 68.728C62.1881 68.728 61.7591 68.8883 61.4038 69.209C61.0571 69.5297 60.8794 69.95 60.8708 70.47V70.509H64.5238ZM69.9921 73.512C70.8588 73.512 71.4438 73.174 71.7471 72.498C71.8078 72.368 71.8684 72.277 71.9291 72.225C71.9898 72.173 72.0721 72.147 72.1761 72.147H72.5661C72.6614 72.147 72.7438 72.1817 72.8131 72.251C72.8824 72.3117 72.9171 72.3853 72.9171 72.472C72.9171 72.7667 72.8001 73.083 72.5661 73.421C72.3321 73.759 71.9941 74.045 71.5521 74.279C71.1101 74.513 70.5901 74.63 69.9921 74.63C69.3768 74.63 68.8438 74.5 68.3931 74.24C67.9424 73.98 67.5958 73.6247 67.3531 73.174C67.1104 72.7147 66.9761 72.2033 66.9501 71.64C66.9414 71.536 66.9371 71.3367 66.9371 71.042C66.9371 70.834 66.9414 70.6867 66.9501 70.6C67.0281 69.716 67.3271 68.9967 67.8471 68.442C68.3671 67.8873 69.0821 67.61 69.9921 67.61C70.5901 67.61 71.1058 67.727 71.5391 67.961C71.9811 68.1863 72.3148 68.468 72.5401 68.806C72.7741 69.1353 72.8998 69.4473 72.9171 69.742C72.9258 69.8373 72.8911 69.9197 72.8131 69.989C72.7438 70.0583 72.6614 70.093 72.5661 70.093H72.1761C72.0721 70.093 71.9898 70.067 71.9291 70.015C71.8684 69.963 71.8078 69.872 71.7471 69.742C71.4438 69.066 70.8588 68.728 69.9921 68.728C69.5154 68.728 69.0994 68.8883 68.7441 69.209C68.3888 69.5297 68.1851 70.015 68.1331 70.665C68.1244 70.7603 68.1201 70.9163 68.1201 71.133C68.1201 71.3323 68.1244 71.4797 68.1331 71.575C68.1938 72.225 68.3974 72.7103 68.7441 73.031C69.0994 73.3517 69.5154 73.512 69.9921 73.512ZM76.241 72.225C76.241 72.5977 76.3147 72.8837 76.462 73.083C76.618 73.2823 76.9084 73.382 77.333 73.382H78.022C78.1174 73.382 78.1997 73.4167 78.269 73.486C78.3384 73.5553 78.373 73.6377 78.373 73.733V74.149C78.373 74.2443 78.3384 74.3267 78.269 74.396C78.1997 74.4653 78.1174 74.5 78.022 74.5H77.203C76.4664 74.5 75.9247 74.3093 75.578 73.928C75.2314 73.538 75.058 72.9703 75.058 72.225V68.858H74.096C74.0007 68.858 73.9184 68.8233 73.849 68.754C73.7797 68.6847 73.745 68.6023 73.745 68.507V68.091C73.745 67.9957 73.7797 67.9133 73.849 67.844C73.9184 67.7747 74.0007 67.74 74.096 67.74H75.058V65.621C75.058 65.5257 75.0927 65.4433 75.162 65.374C75.2314 65.3047 75.3137 65.27 75.409 65.27H75.89C75.9854 65.27 76.0677 65.3047 76.137 65.374C76.2064 65.4433 76.241 65.5257 76.241 65.621V67.74H77.892C77.9874 67.74 78.0697 67.7747 78.139 67.844C78.2084 67.9133 78.243 67.9957 78.243 68.091V68.507C78.243 68.6023 78.2084 68.6847 78.139 68.754C78.0697 68.8233 77.9874 68.858 77.892 68.858H76.241V72.225ZM83.6951 70.223V70.054C83.6951 69.6293 83.5521 69.3043 83.2661 69.079C82.9888 68.845 82.6248 68.728 82.1741 68.728C81.8275 68.728 81.5545 68.7887 81.3551 68.91C81.1645 69.0227 80.9825 69.196 80.8091 69.43C80.7571 69.4993 80.7008 69.547 80.6401 69.573C80.5795 69.599 80.4971 69.612 80.3931 69.612H80.0031C79.9078 69.612 79.8211 69.5773 79.7431 69.508C79.6738 69.4387 79.6435 69.3563 79.6521 69.261C79.6781 69.001 79.8038 68.7453 80.0291 68.494C80.2631 68.234 80.5708 68.0217 80.9521 67.857C81.3335 67.6923 81.7408 67.61 82.1741 67.61C82.9801 67.61 83.6301 67.8353 84.1241 68.286C84.6268 68.7367 84.8781 69.3693 84.8781 70.184V74.149C84.8781 74.2443 84.8435 74.3267 84.7741 74.396C84.7048 74.4653 84.6225 74.5 84.5271 74.5H84.0461C83.9508 74.5 83.8685 74.4653 83.7991 74.396C83.7298 74.3267 83.6951 74.2443 83.6951 74.149V73.616C83.5565 73.928 83.2618 74.175 82.8111 74.357C82.3605 74.539 81.9098 74.63 81.4591 74.63C81.0171 74.63 80.6228 74.552 80.2761 74.396C79.9295 74.2313 79.6608 74.0103 79.4701 73.733C79.2881 73.4557 79.1971 73.1437 79.1971 72.797C79.1971 72.147 79.4398 71.64 79.9251 71.276C80.4105 70.9033 81.0561 70.652 81.8621 70.522L83.6951 70.223ZM83.6951 71.263L82.1611 71.51C81.5978 71.5967 81.1601 71.7397 80.8481 71.939C80.5361 72.1297 80.3801 72.3723 80.3801 72.667C80.3801 72.8837 80.4798 73.0787 80.6791 73.252C80.8785 73.4253 81.1818 73.512 81.5891 73.512C82.2131 73.512 82.7201 73.3343 83.1101 72.979C83.5001 72.6237 83.6951 72.16 83.6951 71.588V71.263Z" fill="#EBECEE"/>
<rect x="40" y="81.5" width="38" height="25" rx="12.5" fill="#323B4A"/>
<path d="M57.1579 92.354C57.1766 92.6153 57.1859 93.0353 57.1859 93.614C57.1859 94.1833 57.1766 94.594 57.1579 94.846C57.0926 95.9567 56.7239 96.8667 56.0519 97.576C55.3892 98.2853 54.3952 98.64 53.0699 98.64C51.7446 98.64 50.7459 98.2853 50.0739 97.576C49.4112 96.8667 49.0472 95.9567 48.9819 94.846C48.9632 94.342 48.9539 93.9313 48.9539 93.614C48.9539 93.2967 48.9632 92.8767 48.9819 92.354C49.0472 91.2433 49.4112 90.3333 50.0739 89.624C50.7459 88.9147 51.7446 88.56 53.0699 88.56C54.3952 88.56 55.3892 88.9147 56.0519 89.624C56.7239 90.3333 57.0926 91.2433 57.1579 92.354ZM54.5679 92.424C54.5399 91.9107 54.4139 91.514 54.1899 91.234C53.9659 90.9447 53.5926 90.8 53.0699 90.8C52.5472 90.8 52.1739 90.9447 51.9499 91.234C51.7259 91.514 51.5999 91.9107 51.5719 92.424C51.5532 92.928 51.5439 93.3153 51.5439 93.586C51.5439 93.838 51.5532 94.2347 51.5719 94.776C51.5906 95.2893 51.7119 95.6907 51.9359 95.98C52.1692 96.26 52.5472 96.4 53.0699 96.4C53.5926 96.4 53.9659 96.26 54.1899 95.98C54.4232 95.6907 54.5492 95.2893 54.5679 94.776C54.5866 94.5053 54.5959 94.1087 54.5959 93.586C54.5959 93.0633 54.5866 92.676 54.5679 92.424ZM62.7646 91.682C62.7366 92.27 62.5359 92.7507 62.1626 93.124C61.7986 93.488 61.2666 93.67 60.5666 93.67C59.8666 93.67 59.3346 93.488 58.9706 93.124C58.6159 92.76 58.4152 92.2793 58.3686 91.682C58.3592 91.5607 58.3546 91.388 58.3546 91.164C58.3546 90.9307 58.3592 90.7487 58.3686 90.618C58.4152 90.0207 58.6159 89.54 58.9706 89.176C59.3346 88.812 59.8666 88.63 60.5666 88.63C61.2666 88.63 61.7939 88.812 62.1486 89.176C62.5126 89.54 62.7179 90.0207 62.7646 90.618C62.7832 90.8793 62.7926 91.0613 62.7926 91.164C62.7926 91.2667 62.7832 91.4393 62.7646 91.682ZM66.2646 88.966C66.3392 88.8727 66.4092 88.8073 66.4746 88.77C66.5492 88.7233 66.6472 88.7 66.7686 88.7H67.9166C68.0192 88.7 68.0986 88.728 68.1546 88.784C68.2199 88.8307 68.2526 88.896 68.2526 88.98C68.2526 89.036 68.2339 89.0873 68.1966 89.134L61.2806 98.234C61.2059 98.3273 61.1312 98.3973 61.0566 98.444C60.9912 98.4813 60.8979 98.5 60.7766 98.5H59.6286C59.5259 98.5 59.4419 98.4767 59.3766 98.43C59.3206 98.374 59.2926 98.304 59.2926 98.22C59.2926 98.164 59.3112 98.1127 59.3486 98.066L66.2646 88.966ZM60.5666 92.34C60.7626 92.34 60.9026 92.284 60.9866 92.172C61.0706 92.06 61.1219 91.8733 61.1406 91.612C61.1592 91.388 61.1686 91.234 61.1686 91.15C61.1686 91.0473 61.1592 90.8933 61.1406 90.688C61.1219 90.4267 61.0706 90.24 60.9866 90.128C60.9026 90.016 60.7626 89.96 60.5666 89.96C60.3706 89.96 60.2306 90.016 60.1466 90.128C60.0626 90.24 60.0112 90.4267 59.9926 90.688C59.9832 90.7907 59.9786 90.9447 59.9786 91.15C59.9786 91.346 59.9832 91.5 59.9926 91.612C60.0112 91.8733 60.0626 92.06 60.1466 92.172C60.2306 92.284 60.3706 92.34 60.5666 92.34ZM69.2606 96.582C69.2326 97.17 69.0319 97.6507 68.6586 98.024C68.2946 98.388 67.7626 98.57 67.0626 98.57C66.3626 98.57 65.8306 98.388 65.4666 98.024C65.1119 97.66 64.9112 97.1793 64.8646 96.582C64.8552 96.4607 64.8506 96.288 64.8506 96.064C64.8506 95.8307 64.8552 95.6487 64.8646 95.518C64.9112 94.9207 65.1119 94.44 65.4666 94.076C65.8306 93.712 66.3626 93.53 67.0626 93.53C67.7626 93.53 68.2899 93.712 68.6446 94.076C69.0086 94.44 69.2139 94.9207 69.2606 95.518C69.2792 95.7793 69.2886 95.9613 69.2886 96.064C69.2886 96.1667 69.2792 96.3393 69.2606 96.582ZM67.0626 97.24C67.2586 97.24 67.3986 97.184 67.4826 97.072C67.5666 96.96 67.6179 96.7733 67.6366 96.512C67.6552 96.288 67.6646 96.134 67.6646 96.05C67.6646 95.9473 67.6552 95.7933 67.6366 95.588C67.6179 95.3267 67.5666 95.14 67.4826 95.028C67.3986 94.916 67.2586 94.86 67.0626 94.86C66.8666 94.86 66.7266 94.916 66.6426 95.028C66.5586 95.14 66.5072 95.3267 66.4886 95.588C66.4792 95.6907 66.4746 95.8447 66.4746 96.05C66.4746 96.246 66.4792 96.4 66.4886 96.512C66.5072 96.7733 66.5586 96.96 66.6426 97.072C66.7266 97.184 66.8666 97.24 67.0626 97.24Z" fill="white"/>
<g filter="url(#filter0_d_34392_40194)">
<rect x="88" y="14" width="28" height="28" rx="14" fill="white"/>
<rect x="87" y="13" width="30" height="30" rx="15" stroke="#374151" stroke-width="2"/>
<path opacity="0.4" d="M102.001 30.4917C102.337 30.4917 102.609 30.7641 102.609 31.1001C102.609 31.436 102.337 31.7085 102.001 31.7085C101.665 31.7085 101.393 31.436 101.393 31.1001C101.393 30.7641 101.665 30.4917 102.001 30.4917Z" fill="#272E3A" stroke="#272E3A" stroke-width="1.5"/>
<path d="M98.124 26.6167H105.874C107.556 26.6167 108.395 26.8857 108.854 27.3452C109.314 27.8048 109.583 28.6432 109.583 30.3247V31.8755C109.583 33.557 109.314 34.3954 108.854 34.855C108.395 35.3145 107.556 35.5835 105.874 35.5835H98.124C96.4424 35.5835 95.6041 35.3145 95.1445 34.855C94.685 34.3955 94.4161 33.5571 94.416 31.8755V30.3247C94.4161 28.643 94.685 27.8047 95.1445 27.3452C95.6041 26.8857 96.4423 26.6167 98.124 26.6167ZM101.999 27.8335C100.192 27.8337 98.7324 29.3043 98.7324 31.1001C98.7325 32.8959 100.192 34.3665 101.999 34.3667C103.806 34.3667 105.266 32.896 105.266 31.1001C105.266 29.3042 103.807 27.8335 101.999 27.8335Z" fill="#272E3A" stroke="#272E3A" stroke-width="1.5"/>
<g opacity="0.4">
<mask id="path-16-inside-1_34392_40194" fill="white">
<path d="M97.9342 25.8748V24.8998C97.9342 22.4582 98.6259 20.8332 102.001 20.8332C105.376 20.8332 106.068 22.4582 106.068 24.8998V25.8748C106.493 25.8832 106.876 25.8998 107.234 25.9498V24.8998C107.234 22.6498 106.693 19.6665 102.001 19.6665C97.3092 19.6665 96.7676 22.6498 96.7676 24.8998V25.9415C97.1176 25.8998 97.5092 25.8748 97.9342 25.8748Z"/>
</mask>
<path d="M97.9342 25.8748V24.8998C97.9342 22.4582 98.6259 20.8332 102.001 20.8332C105.376 20.8332 106.068 22.4582 106.068 24.8998V25.8748C106.493 25.8832 106.876 25.8998 107.234 25.9498V24.8998C107.234 22.6498 106.693 19.6665 102.001 19.6665C97.3092 19.6665 96.7676 22.6498 96.7676 24.8998V25.9415C97.1176 25.8998 97.5092 25.8748 97.9342 25.8748Z" fill="#272E3A"/>
<path d="M97.9342 25.8748V27.3748H99.4342V25.8748H97.9342ZM106.068 25.8748H104.568V27.3457L106.038 27.3745L106.068 25.8748ZM107.234 25.9498L107.027 27.4354L108.734 27.6737V25.9498H107.234ZM107.234 24.8998H105.734H107.234ZM96.7676 25.9415H95.2676V27.6307L96.9449 27.431L96.7676 25.9415ZM97.9342 25.8748H99.4342V24.8998H97.9342H96.4342V25.8748H97.9342ZM97.9342 24.8998H99.4342C99.4342 23.7471 99.6156 23.1967 99.8528 22.913C100.039 22.6905 100.52 22.3332 102.001 22.3332V20.8332V19.3332C100.107 19.3332 98.5547 19.7884 97.5511 20.9888C96.5988 22.128 96.4342 23.6109 96.4342 24.8998H97.9342ZM102.001 20.8332V22.3332C103.482 22.3332 103.963 22.6905 104.149 22.913C104.386 23.1967 104.568 23.7471 104.568 24.8998H106.068H107.568C107.568 23.6109 107.403 22.128 106.451 20.9888C105.447 19.7884 103.895 19.3332 102.001 19.3332V20.8332ZM106.068 24.8998H104.568V25.8748H106.068H107.568V24.8998H106.068ZM106.068 25.8748L106.038 27.3745C106.451 27.3826 106.761 27.3983 107.027 27.4354L107.234 25.9498L107.442 24.4642C106.991 24.4014 106.535 24.3837 106.097 24.3751L106.068 25.8748ZM107.234 25.9498H108.734V24.8998H107.234H105.734V25.9498H107.234ZM107.234 24.8998H108.734C108.734 23.7116 108.606 22.002 107.604 20.5769C106.526 19.0428 104.687 18.1665 102.001 18.1665V19.6665V21.1665C104.006 21.1665 104.784 21.7819 105.15 22.302C105.592 22.931 105.734 23.8381 105.734 24.8998H107.234ZM102.001 19.6665V18.1665C99.3145 18.1665 97.4759 19.0428 96.3977 20.5769C95.396 22.002 95.2676 23.7116 95.2676 24.8998H96.7676H98.2676C98.2676 23.8381 98.41 22.931 98.8521 22.302C99.2176 21.7819 99.9956 21.1665 102.001 21.1665V19.6665ZM96.7676 24.8998H95.2676V25.9415H96.7676H98.2676V24.8998H96.7676ZM96.7676 25.9415L96.9449 27.431C97.2351 27.3964 97.5675 27.3748 97.9342 27.3748V25.8748V24.3748C97.451 24.3748 97.0001 24.4032 96.5903 24.452L96.7676 25.9415Z" fill="#272E3A" mask="url(#path-16-inside-1_34392_40194)"/>
</g>
</g>
<defs>
<filter id="filter0_d_34392_40194" x="71" y="5" width="62" height="62" filterUnits="userSpaceOnUse" color-interpolation-filters="sRGB">
<feFlood flood-opacity="0" result="BackgroundImageFix"/>
<feColorMatrix in="SourceAlpha" type="matrix" values="0 0 0 0 0 0 0 0 0 0 0 0 0 0 0 0 0 0 127 0" result="hardAlpha"/>
<feOffset dy="8"/>
<feGaussianBlur stdDeviation="7.5"/>
<feColorMatrix type="matrix" values="0 0 0 0 0 0 0 0 0 0 0 0 0 0 0 0 0 0 0.25 0"/>
<feBlend mode="normal" in2="BackgroundImageFix" result="effect1_dropShadow_34392_40194"/>
<feBlend mode="normal" in="SourceGraphic" in2="effect1_dropShadow_34392_40194" result="shape"/>
</filter>
</defs>
</svg>
