<svg width="133" height="118" viewBox="0 0 133 118" fill="none" xmlns="http://www.w3.org/2000/svg">
<rect x="2" y="2" width="114" height="114" rx="57" fill="#1E242D"/>
<rect x="2" y="2" width="114" height="114" rx="57" stroke="#374151" stroke-width="4"/>
<g clip-path="url(#clip0_34428_7874)">
<path d="M52.8818 35.7828C54.4292 35.8114 55.6242 35.1638 56.6218 34.1041C57.3387 33.3427 57.8367 32.454 58.1 31.4349C58.3117 30.6194 58.8718 30.1937 59.7231 30.1921C62.6652 30.189 65.6065 30.1921 68.5486 30.1866C68.7498 30.1866 68.8342 30.2263 68.8167 30.4443C68.7976 30.6806 68.8063 30.9201 68.8167 31.158C68.8294 31.4436 69.018 31.6194 69.2916 31.6186C69.5629 31.6178 69.773 31.4364 69.7674 31.158C69.7396 29.85 69.8716 28.5397 69.7054 27.2357C69.621 26.5746 69.3839 25.9572 69.0999 25.3549C68.9965 25.1369 68.874 25.2611 68.765 25.312C67.5294 25.8912 66.2549 26.3661 64.9453 26.748C63.3653 27.2079 61.7574 27.5245 60.1193 27.6948C58.334 27.8809 56.551 27.8881 54.7665 27.7035C54.6329 27.69 54.5803 27.7091 54.5557 27.8603C54.4005 28.8142 54.3647 29.7721 54.4483 30.7339C54.4674 30.9559 54.4316 31.1636 54.3608 31.3736C53.8691 32.8303 53.3822 34.2878 52.881 35.7844L52.8818 35.7828Z" fill="#374151"/>
<path d="M54.7897 26.7745C59.6046 27.2328 64.165 26.4189 68.5352 24.3861C67.9846 23.5945 67.2797 22.997 66.4992 22.4735C63.7592 20.6373 60.2212 20.6278 57.6546 22.4735C56.1685 23.542 55.3029 25.029 54.7905 26.7753L54.7897 26.7745Z" fill="#374151"/>
<path opacity="0.4" d="M60.2335 14.546C60.3139 15.3185 60.3911 16.0767 60.4714 16.8341C60.5836 17.897 60.7045 18.9591 60.804 20.0228C60.8239 20.2344 60.909 20.2543 61.0824 20.2336C62.4238 20.0721 63.731 20.2265 64.9991 20.6887C65.1773 20.754 65.2354 20.6999 65.3094 20.5487C66.1678 18.796 67.0327 17.0441 67.9038 15.2962C67.985 15.1339 67.977 15.0726 67.7956 15.0114C65.7494 14.3272 63.6554 14.04 61.5009 14.2182C61.1349 14.2484 60.7721 14.2938 60.4078 14.3367C60.2391 14.3566 60.2081 14.421 60.2335 14.546Z" fill="#374151"/>
<path d="M68.7569 39.0492C68.7569 38.544 68.7482 38.038 68.7617 37.5328C68.7665 37.3458 68.71 37.2265 68.5636 37.1088C67.3646 36.1469 66.1752 35.1731 64.9747 34.2136C64.7376 34.0242 64.6238 33.8206 64.6326 33.5087C64.6525 32.7959 64.6326 32.0814 64.6429 31.3678C64.6453 31.1872 64.6007 31.1315 64.413 31.1339C63.6484 31.145 62.8831 31.1394 62.1185 31.137C61.992 31.137 61.8925 31.1251 61.8973 31.3121C61.9252 32.4203 61.8655 33.5286 62.0079 34.6361C62.2291 36.3633 63.0653 37.7325 64.3382 38.8782C65.5364 39.957 66.9398 40.5783 68.5246 40.8242C68.698 40.8512 68.7696 40.8289 68.7633 40.6261C68.7482 40.101 68.7577 39.5751 68.7585 39.05L68.7569 39.0492Z" fill="#374151"/>
<path opacity="0.4" d="M59.8661 20.0477C59.7404 18.8606 59.6075 17.6108 59.4762 16.3609C59.4237 15.8589 59.3688 15.3568 59.3299 14.854C59.3123 14.6241 59.2614 14.5636 59.0053 14.6273C56.5477 15.2391 54.3765 16.3839 52.4758 18.0499C52.3358 18.1724 52.304 18.2353 52.4615 18.3809C53.7695 19.583 55.071 20.7931 56.3663 22.0088C56.5119 22.1456 56.5906 22.1186 56.7251 22.0056C57.57 21.2959 58.5311 20.8027 59.5908 20.4972C59.8852 20.4128 59.8852 20.4136 59.8661 20.0477Z" fill="#374151"/>
<path opacity="0.4" d="M53.8438 26.6858C52.9487 26.5219 52.064 26.3588 51.1793 26.1997C50.1275 26.0095 49.0734 25.8313 48.024 25.6276C47.8219 25.5887 47.7702 25.6436 47.7256 25.8186C47.2491 27.689 47.1019 29.5825 47.2809 31.5039C47.296 31.6622 47.339 31.6694 47.4806 31.6391C49.4051 31.2246 51.3305 30.8165 53.2566 30.4091C53.4213 30.3741 53.4953 30.3113 53.4865 30.1188C53.4332 28.9651 53.5518 27.8267 53.8438 26.685V26.6858Z" fill="#374151"/>
<path opacity="0.4" d="M53.9788 25.7553C54.1435 25.8078 54.1578 25.6917 54.1849 25.6185C54.5477 24.6335 55.0751 23.7457 55.7625 22.9541C55.9025 22.7933 55.788 22.7408 55.7005 22.6597C54.7179 21.7479 53.7354 20.8362 52.752 19.9252C52.4242 19.6213 52.0932 19.3214 51.7702 19.0127C51.666 18.9124 51.6087 18.8894 51.495 19.0167C50.0589 20.6277 48.895 22.4035 48.1551 24.4418C48.0843 24.6359 48.1002 24.7036 48.3118 24.741C50.0168 25.0409 51.7209 25.3504 53.4251 25.6567C53.62 25.6917 53.8149 25.7259 53.978 25.7553H53.9788Z" fill="#374151"/>
</g>
<path d="M43.3901 50.4C43.4855 50.4 43.5678 50.4347 43.6371 50.504C43.7065 50.5733 43.7411 50.6557 43.7411 50.751V59.149C43.7411 59.2443 43.7065 59.3267 43.6371 59.396C43.5678 59.4653 43.4855 59.5 43.3901 59.5H42.8571C42.7618 59.5 42.6795 59.4653 42.6101 59.396C42.5408 59.3267 42.5061 59.2443 42.5061 59.149V55.483H37.9301V59.149C37.9301 59.2443 37.8955 59.3267 37.8261 59.396C37.7568 59.4653 37.6745 59.5 37.5791 59.5H37.0461C36.9508 59.5 36.8685 59.4697 36.7991 59.409C36.7298 59.3397 36.6951 59.253 36.6951 59.149V50.751C36.6951 50.6557 36.7298 50.5733 36.7991 50.504C36.8685 50.4347 36.9508 50.4 37.0461 50.4H37.5791C37.6745 50.4 37.7568 50.4347 37.8261 50.504C37.8955 50.5733 37.9301 50.6557 37.9301 50.751V54.313H42.5061V50.751C42.5061 50.6557 42.5408 50.5733 42.6101 50.504C42.6795 50.4347 42.7618 50.4 42.8571 50.4H43.3901ZM47.1454 51.362C47.1454 51.4573 47.1108 51.5397 47.0414 51.609C46.9721 51.6783 46.8898 51.713 46.7944 51.713H46.0534C45.9581 51.713 45.8758 51.6783 45.8064 51.609C45.7371 51.5397 45.7024 51.4573 45.7024 51.362V50.621C45.7024 50.5257 45.7371 50.4433 45.8064 50.374C45.8758 50.3047 45.9581 50.27 46.0534 50.27H46.7944C46.8898 50.27 46.9721 50.3047 47.0414 50.374C47.1108 50.4433 47.1454 50.5257 47.1454 50.621V51.362ZM47.0154 59.149C47.0154 59.2443 46.9808 59.3267 46.9114 59.396C46.8421 59.4653 46.7598 59.5 46.6644 59.5H46.1834C46.0881 59.5 46.0058 59.4653 45.9364 59.396C45.8671 59.3267 45.8324 59.2443 45.8324 59.149V53.091C45.8324 52.9957 45.8671 52.9133 45.9364 52.844C46.0058 52.7747 46.0881 52.74 46.1834 52.74H46.6644C46.7598 52.74 46.8421 52.7747 46.9114 52.844C46.9808 52.9133 47.0154 52.9957 47.0154 53.091V59.149ZM50.5932 56.497C49.3278 56.2283 48.6952 55.5827 48.6952 54.56C48.6952 54.2047 48.7905 53.8797 48.9812 53.585C49.1718 53.2903 49.4535 53.0563 49.8262 52.883C50.2075 52.701 50.6712 52.61 51.2172 52.61C51.7545 52.61 52.2182 52.688 52.6082 52.844C52.9982 53 53.2928 53.195 53.4922 53.429C53.7002 53.663 53.8042 53.8883 53.8042 54.105C53.8042 54.1917 53.7695 54.2697 53.7002 54.339C53.6308 54.3997 53.5485 54.43 53.4532 54.43H53.0242C52.8595 54.43 52.7295 54.3693 52.6342 54.248C52.3655 53.9013 51.8932 53.728 51.2172 53.728C50.8185 53.728 50.4935 53.8017 50.2422 53.949C49.9995 54.0963 49.8782 54.3 49.8782 54.56C49.8782 54.7767 49.9388 54.9413 50.0602 55.054C50.1815 55.1667 50.3635 55.2577 50.6062 55.327C50.8488 55.3963 51.2778 55.5003 51.8932 55.639C52.6558 55.8037 53.1975 56.055 53.5182 56.393C53.8388 56.731 53.9992 57.1427 53.9992 57.628C53.9992 57.9833 53.8865 58.3127 53.6612 58.616C53.4445 58.9193 53.1282 59.1663 52.7122 59.357C52.3048 59.539 51.8282 59.63 51.2822 59.63C50.7448 59.63 50.2682 59.5477 49.8522 59.383C49.4448 59.2097 49.1285 59.0017 48.9032 58.759C48.6778 58.5163 48.5652 58.2867 48.5652 58.07C48.5652 57.9833 48.5998 57.9097 48.6692 57.849C48.7385 57.7797 48.8208 57.745 48.9162 57.745H49.3842C49.4622 57.745 49.5315 57.7537 49.5922 57.771C49.6528 57.7883 49.7092 57.836 49.7612 57.914C50.0472 58.3127 50.5542 58.512 51.2822 58.512C51.6895 58.512 52.0448 58.4297 52.3482 58.265C52.6602 58.0917 52.8162 57.8793 52.8162 57.628C52.8162 57.42 52.7382 57.2553 52.5822 57.134C52.4348 57.004 52.2182 56.9 51.9322 56.822C51.6462 56.7353 51.1998 56.627 50.5932 56.497ZM57.3123 57.225C57.3123 57.5977 57.386 57.8837 57.5333 58.083C57.6893 58.2823 57.9797 58.382 58.4043 58.382H59.0933C59.1887 58.382 59.271 58.4167 59.3403 58.486C59.4097 58.5553 59.4443 58.6377 59.4443 58.733V59.149C59.4443 59.2443 59.4097 59.3267 59.3403 59.396C59.271 59.4653 59.1887 59.5 59.0933 59.5H58.2743C57.5377 59.5 56.996 59.3093 56.6493 58.928C56.3027 58.538 56.1293 57.9703 56.1293 57.225V53.858H55.1673C55.072 53.858 54.9897 53.8233 54.9203 53.754C54.851 53.6847 54.8163 53.6023 54.8163 53.507V53.091C54.8163 52.9957 54.851 52.9133 54.9203 52.844C54.9897 52.7747 55.072 52.74 55.1673 52.74H56.1293V50.621C56.1293 50.5257 56.164 50.4433 56.2333 50.374C56.3027 50.3047 56.385 50.27 56.4803 50.27H56.9613C57.0567 50.27 57.139 50.3047 57.2083 50.374C57.2777 50.4433 57.3123 50.5257 57.3123 50.621V52.74H58.9633C59.0587 52.74 59.141 52.7747 59.2103 52.844C59.2797 52.9133 59.3143 52.9957 59.3143 53.091V53.507C59.3143 53.6023 59.2797 53.6847 59.2103 53.754C59.141 53.8233 59.0587 53.858 58.9633 53.858H57.3123V57.225ZM66.5994 55.509C66.6167 55.6997 66.6254 55.9077 66.6254 56.133C66.6254 56.341 66.6167 56.5403 66.5994 56.731C66.5214 57.615 66.2137 58.3213 65.6764 58.85C65.1477 59.37 64.4284 59.63 63.5184 59.63C62.6084 59.63 61.8847 59.37 61.3474 58.85C60.8187 58.3213 60.5154 57.615 60.4374 56.731C60.4287 56.6357 60.4244 56.4363 60.4244 56.133C60.4244 55.8123 60.4287 55.6043 60.4374 55.509C60.5067 54.625 60.8101 53.923 61.3474 53.403C61.8847 52.8743 62.6084 52.61 63.5184 52.61C64.4284 52.61 65.1521 52.8743 65.6894 53.403C66.2267 53.923 66.5301 54.625 66.5994 55.509ZM65.4164 55.574C65.3644 55.0193 65.1781 54.573 64.8574 54.235C64.5454 53.897 64.0991 53.728 63.5184 53.728C62.9377 53.728 62.4871 53.897 62.1664 54.235C61.8544 54.573 61.6724 55.0193 61.6204 55.574C61.6117 55.678 61.6074 55.8643 61.6074 56.133C61.6074 56.393 61.6117 56.5707 61.6204 56.666C61.6724 57.2207 61.8544 57.667 62.1664 58.005C62.4871 58.343 62.9377 58.512 63.5184 58.512C64.0991 58.512 64.5454 58.343 64.8574 58.005C65.1781 57.667 65.3644 57.2207 65.4164 56.666C65.4337 56.4753 65.4424 56.2977 65.4424 56.133C65.4424 55.9683 65.4337 55.782 65.4164 55.574ZM71.6843 52.74C71.7797 52.74 71.862 52.7747 71.9313 52.844C72.0007 52.9133 72.0353 52.9957 72.0353 53.091V53.507C72.0353 53.6023 72.0007 53.6847 71.9313 53.754C71.862 53.8233 71.7797 53.858 71.6843 53.858H70.9303C70.445 53.858 70.0723 53.988 69.8123 54.248C69.561 54.4993 69.4353 54.8677 69.4353 55.353V59.149C69.4353 59.2443 69.4007 59.3267 69.3313 59.396C69.262 59.4653 69.1797 59.5 69.0843 59.5H68.6033C68.508 59.5 68.4257 59.4653 68.3563 59.396C68.287 59.3267 68.2523 59.2443 68.2523 59.149V53.091C68.2523 52.9957 68.287 52.9133 68.3563 52.844C68.4257 52.7747 68.508 52.74 68.6033 52.74H69.0843C69.1797 52.74 69.262 52.7747 69.3313 52.844C69.4007 52.9133 69.4353 52.9957 69.4353 53.091V53.494C69.6087 53.234 69.8167 53.0433 70.0593 52.922C70.302 52.8007 70.6183 52.74 71.0083 52.74H71.6843ZM74.4784 51.362C74.4784 51.4573 74.4438 51.5397 74.3744 51.609C74.3051 51.6783 74.2228 51.713 74.1274 51.713H73.3864C73.2911 51.713 73.2088 51.6783 73.1394 51.609C73.0701 51.5397 73.0354 51.4573 73.0354 51.362V50.621C73.0354 50.5257 73.0701 50.4433 73.1394 50.374C73.2088 50.3047 73.2911 50.27 73.3864 50.27H74.1274C74.2228 50.27 74.3051 50.3047 74.3744 50.374C74.4438 50.4433 74.4784 50.5257 74.4784 50.621V51.362ZM74.3484 59.149C74.3484 59.2443 74.3138 59.3267 74.2444 59.396C74.1751 59.4653 74.0928 59.5 73.9974 59.5H73.5164C73.4211 59.5 73.3388 59.4653 73.2694 59.396C73.2001 59.3267 73.1654 59.2443 73.1654 59.149V53.091C73.1654 52.9957 73.2001 52.9133 73.2694 52.844C73.3388 52.7747 73.4211 52.74 73.5164 52.74H73.9974C74.0928 52.74 74.1751 52.7747 74.2444 52.844C74.3138 52.9133 74.3484 52.9957 74.3484 53.091V59.149ZM80.3182 55.223V55.054C80.3182 54.6293 80.1752 54.3043 79.8892 54.079C79.6118 53.845 79.2478 53.728 78.7972 53.728C78.4505 53.728 78.1775 53.7887 77.9782 53.91C77.7875 54.0227 77.6055 54.196 77.4322 54.43C77.3802 54.4993 77.3238 54.547 77.2632 54.573C77.2025 54.599 77.1202 54.612 77.0162 54.612H76.6262C76.5308 54.612 76.4442 54.5773 76.3662 54.508C76.2968 54.4387 76.2665 54.3563 76.2752 54.261C76.3012 54.001 76.4268 53.7453 76.6522 53.494C76.8862 53.234 77.1938 53.0217 77.5752 52.857C77.9565 52.6923 78.3638 52.61 78.7972 52.61C79.6032 52.61 80.2532 52.8353 80.7472 53.286C81.2498 53.7367 81.5012 54.3693 81.5012 55.184V59.149C81.5012 59.2443 81.4665 59.3267 81.3972 59.396C81.3278 59.4653 81.2455 59.5 81.1502 59.5H80.6692C80.5738 59.5 80.4915 59.4653 80.4222 59.396C80.3528 59.3267 80.3182 59.2443 80.3182 59.149V58.616C80.1795 58.928 79.8848 59.175 79.4342 59.357C78.9835 59.539 78.5328 59.63 78.0822 59.63C77.6402 59.63 77.2458 59.552 76.8992 59.396C76.5525 59.2313 76.2838 59.0103 76.0932 58.733C75.9112 58.4557 75.8202 58.1437 75.8202 57.797C75.8202 57.147 76.0628 56.64 76.5482 56.276C77.0335 55.9033 77.6792 55.652 78.4852 55.522L80.3182 55.223ZM80.3182 56.263L78.7842 56.51C78.2208 56.5967 77.7832 56.7397 77.4712 56.939C77.1592 57.1297 77.0032 57.3723 77.0032 57.667C77.0032 57.8837 77.1028 58.0787 77.3022 58.252C77.5015 58.4253 77.8048 58.512 78.2122 58.512C78.8362 58.512 79.3432 58.3343 79.7332 57.979C80.1232 57.6237 80.3182 57.16 80.3182 56.588V56.263ZM38.5121 65.4C38.6074 65.4 38.6898 65.4347 38.7591 65.504C38.8284 65.5733 38.8631 65.6557 38.8631 65.751V70.951C38.8631 72.0777 38.5728 72.9747 37.9921 73.642C37.4201 74.3007 36.5448 74.63 35.3661 74.63C34.1701 74.63 33.2861 74.3007 32.7141 73.642C32.1508 72.9747 31.8691 72.0777 31.8691 70.951V65.751C31.8691 65.6557 31.9038 65.5733 31.9731 65.504C32.0424 65.4347 32.1248 65.4 32.2201 65.4H32.7531C32.8484 65.4 32.9308 65.4347 33.0001 65.504C33.0694 65.5733 33.1041 65.6557 33.1041 65.751V71.016C33.1041 71.848 33.2991 72.4763 33.6891 72.901C34.0878 73.317 34.6468 73.525 35.3661 73.525C36.0854 73.525 36.6444 73.317 37.0431 72.901C37.4418 72.4763 37.6411 71.848 37.6411 71.016V65.751C37.6411 65.6557 37.6758 65.5733 37.7451 65.504C37.8144 65.4347 37.8968 65.4 37.9921 65.4H38.5121ZM46.8873 74.149C46.8873 74.2443 46.8526 74.3267 46.7833 74.396C46.7139 74.4653 46.6316 74.5 46.5363 74.5H46.0553C45.9599 74.5 45.8776 74.4653 45.8083 74.396C45.7389 74.3267 45.7043 74.2443 45.7043 74.149V70.717C45.7043 70.067 45.5439 69.573 45.2233 69.235C44.9026 68.897 44.4563 68.728 43.8843 68.728C43.3209 68.728 42.8746 68.897 42.5453 69.235C42.2246 69.573 42.0643 70.067 42.0643 70.717V74.149C42.0643 74.2443 42.0296 74.3267 41.9603 74.396C41.8909 74.4653 41.8086 74.5 41.7133 74.5H41.2323C41.1369 74.5 41.0546 74.4653 40.9853 74.396C40.9159 74.3267 40.8813 74.2443 40.8813 74.149V68.091C40.8813 67.9957 40.9159 67.9133 40.9853 67.844C41.0546 67.7747 41.1369 67.74 41.2323 67.74H41.7133C41.8086 67.74 41.8909 67.7747 41.9603 67.844C42.0296 67.9133 42.0643 67.9957 42.0643 68.091V68.494C42.2549 68.2427 42.5149 68.0347 42.8443 67.87C43.1823 67.6967 43.5939 67.61 44.0793 67.61C44.6253 67.61 45.1106 67.727 45.5353 67.961C45.9599 68.195 46.2893 68.533 46.5233 68.975C46.7659 69.4083 46.8873 69.924 46.8873 70.522V74.149ZM50.0907 66.362C50.0907 66.4573 50.0561 66.5397 49.9867 66.609C49.9174 66.6783 49.8351 66.713 49.7397 66.713H48.9987C48.9034 66.713 48.8211 66.6783 48.7517 66.609C48.6824 66.5397 48.6477 66.4573 48.6477 66.362V65.621C48.6477 65.5257 48.6824 65.4433 48.7517 65.374C48.8211 65.3047 48.9034 65.27 48.9987 65.27H49.7397C49.8351 65.27 49.9174 65.3047 49.9867 65.374C50.0561 65.4433 50.0907 65.5257 50.0907 65.621V66.362ZM49.9607 74.149C49.9607 74.2443 49.9261 74.3267 49.8567 74.396C49.7874 74.4653 49.7051 74.5 49.6097 74.5H49.1287C49.0334 74.5 48.9511 74.4653 48.8817 74.396C48.8124 74.3267 48.7777 74.2443 48.7777 74.149V68.091C48.7777 67.9957 48.8124 67.9133 48.8817 67.844C48.9511 67.7747 49.0334 67.74 49.1287 67.74H49.6097C49.7051 67.74 49.7874 67.7747 49.8567 67.844C49.9261 67.9133 49.9607 67.9957 49.9607 68.091V74.149ZM55.2155 74.175C55.1288 74.3917 54.9988 74.5 54.8255 74.5H54.3445C54.1625 74.5 54.0281 74.3917 53.9415 74.175L51.3545 68.143C51.3458 68.117 51.3415 68.0867 51.3415 68.052C51.3415 67.9653 51.3718 67.8917 51.4325 67.831C51.4931 67.7703 51.5668 67.74 51.6535 67.74H52.1345C52.3425 67.74 52.4855 67.844 52.5635 68.052L54.5785 72.771L56.5935 68.052C56.6715 67.844 56.7971 67.74 56.9705 67.74H57.5035C57.5901 67.74 57.6638 67.7703 57.7245 67.831C57.7851 67.8917 57.8155 67.9653 57.8155 68.052C57.8155 68.0867 57.8111 68.117 57.8025 68.143L55.2155 74.175ZM61.8529 67.61C62.7802 67.61 63.5126 67.9047 64.0499 68.494C64.5872 69.0833 64.8559 69.885 64.8559 70.899V71.25C64.8559 71.3453 64.8212 71.4277 64.7519 71.497C64.6826 71.5663 64.6002 71.601 64.5049 71.601H60.0329V71.679C60.0502 72.251 60.2236 72.7017 60.5529 73.031C60.8909 73.3517 61.3242 73.512 61.8529 73.512C62.2862 73.512 62.6199 73.4557 62.8539 73.343C63.0966 73.2303 63.3132 73.07 63.5039 72.862C63.5732 72.7927 63.6339 72.745 63.6859 72.719C63.7466 72.693 63.8246 72.68 63.9199 72.68H64.3099C64.4139 72.68 64.5006 72.7147 64.5699 72.784C64.6392 72.8533 64.6696 72.9357 64.6609 73.031C64.6262 73.265 64.4962 73.5077 64.2709 73.759C64.0542 74.0017 63.7379 74.2097 63.3219 74.383C62.9146 74.5477 62.4249 74.63 61.8529 74.63C61.2982 74.63 60.8042 74.5043 60.3709 74.253C59.9376 73.993 59.5909 73.6377 59.3309 73.187C59.0796 72.7363 58.9279 72.2293 58.8759 71.666C58.8586 71.406 58.8499 71.2067 58.8499 71.068C58.8499 70.9293 58.8586 70.73 58.8759 70.47C58.9279 69.9327 59.0796 69.4473 59.3309 69.014C59.5909 68.5807 59.9332 68.2383 60.3579 67.987C60.7912 67.7357 61.2896 67.61 61.8529 67.61ZM63.6859 70.509V70.47C63.6859 69.9413 63.5169 69.521 63.1789 69.209C62.8496 68.8883 62.4076 68.728 61.8529 68.728C61.3502 68.728 60.9212 68.8883 60.5659 69.209C60.2192 69.5297 60.0416 69.95 60.0329 70.47V70.509H63.6859ZM69.8562 67.74C69.9516 67.74 70.0339 67.7747 70.1032 67.844C70.1726 67.9133 70.2072 67.9957 70.2072 68.091V68.507C70.2072 68.6023 70.1726 68.6847 70.1032 68.754C70.0339 68.8233 69.9516 68.858 69.8562 68.858H69.1022C68.6169 68.858 68.2442 68.988 67.9842 69.248C67.7329 69.4993 67.6072 69.8677 67.6072 70.353V74.149C67.6072 74.2443 67.5726 74.3267 67.5032 74.396C67.4339 74.4653 67.3516 74.5 67.2562 74.5H66.7752C66.6799 74.5 66.5976 74.4653 66.5282 74.396C66.4589 74.3267 66.4242 74.2443 66.4242 74.149V68.091C66.4242 67.9957 66.4589 67.9133 66.5282 67.844C66.5976 67.7747 66.6799 67.74 66.7752 67.74H67.2562C67.3516 67.74 67.4339 67.7747 67.5032 67.844C67.5726 67.9133 67.6072 67.9957 67.6072 68.091V68.494C67.7806 68.234 67.9886 68.0433 68.2312 67.922C68.4739 67.8007 68.7902 67.74 69.1802 67.74H69.8562ZM72.9623 71.497C71.697 71.2283 71.0643 70.5827 71.0643 69.56C71.0643 69.2047 71.1596 68.8797 71.3503 68.585C71.541 68.2903 71.8226 68.0563 72.1953 67.883C72.5766 67.701 73.0403 67.61 73.5863 67.61C74.1236 67.61 74.5873 67.688 74.9773 67.844C75.3673 68 75.662 68.195 75.8613 68.429C76.0693 68.663 76.1733 68.8883 76.1733 69.105C76.1733 69.1917 76.1386 69.2697 76.0693 69.339C76 69.3997 75.9176 69.43 75.8223 69.43H75.3933C75.2286 69.43 75.0986 69.3693 75.0033 69.248C74.7346 68.9013 74.2623 68.728 73.5863 68.728C73.1876 68.728 72.8626 68.8017 72.6113 68.949C72.3686 69.0963 72.2473 69.3 72.2473 69.56C72.2473 69.7767 72.308 69.9413 72.4293 70.054C72.5506 70.1667 72.7326 70.2577 72.9753 70.327C73.218 70.3963 73.647 70.5003 74.2623 70.639C75.025 70.8037 75.5666 71.055 75.8873 71.393C76.208 71.731 76.3683 72.1427 76.3683 72.628C76.3683 72.9833 76.2556 73.3127 76.0303 73.616C75.8136 73.9193 75.4973 74.1663 75.0813 74.357C74.674 74.539 74.1973 74.63 73.6513 74.63C73.114 74.63 72.6373 74.5477 72.2213 74.383C71.814 74.2097 71.4976 74.0017 71.2723 73.759C71.047 73.5163 70.9343 73.2867 70.9343 73.07C70.9343 72.9833 70.969 72.9097 71.0383 72.849C71.1076 72.7797 71.19 72.745 71.2853 72.745H71.7533C71.8313 72.745 71.9006 72.7537 71.9613 72.771C72.022 72.7883 72.0783 72.836 72.1303 72.914C72.4163 73.3127 72.9233 73.512 73.6513 73.512C74.0586 73.512 74.414 73.4297 74.7173 73.265C75.0293 73.0917 75.1853 72.8793 75.1853 72.628C75.1853 72.42 75.1073 72.2553 74.9513 72.134C74.804 72.004 74.5873 71.9 74.3013 71.822C74.0153 71.7353 73.569 71.627 72.9623 71.497ZM81.9305 70.223V70.054C81.9305 69.6293 81.7875 69.3043 81.5015 69.079C81.2241 68.845 80.8601 68.728 80.4095 68.728C80.0628 68.728 79.7898 68.7887 79.5905 68.91C79.3998 69.0227 79.2178 69.196 79.0445 69.43C78.9925 69.4993 78.9361 69.547 78.8755 69.573C78.8148 69.599 78.7325 69.612 78.6285 69.612H78.2385C78.1431 69.612 78.0565 69.5773 77.9785 69.508C77.9091 69.4387 77.8788 69.3563 77.8875 69.261C77.9135 69.001 78.0391 68.7453 78.2645 68.494C78.4985 68.234 78.8061 68.0217 79.1875 67.857C79.5688 67.6923 79.9761 67.61 80.4095 67.61C81.2155 67.61 81.8655 67.8353 82.3595 68.286C82.8621 68.7367 83.1135 69.3693 83.1135 70.184V74.149C83.1135 74.2443 83.0788 74.3267 83.0095 74.396C82.9401 74.4653 82.8578 74.5 82.7625 74.5H82.2815C82.1861 74.5 82.1038 74.4653 82.0345 74.396C81.9651 74.3267 81.9305 74.2443 81.9305 74.149V73.616C81.7918 73.928 81.4971 74.175 81.0465 74.357C80.5958 74.539 80.1451 74.63 79.6945 74.63C79.2525 74.63 78.8581 74.552 78.5115 74.396C78.1648 74.2313 77.8961 74.0103 77.7055 73.733C77.5235 73.4557 77.4325 73.1437 77.4325 72.797C77.4325 72.147 77.6751 71.64 78.1605 71.276C78.6458 70.9033 79.2915 70.652 80.0975 70.522L81.9305 70.223ZM81.9305 71.263L80.3965 71.51C79.8331 71.5967 79.3955 71.7397 79.0835 71.939C78.7715 72.1297 78.6155 72.3723 78.6155 72.667C78.6155 72.8837 78.7151 73.0787 78.9145 73.252C79.1138 73.4253 79.4171 73.512 79.8245 73.512C80.4485 73.512 80.9555 73.3343 81.3455 72.979C81.7355 72.6237 81.9305 72.16 81.9305 71.588V71.263ZM86.1932 74.149C86.1932 74.2443 86.1585 74.3267 86.0892 74.396C86.0198 74.4653 85.9375 74.5 85.8422 74.5H85.3612C85.2658 74.5 85.1835 74.4653 85.1142 74.396C85.0448 74.3267 85.0102 74.2443 85.0102 74.149V65.621C85.0102 65.5257 85.0448 65.4433 85.1142 65.374C85.1835 65.3047 85.2658 65.27 85.3612 65.27H85.8422C85.9375 65.27 86.0198 65.3047 86.0892 65.374C86.1585 65.4433 86.1932 65.5257 86.1932 65.621V74.149Z" fill="#EBECEE"/>
<rect x="40" y="81.5" width="38" height="25" rx="12.5" fill="#374151"/>
<path d="M57.1579 92.354C57.1766 92.6153 57.1859 93.0353 57.1859 93.614C57.1859 94.1833 57.1766 94.594 57.1579 94.846C57.0926 95.9567 56.7239 96.8667 56.0519 97.576C55.3892 98.2853 54.3952 98.64 53.0699 98.64C51.7446 98.64 50.7459 98.2853 50.0739 97.576C49.4112 96.8667 49.0472 95.9567 48.9819 94.846C48.9632 94.342 48.9539 93.9313 48.9539 93.614C48.9539 93.2967 48.9632 92.8767 48.9819 92.354C49.0472 91.2433 49.4112 90.3333 50.0739 89.624C50.7459 88.9147 51.7446 88.56 53.0699 88.56C54.3952 88.56 55.3892 88.9147 56.0519 89.624C56.7239 90.3333 57.0926 91.2433 57.1579 92.354ZM54.5679 92.424C54.5399 91.9107 54.4139 91.514 54.1899 91.234C53.9659 90.9447 53.5926 90.8 53.0699 90.8C52.5472 90.8 52.1739 90.9447 51.9499 91.234C51.7259 91.514 51.5999 91.9107 51.5719 92.424C51.5532 92.928 51.5439 93.3153 51.5439 93.586C51.5439 93.838 51.5532 94.2347 51.5719 94.776C51.5906 95.2893 51.7119 95.6907 51.9359 95.98C52.1692 96.26 52.5472 96.4 53.0699 96.4C53.5926 96.4 53.9659 96.26 54.1899 95.98C54.4232 95.6907 54.5492 95.2893 54.5679 94.776C54.5866 94.5053 54.5959 94.1087 54.5959 93.586C54.5959 93.0633 54.5866 92.676 54.5679 92.424ZM62.7646 91.682C62.7366 92.27 62.5359 92.7507 62.1626 93.124C61.7986 93.488 61.2666 93.67 60.5666 93.67C59.8666 93.67 59.3346 93.488 58.9706 93.124C58.6159 92.76 58.4152 92.2793 58.3686 91.682C58.3592 91.5607 58.3546 91.388 58.3546 91.164C58.3546 90.9307 58.3592 90.7487 58.3686 90.618C58.4152 90.0207 58.6159 89.54 58.9706 89.176C59.3346 88.812 59.8666 88.63 60.5666 88.63C61.2666 88.63 61.7939 88.812 62.1486 89.176C62.5126 89.54 62.7179 90.0207 62.7646 90.618C62.7832 90.8793 62.7926 91.0613 62.7926 91.164C62.7926 91.2667 62.7832 91.4393 62.7646 91.682ZM66.2646 88.966C66.3392 88.8727 66.4092 88.8073 66.4746 88.77C66.5492 88.7233 66.6472 88.7 66.7686 88.7H67.9166C68.0192 88.7 68.0986 88.728 68.1546 88.784C68.2199 88.8307 68.2526 88.896 68.2526 88.98C68.2526 89.036 68.2339 89.0873 68.1966 89.134L61.2806 98.234C61.2059 98.3273 61.1312 98.3973 61.0566 98.444C60.9912 98.4813 60.8979 98.5 60.7766 98.5H59.6286C59.5259 98.5 59.4419 98.4767 59.3766 98.43C59.3206 98.374 59.2926 98.304 59.2926 98.22C59.2926 98.164 59.3112 98.1127 59.3486 98.066L66.2646 88.966ZM60.5666 92.34C60.7626 92.34 60.9026 92.284 60.9866 92.172C61.0706 92.06 61.1219 91.8733 61.1406 91.612C61.1592 91.388 61.1686 91.234 61.1686 91.15C61.1686 91.0473 61.1592 90.8933 61.1406 90.688C61.1219 90.4267 61.0706 90.24 60.9866 90.128C60.9026 90.016 60.7626 89.96 60.5666 89.96C60.3706 89.96 60.2306 90.016 60.1466 90.128C60.0626 90.24 60.0112 90.4267 59.9926 90.688C59.9832 90.7907 59.9786 90.9447 59.9786 91.15C59.9786 91.346 59.9832 91.5 59.9926 91.612C60.0112 91.8733 60.0626 92.06 60.1466 92.172C60.2306 92.284 60.3706 92.34 60.5666 92.34ZM69.2606 96.582C69.2326 97.17 69.0319 97.6507 68.6586 98.024C68.2946 98.388 67.7626 98.57 67.0626 98.57C66.3626 98.57 65.8306 98.388 65.4666 98.024C65.1119 97.66 64.9112 97.1793 64.8646 96.582C64.8552 96.4607 64.8506 96.288 64.8506 96.064C64.8506 95.8307 64.8552 95.6487 64.8646 95.518C64.9112 94.9207 65.1119 94.44 65.4666 94.076C65.8306 93.712 66.3626 93.53 67.0626 93.53C67.7626 93.53 68.2899 93.712 68.6446 94.076C69.0086 94.44 69.2139 94.9207 69.2606 95.518C69.2792 95.7793 69.2886 95.9613 69.2886 96.064C69.2886 96.1667 69.2792 96.3393 69.2606 96.582ZM67.0626 97.24C67.2586 97.24 67.3986 97.184 67.4826 97.072C67.5666 96.96 67.6179 96.7733 67.6366 96.512C67.6552 96.288 67.6646 96.134 67.6646 96.05C67.6646 95.9473 67.6552 95.7933 67.6366 95.588C67.6179 95.3267 67.5666 95.14 67.4826 95.028C67.3986 94.916 67.2586 94.86 67.0626 94.86C66.8666 94.86 66.7266 94.916 66.6426 95.028C66.5586 95.14 66.5072 95.3267 66.4886 95.588C66.4792 95.6907 66.4746 95.8447 66.4746 96.05C66.4746 96.246 66.4792 96.4 66.4886 96.512C66.5072 96.7733 66.5586 96.96 66.6426 97.072C66.7266 97.184 66.8666 97.24 67.0626 97.24Z" fill="white"/>
<g filter="url(#filter0_d_34428_7874)">
<rect x="88" y="14" width="28" height="28" rx="14" fill="white"/>
<rect x="87" y="13" width="30" height="30" rx="15" stroke="#374151" stroke-width="2"/>
<path opacity="0.4" d="M102.001 30.4917C102.337 30.4917 102.609 30.7641 102.609 31.1001C102.609 31.436 102.337 31.7085 102.001 31.7085C101.665 31.7085 101.393 31.436 101.393 31.1001C101.393 30.7641 101.665 30.4917 102.001 30.4917Z" fill="#272E3A" stroke="#272E3A" stroke-width="1.5"/>
<path d="M98.124 26.6167H105.874C107.556 26.6167 108.395 26.8857 108.854 27.3452C109.314 27.8048 109.583 28.6432 109.583 30.3247V31.8755C109.583 33.557 109.314 34.3954 108.854 34.855C108.395 35.3145 107.556 35.5835 105.874 35.5835H98.124C96.4424 35.5835 95.6041 35.3145 95.1445 34.855C94.685 34.3955 94.4161 33.5571 94.416 31.8755V30.3247C94.4161 28.643 94.685 27.8047 95.1445 27.3452C95.6041 26.8857 96.4423 26.6167 98.124 26.6167ZM101.999 27.8335C100.192 27.8337 98.7324 29.3043 98.7324 31.1001C98.7325 32.8959 100.192 34.3665 101.999 34.3667C103.806 34.3667 105.266 32.896 105.266 31.1001C105.266 29.3042 103.807 27.8335 101.999 27.8335Z" fill="#272E3A" stroke="#272E3A" stroke-width="1.5"/>
<g opacity="0.4">
<mask id="path-16-inside-1_34428_7874" fill="white">
<path d="M97.9342 25.8748V24.8998C97.9342 22.4582 98.6259 20.8332 102.001 20.8332C105.376 20.8332 106.068 22.4582 106.068 24.8998V25.8748C106.493 25.8832 106.876 25.8998 107.234 25.9498V24.8998C107.234 22.6498 106.693 19.6665 102.001 19.6665C97.3092 19.6665 96.7676 22.6498 96.7676 24.8998V25.9415C97.1176 25.8998 97.5092 25.8748 97.9342 25.8748Z"/>
</mask>
<path d="M97.9342 25.8748V24.8998C97.9342 22.4582 98.6259 20.8332 102.001 20.8332C105.376 20.8332 106.068 22.4582 106.068 24.8998V25.8748C106.493 25.8832 106.876 25.8998 107.234 25.9498V24.8998C107.234 22.6498 106.693 19.6665 102.001 19.6665C97.3092 19.6665 96.7676 22.6498 96.7676 24.8998V25.9415C97.1176 25.8998 97.5092 25.8748 97.9342 25.8748Z" fill="#272E3A"/>
<path d="M97.9342 25.8748V27.3748H99.4342V25.8748H97.9342ZM106.068 25.8748H104.568V27.3457L106.038 27.3745L106.068 25.8748ZM107.234 25.9498L107.027 27.4354L108.734 27.6737V25.9498H107.234ZM107.234 24.8998H105.734H107.234ZM96.7676 25.9415H95.2676V27.6307L96.9449 27.431L96.7676 25.9415ZM97.9342 25.8748H99.4342V24.8998H97.9342H96.4342V25.8748H97.9342ZM97.9342 24.8998H99.4342C99.4342 23.7471 99.6156 23.1967 99.8528 22.913C100.039 22.6905 100.52 22.3332 102.001 22.3332V20.8332V19.3332C100.107 19.3332 98.5547 19.7884 97.5511 20.9888C96.5988 22.128 96.4342 23.6109 96.4342 24.8998H97.9342ZM102.001 20.8332V22.3332C103.482 22.3332 103.963 22.6905 104.149 22.913C104.386 23.1967 104.568 23.7471 104.568 24.8998H106.068H107.568C107.568 23.6109 107.403 22.128 106.451 20.9888C105.447 19.7884 103.895 19.3332 102.001 19.3332V20.8332ZM106.068 24.8998H104.568V25.8748H106.068H107.568V24.8998H106.068ZM106.068 25.8748L106.038 27.3745C106.451 27.3826 106.761 27.3983 107.027 27.4354L107.234 25.9498L107.442 24.4642C106.991 24.4014 106.535 24.3837 106.097 24.3751L106.068 25.8748ZM107.234 25.9498H108.734V24.8998H107.234H105.734V25.9498H107.234ZM107.234 24.8998L108.734 24.8998C108.734 23.7116 108.606 22.002 107.604 20.5769C106.526 19.0428 104.687 18.1665 102.001 18.1665V19.6665V21.1665C104.006 21.1665 104.784 21.7819 105.15 22.302C105.592 22.931 105.734 23.8381 105.734 24.8998L107.234 24.8998ZM102.001 19.6665V18.1665C99.3145 18.1665 97.4759 19.0428 96.3977 20.5769C95.396 22.002 95.2676 23.7116 95.2676 24.8998H96.7676H98.2676C98.2676 23.8381 98.41 22.931 98.8521 22.302C99.2176 21.7819 99.9956 21.1665 102.001 21.1665V19.6665ZM96.7676 24.8998H95.2676V25.9415H96.7676H98.2676V24.8998H96.7676ZM96.7676 25.9415L96.9449 27.431C97.2351 27.3964 97.5675 27.3748 97.9342 27.3748V25.8748V24.3748C97.451 24.3748 97.0001 24.4032 96.5903 24.452L96.7676 25.9415Z" fill="#272E3A" mask="url(#path-16-inside-1_34428_7874)"/>
</g>
</g>
<defs>
<filter id="filter0_d_34428_7874" x="71" y="5" width="62" height="62" filterUnits="userSpaceOnUse" color-interpolation-filters="sRGB">
<feFlood flood-opacity="0" result="BackgroundImageFix"/>
<feColorMatrix in="SourceAlpha" type="matrix" values="0 0 0 0 0 0 0 0 0 0 0 0 0 0 0 0 0 0 127 0" result="hardAlpha"/>
<feOffset dy="8"/>
<feGaussianBlur stdDeviation="7.5"/>
<feColorMatrix type="matrix" values="0 0 0 0 0 0 0 0 0 0 0 0 0 0 0 0 0 0 0.25 0"/>
<feBlend mode="normal" in2="BackgroundImageFix" result="effect1_dropShadow_34428_7874"/>
<feBlend mode="normal" in="SourceGraphic" in2="effect1_dropShadow_34428_7874" result="shape"/>
</filter>
<clipPath id="clip0_34428_7874">
<rect width="22.5829" height="26.6667" fill="white" transform="matrix(-1 0 0 1 69.791 14.1665)"/>
</clipPath>
</defs>
</svg>
