<svg width="133" height="118" viewBox="0 0 133 118" fill="none" xmlns="http://www.w3.org/2000/svg">
<rect x="2" y="2" width="114" height="114" rx="57" fill="#1E242D"/>
<rect x="2" y="2" width="114" height="114" rx="57" stroke="#374151" stroke-width="4"/>
<g clip-path="url(#clip0_34428_7854)">
<mask id="mask0_34428_7854" style="mask-type:luminance" maskUnits="userSpaceOnUse" x="43" y="19" width="32" height="32">
<path d="M75 19H43V51H75V19Z" fill="white"/>
</mask>
<g mask="url(#mask0_34428_7854)">
<path d="M59 42.6663C58.4533 42.6663 58 42.213 58 41.6663V36.333C58 35.7863 58.4533 35.333 59 35.333C59.5467 35.333 60 35.7863 60 36.333V41.6663C60 42.213 59.5467 42.6663 59 42.6663Z" fill="#2D68F8"/>
<path d="M61.6654 40H56.332C55.7854 40 55.332 39.5467 55.332 39C55.332 38.4533 55.7854 38 56.332 38H61.6654C62.212 38 62.6654 38.4533 62.6654 39C62.6654 39.5467 62.212 40 61.6654 40Z" fill="#2D68F8"/>
<path opacity="0.4" d="M68.1057 43.7733V33.1467C68.1057 31.48 66.7456 30.1067 65.0656 30.1067C64.2256 30.1067 63.5456 29.4267 63.5456 28.5867V27H54.439V28.6C54.439 29.44 53.7589 30.12 52.9189 30.12C51.2523 30.12 49.8789 31.48 49.8789 33.16V43.7867C49.8789 46.2933 51.9323 48.3467 54.439 48.3467H63.5456C66.0656 48.3333 68.1057 46.28 68.1057 43.7733Z" fill="#2D68F8"/>
<path d="M63.6654 21.6665H54.332C53.2254 21.6665 52.332 22.5598 52.332 23.6665V24.9998C52.332 26.1065 53.2254 26.9998 54.332 26.9998H63.6654C64.772 26.9998 65.6654 26.1065 65.6654 24.9998V23.6665C65.6654 22.5598 64.772 21.6665 63.6654 21.6665Z" fill="#2D68F8"/>
</g>
</g>
<path d="M25.9891 57.9C26.8905 57.9 27.6358 58.134 28.2251 58.602C28.8231 59.07 29.1221 59.7547 29.1221 60.656C29.1221 61.2627 28.9791 61.7783 28.6931 62.203C28.4158 62.6277 28.0388 62.944 27.5621 63.152C27.0941 63.36 26.5698 63.464 25.9891 63.464H23.5971V66.649C23.5971 66.7443 23.5625 66.8267 23.4931 66.896C23.4238 66.9653 23.3415 67 23.2461 67H22.7131C22.6178 67 22.5355 66.9653 22.4661 66.896C22.3968 66.8267 22.3621 66.7443 22.3621 66.649V58.251C22.3621 58.1557 22.3968 58.0733 22.4661 58.004C22.5355 57.9347 22.6178 57.9 22.7131 57.9H25.9891ZM25.9241 62.294C26.5568 62.294 27.0421 62.1597 27.3801 61.891C27.7181 61.6137 27.8871 61.202 27.8871 60.656C27.8871 59.5987 27.2328 59.07 25.9241 59.07H23.5971V62.294H25.9241ZM33.9666 60.24C34.0619 60.24 34.1442 60.2747 34.2136 60.344C34.2829 60.4133 34.3176 60.4957 34.3176 60.591V61.007C34.3176 61.1023 34.2829 61.1847 34.2136 61.254C34.1442 61.3233 34.0619 61.358 33.9666 61.358H33.2126C32.7272 61.358 32.3546 61.488 32.0946 61.748C31.8432 61.9993 31.7176 62.3677 31.7176 62.853V66.649C31.7176 66.7443 31.6829 66.8267 31.6136 66.896C31.5442 66.9653 31.4619 67 31.3666 67H30.8856C30.7902 67 30.7079 66.9653 30.6386 66.896C30.5692 66.8267 30.5346 66.7443 30.5346 66.649V60.591C30.5346 60.4957 30.5692 60.4133 30.6386 60.344C30.7079 60.2747 30.7902 60.24 30.8856 60.24H31.3666C31.4619 60.24 31.5442 60.2747 31.6136 60.344C31.6829 60.4133 31.7176 60.4957 31.7176 60.591V60.994C31.8909 60.734 32.0989 60.5433 32.3416 60.422C32.5842 60.3007 32.9006 60.24 33.2906 60.24H33.9666ZM38.1127 60.11C39.04 60.11 39.7723 60.4047 40.3097 60.994C40.847 61.5833 41.1157 62.385 41.1157 63.399V63.75C41.1157 63.8453 41.081 63.9277 41.0117 63.997C40.9423 64.0663 40.86 64.101 40.7647 64.101H36.2927V64.179C36.31 64.751 36.4833 65.2017 36.8127 65.531C37.1507 65.8517 37.584 66.012 38.1127 66.012C38.546 66.012 38.8797 65.9557 39.1137 65.843C39.3563 65.7303 39.573 65.57 39.7637 65.362C39.833 65.2927 39.8937 65.245 39.9457 65.219C40.0063 65.193 40.0843 65.18 40.1797 65.18H40.5697C40.6737 65.18 40.7603 65.2147 40.8297 65.284C40.899 65.3533 40.9293 65.4357 40.9207 65.531C40.886 65.765 40.756 66.0077 40.5307 66.259C40.314 66.5017 39.9977 66.7097 39.5817 66.883C39.1743 67.0477 38.6847 67.13 38.1127 67.13C37.558 67.13 37.064 67.0043 36.6307 66.753C36.1973 66.493 35.8507 66.1377 35.5907 65.687C35.3393 65.2363 35.1877 64.7293 35.1357 64.166C35.1183 63.906 35.1097 63.7067 35.1097 63.568C35.1097 63.4293 35.1183 63.23 35.1357 62.97C35.1877 62.4327 35.3393 61.9473 35.5907 61.514C35.8507 61.0807 36.193 60.7383 36.6177 60.487C37.051 60.2357 37.5493 60.11 38.1127 60.11ZM39.9457 63.009V62.97C39.9457 62.4413 39.7767 62.021 39.4387 61.709C39.1093 61.3883 38.6673 61.228 38.1127 61.228C37.61 61.228 37.181 61.3883 36.8257 61.709C36.479 62.0297 36.3013 62.45 36.2927 62.97V63.009H39.9457ZM43.867 60.994C44.075 60.7253 44.309 60.513 44.569 60.357C44.829 60.1923 45.1757 60.11 45.609 60.11C46.623 60.11 47.3337 60.487 47.741 61.241C47.9923 60.877 48.2783 60.5997 48.599 60.409C48.9197 60.2097 49.34 60.11 49.86 60.11C50.7093 60.11 51.3377 60.3657 51.745 60.877C52.161 61.3883 52.369 62.112 52.369 63.048V66.649C52.369 66.7443 52.3343 66.8267 52.265 66.896C52.1957 66.9653 52.1133 67 52.018 67H51.537C51.4417 67 51.3593 66.9653 51.29 66.896C51.2207 66.8267 51.186 66.7443 51.186 66.649V63.178C51.186 61.878 50.6747 61.228 49.652 61.228C49.184 61.228 48.8113 61.384 48.534 61.696C48.2567 62.008 48.118 62.4717 48.118 63.087V66.649C48.118 66.7443 48.0833 66.8267 48.014 66.896C47.9447 66.9653 47.8623 67 47.767 67H47.286C47.1907 67 47.1083 66.9653 47.039 66.896C46.9697 66.8267 46.935 66.7443 46.935 66.649V63.178C46.935 61.878 46.4237 61.228 45.401 61.228C44.933 61.228 44.5603 61.384 44.283 61.696C44.0057 62.008 43.867 62.4717 43.867 63.087V66.649C43.867 66.7443 43.8323 66.8267 43.763 66.896C43.6937 66.9653 43.6113 67 43.516 67H43.035C42.9397 67 42.8573 66.9653 42.788 66.896C42.7187 66.8267 42.684 66.7443 42.684 66.649V60.591C42.684 60.4957 42.7187 60.4133 42.788 60.344C42.8573 60.2747 42.9397 60.24 43.035 60.24H43.516C43.6113 60.24 43.6937 60.2747 43.763 60.344C43.8323 60.4133 43.867 60.4957 43.867 60.591V60.994ZM56.9144 60.11C57.8417 60.11 58.5741 60.4047 59.1114 60.994C59.6487 61.5833 59.9174 62.385 59.9174 63.399V63.75C59.9174 63.8453 59.8827 63.9277 59.8134 63.997C59.7441 64.0663 59.6617 64.101 59.5664 64.101H55.0944V64.179C55.1117 64.751 55.2851 65.2017 55.6144 65.531C55.9524 65.8517 56.3857 66.012 56.9144 66.012C57.3477 66.012 57.6814 65.9557 57.9154 65.843C58.1581 65.7303 58.3747 65.57 58.5654 65.362C58.6347 65.2927 58.6954 65.245 58.7474 65.219C58.8081 65.193 58.8861 65.18 58.9814 65.18H59.3714C59.4754 65.18 59.5621 65.2147 59.6314 65.284C59.7007 65.3533 59.7311 65.4357 59.7224 65.531C59.6877 65.765 59.5577 66.0077 59.3324 66.259C59.1157 66.5017 58.7994 66.7097 58.3834 66.883C57.9761 67.0477 57.4864 67.13 56.9144 67.13C56.3597 67.13 55.8657 67.0043 55.4324 66.753C54.9991 66.493 54.6524 66.1377 54.3924 65.687C54.1411 65.2363 53.9894 64.7293 53.9374 64.166C53.9201 63.906 53.9114 63.7067 53.9114 63.568C53.9114 63.4293 53.9201 63.23 53.9374 62.97C53.9894 62.4327 54.1411 61.9473 54.3924 61.514C54.6524 61.0807 54.9947 60.7383 55.4194 60.487C55.8527 60.2357 56.3511 60.11 56.9144 60.11ZM58.7474 63.009V62.97C58.7474 62.4413 58.5784 62.021 58.2404 61.709C57.9111 61.3883 57.4691 61.228 56.9144 61.228C56.4117 61.228 55.9827 61.3883 55.6274 61.709C55.2807 62.0297 55.1031 62.45 55.0944 62.97V63.009H58.7474ZM66.1267 58.121C66.1267 58.0257 66.1614 57.9433 66.2307 57.874C66.3001 57.8047 66.3824 57.77 66.4777 57.77H66.9587C67.0541 57.77 67.1364 57.8047 67.2057 57.874C67.2751 57.9433 67.3097 58.0257 67.3097 58.121V66.649C67.3097 66.7443 67.2751 66.8267 67.2057 66.896C67.1364 66.9653 67.0541 67 66.9587 67H66.4777C66.3824 67 66.3001 66.9653 66.2307 66.896C66.1614 66.8267 66.1267 66.7443 66.1267 66.649V66.246C65.6847 66.8353 65.0131 67.13 64.1117 67.13C63.5744 67.13 63.0847 67.0043 62.6427 66.753C62.2094 66.5017 61.8584 66.142 61.5897 65.674C61.3297 65.206 61.1867 64.66 61.1607 64.036L61.1477 63.607L61.1607 63.191C61.1867 62.567 61.3297 62.0253 61.5897 61.566C61.8584 61.098 62.2094 60.7383 62.6427 60.487C63.0761 60.2357 63.5657 60.11 64.1117 60.11C64.5971 60.11 65.0044 60.1967 65.3337 60.37C65.6717 60.5347 65.9361 60.7427 66.1267 60.994V58.121ZM66.1267 63.152C66.1007 62.5453 65.9187 62.073 65.5807 61.735C65.2427 61.397 64.7964 61.228 64.2417 61.228C63.6784 61.228 63.2277 61.41 62.8897 61.774C62.5604 62.138 62.3784 62.632 62.3437 63.256L62.3307 63.62L62.3437 63.984C62.3784 64.608 62.5604 65.102 62.8897 65.466C63.2277 65.83 63.6784 66.012 64.2417 66.012C64.7791 66.012 65.2211 65.8473 65.5677 65.518C65.9144 65.18 66.1007 64.7337 66.1267 64.179C66.1354 64.0923 66.1397 63.919 66.1397 63.659C66.1397 63.4077 66.1354 63.2387 66.1267 63.152ZM70.5683 58.862C70.5683 58.9573 70.5336 59.0397 70.4643 59.109C70.3949 59.1783 70.3126 59.213 70.2173 59.213H69.4763C69.3809 59.213 69.2986 59.1783 69.2293 59.109C69.1599 59.0397 69.1253 58.9573 69.1253 58.862V58.121C69.1253 58.0257 69.1599 57.9433 69.2293 57.874C69.2986 57.8047 69.3809 57.77 69.4763 57.77H70.2173C70.3126 57.77 70.3949 57.8047 70.4643 57.874C70.5336 57.9433 70.5683 58.0257 70.5683 58.121V58.862ZM70.4383 66.649C70.4383 66.7443 70.4036 66.8267 70.3343 66.896C70.2649 66.9653 70.1826 67 70.0873 67H69.6063C69.5109 67 69.4286 66.9653 69.3593 66.896C69.2899 66.8267 69.2553 66.7443 69.2553 66.649V60.591C69.2553 60.4957 69.2899 60.4133 69.3593 60.344C69.4286 60.2747 69.5109 60.24 69.6063 60.24H70.0873C70.1826 60.24 70.2649 60.2747 70.3343 60.344C70.4036 60.4133 70.4383 60.4957 70.4383 60.591V66.649ZM75.121 66.012C75.9877 66.012 76.5727 65.674 76.876 64.998C76.9367 64.868 76.9973 64.777 77.058 64.725C77.1187 64.673 77.201 64.647 77.305 64.647H77.695C77.7903 64.647 77.8727 64.6817 77.942 64.751C78.0113 64.8117 78.046 64.8853 78.046 64.972C78.046 65.2667 77.929 65.583 77.695 65.921C77.461 66.259 77.123 66.545 76.681 66.779C76.239 67.013 75.719 67.13 75.121 67.13C74.5057 67.13 73.9727 67 73.522 66.74C73.0713 66.48 72.7247 66.1247 72.482 65.674C72.2393 65.2147 72.105 64.7033 72.079 64.14C72.0703 64.036 72.066 63.8367 72.066 63.542C72.066 63.334 72.0703 63.1867 72.079 63.1C72.157 62.216 72.456 61.4967 72.976 60.942C73.496 60.3873 74.211 60.11 75.121 60.11C75.719 60.11 76.2347 60.227 76.668 60.461C77.11 60.6863 77.4437 60.968 77.669 61.306C77.903 61.6353 78.0287 61.9473 78.046 62.242C78.0547 62.3373 78.02 62.4197 77.942 62.489C77.8727 62.5583 77.7903 62.593 77.695 62.593H77.305C77.201 62.593 77.1187 62.567 77.058 62.515C76.9973 62.463 76.9367 62.372 76.876 62.242C76.5727 61.566 75.9877 61.228 75.121 61.228C74.6443 61.228 74.2283 61.3883 73.873 61.709C73.5177 62.0297 73.314 62.515 73.262 63.165C73.2533 63.2603 73.249 63.4163 73.249 63.633C73.249 63.8323 73.2533 63.9797 73.262 64.075C73.3227 64.725 73.5263 65.2103 73.873 65.531C74.2283 65.8517 74.6443 66.012 75.121 66.012ZM80.915 58.862C80.915 58.9573 80.8803 59.0397 80.811 59.109C80.7416 59.1783 80.6593 59.213 80.564 59.213H79.823C79.7276 59.213 79.6453 59.1783 79.576 59.109C79.5066 59.0397 79.472 58.9573 79.472 58.862V58.121C79.472 58.0257 79.5066 57.9433 79.576 57.874C79.6453 57.8047 79.7276 57.77 79.823 57.77H80.564C80.6593 57.77 80.7416 57.8047 80.811 57.874C80.8803 57.9433 80.915 58.0257 80.915 58.121V58.862ZM80.785 66.649C80.785 66.7443 80.7503 66.8267 80.681 66.896C80.6116 66.9653 80.5293 67 80.434 67H79.953C79.8576 67 79.7753 66.9653 79.706 66.896C79.6366 66.8267 79.602 66.7443 79.602 66.649V60.591C79.602 60.4957 79.6366 60.4133 79.706 60.344C79.7753 60.2747 79.8576 60.24 79.953 60.24H80.434C80.5293 60.24 80.6116 60.2747 80.681 60.344C80.7503 60.4133 80.785 60.4957 80.785 60.591V66.649ZM88.7437 66.649C88.7437 66.7443 88.709 66.8267 88.6397 66.896C88.5704 66.9653 88.488 67 88.3927 67H87.9117C87.8164 67 87.734 66.9653 87.6647 66.896C87.5954 66.8267 87.5607 66.7443 87.5607 66.649V63.217C87.5607 62.567 87.4004 62.073 87.0797 61.735C86.759 61.397 86.3127 61.228 85.7407 61.228C85.1774 61.228 84.731 61.397 84.4017 61.735C84.081 62.073 83.9207 62.567 83.9207 63.217V66.649C83.9207 66.7443 83.886 66.8267 83.8167 66.896C83.7474 66.9653 83.665 67 83.5697 67H83.0887C82.9934 67 82.911 66.9653 82.8417 66.896C82.7724 66.8267 82.7377 66.7443 82.7377 66.649V60.591C82.7377 60.4957 82.7724 60.4133 82.8417 60.344C82.911 60.2747 82.9934 60.24 83.0887 60.24H83.5697C83.665 60.24 83.7474 60.2747 83.8167 60.344C83.886 60.4133 83.9207 60.4957 83.9207 60.591V60.994C84.1114 60.7427 84.3714 60.5347 84.7007 60.37C85.0387 60.1967 85.4504 60.11 85.9357 60.11C86.4817 60.11 86.967 60.227 87.3917 60.461C87.8164 60.695 88.1457 61.033 88.3797 61.475C88.6224 61.9083 88.7437 62.424 88.7437 63.022V66.649ZM94.6512 62.723V62.554C94.6512 62.1293 94.5082 61.8043 94.2222 61.579C93.9448 61.345 93.5808 61.228 93.1302 61.228C92.7835 61.228 92.5105 61.2887 92.3112 61.41C92.1205 61.5227 91.9385 61.696 91.7652 61.93C91.7132 61.9993 91.6568 62.047 91.5962 62.073C91.5355 62.099 91.4532 62.112 91.3492 62.112H90.9592C90.8638 62.112 90.7772 62.0773 90.6992 62.008C90.6298 61.9387 90.5995 61.8563 90.6082 61.761C90.6342 61.501 90.7598 61.2453 90.9852 60.994C91.2192 60.734 91.5268 60.5217 91.9082 60.357C92.2895 60.1923 92.6968 60.11 93.1302 60.11C93.9362 60.11 94.5862 60.3353 95.0802 60.786C95.5828 61.2367 95.8342 61.8693 95.8342 62.684V66.649C95.8342 66.7443 95.7995 66.8267 95.7302 66.896C95.6608 66.9653 95.5785 67 95.4832 67H95.0022C94.9068 67 94.8245 66.9653 94.7552 66.896C94.6858 66.8267 94.6512 66.7443 94.6512 66.649V66.116C94.5125 66.428 94.2178 66.675 93.7672 66.857C93.3165 67.039 92.8658 67.13 92.4152 67.13C91.9732 67.13 91.5788 67.052 91.2322 66.896C90.8855 66.7313 90.6168 66.5103 90.4262 66.233C90.2442 65.9557 90.1532 65.6437 90.1532 65.297C90.1532 64.647 90.3958 64.14 90.8812 63.776C91.3665 63.4033 92.0122 63.152 92.8182 63.022L94.6512 62.723ZM94.6512 63.763L93.1172 64.01C92.5538 64.0967 92.1162 64.2397 91.8042 64.439C91.4922 64.6297 91.3362 64.8723 91.3362 65.167C91.3362 65.3837 91.4358 65.5787 91.6352 65.752C91.8345 65.9253 92.1378 66.012 92.5452 66.012C93.1692 66.012 93.6762 65.8343 94.0662 65.479C94.4562 65.1237 94.6512 64.66 94.6512 64.088V63.763Z" fill="#EBECEE"/>
<rect x="40" y="74" width="38" height="25" rx="12.5" fill="#323B4A"/>
<path d="M57.1579 84.854C57.1766 85.1153 57.1859 85.5353 57.1859 86.114C57.1859 86.6833 57.1766 87.094 57.1579 87.346C57.0926 88.4567 56.7239 89.3667 56.0519 90.076C55.3892 90.7853 54.3952 91.14 53.0699 91.14C51.7446 91.14 50.7459 90.7853 50.0739 90.076C49.4112 89.3667 49.0472 88.4567 48.9819 87.346C48.9632 86.842 48.9539 86.4313 48.9539 86.114C48.9539 85.7967 48.9632 85.3767 48.9819 84.854C49.0472 83.7433 49.4112 82.8333 50.0739 82.124C50.7459 81.4147 51.7446 81.06 53.0699 81.06C54.3952 81.06 55.3892 81.4147 56.0519 82.124C56.7239 82.8333 57.0926 83.7433 57.1579 84.854ZM54.5679 84.924C54.5399 84.4107 54.4139 84.014 54.1899 83.734C53.9659 83.4447 53.5926 83.3 53.0699 83.3C52.5472 83.3 52.1739 83.4447 51.9499 83.734C51.7259 84.014 51.5999 84.4107 51.5719 84.924C51.5532 85.428 51.5439 85.8153 51.5439 86.086C51.5439 86.338 51.5532 86.7347 51.5719 87.276C51.5906 87.7893 51.7119 88.1907 51.9359 88.48C52.1692 88.76 52.5472 88.9 53.0699 88.9C53.5926 88.9 53.9659 88.76 54.1899 88.48C54.4232 88.1907 54.5492 87.7893 54.5679 87.276C54.5866 87.0053 54.5959 86.6087 54.5959 86.086C54.5959 85.5633 54.5866 85.176 54.5679 84.924ZM62.7646 84.182C62.7366 84.77 62.5359 85.2507 62.1626 85.624C61.7986 85.988 61.2666 86.17 60.5666 86.17C59.8666 86.17 59.3346 85.988 58.9706 85.624C58.6159 85.26 58.4152 84.7793 58.3686 84.182C58.3592 84.0607 58.3546 83.888 58.3546 83.664C58.3546 83.4307 58.3592 83.2487 58.3686 83.118C58.4152 82.5207 58.6159 82.04 58.9706 81.676C59.3346 81.312 59.8666 81.13 60.5666 81.13C61.2666 81.13 61.7939 81.312 62.1486 81.676C62.5126 82.04 62.7179 82.5207 62.7646 83.118C62.7832 83.3793 62.7926 83.5613 62.7926 83.664C62.7926 83.7667 62.7832 83.9393 62.7646 84.182ZM66.2646 81.466C66.3392 81.3727 66.4092 81.3073 66.4746 81.27C66.5492 81.2233 66.6472 81.2 66.7686 81.2H67.9166C68.0192 81.2 68.0986 81.228 68.1546 81.284C68.2199 81.3307 68.2526 81.396 68.2526 81.48C68.2526 81.536 68.2339 81.5873 68.1966 81.634L61.2806 90.734C61.2059 90.8273 61.1312 90.8973 61.0566 90.944C60.9912 90.9813 60.8979 91 60.7766 91H59.6286C59.5259 91 59.4419 90.9767 59.3766 90.93C59.3206 90.874 59.2926 90.804 59.2926 90.72C59.2926 90.664 59.3112 90.6127 59.3486 90.566L66.2646 81.466ZM60.5666 84.84C60.7626 84.84 60.9026 84.784 60.9866 84.672C61.0706 84.56 61.1219 84.3733 61.1406 84.112C61.1592 83.888 61.1686 83.734 61.1686 83.65C61.1686 83.5473 61.1592 83.3933 61.1406 83.188C61.1219 82.9267 61.0706 82.74 60.9866 82.628C60.9026 82.516 60.7626 82.46 60.5666 82.46C60.3706 82.46 60.2306 82.516 60.1466 82.628C60.0626 82.74 60.0112 82.9267 59.9926 83.188C59.9832 83.2907 59.9786 83.4447 59.9786 83.65C59.9786 83.846 59.9832 84 59.9926 84.112C60.0112 84.3733 60.0626 84.56 60.1466 84.672C60.2306 84.784 60.3706 84.84 60.5666 84.84ZM69.2606 89.082C69.2326 89.67 69.0319 90.1507 68.6586 90.524C68.2946 90.888 67.7626 91.07 67.0626 91.07C66.3626 91.07 65.8306 90.888 65.4666 90.524C65.1119 90.16 64.9112 89.6793 64.8646 89.082C64.8552 88.9607 64.8506 88.788 64.8506 88.564C64.8506 88.3307 64.8552 88.1487 64.8646 88.018C64.9112 87.4207 65.1119 86.94 65.4666 86.576C65.8306 86.212 66.3626 86.03 67.0626 86.03C67.7626 86.03 68.2899 86.212 68.6446 86.576C69.0086 86.94 69.2139 87.4207 69.2606 88.018C69.2792 88.2793 69.2886 88.4613 69.2886 88.564C69.2886 88.6667 69.2792 88.8393 69.2606 89.082ZM67.0626 89.74C67.2586 89.74 67.3986 89.684 67.4826 89.572C67.5666 89.46 67.6179 89.2733 67.6366 89.012C67.6552 88.788 67.6646 88.634 67.6646 88.55C67.6646 88.4473 67.6552 88.2933 67.6366 88.088C67.6179 87.8267 67.5666 87.64 67.4826 87.528C67.3986 87.416 67.2586 87.36 67.0626 87.36C66.8666 87.36 66.7266 87.416 66.6426 87.528C66.5586 87.64 66.5072 87.8267 66.4886 88.088C66.4792 88.1907 66.4746 88.3447 66.4746 88.55C66.4746 88.746 66.4792 88.9 66.4886 89.012C66.5072 89.2733 66.5586 89.46 66.6426 89.572C66.7266 89.684 66.8666 89.74 67.0626 89.74Z" fill="white"/>
<g filter="url(#filter0_d_34428_7854)">
<rect x="88" y="14" width="28" height="28" rx="14" fill="white"/>
<rect x="87" y="13" width="30" height="30" rx="15" stroke="#374151" stroke-width="2"/>
<path opacity="0.4" d="M102.001 30.4917C102.337 30.4917 102.609 30.7641 102.609 31.1001C102.609 31.436 102.337 31.7085 102.001 31.7085C101.665 31.7085 101.393 31.436 101.393 31.1001C101.393 30.7641 101.665 30.4917 102.001 30.4917Z" fill="#272E3A" stroke="#272E3A" stroke-width="1.5"/>
<path d="M98.124 26.6167H105.874C107.556 26.6167 108.395 26.8857 108.854 27.3452C109.314 27.8048 109.583 28.6432 109.583 30.3247V31.8755C109.583 33.557 109.314 34.3954 108.854 34.855C108.395 35.3145 107.556 35.5835 105.874 35.5835H98.124C96.4424 35.5835 95.6041 35.3145 95.1445 34.855C94.685 34.3955 94.4161 33.5571 94.416 31.8755V30.3247C94.4161 28.643 94.685 27.8047 95.1445 27.3452C95.6041 26.8857 96.4423 26.6167 98.124 26.6167ZM101.999 27.8335C100.192 27.8337 98.7324 29.3043 98.7324 31.1001C98.7325 32.8959 100.192 34.3665 101.999 34.3667C103.806 34.3667 105.266 32.896 105.266 31.1001C105.266 29.3042 103.807 27.8335 101.999 27.8335Z" fill="#272E3A" stroke="#272E3A" stroke-width="1.5"/>
<g opacity="0.4">
<mask id="path-14-inside-1_34428_7854" fill="white">
<path d="M97.9342 25.8748V24.8998C97.9342 22.4582 98.6259 20.8332 102.001 20.8332C105.376 20.8332 106.068 22.4582 106.068 24.8998V25.8748C106.493 25.8832 106.876 25.8998 107.234 25.9498V24.8998C107.234 22.6498 106.693 19.6665 102.001 19.6665C97.3092 19.6665 96.7676 22.6498 96.7676 24.8998V25.9415C97.1176 25.8998 97.5092 25.8748 97.9342 25.8748Z"/>
</mask>
<path d="M97.9342 25.8748V24.8998C97.9342 22.4582 98.6259 20.8332 102.001 20.8332C105.376 20.8332 106.068 22.4582 106.068 24.8998V25.8748C106.493 25.8832 106.876 25.8998 107.234 25.9498V24.8998C107.234 22.6498 106.693 19.6665 102.001 19.6665C97.3092 19.6665 96.7676 22.6498 96.7676 24.8998V25.9415C97.1176 25.8998 97.5092 25.8748 97.9342 25.8748Z" fill="#272E3A"/>
<path d="M97.9342 25.8748V27.3748H99.4342V25.8748H97.9342ZM106.068 25.8748H104.568V27.3457L106.038 27.3745L106.068 25.8748ZM107.234 25.9498L107.027 27.4354L108.734 27.6737V25.9498H107.234ZM107.234 24.8998H105.734H107.234ZM96.7676 25.9415H95.2676V27.6307L96.9449 27.431L96.7676 25.9415ZM97.9342 25.8748H99.4342V24.8998H97.9342H96.4342V25.8748H97.9342ZM97.9342 24.8998H99.4342C99.4342 23.7471 99.6156 23.1967 99.8528 22.913C100.039 22.6905 100.52 22.3332 102.001 22.3332V20.8332V19.3332C100.107 19.3332 98.5547 19.7884 97.5511 20.9888C96.5988 22.128 96.4342 23.6109 96.4342 24.8998H97.9342ZM102.001 20.8332V22.3332C103.482 22.3332 103.963 22.6905 104.149 22.913C104.386 23.1967 104.568 23.7471 104.568 24.8998H106.068H107.568C107.568 23.6109 107.403 22.128 106.451 20.9888C105.447 19.7884 103.895 19.3332 102.001 19.3332V20.8332ZM106.068 24.8998H104.568V25.8748H106.068H107.568V24.8998H106.068ZM106.068 25.8748L106.038 27.3745C106.451 27.3826 106.761 27.3983 107.027 27.4354L107.234 25.9498L107.442 24.4642C106.991 24.4014 106.535 24.3837 106.097 24.3751L106.068 25.8748ZM107.234 25.9498H108.734V24.8998H107.234H105.734V25.9498H107.234ZM107.234 24.8998L108.734 24.8998C108.734 23.7116 108.606 22.002 107.604 20.5769C106.526 19.0428 104.687 18.1665 102.001 18.1665V19.6665V21.1665C104.006 21.1665 104.784 21.7819 105.15 22.302C105.592 22.931 105.734 23.8381 105.734 24.8998L107.234 24.8998ZM102.001 19.6665V18.1665C99.3145 18.1665 97.4759 19.0428 96.3977 20.5769C95.396 22.002 95.2676 23.7116 95.2676 24.8998H96.7676H98.2676C98.2676 23.8381 98.41 22.931 98.8521 22.302C99.2176 21.7819 99.9956 21.1665 102.001 21.1665V19.6665ZM96.7676 24.8998H95.2676V25.9415H96.7676H98.2676V24.8998H96.7676ZM96.7676 25.9415L96.9449 27.431C97.2351 27.3964 97.5675 27.3748 97.9342 27.3748V25.8748V24.3748C97.451 24.3748 97.0001 24.4032 96.5903 24.452L96.7676 25.9415Z" fill="#272E3A" mask="url(#path-14-inside-1_34428_7854)"/>
</g>
</g>
<defs>
<filter id="filter0_d_34428_7854" x="71" y="5" width="62" height="62" filterUnits="userSpaceOnUse" color-interpolation-filters="sRGB">
<feFlood flood-opacity="0" result="BackgroundImageFix"/>
<feColorMatrix in="SourceAlpha" type="matrix" values="0 0 0 0 0 0 0 0 0 0 0 0 0 0 0 0 0 0 127 0" result="hardAlpha"/>
<feOffset dy="8"/>
<feGaussianBlur stdDeviation="7.5"/>
<feColorMatrix type="matrix" values="0 0 0 0 0 0 0 0 0 0 0 0 0 0 0 0 0 0 0.25 0"/>
<feBlend mode="normal" in2="BackgroundImageFix" result="effect1_dropShadow_34428_7854"/>
<feBlend mode="normal" in="SourceGraphic" in2="effect1_dropShadow_34428_7854" result="shape"/>
</filter>
<clipPath id="clip0_34428_7854">
<rect width="32" height="32" fill="white" transform="translate(43 19)"/>
</clipPath>
</defs>
</svg>
