<svg width="133" height="118" viewBox="0 0 133 118" fill="none" xmlns="http://www.w3.org/2000/svg">
<rect x="2" y="2" width="114" height="114" rx="57" fill="#1E242D"/>
<rect x="2" y="2" width="114" height="114" rx="57" stroke="#374151" stroke-width="4"/>
<path opacity="0.4" d="M63.6023 14.5H53.7977C49.5389 14.5 47 17.321 47 22.053V32.947C47 37.679 49.5389 40.5 53.7977 40.5H63.6023C67.8611 40.5 70.4 37.679 70.4 32.947V22.053C70.4 17.321 67.8611 14.5 63.6023 14.5Z" fill="#5F6774"/>
<path d="M56.3618 27.5002C56.3618 28.2109 56.0186 28.8002 55.5818 28.8002H50.1218C49.6954 28.8002 49.3418 28.2109 49.3418 27.5002C49.3418 26.7895 49.6954 26.2002 50.1218 26.2002H55.5818C56.0186 26.2002 56.3618 26.7895 56.3618 27.5002Z" fill="#5F6774"/>
<path d="M56.3618 22.3C56.3618 23.0107 56.0186 23.6 55.5818 23.6H50.1218C49.6954 23.6 49.3418 23.0107 49.3418 22.3C49.3418 21.5893 49.6954 21 50.1218 21H55.5818C56.0186 21 56.3618 21.5893 56.3618 22.3Z" fill="#5F6774"/>
<path d="M68.061 22.3C68.061 23.0107 67.7178 23.6 67.281 23.6H61.821C61.3946 23.6 61.041 23.0107 61.041 22.3C61.041 21.5893 61.3946 21 61.821 21H67.281C67.7178 21 68.061 21.5893 68.061 22.3Z" fill="#5F6774"/>
<path opacity="0.4" d="M58.6993 14.5C59.3389 14.5 59.8693 15.7711 59.8693 17.3889V37.6111C59.8693 39.1904 59.3389 40.5 58.6993 40.5C58.0597 40.5 57.5293 39.1904 57.5293 37.6111V17.3889C57.5293 15.7711 58.0597 14.5 58.6993 14.5Z" fill="#5F6774"/>
<path d="M68.061 27.5002C68.061 28.2109 67.7178 28.8002 67.281 28.8002H61.821C61.3946 28.8002 61.041 28.2109 61.041 27.5002C61.041 26.7895 61.3946 26.2002 61.821 26.2002H67.281C67.7178 26.2002 68.061 26.7895 68.061 27.5002Z" fill="#5F6774"/>
<path d="M56.3618 32.6999C56.3618 33.4106 56.0186 33.9999 55.5818 33.9999H50.1218C49.6954 33.9999 49.3418 33.4106 49.3418 32.6999C49.3418 31.9892 49.6954 31.3999 50.1218 31.3999H55.5818C56.0186 31.3999 56.3618 31.9892 56.3618 32.6999Z" fill="#5F6774"/>
<path d="M68.061 32.6999C68.061 33.4106 67.7178 33.9999 67.281 33.9999H61.821C61.3946 33.9999 61.041 33.4106 61.041 32.6999C61.041 31.9892 61.3946 31.3999 61.821 31.3999H67.281C67.7178 31.3999 68.061 31.9892 68.061 32.6999Z" fill="#5F6774"/>
<path d="M19.0951 56.042C19.1211 56.7787 19.3421 57.368 19.7581 57.81C20.1827 58.2433 20.7721 58.46 21.5261 58.46C22.2887 58.46 22.8521 58.2953 23.2161 57.966C23.5801 57.6367 23.8227 57.212 23.9441 56.692C23.9614 56.6053 24.0004 56.536 24.0611 56.484C24.1304 56.432 24.2041 56.406 24.2821 56.406H24.8801C24.9581 56.406 25.0231 56.4363 25.0751 56.497C25.1357 56.549 25.1661 56.614 25.1661 56.692C25.1487 57.1167 25.0101 57.5587 24.7501 58.018C24.4901 58.4687 24.0871 58.85 23.5411 59.162C23.0037 59.474 22.3321 59.63 21.5261 59.63C20.7981 59.63 20.1611 59.4783 19.6151 59.175C19.0691 58.8717 18.6444 58.4557 18.3411 57.927C18.0464 57.3897 17.8861 56.783 17.8601 56.107C17.8514 55.847 17.8471 55.4613 17.8471 54.95C17.8471 54.4387 17.8514 54.053 17.8601 53.793C17.8861 53.117 18.0464 52.5147 18.3411 51.986C18.6444 51.4487 19.0691 51.0283 19.6151 50.725C20.1611 50.4217 20.7981 50.27 21.5261 50.27C22.3321 50.27 23.0037 50.426 23.5411 50.738C24.0871 51.05 24.4901 51.4357 24.7501 51.895C25.0101 52.3457 25.1487 52.7833 25.1661 53.208C25.1661 53.286 25.1357 53.3553 25.0751 53.416C25.0231 53.468 24.9581 53.494 24.8801 53.494H24.2821C24.2041 53.494 24.1304 53.468 24.0611 53.416C24.0004 53.364 23.9614 53.2947 23.9441 53.208C23.8227 52.688 23.5801 52.2633 23.2161 51.934C22.8521 51.6047 22.2887 51.44 21.5261 51.44C20.7721 51.44 20.1827 51.661 19.7581 52.103C19.3421 52.5363 19.1211 53.1213 19.0951 53.858C19.0864 54.118 19.0821 54.482 19.0821 54.95C19.0821 55.418 19.0864 55.782 19.0951 56.042ZM32.576 55.509C32.5933 55.6997 32.602 55.9077 32.602 56.133C32.602 56.341 32.5933 56.5403 32.576 56.731C32.498 57.615 32.1903 58.3213 31.653 58.85C31.1243 59.37 30.405 59.63 29.495 59.63C28.585 59.63 27.8613 59.37 27.324 58.85C26.7953 58.3213 26.492 57.615 26.414 56.731C26.4053 56.6357 26.401 56.4363 26.401 56.133C26.401 55.8123 26.4053 55.6043 26.414 55.509C26.4833 54.625 26.7866 53.923 27.324 53.403C27.8613 52.8743 28.585 52.61 29.495 52.61C30.405 52.61 31.1286 52.8743 31.666 53.403C32.2033 53.923 32.5066 54.625 32.576 55.509ZM31.393 55.574C31.341 55.0193 31.1546 54.573 30.834 54.235C30.522 53.897 30.0756 53.728 29.495 53.728C28.9143 53.728 28.4636 53.897 28.143 54.235C27.831 54.573 27.649 55.0193 27.597 55.574C27.5883 55.678 27.584 55.8643 27.584 56.133C27.584 56.393 27.5883 56.5707 27.597 56.666C27.649 57.2207 27.831 57.667 28.143 58.005C28.4636 58.343 28.9143 58.512 29.495 58.512C30.0756 58.512 30.522 58.343 30.834 58.005C31.1546 57.667 31.341 57.2207 31.393 56.666C31.4103 56.4753 31.419 56.2977 31.419 56.133C31.419 55.9683 31.4103 55.782 31.393 55.574ZM35.4119 53.494C35.6199 53.2253 35.8539 53.013 36.1139 52.857C36.3739 52.6923 36.7206 52.61 37.1539 52.61C38.1679 52.61 38.8786 52.987 39.2859 53.741C39.5372 53.377 39.8232 53.0997 40.1439 52.909C40.4646 52.7097 40.8849 52.61 41.4049 52.61C42.2542 52.61 42.8826 52.8657 43.2899 53.377C43.7059 53.8883 43.9139 54.612 43.9139 55.548V59.149C43.9139 59.2443 43.8792 59.3267 43.8099 59.396C43.7406 59.4653 43.6582 59.5 43.5629 59.5H43.0819C42.9866 59.5 42.9042 59.4653 42.8349 59.396C42.7656 59.3267 42.7309 59.2443 42.7309 59.149V55.678C42.7309 54.378 42.2196 53.728 41.1969 53.728C40.7289 53.728 40.3562 53.884 40.0789 54.196C39.8016 54.508 39.6629 54.9717 39.6629 55.587V59.149C39.6629 59.2443 39.6282 59.3267 39.5589 59.396C39.4896 59.4653 39.4072 59.5 39.3119 59.5H38.8309C38.7356 59.5 38.6532 59.4653 38.5839 59.396C38.5146 59.3267 38.4799 59.2443 38.4799 59.149V55.678C38.4799 54.378 37.9686 53.728 36.9459 53.728C36.4779 53.728 36.1052 53.884 35.8279 54.196C35.5506 54.508 35.4119 54.9717 35.4119 55.587V59.149C35.4119 59.2443 35.3772 59.3267 35.3079 59.396C35.2386 59.4653 35.1562 59.5 35.0609 59.5H34.5799C34.4846 59.5 34.4022 59.4653 34.3329 59.396C34.2636 59.3267 34.2289 59.2443 34.2289 59.149V53.091C34.2289 52.9957 34.2636 52.9133 34.3329 52.844C34.4022 52.7747 34.4846 52.74 34.5799 52.74H35.0609C35.1562 52.74 35.2386 52.7747 35.3079 52.844C35.3772 52.9133 35.4119 52.9957 35.4119 53.091V53.494ZM46.9773 61.619C46.9773 61.7143 46.9427 61.7967 46.8733 61.866C46.804 61.9353 46.7217 61.97 46.6263 61.97H46.1453C46.05 61.97 45.9677 61.9353 45.8983 61.866C45.829 61.7967 45.7943 61.7143 45.7943 61.619V53.091C45.7943 52.9957 45.829 52.9133 45.8983 52.844C45.9677 52.7747 46.05 52.74 46.1453 52.74H46.6263C46.7217 52.74 46.804 52.7747 46.8733 52.844C46.9427 52.9133 46.9773 52.9957 46.9773 53.091V53.494C47.4193 52.9047 48.091 52.61 48.9923 52.61C49.5297 52.61 50.015 52.7357 50.4483 52.987C50.8903 53.2383 51.2413 53.598 51.5013 54.066C51.77 54.534 51.9173 55.08 51.9433 55.704C51.952 55.7907 51.9563 55.9293 51.9563 56.12C51.9563 56.3193 51.952 56.4623 51.9433 56.549C51.9173 57.173 51.77 57.719 51.5013 58.187C51.2413 58.6463 50.8947 59.0017 50.4613 59.253C50.028 59.5043 49.5383 59.63 48.9923 59.63C48.507 59.63 48.0953 59.5477 47.7573 59.383C47.428 59.2097 47.168 58.9973 46.9773 58.746V61.619ZM46.9773 56.588C47.0033 57.1947 47.1853 57.667 47.5233 58.005C47.8613 58.343 48.3077 58.512 48.8623 58.512C49.4257 58.512 49.872 58.33 50.2013 57.966C50.5393 57.602 50.7257 57.108 50.7603 56.484C50.769 56.3973 50.7733 56.276 50.7733 56.12C50.7733 55.964 50.769 55.8427 50.7603 55.756C50.7257 55.132 50.5393 54.638 50.2013 54.274C49.872 53.91 49.4257 53.728 48.8623 53.728C48.325 53.728 47.883 53.897 47.5363 54.235C47.1897 54.5643 47.0033 55.0063 46.9773 55.561L46.9643 56.068L46.9773 56.588ZM56.9959 52.74C57.0912 52.74 57.1735 52.7747 57.2429 52.844C57.3122 52.9133 57.3469 52.9957 57.3469 53.091V53.507C57.3469 53.6023 57.3122 53.6847 57.2429 53.754C57.1735 53.8233 57.0912 53.858 56.9959 53.858H56.2419C55.7565 53.858 55.3839 53.988 55.1239 54.248C54.8725 54.4993 54.7469 54.8677 54.7469 55.353V59.149C54.7469 59.2443 54.7122 59.3267 54.6429 59.396C54.5735 59.4653 54.4912 59.5 54.3959 59.5H53.9149C53.8195 59.5 53.7372 59.4653 53.6679 59.396C53.5985 59.3267 53.5639 59.2443 53.5639 59.149V53.091C53.5639 52.9957 53.5985 52.9133 53.6679 52.844C53.7372 52.7747 53.8195 52.74 53.9149 52.74H54.3959C54.4912 52.74 54.5735 52.7747 54.6429 52.844C54.7122 52.9133 54.7469 52.9957 54.7469 53.091V53.494C54.9202 53.234 55.1282 53.0433 55.3709 52.922C55.6135 52.8007 55.9299 52.74 56.3199 52.74H56.9959ZM61.142 52.61C62.0693 52.61 62.8016 52.9047 63.339 53.494C63.8763 54.0833 64.145 54.885 64.145 55.899V56.25C64.145 56.3453 64.1103 56.4277 64.041 56.497C63.9716 56.5663 63.8893 56.601 63.794 56.601H59.322V56.679C59.3393 57.251 59.5126 57.7017 59.842 58.031C60.18 58.3517 60.6133 58.512 61.142 58.512C61.5753 58.512 61.909 58.4557 62.143 58.343C62.3856 58.2303 62.6023 58.07 62.793 57.862C62.8623 57.7927 62.923 57.745 62.975 57.719C63.0356 57.693 63.1136 57.68 63.209 57.68H63.599C63.703 57.68 63.7896 57.7147 63.859 57.784C63.9283 57.8533 63.9586 57.9357 63.95 58.031C63.9153 58.265 63.7853 58.5077 63.56 58.759C63.3433 59.0017 63.027 59.2097 62.611 59.383C62.2036 59.5477 61.714 59.63 61.142 59.63C60.5873 59.63 60.0933 59.5043 59.66 59.253C59.2266 58.993 58.88 58.6377 58.62 58.187C58.3686 57.7363 58.217 57.2293 58.165 56.666C58.1476 56.406 58.139 56.2067 58.139 56.068C58.139 55.9293 58.1476 55.73 58.165 55.47C58.217 54.9327 58.3686 54.4473 58.62 54.014C58.88 53.5807 59.2223 53.2383 59.647 52.987C60.0803 52.7357 60.5786 52.61 61.142 52.61ZM62.975 55.509V55.47C62.975 54.9413 62.806 54.521 62.468 54.209C62.1386 53.8883 61.6966 53.728 61.142 53.728C60.6393 53.728 60.2103 53.8883 59.855 54.209C59.5083 54.5297 59.3306 54.95 59.322 55.47V55.509H62.975ZM71.7193 59.149C71.7193 59.2443 71.6846 59.3267 71.6153 59.396C71.5459 59.4653 71.4636 59.5 71.3683 59.5H70.8873C70.7919 59.5 70.7096 59.4653 70.6403 59.396C70.5709 59.3267 70.5363 59.2443 70.5363 59.149V55.717C70.5363 55.067 70.3759 54.573 70.0553 54.235C69.7346 53.897 69.2883 53.728 68.7163 53.728C68.1529 53.728 67.7066 53.897 67.3773 54.235C67.0566 54.573 66.8963 55.067 66.8963 55.717V59.149C66.8963 59.2443 66.8616 59.3267 66.7923 59.396C66.7229 59.4653 66.6406 59.5 66.5453 59.5H66.0643C65.9689 59.5 65.8866 59.4653 65.8173 59.396C65.7479 59.3267 65.7133 59.2443 65.7133 59.149V53.091C65.7133 52.9957 65.7479 52.9133 65.8173 52.844C65.8866 52.7747 65.9689 52.74 66.0643 52.74H66.5453C66.6406 52.74 66.7229 52.7747 66.7923 52.844C66.8616 52.9133 66.8963 52.9957 66.8963 53.091V53.494C67.0869 53.2427 67.3469 53.0347 67.6763 52.87C68.0143 52.6967 68.4259 52.61 68.9113 52.61C69.4573 52.61 69.9426 52.727 70.3673 52.961C70.7919 53.195 71.1213 53.533 71.3553 53.975C71.5979 54.4083 71.7193 54.924 71.7193 55.522V59.149ZM75.2348 56.497C73.9694 56.2283 73.3368 55.5827 73.3368 54.56C73.3368 54.2047 73.4321 53.8797 73.6228 53.585C73.8134 53.2903 74.0951 53.0563 74.4678 52.883C74.8491 52.701 75.3128 52.61 75.8588 52.61C76.3961 52.61 76.8598 52.688 77.2498 52.844C77.6398 53 77.9344 53.195 78.1338 53.429C78.3418 53.663 78.4458 53.8883 78.4458 54.105C78.4458 54.1917 78.4111 54.2697 78.3418 54.339C78.2724 54.3997 78.1901 54.43 78.0948 54.43H77.6658C77.5011 54.43 77.3711 54.3693 77.2758 54.248C77.0071 53.9013 76.5348 53.728 75.8588 53.728C75.4601 53.728 75.1351 53.8017 74.8838 53.949C74.6411 54.0963 74.5198 54.3 74.5198 54.56C74.5198 54.7767 74.5804 54.9413 74.7018 55.054C74.8231 55.1667 75.0051 55.2577 75.2478 55.327C75.4904 55.3963 75.9194 55.5003 76.5348 55.639C77.2974 55.8037 77.8391 56.055 78.1598 56.393C78.4804 56.731 78.6408 57.1427 78.6408 57.628C78.6408 57.9833 78.5281 58.3127 78.3028 58.616C78.0861 58.9193 77.7698 59.1663 77.3538 59.357C76.9464 59.539 76.4698 59.63 75.9238 59.63C75.3864 59.63 74.9098 59.5477 74.4938 59.383C74.0864 59.2097 73.7701 59.0017 73.5448 58.759C73.3194 58.5163 73.2068 58.2867 73.2068 58.07C73.2068 57.9833 73.2414 57.9097 73.3108 57.849C73.3801 57.7797 73.4624 57.745 73.5578 57.745H74.0258C74.1038 57.745 74.1731 57.7537 74.2338 57.771C74.2944 57.7883 74.3508 57.836 74.4028 57.914C74.6888 58.3127 75.1958 58.512 75.9238 58.512C76.3311 58.512 76.6864 58.4297 76.9898 58.265C77.3018 58.0917 77.4578 57.8793 77.4578 57.628C77.4578 57.42 77.3798 57.2553 77.2238 57.134C77.0764 57.004 76.8598 56.9 76.5738 56.822C76.2878 56.7353 75.8414 56.627 75.2348 56.497ZM81.4989 51.362C81.4989 51.4573 81.4643 51.5397 81.3949 51.609C81.3256 51.6783 81.2433 51.713 81.1479 51.713H80.4069C80.3116 51.713 80.2293 51.6783 80.1599 51.609C80.0906 51.5397 80.0559 51.4573 80.0559 51.362V50.621C80.0559 50.5257 80.0906 50.4433 80.1599 50.374C80.2293 50.3047 80.3116 50.27 80.4069 50.27H81.1479C81.2433 50.27 81.3256 50.3047 81.3949 50.374C81.4643 50.4433 81.4989 50.5257 81.4989 50.621V51.362ZM81.3689 59.149C81.3689 59.2443 81.3343 59.3267 81.2649 59.396C81.1956 59.4653 81.1133 59.5 81.0179 59.5H80.5369C80.4416 59.5 80.3593 59.4653 80.2899 59.396C80.2206 59.3267 80.1859 59.2443 80.1859 59.149V53.091C80.1859 52.9957 80.2206 52.9133 80.2899 52.844C80.3593 52.7747 80.4416 52.74 80.5369 52.74H81.0179C81.1133 52.74 81.1956 52.7747 81.2649 52.844C81.3343 52.9133 81.3689 52.9957 81.3689 53.091V59.149ZM89.1717 55.509C89.189 55.6997 89.1977 55.9077 89.1977 56.133C89.1977 56.341 89.189 56.5403 89.1717 56.731C89.0937 57.615 88.786 58.3213 88.2487 58.85C87.72 59.37 87.0007 59.63 86.0907 59.63C85.1807 59.63 84.457 59.37 83.9197 58.85C83.391 58.3213 83.0877 57.615 83.0097 56.731C83.001 56.6357 82.9967 56.4363 82.9967 56.133C82.9967 55.8123 83.001 55.6043 83.0097 55.509C83.079 54.625 83.3823 53.923 83.9197 53.403C84.457 52.8743 85.1807 52.61 86.0907 52.61C87.0007 52.61 87.7243 52.8743 88.2617 53.403C88.799 53.923 89.1023 54.625 89.1717 55.509ZM87.9887 55.574C87.9367 55.0193 87.7503 54.573 87.4297 54.235C87.1177 53.897 86.6713 53.728 86.0907 53.728C85.51 53.728 85.0593 53.897 84.7387 54.235C84.4267 54.573 84.2447 55.0193 84.1927 55.574C84.184 55.678 84.1797 55.8643 84.1797 56.133C84.1797 56.393 84.184 56.5707 84.1927 56.666C84.2447 57.2207 84.4267 57.667 84.7387 58.005C85.0593 58.343 85.51 58.512 86.0907 58.512C86.6713 58.512 87.1177 58.343 87.4297 58.005C87.7503 57.667 87.9367 57.2207 87.9887 56.666C88.006 56.4753 88.0147 56.2977 88.0147 56.133C88.0147 55.9683 88.006 55.782 87.9887 55.574ZM86.4807 50.192C86.576 50.088 86.654 50.023 86.7147 49.997C86.7753 49.9623 86.8577 49.945 86.9617 49.945H87.9237C88.0017 49.945 88.0623 49.971 88.1057 50.023C88.149 50.0663 88.1707 50.127 88.1707 50.205C88.1707 50.2657 88.149 50.3177 88.1057 50.361L86.6627 51.544C86.5673 51.622 86.4807 51.6783 86.4027 51.713C86.3333 51.7477 86.238 51.765 86.1167 51.765H85.6357C85.497 51.765 85.4277 51.6957 85.4277 51.557C85.4277 51.4877 85.4493 51.4313 85.4927 51.388L86.4807 50.192ZM96.8306 59.149C96.8306 59.2443 96.7959 59.3267 96.7266 59.396C96.6573 59.4653 96.5749 59.5 96.4796 59.5H95.9986C95.9033 59.5 95.8209 59.4653 95.7516 59.396C95.6823 59.3267 95.6476 59.2443 95.6476 59.149V55.717C95.6476 55.067 95.4873 54.573 95.1666 54.235C94.8459 53.897 94.3996 53.728 93.8276 53.728C93.2643 53.728 92.8179 53.897 92.4886 54.235C92.1679 54.573 92.0076 55.067 92.0076 55.717V59.149C92.0076 59.2443 91.9729 59.3267 91.9036 59.396C91.8343 59.4653 91.7519 59.5 91.6566 59.5H91.1756C91.0803 59.5 90.9979 59.4653 90.9286 59.396C90.8593 59.3267 90.8246 59.2443 90.8246 59.149V53.091C90.8246 52.9957 90.8593 52.9133 90.9286 52.844C90.9979 52.7747 91.0803 52.74 91.1756 52.74H91.6566C91.7519 52.74 91.8343 52.7747 91.9036 52.844C91.9729 52.9133 92.0076 52.9957 92.0076 53.091V53.494C92.1983 53.2427 92.4583 53.0347 92.7876 52.87C93.1256 52.6967 93.5373 52.61 94.0226 52.61C94.5686 52.61 95.0539 52.727 95.4786 52.961C95.9033 53.195 96.2326 53.533 96.4666 53.975C96.7093 54.4083 96.8306 54.924 96.8306 55.522V59.149ZM40.0076 74.149C40.0076 74.2443 39.9729 74.3267 39.9036 74.396C39.8343 74.4653 39.7519 74.5 39.6566 74.5H39.1756C39.0803 74.5 38.9979 74.4653 38.9286 74.396C38.8593 74.3267 38.8246 74.2443 38.8246 74.149V65.621C38.8246 65.5257 38.8593 65.4433 38.9286 65.374C38.9979 65.3047 39.0803 65.27 39.1756 65.27H39.6566C39.7519 65.27 39.8343 65.3047 39.9036 65.374C39.9729 65.4433 40.0076 65.5257 40.0076 65.621V74.149ZM44.6254 67.61C45.5527 67.61 46.285 67.9047 46.8224 68.494C47.3597 69.0833 47.6284 69.885 47.6284 70.899V71.25C47.6284 71.3453 47.5937 71.4277 47.5244 71.497C47.455 71.5663 47.3727 71.601 47.2774 71.601H42.8054V71.679C42.8227 72.251 42.996 72.7017 43.3254 73.031C43.6634 73.3517 44.0967 73.512 44.6254 73.512C45.0587 73.512 45.3924 73.4557 45.6264 73.343C45.869 73.2303 46.0857 73.07 46.2764 72.862C46.3457 72.7927 46.4064 72.745 46.4584 72.719C46.519 72.693 46.597 72.68 46.6924 72.68H47.0824C47.1864 72.68 47.273 72.7147 47.3424 72.784C47.4117 72.8533 47.442 72.9357 47.4334 73.031C47.3987 73.265 47.2687 73.5077 47.0434 73.759C46.8267 74.0017 46.5104 74.2097 46.0944 74.383C45.687 74.5477 45.1974 74.63 44.6254 74.63C44.0707 74.63 43.5767 74.5043 43.1434 74.253C42.71 73.993 42.3634 73.6377 42.1034 73.187C41.852 72.7363 41.7004 72.2293 41.6484 71.666C41.631 71.406 41.6224 71.2067 41.6224 71.068C41.6224 70.9293 41.631 70.73 41.6484 70.47C41.7004 69.9327 41.852 69.4473 42.1034 69.014C42.3634 68.5807 42.7057 68.2383 43.1304 67.987C43.5637 67.7357 44.062 67.61 44.6254 67.61ZM46.4584 70.509V70.47C46.4584 69.9413 46.2894 69.521 45.9514 69.209C45.622 68.8883 45.18 68.728 44.6254 68.728C44.1227 68.728 43.6937 68.8883 43.3384 69.209C42.9917 69.5297 42.814 69.95 42.8054 70.47V70.509H46.4584ZM51.9267 73.512C52.7933 73.512 53.3783 73.174 53.6817 72.498C53.7423 72.368 53.803 72.277 53.8637 72.225C53.9243 72.173 54.0067 72.147 54.1107 72.147H54.5007C54.596 72.147 54.6783 72.1817 54.7477 72.251C54.817 72.3117 54.8517 72.3853 54.8517 72.472C54.8517 72.7667 54.7347 73.083 54.5007 73.421C54.2667 73.759 53.9287 74.045 53.4867 74.279C53.0447 74.513 52.5247 74.63 51.9267 74.63C51.3113 74.63 50.7783 74.5 50.3277 74.24C49.877 73.98 49.5303 73.6247 49.2877 73.174C49.045 72.7147 48.9107 72.2033 48.8847 71.64C48.876 71.536 48.8717 71.3367 48.8717 71.042C48.8717 70.834 48.876 70.6867 48.8847 70.6C48.9627 69.716 49.2617 68.9967 49.7817 68.442C50.3017 67.8873 51.0167 67.61 51.9267 67.61C52.5247 67.61 53.0403 67.727 53.4737 67.961C53.9157 68.1863 54.2493 68.468 54.4747 68.806C54.7087 69.1353 54.8343 69.4473 54.8517 69.742C54.8603 69.8373 54.8257 69.9197 54.7477 69.989C54.6783 70.0583 54.596 70.093 54.5007 70.093H54.1107C54.0067 70.093 53.9243 70.067 53.8637 70.015C53.803 69.963 53.7423 69.872 53.6817 69.742C53.3783 69.066 52.7933 68.728 51.9267 68.728C51.45 68.728 51.034 68.8883 50.6787 69.209C50.3233 69.5297 50.1197 70.015 50.0677 70.665C50.059 70.7603 50.0547 70.9163 50.0547 71.133C50.0547 71.3323 50.059 71.4797 50.0677 71.575C50.1283 72.225 50.332 72.7103 50.6787 73.031C51.034 73.3517 51.45 73.512 51.9267 73.512ZM58.1756 72.225C58.1756 72.5977 58.2493 72.8837 58.3966 73.083C58.5526 73.2823 58.843 73.382 59.2676 73.382H59.9566C60.052 73.382 60.1343 73.4167 60.2036 73.486C60.273 73.5553 60.3076 73.6377 60.3076 73.733V74.149C60.3076 74.2443 60.273 74.3267 60.2036 74.396C60.1343 74.4653 60.052 74.5 59.9566 74.5H59.1376C58.401 74.5 57.8593 74.3093 57.5126 73.928C57.166 73.538 56.9926 72.9703 56.9926 72.225V68.858H56.0306C55.9353 68.858 55.853 68.8233 55.7836 68.754C55.7143 68.6847 55.6796 68.6023 55.6796 68.507V68.091C55.6796 67.9957 55.7143 67.9133 55.7836 67.844C55.853 67.7747 55.9353 67.74 56.0306 67.74H56.9926V65.621C56.9926 65.5257 57.0273 65.4433 57.0966 65.374C57.166 65.3047 57.2483 65.27 57.3436 65.27H57.8246C57.92 65.27 58.0023 65.3047 58.0716 65.374C58.141 65.4433 58.1756 65.5257 58.1756 65.621V67.74H59.8266C59.922 67.74 60.0043 67.7747 60.0736 67.844C60.143 67.9133 60.1776 67.9957 60.1776 68.091V68.507C60.1776 68.6023 60.143 68.6847 60.0736 68.754C60.0043 68.8233 59.922 68.858 59.8266 68.858H58.1756V72.225ZM67.4627 70.509C67.48 70.6997 67.4887 70.9077 67.4887 71.133C67.4887 71.341 67.48 71.5403 67.4627 71.731C67.3847 72.615 67.077 73.3213 66.5397 73.85C66.011 74.37 65.2917 74.63 64.3817 74.63C63.4717 74.63 62.748 74.37 62.2107 73.85C61.682 73.3213 61.3787 72.615 61.3007 71.731C61.292 71.6357 61.2877 71.4363 61.2877 71.133C61.2877 70.8123 61.292 70.6043 61.3007 70.509C61.37 69.625 61.6734 68.923 62.2107 68.403C62.748 67.8743 63.4717 67.61 64.3817 67.61C65.2917 67.61 66.0154 67.8743 66.5527 68.403C67.09 68.923 67.3934 69.625 67.4627 70.509ZM66.2797 70.574C66.2277 70.0193 66.0414 69.573 65.7207 69.235C65.4087 68.897 64.9624 68.728 64.3817 68.728C63.801 68.728 63.3504 68.897 63.0297 69.235C62.7177 69.573 62.5357 70.0193 62.4837 70.574C62.475 70.678 62.4707 70.8643 62.4707 71.133C62.4707 71.393 62.475 71.5707 62.4837 71.666C62.5357 72.2207 62.7177 72.667 63.0297 73.005C63.3504 73.343 63.801 73.512 64.3817 73.512C64.9624 73.512 65.4087 73.343 65.7207 73.005C66.0414 72.667 66.2277 72.2207 66.2797 71.666C66.297 71.4753 66.3057 71.2977 66.3057 71.133C66.3057 70.9683 66.297 70.782 66.2797 70.574ZM72.5476 67.74C72.643 67.74 72.7253 67.7747 72.7946 67.844C72.864 67.9133 72.8986 67.9957 72.8986 68.091V68.507C72.8986 68.6023 72.864 68.6847 72.7946 68.754C72.7253 68.8233 72.643 68.858 72.5476 68.858H71.7936C71.3083 68.858 70.9356 68.988 70.6756 69.248C70.4243 69.4993 70.2986 69.8677 70.2986 70.353V74.149C70.2986 74.2443 70.264 74.3267 70.1946 74.396C70.1253 74.4653 70.043 74.5 69.9476 74.5H69.4666C69.3713 74.5 69.289 74.4653 69.2196 74.396C69.1503 74.3267 69.1156 74.2443 69.1156 74.149V68.091C69.1156 67.9957 69.1503 67.9133 69.2196 67.844C69.289 67.7747 69.3713 67.74 69.4666 67.74H69.9476C70.043 67.74 70.1253 67.7747 70.1946 67.844C70.264 67.9133 70.2986 67.9957 70.2986 68.091V68.494C70.472 68.234 70.68 68.0433 70.9226 67.922C71.1653 67.8007 71.4816 67.74 71.8716 67.74H72.5476ZM78.0457 70.223V70.054C78.0457 69.6293 77.9027 69.3043 77.6167 69.079C77.3394 68.845 76.9754 68.728 76.5247 68.728C76.178 68.728 75.905 68.7887 75.7057 68.91C75.515 69.0227 75.333 69.196 75.1597 69.43C75.1077 69.4993 75.0514 69.547 74.9907 69.573C74.93 69.599 74.8477 69.612 74.7437 69.612H74.3537C74.2584 69.612 74.1717 69.5773 74.0937 69.508C74.0244 69.4387 73.994 69.3563 74.0027 69.261C74.0287 69.001 74.1544 68.7453 74.3797 68.494C74.6137 68.234 74.9214 68.0217 75.3027 67.857C75.684 67.6923 76.0914 67.61 76.5247 67.61C77.3307 67.61 77.9807 67.8353 78.4747 68.286C78.9774 68.7367 79.2287 69.3693 79.2287 70.184V74.149C79.2287 74.2443 79.194 74.3267 79.1247 74.396C79.0554 74.4653 78.973 74.5 78.8777 74.5H78.3967C78.3014 74.5 78.219 74.4653 78.1497 74.396C78.0804 74.3267 78.0457 74.2443 78.0457 74.149V73.616C77.907 73.928 77.6124 74.175 77.1617 74.357C76.711 74.539 76.2604 74.63 75.8097 74.63C75.3677 74.63 74.9734 74.552 74.6267 74.396C74.28 74.2313 74.0114 74.0103 73.8207 73.733C73.6387 73.4557 73.5477 73.1437 73.5477 72.797C73.5477 72.147 73.7904 71.64 74.2757 71.276C74.761 70.9033 75.4067 70.652 76.2127 70.522L78.0457 70.223ZM78.0457 71.263L76.5117 71.51C75.9484 71.5967 75.5107 71.7397 75.1987 71.939C74.8867 72.1297 74.7307 72.3723 74.7307 72.667C74.7307 72.8837 74.8304 73.0787 75.0297 73.252C75.229 73.4253 75.5324 73.512 75.9397 73.512C76.5637 73.512 77.0707 73.3343 77.4607 72.979C77.8507 72.6237 78.0457 72.16 78.0457 71.588V71.263Z" fill="#EBECEE"/>
<rect x="40" y="81.5" width="38" height="25" rx="12.5" fill="#323B4A"/>
<path d="M57.1579 92.354C57.1766 92.6153 57.1859 93.0353 57.1859 93.614C57.1859 94.1833 57.1766 94.594 57.1579 94.846C57.0926 95.9567 56.7239 96.8667 56.0519 97.576C55.3892 98.2853 54.3952 98.64 53.0699 98.64C51.7446 98.64 50.7459 98.2853 50.0739 97.576C49.4112 96.8667 49.0472 95.9567 48.9819 94.846C48.9632 94.342 48.9539 93.9313 48.9539 93.614C48.9539 93.2967 48.9632 92.8767 48.9819 92.354C49.0472 91.2433 49.4112 90.3333 50.0739 89.624C50.7459 88.9147 51.7446 88.56 53.0699 88.56C54.3952 88.56 55.3892 88.9147 56.0519 89.624C56.7239 90.3333 57.0926 91.2433 57.1579 92.354ZM54.5679 92.424C54.5399 91.9107 54.4139 91.514 54.1899 91.234C53.9659 90.9447 53.5926 90.8 53.0699 90.8C52.5472 90.8 52.1739 90.9447 51.9499 91.234C51.7259 91.514 51.5999 91.9107 51.5719 92.424C51.5532 92.928 51.5439 93.3153 51.5439 93.586C51.5439 93.838 51.5532 94.2347 51.5719 94.776C51.5906 95.2893 51.7119 95.6907 51.9359 95.98C52.1692 96.26 52.5472 96.4 53.0699 96.4C53.5926 96.4 53.9659 96.26 54.1899 95.98C54.4232 95.6907 54.5492 95.2893 54.5679 94.776C54.5866 94.5053 54.5959 94.1087 54.5959 93.586C54.5959 93.0633 54.5866 92.676 54.5679 92.424ZM62.7646 91.682C62.7366 92.27 62.5359 92.7507 62.1626 93.124C61.7986 93.488 61.2666 93.67 60.5666 93.67C59.8666 93.67 59.3346 93.488 58.9706 93.124C58.6159 92.76 58.4152 92.2793 58.3686 91.682C58.3592 91.5607 58.3546 91.388 58.3546 91.164C58.3546 90.9307 58.3592 90.7487 58.3686 90.618C58.4152 90.0207 58.6159 89.54 58.9706 89.176C59.3346 88.812 59.8666 88.63 60.5666 88.63C61.2666 88.63 61.7939 88.812 62.1486 89.176C62.5126 89.54 62.7179 90.0207 62.7646 90.618C62.7832 90.8793 62.7926 91.0613 62.7926 91.164C62.7926 91.2667 62.7832 91.4393 62.7646 91.682ZM66.2646 88.966C66.3392 88.8727 66.4092 88.8073 66.4746 88.77C66.5492 88.7233 66.6472 88.7 66.7686 88.7H67.9166C68.0192 88.7 68.0986 88.728 68.1546 88.784C68.2199 88.8307 68.2526 88.896 68.2526 88.98C68.2526 89.036 68.2339 89.0873 68.1966 89.134L61.2806 98.234C61.2059 98.3273 61.1312 98.3973 61.0566 98.444C60.9912 98.4813 60.8979 98.5 60.7766 98.5H59.6286C59.5259 98.5 59.4419 98.4767 59.3766 98.43C59.3206 98.374 59.2926 98.304 59.2926 98.22C59.2926 98.164 59.3112 98.1127 59.3486 98.066L66.2646 88.966ZM60.5666 92.34C60.7626 92.34 60.9026 92.284 60.9866 92.172C61.0706 92.06 61.1219 91.8733 61.1406 91.612C61.1592 91.388 61.1686 91.234 61.1686 91.15C61.1686 91.0473 61.1592 90.8933 61.1406 90.688C61.1219 90.4267 61.0706 90.24 60.9866 90.128C60.9026 90.016 60.7626 89.96 60.5666 89.96C60.3706 89.96 60.2306 90.016 60.1466 90.128C60.0626 90.24 60.0112 90.4267 59.9926 90.688C59.9832 90.7907 59.9786 90.9447 59.9786 91.15C59.9786 91.346 59.9832 91.5 59.9926 91.612C60.0112 91.8733 60.0626 92.06 60.1466 92.172C60.2306 92.284 60.3706 92.34 60.5666 92.34ZM69.2606 96.582C69.2326 97.17 69.0319 97.6507 68.6586 98.024C68.2946 98.388 67.7626 98.57 67.0626 98.57C66.3626 98.57 65.8306 98.388 65.4666 98.024C65.1119 97.66 64.9112 97.1793 64.8646 96.582C64.8552 96.4607 64.8506 96.288 64.8506 96.064C64.8506 95.8307 64.8552 95.6487 64.8646 95.518C64.9112 94.9207 65.1119 94.44 65.4666 94.076C65.8306 93.712 66.3626 93.53 67.0626 93.53C67.7626 93.53 68.2899 93.712 68.6446 94.076C69.0086 94.44 69.2139 94.9207 69.2606 95.518C69.2792 95.7793 69.2886 95.9613 69.2886 96.064C69.2886 96.1667 69.2792 96.3393 69.2606 96.582ZM67.0626 97.24C67.2586 97.24 67.3986 97.184 67.4826 97.072C67.5666 96.96 67.6179 96.7733 67.6366 96.512C67.6552 96.288 67.6646 96.134 67.6646 96.05C67.6646 95.9473 67.6552 95.7933 67.6366 95.588C67.6179 95.3267 67.5666 95.14 67.4826 95.028C67.3986 94.916 67.2586 94.86 67.0626 94.86C66.8666 94.86 66.7266 94.916 66.6426 95.028C66.5586 95.14 66.5072 95.3267 66.4886 95.588C66.4792 95.6907 66.4746 95.8447 66.4746 96.05C66.4746 96.246 66.4792 96.4 66.4886 96.512C66.5072 96.7733 66.5586 96.96 66.6426 97.072C66.7266 97.184 66.8666 97.24 67.0626 97.24Z" fill="white"/>
<g filter="url(#filter0_d_34392_40107)">
<rect x="88" y="14" width="28" height="28" rx="14" fill="white"/>
<rect x="87" y="13" width="30" height="30" rx="15" stroke="#374151" stroke-width="2"/>
<path opacity="0.4" d="M102.001 30.4917C102.337 30.4917 102.609 30.7641 102.609 31.1001C102.609 31.436 102.337 31.7085 102.001 31.7085C101.665 31.7085 101.393 31.436 101.393 31.1001C101.393 30.7641 101.665 30.4917 102.001 30.4917Z" fill="#272E3A" stroke="#272E3A" stroke-width="1.5"/>
<path d="M98.124 26.6167H105.874C107.556 26.6167 108.395 26.8857 108.854 27.3452C109.314 27.8048 109.583 28.6432 109.583 30.3247V31.8755C109.583 33.557 109.314 34.3954 108.854 34.855C108.395 35.3145 107.556 35.5835 105.874 35.5835H98.124C96.4424 35.5835 95.6041 35.3145 95.1445 34.855C94.685 34.3955 94.4161 33.5571 94.416 31.8755V30.3247C94.4161 28.643 94.685 27.8047 95.1445 27.3452C95.6041 26.8857 96.4423 26.6167 98.124 26.6167ZM101.999 27.8335C100.192 27.8337 98.7324 29.3043 98.7324 31.1001C98.7325 32.8959 100.192 34.3665 101.999 34.3667C103.806 34.3667 105.266 32.896 105.266 31.1001C105.266 29.3042 103.807 27.8335 101.999 27.8335Z" fill="#272E3A" stroke="#272E3A" stroke-width="1.5"/>
<g opacity="0.4">
<mask id="path-17-inside-1_34392_40107" fill="white">
<path d="M97.9342 25.8748V24.8998C97.9342 22.4582 98.6259 20.8332 102.001 20.8332C105.376 20.8332 106.068 22.4582 106.068 24.8998V25.8748C106.493 25.8832 106.876 25.8998 107.234 25.9498V24.8998C107.234 22.6498 106.693 19.6665 102.001 19.6665C97.3092 19.6665 96.7676 22.6498 96.7676 24.8998V25.9415C97.1176 25.8998 97.5092 25.8748 97.9342 25.8748Z"/>
</mask>
<path d="M97.9342 25.8748V24.8998C97.9342 22.4582 98.6259 20.8332 102.001 20.8332C105.376 20.8332 106.068 22.4582 106.068 24.8998V25.8748C106.493 25.8832 106.876 25.8998 107.234 25.9498V24.8998C107.234 22.6498 106.693 19.6665 102.001 19.6665C97.3092 19.6665 96.7676 22.6498 96.7676 24.8998V25.9415C97.1176 25.8998 97.5092 25.8748 97.9342 25.8748Z" fill="#272E3A"/>
<path d="M97.9342 25.8748V27.3748H99.4342V25.8748H97.9342ZM106.068 25.8748H104.568V27.3457L106.038 27.3745L106.068 25.8748ZM107.234 25.9498L107.027 27.4354L108.734 27.6737V25.9498H107.234ZM107.234 24.8998H105.734H107.234ZM96.7676 25.9415H95.2676V27.6307L96.9449 27.431L96.7676 25.9415ZM97.9342 25.8748H99.4342V24.8998H97.9342H96.4342V25.8748H97.9342ZM97.9342 24.8998H99.4342C99.4342 23.7471 99.6156 23.1967 99.8528 22.913C100.039 22.6905 100.52 22.3332 102.001 22.3332V20.8332V19.3332C100.107 19.3332 98.5547 19.7884 97.5511 20.9888C96.5988 22.128 96.4342 23.6109 96.4342 24.8998H97.9342ZM102.001 20.8332V22.3332C103.482 22.3332 103.963 22.6905 104.149 22.913C104.386 23.1967 104.568 23.7471 104.568 24.8998H106.068H107.568C107.568 23.6109 107.403 22.128 106.451 20.9888C105.447 19.7884 103.895 19.3332 102.001 19.3332V20.8332ZM106.068 24.8998H104.568V25.8748H106.068H107.568V24.8998H106.068ZM106.068 25.8748L106.038 27.3745C106.451 27.3826 106.761 27.3983 107.027 27.4354L107.234 25.9498L107.442 24.4642C106.991 24.4014 106.535 24.3837 106.097 24.3751L106.068 25.8748ZM107.234 25.9498H108.734V24.8998H107.234H105.734V25.9498H107.234ZM107.234 24.8998H108.734C108.734 23.7116 108.606 22.002 107.604 20.5769C106.526 19.0428 104.687 18.1665 102.001 18.1665V19.6665V21.1665C104.006 21.1665 104.784 21.7819 105.15 22.302C105.592 22.931 105.734 23.8381 105.734 24.8998H107.234ZM102.001 19.6665V18.1665C99.3145 18.1665 97.4759 19.0428 96.3977 20.5769C95.396 22.002 95.2676 23.7116 95.2676 24.8998H96.7676H98.2676C98.2676 23.8381 98.41 22.931 98.8521 22.302C99.2176 21.7819 99.9956 21.1665 102.001 21.1665V19.6665ZM96.7676 24.8998H95.2676V25.9415H96.7676H98.2676V24.8998H96.7676ZM96.7676 25.9415L96.9449 27.431C97.2351 27.3964 97.5675 27.3748 97.9342 27.3748V25.8748V24.3748C97.451 24.3748 97.0001 24.4032 96.5903 24.452L96.7676 25.9415Z" fill="#272E3A" mask="url(#path-17-inside-1_34392_40107)"/>
</g>
</g>
<defs>
<filter id="filter0_d_34392_40107" x="71" y="5" width="62" height="62" filterUnits="userSpaceOnUse" color-interpolation-filters="sRGB">
<feFlood flood-opacity="0" result="BackgroundImageFix"/>
<feColorMatrix in="SourceAlpha" type="matrix" values="0 0 0 0 0 0 0 0 0 0 0 0 0 0 0 0 0 0 127 0" result="hardAlpha"/>
<feOffset dy="8"/>
<feGaussianBlur stdDeviation="7.5"/>
<feColorMatrix type="matrix" values="0 0 0 0 0 0 0 0 0 0 0 0 0 0 0 0 0 0 0.25 0"/>
<feBlend mode="normal" in2="BackgroundImageFix" result="effect1_dropShadow_34392_40107"/>
<feBlend mode="normal" in="SourceGraphic" in2="effect1_dropShadow_34392_40107" result="shape"/>
</filter>
</defs>
</svg>
