<svg width="133" height="118" viewBox="0 0 133 118" fill="none" xmlns="http://www.w3.org/2000/svg">
<rect x="2" y="2" width="114" height="114" rx="57" fill="#1E242D"/>
<rect x="2" y="2" width="114" height="114" rx="57" stroke="#374151" stroke-width="4"/>
<rect opacity="0.4" x="45.666" y="21.6665" width="26.6667" height="26.6667" rx="5" fill="#F8F8FF"/>
<g clip-path="url(#clip0_34428_7856)">
<path d="M52.8007 40.2996C52.8007 38.6044 52.7959 36.9085 52.8064 35.2133C52.808 34.9899 52.7595 34.9268 52.5296 34.9324C51.8439 34.9503 51.1574 34.9324 50.4709 34.943C50.3001 34.9454 50.2516 34.8976 50.254 34.726C50.2637 34.0598 50.2637 33.3935 50.254 32.7281C50.2516 32.5557 50.3018 32.5095 50.4718 32.512C51.1679 32.5209 51.8649 32.5079 52.5603 32.5209C52.7627 32.5249 52.8064 32.4642 52.8056 32.2707C52.7967 30.9787 52.7999 29.6875 52.8016 28.3956C52.804 26.12 54.5874 24.3407 56.8654 24.3382C57.3802 24.3382 57.8951 24.3463 58.4091 24.3342C58.5864 24.3301 58.6245 24.3884 58.622 24.5544C58.6131 25.2206 58.6115 25.8868 58.622 26.5523C58.6253 26.7296 58.5654 26.7619 58.401 26.7652C57.7866 26.7765 57.1673 26.6956 56.5594 26.8048C55.7798 26.9457 55.2471 27.5464 55.2342 28.3381C55.2115 29.6697 55.2309 31.0022 55.222 32.3347C55.2204 32.5201 55.3095 32.5176 55.4422 32.5168C56.0979 32.5128 56.7545 32.5201 57.4102 32.512C57.5761 32.5104 57.6603 32.5233 57.6555 32.7314C57.6401 33.3968 57.6433 34.0638 57.6538 34.7293C57.6571 34.9065 57.598 34.9438 57.4328 34.9413C56.7868 34.9324 56.1408 34.9503 55.4956 34.9308C55.2585 34.9235 55.2212 35.0004 55.222 35.2166C55.2293 38.5971 55.2236 41.9785 55.2334 45.3591C55.2334 45.6173 55.1662 45.6732 54.9193 45.6651C54.2943 45.6457 53.6677 45.6497 53.0428 45.6635C52.842 45.6675 52.7959 45.6092 52.7967 45.4141C52.8048 43.7085 52.8016 42.0028 52.8016 40.2971L52.8007 40.2996Z" fill="#374151"/>
<path d="M66.7454 36.9985C65.7885 38.4014 64.8681 39.7582 63.9355 41.1077C63.8141 41.2833 63.8036 41.395 63.9298 41.5764C64.8017 42.8336 65.6598 44.1013 66.5219 45.3657C66.577 45.4467 66.6288 45.5301 66.713 45.6604H65.9949C65.3392 45.6604 64.6827 45.6515 64.027 45.6661C63.8295 45.6701 63.7226 45.6037 63.6157 45.4418C63.1948 44.8047 62.7577 44.179 62.3027 43.5144C61.8575 44.1652 61.4219 44.7861 61.005 45.42C60.8877 45.5989 60.767 45.6709 60.5468 45.6669C59.679 45.6515 58.8112 45.6604 57.9337 45.6604C57.928 45.5422 58.0114 45.4775 58.064 45.3997C58.931 44.1264 59.7964 42.8522 60.6707 41.5853C60.7897 41.4128 60.8018 41.2963 60.6756 41.1133C59.7924 39.8391 58.9238 38.5552 58.0503 37.2746C57.996 37.1944 57.9418 37.1143 57.8633 36.9977C58.8363 36.9977 59.7608 37.0009 60.6845 36.9937C60.8294 36.9928 60.8707 37.0868 60.9314 37.175C61.3807 37.8307 61.8291 38.4872 62.2995 39.1761C62.5496 38.8143 62.7884 38.4702 63.0256 38.1246C63.2474 37.8008 63.47 37.4769 63.6886 37.1515C63.7453 37.0665 63.7882 36.9928 63.9161 36.9937C64.8422 36.9993 65.7683 36.9969 66.7454 36.9969V36.9985Z" fill="#374151"/>
</g>
<path d="M38.7601 63.542C38.7861 64.2787 39.0071 64.868 39.4231 65.31C39.8478 65.7433 40.4371 65.96 41.1911 65.96C41.9538 65.96 42.5171 65.7953 42.8811 65.466C43.2451 65.1367 43.4878 64.712 43.6091 64.192C43.6265 64.1053 43.6655 64.036 43.7261 63.984C43.7955 63.932 43.8691 63.906 43.9471 63.906H44.5451C44.6231 63.906 44.6881 63.9363 44.7401 63.997C44.8008 64.049 44.8311 64.114 44.8311 64.192C44.8138 64.6167 44.6751 65.0587 44.4151 65.518C44.1551 65.9687 43.7521 66.35 43.2061 66.662C42.6688 66.974 41.9971 67.13 41.1911 67.13C40.4631 67.13 39.8261 66.9783 39.2801 66.675C38.7341 66.3717 38.3095 65.9557 38.0061 65.427C37.7115 64.8897 37.5511 64.283 37.5251 63.607C37.5165 63.347 37.5121 62.9613 37.5121 62.45C37.5121 61.9387 37.5165 61.553 37.5251 61.293C37.5511 60.617 37.7115 60.0147 38.0061 59.486C38.3095 58.9487 38.7341 58.5283 39.2801 58.225C39.8261 57.9217 40.4631 57.77 41.1911 57.77C41.9971 57.77 42.6688 57.926 43.2061 58.238C43.7521 58.55 44.1551 58.9357 44.4151 59.395C44.6751 59.8457 44.8138 60.2833 44.8311 60.708C44.8311 60.786 44.8008 60.8553 44.7401 60.916C44.6881 60.968 44.6231 60.994 44.5451 60.994H43.9471C43.8691 60.994 43.7955 60.968 43.7261 60.916C43.6655 60.864 43.6265 60.7947 43.6091 60.708C43.4878 60.188 43.2451 59.7633 42.8811 59.434C42.5171 59.1047 41.9538 58.94 41.1911 58.94C40.4371 58.94 39.8478 59.161 39.4231 59.603C39.0071 60.0363 38.7861 60.6213 38.7601 61.358C38.7515 61.618 38.7471 61.982 38.7471 62.45C38.7471 62.918 38.7515 63.282 38.7601 63.542ZM50.408 62.723V62.554C50.408 62.1293 50.265 61.8043 49.979 61.579C49.7017 61.345 49.3377 61.228 48.887 61.228C48.5403 61.228 48.2673 61.2887 48.068 61.41C47.8773 61.5227 47.6953 61.696 47.522 61.93C47.47 61.9993 47.4137 62.047 47.353 62.073C47.2923 62.099 47.21 62.112 47.106 62.112H46.716C46.6207 62.112 46.534 62.0773 46.456 62.008C46.3867 61.9387 46.3563 61.8563 46.365 61.761C46.391 61.501 46.5167 61.2453 46.742 60.994C46.976 60.734 47.2837 60.5217 47.665 60.357C48.0463 60.1923 48.4537 60.11 48.887 60.11C49.693 60.11 50.343 60.3353 50.837 60.786C51.3397 61.2367 51.591 61.8693 51.591 62.684V66.649C51.591 66.7443 51.5563 66.8267 51.487 66.896C51.4177 66.9653 51.3353 67 51.24 67H50.759C50.6637 67 50.5813 66.9653 50.512 66.896C50.4427 66.8267 50.408 66.7443 50.408 66.649V66.116C50.2693 66.428 49.9747 66.675 49.524 66.857C49.0733 67.039 48.6227 67.13 48.172 67.13C47.73 67.13 47.3357 67.052 46.989 66.896C46.6423 66.7313 46.3737 66.5103 46.183 66.233C46.001 65.9557 45.91 65.6437 45.91 65.297C45.91 64.647 46.1527 64.14 46.638 63.776C47.1233 63.4033 47.769 63.152 48.575 63.022L50.408 62.723ZM50.408 63.763L48.874 64.01C48.3107 64.0967 47.873 64.2397 47.561 64.439C47.249 64.6297 47.093 64.8723 47.093 65.167C47.093 65.3837 47.1927 65.5787 47.392 65.752C47.5913 65.9253 47.8947 66.012 48.302 66.012C48.926 66.012 49.433 65.8343 49.823 65.479C50.213 65.1237 50.408 64.66 50.408 64.088V63.763ZM49.29 57.692C49.3853 57.588 49.4633 57.523 49.524 57.497C49.5847 57.4623 49.667 57.445 49.771 57.445H50.733C50.811 57.445 50.8717 57.471 50.915 57.523C50.9583 57.5663 50.98 57.627 50.98 57.705C50.98 57.7657 50.9583 57.8177 50.915 57.861L49.472 59.044C49.3767 59.122 49.29 59.1783 49.212 59.213C49.1427 59.2477 49.0473 59.265 48.926 59.265H48.445C48.3063 59.265 48.237 59.1957 48.237 59.057C48.237 58.9877 48.2587 58.9313 48.302 58.888L49.29 57.692ZM54.6707 66.649C54.6707 66.7443 54.636 66.8267 54.5667 66.896C54.4974 66.9653 54.415 67 54.3197 67H53.8387C53.7434 67 53.661 66.9653 53.5917 66.896C53.5224 66.8267 53.4877 66.7443 53.4877 66.649V58.121C53.4877 58.0257 53.5224 57.9433 53.5917 57.874C53.661 57.8047 53.7434 57.77 53.8387 57.77H54.3197C54.415 57.77 54.4974 57.8047 54.5667 57.874C54.636 57.9433 54.6707 58.0257 54.6707 58.121V66.649ZM59.3534 66.012C60.2201 66.012 60.8051 65.674 61.1084 64.998C61.1691 64.868 61.2298 64.777 61.2904 64.725C61.3511 64.673 61.4334 64.647 61.5374 64.647H61.9274C62.0228 64.647 62.1051 64.6817 62.1744 64.751C62.2438 64.8117 62.2784 64.8853 62.2784 64.972C62.2784 65.2667 62.1614 65.583 61.9274 65.921C61.6934 66.259 61.3554 66.545 60.9134 66.779C60.4714 67.013 59.9514 67.13 59.3534 67.13C58.7381 67.13 58.2051 67 57.7544 66.74C57.3038 66.48 56.9571 66.1247 56.7144 65.674C56.4718 65.2147 56.3374 64.7033 56.3114 64.14C56.3028 64.036 56.2984 63.8367 56.2984 63.542C56.2984 63.334 56.3028 63.1867 56.3114 63.1C56.3894 62.216 56.6884 61.4967 57.2084 60.942C57.7284 60.3873 58.4434 60.11 59.3534 60.11C59.9514 60.11 60.4671 60.227 60.9004 60.461C61.3424 60.6863 61.6761 60.968 61.9014 61.306C62.1354 61.6353 62.2611 61.9473 62.2784 62.242C62.2871 62.3373 62.2524 62.4197 62.1744 62.489C62.1051 62.5583 62.0228 62.593 61.9274 62.593H61.5374C61.4334 62.593 61.3511 62.567 61.2904 62.515C61.2298 62.463 61.1691 62.372 61.1084 62.242C60.8051 61.566 60.2201 61.228 59.3534 61.228C58.8768 61.228 58.4608 61.3883 58.1054 61.709C57.7501 62.0297 57.5464 62.515 57.4944 63.165C57.4858 63.2603 57.4814 63.4163 57.4814 63.633C57.4814 63.8323 57.4858 63.9797 57.4944 64.075C57.5551 64.725 57.7588 65.2103 58.1054 65.531C58.4608 65.8517 58.8768 66.012 59.3534 66.012ZM63.7694 60.591C63.7694 60.4957 63.804 60.4133 63.8734 60.344C63.9427 60.2747 64.025 60.24 64.1204 60.24H64.6014C64.6967 60.24 64.779 60.2747 64.8484 60.344C64.9177 60.4133 64.9524 60.4957 64.9524 60.591V64.023C64.9524 64.6817 65.0997 65.18 65.3944 65.518C65.6977 65.8473 66.1354 66.012 66.7074 66.012C67.262 66.012 67.691 65.843 67.9944 65.505C68.3064 65.167 68.4624 64.673 68.4624 64.023V60.591C68.4624 60.4957 68.497 60.4133 68.5664 60.344C68.6357 60.2747 68.718 60.24 68.8134 60.24H69.2944C69.3897 60.24 69.472 60.2747 69.5414 60.344C69.6107 60.4133 69.6454 60.4957 69.6454 60.591V66.649C69.6454 66.7443 69.6107 66.8267 69.5414 66.896C69.472 66.9653 69.3897 67 69.2944 67H68.8134C68.718 67 68.6357 66.9653 68.5664 66.896C68.497 66.8267 68.4624 66.7443 68.4624 66.649V66.246C68.0117 66.8353 67.3617 67.13 66.5124 67.13C65.6804 67.13 65.013 66.87 64.5104 66.35C64.0164 65.83 63.7694 65.1193 63.7694 64.218V60.591ZM72.7742 66.649C72.7742 66.7443 72.7395 66.8267 72.6702 66.896C72.6009 66.9653 72.5185 67 72.4232 67H71.9422C71.8469 67 71.7645 66.9653 71.6952 66.896C71.6259 66.8267 71.5912 66.7443 71.5912 66.649V58.121C71.5912 58.0257 71.6259 57.9433 71.6952 57.874C71.7645 57.8047 71.8469 57.77 71.9422 57.77H72.4232C72.5185 57.77 72.6009 57.8047 72.6702 57.874C72.7395 57.9433 72.7742 58.0257 72.7742 58.121V66.649ZM80.577 63.009C80.5943 63.1997 80.603 63.4077 80.603 63.633C80.603 63.841 80.5943 64.0403 80.577 64.231C80.499 65.115 80.1913 65.8213 79.654 66.35C79.1253 66.87 78.406 67.13 77.496 67.13C76.586 67.13 75.8623 66.87 75.325 66.35C74.7963 65.8213 74.493 65.115 74.415 64.231C74.4063 64.1357 74.402 63.9363 74.402 63.633C74.402 63.3123 74.4063 63.1043 74.415 63.009C74.4843 62.125 74.7876 61.423 75.325 60.903C75.8623 60.3743 76.586 60.11 77.496 60.11C78.406 60.11 79.1296 60.3743 79.667 60.903C80.2043 61.423 80.5076 62.125 80.577 63.009ZM79.394 63.074C79.342 62.5193 79.1556 62.073 78.835 61.735C78.523 61.397 78.0766 61.228 77.496 61.228C76.9153 61.228 76.4646 61.397 76.144 61.735C75.832 62.073 75.65 62.5193 75.598 63.074C75.5893 63.178 75.585 63.3643 75.585 63.633C75.585 63.893 75.5893 64.0707 75.598 64.166C75.65 64.7207 75.832 65.167 76.144 65.505C76.4646 65.843 76.9153 66.012 77.496 66.012C78.0766 66.012 78.523 65.843 78.835 65.505C79.1556 65.167 79.342 64.7207 79.394 64.166C79.4113 63.9753 79.42 63.7977 79.42 63.633C79.42 63.4683 79.4113 63.282 79.394 63.074Z" fill="#EBECEE"/>
<rect x="40" y="74" width="38" height="25" rx="12.5" fill="#323B4A"/>
<path d="M57.1579 84.854C57.1766 85.1153 57.1859 85.5353 57.1859 86.114C57.1859 86.6833 57.1766 87.094 57.1579 87.346C57.0926 88.4567 56.7239 89.3667 56.0519 90.076C55.3892 90.7853 54.3952 91.14 53.0699 91.14C51.7446 91.14 50.7459 90.7853 50.0739 90.076C49.4112 89.3667 49.0472 88.4567 48.9819 87.346C48.9632 86.842 48.9539 86.4313 48.9539 86.114C48.9539 85.7967 48.9632 85.3767 48.9819 84.854C49.0472 83.7433 49.4112 82.8333 50.0739 82.124C50.7459 81.4147 51.7446 81.06 53.0699 81.06C54.3952 81.06 55.3892 81.4147 56.0519 82.124C56.7239 82.8333 57.0926 83.7433 57.1579 84.854ZM54.5679 84.924C54.5399 84.4107 54.4139 84.014 54.1899 83.734C53.9659 83.4447 53.5926 83.3 53.0699 83.3C52.5472 83.3 52.1739 83.4447 51.9499 83.734C51.7259 84.014 51.5999 84.4107 51.5719 84.924C51.5532 85.428 51.5439 85.8153 51.5439 86.086C51.5439 86.338 51.5532 86.7347 51.5719 87.276C51.5906 87.7893 51.7119 88.1907 51.9359 88.48C52.1692 88.76 52.5472 88.9 53.0699 88.9C53.5926 88.9 53.9659 88.76 54.1899 88.48C54.4232 88.1907 54.5492 87.7893 54.5679 87.276C54.5866 87.0053 54.5959 86.6087 54.5959 86.086C54.5959 85.5633 54.5866 85.176 54.5679 84.924ZM62.7646 84.182C62.7366 84.77 62.5359 85.2507 62.1626 85.624C61.7986 85.988 61.2666 86.17 60.5666 86.17C59.8666 86.17 59.3346 85.988 58.9706 85.624C58.6159 85.26 58.4152 84.7793 58.3686 84.182C58.3592 84.0607 58.3546 83.888 58.3546 83.664C58.3546 83.4307 58.3592 83.2487 58.3686 83.118C58.4152 82.5207 58.6159 82.04 58.9706 81.676C59.3346 81.312 59.8666 81.13 60.5666 81.13C61.2666 81.13 61.7939 81.312 62.1486 81.676C62.5126 82.04 62.7179 82.5207 62.7646 83.118C62.7832 83.3793 62.7926 83.5613 62.7926 83.664C62.7926 83.7667 62.7832 83.9393 62.7646 84.182ZM66.2646 81.466C66.3392 81.3727 66.4092 81.3073 66.4746 81.27C66.5492 81.2233 66.6472 81.2 66.7686 81.2H67.9166C68.0192 81.2 68.0986 81.228 68.1546 81.284C68.2199 81.3307 68.2526 81.396 68.2526 81.48C68.2526 81.536 68.2339 81.5873 68.1966 81.634L61.2806 90.734C61.2059 90.8273 61.1312 90.8973 61.0566 90.944C60.9912 90.9813 60.8979 91 60.7766 91H59.6286C59.5259 91 59.4419 90.9767 59.3766 90.93C59.3206 90.874 59.2926 90.804 59.2926 90.72C59.2926 90.664 59.3112 90.6127 59.3486 90.566L66.2646 81.466ZM60.5666 84.84C60.7626 84.84 60.9026 84.784 60.9866 84.672C61.0706 84.56 61.1219 84.3733 61.1406 84.112C61.1592 83.888 61.1686 83.734 61.1686 83.65C61.1686 83.5473 61.1592 83.3933 61.1406 83.188C61.1219 82.9267 61.0706 82.74 60.9866 82.628C60.9026 82.516 60.7626 82.46 60.5666 82.46C60.3706 82.46 60.2306 82.516 60.1466 82.628C60.0626 82.74 60.0112 82.9267 59.9926 83.188C59.9832 83.2907 59.9786 83.4447 59.9786 83.65C59.9786 83.846 59.9832 84 59.9926 84.112C60.0112 84.3733 60.0626 84.56 60.1466 84.672C60.2306 84.784 60.3706 84.84 60.5666 84.84ZM69.2606 89.082C69.2326 89.67 69.0319 90.1507 68.6586 90.524C68.2946 90.888 67.7626 91.07 67.0626 91.07C66.3626 91.07 65.8306 90.888 65.4666 90.524C65.1119 90.16 64.9112 89.6793 64.8646 89.082C64.8552 88.9607 64.8506 88.788 64.8506 88.564C64.8506 88.3307 64.8552 88.1487 64.8646 88.018C64.9112 87.4207 65.1119 86.94 65.4666 86.576C65.8306 86.212 66.3626 86.03 67.0626 86.03C67.7626 86.03 68.2899 86.212 68.6446 86.576C69.0086 86.94 69.2139 87.4207 69.2606 88.018C69.2792 88.2793 69.2886 88.4613 69.2886 88.564C69.2886 88.6667 69.2792 88.8393 69.2606 89.082ZM67.0626 89.74C67.2586 89.74 67.3986 89.684 67.4826 89.572C67.5666 89.46 67.6179 89.2733 67.6366 89.012C67.6552 88.788 67.6646 88.634 67.6646 88.55C67.6646 88.4473 67.6552 88.2933 67.6366 88.088C67.6179 87.8267 67.5666 87.64 67.4826 87.528C67.3986 87.416 67.2586 87.36 67.0626 87.36C66.8666 87.36 66.7266 87.416 66.6426 87.528C66.5586 87.64 66.5072 87.8267 66.4886 88.088C66.4792 88.1907 66.4746 88.3447 66.4746 88.55C66.4746 88.746 66.4792 88.9 66.4886 89.012C66.5072 89.2733 66.5586 89.46 66.6426 89.572C66.7266 89.684 66.8666 89.74 67.0626 89.74Z" fill="white"/>
<g filter="url(#filter0_d_34428_7856)">
<rect x="88" y="14" width="28" height="28" rx="14" fill="white"/>
<rect x="87" y="13" width="30" height="30" rx="15" stroke="#374151" stroke-width="2"/>
<path opacity="0.4" d="M102.001 30.4917C102.337 30.4917 102.609 30.7641 102.609 31.1001C102.609 31.436 102.337 31.7085 102.001 31.7085C101.665 31.7085 101.393 31.436 101.393 31.1001C101.393 30.7641 101.665 30.4917 102.001 30.4917Z" fill="#272E3A" stroke="#272E3A" stroke-width="1.5"/>
<path d="M98.124 26.6167H105.874C107.556 26.6167 108.395 26.8857 108.854 27.3452C109.314 27.8048 109.583 28.6432 109.583 30.3247V31.8755C109.583 33.557 109.314 34.3954 108.854 34.855C108.395 35.3145 107.556 35.5835 105.874 35.5835H98.124C96.4424 35.5835 95.6041 35.3145 95.1445 34.855C94.685 34.3955 94.4161 33.5571 94.416 31.8755V30.3247C94.4161 28.643 94.685 27.8047 95.1445 27.3452C95.6041 26.8857 96.4423 26.6167 98.124 26.6167ZM101.999 27.8335C100.192 27.8337 98.7324 29.3043 98.7324 31.1001C98.7325 32.8959 100.192 34.3665 101.999 34.3667C103.806 34.3667 105.266 32.896 105.266 31.1001C105.266 29.3042 103.807 27.8335 101.999 27.8335Z" fill="#272E3A" stroke="#272E3A" stroke-width="1.5"/>
<g opacity="0.4">
<mask id="path-12-inside-1_34428_7856" fill="white">
<path d="M97.9342 25.8748V24.8998C97.9342 22.4582 98.6259 20.8332 102.001 20.8332C105.376 20.8332 106.068 22.4582 106.068 24.8998V25.8748C106.493 25.8832 106.876 25.8998 107.234 25.9498V24.8998C107.234 22.6498 106.693 19.6665 102.001 19.6665C97.3092 19.6665 96.7676 22.6498 96.7676 24.8998V25.9415C97.1176 25.8998 97.5092 25.8748 97.9342 25.8748Z"/>
</mask>
<path d="M97.9342 25.8748V24.8998C97.9342 22.4582 98.6259 20.8332 102.001 20.8332C105.376 20.8332 106.068 22.4582 106.068 24.8998V25.8748C106.493 25.8832 106.876 25.8998 107.234 25.9498V24.8998C107.234 22.6498 106.693 19.6665 102.001 19.6665C97.3092 19.6665 96.7676 22.6498 96.7676 24.8998V25.9415C97.1176 25.8998 97.5092 25.8748 97.9342 25.8748Z" fill="#272E3A"/>
<path d="M97.9342 25.8748V27.3748H99.4342V25.8748H97.9342ZM106.068 25.8748H104.568V27.3457L106.038 27.3745L106.068 25.8748ZM107.234 25.9498L107.027 27.4354L108.734 27.6737V25.9498H107.234ZM107.234 24.8998H105.734H107.234ZM96.7676 25.9415H95.2676V27.6307L96.9449 27.431L96.7676 25.9415ZM97.9342 25.8748H99.4342V24.8998H97.9342H96.4342V25.8748H97.9342ZM97.9342 24.8998H99.4342C99.4342 23.7471 99.6156 23.1967 99.8528 22.913C100.039 22.6905 100.52 22.3332 102.001 22.3332V20.8332V19.3332C100.107 19.3332 98.5547 19.7884 97.5511 20.9888C96.5988 22.128 96.4342 23.6109 96.4342 24.8998H97.9342ZM102.001 20.8332V22.3332C103.482 22.3332 103.963 22.6905 104.149 22.913C104.386 23.1967 104.568 23.7471 104.568 24.8998H106.068H107.568C107.568 23.6109 107.403 22.128 106.451 20.9888C105.447 19.7884 103.895 19.3332 102.001 19.3332V20.8332ZM106.068 24.8998H104.568V25.8748H106.068H107.568V24.8998H106.068ZM106.068 25.8748L106.038 27.3745C106.451 27.3826 106.761 27.3983 107.027 27.4354L107.234 25.9498L107.442 24.4642C106.991 24.4014 106.535 24.3837 106.097 24.3751L106.068 25.8748ZM107.234 25.9498H108.734V24.8998H107.234H105.734V25.9498H107.234ZM107.234 24.8998L108.734 24.8998C108.734 23.7116 108.606 22.002 107.604 20.5769C106.526 19.0428 104.687 18.1665 102.001 18.1665V19.6665V21.1665C104.006 21.1665 104.784 21.7819 105.15 22.302C105.592 22.931 105.734 23.8381 105.734 24.8998L107.234 24.8998ZM102.001 19.6665V18.1665C99.3145 18.1665 97.4759 19.0428 96.3977 20.5769C95.396 22.002 95.2676 23.7116 95.2676 24.8998H96.7676H98.2676C98.2676 23.8381 98.41 22.931 98.8521 22.302C99.2176 21.7819 99.9956 21.1665 102.001 21.1665V19.6665ZM96.7676 24.8998H95.2676V25.9415H96.7676H98.2676V24.8998H96.7676ZM96.7676 25.9415L96.9449 27.431C97.2351 27.3964 97.5675 27.3748 97.9342 27.3748V25.8748V24.3748C97.451 24.3748 97.0001 24.4032 96.5903 24.452L96.7676 25.9415Z" fill="#272E3A" mask="url(#path-12-inside-1_34428_7856)"/>
</g>
</g>
<defs>
<filter id="filter0_d_34428_7856" x="71" y="5" width="62" height="62" filterUnits="userSpaceOnUse" color-interpolation-filters="sRGB">
<feFlood flood-opacity="0" result="BackgroundImageFix"/>
<feColorMatrix in="SourceAlpha" type="matrix" values="0 0 0 0 0 0 0 0 0 0 0 0 0 0 0 0 0 0 127 0" result="hardAlpha"/>
<feOffset dy="8"/>
<feGaussianBlur stdDeviation="7.5"/>
<feColorMatrix type="matrix" values="0 0 0 0 0 0 0 0 0 0 0 0 0 0 0 0 0 0 0.25 0"/>
<feBlend mode="normal" in2="BackgroundImageFix" result="effect1_dropShadow_34428_7856"/>
<feBlend mode="normal" in="SourceGraphic" in2="effect1_dropShadow_34428_7856" result="shape"/>
</filter>
<clipPath id="clip0_34428_7856">
<rect width="16.4908" height="21.3333" fill="white" transform="translate(50.2539 24.3335)"/>
</clipPath>
</defs>
</svg>
