<svg width="133" height="118" viewBox="0 0 133 118" fill="none" xmlns="http://www.w3.org/2000/svg">
<rect x="2" y="2" width="114" height="114" rx="57" fill="#1E242D"/>
<rect x="2" y="2" width="114" height="114" rx="57" stroke="#374151" stroke-width="4"/>
<g clip-path="url(#clip0_34428_7858)">
<mask id="mask0_34428_7858" style="mask-type:luminance" maskUnits="userSpaceOnUse" x="43" y="19" width="32" height="32">
<path d="M75 19H43V51H75V19Z" fill="white"/>
</mask>
<g mask="url(#mask0_34428_7858)">
<path opacity="0.4" d="M65.8793 40.2802C65.786 40.3736 65.6925 40.4536 65.6125 40.5469C56.7192 49.1736 43.4792 35.9336 52.1059 27.0403C52.1992 26.947 52.2793 26.867 52.3726 26.7736C57.9727 21.1736 69.2659 23.4003 69.2659 23.4003C69.2659 23.4003 71.4793 34.6802 65.8793 40.2802Z" fill="#1DA534"/>
<path d="M58.9733 33.6665C48.48 39.7332 48.3066 47.0532 48.3066 47.0532Z" fill="#1DA534"/>
<path d="M58.9733 33.6665C48.48 39.7332 48.3066 47.0532 48.3066 47.0532" stroke="#1DA534" stroke-width="1.5" stroke-miterlimit="10" stroke-linecap="round"/>
</g>
</g>
<path d="M36.1429 58.251C36.1429 58.1557 36.1776 58.0733 36.2469 58.004C36.3162 57.9347 36.3986 57.9 36.4939 57.9H39.9779C40.6626 57.9 41.2172 58.0343 41.6419 58.303C42.0666 58.563 42.3699 58.8793 42.5519 59.252C42.7339 59.6247 42.8249 59.9887 42.8249 60.344C42.8249 60.8293 42.7079 61.2237 42.4739 61.527C42.2399 61.8217 42.0102 62.0383 41.7849 62.177C42.1489 62.4197 42.4436 62.7317 42.6689 63.113C42.9029 63.4857 43.0199 63.9017 43.0199 64.361C43.0199 64.8117 42.9072 65.2407 42.6819 65.648C42.4652 66.0467 42.1402 66.3717 41.7069 66.623C41.2736 66.8743 40.7579 67 40.1599 67H36.4939C36.3986 67 36.3162 66.9653 36.2469 66.896C36.1776 66.8267 36.1429 66.7443 36.1429 66.649V58.251ZM37.3779 61.696H39.8479C40.4199 61.696 40.8532 61.5833 41.1479 61.358C41.4426 61.1327 41.5899 60.8077 41.5899 60.383C41.5899 59.9583 41.4426 59.6333 41.1479 59.408C40.8532 59.1827 40.4199 59.07 39.8479 59.07H37.3779V61.696ZM37.3779 65.83H40.0299C40.5846 65.83 41.0136 65.6913 41.3169 65.414C41.6289 65.128 41.7849 64.777 41.7849 64.361C41.7849 63.9363 41.6376 63.581 41.3429 63.295C41.0482 63.009 40.6106 62.866 40.0299 62.866H37.3779V65.83ZM45.9838 58.862C45.9838 58.9573 45.9491 59.0397 45.8798 59.109C45.8105 59.1783 45.7281 59.213 45.6328 59.213H44.8918C44.7965 59.213 44.7141 59.1783 44.6448 59.109C44.5755 59.0397 44.5408 58.9573 44.5408 58.862V58.121C44.5408 58.0257 44.5755 57.9433 44.6448 57.874C44.7141 57.8047 44.7965 57.77 44.8918 57.77H45.6328C45.7281 57.77 45.8105 57.8047 45.8798 57.874C45.9491 57.9433 45.9838 58.0257 45.9838 58.121V58.862ZM45.8538 66.649C45.8538 66.7443 45.8191 66.8267 45.7498 66.896C45.6805 66.9653 45.5981 67 45.5028 67H45.0218C44.9265 67 44.8441 66.9653 44.7748 66.896C44.7055 66.8267 44.6708 66.7443 44.6708 66.649V60.591C44.6708 60.4957 44.7055 60.4133 44.7748 60.344C44.8441 60.2747 44.9265 60.24 45.0218 60.24H45.5028C45.5981 60.24 45.6805 60.2747 45.7498 60.344C45.8191 60.4133 45.8538 60.4957 45.8538 60.591V66.649ZM53.6565 63.009C53.6739 63.1997 53.6825 63.4077 53.6825 63.633C53.6825 63.841 53.6739 64.0403 53.6565 64.231C53.5785 65.115 53.2709 65.8213 52.7335 66.35C52.2049 66.87 51.4855 67.13 50.5755 67.13C49.6655 67.13 48.9419 66.87 48.4045 66.35C47.8759 65.8213 47.5725 65.115 47.4945 64.231C47.4859 64.1357 47.4815 63.9363 47.4815 63.633C47.4815 63.3123 47.4859 63.1043 47.4945 63.009C47.5639 62.125 47.8672 61.423 48.4045 60.903C48.9419 60.3743 49.6655 60.11 50.5755 60.11C51.4855 60.11 52.2092 60.3743 52.7465 60.903C53.2839 61.423 53.5872 62.125 53.6565 63.009ZM52.4735 63.074C52.4215 62.5193 52.2352 62.073 51.9145 61.735C51.6025 61.397 51.1562 61.228 50.5755 61.228C49.9949 61.228 49.5442 61.397 49.2235 61.735C48.9115 62.073 48.7295 62.5193 48.6775 63.074C48.6689 63.178 48.6645 63.3643 48.6645 63.633C48.6645 63.893 48.6689 64.0707 48.6775 64.166C48.7295 64.7207 48.9115 65.167 49.2235 65.505C49.5442 65.843 49.9949 66.012 50.5755 66.012C51.1562 66.012 51.6025 65.843 51.9145 65.505C52.2352 65.167 52.4215 64.7207 52.4735 64.166C52.4909 63.9753 52.4995 63.7977 52.4995 63.633C52.4995 63.4683 52.4909 63.282 52.4735 63.074ZM56.4925 66.649C56.4925 66.7443 56.4578 66.8267 56.3885 66.896C56.3191 66.9653 56.2368 67 56.1415 67H55.6605C55.5651 67 55.4828 66.9653 55.4135 66.896C55.3441 66.8267 55.3095 66.7443 55.3095 66.649V58.121C55.3095 58.0257 55.3441 57.9433 55.4135 57.874C55.4828 57.8047 55.5651 57.77 55.6605 57.77H56.1415C56.2368 57.77 56.3191 57.8047 56.3885 57.874C56.4578 57.9433 56.4925 58.0257 56.4925 58.121V66.649ZM64.2952 63.009C64.3125 63.1997 64.3212 63.4077 64.3212 63.633C64.3212 63.841 64.3125 64.0403 64.2952 64.231C64.2172 65.115 63.9095 65.8213 63.3722 66.35C62.8435 66.87 62.1242 67.13 61.2142 67.13C60.3042 67.13 59.5805 66.87 59.0432 66.35C58.5145 65.8213 58.2112 65.115 58.1332 64.231C58.1245 64.1357 58.1202 63.9363 58.1202 63.633C58.1202 63.3123 58.1245 63.1043 58.1332 63.009C58.2025 62.125 58.5059 61.423 59.0432 60.903C59.5805 60.3743 60.3042 60.11 61.2142 60.11C62.1242 60.11 62.8479 60.3743 63.3852 60.903C63.9225 61.423 64.2259 62.125 64.2952 63.009ZM63.1122 63.074C63.0602 62.5193 62.8739 62.073 62.5532 61.735C62.2412 61.397 61.7949 61.228 61.2142 61.228C60.6335 61.228 60.1829 61.397 59.8622 61.735C59.5502 62.073 59.3682 62.5193 59.3162 63.074C59.3075 63.178 59.3032 63.3643 59.3032 63.633C59.3032 63.893 59.3075 64.0707 59.3162 64.166C59.3682 64.7207 59.5502 65.167 59.8622 65.505C60.1829 65.843 60.6335 66.012 61.2142 66.012C61.7949 66.012 62.2412 65.843 62.5532 65.505C62.8739 65.167 63.0602 64.7207 63.1122 64.166C63.1295 63.9753 63.1382 63.7977 63.1382 63.633C63.1382 63.4683 63.1295 63.282 63.1122 63.074ZM68.5741 60.11C69.0595 60.11 69.4668 60.1967 69.7961 60.37C70.1341 60.5347 70.3985 60.7427 70.5891 60.994V60.591C70.5891 60.4957 70.6238 60.4133 70.6931 60.344C70.7625 60.2747 70.8448 60.24 70.9401 60.24H71.4211C71.5165 60.24 71.5988 60.2747 71.6681 60.344C71.7375 60.4133 71.7721 60.4957 71.7721 60.591V66.909C71.7721 67.8277 71.5121 68.547 70.9921 69.067C70.4721 69.5957 69.7095 69.86 68.7041 69.86C68.0541 69.86 67.5081 69.7603 67.0661 69.561C66.6241 69.3617 66.2948 69.1147 66.0781 68.82C65.8701 68.5253 65.7575 68.2263 65.7401 67.923C65.7315 67.8277 65.7618 67.7453 65.8311 67.676C65.9091 67.6067 65.9958 67.572 66.0911 67.572H66.4811C66.5851 67.572 66.6675 67.598 66.7281 67.65C66.7888 67.702 66.8495 67.793 66.9101 67.923C66.9968 68.1223 67.1615 68.3087 67.4041 68.482C67.6468 68.6553 68.0368 68.742 68.5741 68.742C69.9175 68.742 70.5891 68.183 70.5891 67.065V66.246C70.1471 66.8353 69.4755 67.13 68.5741 67.13C68.0368 67.13 67.5471 67.0043 67.1051 66.753C66.6718 66.5017 66.3208 66.1463 66.0521 65.687C65.7921 65.219 65.6491 64.673 65.6231 64.049L65.6101 63.62L65.6231 63.191C65.6491 62.567 65.7921 62.0253 66.0521 61.566C66.3208 61.098 66.6718 60.7383 67.1051 60.487C67.5385 60.2357 68.0281 60.11 68.5741 60.11ZM68.7041 61.228C68.1408 61.228 67.6901 61.41 67.3521 61.774C67.0228 62.138 66.8408 62.632 66.8061 63.256L66.7931 63.62L66.8061 63.984C66.8408 64.608 67.0228 65.102 67.3521 65.466C67.6901 65.83 68.1408 66.012 68.7041 66.012C69.2588 66.012 69.7051 65.843 70.0431 65.505C70.3811 65.1583 70.5631 64.686 70.5891 64.088C70.5978 64.0013 70.6021 63.8453 70.6021 63.62C70.6021 63.3947 70.5978 63.2387 70.5891 63.152C70.5631 62.5453 70.3811 62.073 70.0431 61.735C69.7051 61.397 69.2588 61.228 68.7041 61.228ZM74.9007 66.649C74.9007 66.7443 74.866 66.8267 74.7967 66.896C74.7273 66.9653 74.645 67 74.5497 67H74.0687C73.9733 67 73.891 66.9653 73.8217 66.896C73.7523 66.8267 73.7177 66.7443 73.7177 66.649V60.591C73.7177 60.4957 73.7523 60.4133 73.8217 60.344C73.891 60.2747 73.9733 60.24 74.0687 60.24H74.5497C74.645 60.24 74.7273 60.2747 74.7967 60.344C74.866 60.4133 74.9007 60.4957 74.9007 60.591V66.649ZM74.6927 57.692C74.788 57.588 74.866 57.523 74.9267 57.497C74.9873 57.4623 75.0697 57.445 75.1737 57.445H76.1357C76.2137 57.445 76.2743 57.471 76.3177 57.523C76.361 57.5663 76.3827 57.627 76.3827 57.705C76.3827 57.7657 76.361 57.8177 76.3177 57.861L74.8747 59.044C74.7793 59.122 74.6927 59.1783 74.6147 59.213C74.5453 59.2477 74.45 59.265 74.3287 59.265H73.8477C73.709 59.265 73.6397 59.1957 73.6397 59.057C73.6397 58.9877 73.6613 58.9313 73.7047 58.888L74.6927 57.692ZM80.8704 62.723V62.554C80.8704 62.1293 80.7274 61.8043 80.4414 61.579C80.1641 61.345 79.8001 61.228 79.3494 61.228C79.0028 61.228 78.7298 61.2887 78.5304 61.41C78.3398 61.5227 78.1578 61.696 77.9844 61.93C77.9324 61.9993 77.8761 62.047 77.8154 62.073C77.7548 62.099 77.6724 62.112 77.5684 62.112H77.1784C77.0831 62.112 76.9964 62.0773 76.9184 62.008C76.8491 61.9387 76.8188 61.8563 76.8274 61.761C76.8534 61.501 76.9791 61.2453 77.2044 60.994C77.4384 60.734 77.7461 60.5217 78.1274 60.357C78.5088 60.1923 78.9161 60.11 79.3494 60.11C80.1554 60.11 80.8054 60.3353 81.2994 60.786C81.8021 61.2367 82.0534 61.8693 82.0534 62.684V66.649C82.0534 66.7443 82.0188 66.8267 81.9494 66.896C81.8801 66.9653 81.7978 67 81.7024 67H81.2214C81.1261 67 81.0438 66.9653 80.9744 66.896C80.9051 66.8267 80.8704 66.7443 80.8704 66.649V66.116C80.7318 66.428 80.4371 66.675 79.9864 66.857C79.5358 67.039 79.0851 67.13 78.6344 67.13C78.1924 67.13 77.7981 67.052 77.4514 66.896C77.1048 66.7313 76.8361 66.5103 76.6454 66.233C76.4634 65.9557 76.3724 65.6437 76.3724 65.297C76.3724 64.647 76.6151 64.14 77.1004 63.776C77.5858 63.4033 78.2314 63.152 79.0374 63.022L80.8704 62.723ZM80.8704 63.763L79.3364 64.01C78.7731 64.0967 78.3354 64.2397 78.0234 64.439C77.7114 64.6297 77.5554 64.8723 77.5554 65.167C77.5554 65.3837 77.6551 65.5787 77.8544 65.752C78.0538 65.9253 78.3571 66.012 78.7644 66.012C79.3884 66.012 79.8954 65.8343 80.2854 65.479C80.6754 65.1237 80.8704 64.66 80.8704 64.088V63.763Z" fill="#EBECEE"/>
<rect x="40" y="74" width="38" height="25" rx="12.5" fill="#323B4A"/>
<path d="M57.1579 84.854C57.1766 85.1153 57.1859 85.5353 57.1859 86.114C57.1859 86.6833 57.1766 87.094 57.1579 87.346C57.0926 88.4567 56.7239 89.3667 56.0519 90.076C55.3892 90.7853 54.3952 91.14 53.0699 91.14C51.7446 91.14 50.7459 90.7853 50.0739 90.076C49.4112 89.3667 49.0472 88.4567 48.9819 87.346C48.9632 86.842 48.9539 86.4313 48.9539 86.114C48.9539 85.7967 48.9632 85.3767 48.9819 84.854C49.0472 83.7433 49.4112 82.8333 50.0739 82.124C50.7459 81.4147 51.7446 81.06 53.0699 81.06C54.3952 81.06 55.3892 81.4147 56.0519 82.124C56.7239 82.8333 57.0926 83.7433 57.1579 84.854ZM54.5679 84.924C54.5399 84.4107 54.4139 84.014 54.1899 83.734C53.9659 83.4447 53.5926 83.3 53.0699 83.3C52.5472 83.3 52.1739 83.4447 51.9499 83.734C51.7259 84.014 51.5999 84.4107 51.5719 84.924C51.5532 85.428 51.5439 85.8153 51.5439 86.086C51.5439 86.338 51.5532 86.7347 51.5719 87.276C51.5906 87.7893 51.7119 88.1907 51.9359 88.48C52.1692 88.76 52.5472 88.9 53.0699 88.9C53.5926 88.9 53.9659 88.76 54.1899 88.48C54.4232 88.1907 54.5492 87.7893 54.5679 87.276C54.5866 87.0053 54.5959 86.6087 54.5959 86.086C54.5959 85.5633 54.5866 85.176 54.5679 84.924ZM62.7646 84.182C62.7366 84.77 62.5359 85.2507 62.1626 85.624C61.7986 85.988 61.2666 86.17 60.5666 86.17C59.8666 86.17 59.3346 85.988 58.9706 85.624C58.6159 85.26 58.4152 84.7793 58.3686 84.182C58.3592 84.0607 58.3546 83.888 58.3546 83.664C58.3546 83.4307 58.3592 83.2487 58.3686 83.118C58.4152 82.5207 58.6159 82.04 58.9706 81.676C59.3346 81.312 59.8666 81.13 60.5666 81.13C61.2666 81.13 61.7939 81.312 62.1486 81.676C62.5126 82.04 62.7179 82.5207 62.7646 83.118C62.7832 83.3793 62.7926 83.5613 62.7926 83.664C62.7926 83.7667 62.7832 83.9393 62.7646 84.182ZM66.2646 81.466C66.3392 81.3727 66.4092 81.3073 66.4746 81.27C66.5492 81.2233 66.6472 81.2 66.7686 81.2H67.9166C68.0192 81.2 68.0986 81.228 68.1546 81.284C68.2199 81.3307 68.2526 81.396 68.2526 81.48C68.2526 81.536 68.2339 81.5873 68.1966 81.634L61.2806 90.734C61.2059 90.8273 61.1312 90.8973 61.0566 90.944C60.9912 90.9813 60.8979 91 60.7766 91H59.6286C59.5259 91 59.4419 90.9767 59.3766 90.93C59.3206 90.874 59.2926 90.804 59.2926 90.72C59.2926 90.664 59.3112 90.6127 59.3486 90.566L66.2646 81.466ZM60.5666 84.84C60.7626 84.84 60.9026 84.784 60.9866 84.672C61.0706 84.56 61.1219 84.3733 61.1406 84.112C61.1592 83.888 61.1686 83.734 61.1686 83.65C61.1686 83.5473 61.1592 83.3933 61.1406 83.188C61.1219 82.9267 61.0706 82.74 60.9866 82.628C60.9026 82.516 60.7626 82.46 60.5666 82.46C60.3706 82.46 60.2306 82.516 60.1466 82.628C60.0626 82.74 60.0112 82.9267 59.9926 83.188C59.9832 83.2907 59.9786 83.4447 59.9786 83.65C59.9786 83.846 59.9832 84 59.9926 84.112C60.0112 84.3733 60.0626 84.56 60.1466 84.672C60.2306 84.784 60.3706 84.84 60.5666 84.84ZM69.2606 89.082C69.2326 89.67 69.0319 90.1507 68.6586 90.524C68.2946 90.888 67.7626 91.07 67.0626 91.07C66.3626 91.07 65.8306 90.888 65.4666 90.524C65.1119 90.16 64.9112 89.6793 64.8646 89.082C64.8552 88.9607 64.8506 88.788 64.8506 88.564C64.8506 88.3307 64.8552 88.1487 64.8646 88.018C64.9112 87.4207 65.1119 86.94 65.4666 86.576C65.8306 86.212 66.3626 86.03 67.0626 86.03C67.7626 86.03 68.2899 86.212 68.6446 86.576C69.0086 86.94 69.2139 87.4207 69.2606 88.018C69.2792 88.2793 69.2886 88.4613 69.2886 88.564C69.2886 88.6667 69.2792 88.8393 69.2606 89.082ZM67.0626 89.74C67.2586 89.74 67.3986 89.684 67.4826 89.572C67.5666 89.46 67.6179 89.2733 67.6366 89.012C67.6552 88.788 67.6646 88.634 67.6646 88.55C67.6646 88.4473 67.6552 88.2933 67.6366 88.088C67.6179 87.8267 67.5666 87.64 67.4826 87.528C67.3986 87.416 67.2586 87.36 67.0626 87.36C66.8666 87.36 66.7266 87.416 66.6426 87.528C66.5586 87.64 66.5072 87.8267 66.4886 88.088C66.4792 88.1907 66.4746 88.3447 66.4746 88.55C66.4746 88.746 66.4792 88.9 66.4886 89.012C66.5072 89.2733 66.5586 89.46 66.6426 89.572C66.7266 89.684 66.8666 89.74 67.0626 89.74Z" fill="white"/>
<g filter="url(#filter0_d_34428_7858)">
<rect x="88" y="14" width="28" height="28" rx="14" fill="white"/>
<rect x="87" y="13" width="30" height="30" rx="15" stroke="#374151" stroke-width="2"/>
<path opacity="0.4" d="M102.001 30.4917C102.337 30.4917 102.609 30.7641 102.609 31.1001C102.609 31.436 102.337 31.7085 102.001 31.7085C101.665 31.7085 101.393 31.436 101.393 31.1001C101.393 30.7641 101.665 30.4917 102.001 30.4917Z" fill="#272E3A" stroke="#272E3A" stroke-width="1.5"/>
<path d="M98.124 26.6167H105.874C107.556 26.6167 108.395 26.8857 108.854 27.3452C109.314 27.8048 109.583 28.6432 109.583 30.3247V31.8755C109.583 33.557 109.314 34.3954 108.854 34.855C108.395 35.3145 107.556 35.5835 105.874 35.5835H98.124C96.4424 35.5835 95.6041 35.3145 95.1445 34.855C94.685 34.3955 94.4161 33.5571 94.416 31.8755V30.3247C94.4161 28.643 94.685 27.8047 95.1445 27.3452C95.6041 26.8857 96.4423 26.6167 98.124 26.6167ZM101.999 27.8335C100.192 27.8337 98.7324 29.3043 98.7324 31.1001C98.7325 32.8959 100.192 34.3665 101.999 34.3667C103.806 34.3667 105.266 32.896 105.266 31.1001C105.266 29.3042 103.807 27.8335 101.999 27.8335Z" fill="#272E3A" stroke="#272E3A" stroke-width="1.5"/>
<g opacity="0.4">
<mask id="path-13-inside-1_34428_7858" fill="white">
<path d="M97.9342 25.8748V24.8998C97.9342 22.4582 98.6259 20.8332 102.001 20.8332C105.376 20.8332 106.068 22.4582 106.068 24.8998V25.8748C106.493 25.8832 106.876 25.8998 107.234 25.9498V24.8998C107.234 22.6498 106.693 19.6665 102.001 19.6665C97.3092 19.6665 96.7676 22.6498 96.7676 24.8998V25.9415C97.1176 25.8998 97.5092 25.8748 97.9342 25.8748Z"/>
</mask>
<path d="M97.9342 25.8748V24.8998C97.9342 22.4582 98.6259 20.8332 102.001 20.8332C105.376 20.8332 106.068 22.4582 106.068 24.8998V25.8748C106.493 25.8832 106.876 25.8998 107.234 25.9498V24.8998C107.234 22.6498 106.693 19.6665 102.001 19.6665C97.3092 19.6665 96.7676 22.6498 96.7676 24.8998V25.9415C97.1176 25.8998 97.5092 25.8748 97.9342 25.8748Z" fill="#272E3A"/>
<path d="M97.9342 25.8748V27.3748H99.4342V25.8748H97.9342ZM106.068 25.8748H104.568V27.3457L106.038 27.3745L106.068 25.8748ZM107.234 25.9498L107.027 27.4354L108.734 27.6737V25.9498H107.234ZM107.234 24.8998H105.734H107.234ZM96.7676 25.9415H95.2676V27.6307L96.9449 27.431L96.7676 25.9415ZM97.9342 25.8748H99.4342V24.8998H97.9342H96.4342V25.8748H97.9342ZM97.9342 24.8998H99.4342C99.4342 23.7471 99.6156 23.1967 99.8528 22.913C100.039 22.6905 100.52 22.3332 102.001 22.3332V20.8332V19.3332C100.107 19.3332 98.5547 19.7884 97.5511 20.9888C96.5988 22.128 96.4342 23.6109 96.4342 24.8998H97.9342ZM102.001 20.8332V22.3332C103.482 22.3332 103.963 22.6905 104.149 22.913C104.386 23.1967 104.568 23.7471 104.568 24.8998H106.068H107.568C107.568 23.6109 107.403 22.128 106.451 20.9888C105.447 19.7884 103.895 19.3332 102.001 19.3332V20.8332ZM106.068 24.8998H104.568V25.8748H106.068H107.568V24.8998H106.068ZM106.068 25.8748L106.038 27.3745C106.451 27.3826 106.761 27.3983 107.027 27.4354L107.234 25.9498L107.442 24.4642C106.991 24.4014 106.535 24.3837 106.097 24.3751L106.068 25.8748ZM107.234 25.9498H108.734V24.8998H107.234H105.734V25.9498H107.234ZM107.234 24.8998L108.734 24.8998C108.734 23.7116 108.606 22.002 107.604 20.5769C106.526 19.0428 104.687 18.1665 102.001 18.1665V19.6665V21.1665C104.006 21.1665 104.784 21.7819 105.15 22.302C105.592 22.931 105.734 23.8381 105.734 24.8998L107.234 24.8998ZM102.001 19.6665V18.1665C99.3145 18.1665 97.4759 19.0428 96.3977 20.5769C95.396 22.002 95.2676 23.7116 95.2676 24.8998H96.7676H98.2676C98.2676 23.8381 98.41 22.931 98.8521 22.302C99.2176 21.7819 99.9956 21.1665 102.001 21.1665V19.6665ZM96.7676 24.8998H95.2676V25.9415H96.7676H98.2676V24.8998H96.7676ZM96.7676 25.9415L96.9449 27.431C97.2351 27.3964 97.5675 27.3748 97.9342 27.3748V25.8748V24.3748C97.451 24.3748 97.0001 24.4032 96.5903 24.452L96.7676 25.9415Z" fill="#272E3A" mask="url(#path-13-inside-1_34428_7858)"/>
</g>
</g>
<defs>
<filter id="filter0_d_34428_7858" x="71" y="5" width="62" height="62" filterUnits="userSpaceOnUse" color-interpolation-filters="sRGB">
<feFlood flood-opacity="0" result="BackgroundImageFix"/>
<feColorMatrix in="SourceAlpha" type="matrix" values="0 0 0 0 0 0 0 0 0 0 0 0 0 0 0 0 0 0 127 0" result="hardAlpha"/>
<feOffset dy="8"/>
<feGaussianBlur stdDeviation="7.5"/>
<feColorMatrix type="matrix" values="0 0 0 0 0 0 0 0 0 0 0 0 0 0 0 0 0 0 0.25 0"/>
<feBlend mode="normal" in2="BackgroundImageFix" result="effect1_dropShadow_34428_7858"/>
<feBlend mode="normal" in="SourceGraphic" in2="effect1_dropShadow_34428_7858" result="shape"/>
</filter>
<clipPath id="clip0_34428_7858">
<rect width="32" height="32" fill="white" transform="translate(43 19)"/>
</clipPath>
</defs>
</svg>
