<svg width="133" height="118" viewBox="0 0 133 118" fill="none" xmlns="http://www.w3.org/2000/svg">
<rect x="2" y="2" width="114" height="114" rx="57" fill="#1E242D"/>
<rect x="2" y="2" width="114" height="114" rx="57" stroke="#374151" stroke-width="4"/>
<path d="M72.3327 18.1665H45.666V36.8332H72.3327V18.1665Z" fill="white"/>
<path d="M54.5547 18.1665H45.666V36.8332H54.5547V18.1665Z" fill="#007D36"/>
<path d="M72.334 18.1665H63.4453V36.8332H72.334V18.1665Z" fill="#D80027"/>
<path d="M58.9892 30.6617C57.3293 30.6617 55.9785 29.2436 55.9785 27.5004C55.9785 27.2511 56.1709 27.0488 56.4086 27.0488C56.6463 27.0488 56.8387 27.2511 56.8387 27.5004C56.8387 28.7454 57.8035 29.7585 58.9892 29.7585C60.175 29.7585 61.1398 28.7454 61.1398 27.5004C61.1398 27.2511 61.3322 27.0488 61.5699 27.0488C61.8076 27.0488 62 27.2511 62 27.5004C62 29.2436 60.6492 30.6617 58.9892 30.6617V30.6617Z" fill="#4BA543"/>
<path d="M58.1335 25.2417H58.5591C59.2717 25.2417 59.8494 25.8483 59.8494 26.5965V27.9513L59.248 28.4029C58.6059 28.4029 58.0615 27.9071 57.9707 27.2397L58.1335 25.2417Z" fill="#966A5B"/>
<path d="M59.8503 27.9513H59.249C58.8209 27.9513 58.4579 27.6208 58.3974 27.1758L58.1343 25.2417H57.7642C57.5028 25.2417 57.3018 25.4845 57.3383 25.7562L57.5456 27.3035C57.6657 28.1877 58.3983 28.8546 59.2488 28.8546H59.4202C59.6577 28.8546 59.8503 28.6524 59.8503 28.403V27.9513H59.8503Z" fill="#785353"/>
<path d="M34.3003 50.4C34.3956 50.4 34.478 50.4347 34.5473 50.504C34.6166 50.5733 34.6513 50.6557 34.6513 50.751V59.149C34.6513 59.2443 34.6166 59.3267 34.5473 59.396C34.478 59.4653 34.3956 59.5 34.3003 59.5H33.7673C33.672 59.5 33.5896 59.4653 33.5203 59.396C33.451 59.3267 33.4163 59.2443 33.4163 59.149V55.483H28.8403V59.149C28.8403 59.2443 28.8056 59.3267 28.7363 59.396C28.667 59.4653 28.5846 59.5 28.4893 59.5H27.9563C27.861 59.5 27.7786 59.4697 27.7093 59.409C27.64 59.3397 27.6053 59.253 27.6053 59.149V50.751C27.6053 50.6557 27.64 50.5733 27.7093 50.504C27.7786 50.4347 27.861 50.4 27.9563 50.4H28.4893C28.5846 50.4 28.667 50.4347 28.7363 50.504C28.8056 50.5733 28.8403 50.6557 28.8403 50.751V54.313H33.4163V50.751C33.4163 50.6557 33.451 50.5733 33.5203 50.504C33.5896 50.4347 33.672 50.4 33.7673 50.4H34.3003ZM38.0556 51.362C38.0556 51.4573 38.0209 51.5397 37.9516 51.609C37.8822 51.6783 37.7999 51.713 37.7046 51.713H36.9636C36.8682 51.713 36.7859 51.6783 36.7166 51.609C36.6472 51.5397 36.6126 51.4573 36.6126 51.362V50.621C36.6126 50.5257 36.6472 50.4433 36.7166 50.374C36.7859 50.3047 36.8682 50.27 36.9636 50.27H37.7046C37.7999 50.27 37.8822 50.3047 37.9516 50.374C38.0209 50.4433 38.0556 50.5257 38.0556 50.621V51.362ZM37.9256 59.149C37.9256 59.2443 37.8909 59.3267 37.8216 59.396C37.7522 59.4653 37.6699 59.5 37.5746 59.5H37.0936C36.9982 59.5 36.9159 59.4653 36.8466 59.396C36.7772 59.3267 36.7426 59.2443 36.7426 59.149V53.091C36.7426 52.9957 36.7772 52.9133 36.8466 52.844C36.9159 52.7747 36.9982 52.74 37.0936 52.74H37.5746C37.6699 52.74 37.7522 52.7747 37.8216 52.844C37.8909 52.9133 37.9256 52.9957 37.9256 53.091V59.149ZM41.5033 56.497C40.238 56.2283 39.6053 55.5827 39.6053 54.56C39.6053 54.2047 39.7007 53.8797 39.8913 53.585C40.082 53.2903 40.3637 53.0563 40.7363 52.883C41.1177 52.701 41.5813 52.61 42.1273 52.61C42.6647 52.61 43.1283 52.688 43.5183 52.844C43.9083 53 44.203 53.195 44.4023 53.429C44.6103 53.663 44.7143 53.8883 44.7143 54.105C44.7143 54.1917 44.6797 54.2697 44.6103 54.339C44.541 54.3997 44.4587 54.43 44.3633 54.43H43.9343C43.7697 54.43 43.6397 54.3693 43.5443 54.248C43.2757 53.9013 42.8033 53.728 42.1273 53.728C41.7287 53.728 41.4037 53.8017 41.1523 53.949C40.9097 54.0963 40.7883 54.3 40.7883 54.56C40.7883 54.7767 40.849 54.9413 40.9703 55.054C41.0917 55.1667 41.2737 55.2577 41.5163 55.327C41.759 55.3963 42.188 55.5003 42.8033 55.639C43.566 55.8037 44.1077 56.055 44.4283 56.393C44.749 56.731 44.9093 57.1427 44.9093 57.628C44.9093 57.9833 44.7967 58.3127 44.5713 58.616C44.3547 58.9193 44.0383 59.1663 43.6223 59.357C43.215 59.539 42.7383 59.63 42.1923 59.63C41.655 59.63 41.1783 59.5477 40.7623 59.383C40.355 59.2097 40.0387 59.0017 39.8133 58.759C39.588 58.5163 39.4753 58.2867 39.4753 58.07C39.4753 57.9833 39.51 57.9097 39.5793 57.849C39.6487 57.7797 39.731 57.745 39.8263 57.745H40.2943C40.3723 57.745 40.4417 57.7537 40.5023 57.771C40.563 57.7883 40.6193 57.836 40.6713 57.914C40.9573 58.3127 41.4643 58.512 42.1923 58.512C42.5997 58.512 42.955 58.4297 43.2583 58.265C43.5703 58.0917 43.7263 57.8793 43.7263 57.628C43.7263 57.42 43.6483 57.2553 43.4923 57.134C43.345 57.004 43.1283 56.9 42.8423 56.822C42.5563 56.7353 42.11 56.627 41.5033 56.497ZM48.2225 57.225C48.2225 57.5977 48.2962 57.8837 48.4435 58.083C48.5995 58.2823 48.8898 58.382 49.3145 58.382H50.0035C50.0988 58.382 50.1812 58.4167 50.2505 58.486C50.3198 58.5553 50.3545 58.6377 50.3545 58.733V59.149C50.3545 59.2443 50.3198 59.3267 50.2505 59.396C50.1812 59.4653 50.0988 59.5 50.0035 59.5H49.1845C48.4478 59.5 47.9062 59.3093 47.5595 58.928C47.2128 58.538 47.0395 57.9703 47.0395 57.225V53.858H46.0775C45.9822 53.858 45.8998 53.8233 45.8305 53.754C45.7612 53.6847 45.7265 53.6023 45.7265 53.507V53.091C45.7265 52.9957 45.7612 52.9133 45.8305 52.844C45.8998 52.7747 45.9822 52.74 46.0775 52.74H47.0395V50.621C47.0395 50.5257 47.0742 50.4433 47.1435 50.374C47.2128 50.3047 47.2952 50.27 47.3905 50.27H47.8715C47.9668 50.27 48.0492 50.3047 48.1185 50.374C48.1878 50.4433 48.2225 50.5257 48.2225 50.621V52.74H49.8735C49.9688 52.74 50.0512 52.7747 50.1205 52.844C50.1898 52.9133 50.2245 52.9957 50.2245 53.091V53.507C50.2245 53.6023 50.1898 53.6847 50.1205 53.754C50.0512 53.8233 49.9688 53.858 49.8735 53.858H48.2225V57.225ZM57.5096 55.509C57.5269 55.6997 57.5356 55.9077 57.5356 56.133C57.5356 56.341 57.5269 56.5403 57.5096 56.731C57.4316 57.615 57.1239 58.3213 56.5866 58.85C56.0579 59.37 55.3386 59.63 54.4286 59.63C53.5186 59.63 52.7949 59.37 52.2576 58.85C51.7289 58.3213 51.4256 57.615 51.3476 56.731C51.3389 56.6357 51.3346 56.4363 51.3346 56.133C51.3346 55.8123 51.3389 55.6043 51.3476 55.509C51.4169 54.625 51.7202 53.923 52.2576 53.403C52.7949 52.8743 53.5186 52.61 54.4286 52.61C55.3386 52.61 56.0622 52.8743 56.5996 53.403C57.1369 53.923 57.4402 54.625 57.5096 55.509ZM56.3266 55.574C56.2746 55.0193 56.0882 54.573 55.7676 54.235C55.4556 53.897 55.0092 53.728 54.4286 53.728C53.8479 53.728 53.3972 53.897 53.0766 54.235C52.7646 54.573 52.5826 55.0193 52.5306 55.574C52.5219 55.678 52.5176 55.8643 52.5176 56.133C52.5176 56.393 52.5219 56.5707 52.5306 56.666C52.5826 57.2207 52.7646 57.667 53.0766 58.005C53.3972 58.343 53.8479 58.512 54.4286 58.512C55.0092 58.512 55.4556 58.343 55.7676 58.005C56.0882 57.667 56.2746 57.2207 56.3266 56.666C56.3439 56.4753 56.3526 56.2977 56.3526 56.133C56.3526 55.9683 56.3439 55.782 56.3266 55.574ZM62.5945 52.74C62.6898 52.74 62.7722 52.7747 62.8415 52.844C62.9108 52.9133 62.9455 52.9957 62.9455 53.091V53.507C62.9455 53.6023 62.9108 53.6847 62.8415 53.754C62.7722 53.8233 62.6898 53.858 62.5945 53.858H61.8405C61.3552 53.858 60.9825 53.988 60.7225 54.248C60.4712 54.4993 60.3455 54.8677 60.3455 55.353V59.149C60.3455 59.2443 60.3108 59.3267 60.2415 59.396C60.1722 59.4653 60.0898 59.5 59.9945 59.5H59.5135C59.4182 59.5 59.3358 59.4653 59.2665 59.396C59.1972 59.3267 59.1625 59.2443 59.1625 59.149V53.091C59.1625 52.9957 59.1972 52.9133 59.2665 52.844C59.3358 52.7747 59.4182 52.74 59.5135 52.74H59.9945C60.0898 52.74 60.1722 52.7747 60.2415 52.844C60.3108 52.9133 60.3455 52.9957 60.3455 53.091V53.494C60.5188 53.234 60.7268 53.0433 60.9695 52.922C61.2122 52.8007 61.5285 52.74 61.9185 52.74H62.5945ZM65.3886 51.362C65.3886 51.4573 65.3539 51.5397 65.2846 51.609C65.2153 51.6783 65.1329 51.713 65.0376 51.713H64.2966C64.2013 51.713 64.1189 51.6783 64.0496 51.609C63.9803 51.5397 63.9456 51.4573 63.9456 51.362V50.621C63.9456 50.5257 63.9803 50.4433 64.0496 50.374C64.1189 50.3047 64.2013 50.27 64.2966 50.27H65.0376C65.1329 50.27 65.2153 50.3047 65.2846 50.374C65.3539 50.4433 65.3886 50.5257 65.3886 50.621V51.362ZM65.2586 59.149C65.2586 59.2443 65.2239 59.3267 65.1546 59.396C65.0853 59.4653 65.0029 59.5 64.9076 59.5H64.4266C64.3313 59.5 64.2489 59.4653 64.1796 59.396C64.1103 59.3267 64.0756 59.2443 64.0756 59.149V53.091C64.0756 52.9957 64.1103 52.9133 64.1796 52.844C64.2489 52.7747 64.3313 52.74 64.4266 52.74H64.9076C65.0029 52.74 65.0853 52.7747 65.1546 52.844C65.2239 52.9133 65.2586 52.9957 65.2586 53.091V59.149ZM71.2283 55.223V55.054C71.2283 54.6293 71.0853 54.3043 70.7993 54.079C70.522 53.845 70.158 53.728 69.7073 53.728C69.3607 53.728 69.0877 53.7887 68.8883 53.91C68.6977 54.0227 68.5157 54.196 68.3423 54.43C68.2903 54.4993 68.234 54.547 68.1733 54.573C68.1127 54.599 68.0303 54.612 67.9263 54.612H67.5363C67.441 54.612 67.3543 54.5773 67.2763 54.508C67.207 54.4387 67.1767 54.3563 67.1853 54.261C67.2113 54.001 67.337 53.7453 67.5623 53.494C67.7963 53.234 68.104 53.0217 68.4853 52.857C68.8667 52.6923 69.274 52.61 69.7073 52.61C70.5133 52.61 71.1633 52.8353 71.6573 53.286C72.16 53.7367 72.4113 54.3693 72.4113 55.184V59.149C72.4113 59.2443 72.3767 59.3267 72.3073 59.396C72.238 59.4653 72.1557 59.5 72.0603 59.5H71.5793C71.484 59.5 71.4017 59.4653 71.3323 59.396C71.263 59.3267 71.2283 59.2443 71.2283 59.149V58.616C71.0897 58.928 70.795 59.175 70.3443 59.357C69.8937 59.539 69.443 59.63 68.9923 59.63C68.5503 59.63 68.156 59.552 67.8093 59.396C67.4627 59.2313 67.194 59.0103 67.0033 58.733C66.8213 58.4557 66.7303 58.1437 66.7303 57.797C66.7303 57.147 66.973 56.64 67.4583 56.276C67.9437 55.9033 68.5893 55.652 69.3953 55.522L71.2283 55.223ZM71.2283 56.263L69.6943 56.51C69.131 56.5967 68.6933 56.7397 68.3813 56.939C68.0693 57.1297 67.9133 57.3723 67.9133 57.667C67.9133 57.8837 68.013 58.0787 68.2123 58.252C68.4117 58.4253 68.715 58.512 69.1223 58.512C69.7463 58.512 70.2533 58.3343 70.6433 57.979C71.0333 57.6237 71.2283 57.16 71.2283 56.588V56.263ZM82.1228 50.621C82.1228 50.5257 82.1575 50.4433 82.2268 50.374C82.2962 50.3047 82.3785 50.27 82.4738 50.27H82.9548C83.0502 50.27 83.1325 50.3047 83.2018 50.374C83.2712 50.4433 83.3058 50.5257 83.3058 50.621V59.149C83.3058 59.2443 83.2712 59.3267 83.2018 59.396C83.1325 59.4653 83.0502 59.5 82.9548 59.5H82.4738C82.3785 59.5 82.2962 59.4653 82.2268 59.396C82.1575 59.3267 82.1228 59.2443 82.1228 59.149V58.746C81.6808 59.3353 81.0092 59.63 80.1078 59.63C79.5705 59.63 79.0808 59.5043 78.6388 59.253C78.2055 59.0017 77.8545 58.642 77.5858 58.174C77.3258 57.706 77.1828 57.16 77.1568 56.536L77.1438 56.107L77.1568 55.691C77.1828 55.067 77.3258 54.5253 77.5858 54.066C77.8545 53.598 78.2055 53.2383 78.6388 52.987C79.0722 52.7357 79.5618 52.61 80.1078 52.61C80.5932 52.61 81.0005 52.6967 81.3298 52.87C81.6678 53.0347 81.9322 53.2427 82.1228 53.494V50.621ZM82.1228 55.652C82.0968 55.0453 81.9148 54.573 81.5768 54.235C81.2388 53.897 80.7925 53.728 80.2378 53.728C79.6745 53.728 79.2238 53.91 78.8858 54.274C78.5565 54.638 78.3745 55.132 78.3398 55.756L78.3268 56.12L78.3398 56.484C78.3745 57.108 78.5565 57.602 78.8858 57.966C79.2238 58.33 79.6745 58.512 80.2378 58.512C80.7752 58.512 81.2172 58.3473 81.5638 58.018C81.9105 57.68 82.0968 57.2337 82.1228 56.679C82.1315 56.5923 82.1358 56.419 82.1358 56.159C82.1358 55.9077 82.1315 55.7387 82.1228 55.652ZM87.9164 52.61C88.8437 52.61 89.576 52.9047 90.1134 53.494C90.6507 54.0833 90.9194 54.885 90.9194 55.899V56.25C90.9194 56.3453 90.8847 56.4277 90.8154 56.497C90.746 56.5663 90.6637 56.601 90.5684 56.601H86.0964V56.679C86.1137 57.251 86.287 57.7017 86.6164 58.031C86.9544 58.3517 87.3877 58.512 87.9164 58.512C88.3497 58.512 88.6834 58.4557 88.9174 58.343C89.16 58.2303 89.3767 58.07 89.5674 57.862C89.6367 57.7927 89.6974 57.745 89.7494 57.719C89.81 57.693 89.888 57.68 89.9834 57.68H90.3734C90.4774 57.68 90.564 57.7147 90.6334 57.784C90.7027 57.8533 90.733 57.9357 90.7244 58.031C90.6897 58.265 90.5597 58.5077 90.3344 58.759C90.1177 59.0017 89.8014 59.2097 89.3854 59.383C88.978 59.5477 88.4884 59.63 87.9164 59.63C87.3617 59.63 86.8677 59.5043 86.4344 59.253C86.001 58.993 85.6544 58.6377 85.3944 58.187C85.143 57.7363 84.9914 57.2293 84.9394 56.666C84.922 56.406 84.9134 56.2067 84.9134 56.068C84.9134 55.9293 84.922 55.73 84.9394 55.47C84.9914 54.9327 85.143 54.4473 85.3944 54.014C85.6544 53.5807 85.9967 53.2383 86.4214 52.987C86.8547 52.7357 87.353 52.61 87.9164 52.61ZM89.7494 55.509V55.47C89.7494 54.9413 89.5804 54.521 89.2424 54.209C88.913 53.8883 88.471 53.728 87.9164 53.728C87.4137 53.728 86.9847 53.8883 86.6294 54.209C86.2827 54.5297 86.105 54.95 86.0964 55.47V55.509H89.7494ZM45.5224 65.816C45.661 65.5387 45.8517 65.4 46.0944 65.4H46.5884C46.6837 65.4 46.766 65.4347 46.8354 65.504C46.9047 65.5733 46.9394 65.6557 46.9394 65.751V74.149C46.9394 74.2443 46.9047 74.3267 46.8354 74.396C46.766 74.4653 46.6837 74.5 46.5884 74.5H46.0554C45.96 74.5 45.8777 74.4653 45.8084 74.396C45.739 74.3267 45.7044 74.2443 45.7044 74.149V67.987L43.6764 71.9C43.607 72.0387 43.529 72.1427 43.4424 72.212C43.3644 72.2813 43.2647 72.316 43.1434 72.316H42.6494C42.528 72.316 42.424 72.2813 42.3374 72.212C42.2594 72.1427 42.1857 72.0387 42.1164 71.9L40.0884 67.987V74.149C40.0884 74.2443 40.0537 74.3267 39.9844 74.396C39.915 74.4653 39.8327 74.5 39.7374 74.5H39.2044C39.109 74.5 39.0267 74.4653 38.9574 74.396C38.888 74.3267 38.8534 74.2443 38.8534 74.149V65.751C38.8534 65.6557 38.888 65.5733 38.9574 65.504C39.0267 65.4347 39.109 65.4 39.2044 65.4H39.6984C39.941 65.4 40.1317 65.5387 40.2704 65.816L42.8964 70.899L45.5224 65.816ZM51.6966 67.61C52.624 67.61 53.3563 67.9047 53.8936 68.494C54.431 69.0833 54.6996 69.885 54.6996 70.899V71.25C54.6996 71.3453 54.665 71.4277 54.5956 71.497C54.5263 71.5663 54.444 71.601 54.3486 71.601H49.8766V71.679C49.894 72.251 50.0673 72.7017 50.3966 73.031C50.7346 73.3517 51.168 73.512 51.6966 73.512C52.13 73.512 52.4636 73.4557 52.6976 73.343C52.9403 73.2303 53.157 73.07 53.3476 72.862C53.417 72.7927 53.4776 72.745 53.5296 72.719C53.5903 72.693 53.6683 72.68 53.7636 72.68H54.1536C54.2576 72.68 54.3443 72.7147 54.4136 72.784C54.483 72.8533 54.5133 72.9357 54.5046 73.031C54.47 73.265 54.34 73.5077 54.1146 73.759C53.898 74.0017 53.5816 74.2097 53.1656 74.383C52.7583 74.5477 52.2686 74.63 51.6966 74.63C51.142 74.63 50.648 74.5043 50.2146 74.253C49.7813 73.993 49.4346 73.6377 49.1746 73.187C48.9233 72.7363 48.7716 72.2293 48.7196 71.666C48.7023 71.406 48.6936 71.2067 48.6936 71.068C48.6936 70.9293 48.7023 70.73 48.7196 70.47C48.7716 69.9327 48.9233 69.4473 49.1746 69.014C49.4346 68.5807 49.777 68.2383 50.2016 67.987C50.635 67.7357 51.1333 67.61 51.6966 67.61ZM53.5296 70.509V70.47C53.5296 69.9413 53.3606 69.521 53.0226 69.209C52.6933 68.8883 52.2513 68.728 51.6966 68.728C51.194 68.728 50.765 68.8883 50.4096 69.209C50.063 69.5297 49.8853 69.95 49.8766 70.47V70.509H53.5296ZM52.0996 65.192C52.195 65.088 52.273 65.023 52.3336 64.997C52.3943 64.9623 52.4766 64.945 52.5806 64.945H53.5426C53.6206 64.945 53.6813 64.971 53.7246 65.023C53.768 65.0663 53.7896 65.127 53.7896 65.205C53.7896 65.2657 53.768 65.3177 53.7246 65.361L52.2816 66.544C52.1863 66.622 52.0996 66.6783 52.0216 66.713C51.9523 66.7477 51.857 66.765 51.7356 66.765H51.2546C51.116 66.765 51.0466 66.6957 51.0466 66.557C51.0466 66.4877 51.0683 66.4313 51.1116 66.388L52.0996 65.192ZM56.996 74.253C56.9353 74.3223 56.8746 74.383 56.814 74.435C56.7533 74.4783 56.6753 74.5 56.58 74.5H55.982C55.8953 74.5 55.8216 74.4697 55.761 74.409C55.7003 74.3483 55.67 74.279 55.67 74.201C55.67 74.1317 55.6873 74.071 55.722 74.019L58.101 71.042L55.852 68.221C55.8173 68.169 55.8 68.1083 55.8 68.039C55.8 67.961 55.8303 67.8917 55.891 67.831C55.9516 67.7703 56.0253 67.74 56.112 67.74H56.736C56.8313 67.74 56.9093 67.766 56.97 67.818C57.0306 67.8613 57.0913 67.9177 57.152 67.987L58.881 70.158L60.597 67.987C60.6576 67.9177 60.7183 67.8613 60.779 67.818C60.8396 67.766 60.9176 67.74 61.013 67.74H61.611C61.6976 67.74 61.7713 67.7703 61.832 67.831C61.8926 67.8917 61.923 67.961 61.923 68.039C61.923 68.1083 61.9056 68.169 61.871 68.221L59.609 71.068L61.962 74.019C61.9966 74.071 62.014 74.1317 62.014 74.201C62.014 74.279 61.9836 74.3483 61.923 74.409C61.8623 74.4697 61.7886 74.5 61.702 74.5H61.078C60.9826 74.5 60.9046 74.4783 60.844 74.435C60.7833 74.383 60.7226 74.3223 60.662 74.253L58.829 71.952L56.996 74.253ZM64.703 66.362C64.703 66.4573 64.6684 66.5397 64.599 66.609C64.5297 66.6783 64.4474 66.713 64.352 66.713H63.611C63.5157 66.713 63.4334 66.6783 63.364 66.609C63.2947 66.5397 63.26 66.4573 63.26 66.362V65.621C63.26 65.5257 63.2947 65.4433 63.364 65.374C63.4334 65.3047 63.5157 65.27 63.611 65.27H64.352C64.4474 65.27 64.5297 65.3047 64.599 65.374C64.6684 65.4433 64.703 65.5257 64.703 65.621V66.362ZM64.573 74.149C64.573 74.2443 64.5384 74.3267 64.469 74.396C64.3997 74.4653 64.3174 74.5 64.222 74.5H63.741C63.6457 74.5 63.5634 74.4653 63.494 74.396C63.4247 74.3267 63.39 74.2443 63.39 74.149V68.091C63.39 67.9957 63.4247 67.9133 63.494 67.844C63.5634 67.7747 63.6457 67.74 63.741 67.74H64.222C64.3174 67.74 64.3997 67.7747 64.469 67.844C64.5384 67.9133 64.573 67.9957 64.573 68.091V74.149ZM69.2558 73.512C70.1224 73.512 70.7074 73.174 71.0108 72.498C71.0714 72.368 71.1321 72.277 71.1928 72.225C71.2534 72.173 71.3358 72.147 71.4398 72.147H71.8298C71.9251 72.147 72.0074 72.1817 72.0768 72.251C72.1461 72.3117 72.1808 72.3853 72.1808 72.472C72.1808 72.7667 72.0638 73.083 71.8298 73.421C71.5958 73.759 71.2578 74.045 70.8158 74.279C70.3738 74.513 69.8538 74.63 69.2558 74.63C68.6404 74.63 68.1074 74.5 67.6568 74.24C67.2061 73.98 66.8594 73.6247 66.6168 73.174C66.3741 72.7147 66.2398 72.2033 66.2138 71.64C66.2051 71.536 66.2008 71.3367 66.2008 71.042C66.2008 70.834 66.2051 70.6867 66.2138 70.6C66.2918 69.716 66.5908 68.9967 67.1108 68.442C67.6308 67.8873 68.3458 67.61 69.2558 67.61C69.8538 67.61 70.3694 67.727 70.8028 67.961C71.2448 68.1863 71.5784 68.468 71.8038 68.806C72.0378 69.1353 72.1634 69.4473 72.1808 69.742C72.1894 69.8373 72.1548 69.9197 72.0768 69.989C72.0074 70.0583 71.9251 70.093 71.8298 70.093H71.4398C71.3358 70.093 71.2534 70.067 71.1928 70.015C71.1321 69.963 71.0714 69.872 71.0108 69.742C70.7074 69.066 70.1224 68.728 69.2558 68.728C68.7791 68.728 68.3631 68.8883 68.0078 69.209C67.6524 69.5297 67.4488 70.015 67.3968 70.665C67.3881 70.7603 67.3838 70.9163 67.3838 71.133C67.3838 71.3323 67.3881 71.4797 67.3968 71.575C67.4574 72.225 67.6611 72.7103 68.0078 73.031C68.3631 73.3517 68.7791 73.512 69.2558 73.512ZM79.5867 70.509C79.6041 70.6997 79.6127 70.9077 79.6127 71.133C79.6127 71.341 79.6041 71.5403 79.5867 71.731C79.5087 72.615 79.2011 73.3213 78.6637 73.85C78.1351 74.37 77.4157 74.63 76.5057 74.63C75.5957 74.63 74.8721 74.37 74.3347 73.85C73.8061 73.3213 73.5027 72.615 73.4247 71.731C73.4161 71.6357 73.4117 71.4363 73.4117 71.133C73.4117 70.8123 73.4161 70.6043 73.4247 70.509C73.4941 69.625 73.7974 68.923 74.3347 68.403C74.8721 67.8743 75.5957 67.61 76.5057 67.61C77.4157 67.61 78.1394 67.8743 78.6767 68.403C79.2141 68.923 79.5174 69.625 79.5867 70.509ZM78.4037 70.574C78.3517 70.0193 78.1654 69.573 77.8447 69.235C77.5327 68.897 77.0864 68.728 76.5057 68.728C75.9251 68.728 75.4744 68.897 75.1537 69.235C74.8417 69.573 74.6597 70.0193 74.6077 70.574C74.5991 70.678 74.5947 70.8643 74.5947 71.133C74.5947 71.393 74.5991 71.5707 74.6077 71.666C74.6597 72.2207 74.8417 72.667 75.1537 73.005C75.4744 73.343 75.9251 73.512 76.5057 73.512C77.0864 73.512 77.5327 73.343 77.8447 73.005C78.1654 72.667 78.3517 72.2207 78.4037 71.666C78.4211 71.4753 78.4297 71.2977 78.4297 71.133C78.4297 70.9683 78.4211 70.782 78.4037 70.574Z" fill="#EBECEE"/>
<rect x="40" y="81.5" width="38" height="25" rx="12.5" fill="#323B4A"/>
<path d="M57.1579 92.354C57.1766 92.6153 57.1859 93.0353 57.1859 93.614C57.1859 94.1833 57.1766 94.594 57.1579 94.846C57.0926 95.9567 56.7239 96.8667 56.0519 97.576C55.3892 98.2853 54.3952 98.64 53.0699 98.64C51.7446 98.64 50.7459 98.2853 50.0739 97.576C49.4112 96.8667 49.0472 95.9567 48.9819 94.846C48.9632 94.342 48.9539 93.9313 48.9539 93.614C48.9539 93.2967 48.9632 92.8767 48.9819 92.354C49.0472 91.2433 49.4112 90.3333 50.0739 89.624C50.7459 88.9147 51.7446 88.56 53.0699 88.56C54.3952 88.56 55.3892 88.9147 56.0519 89.624C56.7239 90.3333 57.0926 91.2433 57.1579 92.354ZM54.5679 92.424C54.5399 91.9107 54.4139 91.514 54.1899 91.234C53.9659 90.9447 53.5926 90.8 53.0699 90.8C52.5472 90.8 52.1739 90.9447 51.9499 91.234C51.7259 91.514 51.5999 91.9107 51.5719 92.424C51.5532 92.928 51.5439 93.3153 51.5439 93.586C51.5439 93.838 51.5532 94.2347 51.5719 94.776C51.5906 95.2893 51.7119 95.6907 51.9359 95.98C52.1692 96.26 52.5472 96.4 53.0699 96.4C53.5926 96.4 53.9659 96.26 54.1899 95.98C54.4232 95.6907 54.5492 95.2893 54.5679 94.776C54.5866 94.5053 54.5959 94.1087 54.5959 93.586C54.5959 93.0633 54.5866 92.676 54.5679 92.424ZM62.7646 91.682C62.7366 92.27 62.5359 92.7507 62.1626 93.124C61.7986 93.488 61.2666 93.67 60.5666 93.67C59.8666 93.67 59.3346 93.488 58.9706 93.124C58.6159 92.76 58.4152 92.2793 58.3686 91.682C58.3592 91.5607 58.3546 91.388 58.3546 91.164C58.3546 90.9307 58.3592 90.7487 58.3686 90.618C58.4152 90.0207 58.6159 89.54 58.9706 89.176C59.3346 88.812 59.8666 88.63 60.5666 88.63C61.2666 88.63 61.7939 88.812 62.1486 89.176C62.5126 89.54 62.7179 90.0207 62.7646 90.618C62.7832 90.8793 62.7926 91.0613 62.7926 91.164C62.7926 91.2667 62.7832 91.4393 62.7646 91.682ZM66.2646 88.966C66.3392 88.8727 66.4092 88.8073 66.4746 88.77C66.5492 88.7233 66.6472 88.7 66.7686 88.7H67.9166C68.0192 88.7 68.0986 88.728 68.1546 88.784C68.2199 88.8307 68.2526 88.896 68.2526 88.98C68.2526 89.036 68.2339 89.0873 68.1966 89.134L61.2806 98.234C61.2059 98.3273 61.1312 98.3973 61.0566 98.444C60.9912 98.4813 60.8979 98.5 60.7766 98.5H59.6286C59.5259 98.5 59.4419 98.4767 59.3766 98.43C59.3206 98.374 59.2926 98.304 59.2926 98.22C59.2926 98.164 59.3112 98.1127 59.3486 98.066L66.2646 88.966ZM60.5666 92.34C60.7626 92.34 60.9026 92.284 60.9866 92.172C61.0706 92.06 61.1219 91.8733 61.1406 91.612C61.1592 91.388 61.1686 91.234 61.1686 91.15C61.1686 91.0473 61.1592 90.8933 61.1406 90.688C61.1219 90.4267 61.0706 90.24 60.9866 90.128C60.9026 90.016 60.7626 89.96 60.5666 89.96C60.3706 89.96 60.2306 90.016 60.1466 90.128C60.0626 90.24 60.0112 90.4267 59.9926 90.688C59.9832 90.7907 59.9786 90.9447 59.9786 91.15C59.9786 91.346 59.9832 91.5 59.9926 91.612C60.0112 91.8733 60.0626 92.06 60.1466 92.172C60.2306 92.284 60.3706 92.34 60.5666 92.34ZM69.2606 96.582C69.2326 97.17 69.0319 97.6507 68.6586 98.024C68.2946 98.388 67.7626 98.57 67.0626 98.57C66.3626 98.57 65.8306 98.388 65.4666 98.024C65.1119 97.66 64.9112 97.1793 64.8646 96.582C64.8552 96.4607 64.8506 96.288 64.8506 96.064C64.8506 95.8307 64.8552 95.6487 64.8646 95.518C64.9112 94.9207 65.1119 94.44 65.4666 94.076C65.8306 93.712 66.3626 93.53 67.0626 93.53C67.7626 93.53 68.2899 93.712 68.6446 94.076C69.0086 94.44 69.2139 94.9207 69.2606 95.518C69.2792 95.7793 69.2886 95.9613 69.2886 96.064C69.2886 96.1667 69.2792 96.3393 69.2606 96.582ZM67.0626 97.24C67.2586 97.24 67.3986 97.184 67.4826 97.072C67.5666 96.96 67.6179 96.7733 67.6366 96.512C67.6552 96.288 67.6646 96.134 67.6646 96.05C67.6646 95.9473 67.6552 95.7933 67.6366 95.588C67.6179 95.3267 67.5666 95.14 67.4826 95.028C67.3986 94.916 67.2586 94.86 67.0626 94.86C66.8666 94.86 66.7266 94.916 66.6426 95.028C66.5586 95.14 66.5072 95.3267 66.4886 95.588C66.4792 95.6907 66.4746 95.8447 66.4746 96.05C66.4746 96.246 66.4792 96.4 66.4886 96.512C66.5072 96.7733 66.5586 96.96 66.6426 97.072C66.7266 97.184 66.8666 97.24 67.0626 97.24Z" fill="white"/>
<g filter="url(#filter0_d_34428_7864)">
<rect x="88" y="14" width="28" height="28" rx="14" fill="white"/>
<rect x="87" y="13" width="30" height="30" rx="15" stroke="#374151" stroke-width="2"/>
<path opacity="0.4" d="M102.001 30.4917C102.337 30.4917 102.609 30.7641 102.609 31.1001C102.609 31.436 102.337 31.7085 102.001 31.7085C101.665 31.7085 101.393 31.436 101.393 31.1001C101.393 30.7641 101.665 30.4917 102.001 30.4917Z" fill="#272E3A" stroke="#272E3A" stroke-width="1.5"/>
<path d="M98.124 26.6167H105.874C107.556 26.6167 108.395 26.8857 108.854 27.3452C109.314 27.8048 109.583 28.6432 109.583 30.3247V31.8755C109.583 33.557 109.314 34.3954 108.854 34.855C108.395 35.3145 107.556 35.5835 105.874 35.5835H98.124C96.4424 35.5835 95.6041 35.3145 95.1445 34.855C94.685 34.3955 94.4161 33.5571 94.416 31.8755V30.3247C94.4161 28.643 94.685 27.8047 95.1445 27.3452C95.6041 26.8857 96.4423 26.6167 98.124 26.6167ZM101.999 27.8335C100.192 27.8337 98.7324 29.3043 98.7324 31.1001C98.7325 32.8959 100.192 34.3665 101.999 34.3667C103.806 34.3667 105.266 32.896 105.266 31.1001C105.266 29.3042 103.807 27.8335 101.999 27.8335Z" fill="#272E3A" stroke="#272E3A" stroke-width="1.5"/>
<g opacity="0.4">
<mask id="path-15-inside-1_34428_7864" fill="white">
<path d="M97.9342 25.8748V24.8998C97.9342 22.4582 98.6259 20.8332 102.001 20.8332C105.376 20.8332 106.068 22.4582 106.068 24.8998V25.8748C106.493 25.8832 106.876 25.8998 107.234 25.9498V24.8998C107.234 22.6498 106.693 19.6665 102.001 19.6665C97.3092 19.6665 96.7676 22.6498 96.7676 24.8998V25.9415C97.1176 25.8998 97.5092 25.8748 97.9342 25.8748Z"/>
</mask>
<path d="M97.9342 25.8748V24.8998C97.9342 22.4582 98.6259 20.8332 102.001 20.8332C105.376 20.8332 106.068 22.4582 106.068 24.8998V25.8748C106.493 25.8832 106.876 25.8998 107.234 25.9498V24.8998C107.234 22.6498 106.693 19.6665 102.001 19.6665C97.3092 19.6665 96.7676 22.6498 96.7676 24.8998V25.9415C97.1176 25.8998 97.5092 25.8748 97.9342 25.8748Z" fill="#272E3A"/>
<path d="M97.9342 25.8748V27.3748H99.4342V25.8748H97.9342ZM106.068 25.8748H104.568V27.3457L106.038 27.3745L106.068 25.8748ZM107.234 25.9498L107.027 27.4354L108.734 27.6737V25.9498H107.234ZM107.234 24.8998H105.734H107.234ZM96.7676 25.9415H95.2676V27.6307L96.9449 27.431L96.7676 25.9415ZM97.9342 25.8748H99.4342V24.8998H97.9342H96.4342V25.8748H97.9342ZM97.9342 24.8998H99.4342C99.4342 23.7471 99.6156 23.1967 99.8528 22.913C100.039 22.6905 100.52 22.3332 102.001 22.3332V20.8332V19.3332C100.107 19.3332 98.5547 19.7884 97.5511 20.9888C96.5988 22.128 96.4342 23.6109 96.4342 24.8998H97.9342ZM102.001 20.8332V22.3332C103.482 22.3332 103.963 22.6905 104.149 22.913C104.386 23.1967 104.568 23.7471 104.568 24.8998H106.068H107.568C107.568 23.6109 107.403 22.128 106.451 20.9888C105.447 19.7884 103.895 19.3332 102.001 19.3332V20.8332ZM106.068 24.8998H104.568V25.8748H106.068H107.568V24.8998H106.068ZM106.068 25.8748L106.038 27.3745C106.451 27.3826 106.761 27.3983 107.027 27.4354L107.234 25.9498L107.442 24.4642C106.991 24.4014 106.535 24.3837 106.097 24.3751L106.068 25.8748ZM107.234 25.9498H108.734V24.8998H107.234H105.734V25.9498H107.234ZM107.234 24.8998L108.734 24.8998C108.734 23.7116 108.606 22.002 107.604 20.5769C106.526 19.0428 104.687 18.1665 102.001 18.1665V19.6665V21.1665C104.006 21.1665 104.784 21.7819 105.15 22.302C105.592 22.931 105.734 23.8381 105.734 24.8998L107.234 24.8998ZM102.001 19.6665V18.1665C99.3145 18.1665 97.4759 19.0428 96.3977 20.5769C95.396 22.002 95.2676 23.7116 95.2676 24.8998H96.7676H98.2676C98.2676 23.8381 98.41 22.931 98.8521 22.302C99.2176 21.7819 99.9956 21.1665 102.001 21.1665V19.6665ZM96.7676 24.8998H95.2676V25.9415H96.7676H98.2676V24.8998H96.7676ZM96.7676 25.9415L96.9449 27.431C97.2351 27.3964 97.5675 27.3748 97.9342 27.3748V25.8748V24.3748C97.451 24.3748 97.0001 24.4032 96.5903 24.452L96.7676 25.9415Z" fill="#272E3A" mask="url(#path-15-inside-1_34428_7864)"/>
</g>
</g>
<defs>
<filter id="filter0_d_34428_7864" x="71" y="5" width="62" height="62" filterUnits="userSpaceOnUse" color-interpolation-filters="sRGB">
<feFlood flood-opacity="0" result="BackgroundImageFix"/>
<feColorMatrix in="SourceAlpha" type="matrix" values="0 0 0 0 0 0 0 0 0 0 0 0 0 0 0 0 0 0 127 0" result="hardAlpha"/>
<feOffset dy="8"/>
<feGaussianBlur stdDeviation="7.5"/>
<feColorMatrix type="matrix" values="0 0 0 0 0 0 0 0 0 0 0 0 0 0 0 0 0 0 0.25 0"/>
<feBlend mode="normal" in2="BackgroundImageFix" result="effect1_dropShadow_34428_7864"/>
<feBlend mode="normal" in="SourceGraphic" in2="effect1_dropShadow_34428_7864" result="shape"/>
</filter>
</defs>
</svg>
