<svg width="133" height="118" viewBox="0 0 133 118" fill="none" xmlns="http://www.w3.org/2000/svg">
<rect x="2" y="2" width="114" height="114" rx="57" fill="#1E242D"/>
<rect x="2" y="2" width="114" height="114" rx="57" stroke="#374151" stroke-width="4"/>
<path opacity="0.4" d="M64.586 14.1665H53.4127C48.5593 14.1665 45.666 17.0598 45.666 21.9132V33.0865C45.666 37.9398 48.5593 40.8332 53.4127 40.8332H64.586C69.4393 40.8332 72.3327 37.9398 72.3327 33.0865V21.9132C72.3327 17.0598 69.4393 14.1665 64.586 14.1665Z" fill="#D598E5"/>
<path d="M67.4141 23.3267C67.4141 23.8733 66.9741 24.3267 66.4141 24.3267H59.4141C58.8674 24.3267 58.4141 23.8733 58.4141 23.3267C58.4141 22.78 58.8674 22.3267 59.4141 22.3267H66.4141C66.9741 22.3267 67.4141 22.78 67.4141 23.3267Z" fill="#D598E5"/>
<path d="M56.2934 22.0334L53.2934 25.0334C53.0934 25.2334 52.8401 25.3267 52.5867 25.3267C52.3334 25.3267 52.0667 25.2334 51.8801 25.0334L50.8801 24.0334C50.4801 23.6467 50.4801 23.0067 50.8801 22.6201C51.2667 22.2334 51.8934 22.2334 52.2934 22.6201L52.5867 22.9134L54.8801 20.6201C55.2667 20.2334 55.8934 20.2334 56.2934 20.6201C56.6801 21.0067 56.6801 21.6467 56.2934 22.0334Z" fill="#D598E5"/>
<path d="M67.4141 32.6602C67.4141 33.2068 66.9741 33.6602 66.4141 33.6602H59.4141C58.8674 33.6602 58.4141 33.2068 58.4141 32.6602C58.4141 32.1135 58.8674 31.6602 59.4141 31.6602H66.4141C66.9741 31.6602 67.4141 32.1135 67.4141 32.6602Z" fill="#D598E5"/>
<path d="M56.2934 31.3669L53.2934 34.3669C53.0934 34.5669 52.8401 34.6602 52.5867 34.6602C52.3334 34.6602 52.0667 34.5669 51.8801 34.3669L50.8801 33.3669C50.4801 32.9802 50.4801 32.3402 50.8801 31.9536C51.2667 31.5669 51.8934 31.5669 52.2934 31.9536L52.5867 32.2469L54.8801 29.9536C55.2667 29.5669 55.8934 29.5669 56.2934 29.9536C56.6801 30.3402 56.6801 30.9802 56.2934 31.3669Z" fill="#D598E5"/>
<path d="M29.6876 57.446L29.0116 59.175C28.9336 59.3917 28.7646 59.5 28.5046 59.5H28.0236C27.9456 59.5 27.8763 59.474 27.8156 59.422C27.7636 59.3613 27.7376 59.292 27.7376 59.214C27.7376 59.1707 27.7549 59.11 27.7896 59.032L30.9746 50.829C31.0873 50.543 31.2823 50.4 31.5596 50.4H32.3396C32.6169 50.4 32.8119 50.543 32.9246 50.829L36.0966 59.032C36.1313 59.11 36.1486 59.1707 36.1486 59.214C36.1486 59.292 36.1183 59.3613 36.0576 59.422C36.0056 59.474 35.9406 59.5 35.8626 59.5H35.3816C35.1216 59.5 34.9526 59.3917 34.8746 59.175L34.1986 57.446H29.6876ZM33.7436 56.276L31.9496 51.635L30.1426 56.276H33.7436ZM40.9415 50.621C40.9415 50.5257 40.9762 50.4433 41.0455 50.374C41.1149 50.3047 41.1972 50.27 41.2925 50.27H41.7735C41.8689 50.27 41.9512 50.3047 42.0205 50.374C42.0899 50.4433 42.1245 50.5257 42.1245 50.621V59.149C42.1245 59.2443 42.0899 59.3267 42.0205 59.396C41.9512 59.4653 41.8689 59.5 41.7735 59.5H41.2925C41.1972 59.5 41.1149 59.4653 41.0455 59.396C40.9762 59.3267 40.9415 59.2443 40.9415 59.149V58.746C40.4995 59.3353 39.8279 59.63 38.9265 59.63C38.3892 59.63 37.8995 59.5043 37.4575 59.253C37.0242 59.0017 36.6732 58.642 36.4045 58.174C36.1445 57.706 36.0015 57.16 35.9755 56.536L35.9625 56.107L35.9755 55.691C36.0015 55.067 36.1445 54.5253 36.4045 54.066C36.6732 53.598 37.0242 53.2383 37.4575 52.987C37.8909 52.7357 38.3805 52.61 38.9265 52.61C39.4119 52.61 39.8192 52.6967 40.1485 52.87C40.4865 53.0347 40.7509 53.2427 40.9415 53.494V50.621ZM40.9415 55.652C40.9155 55.0453 40.7335 54.573 40.3955 54.235C40.0575 53.897 39.6112 53.728 39.0565 53.728C38.4932 53.728 38.0425 53.91 37.7045 54.274C37.3752 54.638 37.1932 55.132 37.1585 55.756L37.1455 56.12L37.1585 56.484C37.1932 57.108 37.3752 57.602 37.7045 57.966C38.0425 58.33 38.4932 58.512 39.0565 58.512C39.5939 58.512 40.0359 58.3473 40.3825 58.018C40.7292 57.68 40.9155 57.2337 40.9415 56.679C40.9502 56.5923 40.9545 56.419 40.9545 56.159C40.9545 55.9077 40.9502 55.7387 40.9415 55.652ZM44.2131 53.494C44.4211 53.2253 44.6551 53.013 44.9151 52.857C45.1751 52.6923 45.5217 52.61 45.9551 52.61C46.9691 52.61 47.6797 52.987 48.0871 53.741C48.3384 53.377 48.6244 53.0997 48.9451 52.909C49.2657 52.7097 49.6861 52.61 50.2061 52.61C51.0554 52.61 51.6837 52.8657 52.0911 53.377C52.5071 53.8883 52.7151 54.612 52.7151 55.548V59.149C52.7151 59.2443 52.6804 59.3267 52.6111 59.396C52.5417 59.4653 52.4594 59.5 52.3641 59.5H51.8831C51.7877 59.5 51.7054 59.4653 51.6361 59.396C51.5667 59.3267 51.5321 59.2443 51.5321 59.149V55.678C51.5321 54.378 51.0207 53.728 49.9981 53.728C49.5301 53.728 49.1574 53.884 48.8801 54.196C48.6027 54.508 48.4641 54.9717 48.4641 55.587V59.149C48.4641 59.2443 48.4294 59.3267 48.3601 59.396C48.2907 59.4653 48.2084 59.5 48.1131 59.5H47.6321C47.5367 59.5 47.4544 59.4653 47.3851 59.396C47.3157 59.3267 47.2811 59.2443 47.2811 59.149V55.678C47.2811 54.378 46.7697 53.728 45.7471 53.728C45.2791 53.728 44.9064 53.884 44.6291 54.196C44.3517 54.508 44.2131 54.9717 44.2131 55.587V59.149C44.2131 59.2443 44.1784 59.3267 44.1091 59.396C44.0397 59.4653 43.9574 59.5 43.8621 59.5H43.3811C43.2857 59.5 43.2034 59.4653 43.1341 59.396C43.0647 59.3267 43.0301 59.2443 43.0301 59.149V53.091C43.0301 52.9957 43.0647 52.9133 43.1341 52.844C43.2034 52.7747 43.2857 52.74 43.3811 52.74H43.8621C43.9574 52.74 44.0397 52.7747 44.1091 52.844C44.1784 52.9133 44.2131 52.9957 44.2131 53.091V53.494ZM54.8685 51.362C54.8685 51.4573 54.8338 51.5397 54.7645 51.609C54.6952 51.6783 54.6128 51.713 54.5175 51.713H53.7765C53.6812 51.713 53.5988 51.6783 53.5295 51.609C53.4602 51.5397 53.4255 51.4573 53.4255 51.362V50.621C53.4255 50.5257 53.4602 50.4433 53.5295 50.374C53.5988 50.3047 53.6812 50.27 53.7765 50.27H54.5175C54.6128 50.27 54.6952 50.3047 54.7645 50.374C54.8338 50.4433 54.8685 50.5257 54.8685 50.621V51.362ZM54.7385 59.149C54.7385 59.2443 54.7038 59.3267 54.6345 59.396C54.5652 59.4653 54.4828 59.5 54.3875 59.5H53.9065C53.8112 59.5 53.7288 59.4653 53.6595 59.396C53.5902 59.3267 53.5555 59.2443 53.5555 59.149V53.091C53.5555 52.9957 53.5902 52.9133 53.6595 52.844C53.7288 52.7747 53.8112 52.74 53.9065 52.74H54.3875C54.4828 52.74 54.5652 52.7747 54.6345 52.844C54.7038 52.9133 54.7385 52.9957 54.7385 53.091V59.149ZM61.6572 59.149C61.6572 59.2443 61.6226 59.3267 61.5532 59.396C61.4839 59.4653 61.4016 59.5 61.3062 59.5H60.8252C60.7299 59.5 60.6476 59.4653 60.5782 59.396C60.5089 59.3267 60.4742 59.2443 60.4742 59.149V55.717C60.4742 55.067 60.3139 54.573 59.9932 54.235C59.6726 53.897 59.2262 53.728 58.6542 53.728C58.0909 53.728 57.6446 53.897 57.3152 54.235C56.9946 54.573 56.8342 55.067 56.8342 55.717V59.149C56.8342 59.2443 56.7996 59.3267 56.7302 59.396C56.6609 59.4653 56.5786 59.5 56.4832 59.5H56.0022C55.9069 59.5 55.8246 59.4653 55.7552 59.396C55.6859 59.3267 55.6512 59.2443 55.6512 59.149V53.091C55.6512 52.9957 55.6859 52.9133 55.7552 52.844C55.8246 52.7747 55.9069 52.74 56.0022 52.74H56.4832C56.5786 52.74 56.6609 52.7747 56.7302 52.844C56.7996 52.9133 56.8342 52.9957 56.8342 53.091V53.494C57.0249 53.2427 57.2849 53.0347 57.6142 52.87C57.9522 52.6967 58.3639 52.61 58.8492 52.61C59.3952 52.61 59.8806 52.727 60.3052 52.961C60.7299 53.195 61.0592 53.533 61.2932 53.975C61.5359 54.4083 61.6572 54.924 61.6572 55.522V59.149ZM63.8207 51.362C63.8207 51.4573 63.786 51.5397 63.7167 51.609C63.6474 51.6783 63.565 51.713 63.4697 51.713H62.7287C62.6334 51.713 62.551 51.6783 62.4817 51.609C62.4124 51.5397 62.3777 51.4573 62.3777 51.362V50.621C62.3777 50.5257 62.4124 50.4433 62.4817 50.374C62.551 50.3047 62.6334 50.27 62.7287 50.27H63.4697C63.565 50.27 63.6474 50.3047 63.7167 50.374C63.786 50.4433 63.8207 50.5257 63.8207 50.621V51.362ZM63.6907 59.149C63.6907 59.2443 63.656 59.3267 63.5867 59.396C63.5174 59.4653 63.435 59.5 63.3397 59.5H62.8587C62.7634 59.5 62.681 59.4653 62.6117 59.396C62.5424 59.3267 62.5077 59.2443 62.5077 59.149V53.091C62.5077 52.9957 62.5424 52.9133 62.6117 52.844C62.681 52.7747 62.7634 52.74 62.8587 52.74H63.3397C63.435 52.74 63.5174 52.7747 63.5867 52.844C63.656 52.9133 63.6907 52.9957 63.6907 53.091V59.149ZM66.2285 56.497C64.9631 56.2283 64.3305 55.5827 64.3305 54.56C64.3305 54.2047 64.4258 53.8797 64.6165 53.585C64.8071 53.2903 65.0888 53.0563 65.4615 52.883C65.8428 52.701 66.3065 52.61 66.8525 52.61C67.3898 52.61 67.8535 52.688 68.2435 52.844C68.6335 53 68.9281 53.195 69.1275 53.429C69.3355 53.663 69.4395 53.8883 69.4395 54.105C69.4395 54.1917 69.4048 54.2697 69.3355 54.339C69.2661 54.3997 69.1838 54.43 69.0885 54.43H68.6595C68.4948 54.43 68.3648 54.3693 68.2695 54.248C68.0008 53.9013 67.5285 53.728 66.8525 53.728C66.4538 53.728 66.1288 53.8017 65.8775 53.949C65.6348 54.0963 65.5135 54.3 65.5135 54.56C65.5135 54.7767 65.5741 54.9413 65.6955 55.054C65.8168 55.1667 65.9988 55.2577 66.2415 55.327C66.4841 55.3963 66.9131 55.5003 67.5285 55.639C68.2911 55.8037 68.8328 56.055 69.1535 56.393C69.4741 56.731 69.6345 57.1427 69.6345 57.628C69.6345 57.9833 69.5218 58.3127 69.2965 58.616C69.0798 58.9193 68.7635 59.1663 68.3475 59.357C67.9401 59.539 67.4635 59.63 66.9175 59.63C66.3801 59.63 65.9035 59.5477 65.4875 59.383C65.0801 59.2097 64.7638 59.0017 64.5385 58.759C64.3131 58.5163 64.2005 58.2867 64.2005 58.07C64.2005 57.9833 64.2351 57.9097 64.3045 57.849C64.3738 57.7797 64.4561 57.745 64.5515 57.745H65.0195C65.0975 57.745 65.1668 57.7537 65.2275 57.771C65.2881 57.7883 65.3445 57.836 65.3965 57.914C65.6825 58.3127 66.1895 58.512 66.9175 58.512C67.3248 58.512 67.6801 58.4297 67.9835 58.265C68.2955 58.0917 68.4515 57.8793 68.4515 57.628C68.4515 57.42 68.3735 57.2553 68.2175 57.134C68.0701 57.004 67.8535 56.9 67.5675 56.822C67.2815 56.7353 66.8351 56.627 66.2285 56.497ZM71.9076 57.225C71.9076 57.5977 71.9813 57.8837 72.1286 58.083C72.2846 58.2823 72.575 58.382 72.9996 58.382H73.6886C73.784 58.382 73.8663 58.4167 73.9356 58.486C74.005 58.5553 74.0396 58.6377 74.0396 58.733V59.149C74.0396 59.2443 74.005 59.3267 73.9356 59.396C73.8663 59.4653 73.784 59.5 73.6886 59.5H72.8696C72.133 59.5 71.5913 59.3093 71.2446 58.928C70.898 58.538 70.7246 57.9703 70.7246 57.225V53.858H69.7626C69.6673 53.858 69.585 53.8233 69.5156 53.754C69.4463 53.6847 69.4116 53.6023 69.4116 53.507V53.091C69.4116 52.9957 69.4463 52.9133 69.5156 52.844C69.585 52.7747 69.6673 52.74 69.7626 52.74H70.7246V50.621C70.7246 50.5257 70.7593 50.4433 70.8286 50.374C70.898 50.3047 70.9803 50.27 71.0756 50.27H71.5566C71.652 50.27 71.7343 50.3047 71.8036 50.374C71.873 50.4433 71.9076 50.5257 71.9076 50.621V52.74H73.5586C73.654 52.74 73.7363 52.7747 73.8056 52.844C73.875 52.9133 73.9096 52.9957 73.9096 53.091V53.507C73.9096 53.6023 73.875 53.6847 73.8056 53.754C73.7363 53.8233 73.654 53.858 73.5586 53.858H71.9076V57.225ZM77.7367 52.74C77.832 52.74 77.9144 52.7747 77.9837 52.844C78.053 52.9133 78.0877 52.9957 78.0877 53.091V53.507C78.0877 53.6023 78.053 53.6847 77.9837 53.754C77.9144 53.8233 77.832 53.858 77.7367 53.858H76.9827C76.4974 53.858 76.1247 53.988 75.8647 54.248C75.6134 54.4993 75.4877 54.8677 75.4877 55.353V59.149C75.4877 59.2443 75.453 59.3267 75.3837 59.396C75.3144 59.4653 75.232 59.5 75.1367 59.5H74.6557C74.5604 59.5 74.478 59.4653 74.4087 59.396C74.3394 59.3267 74.3047 59.2443 74.3047 59.149V53.091C74.3047 52.9957 74.3394 52.9133 74.4087 52.844C74.478 52.7747 74.5604 52.74 74.6557 52.74H75.1367C75.232 52.74 75.3144 52.7747 75.3837 52.844C75.453 52.9133 75.4877 52.9957 75.4877 53.091V53.494C75.661 53.234 75.869 53.0433 76.1117 52.922C76.3544 52.8007 76.6707 52.74 77.0607 52.74H77.7367ZM82.1948 55.223V55.054C82.1948 54.6293 82.0518 54.3043 81.7658 54.079C81.4885 53.845 81.1245 53.728 80.6738 53.728C80.3271 53.728 80.0541 53.7887 79.8548 53.91C79.6641 54.0227 79.4821 54.196 79.3088 54.43C79.2568 54.4993 79.2005 54.547 79.1398 54.573C79.0791 54.599 78.9968 54.612 78.8928 54.612H78.5028C78.4075 54.612 78.3208 54.5773 78.2428 54.508C78.1735 54.4387 78.1431 54.3563 78.1518 54.261C78.1778 54.001 78.3035 53.7453 78.5288 53.494C78.7628 53.234 79.0705 53.0217 79.4518 52.857C79.8331 52.6923 80.2405 52.61 80.6738 52.61C81.4798 52.61 82.1298 52.8353 82.6238 53.286C83.1265 53.7367 83.3778 54.3693 83.3778 55.184V59.149C83.3778 59.2443 83.3431 59.3267 83.2738 59.396C83.2045 59.4653 83.1221 59.5 83.0268 59.5H82.5458C82.4505 59.5 82.3681 59.4653 82.2988 59.396C82.2295 59.3267 82.1948 59.2443 82.1948 59.149V58.616C82.0561 58.928 81.7615 59.175 81.3108 59.357C80.8601 59.539 80.4095 59.63 79.9588 59.63C79.5168 59.63 79.1225 59.552 78.7758 59.396C78.4291 59.2313 78.1605 59.0103 77.9698 58.733C77.7878 58.4557 77.6968 58.1437 77.6968 57.797C77.6968 57.147 77.9395 56.64 78.4248 56.276C78.9101 55.9033 79.5558 55.652 80.3618 55.522L82.1948 55.223ZM82.1948 56.263L80.6608 56.51C80.0975 56.5967 79.6598 56.7397 79.3478 56.939C79.0358 57.1297 78.8798 57.3723 78.8798 57.667C78.8798 57.8837 78.9795 58.0787 79.1788 58.252C79.3781 58.4253 79.6815 58.512 80.0888 58.512C80.7128 58.512 81.2198 58.3343 81.6098 57.979C81.9998 57.6237 82.1948 57.16 82.1948 56.588V56.263ZM86.9645 58.512C87.8311 58.512 88.4161 58.174 88.7195 57.498C88.7801 57.368 88.8408 57.277 88.9015 57.225C88.9621 57.173 89.0445 57.147 89.1485 57.147H89.5385C89.6338 57.147 89.7161 57.1817 89.7855 57.251C89.8548 57.3117 89.8895 57.3853 89.8895 57.472C89.8895 57.7667 89.7725 58.083 89.5385 58.421C89.3045 58.759 88.9665 59.045 88.5245 59.279C88.0825 59.513 87.5625 59.63 86.9645 59.63C86.3491 59.63 85.8161 59.5 85.3655 59.24C84.9148 58.98 84.5681 58.6247 84.3255 58.174C84.0828 57.7147 83.9485 57.2033 83.9225 56.64C83.9138 56.536 83.9095 56.3367 83.9095 56.042C83.9095 55.834 83.9138 55.6867 83.9225 55.6C84.0005 54.716 84.2995 53.9967 84.8195 53.442C85.3395 52.8873 86.0545 52.61 86.9645 52.61C87.5625 52.61 88.0781 52.727 88.5115 52.961C88.9535 53.1863 89.2871 53.468 89.5125 53.806C89.7465 54.1353 89.8721 54.4473 89.8895 54.742C89.8981 54.8373 89.8635 54.9197 89.7855 54.989C89.7161 55.0583 89.6338 55.093 89.5385 55.093H89.1485C89.0445 55.093 88.9621 55.067 88.9015 55.015C88.8408 54.963 88.7801 54.872 88.7195 54.742C88.4161 54.066 87.8311 53.728 86.9645 53.728C86.4878 53.728 86.0718 53.8883 85.7165 54.209C85.3611 54.5297 85.1575 55.015 85.1055 55.665C85.0968 55.7603 85.0925 55.9163 85.0925 56.133C85.0925 56.3323 85.0968 56.4797 85.1055 56.575C85.1661 57.225 85.3698 57.7103 85.7165 58.031C86.0718 58.3517 86.4878 58.512 86.9645 58.512ZM53.0604 66.362C53.0604 66.4573 53.0258 66.5397 52.9564 66.609C52.8871 66.6783 52.8048 66.713 52.7094 66.713H51.9684C51.8731 66.713 51.7908 66.6783 51.7214 66.609C51.6521 66.5397 51.6174 66.4573 51.6174 66.362V65.621C51.6174 65.5257 51.6521 65.4433 51.7214 65.374C51.7908 65.3047 51.8731 65.27 51.9684 65.27H52.7094C52.8048 65.27 52.8871 65.3047 52.9564 65.374C53.0258 65.4433 53.0604 65.5257 53.0604 65.621V66.362ZM52.9304 74.149C52.9304 74.2443 52.8958 74.3267 52.8264 74.396C52.7571 74.4653 52.6748 74.5 52.5794 74.5H52.0984C52.0031 74.5 51.9208 74.4653 51.8514 74.396C51.7821 74.3267 51.7474 74.2443 51.7474 74.149V68.091C51.7474 67.9957 51.7821 67.9133 51.8514 67.844C51.9208 67.7747 52.0031 67.74 52.0984 67.74H52.5794C52.6748 67.74 52.7571 67.7747 52.8264 67.844C52.8958 67.9133 52.9304 67.9957 52.9304 68.091V74.149ZM59.6932 70.509C59.7105 70.6997 59.7192 70.9077 59.7192 71.133C59.7192 71.341 59.7105 71.5403 59.6932 71.731C59.6152 72.615 59.3075 73.3213 58.7702 73.85C58.2415 74.37 57.5222 74.63 56.6122 74.63C55.7022 74.63 54.9785 74.37 54.4412 73.85C53.9125 73.3213 53.6092 72.615 53.5312 71.731C53.5225 71.6357 53.5182 71.4363 53.5182 71.133C53.5182 70.8123 53.5225 70.6043 53.5312 70.509C53.6005 69.625 53.9038 68.923 54.4412 68.403C54.9785 67.8743 55.7022 67.61 56.6122 67.61C57.5222 67.61 58.2458 67.8743 58.7832 68.403C59.3205 68.923 59.6238 69.625 59.6932 70.509ZM58.5102 70.574C58.4582 70.0193 58.2718 69.573 57.9512 69.235C57.6392 68.897 57.1928 68.728 56.6122 68.728C56.0315 68.728 55.5808 68.897 55.2602 69.235C54.9482 69.573 54.7662 70.0193 54.7142 70.574C54.7055 70.678 54.7012 70.8643 54.7012 71.133C54.7012 71.393 54.7055 71.5707 54.7142 71.666C54.7662 72.2207 54.9482 72.667 55.2602 73.005C55.5808 73.343 56.0315 73.512 56.6122 73.512C57.1928 73.512 57.6392 73.343 57.9512 73.005C58.2718 72.667 58.4582 72.2207 58.5102 71.666C58.5275 71.4753 58.5362 71.2977 58.5362 71.133C58.5362 70.9683 58.5275 70.782 58.5102 70.574ZM57.0022 65.192C57.0975 65.088 57.1755 65.023 57.2362 64.997C57.2968 64.9623 57.3792 64.945 57.4832 64.945H58.4452C58.5232 64.945 58.5838 64.971 58.6272 65.023C58.6705 65.0663 58.6922 65.127 58.6922 65.205C58.6922 65.2657 58.6705 65.3177 58.6272 65.361L57.1842 66.544C57.0888 66.622 57.0022 66.6783 56.9242 66.713C56.8548 66.7477 56.7595 66.765 56.6382 66.765H56.1572C56.0185 66.765 55.9492 66.6957 55.9492 66.557C55.9492 66.4877 55.9708 66.4313 56.0142 66.388L57.0022 65.192ZM66.3121 74.149C66.3121 74.2443 66.2774 74.3267 66.2081 74.396C66.1388 74.4653 66.0564 74.5 65.9611 74.5H65.4801C65.3848 74.5 65.3024 74.4653 65.2331 74.396C65.1638 74.3267 65.1291 74.2443 65.1291 74.149V70.717C65.1291 70.067 64.9688 69.573 64.6481 69.235C64.3274 68.897 63.8811 68.728 63.3091 68.728C62.7458 68.728 62.2994 68.897 61.9701 69.235C61.6494 69.573 61.4891 70.067 61.4891 70.717V74.149C61.4891 74.2443 61.4544 74.3267 61.3851 74.396C61.3158 74.4653 61.2334 74.5 61.1381 74.5H60.6571C60.5618 74.5 60.4794 74.4653 60.4101 74.396C60.3408 74.3267 60.3061 74.2443 60.3061 74.149V68.091C60.3061 67.9957 60.3408 67.9133 60.4101 67.844C60.4794 67.7747 60.5618 67.74 60.6571 67.74H61.1381C61.2334 67.74 61.3158 67.7747 61.3851 67.844C61.4544 67.9133 61.4891 67.9957 61.4891 68.091V68.494C61.6798 68.2427 61.9398 68.0347 62.2691 67.87C62.6071 67.6967 63.0188 67.61 63.5041 67.61C64.0501 67.61 64.5354 67.727 64.9601 67.961C65.3848 68.195 65.7141 68.533 65.9481 68.975C66.1908 69.4083 66.3121 69.924 66.3121 70.522V74.149Z" fill="#EBECEE"/>
<rect x="40" y="81.5" width="38" height="25" rx="12.5" fill="#323B4A"/>
<path d="M57.1579 92.354C57.1766 92.6153 57.1859 93.0353 57.1859 93.614C57.1859 94.1833 57.1766 94.594 57.1579 94.846C57.0926 95.9567 56.7239 96.8667 56.0519 97.576C55.3892 98.2853 54.3952 98.64 53.0699 98.64C51.7446 98.64 50.7459 98.2853 50.0739 97.576C49.4112 96.8667 49.0472 95.9567 48.9819 94.846C48.9632 94.342 48.9539 93.9313 48.9539 93.614C48.9539 93.2967 48.9632 92.8767 48.9819 92.354C49.0472 91.2433 49.4112 90.3333 50.0739 89.624C50.7459 88.9147 51.7446 88.56 53.0699 88.56C54.3952 88.56 55.3892 88.9147 56.0519 89.624C56.7239 90.3333 57.0926 91.2433 57.1579 92.354ZM54.5679 92.424C54.5399 91.9107 54.4139 91.514 54.1899 91.234C53.9659 90.9447 53.5926 90.8 53.0699 90.8C52.5472 90.8 52.1739 90.9447 51.9499 91.234C51.7259 91.514 51.5999 91.9107 51.5719 92.424C51.5532 92.928 51.5439 93.3153 51.5439 93.586C51.5439 93.838 51.5532 94.2347 51.5719 94.776C51.5906 95.2893 51.7119 95.6907 51.9359 95.98C52.1692 96.26 52.5472 96.4 53.0699 96.4C53.5926 96.4 53.9659 96.26 54.1899 95.98C54.4232 95.6907 54.5492 95.2893 54.5679 94.776C54.5866 94.5053 54.5959 94.1087 54.5959 93.586C54.5959 93.0633 54.5866 92.676 54.5679 92.424ZM62.7646 91.682C62.7366 92.27 62.5359 92.7507 62.1626 93.124C61.7986 93.488 61.2666 93.67 60.5666 93.67C59.8666 93.67 59.3346 93.488 58.9706 93.124C58.6159 92.76 58.4152 92.2793 58.3686 91.682C58.3592 91.5607 58.3546 91.388 58.3546 91.164C58.3546 90.9307 58.3592 90.7487 58.3686 90.618C58.4152 90.0207 58.6159 89.54 58.9706 89.176C59.3346 88.812 59.8666 88.63 60.5666 88.63C61.2666 88.63 61.7939 88.812 62.1486 89.176C62.5126 89.54 62.7179 90.0207 62.7646 90.618C62.7832 90.8793 62.7926 91.0613 62.7926 91.164C62.7926 91.2667 62.7832 91.4393 62.7646 91.682ZM66.2646 88.966C66.3392 88.8727 66.4092 88.8073 66.4746 88.77C66.5492 88.7233 66.6472 88.7 66.7686 88.7H67.9166C68.0192 88.7 68.0986 88.728 68.1546 88.784C68.2199 88.8307 68.2526 88.896 68.2526 88.98C68.2526 89.036 68.2339 89.0873 68.1966 89.134L61.2806 98.234C61.2059 98.3273 61.1312 98.3973 61.0566 98.444C60.9912 98.4813 60.8979 98.5 60.7766 98.5H59.6286C59.5259 98.5 59.4419 98.4767 59.3766 98.43C59.3206 98.374 59.2926 98.304 59.2926 98.22C59.2926 98.164 59.3112 98.1127 59.3486 98.066L66.2646 88.966ZM60.5666 92.34C60.7626 92.34 60.9026 92.284 60.9866 92.172C61.0706 92.06 61.1219 91.8733 61.1406 91.612C61.1592 91.388 61.1686 91.234 61.1686 91.15C61.1686 91.0473 61.1592 90.8933 61.1406 90.688C61.1219 90.4267 61.0706 90.24 60.9866 90.128C60.9026 90.016 60.7626 89.96 60.5666 89.96C60.3706 89.96 60.2306 90.016 60.1466 90.128C60.0626 90.24 60.0112 90.4267 59.9926 90.688C59.9832 90.7907 59.9786 90.9447 59.9786 91.15C59.9786 91.346 59.9832 91.5 59.9926 91.612C60.0112 91.8733 60.0626 92.06 60.1466 92.172C60.2306 92.284 60.3706 92.34 60.5666 92.34ZM69.2606 96.582C69.2326 97.17 69.0319 97.6507 68.6586 98.024C68.2946 98.388 67.7626 98.57 67.0626 98.57C66.3626 98.57 65.8306 98.388 65.4666 98.024C65.1119 97.66 64.9112 97.1793 64.8646 96.582C64.8552 96.4607 64.8506 96.288 64.8506 96.064C64.8506 95.8307 64.8552 95.6487 64.8646 95.518C64.9112 94.9207 65.1119 94.44 65.4666 94.076C65.8306 93.712 66.3626 93.53 67.0626 93.53C67.7626 93.53 68.2899 93.712 68.6446 94.076C69.0086 94.44 69.2139 94.9207 69.2606 95.518C69.2792 95.7793 69.2886 95.9613 69.2886 96.064C69.2886 96.1667 69.2792 96.3393 69.2606 96.582ZM67.0626 97.24C67.2586 97.24 67.3986 97.184 67.4826 97.072C67.5666 96.96 67.6179 96.7733 67.6366 96.512C67.6552 96.288 67.6646 96.134 67.6646 96.05C67.6646 95.9473 67.6552 95.7933 67.6366 95.588C67.6179 95.3267 67.5666 95.14 67.4826 95.028C67.3986 94.916 67.2586 94.86 67.0626 94.86C66.8666 94.86 66.7266 94.916 66.6426 95.028C66.5586 95.14 66.5072 95.3267 66.4886 95.588C66.4792 95.6907 66.4746 95.8447 66.4746 96.05C66.4746 96.246 66.4792 96.4 66.4886 96.512C66.5072 96.7733 66.5586 96.96 66.6426 97.072C66.7266 97.184 66.8666 97.24 67.0626 97.24Z" fill="white"/>
<g filter="url(#filter0_d_34428_7870)">
<rect x="88" y="14" width="28" height="28" rx="14" fill="white"/>
<rect x="87" y="13" width="30" height="30" rx="15" stroke="#374151" stroke-width="2"/>
<path opacity="0.4" d="M102.001 30.4917C102.337 30.4917 102.609 30.7641 102.609 31.1001C102.609 31.436 102.337 31.7085 102.001 31.7085C101.665 31.7085 101.393 31.436 101.393 31.1001C101.393 30.7641 101.665 30.4917 102.001 30.4917Z" fill="#272E3A" stroke="#272E3A" stroke-width="1.5"/>
<path d="M98.124 26.6167H105.874C107.556 26.6167 108.395 26.8857 108.854 27.3452C109.314 27.8048 109.583 28.6432 109.583 30.3247V31.8755C109.583 33.557 109.314 34.3954 108.854 34.855C108.395 35.3145 107.556 35.5835 105.874 35.5835H98.124C96.4424 35.5835 95.6041 35.3145 95.1445 34.855C94.685 34.3955 94.4161 33.5571 94.416 31.8755V30.3247C94.4161 28.643 94.685 27.8047 95.1445 27.3452C95.6041 26.8857 96.4423 26.6167 98.124 26.6167ZM101.999 27.8335C100.192 27.8337 98.7324 29.3043 98.7324 31.1001C98.7325 32.8959 100.192 34.3665 101.999 34.3667C103.806 34.3667 105.266 32.896 105.266 31.1001C105.266 29.3042 103.807 27.8335 101.999 27.8335Z" fill="#272E3A" stroke="#272E3A" stroke-width="1.5"/>
<g opacity="0.4">
<mask id="path-14-inside-1_34428_7870" fill="white">
<path d="M97.9342 25.8748V24.8998C97.9342 22.4582 98.6259 20.8332 102.001 20.8332C105.376 20.8332 106.068 22.4582 106.068 24.8998V25.8748C106.493 25.8832 106.876 25.8998 107.234 25.9498V24.8998C107.234 22.6498 106.693 19.6665 102.001 19.6665C97.3092 19.6665 96.7676 22.6498 96.7676 24.8998V25.9415C97.1176 25.8998 97.5092 25.8748 97.9342 25.8748Z"/>
</mask>
<path d="M97.9342 25.8748V24.8998C97.9342 22.4582 98.6259 20.8332 102.001 20.8332C105.376 20.8332 106.068 22.4582 106.068 24.8998V25.8748C106.493 25.8832 106.876 25.8998 107.234 25.9498V24.8998C107.234 22.6498 106.693 19.6665 102.001 19.6665C97.3092 19.6665 96.7676 22.6498 96.7676 24.8998V25.9415C97.1176 25.8998 97.5092 25.8748 97.9342 25.8748Z" fill="#272E3A"/>
<path d="M97.9342 25.8748V27.3748H99.4342V25.8748H97.9342ZM106.068 25.8748H104.568V27.3457L106.038 27.3745L106.068 25.8748ZM107.234 25.9498L107.027 27.4354L108.734 27.6737V25.9498H107.234ZM107.234 24.8998H105.734H107.234ZM96.7676 25.9415H95.2676V27.6307L96.9449 27.431L96.7676 25.9415ZM97.9342 25.8748H99.4342V24.8998H97.9342H96.4342V25.8748H97.9342ZM97.9342 24.8998H99.4342C99.4342 23.7471 99.6156 23.1967 99.8528 22.913C100.039 22.6905 100.52 22.3332 102.001 22.3332V20.8332V19.3332C100.107 19.3332 98.5547 19.7884 97.5511 20.9888C96.5988 22.128 96.4342 23.6109 96.4342 24.8998H97.9342ZM102.001 20.8332V22.3332C103.482 22.3332 103.963 22.6905 104.149 22.913C104.386 23.1967 104.568 23.7471 104.568 24.8998H106.068H107.568C107.568 23.6109 107.403 22.128 106.451 20.9888C105.447 19.7884 103.895 19.3332 102.001 19.3332V20.8332ZM106.068 24.8998H104.568V25.8748H106.068H107.568V24.8998H106.068ZM106.068 25.8748L106.038 27.3745C106.451 27.3826 106.761 27.3983 107.027 27.4354L107.234 25.9498L107.442 24.4642C106.991 24.4014 106.535 24.3837 106.097 24.3751L106.068 25.8748ZM107.234 25.9498H108.734V24.8998H107.234H105.734V25.9498H107.234ZM107.234 24.8998L108.734 24.8998C108.734 23.7116 108.606 22.002 107.604 20.5769C106.526 19.0428 104.687 18.1665 102.001 18.1665V19.6665V21.1665C104.006 21.1665 104.784 21.7819 105.15 22.302C105.592 22.931 105.734 23.8381 105.734 24.8998L107.234 24.8998ZM102.001 19.6665V18.1665C99.3145 18.1665 97.4759 19.0428 96.3977 20.5769C95.396 22.002 95.2676 23.7116 95.2676 24.8998H96.7676H98.2676C98.2676 23.8381 98.41 22.931 98.8521 22.302C99.2176 21.7819 99.9956 21.1665 102.001 21.1665V19.6665ZM96.7676 24.8998H95.2676V25.9415H96.7676H98.2676V24.8998H96.7676ZM96.7676 25.9415L96.9449 27.431C97.2351 27.3964 97.5675 27.3748 97.9342 27.3748V25.8748V24.3748C97.451 24.3748 97.0001 24.4032 96.5903 24.452L96.7676 25.9415Z" fill="#272E3A" mask="url(#path-14-inside-1_34428_7870)"/>
</g>
</g>
<defs>
<filter id="filter0_d_34428_7870" x="71" y="5" width="62" height="62" filterUnits="userSpaceOnUse" color-interpolation-filters="sRGB">
<feFlood flood-opacity="0" result="BackgroundImageFix"/>
<feColorMatrix in="SourceAlpha" type="matrix" values="0 0 0 0 0 0 0 0 0 0 0 0 0 0 0 0 0 0 127 0" result="hardAlpha"/>
<feOffset dy="8"/>
<feGaussianBlur stdDeviation="7.5"/>
<feColorMatrix type="matrix" values="0 0 0 0 0 0 0 0 0 0 0 0 0 0 0 0 0 0 0.25 0"/>
<feBlend mode="normal" in2="BackgroundImageFix" result="effect1_dropShadow_34428_7870"/>
<feBlend mode="normal" in="SourceGraphic" in2="effect1_dropShadow_34428_7870" result="shape"/>
</filter>
</defs>
</svg>
