<svg width="133" height="118" viewBox="0 0 133 118" fill="none" xmlns="http://www.w3.org/2000/svg">
<rect x="2" y="2" width="114" height="114" rx="57" fill="#1E242D"/>
<rect x="2" y="2" width="114" height="114" rx="57" stroke="#374151" stroke-width="4"/>
<g clip-path="url(#clip0_34428_7884)">
<mask id="mask0_34428_7884" style="mask-type:luminance" maskUnits="userSpaceOnUse" x="43" y="19" width="32" height="32">
<path d="M75 19H43V51H75V19Z" fill="white"/>
</mask>
<g mask="url(#mask0_34428_7884)">
<path d="M72.2809 35.7734H72.2676" stroke="#85401A" stroke-width="1.5" stroke-linecap="round" stroke-linejoin="round"/>
<path d="M45.734 40.333H45.7207" stroke="#85401A" stroke-width="1.5" stroke-linecap="round" stroke-linejoin="round"/>
<path d="M73.2404 35.5332V35.4932C73.1737 35.2265 73.0671 34.9865 72.9471 34.7998C71.8271 32.8932 67.6537 25.8265 67.6537 25.8265C67.6537 25.8132 67.6271 25.7998 67.6137 25.7865C67.5337 25.6665 67.4404 25.5732 67.3204 25.5065C67.3071 25.5065 67.2937 25.4798 67.2804 25.4665C67.1471 25.3998 67.0004 25.3598 66.8404 25.3465C66.8271 25.3465 66.8004 25.3332 66.7871 25.3332C66.7471 25.3332 66.7204 25.3598 66.6804 25.3598C66.6271 25.3598 66.5604 25.3598 66.5071 25.3732L58.9071 27.5998V23.6665C58.9071 23.1198 58.4537 22.6665 57.9071 22.6665C57.3604 22.6665 56.9071 23.1198 56.9071 23.6665V28.1865L50.9604 29.9332C50.7071 29.9998 50.5204 30.1732 50.3871 30.3865V30.4398L45.0938 39.3198C44.9204 39.5865 44.8271 39.8532 44.7871 40.0532V40.0798V40.1065C44.7071 40.3998 44.6671 40.6932 44.6938 40.9598C44.8938 44.4665 47.7071 47.2132 51.2938 47.3465C54.8138 47.2265 57.6137 44.4798 57.8004 40.9732C57.8137 40.6798 57.8004 40.3865 57.7204 40.1198V40.0932V40.0532C57.6537 39.8398 57.5604 39.6132 57.4137 39.3598L52.7738 31.5065L64.6537 28.0265L60.6271 34.8398C60.5337 35.0265 60.4271 35.2398 60.3604 35.4932C60.3604 35.4932 60.3604 35.5065 60.3604 35.5198V35.5732C60.3604 35.5732 60.3604 35.5732 60.3604 35.5865C60.2937 35.8532 60.2671 36.1332 60.2804 36.4132C60.4671 39.9332 63.2804 42.6665 66.8804 42.7998C70.4004 42.6798 73.2004 39.9332 73.3871 36.4265C73.4004 36.1465 73.3737 35.8665 73.2937 35.5732L73.2404 35.5332ZM47.4004 39.3332L51.2271 32.8532L55.0538 39.3332H47.4004ZM66.7737 28.2932C67.8137 30.0398 69.5337 32.9732 70.5871 34.7732H62.9471L66.7737 28.2932Z" fill="#85401A"/>
</g>
</g>
<path d="M41.7039 63.477C41.6952 64.1963 41.5349 64.8247 41.2229 65.362C40.9109 65.8907 40.4819 66.298 39.9359 66.584C39.3899 66.8613 38.7615 67 38.0509 67H34.9959C34.9005 67 34.8182 66.9653 34.7489 66.896C34.6795 66.8267 34.6449 66.7443 34.6449 66.649V58.251C34.6449 58.1557 34.6795 58.0733 34.7489 58.004C34.8182 57.9347 34.9005 57.9 34.9959 57.9H37.9729C38.6922 57.9 39.3292 58.043 39.8839 58.329C40.4472 58.6063 40.8892 59.0137 41.2099 59.551C41.5305 60.0797 41.6952 60.7037 41.7039 61.423C41.7125 61.683 41.7169 62.0253 41.7169 62.45C41.7169 62.8747 41.7125 63.217 41.7039 63.477ZM35.8799 59.07V65.83H37.9859C38.8525 65.83 39.4765 65.6047 39.8579 65.154C40.2479 64.7033 40.4515 64.1227 40.4689 63.412C40.4775 63.152 40.4819 62.8313 40.4819 62.45C40.4819 62.0687 40.4775 61.748 40.4689 61.488C40.4515 60.786 40.2392 60.2097 39.8319 59.759C39.4245 59.2997 38.7875 59.07 37.9209 59.07H35.8799ZM46.1171 60.11C47.0444 60.11 47.7767 60.4047 48.3141 60.994C48.8514 61.5833 49.1201 62.385 49.1201 63.399V63.75C49.1201 63.8453 49.0854 63.9277 49.0161 63.997C48.9467 64.0663 48.8644 64.101 48.7691 64.101H44.2971V64.179C44.3144 64.751 44.4877 65.2017 44.8171 65.531C45.1551 65.8517 45.5884 66.012 46.1171 66.012C46.5504 66.012 46.8841 65.9557 47.1181 65.843C47.3607 65.7303 47.5774 65.57 47.7681 65.362C47.8374 65.2927 47.8981 65.245 47.9501 65.219C48.0107 65.193 48.0887 65.18 48.1841 65.18H48.5741C48.6781 65.18 48.7647 65.2147 48.8341 65.284C48.9034 65.3533 48.9337 65.4357 48.9251 65.531C48.8904 65.765 48.7604 66.0077 48.5351 66.259C48.3184 66.5017 48.0021 66.7097 47.5861 66.883C47.1787 67.0477 46.6891 67.13 46.1171 67.13C45.5624 67.13 45.0684 67.0043 44.6351 66.753C44.2017 66.493 43.8551 66.1377 43.5951 65.687C43.3437 65.2363 43.1921 64.7293 43.1401 64.166C43.1227 63.906 43.1141 63.7067 43.1141 63.568C43.1141 63.4293 43.1227 63.23 43.1401 62.97C43.1921 62.4327 43.3437 61.9473 43.5951 61.514C43.8551 61.0807 44.1974 60.7383 44.6221 60.487C45.0554 60.2357 45.5537 60.11 46.1171 60.11ZM47.9501 63.009V62.97C47.9501 62.4413 47.7811 62.021 47.4431 61.709C47.1137 61.3883 46.6717 61.228 46.1171 61.228C45.6144 61.228 45.1854 61.3883 44.8301 61.709C44.4834 62.0297 44.3057 62.45 44.2971 62.97V63.009H47.9501ZM54.1204 60.24C54.2157 60.24 54.298 60.2747 54.3674 60.344C54.4367 60.4133 54.4714 60.4957 54.4714 60.591V61.007C54.4714 61.1023 54.4367 61.1847 54.3674 61.254C54.298 61.3233 54.2157 61.358 54.1204 61.358H53.3664C52.881 61.358 52.5084 61.488 52.2484 61.748C51.997 61.9993 51.8714 62.3677 51.8714 62.853V66.649C51.8714 66.7443 51.8367 66.8267 51.7674 66.896C51.698 66.9653 51.6157 67 51.5204 67H51.0394C50.944 67 50.8617 66.9653 50.7924 66.896C50.723 66.8267 50.6884 66.7443 50.6884 66.649V60.591C50.6884 60.4957 50.723 60.4133 50.7924 60.344C50.8617 60.2747 50.944 60.24 51.0394 60.24H51.5204C51.6157 60.24 51.698 60.2747 51.7674 60.344C51.8367 60.4133 51.8714 60.4957 51.8714 60.591V60.994C52.0447 60.734 52.2527 60.5433 52.4954 60.422C52.738 60.3007 53.0544 60.24 53.4444 60.24H54.1204ZM58.2665 60.11C59.1938 60.11 59.9261 60.4047 60.4635 60.994C61.0008 61.5833 61.2695 62.385 61.2695 63.399V63.75C61.2695 63.8453 61.2348 63.9277 61.1655 63.997C61.0961 64.0663 61.0138 64.101 60.9185 64.101H56.4465V64.179C56.4638 64.751 56.6371 65.2017 56.9665 65.531C57.3045 65.8517 57.7378 66.012 58.2665 66.012C58.6998 66.012 59.0335 65.9557 59.2675 65.843C59.5101 65.7303 59.7268 65.57 59.9175 65.362C59.9868 65.2927 60.0475 65.245 60.0995 65.219C60.1601 65.193 60.2381 65.18 60.3335 65.18H60.7235C60.8275 65.18 60.9141 65.2147 60.9835 65.284C61.0528 65.3533 61.0831 65.4357 61.0745 65.531C61.0398 65.765 60.9098 66.0077 60.6845 66.259C60.4678 66.5017 60.1515 66.7097 59.7355 66.883C59.3281 67.0477 58.8385 67.13 58.2665 67.13C57.7118 67.13 57.2178 67.0043 56.7845 66.753C56.3511 66.493 56.0045 66.1377 55.7445 65.687C55.4931 65.2363 55.3415 64.7293 55.2895 64.166C55.2721 63.906 55.2635 63.7067 55.2635 63.568C55.2635 63.4293 55.2721 63.23 55.2895 62.97C55.3415 62.4327 55.4931 61.9473 55.7445 61.514C56.0045 61.0807 56.3468 60.7383 56.7715 60.487C57.2048 60.2357 57.7031 60.11 58.2665 60.11ZM60.0995 63.009V62.97C60.0995 62.4413 59.9305 62.021 59.5925 61.709C59.2631 61.3883 58.8211 61.228 58.2665 61.228C57.7638 61.228 57.3348 61.3883 56.9795 61.709C56.6328 62.0297 56.4551 62.45 56.4465 62.97V63.009H60.0995ZM65.5678 66.012C66.4345 66.012 67.0195 65.674 67.3228 64.998C67.3835 64.868 67.4441 64.777 67.5048 64.725C67.5655 64.673 67.6478 64.647 67.7518 64.647H68.1418C68.2371 64.647 68.3195 64.6817 68.3888 64.751C68.4581 64.8117 68.4928 64.8853 68.4928 64.972C68.4928 65.2667 68.3758 65.583 68.1418 65.921C67.9078 66.259 67.5698 66.545 67.1278 66.779C66.6858 67.013 66.1658 67.13 65.5678 67.13C64.9525 67.13 64.4195 67 63.9688 66.74C63.5181 66.48 63.1715 66.1247 62.9288 65.674C62.6861 65.2147 62.5518 64.7033 62.5258 64.14C62.5171 64.036 62.5128 63.8367 62.5128 63.542C62.5128 63.334 62.5171 63.1867 62.5258 63.1C62.6038 62.216 62.9028 61.4967 63.4228 60.942C63.9428 60.3873 64.6578 60.11 65.5678 60.11C66.1658 60.11 66.6815 60.227 67.1148 60.461C67.5568 60.6863 67.8905 60.968 68.1158 61.306C68.3498 61.6353 68.4755 61.9473 68.4928 62.242C68.5015 62.3373 68.4668 62.4197 68.3888 62.489C68.3195 62.5583 68.2371 62.593 68.1418 62.593H67.7518C67.6478 62.593 67.5655 62.567 67.5048 62.515C67.4441 62.463 67.3835 62.372 67.3228 62.242C67.0195 61.566 66.4345 61.228 65.5678 61.228C65.0911 61.228 64.6751 61.3883 64.3198 61.709C63.9645 62.0297 63.7608 62.515 63.7088 63.165C63.7001 63.2603 63.6958 63.4163 63.6958 63.633C63.6958 63.8323 63.7001 63.9797 63.7088 64.075C63.7695 64.725 63.9731 65.2103 64.3198 65.531C64.6751 65.8517 65.0911 66.012 65.5678 66.012ZM76.0547 66.649C76.0547 66.7443 76.0201 66.8267 75.9507 66.896C75.8814 66.9653 75.7991 67 75.7037 67H75.2227C75.1274 67 75.0451 66.9653 74.9757 66.896C74.9064 66.8267 74.8717 66.7443 74.8717 66.649V63.217C74.8717 62.567 74.7114 62.073 74.3907 61.735C74.0701 61.397 73.6237 61.228 73.0517 61.228C72.4884 61.228 72.0421 61.397 71.7127 61.735C71.3921 62.073 71.2317 62.567 71.2317 63.217V66.649C71.2317 66.7443 71.1971 66.8267 71.1277 66.896C71.0584 66.9653 70.9761 67 70.8807 67H70.3997C70.3044 67 70.2221 66.9653 70.1527 66.896C70.0834 66.8267 70.0487 66.7443 70.0487 66.649V58.121C70.0487 58.0257 70.0834 57.9433 70.1527 57.874C70.2221 57.8047 70.3044 57.77 70.3997 57.77H70.8807C70.9761 57.77 71.0584 57.8047 71.1277 57.874C71.1971 57.9433 71.2317 58.0257 71.2317 58.121V60.994C71.4224 60.7427 71.6824 60.5347 72.0117 60.37C72.3497 60.1967 72.7614 60.11 73.2467 60.11C73.7927 60.11 74.2781 60.227 74.7027 60.461C75.1274 60.695 75.4567 61.033 75.6907 61.475C75.9334 61.9083 76.0547 62.424 76.0547 63.022V66.649ZM83.7952 63.009C83.8125 63.1997 83.8212 63.4077 83.8212 63.633C83.8212 63.841 83.8125 64.0403 83.7952 64.231C83.7172 65.115 83.4095 65.8213 82.8722 66.35C82.3435 66.87 81.6242 67.13 80.7142 67.13C79.8042 67.13 79.0805 66.87 78.5432 66.35C78.0145 65.8213 77.7112 65.115 77.6332 64.231C77.6245 64.1357 77.6202 63.9363 77.6202 63.633C77.6202 63.3123 77.6245 63.1043 77.6332 63.009C77.7025 62.125 78.0059 61.423 78.5432 60.903C79.0805 60.3743 79.8042 60.11 80.7142 60.11C81.6242 60.11 82.3479 60.3743 82.8852 60.903C83.4225 61.423 83.7259 62.125 83.7952 63.009ZM82.6122 63.074C82.5602 62.5193 82.3739 62.073 82.0532 61.735C81.7412 61.397 81.2949 61.228 80.7142 61.228C80.1335 61.228 79.6829 61.397 79.3622 61.735C79.0502 62.073 78.8682 62.5193 78.8162 63.074C78.8075 63.178 78.8032 63.3643 78.8032 63.633C78.8032 63.893 78.8075 64.0707 78.8162 64.166C78.8682 64.7207 79.0502 65.167 79.3622 65.505C79.6829 65.843 80.1335 66.012 80.7142 66.012C81.2949 66.012 81.7412 65.843 82.0532 65.505C82.3739 65.167 82.5602 64.7207 82.6122 64.166C82.6295 63.9753 82.6382 63.7977 82.6382 63.633C82.6382 63.4683 82.6295 63.282 82.6122 63.074Z" fill="#EBECEE"/>
<rect x="40" y="74" width="38" height="25" rx="12.5" fill="#85401A"/>
<path d="M57.1579 84.854C57.1766 85.1153 57.1859 85.5353 57.1859 86.114C57.1859 86.6833 57.1766 87.094 57.1579 87.346C57.0926 88.4567 56.7239 89.3667 56.0519 90.076C55.3892 90.7853 54.3952 91.14 53.0699 91.14C51.7446 91.14 50.7459 90.7853 50.0739 90.076C49.4112 89.3667 49.0472 88.4567 48.9819 87.346C48.9632 86.842 48.9539 86.4313 48.9539 86.114C48.9539 85.7967 48.9632 85.3767 48.9819 84.854C49.0472 83.7433 49.4112 82.8333 50.0739 82.124C50.7459 81.4147 51.7446 81.06 53.0699 81.06C54.3952 81.06 55.3892 81.4147 56.0519 82.124C56.7239 82.8333 57.0926 83.7433 57.1579 84.854ZM54.5679 84.924C54.5399 84.4107 54.4139 84.014 54.1899 83.734C53.9659 83.4447 53.5926 83.3 53.0699 83.3C52.5472 83.3 52.1739 83.4447 51.9499 83.734C51.7259 84.014 51.5999 84.4107 51.5719 84.924C51.5532 85.428 51.5439 85.8153 51.5439 86.086C51.5439 86.338 51.5532 86.7347 51.5719 87.276C51.5906 87.7893 51.7119 88.1907 51.9359 88.48C52.1692 88.76 52.5472 88.9 53.0699 88.9C53.5926 88.9 53.9659 88.76 54.1899 88.48C54.4232 88.1907 54.5492 87.7893 54.5679 87.276C54.5866 87.0053 54.5959 86.6087 54.5959 86.086C54.5959 85.5633 54.5866 85.176 54.5679 84.924ZM62.7646 84.182C62.7366 84.77 62.5359 85.2507 62.1626 85.624C61.7986 85.988 61.2666 86.17 60.5666 86.17C59.8666 86.17 59.3346 85.988 58.9706 85.624C58.6159 85.26 58.4152 84.7793 58.3686 84.182C58.3592 84.0607 58.3546 83.888 58.3546 83.664C58.3546 83.4307 58.3592 83.2487 58.3686 83.118C58.4152 82.5207 58.6159 82.04 58.9706 81.676C59.3346 81.312 59.8666 81.13 60.5666 81.13C61.2666 81.13 61.7939 81.312 62.1486 81.676C62.5126 82.04 62.7179 82.5207 62.7646 83.118C62.7832 83.3793 62.7926 83.5613 62.7926 83.664C62.7926 83.7667 62.7832 83.9393 62.7646 84.182ZM66.2646 81.466C66.3392 81.3727 66.4092 81.3073 66.4746 81.27C66.5492 81.2233 66.6472 81.2 66.7686 81.2H67.9166C68.0192 81.2 68.0986 81.228 68.1546 81.284C68.2199 81.3307 68.2526 81.396 68.2526 81.48C68.2526 81.536 68.2339 81.5873 68.1966 81.634L61.2806 90.734C61.2059 90.8273 61.1312 90.8973 61.0566 90.944C60.9912 90.9813 60.8979 91 60.7766 91H59.6286C59.5259 91 59.4419 90.9767 59.3766 90.93C59.3206 90.874 59.2926 90.804 59.2926 90.72C59.2926 90.664 59.3112 90.6127 59.3486 90.566L66.2646 81.466ZM60.5666 84.84C60.7626 84.84 60.9026 84.784 60.9866 84.672C61.0706 84.56 61.1219 84.3733 61.1406 84.112C61.1592 83.888 61.1686 83.734 61.1686 83.65C61.1686 83.5473 61.1592 83.3933 61.1406 83.188C61.1219 82.9267 61.0706 82.74 60.9866 82.628C60.9026 82.516 60.7626 82.46 60.5666 82.46C60.3706 82.46 60.2306 82.516 60.1466 82.628C60.0626 82.74 60.0112 82.9267 59.9926 83.188C59.9832 83.2907 59.9786 83.4447 59.9786 83.65C59.9786 83.846 59.9832 84 59.9926 84.112C60.0112 84.3733 60.0626 84.56 60.1466 84.672C60.2306 84.784 60.3706 84.84 60.5666 84.84ZM69.2606 89.082C69.2326 89.67 69.0319 90.1507 68.6586 90.524C68.2946 90.888 67.7626 91.07 67.0626 91.07C66.3626 91.07 65.8306 90.888 65.4666 90.524C65.1119 90.16 64.9112 89.6793 64.8646 89.082C64.8552 88.9607 64.8506 88.788 64.8506 88.564C64.8506 88.3307 64.8552 88.1487 64.8646 88.018C64.9112 87.4207 65.1119 86.94 65.4666 86.576C65.8306 86.212 66.3626 86.03 67.0626 86.03C67.7626 86.03 68.2899 86.212 68.6446 86.576C69.0086 86.94 69.2139 87.4207 69.2606 88.018C69.2792 88.2793 69.2886 88.4613 69.2886 88.564C69.2886 88.6667 69.2792 88.8393 69.2606 89.082ZM67.0626 89.74C67.2586 89.74 67.3986 89.684 67.4826 89.572C67.5666 89.46 67.6179 89.2733 67.6366 89.012C67.6552 88.788 67.6646 88.634 67.6646 88.55C67.6646 88.4473 67.6552 88.2933 67.6366 88.088C67.6179 87.8267 67.5666 87.64 67.4826 87.528C67.3986 87.416 67.2586 87.36 67.0626 87.36C66.8666 87.36 66.7266 87.416 66.6426 87.528C66.5586 87.64 66.5072 87.8267 66.4886 88.088C66.4792 88.1907 66.4746 88.3447 66.4746 88.55C66.4746 88.746 66.4792 88.9 66.4886 89.012C66.5072 89.2733 66.5586 89.46 66.6426 89.572C66.7266 89.684 66.8666 89.74 67.0626 89.74Z" fill="white"/>
<g filter="url(#filter0_d_34428_7884)">
<rect x="88" y="14" width="28" height="28" rx="14" fill="white"/>
<rect x="87" y="13" width="30" height="30" rx="15" stroke="#374151" stroke-width="2"/>
<path opacity="0.4" d="M102.001 30.4917C102.337 30.4917 102.609 30.7641 102.609 31.1001C102.609 31.436 102.337 31.7085 102.001 31.7085C101.665 31.7085 101.393 31.436 101.393 31.1001C101.393 30.7641 101.665 30.4917 102.001 30.4917Z" fill="#272E3A" stroke="#272E3A" stroke-width="1.5"/>
<path d="M98.124 26.6167H105.874C107.556 26.6167 108.395 26.8857 108.854 27.3452C109.314 27.8048 109.583 28.6432 109.583 30.3247V31.8755C109.583 33.557 109.314 34.3954 108.854 34.855C108.395 35.3145 107.556 35.5835 105.874 35.5835H98.124C96.4424 35.5835 95.6041 35.3145 95.1445 34.855C94.685 34.3955 94.4161 33.5571 94.416 31.8755V30.3247C94.4161 28.643 94.685 27.8047 95.1445 27.3452C95.6041 26.8857 96.4423 26.6167 98.124 26.6167ZM101.999 27.8335C100.192 27.8337 98.7324 29.3043 98.7324 31.1001C98.7325 32.8959 100.192 34.3665 101.999 34.3667C103.806 34.3667 105.266 32.896 105.266 31.1001C105.266 29.3042 103.807 27.8335 101.999 27.8335Z" fill="#272E3A" stroke="#272E3A" stroke-width="1.5"/>
<g opacity="0.4">
<mask id="path-13-inside-1_34428_7884" fill="white">
<path d="M97.9342 25.8748V24.8998C97.9342 22.4582 98.6259 20.8332 102.001 20.8332C105.376 20.8332 106.068 22.4582 106.068 24.8998V25.8748C106.493 25.8832 106.876 25.8998 107.234 25.9498V24.8998C107.234 22.6498 106.693 19.6665 102.001 19.6665C97.3092 19.6665 96.7676 22.6498 96.7676 24.8998V25.9415C97.1176 25.8998 97.5092 25.8748 97.9342 25.8748Z"/>
</mask>
<path d="M97.9342 25.8748V24.8998C97.9342 22.4582 98.6259 20.8332 102.001 20.8332C105.376 20.8332 106.068 22.4582 106.068 24.8998V25.8748C106.493 25.8832 106.876 25.8998 107.234 25.9498V24.8998C107.234 22.6498 106.693 19.6665 102.001 19.6665C97.3092 19.6665 96.7676 22.6498 96.7676 24.8998V25.9415C97.1176 25.8998 97.5092 25.8748 97.9342 25.8748Z" fill="#272E3A"/>
<path d="M97.9342 25.8748V27.3748H99.4342V25.8748H97.9342ZM106.068 25.8748H104.568V27.3457L106.038 27.3745L106.068 25.8748ZM107.234 25.9498L107.027 27.4354L108.734 27.6737V25.9498H107.234ZM107.234 24.8998H105.734H107.234ZM96.7676 25.9415H95.2676V27.6307L96.9449 27.431L96.7676 25.9415ZM97.9342 25.8748H99.4342V24.8998H97.9342H96.4342V25.8748H97.9342ZM97.9342 24.8998H99.4342C99.4342 23.7471 99.6156 23.1967 99.8528 22.913C100.039 22.6905 100.52 22.3332 102.001 22.3332V20.8332V19.3332C100.107 19.3332 98.5547 19.7884 97.5511 20.9888C96.5988 22.128 96.4342 23.6109 96.4342 24.8998H97.9342ZM102.001 20.8332V22.3332C103.482 22.3332 103.963 22.6905 104.149 22.913C104.386 23.1967 104.568 23.7471 104.568 24.8998H106.068H107.568C107.568 23.6109 107.403 22.128 106.451 20.9888C105.447 19.7884 103.895 19.3332 102.001 19.3332V20.8332ZM106.068 24.8998H104.568V25.8748H106.068H107.568V24.8998H106.068ZM106.068 25.8748L106.038 27.3745C106.451 27.3826 106.761 27.3983 107.027 27.4354L107.234 25.9498L107.442 24.4642C106.991 24.4014 106.535 24.3837 106.097 24.3751L106.068 25.8748ZM107.234 25.9498H108.734V24.8998H107.234H105.734V25.9498H107.234ZM107.234 24.8998L108.734 24.8998C108.734 23.7116 108.606 22.002 107.604 20.5769C106.526 19.0428 104.687 18.1665 102.001 18.1665V19.6665V21.1665C104.006 21.1665 104.784 21.7819 105.15 22.302C105.592 22.931 105.734 23.8381 105.734 24.8998L107.234 24.8998ZM102.001 19.6665V18.1665C99.3145 18.1665 97.4759 19.0428 96.3977 20.5769C95.396 22.002 95.2676 23.7116 95.2676 24.8998H96.7676H98.2676C98.2676 23.8381 98.41 22.931 98.8521 22.302C99.2176 21.7819 99.9956 21.1665 102.001 21.1665V19.6665ZM96.7676 24.8998H95.2676V25.9415H96.7676H98.2676V24.8998H96.7676ZM96.7676 25.9415L96.9449 27.431C97.2351 27.3964 97.5675 27.3748 97.9342 27.3748V25.8748V24.3748C97.451 24.3748 97.0001 24.4032 96.5903 24.452L96.7676 25.9415Z" fill="#272E3A" mask="url(#path-13-inside-1_34428_7884)"/>
</g>
</g>
<defs>
<filter id="filter0_d_34428_7884" x="71" y="5" width="62" height="62" filterUnits="userSpaceOnUse" color-interpolation-filters="sRGB">
<feFlood flood-opacity="0" result="BackgroundImageFix"/>
<feColorMatrix in="SourceAlpha" type="matrix" values="0 0 0 0 0 0 0 0 0 0 0 0 0 0 0 0 0 0 127 0" result="hardAlpha"/>
<feOffset dy="8"/>
<feGaussianBlur stdDeviation="7.5"/>
<feColorMatrix type="matrix" values="0 0 0 0 0 0 0 0 0 0 0 0 0 0 0 0 0 0 0.25 0"/>
<feBlend mode="normal" in2="BackgroundImageFix" result="effect1_dropShadow_34428_7884"/>
<feBlend mode="normal" in="SourceGraphic" in2="effect1_dropShadow_34428_7884" result="shape"/>
</filter>
<clipPath id="clip0_34428_7884">
<rect width="32" height="32" fill="white" transform="translate(43 19)"/>
</clipPath>
</defs>
</svg>
