<svg width="133" height="118" viewBox="0 0 133 118" fill="none" xmlns="http://www.w3.org/2000/svg">
<rect x="2" y="2" width="114" height="114" rx="57" fill="#1E242D"/>
<rect x="2" y="2" width="114" height="114" rx="57" stroke="#374151" stroke-width="4"/>
<g clip-path="url(#clip0_34428_7878)">
<mask id="mask0_34428_7878" style="mask-type:luminance" maskUnits="userSpaceOnUse" x="43" y="11" width="32" height="33">
<path d="M75 11.5H43V43.5H75V11.5Z" fill="white"/>
</mask>
<g mask="url(#mask0_34428_7878)">
<path opacity="0.4" d="M72.3327 23.0865C72.306 32.4199 63.6793 37.8999 59.826 39.2332C59.386 39.3799 58.6393 39.3799 58.1727 39.2332C55.1327 38.2199 49.1193 34.5665 46.706 28.4999C46.4527 27.8732 46.2393 27.2065 46.066 26.5132C45.8127 25.4332 45.666 24.2998 45.666 23.0865C45.666 18.9665 48.986 15.6465 53.0793 15.6465C55.506 15.6465 57.6393 16.8332 58.9993 18.6465C60.3327 16.8332 62.4927 15.6465 64.9193 15.6465C69.0127 15.6465 72.3327 18.9665 72.3327 23.0865Z" fill="#2D68F8"/>
<path d="M65.6663 26.5H63.413C62.7863 26.5 62.2263 26.8466 61.9197 27.42L60.333 30.5933L56.4663 22.8599C56.1864 22.2999 55.6264 21.9533 54.9997 21.9399C54.9864 21.9399 54.9864 21.9399 54.9731 21.9399C54.3597 21.9399 53.7864 22.2866 53.5064 22.8199L51.5197 26.5L46.0664 26.5133C46.2397 27.2066 46.4531 27.8733 46.7064 28.5H51.7197C52.3597 28.5 52.9197 28.1533 53.1864 27.6333L54.9597 24.3399L58.8397 32.0866C59.1197 32.66 59.6797 33.02 60.333 33.02C60.973 33.02 61.533 32.66 61.813 32.1L63.613 28.5H65.6663C66.213 28.5 66.6663 28.0466 66.6663 27.5C66.6663 26.9533 66.213 26.5 65.6663 26.5Z" fill="#2D68F8"/>
</g>
</g>
<path d="M26.4457 56.042C26.4717 56.7787 26.6927 57.368 27.1087 57.81C27.5333 58.2433 28.1227 58.46 28.8767 58.46C29.6393 58.46 30.2027 58.2953 30.5667 57.966C30.9307 57.6367 31.1733 57.212 31.2947 56.692C31.312 56.6053 31.351 56.536 31.4117 56.484C31.481 56.432 31.5547 56.406 31.6327 56.406H32.2307C32.3087 56.406 32.3737 56.4363 32.4257 56.497C32.4863 56.549 32.5167 56.614 32.5167 56.692C32.4993 57.1167 32.3607 57.5587 32.1007 58.018C31.8407 58.4687 31.4377 58.85 30.8917 59.162C30.3543 59.474 29.6827 59.63 28.8767 59.63C28.1487 59.63 27.5117 59.4783 26.9657 59.175C26.4197 58.8717 25.995 58.4557 25.6917 57.927C25.397 57.3897 25.2367 56.783 25.2107 56.107C25.202 55.847 25.1977 55.4613 25.1977 54.95C25.1977 54.4387 25.202 54.053 25.2107 53.793C25.2367 53.117 25.397 52.5147 25.6917 51.986C25.995 51.4487 26.4197 51.0283 26.9657 50.725C27.5117 50.4217 28.1487 50.27 28.8767 50.27C29.6827 50.27 30.3543 50.426 30.8917 50.738C31.4377 51.05 31.8407 51.4357 32.1007 51.895C32.3607 52.3457 32.4993 52.7833 32.5167 53.208C32.5167 53.286 32.4863 53.3553 32.4257 53.416C32.3737 53.468 32.3087 53.494 32.2307 53.494H31.6327C31.5547 53.494 31.481 53.468 31.4117 53.416C31.351 53.364 31.312 53.2947 31.2947 53.208C31.1733 52.688 30.9307 52.2633 30.5667 51.934C30.2027 51.6047 29.6393 51.44 28.8767 51.44C28.1227 51.44 27.5333 51.661 27.1087 52.103C26.6927 52.5363 26.4717 53.1213 26.4457 53.858C26.437 54.118 26.4327 54.482 26.4327 54.95C26.4327 55.418 26.437 55.782 26.4457 56.042ZM35.3896 51.362C35.3896 51.4573 35.3549 51.5397 35.2856 51.609C35.2162 51.6783 35.1339 51.713 35.0386 51.713H34.2976C34.2022 51.713 34.1199 51.6783 34.0506 51.609C33.9812 51.5397 33.9466 51.4573 33.9466 51.362V50.621C33.9466 50.5257 33.9812 50.4433 34.0506 50.374C34.1199 50.3047 34.2022 50.27 34.2976 50.27H35.0386C35.1339 50.27 35.2162 50.3047 35.2856 50.374C35.3549 50.4433 35.3896 50.5257 35.3896 50.621V51.362ZM35.2596 59.149C35.2596 59.2443 35.2249 59.3267 35.1556 59.396C35.0862 59.4653 35.0039 59.5 34.9086 59.5H34.4276C34.3322 59.5 34.2499 59.4653 34.1806 59.396C34.1112 59.3267 34.0766 59.2443 34.0766 59.149V53.091C34.0766 52.9957 34.1112 52.9133 34.1806 52.844C34.2499 52.7747 34.3322 52.74 34.4276 52.74H34.9086C35.0039 52.74 35.0862 52.7747 35.1556 52.844C35.2249 52.9133 35.2596 52.9957 35.2596 53.091V59.149ZM39.8773 52.61C40.8046 52.61 41.537 52.9047 42.0743 53.494C42.6116 54.0833 42.8803 54.885 42.8803 55.899V56.25C42.8803 56.3453 42.8456 56.4277 42.7763 56.497C42.707 56.5663 42.6246 56.601 42.5293 56.601H38.0573V56.679C38.0746 57.251 38.248 57.7017 38.5773 58.031C38.9153 58.3517 39.3486 58.512 39.8773 58.512C40.3106 58.512 40.6443 58.4557 40.8783 58.343C41.121 58.2303 41.3376 58.07 41.5283 57.862C41.5976 57.7927 41.6583 57.745 41.7103 57.719C41.771 57.693 41.849 57.68 41.9443 57.68H42.3343C42.4383 57.68 42.525 57.7147 42.5943 57.784C42.6636 57.8533 42.694 57.9357 42.6853 58.031C42.6506 58.265 42.5206 58.5077 42.2953 58.759C42.0786 59.0017 41.7623 59.2097 41.3463 59.383C40.939 59.5477 40.4493 59.63 39.8773 59.63C39.3226 59.63 38.8286 59.5043 38.3953 59.253C37.962 58.993 37.6153 58.6377 37.3553 58.187C37.104 57.7363 36.9523 57.2293 36.9003 56.666C36.883 56.406 36.8743 56.2067 36.8743 56.068C36.8743 55.9293 36.883 55.73 36.9003 55.47C36.9523 54.9327 37.104 54.4473 37.3553 54.014C37.6153 53.5807 37.9576 53.2383 38.3823 52.987C38.8156 52.7357 39.314 52.61 39.8773 52.61ZM41.7103 55.509V55.47C41.7103 54.9413 41.5413 54.521 41.2033 54.209C40.874 53.8883 40.432 53.728 39.8773 53.728C39.3746 53.728 38.9456 53.8883 38.5903 54.209C38.2436 54.5297 38.066 54.95 38.0573 55.47V55.509H41.7103ZM50.4546 59.149C50.4546 59.2443 50.42 59.3267 50.3506 59.396C50.2813 59.4653 50.199 59.5 50.1036 59.5H49.6226C49.5273 59.5 49.445 59.4653 49.3756 59.396C49.3063 59.3267 49.2716 59.2443 49.2716 59.149V55.717C49.2716 55.067 49.1113 54.573 48.7906 54.235C48.47 53.897 48.0236 53.728 47.4516 53.728C46.8883 53.728 46.442 53.897 46.1126 54.235C45.792 54.573 45.6316 55.067 45.6316 55.717V59.149C45.6316 59.2443 45.597 59.3267 45.5276 59.396C45.4583 59.4653 45.376 59.5 45.2806 59.5H44.7996C44.7043 59.5 44.622 59.4653 44.5526 59.396C44.4833 59.3267 44.4486 59.2443 44.4486 59.149V53.091C44.4486 52.9957 44.4833 52.9133 44.5526 52.844C44.622 52.7747 44.7043 52.74 44.7996 52.74H45.2806C45.376 52.74 45.4583 52.7747 45.5276 52.844C45.597 52.9133 45.6316 52.9957 45.6316 53.091V53.494C45.8223 53.2427 46.0823 53.0347 46.4116 52.87C46.7496 52.6967 47.1613 52.61 47.6466 52.61C48.1926 52.61 48.678 52.727 49.1026 52.961C49.5273 53.195 49.8566 53.533 50.0906 53.975C50.3333 54.4083 50.4546 54.924 50.4546 55.522V59.149ZM55.0751 58.512C55.9418 58.512 56.5268 58.174 56.8301 57.498C56.8908 57.368 56.9515 57.277 57.0121 57.225C57.0728 57.173 57.1551 57.147 57.2591 57.147H57.6491C57.7445 57.147 57.8268 57.1817 57.8961 57.251C57.9655 57.3117 58.0001 57.3853 58.0001 57.472C58.0001 57.7667 57.8831 58.083 57.6491 58.421C57.4151 58.759 57.0771 59.045 56.6351 59.279C56.1931 59.513 55.6731 59.63 55.0751 59.63C54.4598 59.63 53.9268 59.5 53.4761 59.24C53.0255 58.98 52.6788 58.6247 52.4361 58.174C52.1935 57.7147 52.0591 57.2033 52.0331 56.64C52.0245 56.536 52.0201 56.3367 52.0201 56.042C52.0201 55.834 52.0245 55.6867 52.0331 55.6C52.1111 54.716 52.4101 53.9967 52.9301 53.442C53.4501 52.8873 54.1651 52.61 55.0751 52.61C55.6731 52.61 56.1888 52.727 56.6221 52.961C57.0641 53.1863 57.3978 53.468 57.6231 53.806C57.8571 54.1353 57.9828 54.4473 58.0001 54.742C58.0088 54.8373 57.9741 54.9197 57.8961 54.989C57.8268 55.0583 57.7445 55.093 57.6491 55.093H57.2591C57.1551 55.093 57.0728 55.067 57.0121 55.015C56.9515 54.963 56.8908 54.872 56.8301 54.742C56.5268 54.066 55.9418 53.728 55.0751 53.728C54.5985 53.728 54.1825 53.8883 53.8271 54.209C53.4718 54.5297 53.2681 55.015 53.2161 55.665C53.2075 55.7603 53.2031 55.9163 53.2031 56.133C53.2031 56.3323 53.2075 56.4797 53.2161 56.575C53.2768 57.225 53.4805 57.7103 53.8271 58.031C54.1825 58.3517 54.5985 58.512 55.0751 58.512ZM60.8691 51.362C60.8691 51.4573 60.8344 51.5397 60.7651 51.609C60.6957 51.6783 60.6134 51.713 60.5181 51.713H59.7771C59.6817 51.713 59.5994 51.6783 59.5301 51.609C59.4607 51.5397 59.4261 51.4573 59.4261 51.362V50.621C59.4261 50.5257 59.4607 50.4433 59.5301 50.374C59.5994 50.3047 59.6817 50.27 59.7771 50.27H60.5181C60.6134 50.27 60.6957 50.3047 60.7651 50.374C60.8344 50.4433 60.8691 50.5257 60.8691 50.621V51.362ZM60.7391 59.149C60.7391 59.2443 60.7044 59.3267 60.6351 59.396C60.5657 59.4653 60.4834 59.5 60.3881 59.5H59.9071C59.8117 59.5 59.7294 59.4653 59.6601 59.396C59.5907 59.3267 59.5561 59.2443 59.5561 59.149V53.091C59.5561 52.9957 59.5907 52.9133 59.6601 52.844C59.7294 52.7747 59.8117 52.74 59.9071 52.74H60.3881C60.4834 52.74 60.5657 52.7747 60.6351 52.844C60.7044 52.9133 60.7391 52.9957 60.7391 53.091V59.149ZM66.7088 55.223V55.054C66.7088 54.6293 66.5658 54.3043 66.2798 54.079C66.0025 53.845 65.6385 53.728 65.1878 53.728C64.8411 53.728 64.5681 53.7887 64.3688 53.91C64.1781 54.0227 63.9961 54.196 63.8228 54.43C63.7708 54.4993 63.7145 54.547 63.6538 54.573C63.5931 54.599 63.5108 54.612 63.4068 54.612H63.0168C62.9215 54.612 62.8348 54.5773 62.7568 54.508C62.6875 54.4387 62.6571 54.3563 62.6658 54.261C62.6918 54.001 62.8175 53.7453 63.0428 53.494C63.2768 53.234 63.5845 53.0217 63.9658 52.857C64.3471 52.6923 64.7545 52.61 65.1878 52.61C65.9938 52.61 66.6438 52.8353 67.1378 53.286C67.6405 53.7367 67.8918 54.3693 67.8918 55.184V59.149C67.8918 59.2443 67.8571 59.3267 67.7878 59.396C67.7185 59.4653 67.6361 59.5 67.5408 59.5H67.0598C66.9645 59.5 66.8821 59.4653 66.8128 59.396C66.7435 59.3267 66.7088 59.2443 66.7088 59.149V58.616C66.5701 58.928 66.2755 59.175 65.8248 59.357C65.3741 59.539 64.9235 59.63 64.4728 59.63C64.0308 59.63 63.6365 59.552 63.2898 59.396C62.9431 59.2313 62.6745 59.0103 62.4838 58.733C62.3018 58.4557 62.2108 58.1437 62.2108 57.797C62.2108 57.147 62.4535 56.64 62.9388 56.276C63.4241 55.9033 64.0698 55.652 64.8758 55.522L66.7088 55.223ZM66.7088 56.263L65.1748 56.51C64.6115 56.5967 64.1738 56.7397 63.8618 56.939C63.5498 57.1297 63.3938 57.3723 63.3938 57.667C63.3938 57.8837 63.4935 58.0787 63.6928 58.252C63.8921 58.4253 64.1955 58.512 64.6028 58.512C65.2268 58.512 65.7338 58.3343 66.1238 57.979C66.5138 57.6237 66.7088 57.16 66.7088 56.588V56.263ZM71.4135 56.497C70.1481 56.2283 69.5155 55.5827 69.5155 54.56C69.5155 54.2047 69.6108 53.8797 69.8015 53.585C69.9921 53.2903 70.2738 53.0563 70.6465 52.883C71.0278 52.701 71.4915 52.61 72.0375 52.61C72.5748 52.61 73.0385 52.688 73.4285 52.844C73.8185 53 74.1131 53.195 74.3125 53.429C74.5205 53.663 74.6245 53.8883 74.6245 54.105C74.6245 54.1917 74.5898 54.2697 74.5205 54.339C74.4511 54.3997 74.3688 54.43 74.2735 54.43H73.8445C73.6798 54.43 73.5498 54.3693 73.4545 54.248C73.1858 53.9013 72.7135 53.728 72.0375 53.728C71.6388 53.728 71.3138 53.8017 71.0625 53.949C70.8198 54.0963 70.6985 54.3 70.6985 54.56C70.6985 54.7767 70.7591 54.9413 70.8805 55.054C71.0018 55.1667 71.1838 55.2577 71.4265 55.327C71.6691 55.3963 72.0981 55.5003 72.7135 55.639C73.4761 55.8037 74.0178 56.055 74.3385 56.393C74.6591 56.731 74.8195 57.1427 74.8195 57.628C74.8195 57.9833 74.7068 58.3127 74.4815 58.616C74.2648 58.9193 73.9485 59.1663 73.5325 59.357C73.1251 59.539 72.6485 59.63 72.1025 59.63C71.5651 59.63 71.0885 59.5477 70.6725 59.383C70.2651 59.2097 69.9488 59.0017 69.7235 58.759C69.4981 58.5163 69.3855 58.2867 69.3855 58.07C69.3855 57.9833 69.4201 57.9097 69.4895 57.849C69.5588 57.7797 69.6411 57.745 69.7365 57.745H70.2045C70.2825 57.745 70.3518 57.7537 70.4125 57.771C70.4731 57.7883 70.5295 57.836 70.5815 57.914C70.8675 58.3127 71.3745 58.512 72.1025 58.512C72.5098 58.512 72.8651 58.4297 73.1685 58.265C73.4805 58.0917 73.6365 57.8793 73.6365 57.628C73.6365 57.42 73.5585 57.2553 73.4025 57.134C73.2551 57.004 73.0385 56.9 72.7525 56.822C72.4665 56.7353 72.0201 56.627 71.4135 56.497ZM84.1795 50.621C84.1795 50.5257 84.2141 50.4433 84.2835 50.374C84.3528 50.3047 84.4351 50.27 84.5305 50.27H85.0115C85.1068 50.27 85.1891 50.3047 85.2585 50.374C85.3278 50.4433 85.3625 50.5257 85.3625 50.621V59.149C85.3625 59.2443 85.3278 59.3267 85.2585 59.396C85.1891 59.4653 85.1068 59.5 85.0115 59.5H84.5305C84.4351 59.5 84.3528 59.4653 84.2835 59.396C84.2141 59.3267 84.1795 59.2443 84.1795 59.149V58.746C83.7375 59.3353 83.0658 59.63 82.1645 59.63C81.6271 59.63 81.1375 59.5043 80.6955 59.253C80.2621 59.0017 79.9111 58.642 79.6425 58.174C79.3825 57.706 79.2395 57.16 79.2135 56.536L79.2005 56.107L79.2135 55.691C79.2395 55.067 79.3825 54.5253 79.6425 54.066C79.9111 53.598 80.2621 53.2383 80.6955 52.987C81.1288 52.7357 81.6185 52.61 82.1645 52.61C82.6498 52.61 83.0571 52.6967 83.3865 52.87C83.7245 53.0347 83.9888 53.2427 84.1795 53.494V50.621ZM84.1795 55.652C84.1535 55.0453 83.9715 54.573 83.6335 54.235C83.2955 53.897 82.8491 53.728 82.2945 53.728C81.7311 53.728 81.2805 53.91 80.9425 54.274C80.6131 54.638 80.4311 55.132 80.3965 55.756L80.3835 56.12L80.3965 56.484C80.4311 57.108 80.6131 57.602 80.9425 57.966C81.2805 58.33 81.7311 58.512 82.2945 58.512C82.8318 58.512 83.2738 58.3473 83.6205 58.018C83.9671 57.68 84.1535 57.2337 84.1795 56.679C84.1881 56.5923 84.1925 56.419 84.1925 56.159C84.1925 55.9077 84.1881 55.7387 84.1795 55.652ZM89.973 52.61C90.9003 52.61 91.6327 52.9047 92.17 53.494C92.7073 54.0833 92.976 54.885 92.976 55.899V56.25C92.976 56.3453 92.9413 56.4277 92.872 56.497C92.8027 56.5663 92.7203 56.601 92.625 56.601H88.153V56.679C88.1703 57.251 88.3437 57.7017 88.673 58.031C89.011 58.3517 89.4443 58.512 89.973 58.512C90.4063 58.512 90.74 58.4557 90.974 58.343C91.2167 58.2303 91.4333 58.07 91.624 57.862C91.6933 57.7927 91.754 57.745 91.806 57.719C91.8667 57.693 91.9447 57.68 92.04 57.68H92.43C92.534 57.68 92.6207 57.7147 92.69 57.784C92.7593 57.8533 92.7897 57.9357 92.781 58.031C92.7463 58.265 92.6163 58.5077 92.391 58.759C92.1743 59.0017 91.858 59.2097 91.442 59.383C91.0347 59.5477 90.545 59.63 89.973 59.63C89.4183 59.63 88.9243 59.5043 88.491 59.253C88.0577 58.993 87.711 58.6377 87.451 58.187C87.1997 57.7363 87.048 57.2293 86.996 56.666C86.9787 56.406 86.97 56.2067 86.97 56.068C86.97 55.9293 86.9787 55.73 86.996 55.47C87.048 54.9327 87.1997 54.4473 87.451 54.014C87.711 53.5807 88.0533 53.2383 88.478 52.987C88.9113 52.7357 89.4097 52.61 89.973 52.61ZM91.806 55.509V55.47C91.806 54.9413 91.637 54.521 91.299 54.209C90.9697 53.8883 90.5277 53.728 89.973 53.728C89.4703 53.728 89.0413 53.8883 88.686 54.209C88.3393 54.5297 88.1617 54.95 88.153 55.47V55.509H91.806ZM37.5574 74.149C37.5574 74.2443 37.5227 74.3267 37.4534 74.396C37.3841 74.4653 37.3017 74.5 37.2064 74.5H36.7254C36.6301 74.5 36.5477 74.4653 36.4784 74.396C36.4091 74.3267 36.3744 74.2443 36.3744 74.149V65.621C36.3744 65.5257 36.4091 65.4433 36.4784 65.374C36.5477 65.3047 36.6301 65.27 36.7254 65.27H37.2064C37.3017 65.27 37.3841 65.3047 37.4534 65.374C37.5227 65.4433 37.5574 65.5257 37.5574 65.621V74.149ZM43.5272 70.223V70.054C43.5272 69.6293 43.3842 69.3043 43.0982 69.079C42.8208 68.845 42.4568 68.728 42.0062 68.728C41.6595 68.728 41.3865 68.7887 41.1872 68.91C40.9965 69.0227 40.8145 69.196 40.6412 69.43C40.5892 69.4993 40.5328 69.547 40.4722 69.573C40.4115 69.599 40.3292 69.612 40.2252 69.612H39.8352C39.7398 69.612 39.6532 69.5773 39.5752 69.508C39.5058 69.4387 39.4755 69.3563 39.4842 69.261C39.5102 69.001 39.6358 68.7453 39.8612 68.494C40.0952 68.234 40.4028 68.0217 40.7842 67.857C41.1655 67.6923 41.5728 67.61 42.0062 67.61C42.8122 67.61 43.4622 67.8353 43.9562 68.286C44.4588 68.7367 44.7102 69.3693 44.7102 70.184V74.149C44.7102 74.2443 44.6755 74.3267 44.6062 74.396C44.5368 74.4653 44.4545 74.5 44.3592 74.5H43.8782C43.7828 74.5 43.7005 74.4653 43.6312 74.396C43.5618 74.3267 43.5272 74.2443 43.5272 74.149V73.616C43.3885 73.928 43.0938 74.175 42.6432 74.357C42.1925 74.539 41.7418 74.63 41.2912 74.63C40.8492 74.63 40.4548 74.552 40.1082 74.396C39.7615 74.2313 39.4928 74.0103 39.3022 73.733C39.1202 73.4557 39.0292 73.1437 39.0292 72.797C39.0292 72.147 39.2718 71.64 39.7572 71.276C40.2425 70.9033 40.8882 70.652 41.6942 70.522L43.5272 70.223ZM43.5272 71.263L41.9932 71.51C41.4298 71.5967 40.9922 71.7397 40.6802 71.939C40.3682 72.1297 40.2122 72.3723 40.2122 72.667C40.2122 72.8837 40.3118 73.0787 40.5112 73.252C40.7105 73.4253 41.0138 73.512 41.4212 73.512C42.0452 73.512 42.5522 73.3343 42.9422 72.979C43.3322 72.6237 43.5272 72.16 43.5272 71.588V71.263ZM56.0207 67.623C56.0293 67.701 56.0033 67.7703 55.9427 67.831C55.882 67.883 55.8127 67.909 55.7347 67.909H55.2017C55.0977 67.909 55.0197 67.8917 54.9677 67.857C54.9157 67.8137 54.8593 67.7357 54.7987 67.623C54.66 67.3543 54.4173 67.09 54.0707 66.83C53.7327 66.57 53.282 66.44 52.7187 66.44C52.1987 66.44 51.7567 66.557 51.3927 66.791C51.0373 67.025 50.8597 67.3587 50.8597 67.792C50.8597 68.0867 50.9463 68.3293 51.1197 68.52C51.3017 68.702 51.5703 68.8623 51.9257 69.001C52.2897 69.131 52.8357 69.2913 53.5637 69.482C54.5517 69.742 55.2493 70.0627 55.6567 70.444C56.0727 70.8167 56.2807 71.328 56.2807 71.978C56.2807 72.498 56.1333 72.9573 55.8387 73.356C55.5527 73.7547 55.1453 74.0667 54.6167 74.292C54.088 74.5173 53.477 74.63 52.7837 74.63C52.1423 74.63 51.5573 74.5087 51.0287 74.266C50.5 74.0233 50.084 73.7157 49.7807 73.343C49.4773 72.9617 49.317 72.5847 49.2997 72.212C49.2997 72.134 49.3257 72.069 49.3777 72.017C49.4383 71.9563 49.5077 71.926 49.5857 71.926H50.1187C50.214 71.926 50.292 71.9477 50.3527 71.991C50.4133 72.0257 50.4697 72.0993 50.5217 72.212C50.6603 72.524 50.9117 72.81 51.2757 73.07C51.6483 73.33 52.151 73.46 52.7837 73.46C53.4163 73.46 53.9493 73.3257 54.3827 73.057C54.8247 72.7797 55.0457 72.42 55.0457 71.978C55.0457 71.692 54.9287 71.4537 54.6947 71.263C54.4693 71.0637 54.1573 70.899 53.7587 70.769C53.36 70.6303 52.775 70.4613 52.0037 70.262C51.163 70.0453 50.5563 69.7333 50.1837 69.326C49.811 68.91 49.6247 68.3987 49.6247 67.792C49.6247 67.3413 49.7417 66.9253 49.9757 66.544C50.2097 66.1627 50.5607 65.855 51.0287 65.621C51.4967 65.387 52.06 65.27 52.7187 65.27C53.3773 65.27 53.9537 65.4 54.4477 65.66C54.9417 65.9113 55.323 66.2233 55.5917 66.596C55.8603 66.9687 56.0033 67.311 56.0207 67.623ZM61.8338 70.223V70.054C61.8338 69.6293 61.6908 69.3043 61.4048 69.079C61.1275 68.845 60.7635 68.728 60.3128 68.728C59.9661 68.728 59.6931 68.7887 59.4938 68.91C59.3031 69.0227 59.1211 69.196 58.9478 69.43C58.8958 69.4993 58.8395 69.547 58.7788 69.573C58.7181 69.599 58.6358 69.612 58.5318 69.612H58.1418C58.0465 69.612 57.9598 69.5773 57.8818 69.508C57.8125 69.4387 57.7821 69.3563 57.7908 69.261C57.8168 69.001 57.9425 68.7453 58.1678 68.494C58.4018 68.234 58.7095 68.0217 59.0908 67.857C59.4721 67.6923 59.8795 67.61 60.3128 67.61C61.1188 67.61 61.7688 67.8353 62.2628 68.286C62.7655 68.7367 63.0168 69.3693 63.0168 70.184V74.149C63.0168 74.2443 62.9821 74.3267 62.9128 74.396C62.8435 74.4653 62.7611 74.5 62.6658 74.5H62.1848C62.0895 74.5 62.0071 74.4653 61.9378 74.396C61.8685 74.3267 61.8338 74.2443 61.8338 74.149V73.616C61.6951 73.928 61.4005 74.175 60.9498 74.357C60.4991 74.539 60.0485 74.63 59.5978 74.63C59.1558 74.63 58.7615 74.552 58.4148 74.396C58.0681 74.2313 57.7995 74.0103 57.6088 73.733C57.4268 73.4557 57.3358 73.1437 57.3358 72.797C57.3358 72.147 57.5785 71.64 58.0638 71.276C58.5491 70.9033 59.1948 70.652 60.0008 70.522L61.8338 70.223ZM61.8338 71.263L60.2998 71.51C59.7365 71.5967 59.2988 71.7397 58.9868 71.939C58.6748 72.1297 58.5188 72.3723 58.5188 72.667C58.5188 72.8837 58.6185 73.0787 58.8178 73.252C59.0171 73.4253 59.3205 73.512 59.7278 73.512C60.3518 73.512 60.8588 73.3343 61.2488 72.979C61.6388 72.6237 61.8338 72.16 61.8338 71.588V71.263ZM66.0965 74.149C66.0965 74.2443 66.0618 74.3267 65.9925 74.396C65.9231 74.4653 65.8408 74.5 65.7455 74.5H65.2645C65.1691 74.5 65.0868 74.4653 65.0175 74.396C64.9481 74.3267 64.9135 74.2443 64.9135 74.149V65.621C64.9135 65.5257 64.9481 65.4433 65.0175 65.374C65.0868 65.3047 65.1691 65.27 65.2645 65.27H65.7455C65.8408 65.27 65.9231 65.3047 65.9925 65.374C66.0618 65.4433 66.0965 65.5257 66.0965 65.621V74.149ZM67.9842 68.091C67.9842 67.9957 68.0189 67.9133 68.0882 67.844C68.1576 67.7747 68.2399 67.74 68.3352 67.74H68.8162C68.9116 67.74 68.9939 67.7747 69.0632 67.844C69.1326 67.9133 69.1672 67.9957 69.1672 68.091V71.523C69.1672 72.1817 69.3146 72.68 69.6092 73.018C69.9126 73.3473 70.3502 73.512 70.9222 73.512C71.4769 73.512 71.9059 73.343 72.2092 73.005C72.5212 72.667 72.6772 72.173 72.6772 71.523V68.091C72.6772 67.9957 72.7119 67.9133 72.7812 67.844C72.8506 67.7747 72.9329 67.74 73.0282 67.74H73.5092C73.6046 67.74 73.6869 67.7747 73.7562 67.844C73.8256 67.9133 73.8602 67.9957 73.8602 68.091V74.149C73.8602 74.2443 73.8256 74.3267 73.7562 74.396C73.6869 74.4653 73.6046 74.5 73.5092 74.5H73.0282C72.9329 74.5 72.8506 74.4653 72.7812 74.396C72.7119 74.3267 72.6772 74.2443 72.6772 74.149V73.746C72.2266 74.3353 71.5766 74.63 70.7272 74.63C69.8952 74.63 69.2279 74.37 68.7252 73.85C68.2312 73.33 67.9842 72.6193 67.9842 71.718V68.091ZM80.4471 65.621C80.4471 65.5257 80.4817 65.4433 80.5511 65.374C80.6204 65.3047 80.7027 65.27 80.7981 65.27H81.2791C81.3744 65.27 81.4567 65.3047 81.5261 65.374C81.5954 65.4433 81.6301 65.5257 81.6301 65.621V74.149C81.6301 74.2443 81.5954 74.3267 81.5261 74.396C81.4567 74.4653 81.3744 74.5 81.2791 74.5H80.7981C80.7027 74.5 80.6204 74.4653 80.5511 74.396C80.4817 74.3267 80.4471 74.2443 80.4471 74.149V73.746C80.0051 74.3353 79.3334 74.63 78.4321 74.63C77.8947 74.63 77.4051 74.5043 76.9631 74.253C76.5297 74.0017 76.1787 73.642 75.9101 73.174C75.6501 72.706 75.5071 72.16 75.4811 71.536L75.4681 71.107L75.4811 70.691C75.5071 70.067 75.6501 69.5253 75.9101 69.066C76.1787 68.598 76.5297 68.2383 76.9631 67.987C77.3964 67.7357 77.8861 67.61 78.4321 67.61C78.9174 67.61 79.3247 67.6967 79.6541 67.87C79.9921 68.0347 80.2564 68.2427 80.4471 68.494V65.621ZM80.4471 70.652C80.4211 70.0453 80.2391 69.573 79.9011 69.235C79.5631 68.897 79.1167 68.728 78.5621 68.728C77.9987 68.728 77.5481 68.91 77.2101 69.274C76.8807 69.638 76.6987 70.132 76.6641 70.756L76.6511 71.12L76.6641 71.484C76.6987 72.108 76.8807 72.602 77.2101 72.966C77.5481 73.33 77.9987 73.512 78.5621 73.512C79.0994 73.512 79.5414 73.3473 79.8881 73.018C80.2347 72.68 80.4211 72.2337 80.4471 71.679C80.4557 71.5923 80.4601 71.419 80.4601 71.159C80.4601 70.9077 80.4557 70.7387 80.4471 70.652Z" fill="#EBECEE"/>
<rect x="40" y="81.5" width="38" height="25" rx="12.5" fill="#323B4A"/>
<path d="M57.1579 92.354C57.1766 92.6153 57.1859 93.0353 57.1859 93.614C57.1859 94.1833 57.1766 94.594 57.1579 94.846C57.0926 95.9567 56.7239 96.8667 56.0519 97.576C55.3892 98.2853 54.3952 98.64 53.0699 98.64C51.7446 98.64 50.7459 98.2853 50.0739 97.576C49.4112 96.8667 49.0472 95.9567 48.9819 94.846C48.9632 94.342 48.9539 93.9313 48.9539 93.614C48.9539 93.2967 48.9632 92.8767 48.9819 92.354C49.0472 91.2433 49.4112 90.3333 50.0739 89.624C50.7459 88.9147 51.7446 88.56 53.0699 88.56C54.3952 88.56 55.3892 88.9147 56.0519 89.624C56.7239 90.3333 57.0926 91.2433 57.1579 92.354ZM54.5679 92.424C54.5399 91.9107 54.4139 91.514 54.1899 91.234C53.9659 90.9447 53.5926 90.8 53.0699 90.8C52.5472 90.8 52.1739 90.9447 51.9499 91.234C51.7259 91.514 51.5999 91.9107 51.5719 92.424C51.5532 92.928 51.5439 93.3153 51.5439 93.586C51.5439 93.838 51.5532 94.2347 51.5719 94.776C51.5906 95.2893 51.7119 95.6907 51.9359 95.98C52.1692 96.26 52.5472 96.4 53.0699 96.4C53.5926 96.4 53.9659 96.26 54.1899 95.98C54.4232 95.6907 54.5492 95.2893 54.5679 94.776C54.5866 94.5053 54.5959 94.1087 54.5959 93.586C54.5959 93.0633 54.5866 92.676 54.5679 92.424ZM62.7646 91.682C62.7366 92.27 62.5359 92.7507 62.1626 93.124C61.7986 93.488 61.2666 93.67 60.5666 93.67C59.8666 93.67 59.3346 93.488 58.9706 93.124C58.6159 92.76 58.4152 92.2793 58.3686 91.682C58.3592 91.5607 58.3546 91.388 58.3546 91.164C58.3546 90.9307 58.3592 90.7487 58.3686 90.618C58.4152 90.0207 58.6159 89.54 58.9706 89.176C59.3346 88.812 59.8666 88.63 60.5666 88.63C61.2666 88.63 61.7939 88.812 62.1486 89.176C62.5126 89.54 62.7179 90.0207 62.7646 90.618C62.7832 90.8793 62.7926 91.0613 62.7926 91.164C62.7926 91.2667 62.7832 91.4393 62.7646 91.682ZM66.2646 88.966C66.3392 88.8727 66.4092 88.8073 66.4746 88.77C66.5492 88.7233 66.6472 88.7 66.7686 88.7H67.9166C68.0192 88.7 68.0986 88.728 68.1546 88.784C68.2199 88.8307 68.2526 88.896 68.2526 88.98C68.2526 89.036 68.2339 89.0873 68.1966 89.134L61.2806 98.234C61.2059 98.3273 61.1312 98.3973 61.0566 98.444C60.9912 98.4813 60.8979 98.5 60.7766 98.5H59.6286C59.5259 98.5 59.4419 98.4767 59.3766 98.43C59.3206 98.374 59.2926 98.304 59.2926 98.22C59.2926 98.164 59.3112 98.1127 59.3486 98.066L66.2646 88.966ZM60.5666 92.34C60.7626 92.34 60.9026 92.284 60.9866 92.172C61.0706 92.06 61.1219 91.8733 61.1406 91.612C61.1592 91.388 61.1686 91.234 61.1686 91.15C61.1686 91.0473 61.1592 90.8933 61.1406 90.688C61.1219 90.4267 61.0706 90.24 60.9866 90.128C60.9026 90.016 60.7626 89.96 60.5666 89.96C60.3706 89.96 60.2306 90.016 60.1466 90.128C60.0626 90.24 60.0112 90.4267 59.9926 90.688C59.9832 90.7907 59.9786 90.9447 59.9786 91.15C59.9786 91.346 59.9832 91.5 59.9926 91.612C60.0112 91.8733 60.0626 92.06 60.1466 92.172C60.2306 92.284 60.3706 92.34 60.5666 92.34ZM69.2606 96.582C69.2326 97.17 69.0319 97.6507 68.6586 98.024C68.2946 98.388 67.7626 98.57 67.0626 98.57C66.3626 98.57 65.8306 98.388 65.4666 98.024C65.1119 97.66 64.9112 97.1793 64.8646 96.582C64.8552 96.4607 64.8506 96.288 64.8506 96.064C64.8506 95.8307 64.8552 95.6487 64.8646 95.518C64.9112 94.9207 65.1119 94.44 65.4666 94.076C65.8306 93.712 66.3626 93.53 67.0626 93.53C67.7626 93.53 68.2899 93.712 68.6446 94.076C69.0086 94.44 69.2139 94.9207 69.2606 95.518C69.2792 95.7793 69.2886 95.9613 69.2886 96.064C69.2886 96.1667 69.2792 96.3393 69.2606 96.582ZM67.0626 97.24C67.2586 97.24 67.3986 97.184 67.4826 97.072C67.5666 96.96 67.6179 96.7733 67.6366 96.512C67.6552 96.288 67.6646 96.134 67.6646 96.05C67.6646 95.9473 67.6552 95.7933 67.6366 95.588C67.6179 95.3267 67.5666 95.14 67.4826 95.028C67.3986 94.916 67.2586 94.86 67.0626 94.86C66.8666 94.86 66.7266 94.916 66.6426 95.028C66.5586 95.14 66.5072 95.3267 66.4886 95.588C66.4792 95.6907 66.4746 95.8447 66.4746 96.05C66.4746 96.246 66.4792 96.4 66.4886 96.512C66.5072 96.7733 66.5586 96.96 66.6426 97.072C66.7266 97.184 66.8666 97.24 67.0626 97.24Z" fill="white"/>
<g filter="url(#filter0_d_34428_7878)">
<rect x="88" y="14" width="28" height="28" rx="14" fill="white"/>
<rect x="87" y="13" width="30" height="30" rx="15" stroke="#374151" stroke-width="2"/>
<path opacity="0.4" d="M102.001 30.4917C102.337 30.4917 102.609 30.7641 102.609 31.1001C102.609 31.436 102.337 31.7085 102.001 31.7085C101.665 31.7085 101.393 31.436 101.393 31.1001C101.393 30.7641 101.665 30.4917 102.001 30.4917Z" fill="#272E3A" stroke="#272E3A" stroke-width="1.5"/>
<path d="M98.124 26.6167H105.874C107.556 26.6167 108.395 26.8857 108.854 27.3452C109.314 27.8048 109.583 28.6432 109.583 30.3247V31.8755C109.583 33.557 109.314 34.3954 108.854 34.855C108.395 35.3145 107.556 35.5835 105.874 35.5835H98.124C96.4424 35.5835 95.6041 35.3145 95.1445 34.855C94.685 34.3955 94.4161 33.5571 94.416 31.8755V30.3247C94.4161 28.643 94.685 27.8047 95.1445 27.3452C95.6041 26.8857 96.4423 26.6167 98.124 26.6167ZM101.999 27.8335C100.192 27.8337 98.7324 29.3043 98.7324 31.1001C98.7325 32.8959 100.192 34.3665 101.999 34.3667C103.806 34.3667 105.266 32.896 105.266 31.1001C105.266 29.3042 103.807 27.8335 101.999 27.8335Z" fill="#272E3A" stroke="#272E3A" stroke-width="1.5"/>
<g opacity="0.4">
<mask id="path-12-inside-1_34428_7878" fill="white">
<path d="M97.9342 25.8748V24.8998C97.9342 22.4582 98.6259 20.8332 102.001 20.8332C105.376 20.8332 106.068 22.4582 106.068 24.8998V25.8748C106.493 25.8832 106.876 25.8998 107.234 25.9498V24.8998C107.234 22.6498 106.693 19.6665 102.001 19.6665C97.3092 19.6665 96.7676 22.6498 96.7676 24.8998V25.9415C97.1176 25.8998 97.5092 25.8748 97.9342 25.8748Z"/>
</mask>
<path d="M97.9342 25.8748V24.8998C97.9342 22.4582 98.6259 20.8332 102.001 20.8332C105.376 20.8332 106.068 22.4582 106.068 24.8998V25.8748C106.493 25.8832 106.876 25.8998 107.234 25.9498V24.8998C107.234 22.6498 106.693 19.6665 102.001 19.6665C97.3092 19.6665 96.7676 22.6498 96.7676 24.8998V25.9415C97.1176 25.8998 97.5092 25.8748 97.9342 25.8748Z" fill="#272E3A"/>
<path d="M97.9342 25.8748V27.3748H99.4342V25.8748H97.9342ZM106.068 25.8748H104.568V27.3457L106.038 27.3745L106.068 25.8748ZM107.234 25.9498L107.027 27.4354L108.734 27.6737V25.9498H107.234ZM107.234 24.8998H105.734H107.234ZM96.7676 25.9415H95.2676V27.6307L96.9449 27.431L96.7676 25.9415ZM97.9342 25.8748H99.4342V24.8998H97.9342H96.4342V25.8748H97.9342ZM97.9342 24.8998H99.4342C99.4342 23.7471 99.6156 23.1967 99.8528 22.913C100.039 22.6905 100.52 22.3332 102.001 22.3332V20.8332V19.3332C100.107 19.3332 98.5547 19.7884 97.5511 20.9888C96.5988 22.128 96.4342 23.6109 96.4342 24.8998H97.9342ZM102.001 20.8332V22.3332C103.482 22.3332 103.963 22.6905 104.149 22.913C104.386 23.1967 104.568 23.7471 104.568 24.8998H106.068H107.568C107.568 23.6109 107.403 22.128 106.451 20.9888C105.447 19.7884 103.895 19.3332 102.001 19.3332V20.8332ZM106.068 24.8998H104.568V25.8748H106.068H107.568V24.8998H106.068ZM106.068 25.8748L106.038 27.3745C106.451 27.3826 106.761 27.3983 107.027 27.4354L107.234 25.9498L107.442 24.4642C106.991 24.4014 106.535 24.3837 106.097 24.3751L106.068 25.8748ZM107.234 25.9498H108.734V24.8998H107.234H105.734V25.9498H107.234ZM107.234 24.8998L108.734 24.8998C108.734 23.7116 108.606 22.002 107.604 20.5769C106.526 19.0428 104.687 18.1665 102.001 18.1665V19.6665V21.1665C104.006 21.1665 104.784 21.7819 105.15 22.302C105.592 22.931 105.734 23.8381 105.734 24.8998L107.234 24.8998ZM102.001 19.6665V18.1665C99.3145 18.1665 97.4759 19.0428 96.3977 20.5769C95.396 22.002 95.2676 23.7116 95.2676 24.8998H96.7676H98.2676C98.2676 23.8381 98.41 22.931 98.8521 22.302C99.2176 21.7819 99.9956 21.1665 102.001 21.1665V19.6665ZM96.7676 24.8998H95.2676V25.9415H96.7676H98.2676V24.8998H96.7676ZM96.7676 25.9415L96.9449 27.431C97.2351 27.3964 97.5675 27.3748 97.9342 27.3748V25.8748V24.3748C97.451 24.3748 97.0001 24.4032 96.5903 24.452L96.7676 25.9415Z" fill="#272E3A" mask="url(#path-12-inside-1_34428_7878)"/>
</g>
</g>
<defs>
<filter id="filter0_d_34428_7878" x="71" y="5" width="62" height="62" filterUnits="userSpaceOnUse" color-interpolation-filters="sRGB">
<feFlood flood-opacity="0" result="BackgroundImageFix"/>
<feColorMatrix in="SourceAlpha" type="matrix" values="0 0 0 0 0 0 0 0 0 0 0 0 0 0 0 0 0 0 127 0" result="hardAlpha"/>
<feOffset dy="8"/>
<feGaussianBlur stdDeviation="7.5"/>
<feColorMatrix type="matrix" values="0 0 0 0 0 0 0 0 0 0 0 0 0 0 0 0 0 0 0.25 0"/>
<feBlend mode="normal" in2="BackgroundImageFix" result="effect1_dropShadow_34428_7878"/>
<feBlend mode="normal" in="SourceGraphic" in2="effect1_dropShadow_34428_7878" result="shape"/>
</filter>
<clipPath id="clip0_34428_7878">
<rect width="32" height="32" fill="white" transform="translate(43 11.5)"/>
</clipPath>
</defs>
</svg>
