<svg width="133" height="118" viewBox="0 0 133 118" fill="none" xmlns="http://www.w3.org/2000/svg">
<rect x="2" y="2" width="114" height="114" rx="57" fill="#1E242D"/>
<rect x="2" y="2" width="114" height="114" rx="57" stroke="#374151" stroke-width="4"/>
<path opacity="0.4" d="M58.9993 48.1999C66.3631 48.1999 72.3327 42.2303 72.3327 34.8665C72.3327 27.5027 66.3631 21.5332 58.9993 21.5332C51.6356 21.5332 45.666 27.5027 45.666 34.8665C45.666 42.2303 51.6356 48.1999 58.9993 48.1999Z" fill="#E8B600"/>
<path d="M62.0135 35L60.0002 34.2933V29.7733H60.4802C61.5602 29.7733 62.4402 30.72 62.4402 31.88C62.4402 32.4267 62.8935 32.88 63.4402 32.88C63.9869 32.88 64.4402 32.4267 64.4402 31.88C64.4402 29.6133 62.6669 27.7733 60.4802 27.7733H60.0002V27C60.0002 26.4533 59.5469 26 59.0002 26C58.4535 26 58.0002 26.4533 58.0002 27V27.7733H57.1335C55.1602 27.7733 53.5469 29.44 53.5469 31.48C53.5469 33.8667 54.9335 34.6267 55.9869 35L58.0002 35.7067V40.2133H57.5202C56.4402 40.2133 55.5602 39.2667 55.5602 38.1067C55.5602 37.56 55.1069 37.1067 54.5602 37.1067C54.0135 37.1067 53.5602 37.56 53.5602 38.1067C53.5602 40.3733 55.3335 42.2133 57.5202 42.2133H58.0002V43C58.0002 43.5467 58.4535 44 59.0002 44C59.5469 44 60.0002 43.5467 60.0002 43V42.2267H60.8669C62.8402 42.2267 64.4535 40.56 64.4535 38.52C64.4402 36.12 63.0535 35.36 62.0135 35ZM56.6535 33.12C55.9735 32.88 55.5602 32.6533 55.5602 31.4933C55.5602 30.5467 56.2669 29.7867 57.1469 29.7867H58.0135V33.6L56.6535 33.12ZM60.8669 40.2267H60.0002V36.4133L61.3469 36.88C62.0269 37.12 62.4402 37.3467 62.4402 38.5067C62.4402 39.4533 61.7335 40.2267 60.8669 40.2267Z" fill="#E8B600"/>
<path d="M31.5508 62.983V65.83H35.9188C36.0141 65.83 36.0964 65.8647 36.1658 65.934C36.2351 66.0033 36.2698 66.0857 36.2698 66.181V66.649C36.2698 66.7443 36.2351 66.8267 36.1658 66.896C36.0964 66.9653 36.0141 67 35.9188 67H30.6668C30.5714 67 30.4891 66.9653 30.4198 66.896C30.3504 66.8267 30.3158 66.7443 30.3158 66.649V58.251C30.3158 58.1557 30.3504 58.0733 30.4198 58.004C30.4891 57.9347 30.5714 57.9 30.6668 57.9H35.8148C35.9101 57.9 35.9924 57.9347 36.0618 58.004C36.1311 58.0733 36.1658 58.1557 36.1658 58.251V58.719C36.1658 58.8143 36.1311 58.8967 36.0618 58.966C35.9924 59.0353 35.9101 59.07 35.8148 59.07H31.5508V61.813H35.5288C35.6241 61.813 35.7064 61.8477 35.7758 61.917C35.8451 61.9863 35.8798 62.0687 35.8798 62.164V62.632C35.8798 62.7273 35.8451 62.8097 35.7758 62.879C35.7064 62.9483 35.6241 62.983 35.5288 62.983H31.5508ZM40.5961 66.012C41.4628 66.012 42.0478 65.674 42.3511 64.998C42.4118 64.868 42.4724 64.777 42.5331 64.725C42.5938 64.673 42.6761 64.647 42.7801 64.647H43.1701C43.2654 64.647 43.3478 64.6817 43.4171 64.751C43.4864 64.8117 43.5211 64.8853 43.5211 64.972C43.5211 65.2667 43.4041 65.583 43.1701 65.921C42.9361 66.259 42.5981 66.545 42.1561 66.779C41.7141 67.013 41.1941 67.13 40.5961 67.13C39.9808 67.13 39.4478 67 38.9971 66.74C38.5464 66.48 38.1998 66.1247 37.9571 65.674C37.7144 65.2147 37.5801 64.7033 37.5541 64.14C37.5454 64.036 37.5411 63.8367 37.5411 63.542C37.5411 63.334 37.5454 63.1867 37.5541 63.1C37.6321 62.216 37.9311 61.4967 38.4511 60.942C38.9711 60.3873 39.6861 60.11 40.5961 60.11C41.1941 60.11 41.7098 60.227 42.1431 60.461C42.5851 60.6863 42.9188 60.968 43.1441 61.306C43.3781 61.6353 43.5038 61.9473 43.5211 62.242C43.5298 62.3373 43.4951 62.4197 43.4171 62.489C43.3478 62.5583 43.2654 62.593 43.1701 62.593H42.7801C42.6761 62.593 42.5938 62.567 42.5331 62.515C42.4724 62.463 42.4118 62.372 42.3511 62.242C42.0478 61.566 41.4628 61.228 40.5961 61.228C40.1194 61.228 39.7034 61.3883 39.3481 61.709C38.9928 62.0297 38.7891 62.515 38.7371 63.165C38.7284 63.2603 38.7241 63.4163 38.7241 63.633C38.7241 63.8323 38.7284 63.9797 38.7371 64.075C38.7978 64.725 39.0014 65.2103 39.3481 65.531C39.7034 65.8517 40.1194 66.012 40.5961 66.012ZM50.9271 63.009C50.9444 63.1997 50.9531 63.4077 50.9531 63.633C50.9531 63.841 50.9444 64.0403 50.9271 64.231C50.8491 65.115 50.5414 65.8213 50.0041 66.35C49.4754 66.87 48.7561 67.13 47.8461 67.13C46.9361 67.13 46.2124 66.87 45.6751 66.35C45.1464 65.8213 44.8431 65.115 44.7651 64.231C44.7564 64.1357 44.7521 63.9363 44.7521 63.633C44.7521 63.3123 44.7564 63.1043 44.7651 63.009C44.8344 62.125 45.1377 61.423 45.6751 60.903C46.2124 60.3743 46.9361 60.11 47.8461 60.11C48.7561 60.11 49.4797 60.3743 50.0171 60.903C50.5544 61.423 50.8577 62.125 50.9271 63.009ZM49.7441 63.074C49.6921 62.5193 49.5057 62.073 49.1851 61.735C48.8731 61.397 48.4267 61.228 47.8461 61.228C47.2654 61.228 46.8147 61.397 46.4941 61.735C46.1821 62.073 46.0001 62.5193 45.9481 63.074C45.9394 63.178 45.9351 63.3643 45.9351 63.633C45.9351 63.893 45.9394 64.0707 45.9481 64.166C46.0001 64.7207 46.1821 65.167 46.4941 65.505C46.8147 65.843 47.2654 66.012 47.8461 66.012C48.4267 66.012 48.8731 65.843 49.1851 65.505C49.5057 65.167 49.6921 64.7207 49.7441 64.166C49.7614 63.9753 49.7701 63.7977 49.7701 63.633C49.7701 63.4683 49.7614 63.282 49.7441 63.074ZM58.586 66.649C58.586 66.7443 58.5513 66.8267 58.482 66.896C58.4126 66.9653 58.3303 67 58.235 67H57.754C57.6586 67 57.5763 66.9653 57.507 66.896C57.4376 66.8267 57.403 66.7443 57.403 66.649V63.217C57.403 62.567 57.2426 62.073 56.922 61.735C56.6013 61.397 56.155 61.228 55.583 61.228C55.0196 61.228 54.5733 61.397 54.244 61.735C53.9233 62.073 53.763 62.567 53.763 63.217V66.649C53.763 66.7443 53.7283 66.8267 53.659 66.896C53.5896 66.9653 53.5073 67 53.412 67H52.931C52.8356 67 52.7533 66.9653 52.684 66.896C52.6146 66.8267 52.58 66.7443 52.58 66.649V60.591C52.58 60.4957 52.6146 60.4133 52.684 60.344C52.7533 60.2747 52.8356 60.24 52.931 60.24H53.412C53.5073 60.24 53.5896 60.2747 53.659 60.344C53.7283 60.4133 53.763 60.4957 53.763 60.591V60.994C53.9536 60.7427 54.2136 60.5347 54.543 60.37C54.881 60.1967 55.2926 60.11 55.778 60.11C56.324 60.11 56.8093 60.227 57.234 60.461C57.6586 60.695 57.988 61.033 58.222 61.475C58.4646 61.9083 58.586 62.424 58.586 63.022V66.649ZM66.3265 63.009C66.3438 63.1997 66.3525 63.4077 66.3525 63.633C66.3525 63.841 66.3438 64.0403 66.3265 64.231C66.2485 65.115 65.9408 65.8213 65.4035 66.35C64.8748 66.87 64.1555 67.13 63.2455 67.13C62.3355 67.13 61.6118 66.87 61.0745 66.35C60.5458 65.8213 60.2425 65.115 60.1645 64.231C60.1558 64.1357 60.1515 63.9363 60.1515 63.633C60.1515 63.3123 60.1558 63.1043 60.1645 63.009C60.2338 62.125 60.5371 61.423 61.0745 60.903C61.6118 60.3743 62.3355 60.11 63.2455 60.11C64.1555 60.11 64.8791 60.3743 65.4165 60.903C65.9538 61.423 66.2571 62.125 66.3265 63.009ZM65.1435 63.074C65.0915 62.5193 64.9051 62.073 64.5845 61.735C64.2725 61.397 63.8261 61.228 63.2455 61.228C62.6648 61.228 62.2141 61.397 61.8935 61.735C61.5815 62.073 61.3995 62.5193 61.3475 63.074C61.3388 63.178 61.3345 63.3643 61.3345 63.633C61.3345 63.893 61.3388 64.0707 61.3475 64.166C61.3995 64.7207 61.5815 65.167 61.8935 65.505C62.2141 65.843 62.6648 66.012 63.2455 66.012C63.8261 66.012 64.2725 65.843 64.5845 65.505C64.9051 65.167 65.0915 64.7207 65.1435 64.166C65.1608 63.9753 65.1695 63.7977 65.1695 63.633C65.1695 63.4683 65.1608 63.282 65.1435 63.074ZM69.1624 60.994C69.3704 60.7253 69.6044 60.513 69.8644 60.357C70.1244 60.1923 70.4711 60.11 70.9044 60.11C71.9184 60.11 72.6291 60.487 73.0364 61.241C73.2877 60.877 73.5737 60.5997 73.8944 60.409C74.2151 60.2097 74.6354 60.11 75.1554 60.11C76.0047 60.11 76.6331 60.3657 77.0404 60.877C77.4564 61.3883 77.6644 62.112 77.6644 63.048V66.649C77.6644 66.7443 77.6297 66.8267 77.5604 66.896C77.4911 66.9653 77.4087 67 77.3134 67H76.8324C76.7371 67 76.6547 66.9653 76.5854 66.896C76.5161 66.8267 76.4814 66.7443 76.4814 66.649V63.178C76.4814 61.878 75.9701 61.228 74.9474 61.228C74.4794 61.228 74.1067 61.384 73.8294 61.696C73.5521 62.008 73.4134 62.4717 73.4134 63.087V66.649C73.4134 66.7443 73.3787 66.8267 73.3094 66.896C73.2401 66.9653 73.1577 67 73.0624 67H72.5814C72.4861 67 72.4037 66.9653 72.3344 66.896C72.2651 66.8267 72.2304 66.7443 72.2304 66.649V63.178C72.2304 61.878 71.7191 61.228 70.6964 61.228C70.2284 61.228 69.8557 61.384 69.5784 61.696C69.3011 62.008 69.1624 62.4717 69.1624 63.087V66.649C69.1624 66.7443 69.1277 66.8267 69.0584 66.896C68.9891 66.9653 68.9067 67 68.8114 67H68.3304C68.2351 67 68.1527 66.9653 68.0834 66.896C68.0141 66.8267 67.9794 66.7443 67.9794 66.649V60.591C67.9794 60.4957 68.0141 60.4133 68.0834 60.344C68.1527 60.2747 68.2351 60.24 68.3304 60.24H68.8114C68.9067 60.24 68.9891 60.2747 69.0584 60.344C69.1277 60.4133 69.1624 60.4957 69.1624 60.591V60.994ZM80.7278 66.649C80.7278 66.7443 80.6932 66.8267 80.6238 66.896C80.5545 66.9653 80.4722 67 80.3768 67H79.8958C79.8005 67 79.7182 66.9653 79.6488 66.896C79.5795 66.8267 79.5448 66.7443 79.5448 66.649V60.591C79.5448 60.4957 79.5795 60.4133 79.6488 60.344C79.7182 60.2747 79.8005 60.24 79.8958 60.24H80.3768C80.4722 60.24 80.5545 60.2747 80.6238 60.344C80.6932 60.4133 80.7278 60.4957 80.7278 60.591V66.649ZM80.5198 57.692C80.6152 57.588 80.6932 57.523 80.7538 57.497C80.8145 57.4623 80.8968 57.445 81.0008 57.445H81.9628C82.0408 57.445 82.1015 57.471 82.1448 57.523C82.1882 57.5663 82.2098 57.627 82.2098 57.705C82.2098 57.7657 82.1882 57.8177 82.1448 57.861L80.7018 59.044C80.6065 59.122 80.5198 59.1783 80.4418 59.213C80.3725 59.2477 80.2772 59.265 80.1558 59.265H79.6748C79.5362 59.265 79.4668 59.1957 79.4668 59.057C79.4668 58.9877 79.4885 58.9313 79.5318 58.888L80.5198 57.692ZM86.6976 62.723V62.554C86.6976 62.1293 86.5546 61.8043 86.2686 61.579C85.9912 61.345 85.6272 61.228 85.1766 61.228C84.8299 61.228 84.5569 61.2887 84.3576 61.41C84.1669 61.5227 83.9849 61.696 83.8116 61.93C83.7596 61.9993 83.7032 62.047 83.6426 62.073C83.5819 62.099 83.4996 62.112 83.3956 62.112H83.0056C82.9102 62.112 82.8236 62.0773 82.7456 62.008C82.6762 61.9387 82.6459 61.8563 82.6546 61.761C82.6806 61.501 82.8062 61.2453 83.0316 60.994C83.2656 60.734 83.5732 60.5217 83.9546 60.357C84.3359 60.1923 84.7432 60.11 85.1766 60.11C85.9826 60.11 86.6326 60.3353 87.1266 60.786C87.6292 61.2367 87.8806 61.8693 87.8806 62.684V66.649C87.8806 66.7443 87.8459 66.8267 87.7766 66.896C87.7072 66.9653 87.6249 67 87.5296 67H87.0486C86.9532 67 86.8709 66.9653 86.8016 66.896C86.7322 66.8267 86.6976 66.7443 86.6976 66.649V66.116C86.5589 66.428 86.2642 66.675 85.8136 66.857C85.3629 67.039 84.9122 67.13 84.4616 67.13C84.0196 67.13 83.6252 67.052 83.2786 66.896C82.9319 66.7313 82.6632 66.5103 82.4726 66.233C82.2906 65.9557 82.1996 65.6437 82.1996 65.297C82.1996 64.647 82.4422 64.14 82.9276 63.776C83.4129 63.4033 84.0586 63.152 84.8646 63.022L86.6976 62.723ZM86.6976 63.763L85.1636 64.01C84.6002 64.0967 84.1626 64.2397 83.8506 64.439C83.5386 64.6297 83.3826 64.8723 83.3826 65.167C83.3826 65.3837 83.4822 65.5787 83.6816 65.752C83.8809 65.9253 84.1842 66.012 84.5916 66.012C85.2156 66.012 85.7226 65.8343 86.1126 65.479C86.5026 65.1237 86.6976 64.66 86.6976 64.088V63.763Z" fill="#EBECEE"/>
<rect x="40" y="74" width="38" height="25" rx="12.5" fill="#323B4A"/>
<path d="M57.1579 84.854C57.1766 85.1153 57.1859 85.5353 57.1859 86.114C57.1859 86.6833 57.1766 87.094 57.1579 87.346C57.0926 88.4567 56.7239 89.3667 56.0519 90.076C55.3892 90.7853 54.3952 91.14 53.0699 91.14C51.7446 91.14 50.7459 90.7853 50.0739 90.076C49.4112 89.3667 49.0472 88.4567 48.9819 87.346C48.9632 86.842 48.9539 86.4313 48.9539 86.114C48.9539 85.7967 48.9632 85.3767 48.9819 84.854C49.0472 83.7433 49.4112 82.8333 50.0739 82.124C50.7459 81.4147 51.7446 81.06 53.0699 81.06C54.3952 81.06 55.3892 81.4147 56.0519 82.124C56.7239 82.8333 57.0926 83.7433 57.1579 84.854ZM54.5679 84.924C54.5399 84.4107 54.4139 84.014 54.1899 83.734C53.9659 83.4447 53.5926 83.3 53.0699 83.3C52.5472 83.3 52.1739 83.4447 51.9499 83.734C51.7259 84.014 51.5999 84.4107 51.5719 84.924C51.5532 85.428 51.5439 85.8153 51.5439 86.086C51.5439 86.338 51.5532 86.7347 51.5719 87.276C51.5906 87.7893 51.7119 88.1907 51.9359 88.48C52.1692 88.76 52.5472 88.9 53.0699 88.9C53.5926 88.9 53.9659 88.76 54.1899 88.48C54.4232 88.1907 54.5492 87.7893 54.5679 87.276C54.5866 87.0053 54.5959 86.6087 54.5959 86.086C54.5959 85.5633 54.5866 85.176 54.5679 84.924ZM62.7646 84.182C62.7366 84.77 62.5359 85.2507 62.1626 85.624C61.7986 85.988 61.2666 86.17 60.5666 86.17C59.8666 86.17 59.3346 85.988 58.9706 85.624C58.6159 85.26 58.4152 84.7793 58.3686 84.182C58.3592 84.0607 58.3546 83.888 58.3546 83.664C58.3546 83.4307 58.3592 83.2487 58.3686 83.118C58.4152 82.5207 58.6159 82.04 58.9706 81.676C59.3346 81.312 59.8666 81.13 60.5666 81.13C61.2666 81.13 61.7939 81.312 62.1486 81.676C62.5126 82.04 62.7179 82.5207 62.7646 83.118C62.7832 83.3793 62.7926 83.5613 62.7926 83.664C62.7926 83.7667 62.7832 83.9393 62.7646 84.182ZM66.2646 81.466C66.3392 81.3727 66.4092 81.3073 66.4746 81.27C66.5492 81.2233 66.6472 81.2 66.7686 81.2H67.9166C68.0192 81.2 68.0986 81.228 68.1546 81.284C68.2199 81.3307 68.2526 81.396 68.2526 81.48C68.2526 81.536 68.2339 81.5873 68.1966 81.634L61.2806 90.734C61.2059 90.8273 61.1312 90.8973 61.0566 90.944C60.9912 90.9813 60.8979 91 60.7766 91H59.6286C59.5259 91 59.4419 90.9767 59.3766 90.93C59.3206 90.874 59.2926 90.804 59.2926 90.72C59.2926 90.664 59.3112 90.6127 59.3486 90.566L66.2646 81.466ZM60.5666 84.84C60.7626 84.84 60.9026 84.784 60.9866 84.672C61.0706 84.56 61.1219 84.3733 61.1406 84.112C61.1592 83.888 61.1686 83.734 61.1686 83.65C61.1686 83.5473 61.1592 83.3933 61.1406 83.188C61.1219 82.9267 61.0706 82.74 60.9866 82.628C60.9026 82.516 60.7626 82.46 60.5666 82.46C60.3706 82.46 60.2306 82.516 60.1466 82.628C60.0626 82.74 60.0112 82.9267 59.9926 83.188C59.9832 83.2907 59.9786 83.4447 59.9786 83.65C59.9786 83.846 59.9832 84 59.9926 84.112C60.0112 84.3733 60.0626 84.56 60.1466 84.672C60.2306 84.784 60.3706 84.84 60.5666 84.84ZM69.2606 89.082C69.2326 89.67 69.0319 90.1507 68.6586 90.524C68.2946 90.888 67.7626 91.07 67.0626 91.07C66.3626 91.07 65.8306 90.888 65.4666 90.524C65.1119 90.16 64.9112 89.6793 64.8646 89.082C64.8552 88.9607 64.8506 88.788 64.8506 88.564C64.8506 88.3307 64.8552 88.1487 64.8646 88.018C64.9112 87.4207 65.1119 86.94 65.4666 86.576C65.8306 86.212 66.3626 86.03 67.0626 86.03C67.7626 86.03 68.2899 86.212 68.6446 86.576C69.0086 86.94 69.2139 87.4207 69.2606 88.018C69.2792 88.2793 69.2886 88.4613 69.2886 88.564C69.2886 88.6667 69.2792 88.8393 69.2606 89.082ZM67.0626 89.74C67.2586 89.74 67.3986 89.684 67.4826 89.572C67.5666 89.46 67.6179 89.2733 67.6366 89.012C67.6552 88.788 67.6646 88.634 67.6646 88.55C67.6646 88.4473 67.6552 88.2933 67.6366 88.088C67.6179 87.8267 67.5666 87.64 67.4826 87.528C67.3986 87.416 67.2586 87.36 67.0626 87.36C66.8666 87.36 66.7266 87.416 66.6426 87.528C66.5586 87.64 66.5072 87.8267 66.4886 88.088C66.4792 88.1907 66.4746 88.3447 66.4746 88.55C66.4746 88.746 66.4792 88.9 66.4886 89.012C66.5072 89.2733 66.5586 89.46 66.6426 89.572C66.7266 89.684 66.8666 89.74 67.0626 89.74Z" fill="white"/>
<g filter="url(#filter0_d_34428_7862)">
<rect x="88" y="14" width="28" height="28" rx="14" fill="white"/>
<rect x="87" y="13" width="30" height="30" rx="15" stroke="#374151" stroke-width="2"/>
<path opacity="0.4" d="M102.001 30.4917C102.337 30.4917 102.609 30.7641 102.609 31.1001C102.609 31.436 102.337 31.7085 102.001 31.7085C101.665 31.7085 101.393 31.436 101.393 31.1001C101.393 30.7641 101.665 30.4917 102.001 30.4917Z" fill="#272E3A" stroke="#272E3A" stroke-width="1.5"/>
<path d="M98.124 26.6167H105.874C107.556 26.6167 108.395 26.8857 108.854 27.3452C109.314 27.8048 109.583 28.6432 109.583 30.3247V31.8755C109.583 33.557 109.314 34.3954 108.854 34.855C108.395 35.3145 107.556 35.5835 105.874 35.5835H98.124C96.4424 35.5835 95.6041 35.3145 95.1445 34.855C94.685 34.3955 94.4161 33.5571 94.416 31.8755V30.3247C94.4161 28.643 94.685 27.8047 95.1445 27.3452C95.6041 26.8857 96.4423 26.6167 98.124 26.6167ZM101.999 27.8335C100.192 27.8337 98.7324 29.3043 98.7324 31.1001C98.7325 32.8959 100.192 34.3665 101.999 34.3667C103.806 34.3667 105.266 32.896 105.266 31.1001C105.266 29.3042 103.807 27.8335 101.999 27.8335Z" fill="#272E3A" stroke="#272E3A" stroke-width="1.5"/>
<g opacity="0.4">
<mask id="path-11-inside-1_34428_7862" fill="white">
<path d="M97.9342 25.8748V24.8998C97.9342 22.4582 98.6259 20.8332 102.001 20.8332C105.376 20.8332 106.068 22.4582 106.068 24.8998V25.8748C106.493 25.8832 106.876 25.8998 107.234 25.9498V24.8998C107.234 22.6498 106.693 19.6665 102.001 19.6665C97.3092 19.6665 96.7676 22.6498 96.7676 24.8998V25.9415C97.1176 25.8998 97.5092 25.8748 97.9342 25.8748Z"/>
</mask>
<path d="M97.9342 25.8748V24.8998C97.9342 22.4582 98.6259 20.8332 102.001 20.8332C105.376 20.8332 106.068 22.4582 106.068 24.8998V25.8748C106.493 25.8832 106.876 25.8998 107.234 25.9498V24.8998C107.234 22.6498 106.693 19.6665 102.001 19.6665C97.3092 19.6665 96.7676 22.6498 96.7676 24.8998V25.9415C97.1176 25.8998 97.5092 25.8748 97.9342 25.8748Z" fill="#272E3A"/>
<path d="M97.9342 25.8748V27.3748H99.4342V25.8748H97.9342ZM106.068 25.8748H104.568V27.3457L106.038 27.3745L106.068 25.8748ZM107.234 25.9498L107.027 27.4354L108.734 27.6737V25.9498H107.234ZM107.234 24.8998H105.734H107.234ZM96.7676 25.9415H95.2676V27.6307L96.9449 27.431L96.7676 25.9415ZM97.9342 25.8748H99.4342V24.8998H97.9342H96.4342V25.8748H97.9342ZM97.9342 24.8998H99.4342C99.4342 23.7471 99.6156 23.1967 99.8528 22.913C100.039 22.6905 100.52 22.3332 102.001 22.3332V20.8332V19.3332C100.107 19.3332 98.5547 19.7884 97.5511 20.9888C96.5988 22.128 96.4342 23.6109 96.4342 24.8998H97.9342ZM102.001 20.8332V22.3332C103.482 22.3332 103.963 22.6905 104.149 22.913C104.386 23.1967 104.568 23.7471 104.568 24.8998H106.068H107.568C107.568 23.6109 107.403 22.128 106.451 20.9888C105.447 19.7884 103.895 19.3332 102.001 19.3332V20.8332ZM106.068 24.8998H104.568V25.8748H106.068H107.568V24.8998H106.068ZM106.068 25.8748L106.038 27.3745C106.451 27.3826 106.761 27.3983 107.027 27.4354L107.234 25.9498L107.442 24.4642C106.991 24.4014 106.535 24.3837 106.097 24.3751L106.068 25.8748ZM107.234 25.9498H108.734V24.8998H107.234H105.734V25.9498H107.234ZM107.234 24.8998L108.734 24.8998C108.734 23.7116 108.606 22.002 107.604 20.5769C106.526 19.0428 104.687 18.1665 102.001 18.1665V19.6665V21.1665C104.006 21.1665 104.784 21.7819 105.15 22.302C105.592 22.931 105.734 23.8381 105.734 24.8998L107.234 24.8998ZM102.001 19.6665V18.1665C99.3145 18.1665 97.4759 19.0428 96.3977 20.5769C95.396 22.002 95.2676 23.7116 95.2676 24.8998H96.7676H98.2676C98.2676 23.8381 98.41 22.931 98.8521 22.302C99.2176 21.7819 99.9956 21.1665 102.001 21.1665V19.6665ZM96.7676 24.8998H95.2676V25.9415H96.7676H98.2676V24.8998H96.7676ZM96.7676 25.9415L96.9449 27.431C97.2351 27.3964 97.5675 27.3748 97.9342 27.3748V25.8748V24.3748C97.451 24.3748 97.0001 24.4032 96.5903 24.452L96.7676 25.9415Z" fill="#272E3A" mask="url(#path-11-inside-1_34428_7862)"/>
</g>
</g>
<defs>
<filter id="filter0_d_34428_7862" x="71" y="5" width="62" height="62" filterUnits="userSpaceOnUse" color-interpolation-filters="sRGB">
<feFlood flood-opacity="0" result="BackgroundImageFix"/>
<feColorMatrix in="SourceAlpha" type="matrix" values="0 0 0 0 0 0 0 0 0 0 0 0 0 0 0 0 0 0 127 0" result="hardAlpha"/>
<feOffset dy="8"/>
<feGaussianBlur stdDeviation="7.5"/>
<feColorMatrix type="matrix" values="0 0 0 0 0 0 0 0 0 0 0 0 0 0 0 0 0 0 0.25 0"/>
<feBlend mode="normal" in2="BackgroundImageFix" result="effect1_dropShadow_34428_7862"/>
<feBlend mode="normal" in="SourceGraphic" in2="effect1_dropShadow_34428_7862" result="shape"/>
</filter>
</defs>
</svg>
