<svg width="133" height="118" viewBox="0 0 133 118" fill="none" xmlns="http://www.w3.org/2000/svg">
<rect x="2" y="2" width="114" height="114" rx="57" fill="#1E242D"/>
<rect x="2" y="2" width="114" height="114" rx="57" stroke="#374151" stroke-width="4"/>
<g clip-path="url(#clip0_34428_7852)">
<mask id="mask0_34428_7852" style="mask-type:luminance" maskUnits="userSpaceOnUse" x="43" y="19" width="32" height="32">
<path d="M75 19H43V51H75V19Z" fill="white"/>
</mask>
<g mask="url(#mask0_34428_7852)">
<path opacity="0.4" fill-rule="evenodd" clip-rule="evenodd" d="M57.9837 22.5876C56.8047 21.683 55.2504 21.4224 53.8373 21.9066C52.3973 22.3999 51.3173 23.5866 50.9573 25.0666C50.8373 25.6399 50.3839 26.0932 49.8106 26.2132C48.1173 26.5599 46.7173 27.7199 46.0506 29.3066C45.3839 30.9066 45.5706 32.72 46.5173 34.16C46.864 34.6666 46.864 35.3333 46.5173 35.8266C45.5573 37.2666 45.3839 39.08 46.0506 40.6798C46.7039 42.2798 48.1173 43.4398 49.8106 43.7732C50.3839 43.8932 50.8373 44.3465 50.9573 44.92C51.3173 46.4 52.3973 47.5865 53.8373 48.0798C55.2504 48.564 56.8047 48.3034 57.9837 47.3989V22.5876ZM59.9837 47.3985C61.1628 48.3033 62.7173 48.5641 64.1305 48.0798C65.5705 47.5865 66.6507 46.3865 67.0107 44.9065C67.1307 44.3332 67.584 43.8798 68.1573 43.7598C69.8507 43.4132 71.2507 42.2532 71.9173 40.6532C72.5707 39.0532 72.3973 37.2398 71.4373 35.7998C71.0907 35.2932 71.0907 34.6398 71.4373 34.1332C72.3973 32.6932 72.5707 30.8799 71.9173 29.2799C71.2507 27.6799 69.8507 26.5199 68.1573 26.1732C67.584 26.0532 67.1307 25.5999 67.0107 25.0266C66.6507 23.5466 65.5705 22.3599 64.1305 21.8666C62.7173 21.3824 61.1628 21.6431 59.9837 22.5479V47.3985Z" fill="#A677B3"/>
<path fill-rule="evenodd" clip-rule="evenodd" d="M66.3856 38.96C65.298 38.96 64.4258 39.8322 64.4258 40.92V41.92H62.4258V40.92C62.4258 38.7277 64.1934 36.96 66.3856 36.96H67.3856V38.96H66.3856Z" fill="#A677B3"/>
<path fill-rule="evenodd" clip-rule="evenodd" d="M55.5459 28.0801V29.0801C55.5459 31.2723 53.7782 33.0401 51.5859 33.0401H50.5859V31.0401H51.5859C52.6736 31.0401 53.5459 30.1678 53.5459 29.0801V28.0801H55.5459Z" fill="#A677B3"/>
<path fill-rule="evenodd" clip-rule="evenodd" d="M50.5859 36.96H51.5859C53.7782 36.96 55.5459 38.7277 55.5459 40.92V41.92H53.5459V40.92C53.5459 39.8322 52.6736 38.96 51.5859 38.96H50.5859V36.96Z" fill="#A677B3"/>
<path fill-rule="evenodd" clip-rule="evenodd" d="M64.4258 28.0801V29.0801C64.4258 30.1678 65.298 31.0401 66.3856 31.0401H67.3856V33.0401H66.3856C64.1934 33.0401 62.4258 31.2723 62.4258 29.0801V28.0801H64.4258Z" fill="#5F6774"/>
</g>
</g>
<path d="M40.3029 57.9C40.3982 57.9 40.4805 57.9347 40.5499 58.004C40.6192 58.0733 40.6539 58.1557 40.6539 58.251V58.719C40.6539 58.8143 40.6192 58.8967 40.5499 58.966C40.4805 59.0353 40.3982 59.07 40.3029 59.07H36.0259V62.073H40.0429C40.1382 62.073 40.2205 62.1077 40.2899 62.177C40.3592 62.2463 40.3939 62.3287 40.3939 62.424V62.892C40.3939 62.9873 40.3592 63.0697 40.2899 63.139C40.2205 63.2083 40.1382 63.243 40.0429 63.243H36.0259V66.649C36.0259 66.7443 35.9912 66.8267 35.9219 66.896C35.8525 66.9653 35.7702 67 35.6749 67H35.1419C35.0465 67 34.9642 66.9653 34.8949 66.896C34.8255 66.8267 34.7909 66.7443 34.7909 66.649V58.251C34.7909 58.1557 34.8255 58.0733 34.8949 58.004C34.9642 57.9347 35.0465 57.9 35.1419 57.9H40.3029ZM43.4638 58.862C43.4638 58.9573 43.4291 59.0397 43.3598 59.109C43.2904 59.1783 43.2081 59.213 43.1128 59.213H42.3718C42.2764 59.213 42.1941 59.1783 42.1248 59.109C42.0554 59.0397 42.0208 58.9573 42.0208 58.862V58.121C42.0208 58.0257 42.0554 57.9433 42.1248 57.874C42.1941 57.8047 42.2764 57.77 42.3718 57.77H43.1128C43.2081 57.77 43.2904 57.8047 43.3598 57.874C43.4291 57.9433 43.4638 58.0257 43.4638 58.121V58.862ZM43.3338 66.649C43.3338 66.7443 43.2991 66.8267 43.2298 66.896C43.1604 66.9653 43.0781 67 42.9828 67H42.5018C42.4064 67 42.3241 66.9653 42.2548 66.896C42.1854 66.8267 42.1508 66.7443 42.1508 66.649V60.591C42.1508 60.4957 42.1854 60.4133 42.2548 60.344C42.3241 60.2747 42.4064 60.24 42.5018 60.24H42.9828C43.0781 60.24 43.1604 60.2747 43.2298 60.344C43.2991 60.4133 43.3338 60.4957 43.3338 60.591V66.649ZM46.4695 66.649C46.4695 66.7443 46.4349 66.8267 46.3655 66.896C46.2962 66.9653 46.2139 67 46.1185 67H45.6375C45.5422 67 45.4599 66.9653 45.3905 66.896C45.3212 66.8267 45.2865 66.7443 45.2865 66.649V58.121C45.2865 58.0257 45.3212 57.9433 45.3905 57.874C45.4599 57.8047 45.5422 57.77 45.6375 57.77H46.1185C46.2139 57.77 46.2962 57.8047 46.3655 57.874C46.4349 57.9433 46.4695 58.0257 46.4695 58.121V66.649ZM54.2723 63.009C54.2896 63.1997 54.2983 63.4077 54.2983 63.633C54.2983 63.841 54.2896 64.0403 54.2723 64.231C54.1943 65.115 53.8866 65.8213 53.3493 66.35C52.8206 66.87 52.1013 67.13 51.1913 67.13C50.2813 67.13 49.5576 66.87 49.0203 66.35C48.4916 65.8213 48.1883 65.115 48.1103 64.231C48.1016 64.1357 48.0973 63.9363 48.0973 63.633C48.0973 63.3123 48.1016 63.1043 48.1103 63.009C48.1796 62.125 48.4829 61.423 49.0203 60.903C49.5576 60.3743 50.2813 60.11 51.1913 60.11C52.1013 60.11 52.8249 60.3743 53.3623 60.903C53.8996 61.423 54.2029 62.125 54.2723 63.009ZM53.0893 63.074C53.0373 62.5193 52.8509 62.073 52.5303 61.735C52.2183 61.397 51.7719 61.228 51.1913 61.228C50.6106 61.228 50.1599 61.397 49.8393 61.735C49.5273 62.073 49.3453 62.5193 49.2933 63.074C49.2846 63.178 49.2803 63.3643 49.2803 63.633C49.2803 63.893 49.2846 64.0707 49.2933 64.166C49.3453 64.7207 49.5273 65.167 49.8393 65.505C50.1599 65.843 50.6106 66.012 51.1913 66.012C51.7719 66.012 52.2183 65.843 52.5303 65.505C52.8509 65.167 53.0373 64.7207 53.0893 64.166C53.1066 63.9753 53.1153 63.7977 53.1153 63.633C53.1153 63.4683 53.1066 63.282 53.0893 63.074ZM57.5502 63.997C56.2849 63.7283 55.6522 63.0827 55.6522 62.06C55.6522 61.7047 55.7475 61.3797 55.9382 61.085C56.1289 60.7903 56.4105 60.5563 56.7832 60.383C57.1645 60.201 57.6282 60.11 58.1742 60.11C58.7115 60.11 59.1752 60.188 59.5652 60.344C59.9552 60.5 60.2499 60.695 60.4492 60.929C60.6572 61.163 60.7612 61.3883 60.7612 61.605C60.7612 61.6917 60.7265 61.7697 60.6572 61.839C60.5879 61.8997 60.5055 61.93 60.4102 61.93H59.9812C59.8165 61.93 59.6865 61.8693 59.5912 61.748C59.3225 61.4013 58.8502 61.228 58.1742 61.228C57.7755 61.228 57.4505 61.3017 57.1992 61.449C56.9565 61.5963 56.8352 61.8 56.8352 62.06C56.8352 62.2767 56.8959 62.4413 57.0172 62.554C57.1385 62.6667 57.3205 62.7577 57.5632 62.827C57.8059 62.8963 58.2349 63.0003 58.8502 63.139C59.6129 63.3037 60.1545 63.555 60.4752 63.893C60.7959 64.231 60.9562 64.6427 60.9562 65.128C60.9562 65.4833 60.8435 65.8127 60.6182 66.116C60.4015 66.4193 60.0852 66.6663 59.6692 66.857C59.2619 67.039 58.7852 67.13 58.2392 67.13C57.7019 67.13 57.2252 67.0477 56.8092 66.883C56.4019 66.7097 56.0855 66.5017 55.8602 66.259C55.6349 66.0163 55.5222 65.7867 55.5222 65.57C55.5222 65.4833 55.5569 65.4097 55.6262 65.349C55.6955 65.2797 55.7779 65.245 55.8732 65.245H56.3412C56.4192 65.245 56.4885 65.2537 56.5492 65.271C56.6099 65.2883 56.6662 65.336 56.7182 65.414C57.0042 65.8127 57.5112 66.012 58.2392 66.012C58.6465 66.012 59.0019 65.9297 59.3052 65.765C59.6172 65.5917 59.7732 65.3793 59.7732 65.128C59.7732 64.92 59.6952 64.7553 59.5392 64.634C59.3919 64.504 59.1752 64.4 58.8892 64.322C58.6032 64.2353 58.1569 64.127 57.5502 63.997ZM68.3514 63.009C68.3687 63.1997 68.3774 63.4077 68.3774 63.633C68.3774 63.841 68.3687 64.0403 68.3514 64.231C68.2734 65.115 67.9657 65.8213 67.4284 66.35C66.8997 66.87 66.1804 67.13 65.2704 67.13C64.3604 67.13 63.6367 66.87 63.0994 66.35C62.5707 65.8213 62.2674 65.115 62.1894 64.231C62.1807 64.1357 62.1764 63.9363 62.1764 63.633C62.1764 63.3123 62.1807 63.1043 62.1894 63.009C62.2587 62.125 62.562 61.423 63.0994 60.903C63.6367 60.3743 64.3604 60.11 65.2704 60.11C66.1804 60.11 66.904 60.3743 67.4414 60.903C67.9787 61.423 68.282 62.125 68.3514 63.009ZM67.1684 63.074C67.1164 62.5193 66.93 62.073 66.6094 61.735C66.2974 61.397 65.851 61.228 65.2704 61.228C64.6897 61.228 64.239 61.397 63.9184 61.735C63.6064 62.073 63.4244 62.5193 63.3724 63.074C63.3637 63.178 63.3594 63.3643 63.3594 63.633C63.3594 63.893 63.3637 64.0707 63.3724 64.166C63.4244 64.7207 63.6064 65.167 63.9184 65.505C64.239 65.843 64.6897 66.012 65.2704 66.012C65.851 66.012 66.2974 65.843 66.6094 65.505C66.93 65.167 67.1164 64.7207 67.1684 64.166C67.1857 63.9753 67.1944 63.7977 67.1944 63.633C67.1944 63.4683 67.1857 63.282 67.1684 63.074ZM73.5533 60.24C73.6486 60.24 73.731 60.2747 73.8003 60.344C73.8696 60.4133 73.9043 60.4957 73.9043 60.591V61.007C73.9043 61.1023 73.8696 61.1847 73.8003 61.254C73.731 61.3233 73.6486 61.358 73.5533 61.358H71.9023V66.649C71.9023 66.7443 71.8676 66.8267 71.7983 66.896C71.729 66.9653 71.6466 67 71.5513 67H71.0703C70.975 67 70.8926 66.9653 70.8233 66.896C70.754 66.8267 70.7193 66.7443 70.7193 66.649V61.358H69.6273C69.532 61.358 69.4496 61.3233 69.3803 61.254C69.311 61.1847 69.2763 61.1023 69.2763 61.007V60.591C69.2763 60.4957 69.311 60.4133 69.3803 60.344C69.4496 60.2747 69.532 60.24 69.6273 60.24H70.7193V59.59C70.7193 58.8447 70.8926 58.29 71.2393 57.926C71.586 57.562 72.1276 57.38 72.8643 57.38H73.6833C73.7786 57.38 73.861 57.4147 73.9303 57.484C73.9996 57.5533 74.0343 57.6357 74.0343 57.731V58.147C74.0343 58.2423 73.9996 58.3247 73.9303 58.394C73.861 58.4633 73.7786 58.498 73.6833 58.498H72.9943C72.5696 58.498 72.2793 58.5977 72.1233 58.797C71.976 58.9963 71.9023 59.2823 71.9023 59.655V60.24H73.5533ZM76.2527 66.649C76.2527 66.7443 76.2181 66.8267 76.1487 66.896C76.0794 66.9653 75.9971 67 75.9017 67H75.4207C75.3254 67 75.2431 66.9653 75.1737 66.896C75.1044 66.8267 75.0697 66.7443 75.0697 66.649V60.591C75.0697 60.4957 75.1044 60.4133 75.1737 60.344C75.2431 60.2747 75.3254 60.24 75.4207 60.24H75.9017C75.9971 60.24 76.0794 60.2747 76.1487 60.344C76.2181 60.4133 76.2527 60.4957 76.2527 60.591V66.649ZM76.0447 57.692C76.1401 57.588 76.2181 57.523 76.2787 57.497C76.3394 57.4623 76.4217 57.445 76.5257 57.445H77.4877C77.5657 57.445 77.6264 57.471 77.6697 57.523C77.7131 57.5663 77.7347 57.627 77.7347 57.705C77.7347 57.7657 77.7131 57.8177 77.6697 57.861L76.2267 59.044C76.1314 59.122 76.0447 59.1783 75.9667 59.213C75.8974 59.2477 75.8021 59.265 75.6807 59.265H75.1997C75.0611 59.265 74.9917 59.1957 74.9917 59.057C74.9917 58.9877 75.0134 58.9313 75.0567 58.888L76.0447 57.692ZM82.2225 62.723V62.554C82.2225 62.1293 82.0795 61.8043 81.7935 61.579C81.5161 61.345 81.1521 61.228 80.7015 61.228C80.3548 61.228 80.0818 61.2887 79.8825 61.41C79.6918 61.5227 79.5098 61.696 79.3365 61.93C79.2845 61.9993 79.2281 62.047 79.1675 62.073C79.1068 62.099 79.0245 62.112 78.9205 62.112H78.5305C78.4351 62.112 78.3485 62.0773 78.2705 62.008C78.2011 61.9387 78.1708 61.8563 78.1795 61.761C78.2055 61.501 78.3311 61.2453 78.5565 60.994C78.7905 60.734 79.0981 60.5217 79.4795 60.357C79.8608 60.1923 80.2681 60.11 80.7015 60.11C81.5075 60.11 82.1575 60.3353 82.6515 60.786C83.1541 61.2367 83.4055 61.8693 83.4055 62.684V66.649C83.4055 66.7443 83.3708 66.8267 83.3015 66.896C83.2321 66.9653 83.1498 67 83.0545 67H82.5735C82.4781 67 82.3958 66.9653 82.3265 66.896C82.2571 66.8267 82.2225 66.7443 82.2225 66.649V66.116C82.0838 66.428 81.7891 66.675 81.3385 66.857C80.8878 67.039 80.4371 67.13 79.9865 67.13C79.5445 67.13 79.1501 67.052 78.8035 66.896C78.4568 66.7313 78.1881 66.5103 77.9975 66.233C77.8155 65.9557 77.7245 65.6437 77.7245 65.297C77.7245 64.647 77.9671 64.14 78.4525 63.776C78.9378 63.4033 79.5835 63.152 80.3895 63.022L82.2225 62.723ZM82.2225 63.763L80.6885 64.01C80.1251 64.0967 79.6875 64.2397 79.3755 64.439C79.0635 64.6297 78.9075 64.8723 78.9075 65.167C78.9075 65.3837 79.0071 65.5787 79.2065 65.752C79.4058 65.9253 79.7091 66.012 80.1165 66.012C80.7405 66.012 81.2475 65.8343 81.6375 65.479C82.0275 65.1237 82.2225 64.66 82.2225 64.088V63.763Z" fill="#EBECEE"/>
<rect x="40" y="74" width="38" height="25" rx="12.5" fill="#323B4A"/>
<path d="M57.1579 84.854C57.1766 85.1153 57.1859 85.5353 57.1859 86.114C57.1859 86.6833 57.1766 87.094 57.1579 87.346C57.0926 88.4567 56.7239 89.3667 56.0519 90.076C55.3892 90.7853 54.3952 91.14 53.0699 91.14C51.7446 91.14 50.7459 90.7853 50.0739 90.076C49.4112 89.3667 49.0472 88.4567 48.9819 87.346C48.9632 86.842 48.9539 86.4313 48.9539 86.114C48.9539 85.7967 48.9632 85.3767 48.9819 84.854C49.0472 83.7433 49.4112 82.8333 50.0739 82.124C50.7459 81.4147 51.7446 81.06 53.0699 81.06C54.3952 81.06 55.3892 81.4147 56.0519 82.124C56.7239 82.8333 57.0926 83.7433 57.1579 84.854ZM54.5679 84.924C54.5399 84.4107 54.4139 84.014 54.1899 83.734C53.9659 83.4447 53.5926 83.3 53.0699 83.3C52.5472 83.3 52.1739 83.4447 51.9499 83.734C51.7259 84.014 51.5999 84.4107 51.5719 84.924C51.5532 85.428 51.5439 85.8153 51.5439 86.086C51.5439 86.338 51.5532 86.7347 51.5719 87.276C51.5906 87.7893 51.7119 88.1907 51.9359 88.48C52.1692 88.76 52.5472 88.9 53.0699 88.9C53.5926 88.9 53.9659 88.76 54.1899 88.48C54.4232 88.1907 54.5492 87.7893 54.5679 87.276C54.5866 87.0053 54.5959 86.6087 54.5959 86.086C54.5959 85.5633 54.5866 85.176 54.5679 84.924ZM62.7646 84.182C62.7366 84.77 62.5359 85.2507 62.1626 85.624C61.7986 85.988 61.2666 86.17 60.5666 86.17C59.8666 86.17 59.3346 85.988 58.9706 85.624C58.6159 85.26 58.4152 84.7793 58.3686 84.182C58.3592 84.0607 58.3546 83.888 58.3546 83.664C58.3546 83.4307 58.3592 83.2487 58.3686 83.118C58.4152 82.5207 58.6159 82.04 58.9706 81.676C59.3346 81.312 59.8666 81.13 60.5666 81.13C61.2666 81.13 61.7939 81.312 62.1486 81.676C62.5126 82.04 62.7179 82.5207 62.7646 83.118C62.7832 83.3793 62.7926 83.5613 62.7926 83.664C62.7926 83.7667 62.7832 83.9393 62.7646 84.182ZM66.2646 81.466C66.3392 81.3727 66.4092 81.3073 66.4746 81.27C66.5492 81.2233 66.6472 81.2 66.7686 81.2H67.9166C68.0192 81.2 68.0986 81.228 68.1546 81.284C68.2199 81.3307 68.2526 81.396 68.2526 81.48C68.2526 81.536 68.2339 81.5873 68.1966 81.634L61.2806 90.734C61.2059 90.8273 61.1312 90.8973 61.0566 90.944C60.9912 90.9813 60.8979 91 60.7766 91H59.6286C59.5259 91 59.4419 90.9767 59.3766 90.93C59.3206 90.874 59.2926 90.804 59.2926 90.72C59.2926 90.664 59.3112 90.6127 59.3486 90.566L66.2646 81.466ZM60.5666 84.84C60.7626 84.84 60.9026 84.784 60.9866 84.672C61.0706 84.56 61.1219 84.3733 61.1406 84.112C61.1592 83.888 61.1686 83.734 61.1686 83.65C61.1686 83.5473 61.1592 83.3933 61.1406 83.188C61.1219 82.9267 61.0706 82.74 60.9866 82.628C60.9026 82.516 60.7626 82.46 60.5666 82.46C60.3706 82.46 60.2306 82.516 60.1466 82.628C60.0626 82.74 60.0112 82.9267 59.9926 83.188C59.9832 83.2907 59.9786 83.4447 59.9786 83.65C59.9786 83.846 59.9832 84 59.9926 84.112C60.0112 84.3733 60.0626 84.56 60.1466 84.672C60.2306 84.784 60.3706 84.84 60.5666 84.84ZM69.2606 89.082C69.2326 89.67 69.0319 90.1507 68.6586 90.524C68.2946 90.888 67.7626 91.07 67.0626 91.07C66.3626 91.07 65.8306 90.888 65.4666 90.524C65.1119 90.16 64.9112 89.6793 64.8646 89.082C64.8552 88.9607 64.8506 88.788 64.8506 88.564C64.8506 88.3307 64.8552 88.1487 64.8646 88.018C64.9112 87.4207 65.1119 86.94 65.4666 86.576C65.8306 86.212 66.3626 86.03 67.0626 86.03C67.7626 86.03 68.2899 86.212 68.6446 86.576C69.0086 86.94 69.2139 87.4207 69.2606 88.018C69.2792 88.2793 69.2886 88.4613 69.2886 88.564C69.2886 88.6667 69.2792 88.8393 69.2606 89.082ZM67.0626 89.74C67.2586 89.74 67.3986 89.684 67.4826 89.572C67.5666 89.46 67.6179 89.2733 67.6366 89.012C67.6552 88.788 67.6646 88.634 67.6646 88.55C67.6646 88.4473 67.6552 88.2933 67.6366 88.088C67.6179 87.8267 67.5666 87.64 67.4826 87.528C67.3986 87.416 67.2586 87.36 67.0626 87.36C66.8666 87.36 66.7266 87.416 66.6426 87.528C66.5586 87.64 66.5072 87.8267 66.4886 88.088C66.4792 88.1907 66.4746 88.3447 66.4746 88.55C66.4746 88.746 66.4792 88.9 66.4886 89.012C66.5072 89.2733 66.5586 89.46 66.6426 89.572C66.7266 89.684 66.8666 89.74 67.0626 89.74Z" fill="white"/>
<g filter="url(#filter0_d_34428_7852)">
<rect x="88" y="14" width="28" height="28" rx="14" fill="white"/>
<rect x="87" y="13" width="30" height="30" rx="15" stroke="#374151" stroke-width="2"/>
<path opacity="0.4" d="M102.001 30.4917C102.337 30.4917 102.609 30.7641 102.609 31.1001C102.609 31.436 102.337 31.7085 102.001 31.7085C101.665 31.7085 101.393 31.436 101.393 31.1001C101.393 30.7641 101.665 30.4917 102.001 30.4917Z" fill="#272E3A" stroke="#272E3A" stroke-width="1.5"/>
<path d="M98.124 26.6167H105.874C107.556 26.6167 108.395 26.8857 108.854 27.3452C109.314 27.8048 109.583 28.6432 109.583 30.3247V31.8755C109.583 33.557 109.314 34.3954 108.854 34.855C108.395 35.3145 107.556 35.5835 105.874 35.5835H98.124C96.4424 35.5835 95.6041 35.3145 95.1445 34.855C94.685 34.3955 94.4161 33.5571 94.416 31.8755V30.3247C94.4161 28.643 94.685 27.8047 95.1445 27.3452C95.6041 26.8857 96.4423 26.6167 98.124 26.6167ZM101.999 27.8335C100.192 27.8337 98.7324 29.3043 98.7324 31.1001C98.7325 32.8959 100.192 34.3665 101.999 34.3667C103.806 34.3667 105.266 32.896 105.266 31.1001C105.266 29.3042 103.807 27.8335 101.999 27.8335Z" fill="#272E3A" stroke="#272E3A" stroke-width="1.5"/>
<g opacity="0.4">
<mask id="path-15-inside-1_34428_7852" fill="white">
<path d="M97.9342 25.8748V24.8998C97.9342 22.4582 98.6259 20.8332 102.001 20.8332C105.376 20.8332 106.068 22.4582 106.068 24.8998V25.8748C106.493 25.8832 106.876 25.8998 107.234 25.9498V24.8998C107.234 22.6498 106.693 19.6665 102.001 19.6665C97.3092 19.6665 96.7676 22.6498 96.7676 24.8998V25.9415C97.1176 25.8998 97.5092 25.8748 97.9342 25.8748Z"/>
</mask>
<path d="M97.9342 25.8748V24.8998C97.9342 22.4582 98.6259 20.8332 102.001 20.8332C105.376 20.8332 106.068 22.4582 106.068 24.8998V25.8748C106.493 25.8832 106.876 25.8998 107.234 25.9498V24.8998C107.234 22.6498 106.693 19.6665 102.001 19.6665C97.3092 19.6665 96.7676 22.6498 96.7676 24.8998V25.9415C97.1176 25.8998 97.5092 25.8748 97.9342 25.8748Z" fill="#272E3A"/>
<path d="M97.9342 25.8748V27.3748H99.4342V25.8748H97.9342ZM106.068 25.8748H104.568V27.3457L106.038 27.3745L106.068 25.8748ZM107.234 25.9498L107.027 27.4354L108.734 27.6737V25.9498H107.234ZM107.234 24.8998H105.734H107.234ZM96.7676 25.9415H95.2676V27.6307L96.9449 27.431L96.7676 25.9415ZM97.9342 25.8748H99.4342V24.8998H97.9342H96.4342V25.8748H97.9342ZM97.9342 24.8998H99.4342C99.4342 23.7471 99.6156 23.1967 99.8528 22.913C100.039 22.6905 100.52 22.3332 102.001 22.3332V20.8332V19.3332C100.107 19.3332 98.5547 19.7884 97.5511 20.9888C96.5988 22.128 96.4342 23.6109 96.4342 24.8998H97.9342ZM102.001 20.8332V22.3332C103.482 22.3332 103.963 22.6905 104.149 22.913C104.386 23.1967 104.568 23.7471 104.568 24.8998H106.068H107.568C107.568 23.6109 107.403 22.128 106.451 20.9888C105.447 19.7884 103.895 19.3332 102.001 19.3332V20.8332ZM106.068 24.8998H104.568V25.8748H106.068H107.568V24.8998H106.068ZM106.068 25.8748L106.038 27.3745C106.451 27.3826 106.761 27.3983 107.027 27.4354L107.234 25.9498L107.442 24.4642C106.991 24.4014 106.535 24.3837 106.097 24.3751L106.068 25.8748ZM107.234 25.9498H108.734V24.8998H107.234H105.734V25.9498H107.234ZM107.234 24.8998L108.734 24.8998C108.734 23.7116 108.606 22.002 107.604 20.5769C106.526 19.0428 104.687 18.1665 102.001 18.1665V19.6665V21.1665C104.006 21.1665 104.784 21.7819 105.15 22.302C105.592 22.931 105.734 23.8381 105.734 24.8998L107.234 24.8998ZM102.001 19.6665V18.1665C99.3145 18.1665 97.4759 19.0428 96.3977 20.5769C95.396 22.002 95.2676 23.7116 95.2676 24.8998H96.7676H98.2676C98.2676 23.8381 98.41 22.931 98.8521 22.302C99.2176 21.7819 99.9956 21.1665 102.001 21.1665V19.6665ZM96.7676 24.8998H95.2676V25.9415H96.7676H98.2676V24.8998H96.7676ZM96.7676 25.9415L96.9449 27.431C97.2351 27.3964 97.5675 27.3748 97.9342 27.3748V25.8748V24.3748C97.451 24.3748 97.0001 24.4032 96.5903 24.452L96.7676 25.9415Z" fill="#272E3A" mask="url(#path-15-inside-1_34428_7852)"/>
</g>
</g>
<defs>
<filter id="filter0_d_34428_7852" x="71" y="5" width="62" height="62" filterUnits="userSpaceOnUse" color-interpolation-filters="sRGB">
<feFlood flood-opacity="0" result="BackgroundImageFix"/>
<feColorMatrix in="SourceAlpha" type="matrix" values="0 0 0 0 0 0 0 0 0 0 0 0 0 0 0 0 0 0 127 0" result="hardAlpha"/>
<feOffset dy="8"/>
<feGaussianBlur stdDeviation="7.5"/>
<feColorMatrix type="matrix" values="0 0 0 0 0 0 0 0 0 0 0 0 0 0 0 0 0 0 0.25 0"/>
<feBlend mode="normal" in2="BackgroundImageFix" result="effect1_dropShadow_34428_7852"/>
<feBlend mode="normal" in="SourceGraphic" in2="effect1_dropShadow_34428_7852" result="shape"/>
</filter>
<clipPath id="clip0_34428_7852">
<rect width="32" height="32" fill="white" transform="translate(43 19)"/>
</clipPath>
</defs>
</svg>
